onset_time,pitch,velocity,voice_id,duration,trigger_time,compensation_ms
0.0,31,50,0,0.45,-0.022179863147605082,22.179863147605083
0.0,55,50,1,0.45,-0.022179863147605082,22.179863147605083
0.0,60,50,2,0.45,-0.022179863147605082,22.179863147605083
0.0,64,50,3,0.45,-0.022179863147605082,22.179863147605083
0.5,40,50,0,0.45,0.47782013685239494,22.179863147605083
0.5,43,50,1,0.45,0.47782013685239494,22.179863147605083
0.5,60,50,2,0.45,0.47782013685239494,22.179863147605083
0.5,67,50,3,0.45,0.47782013685239494,22.179863147605083
1.0,36,50,0,0.45,0.9778201368523949,22.179863147605083
1.0,43,50,1,0.45,0.9778201368523949,22.179863147605083
1.0,64,50,2,0.45,0.9778201368523949,22.179863147605083
1.0,76,50,3,0.45,0.9778201368523949,22.179863147605083
1.5,28,50,0,0.45,1.4778201368523949,22.179863147605083
1.5,36,50,1,0.45,1.4778201368523949,22.179863147605083
1.5,60,50,2,0.45,1.4778201368523949,22.179863147605083
1.5,64,50,3,0.45,1.4778201368523949,22.179863147605083
2.0,31,50,0,0.45,1.9778201368523949,22.179863147605083
2.0,55,50,1,0.45,1.9778201368523949,22.179863147605083
2.0,64,50,2,0.45,1.9778201368523949,22.179863147605083
2.0,60,50,3,0.45,1.9778201368523949,22.179863147605083
2.5,43,50,0,0.45,2.477820136852395,22.179863147605083
2.5,43,50,1,0.45,2.477820136852395,22.179863147605083
2.5,67,50,2,0.45,2.477820136852395,22.179863147605083
2.5,67,50,3,0.45,2.477820136852395,22.179863147605083
3.0,21,50,0,0.45,2.977820136852395,22.179863147605083
3.0,43,50,1,0.45,2.977820136852395,22.179863147605083
3.0,55,50,2,0.45,2.977820136852395,22.179863147605083
3.0,60,50,3,0.45,2.977820136852395,22.179863147605083
3.5,31,50,0,0.45,3.477820136852395,22.179863147605083
3.5,43,50,1,0.45,3.477820136852395,22.179863147605083
3.5,64,50,2,0.45,3.477820136852395,22.179863147605083
3.5,48,50,3,0.45,3.477820136852395,22.179863147605083
4.0,71,51,3,0.45,3.977976539589443,22.023460410557185
4.0,55,66,0,0.45,3.9803225806451614,19.67741935483871
4.0,64,73,2,0.45,3.9814173998044966,18.58260019550342
4.0,30,90,1,0.45,3.9840762463343107,15.923753665689148
4.5,75,51,3,0.45,4.477976539589442,22.023460410557185
4.5,83,52,0,0.45,4.478132942326491,21.867057673509287
4.5,89,75,2,0.45,4.481730205278592,18.269794721407624
4.5,39,101,1,0.45,4.485796676441837,14.203323558162268
5.0,39,61,1,0.45,4.979540566959922,20.459433040078203
5.0,84,66,2,0.45,4.980322580645161,19.67741935483871
5.0,63,76,3,0.45,4.98188660801564,18.113391984359726
5.0,86,104,0,0.45,4.9862658846529815,13.734115347018573
5.5,61,63,2,0.45,5.479853372434017,20.146627565982406
5.5,78,64,3,0.45,5.480009775171066,19.990224828934508
5.5,36,75,0,0.45,5.481730205278592,18.269794721407624
5.5,71,89,1,0.45,5.483919843597263,16.080156402737046
6.0,50,76,3,0.45,5.98188660801564,18.113391984359726
6.0,63,83,1,0.45,5.982981427174976,17.01857282502444
6.0,49,87,0,0.45,5.983607038123167,16.392961876832846
6.0,84,91,2,0.45,5.984232649071359,15.76735092864125
6.5,45,71,0,0.45,6.481104594330401,18.89540566959922
6.5,80,72,1,0.45,6.481260997067449,18.73900293255132
6.5,64,77,3,0.45,6.4820430107526885,17.956989247311828
6.5,53,78,2,0.45,6.482199413489736,17.80058651026393
7.0,75,71,3,0.45,6.981104594330401,18.89540566959922
7.0,51,74,1,0.45,6.981573802541544,18.426197458455523
7.0,58,75,0,0.45,6.981730205278592,18.269794721407624
7.0,73,79,2,0.45,6.982355816226784,17.64418377321603
7.5,81,60,2,0.45,7.479384164222874,20.6158357771261
7.5,55,62,3,0.45,7.4796969696969695,20.303030303030305
7.5,53,73,1,0.45,7.481417399804497,18.58260019550342
7.5,66,79,0,0.45,7.482355816226784,17.64418377321603
8.0,63,71,3,0.45,7.981104594330401,18.89540566959922
8.0,89,73,2,0.45,7.981417399804497,18.58260019550342
8.0,37,79,0,0.45,7.982355816226784,17.64418377321603
8.0,72,81,1,0.45,7.9826686217008795,17.331378299120235
8.5,42,65,2,0.45,8.480166177908114,19.83382209188661
8.5,78,71,3,0.45,8.4811045943304,18.89540566959922
8.5,62,89,0,0.45,8.483919843597263,16.080156402737046
8.5,71,93,1,0.45,8.484545454545454,15.454545454545453
9.0,39,57,1,0.45,8.97891495601173,21.085043988269796
9.0,57,63,2,0.45,8.979853372434018,20.146627565982406
9.0,50,65,0,0.45,8.980166177908114,19.83382209188661
9.0,58,84,3,0.45,8.983137829912023,16.86217008797654
9.5,70,53,0,0.45,9.478289345063539,21.71065493646139
9.5,50,68,1,0.45,9.480635386119257,19.364613880742915
9.5,47,76,2,0.45,9.48188660801564,18.113391984359726
9.5,64,76,3,0.45,9.48188660801564,18.113391984359726
10.0,85,57,2,0.45,9.97891495601173,21.085043988269796
10.0,42,64,3,0.45,9.980009775171066,19.990224828934508
10.0,60,65,1,0.45,9.980166177908114,19.83382209188661
10.0,82,100,0,0.45,9.98564027370479,14.359726295210166
10.5,65,76,0,0.45,10.48188660801564,18.113391984359726
10.5,37,78,1,0.45,10.482199413489736,17.80058651026393
10.5,70,93,3,0.45,10.484545454545454,15.454545454545453
10.5,75,103,2,0.45,10.486109481915934,13.890518084066471
11.0,31,71,3,0.45,10.9811045943304,18.89540566959922
11.0,74,75,2,0.45,10.981730205278593,18.269794721407624
11.0,67,86,0,0.45,10.98345063538612,16.549364613880744
11.0,49,86,1,0.45,10.98345063538612,16.549364613880744
11.5,80,73,2,0.45,11.481417399804496,18.58260019550342
11.5,74,76,3,0.45,11.48188660801564,18.113391984359726
11.5,34,80,0,0.45,11.482512218963832,17.487781036168133
11.5,63,80,1,0.45,11.482512218963832,17.487781036168133
12.0,81,55,1,0.45,11.978602150537634,21.397849462365592
12.0,75,65,0,0.45,11.980166177908114,19.83382209188661
12.0,39,66,2,0.45,11.980322580645161,19.67741935483871
12.0,58,76,3,0.45,11.98188660801564,18.113391984359726
12.5,51,62,1,0.45,12.47969696969697,20.303030303030305
12.5,34,62,3,0.45,12.47969696969697,20.303030303030305
12.5,64,67,0,0.45,12.48047898338221,19.521016617790814
12.5,48,86,2,0.45,12.48345063538612,16.549364613880744
13.0,69,63,3,0.45,12.979853372434018,20.146627565982406
13.0,40,68,1,0.45,12.980635386119257,19.364613880742915
13.0,35,78,0,0.45,12.982199413489736,17.80058651026393
13.0,69,79,2,0.45,12.982355816226784,17.64418377321603
13.5,83,65,2,0.45,13.480166177908114,19.83382209188661
13.5,71,77,3,0.45,13.482043010752689,17.956989247311828
13.5,73,85,0,0.45,13.48329423264907,16.705767350928642
13.5,63,87,1,0.45,13.483607038123168,16.392961876832846
14.0,71,67,3,0.009000000000000001,13.98047898338221,19.521016617790814
14.0,50,70,1,0.009000000000000001,13.980948191593352,19.05180840664712
14.0,61,82,2,0.009000000000000001,13.982825024437927,17.174975562072337
14.0,35,92,0,0.009000000000000001,13.984389051808407,15.610948191593351
14.01,74,78,3,0.009000000000000001,13.992199413489736,17.80058651026393
14.01,47,80,1,0.009000000000000001,13.992512218963832,17.487781036168133
14.01,36,81,0,0.009000000000000001,13.99266862170088,17.331378299120235
14.01,59,83,2,0.009000000000000001,13.992981427174975,17.01857282502444
14.02,51,63,1,0.009000000000000001,13.999853372434018,20.146627565982406
14.02,38,77,0,0.009000000000000001,14.002043010752688,17.956989247311828
14.02,75,89,3,0.009000000000000001,14.003919843597263,16.080156402737046
14.02,59,99,2,0.009000000000000001,14.005483870967742,14.516129032258064
14.03,51,76,1,0.009000000000000001,14.01188660801564,18.113391984359726
14.03,35,80,0,0.009000000000000001,14.012512218963831,17.487781036168133
14.03,55,93,2,0.009000000000000001,14.014545454545454,15.454545454545453
14.03,76,94,3,0.009000000000000001,14.014701857282502,15.298142717497555
14.04,60,71,2,0.009000000000000001,14.0211045943304,18.89540566959922
14.04,71,73,3,0.009000000000000001,14.021417399804495,18.58260019550342
14.04,42,93,1,0.009000000000000001,14.024545454545454,15.454545454545453
14.04,34,94,0,0.009000000000000001,14.024701857282501,15.298142717497555
14.049999999999999,59,68,2,0.009000000000000001,14.030635386119256,19.364613880742915
14.049999999999999,34,69,0,0.009000000000000001,14.030791788856304,19.208211143695017
14.049999999999999,72,74,3,0.009000000000000001,14.031573802541544,18.426197458455523
14.049999999999999,50,89,1,0.009000000000000001,14.033919843597262,16.080156402737046
14.059999999999999,36,71,0,0.009000000000000001,14.041104594330399,18.89540566959922
14.059999999999999,73,78,3,0.009000000000000001,14.042199413489735,17.80058651026393
14.059999999999999,60,80,2,0.009000000000000001,14.04251221896383,17.487781036168133
14.059999999999999,47,87,1,0.009000000000000001,14.043607038123167,16.392961876832846
14.069999999999999,62,66,2,0.009000000000000001,14.05032258064516,19.67741935483871
14.069999999999999,47,71,1,0.009000000000000001,14.051104594330399,18.89540566959922
14.069999999999999,69,87,3,0.009000000000000001,14.053607038123166,16.392961876832846
14.069999999999999,35,96,0,0.009000000000000001,14.055014662756596,14.985337243401759
14.079999999999998,50,65,1,0.009000000000000001,14.060166177908112,19.83382209188661
14.079999999999998,36,74,0,0.009000000000000001,14.061573802541544,18.426197458455523
14.079999999999998,73,95,3,0.009000000000000001,14.064858260019548,15.141739980449657
14.079999999999998,59,97,2,0.009000000000000001,14.065171065493644,14.82893450635386
14.089999999999998,29,64,0,0.009000000000000001,14.070009775171064,19.990224828934508
14.089999999999998,58,70,2,0.009000000000000001,14.07094819159335,19.05180840664712
14.089999999999998,50,90,1,0.009000000000000001,14.07407624633431,15.923753665689148
14.089999999999998,69,94,3,0.009000000000000001,14.0747018572825,15.298142717497555
14.099999999999998,71,67,3,0.009000000000000001,14.080478983382207,19.521016617790814
14.099999999999998,35,71,0,0.009000000000000001,14.081104594330398,18.89540566959922
14.099999999999998,45,72,1,0.009000000000000001,14.081260997067446,18.73900293255132
14.099999999999998,60,83,2,0.009000000000000001,14.082981427174973,17.01857282502444
14.109999999999998,72,72,3,0.009000000000000001,14.091260997067446,18.73900293255132
14.109999999999998,35,92,0,0.009000000000000001,14.094389051808404,15.610948191593351
14.109999999999998,46,96,1,0.009000000000000001,14.095014662756595,14.985337243401759
14.109999999999998,63,98,2,0.009000000000000001,14.09532746823069,14.672531769305962
14.119999999999997,40,62,0,0.009000000000000001,14.099696969696968,20.303030303030305
14.119999999999997,59,66,2,0.009000000000000001,14.100322580645159,19.67741935483871
14.119999999999997,51,70,1,0.009000000000000001,14.10094819159335,19.05180840664712
14.119999999999997,71,89,3,0.009000000000000001,14.10391984359726,16.080156402737046
14.129999999999997,50,75,1,0.009000000000000001,14.11173020527859,18.269794721407624
14.129999999999997,37,80,0,0.009000000000000001,14.112512218963829,17.487781036168133
14.129999999999997,74,88,3,0.009000000000000001,14.113763440860213,16.236559139784944
14.129999999999997,60,95,2,0.009000000000000001,14.114858260019547,15.141739980449657
14.139999999999997,74,73,3,0.009000000000000001,14.121417399804493,18.58260019550342
14.139999999999997,46,92,1,0.009000000000000001,14.124389051808404,15.610948191593351
14.139999999999997,56,97,2,0.009000000000000001,14.125171065493642,14.82893450635386
14.139999999999997,35,98,0,0.009000000000000001,14.12532746823069,14.672531769305962
14.149999999999997,75,63,3,0.009000000000000001,14.129853372434015,20.146627565982406
14.149999999999997,50,69,1,0.009000000000000001,14.130791788856301,19.208211143695017
14.149999999999997,59,74,2,0.009000000000000001,14.131573802541542,18.426197458455523
14.149999999999997,34,75,0,0.009000000000000001,14.13173020527859,18.269794721407624
14.159999999999997,61,64,2,0.009000000000000001,14.140009775171063,19.990224828934508
14.159999999999997,37,70,0,0.009000000000000001,14.140948191593349,19.05180840664712
14.159999999999997,73,90,3,0.009000000000000001,14.144076246334308,15.923753665689148
14.159999999999997,46,93,1,0.009000000000000001,14.144545454545451,15.454545454545453
14.169999999999996,61,76,2,0.009000000000000001,14.151886608015637,18.113391984359726
14.169999999999996,37,79,0,0.009000000000000001,14.15235581622678,17.64418377321603
14.169999999999996,48,87,1,0.009000000000000001,14.153607038123164,16.392961876832846
14.169999999999996,67,94,3,0.009000000000000001,14.154701857282499,15.298142717497555
14.179999999999996,34,69,0,0.009000000000000001,14.1607917888563,19.208211143695017
14.179999999999996,71,74,3,0.009000000000000001,14.161573802541541,18.426197458455523
14.179999999999996,50,76,1,0.009000000000000001,14.161886608015637,18.113391984359726
14.179999999999996,58,77,2,0.009000000000000001,14.162043010752685,17.956989247311828
14.189999999999996,50,64,1,0.009000000000000001,14.170009775171062,19.990224828934508
14.189999999999996,58,64,2,0.009000000000000001,14.170009775171062,19.990224828934508
14.189999999999996,69,66,3,0.009000000000000001,14.170322580645157,19.67741935483871
14.189999999999996,39,98,0,0.009000000000000001,14.17532746823069,14.672531769305962
14.199999999999996,37,63,0,0.009000000000000001,14.179853372434014,20.146627565982406
14.199999999999996,57,65,2,0.009000000000000001,14.18016617790811,19.83382209188661
14.199999999999996,73,66,3,0.009000000000000001,14.180322580645157,19.67741935483871
14.199999999999996,45,97,1,0.009000000000000001,14.185171065493641,14.82893450635386
14.209999999999996,36,72,0,0.009000000000000001,14.191260997067443,18.73900293255132
14.209999999999996,60,79,2,0.009000000000000001,14.19235581622678,17.64418377321603
14.209999999999996,47,95,1,0.009000000000000001,14.194858260019545,15.141739980449657
14.209999999999996,73,95,3,0.009000000000000001,14.194858260019545,15.141739980449657
14.219999999999995,69,79,3,0.009000000000000001,14.20235581622678,17.64418377321603
14.219999999999995,58,84,2,0.009000000000000001,14.203137829912018,16.86217008797654
14.219999999999995,48,93,1,0.009000000000000001,14.20454545454545,15.454545454545453
14.219999999999995,34,99,0,0.009000000000000001,14.205483870967738,14.516129032258064
14.229999999999995,36,71,0,0.009000000000000001,14.211104594330395,18.89540566959922
14.229999999999995,73,74,3,0.009000000000000001,14.21157380254154,18.426197458455523
14.229999999999995,47,75,1,0.009000000000000001,14.211730205278588,18.269794721407624
14.229999999999995,61,82,2,0.009000000000000001,14.212825024437922,17.174975562072337
14.239999999999995,33,66,0,0.009000000000000001,14.220322580645156,19.67741935483871
14.239999999999995,49,86,1,0.009000000000000001,14.223450635386115,16.549364613880744
14.239999999999995,61,88,2,0.009000000000000001,14.22376344086021,16.236559139784944
14.239999999999995,71,96,3,0.009000000000000001,14.225014662756593,14.985337243401759
14.249999999999995,48,62,1,0.009000000000000001,14.229696969696965,20.303030303030305
14.249999999999995,58,67,2,0.009000000000000001,14.230478983382204,19.521016617790814
14.249999999999995,34,71,0,0.009000000000000001,14.231104594330395,18.89540566959922
14.249999999999995,73,74,3,0.009000000000000001,14.23157380254154,18.426197458455523
14.259999999999994,61,62,2,0.009000000000000001,14.239696969696965,20.303030303030305
14.259999999999994,37,73,0,0.009000000000000001,14.24141739980449,18.58260019550342
14.259999999999994,45,92,1,0.009000000000000001,14.244389051808401,15.610948191593351
14.259999999999994,72,97,3,0.009000000000000001,14.24517106549364,14.82893450635386
14.269999999999994,62,64,2,0.009000000000000001,14.25000977517106,19.990224828934508
14.269999999999994,72,71,3,0.009000000000000001,14.251104594330394,18.89540566959922
14.269999999999994,33,76,0,0.009000000000000001,14.251886608015635,18.113391984359726
14.269999999999994,48,77,1,0.009000000000000001,14.252043010752683,17.956989247311828
14.279999999999994,73,62,3,0.009000000000000001,14.259696969696964,20.303030303030305
14.279999999999994,44,71,1,0.009000000000000001,14.261104594330394,18.89540566959922
14.279999999999994,33,84,0,0.009000000000000001,14.263137829912017,16.86217008797654
14.279999999999994,58,85,2,0.009000000000000001,14.263294232649065,16.705767350928642
14.289999999999994,71,67,3,0.009000000000000001,14.270478983382203,19.521016617790814
14.289999999999994,46,68,1,0.009000000000000001,14.27063538611925,19.364613880742915
14.289999999999994,60,68,2,0.009000000000000001,14.27063538611925,19.364613880742915
14.289999999999994,36,73,0,0.009000000000000001,14.27141739980449,18.58260019550342
14.299999999999994,73,76,3,0.009000000000000001,14.281886608015634,18.113391984359726
14.299999999999994,57,90,2,0.009000000000000001,14.284076246334305,15.923753665689148
14.299999999999994,35,95,0,0.009000000000000001,14.284858260019544,15.141739980449657
14.299999999999994,49,96,1,0.009000000000000001,14.285014662756591,14.985337243401759
14.309999999999993,36,63,0,0.009000000000000001,14.289853372434012,20.146627565982406
14.309999999999993,62,69,2,0.009000000000000001,14.290791788856298,19.208211143695017
14.309999999999993,43,77,1,0.009000000000000001,14.292043010752682,17.956989247311828
14.309999999999993,75,80,3,0.009000000000000001,14.292512218963825,17.487781036168133
14.319999999999993,73,63,3,0.009000000000000001,14.299853372434011,20.146627565982406
14.319999999999993,36,64,0,0.009000000000000001,14.300009775171059,19.990224828934508
14.319999999999993,60,80,2,0.009000000000000001,14.302512218963825,17.487781036168133
14.319999999999993,49,88,1,0.009000000000000001,14.303763440860209,16.236559139784944
14.329999999999993,46,66,1,0.009000000000000001,14.310322580645154,19.67741935483871
14.329999999999993,60,72,2,0.009000000000000001,14.311260997067441,18.73900293255132
14.329999999999993,35,89,0,0.009000000000000001,14.313919843597256,16.080156402737046
14.329999999999993,72,95,3,0.009000000000000001,14.314858260019543,15.141739980449657
14.339999999999993,38,75,0,0.009000000000000001,14.321730205278586,18.269794721407624
14.339999999999993,48,81,1,0.009000000000000001,14.322668621700872,17.331378299120235
14.339999999999993,58,83,2,0.009000000000000001,14.322981427174968,17.01857282502444
14.339999999999993,72,83,3,0.009000000000000001,14.322981427174968,17.01857282502444
14.349999999999993,70,63,3,0.009000000000000001,14.32985337243401,20.146627565982406
14.349999999999993,48,80,1,0.009000000000000001,14.332512218963824,17.487781036168133
14.349999999999993,58,81,2,0.009000000000000001,14.332668621700872,17.331378299120235
14.349999999999993,35,97,0,0.009000000000000001,14.335171065493638,14.82893450635386
14.359999999999992,63,63,2,0.009000000000000001,14.33985337243401,20.146627565982406
14.359999999999992,36,67,0,0.009000000000000001,14.340478983382202,19.521016617790814
14.359999999999992,46,76,1,0.009000000000000001,14.341886608015633,18.113391984359726
14.359999999999992,71,76,3,0.009000000000000001,14.341886608015633,18.113391984359726
14.369999999999992,71,64,3,0.009000000000000001,14.350009775171058,19.990224828934508
14.369999999999992,61,67,2,0.009000000000000001,14.350478983382201,19.521016617790814
14.369999999999992,49,74,1,0.009000000000000001,14.351573802541537,18.426197458455523
14.369999999999992,36,84,0,0.009000000000000001,14.353137829912015,16.86217008797654
14.379999999999992,47,72,1,0.009000000000000001,14.36126099706744,18.73900293255132
14.379999999999992,36,76,0,0.009000000000000001,14.361886608015633,18.113391984359726
14.379999999999992,73,83,3,0.009000000000000001,14.362981427174967,17.01857282502444
14.379999999999992,60,86,2,0.009000000000000001,14.363450635386112,16.549364613880744
14.389999999999992,59,68,2,0.009000000000000001,14.370635386119249,19.364613880742915
14.389999999999992,73,68,3,0.009000000000000001,14.370635386119249,19.364613880742915
14.389999999999992,35,82,0,0.009000000000000001,14.372825024437919,17.174975562072337
14.389999999999992,45,95,1,0.009000000000000001,14.374858260019542,15.141739980449657
14.399999999999991,59,82,2,0.009000000000000001,14.382825024437919,17.174975562072337
14.399999999999991,33,83,0,0.009000000000000001,14.382981427174967,17.01857282502444
14.399999999999991,51,93,1,0.009000000000000001,14.384545454545446,15.454545454545453
14.399999999999991,70,98,3,0.009000000000000001,14.385327468230685,14.672531769305962
14.409999999999991,72,68,3,0.009000000000000001,14.390635386119248,19.364613880742915
14.409999999999991,46,72,1,0.009000000000000001,14.39126099706744,18.73900293255132
14.409999999999991,63,82,2,0.009000000000000001,14.392825024437919,17.174975562072337
14.409999999999991,36,87,0,0.009000000000000001,14.39360703812316,16.392961876832846
14.419999999999991,58,68,2,0.009000000000000001,14.400635386119248,19.364613880742915
14.419999999999991,46,72,1,0.009000000000000001,14.401260997067439,18.73900293255132
14.419999999999991,34,79,0,0.009000000000000001,14.402355816226775,17.64418377321603
14.419999999999991,74,83,3,0.009000000000000001,14.402981427174966,17.01857282502444
14.42999999999999,73,64,3,0.009000000000000001,14.410009775171057,19.990224828934508
14.42999999999999,51,95,1,0.009000000000000001,14.41485826001954,15.141739980449657
14.42999999999999,32,97,0,0.009000000000000001,14.415171065493636,14.82893450635386
14.42999999999999,58,98,2,0.009000000000000001,14.415327468230684,14.672531769305962
14.43999999999999,57,66,2,0.009000000000000001,14.420322580645152,19.67741935483871
14.43999999999999,47,69,1,0.009000000000000001,14.420791788856295,19.208211143695017
14.43999999999999,37,83,0,0.009000000000000001,14.422981427174966,17.01857282502444
14.43999999999999,72,88,3,0.009000000000000001,14.423763440860206,16.236559139784944
14.44999999999999,72,68,3,0.009000000000000001,14.430635386119247,19.364613880742915
14.44999999999999,36,81,0,0.009000000000000001,14.43266862170087,17.331378299120235
14.44999999999999,53,96,1,0.009000000000000001,14.435014662756588,14.985337243401759
14.44999999999999,61,97,2,0.009000000000000001,14.435171065493636,14.82893450635386
14.45999999999999,48,64,1,0.009000000000000001,14.440009775171056,19.990224828934508
14.45999999999999,72,67,3,0.009000000000000001,14.4404789833822,19.521016617790814
14.45999999999999,35,97,0,0.009000000000000001,14.445171065493636,14.82893450635386
14.45999999999999,58,97,2,0.009000000000000001,14.445171065493636,14.82893450635386
14.46999999999999,48,66,1,0.009000000000000001,14.450322580645151,19.67741935483871
14.46999999999999,58,68,2,0.009000000000000001,14.450635386119247,19.364613880742915
14.46999999999999,35,69,0,0.009000000000000001,14.450791788856295,19.208211143695017
14.46999999999999,70,92,3,0.009000000000000001,14.454389051808397,15.610948191593351
14.47999999999999,58,63,2,0.009000000000000001,14.459853372434008,20.146627565982406
14.47999999999999,70,73,3,0.009000000000000001,14.461417399804485,18.58260019550342
14.47999999999999,35,76,0,0.009000000000000001,14.46188660801563,18.113391984359726
14.47999999999999,47,80,1,0.009000000000000001,14.462512218963822,17.487781036168133
14.48999999999999,58,69,2,0.009000000000000001,14.470791788856294,19.208211143695017
14.48999999999999,50,70,1,0.009000000000000001,14.470948191593342,19.05180840664712
14.48999999999999,71,70,3,0.009000000000000001,14.470948191593342,19.05180840664712
14.48999999999999,34,94,0,0.009000000000000001,14.474701857282492,15.298142717497555
14.49999999999999,63,68,2,0.009000000000000001,14.480635386119246,19.364613880742915
14.49999999999999,37,85,0,0.009000000000000001,14.48329423264906,16.705767350928642
14.49999999999999,42,89,1,0.009000000000000001,14.483919843597253,16.080156402737046
14.49999999999999,74,89,3,0.009000000000000001,14.483919843597253,16.080156402737046
14.50999999999999,46,86,1,0.009000000000000001,14.49345063538611,16.549364613880744
14.50999999999999,55,89,2,0.009000000000000001,14.493919843597252,16.080156402737046
14.50999999999999,36,92,0,0.009000000000000001,14.494389051808396,15.610948191593351
14.50999999999999,69,94,3,0.009000000000000001,14.494701857282491,15.298142717497555
14.519999999999989,75,69,3,0.009000000000000001,14.500791788856294,19.208211143695017
14.519999999999989,64,74,2,0.009000000000000001,14.501573802541534,18.426197458455523
14.519999999999989,33,77,0,0.009000000000000001,14.502043010752677,17.956989247311828
14.519999999999989,49,78,1,0.009000000000000001,14.502199413489725,17.80058651026393
14.529999999999989,76,65,3,0.009000000000000001,14.510166177908102,19.83382209188661
14.529999999999989,61,69,2,0.009000000000000001,14.510791788856293,19.208211143695017
14.529999999999989,49,73,1,0.009000000000000001,14.511417399804484,18.58260019550342
14.529999999999989,33,90,0,0.009000000000000001,14.5140762463343,15.923753665689148
14.539999999999988,50,65,1,0.009000000000000001,14.520166177908102,19.83382209188661
14.539999999999988,71,73,3,0.009000000000000001,14.521417399804484,18.58260019550342
14.539999999999988,58,82,2,0.009000000000000001,14.522825024437916,17.174975562072337
14.539999999999988,33,97,0,0.009000000000000001,14.525171065493634,14.82893450635386
14.549999999999988,46,78,1,0.009000000000000001,14.532199413489725,17.80058651026393
14.549999999999988,62,90,2,0.009000000000000001,14.5340762463343,15.923753665689148
14.549999999999988,34,96,0,0.009000000000000001,14.535014662756586,14.985337243401759
14.549999999999988,72,99,3,0.009000000000000001,14.535483870967731,14.516129032258064
14.559999999999988,46,63,1,0.009000000000000001,14.539853372434006,20.146627565982406
14.559999999999988,72,65,3,0.009000000000000001,14.540166177908102,19.83382209188661
14.559999999999988,38,72,0,0.009000000000000001,14.541260997067436,18.73900293255132
14.559999999999988,59,98,2,0.009000000000000001,14.545327468230681,14.672531769305962
14.569999999999988,69,63,3,0.009000000000000001,14.549853372434006,20.146627565982406
14.569999999999988,33,70,0,0.009000000000000001,14.55094819159334,19.05180840664712
14.569999999999988,47,71,1,0.009000000000000001,14.551104594330388,18.89540566959922
14.569999999999988,62,82,2,0.009000000000000001,14.552825024437915,17.174975562072337
14.579999999999988,71,71,3,0.009000000000000001,14.561104594330388,18.89540566959922
14.579999999999988,60,76,2,0.009000000000000001,14.561886608015628,18.113391984359726
14.579999999999988,33,95,0,0.009000000000000001,14.564858260019538,15.141739980449657
14.579999999999988,46,95,1,0.009000000000000001,14.564858260019538,15.141739980449657
14.589999999999987,77,83,3,0.009000000000000001,14.572981427174962,17.01857282502444
14.589999999999987,49,84,1,0.009000000000000001,14.57313782991201,16.86217008797654
14.589999999999987,58,91,2,0.009000000000000001,14.574232649071346,15.76735092864125
14.589999999999987,33,93,0,0.009000000000000001,14.574545454545442,15.454545454545453
14.599999999999987,32,66,0,0.009000000000000001,14.580322580645149,19.67741935483871
14.599999999999987,63,68,2,0.009000000000000001,14.580635386119244,19.364613880742915
14.599999999999987,73,72,3,0.009000000000000001,14.581260997067435,18.73900293255132
14.599999999999987,45,74,1,0.009000000000000001,14.581573802541532,18.426197458455523
14.609999999999987,35,73,0,0.009000000000000001,14.591417399804483,18.58260019550342
14.609999999999987,62,83,2,0.009000000000000001,14.592981427174962,17.01857282502444
14.609999999999987,74,85,3,0.009000000000000001,14.593294232649058,16.705767350928642
14.609999999999987,50,98,1,0.009000000000000001,14.59532746823068,14.672531769305962
14.619999999999987,48,70,1,0.009000000000000001,14.60094819159334,19.05180840664712
14.619999999999987,72,78,3,0.009000000000000001,14.602199413489723,17.80058651026393
14.619999999999987,32,83,0,0.009000000000000001,14.602981427174962,17.01857282502444
14.619999999999987,63,88,2,0.009000000000000001,14.603763440860202,16.236559139784944
14.629999999999987,38,69,0,0.009000000000000001,14.610791788856291,19.208211143695017
14.629999999999987,51,80,1,0.009000000000000001,14.612512218963818,17.487781036168133
14.629999999999987,68,81,3,0.009000000000000001,14.612668621700866,17.331378299120235
14.629999999999987,60,85,2,0.009000000000000001,14.613294232649057,16.705767350928642
14.639999999999986,33,72,0,0.009000000000000001,14.621260997067434,18.73900293255132
14.639999999999986,68,79,3,0.009000000000000001,14.62235581622677,17.64418377321603
14.639999999999986,50,81,1,0.009000000000000001,14.622668621700866,17.331378299120235
14.639999999999986,57,92,2,0.009000000000000001,14.624389051808393,15.610948191593351
14.649999999999986,60,67,2,0.009000000000000001,14.630478983382195,19.521016617790814
14.649999999999986,47,75,1,0.009000000000000001,14.63173020527858,18.269794721407624
14.649999999999986,37,90,0,0.009000000000000001,14.634076246334297,15.923753665689148
14.649999999999986,72,94,3,0.009000000000000001,14.634701857282488,15.298142717497555
14.659999999999986,60,68,2,0.009000000000000001,14.640635386119243,19.364613880742915
14.659999999999986,48,81,1,0.009000000000000001,14.642668621700865,17.331378299120235
14.659999999999986,32,82,0,0.009000000000000001,14.642825024437913,17.174975562072337
14.659999999999986,73,88,3,0.009000000000000001,14.643763440860202,16.236559139784944
14.669999999999986,56,65,2,0.009000000000000001,14.6501661779081,19.83382209188661
14.669999999999986,75,70,3,0.009000000000000001,14.650948191593338,19.05180840664712
14.669999999999986,50,80,1,0.009000000000000001,14.652512218963818,17.487781036168133
14.669999999999986,37,88,0,0.009000000000000001,14.653763440860201,16.236559139784944
14.679999999999986,36,71,0,0.009000000000000001,14.661104594330386,18.89540566959922
14.679999999999986,59,75,2,0.009000000000000001,14.661730205278579,18.269794721407624
14.679999999999986,47,83,1,0.009000000000000001,14.66298142717496,17.01857282502444
14.679999999999986,74,90,3,0.009000000000000001,14.664076246334297,15.923753665689148
14.689999999999985,60,71,2,0.009000000000000001,14.671104594330385,18.89540566959922
14.689999999999985,51,73,1,0.009000000000000001,14.671417399804481,18.58260019550342
14.689999999999985,37,90,0,0.009000000000000001,14.674076246334296,15.923753665689148
14.689999999999985,72,98,3,0.009000000000000001,14.675327468230678,14.672531769305962
14.699999999999985,60,65,2,0.009000000000000001,14.680166177908099,19.83382209188661
14.699999999999985,48,74,1,0.009000000000000001,14.68157380254153,18.426197458455523
14.699999999999985,72,92,3,0.009000000000000001,14.684389051808392,15.610948191593351
14.699999999999985,34,93,0,0.009000000000000001,14.68454545454544,15.454545454545453
14.709999999999985,47,67,1,0.009000000000000001,14.690478983382194,19.521016617790814
14.709999999999985,61,77,2,0.009000000000000001,14.692043010752673,17.956989247311828
14.709999999999985,72,77,3,0.009000000000000001,14.692043010752673,17.956989247311828
14.709999999999985,37,79,0,0.009000000000000001,14.692355816226769,17.64418377321603
14.719999999999985,47,73,1,0.009000000000000001,14.70141739980448,18.58260019550342
14.719999999999985,34,74,0,0.009000000000000001,14.70157380254153,18.426197458455523
14.719999999999985,57,89,2,0.009000000000000001,14.703919843597248,16.080156402737046
14.719999999999985,69,96,3,0.009000000000000001,14.705014662756582,14.985337243401759
14.729999999999984,59,69,2,0.009000000000000001,14.71079178885629,19.208211143695017
14.729999999999984,71,83,3,0.009000000000000001,14.71298142717496,17.01857282502444
14.729999999999984,45,88,1,0.009000000000000001,14.7137634408602,16.236559139784944
14.729999999999984,37,98,0,0.009000000000000001,14.715327468230678,14.672531769305962
14.739999999999984,50,68,1,0.009000000000000001,14.720635386119241,19.364613880742915
14.739999999999984,60,85,2,0.009000000000000001,14.723294232649055,16.705767350928642
14.739999999999984,38,88,0,0.009000000000000001,14.7237634408602,16.236559139784944
14.739999999999984,69,95,3,0.009000000000000001,14.724858260019534,15.141739980449657
14.749999999999984,44,67,1,0.009000000000000001,14.730478983382193,19.521016617790814
14.749999999999984,37,70,0,0.009000000000000001,14.730948191593336,19.05180840664712
14.749999999999984,73,79,3,0.009000000000000001,14.732355816226768,17.64418377321603
14.749999999999984,58,81,2,0.009000000000000001,14.732668621700864,17.331378299120235
14.759999999999984,47,65,1,0.009000000000000001,14.740166177908097,19.83382209188661
14.759999999999984,38,87,0,0.009000000000000001,14.743607038123152,16.392961876832846
14.759999999999984,61,90,2,0.009000000000000001,14.744076246334295,15.923753665689148
14.759999999999984,76,94,3,0.009000000000000001,14.744701857282486,15.298142717497555
14.769999999999984,35,62,0,0.009000000000000001,14.749696969696954,20.303030303030305
14.769999999999984,49,74,1,0.009000000000000001,14.751573802541529,18.426197458455523
14.769999999999984,60,86,2,0.009000000000000001,14.753450635386104,16.549364613880744
14.769999999999984,73,93,3,0.009000000000000001,14.754545454545438,15.454545454545453
14.779999999999983,56,70,2,0.009000000000000001,14.760948191593336,19.05180840664712
14.779999999999983,47,74,1,0.009000000000000001,14.761573802541529,18.426197458455523
14.779999999999983,73,85,3,0.009000000000000001,14.763294232649054,16.705767350928642
14.779999999999983,35,97,0,0.009000000000000001,14.765171065493629,14.82893450635386
14.789999999999983,73,66,3,0.009000000000000001,14.770322580645145,19.67741935483871
14.789999999999983,59,70,2,0.009000000000000001,14.770948191593336,19.05180840664712
14.789999999999983,49,73,1,0.009000000000000001,14.771417399804479,18.58260019550342
14.789999999999983,34,80,0,0.009000000000000001,14.772512218963815,17.487781036168133
14.799999999999983,73,69,3,0.009000000000000001,14.780791788856288,19.208211143695017
14.799999999999983,34,70,0,0.009000000000000001,14.780948191593335,19.05180840664712
14.799999999999983,44,76,1,0.009000000000000001,14.781886608015624,18.113391984359726
14.799999999999983,64,84,2,0.009000000000000001,14.783137829912006,16.86217008797654
14.809999999999983,33,78,0,0.009000000000000001,14.792199413489719,17.80058651026393
14.809999999999983,52,78,1,0.009000000000000001,14.792199413489719,17.80058651026393
14.809999999999983,70,80,3,0.009000000000000001,14.792512218963815,17.487781036168133
14.809999999999983,61,94,2,0.009000000000000001,14.794701857282485,15.298142717497555
14.819999999999983,46,70,1,0.009000000000000001,14.800948191593335,19.05180840664712
14.819999999999983,37,79,0,0.009000000000000001,14.802355816226767,17.64418377321603
14.819999999999983,66,91,3,0.009000000000000001,14.804232649071341,15.76735092864125
14.819999999999983,65,99,2,0.009000000000000001,14.805483870967725,14.516129032258064
14.829999999999982,46,63,1,0.009000000000000001,14.809853372434,20.146627565982406
14.829999999999982,35,72,0,0.009000000000000001,14.81126099706743,18.73900293255132
14.829999999999982,71,79,3,0.009000000000000001,14.812355816226766,17.64418377321603
14.829999999999982,55,83,2,0.009000000000000001,14.812981427174957,17.01857282502444
14.839999999999982,50,93,1,0.009000000000000001,14.824545454545436,15.454545454545453
14.839999999999982,59,95,2,0.009000000000000001,14.824858260019532,15.141739980449657
14.839999999999982,69,95,3,0.009000000000000001,14.824858260019532,15.141739980449657
14.839999999999982,35,96,0,0.009000000000000001,14.82501466275658,14.985337243401759
14.849999999999982,47,63,1,0.009000000000000001,14.829853372434,20.146627565982406
14.849999999999982,36,64,0,0.009000000000000001,14.830009775171048,19.990224828934508
14.849999999999982,59,75,2,0.009000000000000001,14.831730205278575,18.269794721407624
14.849999999999982,73,83,3,0.009000000000000001,14.832981427174957,17.01857282502444
14.859999999999982,60,64,2,0.009000000000000001,14.840009775171048,19.990224828934508
14.859999999999982,48,67,1,0.009000000000000001,14.84047898338219,19.521016617790814
14.859999999999982,35,79,0,0.009000000000000001,14.842355816226766,17.64418377321603
14.859999999999982,71,99,3,0.009000000000000001,14.845483870967724,14.516129032258064
14.869999999999981,39,63,0,0.009000000000000001,14.849853372434,20.146627565982406
14.869999999999981,73,72,3,0.009000000000000001,14.85126099706743,18.73900293255132
14.869999999999981,61,94,2,0.009000000000000001,14.854701857282484,15.298142717497555
14.869999999999981,44,98,1,0.009000000000000001,14.855327468230675,14.672531769305962
14.879999999999981,70,64,3,0.009000000000000001,14.860009775171047,19.990224828934508
14.879999999999981,48,66,1,0.009000000000000001,14.860322580645143,19.67741935483871
14.879999999999981,62,73,2,0.009000000000000001,14.861417399804477,18.58260019550342
14.879999999999981,35,98,0,0.009000000000000001,14.865327468230674,14.672531769305962
14.889999999999981,44,75,1,0.009000000000000001,14.871730205278574,18.269794721407624
14.889999999999981,35,85,0,0.009000000000000001,14.873294232649052,16.705767350928642
14.889999999999981,72,86,3,0.009000000000000001,14.873450635386101,16.549364613880744
14.889999999999981,60,94,2,0.009000000000000001,14.874701857282483,15.298142717497555
14.89999999999998,58,67,2,0.009000000000000001,14.88047898338219,19.521016617790814
14.89999999999998,38,70,0,0.009000000000000001,14.880948191593333,19.05180840664712
14.89999999999998,48,75,1,0.009000000000000001,14.881730205278574,18.269794721407624
14.89999999999998,74,89,3,0.009000000000000001,14.883919843597244,16.080156402737046
14.90999999999998,58,67,2,0.009000000000000001,14.89047898338219,19.521016617790814
14.90999999999998,32,68,0,0.009000000000000001,14.890635386119238,19.364613880742915
14.90999999999998,49,74,1,0.009000000000000001,14.891573802541526,18.426197458455523
14.90999999999998,72,84,3,0.009000000000000001,14.893137829912003,16.86217008797654
14.91999999999998,48,77,1,0.009000000000000001,14.902043010752669,17.956989247311828
14.91999999999998,37,81,0,0.009000000000000001,14.90266862170086,17.331378299120235
14.91999999999998,60,87,2,0.009000000000000001,14.903607038123148,16.392961876832846
14.91999999999998,74,96,3,0.009000000000000001,14.905014662756578,14.985337243401759
14.92999999999998,58,70,2,0.009000000000000001,14.910948191593333,19.05180840664712
14.92999999999998,74,72,3,0.009000000000000001,14.911260997067428,18.73900293255132
14.92999999999998,35,73,0,0.009000000000000001,14.911417399804476,18.58260019550342
14.92999999999998,49,91,1,0.009000000000000001,14.914232649071339,15.76735092864125
14.93999999999998,73,70,3,0.009000000000000001,14.920948191593332,19.05180840664712
14.93999999999998,45,71,1,0.009000000000000001,14.92110459433038,18.89540566959922
14.93999999999998,35,87,0,0.009000000000000001,14.923607038123148,16.392961876832846
14.93999999999998,58,99,2,0.009000000000000001,14.925483870967723,14.516129032258064
14.94999999999998,61,63,2,0.009000000000000001,14.929853372433998,20.146627565982406
14.94999999999998,48,72,1,0.009000000000000001,14.931260997067428,18.73900293255132
14.94999999999998,36,77,0,0.009000000000000001,14.932043010752668,17.956989247311828
14.94999999999998,73,92,3,0.009000000000000001,14.934389051808386,15.610948191593351
14.95999999999998,50,66,1,0.009000000000000001,14.940322580645141,19.67741935483871
14.95999999999998,35,72,0,0.009000000000000001,14.941260997067427,18.73900293255132
14.95999999999998,71,82,3,0.009000000000000001,14.942825024437907,17.174975562072337
14.95999999999998,59,90,2,0.009000000000000001,14.94407624633429,15.923753665689148
14.96999999999998,71,62,3,0.009000000000000001,14.94969696969695,20.303030303030305
14.96999999999998,35,72,0,0.009000000000000001,14.951260997067427,18.73900293255132
14.96999999999998,58,89,2,0.009000000000000001,14.953919843597243,16.080156402737046
14.96999999999998,49,98,1,0.009000000000000001,14.955327468230672,14.672531769305962
14.979999999999979,71,78,3,0.009000000000000001,14.962199413489715,17.80058651026393
14.979999999999979,60,84,2,0.009000000000000001,14.963137829912002,16.86217008797654
14.979999999999979,46,97,1,0.009000000000000001,14.965171065493625,14.82893450635386
14.979999999999979,33,98,0,0.009000000000000001,14.965327468230672,14.672531769305962
14.989999999999979,35,66,0,0.009000000000000001,14.97032258064514,19.67741935483871
14.989999999999979,47,72,1,0.009000000000000001,14.971260997067427,18.73900293255132
14.989999999999979,73,73,3,0.009000000000000001,14.971417399804475,18.58260019550342
14.989999999999979,62,75,2,0.009000000000000001,14.971730205278572,18.269794721407624
14.999999999999979,58,66,2,0.009000000000000001,14.98032258064514,19.67741935483871
14.999999999999979,47,74,1,0.009000000000000001,14.981573802541524,18.426197458455523
14.999999999999979,34,78,0,0.009000000000000001,14.982199413489715,17.80058651026393
14.999999999999979,71,87,3,0.009000000000000001,14.983607038123147,16.392961876832846
15.009999999999978,44,69,1,0.009000000000000001,14.990791788856283,19.208211143695017
15.009999999999978,74,69,3,0.009000000000000001,14.990791788856283,19.208211143695017
15.009999999999978,40,76,0,0.009000000000000001,14.99188660801562,18.113391984359726
15.009999999999978,59,88,2,0.009000000000000001,14.993763440860194,16.236559139784944
15.019999999999978,35,63,0,0.009000000000000001,14.999853372433996,20.146627565982406
15.019999999999978,48,65,1,0.009000000000000001,15.000166177908092,19.83382209188661
15.019999999999978,72,83,3,0.009000000000000001,15.002981427174953,17.01857282502444
15.019999999999978,59,87,2,0.009000000000000001,15.003607038123146,16.392961876832846
15.029999999999978,59,80,2,0.009000000000000001,15.01251221896381,17.487781036168133
15.029999999999978,70,86,3,0.009000000000000001,15.013450635386098,16.549364613880744
15.029999999999978,45,89,1,0.009000000000000001,15.013919843597241,16.080156402737046
15.029999999999978,37,96,0,0.009000000000000001,15.015014662756576,14.985337243401759
15.039999999999978,56,68,2,0.009000000000000001,15.020635386119235,19.364613880742915
15.039999999999978,35,82,0,0.009000000000000001,15.022825024437905,17.174975562072337
15.039999999999978,46,92,1,0.009000000000000001,15.024389051808384,15.610948191593351
15.039999999999978,71,94,3,0.009000000000000001,15.02470185728248,15.298142717497555
15.049999999999978,74,64,3,0.009000000000000001,15.030009775171044,19.990224828934508
15.049999999999978,37,66,0,0.009000000000000001,15.030322580645139,19.67741935483871
15.049999999999978,59,85,2,0.009000000000000001,15.033294232649048,16.705767350928642
15.049999999999978,45,93,1,0.009000000000000001,15.034545454545432,15.454545454545453
15.059999999999977,72,81,3,0.009000000000000001,15.042668621700857,17.331378299120235
15.059999999999977,49,89,1,0.009000000000000001,15.04391984359724,16.080156402737046
15.059999999999977,59,95,2,0.009000000000000001,15.044858260019527,15.141739980449657
15.059999999999977,39,97,0,0.009000000000000001,15.045171065493623,14.82893450635386
15.069999999999977,34,71,0,0.009000000000000001,15.051104594330377,18.89540566959922
15.069999999999977,69,79,3,0.009000000000000001,15.052355816226761,17.64418377321603
15.069999999999977,60,87,2,0.009000000000000001,15.053607038123145,16.392961876832846
15.069999999999977,49,95,1,0.009000000000000001,15.054858260019527,15.141739980449657
15.079999999999977,62,69,2,0.009000000000000001,15.060791788856282,19.208211143695017
15.079999999999977,72,77,3,0.009000000000000001,15.062043010752665,17.956989247311828
15.079999999999977,36,80,0,0.009000000000000001,15.062512218963809,17.487781036168133
15.079999999999977,44,86,1,0.009000000000000001,15.063450635386097,16.549364613880744
15.089999999999977,70,72,3,0.009000000000000001,15.071260997067425,18.73900293255132
15.089999999999977,36,76,0,0.009000000000000001,15.071886608015618,18.113391984359726
15.089999999999977,47,76,1,0.009000000000000001,15.071886608015618,18.113391984359726
15.089999999999977,59,81,2,0.009000000000000001,15.072668621700856,17.331378299120235
15.099999999999977,70,62,3,0.009000000000000001,15.079696969696947,20.303030303030305
15.099999999999977,47,79,1,0.009000000000000001,15.08235581622676,17.64418377321603
15.099999999999977,38,86,0,0.009000000000000001,15.083450635386097,16.549364613880744
15.099999999999977,59,97,2,0.009000000000000001,15.085171065493622,14.82893450635386
15.109999999999976,50,66,1,0.009000000000000001,15.090322580645138,19.67741935483871
15.109999999999976,72,67,3,0.009000000000000001,15.090478983382186,19.521016617790814
15.109999999999976,36,71,0,0.009000000000000001,15.091104594330377,18.89540566959922
15.109999999999976,57,81,2,0.009000000000000001,15.092668621700856,17.331378299120235
15.119999999999976,35,68,0,0.009000000000000001,15.100635386119233,19.364613880742915
15.119999999999976,72,77,3,0.009000000000000001,15.102043010752665,17.956989247311828
15.119999999999976,60,90,2,0.009000000000000001,15.104076246334287,15.923753665689148
15.119999999999976,48,94,1,0.009000000000000001,15.104701857282478,15.298142717497555
15.129999999999976,47,62,1,0.009000000000000001,15.109696969696946,20.303030303030305
15.129999999999976,71,76,3,0.009000000000000001,15.111886608015617,18.113391984359726
15.129999999999976,36,85,0,0.009000000000000001,15.113294232649046,16.705767350928642
15.129999999999976,60,88,2,0.009000000000000001,15.113763440860192,16.236559139784944
15.139999999999976,58,73,2,0.009000000000000001,15.121417399804471,18.58260019550342
15.139999999999976,37,75,0,0.009000000000000001,15.121730205278569,18.269794721407624
15.139999999999976,48,78,1,0.009000000000000001,15.122199413489712,17.80058651026393
15.139999999999976,75,87,3,0.009000000000000001,15.123607038123144,16.392961876832846
15.149999999999975,62,67,2,0.009000000000000001,15.130478983382185,19.521016617790814
15.149999999999975,33,72,0,0.009000000000000001,15.131260997067423,18.73900293255132
15.149999999999975,50,80,1,0.009000000000000001,15.132512218963807,17.487781036168133
15.149999999999975,71,89,3,0.009000000000000001,15.133919843597239,16.080156402737046
15.159999999999975,68,73,3,0.009000000000000001,15.141417399804471,18.58260019550342
15.159999999999975,51,87,1,0.009000000000000001,15.143607038123143,16.392961876832846
15.159999999999975,35,91,0,0.009000000000000001,15.144232649071334,15.76735092864125
15.159999999999975,61,91,2,0.009000000000000001,15.144232649071334,15.76735092864125
15.169999999999975,36,71,0,0.009000000000000001,15.151104594330375,18.89540566959922
15.169999999999975,73,72,3,0.009000000000000001,15.151260997067423,18.73900293255132
15.169999999999975,46,91,1,0.009000000000000001,15.154232649071334,15.76735092864125
15.169999999999975,60,99,2,0.009000000000000001,15.155483870967718,14.516129032258064
15.179999999999975,59,81,2,0.009000000000000001,15.162668621700854,17.331378299120235
15.179999999999975,47,82,1,0.009000000000000001,15.162825024437902,17.174975562072337
15.179999999999975,36,89,0,0.009000000000000001,15.163919843597238,16.080156402737046
15.179999999999975,73,99,3,0.009000000000000001,15.165483870967718,14.516129032258064
15.189999999999975,48,67,1,0.009000000000000001,15.170478983382184,19.521016617790814
15.189999999999975,70,70,3,0.009000000000000001,15.170948191593327,19.05180840664712
15.189999999999975,34,87,0,0.009000000000000001,15.173607038123142,16.392961876832846
15.189999999999975,60,93,2,0.009000000000000001,15.174545454545429,15.454545454545453
15.199999999999974,35,79,0,0.009000000000000001,15.182355816226758,17.64418377321603
15.199999999999974,61,83,2,0.009000000000000001,15.18298142717495,17.01857282502444
15.199999999999974,49,92,1,0.009000000000000001,15.184389051808381,15.610948191593351
15.199999999999974,68,95,3,0.009000000000000001,15.184858260019524,15.141739980449657
15.209999999999974,46,67,1,0.009000000000000001,15.190478983382183,19.521016617790814
15.209999999999974,69,72,3,0.009000000000000001,15.191260997067422,18.73900293255132
15.209999999999974,35,73,0,0.009000000000000001,15.19141739980447,18.58260019550342
15.209999999999974,61,84,2,0.009000000000000001,15.193137829911997,16.86217008797654
15.219999999999974,61,68,2,0.009000000000000001,15.200635386119231,19.364613880742915
15.219999999999974,50,75,1,0.009000000000000001,15.201730205278567,18.269794721407624
15.219999999999974,35,85,0,0.009000000000000001,15.203294232649045,16.705767350928642
15.219999999999974,69,99,3,0.009000000000000001,15.205483870967717,14.516129032258064
15.229999999999974,47,64,1,0.009000000000000001,15.21000977517104,19.990224828934508
15.229999999999974,72,68,3,0.009000000000000001,15.21063538611923,19.364613880742915
15.229999999999974,61,94,2,0.009000000000000001,15.214701857282476,15.298142717497555
15.229999999999974,36,99,0,0.009000000000000001,15.215483870967716,14.516129032258064
15.239999999999974,35,62,0,0.009000000000000001,15.219696969696944,20.303030303030305
15.239999999999974,50,66,1,0.009000000000000001,15.220322580645135,19.67741935483871
15.239999999999974,59,69,2,0.009000000000000001,15.220791788856278,19.208211143695017
15.239999999999974,75,96,3,0.009000000000000001,15.225014662756571,14.985337243401759
15.249999999999973,60,68,2,0.009000000000000001,15.23063538611923,19.364613880742915
15.249999999999973,46,74,1,0.009000000000000001,15.231573802541519,18.426197458455523
15.249999999999973,69,95,3,0.009000000000000001,15.234858260019523,15.141739980449657
15.249999999999973,36,99,0,0.009000000000000001,15.235483870967716,14.516129032258064
15.259999999999973,59,69,2,0.009000000000000001,15.240791788856278,19.208211143695017
15.259999999999973,39,70,0,0.009000000000000001,15.240948191593326,19.05180840664712
15.259999999999973,47,77,1,0.009000000000000001,15.242043010752662,17.956989247311828
15.259999999999973,70,89,3,0.009000000000000001,15.243919843597237,16.080156402737046
15.269999999999973,59,67,2,0.009000000000000001,15.250478983382182,19.521016617790814
15.269999999999973,71,71,3,0.009000000000000001,15.251104594330373,18.89540566959922
15.269999999999973,34,77,0,0.009000000000000001,15.252043010752661,17.956989247311828
15.269999999999973,48,83,1,0.009000000000000001,15.252981427174948,17.01857282502444
15.279999999999973,35,78,0,0.009000000000000001,15.262199413489709,17.80058651026393
15.279999999999973,71,87,3,0.009000000000000001,15.26360703812314,16.392961876832846
15.279999999999973,61,88,2,0.009000000000000001,15.263763440860188,16.236559139784944
15.279999999999973,49,91,1,0.009000000000000001,15.264232649071332,15.76735092864125
15.289999999999973,71,63,3,0.009000000000000001,15.26985337243399,20.146627565982406
15.289999999999973,37,73,0,0.009000000000000001,15.271417399804468,18.58260019550342
15.289999999999973,46,86,1,0.009000000000000001,15.273450635386093,16.549364613880744
15.289999999999973,61,87,2,0.009000000000000001,15.27360703812314,16.392961876832846
15.299999999999972,74,67,3,0.009000000000000001,15.280478983382181,19.521016617790814
15.299999999999972,49,71,1,0.009000000000000001,15.281104594330372,18.89540566959922
15.299999999999972,36,92,0,0.009000000000000001,15.284389051808379,15.610948191593351
15.299999999999972,58,99,2,0.009000000000000001,15.285483870967715,14.516129032258064
15.309999999999972,72,67,3,0.009000000000000001,15.290478983382181,19.521016617790814
15.309999999999972,48,89,1,0.009000000000000001,15.293919843597235,16.080156402737046
15.309999999999972,37,94,0,0.009000000000000001,15.294701857282474,15.298142717497555
15.309999999999972,60,99,2,0.009000000000000001,15.295483870967715,14.516129032258064
15.319999999999972,35,75,0,0.009000000000000001,15.301730205278565,18.269794721407624
15.319999999999972,47,85,1,0.009000000000000001,15.303294232649042,16.705767350928642
15.319999999999972,71,90,3,0.009000000000000001,15.304076246334283,15.923753665689148
15.319999999999972,60,91,2,0.009000000000000001,15.30423264907133,15.76735092864125
15.329999999999972,51,65,1,0.009000000000000001,15.310166177908085,19.83382209188661
15.329999999999972,71,75,3,0.009000000000000001,15.311730205278565,18.269794721407624
15.329999999999972,36,84,0,0.009000000000000001,15.313137829911994,16.86217008797654
15.329999999999972,60,84,2,0.009000000000000001,15.313137829911994,16.86217008797654
15.339999999999971,47,71,1,0.009000000000000001,15.321104594330372,18.89540566959922
15.339999999999971,37,77,0,0.009000000000000001,15.32204301075266,17.956989247311828
15.339999999999971,58,85,2,0.009000000000000001,15.323294232649042,16.705767350928642
15.339999999999971,71,92,3,0.009000000000000001,15.324389051808378,15.610948191593351
15.349999999999971,72,63,3,0.009000000000000001,15.32985337243399,20.146627565982406
15.349999999999971,60,69,2,0.009000000000000001,15.330791788856276,19.208211143695017
15.349999999999971,35,80,0,0.009000000000000001,15.332512218963803,17.487781036168133
15.349999999999971,47,95,1,0.009000000000000001,15.334858260019521,15.141739980449657
15.359999999999971,47,82,1,0.009000000000000001,15.342825024437898,17.174975562072337
15.359999999999971,56,86,2,0.009000000000000001,15.343450635386091,16.549364613880744
15.359999999999971,67,86,3,0.009000000000000001,15.343450635386091,16.549364613880744
15.359999999999971,33,99,0,0.009000000000000001,15.345483870967714,14.516129032258064
15.36999999999997,39,66,0,0.009000000000000001,15.350322580645132,19.67741935483871
15.36999999999997,46,73,1,0.009000000000000001,15.351417399804467,18.58260019550342
15.36999999999997,73,87,3,0.009000000000000001,15.353607038123139,16.392961876832846
15.36999999999997,60,91,2,0.009000000000000001,15.35423264907133,15.76735092864125
15.37999999999997,69,64,3,0.009000000000000001,15.360009775171036,19.990224828934508
15.37999999999997,34,68,0,0.009000000000000001,15.360635386119228,19.364613880742915
15.37999999999997,48,69,1,0.009000000000000001,15.360791788856275,19.208211143695017
15.37999999999997,57,78,2,0.009000000000000001,15.362199413489707,17.80058651026393
15.38999999999997,33,73,0,0.009000000000000001,15.371417399804466,18.58260019550342
15.38999999999997,50,80,1,0.009000000000000001,15.372512218963802,17.487781036168133
15.38999999999997,73,82,3,0.009000000000000001,15.372825024437898,17.174975562072337
15.38999999999997,58,97,2,0.009000000000000001,15.375171065493616,14.82893450635386
15.39999999999997,36,63,0,0.009000000000000001,15.379853372433988,20.146627565982406
15.39999999999997,55,70,2,0.009000000000000001,15.380948191593323,19.05180840664712
15.39999999999997,73,93,3,0.009000000000000001,15.384545454545425,15.454545454545453
15.39999999999997,46,98,1,0.009000000000000001,15.385327468230663,14.672531769305962
15.40999999999997,49,75,1,0.009000000000000001,15.391730205278563,18.269794721407624
15.40999999999997,62,82,2,0.009000000000000001,15.392825024437897,17.174975562072337
15.40999999999997,73,92,3,0.009000000000000001,15.394389051808377,15.610948191593351
15.40999999999997,39,99,0,0.009000000000000001,15.395483870967713,14.516129032258064
15.41999999999997,60,67,2,0.009000000000000001,15.400478983382179,19.521016617790814
15.41999999999997,47,77,1,0.009000000000000001,15.402043010752658,17.956989247311828
15.41999999999997,34,87,0,0.009000000000000001,15.403607038123138,16.392961876832846
15.41999999999997,71,87,3,0.009000000000000001,15.403607038123138,16.392961876832846
15.42999999999997,75,67,3,0.009000000000000001,15.410478983382179,19.521016617790814
15.42999999999997,64,68,2,0.009000000000000001,15.410635386119226,19.364613880742915
15.42999999999997,36,76,0,0.009000000000000001,15.41188660801561,18.113391984359726
15.42999999999997,51,87,1,0.009000000000000001,15.413607038123137,16.392961876832846
15.43999999999997,49,65,1,0.009000000000000001,15.420166177908083,19.83382209188661
15.43999999999997,58,66,2,0.009000000000000001,15.42032258064513,19.67741935483871
15.43999999999997,36,89,0,0.009000000000000001,15.423919843597233,16.080156402737046
15.43999999999997,69,91,3,0.009000000000000001,15.424232649071328,15.76735092864125
15.449999999999969,61,68,2,0.009000000000000001,15.430635386119226,19.364613880742915
15.449999999999969,48,81,1,0.009000000000000001,15.432668621700849,17.331378299120235
15.449999999999969,33,87,0,0.009000000000000001,15.433607038123137,16.392961876832846
15.449999999999969,71,96,3,0.009000000000000001,15.435014662756567,14.985337243401759
15.459999999999969,73,72,3,0.009000000000000001,15.441260997067417,18.73900293255132
15.459999999999969,36,82,0,0.009000000000000001,15.442825024437896,17.174975562072337
15.459999999999969,51,85,1,0.009000000000000001,15.44329423264904,16.705767350928642
15.459999999999969,60,91,2,0.009000000000000001,15.444232649071328,15.76735092864125
15.469999999999969,61,71,2,0.009000000000000001,15.451104594330369,18.89540566959922
15.469999999999969,70,75,3,0.009000000000000001,15.451730205278562,18.269794721407624
15.469999999999969,50,76,1,0.009000000000000001,15.45188660801561,18.113391984359726
15.469999999999969,32,89,0,0.009000000000000001,15.453919843597232,16.080156402737046
15.479999999999968,70,72,3,0.009000000000000001,15.461260997067416,18.73900293255132
15.479999999999968,57,82,2,0.009000000000000001,15.462825024437896,17.174975562072337
15.479999999999968,38,86,0,0.009000000000000001,15.463450635386089,16.549364613880744
15.479999999999968,47,89,1,0.009000000000000001,15.463919843597232,16.080156402737046
15.489999999999968,34,63,0,0.009000000000000001,15.469853372433986,20.146627565982406
15.489999999999968,60,65,2,0.009000000000000001,15.470166177908082,19.83382209188661
15.489999999999968,46,72,1,0.009000000000000001,15.471260997067416,18.73900293255132
15.489999999999968,70,76,3,0.009000000000000001,15.471886608015609,18.113391984359726
15.499999999999968,72,64,3,0.009000000000000001,15.480009775171034,19.990224828934508
15.499999999999968,56,70,2,0.009000000000000001,15.48094819159332,19.05180840664712
15.499999999999968,38,83,0,0.009000000000000001,15.482981427174943,17.01857282502444
15.499999999999968,48,87,1,0.009000000000000001,15.483607038123136,16.392961876832846
15.509999999999968,36,69,0,0.009000000000000001,15.490791788856273,19.208211143695017
15.509999999999968,60,81,2,0.009000000000000001,15.492668621700847,17.331378299120235
15.509999999999968,71,87,3,0.009000000000000001,15.493607038123136,16.392961876832846
15.509999999999968,46,99,1,0.009000000000000001,15.49548387096771,14.516129032258064
15.519999999999968,39,66,0,0.009000000000000001,15.500322580645129,19.67741935483871
15.519999999999968,46,68,1,0.009000000000000001,15.500635386119225,19.364613880742915
15.519999999999968,63,73,2,0.009000000000000001,15.501417399804463,18.58260019550342
15.519999999999968,76,96,3,0.009000000000000001,15.505014662756565,14.985337243401759
15.529999999999967,47,63,1,0.009000000000000001,15.509853372433986,20.146627565982406
15.529999999999967,68,69,3,0.009000000000000001,15.510791788856272,19.208211143695017
15.529999999999967,61,73,2,0.009000000000000001,15.511417399804463,18.58260019550342
15.529999999999967,36,93,0,0.009000000000000001,15.514545454545422,15.454545454545453
15.539999999999967,46,63,1,0.009000000000000001,15.519853372433985,20.146627565982406
15.539999999999967,70,71,3,0.009000000000000001,15.521104594330367,18.89540566959922
15.539999999999967,59,75,2,0.009000000000000001,15.52173020527856,18.269794721407624
15.539999999999967,36,76,0,0.009000000000000001,15.521886608015608,18.113391984359726
15.549999999999967,33,71,0,0.009000000000000001,15.531104594330367,18.89540566959922
15.549999999999967,58,81,2,0.009000000000000001,15.532668621700847,17.331378299120235
15.549999999999967,49,88,1,0.009000000000000001,15.533763440860183,16.236559139784944
15.549999999999967,68,92,3,0.009000000000000001,15.534389051808374,15.610948191593351
15.559999999999967,72,64,3,0.009000000000000001,15.540009775171033,19.990224828934508
15.559999999999967,63,79,2,0.009000000000000001,15.54235581622675,17.64418377321603
15.559999999999967,35,91,0,0.009000000000000001,15.544232649071326,15.76735092864125
15.559999999999967,48,98,1,0.009000000000000001,15.54532746823066,14.672531769305962
15.569999999999967,69,65,3,0.009000000000000001,15.55016617790808,19.83382209188661
15.569999999999967,46,71,1,0.009000000000000001,15.551104594330367,18.89540566959922
15.569999999999967,36,82,0,0.009000000000000001,15.552825024437894,17.174975562072337
15.569999999999967,58,94,2,0.009000000000000001,15.554701857282469,15.298142717497555
15.579999999999966,36,63,0,0.009000000000000001,15.559853372433984,20.146627565982406
15.579999999999966,44,72,1,0.009000000000000001,15.561260997067414,18.73900293255132
15.579999999999966,72,82,3,0.009000000000000001,15.562825024437894,17.174975562072337
15.579999999999966,64,88,2,0.009000000000000001,15.563763440860182,16.236559139784944
15.589999999999966,38,67,0,0.009000000000000001,15.570478983382175,19.521016617790814
15.589999999999966,71,80,3,0.009000000000000001,15.572512218963798,17.487781036168133
15.589999999999966,61,87,2,0.009000000000000001,15.573607038123134,16.392961876832846
15.589999999999966,45,89,1,0.009000000000000001,15.57391984359723,16.080156402737046
15.599999999999966,48,67,1,0.009000000000000001,15.580478983382175,19.521016617790814
15.599999999999966,35,79,0,0.009000000000000001,15.58235581622675,17.64418377321603
15.599999999999966,72,80,3,0.009000000000000001,15.582512218963798,17.487781036168133
15.599999999999966,60,98,2,0.009000000000000001,15.585327468230659,14.672531769305962
15.609999999999966,38,74,0,0.009000000000000001,15.591573802541511,18.426197458455523
15.609999999999966,60,75,2,0.009000000000000001,15.591730205278559,18.269794721407624
15.609999999999966,68,86,3,0.009000000000000001,15.593450635386086,16.549364613880744
15.609999999999966,44,94,1,0.009000000000000001,15.594701857282468,15.298142717497555
15.619999999999965,60,74,2,0.009000000000000001,15.60157380254151,18.426197458455523
15.619999999999965,48,85,1,0.009000000000000001,15.603294232649036,16.705767350928642
15.619999999999965,37,86,0,0.009000000000000001,15.603450635386086,16.549364613880744
15.619999999999965,69,89,3,0.009000000000000001,15.603919843597229,16.080156402737046
15.629999999999965,60,67,2,0.009000000000000001,15.610478983382174,19.521016617790814
15.629999999999965,51,70,1,0.009000000000000001,15.610948191593318,19.05180840664712
15.629999999999965,70,88,3,0.009000000000000001,15.61376344086018,16.236559139784944
15.629999999999965,35,94,0,0.009000000000000001,15.614701857282467,15.298142717497555
15.639999999999965,72,87,3,0.009000000000000001,15.623607038123133,16.392961876832846
15.639999999999965,37,89,0,0.009000000000000001,15.623919843597228,16.080156402737046
15.639999999999965,61,94,2,0.009000000000000001,15.624701857282467,15.298142717497555
15.639999999999965,48,97,1,0.009000000000000001,15.62517106549361,14.82893450635386
15.649999999999965,49,73,1,0.009000000000000001,15.63141739980446,18.58260019550342
15.649999999999965,37,85,0,0.009000000000000001,15.633294232649035,16.705767350928642
15.649999999999965,60,90,2,0.009000000000000001,15.634076246334276,15.923753665689148
15.649999999999965,70,96,3,0.009000000000000001,15.635014662756562,14.985337243401759
15.659999999999965,48,62,1,0.009000000000000001,15.639696969696935,20.303030303030305
15.659999999999965,37,64,0,0.009000000000000001,15.64000977517103,19.990224828934508
15.659999999999965,61,66,2,0.009000000000000001,15.640322580645126,19.67741935483871
15.659999999999965,72,90,3,0.009000000000000001,15.644076246334276,15.923753665689148
15.669999999999964,72,65,3,0.009000000000000001,15.650166177908078,19.83382209188661
15.669999999999964,49,66,1,0.009000000000000001,15.650322580645126,19.67741935483871
15.669999999999964,60,77,2,0.009000000000000001,15.652043010752653,17.956989247311828
15.669999999999964,37,81,0,0.009000000000000001,15.652668621700844,17.331378299120235
15.679999999999964,34,79,0,0.009000000000000001,15.662355816226748,17.64418377321603
15.679999999999964,70,88,3,0.009000000000000001,15.66376344086018,16.236559139784944
15.679999999999964,46,90,1,0.009000000000000001,15.664076246334275,15.923753665689148
15.679999999999964,62,90,2,0.009000000000000001,15.664076246334275,15.923753665689148
15.689999999999964,37,78,0,0.009000000000000001,15.6721994134897,17.80058651026393
15.689999999999964,58,81,2,0.009000000000000001,15.672668621700844,17.331378299120235
15.689999999999964,73,82,3,0.009000000000000001,15.672825024437891,17.174975562072337
15.689999999999964,48,87,1,0.009000000000000001,15.673607038123132,16.392961876832846
15.699999999999964,58,68,2,0.009000000000000001,15.68063538611922,19.364613880742915
15.699999999999964,69,73,3,0.009000000000000001,15.68141739980446,18.58260019550342
15.699999999999964,34,82,0,0.009000000000000001,15.682825024437891,17.174975562072337
15.699999999999964,48,83,1,0.009000000000000001,15.682981427174939,17.01857282502444
15.709999999999964,59,62,2,0.009000000000000001,15.689696969696934,20.303030303030305
15.709999999999964,74,69,3,0.009000000000000001,15.690791788856268,19.208211143695017
15.709999999999964,45,71,1,0.009000000000000001,15.691104594330364,18.89540566959922
15.709999999999964,35,79,0,0.009000000000000001,15.692355816226748,17.64418377321603
15.719999999999963,37,63,0,0.009000000000000001,15.699853372433981,20.146627565982406
15.719999999999963,60,88,2,0.009000000000000001,15.703763440860179,16.236559139784944
15.719999999999963,71,90,3,0.009000000000000001,15.704076246334274,15.923753665689148
15.719999999999963,45,94,1,0.009000000000000001,15.704701857282465,15.298142717497555
15.729999999999963,39,63,0,0.009000000000000001,15.709853372433981,20.146627565982406
15.729999999999963,75,73,3,0.009000000000000001,15.711417399804459,18.58260019550342
15.729999999999963,56,75,2,0.009000000000000001,15.711730205278556,18.269794721407624
15.729999999999963,49,77,1,0.009000000000000001,15.712043010752652,17.956989247311828
15.739999999999963,60,74,2,0.009000000000000001,15.721573802541508,18.426197458455523
15.739999999999963,73,92,3,0.009000000000000001,15.72438905180837,15.610948191593351
15.739999999999963,52,95,1,0.009000000000000001,15.724858260019513,15.141739980449657
15.739999999999963,38,98,0,0.009000000000000001,15.725327468230656,14.672531769305962
15.749999999999963,74,72,3,0.009000000000000001,15.73126099706741,18.73900293255132
15.749999999999963,47,79,1,0.009000000000000001,15.732355816226747,17.64418377321603
15.749999999999963,61,82,2,0.009000000000000001,15.73282502443789,17.174975562072337
15.749999999999963,38,95,0,0.009000000000000001,15.734858260019513,15.141739980449657
15.759999999999962,50,65,1,0.009000000000000001,15.740166177908076,19.83382209188661
15.759999999999962,72,74,3,0.009000000000000001,15.741573802541508,18.426197458455523
15.759999999999962,40,79,0,0.009000000000000001,15.742355816226747,17.64418377321603
15.759999999999962,57,83,2,0.009000000000000001,15.742981427174938,17.01857282502444
15.769999999999962,34,70,0,0.009000000000000001,15.750948191593315,19.05180840664712
15.769999999999962,72,79,3,0.009000000000000001,15.752355816226746,17.64418377321603
15.769999999999962,55,81,2,0.009000000000000001,15.752668621700842,17.331378299120235
15.769999999999962,51,86,1,0.009000000000000001,15.753450635386082,16.549364613880744
15.779999999999962,48,66,1,0.009000000000000001,15.760322580645123,19.67741935483871
15.779999999999962,56,83,2,0.009000000000000001,15.762981427174937,17.01857282502444
15.779999999999962,72,86,3,0.009000000000000001,15.763450635386082,16.549364613880744
15.779999999999962,34,87,0,0.009000000000000001,15.76360703812313,16.392961876832846
15.789999999999962,35,69,0,0.009000000000000001,15.770791788856267,19.208211143695017
15.789999999999962,46,85,1,0.009000000000000001,15.773294232649032,16.705767350928642
15.789999999999962,62,94,2,0.009000000000000001,15.774701857282464,15.298142717497555
15.789999999999962,73,94,3,0.009000000000000001,15.774701857282464,15.298142717497555
15.799999999999962,37,63,0,0.009000000000000001,15.77985337243398,20.146627565982406
15.799999999999962,57,80,2,0.009000000000000001,15.782512218963793,17.487781036168133
15.799999999999962,49,84,1,0.009000000000000001,15.783137829911984,16.86217008797654
15.799999999999962,71,90,3,0.009000000000000001,15.784076246334273,15.923753665689148
15.809999999999961,35,68,0,0.009000000000000001,15.790635386119218,19.364613880742915
15.809999999999961,58,74,2,0.009000000000000001,15.791573802541507,18.426197458455523
15.809999999999961,70,89,3,0.009000000000000001,15.793919843597225,16.080156402737046
15.809999999999961,49,99,1,0.009000000000000001,15.795483870967704,14.516129032258064
15.819999999999961,71,64,3,0.009000000000000001,15.800009775171027,19.990224828934508
15.819999999999961,47,82,1,0.009000000000000001,15.802825024437889,17.174975562072337
15.819999999999961,60,90,2,0.009000000000000001,15.804076246334272,15.923753665689148
15.819999999999961,36,96,0,0.009000000000000001,15.805014662756559,14.985337243401759
15.829999999999961,61,63,2,0.009000000000000001,15.80985337243398,20.146627565982406
15.829999999999961,35,68,0,0.009000000000000001,15.810635386119218,19.364613880742915
15.829999999999961,72,87,3,0.009000000000000001,15.813607038123129,16.392961876832846
15.829999999999961,50,94,1,0.009000000000000001,15.814701857282463,15.298142717497555
15.83999999999996,46,66,1,0.009000000000000001,15.820322580645122,19.67741935483871
15.83999999999996,59,78,2,0.009000000000000001,15.822199413489697,17.80058651026393
15.83999999999996,73,83,3,0.009000000000000001,15.822981427174936,17.01857282502444
15.83999999999996,37,95,0,0.009000000000000001,15.82485826001951,15.141739980449657
15.84999999999996,58,64,2,0.009000000000000001,15.830009775171026,19.990224828934508
15.84999999999996,74,72,3,0.009000000000000001,15.831260997067409,18.73900293255132
15.84999999999996,36,77,0,0.009000000000000001,15.832043010752649,17.956989247311828
15.84999999999996,45,88,1,0.009000000000000001,15.833763440860176,16.236559139784944
15.85999999999996,38,74,0,0.009000000000000001,15.841573802541506,18.426197458455523
15.85999999999996,60,81,2,0.009000000000000001,15.84266862170084,17.331378299120235
15.85999999999996,48,85,1,0.009000000000000001,15.843294232649031,16.705767350928642
15.85999999999996,72,87,3,0.009000000000000001,15.843607038123128,16.392961876832846
15.86999999999996,38,69,0,0.009000000000000001,15.850791788856265,19.208211143695017
15.86999999999996,71,77,3,0.009000000000000001,15.852043010752649,17.956989247311828
15.86999999999996,62,87,2,0.009000000000000001,15.853607038123128,16.392961876832846
15.86999999999996,47,96,1,0.009000000000000001,15.855014662756558,14.985337243401759
15.87999999999996,32,75,0,0.009000000000000001,15.861730205278553,18.269794721407624
15.87999999999996,57,80,2,0.009000000000000001,15.862512218963792,17.487781036168133
15.87999999999996,71,82,3,0.009000000000000001,15.862825024437887,17.174975562072337
15.87999999999996,49,86,1,0.009000000000000001,15.86345063538608,16.549364613880744
15.88999999999996,43,80,1,0.009000000000000001,15.872512218963791,17.487781036168133
15.88999999999996,62,84,2,0.009000000000000001,15.873137829911983,16.86217008797654
15.88999999999996,75,96,3,0.009000000000000001,15.875014662756557,14.985337243401759
15.88999999999996,35,98,0,0.009000000000000001,15.875327468230653,14.672531769305962
15.89999999999996,59,64,2,0.009000000000000001,15.880009775171025,19.990224828934508
15.89999999999996,42,69,1,0.009000000000000001,15.880791788856264,19.208211143695017
15.89999999999996,39,75,0,0.009000000000000001,15.881730205278553,18.269794721407624
15.89999999999996,71,86,3,0.009000000000000001,15.88345063538608,16.549364613880744
15.90999999999996,59,81,2,0.009000000000000001,15.892668621700839,17.331378299120235
15.90999999999996,72,97,3,0.009000000000000001,15.895171065493605,14.82893450635386
15.90999999999996,49,98,1,0.009000000000000001,15.895327468230652,14.672531769305962
15.90999999999996,35,99,0,0.009000000000000001,15.895483870967702,14.516129032258064
15.919999999999959,48,64,1,0.009000000000000001,15.900009775171025,19.990224828934508
15.919999999999959,33,66,0,0.009000000000000001,15.90032258064512,19.67741935483871
15.919999999999959,71,81,3,0.009000000000000001,15.902668621700839,17.331378299120235
15.919999999999959,57,96,2,0.009000000000000001,15.905014662756557,14.985337243401759
15.929999999999959,74,90,3,0.009000000000000001,15.91407624633427,15.923753665689148
15.929999999999959,61,92,2,0.009000000000000001,15.914389051808365,15.610948191593351
15.929999999999959,50,96,1,0.009000000000000001,15.915014662756557,14.985337243401759
15.929999999999959,37,97,0,0.009000000000000001,15.915171065493604,14.82893450635386
15.939999999999959,36,63,0,0.009000000000000001,15.919853372433977,20.146627565982406
15.939999999999959,72,75,3,0.009000000000000001,15.921730205278552,18.269794721407624
15.939999999999959,47,83,1,0.009000000000000001,15.922981427174934,17.01857282502444
15.939999999999959,59,93,2,0.009000000000000001,15.924545454545413,15.454545454545453
15.949999999999958,37,70,0,0.009000000000000001,15.93094819159331,19.05180840664712
15.949999999999958,73,80,3,0.009000000000000001,15.93251221896379,17.487781036168133
15.949999999999958,62,87,2,0.009000000000000001,15.933607038123126,16.392961876832846
15.949999999999958,50,93,1,0.009000000000000001,15.934545454545413,15.454545454545453
15.959999999999958,72,77,3,0.009000000000000001,15.942043010752647,17.956989247311828
15.959999999999958,36,79,0,0.009000000000000001,15.942355816226742,17.64418377321603
15.959999999999958,45,79,1,0.009000000000000001,15.942355816226742,17.64418377321603
15.959999999999958,60,90,2,0.009000000000000001,15.94407624633427,15.923753665689148
15.969999999999958,49,66,1,0.009000000000000001,15.95032258064512,19.67741935483871
15.969999999999958,61,68,2,0.009000000000000001,15.950635386119215,19.364613880742915
15.969999999999958,36,76,0,0.009000000000000001,15.951886608015599,18.113391984359726
15.969999999999958,74,79,3,0.009000000000000001,15.952355816226742,17.64418377321603
15.979999999999958,34,66,0,0.009000000000000001,15.96032258064512,19.67741935483871
15.979999999999958,73,76,3,0.009000000000000001,15.961886608015599,18.113391984359726
15.979999999999958,49,95,1,0.009000000000000001,15.964858260019508,15.141739980449657
15.979999999999958,62,96,2,0.009000000000000001,15.965014662756555,14.985337243401759
15.989999999999958,50,73,1,0.009000000000000001,15.971417399804453,18.58260019550342
15.989999999999958,62,73,2,0.009000000000000001,15.971417399804453,18.58260019550342
15.989999999999958,69,75,3,0.009000000000000001,15.97173020527855,18.269794721407624
15.989999999999958,35,98,0,0.009000000000000001,15.97532746823065,14.672531769305962
15.999999999999957,35,70,0,0.009000000000000001,15.98094819159331,19.05180840664712
15.999999999999957,72,83,3,0.009000000000000001,15.982981427174932,17.01857282502444
15.999999999999957,44,85,1,0.009000000000000001,15.983294232649028,16.705767350928642
15.999999999999957,62,95,2,0.009000000000000001,15.984858260019507,15.141739980449657
16.00999999999996,74,69,3,0.009000000000000001,15.990791788856264,19.208211143695017
16.00999999999996,56,72,2,0.009000000000000001,15.991260997067407,18.73900293255132
16.00999999999996,47,86,1,0.009000000000000001,15.993450635386079,16.549364613880744
16.00999999999996,36,87,0,0.009000000000000001,15.993607038123127,16.392961876832846
16.01999999999996,37,68,0,0.009000000000000001,16.000635386119217,19.364613880742915
16.01999999999996,49,80,1,0.009000000000000001,16.002512218963794,17.487781036168133
16.01999999999996,72,80,3,0.009000000000000001,16.002512218963794,17.487781036168133
16.01999999999996,59,86,2,0.009000000000000001,16.00345063538608,16.549364613880744
16.029999999999962,47,96,1,0.009000000000000001,16.01501466275656,14.985337243401759
16.029999999999962,72,98,3,0.009000000000000001,16.015327468230655,14.672531769305962
16.029999999999962,37,99,0,0.009000000000000001,16.015483870967703,14.516129032258064
16.029999999999962,58,99,2,0.009000000000000001,16.015483870967703,14.516129032258064
16.039999999999964,69,63,3,0.009000000000000001,16.01985337243398,20.146627565982406
16.039999999999964,60,70,2,0.009000000000000001,16.020948191593316,19.05180840664712
16.039999999999964,36,84,0,0.009000000000000001,16.023137829911988,16.86217008797654
16.039999999999964,48,90,1,0.009000000000000001,16.024076246334275,15.923753665689148
16.049999999999965,48,70,1,0.009000000000000001,16.030948191593318,19.05180840664712
16.049999999999965,59,81,2,0.009000000000000001,16.032668621700847,17.331378299120235
16.049999999999965,72,89,3,0.009000000000000001,16.03391984359723,16.080156402737046
16.049999999999965,33,98,0,0.009000000000000001,16.03532746823066,14.672531769305962
16.059999999999967,45,73,1,0.009000000000000001,16.041417399804462,18.58260019550342
16.059999999999967,37,81,0,0.009000000000000001,16.042668621700848,17.331378299120235
16.059999999999967,74,90,3,0.009000000000000001,16.044076246334278,15.923753665689148
16.059999999999967,59,92,2,0.009000000000000001,16.044389051808373,15.610948191593351
16.06999999999997,60,65,2,0.009000000000000001,16.050166177908082,19.83382209188661
16.06999999999997,49,70,1,0.009000000000000001,16.05094819159332,19.05180840664712
16.06999999999997,71,71,3,0.009000000000000001,16.05110459433037,18.89540566959922
16.06999999999997,39,91,0,0.009000000000000001,16.054232649071327,15.76735092864125
16.07999999999997,35,74,0,0.009000000000000001,16.061573802541513,18.426197458455523
16.07999999999997,70,89,3,0.009000000000000001,16.063919843597233,16.080156402737046
16.07999999999997,59,94,2,0.009000000000000001,16.064701857282472,15.298142717497555
16.07999999999997,42,96,1,0.009000000000000001,16.065014662756568,14.985337243401759
16.08999999999997,37,76,0,0.009000000000000001,16.07188660801561,18.113391984359726
16.08999999999997,47,84,1,0.009000000000000001,16.073137829911996,16.86217008797654
16.08999999999997,59,85,2,0.009000000000000001,16.073294232649044,16.705767350928642
16.08999999999997,71,93,3,0.009000000000000001,16.074545454545426,15.454545454545453
16.099999999999973,76,69,3,0.009000000000000001,16.080791788856278,19.208211143695017
16.099999999999973,50,75,1,0.009000000000000001,16.081730205278564,18.269794721407624
16.099999999999973,35,91,0,0.009000000000000001,16.084232649071332,15.76735092864125
16.099999999999973,59,92,2,0.009000000000000001,16.08438905180838,15.610948191593351
16.109999999999975,38,79,0,0.009000000000000001,16.092355816226757,17.64418377321603
16.109999999999975,45,93,1,0.009000000000000001,16.09454545454543,15.454545454545453
16.109999999999975,59,98,2,0.009000000000000001,16.095327468230668,14.672531769305962
16.109999999999975,71,98,3,0.009000000000000001,16.095327468230668,14.672531769305962
16.119999999999976,47,66,1,0.009000000000000001,16.100322580645138,19.67741935483871
16.119999999999976,30,72,0,0.009000000000000001,16.101260997067424,18.73900293255132
16.119999999999976,74,83,3,0.009000000000000001,16.102981427174953,17.01857282502444
16.119999999999976,60,85,2,0.009000000000000001,16.10329423264905,16.705767350928642
16.129999999999978,59,62,2,0.009000000000000001,16.109696969696948,20.303030303030305
16.129999999999978,70,84,3,0.009000000000000001,16.113137829912002,16.86217008797654
16.129999999999978,47,95,1,0.009000000000000001,16.114858260019528,15.141739980449657
16.129999999999978,32,97,0,0.009000000000000001,16.115171065493623,14.82893450635386
16.13999999999998,35,66,0,0.009000000000000001,16.12032258064514,19.67741935483871
16.13999999999998,73,69,3,0.009000000000000001,16.120791788856284,19.208211143695017
16.13999999999998,58,86,2,0.009000000000000001,16.1234506353861,16.549364613880744
16.13999999999998,47,95,1,0.009000000000000001,16.12485826001953,15.141739980449657
16.14999999999998,37,70,0,0.009000000000000001,16.130948191593333,19.05180840664712
16.14999999999998,61,70,2,0.009000000000000001,16.130948191593333,19.05180840664712
16.14999999999998,46,86,1,0.009000000000000001,16.1334506353861,16.549364613880744
16.14999999999998,69,90,3,0.009000000000000001,16.134076246334292,15.923753665689148
16.159999999999982,35,75,0,0.009000000000000001,16.141730205278574,18.269794721407624
16.159999999999982,73,88,3,0.009000000000000001,16.143763440860198,16.236559139784944
16.159999999999982,45,92,1,0.009000000000000001,16.14438905180839,15.610948191593351
16.159999999999982,59,95,2,0.009000000000000001,16.144858260019532,15.141739980449657
16.169999999999984,47,74,1,0.009000000000000001,16.151573802541527,18.426197458455523
16.169999999999984,72,80,3,0.009000000000000001,16.152512218963818,17.487781036168133
16.169999999999984,32,91,0,0.009000000000000001,16.154232649071343,15.76735092864125
16.169999999999984,59,91,2,0.009000000000000001,16.154232649071343,15.76735092864125
16.179999999999986,57,70,2,0.009000000000000001,16.160948191593338,19.05180840664712
16.179999999999986,70,72,3,0.009000000000000001,16.161260997067433,18.73900293255132
16.179999999999986,48,85,1,0.009000000000000001,16.163294232649058,16.705767350928642
16.179999999999986,38,99,0,0.009000000000000001,16.165483870967726,14.516129032258064
16.189999999999987,35,70,0,0.009000000000000001,16.17094819159334,19.05180840664712
16.189999999999987,51,74,1,0.009000000000000001,16.17157380254153,18.426197458455523
16.189999999999987,70,93,3,0.009000000000000001,16.17454545454544,15.454545454545453
16.189999999999987,59,98,2,0.009000000000000001,16.17532746823068,14.672531769305962
16.19999999999999,59,83,2,0.009000000000000001,16.182981427174965,17.01857282502444
16.19999999999999,70,86,3,0.009000000000000001,16.18345063538611,16.549364613880744
16.19999999999999,48,90,1,0.009000000000000001,16.1840762463343,15.923753665689148
16.19999999999999,38,97,0,0.009000000000000001,16.185171065493634,14.82893450635386
16.20999999999999,36,73,0,0.009000000000000001,16.191417399804486,18.58260019550342
16.20999999999999,58,76,2,0.009000000000000001,16.19188660801563,18.113391984359726
16.20999999999999,73,83,3,0.009000000000000001,16.192981427174967,17.01857282502444
16.20999999999999,46,84,1,0.009000000000000001,16.193137829912015,16.86217008797654
16.21999999999999,73,63,3,0.009000000000000001,16.19985337243401,20.146627565982406
16.21999999999999,51,64,1,0.009000000000000001,16.200009775171058,19.990224828934508
16.21999999999999,61,68,2,0.009000000000000001,16.20063538611925,19.364613880742915
16.21999999999999,33,84,0,0.009000000000000001,16.203137829912016,16.86217008797654
16.229999999999993,49,70,1,0.009000000000000001,16.210948191593346,19.05180840664712
16.229999999999993,57,80,2,0.009000000000000001,16.212512218963827,17.487781036168133
16.229999999999993,36,85,0,0.009000000000000001,16.213294232649066,16.705767350928642
16.229999999999993,74,85,3,0.009000000000000001,16.213294232649066,16.705767350928642
16.239999999999995,46,72,1,0.009000000000000001,16.221260997067443,18.73900293255132
16.239999999999995,72,74,3,0.009000000000000001,16.22157380254154,18.426197458455523
16.239999999999995,59,75,2,0.009000000000000001,16.221730205278586,18.269794721407624
16.239999999999995,34,96,0,0.009000000000000001,16.225014662756593,14.985337243401759
16.249999999999996,48,64,1,0.009000000000000001,16.230009775171062,19.990224828934508
16.249999999999996,37,85,0,0.009000000000000001,16.23329423264907,16.705767350928642
16.249999999999996,58,86,2,0.009000000000000001,16.233450635386117,16.549364613880744
16.249999999999996,70,90,3,0.009000000000000001,16.234076246334308,15.923753665689148
16.259999999999998,36,69,0,0.009000000000000001,16.240791788856303,19.208211143695017
16.259999999999998,48,83,1,0.009000000000000001,16.242981427174975,17.01857282502444
16.259999999999998,56,88,2,0.009000000000000001,16.243763440860214,16.236559139784944
16.259999999999998,73,93,3,0.009000000000000001,16.244545454545452,15.454545454545453
16.27,50,62,1,0.009000000000000001,16.24969696969697,20.303030303030305
16.27,35,63,0,0.009000000000000001,16.249853372434018,20.146627565982406
16.27,59,80,2,0.009000000000000001,16.252512218963833,17.487781036168133
16.27,76,80,3,0.009000000000000001,16.252512218963833,17.487781036168133
16.28,58,89,2,0.009000000000000001,16.263919843597265,16.080156402737046
16.28,72,89,3,0.009000000000000001,16.263919843597265,16.080156402737046
16.28,46,93,1,0.009000000000000001,16.264545454545456,15.454545454545453
16.28,38,94,0,0.009000000000000001,16.264701857282503,15.298142717497555
16.290000000000003,36,66,0,0.009000000000000001,16.270322580645164,19.67741935483871
16.290000000000003,49,67,1,0.009000000000000001,16.270478983382212,19.521016617790814
16.290000000000003,62,83,2,0.009000000000000001,16.27298142717498,17.01857282502444
16.290000000000003,72,92,3,0.009000000000000001,16.27438905180841,15.610948191593351
16.300000000000004,60,67,2,0.009000000000000001,16.280478983382213,19.521016617790814
16.300000000000004,38,73,0,0.009000000000000001,16.2814173998045,18.58260019550342
16.300000000000004,47,83,1,0.009000000000000001,16.28298142717498,17.01857282502444
16.300000000000004,73,88,3,0.009000000000000001,16.28376344086022,16.236559139784944
16.310000000000006,56,62,2,0.009000000000000001,16.289696969696976,20.303030303030305
16.310000000000006,48,67,1,0.009000000000000001,16.290478983382215,19.521016617790814
16.310000000000006,72,78,3,0.009000000000000001,16.29219941348974,17.80058651026393
16.310000000000006,37,98,0,0.009000000000000001,16.2953274682307,14.672531769305962
16.320000000000007,46,66,1,0.009000000000000001,16.30032258064517,19.67741935483871
16.320000000000007,35,81,0,0.009000000000000001,16.30266862170089,17.331378299120235
16.320000000000007,72,83,3,0.009000000000000001,16.302981427174984,17.01857282502444
16.320000000000007,58,84,2,0.009000000000000001,16.303137829912032,16.86217008797654
16.33000000000001,49,63,1,0.009000000000000001,16.309853372434027,20.146627565982406
16.33000000000001,61,79,2,0.009000000000000001,16.31235581622679,17.64418377321603
16.33000000000001,73,85,3,0.009000000000000001,16.31329423264908,16.705767350928642
16.33000000000001,35,88,0,0.009000000000000001,16.313763440860225,16.236559139784944
16.34000000000001,69,64,3,0.009000000000000001,16.320009775171076,19.990224828934508
16.34000000000001,56,82,2,0.009000000000000001,16.32282502443794,17.174975562072337
16.34000000000001,34,83,0,0.009000000000000001,16.322981427174987,17.01857282502444
16.34000000000001,51,96,1,0.009000000000000001,16.325014662756608,14.985337243401759
16.350000000000012,49,64,1,0.009000000000000001,16.330009775171078,19.990224828934508
16.350000000000012,33,95,0,0.009000000000000001,16.334858260019562,15.141739980449657
16.350000000000012,58,98,2,0.009000000000000001,16.335327468230705,14.672531769305962
16.350000000000012,69,99,3,0.009000000000000001,16.335483870967753,14.516129032258064
16.360000000000014,34,71,0,0.009000000000000001,16.341104594330414,18.89540566959922
16.360000000000014,45,81,1,0.009000000000000001,16.342668621700895,17.331378299120235
16.360000000000014,76,91,3,0.009000000000000001,16.344232649071373,15.76735092864125
16.360000000000014,59,95,2,0.009000000000000001,16.344858260019564,15.141739980449657
16.370000000000015,68,70,3,0.009000000000000001,16.350948191593368,19.05180840664712
16.370000000000015,47,71,1,0.009000000000000001,16.351104594330415,18.89540566959922
16.370000000000015,37,82,0,0.009000000000000001,16.352825024437944,17.174975562072337
16.370000000000015,62,82,2,0.009000000000000001,16.352825024437944,17.174975562072337
16.380000000000017,59,71,2,0.009000000000000001,16.361104594330417,18.89540566959922
16.380000000000017,37,81,0,0.009000000000000001,16.362668621700898,17.331378299120235
16.380000000000017,72,87,3,0.009000000000000001,16.363607038123185,16.392961876832846
16.380000000000017,44,88,1,0.009000000000000001,16.363763440860232,16.236559139784944
16.39000000000002,69,81,3,0.009000000000000001,16.3726686217009,17.331378299120235
16.39000000000002,62,82,2,0.009000000000000001,16.372825024437947,17.174975562072337
16.39000000000002,38,84,0,0.009000000000000001,16.373137829912043,16.86217008797654
16.39000000000002,45,90,1,0.009000000000000001,16.37407624633433,15.923753665689148
16.40000000000002,70,84,3,0.009000000000000001,16.383137829912044,16.86217008797654
16.40000000000002,44,92,1,0.009000000000000001,16.384389051808427,15.610948191593351
16.40000000000002,57,94,2,0.009000000000000001,16.384701857282522,15.298142717497555
16.40000000000002,36,96,0,0.009000000000000001,16.385014662756618,14.985337243401759
16.41000000000002,68,64,3,0.009000000000000001,16.390009775171087,19.990224828934508
16.41000000000002,62,81,2,0.009000000000000001,16.392668621700903,17.331378299120235
16.41000000000002,47,94,1,0.009000000000000001,16.394701857282524,15.298142717497555
16.41000000000002,39,98,0,0.009000000000000001,16.395327468230715,14.672531769305962
16.420000000000023,36,71,0,0.009000000000000001,16.401104594330423,18.89540566959922
16.420000000000023,61,80,2,0.009000000000000001,16.402512218963857,17.487781036168133
16.420000000000023,71,87,3,0.009000000000000001,16.40360703812319,16.392961876832846
16.420000000000023,44,91,1,0.009000000000000001,16.404232649071382,15.76735092864125
16.430000000000025,57,68,2,0.009000000000000001,16.41063538611928,19.364613880742915
16.430000000000025,48,75,1,0.009000000000000001,16.411730205278616,18.269794721407624
16.430000000000025,36,76,0,0.009000000000000001,16.411886608015664,18.113391984359726
16.430000000000025,74,86,3,0.009000000000000001,16.413450635386145,16.549364613880744
16.440000000000026,60,64,2,0.009000000000000001,16.420009775171092,19.990224828934508
16.440000000000026,37,74,0,0.009000000000000001,16.42157380254157,18.426197458455523
16.440000000000026,73,83,3,0.009000000000000001,16.422981427175003,17.01857282502444
16.440000000000026,47,97,1,0.009000000000000001,16.42517106549367,14.82893450635386
16.450000000000028,71,63,3,0.009000000000000001,16.429853372434046,20.146627565982406
16.450000000000028,48,78,1,0.009000000000000001,16.432199413489762,17.80058651026393
16.450000000000028,33,90,0,0.009000000000000001,16.43407624633434,15.923753665689148
16.450000000000028,58,99,2,0.009000000000000001,16.43548387096777,14.516129032258064
16.46000000000003,36,84,0,0.009000000000000001,16.443137829912054,16.86217008797654
16.46000000000003,46,85,1,0.009000000000000001,16.4432942326491,16.705767350928642
16.46000000000003,61,86,2,0.009000000000000001,16.44345063538615,16.549364613880744
16.46000000000003,74,94,3,0.009000000000000001,16.44470185728253,15.298142717497555
16.47000000000003,59,66,2,0.009000000000000001,16.450322580645192,19.67741935483871
16.47000000000003,49,84,1,0.009000000000000001,16.453137829912055,16.86217008797654
16.47000000000003,70,85,3,0.009000000000000001,16.453294232649103,16.705767350928642
16.47000000000003,35,93,0,0.009000000000000001,16.454545454545485,15.454545454545453
16.480000000000032,58,78,2,0.009000000000000001,16.462199413489767,17.80058651026393
16.480000000000032,74,78,3,0.009000000000000001,16.462199413489767,17.80058651026393
16.480000000000032,39,83,0,0.009000000000000001,16.46298142717501,17.01857282502444
16.480000000000032,51,93,1,0.009000000000000001,16.464545454545487,15.454545454545453
16.490000000000034,73,67,3,0.009000000000000001,16.470478983382243,19.521016617790814
16.490000000000034,57,83,2,0.009000000000000001,16.47298142717501,17.01857282502444
16.490000000000034,46,89,1,0.009000000000000001,16.473919843597297,16.080156402737046
16.490000000000034,33,99,0,0.009000000000000001,16.475483870967775,14.516129032258064
16.500000000000036,56,65,2,0.009000000000000001,16.48016617790815,19.83382209188661
16.500000000000036,49,68,1,0.009000000000000001,16.480635386119292,19.364613880742915
16.500000000000036,36,69,0,0.009000000000000001,16.48079178885634,19.208211143695017
16.500000000000036,71,89,3,0.009000000000000001,16.4839198435973,16.080156402737046
16.510000000000037,68,76,3,0.009000000000000001,16.491886608015676,18.113391984359726
16.510000000000037,61,88,2,0.009000000000000001,16.493763440860253,16.236559139784944
16.510000000000037,49,91,1,0.009000000000000001,16.494232649071396,15.76735092864125
16.510000000000037,39,96,0,0.009000000000000001,16.495014662756635,14.985337243401759
16.52000000000004,48,69,1,0.009000000000000001,16.500791788856343,19.208211143695017
16.52000000000004,63,83,2,0.009000000000000001,16.502981427175015,17.01857282502444
16.52000000000004,71,92,3,0.009000000000000001,16.504389051808445,15.610948191593351
16.52000000000004,37,97,0,0.009000000000000001,16.505171065493684,14.82893450635386
16.53000000000004,59,62,2,0.009000000000000001,16.50969696969701,20.303030303030305
16.53000000000004,33,70,0,0.009000000000000001,16.510948191593393,19.05180840664712
16.53000000000004,69,85,3,0.009000000000000001,16.513294232649113,16.705767350928642
16.53000000000004,49,86,1,0.009000000000000001,16.51345063538616,16.549364613880744
16.540000000000042,68,72,3,0.009000000000000001,16.52126099706749,18.73900293255132
16.540000000000042,61,77,2,0.009000000000000001,16.52204301075273,17.956989247311828
16.540000000000042,46,92,1,0.009000000000000001,16.52438905180845,15.610948191593351
16.540000000000042,37,93,0,0.009000000000000001,16.524545454545496,15.454545454545453
16.550000000000043,47,66,1,0.009000000000000001,16.530322580645205,19.67741935483871
16.550000000000043,71,71,3,0.009000000000000001,16.531104594330444,18.89540566959922
16.550000000000043,35,75,0,0.009000000000000001,16.531730205278635,18.269794721407624
16.550000000000043,61,91,2,0.009000000000000001,16.534232649071402,15.76735092864125
16.560000000000045,59,78,2,0.009000000000000001,16.54219941348978,17.80058651026393
16.560000000000045,46,90,1,0.009000000000000001,16.544076246334356,15.923753665689148
16.560000000000045,70,92,3,0.009000000000000001,16.54438905180845,15.610948191593351
16.560000000000045,34,99,0,0.009000000000000001,16.545483870967786,14.516129032258064
16.570000000000046,49,63,1,0.009000000000000001,16.549853372434065,20.146627565982406
16.570000000000046,59,69,2,0.009000000000000001,16.55079178885635,19.208211143695017
16.570000000000046,72,80,3,0.009000000000000001,16.55251221896388,17.487781036168133
16.570000000000046,35,93,0,0.009000000000000001,16.5545454545455,15.454545454545453
16.580000000000048,36,66,0,0.009000000000000001,16.56032258064521,19.67741935483871
16.580000000000048,44,93,1,0.009000000000000001,16.564545454545502,15.454545454545453
16.580000000000048,60,97,2,0.009000000000000001,16.565171065493693,14.82893450635386
16.580000000000048,69,99,3,0.009000000000000001,16.56548387096779,14.516129032258064
16.59000000000005,37,64,0,0.009000000000000001,16.570009775171116,19.990224828934508
16.59000000000005,60,70,2,0.009000000000000001,16.570948191593402,19.05180840664712
16.59000000000005,75,86,3,0.009000000000000001,16.57345063538617,16.549364613880744
16.59000000000005,49,91,1,0.009000000000000001,16.57423264907141,15.76735092864125
16.60000000000005,41,65,1,0.009000000000000001,16.580166177908165,19.83382209188661
16.60000000000005,62,74,2,0.009000000000000001,16.581573802541595,18.426197458455523
16.60000000000005,70,76,3,0.009000000000000001,16.58188660801569,18.113391984359726
16.60000000000005,37,98,0,0.009000000000000001,16.585327468230744,14.672531769305962
16.610000000000053,60,69,2,0.009000000000000001,16.590791788856357,19.208211143695017
16.610000000000053,45,71,1,0.009000000000000001,16.591104594330453,18.89540566959922
16.610000000000053,72,89,3,0.009000000000000001,16.593919843597316,16.080156402737046
16.610000000000053,35,94,0,0.009000000000000001,16.594701857282555,15.298142717497555
16.620000000000054,35,71,0,0.009000000000000001,16.601104594330454,18.89540566959922
16.620000000000054,74,89,3,0.009000000000000001,16.603919843597318,16.080156402737046
16.620000000000054,47,92,1,0.009000000000000001,16.60438905180846,15.610948191593351
16.620000000000054,58,96,2,0.009000000000000001,16.605014662756652,14.985337243401759
16.630000000000056,70,66,3,0.009000000000000001,16.610322580645217,19.67741935483871
16.630000000000056,33,70,0,0.009000000000000001,16.61094819159341,19.05180840664712
16.630000000000056,58,93,2,0.009000000000000001,16.61454545454551,15.454545454545453
16.630000000000056,48,99,1,0.009000000000000001,16.615483870967797,14.516129032258064
16.640000000000057,59,72,2,0.009000000000000001,16.621260997067505,18.73900293255132
16.640000000000057,35,74,0,0.009000000000000001,16.6215738025416,18.426197458455523
16.640000000000057,47,84,1,0.009000000000000001,16.623137829912082,16.86217008797654
16.640000000000057,71,87,3,0.009000000000000001,16.623607038123225,16.392961876832846
16.65000000000006,39,66,0,0.009000000000000001,16.63032258064522,19.67741935483871
16.65000000000006,71,81,3,0.009000000000000001,16.63266862170094,17.331378299120235
16.65000000000006,61,89,2,0.009000000000000001,16.633919843597322,16.080156402737046
16.65000000000006,46,92,1,0.009000000000000001,16.634389051808466,15.610948191593351
16.66000000000006,60,63,2,0.009000000000000001,16.63985337243408,20.146627565982406
16.66000000000006,31,77,0,0.009000000000000001,16.642043010752747,17.956989247311828
16.66000000000006,47,93,1,0.009000000000000001,16.644545454545515,15.454545454545453
16.66000000000006,72,96,3,0.009000000000000001,16.645014662756658,14.985337243401759
16.670000000000062,69,63,3,0.009000000000000001,16.64985337243408,20.146627565982406
16.670000000000062,59,64,2,0.009000000000000001,16.650009775171128,19.990224828934508
16.670000000000062,37,74,0,0.009000000000000001,16.651573802541606,18.426197458455523
16.670000000000062,46,81,1,0.009000000000000001,16.652668621700943,17.331378299120235
16.680000000000064,38,63,0,0.009000000000000001,16.659853372434082,20.146627565982406
16.680000000000064,69,63,3,0.009000000000000001,16.659853372434082,20.146627565982406
16.680000000000064,59,72,2,0.009000000000000001,16.66126099706751,18.73900293255132
16.680000000000064,48,97,1,0.009000000000000001,16.66517106549371,14.82893450635386
16.690000000000065,71,64,3,0.009000000000000001,16.67000977517113,19.990224828934508
16.690000000000065,58,68,2,0.009000000000000001,16.670635386119322,19.364613880742915
16.690000000000065,47,90,1,0.009000000000000001,16.674076246334376,15.923753665689148
16.690000000000065,31,94,0,0.009000000000000001,16.674701857282567,15.298142717497555
16.700000000000067,36,72,0,0.009000000000000001,16.681260997067515,18.73900293255132
16.700000000000067,75,73,3,0.009000000000000001,16.681417399804563,18.58260019550342
16.700000000000067,62,77,2,0.009000000000000001,16.682043010752754,17.956989247311828
16.700000000000067,47,84,1,0.009000000000000001,16.68313782991209,16.86217008797654
16.71000000000007,61,82,2,0.009000000000000001,16.692825024437997,17.174975562072337
16.71000000000007,77,87,3,0.009000000000000001,16.693607038123236,16.392961876832846
16.71000000000007,46,89,1,0.009000000000000001,16.69391984359733,16.080156402737046
16.71000000000007,37,99,0,0.009000000000000001,16.69548387096781,14.516129032258064
16.72000000000007,70,62,3,0.009000000000000001,16.69969696969704,20.303030303030305
16.72000000000007,52,66,1,0.009000000000000001,16.70032258064523,19.67741935483871
16.72000000000007,62,78,2,0.009000000000000001,16.702199413489804,17.80058651026393
16.72000000000007,39,88,0,0.009000000000000001,16.703763440860286,16.236559139784944
16.73000000000007,69,66,3,0.009000000000000001,16.710322580645233,19.67741935483871
16.73000000000007,48,77,1,0.009000000000000001,16.712043010752758,17.956989247311828
16.73000000000007,34,78,0,0.009000000000000001,16.712199413489806,17.80058651026393
16.73000000000007,60,96,2,0.009000000000000001,16.71501466275667,14.985337243401759
16.740000000000073,70,69,3,0.009000000000000001,16.720791788856378,19.208211143695017
16.740000000000073,35,70,0,0.009000000000000001,16.720948191593425,19.05180840664712
16.740000000000073,60,73,2,0.009000000000000001,16.72141739980457,18.58260019550342
16.740000000000073,47,81,1,0.009000000000000001,16.722668621700954,17.331378299120235
16.750000000000075,34,73,0,0.009000000000000001,16.73141739980457,18.58260019550342
16.750000000000075,45,87,1,0.009000000000000001,16.733607038123242,16.392961876832846
16.750000000000075,62,89,2,0.009000000000000001,16.733919843597338,16.080156402737046
16.750000000000075,67,91,3,0.009000000000000001,16.734232649071433,15.76735092864125
16.760000000000076,35,65,0,0.009000000000000001,16.74016617790819,19.83382209188661
16.760000000000076,75,74,3,0.009000000000000001,16.74157380254162,18.426197458455523
16.760000000000076,49,83,1,0.009000000000000001,16.742981427175053,17.01857282502444
16.760000000000076,58,96,2,0.009000000000000001,16.745014662756674,14.985337243401759
16.770000000000078,38,69,0,0.009000000000000001,16.750791788856382,19.208211143695017
16.770000000000078,60,69,2,0.009000000000000001,16.750791788856382,19.208211143695017
16.770000000000078,49,82,1,0.009000000000000001,16.752825024438007,17.174975562072337
16.770000000000078,72,83,3,0.009000000000000001,16.752981427175055,17.01857282502444
16.78000000000008,60,64,2,0.009000000000000001,16.760009775171145,19.990224828934508
16.78000000000008,37,65,0,0.009000000000000001,16.760166177908193,19.83382209188661
16.78000000000008,70,84,3,0.009000000000000001,16.763137829912104,16.86217008797654
16.78000000000008,47,97,1,0.009000000000000001,16.765171065493725,14.82893450635386
16.79000000000008,69,72,3,0.009000000000000001,16.77126099706753,18.73900293255132
16.79000000000008,58,79,2,0.009000000000000001,16.772355816226863,17.64418377321603
16.79000000000008,47,84,1,0.009000000000000001,16.773137829912105,16.86217008797654
16.79000000000008,33,89,0,0.009000000000000001,16.773919843597344,16.080156402737046
16.800000000000082,48,70,1,0.009000000000000001,16.780948191593435,19.05180840664712
16.800000000000082,37,74,0,0.009000000000000001,16.781573802541626,18.426197458455523
16.800000000000082,72,85,3,0.009000000000000001,16.783294232649155,16.705767350928642
16.800000000000082,61,87,2,0.009000000000000001,16.78360703812325,16.392961876832846
16.810000000000084,64,68,2,0.009000000000000001,16.79063538611934,19.364613880742915
16.810000000000084,47,71,1,0.009000000000000001,16.791104594330484,18.89540566959922
16.810000000000084,68,91,3,0.009000000000000001,16.794232649071443,15.76735092864125
16.810000000000084,35,97,0,0.009000000000000001,16.79517106549373,14.82893450635386
16.820000000000086,70,64,3,0.009000000000000001,16.80000977517115,19.990224828934508
16.820000000000086,60,69,2,0.009000000000000001,16.80079178885639,19.208211143695017
16.820000000000086,48,81,1,0.009000000000000001,16.802668621700967,17.331378299120235
16.820000000000086,31,86,0,0.009000000000000001,16.803450635386206,16.549364613880744
16.830000000000087,59,68,2,0.009000000000000001,16.810635386119344,19.364613880742915
16.830000000000087,36,71,0,0.009000000000000001,16.811104594330487,18.89540566959922
16.830000000000087,46,73,1,0.009000000000000001,16.811417399804583,18.58260019550342
16.830000000000087,73,85,3,0.009000000000000001,16.81329423264916,16.705767350928642
16.84000000000009,70,71,3,0.009000000000000001,16.82110459433049,18.89540566959922
16.84000000000009,57,73,2,0.009000000000000001,16.821417399804584,18.58260019550342
16.84000000000009,34,98,0,0.009000000000000001,16.825327468230782,14.672531769305962
16.84000000000009,50,99,1,0.009000000000000001,16.82548387096783,14.516129032258064
16.85000000000009,56,69,2,0.009000000000000001,16.830791788856395,19.208211143695017
16.85000000000009,34,80,0,0.009000000000000001,16.832512218963924,17.487781036168133
16.85000000000009,49,80,1,0.009000000000000001,16.832512218963924,17.487781036168133
16.85000000000009,73,83,3,0.009000000000000001,16.832981427175067,17.01857282502444
16.860000000000092,61,66,2,0.009000000000000001,16.840322580645253,19.67741935483871
16.860000000000092,35,84,0,0.009000000000000001,16.843137829912116,16.86217008797654
16.860000000000092,44,91,1,0.009000000000000001,16.84423264907145,15.76735092864125
16.860000000000092,73,93,3,0.009000000000000001,16.844545454545546,15.454545454545453
16.870000000000093,57,66,2,0.009000000000000001,16.850322580645255,19.67741935483871
16.870000000000093,69,73,3,0.009000000000000001,16.85141739980459,18.58260019550342
16.870000000000093,39,84,0,0.009000000000000001,16.853137829912118,16.86217008797654
16.870000000000093,46,98,1,0.009000000000000001,16.855327468230787,14.672531769305962
16.880000000000095,35,77,0,0.009000000000000001,16.86204301075278,17.956989247311828
16.880000000000095,71,78,3,0.009000000000000001,16.86219941348983,17.80058651026393
16.880000000000095,51,88,1,0.009000000000000001,16.86376344086031,16.236559139784944
16.880000000000095,58,92,2,0.009000000000000001,16.8643890518085,15.610948191593351
16.890000000000096,50,78,1,0.009000000000000001,16.87219941348983,17.80058651026393
16.890000000000096,73,87,3,0.009000000000000001,16.873607038123264,16.392961876832846
16.890000000000096,33,92,0,0.009000000000000001,16.874389051808503,15.610948191593351
16.890000000000096,62,97,2,0.009000000000000001,16.875171065493742,14.82893450635386
16.900000000000098,73,82,3,0.009000000000000001,16.882825024438027,17.174975562072337
16.900000000000098,61,83,2,0.009000000000000001,16.882981427175075,17.01857282502444
16.900000000000098,36,84,0,0.009000000000000001,16.883137829912123,16.86217008797654
16.900000000000098,46,85,1,0.009000000000000001,16.88329423264917,16.705767350928642
16.9100000000001,37,77,0,0.009000000000000001,16.892043010752786,17.956989247311828
16.9100000000001,60,82,2,0.009000000000000001,16.89282502443803,17.174975562072337
16.9100000000001,46,86,1,0.009000000000000001,16.89345063538622,16.549364613880744
16.9100000000001,73,93,3,0.009000000000000001,16.894545454545554,15.454545454545453
16.9200000000001,59,66,2,0.009000000000000001,16.900322580645263,19.67741935483871
16.9200000000001,37,87,0,0.009000000000000001,16.90360703812327,16.392961876832846
16.9200000000001,70,91,3,0.009000000000000001,16.90423264907146,15.76735092864125
16.9200000000001,46,95,1,0.009000000000000001,16.90485826001965,15.141739980449657
16.930000000000103,61,70,2,0.009000000000000001,16.910948191593455,19.05180840664712
16.930000000000103,47,71,1,0.009000000000000001,16.911104594330503,18.89540566959922
16.930000000000103,68,88,3,0.009000000000000001,16.91376344086032,16.236559139784944
16.930000000000103,36,98,0,0.009000000000000001,16.915327468230796,14.672531769305962
16.940000000000104,37,64,0,0.009000000000000001,16.92000977517117,19.990224828934508
16.940000000000104,51,69,1,0.009000000000000001,16.92079178885641,19.208211143695017
16.940000000000104,73,88,3,0.009000000000000001,16.92376344086032,16.236559139784944
16.940000000000104,58,91,2,0.009000000000000001,16.924232649071463,15.76735092864125
16.950000000000106,73,72,3,0.009000000000000001,16.931260997067554,18.73900293255132
16.950000000000106,49,80,1,0.009000000000000001,16.93251221896394,17.487781036168133
16.950000000000106,63,82,2,0.009000000000000001,16.932825024438035,17.174975562072337
16.950000000000106,37,87,0,0.009000000000000001,16.933607038123274,16.392961876832846
16.960000000000107,68,73,3,0.009000000000000001,16.941417399804603,18.58260019550342
16.960000000000107,34,94,0,0.009000000000000001,16.94470185728261,15.298142717497555
16.960000000000107,49,95,1,0.009000000000000001,16.944858260019657,15.141739980449657
16.960000000000107,60,98,2,0.009000000000000001,16.9453274682308,14.672531769305962
16.97000000000011,73,74,3,0.009000000000000001,16.951573802541652,18.426197458455523
16.97000000000011,45,78,1,0.009000000000000001,16.952199413489843,17.80058651026393
16.97000000000011,58,81,2,0.009000000000000001,16.95266862170099,17.331378299120235
16.97000000000011,36,85,0,0.009000000000000001,16.95329423264918,16.705767350928642
16.98000000000011,60,63,2,0.009000000000000001,16.95985337243413,20.146627565982406
16.98000000000011,69,73,3,0.009000000000000001,16.961417399804606,18.58260019550342
16.98000000000011,36,80,0,0.009000000000000001,16.962512218963944,17.487781036168133
16.98000000000011,49,84,1,0.009000000000000001,16.963137829912135,16.86217008797654
16.990000000000112,34,71,0,0.009000000000000001,16.971104594330512,18.89540566959922
16.990000000000112,56,82,2,0.009000000000000001,16.97282502443804,17.174975562072337
16.990000000000112,68,86,3,0.009000000000000001,16.973450635386232,16.549364613880744
16.990000000000112,49,97,1,0.009000000000000001,16.975171065493758,14.82893450635386
17.000000000000114,59,64,2,0.009000000000000001,16.98000977517118,19.990224828934508
17.000000000000114,35,85,0,0.009000000000000001,16.983294232649186,16.705767350928642
17.000000000000114,72,87,3,0.009000000000000001,16.98360703812328,16.392961876832846
17.000000000000114,48,93,1,0.009000000000000001,16.984545454545568,15.454545454545453
17.010000000000115,75,70,3,0.009000000000000001,16.990948191593468,19.05180840664712
17.010000000000115,35,74,0,0.009000000000000001,16.99157380254166,18.426197458455523
17.010000000000115,57,91,2,0.009000000000000001,16.994232649071474,15.76735092864125
17.010000000000115,48,92,1,0.009000000000000001,16.994389051808522,15.610948191593351
17.020000000000117,69,73,3,0.009000000000000001,17.001417399804613,18.58260019550342
17.020000000000117,48,74,1,0.009000000000000001,17.00157380254166,18.426197458455523
17.020000000000117,63,77,2,0.009000000000000001,17.002043010752804,17.956989247311828
17.020000000000117,38,90,0,0.009000000000000001,17.004076246334428,15.923753665689148
17.03000000000012,49,66,1,0.009000000000000001,17.01032258064528,19.67741935483871
17.03000000000012,61,66,2,0.009000000000000001,17.01032258064528,19.67741935483871
17.03000000000012,70,70,3,0.009000000000000001,17.01094819159347,19.05180840664712
17.03000000000012,34,89,0,0.009000000000000001,17.01391984359738,16.080156402737046
17.04000000000012,73,64,3,0.009000000000000001,17.020009775171186,19.990224828934508
17.04000000000012,48,76,1,0.009000000000000001,17.02188660801576,18.113391984359726
17.04000000000012,36,83,0,0.009000000000000001,17.022981427175097,17.01857282502444
17.04000000000012,62,83,2,0.009000000000000001,17.022981427175097,17.01857282502444
17.05000000000012,34,90,0,0.009000000000000001,17.034076246334433,15.923753665689148
17.05000000000012,56,90,2,0.009000000000000001,17.034076246334433,15.923753665689148
17.05000000000012,72,93,3,0.009000000000000001,17.034545454545576,15.454545454545453
17.05000000000012,51,98,1,0.009000000000000001,17.035327468230815,14.672531769305962
17.060000000000123,69,76,3,0.009000000000000001,17.041886608015762,18.113391984359726
17.060000000000123,35,78,0,0.009000000000000001,17.042199413489858,17.80058651026393
17.060000000000123,60,87,2,0.009000000000000001,17.04360703812329,16.392961876832846
17.060000000000123,47,97,1,0.009000000000000001,17.04517106549377,14.82893450635386
17.070000000000125,49,78,1,0.009000000000000001,17.05219941348986,17.80058651026393
17.070000000000125,59,82,2,0.009000000000000001,17.052825024438054,17.174975562072337
17.070000000000125,69,85,3,0.009000000000000001,17.053294232649197,16.705767350928642
17.070000000000125,37,89,0,0.009000000000000001,17.053919843597388,16.080156402737046
17.080000000000126,49,66,1,0.009000000000000001,17.060322580645288,19.67741935483871
17.080000000000126,37,75,0,0.009000000000000001,17.061730205278717,18.269794721407624
17.080000000000126,60,93,2,0.009000000000000001,17.06454545454558,15.454545454545453
17.080000000000126,74,99,3,0.009000000000000001,17.065483870967867,14.516129032258064
17.090000000000128,45,68,1,0.009000000000000001,17.070635386119385,19.364613880742915
17.090000000000128,39,69,0,0.009000000000000001,17.070791788856432,19.208211143695017
17.090000000000128,58,75,2,0.009000000000000001,17.07173020527872,18.269794721407624
17.090000000000128,70,85,3,0.009000000000000001,17.0732942326492,16.705767350928642
17.10000000000013,71,66,3,0.009000000000000001,17.08032258064529,19.67741935483871
17.10000000000013,48,71,1,0.009000000000000001,17.08110459433053,18.89540566959922
17.10000000000013,60,91,2,0.009000000000000001,17.084232649071488,15.76735092864125
17.10000000000013,34,96,0,0.009000000000000001,17.085014662756727,14.985337243401759
17.11000000000013,35,70,0,0.009000000000000001,17.090948191593483,19.05180840664712
17.11000000000013,60,77,2,0.009000000000000001,17.092043010752818,17.956989247311828
17.11000000000013,73,77,3,0.009000000000000001,17.092043010752818,17.956989247311828
17.11000000000013,48,90,1,0.009000000000000001,17.094076246334442,15.923753665689148
17.120000000000132,60,77,2,0.009000000000000001,17.10204301075282,17.956989247311828
17.120000000000132,70,81,3,0.009000000000000001,17.102668621701014,17.331378299120235
17.120000000000132,50,83,1,0.009000000000000001,17.10298142717511,17.01857282502444
17.120000000000132,34,98,0,0.009000000000000001,17.105327468230826,14.672531769305962
17.130000000000134,34,66,0,0.009000000000000001,17.110322580645295,19.67741935483871
17.130000000000134,58,76,2,0.009000000000000001,17.111886608015773,18.113391984359726
17.130000000000134,47,83,1,0.009000000000000001,17.11298142717511,17.01857282502444
17.130000000000134,71,91,3,0.009000000000000001,17.114232649071493,15.76735092864125
17.140000000000136,70,63,3,0.009000000000000001,17.119853372434154,20.146627565982406
17.140000000000136,46,70,1,0.009000000000000001,17.120948191593488,19.05180840664712
17.140000000000136,60,79,2,0.009000000000000001,17.122355816226918,17.64418377321603
17.140000000000136,36,87,0,0.009000000000000001,17.123607038123303,16.392961876832846
17.150000000000137,58,76,2,0.009000000000000001,17.131886608015776,18.113391984359726
17.150000000000137,69,79,3,0.009000000000000001,17.13235581622692,17.64418377321603
17.150000000000137,45,90,1,0.009000000000000001,17.13407624633445,15.923753665689148
17.150000000000137,36,94,0,0.009000000000000001,17.13470185728264,15.298142717497555
17.16000000000014,59,68,2,0.009000000000000001,17.140635386119396,19.364613880742915
17.16000000000014,50,85,1,0.009000000000000001,17.14329423264921,16.705767350928642
17.16000000000014,37,88,0,0.009000000000000001,17.143763440860354,16.236559139784944
17.16000000000014,67,89,3,0.009000000000000001,17.143919843597402,16.080156402737046
17.17000000000014,61,64,2,0.009000000000000001,17.150009775171206,19.990224828934508
17.17000000000014,49,72,1,0.009000000000000001,17.151260997067588,18.73900293255132
17.17000000000014,33,79,0,0.009000000000000001,17.152355816226923,17.64418377321603
17.17000000000014,73,93,3,0.009000000000000001,17.154545454545595,15.454545454545453
17.180000000000142,54,72,2,0.009000000000000001,17.16126099706759,18.73900293255132
17.180000000000142,48,80,1,0.009000000000000001,17.162512218963975,17.487781036168133
17.180000000000142,36,96,0,0.009000000000000001,17.16501466275674,14.985337243401759
17.180000000000142,75,96,3,0.009000000000000001,17.16501466275674,14.985337243401759
17.190000000000143,72,73,3,0.009000000000000001,17.17141739980464,18.58260019550342
17.190000000000143,37,90,0,0.009000000000000001,17.174076246334455,15.923753665689148
17.190000000000143,59,90,2,0.009000000000000001,17.174076246334455,15.923753665689148
17.190000000000143,48,91,1,0.009000000000000001,17.174232649071502,15.76735092864125
17.200000000000145,58,73,2,0.009000000000000001,17.18141739980464,18.58260019550342
17.200000000000145,73,74,3,0.009000000000000001,17.18157380254169,18.426197458455523
17.200000000000145,49,75,1,0.009000000000000001,17.181730205278736,18.269794721407624
17.200000000000145,35,79,0,0.009000000000000001,17.182355816226927,17.64418377321603
17.210000000000147,43,63,0,0.009000000000000001,17.189853372434165,20.146627565982406
17.210000000000147,46,65,1,0.009000000000000001,17.19016617790826,19.83382209188661
17.210000000000147,60,72,2,0.009000000000000001,17.191260997067594,18.73900293255132
17.210000000000147,71,98,3,0.009000000000000001,17.19532746823084,14.672531769305962
17.220000000000148,74,65,3,0.009000000000000001,17.20016617790826,19.83382209188661
17.220000000000148,31,68,0,0.009000000000000001,17.200635386119405,19.364613880742915
17.220000000000148,59,81,2,0.009000000000000001,17.20266862170103,17.331378299120235
17.220000000000148,46,86,1,0.009000000000000001,17.203450635386268,16.549364613880744
17.23000000000015,38,66,0,0.009000000000000001,17.21032258064531,19.67741935483871
17.23000000000015,49,72,1,0.009000000000000001,17.211260997067598,18.73900293255132
17.23000000000015,74,76,3,0.009000000000000001,17.21188660801579,18.113391984359726
17.23000000000015,60,98,2,0.009000000000000001,17.215327468230843,14.672531769305962
17.24000000000015,60,76,2,0.009000000000000001,17.22188660801579,18.113391984359726
17.24000000000015,46,85,1,0.009000000000000001,17.223294232649224,16.705767350928642
17.24000000000015,71,91,3,0.009000000000000001,17.22423264907151,15.76735092864125
17.24000000000015,34,99,0,0.009000000000000001,17.225483870967892,14.516129032258064
17.250000000000153,48,69,1,0.009000000000000001,17.230791788856457,19.208211143695017
17.250000000000153,35,76,0,0.009000000000000001,17.23188660801579,18.113391984359726
17.250000000000153,60,79,2,0.009000000000000001,17.232355816226935,17.64418377321603
17.250000000000153,68,89,3,0.009000000000000001,17.233919843597416,16.080156402737046
17.260000000000154,58,66,2,0.009000000000000001,17.240322580645316,19.67741935483871
17.260000000000154,34,78,0,0.009000000000000001,17.24219941348989,17.80058651026393
17.260000000000154,50,80,1,0.009000000000000001,17.242512218963988,17.487781036168133
17.260000000000154,69,88,3,0.009000000000000001,17.24376344086037,16.236559139784944
17.270000000000156,35,63,0,0.009000000000000001,17.249853372434174,20.146627565982406
17.270000000000156,73,80,3,0.009000000000000001,17.25251221896399,17.487781036168133
17.270000000000156,48,91,1,0.009000000000000001,17.254232649071515,15.76735092864125
17.270000000000156,59,95,2,0.009000000000000001,17.254858260019706,15.141739980449657
17.280000000000157,76,67,3,0.009000000000000001,17.260478983382367,19.521016617790814
17.280000000000157,48,68,1,0.009000000000000001,17.260635386119414,19.364613880742915
17.280000000000157,58,73,2,0.009000000000000001,17.261417399804653,18.58260019550342
17.280000000000157,35,93,0,0.009000000000000001,17.264545454545612,15.454545454545453
17.29000000000016,35,79,0,0.009000000000000001,17.27235581622694,17.64418377321603
17.29000000000016,57,90,2,0.009000000000000001,17.27407624633447,15.923753665689148
17.29000000000016,46,91,1,0.009000000000000001,17.274232649071518,15.76735092864125
17.29000000000016,71,97,3,0.009000000000000001,17.275171065493804,14.82893450635386
17.30000000000016,59,67,2,0.009000000000000001,17.28047898338237,19.521016617790814
17.30000000000016,46,80,1,0.009000000000000001,17.282512218963994,17.487781036168133
17.30000000000016,68,84,3,0.009000000000000001,17.283137829912185,16.86217008797654
17.30000000000016,37,90,0,0.009000000000000001,17.28407624633447,15.923753665689148
17.310000000000162,51,68,1,0.009000000000000001,17.29063538611942,19.364613880742915
17.310000000000162,37,75,0,0.009000000000000001,17.291730205278753,18.269794721407624
17.310000000000162,74,87,3,0.009000000000000001,17.29360703812333,16.392961876832846
17.310000000000162,61,89,2,0.009000000000000001,17.293919843597426,16.080156402737046
17.320000000000164,38,77,0,0.009000000000000001,17.30204301075285,17.956989247311828
17.320000000000164,58,78,2,0.009000000000000001,17.302199413489898,17.80058651026393
17.320000000000164,49,83,1,0.009000000000000001,17.30298142717514,17.01857282502444
17.320000000000164,72,88,3,0.009000000000000001,17.30376344086038,16.236559139784944
17.330000000000165,59,64,2,0.009000000000000001,17.31000977517123,19.990224828934508
17.330000000000165,48,74,1,0.009000000000000001,17.31157380254171,18.426197458455523
17.330000000000165,74,74,3,0.009000000000000001,17.31157380254171,18.426197458455523
17.330000000000165,34,89,0,0.009000000000000001,17.31391984359743,16.080156402737046
17.340000000000167,32,65,0,0.009000000000000001,17.32016617790828,19.83382209188661
17.340000000000167,45,79,1,0.009000000000000001,17.32235581622695,17.64418377321603
17.340000000000167,58,79,2,0.009000000000000001,17.32235581622695,17.64418377321603
17.340000000000167,70,86,3,0.009000000000000001,17.323450635386287,16.549364613880744
17.35000000000017,38,66,0,0.009000000000000001,17.33032258064533,19.67741935483871
17.35000000000017,60,70,2,0.009000000000000001,17.33094819159352,19.05180840664712
17.35000000000017,47,81,1,0.009000000000000001,17.33266862170105,17.331378299120235
17.35000000000017,71,87,3,0.009000000000000001,17.333607038123336,16.392961876832846
17.36000000000017,71,66,3,0.009000000000000001,17.34032258064533,19.67741935483871
17.36000000000017,60,80,2,0.009000000000000001,17.342512218964004,17.487781036168133
17.36000000000017,47,94,1,0.009000000000000001,17.344701857282672,15.298142717497555
17.36000000000017,35,99,0,0.009000000000000001,17.34548387096791,14.516129032258064
17.37000000000017,49,68,1,0.009000000000000001,17.35063538611943,19.364613880742915
17.37000000000017,37,76,0,0.009000000000000001,17.35188660801581,18.113391984359726
17.37000000000017,70,83,3,0.009000000000000001,17.35298142717515,17.01857282502444
17.37000000000017,60,85,2,0.009000000000000001,17.353294232649244,16.705767350928642
17.380000000000173,34,75,0,0.009000000000000001,17.361730205278764,18.269794721407624
17.380000000000173,74,78,3,0.009000000000000001,17.362199413489908,17.80058651026393
17.380000000000173,60,83,2,0.009000000000000001,17.36298142717515,17.01857282502444
17.380000000000173,52,84,1,0.009000000000000001,17.363137829912198,16.86217008797654
17.390000000000175,50,81,1,0.009000000000000001,17.372668621701056,17.331378299120235
17.390000000000175,33,86,0,0.009000000000000001,17.373450635386295,16.549364613880744
17.390000000000175,59,86,2,0.009000000000000001,17.373450635386295,16.549364613880744
17.390000000000175,70,99,3,0.009000000000000001,17.375483870967916,14.516129032258064
17.400000000000176,46,65,1,0.009000000000000001,17.38016617790829,19.83382209188661
17.400000000000176,69,66,3,0.009000000000000001,17.380322580645338,19.67741935483871
17.400000000000176,32,80,0,0.009000000000000001,17.38251221896401,17.487781036168133
17.400000000000176,63,86,2,0.009000000000000001,17.383450635386296,16.549364613880744
17.410000000000178,49,67,1,0.009000000000000001,17.390478983382387,19.521016617790814
17.410000000000178,32,79,0,0.009000000000000001,17.39235581622696,17.64418377321603
17.410000000000178,73,89,3,0.009000000000000001,17.39391984359744,16.080156402737046
17.410000000000178,58,99,2,0.009000000000000001,17.39548387096792,14.516129032258064
17.42000000000018,31,79,0,0.009000000000000001,17.40235581622696,17.64418377321603
17.42000000000018,70,84,3,0.009000000000000001,17.403137829912204,16.86217008797654
17.42000000000018,57,89,2,0.009000000000000001,17.403919843597443,16.080156402737046
17.42000000000018,44,90,1,0.009000000000000001,17.40407624633449,15.923753665689148
17.43000000000018,48,64,1,0.009000000000000001,17.410009775171247,19.990224828934508
17.43000000000018,71,66,3,0.009000000000000001,17.410322580645342,19.67741935483871
17.43000000000018,60,73,2,0.009000000000000001,17.411417399804677,18.58260019550342
17.43000000000018,35,77,0,0.009000000000000001,17.412043010752868,17.956989247311828
17.440000000000182,40,71,0,0.009000000000000001,17.421104594330583,18.89540566959922
17.440000000000182,48,76,1,0.009000000000000001,17.42188660801582,18.113391984359726
17.440000000000182,59,82,2,0.009000000000000001,17.42282502443811,17.174975562072337
17.440000000000182,71,91,3,0.009000000000000001,17.42423264907154,15.76735092864125
17.450000000000184,56,63,2,0.009000000000000001,17.429853372434202,20.146627565982406
17.450000000000184,48,68,1,0.009000000000000001,17.43063538611944,19.364613880742915
17.450000000000184,68,78,3,0.009000000000000001,17.43219941348992,17.80058651026393
17.450000000000184,36,81,0,0.009000000000000001,17.432668621701065,17.331378299120235
17.460000000000186,70,76,3,0.009000000000000001,17.441886608015825,18.113391984359726
17.460000000000186,35,82,0,0.009000000000000001,17.442825024438115,17.174975562072337
17.460000000000186,48,87,1,0.009000000000000001,17.443607038123353,16.392961876832846
17.460000000000186,63,96,2,0.009000000000000001,17.445014662756783,14.985337243401759
17.470000000000187,70,63,3,0.009000000000000001,17.449853372434205,20.146627565982406
17.470000000000187,36,71,0,0.009000000000000001,17.451104594330587,18.89540566959922
17.470000000000187,61,82,2,0.009000000000000001,17.452825024438116,17.174975562072337
17.470000000000187,45,83,1,0.009000000000000001,17.452981427175164,17.01857282502444
17.48000000000019,69,66,3,0.009000000000000001,17.46032258064535,19.67741935483871
17.48000000000019,38,74,0,0.009000000000000001,17.461573802541732,18.426197458455523
17.48000000000019,48,92,1,0.009000000000000001,17.464389051808595,15.610948191593351
17.48000000000019,60,94,2,0.009000000000000001,17.46470185728269,15.298142717497555
17.49000000000019,46,63,1,0.009000000000000001,17.46985337243421,20.146627565982406
17.49000000000019,70,68,3,0.009000000000000001,17.470635386119447,19.364613880742915
17.49000000000019,35,80,0,0.009000000000000001,17.472512218964024,17.487781036168133
17.49000000000019,58,87,2,0.009000000000000001,17.473607038123358,16.392961876832846
17.500000000000192,43,65,1,0.009000000000000001,17.480166177908306,19.83382209188661
17.500000000000192,33,70,0,0.009000000000000001,17.480948191593544,19.05180840664712
17.500000000000192,71,88,3,0.009000000000000001,17.483763440860407,16.236559139784944
17.500000000000192,66,93,2,0.009000000000000001,17.484545454545646,15.454545454545453
17.510000000000193,44,69,1,0.009000000000000001,17.490791788856498,19.208211143695017
17.510000000000193,38,73,0,0.009000000000000001,17.49141739980469,18.58260019550342
17.510000000000193,60,74,2,0.009000000000000001,17.491573802541737,18.426197458455523
17.510000000000193,73,96,3,0.009000000000000001,17.49501466275679,14.985337243401759
17.520000000000195,48,70,1,0.009000000000000001,17.500948191593547,19.05180840664712
17.520000000000195,61,74,2,0.009000000000000001,17.50157380254174,18.426197458455523
17.520000000000195,34,82,0,0.009000000000000001,17.502825024438124,17.174975562072337
17.520000000000195,72,96,3,0.009000000000000001,17.505014662756793,14.985337243401759
17.530000000000197,35,67,0,0.009000000000000001,17.510478983382406,19.521016617790814
17.530000000000197,50,79,1,0.009000000000000001,17.51235581622698,17.64418377321603
17.530000000000197,63,84,2,0.009000000000000001,17.51313782991222,16.86217008797654
17.530000000000197,70,98,3,0.009000000000000001,17.51532746823089,14.672531769305962
17.540000000000198,59,63,2,0.009000000000000001,17.519853372434216,20.146627565982406
17.540000000000198,46,80,1,0.009000000000000001,17.52251221896403,17.487781036168133
17.540000000000198,33,88,0,0.009000000000000001,17.523763440860414,16.236559139784944
17.540000000000198,68,98,3,0.009000000000000001,17.52532746823089,14.672531769305962
17.5500000000002,62,70,2,0.009000000000000001,17.530948191593552,19.05180840664712
17.5500000000002,46,74,1,0.009000000000000001,17.531573802541743,18.426197458455523
17.5500000000002,37,75,0,0.009000000000000001,17.53173020527879,18.269794721407624
17.5500000000002,69,89,3,0.009000000000000001,17.533919843597463,16.080156402737046
17.5600000000002,35,73,0,0.009000000000000001,17.541417399804697,18.58260019550342
17.5600000000002,49,75,1,0.009000000000000001,17.541730205278792,18.269794721407624
17.5600000000002,72,87,3,0.009000000000000001,17.54360703812337,16.392961876832846
17.5600000000002,63,97,2,0.009000000000000001,17.545171065493847,14.82893450635386
17.570000000000203,58,76,2,0.009000000000000001,17.55188660801584,18.113391984359726
17.570000000000203,72,77,3,0.009000000000000001,17.55204301075289,17.956989247311828
17.570000000000203,44,79,1,0.009000000000000001,17.552355816226985,17.64418377321603
17.570000000000203,34,86,0,0.009000000000000001,17.553450635386323,16.549364613880744
17.580000000000204,34,74,0,0.009000000000000001,17.561573802541748,18.426197458455523
17.580000000000204,46,86,1,0.009000000000000001,17.563450635386324,16.549364613880744
17.580000000000204,59,90,2,0.009000000000000001,17.564076246334515,15.923753665689148
17.580000000000204,75,93,3,0.009000000000000001,17.56454545454566,15.454545454545453
17.590000000000206,70,65,3,0.009000000000000001,17.57016617790832,19.83382209188661
17.590000000000206,35,80,0,0.009000000000000001,17.57251221896404,17.487781036168133
17.590000000000206,59,89,2,0.009000000000000001,17.57391984359747,16.080156402737046
17.590000000000206,47,93,1,0.009000000000000001,17.57454545454566,15.454545454545453
17.600000000000207,62,79,2,0.009000000000000001,17.58235581622699,17.64418377321603
17.600000000000207,45,80,1,0.009000000000000001,17.58251221896404,17.487781036168133
17.600000000000207,72,82,3,0.009000000000000001,17.582825024438137,17.174975562072337
17.600000000000207,34,86,0,0.009000000000000001,17.583450635386328,16.549364613880744
17.61000000000021,48,63,1,0.009000000000000001,17.589853372434227,20.146627565982406
17.61000000000021,61,66,2,0.009000000000000001,17.59032258064537,19.67741935483871
17.61000000000021,36,75,0,0.009000000000000001,17.5917302052788,18.269794721407624
17.61000000000021,74,91,3,0.009000000000000001,17.594232649071568,15.76735092864125
17.62000000000021,36,65,0,0.009000000000000001,17.600166177908324,19.83382209188661
17.62000000000021,71,92,3,0.009000000000000001,17.604389051808617,15.610948191593351
17.62000000000021,47,96,1,0.009000000000000001,17.60501466275681,14.985337243401759
17.62000000000021,58,97,2,0.009000000000000001,17.605171065493856,14.82893450635386
17.630000000000212,73,63,3,0.009000000000000001,17.60985337243423,20.146627565982406
17.630000000000212,48,84,1,0.009000000000000001,17.613137829912237,16.86217008797654
17.630000000000212,58,96,2,0.009000000000000001,17.61501466275681,14.985337243401759
17.630000000000212,34,97,0,0.009000000000000001,17.615171065493858,14.82893450635386
17.640000000000214,35,62,0,0.009000000000000001,17.619696969697184,20.303030303030305
17.640000000000214,73,89,3,0.009000000000000001,17.623919843597477,16.080156402737046
17.640000000000214,48,90,1,0.009000000000000001,17.624076246334525,15.923753665689148
17.640000000000214,61,98,2,0.009000000000000001,17.625327468230907,14.672531769305962
17.650000000000215,39,77,0,0.009000000000000001,17.632043010752902,17.956989247311828
17.650000000000215,51,84,1,0.009000000000000001,17.63313782991224,16.86217008797654
17.650000000000215,75,93,3,0.009000000000000001,17.63454545454567,15.454545454545453
17.650000000000215,60,96,2,0.009000000000000001,17.635014662756813,14.985337243401759
17.660000000000217,49,63,1,0.009000000000000001,17.639853372434235,20.146627565982406
17.660000000000217,64,80,2,0.009000000000000001,17.64251221896405,17.487781036168133
17.660000000000217,71,81,3,0.009000000000000001,17.642668621701098,17.331378299120235
17.660000000000217,37,85,0,0.009000000000000001,17.64329423264929,16.705767350928642
17.67000000000022,73,75,3,0.009000000000000001,17.65173020527881,18.269794721407624
17.67000000000022,36,77,0,0.009000000000000001,17.652043010752905,17.956989247311828
17.67000000000022,46,92,1,0.009000000000000001,17.654389051808625,15.610948191593351
17.67000000000022,60,99,2,0.009000000000000001,17.65548387096796,14.516129032258064
17.68000000000022,50,64,1,0.009000000000000001,17.660009775171286,19.990224828934508
17.68000000000022,38,75,0,0.009000000000000001,17.66173020527881,18.269794721407624
17.68000000000022,73,76,3,0.009000000000000001,17.66188660801586,18.113391984359726
17.68000000000022,61,91,2,0.009000000000000001,17.66423264907158,15.76735092864125
17.69000000000022,35,64,0,0.009000000000000001,17.670009775171287,19.990224828934508
17.69000000000022,50,70,1,0.009000000000000001,17.670948191593574,19.05180840664712
17.69000000000022,68,78,3,0.009000000000000001,17.672199413489956,17.80058651026393
17.69000000000022,63,82,2,0.009000000000000001,17.67282502443815,17.174975562072337
17.700000000000223,42,63,1,0.009000000000000001,17.67985337243424,20.146627565982406
17.700000000000223,33,64,0,0.009000000000000001,17.68000977517129,19.990224828934508
17.700000000000223,59,66,2,0.009000000000000001,17.680322580645385,19.67741935483871
17.700000000000223,73,78,3,0.009000000000000001,17.682199413489958,17.80058651026393
17.710000000000225,35,68,0,0.009000000000000001,17.69063538611948,19.364613880742915
17.710000000000225,62,69,2,0.009000000000000001,17.69079178885653,19.208211143695017
17.710000000000225,73,70,3,0.009000000000000001,17.690948191593577,19.05180840664712
17.710000000000225,46,75,1,0.009000000000000001,17.691730205278816,18.269794721407624
17.720000000000226,69,64,3,0.009000000000000001,17.700009775171292,19.990224828934508
17.720000000000226,50,85,1,0.009000000000000001,17.7032942326493,16.705767350928642
17.720000000000226,37,87,0,0.009000000000000001,17.703607038123394,16.392961876832846
17.720000000000226,55,97,2,0.009000000000000001,17.70517106549387,14.82893450635386
17.730000000000228,32,64,0,0.009000000000000001,17.710009775171294,19.990224828934508
17.730000000000228,50,73,1,0.009000000000000001,17.711417399804724,18.58260019550342
17.730000000000228,56,78,2,0.009000000000000001,17.712199413489962,17.80058651026393
17.730000000000228,73,96,3,0.009000000000000001,17.715014662756825,14.985337243401759
17.74000000000023,51,76,1,0.009000000000000001,17.72188660801587,18.113391984359726
17.74000000000023,70,85,3,0.009000000000000001,17.7232942326493,16.705767350928642
17.74000000000023,36,87,0,0.009000000000000001,17.723607038123397,16.392961876832846
17.74000000000023,59,89,2,0.009000000000000001,17.723919843597493,16.080156402737046
17.75000000000023,58,71,2,0.009000000000000001,17.73110459433063,18.89540566959922
17.75000000000023,49,73,1,0.009000000000000001,17.731417399804727,18.58260019550342
17.75000000000023,33,74,0,0.009000000000000001,17.731573802541774,18.426197458455523
17.75000000000023,70,82,3,0.009000000000000001,17.73282502443816,17.174975562072337
17.760000000000232,48,86,1,0.009000000000000001,17.743450635386353,16.549364613880744
17.760000000000232,57,89,2,0.009000000000000001,17.743919843597496,16.080156402737046
17.760000000000232,33,96,0,0.009000000000000001,17.74501466275683,14.985337243401759
17.760000000000232,70,96,3,0.009000000000000001,17.74501466275683,14.985337243401759
17.770000000000234,70,73,3,0.009000000000000001,17.75141739980473,18.58260019550342
17.770000000000234,61,85,2,0.009000000000000001,17.753294232649306,16.705767350928642
17.770000000000234,47,90,1,0.009000000000000001,17.754076246334545,15.923753665689148
17.770000000000234,38,95,0,0.009000000000000001,17.754858260019784,15.141739980449657
17.780000000000236,51,72,1,0.009000000000000001,17.761260997067684,18.73900293255132
17.780000000000236,35,90,0,0.009000000000000001,17.764076246334547,15.923753665689148
17.780000000000236,64,94,2,0.009000000000000001,17.764701857282738,15.298142717497555
17.780000000000236,72,94,3,0.009000000000000001,17.764701857282738,15.298142717497555
17.790000000000237,59,63,2,0.009000000000000001,17.769853372434255,20.146627565982406
17.790000000000237,38,64,0,0.009000000000000001,17.770009775171303,19.990224828934508
17.790000000000237,70,64,3,0.009000000000000001,17.770009775171303,19.990224828934508
17.790000000000237,50,95,1,0.009000000000000001,17.774858260019787,15.141739980449657
17.80000000000024,35,80,0,0.009000000000000001,17.782512218964072,17.487781036168133
17.80000000000024,50,81,1,0.009000000000000001,17.78266862170112,17.331378299120235
17.80000000000024,71,88,3,0.009000000000000001,17.783763440860454,16.236559139784944
17.80000000000024,59,96,2,0.009000000000000001,17.785014662756836,14.985337243401759
17.81000000000024,48,66,1,0.009000000000000001,17.7903225806454,19.67741935483871
17.81000000000024,62,66,2,0.009000000000000001,17.7903225806454,19.67741935483871
17.81000000000024,70,73,3,0.009000000000000001,17.791417399804736,18.58260019550342
17.81000000000024,33,96,0,0.009000000000000001,17.795014662756838,14.985337243401759
17.820000000000242,38,65,0,0.009000000000000001,17.800166177908356,19.83382209188661
17.820000000000242,47,78,1,0.009000000000000001,17.802199413489976,17.80058651026393
17.820000000000242,71,84,3,0.009000000000000001,17.803137829912266,16.86217008797654
17.820000000000242,59,88,2,0.009000000000000001,17.803763440860457,16.236559139784944
17.830000000000243,73,64,3,0.009000000000000001,17.81000977517131,19.990224828934508
17.830000000000243,56,67,2,0.009000000000000001,17.810478983382453,19.521016617790814
17.830000000000243,37,73,0,0.009000000000000001,17.81141739980474,18.58260019550342
17.830000000000243,46,96,1,0.009000000000000001,17.81501466275684,14.985337243401759
17.840000000000245,74,72,3,0.009000000000000001,17.821260997067693,18.73900293255132
17.840000000000245,57,75,2,0.009000000000000001,17.821730205278836,18.269794721407624
17.840000000000245,36,92,0,0.009000000000000001,17.82438905180865,15.610948191593351
17.840000000000245,48,96,1,0.009000000000000001,17.825014662756843,14.985337243401759
17.850000000000247,36,63,0,0.009000000000000001,17.829853372434265,20.146627565982406
17.850000000000247,46,77,1,0.009000000000000001,17.832043010752933,17.956989247311828
17.850000000000247,64,89,2,0.009000000000000001,17.83391984359751,16.080156402737046
17.850000000000247,74,90,3,0.009000000000000001,17.834076246334558,15.923753665689148
17.860000000000248,58,77,2,0.009000000000000001,17.842043010752935,17.956989247311828
17.860000000000248,47,82,1,0.009000000000000001,17.842825024438177,17.174975562072337
17.860000000000248,69,89,3,0.009000000000000001,17.84391984359751,16.080156402737046
17.860000000000248,34,99,0,0.009000000000000001,17.84548387096799,14.516129032258064
17.87000000000025,60,63,2,0.009000000000000001,17.849853372434268,20.146627565982406
17.87000000000025,71,83,3,0.009000000000000001,17.852981427175227,17.01857282502444
17.87000000000025,47,86,1,0.009000000000000001,17.85345063538637,16.549364613880744
17.87000000000025,37,95,0,0.009000000000000001,17.8548582600198,15.141739980449657
17.88000000000025,49,66,1,0.009000000000000001,17.860322580645413,19.67741935483871
17.88000000000025,61,86,2,0.009000000000000001,17.86345063538637,16.549364613880744
17.88000000000025,35,88,0,0.009000000000000001,17.863763440860467,16.236559139784944
17.88000000000025,71,97,3,0.009000000000000001,17.865171065493897,14.82893450635386
17.890000000000253,35,65,0,0.009000000000000001,17.870166177908366,19.83382209188661
17.890000000000253,59,89,2,0.009000000000000001,17.873919843597516,16.080156402737046
17.890000000000253,73,92,3,0.009000000000000001,17.87438905180866,15.610948191593351
17.890000000000253,49,95,1,0.009000000000000001,17.874858260019803,15.141739980449657
17.900000000000254,34,70,0,0.009000000000000001,17.880948191593607,19.05180840664712
17.900000000000254,48,88,1,0.009000000000000001,17.88376344086047,16.236559139784944
17.900000000000254,72,90,3,0.009000000000000001,17.884076246334565,15.923753665689148
17.900000000000254,62,98,2,0.009000000000000001,17.885327468230948,14.672531769305962
17.910000000000256,69,63,3,0.009000000000000001,17.889853372434274,20.146627565982406
17.910000000000256,49,76,1,0.009000000000000001,17.891886608015895,18.113391984359726
17.910000000000256,57,90,2,0.009000000000000001,17.894076246334567,15.923753665689148
17.910000000000256,36,98,0,0.009000000000000001,17.89532746823095,14.672531769305962
17.920000000000258,50,68,1,0.009000000000000001,17.900635386119514,19.364613880742915
17.920000000000258,41,72,0,0.009000000000000001,17.901260997067705,18.73900293255132
17.920000000000258,73,73,3,0.009000000000000001,17.901417399804753,18.58260019550342
17.920000000000258,57,84,2,0.009000000000000001,17.903137829912282,16.86217008797654
17.93000000000026,35,79,0,0.009000000000000001,17.91235581622704,17.64418377321603
17.93000000000026,48,81,1,0.009000000000000001,17.91266862170114,17.331378299120235
17.93000000000026,59,86,2,0.009000000000000001,17.91345063538638,16.549364613880744
17.93000000000026,71,86,3,0.009000000000000001,17.91345063538638,16.549364613880744
17.94000000000026,36,64,0,0.009000000000000001,17.920009775171327,19.990224828934508
17.94000000000026,50,67,1,0.009000000000000001,17.92047898338247,19.521016617790814
17.94000000000026,61,74,2,0.009000000000000001,17.921573802541804,18.426197458455523
17.94000000000026,73,90,3,0.009000000000000001,17.92407624633457,15.923753665689148
17.950000000000262,33,64,0,0.009000000000000001,17.930009775171328,19.990224828934508
17.950000000000262,62,76,2,0.009000000000000001,17.9318866080159,18.113391984359726
17.950000000000262,71,78,3,0.009000000000000001,17.932199413489997,17.80058651026393
17.950000000000262,47,95,1,0.009000000000000001,17.934858260019812,15.141739980449657
17.960000000000264,73,63,3,0.009000000000000001,17.939853372434282,20.146627565982406
17.960000000000264,49,76,1,0.009000000000000001,17.941886608015903,18.113391984359726
17.960000000000264,35,82,0,0.009000000000000001,17.942825024438193,17.174975562072337
17.960000000000264,62,90,2,0.009000000000000001,17.944076246334575,15.923753665689148
17.970000000000265,58,69,2,0.009000000000000001,17.95079178885657,19.208211143695017
17.970000000000265,36,72,0,0.009000000000000001,17.951260997067713,18.73900293255132
17.970000000000265,73,85,3,0.009000000000000001,17.953294232649338,16.705767350928642
17.970000000000265,45,97,1,0.009000000000000001,17.95517106549391,14.82893450635386
17.980000000000267,48,71,1,0.009000000000000001,17.961104594330667,18.89540566959922
17.980000000000267,36,73,0,0.009000000000000001,17.961417399804763,18.58260019550342
17.980000000000267,71,78,3,0.009000000000000001,17.96219941349,17.80058651026393
17.980000000000267,59,89,2,0.009000000000000001,17.96391984359753,16.080156402737046
17.99000000000027,69,69,3,0.009000000000000001,17.970791788856573,19.208211143695017
17.99000000000027,33,79,0,0.009000000000000001,17.97235581622705,17.64418377321603
17.99000000000027,45,92,1,0.009000000000000001,17.974389051808675,15.610948191593351
17.99000000000027,59,97,2,0.009000000000000001,17.975171065493914,14.82893450635386
18.00000000000027,47,62,1,0.009000000000000001,17.97969696969724,20.303030303030305
18.00000000000027,69,63,3,0.009000000000000001,17.979853372434288,20.146627565982406
18.00000000000027,56,71,2,0.009000000000000001,17.98110459433067,18.89540566959922
18.00000000000027,39,92,0,0.009000000000000001,17.984389051808677,15.610948191593351
18.01000000000027,71,78,3,0.009000000000000001,17.992199413490006,17.80058651026393
18.01000000000027,59,91,2,0.009000000000000001,17.99423264907163,15.76735092864125
18.01000000000027,36,98,0,0.009000000000000001,17.995327468230965,14.672531769305962
18.01000000000027,49,98,1,0.009000000000000001,17.995327468230965,14.672531769305962
18.020000000000273,72,78,3,0.009000000000000001,18.002199413490008,17.80058651026393
18.020000000000273,35,80,0,0.009000000000000001,18.002512218964107,17.487781036168133
18.020000000000273,59,81,2,0.009000000000000001,18.002668621701154,17.331378299120235
18.020000000000273,47,85,1,0.009000000000000001,18.003294232649345,16.705767350928642
18.030000000000275,51,66,1,0.009000000000000001,18.010322580645436,19.67741935483871
18.030000000000275,59,77,2,0.009000000000000001,18.01204301075296,17.956989247311828
18.030000000000275,35,94,0,0.009000000000000001,18.014701857282777,15.298142717497555
18.030000000000275,67,97,3,0.009000000000000001,18.01517106549392,14.82893450635386
18.040000000000276,48,64,1,0.009000000000000001,18.020009775171342,19.990224828934508
18.040000000000276,58,66,2,0.009000000000000001,18.020322580645438,19.67741935483871
18.040000000000276,73,67,3,0.009000000000000001,18.020478983382485,19.521016617790814
18.040000000000276,36,68,0,0.009000000000000001,18.020635386119533,19.364613880742915
18.050000000000278,39,77,0,0.009000000000000001,18.032043010752965,17.956989247311828
18.050000000000278,71,79,3,0.009000000000000001,18.03235581622706,17.64418377321603
18.050000000000278,61,86,2,0.009000000000000001,18.033450635386398,16.549364613880744
18.050000000000278,45,88,1,0.009000000000000001,18.033763440860493,16.236559139784944
18.06000000000028,34,63,0,0.009000000000000001,18.039853372434298,20.146627565982406
18.06000000000028,60,72,2,0.009000000000000001,18.041260997067727,18.73900293255132
18.06000000000028,48,83,1,0.009000000000000001,18.042981427175256,17.01857282502444
18.06000000000028,72,95,3,0.009000000000000001,18.04485826001983,15.141739980449657
18.07000000000028,59,77,2,0.009000000000000001,18.052043010752968,17.956989247311828
18.07000000000028,38,84,0,0.009000000000000001,18.053137829912306,16.86217008797654
18.07000000000028,70,85,3,0.009000000000000001,18.053294232649353,16.705767350928642
18.07000000000028,48,92,1,0.009000000000000001,18.054389051808688,15.610948191593351
18.080000000000283,37,68,0,0.009000000000000001,18.06063538611954,19.364613880742915
18.080000000000283,49,69,1,0.009000000000000001,18.060791788856587,19.208211143695017
18.080000000000283,60,72,2,0.009000000000000001,18.06126099706773,18.73900293255132
18.080000000000283,72,79,3,0.009000000000000001,18.062355816227065,17.64418377321603
18.090000000000284,50,62,1,0.009000000000000001,18.069696969697254,20.303030303030305
18.090000000000284,37,75,0,0.009000000000000001,18.071730205278875,18.269794721407624
18.090000000000284,59,78,2,0.009000000000000001,18.07219941349002,17.80058651026393
18.090000000000284,75,99,3,0.009000000000000001,18.075483870968025,14.516129032258064
18.100000000000286,32,66,0,0.009000000000000001,18.080322580645447,19.67741935483871
18.100000000000286,72,70,3,0.009000000000000001,18.080948191593638,19.05180840664712
18.100000000000286,44,71,1,0.009000000000000001,18.081104594330686,18.89540566959922
18.100000000000286,62,93,2,0.009000000000000001,18.08454545454574,15.454545454545453
18.110000000000287,32,76,0,0.009000000000000001,18.091886608015926,18.113391984359726
18.110000000000287,47,81,1,0.009000000000000001,18.09266862170117,17.331378299120235
18.110000000000287,72,92,3,0.009000000000000001,18.094389051808694,15.610948191593351
18.110000000000287,59,94,2,0.009000000000000001,18.09470185728279,15.298142717497555
18.12000000000029,57,69,2,0.009000000000000001,18.100791788856593,19.208211143695017
18.12000000000029,48,72,1,0.009000000000000001,18.101260997067737,18.73900293255132
18.12000000000029,39,83,0,0.009000000000000001,18.102981427175266,17.01857282502444
18.12000000000029,72,97,3,0.009000000000000001,18.105171065493934,14.82893450635386
18.13000000000029,61,66,2,0.009000000000000001,18.11032258064545,19.67741935483871
18.13000000000029,36,77,0,0.009000000000000001,18.112043010752977,17.956989247311828
18.13000000000029,70,84,3,0.009000000000000001,18.113137829912315,16.86217008797654
18.13000000000029,43,85,1,0.009000000000000001,18.113294232649363,16.705767350928642
18.140000000000292,56,64,2,0.009000000000000001,18.120009775171358,19.990224828934508
18.140000000000292,73,78,3,0.009000000000000001,18.122199413490026,17.80058651026393
18.140000000000292,45,83,1,0.009000000000000001,18.12298142717527,17.01857282502444
18.140000000000292,36,99,0,0.009000000000000001,18.125483870968033,14.516129032258064
18.150000000000293,49,79,1,0.009000000000000001,18.132355816227076,17.64418377321603
18.150000000000293,62,89,2,0.009000000000000001,18.133919843597557,16.080156402737046
18.150000000000293,71,93,3,0.009000000000000001,18.134545454545748,15.454545454545453
18.150000000000293,37,95,0,0.009000000000000001,18.134858260019843,15.141739980449657
18.160000000000295,69,71,3,0.009000000000000001,18.141104594330695,18.89540566959922
18.160000000000295,58,79,2,0.009000000000000001,18.142355816227077,17.64418377321603
18.160000000000295,48,80,1,0.009000000000000001,18.14251221896413,17.487781036168133
18.160000000000295,37,99,0,0.009000000000000001,18.145483870968036,14.516129032258064
18.170000000000297,36,70,0,0.009000000000000001,18.15094819159365,19.05180840664712
18.170000000000297,72,91,3,0.009000000000000001,18.154232649071655,15.76735092864125
18.170000000000297,47,94,1,0.009000000000000001,18.1547018572828,15.298142717497555
18.170000000000297,59,98,2,0.009000000000000001,18.15532746823099,14.672531769305962
18.180000000000298,37,63,0,0.009000000000000001,18.159853372434316,20.146627565982406
18.180000000000298,69,65,3,0.009000000000000001,18.160166177908412,19.83382209188661
18.180000000000298,60,78,2,0.009000000000000001,18.162199413490033,17.80058651026393
18.180000000000298,48,91,1,0.009000000000000001,18.164232649071657,15.76735092864125
18.1900000000003,47,67,1,0.009000000000000001,18.17047898338251,19.521016617790814
18.1900000000003,57,74,2,0.009000000000000001,18.171573802541843,18.426197458455523
18.1900000000003,72,79,3,0.009000000000000001,18.172355816227082,17.64418377321603
18.1900000000003,36,92,0,0.009000000000000001,18.174389051808706,15.610948191593351
18.2000000000003,33,63,0,0.009000000000000001,18.17985337243432,20.146627565982406
18.2000000000003,59,63,2,0.009000000000000001,18.17985337243432,20.146627565982406
18.2000000000003,49,72,1,0.009000000000000001,18.18126099706775,18.73900293255132
18.2000000000003,74,73,3,0.009000000000000001,18.181417399804797,18.58260019550342
18.210000000000303,45,70,1,0.009000000000000001,18.190948191593655,19.05180840664712
18.210000000000303,57,76,2,0.009000000000000001,18.191886608015942,18.113391984359726
18.210000000000303,73,87,3,0.009000000000000001,18.19360703812347,16.392961876832846
18.210000000000303,36,93,0,0.009000000000000001,18.194545454545757,15.454545454545453
18.220000000000304,56,68,2,0.009000000000000001,18.20063538611956,19.364613880742915
18.220000000000304,47,81,1,0.009000000000000001,18.202668621701186,17.331378299120235
18.220000000000304,38,91,0,0.009000000000000001,18.204232649071663,15.76735092864125
18.220000000000304,71,94,3,0.009000000000000001,18.204701857282807,15.298142717497555
18.230000000000306,71,76,3,0.009000000000000001,18.211886608015945,18.113391984359726
18.230000000000306,61,78,2,0.009000000000000001,18.21219941349004,17.80058651026393
18.230000000000306,48,86,1,0.009000000000000001,18.213450635386426,16.549364613880744
18.230000000000306,35,94,0,0.009000000000000001,18.214701857282808,15.298142717497555
18.240000000000308,39,74,0,0.009000000000000001,18.22157380254185,18.426197458455523
18.240000000000308,70,86,3,0.009000000000000001,18.223450635386428,16.549364613880744
18.240000000000308,47,96,1,0.009000000000000001,18.225014662756905,14.985337243401759
18.240000000000308,56,98,2,0.009000000000000001,18.225327468231,14.672531769305962
18.25000000000031,35,64,0,0.009000000000000001,18.230009775171375,19.990224828934508
18.25000000000031,70,84,3,0.009000000000000001,18.233137829912334,16.86217008797654
18.25000000000031,64,91,2,0.009000000000000001,18.234232649071668,15.76735092864125
18.25000000000031,46,97,1,0.009000000000000001,18.235171065493955,14.82893450635386
18.26000000000031,35,63,0,0.009000000000000001,18.23985337243433,20.146627565982406
18.26000000000031,74,79,3,0.009000000000000001,18.242355816227093,17.64418377321603
18.26000000000031,49,81,1,0.009000000000000001,18.242668621701192,17.331378299120235
18.26000000000031,59,81,2,0.009000000000000001,18.242668621701192,17.331378299120235
18.270000000000312,31,62,0,0.009000000000000001,18.249696969697283,20.303030303030305
18.270000000000312,55,70,2,0.009000000000000001,18.250948191593665,19.05180840664712
18.270000000000312,70,75,3,0.009000000000000001,18.251730205278903,18.269794721407624
18.270000000000312,47,99,1,0.009000000000000001,18.255483870968053,14.516129032258064
18.280000000000314,34,65,0,0.009000000000000001,18.260166177908427,19.83382209188661
18.280000000000314,49,69,1,0.009000000000000001,18.26079178885662,19.208211143695017
18.280000000000314,58,69,2,0.009000000000000001,18.26079178885662,19.208211143695017
18.280000000000314,71,92,3,0.009000000000000001,18.26438905180872,15.610948191593351
18.290000000000315,48,62,1,0.009000000000000001,18.269696969697286,20.303030303030305
18.290000000000315,59,66,2,0.009000000000000001,18.270322580645477,19.67741935483871
18.290000000000315,72,76,3,0.009000000000000001,18.271886608015954,18.113391984359726
18.290000000000315,36,81,0,0.009000000000000001,18.272668621701197,17.331378299120235
18.300000000000317,34,65,0,0.009000000000000001,18.28016617790843,19.83382209188661
18.300000000000317,59,79,2,0.009000000000000001,18.2823558162271,17.64418377321603
18.300000000000317,73,86,3,0.009000000000000001,18.283450635386437,16.549364613880744
18.300000000000317,48,98,1,0.009000000000000001,18.28532746823101,14.672531769305962
18.31000000000032,35,70,0,0.009000000000000001,18.29094819159367,19.05180840664712
18.31000000000032,72,74,3,0.009000000000000001,18.291573802541862,18.426197458455523
18.31000000000032,48,85,1,0.009000000000000001,18.29329423264939,16.705767350928642
18.31000000000032,59,90,2,0.009000000000000001,18.29407624633463,15.923753665689148
18.32000000000032,34,63,0,0.009000000000000001,18.299853372434338,20.146627565982406
18.32000000000032,44,75,1,0.009000000000000001,18.30173020527891,18.269794721407624
18.32000000000032,71,85,3,0.009000000000000001,18.303294232649392,16.705767350928642
18.32000000000032,62,88,2,0.009000000000000001,18.303763440860536,16.236559139784944
18.33000000000032,34,75,0,0.009000000000000001,18.311730205278913,18.269794721407624
18.33000000000032,68,84,3,0.009000000000000001,18.313137829912346,16.86217008797654
18.33000000000032,47,93,1,0.009000000000000001,18.314545454545776,15.454545454545453
18.33000000000032,60,93,2,0.009000000000000001,18.314545454545776,15.454545454545453
18.340000000000323,43,64,1,0.009000000000000001,18.32000977517139,19.990224828934508
18.340000000000323,71,87,3,0.009000000000000001,18.32360703812349,16.392961876832846
18.340000000000323,34,89,0,0.009000000000000001,18.323919843597587,16.080156402737046
18.340000000000323,62,98,2,0.009000000000000001,18.325327468231016,14.672531769305962
18.350000000000325,65,77,2,0.009000000000000001,18.33204301075301,17.956989247311828
18.350000000000325,45,82,1,0.009000000000000001,18.332825024438254,17.174975562072337
18.350000000000325,69,86,3,0.009000000000000001,18.333450635386445,16.549364613880744
18.350000000000325,37,89,0,0.009000000000000001,18.333919843597588,16.080156402737046
18.360000000000326,48,64,1,0.009000000000000001,18.340009775171392,19.990224828934508
18.360000000000326,73,68,3,0.009000000000000001,18.340635386119583,19.364613880742915
18.360000000000326,36,76,0,0.009000000000000001,18.341886608015965,18.113391984359726
18.360000000000326,63,80,2,0.009000000000000001,18.34251221896416,17.487781036168133
18.370000000000328,47,66,1,0.009000000000000001,18.35032258064549,19.67741935483871
18.370000000000328,67,66,3,0.009000000000000001,18.35032258064549,19.67741935483871
18.370000000000328,60,78,2,0.009000000000000001,18.352199413490062,17.80058651026393
18.370000000000328,34,95,0,0.009000000000000001,18.354858260019878,15.141739980449657
18.38000000000033,47,87,1,0.009000000000000001,18.363607038123497,16.392961876832846
18.38000000000033,70,90,3,0.009000000000000001,18.36407624633464,15.923753665689148
18.38000000000033,59,94,2,0.009000000000000001,18.36470185728283,15.298142717497555
18.38000000000033,36,98,0,0.009000000000000001,18.365327468231023,14.672531769305962
18.39000000000033,70,84,3,0.009000000000000001,18.373137829912356,16.86217008797654
18.39000000000033,38,87,0,0.009000000000000001,18.3736070381235,16.392961876832846
18.39000000000033,46,98,1,0.009000000000000001,18.375327468231024,14.672531769305962
18.39000000000033,60,99,2,0.009000000000000001,18.375483870968072,14.516129032258064
18.400000000000333,47,65,1,0.009000000000000001,18.380166177908446,19.83382209188661
18.400000000000333,72,76,3,0.009000000000000001,18.38188660801597,18.113391984359726
18.400000000000333,58,79,2,0.009000000000000001,18.382355816227115,17.64418377321603
18.400000000000333,33,89,0,0.009000000000000001,18.383919843597596,16.080156402737046
18.410000000000334,36,73,0,0.009000000000000001,18.39141739980483,18.58260019550342
18.410000000000334,71,76,3,0.009000000000000001,18.391886608015973,18.113391984359726
18.410000000000334,64,83,2,0.009000000000000001,18.39298142717531,17.01857282502444
18.410000000000334,49,86,1,0.009000000000000001,18.393450635386454,16.549364613880744
18.420000000000336,72,68,3,0.009000000000000001,18.400635386119593,19.364613880742915
18.420000000000336,58,74,2,0.009000000000000001,18.40157380254188,18.426197458455523
18.420000000000336,47,93,1,0.009000000000000001,18.40454545454579,15.454545454545453
18.420000000000336,35,97,0,0.009000000000000001,18.40517106549398,14.82893450635386
18.430000000000337,62,67,2,0.009000000000000001,18.410478983382546,19.521016617790814
18.430000000000337,74,70,3,0.009000000000000001,18.41094819159369,19.05180840664712
18.430000000000337,47,82,1,0.009000000000000001,18.412825024438266,17.174975562072337
18.430000000000337,31,91,0,0.009000000000000001,18.414232649071696,15.76735092864125
18.44000000000034,69,77,3,0.009000000000000001,18.422043010753026,17.956989247311828
18.44000000000034,58,93,2,0.009000000000000001,18.424545454545793,15.454545454545453
18.44000000000034,35,94,0,0.009000000000000001,18.42470185728284,15.298142717497555
18.44000000000034,51,94,1,0.009000000000000001,18.42470185728284,15.298142717497555
18.45000000000034,62,80,2,0.009000000000000001,18.432512218964174,17.487781036168133
18.45000000000034,35,90,0,0.009000000000000001,18.43407624633465,15.923753665689148
18.45000000000034,69,95,3,0.009000000000000001,18.43485826001989,15.141739980449657
18.45000000000034,47,97,1,0.009000000000000001,18.435171065493986,14.82893450635386
18.460000000000342,73,62,3,0.009000000000000001,18.439696969697312,20.303030303030305
18.460000000000342,58,65,2,0.009000000000000001,18.440166177908456,19.83382209188661
18.460000000000342,45,74,1,0.009000000000000001,18.441573802541885,18.426197458455523
18.460000000000342,35,80,0,0.009000000000000001,18.442512218964175,17.487781036168133
18.470000000000343,61,63,2,0.009000000000000001,18.44985337243436,20.146627565982406
18.470000000000343,68,69,3,0.009000000000000001,18.450791788856648,19.208211143695017
18.470000000000343,38,79,0,0.009000000000000001,18.452355816227126,17.64418377321603
18.470000000000343,46,99,1,0.009000000000000001,18.455483870968084,14.516129032258064
18.480000000000345,48,67,1,0.009000000000000001,18.460478983382554,19.521016617790814
18.480000000000345,59,72,2,0.009000000000000001,18.461260997067793,18.73900293255132
18.480000000000345,71,74,3,0.009000000000000001,18.46157380254189,18.426197458455523
18.480000000000345,33,89,0,0.009000000000000001,18.46391984359761,16.080156402737046
18.490000000000347,60,66,2,0.009000000000000001,18.470322580645508,19.67741935483871
18.490000000000347,75,73,3,0.009000000000000001,18.471417399804842,18.58260019550342
18.490000000000347,49,75,1,0.009000000000000001,18.471730205278938,18.269794721407624
18.490000000000347,33,90,0,0.009000000000000001,18.474076246334658,15.923753665689148
18.500000000000348,59,71,2,0.009000000000000001,18.48110459433075,18.89540566959922
18.500000000000348,48,74,1,0.009000000000000001,18.48157380254189,18.426197458455523
18.500000000000348,71,74,3,0.009000000000000001,18.48157380254189,18.426197458455523
18.500000000000348,34,89,0,0.009000000000000001,18.48391984359761,16.080156402737046
18.51000000000035,60,89,2,0.009000000000000001,18.493919843597613,16.080156402737046
18.51000000000035,49,92,1,0.009000000000000001,18.494389051808756,15.610948191593351
18.51000000000035,38,98,0,0.009000000000000001,18.495327468231043,14.672531769305962
18.51000000000035,71,98,3,0.009000000000000001,18.495327468231043,14.672531769305962
18.52000000000035,36,70,0,0.009000000000000001,18.500948191593704,19.05180840664712
18.52000000000035,72,74,3,0.009000000000000001,18.501573802541895,18.426197458455523
18.52000000000035,57,83,2,0.009000000000000001,18.502981427175328,17.01857282502444
18.52000000000035,48,97,1,0.009000000000000001,18.505171065493997,14.82893450635386
18.530000000000353,72,68,3,0.009000000000000001,18.51063538611961,19.364613880742915
18.530000000000353,35,71,0,0.009000000000000001,18.511104594330753,18.89540566959922
18.530000000000353,44,78,1,0.009000000000000001,18.512199413490087,17.80058651026393
18.530000000000353,62,86,2,0.009000000000000001,18.513450635386473,16.549364613880744
18.540000000000354,50,70,1,0.009000000000000001,18.520948191593707,19.05180840664712
18.540000000000354,36,74,0,0.009000000000000001,18.521573802541898,18.426197458455523
18.540000000000354,69,88,3,0.009000000000000001,18.52376344086057,16.236559139784944
18.540000000000354,62,90,2,0.009000000000000001,18.524076246334666,15.923753665689148
18.550000000000356,72,69,3,0.009000000000000001,18.53079178885666,19.208211143695017
18.550000000000356,48,79,1,0.009000000000000001,18.53235581622714,17.64418377321603
18.550000000000356,37,81,0,0.009000000000000001,18.532668621701237,17.331378299120235
18.550000000000356,59,94,2,0.009000000000000001,18.534701857282858,15.298142717497555
18.560000000000358,36,82,0,0.009000000000000001,18.542825024438287,17.174975562072337
18.560000000000358,48,88,1,0.009000000000000001,18.543763440860573,16.236559139784944
18.560000000000358,60,89,2,0.009000000000000001,18.54391984359762,16.080156402737046
18.560000000000358,73,90,3,0.009000000000000001,18.54407624633467,15.923753665689148
18.57000000000036,58,63,2,0.009000000000000001,18.549853372434377,20.146627565982406
18.57000000000036,37,64,0,0.009000000000000001,18.550009775171425,19.990224828934508
18.57000000000036,67,92,3,0.009000000000000001,18.554389051808766,15.610948191593351
18.57000000000036,49,98,1,0.009000000000000001,18.555327468231052,14.672531769305962
18.58000000000036,32,68,0,0.009000000000000001,18.560635386119618,19.364613880742915
18.58000000000036,72,83,3,0.009000000000000001,18.562981427175338,17.01857282502444
18.58000000000036,56,95,2,0.009000000000000001,18.56485826001991,15.141739980449657
18.58000000000036,50,99,1,0.009000000000000001,18.5654838709681,14.516129032258064
18.590000000000362,33,68,0,0.009000000000000001,18.57063538611962,19.364613880742915
18.590000000000362,67,75,3,0.009000000000000001,18.571730205278953,18.269794721407624
18.590000000000362,48,87,1,0.009000000000000001,18.57360703812353,16.392961876832846
18.590000000000362,62,93,2,0.009000000000000001,18.574545454545817,15.454545454545453
18.600000000000364,36,67,0,0.009000000000000001,18.580478983382573,19.521016617790814
18.600000000000364,61,67,2,0.009000000000000001,18.580478983382573,19.521016617790814
18.600000000000364,46,79,1,0.009000000000000001,18.582355816227146,17.64418377321603
18.600000000000364,70,81,3,0.009000000000000001,18.582668621701245,17.331378299120235
18.610000000000365,33,71,0,0.009000000000000001,18.591104594330766,18.89540566959922
18.610000000000365,72,78,3,0.009000000000000001,18.5921994134901,17.80058651026393
18.610000000000365,49,90,1,0.009000000000000001,18.594076246334676,15.923753665689148
18.610000000000365,58,91,2,0.009000000000000001,18.594232649071724,15.76735092864125
18.620000000000367,46,63,1,0.009000000000000001,18.599853372434385,20.146627565982406
18.620000000000367,70,76,3,0.009000000000000001,18.601886608016006,18.113391984359726
18.620000000000367,37,77,0,0.009000000000000001,18.602043010753054,17.956989247311828
18.620000000000367,61,82,2,0.009000000000000001,18.602825024438296,17.174975562072337
18.63000000000037,38,84,0,0.009000000000000001,18.613137829912393,16.86217008797654
18.63000000000037,47,87,1,0.009000000000000001,18.613607038123536,16.392961876832846
18.63000000000037,61,91,2,0.009000000000000001,18.614232649071727,15.76735092864125
18.63000000000037,70,94,3,0.009000000000000001,18.61470185728287,15.298142717497555
18.64000000000037,72,78,3,0.009000000000000001,18.622199413490105,17.80058651026393
18.64000000000037,59,81,2,0.009000000000000001,18.62266862170125,17.331378299120235
18.64000000000037,47,95,1,0.009000000000000001,18.62485826001992,15.141739980449657
18.64000000000037,35,98,0,0.009000000000000001,18.625327468231063,14.672531769305962
18.65000000000037,33,78,0,0.009000000000000001,18.632199413490106,17.80058651026393
18.65000000000037,60,83,2,0.009000000000000001,18.63298142717535,17.01857282502444
18.65000000000037,70,86,3,0.009000000000000001,18.63345063538649,16.549364613880744
18.65000000000037,46,93,1,0.009000000000000001,18.634545454545826,15.454545454545453
18.660000000000373,73,66,3,0.009000000000000001,18.640322580645535,19.67741935483871
18.660000000000373,36,85,0,0.009000000000000001,18.643294232649446,16.705767350928642
18.660000000000373,49,90,1,0.009000000000000001,18.644076246334684,15.923753665689148
18.660000000000373,60,96,2,0.009000000000000001,18.64501466275697,14.985337243401759
18.670000000000375,48,63,1,0.009000000000000001,18.649853372434393,20.146627565982406
18.670000000000375,61,71,2,0.009000000000000001,18.651104594330775,18.89540566959922
18.670000000000375,35,89,0,0.009000000000000001,18.653919843597638,16.080156402737046
18.670000000000375,70,92,3,0.009000000000000001,18.65438905180878,15.610948191593351
18.680000000000376,71,66,3,0.009000000000000001,18.660322580645538,19.67741935483871
18.680000000000376,62,75,2,0.009000000000000001,18.661730205278968,18.269794721407624
18.680000000000376,47,83,1,0.009000000000000001,18.662981427175353,17.01857282502444
18.680000000000376,35,90,0,0.009000000000000001,18.664076246334687,15.923753665689148
18.690000000000378,47,71,1,0.009000000000000001,18.671104594330778,18.89540566959922
18.690000000000378,54,75,2,0.009000000000000001,18.67173020527897,18.269794721407624
18.690000000000378,71,93,3,0.009000000000000001,18.674545454545832,15.454545454545453
18.690000000000378,36,99,0,0.009000000000000001,18.67548387096812,14.516129032258064
18.70000000000038,70,76,3,0.009000000000000001,18.68188660801602,18.113391984359726
18.70000000000038,45,93,1,0.009000000000000001,18.684545454545834,15.454545454545453
18.70000000000038,37,94,0,0.009000000000000001,18.68470185728288,15.298142717497555
18.70000000000038,59,94,2,0.009000000000000001,18.68470185728288,15.298142717497555
18.71000000000038,47,69,1,0.009000000000000001,18.690791788856686,19.208211143695017
18.71000000000038,59,90,2,0.009000000000000001,18.694076246334692,15.923753665689148
18.71000000000038,37,99,0,0.009000000000000001,18.695483870968122,14.516129032258064
18.71000000000038,72,99,3,0.009000000000000001,18.695483870968122,14.516129032258064
18.720000000000383,62,68,2,0.009000000000000001,18.70063538611964,19.364613880742915
18.720000000000383,47,77,1,0.009000000000000001,18.70204301075307,17.956989247311828
18.720000000000383,35,82,0,0.009000000000000001,18.70282502443831,17.174975562072337
18.720000000000383,74,99,3,0.009000000000000001,18.705483870968123,14.516129032258064
18.730000000000384,32,68,0,0.009000000000000001,18.71063538611964,19.364613880742915
18.730000000000384,73,68,3,0.009000000000000001,18.71063538611964,19.364613880742915
18.730000000000384,59,70,2,0.009000000000000001,18.710948191593737,19.05180840664712
18.730000000000384,47,85,1,0.009000000000000001,18.713294232649456,16.705767350928642
18.740000000000386,70,79,3,0.009000000000000001,18.722355816227168,17.64418377321603
18.740000000000386,48,81,1,0.009000000000000001,18.722668621701267,17.331378299120235
18.740000000000386,58,87,2,0.009000000000000001,18.723607038123554,16.392961876832846
18.740000000000386,32,93,0,0.009000000000000001,18.72454545454584,15.454545454545453
18.750000000000387,49,64,1,0.009000000000000001,18.730009775171453,19.990224828934508
18.750000000000387,60,74,2,0.009000000000000001,18.73157380254193,18.426197458455523
18.750000000000387,35,75,0,0.009000000000000001,18.73173020527898,18.269794721407624
18.750000000000387,72,95,3,0.009000000000000001,18.734858260019937,15.141739980449657
18.76000000000039,45,74,1,0.009000000000000001,18.741573802541932,18.426197458455523
18.76000000000039,60,79,2,0.009000000000000001,18.74235581622717,17.64418377321603
18.76000000000039,33,94,0,0.009000000000000001,18.74470185728289,15.298142717497555
18.76000000000039,72,94,3,0.009000000000000001,18.74470185728289,15.298142717497555
18.77000000000039,32,72,0,0.009000000000000001,18.75126099706784,18.73900293255132
18.77000000000039,71,74,3,0.009000000000000001,18.751573802541934,18.426197458455523
18.77000000000039,61,82,2,0.009000000000000001,18.75282502443832,17.174975562072337
18.77000000000039,44,95,1,0.009000000000000001,18.75485826001994,15.141739980449657
18.780000000000392,72,64,3,0.009000000000000001,18.760009775171458,19.990224828934508
18.780000000000392,38,69,0,0.009000000000000001,18.760791788856697,19.208211143695017
18.780000000000392,45,91,1,0.009000000000000001,18.76423264907175,15.76735092864125
18.780000000000392,59,94,2,0.009000000000000001,18.764701857282894,15.298142717497555
18.790000000000393,34,86,0,0.009000000000000001,18.773450635386514,16.549364613880744
18.790000000000393,73,87,3,0.009000000000000001,18.77360703812356,16.392961876832846
18.790000000000393,58,88,2,0.009000000000000001,18.77376344086061,16.236559139784944
18.790000000000393,47,92,1,0.009000000000000001,18.7743890518088,15.610948191593351
18.800000000000395,34,70,0,0.009000000000000001,18.780948191593748,19.05180840664712
18.800000000000395,50,88,1,0.009000000000000001,18.78376344086061,16.236559139784944
18.800000000000395,60,96,2,0.009000000000000001,18.785014662756993,14.985337243401759
18.800000000000395,69,97,3,0.009000000000000001,18.78517106549404,14.82893450635386
18.810000000000397,46,66,1,0.009000000000000001,18.790322580645558,19.67741935483871
18.810000000000397,60,78,2,0.009000000000000001,18.79219941349013,17.80058651026393
18.810000000000397,37,88,0,0.009000000000000001,18.793763440860612,16.236559139784944
18.810000000000397,71,99,3,0.009000000000000001,18.795483870968138,14.516129032258064
18.820000000000398,36,68,0,0.009000000000000001,18.800635386119655,19.364613880742915
18.820000000000398,50,76,1,0.009000000000000001,18.801886608016037,18.113391984359726
18.820000000000398,60,88,2,0.009000000000000001,18.803763440860614,16.236559139784944
18.820000000000398,73,99,3,0.009000000000000001,18.80548387096814,14.516129032258064
18.8300000000004,72,63,3,0.009000000000000001,18.809853372434418,20.146627565982406
18.8300000000004,32,78,0,0.009000000000000001,18.812199413490134,17.80058651026393
18.8300000000004,63,79,2,0.009000000000000001,18.812355816227182,17.64418377321603
18.8300000000004,47,94,1,0.009000000000000001,18.814701857282902,15.298142717497555
18.8400000000004,68,68,3,0.009000000000000001,18.82063538611966,19.364613880742915
18.8400000000004,52,77,1,0.009000000000000001,18.822043010753088,17.956989247311828
18.8400000000004,57,90,2,0.009000000000000001,18.824076246334712,15.923753665689148
18.8400000000004,34,92,0,0.009000000000000001,18.824389051808808,15.610948191593351
18.850000000000403,75,63,3,0.009000000000000001,18.82985337243442,20.146627565982406
18.850000000000403,60,64,2,0.009000000000000001,18.83000977517147,19.990224828934508
18.850000000000403,44,85,1,0.009000000000000001,18.833294232649475,16.705767350928642
18.850000000000403,33,92,0,0.009000000000000001,18.83438905180881,15.610948191593351
18.860000000000404,34,73,0,0.009000000000000001,18.8414173998049,18.58260019550342
18.860000000000404,60,86,2,0.009000000000000001,18.843450635386525,16.549364613880744
18.860000000000404,70,90,3,0.009000000000000001,18.844076246334716,15.923753665689148
18.860000000000404,50,98,1,0.009000000000000001,18.845327468231098,14.672531769305962
18.870000000000406,48,73,1,0.009000000000000001,18.8514173998049,18.58260019550342
18.870000000000406,58,73,2,0.009000000000000001,18.8514173998049,18.58260019550342
18.870000000000406,71,82,3,0.009000000000000001,18.852825024438335,17.174975562072337
18.870000000000406,36,97,0,0.009000000000000001,18.85517106549405,14.82893450635386
18.880000000000408,40,63,0,0.009000000000000001,18.859853372434426,20.146627565982406
18.880000000000408,60,67,2,0.009000000000000001,18.860478983382617,19.521016617790814
18.880000000000408,70,84,3,0.009000000000000001,18.863137829912432,16.86217008797654
18.880000000000408,47,89,1,0.009000000000000001,18.86391984359767,16.080156402737046
18.89000000000041,70,67,3,0.009000000000000001,18.87047898338262,19.521016617790814
18.89000000000041,46,70,1,0.009000000000000001,18.87094819159376,19.05180840664712
18.89000000000041,34,81,0,0.009000000000000001,18.87266862170129,17.331378299120235
18.89000000000041,61,96,2,0.009000000000000001,18.875014662757007,14.985337243401759
18.90000000000041,35,66,0,0.009000000000000001,18.880322580645572,19.67741935483871
18.90000000000041,63,76,2,0.009000000000000001,18.88188660801605,18.113391984359726
18.90000000000041,73,79,3,0.009000000000000001,18.882355816227193,17.64418377321603
18.90000000000041,48,90,1,0.009000000000000001,18.884076246334722,15.923753665689148
18.910000000000412,36,76,0,0.009000000000000001,18.89188660801605,18.113391984359726
18.910000000000412,72,88,3,0.009000000000000001,18.893763440860628,16.236559139784944
18.910000000000412,61,94,2,0.009000000000000001,18.894701857282914,15.298142717497555
18.910000000000412,47,98,1,0.009000000000000001,18.895327468231105,14.672531769305962
18.920000000000414,62,75,2,0.009000000000000001,18.901730205279005,18.269794721407624
18.920000000000414,72,82,3,0.009000000000000001,18.902825024438343,17.174975562072337
18.920000000000414,36,95,0,0.009000000000000001,18.904858260019964,15.141739980449657
18.920000000000414,47,96,1,0.009000000000000001,18.90501466275701,14.985337243401759
18.930000000000415,38,69,0,0.009000000000000001,18.91079178885672,19.208211143695017
18.930000000000415,68,77,3,0.009000000000000001,18.912043010753102,17.956989247311828
18.930000000000415,46,78,1,0.009000000000000001,18.91219941349015,17.80058651026393
18.930000000000415,63,97,2,0.009000000000000001,18.91517106549406,14.82893450635386
18.940000000000417,60,63,2,0.009000000000000001,18.919853372434435,20.146627565982406
18.940000000000417,46,71,1,0.009000000000000001,18.921104594330817,18.89540566959922
18.940000000000417,37,85,0,0.009000000000000001,18.92329423264949,16.705767350928642
18.940000000000417,73,98,3,0.009000000000000001,18.92532746823111,14.672531769305962
18.95000000000042,36,65,0,0.009000000000000001,18.930166177908532,19.83382209188661
18.95000000000042,49,78,1,0.009000000000000001,18.932199413490153,17.80058651026393
18.95000000000042,69,79,3,0.009000000000000001,18.9323558162272,17.64418377321603
18.95000000000042,60,92,2,0.009000000000000001,18.934389051808825,15.610948191593351
18.96000000000042,38,68,0,0.009000000000000001,18.940635386119677,19.364613880742915
18.96000000000042,60,72,2,0.009000000000000001,18.941260997067868,18.73900293255132
18.96000000000042,71,88,3,0.009000000000000001,18.943763440860636,16.236559139784944
18.96000000000042,50,93,1,0.009000000000000001,18.944545454545874,15.454545454545453
18.97000000000042,59,65,2,0.009000000000000001,18.950166177908535,19.83382209188661
18.97000000000042,45,75,1,0.009000000000000001,18.951730205279013,18.269794721407624
18.97000000000042,70,80,3,0.009000000000000001,18.952512218964255,17.487781036168133
18.97000000000042,38,93,0,0.009000000000000001,18.954545454545876,15.454545454545453
18.980000000000423,35,74,0,0.009000000000000001,18.961573802541967,18.426197458455523
18.980000000000423,60,75,2,0.009000000000000001,18.961730205279014,18.269794721407624
18.980000000000423,46,77,1,0.009000000000000001,18.96204301075311,17.956989247311828
18.980000000000423,73,85,3,0.009000000000000001,18.963294232649496,16.705767350928642
18.990000000000425,49,63,1,0.009000000000000001,18.969853372434443,20.146627565982406
18.990000000000425,62,78,2,0.009000000000000001,18.97219941349016,17.80058651026393
18.990000000000425,37,84,0,0.009000000000000001,18.97313782991245,16.86217008797654
18.990000000000425,71,95,3,0.009000000000000001,18.974858260019975,15.141739980449657
19.000000000000426,51,64,1,0.009000000000000001,18.980009775171492,19.990224828934508
19.000000000000426,72,69,3,0.009000000000000001,18.98079178885673,19.208211143695017
19.000000000000426,56,93,2,0.009000000000000001,18.98454545454588,15.454545454545453
19.000000000000426,37,98,0,0.009000000000000001,18.98532746823112,14.672531769305962
19.010000000000428,50,83,1,0.009000000000000001,18.992981427175405,17.01857282502444
19.010000000000428,60,84,2,0.009000000000000001,18.993137829912452,16.86217008797654
19.010000000000428,72,84,3,0.009000000000000001,18.993137829912452,16.86217008797654
19.010000000000428,37,93,0,0.009000000000000001,18.994545454545882,15.454545454545453
19.02000000000043,72,66,3,0.009000000000000001,19.00032258064559,19.67741935483871
19.02000000000043,34,71,0,0.009000000000000001,19.00110459433083,18.89540566959922
19.02000000000043,64,75,2,0.009000000000000001,19.00173020527902,18.269794721407624
19.02000000000043,48,79,1,0.009000000000000001,19.00235581622721,17.64418377321603
19.03000000000043,34,70,0,0.009000000000000001,19.010948191593783,19.05180840664712
19.03000000000043,71,80,3,0.009000000000000001,19.012512218964265,17.487781036168133
19.03000000000043,51,86,1,0.009000000000000001,19.01345063538655,16.549364613880744
19.03000000000043,59,92,2,0.009000000000000001,19.014389051808838,15.610948191593351
19.040000000000433,33,79,0,0.009000000000000001,19.022355816227215,17.64418377321603
19.040000000000433,62,84,2,0.009000000000000001,19.023137829912457,16.86217008797654
19.040000000000433,72,96,3,0.009000000000000001,19.02501466275703,14.985337243401759
19.040000000000433,50,97,1,0.009000000000000001,19.025171065494078,14.82893450635386
19.050000000000434,36,65,0,0.009000000000000001,19.030166177908548,19.83382209188661
19.050000000000434,72,65,3,0.009000000000000001,19.030166177908548,19.83382209188661
19.050000000000434,60,68,2,0.009000000000000001,19.03063538611969,19.364613880742915
19.050000000000434,44,94,1,0.009000000000000001,19.034701857282936,15.298142717497555
19.060000000000436,71,70,3,0.009000000000000001,19.040948191593788,19.05180840664712
19.060000000000436,49,73,1,0.009000000000000001,19.04141739980493,18.58260019550342
19.060000000000436,35,84,0,0.009000000000000001,19.04313782991246,16.86217008797654
19.060000000000436,61,91,2,0.009000000000000001,19.044232649071795,15.76735092864125
19.070000000000437,36,67,0,0.009000000000000001,19.050478983382646,19.521016617790814
19.070000000000437,60,79,2,0.009000000000000001,19.05235581622722,17.64418377321603
19.070000000000437,48,90,1,0.009000000000000001,19.05407624633475,15.923753665689148
19.070000000000437,72,99,3,0.009000000000000001,19.055483870968178,14.516129032258064
19.08000000000044,62,73,2,0.009000000000000001,19.061417399804935,18.58260019550342
19.08000000000044,48,80,1,0.009000000000000001,19.062512218964272,17.487781036168133
19.08000000000044,72,85,3,0.009000000000000001,19.06329423264951,16.705767350928642
19.08000000000044,36,97,0,0.009000000000000001,19.065171065494084,14.82893450635386
19.09000000000044,44,64,1,0.009000000000000001,19.070009775171506,19.990224828934508
19.09000000000044,37,67,0,0.009000000000000001,19.07047898338265,19.521016617790814
19.09000000000044,61,67,2,0.009000000000000001,19.07047898338265,19.521016617790814
19.09000000000044,73,77,3,0.009000000000000001,19.072043010753127,17.956989247311828
19.100000000000442,39,66,0,0.009000000000000001,19.080322580645603,19.67741935483871
19.100000000000442,72,80,3,0.009000000000000001,19.082512218964276,17.487781036168133
19.100000000000442,48,81,1,0.009000000000000001,19.082668621701323,17.331378299120235
19.100000000000442,61,98,2,0.009000000000000001,19.085327468231135,14.672531769305962
19.110000000000444,53,63,1,0.009000000000000001,19.08985337243446,20.146627565982406
19.110000000000444,31,87,0,0.009000000000000001,19.09360703812361,16.392961876832846
19.110000000000444,63,91,2,0.009000000000000001,19.094232649071802,15.76735092864125
19.110000000000444,71,96,3,0.009000000000000001,19.09501466275704,14.985337243401759
19.120000000000445,32,77,0,0.009000000000000001,19.102043010753132,17.956989247311828
19.120000000000445,45,90,1,0.009000000000000001,19.104076246334756,15.923753665689148
19.120000000000445,62,93,2,0.009000000000000001,19.1045454545459,15.454545454545453
19.120000000000445,75,98,3,0.009000000000000001,19.10532746823114,14.672531769305962
19.130000000000447,72,66,3,0.009000000000000001,19.110322580645608,19.67741935483871
19.130000000000447,59,82,2,0.009000000000000001,19.112825024438376,17.174975562072337
19.130000000000447,44,90,1,0.009000000000000001,19.114076246334758,15.923753665689148
19.130000000000447,37,92,0,0.009000000000000001,19.114389051808853,15.610948191593351
19.140000000000448,57,83,2,0.009000000000000001,19.122981427175425,17.01857282502444
19.140000000000448,45,89,1,0.009000000000000001,19.12391984359771,16.080156402737046
19.140000000000448,73,95,3,0.009000000000000001,19.124858260019998,15.141739980449657
19.140000000000448,36,96,0,0.009000000000000001,19.125014662757046,14.985337243401759
19.15000000000045,35,65,0,0.009000000000000001,19.130166177908563,19.83382209188661
19.15000000000045,72,74,3,0.009000000000000001,19.131573802541993,18.426197458455523
19.15000000000045,44,78,1,0.009000000000000001,19.132199413490184,17.80058651026393
19.15000000000045,57,95,2,0.009000000000000001,19.13485826002,15.141739980449657
19.16000000000045,36,64,0,0.009000000000000001,19.140009775171517,19.990224828934508
19.16000000000045,45,64,1,0.009000000000000001,19.140009775171517,19.990224828934508
19.16000000000045,58,74,2,0.009000000000000001,19.141573802541995,18.426197458455523
19.16000000000045,75,92,3,0.009000000000000001,19.144389051808858,15.610948191593351
19.170000000000453,59,62,2,0.009000000000000001,19.149696969697423,20.303030303030305
19.170000000000453,49,88,1,0.009000000000000001,19.15376344086067,16.236559139784944
19.170000000000453,74,89,3,0.009000000000000001,19.153919843597716,16.080156402737046
19.170000000000453,37,98,0,0.009000000000000001,19.155327468231146,14.672531769305962
19.180000000000454,46,63,1,0.009000000000000001,19.159853372434473,20.146627565982406
19.180000000000454,74,76,3,0.009000000000000001,19.161886608016093,18.113391984359726
19.180000000000454,36,96,0,0.009000000000000001,19.165014662757052,14.985337243401759
19.180000000000454,59,98,2,0.009000000000000001,19.165327468231148,14.672531769305962
19.190000000000456,48,62,1,0.009000000000000001,19.169696969697426,20.303030303030305
19.190000000000456,61,76,2,0.009000000000000001,19.171886608016095,18.113391984359726
19.190000000000456,74,83,3,0.009000000000000001,19.172981427175433,17.01857282502444
19.190000000000456,36,97,0,0.009000000000000001,19.1751710654941,14.82893450635386
19.200000000000458,63,64,2,0.009000000000000001,19.180009775171524,19.990224828934508
19.200000000000458,38,72,0,0.009000000000000001,19.181260997067906,18.73900293255132
19.200000000000458,70,75,3,0.009000000000000001,19.18173020527905,18.269794721407624
19.200000000000458,47,94,1,0.009000000000000001,19.18470185728296,15.298142717497555
19.21000000000046,60,77,2,0.009000000000000001,19.192043010753146,17.956989247311828
19.21000000000046,47,78,1,0.009000000000000001,19.192199413490194,17.80058651026393
19.21000000000046,73,83,3,0.009000000000000001,19.192981427175436,17.01857282502444
19.21000000000046,35,90,0,0.009000000000000001,19.19407624633477,15.923753665689148
19.22000000000046,39,75,0,0.009000000000000001,19.201730205279052,18.269794721407624
19.22000000000046,48,79,1,0.009000000000000001,19.202355816227243,17.64418377321603
19.22000000000046,71,81,3,0.009000000000000001,19.202668621701342,17.331378299120235
19.22000000000046,59,88,2,0.009000000000000001,19.203763440860676,16.236559139784944
19.230000000000462,68,68,3,0.009000000000000001,19.21063538611972,19.364613880742915
19.230000000000462,37,80,0,0.009000000000000001,19.212512218964296,17.487781036168133
19.230000000000462,59,90,2,0.009000000000000001,19.214076246334773,15.923753665689148
19.230000000000462,48,92,1,0.009000000000000001,19.21438905180887,15.610948191593351
19.240000000000464,57,69,2,0.009000000000000001,19.22079178885677,19.208211143695017
19.240000000000464,50,72,1,0.009000000000000001,19.221260997067912,18.73900293255132
19.240000000000464,70,89,3,0.009000000000000001,19.223919843597727,16.080156402737046
19.240000000000464,35,91,0,0.009000000000000001,19.224232649071823,15.76735092864125
19.250000000000465,71,65,3,0.009000000000000001,19.23016617790858,19.83382209188661
19.250000000000465,63,69,2,0.009000000000000001,19.23079178885677,19.208211143695017
19.250000000000465,33,83,0,0.009000000000000001,19.232981427175442,17.01857282502444
19.250000000000465,46,95,1,0.009000000000000001,19.234858260020015,15.141739980449657
19.260000000000467,59,86,2,0.009000000000000001,19.243450635386587,16.549364613880744
19.260000000000467,36,90,0,0.009000000000000001,19.244076246334778,15.923753665689148
19.260000000000467,73,96,3,0.009000000000000001,19.245014662757065,14.985337243401759
19.260000000000467,47,99,1,0.009000000000000001,19.245483870968208,14.516129032258064
19.27000000000047,35,63,0,0.009000000000000001,19.249853372434487,20.146627565982406
19.27000000000047,46,67,1,0.009000000000000001,19.250478983382678,19.521016617790814
19.27000000000047,70,71,3,0.009000000000000001,19.25110459433087,18.89540566959922
19.27000000000047,64,96,2,0.009000000000000001,19.255014662757066,14.985337243401759
19.28000000000047,47,67,1,0.009000000000000001,19.26047898338268,19.521016617790814
19.28000000000047,36,81,0,0.009000000000000001,19.26266862170135,17.331378299120235
19.28000000000047,58,87,2,0.009000000000000001,19.263607038123638,16.392961876832846
19.28000000000047,71,94,3,0.009000000000000001,19.264701857282972,15.298142717497555
19.29000000000047,60,63,2,0.009000000000000001,19.26985337243449,20.146627565982406
19.29000000000047,36,76,0,0.009000000000000001,19.27188660801611,18.113391984359726
19.29000000000047,73,81,3,0.009000000000000001,19.272668621701353,17.331378299120235
19.29000000000047,46,87,1,0.009000000000000001,19.27360703812364,16.392961876832846
19.300000000000473,64,70,2,0.009000000000000001,19.280948191593826,19.05180840664712
19.300000000000473,37,79,0,0.009000000000000001,19.282355816227255,17.64418377321603
19.300000000000473,69,90,3,0.009000000000000001,19.284076246334784,15.923753665689148
19.300000000000473,49,98,1,0.009000000000000001,19.285327468231166,14.672531769305962
19.310000000000475,61,67,2,0.009000000000000001,19.290478983382684,19.521016617790814
19.310000000000475,52,74,1,0.009000000000000001,19.29157380254202,18.426197458455523
19.310000000000475,76,77,3,0.009000000000000001,19.29204301075316,17.956989247311828
19.310000000000475,35,95,0,0.009000000000000001,19.294858260020025,15.141739980449657
19.320000000000476,74,71,3,0.009000000000000001,19.301104594330877,18.89540566959922
19.320000000000476,37,73,0,0.009000000000000001,19.301417399804972,18.58260019550342
19.320000000000476,61,85,2,0.009000000000000001,19.30329423264955,16.705767350928642
19.320000000000476,44,88,1,0.009000000000000001,19.303763440860692,16.236559139784944
19.330000000000478,61,68,2,0.009000000000000001,19.310635386119735,19.364613880742915
19.330000000000478,43,71,1,0.009000000000000001,19.311104594330878,18.89540566959922
19.330000000000478,40,80,0,0.009000000000000001,19.31251221896431,17.487781036168133
19.330000000000478,75,91,3,0.009000000000000001,19.314232649071837,15.76735092864125
19.34000000000048,61,84,2,0.009000000000000001,19.323137829912504,16.86217008797654
19.34000000000048,66,84,3,0.009000000000000001,19.323137829912504,16.86217008797654
19.34000000000048,35,91,0,0.009000000000000001,19.32423264907184,15.76735092864125
19.34000000000048,46,99,1,0.009000000000000001,19.32548387096822,14.516129032258064
19.35000000000048,62,79,2,0.009000000000000001,19.332355816227263,17.64418377321603
19.35000000000048,32,85,0,0.009000000000000001,19.333294232649553,16.705767350928642
19.35000000000048,70,94,3,0.009000000000000001,19.334701857282983,15.298142717497555
19.35000000000048,49,98,1,0.009000000000000001,19.335327468231174,14.672531769305962
19.360000000000483,37,64,0,0.009000000000000001,19.34000977517155,19.990224828934508
19.360000000000483,69,76,3,0.009000000000000001,19.34188660801612,18.113391984359726
19.360000000000483,49,77,1,0.009000000000000001,19.34204301075317,17.956989247311828
19.360000000000483,59,93,2,0.009000000000000001,19.344545454545937,15.454545454545453
19.370000000000484,36,69,0,0.009000000000000001,19.35079178885679,19.208211143695017
19.370000000000484,69,69,3,0.009000000000000001,19.35079178885679,19.208211143695017
19.370000000000484,59,70,2,0.009000000000000001,19.350948191593837,19.05180840664712
19.370000000000484,47,82,1,0.009000000000000001,19.352825024438413,17.174975562072337
19.380000000000486,71,66,3,0.009000000000000001,19.360322580645647,19.67741935483871
19.380000000000486,58,85,2,0.009000000000000001,19.363294232649558,16.705767350928642
19.380000000000486,34,86,0,0.009000000000000001,19.363450635386606,16.549364613880744
19.380000000000486,49,95,1,0.009000000000000001,19.364858260020036,15.141739980449657
19.390000000000487,63,64,2,0.009000000000000001,19.370009775171553,19.990224828934508
19.390000000000487,49,79,1,0.009000000000000001,19.37235581622727,17.64418377321603
19.390000000000487,75,88,3,0.009000000000000001,19.373763440860703,16.236559139784944
19.390000000000487,39,96,0,0.009000000000000001,19.375014662757085,14.985337243401759
19.40000000000049,57,66,2,0.009000000000000001,19.38032258064565,19.67741935483871
19.40000000000049,36,68,0,0.009000000000000001,19.380635386119746,19.364613880742915
19.40000000000049,72,76,3,0.009000000000000001,19.381886608016128,18.113391984359726
19.40000000000049,50,81,1,0.009000000000000001,19.38266862170137,17.331378299120235
19.41000000000049,58,63,2,0.009000000000000001,19.38985337243451,20.146627565982406
19.41000000000049,70,85,3,0.009000000000000001,19.393294232649563,16.705767350928642
19.41000000000049,51,88,1,0.009000000000000001,19.393763440860706,16.236559139784944
19.41000000000049,36,90,0,0.009000000000000001,19.3940762463348,15.923753665689148
19.420000000000492,55,65,2,0.009000000000000001,19.400166177908606,19.83382209188661
19.420000000000492,73,65,3,0.009000000000000001,19.400166177908606,19.83382209188661
19.420000000000492,39,77,0,0.009000000000000001,19.40204301075318,17.956989247311828
19.420000000000492,47,81,1,0.009000000000000001,19.402668621701373,17.331378299120235
19.430000000000494,36,62,0,0.009000000000000001,19.409696969697464,20.303030303030305
19.430000000000494,59,69,2,0.009000000000000001,19.4107917888568,19.208211143695017
19.430000000000494,47,78,1,0.009000000000000001,19.412199413490228,17.80058651026393
19.430000000000494,69,98,3,0.009000000000000001,19.415327468231187,14.672531769305962
19.440000000000495,71,73,3,0.009000000000000001,19.42141739980499,18.58260019550342
19.440000000000495,37,76,0,0.009000000000000001,19.421886608016134,18.113391984359726
19.440000000000495,52,76,1,0.009000000000000001,19.421886608016134,18.113391984359726
19.440000000000495,59,97,2,0.009000000000000001,19.42517106549414,14.82893450635386
19.450000000000497,49,74,1,0.009000000000000001,19.43157380254204,18.426197458455523
19.450000000000497,56,75,2,0.009000000000000001,19.431730205279088,18.269794721407624
19.450000000000497,35,82,0,0.009000000000000001,19.432825024438426,17.174975562072337
19.450000000000497,73,97,3,0.009000000000000001,19.435171065494142,14.82893450635386
19.4600000000005,33,76,0,0.009000000000000001,19.441886608016137,18.113391984359726
19.4600000000005,62,80,2,0.009000000000000001,19.442512218964332,17.487781036168133
19.4600000000005,72,84,3,0.009000000000000001,19.443137829912523,16.86217008797654
19.4600000000005,46,93,1,0.009000000000000001,19.444545454545953,15.454545454545453
19.4700000000005,68,71,3,0.009000000000000001,19.4511045943309,18.89540566959922
19.4700000000005,58,73,2,0.009000000000000001,19.451417399804996,18.58260019550342
19.4700000000005,51,91,1,0.009000000000000001,19.45423264907186,15.76735092864125
19.4700000000005,35,99,0,0.009000000000000001,19.45548387096824,14.516129032258064
19.4800000000005,33,83,0,0.009000000000000001,19.462981427175478,17.01857282502444
19.4800000000005,48,89,1,0.009000000000000001,19.463919843597765,16.080156402737046
19.4800000000005,63,93,2,0.009000000000000001,19.464545454545956,15.454545454545453
19.4800000000005,75,95,3,0.009000000000000001,19.46485826002005,15.141739980449657
19.490000000000503,45,70,1,0.009000000000000001,19.470948191593855,19.05180840664712
19.490000000000503,40,72,0,0.009000000000000001,19.47126099706795,18.73900293255132
19.490000000000503,59,75,2,0.009000000000000001,19.471730205279094,18.269794721407624
19.490000000000503,73,84,3,0.009000000000000001,19.473137829912528,16.86217008797654
19.500000000000504,39,66,0,0.009000000000000001,19.480322580645666,19.67741935483871
19.500000000000504,59,84,2,0.009000000000000001,19.48313782991253,16.86217008797654
19.500000000000504,72,86,3,0.009000000000000001,19.483450635386625,16.549364613880744
19.500000000000504,48,89,1,0.009000000000000001,19.483919843597768,16.080156402737046
19.510000000000506,59,64,2,0.009000000000000001,19.490009775171572,19.990224828934508
19.510000000000506,36,72,0,0.009000000000000001,19.491260997067954,18.73900293255132
19.510000000000506,44,85,1,0.009000000000000001,19.49329423264958,16.705767350928642
19.510000000000506,73,98,3,0.009000000000000001,19.4953274682312,14.672531769305962
19.520000000000508,59,71,2,0.009000000000000001,19.501104594330908,18.89540566959922
19.520000000000508,68,95,3,0.009000000000000001,19.504858260020058,15.141739980449657
19.520000000000508,37,97,0,0.009000000000000001,19.505171065494153,14.82893450635386
19.520000000000508,48,99,1,0.009000000000000001,19.50548387096825,14.516129032258064
19.53000000000051,47,71,1,0.009000000000000001,19.51110459433091,18.89540566959922
19.53000000000051,34,78,0,0.009000000000000001,19.512199413490244,17.80058651026393
19.53000000000051,60,81,2,0.009000000000000001,19.51266862170139,17.331378299120235
19.53000000000051,72,87,3,0.009000000000000001,19.513607038123677,16.392961876832846
19.54000000000051,35,67,0,0.009000000000000001,19.52047898338272,19.521016617790814
19.54000000000051,50,72,1,0.009000000000000001,19.52126099706796,18.73900293255132
19.54000000000051,71,90,3,0.009000000000000001,19.524076246334822,15.923753665689148
19.54000000000051,61,93,2,0.009000000000000001,19.524545454545965,15.454545454545453
19.550000000000512,36,76,0,0.009000000000000001,19.53188660801615,18.113391984359726
19.550000000000512,47,77,1,0.009000000000000001,19.5320430107532,17.956989247311828
19.550000000000512,57,78,2,0.009000000000000001,19.532199413490247,17.80058651026393
19.550000000000512,72,78,3,0.009000000000000001,19.532199413490247,17.80058651026393
19.560000000000514,61,68,2,0.009000000000000001,19.54063538611977,19.364613880742915
19.560000000000514,38,69,0,0.009000000000000001,19.54079178885682,19.208211143695017
19.560000000000514,70,71,3,0.009000000000000001,19.541104594330914,18.89540566959922
19.560000000000514,47,98,1,0.009000000000000001,19.545327468231207,14.672531769305962
19.570000000000515,38,67,0,0.009000000000000001,19.550478983382725,19.521016617790814
19.570000000000515,63,70,2,0.009000000000000001,19.550948191593868,19.05180840664712
19.570000000000515,70,81,3,0.009000000000000001,19.552668621701397,17.331378299120235
19.570000000000515,51,94,1,0.009000000000000001,19.554701857283018,15.298142717497555
19.580000000000517,35,79,0,0.009000000000000001,19.5623558162273,17.64418377321603
19.580000000000517,62,79,2,0.009000000000000001,19.5623558162273,17.64418377321603
19.580000000000517,70,83,3,0.009000000000000001,19.562981427175494,17.01857282502444
19.580000000000517,50,96,1,0.009000000000000001,19.565014662757115,14.985337243401759
19.59000000000052,37,66,0,0.009000000000000001,19.57032258064568,19.67741935483871
19.59000000000052,48,67,1,0.009000000000000001,19.570478983382728,19.521016617790814
19.59000000000052,60,85,2,0.009000000000000001,19.57329423264959,16.705767350928642
19.59000000000052,68,90,3,0.009000000000000001,19.57407624633483,15.923753665689148
19.60000000000052,70,79,3,0.009000000000000001,19.582355816227302,17.64418377321603
19.60000000000052,36,81,0,0.009000000000000001,19.5826686217014,17.331378299120235
19.60000000000052,61,86,2,0.009000000000000001,19.58345063538664,16.549364613880744
19.60000000000052,47,99,1,0.009000000000000001,19.58548387096826,14.516129032258064
19.61000000000052,37,78,0,0.009000000000000001,19.592199413490256,17.80058651026393
19.61000000000052,70,83,3,0.009000000000000001,19.5929814271755,17.01857282502444
19.61000000000052,61,91,2,0.009000000000000001,19.59423264907188,15.76735092864125
19.61000000000052,49,92,1,0.009000000000000001,19.59438905180893,15.610948191593351
19.620000000000523,36,69,0,0.009000000000000001,19.600791788856828,19.208211143695017
19.620000000000523,72,70,3,0.009000000000000001,19.600948191593876,19.05180840664712
19.620000000000523,61,75,2,0.009000000000000001,19.601730205279114,18.269794721407624
19.620000000000523,48,95,1,0.009000000000000001,19.604858260020073,15.141739980449657
19.630000000000525,38,69,0,0.009000000000000001,19.61079178885683,19.208211143695017
19.630000000000525,74,74,3,0.009000000000000001,19.61157380254207,18.426197458455523
19.630000000000525,45,93,1,0.009000000000000001,19.61454545454598,15.454545454545453
19.630000000000525,60,93,2,0.009000000000000001,19.61454545454598,15.454545454545453
19.640000000000526,69,70,3,0.009000000000000001,19.62094819159388,19.05180840664712
19.640000000000526,38,82,0,0.009000000000000001,19.622825024438455,17.174975562072337
19.640000000000526,48,84,1,0.009000000000000001,19.62313782991255,16.86217008797654
19.640000000000526,61,89,2,0.009000000000000001,19.62391984359779,16.080156402737046
19.650000000000528,63,63,2,0.009000000000000001,19.629853372434546,20.146627565982406
19.650000000000528,48,65,1,0.009000000000000001,19.63016617790864,19.83382209188661
19.650000000000528,73,73,3,0.009000000000000001,19.631417399805024,18.58260019550342
19.650000000000528,32,82,0,0.009000000000000001,19.632825024438457,17.174975562072337
19.66000000000053,58,68,2,0.009000000000000001,19.640635386119786,19.364613880742915
19.66000000000053,36,77,0,0.009000000000000001,19.642043010753216,17.956989247311828
19.66000000000053,68,90,3,0.009000000000000001,19.64407624633484,15.923753665689148
19.66000000000053,44,96,1,0.009000000000000001,19.645014662757127,14.985337243401759
19.67000000000053,37,72,0,0.009000000000000001,19.65126099706798,18.73900293255132
19.67000000000053,46,74,1,0.009000000000000001,19.651573802542075,18.426197458455523
19.67000000000053,61,87,2,0.009000000000000001,19.6536070381237,16.392961876832846
19.67000000000053,70,92,3,0.009000000000000001,19.654389051808938,15.610948191593351
19.680000000000533,60,71,2,0.009000000000000001,19.661104594330933,18.89540566959922
19.680000000000533,38,72,0,0.009000000000000001,19.66126099706798,18.73900293255132
19.680000000000533,71,72,3,0.009000000000000001,19.66126099706798,18.73900293255132
19.680000000000533,47,84,1,0.009000000000000001,19.663137829912557,16.86217008797654
19.690000000000534,70,77,3,0.009000000000000001,19.67204301075322,17.956989247311828
19.690000000000534,48,82,1,0.009000000000000001,19.672825024438463,17.174975562072337
19.690000000000534,61,90,2,0.009000000000000001,19.674076246334845,15.923753665689148
19.690000000000534,36,99,0,0.009000000000000001,19.675483870968275,14.516129032258064
19.700000000000536,35,72,0,0.009000000000000001,19.681260997067984,18.73900293255132
19.700000000000536,72,90,3,0.009000000000000001,19.684076246334847,15.923753665689148
19.700000000000536,60,92,2,0.009000000000000001,19.684389051808942,15.610948191593351
19.700000000000536,47,99,1,0.009000000000000001,19.685483870968277,14.516129032258064
19.710000000000537,46,84,1,0.009000000000000001,19.693137829912562,16.86217008797654
19.710000000000537,36,96,0,0.009000000000000001,19.695014662757135,14.985337243401759
19.710000000000537,60,97,2,0.009000000000000001,19.695171065494183,14.82893450635386
19.710000000000537,72,99,3,0.009000000000000001,19.69548387096828,14.516129032258064
19.72000000000054,35,85,0,0.009000000000000001,19.70329423264961,16.705767350928642
19.72000000000054,71,90,3,0.009000000000000001,19.70407624633485,15.923753665689148
19.72000000000054,61,92,2,0.009000000000000001,19.704389051808946,15.610948191593351
19.72000000000054,49,96,1,0.009000000000000001,19.705014662757137,14.985337243401759
19.73000000000054,35,68,0,0.009000000000000001,19.710635386119797,19.364613880742915
19.73000000000054,49,75,1,0.009000000000000001,19.71173020527913,18.269794721407624
19.73000000000054,60,75,2,0.009000000000000001,19.71173020527913,18.269794721407624
19.73000000000054,72,93,3,0.009000000000000001,19.714545454545995,15.454545454545453
19.740000000000542,39,84,0,0.009000000000000001,19.723137829912567,16.86217008797654
19.740000000000542,57,87,2,0.009000000000000001,19.72360703812371,16.392961876832846
19.740000000000542,48,89,1,0.009000000000000001,19.723919843597805,16.080156402737046
19.740000000000542,68,97,3,0.009000000000000001,19.725171065494187,14.82893450635386
19.750000000000544,50,64,1,0.009000000000000001,19.73000977517161,19.990224828934508
19.750000000000544,71,64,3,0.009000000000000001,19.73000977517161,19.990224828934508
19.750000000000544,39,71,0,0.009000000000000001,19.731104594330944,18.89540566959922
19.750000000000544,58,95,2,0.009000000000000001,19.734858260020093,15.141739980449657
19.760000000000545,48,66,1,0.009000000000000001,19.740322580645707,19.67741935483871
19.760000000000545,72,67,3,0.009000000000000001,19.740478983382754,19.521016617790814
19.760000000000545,37,73,0,0.009000000000000001,19.74141739980504,18.58260019550342
19.760000000000545,60,88,2,0.009000000000000001,19.74376344086076,16.236559139784944
19.770000000000547,71,64,3,0.009000000000000001,19.750009775171613,19.990224828934508
19.770000000000547,35,75,0,0.009000000000000001,19.751730205279138,18.269794721407624
19.770000000000547,50,81,1,0.009000000000000001,19.752668621701428,17.331378299120235
19.770000000000547,58,93,2,0.009000000000000001,19.754545454546,15.454545454545453
19.78000000000055,35,64,0,0.009000000000000001,19.760009775171614,19.990224828934508
19.78000000000055,63,82,2,0.009000000000000001,19.762825024438477,17.174975562072337
19.78000000000055,70,84,3,0.009000000000000001,19.763137829912573,16.86217008797654
19.78000000000055,44,89,1,0.009000000000000001,19.76391984359781,16.080156402737046
19.79000000000055,61,69,2,0.009000000000000001,19.770791788856855,19.208211143695017
19.79000000000055,36,76,0,0.009000000000000001,19.77188660801619,18.113391984359726
19.79000000000055,50,84,1,0.009000000000000001,19.773137829912574,16.86217008797654
19.79000000000055,71,85,3,0.009000000000000001,19.773294232649622,16.705767350928642
19.80000000000055,48,64,1,0.009000000000000001,19.780009775171617,19.990224828934508
19.80000000000055,33,73,0,0.009000000000000001,19.781417399805047,18.58260019550342
19.80000000000055,59,93,2,0.009000000000000001,19.784545454546006,15.454545454545453
19.80000000000055,72,93,3,0.009000000000000001,19.784545454546006,15.454545454545453
19.810000000000553,59,67,2,0.009000000000000001,19.790478983382762,19.521016617790814
19.810000000000553,48,86,1,0.009000000000000001,19.793450635386673,16.549364613880744
19.810000000000553,71,88,3,0.009000000000000001,19.79376344086077,16.236559139784944
19.810000000000553,36,89,0,0.009000000000000001,19.793919843597816,16.080156402737046
19.820000000000555,72,69,3,0.009000000000000001,19.80079178885686,19.208211143695017
19.820000000000555,36,92,0,0.009000000000000001,19.80438905180896,15.610948191593351
19.820000000000555,58,93,2,0.009000000000000001,19.80454545454601,15.454545454545453
19.820000000000555,46,95,1,0.009000000000000001,19.804858260020104,15.141739980449657
19.830000000000556,32,71,0,0.009000000000000001,19.811104594330956,18.89540566959922
19.830000000000556,56,85,2,0.009000000000000001,19.81329423264963,16.705767350928642
19.830000000000556,48,94,1,0.009000000000000001,19.814701857283058,15.298142717497555
19.830000000000556,69,96,3,0.009000000000000001,19.815014662757154,14.985337243401759
19.840000000000558,33,76,0,0.009000000000000001,19.821886608016197,18.113391984359726
19.840000000000558,72,83,3,0.009000000000000001,19.822981427175534,17.01857282502444
19.840000000000558,60,91,2,0.009000000000000001,19.824232649071917,15.76735092864125
19.840000000000558,50,92,1,0.009000000000000001,19.824389051808964,15.610948191593351
19.85000000000056,72,67,3,0.009000000000000001,19.83047898338277,19.521016617790814
19.85000000000056,49,68,1,0.009000000000000001,19.830635386119816,19.364613880742915
19.85000000000056,60,72,2,0.009000000000000001,19.831260997068007,18.73900293255132
19.85000000000056,34,90,0,0.009000000000000001,19.83407624633487,15.923753665689148
19.86000000000056,48,75,1,0.009000000000000001,19.841730205279152,18.269794721407624
19.86000000000056,73,75,3,0.009000000000000001,19.841730205279152,18.269794721407624
19.86000000000056,34,80,0,0.009000000000000001,19.842512218964394,17.487781036168133
19.86000000000056,56,93,2,0.009000000000000001,19.844545454546015,15.454545454545453
19.870000000000562,64,71,2,0.009000000000000001,19.851104594330963,18.89540566959922
19.870000000000562,46,72,1,0.009000000000000001,19.85126099706801,18.73900293255132
19.870000000000562,73,86,3,0.009000000000000001,19.853450635386682,16.549364613880744
19.870000000000562,37,88,0,0.009000000000000001,19.853763440860778,16.236559139784944
19.880000000000564,37,69,0,0.009000000000000001,19.86079178885687,19.208211143695017
19.880000000000564,59,74,2,0.009000000000000001,19.861573802542107,18.426197458455523
19.880000000000564,50,83,1,0.009000000000000001,19.86298142717554,17.01857282502444
19.880000000000564,72,90,3,0.009000000000000001,19.864076246334875,15.923753665689148
19.890000000000565,48,64,1,0.009000000000000001,19.87000977517163,19.990224828934508
19.890000000000565,60,80,2,0.009000000000000001,19.8725122189644,17.487781036168133
19.890000000000565,71,88,3,0.009000000000000001,19.87376344086078,16.236559139784944
19.890000000000565,38,95,0,0.009000000000000001,19.874858260020115,15.141739980449657
19.900000000000567,69,67,3,0.009000000000000001,19.880478983382776,19.521016617790814
19.900000000000567,49,69,1,0.009000000000000001,19.88079178885687,19.208211143695017
19.900000000000567,61,76,2,0.009000000000000001,19.881886608016206,18.113391984359726
19.900000000000567,34,83,0,0.009000000000000001,19.882981427175544,17.01857282502444
19.91000000000057,71,65,3,0.009000000000000001,19.890166177908682,19.83382209188661
19.91000000000057,57,69,2,0.009000000000000001,19.890791788856873,19.208211143695017
19.91000000000057,33,94,0,0.009000000000000001,19.89470185728307,15.298142717497555
19.91000000000057,46,96,1,0.009000000000000001,19.895014662757166,14.985337243401759
19.92000000000057,38,70,0,0.009000000000000001,19.900948191593923,19.05180840664712
19.92000000000057,59,84,2,0.009000000000000001,19.903137829912595,16.86217008797654
19.92000000000057,46,87,1,0.009000000000000001,19.903607038123738,16.392961876832846
19.92000000000057,70,93,3,0.009000000000000001,19.904545454546025,15.454545454545453
19.93000000000057,37,75,0,0.009000000000000001,19.911730205279163,18.269794721407624
19.93000000000057,60,80,2,0.009000000000000001,19.912512218964405,17.487781036168133
19.93000000000057,71,80,3,0.009000000000000001,19.912512218964405,17.487781036168133
19.93000000000057,44,92,1,0.009000000000000001,19.91438905180898,15.610948191593351
19.940000000000573,49,81,1,0.009000000000000001,19.922668621701455,17.331378299120235
19.940000000000573,56,93,2,0.009000000000000001,19.924545454546028,15.454545454545453
19.940000000000573,72,97,3,0.009000000000000001,19.92517106549422,14.82893450635386
19.940000000000573,36,98,0,0.009000000000000001,19.925327468231266,14.672531769305962
19.950000000000575,49,74,1,0.009000000000000001,19.93157380254212,18.426197458455523
19.950000000000575,59,86,2,0.009000000000000001,19.933450635386695,16.549364613880744
19.950000000000575,34,90,0,0.009000000000000001,19.934076246334886,15.923753665689148
19.950000000000575,74,94,3,0.009000000000000001,19.934701857283077,15.298142717497555
19.960000000000576,36,78,0,0.009000000000000001,19.94219941349031,17.80058651026393
19.960000000000576,48,81,1,0.009000000000000001,19.942668621701458,17.331378299120235
19.960000000000576,61,91,2,0.009000000000000001,19.944232649071935,15.76735092864125
19.960000000000576,73,96,3,0.009000000000000001,19.945014662757174,14.985337243401759
19.970000000000578,34,65,0,0.009000000000000001,19.95016617790869,19.83382209188661
19.970000000000578,61,69,2,0.009000000000000001,19.950791788856883,19.208211143695017
19.970000000000578,48,76,1,0.009000000000000001,19.951886608016217,18.113391984359726
19.970000000000578,69,82,3,0.009000000000000001,19.952825024438507,17.174975562072337
19.98000000000058,47,64,1,0.009000000000000001,19.960009775171645,19.990224828934508
19.98000000000058,37,74,0,0.009000000000000001,19.961573802542123,18.426197458455523
19.98000000000058,62,81,2,0.009000000000000001,19.96266862170146,17.331378299120235
19.98000000000058,74,83,3,0.009000000000000001,19.962981427175556,17.01857282502444
19.99000000000058,73,72,3,0.009000000000000001,19.97126099706803,18.73900293255132
19.99000000000058,50,77,1,0.009000000000000001,19.972043010753268,17.956989247311828
19.99000000000058,60,85,2,0.009000000000000001,19.973294232649653,16.705767350928642
19.99000000000058,36,87,0,0.009000000000000001,19.97360703812375,16.392961876832846
20.000000000000583,46,76,1,0.009000000000000001,19.98188660801622,18.113391984359726
20.000000000000583,33,82,0,0.009000000000000001,19.98282502443851,17.174975562072337
20.000000000000583,71,83,3,0.009000000000000001,19.98298142717556,17.01857282502444
20.000000000000583,59,93,2,0.009000000000000001,19.984545454546037,15.454545454545453
20.010000000000584,73,64,3,0.009000000000000001,19.99000977517165,19.990224828934508
20.010000000000584,56,70,2,0.009000000000000001,19.990948191593937,19.05180840664712
20.010000000000584,35,86,0,0.009000000000000001,19.993450635386704,16.549364613880744
20.010000000000584,49,97,1,0.009000000000000001,19.99517106549423,14.82893450635386
20.020000000000586,33,65,0,0.009000000000000001,20.0001661779087,19.83382209188661
20.020000000000586,61,65,2,0.009000000000000001,20.0001661779087,19.83382209188661
20.020000000000586,71,74,3,0.009000000000000001,20.00157380254213,18.426197458455523
20.020000000000586,47,79,1,0.009000000000000001,20.002355816227368,17.64418377321603
20.030000000000587,43,76,1,0.009000000000000001,20.011886608016226,18.113391984359726
20.030000000000587,35,87,0,0.009000000000000001,20.013607038123755,16.392961876832846
20.030000000000587,62,87,2,0.009000000000000001,20.013607038123755,16.392961876832846
20.030000000000587,74,96,3,0.009000000000000001,20.015014662757185,14.985337243401759
20.04000000000059,57,78,2,0.009000000000000001,20.022199413490323,17.80058651026393
20.04000000000059,47,80,1,0.009000000000000001,20.022512218964422,17.487781036168133
20.04000000000059,70,80,3,0.009000000000000001,20.022512218964422,17.487781036168133
20.04000000000059,37,93,0,0.009000000000000001,20.024545454546043,15.454545454545453
20.05000000000059,59,67,2,0.009000000000000001,20.0304789833828,19.521016617790814
20.05000000000059,46,70,1,0.009000000000000001,20.030948191593943,19.05180840664712
20.05000000000059,35,78,0,0.009000000000000001,20.032199413490325,17.80058651026393
20.05000000000059,71,90,3,0.009000000000000001,20.0340762463349,15.923753665689148
20.060000000000592,32,65,0,0.009000000000000001,20.040166177908706,19.83382209188661
20.060000000000592,47,71,1,0.009000000000000001,20.041104594330992,18.89540566959922
20.060000000000592,76,88,3,0.009000000000000001,20.043763440860808,16.236559139784944
20.060000000000592,57,92,2,0.009000000000000001,20.044389051809,15.610948191593351
20.070000000000594,34,62,0,0.009000000000000001,20.049696969697564,20.303030303030305
20.070000000000594,50,66,1,0.009000000000000001,20.050322580645755,19.67741935483871
20.070000000000594,59,74,2,0.009000000000000001,20.051573802542137,18.426197458455523
20.070000000000594,72,74,3,0.009000000000000001,20.051573802542137,18.426197458455523
20.080000000000595,34,89,0,0.009000000000000001,20.06391984359786,16.080156402737046
20.080000000000595,46,89,1,0.009000000000000001,20.06391984359786,16.080156402737046
20.080000000000595,57,89,2,0.009000000000000001,20.06391984359786,16.080156402737046
20.080000000000595,67,96,3,0.009000000000000001,20.065014662757193,14.985337243401759
20.090000000000597,34,68,0,0.009000000000000001,20.070635386119854,19.364613880742915
20.090000000000597,56,85,2,0.009000000000000001,20.07329423264967,16.705767350928642
20.090000000000597,72,97,3,0.009000000000000001,20.075171065494242,14.82893450635386
20.090000000000597,53,99,1,0.009000000000000001,20.075483870968338,14.516129032258064
20.1000000000006,61,77,2,0.009000000000000001,20.082043010753285,17.956989247311828
20.1000000000006,49,78,1,0.009000000000000001,20.082199413490333,17.80058651026393
20.1000000000006,38,79,0,0.009000000000000001,20.08235581622738,17.64418377321603
20.1000000000006,76,86,3,0.009000000000000001,20.08345063538672,16.549364613880744
20.1100000000006,37,66,0,0.009000000000000001,20.09032258064576,19.67741935483871
20.1100000000006,59,66,2,0.009000000000000001,20.09032258064576,19.67741935483871
20.1100000000006,46,77,1,0.009000000000000001,20.092043010753287,17.956989247311828
20.1100000000006,75,88,3,0.009000000000000001,20.093763440860815,16.236559139784944
20.1200000000006,74,63,3,0.009000000000000001,20.09985337243462,20.146627565982406
20.1200000000006,46,66,1,0.009000000000000001,20.100322580645763,19.67741935483871
20.1200000000006,36,76,0,0.009000000000000001,20.10188660801624,18.113391984359726
20.1200000000006,59,93,2,0.009000000000000001,20.104545454546056,15.454545454545453
20.130000000000603,45,79,1,0.009000000000000001,20.112355816227385,17.64418377321603
20.130000000000603,57,81,2,0.009000000000000001,20.112668621701484,17.331378299120235
20.130000000000603,36,90,0,0.009000000000000001,20.114076246334914,15.923753665689148
20.130000000000603,70,92,3,0.009000000000000001,20.11438905180901,15.610948191593351
20.140000000000605,61,66,2,0.009000000000000001,20.120322580645766,19.67741935483871
20.140000000000605,44,79,1,0.009000000000000001,20.122355816227387,17.64418377321603
20.140000000000605,73,85,3,0.009000000000000001,20.123294232649677,16.705767350928642
20.140000000000605,36,93,0,0.009000000000000001,20.12454545454606,15.454545454545453
20.150000000000606,49,80,1,0.009000000000000001,20.13251221896444,17.487781036168133
20.150000000000606,60,80,2,0.009000000000000001,20.13251221896444,17.487781036168133
20.150000000000606,72,84,3,0.009000000000000001,20.13313782991263,16.86217008797654
20.150000000000606,35,97,0,0.009000000000000001,20.13517106549425,14.82893450635386
20.160000000000608,36,73,0,0.009000000000000001,20.141417399805103,18.58260019550342
20.160000000000608,62,81,2,0.009000000000000001,20.14266862170149,17.331378299120235
20.160000000000608,71,91,3,0.009000000000000001,20.144232649071967,15.76735092864125
20.160000000000608,49,97,1,0.009000000000000001,20.145171065494253,14.82893450635386
20.17000000000061,33,70,0,0.009000000000000001,20.15094819159396,19.05180840664712
20.17000000000061,57,75,2,0.009000000000000001,20.1517302052792,18.269794721407624
20.17000000000061,69,81,3,0.009000000000000001,20.15266862170149,17.331378299120235
20.17000000000061,51,82,1,0.009000000000000001,20.15282502443854,17.174975562072337
20.18000000000061,49,75,1,0.009000000000000001,20.161730205279202,18.269794721407624
20.18000000000061,34,78,0,0.009000000000000001,20.162199413490345,17.80058651026393
20.18000000000061,69,79,3,0.009000000000000001,20.162355816227393,17.64418377321603
20.18000000000061,59,90,2,0.009000000000000001,20.164076246334922,15.923753665689148
20.190000000000612,52,68,1,0.009000000000000001,20.17063538611987,19.364613880742915
20.190000000000612,71,75,3,0.009000000000000001,20.171730205279204,18.269794721407624
20.190000000000612,59,93,2,0.009000000000000001,20.174545454546067,15.454545454545453
20.190000000000612,39,94,0,0.009000000000000001,20.174701857283114,15.298142717497555
20.200000000000614,47,74,1,0.009000000000000001,20.181573802542157,18.426197458455523
20.200000000000614,61,85,2,0.009000000000000001,20.183294232649686,16.705767350928642
20.200000000000614,72,89,3,0.009000000000000001,20.183919843597877,16.080156402737046
20.200000000000614,36,93,0,0.009000000000000001,20.18454545454607,15.454545454545453
20.210000000000615,48,64,1,0.009000000000000001,20.19000977517168,19.990224828934508
20.210000000000615,32,67,0,0.009000000000000001,20.190478983382825,19.521016617790814
20.210000000000615,71,76,3,0.009000000000000001,20.191886608016254,18.113391984359726
20.210000000000615,62,77,2,0.009000000000000001,20.192043010753302,17.956989247311828
20.220000000000617,58,83,2,0.009000000000000001,20.202981427175594,17.01857282502444
20.220000000000617,71,83,3,0.009000000000000001,20.202981427175594,17.01857282502444
20.220000000000617,38,91,0,0.009000000000000001,20.204232649071976,15.76735092864125
20.220000000000617,48,95,1,0.009000000000000001,20.204858260020167,15.141739980449657
20.23000000000062,60,84,2,0.009000000000000001,20.213137829912643,16.86217008797654
20.23000000000062,51,86,1,0.009000000000000001,20.21345063538674,16.549364613880744
20.23000000000062,68,86,3,0.009000000000000001,20.21345063538674,16.549364613880744
20.23000000000062,36,95,0,0.009000000000000001,20.21485826002017,15.141739980449657
20.24000000000062,62,76,2,0.009000000000000001,20.22188660801626,18.113391984359726
20.24000000000062,72,82,3,0.009000000000000001,20.22282502443855,17.174975562072337
20.24000000000062,36,91,0,0.009000000000000001,20.22423264907198,15.76735092864125
20.24000000000062,49,96,1,0.009000000000000001,20.225014662757218,14.985337243401759
20.25000000000062,70,67,3,0.009000000000000001,20.23047898338283,19.521016617790814
20.25000000000062,59,74,2,0.009000000000000001,20.231573802542165,18.426197458455523
20.25000000000062,48,76,1,0.009000000000000001,20.23188660801626,18.113391984359726
20.25000000000062,33,78,0,0.009000000000000001,20.232199413490356,17.80058651026393
20.260000000000623,59,76,2,0.009000000000000001,20.241886608016262,18.113391984359726
20.260000000000623,44,83,1,0.009000000000000001,20.2429814271756,17.01857282502444
20.260000000000623,72,87,3,0.009000000000000001,20.24360703812379,16.392961876832846
20.260000000000623,37,97,0,0.009000000000000001,20.24517106549427,14.82893450635386
20.270000000000625,58,65,2,0.009000000000000001,20.25016617790874,19.83382209188661
20.270000000000625,69,68,3,0.009000000000000001,20.250635386119882,19.364613880742915
20.270000000000625,36,82,0,0.009000000000000001,20.252825024438554,17.174975562072337
20.270000000000625,51,97,1,0.009000000000000001,20.25517106549427,14.82893450635386
20.280000000000626,47,64,1,0.009000000000000001,20.260009775171692,19.990224828934508
20.280000000000626,58,86,2,0.009000000000000001,20.263450635386747,16.549364613880744
20.280000000000626,69,93,3,0.009000000000000001,20.26454545454608,15.454545454545453
20.280000000000626,34,94,0,0.009000000000000001,20.26470185728313,15.298142717497555
20.290000000000628,32,71,0,0.009000000000000001,20.271104594331028,18.89540566959922
20.290000000000628,74,77,3,0.009000000000000001,20.272043010753315,17.956989247311828
20.290000000000628,48,98,1,0.009000000000000001,20.27532746823132,14.672531769305962
20.290000000000628,58,99,2,0.009000000000000001,20.27548387096837,14.516129032258064
20.30000000000063,36,83,0,0.009000000000000001,20.282981427175606,17.01857282502444
20.30000000000063,49,85,1,0.009000000000000001,20.283294232649702,16.705767350928642
20.30000000000063,70,90,3,0.009000000000000001,20.28407624633494,15.923753665689148
20.30000000000063,60,91,2,0.009000000000000001,20.28423264907199,15.76735092864125
20.31000000000063,73,82,3,0.009000000000000001,20.29282502443856,17.174975562072337
20.31000000000063,48,84,1,0.009000000000000001,20.293137829912656,16.86217008797654
20.31000000000063,58,89,2,0.009000000000000001,20.293919843597894,16.080156402737046
20.31000000000063,38,99,0,0.009000000000000001,20.295483870968372,14.516129032258064
20.320000000000633,38,67,0,0.009000000000000001,20.300478983382842,19.521016617790814
20.320000000000633,50,93,1,0.009000000000000001,20.304545454546087,15.454545454545453
20.320000000000633,59,99,2,0.009000000000000001,20.305483870968374,14.516129032258064
20.320000000000633,70,99,3,0.009000000000000001,20.305483870968374,14.516129032258064
20.330000000000634,45,74,1,0.009000000000000001,20.311573802542178,18.426197458455523
20.330000000000634,38,80,0,0.009000000000000001,20.312512218964468,17.487781036168133
20.330000000000634,76,88,3,0.009000000000000001,20.31376344086085,16.236559139784944
20.330000000000634,60,91,2,0.009000000000000001,20.314232649071993,15.76735092864125
20.340000000000636,34,62,0,0.009000000000000001,20.319696969697606,20.303030303030305
20.340000000000636,63,84,2,0.009000000000000001,20.32313782991266,16.86217008797654
20.340000000000636,74,90,3,0.009000000000000001,20.324076246334947,15.923753665689148
20.340000000000636,52,91,1,0.009000000000000001,20.324232649071995,15.76735092864125
20.350000000000637,35,63,0,0.009000000000000001,20.329853372434656,20.146627565982406
20.350000000000637,70,67,3,0.009000000000000001,20.330478983382847,19.521016617790814
20.350000000000637,46,86,1,0.009000000000000001,20.333450635386757,16.549364613880744
20.350000000000637,61,88,2,0.009000000000000001,20.333763440860853,16.236559139784944
20.36000000000064,62,65,2,0.009000000000000001,20.340166177908753,19.83382209188661
20.36000000000064,73,76,3,0.009000000000000001,20.341886608016278,18.113391984359726
20.36000000000064,48,78,1,0.009000000000000001,20.342199413490373,17.80058651026393
20.36000000000064,35,80,0,0.009000000000000001,20.342512218964472,17.487781036168133
20.37000000000064,39,72,0,0.009000000000000001,20.35126099706809,18.73900293255132
20.37000000000064,70,77,3,0.009000000000000001,20.352043010753327,17.956989247311828
20.37000000000064,58,80,2,0.009000000000000001,20.352512218964474,17.487781036168133
20.37000000000064,45,86,1,0.009000000000000001,20.35345063538676,16.549364613880744
20.380000000000642,46,67,1,0.009000000000000001,20.36047898338285,19.521016617790814
20.380000000000642,33,68,0,0.009000000000000001,20.3606353861199,19.364613880742915
20.380000000000642,60,70,2,0.009000000000000001,20.360948191593994,19.05180840664712
20.380000000000642,75,79,3,0.009000000000000001,20.362355816227424,17.64418377321603
20.390000000000644,48,65,1,0.009000000000000001,20.370166177908757,19.83382209188661
20.390000000000644,71,72,3,0.009000000000000001,20.37126099706809,18.73900293255132
20.390000000000644,61,82,2,0.009000000000000001,20.372825024438573,17.174975562072337
20.390000000000644,36,93,0,0.009000000000000001,20.374545454546098,15.454545454545453
20.400000000000645,48,62,1,0.009000000000000001,20.379696969697616,20.303030303030305
20.400000000000645,58,62,2,0.009000000000000001,20.379696969697616,20.303030303030305
20.400000000000645,37,64,0,0.009000000000000001,20.38000977517171,19.990224828934508
20.400000000000645,73,82,3,0.009000000000000001,20.382825024438574,17.174975562072337
20.410000000000647,35,74,0,0.009000000000000001,20.39157380254219,18.426197458455523
20.410000000000647,72,88,3,0.009000000000000001,20.393763440860862,16.236559139784944
20.410000000000647,46,91,1,0.009000000000000001,20.394232649072006,15.76735092864125
20.410000000000647,57,95,2,0.009000000000000001,20.394858260020197,15.141739980449657
20.42000000000065,37,65,0,0.009000000000000001,20.400166177908762,19.83382209188661
20.42000000000065,51,80,1,0.009000000000000001,20.402512218964482,17.487781036168133
20.42000000000065,71,84,3,0.009000000000000001,20.403137829912673,16.86217008797654
20.42000000000065,60,90,2,0.009000000000000001,20.40407624633496,15.923753665689148
20.43000000000065,59,63,2,0.009000000000000001,20.409853372434668,20.146627565982406
20.43000000000065,72,89,3,0.009000000000000001,20.413919843597913,16.080156402737046
20.43000000000065,36,92,0,0.009000000000000001,20.414389051809056,15.610948191593351
20.43000000000065,49,96,1,0.009000000000000001,20.415014662757248,14.985337243401759
20.44000000000065,60,66,2,0.009000000000000001,20.420322580645813,19.67741935483871
20.44000000000065,71,69,3,0.009000000000000001,20.420791788856956,19.208211143695017
20.44000000000065,47,71,1,0.009000000000000001,20.42110459433105,18.89540566959922
20.44000000000065,39,99,0,0.009000000000000001,20.425483870968392,14.516129032258064
20.450000000000653,50,67,1,0.009000000000000001,20.430478983382862,19.521016617790814
20.450000000000653,38,74,0,0.009000000000000001,20.431573802542196,18.426197458455523
20.450000000000653,69,79,3,0.009000000000000001,20.432355816227435,17.64418377321603
20.450000000000653,55,82,2,0.009000000000000001,20.432825024438582,17.174975562072337
20.460000000000655,48,72,1,0.009000000000000001,20.441260997068103,18.73900293255132
20.460000000000655,37,85,0,0.009000000000000001,20.443294232649727,16.705767350928642
20.460000000000655,72,92,3,0.009000000000000001,20.44438905180906,15.610948191593351
20.460000000000655,61,93,2,0.009000000000000001,20.44454545454611,15.454545454545453
20.470000000000656,72,64,3,0.009000000000000001,20.450009775171722,19.990224828934508
20.470000000000656,31,74,0,0.009000000000000001,20.4515738025422,18.426197458455523
20.470000000000656,61,88,2,0.009000000000000001,20.45376344086087,16.236559139784944
20.470000000000656,49,89,1,0.009000000000000001,20.45391984359792,16.080156402737046
20.480000000000658,35,69,0,0.009000000000000001,20.460791788856962,19.208211143695017
20.480000000000658,70,80,3,0.009000000000000001,20.46251221896449,17.487781036168133
20.480000000000658,61,85,2,0.009000000000000001,20.46329423264973,16.705767350928642
20.480000000000658,45,90,1,0.009000000000000001,20.46407624633497,15.923753665689148
20.49000000000066,36,62,0,0.009000000000000001,20.46969696969763,20.303030303030305
20.49000000000066,58,72,2,0.009000000000000001,20.471260997068107,18.73900293255132
20.49000000000066,46,90,1,0.009000000000000001,20.47407624633497,15.923753665689148
20.49000000000066,70,96,3,0.009000000000000001,20.475014662757257,14.985337243401759
20.50000000000066,60,63,2,0.009000000000000001,20.47985337243468,20.146627565982406
20.50000000000066,34,73,0,0.009000000000000001,20.481417399805157,18.58260019550342
20.50000000000066,73,75,3,0.009000000000000001,20.481730205279252,18.269794721407624
20.50000000000066,48,83,1,0.009000000000000001,20.482981427175638,17.01857282502444
20.510000000000662,70,66,3,0.009000000000000001,20.490322580645824,19.67741935483871
20.510000000000662,48,72,1,0.009000000000000001,20.49126099706811,18.73900293255132
20.510000000000662,37,87,0,0.009000000000000001,20.49360703812383,16.392961876832846
20.510000000000662,55,95,2,0.009000000000000001,20.494858260020212,15.141739980449657
20.520000000000664,56,69,2,0.009000000000000001,20.50079178885697,19.208211143695017
20.520000000000664,69,70,3,0.009000000000000001,20.500948191594016,19.05180840664712
20.520000000000664,34,72,0,0.009000000000000001,20.501260997068112,18.73900293255132
20.520000000000664,44,92,1,0.009000000000000001,20.50438905180907,15.610948191593351
20.530000000000665,49,66,1,0.009000000000000001,20.510322580645827,19.67741935483871
20.530000000000665,57,80,2,0.009000000000000001,20.5125122189645,17.487781036168133
20.530000000000665,32,82,0,0.009000000000000001,20.512825024438595,17.174975562072337
20.530000000000665,70,99,3,0.009000000000000001,20.515483870968406,14.516129032258064
20.540000000000667,73,62,3,0.009000000000000001,20.519696969697637,20.303030303030305
20.540000000000667,47,79,1,0.009000000000000001,20.52235581622745,17.64418377321603
20.540000000000667,35,82,0,0.009000000000000001,20.522825024438596,17.174975562072337
20.540000000000667,61,99,2,0.009000000000000001,20.525483870968408,14.516129032258064
20.55000000000067,70,64,3,0.009000000000000001,20.530009775171735,19.990224828934508
20.55000000000067,47,67,1,0.009000000000000001,20.530478983382878,19.521016617790814
20.55000000000067,58,75,2,0.009000000000000001,20.53173020527926,18.269794721407624
20.55000000000067,37,87,0,0.009000000000000001,20.533607038123836,16.392961876832846
20.56000000000067,38,71,0,0.009000000000000001,20.54110459433107,18.89540566959922
20.56000000000067,75,86,3,0.009000000000000001,20.54345063538679,16.549364613880744
20.56000000000067,47,92,1,0.009000000000000001,20.544389051809077,15.610948191593351
20.56000000000067,63,96,2,0.009000000000000001,20.545014662757268,14.985337243401759
20.57000000000067,60,64,2,0.009000000000000001,20.550009775171738,19.990224828934508
20.57000000000067,48,93,1,0.009000000000000001,20.554545454546126,15.454545454545453
20.57000000000067,73,95,3,0.009000000000000001,20.55485826002022,15.141739980449657
20.57000000000067,36,96,0,0.009000000000000001,20.55501466275727,14.985337243401759
20.580000000000673,59,64,2,0.009000000000000001,20.56000977517174,19.990224828934508
20.580000000000673,48,75,1,0.009000000000000001,20.561730205279265,18.269794721407624
20.580000000000673,70,83,3,0.009000000000000001,20.56298142717565,17.01857282502444
20.580000000000673,35,93,0,0.009000000000000001,20.564545454546128,15.454545454545453
20.590000000000675,60,66,2,0.009000000000000001,20.570322580645836,19.67741935483871
20.590000000000675,69,68,3,0.009000000000000001,20.570635386119932,19.364613880742915
20.590000000000675,46,73,1,0.009000000000000001,20.57141739980517,18.58260019550342
20.590000000000675,38,94,0,0.009000000000000001,20.574701857283177,15.298142717497555
20.600000000000676,34,66,0,0.009000000000000001,20.580322580645838,19.67741935483871
20.600000000000676,46,74,1,0.009000000000000001,20.58157380254222,18.426197458455523
20.600000000000676,76,80,3,0.009000000000000001,20.58251221896451,17.487781036168133
20.600000000000676,58,84,2,0.009000000000000001,20.5831378299127,16.86217008797654
20.610000000000678,49,90,1,0.009000000000000001,20.59407624633499,15.923753665689148
20.610000000000678,72,91,3,0.009000000000000001,20.594232649072037,15.76735092864125
20.610000000000678,62,94,2,0.009000000000000001,20.59470185728318,15.298142717497555
20.610000000000678,35,95,0,0.009000000000000001,20.594858260020228,15.141739980449657
20.62000000000068,70,72,3,0.009000000000000001,20.601260997068128,18.73900293255132
20.62000000000068,40,77,0,0.009000000000000001,20.602043010753366,17.956989247311828
20.62000000000068,45,90,1,0.009000000000000001,20.60407624633499,15.923753665689148
20.62000000000068,63,94,2,0.009000000000000001,20.60470185728318,15.298142717497555
20.63000000000068,73,66,3,0.009000000000000001,20.610322580645843,19.67741935483871
20.63000000000068,44,67,1,0.009000000000000001,20.61047898338289,19.521016617790814
20.63000000000068,35,91,0,0.009000000000000001,20.61423264907204,15.76735092864125
20.63000000000068,57,99,2,0.009000000000000001,20.615483870968422,14.516129032258064
20.640000000000683,61,76,2,0.009000000000000001,20.62188660801632,18.113391984359726
20.640000000000683,72,92,3,0.009000000000000001,20.62438905180909,15.610948191593351
20.640000000000683,45,94,1,0.009000000000000001,20.624701857283185,15.298142717497555
20.640000000000683,37,95,0,0.009000000000000001,20.624858260020233,15.141739980449657
20.650000000000684,69,65,3,0.009000000000000001,20.630166177908798,19.83382209188661
20.650000000000684,36,72,0,0.009000000000000001,20.631260997068132,18.73900293255132
20.650000000000684,50,85,1,0.009000000000000001,20.633294232649757,16.705767350928642
20.650000000000684,62,97,2,0.009000000000000001,20.63517106549433,14.82893450635386
20.660000000000686,46,63,1,0.009000000000000001,20.639853372434704,20.146627565982406
20.660000000000686,55,78,2,0.009000000000000001,20.64219941349042,17.80058651026393
20.660000000000686,72,81,3,0.009000000000000001,20.642668621701567,17.331378299120235
20.660000000000686,32,86,0,0.009000000000000001,20.643450635386806,16.549364613880744
20.670000000000687,62,63,2,0.009000000000000001,20.649853372434706,20.146627565982406
20.670000000000687,71,68,3,0.009000000000000001,20.650635386119944,19.364613880742915
20.670000000000687,49,90,1,0.009000000000000001,20.654076246335,15.923753665689148
20.670000000000687,37,96,0,0.009000000000000001,20.655014662757285,14.985337243401759
20.68000000000069,38,63,0,0.009000000000000001,20.659853372434707,20.146627565982406
20.68000000000069,61,74,2,0.009000000000000001,20.661573802542232,18.426197458455523
20.68000000000069,73,79,3,0.009000000000000001,20.66235581622747,17.64418377321603
20.68000000000069,45,85,1,0.009000000000000001,20.66329423264976,16.705767350928642
20.69000000000069,61,73,2,0.009000000000000001,20.671417399805186,18.58260019550342
20.69000000000069,70,84,3,0.009000000000000001,20.673137829912715,16.86217008797654
20.69000000000069,49,86,1,0.009000000000000001,20.67345063538681,16.549364613880744
20.69000000000069,35,95,0,0.009000000000000001,20.67485826002024,15.141739980449657
20.700000000000692,58,86,2,0.009000000000000001,20.683450635386812,16.549364613880744
20.700000000000692,35,89,0,0.009000000000000001,20.683919843597955,16.080156402737046
20.700000000000692,46,91,1,0.009000000000000001,20.68423264907205,15.76735092864125
20.700000000000692,70,93,3,0.009000000000000001,20.684545454546146,15.454545454545453
20.710000000000694,73,64,3,0.009000000000000001,20.69000977517176,19.990224828934508
20.710000000000694,46,80,1,0.009000000000000001,20.692512218964527,17.487781036168133
20.710000000000694,36,93,0,0.009000000000000001,20.694545454546148,15.454545454545453
20.710000000000694,61,93,2,0.009000000000000001,20.694545454546148,15.454545454545453
20.720000000000695,35,70,0,0.009000000000000001,20.700948191594048,19.05180840664712
20.720000000000695,72,71,3,0.009000000000000001,20.701104594331095,18.89540566959922
20.720000000000695,59,75,2,0.009000000000000001,20.701730205279286,18.269794721407624
20.720000000000695,45,81,1,0.009000000000000001,20.702668621701577,17.331378299120235
20.730000000000697,44,74,1,0.009000000000000001,20.71157380254224,18.426197458455523
20.730000000000697,59,87,2,0.009000000000000001,20.713607038123865,16.392961876832846
20.730000000000697,70,87,3,0.009000000000000001,20.713607038123865,16.392961876832846
20.730000000000697,34,90,0,0.009000000000000001,20.714076246335008,15.923753665689148
20.7400000000007,34,65,0,0.009000000000000001,20.720166177908812,19.83382209188661
20.7400000000007,44,80,1,0.009000000000000001,20.722512218964532,17.487781036168133
20.7400000000007,61,82,2,0.009000000000000001,20.722825024438627,17.174975562072337
20.7400000000007,73,98,3,0.009000000000000001,20.72532746823139,14.672531769305962
20.7500000000007,74,69,3,0.009000000000000001,20.730791788857005,19.208211143695017
20.7500000000007,34,82,0,0.009000000000000001,20.73282502443863,17.174975562072337
20.7500000000007,50,90,1,0.009000000000000001,20.73407624633501,15.923753665689148
20.7500000000007,59,98,2,0.009000000000000001,20.735327468231393,14.672531769305962
20.7600000000007,52,69,1,0.009000000000000001,20.740791788857006,19.208211143695017
20.7600000000007,73,70,3,0.009000000000000001,20.740948191594054,19.05180840664712
20.7600000000007,62,86,2,0.009000000000000001,20.74345063538682,16.549364613880744
20.7600000000007,33,97,0,0.009000000000000001,20.745171065494347,14.82893450635386
20.770000000000703,48,69,1,0.009000000000000001,20.750791788857008,19.208211143695017
20.770000000000703,72,73,3,0.009000000000000001,20.7514173998052,18.58260019550342
20.770000000000703,34,74,0,0.009000000000000001,20.751573802542246,18.426197458455523
20.770000000000703,61,81,2,0.009000000000000001,20.752668621701584,17.331378299120235
20.780000000000705,50,79,1,0.009000000000000001,20.762355816227487,17.64418377321603
20.780000000000705,62,83,2,0.009000000000000001,20.76298142717568,17.01857282502444
20.780000000000705,73,86,3,0.009000000000000001,20.763450635386825,16.549364613880744
20.780000000000705,36,95,0,0.009000000000000001,20.764858260020254,15.141739980449657
20.790000000000706,73,65,3,0.009000000000000001,20.77016617790882,19.83382209188661
20.790000000000706,49,79,1,0.009000000000000001,20.77235581622749,17.64418377321603
20.790000000000706,33,91,0,0.009000000000000001,20.774232649072065,15.76735092864125
20.790000000000706,60,97,2,0.009000000000000001,20.77517106549435,14.82893450635386
20.800000000000708,35,71,0,0.009000000000000001,20.781104594331108,18.89540566959922
20.800000000000708,58,79,2,0.009000000000000001,20.78235581622749,17.64418377321603
20.800000000000708,76,92,3,0.009000000000000001,20.784389051809114,15.610948191593351
20.800000000000708,45,99,1,0.009000000000000001,20.78548387096845,14.516129032258064
20.81000000000071,46,85,1,0.009000000000000001,20.79329423264978,16.705767350928642
20.81000000000071,56,87,2,0.009000000000000001,20.793607038123877,16.392961876832846
20.81000000000071,71,94,3,0.009000000000000001,20.79470185728321,15.298142717497555
20.81000000000071,34,97,0,0.009000000000000001,20.795171065494355,14.82893450635386
20.82000000000071,45,71,1,0.009000000000000001,20.80110459433111,18.89540566959922
20.82000000000071,73,75,3,0.009000000000000001,20.801730205279302,18.269794721407624
20.82000000000071,34,79,0,0.009000000000000001,20.802355816227493,17.64418377321603
20.82000000000071,61,95,2,0.009000000000000001,20.80485826002026,15.141739980449657
20.830000000000712,46,74,1,0.009000000000000001,20.811573802542256,18.426197458455523
20.830000000000712,34,85,0,0.009000000000000001,20.813294232649785,16.705767350928642
20.830000000000712,75,90,3,0.009000000000000001,20.814076246335024,15.923753665689148
20.830000000000712,62,98,2,0.009000000000000001,20.815327468231406,14.672531769305962
20.840000000000714,72,63,3,0.009000000000000001,20.819853372434732,20.146627565982406
20.840000000000714,36,68,0,0.009000000000000001,20.82063538611997,19.364613880742915
20.840000000000714,52,87,1,0.009000000000000001,20.823607038123882,16.392961876832846
20.840000000000714,59,92,2,0.009000000000000001,20.82438905180912,15.610948191593351
20.850000000000716,50,63,1,0.009000000000000001,20.829853372434734,20.146627565982406
20.850000000000716,67,68,3,0.009000000000000001,20.830635386119972,19.364613880742915
20.850000000000716,34,72,0,0.009000000000000001,20.831260997068163,18.73900293255132
20.850000000000716,59,92,2,0.009000000000000001,20.834389051809122,15.610948191593351
20.860000000000717,71,83,3,0.009000000000000001,20.842981427175694,17.01857282502444
20.860000000000717,51,96,1,0.009000000000000001,20.845014662757315,14.985337243401759
20.860000000000717,60,96,2,0.009000000000000001,20.845014662757315,14.985337243401759
20.860000000000717,37,98,0,0.009000000000000001,20.84532746823141,14.672531769305962
20.87000000000072,57,67,2,0.009000000000000001,20.850478983382928,19.521016617790814
20.87000000000072,68,70,3,0.009000000000000001,20.85094819159407,19.05180840664712
20.87000000000072,51,71,1,0.009000000000000001,20.85110459433112,18.89540566959922
20.87000000000072,36,76,0,0.009000000000000001,20.851886608016358,18.113391984359726
20.88000000000072,46,74,1,0.009000000000000001,20.861573802542264,18.426197458455523
20.88000000000072,76,79,3,0.009000000000000001,20.862355816227502,17.64418377321603
20.88000000000072,37,89,0,0.009000000000000001,20.863919843597984,16.080156402737046
20.88000000000072,62,96,2,0.009000000000000001,20.865014662757318,14.985337243401759
20.89000000000072,48,77,1,0.009000000000000001,20.87204301075341,17.956989247311828
20.89000000000072,72,82,3,0.009000000000000001,20.87282502443865,17.174975562072337
20.89000000000072,61,84,2,0.009000000000000001,20.873137829912746,16.86217008797654
20.89000000000072,34,99,0,0.009000000000000001,20.875483870968463,14.516129032258064
20.900000000000723,53,74,2,0.009000000000000001,20.881573802542267,18.426197458455523
20.900000000000723,69,91,3,0.009000000000000001,20.884232649072082,15.76735092864125
20.900000000000723,46,98,1,0.009000000000000001,20.885327468231417,14.672531769305962
20.900000000000723,37,99,0,0.009000000000000001,20.885483870968464,14.516129032258064
20.910000000000725,34,71,0,0.009000000000000001,20.891104594331125,18.89540566959922
20.910000000000725,70,73,3,0.009000000000000001,20.89141739980522,18.58260019550342
20.910000000000725,60,79,2,0.009000000000000001,20.892355816227507,17.64418377321603
20.910000000000725,49,83,1,0.009000000000000001,20.8929814271757,17.01857282502444
20.920000000000726,61,70,2,0.009000000000000001,20.90094819159408,19.05180840664712
20.920000000000726,37,73,0,0.009000000000000001,20.901417399805222,18.58260019550342
20.920000000000726,69,76,3,0.009000000000000001,20.901886608016365,18.113391984359726
20.920000000000726,48,84,1,0.009000000000000001,20.90313782991275,16.86217008797654
20.930000000000728,58,64,2,0.009000000000000001,20.910009775171794,19.990224828934508
20.930000000000728,70,79,3,0.009000000000000001,20.91235581622751,17.64418377321603
20.930000000000728,37,97,0,0.009000000000000001,20.915171065494373,14.82893450635386
20.930000000000728,46,98,1,0.009000000000000001,20.91532746823142,14.672531769305962
20.94000000000073,34,71,0,0.009000000000000001,20.92110459433113,18.89540566959922
20.94000000000073,62,71,2,0.009000000000000001,20.92110459433113,18.89540566959922
20.94000000000073,71,82,3,0.009000000000000001,20.92282502443866,17.174975562072337
20.94000000000073,50,88,1,0.009000000000000001,20.923763440860945,16.236559139784944
20.95000000000073,72,62,3,0.009000000000000001,20.9296969696977,20.303030303030305
20.95000000000073,50,64,1,0.009000000000000001,20.930009775171797,19.990224828934508
20.95000000000073,35,92,0,0.009000000000000001,20.934389051809138,15.610948191593351
20.95000000000073,59,92,2,0.009000000000000001,20.934389051809138,15.610948191593351
20.960000000000733,36,67,0,0.009000000000000001,20.940478983382942,19.521016617790814
20.960000000000733,61,84,2,0.009000000000000001,20.943137829912757,16.86217008797654
20.960000000000733,46,91,1,0.009000000000000001,20.94423264907209,15.76735092864125
20.960000000000733,72,97,3,0.009000000000000001,20.945171065494378,14.82893450635386
20.970000000000734,70,64,3,0.009000000000000001,20.9500097751718,19.990224828934508
20.970000000000734,46,68,1,0.009000000000000001,20.95063538611999,19.364613880742915
20.970000000000734,62,72,2,0.009000000000000001,20.951260997068182,18.73900293255132
20.970000000000734,32,84,0,0.009000000000000001,20.95313782991276,16.86217008797654
20.980000000000736,71,64,3,0.009000000000000001,20.9600097751718,19.990224828934508
20.980000000000736,33,65,0,0.009000000000000001,20.96016617790885,19.83382209188661
20.980000000000736,56,67,2,0.009000000000000001,20.960478983382945,19.521016617790814
20.980000000000736,46,72,1,0.009000000000000001,20.961260997068184,18.73900293255132
20.990000000000737,59,84,2,0.009000000000000001,20.973137829912762,16.86217008797654
20.990000000000737,71,84,3,0.009000000000000001,20.973137829912762,16.86217008797654
20.990000000000737,37,88,0,0.009000000000000001,20.973763440860953,16.236559139784944
20.990000000000737,51,96,1,0.009000000000000001,20.975014662757335,14.985337243401759
21.00000000000074,69,77,3,0.009000000000000001,20.982043010753426,17.956989247311828
21.00000000000074,50,90,1,0.009000000000000001,20.98407624633505,15.923753665689148
21.00000000000074,59,90,2,0.009000000000000001,20.98407624633505,15.923753665689148
21.00000000000074,35,96,0,0.009000000000000001,20.985014662757337,14.985337243401759
21.01000000000074,72,73,3,0.009000000000000001,20.991417399805236,18.58260019550342
21.01000000000074,46,76,1,0.009000000000000001,20.99188660801638,18.113391984359726
21.01000000000074,62,88,2,0.009000000000000001,20.993763440860956,16.236559139784944
21.01000000000074,40,99,0,0.009000000000000001,20.99548387096848,14.516129032258064
21.020000000000742,45,62,1,0.009000000000000001,20.999696969697712,20.303030303030305
21.020000000000742,63,74,2,0.009000000000000001,21.001573802542286,18.426197458455523
21.020000000000742,71,89,3,0.009000000000000001,21.003919843598005,16.080156402737046
21.020000000000742,35,99,0,0.009000000000000001,21.005483870968483,14.516129032258064
21.030000000000744,70,69,3,0.009000000000000001,21.01079178885705,19.208211143695017
21.030000000000744,35,76,0,0.009000000000000001,21.011886608016383,18.113391984359726
21.030000000000744,47,85,1,0.009000000000000001,21.013294232649816,16.705767350928642
21.030000000000744,59,92,2,0.009000000000000001,21.01438905180915,15.610948191593351
21.040000000000745,37,85,0,0.009000000000000001,21.023294232649818,16.705767350928642
21.040000000000745,62,87,2,0.009000000000000001,21.023607038123913,16.392961876832846
21.040000000000745,47,89,1,0.009000000000000001,21.02391984359801,16.080156402737046
21.040000000000745,75,98,3,0.009000000000000001,21.02532746823144,14.672531769305962
21.050000000000747,68,71,3,0.009000000000000001,21.031104594331147,18.89540566959922
21.050000000000747,57,78,2,0.009000000000000001,21.03219941349048,17.80058651026393
21.050000000000747,46,90,1,0.009000000000000001,21.034076246335058,15.923753665689148
21.050000000000747,36,95,0,0.009000000000000001,21.034858260020297,15.141739980449657
21.06000000000075,61,65,2,0.009000000000000001,21.040166177908862,19.83382209188661
21.06000000000075,71,71,3,0.009000000000000001,21.04110459433115,18.89540566959922
21.06000000000075,49,75,1,0.009000000000000001,21.04173020527934,18.269794721407624
21.06000000000075,37,80,0,0.009000000000000001,21.042512218964582,17.487781036168133
21.07000000000075,60,73,2,0.009000000000000001,21.051417399805246,18.58260019550342
21.07000000000075,72,81,3,0.009000000000000001,21.05266862170163,17.331378299120235
21.07000000000075,48,83,1,0.009000000000000001,21.052981427175727,17.01857282502444
21.07000000000075,36,98,0,0.009000000000000001,21.055327468231443,14.672531769305962
21.08000000000075,47,63,1,0.009000000000000001,21.05985337243477,20.146627565982406
21.08000000000075,59,69,2,0.009000000000000001,21.060791788857056,19.208211143695017
21.08000000000075,72,69,3,0.009000000000000001,21.060791788857056,19.208211143695017
21.08000000000075,36,71,0,0.009000000000000001,21.06110459433115,18.89540566959922
21.090000000000753,48,71,1,0.009000000000000001,21.071104594331153,18.89540566959922
21.090000000000753,35,85,0,0.009000000000000001,21.073294232649825,16.705767350928642
21.090000000000753,72,86,3,0.009000000000000001,21.073450635386873,16.549364613880744
21.090000000000753,59,98,2,0.009000000000000001,21.075327468231446,14.672531769305962
21.100000000000755,37,78,0,0.009000000000000001,21.08219941349049,17.80058651026393
21.100000000000755,61,84,2,0.009000000000000001,21.08313782991278,16.86217008797654
21.100000000000755,71,90,3,0.009000000000000001,21.084076246335066,15.923753665689148
21.100000000000755,46,98,1,0.009000000000000001,21.085327468231448,14.672531769305962
21.110000000000756,48,64,1,0.009000000000000001,21.090009775171822,19.990224828934508
21.110000000000756,63,66,2,0.009000000000000001,21.090322580645918,19.67741935483871
21.110000000000756,70,82,3,0.009000000000000001,21.092825024438685,17.174975562072337
21.110000000000756,37,97,0,0.009000000000000001,21.0951710654944,14.82893450635386
21.120000000000758,61,62,2,0.009000000000000001,21.099696969697728,20.303030303030305
21.120000000000758,37,71,0,0.009000000000000001,21.101104594331158,18.89540566959922
21.120000000000758,52,89,1,0.009000000000000001,21.10391984359802,16.080156402737046
21.120000000000758,73,91,3,0.009000000000000001,21.104232649072117,15.76735092864125
21.13000000000076,59,63,2,0.009000000000000001,21.109853372434777,20.146627565982406
21.13000000000076,34,88,0,0.009000000000000001,21.113763440860975,16.236559139784944
21.13000000000076,71,96,3,0.009000000000000001,21.115014662757357,14.985337243401759
21.13000000000076,48,97,1,0.009000000000000001,21.115171065494405,14.82893450635386
21.14000000000076,37,68,0,0.009000000000000001,21.120635386120018,19.364613880742915
21.14000000000076,45,82,1,0.009000000000000001,21.12282502443869,17.174975562072337
21.14000000000076,69,92,3,0.009000000000000001,21.124389051809167,15.610948191593351
21.14000000000076,61,95,2,0.009000000000000001,21.12485826002031,15.141739980449657
21.150000000000762,57,63,2,0.009000000000000001,21.12985337243478,20.146627565982406
21.150000000000762,45,71,1,0.009000000000000001,21.131104594331163,18.89540566959922
21.150000000000762,76,88,3,0.009000000000000001,21.133763440860978,16.236559139784944
21.150000000000762,37,92,0,0.009000000000000001,21.13438905180917,15.610948191593351
21.160000000000764,64,64,2,0.009000000000000001,21.14000977517183,19.990224828934508
21.160000000000764,70,84,3,0.009000000000000001,21.14313782991279,16.86217008797654
21.160000000000764,37,85,0,0.009000000000000001,21.143294232649836,16.705767350928642
21.160000000000764,43,97,1,0.009000000000000001,21.14517106549441,14.82893450635386
21.170000000000766,69,64,3,0.009000000000000001,21.15000977517183,19.990224828934508
21.170000000000766,49,74,1,0.009000000000000001,21.15157380254231,18.426197458455523
21.170000000000766,60,80,2,0.009000000000000001,21.1525122189646,17.487781036168133
21.170000000000766,32,96,0,0.009000000000000001,21.155014662757363,14.985337243401759
21.180000000000767,71,71,3,0.009000000000000001,21.161104594331167,18.89540566959922
21.180000000000767,38,78,0,0.009000000000000001,21.1621994134905,17.80058651026393
21.180000000000767,59,79,2,0.009000000000000001,21.16235581622755,17.64418377321603
21.180000000000767,45,99,1,0.009000000000000001,21.165483870968508,14.516129032258064
21.19000000000077,61,83,2,0.009000000000000001,21.172981427175745,17.01857282502444
21.19000000000077,36,86,0,0.009000000000000001,21.17345063538689,16.549364613880744
21.19000000000077,69,92,3,0.009000000000000001,21.174389051809175,15.610948191593351
21.19000000000077,51,95,1,0.009000000000000001,21.17485826002032,15.141739980449657
21.20000000000077,74,73,3,0.009000000000000001,21.181417399805266,18.58260019550342
21.20000000000077,47,75,1,0.009000000000000001,21.18173020527936,18.269794721407624
21.20000000000077,59,82,2,0.009000000000000001,21.1828250244387,17.174975562072337
21.20000000000077,37,97,0,0.009000000000000001,21.185171065494416,14.82893450635386
21.210000000000772,71,65,3,0.009000000000000001,21.190166177908885,19.83382209188661
21.210000000000772,57,68,2,0.009000000000000001,21.19063538612003,19.364613880742915
21.210000000000772,34,78,0,0.009000000000000001,21.192199413490506,17.80058651026393
21.210000000000772,44,87,1,0.009000000000000001,21.19360703812394,16.392961876832846
21.220000000000773,37,63,0,0.009000000000000001,21.19985337243479,20.146627565982406
21.220000000000773,58,71,2,0.009000000000000001,21.201104594331174,18.89540566959922
21.220000000000773,71,86,3,0.009000000000000001,21.203450635386893,16.549364613880744
21.220000000000773,45,96,1,0.009000000000000001,21.20501466275737,14.985337243401759
21.230000000000775,45,73,1,0.009000000000000001,21.21141739980527,18.58260019550342
21.230000000000775,72,78,3,0.009000000000000001,21.21219941349051,17.80058651026393
21.230000000000775,60,86,2,0.009000000000000001,21.213450635386895,16.549364613880744
21.230000000000775,40,96,0,0.009000000000000001,21.215014662757373,14.985337243401759
21.240000000000776,35,65,0,0.009000000000000001,21.22016617790889,19.83382209188661
21.240000000000776,49,72,1,0.009000000000000001,21.221260997068224,18.73900293255132
21.240000000000776,58,80,2,0.009000000000000001,21.22251221896461,17.487781036168133
21.240000000000776,73,85,3,0.009000000000000001,21.22329423264985,16.705767350928642
21.250000000000778,53,68,1,0.009000000000000001,21.230635386120035,19.364613880742915
21.250000000000778,74,69,3,0.009000000000000001,21.230791788857083,19.208211143695017
21.250000000000778,38,75,0,0.009000000000000001,21.23173020527937,18.269794721407624
21.250000000000778,59,75,2,0.009000000000000001,21.23173020527937,18.269794721407624
21.26000000000078,45,75,1,0.009000000000000001,21.24173020527937,18.269794721407624
21.26000000000078,73,77,3,0.009000000000000001,21.242043010753466,17.956989247311828
21.26000000000078,32,93,0,0.009000000000000001,21.244545454546234,15.454545454545453
21.26000000000078,57,98,2,0.009000000000000001,21.245327468231473,14.672531769305962
21.27000000000078,59,67,2,0.009000000000000001,21.25047898338299,19.521016617790814
21.27000000000078,36,73,0,0.009000000000000001,21.251417399805277,18.58260019550342
21.27000000000078,74,74,3,0.009000000000000001,21.251573802542325,18.426197458455523
21.27000000000078,45,92,1,0.009000000000000001,21.254389051809188,15.610948191593351
21.280000000000783,48,73,1,0.009000000000000001,21.26141739980528,18.58260019550342
21.280000000000783,71,88,3,0.009000000000000001,21.263763440861,16.236559139784944
21.280000000000783,34,89,0,0.009000000000000001,21.263919843598046,16.080156402737046
21.280000000000783,59,96,2,0.009000000000000001,21.26501466275738,14.985337243401759
21.290000000000784,56,65,2,0.009000000000000001,21.270166177908898,19.83382209188661
21.290000000000784,48,71,1,0.009000000000000001,21.271104594331185,18.89540566959922
21.290000000000784,72,74,3,0.009000000000000001,21.271573802542328,18.426197458455523
21.290000000000784,35,82,0,0.009000000000000001,21.272825024438713,17.174975562072337
21.300000000000786,44,63,1,0.009000000000000001,21.279853372434804,20.146627565982406
21.300000000000786,33,77,0,0.009000000000000001,21.282043010753473,17.956989247311828
21.300000000000786,57,86,2,0.009000000000000001,21.283450635386906,16.549364613880744
21.300000000000786,69,96,3,0.009000000000000001,21.285014662757384,14.985337243401759
21.310000000000787,68,63,3,0.009000000000000001,21.289853372434806,20.146627565982406
21.310000000000787,60,83,2,0.009000000000000001,21.292981427175764,17.01857282502444
21.310000000000787,47,85,1,0.009000000000000001,21.29329423264986,16.705767350928642
21.310000000000787,38,96,0,0.009000000000000001,21.295014662757385,14.985337243401759
21.32000000000079,72,64,3,0.009000000000000001,21.300009775171855,19.990224828934508
21.32000000000079,49,66,1,0.009000000000000001,21.30032258064595,19.67741935483871
21.32000000000079,60,70,2,0.009000000000000001,21.30094819159414,19.05180840664712
21.32000000000079,37,98,0,0.009000000000000001,21.305327468231482,14.672531769305962
21.33000000000079,58,62,2,0.009000000000000001,21.30969696969776,20.303030303030305
21.33000000000079,35,63,0,0.009000000000000001,21.30985337243481,20.146627565982406
21.33000000000079,45,81,1,0.009000000000000001,21.312668621701672,17.331378299120235
21.33000000000079,71,88,3,0.009000000000000001,21.313763440861006,16.236559139784944
21.340000000000792,40,62,0,0.009000000000000001,21.319696969697763,20.303030303030305
21.340000000000792,74,62,3,0.009000000000000001,21.319696969697763,20.303030303030305
21.340000000000792,58,74,2,0.009000000000000001,21.321573802542336,18.426197458455523
21.340000000000792,48,90,1,0.009000000000000001,21.324076246335103,15.923753665689148
21.350000000000794,35,75,0,0.009000000000000001,21.331730205279385,18.269794721407624
21.350000000000794,73,75,3,0.009000000000000001,21.331730205279385,18.269794721407624
21.350000000000794,57,86,2,0.009000000000000001,21.333450635386914,16.549364613880744
21.350000000000794,46,92,1,0.009000000000000001,21.3343890518092,15.610948191593351
21.360000000000795,71,69,3,0.009000000000000001,21.3407917888571,19.208211143695017
21.360000000000795,36,79,0,0.009000000000000001,21.342355816227577,17.64418377321603
21.360000000000795,58,86,2,0.009000000000000001,21.343450635386915,16.549364613880744
21.360000000000795,48,94,1,0.009000000000000001,21.344701857283297,15.298142717497555
21.370000000000797,69,69,3,0.009000000000000001,21.3507917888571,19.208211143695017
21.370000000000797,35,72,0,0.009000000000000001,21.351260997068245,18.73900293255132
21.370000000000797,59,91,2,0.009000000000000001,21.354232649072156,15.76735092864125
21.370000000000797,48,92,1,0.009000000000000001,21.354389051809203,15.610948191593351
21.3800000000008,59,65,2,0.009000000000000001,21.360166177908912,19.83382209188661
21.3800000000008,36,74,0,0.009000000000000001,21.361573802542342,18.426197458455523
21.3800000000008,68,76,3,0.009000000000000001,21.361886608016437,18.113391984359726
21.3800000000008,49,80,1,0.009000000000000001,21.362512218964632,17.487781036168133
21.3900000000008,47,67,1,0.009000000000000001,21.37047898338301,19.521016617790814
21.3900000000008,61,69,2,0.009000000000000001,21.370791788857105,19.208211143695017
21.3900000000008,73,76,3,0.009000000000000001,21.37188660801644,18.113391984359726
21.3900000000008,39,97,0,0.009000000000000001,21.375171065494445,14.82893450635386
21.4000000000008,70,70,3,0.009000000000000001,21.380948191594154,19.05180840664712
21.4000000000008,49,78,1,0.009000000000000001,21.382199413490536,17.80058651026393
21.4000000000008,63,87,2,0.009000000000000001,21.38360703812397,16.392961876832846
21.4000000000008,36,95,0,0.009000000000000001,21.38485826002035,15.141739980449657
21.410000000000803,36,73,0,0.009000000000000001,21.3914173998053,18.58260019550342
21.410000000000803,69,78,3,0.009000000000000001,21.392199413490538,17.80058651026393
21.410000000000803,49,89,1,0.009000000000000001,21.393919843598066,16.080156402737046
21.410000000000803,59,92,2,0.009000000000000001,21.39438905180921,15.610948191593351
21.420000000000805,62,70,2,0.009000000000000001,21.400948191594157,19.05180840664712
21.420000000000805,39,87,0,0.009000000000000001,21.403607038123972,16.392961876832846
21.420000000000805,71,91,3,0.009000000000000001,21.404232649072163,15.76735092864125
21.420000000000805,45,94,1,0.009000000000000001,21.404701857283307,15.298142717497555
21.430000000000806,60,74,2,0.009000000000000001,21.41157380254235,18.426197458455523
21.430000000000806,35,89,0,0.009000000000000001,21.41391984359807,16.080156402737046
21.430000000000806,46,94,1,0.009000000000000001,21.41470185728331,15.298142717497555
21.430000000000806,71,95,3,0.009000000000000001,21.414858260020356,15.141739980449657
21.440000000000808,37,71,0,0.009000000000000001,21.421104594331208,18.89540566959922
21.440000000000808,47,79,1,0.009000000000000001,21.42235581622759,17.64418377321603
21.440000000000808,59,83,2,0.009000000000000001,21.422981427175785,17.01857282502444
21.440000000000808,71,92,3,0.009000000000000001,21.424389051809214,15.610948191593351
21.45000000000081,46,67,1,0.009000000000000001,21.43047898338302,19.521016617790814
21.45000000000081,72,78,3,0.009000000000000001,21.432199413490544,17.80058651026393
21.45000000000081,57,79,2,0.009000000000000001,21.43235581622759,17.64418377321603
21.45000000000081,36,96,0,0.009000000000000001,21.435014662757407,14.985337243401759
21.46000000000081,70,65,3,0.009000000000000001,21.440166177908925,19.83382209188661
21.46000000000081,39,85,0,0.009000000000000001,21.443294232649883,16.705767350928642
21.46000000000081,47,85,1,0.009000000000000001,21.443294232649883,16.705767350928642
21.46000000000081,58,89,2,0.009000000000000001,21.443919843598074,16.080156402737046
21.470000000000812,45,68,1,0.009000000000000001,21.45063538612007,19.364613880742915
21.470000000000812,59,81,2,0.009000000000000001,21.452668621701694,17.331378299120235
21.470000000000812,70,81,3,0.009000000000000001,21.452668621701694,17.331378299120235
21.470000000000812,34,99,0,0.009000000000000001,21.455483870968553,14.516129032258064
21.480000000000814,61,84,2,0.009000000000000001,21.46313782991284,16.86217008797654
21.480000000000814,74,90,3,0.009000000000000001,21.464076246335125,15.923753665689148
21.480000000000814,48,96,1,0.009000000000000001,21.46501466275741,14.985337243401759
21.480000000000814,38,97,0,0.009000000000000001,21.46517106549446,14.82893450635386
21.490000000000816,46,62,1,0.009000000000000001,21.469696969697786,20.303030303030305
21.490000000000816,73,93,3,0.009000000000000001,21.47454545454627,15.454545454545453
21.490000000000816,39,96,0,0.009000000000000001,21.475014662757413,14.985337243401759
21.490000000000816,62,99,2,0.009000000000000001,21.475483870968556,14.516129032258064
21.500000000000817,73,69,3,0.009000000000000001,21.480791788857122,19.208211143695017
21.500000000000817,60,73,2,0.009000000000000001,21.481417399805313,18.58260019550342
21.500000000000817,35,88,0,0.009000000000000001,21.483763440861033,16.236559139784944
21.500000000000817,47,91,1,0.009000000000000001,21.484232649072176,15.76735092864125
21.51000000000082,62,69,2,0.009000000000000001,21.490791788857123,19.208211143695017
21.51000000000082,48,82,1,0.009000000000000001,21.492825024438748,17.174975562072337
21.51000000000082,70,86,3,0.009000000000000001,21.49345063538694,16.549364613880744
21.51000000000082,38,98,0,0.009000000000000001,21.495327468231512,14.672531769305962
21.52000000000082,61,77,2,0.009000000000000001,21.502043010753507,17.956989247311828
21.52000000000082,45,88,1,0.009000000000000001,21.503763440861036,16.236559139784944
21.52000000000082,35,90,0,0.009000000000000001,21.50407624633513,15.923753665689148
21.52000000000082,70,99,3,0.009000000000000001,21.50548387096856,14.516129032258064
21.530000000000822,72,65,3,0.009000000000000001,21.510166177908935,19.83382209188661
21.530000000000822,62,71,2,0.009000000000000001,21.511104594331222,18.89540566959922
21.530000000000822,32,84,0,0.009000000000000001,21.513137829912846,16.86217008797654
21.530000000000822,44,95,1,0.009000000000000001,21.51485826002037,15.141739980449657
21.540000000000823,34,67,0,0.009000000000000001,21.520478983383033,19.521016617790814
21.540000000000823,71,69,3,0.009000000000000001,21.520791788857128,19.208211143695017
21.540000000000823,60,87,2,0.009000000000000001,21.52360703812399,16.392961876832846
21.540000000000823,46,91,1,0.009000000000000001,21.524232649072182,15.76735092864125
21.550000000000825,50,68,1,0.009000000000000001,21.530635386120082,19.364613880742915
21.550000000000825,72,72,3,0.009000000000000001,21.531260997068273,18.73900293255132
21.550000000000825,37,80,0,0.009000000000000001,21.53251221896466,17.487781036168133
21.550000000000825,61,86,2,0.009000000000000001,21.533450635386945,16.549364613880744
21.560000000000827,37,85,0,0.009000000000000001,21.5432942326499,16.705767350928642
21.560000000000827,59,90,2,0.009000000000000001,21.544076246335138,15.923753665689148
21.560000000000827,47,93,1,0.009000000000000001,21.54454545454628,15.454545454545453
21.560000000000827,71,95,3,0.009000000000000001,21.544858260020376,15.141739980449657
21.570000000000828,39,65,0,0.009000000000000001,21.55016617790894,19.83382209188661
21.570000000000828,62,73,2,0.009000000000000001,21.551417399805324,18.58260019550342
21.570000000000828,72,75,3,0.009000000000000001,21.55173020527942,18.269794721407624
21.570000000000828,46,76,1,0.009000000000000001,21.551886608016467,18.113391984359726
21.58000000000083,47,65,1,0.009000000000000001,21.560166177908943,19.83382209188661
21.58000000000083,71,68,3,0.009000000000000001,21.560635386120087,19.364613880742915
21.58000000000083,33,89,0,0.009000000000000001,21.563919843598093,16.080156402737046
21.58000000000083,59,91,2,0.009000000000000001,21.56423264907219,15.76735092864125
21.59000000000083,35,83,0,0.009000000000000001,21.572981427175808,17.01857282502444
21.59000000000083,51,90,1,0.009000000000000001,21.574076246335142,15.923753665689148
21.59000000000083,60,90,2,0.009000000000000001,21.574076246335142,15.923753665689148
21.59000000000083,68,96,3,0.009000000000000001,21.57501466275743,14.985337243401759
21.600000000000833,39,73,0,0.009000000000000001,21.58141739980533,18.58260019550342
21.600000000000833,45,74,1,0.009000000000000001,21.581573802542376,18.426197458455523
21.600000000000833,60,85,2,0.009000000000000001,21.583294232649905,16.705767350928642
21.600000000000833,72,94,3,0.009000000000000001,21.584701857283335,15.298142717497555
21.610000000000834,39,65,0,0.009000000000000001,21.590166177908948,19.83382209188661
21.610000000000834,60,69,2,0.009000000000000001,21.59079178885714,19.208211143695017
21.610000000000834,74,88,3,0.009000000000000001,21.59376344086105,16.236559139784944
21.610000000000834,49,98,1,0.009000000000000001,21.595327468231527,14.672531769305962
21.620000000000836,32,83,0,0.009000000000000001,21.602981427175813,17.01857282502444
21.620000000000836,48,86,1,0.009000000000000001,21.603450635386956,16.549364613880744
21.620000000000836,58,90,2,0.009000000000000001,21.604076246335147,15.923753665689148
21.620000000000836,70,93,3,0.009000000000000001,21.60454545454629,15.454545454545453
21.630000000000837,34,70,0,0.009000000000000001,21.61094819159419,19.05180840664712
21.630000000000837,47,70,1,0.009000000000000001,21.61094819159419,19.05180840664712
21.630000000000837,59,83,2,0.009000000000000001,21.612981427175814,17.01857282502444
21.630000000000837,72,95,3,0.009000000000000001,21.614858260020387,15.141739980449657
21.64000000000084,51,64,1,0.009000000000000001,21.620009775171905,19.990224828934508
21.64000000000084,61,65,2,0.009000000000000001,21.620166177908953,19.83382209188661
21.64000000000084,34,68,0,0.009000000000000001,21.620635386120096,19.364613880742915
21.64000000000084,73,95,3,0.009000000000000001,21.62485826002039,15.141739980449657
21.65000000000084,33,77,0,0.009000000000000001,21.632043010753527,17.956989247311828
21.65000000000084,59,77,2,0.009000000000000001,21.632043010753527,17.956989247311828
21.65000000000084,51,88,1,0.009000000000000001,21.633763440861056,16.236559139784944
21.65000000000084,71,94,3,0.009000000000000001,21.634701857283343,15.298142717497555
21.660000000000842,48,64,1,0.009000000000000001,21.640009775171908,19.990224828934508
21.660000000000842,60,64,2,0.009000000000000001,21.640009775171908,19.990224828934508
21.660000000000842,36,66,0,0.009000000000000001,21.640322580646004,19.67741935483871
21.660000000000842,69,77,3,0.009000000000000001,21.64204301075353,17.956989247311828
21.670000000000844,36,74,0,0.009000000000000001,21.651573802542387,18.426197458455523
21.670000000000844,55,78,2,0.009000000000000001,21.652199413490578,17.80058651026393
21.670000000000844,72,91,3,0.009000000000000001,21.654232649072203,15.76735092864125
21.670000000000844,46,92,1,0.009000000000000001,21.65438905180925,15.610948191593351
21.680000000000845,76,68,3,0.009000000000000001,21.660635386120102,19.364613880742915
21.680000000000845,48,77,1,0.009000000000000001,21.662043010753532,17.956989247311828
21.680000000000845,59,91,2,0.009000000000000001,21.664232649072204,15.76735092864125
21.680000000000845,33,96,0,0.009000000000000001,21.665014662757443,14.985337243401759
21.690000000000847,48,68,1,0.009000000000000001,21.670635386120104,19.364613880742915
21.690000000000847,56,78,2,0.009000000000000001,21.67219941349058,17.80058651026393
21.690000000000847,71,86,3,0.009000000000000001,21.673450635386967,16.549364613880744
21.690000000000847,37,88,0,0.009000000000000001,21.673763440861062,16.236559139784944
21.70000000000085,35,65,0,0.009000000000000001,21.680166177908962,19.83382209188661
21.70000000000085,67,66,3,0.009000000000000001,21.68032258064601,19.67741935483871
21.70000000000085,60,67,2,0.009000000000000001,21.680478983383058,19.521016617790814
21.70000000000085,49,87,1,0.009000000000000001,21.683607038124016,16.392961876832846
21.71000000000085,73,65,3,0.009000000000000001,21.690166177908964,19.83382209188661
21.71000000000085,35,69,0,0.009000000000000001,21.690791788857155,19.208211143695017
21.71000000000085,49,74,1,0.009000000000000001,21.691573802542393,18.426197458455523
21.71000000000085,57,94,2,0.009000000000000001,21.694701857283352,15.298142717497555
21.72000000000085,73,65,3,0.009000000000000001,21.700166177908965,19.83382209188661
21.72000000000085,38,67,0,0.009000000000000001,21.70047898338306,19.521016617790814
21.72000000000085,47,75,1,0.009000000000000001,21.701730205279443,18.269794721407624
21.72000000000085,59,82,2,0.009000000000000001,21.70282502443878,17.174975562072337
21.730000000000853,34,63,0,0.009000000000000001,21.70985337243487,20.146627565982406
21.730000000000853,66,72,3,0.009000000000000001,21.7112609970683,18.73900293255132
21.730000000000853,47,80,1,0.009000000000000001,21.712512218964687,17.487781036168133
21.730000000000853,60,80,2,0.009000000000000001,21.712512218964687,17.487781036168133
21.740000000000855,48,72,1,0.009000000000000001,21.721260997068303,18.73900293255132
21.740000000000855,35,74,0,0.009000000000000001,21.721573802542398,18.426197458455523
21.740000000000855,60,89,2,0.009000000000000001,21.723919843598118,16.080156402737046
21.740000000000855,73,89,3,0.009000000000000001,21.723919843598118,16.080156402737046
21.750000000000856,73,72,3,0.009000000000000001,21.731260997068304,18.73900293255132
21.750000000000856,37,82,0,0.009000000000000001,21.732825024438785,17.174975562072337
21.750000000000856,44,86,1,0.009000000000000001,21.733450635386976,16.549364613880744
21.750000000000856,60,93,2,0.009000000000000001,21.73454545454631,15.454545454545453
21.760000000000858,50,69,1,0.009000000000000001,21.740791788857162,19.208211143695017
21.760000000000858,62,75,2,0.009000000000000001,21.74173020527945,18.269794721407624
21.760000000000858,32,89,0,0.009000000000000001,21.74391984359812,16.080156402737046
21.760000000000858,71,94,3,0.009000000000000001,21.74470185728336,15.298142717497555
21.77000000000086,63,78,2,0.009000000000000001,21.752199413490594,17.80058651026393
21.77000000000086,72,88,3,0.009000000000000001,21.753763440861075,16.236559139784944
21.77000000000086,48,90,1,0.009000000000000001,21.75407624633517,15.923753665689148
21.77000000000086,34,92,0,0.009000000000000001,21.754389051809266,15.610948191593351
21.78000000000086,44,63,1,0.009000000000000001,21.75985337243488,20.146627565982406
21.78000000000086,68,85,3,0.009000000000000001,21.763294232649933,16.705767350928642
21.78000000000086,56,87,2,0.009000000000000001,21.76360703812403,16.392961876832846
21.78000000000086,37,88,0,0.009000000000000001,21.763763440861077,16.236559139784944
21.790000000000862,37,69,0,0.009000000000000001,21.770791788857167,19.208211143695017
21.790000000000862,70,71,3,0.009000000000000001,21.771104594331263,18.89540566959922
21.790000000000862,64,76,2,0.009000000000000001,21.7718866080165,18.113391984359726
21.790000000000862,46,91,1,0.009000000000000001,21.77423264907222,15.76735092864125
21.800000000000864,57,83,2,0.009000000000000001,21.78298142717584,17.01857282502444
21.800000000000864,34,89,0,0.009000000000000001,21.783919843598127,16.080156402737046
21.800000000000864,48,89,1,0.009000000000000001,21.783919843598127,16.080156402737046
21.800000000000864,76,90,3,0.009000000000000001,21.784076246335175,15.923753665689148
21.810000000000866,37,66,0,0.009000000000000001,21.790322580646027,19.67741935483871
21.810000000000866,69,70,3,0.009000000000000001,21.790948191594218,19.05180840664712
21.810000000000866,48,75,1,0.009000000000000001,21.791730205279457,18.269794721407624
21.810000000000866,62,93,2,0.009000000000000001,21.79454545454632,15.454545454545453
21.820000000000867,32,63,0,0.009000000000000001,21.799853372434885,20.146627565982406
21.820000000000867,47,66,1,0.009000000000000001,21.80032258064603,19.67741935483871
21.820000000000867,74,70,3,0.009000000000000001,21.80094819159422,19.05180840664712
21.820000000000867,58,90,2,0.009000000000000001,21.80407624633518,15.923753665689148
21.83000000000087,62,78,2,0.009000000000000001,21.812199413490603,17.80058651026393
21.83000000000087,73,83,3,0.009000000000000001,21.812981427175846,17.01857282502444
21.83000000000087,44,86,1,0.009000000000000001,21.81345063538699,16.549364613880744
21.83000000000087,33,95,0,0.009000000000000001,21.81485826002042,15.141739980449657
21.84000000000087,71,65,3,0.009000000000000001,21.820166177908984,19.83382209188661
21.84000000000087,58,70,2,0.009000000000000001,21.820948191594223,19.05180840664712
21.84000000000087,38,87,0,0.009000000000000001,21.823607038124038,16.392961876832846
21.84000000000087,49,96,1,0.009000000000000001,21.825014662757468,14.985337243401759
21.850000000000872,71,63,3,0.009000000000000001,21.82985337243489,20.146627565982406
21.850000000000872,62,71,2,0.009000000000000001,21.831104594331272,18.89540566959922
21.850000000000872,37,75,0,0.009000000000000001,21.831730205279463,18.269794721407624
21.850000000000872,48,98,1,0.009000000000000001,21.835327468231565,14.672531769305962
21.860000000000873,75,64,3,0.009000000000000001,21.84000977517194,19.990224828934508
21.860000000000873,33,68,0,0.009000000000000001,21.84063538612013,19.364613880742915
21.860000000000873,48,74,1,0.009000000000000001,21.841573802542417,18.426197458455523
21.860000000000873,61,83,2,0.009000000000000001,21.84298142717585,17.01857282502444
21.870000000000875,71,72,3,0.009000000000000001,21.851260997068323,18.73900293255132
21.870000000000875,36,74,0,0.009000000000000001,21.85157380254242,18.426197458455523
21.870000000000875,60,81,2,0.009000000000000001,21.852668621701756,17.331378299120235
21.870000000000875,47,89,1,0.009000000000000001,21.85391984359814,16.080156402737046
21.880000000000877,58,67,2,0.009000000000000001,21.860478983383086,19.521016617790814
21.880000000000877,69,71,3,0.009000000000000001,21.861104594331277,18.89540566959922
21.880000000000877,48,80,1,0.009000000000000001,21.86251221896471,17.487781036168133
21.880000000000877,38,91,0,0.009000000000000001,21.864232649072235,15.76735092864125
21.890000000000878,48,66,1,0.009000000000000001,21.87032258064604,19.67741935483871
21.890000000000878,76,72,3,0.009000000000000001,21.871260997068326,18.73900293255132
21.890000000000878,39,82,0,0.009000000000000001,21.872825024438807,17.174975562072337
21.890000000000878,59,83,2,0.009000000000000001,21.872981427175855,17.01857282502444
21.90000000000088,56,71,2,0.009000000000000001,21.88110459433128,18.89540566959922
21.90000000000088,46,74,1,0.009000000000000001,21.881573802542423,18.426197458455523
21.90000000000088,72,91,3,0.009000000000000001,21.88423264907224,15.76735092864125
21.90000000000088,35,97,0,0.009000000000000001,21.885171065494525,14.82893450635386
21.91000000000088,70,84,3,0.009000000000000001,21.893137829912906,16.86217008797654
21.91000000000088,52,85,1,0.009000000000000001,21.893294232649954,16.705767350928642
21.91000000000088,58,91,2,0.009000000000000001,21.89423264907224,15.76735092864125
21.91000000000088,36,94,0,0.009000000000000001,21.894701857283383,15.298142717497555
21.920000000000883,47,87,1,0.009000000000000001,21.90360703812405,16.392961876832846
21.920000000000883,58,89,2,0.009000000000000001,21.903919843598146,16.080156402737046
21.920000000000883,69,89,3,0.009000000000000001,21.903919843598146,16.080156402737046
21.920000000000883,36,93,0,0.009000000000000001,21.904545454546337,15.454545454545453
21.930000000000884,71,66,3,0.009000000000000001,21.910322580646046,19.67741935483871
21.930000000000884,60,72,2,0.009000000000000001,21.911260997068332,18.73900293255132
21.930000000000884,33,90,0,0.009000000000000001,21.914076246335195,15.923753665689148
21.930000000000884,49,90,1,0.009000000000000001,21.914076246335195,15.923753665689148
21.940000000000886,73,63,3,0.009000000000000001,21.919853372434904,20.146627565982406
21.940000000000886,51,64,1,0.009000000000000001,21.920009775171952,19.990224828934508
21.940000000000886,63,67,2,0.009000000000000001,21.920478983383095,19.521016617790814
21.940000000000886,35,71,0,0.009000000000000001,21.921104594331286,18.89540566959922
21.950000000000887,69,82,3,0.009000000000000001,21.932825024438817,17.174975562072337
21.950000000000887,32,83,0,0.009000000000000001,21.932981427175864,17.01857282502444
21.950000000000887,60,89,2,0.009000000000000001,21.93391984359815,16.080156402737046
21.950000000000887,48,95,1,0.009000000000000001,21.934858260020437,15.141739980449657
21.96000000000089,60,75,2,0.009000000000000001,21.94173020527948,18.269794721407624
21.96000000000089,50,77,1,0.009000000000000001,21.942043010753576,17.956989247311828
21.96000000000089,34,86,0,0.009000000000000001,21.94345063538701,16.549364613880744
21.96000000000089,72,97,3,0.009000000000000001,21.945171065494534,14.82893450635386
21.97000000000089,36,66,0,0.009000000000000001,21.950322580646052,19.67741935483871
21.97000000000089,60,73,2,0.009000000000000001,21.951417399805386,18.58260019550342
21.97000000000089,70,78,3,0.009000000000000001,21.952199413490625,17.80058651026393
21.97000000000089,45,96,1,0.009000000000000001,21.95501466275749,14.985337243401759
21.980000000000892,58,87,2,0.009000000000000001,21.96360703812406,16.392961876832846
21.980000000000892,71,96,3,0.009000000000000001,21.96501466275749,14.985337243401759
21.980000000000892,35,97,0,0.009000000000000001,21.965171065494538,14.82893450635386
21.980000000000892,47,98,1,0.009000000000000001,21.965327468231585,14.672531769305962
21.990000000000894,60,64,2,0.009000000000000001,21.97000977517196,19.990224828934508
21.990000000000894,73,77,3,0.009000000000000001,21.97204301075358,17.956989247311828
21.990000000000894,32,85,0,0.009000000000000001,21.973294232649966,16.705767350928642
21.990000000000894,50,91,1,0.009000000000000001,21.974232649072253,15.76735092864125
22.0,92,79,2,0.022500000000000003,21.982355816226782,17.64418377321603
22.0,46,87,0,0.022500000000000003,21.983607038123168,16.392961876832846
22.0,34,89,3,0.022500000000000003,21.983919843597263,16.080156402737046
22.0,35,91,1,0.022500000000000003,21.98423264907136,15.76735092864125
22.025,77,76,0,0.022500000000000003,22.006886608015638,18.113391984359726
22.025,50,80,3,0.022500000000000003,22.007512218963832,17.487781036168133
22.025,41,83,2,0.022500000000000003,22.007981427174975,17.01857282502444
22.025,69,97,1,0.022500000000000003,22.010171065493644,14.82893450635386
22.049999999999997,67,81,0,0.022500000000000003,22.03266862170088,17.331378299120235
22.049999999999997,83,82,1,0.022500000000000003,22.032825024437926,17.174975562072337
22.049999999999997,77,86,2,0.022500000000000003,22.033450635386117,16.549364613880744
22.049999999999997,30,86,3,0.022500000000000003,22.033450635386117,16.549364613880744
22.074999999999996,93,84,3,0.022500000000000003,22.05813782991202,16.86217008797654
22.074999999999996,59,86,1,0.022500000000000003,22.058450635386116,16.549364613880744
22.074999999999996,35,87,2,0.022500000000000003,22.058607038123164,16.392961876832846
22.074999999999996,66,89,0,0.022500000000000003,22.05891984359726,16.080156402737046
22.099999999999994,39,83,0,0.022500000000000003,22.08298142717497,17.01857282502444
22.099999999999994,75,83,3,0.022500000000000003,22.08298142717497,17.01857282502444
22.099999999999994,61,85,1,0.022500000000000003,22.083294232649067,16.705767350928642
22.099999999999994,64,88,2,0.022500000000000003,22.08376344086021,16.236559139784944
22.124999999999993,29,86,1,0.022500000000000003,22.108450635386113,16.549364613880744
22.124999999999993,34,87,2,0.022500000000000003,22.10860703812316,16.392961876832846
22.124999999999993,45,91,0,0.022500000000000003,22.10923264907135,15.76735092864125
22.124999999999993,87,91,3,0.022500000000000003,22.10923264907135,15.76735092864125
22.14999999999999,24,83,2,0.022500000000000003,22.13298142717497,17.01857282502444
22.14999999999999,89,84,3,0.022500000000000003,22.133137829912016,16.86217008797654
22.14999999999999,85,85,1,0.022500000000000003,22.133294232649064,16.705767350928642
22.14999999999999,30,86,0,0.022500000000000003,22.13345063538611,16.549364613880744
22.17499999999999,30,89,0,0.022500000000000003,22.158919843597253,16.080156402737046
22.17499999999999,80,89,2,0.022500000000000003,22.158919843597253,16.080156402737046
22.17499999999999,69,92,1,0.022500000000000003,22.159389051808397,15.610948191593351
22.17499999999999,74,102,3,0.022500000000000003,22.160953079178874,14.04692082111437
22.19999999999999,42,79,0,0.022500000000000003,22.18235581622677,17.64418377321603
22.19999999999999,39,91,2,0.022500000000000003,22.184232649071348,15.76735092864125
22.19999999999999,71,92,1,0.022500000000000003,22.184389051808395,15.610948191593351
22.19999999999999,45,95,3,0.022500000000000003,22.18485826001954,15.141739980449657
22.224999999999987,57,84,0,0.022500000000000003,22.208137829912012,16.86217008797654
22.224999999999987,83,85,3,0.022500000000000003,22.20829423264906,16.705767350928642
22.224999999999987,41,86,2,0.022500000000000003,22.208450635386107,16.549364613880744
22.224999999999987,67,97,1,0.022500000000000003,22.210171065493633,14.82893450635386
22.249999999999986,32,77,2,0.022500000000000003,22.232043010752673,17.956989247311828
22.249999999999986,94,81,0,0.022500000000000003,22.232668621700867,17.331378299120235
22.249999999999986,67,89,1,0.022500000000000003,22.23391984359725,16.080156402737046
22.249999999999986,76,94,3,0.022500000000000003,22.234701857282488,15.298142717497555
22.274999999999984,95,80,3,0.022500000000000003,22.257512218963818,17.487781036168133
22.274999999999984,59,82,1,0.022500000000000003,22.257825024437913,17.174975562072337
22.274999999999984,35,86,2,0.022500000000000003,22.258450635386104,16.549364613880744
22.274999999999984,92,92,0,0.022500000000000003,22.25938905180839,15.610948191593351
22.299999999999983,47,86,2,0.022500000000000003,22.283450635386103,16.549364613880744
22.299999999999983,54,88,0,0.022500000000000003,22.2837634408602,16.236559139784944
22.299999999999983,26,92,1,0.022500000000000003,22.28438905180839,15.610948191593351
22.299999999999983,51,96,3,0.022500000000000003,22.28501466275658,14.985337243401759
22.32499999999998,88,84,1,0.022500000000000003,22.308137829912006,16.86217008797654
22.32499999999998,61,87,0,0.022500000000000003,22.30860703812315,16.392961876832846
22.32499999999998,28,87,2,0.022500000000000003,22.30860703812315,16.392961876832846
22.32499999999998,75,88,3,0.022500000000000003,22.308763440860197,16.236559139784944
22.34999999999998,60,85,3,0.022500000000000003,22.333294232649052,16.705767350928642
22.34999999999998,37,87,1,0.022500000000000003,22.333607038123148,16.392961876832846
22.34999999999998,36,87,2,0.022500000000000003,22.333607038123148,16.392961876832846
22.34999999999998,36,97,0,0.022500000000000003,22.335171065493626,14.82893450635386
22.37499999999998,64,77,1,0.022500000000000003,22.357043010752665,17.956989247311828
22.37499999999998,61,84,3,0.022500000000000003,22.358137829912003,16.86217008797654
22.37499999999998,74,90,0,0.022500000000000003,22.35907624633429,15.923753665689148
22.37499999999998,46,98,2,0.022500000000000003,22.360327468230672,14.672531769305962
22.399999999999977,41,82,3,0.022500000000000003,22.382825024437906,17.174975562072337
22.399999999999977,94,88,1,0.022500000000000003,22.383763440860193,16.236559139784944
22.399999999999977,77,93,0,0.022500000000000003,22.38454545454543,15.454545454545453
22.399999999999977,55,97,2,0.022500000000000003,22.385171065493623,14.82893450635386
22.424999999999976,83,84,3,0.022500000000000003,22.408137829912,16.86217008797654
22.424999999999976,93,90,2,0.022500000000000003,22.409076246334287,15.923753665689148
22.424999999999976,78,92,1,0.022500000000000003,22.409389051808382,15.610948191593351
22.424999999999976,81,102,0,0.022500000000000003,22.41095307917886,14.04692082111437
22.449999999999974,95,87,2,0.022500000000000003,22.433607038123142,16.392961876832846
22.449999999999974,58,88,3,0.022500000000000003,22.43376344086019,16.236559139784944
22.449999999999974,30,96,0,0.022500000000000003,22.435014662756572,14.985337243401759
22.449999999999974,79,97,1,0.022500000000000003,22.43517106549362,14.82893450635386
22.474999999999973,53,78,0,0.022500000000000003,22.457199413489707,17.80058651026393
22.474999999999973,32,86,1,0.022500000000000003,22.458450635386093,16.549364613880744
22.474999999999973,27,86,2,0.022500000000000003,22.458450635386093,16.549364613880744
22.474999999999973,53,98,3,0.022500000000000003,22.460327468230666,14.672531769305962
22.49999999999997,54,78,3,0.022500000000000003,22.482199413489706,17.80058651026393
22.49999999999997,49,80,2,0.022500000000000003,22.482512218963805,17.487781036168133
22.49999999999997,39,92,1,0.022500000000000003,22.484389051808378,15.610948191593351
22.49999999999997,76,97,0,0.022500000000000003,22.485171065493617,14.82893450635386
22.52499999999997,89,85,1,0.022500000000000003,22.508294232649042,16.705767350928642
22.52499999999997,24,87,3,0.022500000000000003,22.508607038123138,16.392961876832846
22.52499999999997,80,89,0,0.022500000000000003,22.508919843597234,16.080156402737046
22.52499999999997,79,94,2,0.022500000000000003,22.509701857282472,15.298142717497555
22.54999999999997,78,81,2,0.022500000000000003,22.53266862170085,17.331378299120235
22.54999999999997,60,82,0,0.022500000000000003,22.532825024437898,17.174975562072337
22.54999999999997,89,88,1,0.022500000000000003,22.533763440860184,16.236559139784944
22.54999999999997,64,94,3,0.022500000000000003,22.53470185728247,15.298142717497555
22.574999999999967,85,84,3,0.022500000000000003,22.558137829911992,16.86217008797654
22.574999999999967,50,90,0,0.022500000000000003,22.55907624633428,15.923753665689148
22.574999999999967,52,91,2,0.022500000000000003,22.559232649071326,15.76735092864125
22.574999999999967,89,101,1,0.022500000000000003,22.560796676441804,14.203323558162268
22.599999999999966,79,75,1,0.022500000000000003,22.581730205278557,18.269794721407624
22.599999999999966,73,88,2,0.022500000000000003,22.58376344086018,16.236559139784944
22.599999999999966,75,90,3,0.022500000000000003,22.584076246334277,15.923753665689148
22.599999999999966,79,92,0,0.022500000000000003,22.584389051808373,15.610948191593351
22.624999999999964,32,84,0,0.022500000000000003,22.60813782991199,16.86217008797654
22.624999999999964,35,88,3,0.022500000000000003,22.60876344086018,16.236559139784944
22.624999999999964,36,91,2,0.022500000000000003,22.609232649071323,15.76735092864125
22.624999999999964,60,94,1,0.022500000000000003,22.609701857282467,15.298142717497555
22.649999999999963,40,72,0,0.022500000000000003,22.63126099706741,18.73900293255132
22.649999999999963,38,85,2,0.022500000000000003,22.633294232649035,16.705767350928642
22.649999999999963,49,88,3,0.022500000000000003,22.63376344086018,16.236559139784944
22.649999999999963,32,89,1,0.022500000000000003,22.633919843597226,16.080156402737046
22.67499999999996,55,79,0,0.022500000000000003,22.657355816226744,17.64418377321603
22.67499999999996,94,82,2,0.022500000000000003,22.65782502443789,17.174975562072337
22.67499999999996,89,91,1,0.022500000000000003,22.65923264907132,15.76735092864125
22.67499999999996,78,92,3,0.022500000000000003,22.65938905180837,15.610948191593351
22.69999999999996,69,84,3,0.022500000000000003,22.683137829911985,16.86217008797654
22.69999999999996,49,86,0,0.022500000000000003,22.68345063538608,16.549364613880744
22.69999999999996,61,89,1,0.022500000000000003,22.683919843597224,16.080156402737046
22.69999999999996,82,91,2,0.022500000000000003,22.68423264907132,15.76735092864125
22.72499999999996,54,79,2,0.022500000000000003,22.70735581622674,17.64418377321603
22.72499999999996,47,82,0,0.022500000000000003,22.707825024437888,17.174975562072337
22.72499999999996,64,92,1,0.022500000000000003,22.709389051808365,15.610948191593351
22.72499999999996,26,92,3,0.022500000000000003,22.709389051808365,15.610948191593351
22.749999999999957,47,73,1,0.022500000000000003,22.731417399804453,18.58260019550342
22.749999999999957,58,85,3,0.022500000000000003,22.73329423264903,16.705767350928642
22.749999999999957,75,87,0,0.022500000000000003,22.733607038123125,16.392961876832846
22.749999999999957,61,91,2,0.022500000000000003,22.734232649071316,15.76735092864125
22.774999999999956,24,87,2,0.022500000000000003,22.758607038123124,16.392961876832846
22.774999999999956,69,89,0,0.022500000000000003,22.75891984359722,16.080156402737046
22.774999999999956,68,90,3,0.022500000000000003,22.759076246334267,15.923753665689148
22.774999999999956,40,99,1,0.022500000000000003,22.760483870967697,14.516129032258064
22.799999999999955,27,82,0,0.022500000000000003,22.782825024437884,17.174975562072337
22.799999999999955,50,88,2,0.022500000000000003,22.78376344086017,16.236559139784944
22.799999999999955,52,98,3,0.022500000000000003,22.785327468230648,14.672531769305962
22.799999999999955,94,105,1,0.022500000000000003,22.786422287389986,13.577712609970675
22.824999999999953,85,86,3,0.022500000000000003,22.808450635386073,16.549364613880744
22.824999999999953,63,91,1,0.022500000000000003,22.809232649071312,15.76735092864125
22.824999999999953,34,98,2,0.022500000000000003,22.810327468230646,14.672531769305962
22.824999999999953,32,100,0,0.022500000000000003,22.810640273704742,14.359726295210166
22.84999999999995,51,89,2,0.022500000000000003,22.833919843597215,16.080156402737046
22.84999999999995,89,91,0,0.022500000000000003,22.83423264907131,15.76735092864125
22.84999999999995,70,91,1,0.022500000000000003,22.83423264907131,15.76735092864125
22.84999999999995,52,94,3,0.022500000000000003,22.834701857282454,15.298142717497555
22.87499999999995,44,83,2,0.022500000000000003,22.857981427174927,17.01857282502444
22.87499999999995,78,87,0,0.022500000000000003,22.858607038123118,16.392961876832846
22.87499999999995,43,88,1,0.022500000000000003,22.858763440860166,16.236559139784944
22.87499999999995,39,88,3,0.022500000000000003,22.858763440860166,16.236559139784944
22.89999999999995,37,76,2,0.022500000000000003,22.881886608015588,18.113391984359726
22.89999999999995,43,87,3,0.022500000000000003,22.883607038123117,16.392961876832846
22.89999999999995,89,94,1,0.022500000000000003,22.88470185728245,15.298142717497555
22.89999999999995,67,102,0,0.022500000000000003,22.885953079178833,14.04692082111437
22.924999999999947,52,74,0,0.022500000000000003,22.90657380254149,18.426197458455523
22.924999999999947,27,85,1,0.022500000000000003,22.90829423264902,16.705767350928642
22.924999999999947,59,86,2,0.022500000000000003,22.908450635386068,16.549364613880744
22.924999999999947,59,98,3,0.022500000000000003,22.91032746823064,14.672531769305962
22.949999999999946,32,79,2,0.022500000000000003,22.93235581622673,17.64418377321603
22.949999999999946,37,80,3,0.022500000000000003,22.93251221896378,17.487781036168133
22.949999999999946,81,81,0,0.022500000000000003,22.932668621700827,17.331378299120235
22.949999999999946,40,81,1,0.022500000000000003,22.932668621700827,17.331378299120235
22.974999999999945,29,81,0,0.022500000000000003,22.957668621700826,17.331378299120235
22.974999999999945,63,84,3,0.022500000000000003,22.95813782991197,16.86217008797654
22.974999999999945,59,87,1,0.022500000000000003,22.958607038123112,16.392961876832846
22.974999999999945,57,88,2,0.022500000000000003,22.95876344086016,16.236559139784944
22.999999999999943,35,77,2,0.022500000000000003,22.98204301075263,17.956989247311828
22.999999999999943,77,81,0,0.022500000000000003,22.982668621700824,17.331378299120235
22.999999999999943,63,86,3,0.022500000000000003,22.983450635386063,16.549364613880744
22.999999999999943,91,87,1,0.022500000000000003,22.98360703812311,16.392961876832846
23.02499999999994,73,83,2,0.022500000000000003,23.00798142717492,17.01857282502444
23.02499999999994,62,84,0,0.022500000000000003,23.008137829911966,16.86217008797654
23.02499999999994,65,91,1,0.022500000000000003,23.0092326490713,15.76735092864125
23.02499999999994,86,94,3,0.022500000000000003,23.009701857282444,15.298142717497555
23.04999999999994,91,79,0,0.022500000000000003,23.032355816226723,17.64418377321603
23.04999999999994,78,81,1,0.022500000000000003,23.03266862170082,17.331378299120235
23.04999999999994,58,85,2,0.022500000000000003,23.033294232649013,16.705767350928642
23.04999999999994,35,88,3,0.022500000000000003,23.033763440860156,16.236559139784944
23.07499999999994,49,81,1,0.022500000000000003,23.05766862170082,17.331378299120235
23.07499999999994,75,82,2,0.022500000000000003,23.057825024437868,17.174975562072337
23.07499999999994,26,84,3,0.022500000000000003,23.058137829911963,16.86217008797654
23.07499999999994,59,85,0,0.022500000000000003,23.05829423264901,16.705767350928642
23.099999999999937,27,75,1,0.022500000000000003,23.08173020527853,18.269794721407624
23.099999999999937,29,82,2,0.022500000000000003,23.082825024437867,17.174975562072337
23.099999999999937,65,86,0,0.022500000000000003,23.083450635386058,16.549364613880744
23.099999999999937,80,90,3,0.022500000000000003,23.08407624633425,15.923753665689148
23.124999999999936,71,69,0,0.022500000000000003,23.10579178885624,19.208211143695017
23.124999999999936,52,81,1,0.022500000000000003,23.107668621700817,17.331378299120235
23.124999999999936,89,84,2,0.022500000000000003,23.10813782991196,16.86217008797654
23.124999999999936,76,98,3,0.022500000000000003,23.11032746823063,14.672531769305962
23.149999999999935,49,73,2,0.022500000000000003,23.13141739980443,18.58260019550342
23.149999999999935,34,81,1,0.022500000000000003,23.132668621700816,17.331378299120235
23.149999999999935,38,89,3,0.022500000000000003,23.133919843597198,16.080156402737046
23.149999999999935,50,91,0,0.022500000000000003,23.134232649071294,15.76735092864125
23.174999999999933,56,79,1,0.022500000000000003,23.157355816226715,17.64418377321603
23.174999999999933,43,84,2,0.022500000000000003,23.158137829911958,16.86217008797654
23.174999999999933,59,85,3,0.022500000000000003,23.158294232649006,16.705767350928642
23.174999999999933,37,91,0,0.022500000000000003,23.159232649071292,15.76735092864125
23.199999999999932,28,84,3,0.022500000000000003,23.183137829911956,16.86217008797654
23.199999999999932,44,85,1,0.022500000000000003,23.183294232649004,16.705767350928642
23.199999999999932,92,86,2,0.022500000000000003,23.183450635386052,16.549364613880744
23.199999999999932,55,88,0,0.022500000000000003,23.183763440860147,16.236559139784944
23.22499999999993,31,79,3,0.022500000000000003,23.207355816226713,17.64418377321603
23.22499999999993,28,80,1,0.022500000000000003,23.207512218963764,17.487781036168133
23.22499999999993,69,85,0,0.022500000000000003,23.208294232649003,16.705767350928642
23.22499999999993,74,88,2,0.022500000000000003,23.208763440860146,16.236559139784944
23.24999999999993,61,83,1,0.022500000000000003,23.232981427174906,17.01857282502444
23.24999999999993,64,83,3,0.022500000000000003,23.232981427174906,17.01857282502444
23.24999999999993,59,88,0,0.022500000000000003,23.233763440860145,16.236559139784944
23.24999999999993,55,91,2,0.022500000000000003,23.234232649071288,15.76735092864125
23.274999999999928,46,82,3,0.022500000000000003,23.257825024437857,17.174975562072337
23.274999999999928,88,84,2,0.022500000000000003,23.258137829911952,16.86217008797654
23.274999999999928,68,93,0,0.022500000000000003,23.259545454545382,15.454545454545453
23.274999999999928,41,95,1,0.022500000000000003,23.259858260019477,15.141739980449657
23.299999999999926,39,78,3,0.022500000000000003,23.28219941348966,17.80058651026393
23.299999999999926,84,80,2,0.022500000000000003,23.28251221896376,17.487781036168133
23.299999999999926,84,86,0,0.022500000000000003,23.283450635386046,16.549364613880744
23.299999999999926,72,86,1,0.022500000000000003,23.283450635386046,16.549364613880744
23.324999999999925,55,81,1,0.022500000000000003,23.307668621700806,17.331378299120235
23.324999999999925,60,82,0,0.022500000000000003,23.307825024437854,17.174975562072337
23.324999999999925,68,88,2,0.022500000000000003,23.30876344086014,16.236559139784944
23.324999999999925,31,93,3,0.022500000000000003,23.30954545454538,15.454545454545453
23.349999999999923,73,81,0,0.022500000000000003,23.332668621700805,17.331378299120235
23.349999999999923,60,90,3,0.022500000000000003,23.334076246334234,15.923753665689148
23.349999999999923,86,91,1,0.022500000000000003,23.334232649071282,15.76735092864125
23.349999999999923,24,91,2,0.022500000000000003,23.334232649071282,15.76735092864125
23.374999999999922,29,81,1,0.022500000000000003,23.357668621700803,17.331378299120235
23.374999999999922,62,83,3,0.022500000000000003,23.3579814271749,17.01857282502444
23.374999999999922,75,87,2,0.022500000000000003,23.35860703812309,16.392961876832846
23.374999999999922,69,90,0,0.022500000000000003,23.359076246334233,15.923753665689148
23.39999999999992,75,70,0,0.022500000000000003,23.380948191593273,19.05180840664712
23.39999999999992,29,85,3,0.022500000000000003,23.383294232648993,16.705767350928642
23.39999999999992,60,90,2,0.022500000000000003,23.38407624633423,15.923753665689148
23.39999999999992,79,105,1,0.022500000000000003,23.38642228738995,13.577712609970675
23.42499999999992,70,80,2,0.022500000000000003,23.407512218963753,17.487781036168133
23.42499999999992,80,82,0,0.022500000000000003,23.407825024437848,17.174975562072337
23.42499999999992,31,82,3,0.022500000000000003,23.407825024437848,17.174975562072337
23.42499999999992,88,85,1,0.022500000000000003,23.40829423264899,16.705767350928642
23.449999999999918,55,79,3,0.022500000000000003,23.4323558162267,17.64418377321603
23.449999999999918,59,84,2,0.022500000000000003,23.433137829911942,16.86217008797654
23.449999999999918,37,86,1,0.022500000000000003,23.433450635386038,16.549364613880744
23.449999999999918,85,97,0,0.022500000000000003,23.435171065493563,14.82893450635386
23.474999999999916,31,73,0,0.022500000000000003,23.456417399804412,18.58260019550342
23.474999999999916,35,78,3,0.022500000000000003,23.45719941348965,17.80058651026393
23.474999999999916,34,85,1,0.022500000000000003,23.45829423264899,16.705767350928642
23.474999999999916,94,87,2,0.022500000000000003,23.458607038123084,16.392961876832846
23.499999999999915,42,79,2,0.022500000000000003,23.482355816226697,17.64418377321603
23.499999999999915,65,84,1,0.022500000000000003,23.48313782991194,16.86217008797654
23.499999999999915,44,86,0,0.022500000000000003,23.483450635386035,16.549364613880744
23.499999999999915,76,87,3,0.022500000000000003,23.483607038123083,16.392961876832846
23.524999999999913,54,86,1,0.022500000000000003,23.508450635386033,16.549364613880744
23.524999999999913,34,88,2,0.022500000000000003,23.50876344086013,16.236559139784944
23.524999999999913,43,88,3,0.022500000000000003,23.50876344086013,16.236559139784944
23.524999999999913,82,99,0,0.022500000000000003,23.510483870967654,14.516129032258064
23.549999999999912,53,78,2,0.022500000000000003,23.532199413489646,17.80058651026393
23.549999999999912,77,86,3,0.022500000000000003,23.533450635386032,16.549364613880744
23.549999999999912,44,94,1,0.022500000000000003,23.534701857282414,15.298142717497555
23.549999999999912,43,95,0,0.022500000000000003,23.534858260019462,15.141739980449657
23.57499999999991,39,83,3,0.022500000000000003,23.557981427174887,17.01857282502444
23.57499999999991,85,85,0,0.022500000000000003,23.558294232648983,16.705767350928642
23.57499999999991,92,87,1,0.022500000000000003,23.55860703812308,16.392961876832846
23.57499999999991,60,92,2,0.022500000000000003,23.559389051808317,15.610948191593351
23.59999999999991,54,77,0,0.022500000000000003,23.582043010752596,17.956989247311828
23.59999999999991,90,79,1,0.022500000000000003,23.58235581622669,17.64418377321603
23.59999999999991,53,89,2,0.022500000000000003,23.583919843597172,16.080156402737046
23.59999999999991,68,92,3,0.022500000000000003,23.584389051808316,15.610948191593351
23.624999999999908,37,80,1,0.022500000000000003,23.60751221896374,17.487781036168133
23.624999999999908,54,85,0,0.022500000000000003,23.60829423264898,16.705767350928642
23.624999999999908,76,92,3,0.022500000000000003,23.609389051808314,15.610948191593351
23.624999999999908,38,97,2,0.022500000000000003,23.610171065493553,14.82893450635386
23.649999999999906,92,79,1,0.022500000000000003,23.63235581622669,17.64418377321603
23.649999999999906,59,82,0,0.022500000000000003,23.632825024437835,17.174975562072337
23.649999999999906,33,82,2,0.022500000000000003,23.632825024437835,17.174975562072337
23.649999999999906,55,90,3,0.022500000000000003,23.634076246334217,15.923753665689148
23.674999999999905,62,83,3,0.022500000000000003,23.65798142717488,17.01857282502444
23.674999999999905,50,85,0,0.022500000000000003,23.658294232648977,16.705767350928642
23.674999999999905,81,89,2,0.022500000000000003,23.658919843597168,16.080156402737046
23.674999999999905,69,92,1,0.022500000000000003,23.65938905180831,15.610948191593351
23.699999999999903,27,80,3,0.022500000000000003,23.682512218963737,17.487781036168133
23.699999999999903,37,81,1,0.022500000000000003,23.682668621700785,17.331378299120235
23.699999999999903,67,88,0,0.022500000000000003,23.68376344086012,16.236559139784944
23.699999999999903,67,93,2,0.022500000000000003,23.684545454545358,15.454545454545453
23.724999999999902,34,79,3,0.022500000000000003,23.707355816226684,17.64418377321603
23.724999999999902,63,86,0,0.022500000000000003,23.708450635386022,16.549364613880744
23.724999999999902,36,91,1,0.022500000000000003,23.70923264907126,15.76735092864125
23.724999999999902,89,97,2,0.022500000000000003,23.710171065493547,14.82893450635386
23.7499999999999,46,78,0,0.022500000000000003,23.732199413489635,17.80058651026393
23.7499999999999,61,80,1,0.022500000000000003,23.732512218963734,17.487781036168133
23.7499999999999,71,89,3,0.022500000000000003,23.733919843597164,16.080156402737046
23.7499999999999,27,97,2,0.022500000000000003,23.735171065493546,14.82893450635386
23.7749999999999,42,79,3,0.022500000000000003,23.75735581622668,17.64418377321603
23.7749999999999,34,81,1,0.022500000000000003,23.75766862170078,17.331378299120235
23.7749999999999,45,86,0,0.022500000000000003,23.75845063538602,16.549364613880744
23.7749999999999,44,90,2,0.022500000000000003,23.75907624633421,15.923753665689148
23.799999999999898,37,74,0,0.022500000000000003,23.78157380254144,18.426197458455523
23.799999999999898,57,86,2,0.022500000000000003,23.783450635386018,16.549364613880744
23.799999999999898,59,86,3,0.022500000000000003,23.783450635386018,16.549364613880744
23.799999999999898,88,96,1,0.022500000000000003,23.785014662756495,14.985337243401759
23.824999999999896,25,79,1,0.022500000000000003,23.80735581622668,17.64418377321603
23.824999999999896,36,80,2,0.022500000000000003,23.80751221896373,17.487781036168133
23.824999999999896,49,83,0,0.022500000000000003,23.807981427174873,17.01857282502444
23.824999999999896,31,90,3,0.022500000000000003,23.809076246334207,15.923753665689148
23.849999999999895,68,77,1,0.022500000000000003,23.83204301075258,17.956989247311828
23.849999999999895,88,81,0,0.022500000000000003,23.832668621700776,17.331378299120235
23.849999999999895,62,81,3,0.022500000000000003,23.832668621700776,17.331378299120235
23.849999999999895,84,85,2,0.022500000000000003,23.833294232648967,16.705767350928642
23.874999999999893,58,78,2,0.022500000000000003,23.857199413489628,17.80058651026393
23.874999999999893,35,83,0,0.022500000000000003,23.85798142717487,17.01857282502444
23.874999999999893,66,85,1,0.022500000000000003,23.858294232648966,16.705767350928642
23.874999999999893,85,95,3,0.022500000000000003,23.859858260019443,15.141739980449657
23.899999999999892,31,83,3,0.022500000000000003,23.88298142717487,17.01857282502444
23.899999999999892,47,90,1,0.022500000000000003,23.884076246334203,15.923753665689148
23.899999999999892,85,92,2,0.022500000000000003,23.8843890518083,15.610948191593351
23.899999999999892,24,94,0,0.022500000000000003,23.884701857282394,15.298142717497555
23.92499999999989,70,78,0,0.022500000000000003,23.907199413489625,17.80058651026393
23.92499999999989,47,88,1,0.022500000000000003,23.908763440860106,16.236559139784944
23.92499999999989,56,88,3,0.022500000000000003,23.908763440860106,16.236559139784944
23.92499999999989,27,100,2,0.022500000000000003,23.91064027370468,14.359726295210166
23.94999999999989,34,79,1,0.022500000000000003,23.93235581622667,17.64418377321603
23.94999999999989,72,79,3,0.022500000000000003,23.93235581622667,17.64418377321603
23.94999999999989,95,88,0,0.022500000000000003,23.933763440860105,16.236559139784944
23.94999999999989,31,92,2,0.022500000000000003,23.934389051808296,15.610948191593351
23.974999999999888,92,69,0,0.022500000000000003,23.955791788856192,19.208211143695017
23.974999999999888,29,83,2,0.022500000000000003,23.957981427174865,17.01857282502444
23.974999999999888,81,84,1,0.022500000000000003,23.958137829911912,16.86217008797654
23.974999999999888,95,90,3,0.022500000000000003,23.9590762463342,15.923753665689148
23.999999999999886,64,84,0,0.022500000000000003,23.98313782991191,16.86217008797654
23.999999999999886,80,87,2,0.022500000000000003,23.983607038123054,16.392961876832846
23.999999999999886,39,94,1,0.022500000000000003,23.98470185728239,15.298142717497555
23.999999999999886,32,97,3,0.022500000000000003,23.98517106549353,14.82893450635386
24.024999999999885,34,80,1,0.022500000000000003,24.00751221896372,17.487781036168133
24.024999999999885,39,91,0,0.022500000000000003,24.009232649071244,15.76735092864125
24.024999999999885,91,95,2,0.022500000000000003,24.009858260019435,15.141739980449657
24.024999999999885,31,99,3,0.022500000000000003,24.010483870967626,14.516129032258064
24.049999999999883,67,87,2,0.022500000000000003,24.03360703812305,16.392961876832846
24.049999999999883,47,90,0,0.022500000000000003,24.034076246334195,15.923753665689148
24.049999999999883,54,92,3,0.022500000000000003,24.03438905180829,15.610948191593351
24.049999999999883,24,106,1,0.022500000000000003,24.036578690126962,13.421309872922777
24.074999999999882,46,79,1,0.022500000000000003,24.057355816226664,17.64418377321603
24.074999999999882,62,82,3,0.022500000000000003,24.05782502443781,17.174975562072337
24.074999999999882,91,86,2,0.022500000000000003,24.058450635386002,16.549364613880744
24.074999999999882,54,92,0,0.022500000000000003,24.05938905180829,15.610948191593351
24.09999999999988,86,86,3,0.022500000000000003,24.083450635386,16.549364613880744
24.09999999999988,43,87,1,0.022500000000000003,24.08360703812305,16.392961876832846
24.09999999999988,62,91,2,0.022500000000000003,24.08423264907124,15.76735092864125
24.09999999999988,47,94,0,0.022500000000000003,24.084701857282383,15.298142717497555
24.12499999999988,24,77,0,0.022500000000000003,24.107043010752566,17.956989247311828
24.12499999999988,77,80,1,0.022500000000000003,24.107512218963713,17.487781036168133
24.12499999999988,88,83,2,0.022500000000000003,24.107981427174856,17.01857282502444
24.12499999999988,79,97,3,0.022500000000000003,24.110171065493525,14.82893450635386
24.149999999999878,39,78,3,0.022500000000000003,24.132199413489612,17.80058651026393
24.149999999999878,36,84,0,0.022500000000000003,24.133137829911902,16.86217008797654
24.149999999999878,81,85,1,0.022500000000000003,24.13329423264895,16.705767350928642
24.149999999999878,29,90,2,0.022500000000000003,24.13407624633419,15.923753665689148
24.174999999999876,80,81,2,0.022500000000000003,24.157668621700758,17.331378299120235
24.174999999999876,69,83,1,0.022500000000000003,24.157981427174853,17.01857282502444
24.174999999999876,62,84,3,0.022500000000000003,24.1581378299119,16.86217008797654
24.174999999999876,84,90,0,0.022500000000000003,24.159076246334187,15.923753665689148
24.199999999999875,42,81,2,0.022500000000000003,24.182668621700756,17.331378299120235
24.199999999999875,47,84,0,0.022500000000000003,24.1831378299119,16.86217008797654
24.199999999999875,35,86,3,0.022500000000000003,24.183450635385995,16.549364613880744
24.199999999999875,53,88,1,0.022500000000000003,24.18376344086009,16.236559139784944
24.224999999999874,32,78,3,0.022500000000000003,24.207199413489608,17.80058651026393
24.224999999999874,41,83,1,0.022500000000000003,24.20798142717485,17.01857282502444
24.224999999999874,88,85,0,0.022500000000000003,24.208294232648946,16.705767350928642
24.224999999999874,91,97,2,0.022500000000000003,24.21017106549352,14.82893450635386
24.249999999999872,76,82,2,0.022500000000000003,24.2328250244378,17.174975562072337
24.249999999999872,72,88,1,0.022500000000000003,24.233763440860088,16.236559139784944
24.249999999999872,71,90,0,0.022500000000000003,24.234076246334183,15.923753665689148
24.249999999999872,33,92,3,0.022500000000000003,24.23438905180828,15.610948191593351
24.27499999999987,38,74,3,0.022500000000000003,24.256573802541414,18.426197458455523
24.27499999999987,52,78,2,0.022500000000000003,24.257199413489605,17.80058651026393
24.27499999999987,66,79,1,0.022500000000000003,24.257355816226653,17.64418377321603
24.27499999999987,58,89,0,0.022500000000000003,24.258919843597134,16.080156402737046
24.29999999999987,57,76,1,0.022500000000000003,24.28188660801551,18.113391984359726
24.29999999999987,82,88,2,0.022500000000000003,24.283763440860085,16.236559139784944
24.29999999999987,93,91,0,0.022500000000000003,24.284232649071228,15.76735092864125
24.29999999999987,49,98,3,0.022500000000000003,24.285327468230562,14.672531769305962
24.324999999999868,40,73,1,0.022500000000000003,24.306417399804364,18.58260019550342
24.324999999999868,46,86,0,0.022500000000000003,24.308450635385988,16.549364613880744
24.324999999999868,83,90,3,0.022500000000000003,24.30907624633418,15.923753665689148
24.324999999999868,59,91,2,0.022500000000000003,24.309232649071227,15.76735092864125
24.349999999999866,61,78,0,0.022500000000000003,24.3321994134896,17.80058651026393
24.349999999999866,75,79,1,0.022500000000000003,24.33235581622665,17.64418377321603
24.349999999999866,87,82,2,0.022500000000000003,24.332825024437795,17.174975562072337
24.349999999999866,32,91,3,0.022500000000000003,24.334232649071225,15.76735092864125
24.374999999999865,56,81,1,0.022500000000000003,24.357668621700746,17.331378299120235
24.374999999999865,64,88,2,0.022500000000000003,24.35876344086008,16.236559139784944
24.374999999999865,95,91,3,0.022500000000000003,24.359232649071224,15.76735092864125
24.374999999999865,26,94,0,0.022500000000000003,24.359701857282367,15.298142717497555
24.399999999999864,41,87,3,0.022500000000000003,24.38360703812303,16.392961876832846
24.399999999999864,42,91,2,0.022500000000000003,24.384232649071222,15.76735092864125
24.399999999999864,90,101,0,0.022500000000000003,24.3857966764417,14.203323558162268
24.399999999999864,70,105,1,0.022500000000000003,24.386422287389895,13.577712609970675
24.424999999999862,51,78,0,0.022500000000000003,24.407199413489597,17.80058651026393
24.424999999999862,46,81,1,0.022500000000000003,24.407668621700743,17.331378299120235
24.424999999999862,37,84,3,0.022500000000000003,24.408137829911887,16.86217008797654
24.424999999999862,38,88,2,0.022500000000000003,24.408763440860078,16.236559139784944
24.44999999999986,51,87,0,0.022500000000000003,24.43360703812303,16.392961876832846
24.44999999999986,80,92,1,0.022500000000000003,24.434389051808267,15.610948191593351
24.44999999999986,51,93,3,0.022500000000000003,24.434545454545315,15.454545454545453
24.44999999999986,49,100,2,0.022500000000000003,24.43564027370465,14.359726295210166
24.47499999999986,88,78,0,0.022500000000000003,24.457199413489594,17.80058651026393
24.47499999999986,47,86,1,0.022500000000000003,24.45845063538598,16.549364613880744
24.47499999999986,33,89,3,0.022500000000000003,24.458919843597123,16.080156402737046
24.47499999999986,52,90,2,0.022500000000000003,24.45907624633417,15.923753665689148
24.499999999999858,95,80,0,0.022500000000000003,24.48251221896369,17.487781036168133
24.499999999999858,90,85,2,0.022500000000000003,24.48329423264893,16.705767350928642
24.499999999999858,74,86,1,0.022500000000000003,24.483450635385978,16.549364613880744
24.499999999999858,45,94,3,0.022500000000000003,24.48470185728236,15.298142717497555
24.524999999999856,72,80,2,0.022500000000000003,24.50751221896369,17.487781036168133
24.524999999999856,83,86,1,0.022500000000000003,24.508450635385977,16.549364613880744
24.524999999999856,86,90,0,0.022500000000000003,24.509076246334168,15.923753665689148
24.524999999999856,66,93,3,0.022500000000000003,24.50954545454531,15.454545454545453
24.549999999999855,34,82,3,0.022500000000000003,24.532825024437784,17.174975562072337
24.549999999999855,79,84,2,0.022500000000000003,24.53313782991188,16.86217008797654
24.549999999999855,72,92,1,0.022500000000000003,24.53438905180826,15.610948191593351
24.549999999999855,85,101,0,0.022500000000000003,24.53579667644169,14.203323558162268
24.574999999999854,63,80,0,0.022500000000000003,24.557512218963687,17.487781036168133
24.574999999999854,49,85,3,0.022500000000000003,24.558294232648926,16.705767350928642
24.574999999999854,56,92,1,0.022500000000000003,24.55938905180826,15.610948191593351
24.574999999999854,93,98,2,0.022500000000000003,24.560327468230547,14.672531769305962
24.599999999999852,70,92,3,0.022500000000000003,24.58438905180826,15.610948191593351
24.599999999999852,67,93,0,0.022500000000000003,24.584545454545307,15.454545454545453
24.599999999999852,64,96,2,0.022500000000000003,24.58501466275645,14.985337243401759
24.599999999999852,66,101,1,0.022500000000000003,24.58579667644169,14.203323558162268
24.62499999999985,28,80,3,0.022500000000000003,24.607512218963684,17.487781036168133
24.62499999999985,45,85,2,0.022500000000000003,24.608294232648923,16.705767350928642
24.62499999999985,29,86,1,0.022500000000000003,24.60845063538597,16.549364613880744
24.62499999999985,82,93,0,0.022500000000000003,24.609545454545305,15.454545454545453
24.64999999999985,35,81,0,0.022500000000000003,24.63266862170073,17.331378299120235
24.64999999999985,68,85,1,0.022500000000000003,24.63329423264892,16.705767350928642
24.64999999999985,52,90,2,0.022500000000000003,24.63407624633416,15.923753665689148
24.64999999999985,36,91,3,0.022500000000000003,24.63423264907121,15.76735092864125
24.674999999999848,49,83,3,0.022500000000000003,24.657981427174825,17.01857282502444
24.674999999999848,73,88,0,0.022500000000000003,24.658763440860064,16.236559139784944
24.674999999999848,42,91,1,0.022500000000000003,24.659232649071207,15.76735092864125
24.674999999999848,90,91,2,0.022500000000000003,24.659232649071207,15.76735092864125
24.699999999999847,58,83,2,0.022500000000000003,24.682981427174823,17.01857282502444
24.699999999999847,94,84,1,0.022500000000000003,24.68313782991187,16.86217008797654
24.699999999999847,52,88,3,0.022500000000000003,24.683763440860062,16.236559139784944
24.699999999999847,84,93,0,0.022500000000000003,24.6845454545453,15.454545454545453
24.724999999999845,26,91,2,0.022500000000000003,24.709232649071204,15.76735092864125
24.724999999999845,42,91,3,0.022500000000000003,24.709232649071204,15.76735092864125
24.724999999999845,45,97,0,0.022500000000000003,24.71017106549349,14.82893450635386
24.724999999999845,91,100,1,0.022500000000000003,24.710640273704634,14.359726295210166
24.749999999999844,83,84,1,0.022500000000000003,24.73313782991187,16.86217008797654
24.749999999999844,85,89,2,0.022500000000000003,24.733919843597107,16.080156402737046
24.749999999999844,51,89,3,0.022500000000000003,24.733919843597107,16.080156402737046
24.749999999999844,88,90,0,0.022500000000000003,24.734076246334155,15.923753665689148
24.774999999999842,78,82,1,0.022500000000000003,24.75782502443777,17.174975562072337
24.774999999999842,54,82,3,0.022500000000000003,24.75782502443777,17.174975562072337
24.774999999999842,93,86,0,0.022500000000000003,24.758450635385962,16.549364613880744
24.774999999999842,65,89,2,0.022500000000000003,24.758919843597106,16.080156402737046
24.79999999999984,51,80,2,0.022500000000000003,24.782512218963674,17.487781036168133
24.79999999999984,41,83,0,0.022500000000000003,24.782981427174818,17.01857282502444
24.79999999999984,56,87,3,0.022500000000000003,24.78360703812301,16.392961876832846
24.79999999999984,30,88,1,0.022500000000000003,24.783763440860056,16.236559139784944
24.82499999999984,89,89,0,0.022500000000000003,24.808919843597103,16.080156402737046
24.82499999999984,62,89,3,0.022500000000000003,24.808919843597103,16.080156402737046
24.82499999999984,25,97,1,0.022500000000000003,24.810171065493485,14.82893450635386
24.82499999999984,64,97,2,0.022500000000000003,24.810171065493485,14.82893450635386
24.849999999999838,34,78,3,0.022500000000000003,24.832199413489572,17.80058651026393
24.849999999999838,33,86,0,0.022500000000000003,24.833450635385958,16.549364613880744
24.849999999999838,83,87,1,0.022500000000000003,24.833607038123006,16.392961876832846
24.849999999999838,35,98,2,0.022500000000000003,24.83532746823053,14.672531769305962
24.874999999999837,38,78,0,0.022500000000000003,24.85719941348957,17.80058651026393
24.874999999999837,84,82,2,0.022500000000000003,24.857825024437766,17.174975562072337
24.874999999999837,62,87,1,0.022500000000000003,24.858607038123004,16.392961876832846
24.874999999999837,39,89,3,0.022500000000000003,24.8589198435971,16.080156402737046
24.899999999999835,67,78,1,0.022500000000000003,24.88219941348957,17.80058651026393
24.899999999999835,52,80,2,0.022500000000000003,24.88251221896367,17.487781036168133
24.899999999999835,69,83,0,0.022500000000000003,24.882981427174812,17.01857282502444
24.899999999999835,33,96,3,0.022500000000000003,24.885014662756433,14.985337243401759
24.924999999999834,90,82,2,0.022500000000000003,24.907825024437763,17.174975562072337
24.924999999999834,95,82,3,0.022500000000000003,24.907825024437763,17.174975562072337
24.924999999999834,55,88,1,0.022500000000000003,24.90876344086005,16.236559139784944
24.924999999999834,76,98,0,0.022500000000000003,24.910327468230527,14.672531769305962
24.949999999999832,41,83,3,0.022500000000000003,24.93298142717481,17.01857282502444
24.949999999999832,38,89,2,0.022500000000000003,24.933919843597096,16.080156402737046
24.949999999999832,31,90,0,0.022500000000000003,24.934076246334143,15.923753665689148
24.949999999999832,75,93,1,0.022500000000000003,24.934545454545287,15.454545454545453
24.97499999999983,58,80,3,0.022500000000000003,24.957512218963664,17.487781036168133
24.97499999999983,51,81,2,0.022500000000000003,24.957668621700712,17.331378299120235
24.97499999999983,35,91,0,0.022500000000000003,24.95923264907119,15.76735092864125
24.97499999999983,82,91,1,0.022500000000000003,24.95923264907119,15.76735092864125
24.99999999999983,73,71,2,0.022500000000000003,24.98110459433023,18.89540566959922
24.99999999999983,72,75,1,0.022500000000000003,24.98173020527842,18.269794721407624
24.99999999999983,38,96,0,0.022500000000000003,24.985014662756427,14.985337243401759
24.99999999999983,66,97,3,0.022500000000000003,24.985171065493475,14.82893450635386
25.024999999999828,74,79,0,0.022500000000000003,25.00735581622661,17.64418377321603
25.024999999999828,79,86,2,0.022500000000000003,25.008450635385948,16.549364613880744
25.024999999999828,78,91,3,0.022500000000000003,25.009232649071187,15.76735092864125
25.024999999999828,91,93,1,0.022500000000000003,25.009545454545282,15.454545454545453
25.049999999999827,91,81,0,0.022500000000000003,25.032668621700708,17.331378299120235
25.049999999999827,92,85,3,0.022500000000000003,25.0332942326489,16.705767350928642
25.049999999999827,80,86,2,0.022500000000000003,25.033450635385947,16.549364613880744
25.049999999999827,69,88,1,0.022500000000000003,25.033763440860042,16.236559139784944
25.074999999999825,74,76,0,0.022500000000000003,25.056886608015464,18.113391984359726
25.074999999999825,82,87,3,0.022500000000000003,25.058607038122993,16.392961876832846
25.074999999999825,59,89,2,0.022500000000000003,25.05891984359709,16.080156402737046
25.074999999999825,33,95,1,0.022500000000000003,25.059858260019375,15.141739980449657
25.099999999999824,63,76,1,0.022500000000000003,25.081886608015463,18.113391984359726
25.099999999999824,42,77,3,0.022500000000000003,25.08204301075251,17.956989247311828
25.099999999999824,50,91,0,0.022500000000000003,25.084232649071183,15.76735092864125
25.099999999999824,68,91,2,0.022500000000000003,25.084232649071183,15.76735092864125
25.124999999999822,65,83,2,0.022500000000000003,25.1079814271748,17.01857282502444
25.124999999999822,81,84,3,0.022500000000000003,25.108137829911847,16.86217008797654
25.124999999999822,63,87,1,0.022500000000000003,25.10860703812299,16.392961876832846
25.124999999999822,34,99,0,0.022500000000000003,25.110483870967563,14.516129032258064
25.14999999999982,53,79,0,0.022500000000000003,25.132355816226603,17.64418377321603
25.14999999999982,43,82,3,0.022500000000000003,25.13282502443775,17.174975562072337
25.14999999999982,47,85,2,0.022500000000000003,25.133294232648893,16.705767350928642
25.14999999999982,62,90,1,0.022500000000000003,25.134076246334132,15.923753665689148
25.17499999999982,52,85,0,0.022500000000000003,25.158294232648892,16.705767350928642
25.17499999999982,33,85,2,0.022500000000000003,25.158294232648892,16.705767350928642
25.17499999999982,91,86,3,0.022500000000000003,25.15845063538594,16.549364613880744
25.17499999999982,90,90,1,0.022500000000000003,25.15907624633413,15.923753665689148
25.199999999999818,85,79,1,0.022500000000000003,25.1823558162266,17.64418377321603
25.199999999999818,43,88,0,0.022500000000000003,25.183763440860034,16.236559139784944
25.199999999999818,54,88,2,0.022500000000000003,25.183763440860034,16.236559139784944
25.199999999999818,93,94,3,0.022500000000000003,25.18470185728232,15.298142717497555
25.224999999999817,46,82,3,0.022500000000000003,25.207825024437746,17.174975562072337
25.224999999999817,59,90,0,0.022500000000000003,25.209076246334128,15.923753665689148
25.224999999999817,59,91,2,0.022500000000000003,25.209232649071176,15.76735092864125
25.224999999999817,40,96,1,0.022500000000000003,25.210014662756414,14.985337243401759
25.249999999999815,63,85,0,0.022500000000000003,25.233294232648888,16.705767350928642
25.249999999999815,30,86,1,0.022500000000000003,25.233450635385935,16.549364613880744
25.249999999999815,32,89,3,0.022500000000000003,25.23391984359708,16.080156402737046
25.249999999999815,58,90,2,0.022500000000000003,25.234076246334126,15.923753665689148
25.274999999999814,85,81,1,0.022500000000000003,25.257668621700695,17.331378299120235
25.274999999999814,51,82,0,0.022500000000000003,25.257825024437743,17.174975562072337
25.274999999999814,44,83,2,0.022500000000000003,25.25798142717479,17.01857282502444
25.274999999999814,43,87,3,0.022500000000000003,25.25860703812298,16.392961876832846
25.299999999999812,31,80,1,0.022500000000000003,25.282512218963646,17.487781036168133
25.299999999999812,82,88,0,0.022500000000000003,25.283763440860028,16.236559139784944
25.299999999999812,76,89,2,0.022500000000000003,25.283919843597076,16.080156402737046
25.299999999999812,41,93,3,0.022500000000000003,25.284545454545267,15.454545454545453
25.32499999999981,82,76,0,0.022500000000000003,25.30688660801545,18.113391984359726
25.32499999999981,79,84,2,0.022500000000000003,25.308137829911836,16.86217008797654
25.32499999999981,49,86,3,0.022500000000000003,25.30845063538593,16.549364613880744
25.32499999999981,28,94,1,0.022500000000000003,25.309701857282313,15.298142717497555
25.34999999999981,92,80,0,0.022500000000000003,25.332512218963643,17.487781036168133
25.34999999999981,52,81,3,0.022500000000000003,25.33266862170069,17.331378299120235
25.34999999999981,25,85,2,0.022500000000000003,25.333294232648882,16.705767350928642
25.34999999999981,29,87,1,0.022500000000000003,25.333607038122977,16.392961876832846
25.374999999999808,27,75,1,0.022500000000000003,25.3567302052784,18.269794721407624
25.374999999999808,27,76,0,0.022500000000000003,25.356886608015447,18.113391984359726
25.374999999999808,73,91,3,0.022500000000000003,25.359232649071167,15.76735092864125
25.374999999999808,94,92,2,0.022500000000000003,25.359389051808215,15.610948191593351
25.399999999999807,44,76,0,0.022500000000000003,25.381886608015446,18.113391984359726
25.399999999999807,85,77,1,0.022500000000000003,25.382043010752493,17.956989247311828
25.399999999999807,54,87,2,0.022500000000000003,25.383607038122975,16.392961876832846
25.399999999999807,34,93,3,0.022500000000000003,25.38454545454526,15.454545454545453
25.424999999999805,29,79,2,0.022500000000000003,25.407355816226588,17.64418377321603
25.424999999999805,36,83,1,0.022500000000000003,25.407981427174782,17.01857282502444
25.424999999999805,47,83,3,0.022500000000000003,25.407981427174782,17.01857282502444
25.424999999999805,28,95,0,0.022500000000000003,25.409858260019355,15.141739980449657
25.449999999999804,26,76,0,0.022500000000000003,25.431886608015443,18.113391984359726
25.449999999999804,32,92,3,0.022500000000000003,25.43438905180821,15.610948191593351
25.449999999999804,27,93,1,0.022500000000000003,25.43454545454526,15.454545454545453
25.449999999999804,91,95,2,0.022500000000000003,25.434858260019354,15.141739980449657
25.474999999999802,54,91,3,0.022500000000000003,25.45923264907116,15.76735092864125
25.474999999999802,58,93,2,0.022500000000000003,25.459545454545257,15.454545454545453
25.474999999999802,50,97,1,0.022500000000000003,25.460171065493448,14.82893450635386
25.474999999999802,56,100,0,0.022500000000000003,25.46064027370459,14.359726295210166
25.4999999999998,41,79,1,0.022500000000000003,25.482355816226583,17.64418377321603
25.4999999999998,77,81,0,0.022500000000000003,25.482668621700682,17.331378299120235
25.4999999999998,95,81,3,0.022500000000000003,25.482668621700682,17.331378299120235
25.4999999999998,85,96,2,0.022500000000000003,25.4850146627564,14.985337243401759
25.5249999999998,62,70,2,0.022500000000000003,25.505948191593152,19.05180840664712
25.5249999999998,24,85,1,0.022500000000000003,25.508294232648872,16.705767350928642
25.5249999999998,33,89,3,0.022500000000000003,25.508919843597063,16.080156402737046
25.5249999999998,34,90,0,0.022500000000000003,25.50907624633411,15.923753665689148
25.549999999999798,91,83,1,0.022500000000000003,25.532981427174775,17.01857282502444
25.549999999999798,48,85,2,0.022500000000000003,25.53329423264887,16.705767350928642
25.549999999999798,27,89,0,0.022500000000000003,25.53391984359706,16.080156402737046
25.549999999999798,74,90,3,0.022500000000000003,25.53407624633411,15.923753665689148
25.574999999999797,66,73,0,0.022500000000000003,25.556417399804293,18.58260019550342
25.574999999999797,47,86,3,0.022500000000000003,25.558450635385917,16.549364613880744
25.574999999999797,44,88,1,0.022500000000000003,25.558763440860012,16.236559139784944
25.574999999999797,73,92,2,0.022500000000000003,25.559389051808203,15.610948191593351
25.599999999999795,37,80,3,0.022500000000000003,25.58251221896363,17.487781036168133
25.599999999999795,52,85,0,0.022500000000000003,25.583294232648868,16.705767350928642
25.599999999999795,72,89,2,0.022500000000000003,25.58391984359706,16.080156402737046
25.599999999999795,46,92,1,0.022500000000000003,25.584389051808202,15.610948191593351
25.624999999999794,64,82,0,0.022500000000000003,25.607825024437723,17.174975562072337
25.624999999999794,72,84,1,0.022500000000000003,25.60813782991182,16.86217008797654
25.624999999999794,88,84,2,0.022500000000000003,25.60813782991182,16.86217008797654
25.624999999999794,62,94,3,0.022500000000000003,25.609701857282296,15.298142717497555
25.649999999999793,94,76,3,0.022500000000000003,25.63188660801543,18.113391984359726
25.649999999999793,85,78,0,0.022500000000000003,25.632199413489527,17.80058651026393
25.649999999999793,48,89,2,0.022500000000000003,25.633919843597056,16.080156402737046
25.649999999999793,60,103,1,0.022500000000000003,25.636109481915724,13.890518084066471
25.67499999999979,84,84,0,0.022500000000000003,25.658137829911816,16.86217008797654
25.67499999999979,88,86,1,0.022500000000000003,25.65845063538591,16.549364613880744
25.67499999999979,77,94,2,0.022500000000000003,25.659701857282293,15.298142717497555
25.67499999999979,39,97,3,0.022500000000000003,25.660171065493437,14.82893450635386
25.69999999999979,56,86,0,0.022500000000000003,25.68345063538591,16.549364613880744
25.69999999999979,75,86,1,0.022500000000000003,25.68345063538591,16.549364613880744
25.69999999999979,28,89,2,0.022500000000000003,25.683919843597053,16.080156402737046
25.69999999999979,84,94,3,0.022500000000000003,25.684701857282292,15.298142717497555
25.72499999999979,83,80,3,0.022500000000000003,25.707512218963622,17.487781036168133
25.72499999999979,51,85,2,0.022500000000000003,25.70829423264886,16.705767350928642
25.72499999999979,51,89,1,0.022500000000000003,25.70891984359705,16.080156402737046
25.72499999999979,32,92,0,0.022500000000000003,25.709389051808195,15.610948191593351
25.749999999999787,51,75,1,0.022500000000000003,25.731730205278378,18.269794721407624
25.749999999999787,32,84,3,0.022500000000000003,25.73313782991181,16.86217008797654
25.749999999999787,67,91,0,0.022500000000000003,25.734232649071146,15.76735092864125
25.749999999999787,25,92,2,0.022500000000000003,25.734389051808193,15.610948191593351
25.774999999999785,85,78,2,0.022500000000000003,25.75719941348952,17.80058651026393
25.774999999999785,72,79,3,0.022500000000000003,25.757355816226568,17.64418377321603
25.774999999999785,72,85,1,0.022500000000000003,25.758294232648858,16.705767350928642
25.774999999999785,91,92,0,0.022500000000000003,25.759389051808192,15.610948191593351
25.799999999999784,63,78,3,0.022500000000000003,25.78219941348952,17.80058651026393
25.799999999999784,47,80,2,0.022500000000000003,25.782512218963618,17.487781036168133
25.799999999999784,39,85,1,0.022500000000000003,25.783294232648856,16.705767350928642
25.799999999999784,31,94,0,0.022500000000000003,25.784701857282286,15.298142717497555
25.824999999999783,59,81,3,0.022500000000000003,25.807668621700664,17.331378299120235
25.824999999999783,60,84,2,0.022500000000000003,25.808137829911807,16.86217008797654
25.824999999999783,47,87,0,0.022500000000000003,25.80860703812295,16.392961876832846
25.824999999999783,55,102,1,0.022500000000000003,25.810953079178667,14.04692082111437
25.84999999999978,47,81,0,0.022500000000000003,25.832668621700662,17.331378299120235
25.84999999999978,34,87,3,0.022500000000000003,25.83360703812295,16.392961876832846
25.84999999999978,90,89,1,0.022500000000000003,25.833919843597045,16.080156402737046
25.84999999999978,64,92,2,0.022500000000000003,25.834389051808188,15.610948191593351
25.87499999999978,49,79,1,0.022500000000000003,25.857355816226562,17.64418377321603
25.87499999999978,95,88,0,0.022500000000000003,25.858763440859995,16.236559139784944
25.87499999999978,29,88,2,0.022500000000000003,25.858763440859995,16.236559139784944
25.87499999999978,46,98,3,0.022500000000000003,25.860327468230473,14.672531769305962
25.89999999999978,53,83,0,0.022500000000000003,25.882981427174755,17.01857282502444
25.89999999999978,31,89,2,0.022500000000000003,25.88391984359704,16.080156402737046
25.89999999999978,79,89,3,0.022500000000000003,25.88391984359704,16.080156402737046
25.89999999999978,95,93,1,0.022500000000000003,25.884545454545233,15.454545454545453
25.924999999999777,44,77,0,0.022500000000000003,25.907043010752464,17.956989247311828
25.924999999999777,54,83,2,0.022500000000000003,25.907981427174754,17.01857282502444
25.924999999999777,52,86,3,0.022500000000000003,25.908450635385897,16.549364613880744
25.924999999999777,81,87,1,0.022500000000000003,25.908607038122945,16.392961876832846
25.949999999999775,26,82,0,0.022500000000000003,25.932825024437705,17.174975562072337
25.949999999999775,32,86,3,0.022500000000000003,25.933450635385896,16.549364613880744
25.949999999999775,51,87,2,0.022500000000000003,25.933607038122943,16.392961876832846
25.949999999999775,54,98,1,0.022500000000000003,25.93532746823047,14.672531769305962
25.974999999999774,78,85,3,0.022500000000000003,25.958294232648846,16.705767350928642
25.974999999999774,54,88,1,0.022500000000000003,25.95876344085999,16.236559139784944
25.974999999999774,76,88,2,0.022500000000000003,25.95876344085999,16.236559139784944
25.974999999999774,24,95,0,0.022500000000000003,25.959858260019324,15.141739980449657
25.999999999999773,33,86,1,0.022500000000000003,25.983450635385893,16.549364613880744
25.999999999999773,25,89,0,0.022500000000000003,25.983919843597036,16.080156402737046
25.999999999999773,83,90,2,0.022500000000000003,25.984076246334084,15.923753665689148
25.999999999999773,59,91,3,0.022500000000000003,25.98423264907113,15.76735092864125
26.02499999999977,62,78,2,0.022500000000000003,26.007199413489506,17.80058651026393
26.02499999999977,42,80,0,0.022500000000000003,26.007512218963605,17.487781036168133
26.02499999999977,43,85,1,0.022500000000000003,26.008294232648844,16.705767350928642
26.02499999999977,63,93,3,0.022500000000000003,26.009545454545226,15.454545454545453
26.04999999999977,78,85,2,0.022500000000000003,26.033294232648842,16.705767350928642
26.04999999999977,44,89,0,0.022500000000000003,26.033919843597033,16.080156402737046
26.04999999999977,55,92,3,0.022500000000000003,26.034389051808176,15.610948191593351
26.04999999999977,54,94,1,0.022500000000000003,26.034701857282272,15.298142717497555
26.07499999999977,41,81,0,0.022500000000000003,26.05766862170065,17.331378299120235
26.07499999999977,29,85,1,0.022500000000000003,26.05829423264884,16.705767350928642
26.07499999999977,44,89,3,0.022500000000000003,26.05891984359703,16.080156402737046
26.07499999999977,81,91,2,0.022500000000000003,26.059232649071127,15.76735092864125
26.099999999999767,78,76,3,0.022500000000000003,26.081886608015406,18.113391984359726
26.099999999999767,25,88,0,0.022500000000000003,26.083763440859983,16.236559139784944
26.099999999999767,40,88,2,0.022500000000000003,26.083763440859983,16.236559139784944
26.099999999999767,69,92,1,0.022500000000000003,26.084389051808174,15.610948191593351
26.124999999999766,94,78,3,0.022500000000000003,26.1071994134895,17.80058651026393
26.124999999999766,52,80,1,0.022500000000000003,26.1075122189636,17.487781036168133
26.124999999999766,90,84,0,0.022500000000000003,26.10813782991179,16.86217008797654
26.124999999999766,68,99,2,0.022500000000000003,26.110483870967506,14.516129032258064
26.149999999999764,74,79,2,0.022500000000000003,26.132355816226546,17.64418377321603
26.149999999999764,24,82,0,0.022500000000000003,26.132825024437693,17.174975562072337
26.149999999999764,83,89,3,0.022500000000000003,26.133919843597027,16.080156402737046
26.149999999999764,28,91,1,0.022500000000000003,26.134232649071123,15.76735092864125
26.174999999999763,79,80,1,0.022500000000000003,26.157512218963596,17.487781036168133
26.174999999999763,88,87,2,0.022500000000000003,26.15860703812293,16.392961876832846
26.174999999999763,69,92,3,0.022500000000000003,26.15938905180817,15.610948191593351
26.174999999999763,55,96,0,0.022500000000000003,26.16001466275636,14.985337243401759
26.19999999999976,51,81,0,0.022500000000000003,26.182668621700643,17.331378299120235
26.19999999999976,69,81,2,0.022500000000000003,26.182668621700643,17.331378299120235
26.19999999999976,68,85,3,0.022500000000000003,26.183294232648834,16.705767350928642
26.19999999999976,26,98,1,0.022500000000000003,26.185327468230454,14.672531769305962
26.22499999999976,71,77,2,0.022500000000000003,26.207043010752447,17.956989247311828
26.22499999999976,82,85,1,0.022500000000000003,26.208294232648832,16.705767350928642
26.22499999999976,32,89,0,0.022500000000000003,26.208919843597023,16.080156402737046
26.22499999999976,69,89,3,0.022500000000000003,26.208919843597023,16.080156402737046
26.24999999999976,34,82,2,0.022500000000000003,26.232825024437687,17.174975562072337
26.24999999999976,90,84,3,0.022500000000000003,26.233137829911783,16.86217008797654
26.24999999999976,52,91,1,0.022500000000000003,26.234232649071117,15.76735092864125
26.24999999999976,48,96,0,0.022500000000000003,26.235014662756356,14.985337243401759
26.274999999999757,92,79,3,0.022500000000000003,26.25735581622654,17.64418377321603
26.274999999999757,94,88,0,0.022500000000000003,26.258763440859973,16.236559139784944
26.274999999999757,88,92,1,0.022500000000000003,26.259389051808164,15.610948191593351
26.274999999999757,56,98,2,0.022500000000000003,26.26032746823045,14.672531769305962
26.299999999999756,29,82,3,0.022500000000000003,26.282825024437685,17.174975562072337
26.299999999999756,48,92,1,0.022500000000000003,26.284389051808162,15.610948191593351
26.299999999999756,45,93,2,0.022500000000000003,26.28454545454521,15.454545454545453
26.299999999999756,75,98,0,0.022500000000000003,26.28532746823045,14.672531769305962
26.324999999999754,85,80,0,0.022500000000000003,26.307512218963588,17.487781036168133
26.324999999999754,83,81,1,0.022500000000000003,26.307668621700635,17.331378299120235
26.324999999999754,49,90,3,0.022500000000000003,26.309076246334065,15.923753665689148
26.324999999999754,32,93,2,0.022500000000000003,26.30954545454521,15.454545454545453
26.349999999999753,66,80,1,0.022500000000000003,26.332512218963586,17.487781036168133
26.349999999999753,50,86,0,0.022500000000000003,26.333450635385873,16.549364613880744
26.349999999999753,85,87,2,0.022500000000000003,26.33360703812292,16.392961876832846
26.349999999999753,45,88,3,0.022500000000000003,26.33376344085997,16.236559139784944
26.37499999999975,62,84,0,0.022500000000000003,26.358137829911776,16.86217008797654
26.37499999999975,38,86,1,0.022500000000000003,26.35845063538587,16.549364613880744
26.37499999999975,65,88,2,0.022500000000000003,26.358763440859967,16.236559139784944
26.37499999999975,49,95,3,0.022500000000000003,26.3598582600193,15.141739980449657
26.39999999999975,62,83,1,0.022500000000000003,26.382981427174727,17.01857282502444
26.39999999999975,90,86,0,0.022500000000000003,26.38345063538587,16.549364613880744
26.39999999999975,82,89,3,0.022500000000000003,26.383919843597013,16.080156402737046
26.39999999999975,30,90,2,0.022500000000000003,26.38407624633406,15.923753665689148
26.42499999999975,63,78,3,0.022500000000000003,26.407199413489483,17.80058651026393
26.42499999999975,86,93,0,0.022500000000000003,26.409545454545203,15.454545454545453
26.42499999999975,36,93,1,0.022500000000000003,26.409545454545203,15.454545454545453
26.42499999999975,36,100,2,0.022500000000000003,26.410640273704537,14.359726295210166
26.449999999999747,76,75,3,0.022500000000000003,26.43173020527834,18.269794721407624
26.449999999999747,89,79,2,0.022500000000000003,26.43235581622653,17.64418377321603
26.449999999999747,35,87,0,0.022500000000000003,26.433607038122915,16.392961876832846
26.449999999999747,62,89,1,0.022500000000000003,26.43391984359701,16.080156402737046
26.474999999999746,27,78,0,0.022500000000000003,26.45719941348948,17.80058651026393
26.474999999999746,81,83,1,0.022500000000000003,26.457981427174722,17.01857282502444
26.474999999999746,80,87,2,0.022500000000000003,26.458607038122913,16.392961876832846
26.474999999999746,93,87,3,0.022500000000000003,26.458607038122913,16.392961876832846
26.499999999999744,50,78,2,0.022500000000000003,26.48219941348948,17.80058651026393
26.499999999999744,78,80,0,0.022500000000000003,26.482512218963578,17.487781036168133
26.499999999999744,77,91,3,0.022500000000000003,26.484232649071103,15.76735092864125
26.499999999999744,83,94,1,0.022500000000000003,26.484701857282246,15.298142717497555
26.524999999999743,93,81,2,0.022500000000000003,26.507668621700624,17.331378299120235
26.524999999999743,68,86,1,0.022500000000000003,26.508450635385863,16.549364613880744
26.524999999999743,60,88,0,0.022500000000000003,26.50876344085996,16.236559139784944
26.524999999999743,58,95,3,0.022500000000000003,26.509858260019293,15.141739980449657
26.54999999999974,88,80,3,0.022500000000000003,26.532512218963575,17.487781036168133
26.54999999999974,59,84,0,0.022500000000000003,26.533137829911766,16.86217008797654
26.54999999999974,26,89,1,0.022500000000000003,26.533919843597005,16.080156402737046
26.54999999999974,27,97,2,0.022500000000000003,26.535171065493387,14.82893450635386
26.57499999999974,50,88,0,0.022500000000000003,26.558763440859956,16.236559139784944
26.57499999999974,84,88,2,0.022500000000000003,26.558763440859956,16.236559139784944
26.57499999999974,78,89,1,0.022500000000000003,26.558919843597003,16.080156402737046
26.57499999999974,57,89,3,0.022500000000000003,26.558919843597003,16.080156402737046
26.59999999999974,62,74,2,0.022500000000000003,26.581573802541282,18.426197458455523
26.59999999999974,37,84,1,0.022500000000000003,26.583137829911763,16.86217008797654
26.59999999999974,82,87,0,0.022500000000000003,26.583607038122906,16.392961876832846
26.59999999999974,50,94,3,0.022500000000000003,26.58470185728224,15.298142717497555
26.624999999999737,48,86,0,0.022500000000000003,26.608450635385857,16.549364613880744
26.624999999999737,95,91,2,0.022500000000000003,26.609232649071096,15.76735092864125
26.624999999999737,70,93,1,0.022500000000000003,26.60954545454519,15.454545454545453
26.624999999999737,34,93,3,0.022500000000000003,26.60954545454519,15.454545454545453
26.649999999999736,39,85,1,0.022500000000000003,26.633294232648808,16.705767350928642
26.649999999999736,72,90,0,0.022500000000000003,26.634076246334047,15.923753665689148
26.649999999999736,86,92,2,0.022500000000000003,26.634389051808142,15.610948191593351
26.649999999999736,58,95,3,0.022500000000000003,26.634858260019286,15.141739980449657
26.674999999999734,92,76,3,0.022500000000000003,26.656886608015373,18.113391984359726
26.674999999999734,45,85,0,0.022500000000000003,26.658294232648807,16.705767350928642
26.674999999999734,80,85,2,0.022500000000000003,26.658294232648807,16.705767350928642
26.674999999999734,34,93,1,0.022500000000000003,26.65954545454519,15.454545454545453
26.699999999999733,58,82,1,0.022500000000000003,26.682825024437662,17.174975562072337
26.699999999999733,72,82,2,0.022500000000000003,26.682825024437662,17.174975562072337
26.699999999999733,84,87,0,0.022500000000000003,26.6836070381229,16.392961876832846
26.699999999999733,57,98,3,0.022500000000000003,26.685327468230426,14.672531769305962
26.72499999999973,84,73,0,0.022500000000000003,26.706417399804227,18.58260019550342
26.72499999999973,78,88,2,0.022500000000000003,26.708763440859947,16.236559139784944
26.72499999999973,83,89,3,0.022500000000000003,26.708919843596995,16.080156402737046
26.72499999999973,30,98,1,0.022500000000000003,26.710327468230425,14.672531769305962
26.74999999999973,29,84,0,0.022500000000000003,26.733137829911755,16.86217008797654
26.74999999999973,36,92,2,0.022500000000000003,26.734389051808137,15.610948191593351
26.74999999999973,25,93,3,0.022500000000000003,26.734545454545184,15.454545454545453
26.74999999999973,43,107,1,0.022500000000000003,26.736735092863857,13.264907135874878
26.77499999999973,52,81,0,0.022500000000000003,26.75766862170061,17.331378299120235
26.77499999999973,26,84,1,0.022500000000000003,26.758137829911753,16.86217008797654
26.77499999999973,30,87,3,0.022500000000000003,26.758607038122896,16.392961876832846
26.77499999999973,55,93,2,0.022500000000000003,26.759545454545183,15.454545454545453
26.799999999999727,32,81,2,0.022500000000000003,26.78266862170061,17.331378299120235
26.799999999999727,64,88,1,0.022500000000000003,26.783763440859943,16.236559139784944
26.799999999999727,82,91,0,0.022500000000000003,26.784232649071086,15.76735092864125
26.799999999999727,93,91,3,0.022500000000000003,26.784232649071086,15.76735092864125
26.824999999999726,70,78,1,0.022500000000000003,26.80719941348946,17.80058651026393
26.824999999999726,76,83,0,0.022500000000000003,26.807981427174703,17.01857282502444
26.824999999999726,45,86,2,0.022500000000000003,26.808450635385846,16.549364613880744
26.824999999999726,63,91,3,0.022500000000000003,26.809232649071085,15.76735092864125
26.849999999999724,42,82,2,0.022500000000000003,26.832825024437653,17.174975562072337
26.849999999999724,82,90,0,0.022500000000000003,26.834076246334035,15.923753665689148
26.849999999999724,95,91,1,0.022500000000000003,26.834232649071083,15.76735092864125
26.849999999999724,73,94,3,0.022500000000000003,26.834701857282226,15.298142717497555
26.874999999999723,50,86,2,0.022500000000000003,26.858450635385843,16.549364613880744
26.874999999999723,62,87,3,0.022500000000000003,26.85860703812289,16.392961876832846
26.874999999999723,64,88,1,0.022500000000000003,26.85876344085994,16.236559139784944
26.874999999999723,37,91,0,0.022500000000000003,26.85923264907108,15.76735092864125
26.89999999999972,72,78,2,0.022500000000000003,26.882199413489456,17.80058651026393
26.89999999999972,58,83,0,0.022500000000000003,26.8829814271747,17.01857282502444
26.89999999999972,59,86,1,0.022500000000000003,26.88345063538584,16.549364613880744
26.89999999999972,81,97,3,0.022500000000000003,26.885171065493367,14.82893450635386
26.92499999999972,82,89,1,0.022500000000000003,26.908919843596983,16.080156402737046
26.92499999999972,82,91,0,0.022500000000000003,26.90923264907108,15.76735092864125
26.92499999999972,53,91,2,0.022500000000000003,26.90923264907108,15.76735092864125
26.92499999999972,45,93,3,0.022500000000000003,26.909545454545174,15.454545454545453
26.94999999999972,31,82,2,0.022500000000000003,26.932825024437648,17.174975562072337
26.94999999999972,73,85,0,0.022500000000000003,26.93329423264879,16.705767350928642
26.94999999999972,87,85,3,0.022500000000000003,26.93329423264879,16.705767350928642
26.94999999999972,59,86,1,0.022500000000000003,26.93345063538584,16.549364613880744
26.974999999999717,57,84,2,0.022500000000000003,26.958137829911742,16.86217008797654
26.974999999999717,63,88,0,0.022500000000000003,26.958763440859933,16.236559139784944
26.974999999999717,48,96,3,0.022500000000000003,26.960014662756315,14.985337243401759
26.974999999999717,60,97,1,0.022500000000000003,26.960171065493363,14.82893450635386
26.999999999999716,71,73,3,0.022500000000000003,26.98141739980421,18.58260019550342
26.999999999999716,87,80,2,0.022500000000000003,26.98251221896355,17.487781036168133
26.999999999999716,77,81,0,0.022500000000000003,26.982668621700597,17.331378299120235
26.999999999999716,28,95,1,0.022500000000000003,26.984858260019266,15.141739980449657
27.024999999999714,37,86,1,0.022500000000000003,27.008450635385834,16.549364613880744
27.024999999999714,42,87,2,0.022500000000000003,27.008607038122882,16.392961876832846
27.024999999999714,92,88,0,0.022500000000000003,27.00876344085993,16.236559139784944
27.024999999999714,55,88,3,0.022500000000000003,27.00876344085993,16.236559139784944
27.049999999999713,69,73,0,0.022500000000000003,27.03141739980421,18.58260019550342
27.049999999999713,40,88,1,0.022500000000000003,27.03376344085993,16.236559139784944
27.049999999999713,46,93,2,0.022500000000000003,27.034545454545167,15.454545454545453
27.049999999999713,36,99,3,0.022500000000000003,27.035483870967454,14.516129032258064
27.07499999999971,84,82,3,0.022500000000000003,27.05782502443764,17.174975562072337
27.07499999999971,60,84,1,0.022500000000000003,27.058137829911736,16.86217008797654
27.07499999999971,41,88,0,0.022500000000000003,27.058763440859927,16.236559139784944
27.07499999999971,68,88,2,0.022500000000000003,27.058763440859927,16.236559139784944
27.09999999999971,25,77,2,0.022500000000000003,27.082043010752397,17.956989247311828
27.09999999999971,60,84,0,0.022500000000000003,27.083137829911735,16.86217008797654
27.09999999999971,40,86,3,0.022500000000000003,27.08345063538583,16.549364613880744
27.09999999999971,70,90,1,0.022500000000000003,27.08407624633402,15.923753665689148
27.12499999999971,83,81,0,0.022500000000000003,27.10766862170059,17.331378299120235
27.12499999999971,48,83,1,0.022500000000000003,27.107981427174686,17.01857282502444
27.12499999999971,57,93,3,0.022500000000000003,27.109545454545163,15.454545454545453
27.12499999999971,75,95,2,0.022500000000000003,27.10985826001926,15.141739980449657
27.149999999999707,68,85,1,0.022500000000000003,27.13329423264878,16.705767350928642
27.149999999999707,47,88,3,0.022500000000000003,27.133763440859923,16.236559139784944
27.149999999999707,29,91,2,0.022500000000000003,27.134232649071066,15.76735092864125
27.149999999999707,93,98,0,0.022500000000000003,27.1353274682304,14.672531769305962
27.174999999999706,75,83,1,0.022500000000000003,27.157981427174683,17.01857282502444
27.174999999999706,87,85,3,0.022500000000000003,27.158294232648778,16.705767350928642
27.174999999999706,91,88,0,0.022500000000000003,27.15876344085992,16.236559139784944
27.174999999999706,40,91,2,0.022500000000000003,27.159232649071065,15.76735092864125
27.199999999999704,81,81,1,0.022500000000000003,27.182668621700586,17.331378299120235
27.199999999999704,37,85,3,0.022500000000000003,27.183294232648777,16.705767350928642
27.199999999999704,35,96,2,0.022500000000000003,27.185014662756302,14.985337243401759
27.199999999999704,28,99,0,0.022500000000000003,27.185483870967445,14.516129032258064
27.224999999999703,66,75,3,0.022500000000000003,27.206730205278294,18.269794721407624
27.224999999999703,52,86,0,0.022500000000000003,27.208450635385823,16.549364613880744
27.224999999999703,95,87,1,0.022500000000000003,27.20860703812287,16.392961876832846
27.224999999999703,44,95,2,0.022500000000000003,27.209858260019253,15.141739980449657
27.2499999999997,59,83,1,0.022500000000000003,27.23298142717468,17.01857282502444
27.2499999999997,63,87,2,0.022500000000000003,27.23360703812287,16.392961876832846
27.2499999999997,33,90,0,0.022500000000000003,27.234076246334013,15.923753665689148
27.2499999999997,80,90,3,0.022500000000000003,27.234076246334013,15.923753665689148
27.2749999999997,66,80,1,0.022500000000000003,27.257512218963534,17.487781036168133
27.2749999999997,65,80,3,0.022500000000000003,27.257512218963534,17.487781036168133
27.2749999999997,40,90,0,0.022500000000000003,27.25907624633401,15.923753665689148
27.2749999999997,31,93,2,0.022500000000000003,27.259545454545155,15.454545454545453
27.2999999999997,53,85,1,0.022500000000000003,27.28329423264877,16.705767350928642
27.2999999999997,93,87,0,0.022500000000000003,27.283607038122867,16.392961876832846
27.2999999999997,87,89,2,0.022500000000000003,27.283919843596962,16.080156402737046
27.2999999999997,65,93,3,0.022500000000000003,27.284545454545153,15.454545454545453
27.324999999999697,82,79,2,0.022500000000000003,27.30735581622648,17.64418377321603
27.324999999999697,93,93,0,0.022500000000000003,27.30954545454515,15.454545454545453
27.324999999999697,83,93,3,0.022500000000000003,27.30954545454515,15.454545454545453
27.324999999999697,53,95,1,0.022500000000000003,27.309858260019247,15.141739980449657
27.349999999999696,76,82,0,0.022500000000000003,27.332825024437625,17.174975562072337
27.349999999999696,42,85,3,0.022500000000000003,27.33329423264877,16.705767350928642
27.349999999999696,81,89,2,0.022500000000000003,27.33391984359696,16.080156402737046
27.349999999999696,91,91,1,0.022500000000000003,27.334232649071055,15.76735092864125
27.374999999999694,90,75,1,0.022500000000000003,27.356730205278286,18.269794721407624
27.374999999999694,63,77,2,0.022500000000000003,27.35704301075238,17.956989247311828
27.374999999999694,50,88,0,0.022500000000000003,27.35876344085991,16.236559139784944
27.374999999999694,92,92,3,0.022500000000000003,27.3593890518081,15.610948191593351
27.399999999999693,56,86,2,0.022500000000000003,27.383450635385813,16.549364613880744
27.399999999999693,52,89,3,0.022500000000000003,27.383919843596956,16.080156402737046
27.399999999999693,53,92,0,0.022500000000000003,27.3843890518081,15.610948191593351
27.399999999999693,46,94,1,0.022500000000000003,27.384701857282195,15.298142717497555
27.42499999999969,55,84,1,0.022500000000000003,27.408137829911716,16.86217008797654
27.42499999999969,53,84,3,0.022500000000000003,27.408137829911716,16.86217008797654
27.42499999999969,71,89,0,0.022500000000000003,27.408919843596955,16.080156402737046
27.42499999999969,43,90,2,0.022500000000000003,27.409076246334003,15.923753665689148
27.44999999999969,70,85,2,0.022500000000000003,27.433294232648763,16.705767350928642
27.44999999999969,92,88,3,0.022500000000000003,27.433763440859906,16.236559139784944
27.44999999999969,51,92,0,0.022500000000000003,27.434389051808097,15.610948191593351
27.44999999999969,82,92,1,0.022500000000000003,27.434389051808097,15.610948191593351
27.47499999999969,88,79,3,0.022500000000000003,27.45735581622647,17.64418377321603
27.47499999999969,44,84,1,0.022500000000000003,27.458137829911713,16.86217008797654
27.47499999999969,29,87,0,0.022500000000000003,27.458607038122857,16.392961876832846
27.47499999999969,66,88,2,0.022500000000000003,27.458763440859904,16.236559139784944
27.499999999999687,77,79,3,0.022500000000000003,27.48235581622647,17.64418377321603
27.499999999999687,56,81,0,0.022500000000000003,27.48266862170057,17.331378299120235
27.499999999999687,81,82,1,0.022500000000000003,27.482825024437616,17.174975562072337
27.499999999999687,24,88,2,0.022500000000000003,27.483763440859903,16.236559139784944
27.524999999999686,45,79,1,0.022500000000000003,27.507355816226468,17.64418377321603
27.524999999999686,82,85,2,0.022500000000000003,27.50829423264876,16.705767350928642
27.524999999999686,67,88,0,0.022500000000000003,27.5087634408599,16.236559139784944
27.524999999999686,50,100,3,0.022500000000000003,27.510640273704475,14.359726295210166
27.549999999999685,52,83,1,0.022500000000000003,27.53298142717466,17.01857282502444
27.549999999999685,35,84,2,0.022500000000000003,27.53313782991171,16.86217008797654
27.549999999999685,57,88,3,0.022500000000000003,27.5337634408599,16.236559139784944
27.549999999999685,30,89,0,0.022500000000000003,27.533919843596948,16.080156402737046
27.574999999999683,46,67,3,0.022500000000000003,27.555478983381892,19.521016617790814
27.574999999999683,43,87,0,0.022500000000000003,27.55860703812285,16.392961876832846
27.574999999999683,93,88,2,0.022500000000000003,27.5587634408599,16.236559139784944
27.574999999999683,61,93,1,0.022500000000000003,27.559545454545137,15.454545454545453
27.59999999999968,27,84,2,0.022500000000000003,27.583137829911706,16.86217008797654
27.59999999999968,89,87,3,0.022500000000000003,27.58360703812285,16.392961876832846
27.59999999999968,58,91,0,0.022500000000000003,27.58423264907104,15.76735092864125
27.59999999999968,42,98,1,0.022500000000000003,27.585327468230375,14.672531769305962
27.62499999999968,50,73,2,0.022500000000000003,27.606417399804176,18.58260019550342
27.62499999999968,61,86,1,0.022500000000000003,27.6084506353858,16.549364613880744
27.62499999999968,55,89,0,0.022500000000000003,27.608919843596944,16.080156402737046
27.62499999999968,78,89,3,0.022500000000000003,27.608919843596944,16.080156402737046
27.64999999999968,45,76,0,0.022500000000000003,27.631886608015318,18.113391984359726
27.64999999999968,29,80,2,0.022500000000000003,27.632512218963512,17.487781036168133
27.64999999999968,35,83,1,0.022500000000000003,27.632981427174656,17.01857282502444
27.64999999999968,41,102,3,0.022500000000000003,27.635953079178563,14.04692082111437
27.674999999999677,64,77,0,0.022500000000000003,27.657043010752364,17.956989247311828
27.674999999999677,35,89,1,0.022500000000000003,27.65891984359694,16.080156402737046
27.674999999999677,43,92,3,0.022500000000000003,27.659389051808084,15.610948191593351
27.674999999999677,71,94,2,0.022500000000000003,27.65970185728218,15.298142717497555
27.699999999999676,35,81,0,0.022500000000000003,27.682668621700557,17.331378299120235
27.699999999999676,70,90,2,0.022500000000000003,27.684076246333987,15.923753665689148
27.699999999999676,74,91,1,0.022500000000000003,27.684232649071035,15.76735092864125
27.699999999999676,35,93,3,0.022500000000000003,27.68454545454513,15.454545454545453
27.724999999999675,93,80,0,0.022500000000000003,27.707512218963508,17.487781036168133
27.724999999999675,46,87,3,0.022500000000000003,27.708607038122842,16.392961876832846
27.724999999999675,51,88,1,0.022500000000000003,27.70876344085989,16.236559139784944
27.724999999999675,57,97,2,0.022500000000000003,27.71017106549332,14.82893450635386
27.749999999999673,33,76,2,0.022500000000000003,27.731886608015312,18.113391984359726
27.749999999999673,71,87,1,0.022500000000000003,27.73360703812284,16.392961876832846
27.749999999999673,65,88,3,0.022500000000000003,27.73376344085989,16.236559139784944
27.749999999999673,39,94,0,0.022500000000000003,27.734701857282175,15.298142717497555
27.77499999999967,35,81,2,0.022500000000000003,27.757668621700553,17.331378299120235
27.77499999999967,77,88,0,0.022500000000000003,27.758763440859887,16.236559139784944
27.77499999999967,90,90,3,0.022500000000000003,27.759076246333983,15.923753665689148
27.77499999999967,93,92,1,0.022500000000000003,27.75938905180808,15.610948191593351
27.79999999999967,62,82,1,0.022500000000000003,27.7828250244376,17.174975562072337
27.79999999999967,32,92,2,0.022500000000000003,27.784389051808077,15.610948191593351
27.79999999999967,38,93,3,0.022500000000000003,27.784545454545125,15.454545454545453
27.79999999999967,28,96,0,0.022500000000000003,27.785014662756268,14.985337243401759
27.82499999999967,24,80,0,0.022500000000000003,27.807512218963502,17.487781036168133
27.82499999999967,81,82,1,0.022500000000000003,27.807825024437598,17.174975562072337
27.82499999999967,65,84,2,0.022500000000000003,27.808137829911693,16.86217008797654
27.82499999999967,91,86,3,0.022500000000000003,27.80845063538579,16.549364613880744
27.849999999999667,65,85,1,0.022500000000000003,27.83329423264874,16.705767350928642
27.849999999999667,71,85,2,0.022500000000000003,27.83329423264874,16.705767350928642
27.849999999999667,92,87,0,0.022500000000000003,27.833607038122835,16.392961876832846
27.849999999999667,54,87,3,0.022500000000000003,27.833607038122835,16.392961876832846
27.874999999999666,29,77,0,0.022500000000000003,27.857043010752353,17.956989247311828
27.874999999999666,73,79,1,0.022500000000000003,27.85735581622645,17.64418377321603
27.874999999999666,82,83,2,0.022500000000000003,27.857981427174643,17.01857282502444
27.874999999999666,47,93,3,0.022500000000000003,27.85954545454512,15.454545454545453
27.899999999999665,86,81,1,0.022500000000000003,27.882668621700546,17.331378299120235
27.899999999999665,34,82,0,0.022500000000000003,27.882825024437594,17.174975562072337
27.899999999999665,67,87,2,0.022500000000000003,27.883607038122832,16.392961876832846
27.899999999999665,63,93,3,0.022500000000000003,27.88454545454512,15.454545454545453
27.924999999999663,92,74,3,0.022500000000000003,27.906573802541207,18.426197458455523
27.924999999999663,57,82,2,0.022500000000000003,27.907825024437592,17.174975562072337
27.924999999999663,41,85,0,0.022500000000000003,27.908294232648736,16.705767350928642
27.924999999999663,34,87,1,0.022500000000000003,27.90860703812283,16.392961876832846
27.949999999999662,37,81,1,0.022500000000000003,27.932668621700543,17.331378299120235
27.949999999999662,76,87,3,0.022500000000000003,27.93360703812283,16.392961876832846
27.949999999999662,57,91,2,0.022500000000000003,27.93423264907102,15.76735092864125
27.949999999999662,59,95,0,0.022500000000000003,27.93485826001921,15.141739980449657
27.97499999999966,45,86,3,0.022500000000000003,27.95845063538578,16.549364613880744
27.97499999999966,42,89,0,0.022500000000000003,27.958919843596924,16.080156402737046
27.97499999999966,65,96,1,0.022500000000000003,27.960014662756258,14.985337243401759
27.97499999999966,76,99,2,0.022500000000000003,27.9604838709674,14.516129032258064
27.99999999999966,71,76,3,0.022500000000000003,27.981886608015298,18.113391984359726
27.99999999999966,80,86,0,0.022500000000000003,27.98345063538578,16.549364613880744
27.99999999999966,35,86,2,0.022500000000000003,27.98345063538578,16.549364613880744
27.99999999999966,78,93,1,0.022500000000000003,27.984545454545113,15.454545454545453
28.024999999999658,71,80,0,0.022500000000000003,28.00751221896349,17.487781036168133
28.024999999999658,27,83,3,0.022500000000000003,28.007981427174634,17.01857282502444
28.024999999999658,77,86,2,0.022500000000000003,28.008450635385778,16.549364613880744
28.024999999999658,62,88,1,0.022500000000000003,28.008763440859873,16.236559139784944
28.049999999999656,94,88,3,0.022500000000000003,28.03376344085987,16.236559139784944
28.049999999999656,56,91,2,0.022500000000000003,28.034232649071015,15.76735092864125
28.049999999999656,29,92,0,0.022500000000000003,28.034389051808063,15.610948191593351
28.049999999999656,73,98,1,0.022500000000000003,28.03532746823035,14.672531769305962
28.074999999999655,38,82,2,0.022500000000000003,28.057825024437584,17.174975562072337
28.074999999999655,36,85,3,0.022500000000000003,28.058294232648727,16.705767350928642
28.074999999999655,85,86,0,0.022500000000000003,28.058450635385775,16.549364613880744
28.074999999999655,47,90,1,0.022500000000000003,28.059076246333966,15.923753665689148
28.099999999999653,43,89,2,0.022500000000000003,28.083919843596917,16.080156402737046
28.099999999999653,56,91,1,0.022500000000000003,28.084232649071012,15.76735092864125
28.099999999999653,33,91,3,0.022500000000000003,28.084232649071012,15.76735092864125
28.099999999999653,27,92,0,0.022500000000000003,28.08438905180806,15.610948191593351
28.124999999999652,66,84,3,0.022500000000000003,28.108137829911676,16.86217008797654
28.124999999999652,85,90,2,0.022500000000000003,28.109076246333963,15.923753665689148
28.124999999999652,29,92,0,0.022500000000000003,28.10938905180806,15.610948191593351
28.124999999999652,93,92,1,0.022500000000000003,28.10938905180806,15.610948191593351
28.14999999999965,63,80,2,0.022500000000000003,28.132512218963484,17.487781036168133
28.14999999999965,71,82,0,0.022500000000000003,28.13282502443758,17.174975562072337
28.14999999999965,72,88,1,0.022500000000000003,28.133763440859866,16.236559139784944
28.14999999999965,84,91,3,0.022500000000000003,28.13423264907101,15.76735092864125
28.17499999999965,38,73,2,0.022500000000000003,28.156417399804145,18.58260019550342
28.17499999999965,34,84,1,0.022500000000000003,28.158137829911674,16.86217008797654
28.17499999999965,74,89,3,0.022500000000000003,28.158919843596912,16.080156402737046
28.17499999999965,76,91,0,0.022500000000000003,28.159232649071008,15.76735092864125
28.199999999999648,86,79,0,0.022500000000000003,28.18235581622643,17.64418377321603
28.199999999999648,89,87,1,0.022500000000000003,28.183607038122815,16.392961876832846
28.199999999999648,67,88,2,0.022500000000000003,28.183763440859863,16.236559139784944
28.199999999999648,39,93,3,0.022500000000000003,28.184545454545102,15.454545454545453
28.224999999999646,74,84,3,0.022500000000000003,28.20813782991167,16.86217008797654
28.224999999999646,91,88,0,0.022500000000000003,28.20876344085986,16.236559139784944
28.224999999999646,71,93,1,0.022500000000000003,28.2095454545451,15.454545454545453
28.224999999999646,36,99,2,0.022500000000000003,28.210483870967387,14.516129032258064
28.249999999999645,91,84,1,0.022500000000000003,28.23313782991167,16.86217008797654
28.249999999999645,59,85,3,0.022500000000000003,28.233294232648717,16.705767350928642
28.249999999999645,56,92,0,0.022500000000000003,28.23438905180805,15.610948191593351
28.249999999999645,94,98,2,0.022500000000000003,28.235327468230338,14.672531769305962
28.274999999999643,36,80,3,0.022500000000000003,28.257512218963477,17.487781036168133
28.274999999999643,31,81,1,0.022500000000000003,28.257668621700525,17.331378299120235
28.274999999999643,72,91,0,0.022500000000000003,28.259232649071002,15.76735092864125
28.274999999999643,56,98,2,0.022500000000000003,28.260327468230336,14.672531769305962
28.299999999999642,69,85,2,0.022500000000000003,28.283294232648714,16.705767350928642
28.299999999999642,64,92,3,0.022500000000000003,28.28438905180805,15.610948191593351
28.299999999999642,34,95,0,0.022500000000000003,28.284858260019192,15.141739980449657
28.299999999999642,56,95,1,0.022500000000000003,28.284858260019192,15.141739980449657
28.32499999999964,87,80,2,0.022500000000000003,28.307512218963474,17.487781036168133
28.32499999999964,38,81,3,0.022500000000000003,28.307668621700522,17.331378299120235
28.32499999999964,86,82,1,0.022500000000000003,28.30782502443757,17.174975562072337
28.32499999999964,47,100,0,0.022500000000000003,28.31064027370443,14.359726295210166
28.34999999999964,88,85,1,0.022500000000000003,28.33329423264871,16.705767350928642
28.34999999999964,38,92,2,0.022500000000000003,28.334389051808046,15.610948191593351
28.34999999999964,44,93,3,0.022500000000000003,28.334545454545093,15.454545454545453
28.34999999999964,90,101,0,0.022500000000000003,28.335796676441475,14.203323558162268
28.374999999999638,43,85,3,0.022500000000000003,28.35829423264871,16.705767350928642
28.374999999999638,37,92,2,0.022500000000000003,28.359389051808044,15.610948191593351
28.374999999999638,68,99,0,0.022500000000000003,28.36048387096738,14.516129032258064
28.374999999999638,50,104,1,0.022500000000000003,28.361265884652617,13.734115347018573
28.399999999999636,24,79,2,0.022500000000000003,28.38235581622642,17.64418377321603
28.399999999999636,65,86,3,0.022500000000000003,28.383450635385756,16.549364613880744
28.399999999999636,75,88,1,0.022500000000000003,28.383763440859852,16.236559139784944
28.399999999999636,52,94,0,0.022500000000000003,28.38470185728214,15.298142717497555
28.424999999999635,78,83,0,0.022500000000000003,28.40798142717461,17.01857282502444
28.424999999999635,72,85,1,0.022500000000000003,28.408294232648707,16.705767350928642
28.424999999999635,65,88,3,0.022500000000000003,28.40876344085985,16.236559139784944
28.424999999999635,67,89,2,0.022500000000000003,28.408919843596898,16.080156402737046
28.449999999999633,38,81,3,0.022500000000000003,28.432668621700515,17.331378299120235
28.449999999999633,57,83,1,0.022500000000000003,28.43298142717461,17.01857282502444
28.449999999999633,95,86,2,0.022500000000000003,28.433450635385753,16.549364613880744
28.449999999999633,66,93,0,0.022500000000000003,28.434545454545088,15.454545454545453
28.474999999999632,65,77,3,0.022500000000000003,28.45704301075232,17.956989247311828
28.474999999999632,36,90,1,0.022500000000000003,28.459076246333943,15.923753665689148
28.474999999999632,56,97,0,0.022500000000000003,28.460171065493277,14.82893450635386
28.474999999999632,53,99,2,0.022500000000000003,28.460483870967373,14.516129032258064
28.49999999999963,65,85,2,0.022500000000000003,28.483294232648703,16.705767350928642
28.49999999999963,83,89,0,0.022500000000000003,28.483919843596894,16.080156402737046
28.49999999999963,42,89,3,0.022500000000000003,28.483919843596894,16.080156402737046
28.49999999999963,69,96,1,0.022500000000000003,28.485014662756228,14.985337243401759
28.52499999999963,85,78,2,0.022500000000000003,28.507199413489364,17.80058651026393
28.52499999999963,41,84,0,0.022500000000000003,28.508137829911654,16.86217008797654
28.52499999999963,46,93,1,0.022500000000000003,28.509545454545083,15.454545454545453
28.52499999999963,68,93,3,0.022500000000000003,28.509545454545083,15.454545454545453
28.549999999999628,46,85,1,0.022500000000000003,28.5332942326487,16.705767350928642
28.549999999999628,93,86,3,0.022500000000000003,28.533450635385748,16.549364613880744
28.549999999999628,30,88,0,0.022500000000000003,28.533763440859843,16.236559139784944
28.549999999999628,58,91,2,0.022500000000000003,28.534232649070987,15.76735092864125
28.574999999999626,47,82,2,0.022500000000000003,28.557825024437555,17.174975562072337
28.574999999999626,94,88,3,0.022500000000000003,28.558763440859842,16.236559139784944
28.574999999999626,75,89,1,0.022500000000000003,28.55891984359689,16.080156402737046
28.574999999999626,68,91,0,0.022500000000000003,28.559232649070985,15.76735092864125
28.599999999999625,94,63,2,0.022500000000000003,28.579853372433643,20.146627565982406
28.599999999999625,65,82,3,0.022500000000000003,28.582825024437554,17.174975562072337
28.599999999999625,89,87,0,0.022500000000000003,28.583607038122793,16.392961876832846
28.599999999999625,33,87,1,0.022500000000000003,28.583607038122793,16.392961876832846
28.624999999999623,74,77,3,0.022500000000000003,28.60704301075231,17.956989247311828
28.624999999999623,95,78,0,0.022500000000000003,28.607199413489358,17.80058651026393
28.624999999999623,40,79,1,0.022500000000000003,28.607355816226406,17.64418377321603
28.624999999999623,29,91,2,0.022500000000000003,28.609232649070982,15.76735092864125
28.649999999999622,57,84,3,0.022500000000000003,28.633137829911647,16.86217008797654
28.649999999999622,53,88,1,0.022500000000000003,28.633763440859838,16.236559139784944
28.649999999999622,51,89,0,0.022500000000000003,28.633919843596885,16.080156402737046
28.649999999999622,75,94,2,0.022500000000000003,28.634701857282124,15.298142717497555
28.67499999999962,44,78,2,0.022500000000000003,28.657199413489355,17.80058651026393
28.67499999999962,64,81,3,0.022500000000000003,28.657668621700502,17.331378299120235
28.67499999999962,93,86,1,0.022500000000000003,28.65845063538574,16.549364613880744
28.67499999999962,70,91,0,0.022500000000000003,28.65923264907098,15.76735092864125
28.69999999999962,95,83,3,0.022500000000000003,28.682981427174596,17.01857282502444
28.69999999999962,94,86,1,0.022500000000000003,28.68345063538574,16.549364613880744
28.69999999999962,34,90,0,0.022500000000000003,28.68407624633393,15.923753665689148
28.69999999999962,39,91,2,0.022500000000000003,28.684232649070978,15.76735092864125
28.724999999999618,59,84,0,0.022500000000000003,28.708137829911642,16.86217008797654
28.724999999999618,29,88,1,0.022500000000000003,28.708763440859833,16.236559139784944
28.724999999999618,35,92,2,0.022500000000000003,28.709389051808024,15.610948191593351
28.724999999999618,68,93,3,0.022500000000000003,28.709545454545072,15.454545454545453
28.749999999999616,60,79,0,0.022500000000000003,28.7323558162264,17.64418377321603
28.749999999999616,65,79,3,0.022500000000000003,28.7323558162264,17.64418377321603
28.749999999999616,83,90,1,0.022500000000000003,28.734076246333927,15.923753665689148
28.749999999999616,59,103,2,0.022500000000000003,28.73610948191555,13.890518084066471
28.774999999999615,35,85,3,0.022500000000000003,28.758294232648687,16.705767350928642
28.774999999999615,41,88,0,0.022500000000000003,28.75876344085983,16.236559139784944
28.774999999999615,54,88,1,0.022500000000000003,28.75876344085983,16.236559139784944
28.774999999999615,84,88,2,0.022500000000000003,28.75876344085983,16.236559139784944
28.799999999999613,70,84,1,0.022500000000000003,28.783137829911638,16.86217008797654
28.799999999999613,92,89,2,0.022500000000000003,28.783919843596877,16.080156402737046
28.799999999999613,29,96,3,0.022500000000000003,28.78501466275621,14.985337243401759
28.799999999999613,88,103,0,0.022500000000000003,28.786109481915545,13.890518084066471
28.824999999999612,29,80,1,0.022500000000000003,28.807512218963446,17.487781036168133
28.824999999999612,52,86,3,0.022500000000000003,28.808450635385732,16.549364613880744
28.824999999999612,33,94,2,0.022500000000000003,28.809701857282114,15.298142717497555
28.824999999999612,36,97,0,0.022500000000000003,28.810171065493257,14.82893450635386
28.84999999999961,81,80,1,0.022500000000000003,28.832512218963444,17.487781036168133
28.84999999999961,81,82,0,0.022500000000000003,28.83282502443754,17.174975562072337
28.84999999999961,85,82,3,0.022500000000000003,28.83282502443754,17.174975562072337
28.84999999999961,67,83,2,0.022500000000000003,28.832981427174587,17.01857282502444
28.87499999999961,67,85,1,0.022500000000000003,28.85829423264868,16.705767350928642
28.87499999999961,80,86,2,0.022500000000000003,28.85845063538573,16.549364613880744
28.87499999999961,61,87,3,0.022500000000000003,28.858607038122777,16.392961876832846
28.87499999999961,61,91,0,0.022500000000000003,28.859232649070968,15.76735092864125
28.899999999999608,77,72,1,0.022500000000000003,28.881260997067056,18.73900293255132
28.899999999999608,34,81,3,0.022500000000000003,28.88266862170049,17.331378299120235
28.899999999999608,88,88,0,0.022500000000000003,28.883763440859823,16.236559139784944
28.899999999999608,36,95,2,0.022500000000000003,28.884858260019158,15.141739980449657
28.924999999999606,68,82,0,0.022500000000000003,28.907825024437535,17.174975562072337
28.924999999999606,32,91,1,0.022500000000000003,28.909232649070965,15.76735092864125
28.924999999999606,50,91,3,0.022500000000000003,28.909232649070965,15.76735092864125
28.924999999999606,95,95,2,0.022500000000000003,28.909858260019156,15.141739980449657
28.949999999999605,31,83,1,0.022500000000000003,28.93298142717458,17.01857282502444
28.949999999999605,28,84,0,0.022500000000000003,28.93313782991163,16.86217008797654
28.949999999999605,28,90,3,0.022500000000000003,28.934076246333916,15.923753665689148
28.949999999999605,42,95,2,0.022500000000000003,28.934858260019155,15.141739980449657
28.974999999999604,28,82,1,0.022500000000000003,28.957825024437533,17.174975562072337
28.974999999999604,53,87,3,0.022500000000000003,28.95860703812277,16.392961876832846
28.974999999999604,42,88,0,0.022500000000000003,28.95876344085982,16.236559139784944
28.974999999999604,77,90,2,0.022500000000000003,28.959076246333915,15.923753665689148
28.999999999999602,39,72,2,0.022500000000000003,28.98126099706705,18.73900293255132
28.999999999999602,90,81,0,0.022500000000000003,28.982668621700483,17.331378299120235
28.999999999999602,71,81,3,0.022500000000000003,28.982668621700483,17.331378299120235
28.999999999999602,60,92,1,0.022500000000000003,28.98438905180801,15.610948191593351
29.0249999999996,95,90,1,0.022500000000000003,29.009076246333912,15.923753665689148
29.0249999999996,69,91,3,0.022500000000000003,29.00923264907096,15.76735092864125
29.0249999999996,51,95,0,0.022500000000000003,29.00985826001915,15.141739980449657
29.0249999999996,57,95,2,0.022500000000000003,29.00985826001915,15.141739980449657
29.0499999999996,51,81,1,0.022500000000000003,29.03266862170048,17.331378299120235
29.0499999999996,67,82,3,0.022500000000000003,29.03282502443753,17.174975562072337
29.0499999999996,82,88,2,0.022500000000000003,29.033763440859815,16.236559139784944
29.0499999999996,24,89,0,0.022500000000000003,29.033919843596863,16.080156402737046
29.074999999999598,36,79,3,0.022500000000000003,29.05735581622638,17.64418377321603
29.074999999999598,74,81,1,0.022500000000000003,29.05766862170048,17.331378299120235
29.074999999999598,30,85,0,0.022500000000000003,29.05829423264867,16.705767350928642
29.074999999999598,74,85,2,0.022500000000000003,29.05829423264867,16.705767350928642
29.099999999999596,93,85,2,0.022500000000000003,29.08329423264867,16.705767350928642
29.099999999999596,64,87,0,0.022500000000000003,29.083607038122764,16.392961876832846
29.099999999999596,57,90,1,0.022500000000000003,29.084076246333908,15.923753665689148
29.099999999999596,38,99,3,0.022500000000000003,29.085483870967337,14.516129032258064
29.124999999999595,48,83,3,0.022500000000000003,29.107981427174572,17.01857282502444
29.124999999999595,75,84,1,0.022500000000000003,29.10813782991162,16.86217008797654
29.124999999999595,83,88,0,0.022500000000000003,29.10876344085981,16.236559139784944
29.124999999999595,83,98,2,0.022500000000000003,29.110327468230288,14.672531769305962
29.149999999999594,44,83,0,0.022500000000000003,29.13298142717457,17.01857282502444
29.149999999999594,33,89,1,0.022500000000000003,29.133919843596857,16.080156402737046
29.149999999999594,54,90,2,0.022500000000000003,29.134076246333905,15.923753665689148
29.149999999999594,77,90,3,0.022500000000000003,29.134076246333905,15.923753665689148
29.174999999999592,62,67,2,0.022500000000000003,29.1554789833818,19.521016617790814
29.174999999999592,79,82,3,0.022500000000000003,29.15782502443752,17.174975562072337
29.174999999999592,70,90,0,0.022500000000000003,29.159076246333903,15.923753665689148
29.174999999999592,64,95,1,0.022500000000000003,29.159858260019142,15.141739980449657
29.19999999999959,92,84,0,0.022500000000000003,29.183137829911615,16.86217008797654
29.19999999999959,76,87,1,0.022500000000000003,29.18360703812276,16.392961876832846
29.19999999999959,71,88,3,0.022500000000000003,29.183763440859806,16.236559139784944
29.19999999999959,90,89,2,0.022500000000000003,29.183919843596854,16.080156402737046
29.22499999999959,56,85,0,0.022500000000000003,29.20829423264866,16.705767350928642
29.22499999999959,34,90,2,0.022500000000000003,29.2090762463339,15.923753665689148
29.22499999999959,67,91,1,0.022500000000000003,29.209232649070948,15.76735092864125
29.22499999999959,69,96,3,0.022500000000000003,29.210014662756187,14.985337243401759
29.249999999999588,79,69,2,0.022500000000000003,29.230791788855893,19.208211143695017
29.249999999999588,93,78,0,0.022500000000000003,29.232199413489322,17.80058651026393
29.249999999999588,68,86,1,0.022500000000000003,29.233450635385708,16.549364613880744
29.249999999999588,35,88,3,0.022500000000000003,29.233763440859803,16.236559139784944
29.274999999999586,26,85,0,0.022500000000000003,29.25829423264866,16.705767350928642
29.274999999999586,93,87,1,0.022500000000000003,29.258607038122754,16.392961876832846
29.274999999999586,43,87,2,0.022500000000000003,29.258607038122754,16.392961876832846
29.274999999999586,75,93,3,0.022500000000000003,29.25954545454504,15.454545454545453
29.299999999999585,50,81,0,0.022500000000000003,29.282668621700466,17.331378299120235
29.299999999999585,44,88,1,0.022500000000000003,29.2837634408598,16.236559139784944
29.299999999999585,83,93,2,0.022500000000000003,29.28454545454504,15.454545454545453
29.299999999999585,86,94,3,0.022500000000000003,29.284701857282087,15.298142717497555
29.324999999999584,42,83,1,0.022500000000000003,29.30798142717456,17.01857282502444
29.324999999999584,56,93,0,0.022500000000000003,29.309545454545038,15.454545454545453
29.324999999999584,28,93,2,0.022500000000000003,29.309545454545038,15.454545454545453
29.324999999999584,69,94,3,0.022500000000000003,29.309701857282086,15.298142717497555
29.349999999999582,37,84,0,0.022500000000000003,29.333137829911607,16.86217008797654
29.349999999999582,82,87,2,0.022500000000000003,29.33360703812275,16.392961876832846
29.349999999999582,38,88,1,0.022500000000000003,29.333763440859798,16.236559139784944
29.349999999999582,37,90,3,0.022500000000000003,29.334076246333893,15.923753665689148
29.37499999999958,59,85,1,0.022500000000000003,29.358294232648653,16.705767350928642
29.37499999999958,35,89,3,0.022500000000000003,29.358919843596844,16.080156402737046
29.37499999999958,54,93,2,0.022500000000000003,29.359545454545035,15.454545454545453
29.37499999999958,30,98,0,0.022500000000000003,29.360327468230274,14.672531769305962
29.39999999999958,47,93,0,0.022500000000000003,29.384545454545034,15.454545454545453
29.39999999999958,75,93,1,0.022500000000000003,29.384545454545034,15.454545454545453
29.39999999999958,49,95,3,0.022500000000000003,29.38485826001913,15.141739980449657
29.39999999999958,55,101,2,0.022500000000000003,29.385796676441416,14.203323558162268
29.424999999999578,32,87,3,0.022500000000000003,29.408607038122746,16.392961876832846
29.424999999999578,85,88,1,0.022500000000000003,29.408763440859794,16.236559139784944
29.424999999999578,78,88,2,0.022500000000000003,29.408763440859794,16.236559139784944
29.424999999999578,78,95,0,0.022500000000000003,29.409858260019128,15.141739980449657
29.449999999999577,56,78,2,0.022500000000000003,29.43219941348931,17.80058651026393
29.449999999999577,89,80,0,0.022500000000000003,29.43251221896341,17.487781036168133
29.449999999999577,30,86,3,0.022500000000000003,29.433450635385697,16.549364613880744
29.449999999999577,43,94,1,0.022500000000000003,29.43470185728208,15.298142717497555
29.474999999999575,72,80,1,0.022500000000000003,29.45751221896341,17.487781036168133
29.474999999999575,59,87,0,0.022500000000000003,29.458607038122743,16.392961876832846
29.474999999999575,47,91,2,0.022500000000000003,29.459232649070934,15.76735092864125
29.474999999999575,42,95,3,0.022500000000000003,29.459858260019125,15.141739980449657
29.499999999999574,35,86,2,0.022500000000000003,29.483450635385694,16.549364613880744
29.499999999999574,88,88,1,0.022500000000000003,29.48376344085979,16.236559139784944
29.499999999999574,66,91,3,0.022500000000000003,29.484232649070933,15.76735092864125
29.499999999999574,24,92,0,0.022500000000000003,29.48438905180798,15.610948191593351
29.524999999999572,51,79,2,0.022500000000000003,29.507355816226355,17.64418377321603
29.524999999999572,94,87,0,0.022500000000000003,29.50860703812274,16.392961876832846
29.524999999999572,78,89,1,0.022500000000000003,29.508919843596836,16.080156402737046
29.524999999999572,84,98,3,0.022500000000000003,29.510327468230265,14.672531769305962
29.54999999999957,86,80,1,0.022500000000000003,29.532512218963404,17.487781036168133
29.54999999999957,41,82,2,0.022500000000000003,29.5328250244375,17.174975562072337
29.54999999999957,94,91,0,0.022500000000000003,29.53423264907093,15.76735092864125
29.54999999999957,24,91,3,0.022500000000000003,29.53423264907093,15.76735092864125
29.57499999999957,45,80,0,0.022500000000000003,29.557512218963403,17.487781036168133
29.57499999999957,37,83,1,0.022500000000000003,29.557981427174546,17.01857282502444
29.57499999999957,78,84,3,0.022500000000000003,29.558137829911594,16.86217008797654
29.57499999999957,93,91,2,0.022500000000000003,29.55923264907093,15.76735092864125
29.599999999999568,59,81,3,0.022500000000000003,29.58266862170045,17.331378299120235
29.599999999999568,89,86,2,0.022500000000000003,29.583450635385688,16.549364613880744
29.599999999999568,45,97,0,0.022500000000000003,29.585171065493213,14.82893450635386
29.599999999999568,88,105,1,0.022500000000000003,29.5864222873896,13.577712609970675
29.624999999999567,33,80,0,0.022500000000000003,29.6075122189634,17.487781036168133
29.624999999999567,63,80,1,0.022500000000000003,29.6075122189634,17.487781036168133
29.624999999999567,31,90,3,0.022500000000000003,29.609076246333878,15.923753665689148
29.624999999999567,68,91,2,0.022500000000000003,29.609232649070925,15.76735092864125
29.649999999999565,65,89,0,0.022500000000000003,29.63391984359683,16.080156402737046
29.649999999999565,40,89,1,0.022500000000000003,29.63391984359683,16.080156402737046
29.649999999999565,32,90,3,0.022500000000000003,29.634076246333876,15.923753665689148
29.649999999999565,45,91,2,0.022500000000000003,29.634232649070924,15.76735092864125
29.674999999999564,59,84,3,0.022500000000000003,29.65813782991159,16.86217008797654
29.674999999999564,59,90,1,0.022500000000000003,29.659076246333875,15.923753665689148
29.674999999999564,60,93,0,0.022500000000000003,29.659545454545018,15.454545454545453
29.674999999999564,94,97,2,0.022500000000000003,29.66017106549321,14.82893450635386
29.699999999999562,83,81,1,0.022500000000000003,29.682668621700444,17.331378299120235
29.699999999999562,45,85,0,0.022500000000000003,29.683294232648635,16.705767350928642
29.699999999999562,90,92,3,0.022500000000000003,29.68438905180797,15.610948191593351
29.699999999999562,48,101,2,0.022500000000000003,29.6857966764414,14.203323558162268
29.72499999999956,33,84,3,0.022500000000000003,29.708137829911585,16.86217008797654
29.72499999999956,54,85,0,0.022500000000000003,29.708294232648633,16.705767350928642
29.72499999999956,50,86,1,0.022500000000000003,29.70845063538568,16.549364613880744
29.72499999999956,91,96,2,0.022500000000000003,29.71001466275616,14.985337243401759
29.74999999999956,32,83,3,0.022500000000000003,29.732981427174536,17.01857282502444
29.74999999999956,85,97,1,0.022500000000000003,29.735171065493205,14.82893450635386
29.74999999999956,74,99,0,0.022500000000000003,29.7354838709673,14.516129032258064
29.74999999999956,82,103,2,0.022500000000000003,29.73610948191549,13.890518084066471
29.774999999999558,94,82,0,0.022500000000000003,29.757825024437487,17.174975562072337
29.774999999999558,49,84,1,0.022500000000000003,29.758137829911583,16.86217008797654
29.774999999999558,67,86,2,0.022500000000000003,29.758450635385678,16.549364613880744
29.774999999999558,85,89,3,0.022500000000000003,29.75891984359682,16.080156402737046
29.799999999999557,58,78,3,0.022500000000000003,29.78219941348929,17.80058651026393
29.799999999999557,70,81,2,0.022500000000000003,29.782668621700438,17.331378299120235
29.799999999999557,92,83,0,0.022500000000000003,29.782981427174533,17.01857282502444
29.799999999999557,41,88,1,0.022500000000000003,29.783763440859772,16.236559139784944
29.824999999999555,32,75,0,0.022500000000000003,29.806730205278146,18.269794721407624
29.824999999999555,39,83,1,0.022500000000000003,29.807981427174532,17.01857282502444
29.824999999999555,52,83,2,0.022500000000000003,29.807981427174532,17.01857282502444
29.824999999999555,71,87,3,0.022500000000000003,29.808607038122723,16.392961876832846
29.849999999999554,67,81,1,0.022500000000000003,29.832668621700435,17.331378299120235
29.849999999999554,35,81,3,0.022500000000000003,29.832668621700435,17.331378299120235
29.849999999999554,24,85,2,0.022500000000000003,29.833294232648626,16.705767350928642
29.849999999999554,50,90,0,0.022500000000000003,29.834076246333865,15.923753665689148
29.874999999999552,91,83,3,0.022500000000000003,29.85798142717453,17.01857282502444
29.874999999999552,57,85,2,0.022500000000000003,29.858294232648625,16.705767350928642
29.874999999999552,27,90,0,0.022500000000000003,29.859076246333863,15.923753665689148
29.874999999999552,85,97,1,0.022500000000000003,29.860171065493198,14.82893450635386
29.89999999999955,91,70,1,0.022500000000000003,29.880948191592903,19.05180840664712
29.89999999999955,39,92,3,0.022500000000000003,29.884389051807958,15.610948191593351
29.89999999999955,63,93,0,0.022500000000000003,29.884545454545005,15.454545454545453
29.89999999999955,24,95,2,0.022500000000000003,29.8848582600191,15.141739980449657
29.92499999999955,32,83,2,0.022500000000000003,29.907981427174526,17.01857282502444
29.92499999999955,65,89,1,0.022500000000000003,29.908919843596813,16.080156402737046
29.92499999999955,70,92,3,0.022500000000000003,29.909389051807956,15.610948191593351
29.92499999999955,73,96,0,0.022500000000000003,29.910014662756147,14.985337243401759
29.949999999999548,53,81,3,0.022500000000000003,29.93266862170043,17.331378299120235
29.949999999999548,94,89,0,0.022500000000000003,29.93391984359681,16.080156402737046
29.949999999999548,95,90,2,0.022500000000000003,29.93407624633386,15.923753665689148
29.949999999999548,66,94,1,0.022500000000000003,29.93470185728205,15.298142717497555
29.974999999999547,81,78,2,0.022500000000000003,29.95719941348928,17.80058651026393
29.974999999999547,84,83,0,0.022500000000000003,29.957981427174524,17.01857282502444
29.974999999999547,84,90,1,0.022500000000000003,29.959076246333858,15.923753665689148
29.974999999999547,45,99,3,0.022500000000000003,29.960483870967288,14.516129032258064
30.0,36,50,0,0.45,29.977820136852394,22.179863147605083
30.0,48,50,1,0.45,29.977820136852394,22.179863147605083
30.0,55,50,2,0.45,29.977820136852394,22.179863147605083
30.0,60,50,3,0.45,29.977820136852394,22.179863147605083
29.999999999999545,63,84,2,0.022500000000000003,29.98313782991157,16.86217008797654
29.999999999999545,62,88,3,0.022500000000000003,29.98376344085976,16.236559139784944
29.999999999999545,94,94,1,0.022500000000000003,29.984701857282047,15.298142717497555
29.999999999999545,81,96,0,0.022500000000000003,29.985014662756143,14.985337243401759
30.5,36,50,0,0.45,30.477820136852394,22.179863147605083
30.5,43,50,1,0.45,30.477820136852394,22.179863147605083
30.5,60,50,2,0.45,30.477820136852394,22.179863147605083
30.5,72,50,3,0.45,30.477820136852394,22.179863147605083
31.0,24,50,0,0.45,30.977820136852394,22.179863147605083
31.0,43,50,1,0.45,30.977820136852394,22.179863147605083
31.0,55,50,2,0.45,30.977820136852394,22.179863147605083
31.0,64,50,3,0.45,30.977820136852394,22.179863147605083
31.5,40,50,0,0.45,31.477820136852394,22.179863147605083
31.5,48,50,1,0.45,31.477820136852394,22.179863147605083
31.5,55,50,2,0.45,31.477820136852394,22.179863147605083
31.5,60,50,3,0.45,31.477820136852394,22.179863147605083
32.0,40,50,0,0.45,31.977820136852394,22.179863147605083
32.0,36,50,1,0.45,31.977820136852394,22.179863147605083
32.0,60,50,2,0.45,31.977820136852394,22.179863147605083
32.0,76,50,3,0.45,31.977820136852394,22.179863147605083
32.5,36,50,0,0.45,32.477820136852394,22.179863147605083
32.5,43,50,1,0.45,32.477820136852394,22.179863147605083
32.5,72,50,2,0.45,32.477820136852394,22.179863147605083
32.5,64,50,3,0.45,32.477820136852394,22.179863147605083
33.0,43,50,0,0.45,32.977820136852394,22.179863147605083
33.0,52,50,1,0.45,32.977820136852394,22.179863147605083
33.0,55,50,2,0.45,32.977820136852394,22.179863147605083
33.0,79,50,3,0.45,32.977820136852394,22.179863147605083
33.5,43,50,0,0.45,33.477820136852394,22.179863147605083
33.5,43,50,1,0.45,33.477820136852394,22.179863147605083
33.5,48,50,2,0.45,33.477820136852394,22.179863147605083
33.5,64,50,3,0.45,33.477820136852394,22.179863147605083
