onset_time,pitch,velocity,voice_id,duration,trigger_time,compensation_ms
0.0,50,80,0,0.06,-0.017487781036168132,17.487781036168133
0.0,62,80,1,0.045000000000000005,-0.017487781036168132,17.487781036168133
0.05,53,80,1,0.045000000000000005,0.03251221896383187,17.487781036168133
0.06666666666666667,45,80,0,0.06,0.049178885630498534,17.487781036168133
0.1,60,80,1,0.045000000000000005,0.08251221896383187,17.487781036168133
0.13333333333333333,53,80,0,0.06,0.1158455522971652,17.487781036168133
0.15000000000000002,62,80,1,0.045000000000000005,0.1325122189638319,17.487781036168133
0.2,60,80,0,0.06,0.18251221896383188,17.487781036168133
0.2,53,80,1,0.045000000000000005,0.18251221896383188,17.487781036168133
0.25,74,80,1,0.045000000000000005,0.23251221896383187,17.487781036168133
0.26666666666666666,45,80,0,0.06,0.24917888563049853,17.487781036168133
0.3,62,80,1,0.045000000000000005,0.28251221896383183,17.487781036168133
0.3333333333333333,45,80,0,0.06,0.31584555229716516,17.487781036168133
0.35,50,80,1,0.045000000000000005,0.3325122189638319,17.487781036168133
0.39999999999999997,60,80,0,0.06,0.3825122189638318,17.487781036168133
0.39999999999999997,65,80,1,0.045000000000000005,0.3825122189638318,17.487781036168133
0.44999999999999996,52,80,1,0.045000000000000005,0.43251221896383185,17.487781036168133
0.4666666666666666,53,80,0,0.06,0.44917888563049846,17.487781036168133
0.49999999999999994,65,80,1,0.045000000000000005,0.4825122189638318,17.487781036168133
0.5333333333333333,43,80,0,0.06,0.5158455522971652,17.487781036168133
0.5499999999999999,69,80,1,0.045000000000000005,0.5325122189638318,17.487781036168133
0.6,52,80,0,0.06,0.5825122189638319,17.487781036168133
0.6,53,80,1,0.045000000000000005,0.5825122189638319,17.487781036168133
0.65,67,80,1,0.045000000000000005,0.6325122189638319,17.487781036168133
0.6666666666666666,43,80,0,0.06,0.6491788856304985,17.487781036168133
0.7000000000000001,62,80,1,0.045000000000000005,0.682512218963832,17.487781036168133
0.7333333333333333,43,80,0,0.06,0.7158455522971652,17.487781036168133
0.7500000000000001,65,80,1,0.045000000000000005,0.732512218963832,17.487781036168133
0.7999999999999999,48,80,0,0.06,0.7825122189638318,17.487781036168133
0.8000000000000002,74,80,1,0.045000000000000005,0.782512218963832,17.487781036168133
0.8500000000000002,57,80,1,0.045000000000000005,0.8325122189638321,17.487781036168133
0.8666666666666666,31,80,0,0.06,0.8491788856304985,17.487781036168133
0.9000000000000002,53,80,1,0.045000000000000005,0.8825122189638321,17.487781036168133
0.9333333333333332,33,80,0,0.06,0.9158455522971651,17.487781036168133
0.9500000000000003,52,80,1,0.045000000000000005,0.9325122189638322,17.487781036168133
0.9999999999999999,43,80,0,0.06,0.9825122189638318,17.487781036168133
1.0000000000000002,53,80,1,0.045000000000000005,0.9825122189638321,17.487781036168133
1.0500000000000003,59,80,1,0.045000000000000005,1.032512218963832,17.487781036168133
1.0666666666666667,38,80,0,0.06,1.0491788856304984,17.487781036168133
1.1000000000000003,62,80,1,0.045000000000000005,1.082512218963832,17.487781036168133
1.1333333333333333,50,80,0,0.06,1.115845552297165,17.487781036168133
1.1500000000000004,62,80,1,0.045000000000000005,1.1325122189638321,17.487781036168133
1.2,40,80,0,0.06,1.1825122189638317,17.487781036168133
1.2000000000000004,65,80,1,0.045000000000000005,1.1825122189638322,17.487781036168133
1.2500000000000004,60,80,1,0.045000000000000005,1.2325122189638322,17.487781036168133
1.2666666666666666,36,80,0,0.06,1.2491788856304984,17.487781036168133
1.3000000000000005,71,80,1,0.045000000000000005,1.2825122189638323,17.487781036168133
1.3333333333333333,59,80,0,0.06,1.315845552297165,17.487781036168133
1.3500000000000005,57,80,1,0.045000000000000005,1.3325122189638323,17.487781036168133
1.4,45,80,0,0.06,1.3825122189638317,17.487781036168133
1.4000000000000006,81,80,1,0.045000000000000005,1.3825122189638324,17.487781036168133
1.4500000000000006,65,80,1,0.045000000000000005,1.4325122189638324,17.487781036168133
1.4666666666666666,48,80,0,0.06,1.4491788856304983,17.487781036168133
1.5000000000000007,53,80,1,0.045000000000000005,1.4825122189638325,17.487781036168133
1.5333333333333332,36,80,0,0.06,1.515845552297165,17.487781036168133
1.5500000000000007,50,80,1,0.045000000000000005,1.5325122189638325,17.487781036168133
1.5999999999999999,43,80,0,0.06,1.5825122189638317,17.487781036168133
1.6000000000000008,62,80,1,0.045000000000000005,1.5825122189638325,17.487781036168133
1.6500000000000008,57,80,1,0.045000000000000005,1.6325122189638326,17.487781036168133
1.6666666666666665,48,80,0,0.06,1.6491788856304983,17.487781036168133
1.7000000000000008,65,80,1,0.045000000000000005,1.6825122189638326,17.487781036168133
1.7333333333333332,38,80,0,0.06,1.715845552297165,17.487781036168133
1.7500000000000009,62,80,1,0.045000000000000005,1.7325122189638327,17.487781036168133
1.7999999999999998,50,80,0,0.06,1.7825122189638316,17.487781036168133
1.800000000000001,59,80,1,0.045000000000000005,1.7825122189638327,17.487781036168133
1.850000000000001,53,80,1,0.045000000000000005,1.8325122189638328,17.487781036168133
1.8666666666666665,43,80,0,0.06,1.8491788856304983,17.487781036168133
1.900000000000001,47,80,1,0.045000000000000005,1.8825122189638328,17.487781036168133
1.9333333333333331,45,80,0,0.06,1.915845552297165,17.487781036168133
1.950000000000001,55,80,1,0.045000000000000005,1.9325122189638329,17.487781036168133
1.9999999999999998,43,80,0,0.06,1.9825122189638316,17.487781036168133
2.000000000000001,65,80,1,0.045000000000000005,1.9825122189638327,17.487781036168133
2.0500000000000007,60,80,1,0.045000000000000005,2.0325122189638325,17.487781036168133
2.0666666666666664,62,80,0,0.06,2.049178885630498,17.487781036168133
2.1000000000000005,50,80,1,0.045000000000000005,2.0825122189638323,17.487781036168133
2.1333333333333333,47,80,0,0.06,2.115845552297165,17.487781036168133
2.1500000000000004,60,80,1,0.045000000000000005,2.132512218963832,17.487781036168133
2.2,38,80,0,0.06,2.182512218963832,17.487781036168133
2.2,62,80,1,0.045000000000000005,2.182512218963832,17.487781036168133
2.25,52,80,1,0.045000000000000005,2.232512218963832,17.487781036168133
2.266666666666667,53,80,0,0.06,2.249178885630499,17.487781036168133
2.3,60,80,1,0.045000000000000005,2.2825122189638316,17.487781036168133
2.333333333333334,38,80,0,0.06,2.3158455522971657,17.487781036168133
2.3499999999999996,60,80,1,0.045000000000000005,2.3325122189638314,17.487781036168133
2.3999999999999995,50,80,1,0.045000000000000005,2.3825122189638313,17.487781036168133
2.400000000000001,48,80,0,0.06,2.3825122189638326,17.487781036168133
2.4499999999999993,62,80,1,0.045000000000000005,2.432512218963831,17.487781036168133
2.4666666666666677,31,80,0,0.06,2.4491788856304995,17.487781036168133
2.499999999999999,64,80,1,0.045000000000000005,2.482512218963831,17.487781036168133
2.5333333333333345,36,80,0,0.06,2.5158455522971663,17.487781036168133
2.549999999999999,67,80,1,0.045000000000000005,2.5325122189638307,17.487781036168133
2.5999999999999988,67,80,1,0.045000000000000005,2.5825122189638305,17.487781036168133
2.6000000000000014,48,80,0,0.06,2.582512218963833,17.487781036168133
2.6499999999999986,48,80,1,0.045000000000000005,2.6325122189638304,17.487781036168133
2.6666666666666683,53,80,0,0.06,2.6491788856305,17.487781036168133
2.6999999999999984,52,80,1,0.045000000000000005,2.68251221896383,17.487781036168133
2.733333333333335,48,80,0,0.06,2.715845552297167,17.487781036168133
2.7499999999999982,64,80,1,0.045000000000000005,2.73251221896383,17.487781036168133
2.799999999999998,64,80,1,0.045000000000000005,2.78251221896383,17.487781036168133
2.800000000000002,47,80,0,0.06,2.782512218963834,17.487781036168133
2.849999999999998,64,80,1,0.045000000000000005,2.8325122189638297,17.487781036168133
2.866666666666669,45,80,0,0.06,2.8491788856305007,17.487781036168133
2.8999999999999977,89,80,1,0.045000000000000005,2.8825122189638295,17.487781036168133
2.933333333333336,36,80,0,0.06,2.9158455522971676,17.487781036168133
2.9499999999999975,64,80,1,0.045000000000000005,2.9325122189638293,17.487781036168133
2.9999999999999973,69,80,1,0.045000000000000005,2.982512218963829,17.487781036168133
3.0000000000000027,41,80,0,0.06,2.9825122189638344,17.487781036168133
3.049999999999997,67,80,1,0.045000000000000005,3.032512218963829,17.487781036168133
3.0666666666666695,43,80,0,0.06,3.0491788856305013,17.487781036168133
3.099999999999997,65,80,1,0.045000000000000005,3.0825122189638288,17.487781036168133
3.1333333333333364,55,80,0,0.06,3.115845552297168,17.487781036168133
3.149999999999997,57,80,1,0.045000000000000005,3.1325122189638286,17.487781036168133
3.1999999999999966,65,80,1,0.045000000000000005,3.1825122189638284,17.487781036168133
3.2000000000000033,50,80,0,0.06,3.182512218963835,17.487781036168133
3.2499999999999964,53,80,1,0.045000000000000005,3.2325122189638282,17.487781036168133
3.26666666666667,33,80,0,0.06,3.249178885630502,17.487781036168133
3.2999999999999963,57,80,1,0.045000000000000005,3.282512218963828,17.487781036168133
3.333333333333337,50,80,0,0.06,3.315845552297169,17.487781036168133
3.349999999999996,55,80,1,0.045000000000000005,3.332512218963828,17.487781036168133
3.399999999999996,60,80,1,0.045000000000000005,3.3825122189638277,17.487781036168133
3.400000000000004,43,80,0,0.06,3.3825122189638357,17.487781036168133
3.4499999999999957,77,80,1,0.045000000000000005,3.4325122189638275,17.487781036168133
3.466666666666671,41,80,0,0.06,3.4491788856305026,17.487781036168133
3.4999999999999956,45,80,1,0.045000000000000005,3.4825122189638273,17.487781036168133
3.5333333333333377,52,80,0,0.06,3.5158455522971694,17.487781036168133
3.5499999999999954,65,80,1,0.045000000000000005,3.532512218963827,17.487781036168133
3.599999999999995,47,80,1,0.045000000000000005,3.582512218963827,17.487781036168133
3.6000000000000045,55,80,0,0.06,3.5825122189638363,17.487781036168133
3.649999999999995,55,80,1,0.045000000000000005,3.632512218963827,17.487781036168133
3.6666666666666714,55,80,0,0.06,3.649178885630503,17.487781036168133
3.699999999999995,67,80,1,0.045000000000000005,3.6825122189638266,17.487781036168133
3.7333333333333383,41,80,0,0.06,3.71584555229717,17.487781036168133
3.7499999999999947,60,80,1,0.045000000000000005,3.7325122189638265,17.487781036168133
3.7999999999999945,50,80,1,0.045000000000000005,3.7825122189638263,17.487781036168133
3.800000000000005,45,80,0,0.06,3.782512218963837,17.487781036168133
3.8499999999999943,53,80,1,0.045000000000000005,3.832512218963826,17.487781036168133
3.866666666666672,50,80,0,0.06,3.849178885630504,17.487781036168133
3.899999999999994,65,80,1,0.045000000000000005,3.882512218963826,17.487781036168133
3.933333333333339,55,80,0,0.06,3.9158455522971707,17.487781036168133
3.949999999999994,53,80,1,0.045000000000000005,3.9325122189638257,17.487781036168133
3.999999999999994,60,80,1,0.045000000000000005,3.9825122189638256,17.487781036168133
4.000000000000005,43,80,0,0.06,3.982512218963837,17.487781036168133
4.049999999999994,60,80,1,0.045000000000000005,4.032512218963825,17.487781036168133
4.066666666666672,45,80,0,0.06,4.0491788856305035,17.487781036168133
4.099999999999993,53,80,1,0.045000000000000005,4.082512218963825,17.487781036168133
4.133333333333338,38,80,0,0.06,4.11584555229717,17.487781036168133
4.149999999999993,77,80,1,0.045000000000000005,4.132512218963825,17.487781036168133
4.199999999999993,65,80,1,0.045000000000000005,4.182512218963825,17.487781036168133
4.200000000000005,38,80,0,0.06,4.182512218963836,17.487781036168133
4.249999999999993,43,80,1,0.045000000000000005,4.232512218963825,17.487781036168133
4.266666666666671,53,80,0,0.06,4.249178885630503,17.487781036168133
4.299999999999993,60,80,1,0.045000000000000005,4.2825122189638245,17.487781036168133
4.3333333333333375,57,80,0,0.06,4.315845552297169,17.487781036168133
4.3499999999999925,53,80,1,0.045000000000000005,4.332512218963824,17.487781036168133
4.399999999999992,65,80,1,0.045000000000000005,4.382512218963824,17.487781036168133
4.400000000000004,47,80,0,0.06,4.382512218963836,17.487781036168133
4.449999999999992,53,80,1,0.045000000000000005,4.432512218963824,17.487781036168133
4.46666666666667,55,80,0,0.06,4.449178885630502,17.487781036168133
4.499999999999992,59,80,1,0.045000000000000005,4.482512218963824,17.487781036168133
4.533333333333337,50,80,0,0.06,4.5158455522971686,17.487781036168133
4.549999999999992,64,80,1,0.045000000000000005,4.532512218963824,17.487781036168133
4.599999999999992,65,80,1,0.045000000000000005,4.582512218963823,17.487781036168133
4.600000000000003,41,80,0,0.06,4.582512218963835,17.487781036168133
4.6499999999999915,50,80,1,0.045000000000000005,4.632512218963823,17.487781036168133
4.66666666666667,50,80,0,0.06,4.649178885630501,17.487781036168133
4.699999999999991,57,80,1,0.045000000000000005,4.682512218963823,17.487781036168133
4.733333333333336,60,80,0,0.06,4.715845552297168,17.487781036168133
4.749999999999991,55,80,1,0.045000000000000005,4.732512218963823,17.487781036168133
4.799999999999991,53,80,1,0.045000000000000005,4.782512218963823,17.487781036168133
4.8000000000000025,47,80,0,0.06,4.782512218963834,17.487781036168133
4.849999999999991,74,80,1,0.045000000000000005,4.8325122189638225,17.487781036168133
4.866666666666669,60,80,0,0.06,4.849178885630501,17.487781036168133
4.899999999999991,62,80,1,0.045000000000000005,4.882512218963822,17.487781036168133
4.933333333333335,26,80,0,0.06,4.915845552297167,17.487781036168133
4.94999999999999,48,80,1,0.045000000000000005,4.932512218963822,17.487781036168133
4.99999999999999,67,80,1,0.045000000000000005,4.982512218963822,17.487781036168133
5.000000000000002,53,80,0,0.06,4.982512218963834,17.487781036168133
5.04999999999999,76,80,1,0.045000000000000005,5.032512218963822,17.487781036168133
5.066666666666668,48,80,0,0.06,5.0491788856305,17.487781036168133
5.09999999999999,67,80,1,0.045000000000000005,5.082512218963822,17.487781036168133
5.133333333333335,45,80,0,0.06,5.115845552297166,17.487781036168133
5.14999999999999,47,80,1,0.045000000000000005,5.1325122189638215,17.487781036168133
5.1999999999999895,55,80,1,0.045000000000000005,5.182512218963821,17.487781036168133
5.200000000000001,48,80,0,0.06,5.182512218963833,17.487781036168133
5.249999999999989,69,80,1,0.045000000000000005,5.232512218963821,17.487781036168133
5.2666666666666675,31,80,0,0.06,5.249178885630499,17.487781036168133
5.299999999999989,53,80,1,0.045000000000000005,5.282512218963821,17.487781036168133
5.333333333333334,45,80,0,0.06,5.315845552297166,17.487781036168133
5.349999999999989,62,80,1,0.045000000000000005,5.332512218963821,17.487781036168133
5.399999999999989,65,80,1,0.045000000000000005,5.382512218963821,17.487781036168133
5.4,50,80,0,0.06,5.382512218963832,17.487781036168133
5.449999999999989,52,80,1,0.045000000000000005,5.43251221896382,17.487781036168133
5.466666666666667,59,80,0,0.06,5.449178885630499,17.487781036168133
5.4999999999999885,59,80,1,0.045000000000000005,5.48251221896382,17.487781036168133
5.533333333333333,43,80,0,0.06,5.515845552297165,17.487781036168133
5.549999999999988,33,80,1,0.045000000000000005,5.53251221896382,17.487781036168133
5.599999999999988,50,80,1,0.045000000000000005,5.58251221896382,17.487781036168133
5.6,41,80,0,0.06,5.582512218963831,17.487781036168133
5.649999999999988,57,80,1,0.045000000000000005,5.63251221896382,17.487781036168133
5.666666666666666,43,80,0,0.06,5.649178885630498,17.487781036168133
5.699999999999988,50,80,1,0.045000000000000005,5.6825122189638195,17.487781036168133
5.7333333333333325,55,80,0,0.06,5.715845552297164,17.487781036168133
5.749999999999988,72,80,1,0.045000000000000005,5.732512218963819,17.487781036168133
5.799999999999987,48,80,1,0.045000000000000005,5.782512218963819,17.487781036168133
5.799999999999999,50,80,0,0.06,5.782512218963831,17.487781036168133
5.849999999999987,55,80,1,0.045000000000000005,5.832512218963819,17.487781036168133
5.866666666666665,43,80,0,0.06,5.849178885630497,17.487781036168133
5.899999999999987,60,80,1,0.045000000000000005,5.882512218963819,17.487781036168133
5.933333333333332,52,80,0,0.06,5.915845552297164,17.487781036168133
5.949999999999987,71,80,1,0.045000000000000005,5.932512218963819,17.487781036168133
5.999999999999987,48,80,1,0.045000000000000005,5.9825122189638185,17.487781036168133
5.999999999999998,48,80,0,0.06,5.98251221896383,17.487781036168133
6.0499999999999865,69,80,1,0.045000000000000005,6.032512218963818,17.487781036168133
6.066666666666665,55,80,0,0.06,6.049178885630496,17.487781036168133
6.099999999999986,60,80,1,0.045000000000000005,6.082512218963818,17.487781036168133
6.133333333333331,41,80,0,0.06,6.115845552297163,17.487781036168133
6.149999999999986,52,80,1,0.045000000000000005,6.132512218963818,17.487781036168133
6.199999999999986,62,80,1,0.045000000000000005,6.182512218963818,17.487781036168133
6.1999999999999975,45,80,0,0.06,6.182512218963829,17.487781036168133
6.249999999999986,60,80,1,0.045000000000000005,6.232512218963818,17.487781036168133
6.266666666666664,43,80,0,0.06,6.249178885630496,17.487781036168133
6.299999999999986,55,80,1,0.045000000000000005,6.282512218963817,17.487781036168133
6.33333333333333,36,80,0,0.06,6.315845552297162,17.487781036168133
6.349999999999985,60,80,1,0.045000000000000005,6.332512218963817,17.487781036168133
6.399999999999985,55,80,1,0.045000000000000005,6.382512218963817,17.487781036168133
6.399999999999997,50,80,0,0.06,6.382512218963829,17.487781036168133
6.449999999999985,60,80,1,0.045000000000000005,6.432512218963817,17.487781036168133
6.466666666666663,50,80,0,0.06,6.449178885630495,17.487781036168133
6.499999999999985,65,80,1,0.045000000000000005,6.482512218963817,17.487781036168133
6.53333333333333,48,80,0,0.06,6.5158455522971614,17.487781036168133
6.549999999999985,72,80,1,0.045000000000000005,6.5325122189638165,17.487781036168133
6.5999999999999845,50,80,1,0.045000000000000005,6.582512218963816,17.487781036168133
6.599999999999996,45,80,0,0.06,6.582512218963828,17.487781036168133
6.649999999999984,77,80,1,0.045000000000000005,6.632512218963816,17.487781036168133
6.6666666666666625,36,80,0,0.06,6.649178885630494,17.487781036168133
6.699999999999984,43,80,1,0.045000000000000005,6.682512218963816,17.487781036168133
6.733333333333329,43,80,0,0.06,6.715845552297161,17.487781036168133
6.749999999999984,57,80,1,0.045000000000000005,6.732512218963816,17.487781036168133
6.799999999999984,64,80,1,0.045000000000000005,6.782512218963816,17.487781036168133
6.799999999999995,45,80,0,0.06,6.782512218963827,17.487781036168133
6.849999999999984,62,80,1,0.045000000000000005,6.832512218963815,17.487781036168133
6.866666666666662,41,80,0,0.06,6.849178885630494,17.487781036168133
6.8999999999999835,55,80,1,0.045000000000000005,6.882512218963815,17.487781036168133
6.933333333333328,45,80,0,0.06,6.91584555229716,17.487781036168133
6.949999999999983,57,80,1,0.045000000000000005,6.932512218963815,17.487781036168133
6.999999999999983,55,80,1,0.045000000000000005,6.982512218963815,17.487781036168133
6.999999999999995,50,80,0,0.06,6.9825122189638265,17.487781036168133
7.049999999999983,55,80,1,0.045000000000000005,7.032512218963815,17.487781036168133
7.066666666666661,62,80,0,0.06,7.049178885630493,17.487781036168133
7.099999999999983,65,80,1,0.045000000000000005,7.0825122189638146,17.487781036168133
7.1333333333333275,48,80,0,0.06,7.115845552297159,17.487781036168133
7.149999999999983,62,80,1,0.045000000000000005,7.132512218963814,17.487781036168133
7.199999999999982,53,80,1,0.045000000000000005,7.182512218963814,17.487781036168133
7.199999999999994,50,80,0,0.06,7.182512218963826,17.487781036168133
7.249999999999982,67,80,1,0.045000000000000005,7.232512218963814,17.487781036168133
7.26666666666666,47,80,0,0.06,7.249178885630492,17.487781036168133
7.299999999999982,62,80,1,0.045000000000000005,7.282512218963814,17.487781036168133
7.333333333333327,31,80,0,0.06,7.315845552297159,17.487781036168133
7.349999999999982,65,80,1,0.045000000000000005,7.332512218963814,17.487781036168133
7.399999999999982,65,80,1,0.045000000000000005,7.3825122189638135,17.487781036168133
7.399999999999993,47,80,0,0.06,7.382512218963825,17.487781036168133
7.4499999999999815,53,80,1,0.045000000000000005,7.432512218963813,17.487781036168133
7.46666666666666,48,80,0,0.06,7.4491788856304915,17.487781036168133
7.499999999999981,55,80,1,0.045000000000000005,7.482512218963813,17.487781036168133
7.533333333333326,67,80,0,0.06,7.515845552297158,17.487781036168133
7.549999999999981,65,80,1,0.045000000000000005,7.532512218963813,17.487781036168133
7.599999999999981,64,80,1,0.045000000000000005,7.582512218963813,17.487781036168133
7.5999999999999925,45,80,0,0.06,7.582512218963824,17.487781036168133
7.649999999999981,59,80,1,0.045000000000000005,7.632512218963813,17.487781036168133
7.666666666666659,50,80,0,0.06,7.649178885630491,17.487781036168133
7.699999999999981,60,80,1,0.045000000000000005,7.682512218963812,17.487781036168133
7.733333333333325,47,80,0,0.06,7.715845552297157,17.487781036168133
7.7499999999999805,69,80,1,0.045000000000000005,7.732512218963812,17.487781036168133
7.79999999999998,55,80,1,0.045000000000000005,7.782512218963812,17.487781036168133
7.799999999999992,38,80,0,0.06,7.782512218963824,17.487781036168133
7.84999999999998,64,80,1,0.045000000000000005,7.832512218963812,17.487781036168133
7.866666666666658,57,80,0,0.06,7.84917888563049,17.487781036168133
7.89999999999998,57,80,1,0.045000000000000005,7.882512218963812,17.487781036168133
7.933333333333325,53,80,0,0.06,7.9158455522971565,17.487781036168133
7.94999999999998,57,80,1,0.045000000000000005,7.9325122189638115,17.487781036168133
7.99999999999998,67,80,1,0.045000000000000005,7.982512218963811,17.487781036168133
7.999999999999991,53,80,0,0.06,7.982512218963823,17.487781036168133
8.04999999999998,65,80,1,0.045000000000000005,8.032512218963811,17.487781036168133
8.066666666666658,40,80,0,0.06,8.04917888563049,17.487781036168133
8.09999999999998,65,80,1,0.045000000000000005,8.082512218963812,17.487781036168133
8.133333333333324,59,80,0,0.06,8.115845552297156,17.487781036168133
8.14999999999998,69,80,1,0.045000000000000005,8.132512218963813,17.487781036168133
8.199999999999982,60,80,1,0.045000000000000005,8.182512218963813,17.487781036168133
8.19999999999999,36,80,0,0.06,8.182512218963822,17.487781036168133
8.249999999999982,65,80,1,0.045000000000000005,8.232512218963814,17.487781036168133
8.266666666666657,52,80,0,0.06,8.249178885630489,17.487781036168133
8.299999999999983,57,80,1,0.045000000000000005,8.282512218963815,17.487781036168133
8.333333333333323,65,80,0,0.06,8.315845552297155,17.487781036168133
8.349999999999984,62,80,1,0.045000000000000005,8.332512218963815,17.487781036168133
8.399999999999984,57,80,1,0.045000000000000005,8.382512218963816,17.487781036168133
8.39999999999999,40,80,0,0.06,8.382512218963821,17.487781036168133
8.449999999999985,60,80,1,0.045000000000000005,8.432512218963817,17.487781036168133
8.466666666666656,43,80,0,0.06,8.449178885630488,17.487781036168133
8.499999999999986,64,80,1,0.045000000000000005,8.482512218963818,17.487781036168133
8.533333333333323,48,80,0,0.06,8.515845552297154,17.487781036168133
8.549999999999986,53,80,1,0.045000000000000005,8.532512218963818,17.487781036168133
8.599999999999987,76,80,1,0.045000000000000005,8.582512218963819,17.487781036168133
8.599999999999989,43,80,0,0.06,8.58251221896382,17.487781036168133
8.649999999999988,50,80,1,0.045000000000000005,8.63251221896382,17.487781036168133
8.666666666666655,35,80,0,0.06,8.649178885630487,17.487781036168133
8.699999999999989,50,80,1,0.045000000000000005,8.68251221896382,17.487781036168133
8.733333333333322,48,80,0,0.06,8.715845552297154,17.487781036168133
8.74999999999999,69,80,1,0.045000000000000005,8.732512218963821,17.487781036168133
8.799999999999988,38,80,0,0.06,8.78251221896382,17.487781036168133
8.79999999999999,65,80,1,0.045000000000000005,8.782512218963822,17.487781036168133
8.84999999999999,64,80,1,0.045000000000000005,8.832512218963823,17.487781036168133
8.866666666666655,50,80,0,0.06,8.849178885630486,17.487781036168133
8.899999999999991,65,80,1,0.045000000000000005,8.882512218963823,17.487781036168133
8.933333333333321,40,80,0,0.06,8.915845552297153,17.487781036168133
8.949999999999992,59,80,1,0.045000000000000005,8.932512218963824,17.487781036168133
8.999999999999988,60,80,0,0.06,8.98251221896382,17.487781036168133
8.999999999999993,52,80,1,0.045000000000000005,8.982512218963825,17.487781036168133
9.049999999999994,60,80,1,0.045000000000000005,9.032512218963825,17.487781036168133
9.066666666666654,41,80,0,0.06,9.049178885630486,17.487781036168133
9.099999999999994,53,80,1,0.045000000000000005,9.082512218963826,17.487781036168133
9.13333333333332,45,80,0,0.06,9.115845552297152,17.487781036168133
9.149999999999995,67,80,1,0.045000000000000005,9.132512218963827,17.487781036168133
9.199999999999987,53,80,0,0.06,9.182512218963819,17.487781036168133
9.199999999999996,57,80,1,0.045000000000000005,9.182512218963828,17.487781036168133
9.249999999999996,53,80,1,0.045000000000000005,9.232512218963828,17.487781036168133
9.266666666666653,38,80,0,0.06,9.249178885630485,17.487781036168133
9.299999999999997,57,80,1,0.045000000000000005,9.282512218963829,17.487781036168133
9.33333333333332,48,80,0,0.06,9.315845552297151,17.487781036168133
9.349999999999998,62,80,1,0.045000000000000005,9.33251221896383,17.487781036168133
9.399999999999986,57,80,0,0.06,9.382512218963818,17.487781036168133
9.399999999999999,55,80,1,0.045000000000000005,9.38251221896383,17.487781036168133
9.45,53,80,1,0.045000000000000005,9.432512218963831,17.487781036168133
9.466666666666653,35,80,0,0.06,9.449178885630484,17.487781036168133
9.5,60,80,1,0.045000000000000005,9.482512218963832,17.487781036168133
9.533333333333319,48,80,0,0.06,9.51584555229715,17.487781036168133
9.55,60,80,1,0.045000000000000005,9.532512218963832,17.487781036168133
9.599999999999985,50,80,0,0.06,9.582512218963817,17.487781036168133
9.600000000000001,55,80,1,0.045000000000000005,9.582512218963833,17.487781036168133
9.650000000000002,55,80,1,0.045000000000000005,9.632512218963834,17.487781036168133
9.666666666666652,53,80,0,0.06,9.649178885630484,17.487781036168133
9.700000000000003,60,80,1,0.045000000000000005,9.682512218963835,17.487781036168133
9.733333333333318,38,80,0,0.06,9.71584555229715,17.487781036168133
9.750000000000004,48,80,1,0.045000000000000005,9.732512218963835,17.487781036168133
9.799999999999985,36,80,0,0.06,9.782512218963817,17.487781036168133
9.800000000000004,48,80,1,0.045000000000000005,9.782512218963836,17.487781036168133
9.850000000000005,53,80,1,0.045000000000000005,9.832512218963837,17.487781036168133
9.866666666666651,52,80,0,0.06,9.849178885630483,17.487781036168133
9.900000000000006,57,80,1,0.045000000000000005,9.882512218963837,17.487781036168133
9.933333333333318,50,80,0,0.06,9.91584555229715,17.487781036168133
9.950000000000006,62,80,1,0.045000000000000005,9.932512218963838,17.487781036168133
9.999999999999984,50,80,0,0.06,9.982512218963816,17.487781036168133
10.0,74,90,1,0.011494477690461942,9.984076246334311,15.923753665689148
10.0,82,106,0,0.014904894383234292,9.986578690127077,13.421309872922777
10.012771641878292,54,53,1,0.014269231687344685,9.99106098694183,21.71065493646139
10.01656099375915,55,79,0,0.009000000000000001,9.998916809985934,17.64418377321603
10.02656099375915,59,57,0,0.009000000000000001,10.00547594977088,21.085043988269796
10.02862634375312,63,59,1,0.009000000000000001,10.007854105238945,20.772238514174
10.03656099375915,79,86,0,0.009000000000000001,10.02001162914527,16.549364613880744
10.03862634375312,44,99,1,0.039215406721176446,10.024110214720862,14.516129032258064
10.04656099375915,71,73,0,0.08841744564576418,10.027978393563645,18.58260019550342
10.08219901788776,52,81,1,0.02052408371442528,10.06486763958864,17.331378299120235
10.105003555348233,46,112,1,0.015473938773010086,10.092520661897598,12.482893450635387
10.122196820651578,71,90,1,0.07027034816175454,10.106273066985889,15.923753665689148
10.14480260003222,54,110,0,0.009084667250355085,10.132006901107488,12.795698924731184
10.154896674754836,66,110,0,0.009000000000000001,10.142100975830104,12.795698924731184
10.164896674754836,61,112,0,0.009000000000000001,10.152413781304201,12.482893450635387
10.174896674754836,74,84,0,0.009000000000000001,10.158034504666858,16.86217008797654
10.184896674754835,94,93,0,0.09405653097391214,10.16944212930029,15.454545454545453
10.20027498527575,52,51,1,0.009000000000000001,10.178251524865193,22.023460410557185
10.210274985275749,63,78,1,0.009000000000000001,10.192474398765485,17.80058651026393
10.220274985275749,73,76,1,0.03869962743697267,10.20216159329139,18.113391984359726
10.26327457131683,73,73,1,0.009000000000000001,10.244691971121325,18.58260019550342
10.27327457131683,36,95,1,0.08389095411577328,10.258132831336379,15.141739980449657
10.289403931392515,66,89,0,0.016365449403277672,10.273323774989779,16.080156402737046
10.307587764062824,58,88,0,0.023701298268755402,10.29135120492304,16.236559139784944
10.333922539916996,74,61,0,0.009000000000000001,10.313463106876918,20.459433040078203
10.343922539916996,75,54,0,0.016822582167710667,10.322368287717582,21.55425219941349
10.362614297881118,32,111,0,0.09895392330810932,10.349975001693435,12.639296187683286
10.366486742556578,90,104,1,0.012731122566075956,10.35275262720956,13.734115347018573
10.380632434296663,35,87,1,0.04409515691895085,10.36423947241983,16.392961876832846
10.429627053095498,51,63,1,0.04648025737840832,10.409480425529516,20.146627565982406
10.472563101556794,31,100,0,0.03234232481164531,10.458203375261585,14.359726295210166
10.481271783515952,80,58,1,0.018622632435864397,10.46034314226473,20.928641251221897
10.508499018014177,65,60,0,0.03116689875851802,10.48788318223705,20.6158357771261
10.50196359733358,71,106,1,0.02402073735555786,10.488542287460657,13.421309872922777
10.528653305506422,64,80,1,0.009000000000000001,10.511165524470254,17.487781036168133
10.538653305506422,55,104,1,0.009000000000000001,10.524919190159403,13.734115347018573
10.543128905523641,71,76,0,0.06529412948397643,10.525015513539282,18.113391984359726
10.548653305506422,26,87,1,0.011251559321364294,10.53226034362959,16.392961876832846
10.561155038085715,63,74,1,0.009000000000000001,10.54272884062726,18.426197458455523
10.571155038085715,72,70,1,0.06657641365790519,10.552103229679068,19.05180840664712
10.615677938283614,82,104,0,0.07287349576177218,10.601943822936596,13.734115347018573
10.645128831038942,41,58,1,0.028349378563318033,10.62420018978772,20.928641251221897
10.67662814055374,36,54,1,0.06683324554663239,10.655073888354327,21.55425219941349
10.696648489130027,58,100,0,0.009000000000000001,10.682288762834817,14.359726295210166
10.706648489130027,55,59,0,0.11783543764194451,10.685876250615852,20.772238514174
10.75088730227222,55,82,1,0.009000000000000001,10.733712326710148,17.174975562072337
10.76088730227222,56,65,1,0.009000000000000001,10.741053480180334,19.83382209188661
10.77088730227222,78,94,1,0.018330096272011823,10.755589159554722,15.298142717497555
10.791254075907789,72,79,1,0.009000000000000001,10.773609892134573,17.64418377321603
10.801254075907789,78,100,1,0.035491667300963335,10.786894349612579,14.359726295210166
10.840689261797747,55,56,1,0.016807176794631253,10.81944781507243,21.241446725317694
10.837576753176632,65,102,0,0.024346551515824863,10.823529832355518,14.04692082111437
10.859363902680672,65,53,1,0.009000000000000001,10.83765324774421,21.71065493646139
10.864628477083105,58,79,0,0.04919913125468615,10.84698429330989,17.64418377321603
10.869363902680671,58,108,1,0.0144623695463618,10.856255398281844,13.10850439882698
10.885433202176628,44,81,1,0.009000000000000001,10.868101823877508,17.331378299120235
10.895433202176628,62,104,1,0.009000000000000001,10.88169908682961,13.734115347018573
10.905433202176628,66,82,1,0.011579079497728758,10.888258226614555,17.174975562072337
10.918298846062994,46,51,1,0.01281228590138426,10.896275385652437,22.023460410557185
10.919294178477202,58,104,0,0.014467543280838421,10.905560063130183,13.734115347018573
10.932534719286755,66,94,1,0.009000000000000001,10.917236576569257,15.298142717497555
10.935369226567023,59,112,0,0.045255170859747916,10.922886333116388,12.482893450635387
10.942534719286755,64,77,1,0.009000000000000001,10.924577730039443,17.956989247311828
10.952534719286755,50,61,1,0.03868075887168825,10.932075286246677,20.459433040078203
10.98565274974452,82,109,0,0.15376158182009697,10.972700648082741,12.952101661779082
10.995513340255297,59,88,1,0.022522501204713035,10.979276781115512,16.236559139784944
11.020538341593866,90,85,1,0.038791516368205124,11.003832574242937,16.705767350928642
11.063640026447427,62,92,1,0.009000000000000001,11.048029078255833,15.610948191593351
11.073640026447427,66,91,1,0.009000000000000001,11.057872675518785,15.76735092864125
11.083640026447426,48,91,1,0.009558381146837002,11.067872675518785,15.76735092864125
11.094260449943912,64,53,1,0.14207650379540832,11.07254979500745,21.71065493646139
11.156498951766851,64,65,0,0.051158844397149635,11.136665129674965,19.83382209188661
11.213342112208128,39,91,0,0.01616832433979634,11.197574761279487,15.76735092864125
11.231306917030125,68,72,0,0.025992101738062934,11.212567914097573,18.73900293255132
11.25212323193881,75,98,1,0.07216470464894034,11.237450700169504,14.672531769305962
11.260187030072418,63,98,0,0.009000000000000001,11.24551449830311,14.672531769305962
11.270187030072417,90,103,0,0.019826366231434907,11.256296511988351,13.890518084066471
11.292216325885123,75,75,0,0.021674361213580164,11.273946531163716,18.269794721407624
11.316298949455767,62,51,0,0.009000000000000001,11.29427548904521,22.023460410557185
11.326298949455767,82,63,0,0.037990551221889816,11.306152321889785,20.146627565982406
11.3323062371043,56,96,1,0.015980958223942205,11.317320899860897,14.985337243401759
11.350062857353125,34,91,1,0.0402450996371225,11.334295506424484,15.76735092864125
11.368510673035644,73,50,0,0.009000000000000001,11.34633080988804,22.179863147605083
11.378510673035644,34,77,0,0.01165555606090687,11.360553683788332,17.956989247311828
11.391461290881095,81,71,0,0.06331666112049893,11.372565885211495,18.89540566959922
11.394779634727705,45,97,1,0.031491256303246895,11.37995070022135,14.82893450635386
11.42976991950909,79,57,1,0.03051962519130701,11.40868487552082,21.085043988269796
11.463680614166098,56,50,1,0.015012627887452334,11.441500751018493,22.179863147605083
11.461813136570537,52,88,0,0.01948117575795267,11.445576577430753,16.236559139784944
11.480361311818822,40,93,1,0.009000000000000001,11.464906766364276,15.454545454545453
11.483458887412707,80,109,0,0.05354479737947628,11.470506785750928,12.952101661779082
11.490361311818821,35,78,1,0.009391972051887222,11.472560725308558,17.80058651026393
11.500796836320918,40,54,1,0.009000000000000001,11.479242584121504,21.55425219941349
11.510796836320917,50,91,1,0.017659029539846695,11.495029485392276,15.76735092864125
11.53041798025408,26,103,1,0.018447412334407137,11.516527462170014,13.890518084066471
11.542953106723237,59,66,0,0.009000000000000001,11.523275687368399,19.67741935483871
11.550915105070088,49,79,1,0.013976366798855881,11.533270921296872,17.64418377321603
11.552953106723237,71,111,0,0.016593848119008832,11.540313810535554,12.639296187683286
11.56644440151326,42,74,1,0.009000000000000001,11.548018204054806,18.426197458455523
11.571390715744357,76,65,0,0.01831926490201871,11.55155689365247,19.83382209188661
11.57644440151326,37,83,1,0.016570056393774065,11.559425828688235,17.01857282502444
11.591745454524379,38,58,0,0.009000000000000001,11.570816813273156,20.928641251221897
11.59485557528412,70,94,1,0.017874801476943505,11.579557432566622,15.298142717497555
11.601745454524378,43,71,0,0.009000000000000001,11.582850048854779,18.89540566959922
11.614716465814057,68,51,1,0.05942918934682144,11.5926930054035,22.023460410557185
11.611745454524378,67,79,0,0.061316301378465665,11.594101270751162,17.64418377321603
11.679874678278228,53,52,0,0.029734805258614275,11.65800762060472,21.867057673509287
11.680748898421637,56,107,1,0.009000000000000001,11.667483991285762,13.264907135874878
11.690748898421637,65,108,1,0.009000000000000001,11.67764039402281,13.10850439882698
11.700748898421637,59,66,1,0.009000000000000001,11.681071479066798,19.67741935483871
11.710748898421636,45,69,1,0.009000000000000001,11.691540687277941,19.208211143695017
11.7129133507878,52,67,0,0.009000000000000001,11.693392334170008,19.521016617790814
11.722913350787799,38,72,0,0.009000000000000001,11.704174347855247,18.73900293255132
11.720748898421636,31,88,1,0.031018258278797124,11.704512339281852,16.236559139784944
11.732913350787799,57,93,0,0.01890013998728692,11.717458805333253,15.454545454545453
11.753913506329228,67,55,0,0.009000000000000001,11.732515656866862,21.397849462365592
11.755213629842522,65,67,1,0.024042632223412765,11.735692613224732,19.521016617790814
11.763913506329228,78,107,0,0.05583963685917844,11.750648599193353,13.264907135874878
11.781927665646315,57,92,1,0.010188695258103037,11.766316717454721,15.610948191593351
11.793248438155318,57,82,1,0.009000000000000001,11.776073462593246,17.174975562072337
11.803248438155318,62,66,1,0.02357066702778332,11.78357101880048,19.67741935483871
11.82595754728387,72,96,0,0.009000000000000001,11.810972210040468,14.985337243401759
11.829438068186189,45,80,1,0.0629051386620378,11.81195028715002,17.487781036168133
11.83595754728387,50,63,0,0.009000000000000001,11.815810919717888,20.146627565982406
11.84595754728387,95,73,0,0.012495197970657982,11.827374947088366,18.58260019550342
11.859841100584601,55,96,0,0.016764059948964776,11.844855763341199,14.985337243401759
11.87846783386123,72,105,0,0.009000000000000001,11.864890121251259,13.577712609970675
11.88846783386123,45,83,0,0.019353036029626822,11.871449261036204,17.01857282502444
11.899332666699564,51,89,1,0.031307990920733254,11.883252510296828,16.080156402737046
11.909971207227482,82,65,0,0.009000000000000001,11.890137385135596,19.83382209188661
11.919971207227482,23,73,0,0.009000000000000001,11.901388607031977,18.58260019550342
11.929971207227482,44,70,0,0.009000000000000001,11.910919398820834,19.05180840664712
11.934119323278157,60,87,1,0.057737682777098225,11.917726361401325,16.392961876832846
11.939971207227481,50,105,0,0.009000000000000001,11.92639349461751,13.577712609970675
11.949971207227481,75,81,0,0.024310767974748113,11.93263982892836,17.331378299120235
11.976983171643868,69,83,0,0.009000000000000001,11.959964598818843,17.01857282502444
11.986983171643868,53,57,0,0.023865922562527085,11.965898127655597,21.085043988269796
11.998272304141599,55,63,1,0.032652889935251554,11.978125676575617,20.146627565982406
12.013500863380008,83,72,0,0.009011578867066005,11.994761860447456,18.73900293255132
12.02351372878786,31,111,0,0.028032064513790263,12.010874432600177,12.639296187683286
12.034553292958545,66,75,1,0.018025163543462196,12.016283498237138,18.269794721407624
12.054581252451282,55,64,1,0.03497088829750133,12.034591027622348,19.990224828934508
12.054660467136516,74,64,0,0.02513249122861465,12.034670242307582,19.990224828934508
12.082585457390532,53,60,0,0.009000000000000001,12.061969621613406,20.6158357771261
12.092585457390532,50,67,0,0.009000000000000001,12.073064440772741,19.521016617790814
12.09343779500406,71,67,1,0.028953209102087374,12.07391677838627,19.521016617790814
12.102585457390532,22,111,0,0.009000000000000001,12.08994616120285,12.639296187683286
12.112585457390532,70,74,0,0.009000000000000001,12.094159259932077,18.426197458455523
12.122585457390532,63,66,0,0.09420461093142131,12.102908038035693,19.67741935483871
12.125608027339712,87,55,1,0.0330180548619962,12.104210177877347,21.397849462365592
12.162294754964153,47,78,1,0.01866789187091688,12.144494168453889,17.80058651026393
12.18303685704295,67,103,1,0.016865007835009063,12.169146338958884,13.890518084066471
12.201775754637405,48,55,1,0.009000000000000001,12.180377905175039,21.397849462365592
12.211775754637404,78,84,1,0.009000000000000001,12.194913584549427,16.86217008797654
12.221775754637404,84,74,1,0.009000000000000001,12.20334955717895,18.426197458455523
12.231775754637404,64,58,1,0.01723187638129337,12.210847113386182,20.928641251221897
12.227257247314332,64,91,0,0.009000000000000001,12.211489896385691,15.76735092864125
12.237257247314332,90,67,0,0.0715603975639188,12.217736230696541,19.521016617790814
12.250922283949953,59,75,1,0.022679583224708796,12.232652489228546,18.269794721407624
12.276121820866296,74,111,1,0.010671700649844825,12.263482524678613,12.639296187683286
12.28797926603279,76,56,1,0.009000000000000001,12.266737819307473,21.241446725317694
12.29797926603279,35,54,1,0.024601471516652693,12.276425013833377,21.55425219941349
12.31676880016313,84,61,0,0.03962179147712639,12.296309367123053,20.459433040078203
12.325314234384626,68,105,1,0.009000000000000001,12.311736521774655,13.577712609970675
12.335314234384626,43,72,1,0.009000000000000001,12.316575231452074,18.73900293255132
12.345314234384626,49,82,1,0.009000000000000001,12.328139258822553,17.174975562072337
12.355314234384625,50,83,1,0.009000000000000001,12.3382956615596,17.01857282502444
12.360793012915492,64,65,0,0.010559370954219282,12.340959190823606,19.83382209188661
12.365314234384625,70,90,1,0.04049241045965553,12.349390480718936,15.923753665689148
12.372525647309068,21,88,0,0.009000000000000001,12.356289088169284,16.236559139784944
12.382525647309068,42,80,0,0.00919521094778663,12.3650378662729,17.487781036168133
12.392742548362165,64,53,0,0.0205347756994851,12.371031893425704,21.71065493646139
12.41030580156202,42,91,1,0.014535330890918647,12.394538450633378,15.76735092864125
12.415558965806037,50,92,0,0.011080357237271427,12.399948017614443,15.610948191593351
12.426456169218596,41,91,1,0.09812266966542366,12.410688818289955,15.76735092864125
12.427870473847449,71,87,0,0.03855778801636163,12.411477511970617,16.392961876832846
12.470712460532296,33,108,0,0.017222129389222338,12.457603956133468,13.10850439882698
12.489848159853654,44,110,0,0.047941390920828546,12.477052460928922,12.795698924731184
12.535481357735733,56,53,1,0.015578127223703834,12.513770702799272,21.71065493646139
12.543116371987908,62,61,0,0.009000000000000001,12.522656938947831,20.459433040078203
12.553116371987908,61,96,0,0.009000000000000001,12.538131034744506,14.985337243401759
12.552790387984293,85,109,1,0.015773986063642168,12.539838286322514,12.952101661779082
12.563116371987908,58,99,0,0.02306953289336408,12.54860024295565,14.516129032258064
12.570317039166119,45,83,1,0.009000000000000001,12.553298466341094,17.01857282502444
12.580317039166118,69,78,1,0.009000000000000001,12.562516452655855,17.80058651026393
12.588749186313867,61,60,0,0.009000000000000001,12.56813335053674,20.6158357771261
12.590317039166118,79,99,1,0.026943547137751052,12.57580091013386,14.516129032258064
12.598749186313867,68,82,0,0.009000000000000001,12.581574210751794,17.174975562072337
12.608749186313867,75,104,0,0.012000457845307838,12.595015070966848,13.734115347018573
12.620254313763619,41,64,1,0.05001566848526166,12.600264088934685,19.990224828934508
12.622083028364209,56,73,0,0.013454444241831013,12.603500428168704,18.58260019550342
12.637032410855133,79,68,0,0.01677134861728927,12.61766779697439,19.364613880742915
12.65566724265212,36,106,0,0.03717298744929737,12.642245932779197,13.421309872922777
12.675827278747242,61,102,1,0.009730868063236617,12.661780357926128,14.04692082111437
12.68663935437306,71,88,1,0.01405099507015714,12.670402795233276,16.236559139784944
12.696970562040228,60,83,0,0.013076957043685203,12.679951989215203,17.01857282502444
12.70225157111768,52,101,1,0.009000000000000001,12.688048247559518,14.203323558162268
12.71225157111768,65,94,1,0.02908436597120734,12.696953428400182,15.298142717497555
12.71150051431099,46,108,0,0.06397638143515992,12.698392009912162,13.10850439882698
12.74456753330791,43,72,1,0.009000000000000001,12.725828530375358,18.73900293255132
12.75456753330791,46,108,1,0.009000000000000001,12.741459028909082,13.10850439882698
12.76456753330791,47,77,1,0.015407016370316506,12.746610544060598,17.956989247311828
12.782585382572279,64,70,0,0.026678077081240308,12.763533574165631,19.05180840664712
12.78168644038604,35,82,1,0.017522103984337248,12.764511464823967,17.174975562072337
12.80115544481308,63,103,1,0.048076359939503543,12.787264926729014,13.890518084066471
12.812227690440324,67,83,0,0.009000000000000001,12.795209117615299,17.01857282502444
12.822227690440323,78,99,0,0.06056918992448402,12.807711561408066,14.516129032258064
12.85457362252364,59,108,1,0.009000000000000001,12.841465118124813,13.10850439882698
12.86457362252364,53,104,1,0.009000000000000001,12.850839507176621,13.734115347018573
12.87457362252364,77,100,1,0.03866837390912741,12.86021389622843,14.359726295210166
12.889526790356417,43,96,0,0.009000000000000001,12.874541453113014,14.985337243401759
12.899526790356417,47,85,0,0.009000000000000001,12.882821023005487,16.705767350928642
12.909526790356416,54,101,0,0.03881017032821403,12.895323466798255,14.203323558162268
12.91753848242267,52,75,1,0.029798471636434065,12.899268687701262,18.269794721407624
12.95064789535204,56,93,1,0.009000000000000001,12.935193349897494,15.454545454545453
12.95264920183221,72,102,0,0.009000000000000001,12.938602281011097,14.04692082111437
12.96264920183221,79,59,0,0.009000000000000001,12.941876963318036,20.772238514174
12.96064789535204,60,101,1,0.009000000000000001,12.946444571793878,14.203323558162268
12.97064789535204,62,103,1,0.009000000000000001,12.956757377267973,13.890518084066471
12.97264920183221,53,95,0,0.009000000000000001,12.95750746185176,15.141739980449657
12.98264920183221,80,83,0,0.034373596643775754,12.965630629007185,17.01857282502444
12.980647895352039,96,97,1,0.04889052187889764,12.965818960845684,14.82893450635386
13.02084208699196,75,71,0,0.009000000000000001,13.00194668132236,18.89540566959922
13.03084208699196,62,75,0,0.009000000000000001,13.012572292270553,18.269794721407624
13.034970697439704,55,81,1,0.009000000000000001,13.017639319140583,17.331378299120235
13.044970697439703,54,54,1,0.009710128221394847,13.02341644524029,21.55425219941349
13.04084208699196,72,109,0,0.016737502670671412,13.02788998533018,12.952101661779082
13.05575972879681,45,58,1,0.009000000000000001,13.034831087545587,20.928641251221897
13.059439312181595,62,88,0,0.009000000000000001,13.043202753041811,16.236559139784944
13.06575972879681,67,77,1,0.06300232337601924,13.047802739549498,17.956989247311828
13.069439312181595,99,104,0,0.009000000000000001,13.055705196834577,13.734115347018573
13.079439312181595,86,107,0,0.0726296904906638,13.06617440504572,13.264907135874878
13.13576231032572,60,81,1,0.009000000000000001,13.1184309320266,17.331378299120235
13.14576231032572,64,63,1,0.011053186352340266,13.125615682759738,20.146627565982406
13.160138968282332,68,59,0,0.03316673124159799,13.139366729768158,20.772238514174
13.158043628494987,48,90,1,0.01845231044020433,13.142119874829298,15.923753665689148
13.17854619565077,49,112,1,0.009000000000000001,13.166063302200135,12.482893450635387
13.188546195650769,59,93,1,0.009000000000000001,13.173091650196223,15.454545454545453
13.198546195650769,51,57,1,0.07856878978751025,13.177461151662499,21.085043988269796
13.196990891884107,39,96,0,0.023184958046019125,13.182005554640705,14.985337243401759
13.222751956379684,88,107,0,0.07353927591558682,13.209487049243808,13.264907135874878
13.285844850970225,53,56,1,0.009000000000000001,13.264603404244907,21.241446725317694
13.295844850970225,60,112,1,0.02249366470130674,13.28336195751959,12.482893450635387
13.304462262952558,98,74,0,0.016182836000197678,13.286036065494104,18.426197458455523
13.322443191841668,67,70,0,0.009000000000000001,13.30339138343502,19.05180840664712
13.320837811749454,49,88,1,0.03210966022279693,13.30460125260967,16.236559139784944
13.332443191841667,72,107,0,0.04384281359878683,13.319178284705792,13.264907135874878
13.356515211997007,67,76,1,0.009000000000000001,13.338401820012647,18.113391984359726
13.366515211997006,94,105,1,0.009000000000000001,13.352937499387036,13.577712609970675
13.376515211997006,52,75,1,0.011406360208663775,13.358245417275599,18.269794721407624
13.381157429173653,25,71,0,0.011479781994051332,13.362262023504053,18.89540566959922
13.389188945562188,42,95,1,0.03355546894898538,13.374047205581737,15.141739980449657
13.393912742500376,37,78,0,0.03611274169497027,13.376112155990112,17.80058651026393
13.426472799949948,59,80,1,0.02800126929920365,13.40898501891378,17.487781036168133
13.434038011050344,56,61,0,0.009000000000000001,13.413578578010267,20.459433040078203
13.444038011050344,72,72,0,0.018626977155676076,13.425299008117792,18.73900293255132
13.457585321393507,57,66,1,0.009000000000000001,13.437907902038669,19.67741935483871
13.467585321393507,61,63,1,0.027269407840761553,13.447438693827525,20.146627565982406
13.464734652334428,57,89,0,0.023460364362202342,13.448654495931692,16.080156402737046
13.490801723847987,44,110,0,0.009000000000000001,13.478006024923255,12.795698924731184
13.497884663438798,43,65,1,0.009000000000000001,13.478050841346912,19.83382209188661
13.500801723847987,67,75,0,0.009000000000000001,13.48253192912658,18.269794721407624
13.507884663438798,45,84,1,0.07110685988339298,13.49102249335082,16.86217008797654
13.510801723847987,60,87,0,0.009000000000000001,13.494408761971155,16.392961876832846
13.520801723847987,62,96,0,0.009000000000000001,13.505816386604584,14.985337243401759
13.530801723847986,58,61,0,0.009000000000000001,13.510342290807909,20.459433040078203
13.540801723847986,62,79,0,0.009000000000000001,13.52315754007477,17.64418377321603
13.550801723847986,80,77,0,0.022465190799256875,13.532844734600674,17.956989247311828
13.57576304695827,21,84,0,0.013826651434422877,13.558900876870293,16.86217008797654
13.586892285531457,59,102,1,0.011566390306637227,13.572845364710343,14.04692082111437
13.591125992996519,64,109,0,0.009000000000000001,13.578173891334739,12.952101661779082
13.599743830316608,42,70,1,0.009000000000000001,13.580692021909961,19.05180840664712
13.601125992996518,56,66,0,0.012617159061828741,13.58144857364168,19.67741935483871
13.609743830316608,59,79,1,0.025525081689993064,13.592099646543392,17.64418377321603
13.615145058620772,54,59,0,0.027886228157550343,13.594372820106598,20.772238514174
13.638105032194378,46,99,1,0.009000408101039687,13.623588903162121,14.516129032258064
13.646129756573606,58,91,0,0.03398444801603223,13.630362405644965,15.76735092864125
13.648105485639977,25,109,1,0.04250633110876803,13.635153383978198,12.952101661779082
13.683890254369198,49,91,0,0.009000000000000001,13.668122903440556,15.76735092864125
13.693890254369197,49,56,0,0.009000000000000001,13.67264880764388,21.241446725317694
13.695334742427498,77,77,1,0.02951623512382317,13.677377753180187,17.956989247311828
13.703890254369197,67,64,0,0.04344349753699852,13.683900029540263,19.990224828934508
13.728130559231746,43,102,1,0.009000000000000001,13.714083638410631,14.04692082111437
13.738130559231745,58,89,1,0.009000000000000001,13.722050402829009,16.080156402737046
13.752160807188085,44,65,0,0.009000000000000001,13.732326985096199,19.83382209188661
13.748130559231745,73,105,1,0.02056026341279574,13.734552846621774,13.577712609970675
13.762160807188085,63,74,0,0.03458955995361986,13.74373460972963,18.426197458455523
13.770975296357074,50,82,1,0.019329441331509163,13.753800320795001,17.174975562072337
13.792452453392084,62,96,1,0.009000000000000001,13.777467116148681,14.985337243401759
13.800593651580996,63,62,0,0.029777673016924067,13.780290621277967,20.303030303030305
13.802452453392084,56,55,1,0.013705962301946116,13.781054603929718,21.397849462365592
13.817681300394247,61,54,1,0.024054252599908597,13.796127048194833,21.55425219941349
13.833679954933134,34,105,0,0.009367206892537954,13.820102242323163,13.577712609970675
13.844408247727479,47,68,1,0.009000000000000001,13.825043633846736,19.364613880742915
13.844087962591509,86,71,0,0.04591878938152592,13.825192556921909,18.89540566959922
13.854408247727479,79,98,1,0.009000000000000001,13.839735715958172,14.672531769305962
13.864408247727479,53,56,1,0.020673626850890258,13.84316680100216,21.241446725317694
13.887378944228468,53,97,1,0.020613514002784,13.872550009722113,14.82893450635386
13.895108839682093,79,66,0,0.009000000000000001,13.875431420327255,19.67741935483871
13.905108839682093,33,75,0,0.026421180629771366,13.886839044960686,18.269794721407624
13.910282848676006,69,73,1,0.009000000000000001,13.891700248480502,18.58260019550342
13.920282848676006,79,57,1,0.009000000000000001,13.899197804687736,21.085043988269796
13.930282848676006,69,83,1,0.01822407354494502,13.913264275850981,17.01857282502444
13.934465707048506,33,109,0,0.0216828188959008,13.921513605386727,12.952101661779082
13.958557728043951,51,58,0,0.03894087160078118,13.937629086792729,20.928641251221897
13.950531819281501,78,110,1,0.009000000000000001,13.93773612035677,12.795698924731184
13.9605318192815,81,96,1,0.030604850830428677,13.945546482038099,14.985337243401759
13.994537209093089,86,91,1,0.031885154133381506,13.978769858164448,15.76735092864125
14.00182536315593,74,99,0,0.054769633048421744,13.987309234123673,14.516129032258064
14.02996515813018,68,64,1,0.009000000000000001,14.009974933301246,19.990224828934508
14.03996515813018,56,77,1,0.009000000000000001,14.022008168882868,17.956989247311828
14.04996515813018,68,65,1,0.011049552218059873,14.030131336038293,19.83382209188661
14.06268051098751,59,51,0,0.014951428719982398,14.040657050576954,22.023460410557185
14.062242438372468,62,62,1,0.009000000000000001,14.041939408069439,20.303030303030305
14.072242438372468,39,100,1,0.041614636399724104,14.057882712077259,14.359726295210166
14.079293209565268,92,66,0,0.009000000000000001,14.05961579021043,19.67741935483871
14.089293209565268,70,102,0,0.009000000000000001,14.075246288744154,14.04692082111437
14.099293209565268,40,67,0,0.11233685240605532,14.079772192947477,19.521016617790814
14.11848092326105,73,102,1,0.03772454414089187,14.104434002439936,14.04692082111437
14.160397083417596,72,78,1,0.047966438360678244,14.142596496907332,17.80058651026393
14.213693126040571,47,95,1,0.03522740884155092,14.198551386060121,15.141739980449657
14.224111934460884,61,107,0,0.009000000000000001,14.21084702732501,13.264907135874878
14.234111934460884,35,84,0,0.009000000000000001,14.217249764372907,16.86217008797654
14.244111934460884,68,101,0,0.02845499311762273,14.229908610902722,14.203323558162268
14.252834691420071,44,84,1,0.028601717187958803,14.235972521332094,16.86217008797654
14.275728593480466,84,91,0,0.009000000000000001,14.259961242551825,15.76735092864125
14.28461437718447,67,108,1,0.07976448611917482,14.271505872785642,13.10850439882698
14.285728593480465,83,107,0,0.009000000000000001,14.27246368634459,13.264907135874878
14.295728593480465,65,52,0,0.014650460127350586,14.273861535806956,21.867057673509287
14.312006882510854,24,96,0,0.009000000000000001,14.297021545267452,14.985337243401759
14.322006882510854,38,74,0,0.009000000000000001,14.303580685052399,18.426197458455523
14.332006882510854,68,72,0,0.009197609182761942,14.313267879578301,18.73900293255132
14.342226448269479,68,79,0,0.03427822763924454,14.324582264496263,17.64418377321603
14.373241583983553,58,95,1,0.009000000000000001,14.358099844003103,15.141739980449657
14.383241583983553,58,63,1,0.0325052632090798,14.363094956417571,20.146627565982406
14.38031336786864,33,108,0,0.029420979923502316,14.367204863469812,13.10850439882698
14.41300334556142,69,53,0,0.03561044232388616,14.391292690624958,21.71065493646139
14.419358543104753,67,83,1,0.013458281040474186,14.402339970279728,17.01857282502444
14.43431218870528,70,81,1,0.017038484331147925,14.416980810406159,17.331378299120235
14.45257050369907,37,87,0,0.0185194608127071,14.436177541822238,16.392961876832846
14.45324383796211,87,104,1,0.009000000000000001,14.439509722615092,13.734115347018573
14.46324383796211,69,97,1,0.0193095716999048,14.448414903455756,14.82893450635386
14.473147682379855,54,54,0,0.01098446070432871,14.451593430180441,21.55425219941349
14.484698917628672,56,65,1,0.009000000000000001,14.464865095536785,19.83382209188661
14.485352638717998,63,80,0,0.0351714800758426,14.46786485768183,17.487781036168133
14.494698917628671,59,111,1,0.02474906933629799,14.482059621440989,12.639296187683286
14.522197883557892,79,62,1,0.009000000000000001,14.501894853254862,20.303030303030305
14.52443206102449,36,101,0,0.03148315170479481,14.510228737466328,14.203323558162268
14.532197883557892,53,95,1,0.01546197987006494,14.517056143577442,15.141739980449657
14.549377861191298,52,98,1,0.018272360901479844,14.53470532942199,14.672531769305962
14.559413340696484,53,93,0,0.04337608222692513,14.543958795241938,15.454545454545453
14.569680484415164,43,50,1,0.015425178792438779,14.54750062126756,22.179863147605083
14.586819571962318,38,59,1,0.0273253162269921,14.566047333448143,20.772238514174
14.60760898761529,33,55,0,0.009000000000000001,14.586211138152924,21.397849462365592
14.61760898761529,77,58,0,0.06730289577551632,14.596680346364067,20.928641251221897
14.617181034436753,43,104,1,0.009000000000000001,14.603446919089734,13.734115347018573
14.627181034436752,47,95,1,0.10708152732959926,14.612039294456302,15.141739980449657
14.69238998292142,40,83,0,0.08101324763431458,14.675371410096394,17.01857282502444
14.746160509247417,28,87,1,0.041491925199074665,14.729767547370585,16.392961876832846
14.782404702515102,56,95,0,0.055704828445615584,14.767262962534652,15.141739980449657
14.7922626483575,85,50,1,0.009484858964866436,14.770082785209896,22.179863147605083
14.802801380540686,48,72,1,0.01845237982749264,14.784062377608134,18.73900293255132
14.823304024793455,62,80,1,0.0301811645105204,14.805816243757286,17.487781036168133
14.844298956343563,79,103,0,0.04435543330399145,14.830408438259497,13.890518084066471
14.856838652027367,47,54,1,0.01962897587987629,14.835284399827954,21.55425219941349
14.87864862522723,87,87,1,0.01656148246243511,14.862255663350398,16.392961876832846
14.893582771125775,75,80,0,0.009000000000000001,14.876094990089607,17.487781036168133
14.903582771125775,72,52,0,0.009000000000000001,14.881715713452266,21.867057673509287
14.897050272407714,88,100,1,0.021544370222354902,14.882690546112505,14.359726295210166
14.913582771125775,62,68,0,0.0322760823361079,14.894218157245032,19.364613880742915
14.920988461543665,59,54,1,0.009000000000000001,14.899434209344252,21.55425219941349
14.930988461543665,79,70,1,0.009000000000000001,14.911936653137017,19.05180840664712
14.940988461543665,74,82,1,0.029337316666726756,14.923813485981592,17.174975562072337
14.949445084832561,76,102,0,0.06972071412660324,14.935398164011447,14.04692082111437
14.97358548006225,70,59,1,0.011076612499004414,14.952813241548075,20.772238514174
14.985892827283365,47,63,1,0.009000000000000001,14.965746199717383,20.146627565982406
14.995892827283365,57,95,1,0.01740919669238136,14.980751087302915,15.141739980449657
15.015236379163788,62,76,1,0.12229253938627913,14.997122987179429,18.113391984359726
15.026912544973232,58,101,0,0.010377194081027427,15.01270922141507,14.203323558162268
15.038442760618818,38,57,0,0.009000000000000001,15.017357716630547,21.085043988269796
15.048442760618817,67,93,0,0.009000000000000001,15.032988215164272,15.454545454545453
15.058442760618817,56,69,0,0.011213802352851309,15.039234549475122,19.208211143695017
15.070902541010874,62,99,0,0.02093643488880134,15.056386411978616,14.516129032258064
15.094165246442875,73,88,0,0.010363399390084292,15.07792868730309,16.236559139784944
15.10568013465408,64,51,0,0.009000000000000001,15.083656674243523,22.023460410557185
15.11568013465408,70,99,0,0.0551065055321029,15.101164005621822,14.516129032258064
15.151116978481877,68,99,1,0.019303589084697235,15.13660084944962,14.516129032258064
15.172565410798207,77,73,1,0.009000000000000001,15.153982810602702,18.58260019550342
15.176909585245305,60,71,0,0.1669192490928778,15.158014179575705,18.89540566959922
15.182565410798206,55,86,1,0.016196287751077627,15.166016046184327,16.549364613880744
15.200561286077182,38,51,1,0.009000000000000001,15.178537825666625,22.023460410557185
15.210561286077182,42,101,1,0.009000000000000001,15.19635796251902,14.203323558162268
15.220561286077182,31,108,1,0.009000000000000001,15.207452781678354,13.10850439882698
15.230561286077181,62,76,1,0.009000000000000001,15.212447894092822,18.113391984359726
15.240561286077181,54,100,1,0.03935689430153912,15.226201559781972,14.359726295210166
15.284291168634446,66,80,1,0.011700157879451174,15.266803387598278,17.487781036168133
15.29729134405606,63,81,1,0.009000000000000001,15.27995996575694,17.331378299120235
15.30729134405606,54,95,1,0.010962759815281982,15.29214960407561,15.141739980449657
15.319472188295261,65,58,1,0.027690002354671516,15.298543547044039,20.928641251221897
15.35023885757823,43,91,1,0.026572271664740583,15.334471506649589,15.76735092864125
15.362375417570725,52,89,0,0.03935318199600936,15.346295261167988,16.080156402737046
15.379763603872386,45,65,1,0.05990331833529618,15.3599297817805,19.83382209188661
15.406101175344068,22,111,0,0.055860679728874534,15.393461879156385,12.639296187683286
15.44632284646716,46,65,1,0.04519378013642523,15.426489024375273,19.83382209188661
15.46816859726504,34,96,0,0.03947932197915908,15.453183260021637,14.985337243401759
15.496538157729855,55,98,1,0.009000000000000001,15.481865625960548,14.672531769305962
15.506538157729855,83,80,1,0.009000000000000001,15.489050376693687,17.487781036168133
15.512034510575216,33,56,0,0.009000000000000001,15.490793063849898,21.241446725317694
15.516538157729855,61,75,1,0.009000000000000001,15.498268363008448,18.269794721407624
15.522034510575216,44,64,0,0.011823821953041146,15.502044285746281,19.990224828934508
15.526538157729854,43,106,1,0.009000000000000001,15.513116847856931,13.421309872922777
15.535172090523039,44,51,0,0.009000000000000001,15.513148630112482,22.023460410557185
15.536538157729854,63,85,1,0.009000000000000001,15.519832390378925,16.705767350928642
15.546538157729854,61,53,1,0.0527280859219646,15.524827502793393,21.71065493646139
15.545172090523039,30,92,0,0.11879940543603215,15.529561142331445,15.610948191593351
15.60512491986537,73,111,1,0.010360188448087912,15.592485623677687,12.639296187683286
15.616636240363245,46,90,1,0.009000000000000001,15.600712486697557,15.923753665689148
15.626636240363245,40,110,1,0.009000000000000001,15.613840541438513,12.795698924731184
15.636636240363245,96,71,1,0.017905120719199048,15.617740834693645,18.89540566959922
15.656530818940134,53,65,1,0.009000000000000001,15.636696996848247,19.83382209188661
15.666530818940133,51,85,1,0.03629816578690207,15.649825051589204,16.705767350928642
15.677171429896408,41,109,0,0.009000000000000001,15.664219328234628,12.952101661779082
15.687171429896408,57,104,0,0.04167160511064083,15.673437314549389,13.734115347018573
15.706862114258913,55,94,1,0.014148205010586898,15.691563971541415,15.298142717497555
15.722582342048455,62,55,1,0.014972815054281795,15.701184492586089,21.397849462365592
15.733473213352676,47,79,0,0.07818016328426247,15.71582902957946,17.64418377321603
15.73921880321988,41,109,1,0.011704166680883659,15.7262667015581,12.952101661779082
15.752223432865305,59,91,1,0.03621645852157675,15.736456081936664,15.76735092864125
15.792463942333724,86,84,1,0.011845487072652199,15.775601772245746,16.86217008797654
15.80562559463667,44,82,1,0.009000000000000001,15.788450619074597,17.174975562072337
15.81562559463667,50,99,1,0.03134848615901168,15.801109465604412,14.516129032258064
15.8203400614463,77,82,0,0.025660642659563786,15.803165085884228,17.174975562072337
15.848851886623594,84,61,0,0.009000000000000001,15.828392453583517,20.459433040078203
15.85045724592446,59,66,1,0.009000000000000001,15.830779826569621,19.67741935483871
15.858851886623594,68,71,0,0.009000000000000001,15.839956480953994,18.89540566959922
15.86045724592446,77,82,1,0.009000000000000001,15.843282270362387,17.174975562072337
15.868851886623593,50,110,0,0.009000000000000001,15.856056187698861,12.795698924731184
15.87045724592446,48,104,1,0.009000000000000001,15.856723130577441,13.734115347018573
15.88045724592446,54,78,1,0.0404134127261873,15.862656659414196,17.80058651026393
15.878851886623593,54,97,0,0.05811266619070201,15.864022952117239,14.82893450635386
15.925361037842444,67,98,1,0.0801671173219867,15.910688506073138,14.672531769305962
15.943421515724374,42,59,0,0.03215147586537611,15.9226492772102,20.772238514174
15.979145377797014,49,83,0,0.045681651080630506,15.962126804971989,17.01857282502444
16.01443561264465,59,106,1,0.009000000000000001,16.00101430277173,13.421309872922777
16.024435612644652,48,81,1,0.014771592055058121,16.007104234345533,17.331378299120235
16.029902767886604,49,86,0,0.024267452153046813,16.013353403272724,16.549364613880744
16.040848492705827,75,73,1,0.009000000000000001,16.022265892510323,18.58260019550342
16.05686660361221,54,58,0,0.009000000000000001,16.03593796236099,20.928641251221897
16.05084849270583,67,110,1,0.02853048851223748,16.038052793781098,12.795698924731184
16.066866603612212,68,109,0,0.05929086865896091,16.053914501950434,12.952101661779082
16.082549035497202,32,99,1,0.009000000000000001,16.068032906464943,14.516129032258064
16.092549035497203,63,89,1,0.016453133617475395,16.076468879094467,16.080156402737046
16.110830295072176,71,83,1,0.03052911849659417,16.093811722247153,17.01857282502444
16.13274534656661,68,84,0,0.05349852318082398,16.115883176478636,16.86217008797654
16.14475153784617,57,93,1,0.009000000000000001,16.129296992391623,15.454545454545453
16.15475153784617,72,106,1,0.030094532376375736,16.14133022797325,13.421309872922777
16.19218815010086,76,75,0,0.009000000000000001,16.173918355379453,18.269794721407624
16.188189907153255,53,111,1,0.009000000000000001,16.175550610965573,12.639296187683286
16.198189907153257,51,105,1,0.009000000000000001,16.184612194543288,13.577712609970675
16.202188150100863,73,80,0,0.012590426123026636,16.184700369064696,17.487781036168133
16.20818990715326,52,59,1,0.020278680146663106,16.187417668639085,20.772238514174
16.216177512459783,45,63,0,0.009000000000000001,16.1960308848938,20.146627565982406
16.226177512459785,21,87,0,0.03104109344512572,16.209784550582953,16.392961876832846
16.230721773982882,48,105,1,0.01108085629990043,16.217144061372913,13.577712609970675
16.243033836538327,63,81,1,0.0310743285522627,16.22570245823921,17.331378299120235
16.2606676162877,46,71,0,0.04701099364950087,16.2417722106181,18.89540566959922
16.277560868263063,63,91,1,0.06520053574343135,16.26179351733442,15.76735092864125
16.312902053676037,35,104,0,0.030597855243916977,16.299167938329017,13.734115347018573
16.350005907977987,59,60,1,0.019224718868275436,16.329390072200862,20.6158357771261
16.346899670613723,66,91,0,0.04310955361132378,16.331132319685082,15.76735092864125
16.371366706720515,42,50,1,0.04078901828206292,16.34918684357291,22.179863147605083
16.394799174626304,66,102,0,0.051327154400623375,16.380752253805188,14.04692082111437
16.41668783814503,56,82,1,0.01566346661893395,16.39951286258296,17.174975562072337
16.434091689943845,47,103,1,0.024259289205657127,16.420201171859777,13.890518084066471
16.451829346182553,70,92,0,0.03228065093804356,16.43621839799096,15.610948191593351
16.461046455727907,68,83,1,0.03263965925842212,16.444027882902883,17.01857282502444
16.487696736113712,50,105,0,0.02602628331359908,16.474119023503743,13.577712609970675
16.49731274379282,55,101,1,0.023649343606423588,16.483109420234655,14.203323558162268
16.51661482868438,67,51,0,0.05547158969785926,16.49459136827382,22.023460410557185
16.5235897922444,30,72,1,0.011738192193259963,16.50485078931185,18.73900293255132
16.53663222801469,52,60,1,0.013013763585613219,16.516016392237564,20.6158357771261
16.551091965332038,74,101,1,0.02376640622117406,16.536888641773874,14.203323558162268
16.577499083355566,51,71,1,0.009000000000000001,16.558603677685966,18.89540566959922
16.578249928348665,54,96,0,0.04718647915943347,16.563264591105263,14.985337243401759
16.587499083355567,53,96,1,0.011426021375958727,16.572513746112165,14.985337243401759
16.600194662662187,37,102,1,0.020105782850608225,16.58614774184107,14.04692082111437
16.622534421385083,78,111,1,0.012167445035890831,16.6098951251974,12.639296187683286
16.630679349636925,47,101,0,0.009000000000000001,16.61647602607876,14.203323558162268
16.636053804758294,65,70,1,0.019197086565700405,16.617001996351647,19.05180840664712
16.640679349636926,56,67,0,0.04818393801933005,16.621158333019135,19.521016617790814
16.657383900942406,48,54,1,0.02213522212030193,16.63582964874299,21.55425219941349
16.681978592187185,53,102,1,0.009000000000000001,16.66793167136607,14.04692082111437
16.691978592187187,67,90,1,0.009000000000000001,16.676054838521498,15.923753665689148
16.69421705854729,60,111,0,0.02590729634782094,16.68157776235961,12.639296187683286
16.70197859218719,30,63,1,0.022617435441594065,16.681831964621207,20.146627565982406
16.723002943378205,71,83,0,0.02697747522540471,16.705984370553182,17.01857282502444
16.727109076011182,61,68,1,0.009000000000000001,16.70774446213044,19.364613880742915
16.737109076011183,70,91,1,0.020216390158580094,16.721341725082542,15.76735092864125
16.752977915850877,39,56,0,0.04086248121349557,16.73173646912556,21.241446725317694
16.759571731742938,70,106,1,0.009000000000000001,16.746150421870016,13.421309872922777
16.76957173174294,45,77,1,0.02120887160777272,16.751614742495626,17.956989247311828
16.793137144640465,62,104,1,0.011776824740482162,16.779403029293444,13.734115347018573
16.79838067275476,68,71,0,0.038648028979885035,16.77948526708516,18.89540566959922
16.80622250546322,63,56,1,0.015103338591078123,16.784981058737905,21.241446725317694
16.823003992786642,59,52,1,0.010483939100899769,16.80113693511313,21.867057673509287
16.834652814009864,56,103,1,0.02571113345843606,16.820762295925796,13.890518084066471
16.841322927176854,60,108,0,0.027036819828315625,16.82821442277803,13.10850439882698
16.863220740074794,66,106,1,0.009000000000000001,16.849799430201873,13.421309872922777
16.871363838097206,62,54,0,0.009000000000000001,16.84980958589779,21.55425219941349
16.873220740074796,73,67,1,0.02677195374225954,16.853699723457005,19.521016617790814
16.881363838097208,66,94,0,0.009667415243562476,16.86606569537971,15.298142717497555
16.892105410590055,32,88,0,0.009000000000000001,16.87586885145027,16.236559139784944
16.902967355343975,52,57,1,0.039360433255061694,16.881882311355707,21.085043988269796
16.902105410590057,74,104,0,0.009000000000000001,16.888371295243036,13.734115347018573
16.91210541059006,65,51,0,0.09801524812889721,16.8900819501795,22.023460410557185
16.946701170071822,46,65,1,0.023222135167537714,16.926867347979936,19.83382209188661
16.972503542480197,61,79,1,0.009000000000000001,16.95485935870698,17.64418377321603
16.9825035424802,35,68,1,0.009000000000000001,16.963138928599456,19.364613880742915
16.9925035424802,71,53,1,0.025954101977878185,16.970792887543737,21.71065493646139
17.021011241844388,52,70,0,0.009000000000000001,17.00195943343774,19.05180840664712
17.021341433566732,66,87,1,0.04452155279398392,17.0049484716899,16.392961876832846
17.03101124184439,70,77,0,0.018108567222885365,17.013054252597076,17.956989247311828
17.05113187209204,76,112,0,0.009000000000000001,17.038648978641405,12.482893450635387
17.06113187209204,41,99,0,0.014996928332970923,17.046615743059782,14.516129032258064
17.070809825560048,73,61,1,0.04254490385525607,17.05035039251997,20.459433040078203
17.07779512579534,57,63,0,0.03194457042698749,17.05764849822936,20.146627565982406
17.113289092936437,76,67,0,0.009000000000000001,17.093768076318646,19.521016617790814
17.118081940954777,71,52,1,0.009000000000000001,17.096214883281267,21.867057673509287
17.12328909293644,79,59,0,0.08135516897239795,17.102516854422266,20.772238514174
17.12808194095478,50,112,1,0.016690237589944187,17.115599047504144,12.482893450635387
17.14662664938805,48,101,1,0.03695871152293238,17.132423325829887,14.203323558162268
17.187691884413532,60,57,1,0.017445022173512004,17.166606840425263,21.085043988269796
17.2070752423841,63,101,1,0.009000000000000001,17.192871918825936,14.203323558162268
17.213683725127993,58,89,0,0.015288033757592114,17.197603568725256,16.080156402737046
17.2170752423841,69,85,1,0.040318054873342356,17.200369475033174,16.705767350928642
17.230670429303096,69,67,0,0.01368425618124677,17.211149412685305,19.521016617790814
17.24587515839337,73,64,0,0.1116118042865579,17.225884933564437,19.990224828934508
17.26187308113226,32,77,1,0.013911552175612846,17.243916091884948,17.956989247311828
17.277330361327387,49,87,1,0.028383672052079915,17.260937399450555,16.392961876832846
17.308867774718586,91,89,1,0.04258408450767223,17.29278761831585,16.080156402737046
17.356183424171554,43,93,1,0.017101480406695724,17.34072887871701,15.454545454545453
17.369888274267325,56,51,0,0.009000000000000001,17.347864813856766,22.023460410557185
17.375185069067882,45,74,1,0.009000000000000001,17.356758871609426,18.426197458455523
17.379888274267326,74,79,0,0.02847408818965172,17.36224409049411,17.64418377321603
17.385185069067884,60,90,1,0.012768281194925037,17.369261315402195,15.923753665689148
17.399372048173355,82,81,1,0.05739803075219522,17.382040669874236,17.331378299120235
17.411526150033605,54,61,0,0.09309822321242162,17.391066716993528,20.459433040078203
17.463147637898015,69,54,1,0.019195098102310692,17.4415933856986,21.55425219941349
17.48447552467836,53,52,1,0.009000000000000001,17.46260846700485,21.867057673509287
17.49447552467836,26,67,1,0.009000000000000001,17.47495450806057,19.521016617790814
17.504475524678362,56,62,1,0.06794799090881713,17.484172494375333,20.303030303030305
17.51496862026963,70,102,0,0.054801508627707586,17.500921699448515,14.04692082111437
17.575859185411527,70,89,0,0.03864758704030063,17.55977902900879,16.080156402737046
17.579973292354826,28,67,1,0.018015305648763327,17.560452275737035,19.521016617790814
17.59999029863123,56,50,1,0.009000000000000001,17.577810435483624,22.179863147605083
17.60999029863123,60,52,1,0.009000000000000001,17.58812324095772,21.867057673509287
17.61880094878964,78,80,0,0.009000000000000001,17.601313167753474,17.487781036168133
17.619990298631233,76,85,1,0.009000000000000001,17.603284531280305,16.705767350928642
17.628800948789642,67,57,0,0.009000000000000001,17.607715904801374,21.085043988269796
17.629990298631235,51,68,1,0.013723419321556152,17.61062568475049,19.364613880742915
17.638800948789644,39,80,0,0.031238428003507204,17.621313167753478,17.487781036168133
17.645238542321852,48,88,1,0.05125468684884876,17.629001983182068,16.236559139784944
17.673510313237987,55,86,0,0.009000000000000001,17.656960948624107,16.549364613880744
17.68351031323799,50,78,0,0.009000000000000001,17.665709726727723,17.80058651026393
17.69351031323799,74,54,0,0.009000000000000001,17.671956061038575,21.55425219941349
17.702188194376127,57,71,1,0.009000000000000001,17.683292788706527,18.89540566959922
17.70351031323799,97,68,0,0.013456597421314364,17.68414569935725,19.364613880742915
17.71218819437613,59,93,1,0.013518619330981507,17.696733648921583,15.454545454545453
17.718462088150563,52,103,0,0.03205937108850802,17.704571570066495,13.890518084066471
17.727208882521662,76,58,1,0.09423783548629928,17.70628024127044,20.928641251221897
17.75408361158224,59,56,0,0.04086316724483441,17.732842164856923,21.241446725317694
17.799487130743167,51,111,0,0.009000000000000001,17.786847834555484,12.639296187683286
17.809487130743168,96,93,0,0.009000000000000001,17.794032585288623,15.454545454545453
17.81948713074317,59,50,0,0.022144925449028987,17.797307267595563,22.179863147605083
17.83191758861755,39,75,1,0.009000000000000001,17.81364779389614,18.269794721407624
17.84409260346431,46,71,0,0.010670665571942224,17.82519719779471,18.89540566959922
17.84191758861755,32,94,1,0.04547204258550046,17.826619445900054,15.298142717497555
17.85594889854425,60,54,0,0.009000000000000001,17.834394646344833,21.55425219941349
17.86594889854425,62,93,0,0.01365419304546106,17.850494353089704,15.454545454545453
17.88112022415032,44,62,0,0.0435341444159905,17.86081719384729,20.303030303030305
17.89244208037922,73,109,1,0.017874807383149897,17.87948997871744,12.952101661779082
17.912302977471608,51,50,1,0.03286625311057125,17.890123114324002,22.179863147605083
17.929491495723642,64,94,0,0.009000000000000001,17.914193353006144,15.298142717497555
17.939491495723644,48,108,0,0.009000000000000001,17.926382991324818,13.10850439882698
17.948821036483356,62,92,1,0.019315347570967367,17.933210088291762,15.610948191593351
17.949491495723645,87,104,0,0.009000000000000001,17.935757380376625,13.734115347018573
17.959491495723647,65,100,0,0.03380582176754471,17.945131769428436,14.359726295210166
17.97028253378443,50,73,1,0.009000000000000001,17.951699933588927,18.58260019550342
17.980282533784433,46,76,1,0.011631555766024844,17.96216914180007,18.113391984359726
17.99320648463557,55,54,1,0.026557147111243483,17.971652232436156,21.55425219941349
18.0,45,80,0,0.06,17.982512218963834,17.487781036168133
18.0,60,80,1,0.045000000000000005,17.982512218963834,17.487781036168133
17.99705351990981,61,101,0,0.011196434226953707,17.982850196351645,14.203323558162268
18.05,59,80,1,0.045000000000000005,18.032512218963834,17.487781036168133
18.066666666666666,41,80,0,0.06,18.0491788856305,17.487781036168133
18.1,55,80,1,0.045000000000000005,18.082512218963835,17.487781036168133
18.133333333333333,48,80,0,0.06,18.115845552297166,17.487781036168133
18.150000000000002,67,80,1,0.045000000000000005,18.132512218963836,17.487781036168133
18.2,50,80,0,0.06,18.182512218963833,17.487781036168133
18.200000000000003,67,80,1,0.045000000000000005,18.182512218963836,17.487781036168133
18.250000000000004,53,80,1,0.045000000000000005,18.232512218963837,17.487781036168133
18.266666666666666,38,80,0,0.06,18.2491788856305,17.487781036168133
18.300000000000004,62,80,1,0.045000000000000005,18.282512218963838,17.487781036168133
18.333333333333332,59,80,0,0.06,18.315845552297166,17.487781036168133
18.350000000000005,52,80,1,0.045000000000000005,18.33251221896384,17.487781036168133
18.4,47,80,0,0.06,18.382512218963832,17.487781036168133
18.400000000000006,48,80,1,0.045000000000000005,18.38251221896384,17.487781036168133
18.450000000000006,53,80,1,0.045000000000000005,18.43251221896384,17.487781036168133
18.466666666666665,48,80,0,0.06,18.4491788856305,17.487781036168133
18.500000000000007,65,80,1,0.045000000000000005,18.48251221896384,17.487781036168133
18.53333333333333,53,80,0,0.06,18.515845552297165,17.487781036168133
18.550000000000008,67,80,1,0.045000000000000005,18.53251221896384,17.487781036168133
18.599999999999998,48,80,0,0.06,18.58251221896383,17.487781036168133
18.60000000000001,64,80,1,0.045000000000000005,18.582512218963842,17.487781036168133
18.65000000000001,65,80,1,0.045000000000000005,18.632512218963843,17.487781036168133
18.666666666666664,55,80,0,0.06,18.649178885630498,17.487781036168133
18.70000000000001,64,80,1,0.045000000000000005,18.682512218963844,17.487781036168133
18.73333333333333,50,80,0,0.06,18.715845552297164,17.487781036168133
18.75000000000001,53,80,1,0.045000000000000005,18.732512218963844,17.487781036168133
18.799999999999997,43,80,0,0.06,18.78251221896383,17.487781036168133
18.80000000000001,62,80,1,0.045000000000000005,18.782512218963845,17.487781036168133
18.850000000000012,65,80,1,0.045000000000000005,18.832512218963846,17.487781036168133
18.866666666666664,50,80,0,0.06,18.849178885630497,17.487781036168133
18.900000000000013,65,80,1,0.045000000000000005,18.882512218963846,17.487781036168133
18.93333333333333,38,80,0,0.06,18.915845552297164,17.487781036168133
18.950000000000014,69,80,1,0.045000000000000005,18.932512218963847,17.487781036168133
18.999999999999996,48,80,0,0.06,18.98251221896383,17.487781036168133
19.000000000000014,65,80,1,0.045000000000000005,18.982512218963848,17.487781036168133
19.050000000000015,62,80,1,0.045000000000000005,19.03251221896385,17.487781036168133
19.066666666666663,47,80,0,0.06,19.049178885630496,17.487781036168133
19.100000000000016,67,80,1,0.045000000000000005,19.08251221896385,17.487781036168133
19.13333333333333,45,80,0,0.06,19.115845552297163,17.487781036168133
19.150000000000016,59,80,1,0.045000000000000005,19.13251221896385,17.487781036168133
19.199999999999996,45,80,0,0.06,19.18251221896383,17.487781036168133
19.200000000000017,52,80,1,0.045000000000000005,19.18251221896385,17.487781036168133
19.250000000000018,57,80,1,0.045000000000000005,19.23251221896385,17.487781036168133
19.266666666666662,31,80,0,0.06,19.249178885630496,17.487781036168133
19.30000000000002,53,80,1,0.045000000000000005,19.282512218963852,17.487781036168133
19.33333333333333,43,80,0,0.06,19.315845552297162,17.487781036168133
19.35000000000002,53,80,1,0.045000000000000005,19.332512218963853,17.487781036168133
19.399999999999995,48,80,0,0.06,19.38251221896383,17.487781036168133
19.40000000000002,57,80,1,0.045000000000000005,19.382512218963853,17.487781036168133
19.45000000000002,53,80,1,0.045000000000000005,19.432512218963854,17.487781036168133
19.46666666666666,48,80,0,0.06,19.449178885630495,17.487781036168133
19.50000000000002,57,80,1,0.045000000000000005,19.482512218963855,17.487781036168133
19.533333333333328,38,80,0,0.06,19.51584555229716,17.487781036168133
19.550000000000022,43,80,1,0.045000000000000005,19.532512218963856,17.487781036168133
19.599999999999994,57,80,0,0.06,19.582512218963828,17.487781036168133
19.600000000000023,60,80,1,0.045000000000000005,19.582512218963856,17.487781036168133
19.650000000000023,60,80,1,0.045000000000000005,19.632512218963857,17.487781036168133
19.66666666666666,41,80,0,0.06,19.649178885630494,17.487781036168133
19.700000000000024,53,80,1,0.045000000000000005,19.682512218963858,17.487781036168133
19.733333333333327,55,80,0,0.06,19.71584555229716,17.487781036168133
19.750000000000025,65,80,1,0.045000000000000005,19.73251221896386,17.487781036168133
19.799999999999994,50,80,0,0.06,19.782512218963827,17.487781036168133
19.800000000000026,67,80,1,0.045000000000000005,19.78251221896386,17.487781036168133
19.850000000000026,47,80,1,0.045000000000000005,19.83251221896386,17.487781036168133
19.86666666666666,41,80,0,0.06,19.849178885630494,17.487781036168133
19.900000000000027,53,80,1,0.045000000000000005,19.88251221896386,17.487781036168133
19.933333333333326,62,80,0,0.06,19.91584555229716,17.487781036168133
19.950000000000028,53,80,1,0.045000000000000005,19.93251221896386,17.487781036168133
19.999999999999993,38,80,0,0.06,19.982512218963826,17.487781036168133
20.00000000000003,52,80,1,0.045000000000000005,19.982512218963862,17.487781036168133
20.05000000000003,65,80,1,0.045000000000000005,20.032512218963863,17.487781036168133
20.06666666666666,55,80,0,0.06,20.049178885630493,17.487781036168133
20.10000000000003,57,80,1,0.045000000000000005,20.082512218963863,17.487781036168133
20.133333333333326,55,80,0,0.06,20.11584555229716,17.487781036168133
20.15000000000003,57,80,1,0.045000000000000005,20.132512218963864,17.487781036168133
20.199999999999992,41,80,0,0.06,20.182512218963826,17.487781036168133
20.20000000000003,43,80,1,0.045000000000000005,20.182512218963865,17.487781036168133
20.250000000000032,65,80,1,0.045000000000000005,20.232512218963866,17.487781036168133
20.26666666666666,59,80,0,0.06,20.249178885630492,17.487781036168133
20.300000000000033,50,80,1,0.045000000000000005,20.282512218963866,17.487781036168133
20.333333333333325,45,80,0,0.06,20.31584555229716,17.487781036168133
20.350000000000033,60,80,1,0.045000000000000005,20.332512218963867,17.487781036168133
20.39999999999999,50,80,0,0.06,20.382512218963825,17.487781036168133
20.400000000000034,62,80,1,0.045000000000000005,20.382512218963868,17.487781036168133
20.450000000000035,69,80,1,0.045000000000000005,20.43251221896387,17.487781036168133
20.466666666666658,50,80,0,0.06,20.44917888563049,17.487781036168133
20.500000000000036,48,80,1,0.045000000000000005,20.48251221896387,17.487781036168133
20.533333333333324,45,80,0,0.06,20.515845552297158,17.487781036168133
20.550000000000036,35,80,1,0.045000000000000005,20.53251221896387,17.487781036168133
20.59999999999999,53,80,0,0.06,20.582512218963824,17.487781036168133
20.600000000000037,60,80,1,0.045000000000000005,20.58251221896387,17.487781036168133
20.650000000000038,74,80,1,0.045000000000000005,20.63251221896387,17.487781036168133
20.666666666666657,53,80,0,0.06,20.64917888563049,17.487781036168133
20.70000000000004,69,80,1,0.045000000000000005,20.682512218963872,17.487781036168133
20.733333333333324,33,80,0,0.06,20.715845552297157,17.487781036168133
20.75000000000004,60,80,1,0.045000000000000005,20.732512218963873,17.487781036168133
20.79999999999999,57,80,0,0.06,20.782512218963824,17.487781036168133
20.80000000000004,55,80,1,0.045000000000000005,20.782512218963873,17.487781036168133
20.85000000000004,65,80,1,0.045000000000000005,20.832512218963874,17.487781036168133
20.866666666666656,33,80,0,0.06,20.84917888563049,17.487781036168133
20.90000000000004,52,80,1,0.045000000000000005,20.882512218963875,17.487781036168133
20.933333333333323,55,80,0,0.06,20.915845552297156,17.487781036168133
20.950000000000042,62,80,1,0.045000000000000005,20.932512218963875,17.487781036168133
20.99999999999999,57,80,0,0.06,20.982512218963823,17.487781036168133
21.000000000000043,64,80,1,0.045000000000000005,20.982512218963876,17.487781036168133
21.050000000000043,67,80,1,0.045000000000000005,21.032512218963877,17.487781036168133
21.066666666666656,38,80,0,0.06,21.04917888563049,17.487781036168133
21.100000000000044,81,80,1,0.045000000000000005,21.082512218963878,17.487781036168133
21.133333333333322,43,80,0,0.06,21.115845552297156,17.487781036168133
21.150000000000045,62,80,1,0.045000000000000005,21.13251221896388,17.487781036168133
21.19999999999999,38,80,0,0.06,21.182512218963822,17.487781036168133
21.200000000000045,55,80,1,0.045000000000000005,21.18251221896388,17.487781036168133
21.250000000000046,59,80,1,0.045000000000000005,21.23251221896388,17.487781036168133
21.266666666666655,45,80,0,0.06,21.24917888563049,17.487781036168133
21.300000000000047,45,80,1,0.045000000000000005,21.28251221896388,17.487781036168133
21.33333333333332,45,80,0,0.06,21.315845552297155,17.487781036168133
21.350000000000048,53,80,1,0.045000000000000005,21.33251221896388,17.487781036168133
21.399999999999988,53,80,0,0.06,21.38251221896382,17.487781036168133
21.40000000000005,55,80,1,0.045000000000000005,21.382512218963882,17.487781036168133
21.45000000000005,55,80,1,0.045000000000000005,21.432512218963883,17.487781036168133
21.466666666666654,57,80,0,0.06,21.449178885630488,17.487781036168133
21.50000000000005,60,80,1,0.045000000000000005,21.482512218963883,17.487781036168133
21.53333333333332,59,80,0,0.06,21.515845552297154,17.487781036168133
21.55000000000005,53,80,1,0.045000000000000005,21.532512218963884,17.487781036168133
21.599999999999987,43,80,0,0.06,21.58251221896382,17.487781036168133
21.60000000000005,67,80,1,0.045000000000000005,21.582512218963885,17.487781036168133
21.650000000000052,60,80,1,0.045000000000000005,21.632512218963885,17.487781036168133
21.666666666666654,45,80,0,0.06,21.649178885630487,17.487781036168133
21.700000000000053,59,80,1,0.045000000000000005,21.682512218963886,17.487781036168133
21.73333333333332,33,80,0,0.06,21.715845552297154,17.487781036168133
21.750000000000053,57,80,1,0.045000000000000005,21.732512218963887,17.487781036168133
21.799999999999986,41,80,0,0.06,21.78251221896382,17.487781036168133
21.800000000000054,60,80,1,0.045000000000000005,21.782512218963888,17.487781036168133
21.850000000000055,65,80,1,0.045000000000000005,21.83251221896389,17.487781036168133
21.866666666666653,55,80,0,0.06,21.849178885630486,17.487781036168133
21.900000000000055,53,80,1,0.045000000000000005,21.88251221896389,17.487781036168133
21.93333333333332,60,80,0,0.06,21.915845552297153,17.487781036168133
21.950000000000056,53,80,1,0.045000000000000005,21.93251221896389,17.487781036168133
21.999999999999986,38,80,0,0.06,21.98251221896382,17.487781036168133
22.000000000000057,57,80,1,0.045000000000000005,21.98251221896389,17.487781036168133
22.050000000000058,48,80,1,0.045000000000000005,22.03251221896389,17.487781036168133
22.066666666666652,43,80,0,0.06,22.049178885630486,17.487781036168133
22.10000000000006,53,80,1,0.045000000000000005,22.082512218963892,17.487781036168133
22.13333333333332,47,80,0,0.06,22.115845552297152,17.487781036168133
22.15000000000006,55,80,1,0.045000000000000005,22.132512218963893,17.487781036168133
22.199999999999985,50,80,0,0.06,22.18251221896382,17.487781036168133
22.20000000000006,65,80,1,0.045000000000000005,22.182512218963893,17.487781036168133
22.25000000000006,62,80,1,0.045000000000000005,22.232512218963894,17.487781036168133
22.26666666666665,41,80,0,0.06,22.249178885630485,17.487781036168133
22.30000000000006,60,80,1,0.045000000000000005,22.282512218963895,17.487781036168133
22.333333333333318,50,80,0,0.06,22.31584555229715,17.487781036168133
22.350000000000062,65,80,1,0.045000000000000005,22.332512218963895,17.487781036168133
22.399999999999984,43,80,0,0.06,22.382512218963818,17.487781036168133
22.400000000000063,57,80,1,0.045000000000000005,22.382512218963896,17.487781036168133
22.450000000000063,62,80,1,0.045000000000000005,22.432512218963897,17.487781036168133
22.46666666666665,47,80,0,0.06,22.449178885630484,17.487781036168133
22.500000000000064,59,80,1,0.045000000000000005,22.482512218963898,17.487781036168133
22.533333333333317,52,80,0,0.06,22.51584555229715,17.487781036168133
22.550000000000065,62,80,1,0.045000000000000005,22.532512218963898,17.487781036168133
22.599999999999984,48,80,0,0.06,22.582512218963817,17.487781036168133
22.600000000000065,55,80,1,0.045000000000000005,22.5825122189639,17.487781036168133
22.650000000000066,40,80,1,0.045000000000000005,22.6325122189639,17.487781036168133
22.66666666666665,43,80,0,0.06,22.649178885630484,17.487781036168133
22.700000000000067,57,80,1,0.045000000000000005,22.6825122189639,17.487781036168133
22.733333333333317,47,80,0,0.06,22.71584555229715,17.487781036168133
22.750000000000068,71,80,1,0.045000000000000005,22.7325122189639,17.487781036168133
22.799999999999983,47,80,0,0.06,22.782512218963817,17.487781036168133
22.800000000000068,67,80,1,0.045000000000000005,22.7825122189639,17.487781036168133
22.85000000000007,67,80,1,0.045000000000000005,22.832512218963902,17.487781036168133
22.86666666666665,45,80,0,0.06,22.849178885630483,17.487781036168133
22.90000000000007,69,80,1,0.045000000000000005,22.882512218963903,17.487781036168133
22.933333333333316,45,80,0,0.06,22.91584555229715,17.487781036168133
22.95000000000007,60,80,1,0.045000000000000005,22.932512218963904,17.487781036168133
22.999999999999982,60,80,0,0.06,22.982512218963816,17.487781036168133
23.00000000000007,60,80,1,0.045000000000000005,22.982512218963905,17.487781036168133
23.05000000000007,55,80,1,0.045000000000000005,23.032512218963905,17.487781036168133
23.06666666666665,52,80,0,0.06,23.049178885630482,17.487781036168133
23.100000000000072,57,80,1,0.045000000000000005,23.082512218963906,17.487781036168133
23.133333333333315,45,80,0,0.06,23.11584555229715,17.487781036168133
23.150000000000073,64,80,1,0.045000000000000005,23.132512218963907,17.487781036168133
23.19999999999998,53,80,0,0.06,23.182512218963815,17.487781036168133
23.200000000000074,69,80,1,0.045000000000000005,23.182512218963907,17.487781036168133
23.250000000000075,57,80,1,0.045000000000000005,23.232512218963908,17.487781036168133
23.266666666666648,45,80,0,0.06,23.24917888563048,17.487781036168133
23.300000000000075,55,80,1,0.045000000000000005,23.28251221896391,17.487781036168133
23.333333333333314,57,80,0,0.06,23.315845552297148,17.487781036168133
23.350000000000076,60,80,1,0.045000000000000005,23.33251221896391,17.487781036168133
23.39999999999998,50,80,0,0.06,23.382512218963814,17.487781036168133
23.400000000000077,64,80,1,0.045000000000000005,23.38251221896391,17.487781036168133
23.450000000000077,48,80,1,0.045000000000000005,23.43251221896391,17.487781036168133
23.466666666666647,47,80,0,0.06,23.44917888563048,17.487781036168133
23.500000000000078,41,80,1,0.045000000000000005,23.48251221896391,17.487781036168133
23.533333333333314,50,80,0,0.06,23.515845552297147,17.487781036168133
23.55000000000008,55,80,1,0.045000000000000005,23.532512218963912,17.487781036168133
23.59999999999998,35,80,0,0.06,23.582512218963814,17.487781036168133
23.60000000000008,50,80,1,0.045000000000000005,23.582512218963913,17.487781036168133
23.65000000000008,55,80,1,0.045000000000000005,23.632512218963914,17.487781036168133
23.666666666666647,38,80,0,0.06,23.64917888563048,17.487781036168133
23.70000000000008,57,80,1,0.045000000000000005,23.682512218963915,17.487781036168133
23.733333333333313,38,80,0,0.06,23.715845552297147,17.487781036168133
23.75000000000008,55,80,1,0.045000000000000005,23.732512218963915,17.487781036168133
23.79999999999998,48,80,0,0.06,23.782512218963813,17.487781036168133
23.800000000000082,71,80,1,0.045000000000000005,23.782512218963916,17.487781036168133
23.850000000000083,62,80,1,0.045000000000000005,23.832512218963917,17.487781036168133
23.866666666666646,60,80,0,0.06,23.84917888563048,17.487781036168133
23.900000000000084,62,80,1,0.045000000000000005,23.882512218963917,17.487781036168133
23.933333333333312,65,80,0,0.06,23.915845552297146,17.487781036168133
23.950000000000085,64,80,1,0.045000000000000005,23.932512218963918,17.487781036168133
23.99999999999998,53,80,0,0.06,23.982512218963812,17.487781036168133
24.000000000000085,50,80,1,0.045000000000000005,23.98251221896392,17.487781036168133
24.050000000000086,67,80,1,0.045000000000000005,24.03251221896392,17.487781036168133
24.066666666666645,52,80,0,0.06,24.04917888563048,17.487781036168133
24.100000000000087,59,80,1,0.045000000000000005,24.08251221896392,17.487781036168133
24.13333333333331,33,80,0,0.06,24.115845552297145,17.487781036168133
24.150000000000087,65,80,1,0.045000000000000005,24.13251221896392,17.487781036168133
24.199999999999978,43,80,0,0.06,24.18251221896381,17.487781036168133
24.200000000000088,50,80,1,0.045000000000000005,24.18251221896392,17.487781036168133
24.25000000000009,47,80,1,0.045000000000000005,24.232512218963922,17.487781036168133
24.266666666666644,41,80,0,0.06,24.249178885630478,17.487781036168133
24.30000000000009,65,80,1,0.045000000000000005,24.282512218963923,17.487781036168133
24.33333333333331,43,80,0,0.06,24.315845552297144,17.487781036168133
24.35000000000009,62,80,1,0.045000000000000005,24.332512218963924,17.487781036168133
24.399999999999977,45,80,0,0.06,24.38251221896381,17.487781036168133
24.40000000000009,52,80,1,0.045000000000000005,24.382512218963925,17.487781036168133
24.45000000000009,53,80,1,0.045000000000000005,24.432512218963925,17.487781036168133
24.466666666666644,43,80,0,0.06,24.449178885630477,17.487781036168133
24.500000000000092,69,80,1,0.045000000000000005,24.482512218963926,17.487781036168133
24.53333333333331,31,80,0,0.06,24.515845552297144,17.487781036168133
24.550000000000093,50,80,1,0.045000000000000005,24.532512218963927,17.487781036168133
24.599999999999977,53,80,0,0.06,24.58251221896381,17.487781036168133
24.600000000000094,72,80,1,0.045000000000000005,24.582512218963927,17.487781036168133
24.650000000000095,52,80,1,0.045000000000000005,24.632512218963928,17.487781036168133
24.666666666666643,38,80,0,0.06,24.649178885630477,17.487781036168133
24.700000000000095,65,80,1,0.045000000000000005,24.68251221896393,17.487781036168133
24.73333333333331,48,80,0,0.06,24.715845552297143,17.487781036168133
24.750000000000096,57,80,1,0.045000000000000005,24.73251221896393,17.487781036168133
24.799999999999976,64,80,0,0.06,24.78251221896381,17.487781036168133
24.800000000000097,64,80,1,0.045000000000000005,24.78251221896393,17.487781036168133
24.850000000000097,55,80,1,0.045000000000000005,24.83251221896393,17.487781036168133
24.866666666666642,40,80,0,0.06,24.849178885630476,17.487781036168133
24.900000000000098,57,80,1,0.045000000000000005,24.88251221896393,17.487781036168133
24.93333333333331,26,80,0,0.06,24.915845552297142,17.487781036168133
24.9500000000001,60,80,1,0.045000000000000005,24.932512218963932,17.487781036168133
24.999999999999975,45,80,0,0.06,24.98251221896381,17.487781036168133
25.0000000000001,50,80,1,0.045000000000000005,24.982512218963933,17.487781036168133
25.0500000000001,65,80,1,0.045000000000000005,25.032512218963934,17.487781036168133
25.06666666666664,55,80,0,0.06,25.049178885630475,17.487781036168133
25.1000000000001,55,80,1,0.045000000000000005,25.082512218963934,17.487781036168133
25.133333333333308,62,80,0,0.06,25.11584555229714,17.487781036168133
25.1500000000001,57,80,1,0.045000000000000005,25.132512218963935,17.487781036168133
25.199999999999974,38,80,0,0.06,25.182512218963808,17.487781036168133
25.200000000000102,52,80,1,0.045000000000000005,25.182512218963936,17.487781036168133
25.250000000000103,38,80,1,0.045000000000000005,25.232512218963937,17.487781036168133
25.26666666666664,50,80,0,0.06,25.249178885630474,17.487781036168133
25.300000000000104,57,80,1,0.045000000000000005,25.282512218963937,17.487781036168133
25.333333333333307,43,80,0,0.06,25.31584555229714,17.487781036168133
25.350000000000104,79,80,1,0.045000000000000005,25.332512218963938,17.487781036168133
25.399999999999974,47,80,0,0.06,25.382512218963807,17.487781036168133
25.400000000000105,65,80,1,0.045000000000000005,25.38251221896394,17.487781036168133
25.450000000000106,59,80,1,0.045000000000000005,25.43251221896394,17.487781036168133
25.46666666666664,69,80,0,0.06,25.449178885630474,17.487781036168133
25.500000000000107,57,80,1,0.045000000000000005,25.48251221896394,17.487781036168133
25.533333333333307,35,80,0,0.06,25.51584555229714,17.487781036168133
25.550000000000107,60,80,1,0.045000000000000005,25.53251221896394,17.487781036168133
25.599999999999973,50,80,0,0.06,25.582512218963807,17.487781036168133
25.600000000000108,64,80,1,0.045000000000000005,25.58251221896394,17.487781036168133
25.65000000000011,50,80,1,0.045000000000000005,25.632512218963942,17.487781036168133
25.66666666666664,50,80,0,0.06,25.649178885630473,17.487781036168133
25.70000000000011,67,80,1,0.045000000000000005,25.682512218963943,17.487781036168133
25.733333333333306,55,80,0,0.06,25.71584555229714,17.487781036168133
25.75000000000011,65,80,1,0.045000000000000005,25.732512218963944,17.487781036168133
25.799999999999972,48,80,0,0.06,25.782512218963806,17.487781036168133
25.80000000000011,65,80,1,0.045000000000000005,25.782512218963944,17.487781036168133
25.85000000000011,62,80,1,0.045000000000000005,25.832512218963945,17.487781036168133
25.86666666666664,50,80,0,0.06,25.849178885630472,17.487781036168133
25.900000000000112,60,80,1,0.045000000000000005,25.882512218963946,17.487781036168133
25.933333333333305,43,80,0,0.06,25.91584555229714,17.487781036168133
25.950000000000113,65,80,1,0.045000000000000005,25.932512218963947,17.487781036168133
25.99999999999997,50,80,0,0.06,25.982512218963805,17.487781036168133
26.000000000000114,64,80,1,0.045000000000000005,25.982512218963947,17.487781036168133
26.050000000000114,57,80,1,0.045000000000000005,26.032512218963948,17.487781036168133
26.066666666666638,45,80,0,0.06,26.04917888563047,17.487781036168133
26.100000000000115,55,80,1,0.045000000000000005,26.08251221896395,17.487781036168133
26.133333333333304,52,80,0,0.06,26.115845552297138,17.487781036168133
26.150000000000116,60,80,1,0.045000000000000005,26.13251221896395,17.487781036168133
26.19999999999997,45,80,0,0.06,26.182512218963804,17.487781036168133
26.200000000000117,72,80,1,0.045000000000000005,26.18251221896395,17.487781036168133
26.250000000000117,50,80,1,0.045000000000000005,26.23251221896395,17.487781036168133
26.266666666666637,50,80,0,0.06,26.24917888563047,17.487781036168133
26.300000000000118,48,80,1,0.045000000000000005,26.28251221896395,17.487781036168133
26.333333333333304,47,80,0,0.06,26.315845552297137,17.487781036168133
26.35000000000012,60,80,1,0.045000000000000005,26.332512218963952,17.487781036168133
26.39999999999997,57,80,0,0.06,26.382512218963804,17.487781036168133
26.40000000000012,60,80,1,0.045000000000000005,26.382512218963953,17.487781036168133
26.45000000000012,60,80,1,0.045000000000000005,26.432512218963954,17.487781036168133
26.466666666666637,47,80,0,0.06,26.44917888563047,17.487781036168133
26.50000000000012,60,80,1,0.045000000000000005,26.482512218963954,17.487781036168133
26.533333333333303,33,80,0,0.06,26.515845552297137,17.487781036168133
26.55000000000012,57,80,1,0.045000000000000005,26.532512218963955,17.487781036168133
26.59999999999997,57,80,0,0.06,26.582512218963803,17.487781036168133
26.600000000000122,71,80,1,0.045000000000000005,26.582512218963956,17.487781036168133
26.650000000000123,47,80,1,0.045000000000000005,26.632512218963956,17.487781036168133
26.666666666666636,40,80,0,0.06,26.64917888563047,17.487781036168133
26.700000000000124,53,80,1,0.045000000000000005,26.682512218963957,17.487781036168133
26.733333333333302,41,80,0,0.06,26.715845552297136,17.487781036168133
26.750000000000124,59,80,1,0.045000000000000005,26.732512218963958,17.487781036168133
26.79999999999997,43,80,0,0.06,26.782512218963802,17.487781036168133
26.800000000000125,45,80,1,0.045000000000000005,26.78251221896396,17.487781036168133
26.850000000000126,57,80,1,0.045000000000000005,26.83251221896396,17.487781036168133
26.866666666666635,57,80,0,0.06,26.84917888563047,17.487781036168133
26.900000000000126,72,80,1,0.045000000000000005,26.88251221896396,17.487781036168133
26.9333333333333,29,80,0,0.06,26.915845552297135,17.487781036168133
26.950000000000127,60,80,1,0.045000000000000005,26.93251221896396,17.487781036168133
26.999999999999968,72,80,0,0.06,26.9825122189638,17.487781036168133
27.000000000000128,60,80,1,0.045000000000000005,26.98251221896396,17.487781036168133
27.05000000000013,48,80,1,0.045000000000000005,27.032512218963962,17.487781036168133
27.066666666666634,55,80,0,0.06,27.049178885630468,17.487781036168133
27.10000000000013,55,80,1,0.045000000000000005,27.082512218963963,17.487781036168133
27.1333333333333,48,80,0,0.06,27.115845552297134,17.487781036168133
27.15000000000013,55,80,1,0.045000000000000005,27.132512218963964,17.487781036168133
27.199999999999967,47,80,0,0.06,27.1825122189638,17.487781036168133
27.20000000000013,57,80,1,0.045000000000000005,27.182512218963964,17.487781036168133
27.25000000000013,69,80,1,0.045000000000000005,27.232512218963965,17.487781036168133
27.266666666666634,50,80,0,0.06,27.249178885630467,17.487781036168133
27.300000000000132,64,80,1,0.045000000000000005,27.282512218963966,17.487781036168133
27.3333333333333,52,80,0,0.06,27.315845552297134,17.487781036168133
27.350000000000133,50,80,1,0.045000000000000005,27.332512218963966,17.487781036168133
27.399999999999967,53,80,0,0.06,27.3825122189638,17.487781036168133
27.400000000000134,60,80,1,0.045000000000000005,27.382512218963967,17.487781036168133
27.450000000000134,62,80,1,0.045000000000000005,27.432512218963968,17.487781036168133
27.466666666666633,52,80,0,0.06,27.449178885630467,17.487781036168133
27.500000000000135,69,80,1,0.045000000000000005,27.48251221896397,17.487781036168133
27.5333333333333,48,80,0,0.06,27.515845552297133,17.487781036168133
27.550000000000136,72,80,1,0.045000000000000005,27.53251221896397,17.487781036168133
27.599999999999966,45,80,0,0.06,27.5825122189638,17.487781036168133
27.600000000000136,50,80,1,0.045000000000000005,27.58251221896397,17.487781036168133
27.650000000000137,53,80,1,0.045000000000000005,27.63251221896397,17.487781036168133
27.666666666666632,45,80,0,0.06,27.649178885630466,17.487781036168133
27.700000000000138,48,80,1,0.045000000000000005,27.68251221896397,17.487781036168133
27.7333333333333,45,80,0,0.06,27.715845552297132,17.487781036168133
27.75000000000014,57,80,1,0.045000000000000005,27.732512218963972,17.487781036168133
27.799999999999965,57,80,0,0.06,27.7825122189638,17.487781036168133
27.80000000000014,62,80,1,0.045000000000000005,27.782512218963973,17.487781036168133
27.85000000000014,67,80,1,0.045000000000000005,27.832512218963974,17.487781036168133
27.86666666666663,52,80,0,0.06,27.849178885630465,17.487781036168133
27.90000000000014,59,80,1,0.045000000000000005,27.882512218963974,17.487781036168133
27.933333333333298,24,80,0,0.06,27.91584555229713,17.487781036168133
27.95000000000014,57,80,1,0.045000000000000005,27.932512218963975,17.487781036168133
27.999999999999964,53,80,0,0.06,27.982512218963798,17.487781036168133
28.0,48,80,0,0.06,27.982512218963834,17.487781036168133
28.0,72,80,1,0.045000000000000005,27.982512218963834,17.487781036168133
28.05,59,80,1,0.045000000000000005,28.032512218963834,17.487781036168133
28.066666666666666,41,80,0,0.06,28.0491788856305,17.487781036168133
28.1,65,80,1,0.045000000000000005,28.082512218963835,17.487781036168133
28.133333333333333,64,80,0,0.06,28.115845552297166,17.487781036168133
28.150000000000002,50,80,1,0.045000000000000005,28.132512218963836,17.487781036168133
28.2,35,80,0,0.06,28.182512218963833,17.487781036168133
28.200000000000003,55,80,1,0.045000000000000005,28.182512218963836,17.487781036168133
28.250000000000004,65,80,1,0.045000000000000005,28.232512218963837,17.487781036168133
28.266666666666666,48,80,0,0.06,28.2491788856305,17.487781036168133
28.300000000000004,65,80,1,0.045000000000000005,28.282512218963838,17.487781036168133
28.333333333333332,64,80,0,0.06,28.315845552297166,17.487781036168133
28.350000000000005,57,80,1,0.045000000000000005,28.33251221896384,17.487781036168133
28.4,48,80,0,0.06,28.382512218963832,17.487781036168133
28.400000000000006,59,80,1,0.045000000000000005,28.38251221896384,17.487781036168133
28.450000000000006,47,80,1,0.045000000000000005,28.43251221896384,17.487781036168133
28.466666666666665,45,80,0,0.06,28.4491788856305,17.487781036168133
28.500000000000007,57,80,1,0.045000000000000005,28.48251221896384,17.487781036168133
28.53333333333333,45,80,0,0.06,28.515845552297165,17.487781036168133
28.550000000000008,67,80,1,0.045000000000000005,28.53251221896384,17.487781036168133
28.599999999999998,45,80,0,0.06,28.58251221896383,17.487781036168133
28.60000000000001,64,80,1,0.045000000000000005,28.582512218963842,17.487781036168133
28.65000000000001,64,80,1,0.045000000000000005,28.632512218963843,17.487781036168133
28.666666666666664,57,80,0,0.06,28.649178885630498,17.487781036168133
28.70000000000001,60,80,1,0.045000000000000005,28.682512218963844,17.487781036168133
28.73333333333333,29,80,0,0.06,28.715845552297164,17.487781036168133
28.75000000000001,60,80,1,0.045000000000000005,28.732512218963844,17.487781036168133
28.799999999999997,60,80,0,0.06,28.78251221896383,17.487781036168133
28.80000000000001,53,80,1,0.045000000000000005,28.782512218963845,17.487781036168133
28.850000000000012,65,80,1,0.045000000000000005,28.832512218963846,17.487781036168133
28.866666666666664,36,80,0,0.06,28.849178885630497,17.487781036168133
28.900000000000013,62,80,1,0.045000000000000005,28.882512218963846,17.487781036168133
28.93333333333333,45,80,0,0.06,28.915845552297164,17.487781036168133
28.950000000000014,62,80,1,0.045000000000000005,28.932512218963847,17.487781036168133
28.999999999999996,43,80,0,0.06,28.98251221896383,17.487781036168133
29.000000000000014,55,80,1,0.045000000000000005,28.982512218963848,17.487781036168133
29.050000000000015,41,80,1,0.045000000000000005,29.03251221896385,17.487781036168133
29.066666666666663,52,80,0,0.06,29.049178885630496,17.487781036168133
29.100000000000016,67,80,1,0.045000000000000005,29.08251221896385,17.487781036168133
29.13333333333333,35,80,0,0.06,29.115845552297163,17.487781036168133
29.150000000000016,55,80,1,0.045000000000000005,29.13251221896385,17.487781036168133
29.199999999999996,50,80,0,0.06,29.18251221896383,17.487781036168133
29.200000000000017,53,80,1,0.045000000000000005,29.18251221896385,17.487781036168133
29.250000000000018,65,80,1,0.045000000000000005,29.23251221896385,17.487781036168133
29.266666666666662,64,80,0,0.06,29.249178885630496,17.487781036168133
29.30000000000002,55,80,1,0.045000000000000005,29.282512218963852,17.487781036168133
29.33333333333333,36,80,0,0.06,29.315845552297162,17.487781036168133
29.35000000000002,67,80,1,0.045000000000000005,29.332512218963853,17.487781036168133
29.399999999999995,48,80,0,0.06,29.38251221896383,17.487781036168133
29.40000000000002,64,80,1,0.045000000000000005,29.382512218963853,17.487781036168133
29.45000000000002,65,80,1,0.045000000000000005,29.432512218963854,17.487781036168133
29.46666666666666,41,80,0,0.06,29.449178885630495,17.487781036168133
29.50000000000002,48,80,1,0.045000000000000005,29.482512218963855,17.487781036168133
29.533333333333328,50,80,0,0.06,29.51584555229716,17.487781036168133
29.550000000000022,69,80,1,0.045000000000000005,29.532512218963856,17.487781036168133
29.599999999999994,48,80,0,0.06,29.582512218963828,17.487781036168133
29.600000000000023,62,80,1,0.045000000000000005,29.582512218963856,17.487781036168133
29.650000000000023,57,80,1,0.045000000000000005,29.632512218963857,17.487781036168133
29.66666666666666,41,80,0,0.06,29.649178885630494,17.487781036168133
29.700000000000024,60,80,1,0.045000000000000005,29.682512218963858,17.487781036168133
29.733333333333327,50,80,0,0.06,29.71584555229716,17.487781036168133
29.750000000000025,45,80,1,0.045000000000000005,29.73251221896386,17.487781036168133
29.799999999999994,62,80,0,0.06,29.782512218963827,17.487781036168133
29.800000000000026,62,80,1,0.045000000000000005,29.78251221896386,17.487781036168133
29.850000000000026,50,80,1,0.045000000000000005,29.83251221896386,17.487781036168133
29.86666666666666,45,80,0,0.06,29.849178885630494,17.487781036168133
29.900000000000027,48,80,1,0.045000000000000005,29.88251221896386,17.487781036168133
29.933333333333326,53,80,0,0.06,29.91584555229716,17.487781036168133
29.950000000000028,47,80,1,0.045000000000000005,29.93251221896386,17.487781036168133
29.999999999999993,36,80,0,0.06,29.982512218963826,17.487781036168133
30.00000000000003,67,80,1,0.045000000000000005,29.982512218963862,17.487781036168133
30.05000000000003,53,80,1,0.045000000000000005,30.032512218963863,17.487781036168133
30.06666666666666,40,80,0,0.06,30.049178885630493,17.487781036168133
30.10000000000003,72,80,1,0.045000000000000005,30.082512218963863,17.487781036168133
30.133333333333326,50,80,0,0.06,30.11584555229716,17.487781036168133
30.15000000000003,55,80,1,0.045000000000000005,30.132512218963864,17.487781036168133
30.199999999999992,59,80,0,0.06,30.182512218963826,17.487781036168133
30.20000000000003,45,80,1,0.045000000000000005,30.182512218963865,17.487781036168133
30.250000000000032,50,80,1,0.045000000000000005,30.232512218963866,17.487781036168133
30.26666666666666,50,80,0,0.06,30.249178885630492,17.487781036168133
30.300000000000033,69,80,1,0.045000000000000005,30.282512218963866,17.487781036168133
30.333333333333325,45,80,0,0.06,30.31584555229716,17.487781036168133
30.350000000000033,57,80,1,0.045000000000000005,30.332512218963867,17.487781036168133
30.39999999999999,47,80,0,0.06,30.382512218963825,17.487781036168133
30.400000000000034,55,80,1,0.045000000000000005,30.382512218963868,17.487781036168133
30.450000000000035,60,80,1,0.045000000000000005,30.43251221896387,17.487781036168133
30.466666666666658,36,80,0,0.06,30.44917888563049,17.487781036168133
30.500000000000036,64,80,1,0.045000000000000005,30.48251221896387,17.487781036168133
30.533333333333324,52,80,0,0.06,30.515845552297158,17.487781036168133
30.550000000000036,67,80,1,0.045000000000000005,30.53251221896387,17.487781036168133
30.59999999999999,55,80,0,0.06,30.582512218963824,17.487781036168133
30.600000000000037,71,80,1,0.045000000000000005,30.58251221896387,17.487781036168133
30.650000000000038,57,80,1,0.045000000000000005,30.63251221896387,17.487781036168133
30.666666666666657,43,80,0,0.06,30.64917888563049,17.487781036168133
30.70000000000004,48,80,1,0.045000000000000005,30.682512218963872,17.487781036168133
30.733333333333324,43,80,0,0.06,30.715845552297157,17.487781036168133
30.75000000000004,55,80,1,0.045000000000000005,30.732512218963873,17.487781036168133
30.79999999999999,50,80,0,0.06,30.782512218963824,17.487781036168133
30.80000000000004,62,80,1,0.045000000000000005,30.782512218963873,17.487781036168133
30.85000000000004,52,80,1,0.045000000000000005,30.832512218963874,17.487781036168133
30.866666666666656,43,80,0,0.06,30.84917888563049,17.487781036168133
30.90000000000004,52,80,1,0.045000000000000005,30.882512218963875,17.487781036168133
30.933333333333323,47,80,0,0.06,30.915845552297156,17.487781036168133
30.950000000000042,62,80,1,0.045000000000000005,30.932512218963875,17.487781036168133
30.99999999999999,64,80,0,0.06,30.982512218963823,17.487781036168133
31.000000000000043,59,80,1,0.045000000000000005,30.982512218963876,17.487781036168133
31.050000000000043,60,80,1,0.045000000000000005,31.032512218963877,17.487781036168133
31.066666666666656,45,80,0,0.06,31.04917888563049,17.487781036168133
31.100000000000044,53,80,1,0.045000000000000005,31.082512218963878,17.487781036168133
31.133333333333322,45,80,0,0.06,31.115845552297156,17.487781036168133
31.150000000000045,57,80,1,0.045000000000000005,31.13251221896388,17.487781036168133
31.19999999999999,41,80,0,0.06,31.182512218963822,17.487781036168133
31.200000000000045,52,80,1,0.045000000000000005,31.18251221896388,17.487781036168133
31.250000000000046,67,80,1,0.045000000000000005,31.23251221896388,17.487781036168133
31.266666666666655,53,80,0,0.06,31.24917888563049,17.487781036168133
31.300000000000047,67,80,1,0.045000000000000005,31.28251221896388,17.487781036168133
31.33333333333332,45,80,0,0.06,31.315845552297155,17.487781036168133
31.350000000000048,45,80,1,0.045000000000000005,31.33251221896388,17.487781036168133
31.399999999999988,41,80,0,0.06,31.38251221896382,17.487781036168133
31.40000000000005,52,80,1,0.045000000000000005,31.382512218963882,17.487781036168133
31.45000000000005,48,80,1,0.045000000000000005,31.432512218963883,17.487781036168133
31.466666666666654,57,80,0,0.06,31.449178885630488,17.487781036168133
31.50000000000005,53,80,1,0.045000000000000005,31.482512218963883,17.487781036168133
31.53333333333332,59,80,0,0.06,31.515845552297154,17.487781036168133
31.55000000000005,59,80,1,0.045000000000000005,31.532512218963884,17.487781036168133
31.599999999999987,43,80,0,0.06,31.58251221896382,17.487781036168133
31.60000000000005,48,80,1,0.045000000000000005,31.582512218963885,17.487781036168133
31.650000000000052,52,80,1,0.045000000000000005,31.632512218963885,17.487781036168133
31.666666666666654,33,80,0,0.06,31.649178885630487,17.487781036168133
31.700000000000053,50,80,1,0.045000000000000005,31.682512218963886,17.487781036168133
31.73333333333332,55,80,0,0.06,31.715845552297154,17.487781036168133
31.750000000000053,60,80,1,0.045000000000000005,31.732512218963887,17.487781036168133
31.799999999999986,41,80,0,0.06,31.78251221896382,17.487781036168133
31.800000000000054,60,80,1,0.045000000000000005,31.782512218963888,17.487781036168133
31.850000000000055,53,80,1,0.045000000000000005,31.83251221896389,17.487781036168133
31.866666666666653,53,80,0,0.06,31.849178885630486,17.487781036168133
31.900000000000055,60,80,1,0.045000000000000005,31.88251221896389,17.487781036168133
31.93333333333332,31,80,0,0.06,31.915845552297153,17.487781036168133
31.950000000000056,55,80,1,0.045000000000000005,31.93251221896389,17.487781036168133
31.999999999999986,55,80,0,0.06,31.98251221896382,17.487781036168133
32.00000000000006,57,80,1,0.045000000000000005,31.98251221896389,17.487781036168133
32.050000000000054,72,80,1,0.045000000000000005,32.03251221896389,17.487781036168133
32.066666666666656,38,80,0,0.06,32.04917888563049,17.487781036168133
32.10000000000005,69,80,1,0.045000000000000005,32.082512218963885,17.487781036168133
32.133333333333326,53,80,0,0.06,32.11584555229716,17.487781036168133
32.15000000000005,48,80,1,0.045000000000000005,32.13251221896388,17.487781036168133
32.199999999999996,48,80,0,0.06,32.18251221896383,17.487781036168133
32.200000000000045,65,80,1,0.045000000000000005,32.18251221896388,17.487781036168133
32.25000000000004,65,80,1,0.045000000000000005,32.232512218963876,17.487781036168133
32.266666666666666,40,80,0,0.06,32.2491788856305,17.487781036168133
32.30000000000004,50,80,1,0.045000000000000005,32.28251221896387,17.487781036168133
32.333333333333336,43,80,0,0.06,32.31584555229717,17.487781036168133
32.35000000000004,65,80,1,0.045000000000000005,32.33251221896387,17.487781036168133
32.400000000000006,53,80,0,0.06,32.38251221896384,17.487781036168133
32.400000000000034,72,80,1,0.045000000000000005,32.38251221896387,17.487781036168133
32.45000000000003,50,80,1,0.045000000000000005,32.432512218963865,17.487781036168133
32.466666666666676,48,80,0,0.06,32.44917888563051,17.487781036168133
32.50000000000003,52,80,1,0.045000000000000005,32.48251221896386,17.487781036168133
32.533333333333346,52,80,0,0.06,32.51584555229718,17.487781036168133
32.550000000000026,67,80,1,0.045000000000000005,32.53251221896386,17.487781036168133
32.600000000000016,62,80,0,0.06,32.58251221896385,17.487781036168133
32.60000000000002,62,80,1,0.045000000000000005,32.582512218963856,17.487781036168133
32.65000000000002,64,80,1,0.045000000000000005,32.63251221896385,17.487781036168133
32.666666666666686,35,80,0,0.06,32.64917888563052,17.487781036168133
32.70000000000002,62,80,1,0.045000000000000005,32.68251221896385,17.487781036168133
32.733333333333356,60,80,0,0.06,32.71584555229719,17.487781036168133
32.750000000000014,62,80,1,0.045000000000000005,32.73251221896385,17.487781036168133
32.80000000000001,48,80,1,0.045000000000000005,32.782512218963845,17.487781036168133
32.800000000000026,48,80,0,0.06,32.78251221896386,17.487781036168133
32.85000000000001,67,80,1,0.045000000000000005,32.83251221896384,17.487781036168133
32.866666666666696,40,80,0,0.06,32.84917888563053,17.487781036168133
32.900000000000006,69,80,1,0.045000000000000005,32.88251221896384,17.487781036168133
32.933333333333366,36,80,0,0.06,32.9158455522972,17.487781036168133
32.95,57,80,1,0.045000000000000005,32.932512218963836,17.487781036168133
33.0,59,80,1,0.045000000000000005,32.982512218963834,17.487781036168133
33.000000000000036,45,80,0,0.06,32.98251221896387,17.487781036168133
33.05,47,80,1,0.045000000000000005,33.03251221896383,17.487781036168133
33.066666666666706,55,80,0,0.06,33.04917888563054,17.487781036168133
33.099999999999994,64,80,1,0.045000000000000005,33.08251221896383,17.487781036168133
33.133333333333375,45,80,0,0.06,33.11584555229721,17.487781036168133
33.14999999999999,64,80,1,0.045000000000000005,33.132512218963825,17.487781036168133
33.19999999999999,59,80,1,0.045000000000000005,33.18251221896382,17.487781036168133
33.200000000000045,60,80,0,0.06,33.18251221896388,17.487781036168133
33.249999999999986,67,80,1,0.045000000000000005,33.23251221896382,17.487781036168133
33.266666666666715,36,80,0,0.06,33.24917888563055,17.487781036168133
33.29999999999998,57,80,1,0.045000000000000005,33.28251221896382,17.487781036168133
33.333333333333385,47,80,0,0.06,33.31584555229722,17.487781036168133
33.34999999999998,64,80,1,0.045000000000000005,33.332512218963814,17.487781036168133
33.39999999999998,50,80,1,0.045000000000000005,33.38251221896381,17.487781036168133
33.400000000000055,36,80,0,0.06,33.38251221896389,17.487781036168133
33.449999999999974,59,80,1,0.045000000000000005,33.43251221896381,17.487781036168133
33.466666666666725,50,80,0,0.06,33.44917888563056,17.487781036168133
33.49999999999997,57,80,1,0.045000000000000005,33.482512218963805,17.487781036168133
33.533333333333395,55,80,0,0.06,33.51584555229723,17.487781036168133
33.54999999999997,60,80,1,0.045000000000000005,33.5325122189638,17.487781036168133
33.599999999999966,57,80,1,0.045000000000000005,33.5825122189638,17.487781036168133
33.600000000000065,43,80,0,0.06,33.5825122189639,17.487781036168133
33.64999999999996,57,80,1,0.045000000000000005,33.6325122189638,17.487781036168133
33.666666666666735,26,80,0,0.06,33.64917888563057,17.487781036168133
33.69999999999996,65,80,1,0.045000000000000005,33.682512218963794,17.487781036168133
33.733333333333405,48,80,0,0.06,33.71584555229724,17.487781036168133
33.74999999999996,55,80,1,0.045000000000000005,33.73251221896379,17.487781036168133
33.799999999999955,47,80,1,0.045000000000000005,33.78251221896379,17.487781036168133
33.800000000000075,50,80,0,0.06,33.78251221896391,17.487781036168133
33.84999999999995,72,80,1,0.045000000000000005,33.832512218963785,17.487781036168133
33.866666666666745,50,80,0,0.06,33.84917888563058,17.487781036168133
33.89999999999995,71,80,1,0.045000000000000005,33.88251221896378,17.487781036168133
33.933333333333415,57,80,0,0.06,33.91584555229725,17.487781036168133
33.949999999999946,48,80,1,0.045000000000000005,33.93251221896378,17.487781036168133
33.99999999999994,65,80,1,0.045000000000000005,33.98251221896378,17.487781036168133
34.000000000000085,38,80,0,0.06,33.98251221896392,17.487781036168133
34.04999999999994,55,80,1,0.045000000000000005,34.032512218963774,17.487781036168133
34.066666666666755,53,80,0,0.06,34.04917888563059,17.487781036168133
34.09999999999994,62,80,1,0.045000000000000005,34.08251221896377,17.487781036168133
34.133333333333425,57,80,0,0.06,34.11584555229726,17.487781036168133
34.149999999999935,62,80,1,0.045000000000000005,34.13251221896377,17.487781036168133
34.19999999999993,57,80,1,0.045000000000000005,34.182512218963765,17.487781036168133
34.200000000000095,33,80,0,0.06,34.18251221896393,17.487781036168133
34.24999999999993,53,80,1,0.045000000000000005,34.23251221896376,17.487781036168133
34.266666666666765,50,80,0,0.06,34.2491788856306,17.487781036168133
34.299999999999926,53,80,1,0.045000000000000005,34.28251221896376,17.487781036168133
34.333333333333435,43,80,0,0.06,34.31584555229727,17.487781036168133
34.34999999999992,52,80,1,0.045000000000000005,34.33251221896376,17.487781036168133
34.39999999999992,53,80,1,0.045000000000000005,34.382512218963754,17.487781036168133
34.400000000000105,47,80,0,0.06,34.38251221896394,17.487781036168133
34.44999999999992,59,80,1,0.045000000000000005,34.43251221896375,17.487781036168133
34.466666666666775,50,80,0,0.06,34.44917888563061,17.487781036168133
34.499999999999915,53,80,1,0.045000000000000005,34.48251221896375,17.487781036168133
34.533333333333445,43,80,0,0.06,34.51584555229728,17.487781036168133
34.54999999999991,65,80,1,0.045000000000000005,34.532512218963745,17.487781036168133
34.59999999999991,71,80,1,0.045000000000000005,34.58251221896374,17.487781036168133
34.600000000000115,41,80,0,0.06,34.58251221896395,17.487781036168133
34.649999999999906,55,80,1,0.045000000000000005,34.63251221896374,17.487781036168133
34.666666666666785,48,80,0,0.06,34.64917888563062,17.487781036168133
34.6999999999999,60,80,1,0.045000000000000005,34.68251221896374,17.487781036168133
34.733333333333455,38,80,0,0.06,34.71584555229729,17.487781036168133
34.7499999999999,62,80,1,0.045000000000000005,34.732512218963734,17.487781036168133
34.7999999999999,62,80,1,0.045000000000000005,34.78251221896373,17.487781036168133
34.800000000000125,38,80,0,0.06,34.78251221896396,17.487781036168133
34.849999999999895,60,80,1,0.045000000000000005,34.83251221896373,17.487781036168133
34.866666666666795,53,80,0,0.06,34.84917888563063,17.487781036168133
34.89999999999989,65,80,1,0.045000000000000005,34.882512218963726,17.487781036168133
34.933333333333465,38,80,0,0.06,34.9158455522973,17.487781036168133
34.94999999999989,62,80,1,0.045000000000000005,34.93251221896372,17.487781036168133
34.999999999999886,50,80,1,0.045000000000000005,34.98251221896372,17.487781036168133
35.000000000000135,53,80,0,0.06,34.98251221896397,17.487781036168133
35.04999999999988,65,80,1,0.045000000000000005,35.03251221896372,17.487781036168133
35.066666666666805,50,80,0,0.06,35.04917888563064,17.487781036168133
35.09999999999988,67,80,1,0.045000000000000005,35.082512218963714,17.487781036168133
35.133333333333475,33,80,0,0.06,35.11584555229731,17.487781036168133
35.14999999999988,53,80,1,0.045000000000000005,35.13251221896371,17.487781036168133
35.199999999999875,60,80,1,0.045000000000000005,35.18251221896371,17.487781036168133
35.200000000000145,41,80,0,0.06,35.18251221896398,17.487781036168133
35.24999999999987,65,80,1,0.045000000000000005,35.232512218963706,17.487781036168133
35.266666666666815,57,80,0,0.06,35.24917888563065,17.487781036168133
35.29999999999987,57,80,1,0.045000000000000005,35.2825122189637,17.487781036168133
35.333333333333485,40,80,0,0.06,35.31584555229732,17.487781036168133
35.349999999999866,67,80,1,0.045000000000000005,35.3325122189637,17.487781036168133
35.399999999999864,77,80,1,0.045000000000000005,35.3825122189637,17.487781036168133
35.400000000000155,43,80,0,0.06,35.38251221896399,17.487781036168133
35.44999999999986,53,80,1,0.045000000000000005,35.432512218963694,17.487781036168133
35.466666666666825,50,80,0,0.06,35.44917888563066,17.487781036168133
35.49999999999986,48,80,1,0.045000000000000005,35.48251221896369,17.487781036168133
35.533333333333495,53,80,0,0.06,35.51584555229733,17.487781036168133
35.549999999999855,62,80,1,0.045000000000000005,35.53251221896369,17.487781036168133
35.59999999999985,65,80,1,0.045000000000000005,35.582512218963686,17.487781036168133
35.600000000000165,45,80,0,0.06,35.582512218964,17.487781036168133
35.64999999999985,57,80,1,0.045000000000000005,35.63251221896368,17.487781036168133
35.666666666666835,43,80,0,0.06,35.64917888563067,17.487781036168133
35.69999999999985,71,80,1,0.045000000000000005,35.68251221896368,17.487781036168133
35.733333333333505,59,80,0,0.06,35.71584555229734,17.487781036168133
35.749999999999844,48,80,1,0.045000000000000005,35.73251221896368,17.487781036168133
35.79999999999984,65,80,1,0.045000000000000005,35.782512218963674,17.487781036168133
35.800000000000175,60,80,0,0.06,35.78251221896401,17.487781036168133
35.84999999999984,55,80,1,0.045000000000000005,35.83251221896367,17.487781036168133
35.866666666666845,55,80,0,0.06,35.84917888563068,17.487781036168133
35.899999999999835,72,80,1,0.045000000000000005,35.88251221896367,17.487781036168133
35.933333333333515,48,80,0,0.06,35.91584555229735,17.487781036168133
35.94999999999983,74,80,1,0.045000000000000005,35.932512218963666,17.487781036168133
35.99999999999983,53,80,1,0.045000000000000005,35.98251221896366,17.487781036168133
36.000000000000185,41,80,0,0.06,35.98251221896402,17.487781036168133
36.04999999999983,55,80,1,0.045000000000000005,36.03251221896366,17.487781036168133
36.066666666666855,41,80,0,0.06,36.04917888563069,17.487781036168133
36.099999999999824,65,80,1,0.045000000000000005,36.08251221896366,17.487781036168133
36.133333333333525,52,80,0,0.06,36.11584555229736,17.487781036168133
36.14999999999982,55,80,1,0.045000000000000005,36.132512218963655,17.487781036168133
36.19999999999982,59,80,1,0.045000000000000005,36.18251221896365,17.487781036168133
36.200000000000195,50,80,0,0.06,36.18251221896403,17.487781036168133
36.249999999999815,60,80,1,0.045000000000000005,36.23251221896365,17.487781036168133
36.266666666666865,59,80,0,0.06,36.2491788856307,17.487781036168133
36.29999999999981,43,80,1,0.045000000000000005,36.282512218963646,17.487781036168133
36.333333333333535,53,80,0,0.06,36.31584555229737,17.487781036168133
36.34999999999981,59,80,1,0.045000000000000005,36.33251221896364,17.487781036168133
36.39999999999981,53,80,1,0.045000000000000005,36.38251221896364,17.487781036168133
36.400000000000205,35,80,0,0.06,36.38251221896404,17.487781036168133
36.449999999999804,55,80,1,0.045000000000000005,36.43251221896364,17.487781036168133
36.466666666666875,55,80,0,0.06,36.44917888563071,17.487781036168133
36.4999999999998,71,80,1,0.045000000000000005,36.482512218963635,17.487781036168133
36.533333333333545,40,80,0,0.06,36.51584555229738,17.487781036168133
36.5499999999998,48,80,1,0.045000000000000005,36.53251221896363,17.487781036168133
36.599999999999795,65,80,1,0.045000000000000005,36.58251221896363,17.487781036168133
36.600000000000215,43,80,0,0.06,36.58251221896405,17.487781036168133
36.64999999999979,57,80,1,0.045000000000000005,36.632512218963626,17.487781036168133
36.666666666666885,50,80,0,0.06,36.64917888563072,17.487781036168133
36.69999999999979,57,80,1,0.045000000000000005,36.68251221896362,17.487781036168133
36.733333333333555,62,80,0,0.06,36.71584555229739,17.487781036168133
36.74999999999979,65,80,1,0.045000000000000005,36.73251221896362,17.487781036168133
36.799999999999784,62,80,1,0.045000000000000005,36.78251221896362,17.487781036168133
36.800000000000225,72,80,0,0.06,36.78251221896406,17.487781036168133
36.84999999999978,64,80,1,0.045000000000000005,36.832512218963615,17.487781036168133
36.866666666666895,52,80,0,0.06,36.84917888563073,17.487781036168133
36.89999999999978,67,80,1,0.045000000000000005,36.88251221896361,17.487781036168133
36.933333333333564,45,80,0,0.06,36.9158455522974,17.487781036168133
36.949999999999775,57,80,1,0.045000000000000005,36.93251221896361,17.487781036168133
36.99999999999977,55,80,1,0.045000000000000005,36.982512218963606,17.487781036168133
37.000000000000234,52,80,0,0.06,36.98251221896407,17.487781036168133
37.04999999999977,50,80,1,0.045000000000000005,37.0325122189636,17.487781036168133
37.066666666666904,55,80,0,0.06,37.04917888563074,17.487781036168133
37.09999999999977,53,80,1,0.045000000000000005,37.0825122189636,17.487781036168133
37.133333333333574,45,80,0,0.06,37.11584555229741,17.487781036168133
37.149999999999764,83,80,1,0.045000000000000005,37.1325122189636,17.487781036168133
37.19999999999976,69,80,1,0.045000000000000005,37.182512218963595,17.487781036168133
37.200000000000244,62,80,0,0.06,37.18251221896408,17.487781036168133
37.24999999999976,48,80,1,0.045000000000000005,37.23251221896359,17.487781036168133
37.266666666666914,48,80,0,0.06,37.24917888563075,17.487781036168133
37.299999999999756,48,80,1,0.045000000000000005,37.28251221896359,17.487781036168133
37.333333333333584,50,80,0,0.06,37.31584555229742,17.487781036168133
37.34999999999975,62,80,1,0.045000000000000005,37.332512218963586,17.487781036168133
37.39999999999975,64,80,1,0.045000000000000005,37.38251221896358,17.487781036168133
37.400000000000254,53,80,0,0.06,37.38251221896409,17.487781036168133
37.44999999999975,64,80,1,0.045000000000000005,37.43251221896358,17.487781036168133
37.466666666666924,50,80,0,0.06,37.44917888563076,17.487781036168133
37.499999999999744,57,80,1,0.045000000000000005,37.48251221896358,17.487781036168133
37.533333333333594,53,80,0,0.06,37.51584555229743,17.487781036168133
37.54999999999974,57,80,1,0.045000000000000005,37.532512218963575,17.487781036168133
37.59999999999974,62,80,1,0.045000000000000005,37.58251221896357,17.487781036168133
37.600000000000264,43,80,0,0.06,37.5825122189641,17.487781036168133
37.649999999999736,60,80,1,0.045000000000000005,37.63251221896357,17.487781036168133
37.666666666666934,43,80,0,0.06,37.64917888563077,17.487781036168133
37.69999999999973,41,80,1,0.045000000000000005,37.682512218963566,17.487781036168133
37.733333333333604,38,80,0,0.06,37.71584555229744,17.487781036168133
37.74999999999973,57,80,1,0.045000000000000005,37.732512218963564,17.487781036168133
37.79999999999973,53,80,1,0.045000000000000005,37.78251221896356,17.487781036168133
37.800000000000274,50,80,0,0.06,37.78251221896411,17.487781036168133
37.849999999999724,60,80,1,0.045000000000000005,37.83251221896356,17.487781036168133
37.866666666666944,53,80,0,0.06,37.84917888563078,17.487781036168133
37.89999999999972,83,80,1,0.045000000000000005,37.882512218963555,17.487781036168133
37.933333333333614,50,80,0,0.06,37.91584555229745,17.487781036168133
37.94999999999972,62,80,1,0.045000000000000005,37.93251221896355,17.487781036168133
38.0,55,64,1,0.04147353545830865,37.98000977517106,19.990224828934508
37.999999999999716,57,80,1,0.045000000000000005,37.98251221896355,17.487781036168133
38.0,62,96,0,0.03050783023107753,37.9850146627566,14.985337243401759
38.03389758914564,62,88,0,0.015617065875428084,38.017661030005854,16.236559139784944
38.04608170606479,69,65,1,0.010115744718305099,38.0262478839729,19.83382209188661
38.05124988456278,45,93,0,0.009000000000000001,38.03579533910823,15.454545454545453
38.06124988456278,68,57,0,0.009000000000000001,38.040164840574505,21.085043988269796
38.05732142241846,67,101,1,0.021304873087573804,38.0431180988603,14.203323558162268
38.071249884562775,61,60,0,0.009000000000000001,38.050634048785646,20.6158357771261
38.08124988456277,86,51,0,0.009000000000000001,38.059226424152214,22.023460410557185
38.08099350362688,74,59,1,0.009657153375274617,38.0602212651127,20.772238514174
38.09172367404385,81,66,1,0.025568299814820818,38.072046254689006,19.67741935483871
38.09124988456277,55,72,0,0.009000000000000001,38.07251088163022,18.73900293255132
38.10124988456277,66,63,0,0.009000000000000001,38.081103256996784,20.146627565982406
38.11124988456277,38,53,0,0.01977358502751744,38.089539229626304,21.71065493646139
38.12013289606032,42,112,1,0.009000000000000001,38.10765000260968,12.482893450635387
38.13322053459334,68,64,0,0.013391756595631146,38.113230309764404,19.990224828934508
38.13013289606032,69,86,1,0.009000000000000001,38.11358353144644,16.549364613880744
38.140132896060315,76,68,1,0.038387544689534356,38.120768282179576,19.364613880742915
38.14810026414404,61,84,0,0.009000000000000001,38.131238094056066,16.86217008797654
38.15810026414404,66,76,0,0.014511670386605328,38.13998687215968,18.113391984359726
38.17422434235138,76,60,0,0.021019449429535042,38.15360850657425,20.6158357771261
38.18278572349313,40,76,1,0.012037675605105562,38.164672331508775,18.113391984359726
38.197579286161975,75,75,0,0.018721063173863267,38.17930949144057,18.269794721407624
38.19616091860992,86,85,1,0.009000000000000001,38.17945515125899,16.705767350928642
38.20616091860992,73,84,1,0.03629285884173357,38.18929874852194,16.86217008797654
38.21838046746627,68,57,0,0.0551956316381987,38.197295423477996,21.085043988269796
38.246486317322955,68,51,1,0.028865654386639485,38.224462856912396,22.023460410557185
38.279708947064265,93,57,0,0.025123114686583865,38.25862390307599,21.085043988269796
38.278559266641444,69,65,1,0.03256771743359099,38.258725444549555,19.83382209188661
38.30762351893825,66,62,0,0.01110488168795572,38.28732048863522,20.303030303030305
38.31474561934544,49,56,1,0.03831082272223079,38.29350417262012,21.241446725317694
38.31996227636931,47,105,0,0.01342842650086549,38.30638456375934,13.577712609970675
38.33488275025916,21,51,0,0.009000000000000001,38.3128592898486,22.023460410557185
38.34488275025916,63,54,0,0.04249445313030995,38.323328498059745,21.55425219941349
38.357313200147914,53,92,1,0.009000000000000001,38.34170225195632,15.610948191593351
38.36731320014791,73,87,1,0.017220839040382827,38.35092023827108,16.392961876832846
38.38644746574834,34,67,1,0.021905639106798814,38.36692644913055,19.521016617790814
38.39209880929284,90,93,0,0.017359353393323153,38.376644263838294,15.454545454545453
38.41138697972986,74,50,0,0.009000000000000001,38.389207116582256,22.179863147605083
38.410787064755894,87,64,1,0.027941482350454357,38.390796839926956,19.990224828934508
38.42138697972986,78,101,0,0.03470419960171376,38.407183656171696,14.203323558162268
38.4418331562564,69,96,1,0.022505635939972537,38.426847819013,14.985337243401759
38.45994720150954,61,80,0,0.05004690668463387,38.44245942047338,17.487781036168133
38.46683941841192,40,53,1,0.009000000000000001,38.44512876347546,21.71065493646139
38.47683941841192,76,52,1,0.009000000000000001,38.45497236073841,21.867057673509287
38.48683941841192,64,71,1,0.02529345699648401,38.46794401274232,18.89540566959922
38.51555487560358,56,61,0,0.010959510595598687,38.495095442563496,20.459433040078203
38.51494325951912,56,79,1,0.01243073284462966,38.49729907574591,17.64418377321603
38.528755184902046,68,55,1,0.009000000000000001,38.50735733543968,21.397849462365592
38.52773210959869,81,105,0,0.05213274418368332,38.514154396988715,13.577712609970675
38.538755184902044,61,76,1,0.009000000000000001,38.52064179291769,18.113391984359726
38.54875518490204,55,60,1,0.015166484932315582,38.52813934912491,20.6158357771261
38.56560683482684,63,53,1,0.009000000000000001,38.543896179890375,21.71065493646139
38.575606834826836,61,86,1,0.04220785510903314,38.559057470212956,16.549364613880744
38.585657380913894,57,100,0,0.016954371252121705,38.57129765461868,14.359726295210166
38.60449557119403,49,62,0,0.0626530848344937,38.584192540890996,20.303030303030305
38.62250445161465,48,55,1,0.015844899285285614,38.601106602152285,21.397849462365592
38.64010989526497,60,71,1,0.017537294994611465,38.621214489595374,18.89540566959922
38.65959577859232,43,94,1,0.047579829112423,38.64429763587482,15.298142717497555
38.67411010989902,55,83,0,0.009000000000000001,38.657091537073995,17.01857282502444
38.68411010989902,74,54,0,0.0929901092542887,38.6625558576996,21.55425219941349
38.7124622553839,55,82,1,0.009000000000000001,38.69528727982183,17.174975562072337
38.722462255383896,61,92,1,0.022848683126837493,38.7068513071923,15.610948191593351
38.74784968108038,62,109,1,0.021732073538288044,38.7348975794186,12.952101661779082
38.77199642945626,69,89,1,0.009000000000000001,38.75591627305352,16.080156402737046
38.78199642945626,42,51,1,0.01718415254375873,38.7599729690457,22.023460410557185
38.787432453514896,57,100,0,0.02821575443358824,38.773072727219684,14.359726295210166
38.80108993228266,77,84,1,0.02491142900899002,38.78422776219468,16.86217008797654
38.81878329177444,50,112,0,0.01534218797554704,38.8063003983238,12.482893450635387
38.828769297848204,41,58,1,0.009000000000000001,38.80784065659698,20.928641251221897
38.835830167302824,43,71,0,0.02210881083005809,38.81693476163323,18.89540566959922
38.8387692978482,48,75,1,0.009000000000000001,38.8204995031268,18.269794721407624
38.8487692978482,64,98,1,0.02492277576163187,38.83409676607889,14.672531769305962
38.860395512669555,49,54,0,0.012583745152931416,38.83884126047014,21.55425219941349
38.87646127091668,40,50,1,0.009000000000000001,38.85428140776907,22.179863147605083
38.87437745172837,86,91,0,0.012456714977209477,38.85861010079973,15.76735092864125
38.888218246147495,55,50,0,0.03330792973998,38.86603838299989,22.179863147605083
38.886461270916676,48,103,1,0.014837827518889832,38.87257075283261,13.890518084066471
38.90294774593767,69,55,1,0.06035619276671308,38.8815498964753,21.397849462365592
38.925227056969696,56,50,0,0.009000000000000001,38.90304719382209,22.179863147605083
38.935227056969694,91,98,0,0.04406852237826794,38.92055452520039,14.672531769305962
38.97001018234513,101,73,1,0.015197252399613741,38.95142758214963,18.58260019550342
38.9868960183447,39,55,1,0.017837354547942323,38.965498168882334,21.397849462365592
38.984192081834436,80,96,0,0.02146502379138034,38.969206744591034,14.985337243401759
39.006715301175745,51,56,1,0.009000000000000001,38.985473854450426,21.241446725317694
39.0080421082693,66,82,0,0.04386317583200214,38.99086713270723,17.174975562072337
39.01671530117574,59,83,1,0.009000000000000001,38.99969672835072,17.01857282502444
39.02671530117574,64,112,1,0.039490613144502314,39.0142324077251,12.482893450635387
39.05677897030486,76,96,0,0.009000000000000001,39.04179363306146,14.985337243401759
39.06677897030486,82,62,0,0.009000000000000001,39.04647594000183,20.303030303030305
39.07059376022519,51,69,1,0.01668601023770862,39.051385549081495,19.208211143695017
39.07677897030486,65,97,0,0.05969712809289939,39.0619500357985,14.82893450635386
39.089133771600416,75,92,1,0.009838849387374535,39.07352282340882,15.610948191593351
39.10006582647527,48,89,1,0.02188515683281117,39.083985670072536,16.080156402737046
39.12438266740062,54,86,1,0.009000000000000001,39.10783330278674,16.549364613880744
39.134382667400615,75,104,1,0.022572018125835237,39.120648552053595,13.734115347018573
39.1431091126303,63,90,0,0.024548512481382113,39.12718535896461,15.923753665689148
39.15946268754043,72,95,1,0.013231919159805759,39.14432094755998,15.141739980449657
39.170385237609615,87,59,0,0.059383211675390644,39.14961299909544,20.772238514174
39.174164819940216,53,88,1,0.01843148302510077,39.15792826080043,16.236559139784944
39.19464424552366,33,62,1,0.036214417282762396,39.17434121522063,20.303030303030305
39.234882486948955,98,83,1,0.009000000000000001,39.21786391412393,17.01857282502444
39.236366583915604,76,94,0,0.01734221625705062,39.221068441198106,15.298142717497555
39.24488248694895,50,53,1,0.009000000000000001,39.22317183201249,21.71065493646139
39.25488248694895,77,64,1,0.009000000000000001,39.23489226212001,19.990224828934508
39.25563571309011,50,65,0,0.009000000000000001,39.23580189099822,19.83382209188661
39.265635713090106,44,76,0,0.009000000000000001,39.24752232110575,18.113391984359726
39.26488248694895,94,101,1,0.019387565656114866,39.250679163390785,14.203323558162268
39.275635713090104,39,54,0,0.06437374983275998,39.25408146089069,21.55425219941349
39.28642422656685,89,65,1,0.009000000000000001,39.26659040447496,19.83382209188661
39.29642422656685,59,88,1,0.009000000000000001,39.280187667427064,16.236559139784944
39.30642422656685,65,95,1,0.043570508328995075,39.2912824865864,15.141739980449657
39.347162101793174,60,73,0,0.03216351631105385,39.32857950159767,18.58260019550342
39.354835902487956,79,90,1,0.009000000000000001,39.33891214882227,15.923753665689148
39.364835902487954,68,84,1,0.011983966542866237,39.34797373239998,16.86217008797654
39.38289934213879,76,66,0,0.046575605910283355,39.36322192278395,19.67741935483871
39.37815142086892,46,106,1,0.009000000000000001,39.36473011099599,13.421309872922777
39.388151420868915,54,97,1,0.009000000000000001,39.37332248636256,14.82893450635386
39.39815142086891,57,70,1,0.02312069888024601,39.37909961246227,19.05180840664712
39.42384108629141,81,78,1,0.021496923474402862,39.40604049978115,17.80058651026393
39.43465001537244,68,66,0,0.03182818072146522,39.4149725960176,19.67741935483871
39.44772655681852,51,108,1,0.010147415512513601,39.434618052419694,13.10850439882698
39.45900146294354,63,110,1,0.009000000000000001,39.446205764018806,12.795698924731184
39.46900146294354,45,53,1,0.009060181434381063,39.447290808007075,21.71065493646139
39.47001466061851,38,66,0,0.07554612580247845,39.45033724126367,19.67741935483871
39.47906833120396,41,91,1,0.009000000000000001,39.46330098027532,15.76735092864125
39.48906833120396,60,78,1,0.11639468761434987,39.4712677446937,17.80058651026393
39.55395480039904,76,93,0,0.009000000000000001,39.538500254944495,15.454545454545453
39.56395480039904,37,91,0,0.009000000000000001,39.5481874494704,15.76735092864125
39.57395480039904,69,98,0,0.045550990312820124,39.55928226862973,14.672531769305962
39.61839576188657,46,105,1,0.009000000000000001,39.604818049276595,13.577712609970675
39.62456701185773,45,77,0,0.03862808660141604,39.60661002261042,17.956989247311828
39.628395761886566,56,74,1,0.010230298713547746,39.60996956442811,18.426197458455523
39.639762760457174,89,53,1,0.02057912387096382,39.61805210552071,21.71065493646139
39.667487108081524,81,66,0,0.009000000000000001,39.64780968872668,19.67741935483871
39.66262845364713,48,108,1,0.0320843354953397,39.6495199492483,13.10850439882698
39.67748710808152,55,84,0,0.009000000000000001,39.660624937993546,16.86217008797654
39.68748710808152,67,91,0,0.009000000000000001,39.67171975715288,15.76735092864125
39.69827771530862,96,86,1,0.019975853761337065,39.68172835069474,16.549364613880744
39.69748710808152,70,112,0,0.010533358784672922,39.68500421463088,12.482893450635387
39.70919084006449,55,102,0,0.04712437855644107,39.69514391924337,14.04692082111437
39.72047310837677,51,71,1,0.009799193367760127,39.701577702707176,18.89540566959922
39.731361101007614,43,95,1,0.009000000000000001,39.716219361027164,15.141739980449657
39.74136110100761,54,53,1,0.009000000000000001,39.71965044607115,21.71065493646139
39.75136110100761,74,86,1,0.015345667159758141,39.73481173639373,16.549364613880744
39.76155126068276,49,55,0,0.009000000000000001,39.74015341122039,21.397849462365592
39.771551260682756,61,70,0,0.1837552829370106,39.75249945227611,19.05180840664712
39.76841184229623,63,100,1,0.009000000000000001,39.75405211600102,14.359726295210166
39.77841184229623,61,106,1,0.014836975586075647,39.764990532423305,13.421309872922777
39.7948973707252,48,68,1,0.00963565061857341,39.77553275684446,19.364613880742915
39.80560364919028,56,87,1,0.009000000000000001,39.78921068731345,16.392961876832846
39.81560364919028,42,108,1,0.009000000000000001,39.80249514479145,13.10850439882698
39.82560364919028,78,55,1,0.02686309272041745,39.80420579972791,21.397849462365592
39.85545152999074,64,89,1,0.01236897790662173,39.839371373588,16.080156402737046
39.869194838775876,49,108,1,0.033679303481810946,39.856086334377046,13.10850439882698
39.906616287089,73,104,1,0.009000000000000001,39.89288217174198,13.734115347018573
39.916616287089,68,52,1,0.06755474223712991,39.89474922941549,21.867057673509287
39.975723797279436,65,112,0,0.03723451922598602,39.9632409038288,12.482893450635387
39.991677111796925,47,82,1,0.009925960830855743,39.974502136234854,17.174975562072337
40.002705957164544,62,80,1,0.016591571919840675,39.98521817612838,17.487781036168133
40.01709548530831,64,52,0,0.009000000000000001,39.9952284276348,21.867057673509287
40.02114103707548,67,109,1,0.031673860416057055,40.0081889354137,12.952101661779082
40.02709548530831,78,85,0,0.014300666264467334,40.01038971795738,16.705767350928642
40.04298511449105,51,90,0,0.010127642737169243,40.027061360825364,15.923753665689148
40.054238050865685,80,52,0,0.009000000000000001,40.032370993192174,21.867057673509287
40.056334215315545,51,58,1,0.009000000000000001,40.03540557406432,20.928641251221897
40.06423805086568,69,88,0,0.04899796003870831,40.0480014917259,16.236559139784944
40.06633421531554,72,90,1,0.011064905935748288,40.050410461649854,15.923753665689148
40.07862855524415,61,106,1,0.009155936654014107,40.06520724537123,13.421309872922777
40.088801818193055,51,63,1,0.009225873178697235,40.06865519062707,20.146627565982406
40.09905278839161,64,72,1,0.011157898300426638,40.08031378545906,18.73900293255132
40.11145045316986,78,84,1,0.030706531756634816,40.09458828308188,16.86217008797654
40.11868022868647,74,86,0,0.022375634024004807,40.10213086407259,16.549364613880744
40.145568821788345,78,87,1,0.03337854968061581,40.12917585991151,16.392961876832846
40.1435420442687,64,111,0,0.023483680406563113,40.13090274808101,12.639296187683286
40.16963502249821,86,74,0,0.03816676875923189,40.15120882503976,18.426197458455523
40.18265609921125,68,109,1,0.010207976440457282,40.16970399754947,12.952101661779082
40.1939982952562,39,89,1,0.014871681216970493,40.177918138853464,16.080156402737046
40.21052238549728,67,61,1,0.01618449088212478,40.1900629524572,20.459433040078203
40.2120425433418,52,87,0,0.009000000000000001,40.19564958146497,16.392961876832846
40.2220425433418,56,82,0,0.07110778061113833,40.20486756777973,17.174975562072337
40.228505153144084,81,82,1,0.009000000000000001,40.21133017758201,17.174975562072337
40.23850515314408,68,91,1,0.009000000000000001,40.22273780221544,15.76735092864125
40.24850515314408,41,61,1,0.009000000000000001,40.228045720104,20.459433040078203
40.25850515314408,56,74,1,0.009000000000000001,40.240078955685625,18.426197458455523
40.268505153144076,64,80,1,0.009000000000000001,40.25101737210791,17.487781036168133
40.278505153144074,22,102,1,0.009212528497779517,40.26445823232296,14.04692082111437
40.28874129591939,49,54,1,0.009000000000000001,40.26718704371997,21.55425219941349
40.298741295919385,60,85,1,0.016285396809381413,40.28203552856846,16.705767350928642
40.30105118846529,68,112,0,0.009000000000000001,40.28856829501465,12.482893450635387
40.31683618126314,68,53,1,0.04016949323078879,40.29512552632668,21.71065493646139
40.311051188465285,76,94,0,0.10717761543275642,40.29575304574779,15.298142717497555
40.361468951519576,61,52,1,0.009000000000000001,40.339601893846066,21.867057673509287
40.371468951519574,91,52,1,0.009000000000000001,40.349601893846064,21.867057673509287
40.38146895151957,68,102,1,0.05571454992102456,40.36742203069846,14.04692082111437
40.430137427835014,68,53,0,0.02428193466960349,40.40842677289855,21.71065493646139
40.443374006987376,35,72,1,0.009000000000000001,40.42463500405483,18.73900293255132
40.453374006987374,61,92,1,0.08699957472032328,40.43776305879578,15.610948191593351
40.457117355245686,77,73,0,0.0163765038273422,40.438534755050185,18.58260019550342
40.4753134706094,77,60,0,0.07673442511369179,40.45469763483227,20.6158357771261
40.550040201121064,54,84,1,0.05680886496438394,40.53317803103309,16.86217008797654
40.560573942957944,76,90,0,0.018734390950989777,40.544650189292256,15.923753665689148
40.58138993290349,76,59,0,0.009000000000000001,40.560617694389315,20.772238514174
40.59138993290349,41,94,0,0.027281812162294517,40.57609179018599,15.298142717497555
40.613161162192604,44,50,1,0.009000000000000001,40.590981299045,22.179863147605083
40.6231611621926,43,80,1,0.021191601797219805,40.605673381156436,17.487781036168133
40.62170305752826,65,91,0,0.016396698112770038,40.60593570659962,15.76735092864125
40.63992161098689,67,93,0,0.04903901030491534,40.62446706553234,15.454545454545453
40.646707386411734,86,51,1,0.010250450829798839,40.624683926001175,22.023460410557185
40.65809677622262,61,95,1,0.009000000000000001,40.64295503624217,15.141739980449657
40.66809677622262,67,74,1,0.009000000000000001,40.649670578764166,18.426197458455523
40.67809677622262,69,84,1,0.009000000000000001,40.66123460613464,16.86217008797654
40.688096776222615,75,107,1,0.012305257377216902,40.67483186908674,13.264907135874878
40.694409400214575,79,100,0,0.049170133008452924,40.68004967391936,14.359726295210166
40.70176928441952,46,98,1,0.009000000000000001,40.68709675265021,14.672531769305962
40.71176928441952,40,65,1,0.09345101648280275,40.69193546232763,19.83382209188661
40.74904288133508,45,75,0,0.08753800171072117,40.730773086613674,18.269794721407624
40.81560374717819,52,74,1,0.03959495248727334,40.797177549719734,18.426197458455523
40.84630732768032,105,85,0,0.009000000000000001,40.829601560329394,16.705767350928642
40.85630732768032,62,87,0,0.009000000000000001,40.83991436580349,16.392961876832846
40.86630732768032,71,53,0,0.011836480432473198,40.844596672743855,21.71065493646139
40.85959813883071,68,111,1,0.010062919897850395,40.846958842643026,12.639296187683286
40.870779160939435,51,95,1,0.009000000000000001,40.855637420958985,15.141739980449657
40.879458972605285,47,87,0,0.009000000000000001,40.86306601072845,16.392961876832846
40.88077916093943,76,86,1,0.010400229782862584,40.86422979632555,16.549364613880744
40.892334971809284,65,53,1,0.03412558508800333,40.87062431687282,21.71065493646139
40.88945897260528,57,105,0,0.05746693414224914,40.87588125999531,13.577712609970675
40.93025228857373,64,58,1,0.02248679492242594,40.90932364732251,20.928641251221897
40.955237616265315,26,82,1,0.01026272096561492,40.938062640703244,17.174975562072337
40.95331112165223,66,105,0,0.029052161408954023,40.939733409042255,13.577712609970675
40.966640639560445,76,58,1,0.10810850402310897,40.94571199830922,20.928641251221897
40.98559130099551,54,96,0,0.009000000000000001,40.97060596375211,14.985337243401759
40.99559130099551,64,79,0,0.009115206509080827,40.97794711722229,17.64418377321603
41.00571930822782,61,53,0,0.05075611392587417,40.984008653291355,21.71065493646139
41.062114990367675,65,108,0,0.011026474665417918,41.049006485968846,13.10850439882698
41.0743666288848,64,74,0,0.009000000000000001,41.05594043142635,18.426197458455523
41.08676119958612,44,59,1,0.021484750866464872,41.065988961071945,20.772238514174
41.0843666288848,50,79,0,0.009000000000000001,41.06672244511159,17.64418377321603
41.0943666288848,49,56,0,0.009000000000000001,41.07312518215948,21.241446725317694
41.1043666288848,34,99,0,0.009000000000000001,41.08985049985254,14.516129032258064
41.114366628884795,53,68,0,0.010662353245357244,41.095002015004056,19.364613880742915
41.1106331449933,55,104,1,0.0569186131200971,41.09689902964628,13.734115347018573
41.126213688046306,54,72,0,0.009000000000000001,41.10747468511376,18.73900293255132
41.136213688046304,51,53,0,0.030262683546425986,41.11450303310984,21.71065493646139
41.16983889198678,54,71,0,0.009000000000000001,41.15094348631718,18.89540566959922
41.17387604846007,80,80,1,0.04535481254665931,41.15638826742391,17.487781036168133
41.179838891986776,64,59,0,0.053998843914992045,41.1590666534726,20.772238514174
41.224270284623024,42,72,1,0.010346929218766954,41.205531281690476,18.73900293255132
41.23576687264388,42,79,1,0.017199151029326006,41.218122688870665,17.64418377321603
41.23983760744788,31,85,0,0.009000000000000001,41.223131840096954,16.705767350928642
41.24983760744788,57,58,0,0.043973432770674475,41.228908966196656,20.928641251221897
41.25487704045424,63,85,1,0.015392881708491762,41.23817127310331,16.705767350928642
41.27198024235256,78,85,1,0.009000000000000001,41.255274475001634,16.705767350928642
41.28198024235256,50,93,1,0.009000000000000001,41.266525696898015,15.454545454545453
41.29198024235256,69,88,1,0.015997486567884352,41.275743683212774,16.236559139784944
41.298696977193075,42,88,0,0.023467493921481796,41.28246041805329,16.236559139784944
41.309755227427985,72,58,1,0.012787318238328066,41.28882658617676,20.928641251221897
41.32396335880391,87,82,1,0.009000000000000001,41.30678838324184,17.174975562072337
41.324771970439166,60,80,0,0.009000000000000001,41.307284189403,17.487781036168133
41.333963358803906,37,50,1,0.009000000000000001,41.3117834956563,22.179863147605083
41.334771970439164,31,101,0,0.009000000000000001,41.320568646881,14.203323558162268
41.343963358803904,74,51,1,0.01309042162264944,41.321939898393346,22.023460410557185
41.34477197043916,54,76,0,0.009000000000000001,41.326658578454804,18.113391984359726
41.35477197043916,68,91,0,0.016558710659716595,41.33900461951052,15.76735092864125
41.35850827171796,46,108,1,0.016782947641896116,41.34539976731913,13.10850439882698
41.373170537838845,84,103,0,0.040521722683680775,41.35928001975478,13.890518084066471
41.377155991320066,46,89,1,0.009000000000000001,41.36107583491733,16.080156402737046
41.387155991320064,59,75,1,0.015267586217951703,41.36888619659866,18.269794721407624
41.404119976006676,59,51,1,0.014067703091039925,41.38209651559612,22.023460410557185
41.41975075721894,60,86,1,0.03776519890477496,41.40320139260506,16.549364613880744
41.418194674154044,78,111,0,0.010170796753772929,41.40555537796636,12.639296187683286
41.42949555943601,62,73,0,0.059478692414592076,41.41091295924051,18.58260019550342
41.46171208933536,78,76,1,0.04225566123761706,41.443598697351,18.113391984359726
41.495582995452224,85,80,0,0.009000000000000001,41.47809521441606,17.487781036168133
41.50558299545222,58,102,0,0.017821682046202245,41.49153607463111,14.04692082111437
41.50866282404382,65,107,1,0.026456276167201587,41.49539791690794,13.264907135874878
41.52538486439245,55,70,0,0.012109038744325359,41.506333055985806,19.05180840664712
41.53805868645182,51,62,1,0.016207470380285353,41.517755656148786,20.303030303030305
41.538839351886146,75,97,0,0.01633818129529625,41.52401041737979,14.82893450635386
41.556066986874356,48,69,1,0.009000000000000001,41.536858775730664,19.208211143695017
41.5569928866587,63,86,0,0.009000000000000001,41.54044352204482,16.549364613880744
41.566066986874354,36,88,1,0.015464075663586013,41.54983042773457,16.236559139784944
41.566992886658696,41,90,0,0.018160428833492365,41.55106913299301,15.923753665689148
41.58324929316723,87,55,1,0.009000000000000001,41.56185144370486,21.397849462365592
41.58717114091813,28,91,0,0.009000000000000001,41.57140378998949,15.76735092864125
41.593249293167226,37,67,1,0.009000000000000001,41.57372827654944,19.521016617790814
41.59717114091813,72,85,0,0.009000000000000001,41.5804653735672,16.705767350928642
41.607171140918126,46,61,0,0.009000000000000001,41.586711707878045,20.459433040078203
41.603249293167224,61,100,1,0.009762580071405758,41.58888956687201,14.359726295210166
41.617171140918124,49,67,0,0.04717008432279493,41.59765012430034,19.521016617790814
41.61409660435768,80,99,1,0.009000000000000001,41.59958047532542,14.516129032258064
41.624096604357675,77,51,1,0.05153628489565994,41.602073143947116,22.023460410557185
41.66958234572123,61,58,0,0.0707128088140945,41.64865370447001,20.928641251221897
41.68135914313063,58,85,1,0.009000000000000001,41.6646533757797,16.705767350928642
41.691359143130626,74,92,1,0.02076725454285388,41.67574819493903,15.610948191593351
41.71443387040046,69,53,1,0.05125096203140174,41.692723215464,21.71065493646139
41.74815213329245,66,99,0,0.01267058915338045,41.73363600426019,14.516129032258064
41.762230565685094,61,102,0,0.012363362433414045,41.74818364486398,14.04692082111437
41.77596763505555,47,60,0,0.04291041157808103,41.75535179927842,20.6158357771261
41.77137938376869,54,106,1,0.009000000000000001,41.757958073895765,13.421309872922777
41.78137938376869,52,103,1,0.009000000000000001,41.76748886568462,13.890518084066471
41.791379383768685,54,92,1,0.013235709621766777,41.77576843557709,15.610948191593351
41.80608572779287,71,69,1,0.009000000000000001,41.78687751664918,19.208211143695017
41.81608572779287,71,63,1,0.010095604822158153,41.79593910022688,20.146627565982406
41.827303066484156,68,68,1,0.07165861433496033,41.807938452603416,19.364613880742915
41.82364587014231,49,104,0,0.030161039402874824,41.80991175479529,13.734115347018573
41.8571581361455,49,66,0,0.009000000000000001,41.83748071679066,19.67741935483871
41.8671581361455,64,89,0,0.009000000000000001,41.85107797974276,16.080156402737046
41.877158136145496,65,59,0,0.037458665522634535,41.85638589763132,20.772238514174
41.90692374907856,62,97,1,0.02907235479475175,41.892094814572204,14.82893450635386
41.91877887561509,49,80,0,0.016553335333277578,41.90129109457892,17.487781036168133
41.937171470429845,56,52,0,0.06844546655206003,41.915304412756335,21.867057673509287
41.93922636551717,58,58,1,0.022462327994075923,41.91829772426595,20.928641251221897
41.96418450773281,66,95,1,0.02126557875093359,41.94904276775236,15.141739980449657
41.98781292856718,60,69,1,0.01633899861860407,41.96860471742349,19.208211143695017
42.00596737147674,38,90,1,0.010647239241964796,41.990043617811054,15.923753665689148
42.01779763730115,52,66,1,0.02610498501512045,41.99812021794631,19.67741935483871
42.01322198882102,50,106,0,0.009302851441904191,41.9998006789481,13.421309872922777
42.02355849042314,49,79,0,0.01704352317995712,42.00591430664993,17.64418377321603
42.04249573840087,59,76,0,0.03859697916640435,42.024382346416516,18.113391984359726
42.046803176206836,38,98,1,0.009000000000000001,42.03213064443753,14.672531769305962
42.056803176206834,80,106,1,0.045814343140266924,42.04338186633391,13.421309872922777
42.08538127080799,41,112,0,0.024532122511104475,42.072898377357355,12.482893450635387
42.10770800191824,49,61,1,0.035732550987900936,42.08724856887816,20.459433040078203
42.11263918470922,77,60,0,0.039616633533764885,42.09202334893209,20.6158357771261
42.147410836349245,37,53,1,0.05976182133426758,42.12570018141278,21.71065493646139
42.1566576664134,54,62,0,0.009000000000000001,42.13635463611037,20.303030303030305
42.1666576664134,96,106,0,0.011235758624972326,42.153236356540475,13.421309872922777
42.17914184266337,63,81,0,0.01925240379911292,42.16181046436425,17.331378299120235
42.200533402440165,60,77,0,0.009000000000000001,42.182576413192855,17.956989247311828
42.21053340244016,52,60,0,0.04934174421342996,42.189917566663034,20.6158357771261
42.213812860053984,42,56,1,0.01271271064926811,42.192571413328665,21.241446725317694
42.22793809410873,74,104,1,0.009000000000000001,42.21420397876171,13.734115347018573
42.23793809410873,51,103,1,0.009000000000000001,42.22404757602466,13.890518084066471
42.247938094108726,51,93,1,0.03716286402550403,42.23248354865418,15.454545454545453
42.26535756267731,36,53,0,0.009000000000000001,42.243646907740846,21.71065493646139
42.27535756267731,55,56,0,0.03481716074697231,42.25411611595199,21.241446725317694
42.28923016524818,66,92,1,0.05538287478050176,42.273619217056584,15.610948191593351
42.31404329684061,47,73,0,0.02530733820929819,42.29546069664511,18.58260019550342
42.342162561517604,51,74,0,0.04365071230992737,42.32373636405915,18.426197458455523
42.35076669278207,93,81,1,0.009000000000000001,42.33343531448295,17.331378299120235
42.360766692782065,60,69,1,0.009000000000000001,42.34155848163837,19.208211143695017
42.37076669278206,58,91,1,0.03095730525816981,42.35499934185342,15.76735092864125
42.39066335297308,64,64,0,0.03751319807798282,42.37067312814414,19.990224828934508
42.40516369862447,65,100,1,0.02660686304109229,42.39080397232926,14.359726295210166
42.43472687978124,72,58,1,0.05563654997383753,42.41379823853001,20.928641251221897
42.432344684170836,53,85,0,0.030545662071178516,42.41563891681991,16.705767350928642
42.46628430869437,50,51,0,0.07147212532096894,42.44426084828381,22.023460410557185
42.49654526864106,53,96,1,0.02330963513528776,42.481559931397655,14.985337243401759
42.52244486323582,68,60,1,0.021618590784594546,42.50182902745869,20.6158357771261
42.545697781273226,57,82,0,0.04734845420071748,42.528522805711155,17.174975562072337
42.546465519663144,54,94,1,0.009000000000000001,42.531167376945646,15.298142717497555
42.55646551966314,54,60,1,0.012319296287302876,42.53584968388601,20.6158357771261
42.57015362664903,75,84,1,0.03456754947317502,42.553291456561055,16.86217008797654
42.59830717482958,49,51,0,0.040303983787699726,42.57628371441902,22.023460410557185
42.60856201495256,61,87,1,0.009000000000000001,42.59216905307573,16.392961876832846
42.61856201495256,87,101,1,0.011795941236705708,42.604358691394395,14.203323558162268
42.63166861632668,51,102,1,0.03378094662282052,42.61762169550556,14.04692082111437
42.64308937903813,41,91,0,0.08793623778786713,42.62732202810949,15.76735092864125
42.669203001463146,64,93,1,0.02122515251812219,42.6537484560086,15.454545454545453
42.69278650426106,65,57,1,0.009000000000000001,42.671701460272786,21.085043988269796
42.702786504261056,69,105,1,0.010001736819359376,42.68920879165108,13.577712609970675
42.71389954517146,61,89,1,0.009000000000000001,42.69781938876872,16.080156402737046
42.723899545171456,62,65,1,0.009000000000000001,42.704065723079566,19.83382209188661
42.733899545171454,74,74,1,0.0543797267125059,42.715473347713,18.426197458455523
42.74079630991354,70,92,0,0.07306546586584418,42.72518536172195,15.610948191593351
42.79432146374091,49,50,1,0.009000000000000001,42.7721416005933,22.179863147605083
42.804321463740905,59,72,1,0.015002916533458432,42.78558246080836,18.73900293255132
42.820991371000304,63,82,1,0.009000000000000001,42.80381639543823,17.174975562072337
42.82198016087559,38,103,0,0.01031577053755045,42.80808964279152,13.890518084066471
42.8309913710003,60,81,1,0.011092508029977783,42.81365999270118,17.331378299120235
42.83344212813954,64,67,0,0.07939389109990073,42.81392111152175,19.521016617790814
42.8433163799225,75,111,1,0.009000000000000001,42.83067708373481,12.639296187683286
42.8533163799225,63,87,1,0.009000000000000001,42.836923418045664,16.392961876832846
42.863316379922495,51,76,1,0.010240741831066973,42.84520298793814,18.113391984359726
42.87469498195701,67,90,1,0.029352139850180113,42.858771228291324,15.923753665689148
42.90730847067944,52,78,1,0.01036598563558213,42.88950788416918,17.80058651026393
42.918826232496755,61,70,1,0.009000000000000001,42.89977442409011,19.05180840664712
42.92165756269498,68,110,0,0.009000000000000001,42.90886186377025,12.795698924731184
42.93165756269498,74,88,0,0.009000000000000001,42.915421003555196,16.236559139784944
42.92882623249675,84,112,1,0.017306113452138117,42.916343339046115,12.482893450635387
42.94165756269498,75,69,0,0.12463509056628522,42.922449351551286,19.208211143695017
42.94805524744358,56,53,1,0.01090898491584748,42.926344592507114,21.71065493646139
42.960176341794515,69,76,1,0.009000000000000001,42.94206294981016,18.113391984359726
42.97017634179451,67,60,1,0.009000000000000001,42.949560506017384,20.6158357771261
42.98017634179451,70,54,1,0.009000000000000001,42.958622089595096,21.55425219941349
42.99017634179451,58,57,1,0.02458003915212223,42.96909129780624,21.085043988269796
43.01748749640798,71,71,1,0.013712652584144542,42.998592090738384,18.89540566959922
43.03272377705703,81,56,1,0.009000000000000001,43.01148233033171,21.241446725317694
43.04272377705703,72,112,1,0.009000000000000001,43.03024088360639,12.482893450635387
43.052723777057025,58,100,1,0.009000000000000001,43.038364050761814,14.359726295210166
43.06272377705702,53,77,1,0.009000000000000001,43.04476678780971,17.956989247311828
43.07272377705702,77,104,1,0.021492442739549256,43.05898966171,13.734115347018573
43.08014099665752,58,66,0,0.01121776598485892,43.06046357730268,19.67741935483871
43.09260518108514,48,102,0,0.011357820582463752,43.078558260264025,14.04692082111437
43.09660426898986,60,98,1,0.009000000000000001,43.08193173722055,14.672531769305962
43.10522498173232,52,108,0,0.07400294955857653,43.09211647733349,13.10850439882698
43.106604268989855,59,111,1,0.011790108055803104,43.09396497280217,12.639296187683286
43.11970438905186,64,65,1,0.026819149076280947,43.09987056695997,19.83382209188661
43.14950344358106,64,71,1,0.01475889788264996,43.130608037911465,18.89540566959922
43.16590221900623,51,75,1,0.009000000000000001,43.14763242428482,18.269794721407624
43.175902219006225,52,101,1,0.009000000000000001,43.16169889544806,14.203323558162268
43.18745048124185,42,55,0,0.009000000000000001,43.16605263177948,21.397849462365592
43.18590221900622,75,69,1,0.009000000000000001,43.16669400786253,19.208211143695017
43.19590221900622,63,68,1,0.009000000000000001,43.17653760512548,19.364613880742915
43.197450481241844,43,110,0,0.009000000000000001,43.18465478231711,12.795698924731184
43.20590221900622,40,73,1,0.010314303519569306,43.18731961881072,18.58260019550342
43.20745048124184,64,81,0,0.01598079199732439,43.190119102942724,17.331378299120235
43.21736255625019,59,70,1,0.039839171309061186,43.19831074784354,19.05180840664712
43.22520691679443,91,96,0,0.009000000000000001,43.210221579551025,14.985337243401759
43.235206916794425,54,86,0,0.03785096621609833,43.218657552180545,16.549364613880744
43.26162830214914,73,109,1,0.009000000000000001,43.24867620048736,12.952101661779082
43.27162830214914,44,70,1,0.009000000000000001,43.252576493742495,19.05180840664712
43.277263545923425,68,53,0,0.06337336816147698,43.25555289098696,21.71065493646139
43.28162830214914,44,98,1,0.009000000000000001,43.26695577037983,14.672531769305962
43.291628302149135,46,54,1,0.009000000000000001,43.27007404994972,21.55425219941349
43.30162830214913,64,61,1,0.045851577460827665,43.28116886910905,20.459433040078203
43.34767839943618,70,63,0,0.009000000000000001,43.32753177187019,20.146627565982406
43.35257449932783,47,109,1,0.0328717926436089,43.33962239766605,12.952101661779082
43.357678399436175,34,105,0,0.029409135695927943,43.3441006868262,13.577712609970675
43.389098713376285,61,103,1,0.009000000000000001,43.37520819529222,13.890518084066471
43.390355216876095,36,106,0,0.060997584762834164,43.37693390700317,13.421309872922777
43.39909871337628,83,108,1,0.009000000000000001,43.385990208977454,13.10850439882698
43.40909871337628,61,101,1,0.045803709402618895,43.39489538981812,14.203323558162268
43.45813031105702,43,61,0,0.010170898272563834,43.43767087801694,20.459433040078203
43.459991723823634,50,68,1,0.041829673373088884,43.440627109942895,19.364613880742915
43.46943130913765,73,71,0,0.009000000000000001,43.45053590346805,18.89540566959922
43.479431309137645,63,67,0,0.015175203380657696,43.45991029251986,19.521016617790814
43.49629264622727,85,68,0,0.018329989220348224,43.47692803234653,19.364613880742915
43.506469138682625,46,74,1,0.009036099119014103,43.48804294122417,18.426197458455523
43.516659300916544,41,57,0,0.02447666858971393,43.49557425692827,21.085043988269796
43.51650924881486,67,60,1,0.015015403856620788,43.495893413037734,20.6158357771261
43.533193030877776,46,81,1,0.009000000000000001,43.51586165257866,17.331378299120235
43.543193030877774,71,59,1,0.030390406731760355,43.5224207923636,20.772238514174
43.54385559934956,56,106,0,0.021362173079563916,43.53043428947664,13.421309872922777
43.567591347215746,72,108,0,0.011381309727828533,43.55448284281692,13.10850439882698
43.57696014946862,79,55,1,0.015120069957952271,43.55556230000625,21.397849462365592
43.580237246913335,78,85,0,0.04644711261421163,43.56353147956241,16.705767350928642
43.593760227199674,52,67,1,0.009045579153979582,43.57423921058189,19.521016617790814
43.603810870704095,58,109,1,0.059483254376451716,43.59085876904231,12.952101661779082
43.63184514981801,56,70,0,0.028893071301405154,43.61279334141137,19.05180840664712
43.66990337556682,68,58,1,0.009000000000000001,43.648974734315594,20.928641251221897
43.66394856237513,72,101,0,0.009000000000000001,43.64974523881697,14.203323558162268
43.67394856237513,62,78,0,0.04358754385368799,43.65614797586487,17.80058651026393
43.679903375566816,57,56,1,0.027528091092898,43.6586619288415,21.241446725317694
43.710490143447814,79,71,1,0.0759277648885864,43.69159473777822,18.89540566959922
43.72237916665701,46,111,0,0.009000000000000001,43.70973987046932,12.639296187683286
43.732379166657005,62,96,0,0.009000000000000001,43.7173938294136,14.985337243401759
43.742379166657,49,91,0,0.009000000000000001,43.72661181572836,15.76735092864125
43.752379166657,33,108,0,0.02051759279308454,43.73927066225817,13.10850439882698
43.77517649198265,68,111,0,0.04611125017094452,43.76253719579496,12.639296187683286
43.79485432665735,51,62,1,0.018862240298922167,43.77455129635432,20.303030303030305
43.81581237143393,64,100,1,0.009000000000000001,43.80145264513872,14.359726295210166
43.825812371433926,72,70,1,0.009000000000000001,43.80676056302728,19.05180840664712
43.82641121439481,59,71,0,0.009000000000000001,43.80751580872521,18.89540566959922
43.83641121439481,66,53,0,0.009000000000000001,43.814700559458345,21.71065493646139
43.835812371433924,38,59,1,0.009000000000000001,43.81504013291975,20.772238514174
43.846411214394806,37,88,0,0.031797685132858,43.83017465525502,16.236559139784944
43.84581237143392,79,100,1,0.017325830393630698,43.83145264513871,14.359726295210166
43.86506329409351,55,64,1,0.009192105390026304,43.84507306926457,19.990224828934508
43.87527674452687,54,90,1,0.009000000000000001,43.85935299086118,15.923753665689148
43.88174197565354,56,86,0,0.009000000000000001,43.86519261103966,16.549364613880744
43.88527674452687,45,101,1,0.017538896650529892,43.871073420968706,14.203323558162268
43.89174197565354,66,79,0,0.012016391402312525,43.874097791880324,17.64418377321603
43.905093521656106,66,72,0,0.011665184732455048,43.88635451872356,18.73900293255132
43.9047644074719,81,79,1,0.009000000000000001,43.88712022369869,17.64418377321603
43.9180548380255,43,55,0,0.04423752047785822,43.89665698856313,21.397849462365592
43.9147644074719,55,92,1,0.030817021234713395,43.899153459280306,15.610948191593351
43.94900554217714,72,93,1,0.009000000000000001,43.933550996722595,15.454545454545453
43.95900554217714,62,65,1,0.009000000000000001,43.93917172008525,19.83382209188661
43.969005542177136,51,55,1,0.009337380713804756,43.94760769271477,21.397849462365592
43.96720763855645,50,80,0,0.016973773082392753,43.949719857520286,17.487781036168133
43.97938040963692,51,106,1,0.009000000000000001,43.96595909976399,13.421309872922777
43.98606738642578,51,100,0,0.04963348151404163,43.97170766013057,14.359726295210166
43.989380409636915,56,80,1,0.009000000000000001,43.97189262860075,17.487781036168133
43.99938040963691,67,60,1,0.009000000000000001,43.978764573859785,20.6158357771261
44.00938040963691,56,62,1,0.06446326792451934,43.98907737933388,20.303030303030305
44.04121569921916,40,74,0,0.04684864478808122,44.022789501760705,18.426197458455523
44.081006262886376,75,84,1,0.025833520196150723,44.0641440927984,16.86217008797654
44.093269748983694,66,57,0,0.0165932624151833,44.07218470499542,21.085043988269796
44.10971017421543,61,62,1,0.014600907194872554,44.089407143912396,20.303030303030305
44.11170670722279,57,92,0,0.07328639982803288,44.09609575903119,15.610948191593351
44.125933404431954,56,73,1,0.009000000000000001,44.107350804236454,18.58260019550342
44.13593340443195,68,71,1,0.027232315885510026,44.117037998762356,18.89540566959922
44.16619153319363,69,105,1,0.05799839325806084,44.15261382058366,13.577712609970675
44.19313604036505,59,75,0,0.02047607631989946,44.17486624564364,18.269794721407624
44.215887236276046,52,91,0,0.009000000000000001,44.200119885347405,15.76735092864125
44.225887236276044,85,54,0,0.09573327191960203,44.20433298407663,21.55425219941349
44.23063419236926,82,66,1,0.009000000000000001,44.210956773014416,19.67741935483871
44.24063419236926,71,107,1,0.01194305058841802,44.22736928523338,13.264907135874878
44.25390424857861,47,71,1,0.010524373836583556,44.23500884290901,18.89540566959922
44.26559799728592,51,71,1,0.062209290168236835,44.24670259161633,18.89540566959922
44.33225753840893,67,57,0,0.014599246214061407,44.31117249442066,21.085043988269796
44.33471943080619,21,85,1,0.04587667218415597,44.31801366345526,16.705767350928642
44.34847892309122,62,54,0,0.02561768554432391,44.326924670891806,21.55425219941349
44.37694301814047,67,84,0,0.011825664778754179,44.3600808480525,16.86217008797654
44.38569351101081,51,77,1,0.02742011443815775,44.3677365217635,17.956989247311828
44.39008264567242,66,88,0,0.013937028112229423,44.37384608653264,16.236559139784944
44.405568232463786,66,65,0,0.01262356326581251,44.385734410371896,19.83382209188661
44.41616030483098,76,72,1,0.036026065778982874,44.39742130189843,18.73900293255132
44.41959441387024,43,92,0,0.009000000000000001,44.40398346567865,15.610948191593351
44.42959441387024,33,54,0,0.028982123288718784,44.408040161670826,21.55425219941349
44.45618926680763,62,96,1,0.03015685644798142,44.441203929564224,14.985337243401759
44.461796773079925,54,101,0,0.013579799401333092,44.44759344952176,14.203323558162268
44.47688543908141,54,76,0,0.009000000000000001,44.45877204709705,18.113391984359726
44.486885439081405,62,64,0,0.009000000000000001,44.46689521425247,19.990224828934508
44.48969688508316,68,102,1,0.03122009501539045,44.47564996426205,14.04692082111437
44.4968854390814,75,95,0,0.01884636656857282,44.48174369910095,15.141739980449657
44.517825846379814,65,108,0,0.08566828249303807,44.504717341980985,13.10850439882698
44.52438587954471,58,92,1,0.009595866564177694,44.508774931353116,15.610948191593351
44.53504795350491,51,96,1,0.011426000773975724,44.520062616261505,14.985337243401759
44.54774350992044,42,96,1,0.009000000000000001,44.532758172677035,14.985337243401759
44.557743509920435,67,62,1,0.015063278739378598,44.5374404796174,20.303030303030305
44.574480486297524,58,63,1,0.009000000000000001,44.55433385873154,20.146627565982406
44.58448048629752,84,94,1,0.06528468584282225,44.569182343580025,15.298142717497555
44.61301282692764,56,89,0,0.06701285350125961,44.5969326705249,16.080156402737046
44.65701902612288,46,106,1,0.060133622655902975,44.64359771624996,13.421309872922777
44.68747155304015,81,83,0,0.026831727172013348,44.670452980215124,17.01857282502444
44.717284583231276,51,76,0,0.030549423617516308,44.69917119124692,18.113391984359726
44.723834162407215,21,94,1,0.014214753773782472,44.70853601968972,15.298142717497555
44.73962833326697,44,62,1,0.009000000000000001,44.71932530296394,20.303030303030305
44.74962833326697,57,52,1,0.009000000000000001,44.72776127559346,21.867057673509287
44.75122838725074,55,102,0,0.035502062287157174,44.737181466429625,14.04692082111437
44.75962833326697,71,102,1,0.07225662940001895,44.74558141244585,14.04692082111437
44.79067512312536,64,102,0,0.020983688055678473,44.776628202304245,14.04692082111437
44.813990332076116,70,65,0,0.015238941077637456,44.79415650998423,19.83382209188661
44.830922488829046,56,80,0,0.05020005397523349,44.81343470779288,17.487781036168133
44.83991347704477,42,59,1,0.015273057079682848,44.81914123853059,20.772238514174
44.85688354046664,82,98,1,0.024864913101274495,44.84221100869733,14.672531769305962
44.88670032657931,70,70,0,0.019487062571880744,44.867648518172665,19.05180840664712
44.88451122169028,69,85,1,0.07074364353431707,44.867805454339354,16.705767350928642
44.90835261832584,33,66,0,0.009000000000000001,44.888675198971,19.67741935483871
44.91835261832584,82,71,0,0.009000000000000001,44.899457212656245,18.89540566959922
44.92835261832584,49,100,0,0.03002347945482133,44.91399289203063,14.359726295210166
44.961712039942306,80,66,0,0.07918761831710033,44.942034620587464,19.67741935483871
44.96311527006174,51,106,1,0.009000000000000001,44.94969396018882,13.421309872922777
44.97311527006174,62,70,1,0.009000000000000001,44.954063461655096,19.05180840664712
44.98311527006174,35,79,1,0.03229271129483505,44.965471086288524,17.64418377321603
45.018996060389334,82,71,1,0.03680733633619434,45.00010065471974,18.89540566959922
45.049698282516864,52,51,0,0.12525206145919887,45.027674822106306,22.023460410557185
45.059893100762885,61,102,1,0.038900279222127625,45.04584617994177,14.04692082111437
45.103115633231916,57,76,1,0.009000000000000001,45.08500224124756,18.113391984359726
45.113115633231914,64,89,1,0.009000000000000001,45.09703547682918,16.080156402737046
45.12311563323191,87,63,1,0.009000000000000001,45.102969005665926,20.146627565982406
45.13311563323191,69,103,1,0.009000000000000001,45.11922511514784,13.890518084066471
45.14311563323191,31,77,1,0.02098951961364207,45.1251586439846,17.956989247311828
45.16643732169151,64,82,1,0.05842434247037686,45.14926234612944,17.174975562072337
45.18886723969375,79,57,0,0.02497910109760653,45.16778219570548,21.085043988269796
45.21662179646887,76,61,0,0.07530846765090388,45.19616236342879,20.459433040078203
45.231353257769705,62,53,1,0.009000000000000001,45.20964260283324,21.71065493646139
45.2413532577697,54,83,1,0.02472278385867747,45.22433468494468,17.01857282502444
45.268823017612675,49,87,1,0.015866671596629283,45.25243005573584,16.392961876832846
45.286452652720044,81,110,1,0.009000000000000001,45.27365695379531,12.795698924731184
45.29645265272004,37,107,1,0.024830865347126425,45.283187745584165,13.264907135874878
45.300297871636545,49,84,0,0.026321117468959015,45.28343570154857,16.86217008797654
45.32404250310574,40,91,1,0.027423122740916024,45.308275152177096,15.76735092864125
45.329543557713166,44,60,0,0.014577297622360878,45.30892772193604,20.6158357771261
45.345740555071345,82,106,0,0.009000000000000001,45.33231924519842,13.421309872922777
45.35574055507134,52,74,0,0.009000000000000001,45.33731435761289,18.426197458455523
45.35451263948453,65,87,1,0.01864355613290595,45.3381196776077,16.392961876832846
45.36574055507134,43,64,0,0.009000000000000001,45.3457503302424,19.990224828934508
45.37522770185443,29,82,1,0.012847401128181496,45.35805272629236,17.174975562072337
45.37574055507134,65,102,0,0.009000000000000001,45.36169363425022,14.04692082111437
45.38574055507134,54,104,0,0.09926763987488636,45.372006439724316,13.734115347018573
45.38950259199685,65,100,1,0.009000000000000001,45.37514286570164,14.359726295210166
45.39950259199685,58,91,1,0.009000000000000001,45.38373524106821,15.76735092864125
45.40950259199685,47,67,1,0.010992145690871875,45.38998157537906,19.521016617790814
45.42171608720893,68,107,1,0.015594875670243159,45.40845118007305,13.264907135874878
45.439043726842534,57,70,1,0.013324265441719635,45.41999191843589,19.05180840664712
45.453848466222226,59,71,1,0.02550875757029064,45.43495306055263,18.89540566959922
45.48219153018922,51,50,1,0.04834923445204695,45.46001166704161,22.179863147605083
45.4960379327101,52,76,0,0.07046939112866771,45.477924540725745,18.113391984359726
45.535912901802604,58,55,1,0.015364815730351356,45.514515052340236,21.397849462365592
45.552984919280775,85,82,1,0.06858121828325572,45.535809943718704,17.174975562072337
45.574337256186396,61,74,0,0.009000000000000001,45.55591105872794,18.426197458455523
45.584337256186394,52,86,0,0.009000000000000001,45.567787891572515,16.549364613880744
45.59433725618639,49,52,0,0.009000000000000001,45.57247019851288,21.867057673509287
45.60433725618639,75,74,0,0.02396485441542964,45.58591105872794,18.426197458455523
45.629186272928834,58,76,1,0.01818311946468381,45.61107288094448,18.113391984359726
45.630964872203535,33,94,0,0.09833431442390954,45.61566672948604,15.298142717497555
45.6493897390007,36,56,1,0.009000000000000001,45.628148292275384,21.241446725317694
45.6593897390007,49,81,1,0.0346881985896195,45.64205836070158,17.331378299120235
45.69793218187806,50,53,1,0.027955165677273727,45.676221526941596,21.71065493646139
45.72899347707503,77,66,1,0.016417666079740403,45.70931605772019,19.67741935483871
45.74723532827474,56,52,1,0.010456325244780637,45.72536827060123,21.867057673509287
45.740225221563435,65,106,0,0.009000000000000001,45.72680391169051,13.421309872922777
45.75022522156343,50,76,0,0.012678089786263294,45.732111829579075,18.113391984359726
45.75885346743561,85,70,1,0.011381873801025122,45.73980165902896,19.05180840664712
45.76431198799261,61,100,0,0.04822085441172313,45.7499522616974,14.359726295210166
45.77149999388119,87,56,1,0.009000000000000001,45.75025854715587,21.241446725317694
45.78149999388119,63,110,1,0.009000000000000001,45.76870429495646,12.795698924731184
45.79149999388119,55,104,1,0.06699423626193184,45.77776587853417,13.734115347018573
45.81789071511675,69,108,0,0.009000000000000001,45.80478221071792,13.10850439882698
45.827890715116745,51,78,0,0.009000000000000001,45.81009012860648,17.80058651026393
45.83789071511674,70,53,0,0.01111497418670913,45.81618006018028,21.71065493646139
45.850240686435306,48,77,0,0.018314863727119938,45.832283697188,17.956989247311828
45.865938034172224,44,89,1,0.017531562075241716,45.84985787776949,16.080156402737046
45.870590535020995,70,60,0,0.010990840341436313,45.849974699243866,20.6158357771261
45.88541754758916,74,80,1,0.011610958357773213,45.86792976655299,17.487781036168133
45.882802579844814,24,100,0,0.02291280623824109,45.8684428535496,14.359726295210166
45.898318612431126,45,107,1,0.027070279363783256,45.88505370529525,13.264907135874878
45.90826125344286,57,66,0,0.038550252276328495,45.88858383408802,19.67741935483871
45.928396700613106,42,80,1,0.009000000000000001,45.91090891957694,17.487781036168133
45.938396700613104,73,65,1,0.046575796742560294,45.918562878521215,19.83382209188661
45.95109486708322,57,75,0,0.012095129899988712,45.932825072361815,18.269794721407624
45.96453390030543,83,62,0,0.030739190395189086,45.9442308700024,20.303030303030305
45.99014758588262,93,103,1,0.009000000000000001,45.97625706779855,13.890518084066471
45.99868855630009,47,66,0,0.027697656214026707,45.979011136945246,19.67741935483871
46.0,53,80,0,0.06,45.982512218963834,17.487781036168133
46.0,67,80,1,0.045000000000000005,45.982512218963834,17.487781036168133
46.05,47,80,1,0.045000000000000005,46.03251221896383,17.487781036168133
46.06666666666667,69,80,0,0.06,46.0491788856305,17.487781036168133
46.099999999999994,35,80,1,0.045000000000000005,46.08251221896383,17.487781036168133
46.13333333333334,47,80,0,0.06,46.11584555229717,17.487781036168133
46.14999999999999,64,80,1,0.045000000000000005,46.132512218963825,17.487781036168133
46.19999999999999,60,80,1,0.045000000000000005,46.18251221896382,17.487781036168133
46.20000000000001,50,80,0,0.06,46.18251221896384,17.487781036168133
46.249999999999986,50,80,1,0.045000000000000005,46.23251221896382,17.487781036168133
46.26666666666668,41,80,0,0.06,46.24917888563051,17.487781036168133
46.29999999999998,52,80,1,0.045000000000000005,46.28251221896382,17.487781036168133
46.33333333333335,48,80,0,0.06,46.31584555229718,17.487781036168133
46.34999999999998,52,80,1,0.045000000000000005,46.332512218963814,17.487781036168133
46.39999999999998,60,80,1,0.045000000000000005,46.38251221896381,17.487781036168133
46.40000000000002,50,80,0,0.06,46.38251221896385,17.487781036168133
46.449999999999974,53,80,1,0.045000000000000005,46.43251221896381,17.487781036168133
46.46666666666669,48,80,0,0.06,46.44917888563052,17.487781036168133
46.49999999999997,62,80,1,0.045000000000000005,46.482512218963805,17.487781036168133
46.53333333333336,38,80,0,0.06,46.51584555229719,17.487781036168133
46.54999999999997,36,80,1,0.045000000000000005,46.5325122189638,17.487781036168133
46.599999999999966,53,80,1,0.045000000000000005,46.5825122189638,17.487781036168133
46.60000000000003,48,80,0,0.06,46.58251221896386,17.487781036168133
46.64999999999996,50,80,1,0.045000000000000005,46.6325122189638,17.487781036168133
46.6666666666667,59,80,0,0.06,46.64917888563053,17.487781036168133
46.69999999999996,57,80,1,0.045000000000000005,46.682512218963794,17.487781036168133
46.73333333333337,50,80,0,0.06,46.7158455522972,17.487781036168133
46.74999999999996,55,80,1,0.045000000000000005,46.73251221896379,17.487781036168133
46.799999999999955,65,80,1,0.045000000000000005,46.78251221896379,17.487781036168133
46.80000000000004,55,80,0,0.06,46.78251221896387,17.487781036168133
46.84999999999995,45,80,1,0.045000000000000005,46.832512218963785,17.487781036168133
46.86666666666671,45,80,0,0.06,46.84917888563054,17.487781036168133
46.89999999999995,60,80,1,0.045000000000000005,46.88251221896378,17.487781036168133
46.93333333333338,53,80,0,0.06,46.91584555229721,17.487781036168133
46.949999999999946,64,80,1,0.045000000000000005,46.93251221896378,17.487781036168133
46.99999999999994,74,80,1,0.045000000000000005,46.98251221896378,17.487781036168133
47.00000000000005,50,80,0,0.06,46.98251221896388,17.487781036168133
47.04999999999994,55,80,1,0.045000000000000005,47.032512218963774,17.487781036168133
47.06666666666672,40,80,0,0.06,47.04917888563055,17.487781036168133
47.09999999999994,62,80,1,0.045000000000000005,47.08251221896377,17.487781036168133
47.13333333333339,50,80,0,0.06,47.11584555229722,17.487781036168133
47.149999999999935,45,80,1,0.045000000000000005,47.13251221896377,17.487781036168133
47.19999999999993,40,80,1,0.045000000000000005,47.182512218963765,17.487781036168133
47.20000000000006,40,80,0,0.06,47.18251221896389,17.487781036168133
47.24999999999993,65,80,1,0.045000000000000005,47.23251221896376,17.487781036168133
47.26666666666673,41,80,0,0.06,47.24917888563056,17.487781036168133
47.299999999999926,59,80,1,0.045000000000000005,47.28251221896376,17.487781036168133
47.3333333333334,48,80,0,0.06,47.31584555229723,17.487781036168133
47.34999999999992,69,80,1,0.045000000000000005,47.33251221896376,17.487781036168133
47.39999999999992,48,80,1,0.045000000000000005,47.382512218963754,17.487781036168133
47.40000000000007,50,80,0,0.06,47.3825122189639,17.487781036168133
47.44999999999992,64,80,1,0.045000000000000005,47.43251221896375,17.487781036168133
47.46666666666674,38,80,0,0.06,47.44917888563057,17.487781036168133
47.499999999999915,74,80,1,0.045000000000000005,47.48251221896375,17.487781036168133
47.53333333333341,55,80,0,0.06,47.51584555229724,17.487781036168133
47.54999999999991,62,80,1,0.045000000000000005,47.532512218963745,17.487781036168133
47.59999999999991,62,80,1,0.045000000000000005,47.58251221896374,17.487781036168133
47.60000000000008,52,80,0,0.06,47.58251221896391,17.487781036168133
47.649999999999906,60,80,1,0.045000000000000005,47.63251221896374,17.487781036168133
47.66666666666675,41,80,0,0.06,47.64917888563058,17.487781036168133
47.6999999999999,47,80,1,0.045000000000000005,47.68251221896374,17.487781036168133
47.73333333333342,35,80,0,0.06,47.71584555229725,17.487781036168133
47.7499999999999,69,80,1,0.045000000000000005,47.732512218963734,17.487781036168133
47.7999999999999,55,80,1,0.045000000000000005,47.78251221896373,17.487781036168133
47.80000000000009,45,80,0,0.06,47.78251221896392,17.487781036168133
47.849999999999895,64,80,1,0.045000000000000005,47.83251221896373,17.487781036168133
47.86666666666676,43,80,0,0.06,47.84917888563059,17.487781036168133
47.89999999999989,47,80,1,0.045000000000000005,47.882512218963726,17.487781036168133
47.93333333333343,48,80,0,0.06,47.91584555229726,17.487781036168133
47.94999999999989,50,80,1,0.045000000000000005,47.93251221896372,17.487781036168133
47.999999999999886,71,80,1,0.045000000000000005,47.98251221896372,17.487781036168133
48.0000000000001,45,80,0,0.06,47.98251221896393,17.487781036168133
48.04999999999988,57,80,1,0.045000000000000005,48.03251221896372,17.487781036168133
48.06666666666677,31,80,0,0.06,48.0491788856306,17.487781036168133
48.09999999999988,71,80,1,0.045000000000000005,48.082512218963714,17.487781036168133
48.13333333333344,43,80,0,0.06,48.11584555229727,17.487781036168133
48.14999999999988,59,80,1,0.045000000000000005,48.13251221896371,17.487781036168133
48.199999999999875,45,80,1,0.045000000000000005,48.18251221896371,17.487781036168133
48.20000000000011,45,80,0,0.06,48.18251221896394,17.487781036168133
48.24999999999987,67,80,1,0.045000000000000005,48.232512218963706,17.487781036168133
48.26666666666678,53,80,0,0.06,48.24917888563061,17.487781036168133
48.29999999999987,55,80,1,0.045000000000000005,48.2825122189637,17.487781036168133
48.33333333333345,41,80,0,0.06,48.31584555229728,17.487781036168133
48.349999999999866,65,80,1,0.045000000000000005,48.3325122189637,17.487781036168133
48.399999999999864,60,80,1,0.045000000000000005,48.3825122189637,17.487781036168133
48.40000000000012,60,80,0,0.06,48.38251221896395,17.487781036168133
48.44999999999986,47,80,1,0.045000000000000005,48.432512218963694,17.487781036168133
48.46666666666679,31,80,0,0.06,48.44917888563062,17.487781036168133
48.49999999999986,60,80,1,0.045000000000000005,48.48251221896369,17.487781036168133
48.53333333333346,57,80,0,0.06,48.51584555229729,17.487781036168133
48.549999999999855,77,80,1,0.045000000000000005,48.53251221896369,17.487781036168133
48.59999999999985,62,80,1,0.045000000000000005,48.582512218963686,17.487781036168133
48.60000000000013,45,80,0,0.06,48.58251221896396,17.487781036168133
48.64999999999985,59,80,1,0.045000000000000005,48.63251221896368,17.487781036168133
48.6666666666668,53,80,0,0.06,48.64917888563063,17.487781036168133
48.69999999999985,67,80,1,0.045000000000000005,48.68251221896368,17.487781036168133
48.73333333333347,48,80,0,0.06,48.7158455522973,17.487781036168133
48.749999999999844,60,80,1,0.045000000000000005,48.73251221896368,17.487781036168133
48.79999999999984,60,80,1,0.045000000000000005,48.782512218963674,17.487781036168133
48.80000000000014,57,80,0,0.06,48.78251221896397,17.487781036168133
48.84999999999984,50,80,1,0.045000000000000005,48.83251221896367,17.487781036168133
48.86666666666681,43,80,0,0.06,48.84917888563064,17.487781036168133
48.899999999999835,60,80,1,0.045000000000000005,48.88251221896367,17.487781036168133
48.93333333333348,38,80,0,0.06,48.91584555229731,17.487781036168133
48.94999999999983,67,80,1,0.045000000000000005,48.932512218963666,17.487781036168133
48.99999999999983,53,80,1,0.045000000000000005,48.98251221896366,17.487781036168133
49.00000000000015,59,80,0,0.06,48.98251221896398,17.487781036168133
49.04999999999983,71,80,1,0.045000000000000005,49.03251221896366,17.487781036168133
49.06666666666682,47,80,0,0.06,49.04917888563065,17.487781036168133
49.099999999999824,59,80,1,0.045000000000000005,49.08251221896366,17.487781036168133
49.13333333333349,48,80,0,0.06,49.11584555229732,17.487781036168133
49.14999999999982,52,80,1,0.045000000000000005,49.132512218963655,17.487781036168133
49.19999999999982,67,80,1,0.045000000000000005,49.18251221896365,17.487781036168133
49.20000000000016,57,80,0,0.06,49.18251221896399,17.487781036168133
49.249999999999815,57,80,1,0.045000000000000005,49.23251221896365,17.487781036168133
49.26666666666683,38,80,0,0.06,49.24917888563066,17.487781036168133
49.29999999999981,65,80,1,0.045000000000000005,49.282512218963646,17.487781036168133
49.3333333333335,52,80,0,0.06,49.31584555229733,17.487781036168133
49.34999999999981,57,80,1,0.045000000000000005,49.33251221896364,17.487781036168133
49.39999999999981,59,80,1,0.045000000000000005,49.38251221896364,17.487781036168133
49.40000000000017,43,80,0,0.06,49.382512218964,17.487781036168133
49.449999999999804,62,80,1,0.045000000000000005,49.43251221896364,17.487781036168133
49.46666666666684,45,80,0,0.06,49.44917888563067,17.487781036168133
49.4999999999998,62,80,1,0.045000000000000005,49.482512218963635,17.487781036168133
49.53333333333351,48,80,0,0.06,49.51584555229734,17.487781036168133
49.5499999999998,43,80,1,0.045000000000000005,49.53251221896363,17.487781036168133
49.599999999999795,50,80,1,0.045000000000000005,49.58251221896363,17.487781036168133
49.60000000000018,35,80,0,0.06,49.58251221896401,17.487781036168133
49.64999999999979,67,80,1,0.045000000000000005,49.632512218963626,17.487781036168133
49.66666666666685,41,80,0,0.06,49.64917888563068,17.487781036168133
49.69999999999979,57,80,1,0.045000000000000005,49.68251221896362,17.487781036168133
49.73333333333352,57,80,0,0.06,49.71584555229735,17.487781036168133
49.74999999999979,55,80,1,0.045000000000000005,49.73251221896362,17.487781036168133
49.799999999999784,48,80,1,0.045000000000000005,49.78251221896362,17.487781036168133
49.80000000000019,55,80,0,0.06,49.78251221896402,17.487781036168133
49.84999999999978,50,80,1,0.045000000000000005,49.832512218963615,17.487781036168133
49.86666666666686,47,80,0,0.06,49.84917888563069,17.487781036168133
49.89999999999978,43,80,1,0.045000000000000005,49.88251221896361,17.487781036168133
49.93333333333353,48,80,0,0.06,49.91584555229736,17.487781036168133
49.949999999999775,59,80,1,0.045000000000000005,49.93251221896361,17.487781036168133
49.99999999999977,55,80,1,0.045000000000000005,49.982512218963606,17.487781036168133
50.0000000000002,45,80,0,0.06,49.98251221896403,17.487781036168133
50.04999999999977,52,80,1,0.045000000000000005,50.0325122189636,17.487781036168133
50.06666666666687,57,80,0,0.06,50.0491788856307,17.487781036168133
50.09999999999977,59,80,1,0.045000000000000005,50.0825122189636,17.487781036168133
50.13333333333354,45,80,0,0.06,50.11584555229737,17.487781036168133
50.149999999999764,62,80,1,0.045000000000000005,50.1325122189636,17.487781036168133
50.19999999999976,76,80,1,0.045000000000000005,50.182512218963595,17.487781036168133
50.20000000000021,48,80,0,0.06,50.18251221896404,17.487781036168133
50.24999999999976,47,80,1,0.045000000000000005,50.23251221896359,17.487781036168133
50.26666666666688,57,80,0,0.06,50.24917888563071,17.487781036168133
50.299999999999756,69,80,1,0.045000000000000005,50.28251221896359,17.487781036168133
50.33333333333355,41,80,0,0.06,50.31584555229738,17.487781036168133
50.34999999999975,67,80,1,0.045000000000000005,50.332512218963586,17.487781036168133
50.39999999999975,53,80,1,0.045000000000000005,50.38251221896358,17.487781036168133
50.40000000000022,60,80,0,0.06,50.38251221896405,17.487781036168133
50.44999999999975,60,80,1,0.045000000000000005,50.43251221896358,17.487781036168133
50.46666666666689,35,80,0,0.06,50.44917888563072,17.487781036168133
50.499999999999744,55,80,1,0.045000000000000005,50.48251221896358,17.487781036168133
50.53333333333356,60,80,0,0.06,50.51584555229739,17.487781036168133
50.54999999999974,60,80,1,0.045000000000000005,50.532512218963575,17.487781036168133
50.59999999999974,72,80,1,0.045000000000000005,50.58251221896357,17.487781036168133
50.60000000000023,45,80,0,0.06,50.58251221896406,17.487781036168133
50.649999999999736,64,80,1,0.045000000000000005,50.63251221896357,17.487781036168133
50.6666666666669,45,80,0,0.06,50.64917888563073,17.487781036168133
50.69999999999973,64,80,1,0.045000000000000005,50.682512218963566,17.487781036168133
50.73333333333357,31,80,0,0.06,50.7158455522974,17.487781036168133
50.74999999999973,55,80,1,0.045000000000000005,50.732512218963564,17.487781036168133
50.79999999999973,48,80,1,0.045000000000000005,50.78251221896356,17.487781036168133
50.80000000000024,43,80,0,0.06,50.78251221896407,17.487781036168133
50.849999999999724,57,80,1,0.045000000000000005,50.83251221896356,17.487781036168133
50.86666666666691,38,80,0,0.06,50.84917888563074,17.487781036168133
50.89999999999972,69,80,1,0.045000000000000005,50.882512218963555,17.487781036168133
50.93333333333358,43,80,0,0.06,50.91584555229741,17.487781036168133
50.94999999999972,47,80,1,0.045000000000000005,50.93251221896355,17.487781036168133
50.999999999999716,50,80,1,0.045000000000000005,50.98251221896355,17.487781036168133
51.00000000000025,45,80,0,0.06,50.98251221896408,17.487781036168133
51.04999999999971,60,80,1,0.045000000000000005,51.03251221896355,17.487781036168133
51.06666666666692,55,80,0,0.06,51.04917888563075,17.487781036168133
51.09999999999971,52,80,1,0.045000000000000005,51.082512218963544,17.487781036168133
51.13333333333359,48,80,0,0.06,51.11584555229742,17.487781036168133
51.14999999999971,53,80,1,0.045000000000000005,51.13251221896354,17.487781036168133
51.199999999999704,55,80,1,0.045000000000000005,51.18251221896354,17.487781036168133
51.20000000000026,50,80,0,0.06,51.18251221896409,17.487781036168133
51.2499999999997,48,80,1,0.045000000000000005,51.232512218963535,17.487781036168133
51.26666666666693,38,80,0,0.06,51.24917888563076,17.487781036168133
51.2999999999997,52,80,1,0.045000000000000005,51.28251221896353,17.487781036168133
51.3333333333336,40,80,0,0.06,51.31584555229743,17.487781036168133
51.349999999999696,65,80,1,0.045000000000000005,51.33251221896353,17.487781036168133
51.39999999999969,48,80,1,0.045000000000000005,51.38251221896353,17.487781036168133
51.40000000000027,62,80,0,0.06,51.3825122189641,17.487781036168133
51.44999999999969,47,80,1,0.045000000000000005,51.432512218963524,17.487781036168133
51.46666666666694,41,80,0,0.06,51.44917888563077,17.487781036168133
51.49999999999969,53,80,1,0.045000000000000005,51.48251221896352,17.487781036168133
51.53333333333361,60,80,0,0.06,51.51584555229744,17.487781036168133
51.549999999999685,65,80,1,0.045000000000000005,51.53251221896352,17.487781036168133
51.59999999999968,57,80,1,0.045000000000000005,51.582512218963515,17.487781036168133
51.60000000000028,45,80,0,0.06,51.58251221896411,17.487781036168133
51.64999999999968,55,80,1,0.045000000000000005,51.63251221896351,17.487781036168133
51.66666666666695,48,80,0,0.06,51.64917888563078,17.487781036168133
51.699999999999676,60,80,1,0.045000000000000005,51.68251221896351,17.487781036168133
51.73333333333362,55,80,0,0.06,51.71584555229745,17.487781036168133
51.74999999999967,45,80,1,0.045000000000000005,51.73251221896351,17.487781036168133
51.79999999999967,62,80,1,0.045000000000000005,51.782512218963504,17.487781036168133
51.80000000000029,57,80,0,0.06,51.78251221896412,17.487781036168133
51.84999999999967,62,80,1,0.045000000000000005,51.8325122189635,17.487781036168133
51.86666666666696,47,80,0,0.06,51.84917888563079,17.487781036168133
51.899999999999665,55,80,1,0.045000000000000005,51.8825122189635,17.487781036168133
51.93333333333363,43,80,0,0.06,51.91584555229746,17.487781036168133
51.94999999999966,67,80,1,0.045000000000000005,51.932512218963495,17.487781036168133
51.99999999999966,50,80,1,0.045000000000000005,51.98251221896349,17.487781036168133
52.0000000000003,47,80,0,0.06,51.98251221896413,17.487781036168133
52.049999999999656,69,80,1,0.045000000000000005,52.03251221896349,17.487781036168133
52.06666666666697,50,80,0,0.06,52.0491788856308,17.487781036168133
52.09999999999965,60,80,1,0.045000000000000005,52.08251221896349,17.487781036168133
52.13333333333364,55,80,0,0.06,52.11584555229747,17.487781036168133
52.14999999999965,57,80,1,0.045000000000000005,52.132512218963484,17.487781036168133
52.19999999999965,59,80,1,0.045000000000000005,52.18251221896348,17.487781036168133
52.20000000000031,48,80,0,0.06,52.18251221896414,17.487781036168133
52.249999999999645,59,80,1,0.045000000000000005,52.23251221896348,17.487781036168133
52.26666666666698,52,80,0,0.06,52.24917888563081,17.487781036168133
52.29999999999964,69,80,1,0.045000000000000005,52.282512218963475,17.487781036168133
52.33333333333365,60,80,0,0.06,52.31584555229748,17.487781036168133
52.34999999999964,50,80,1,0.045000000000000005,52.33251221896347,17.487781036168133
52.399999999999636,53,80,1,0.045000000000000005,52.38251221896347,17.487781036168133
52.40000000000032,50,80,0,0.06,52.38251221896415,17.487781036168133
52.44999999999963,67,80,1,0.045000000000000005,52.43251221896347,17.487781036168133
52.46666666666699,50,80,0,0.06,52.44917888563082,17.487781036168133
52.49999999999963,55,80,1,0.045000000000000005,52.482512218963464,17.487781036168133
52.53333333333366,35,80,0,0.06,52.51584555229749,17.487781036168133
52.54999999999963,67,80,1,0.045000000000000005,52.53251221896346,17.487781036168133
52.599999999999625,72,80,1,0.045000000000000005,52.58251221896346,17.487781036168133
52.60000000000033,26,80,0,0.06,52.58251221896416,17.487781036168133
52.64999999999962,55,80,1,0.045000000000000005,52.632512218963456,17.487781036168133
52.666666666667,50,80,0,0.06,52.64917888563083,17.487781036168133
52.69999999999962,65,80,1,0.045000000000000005,52.68251221896345,17.487781036168133
52.73333333333367,47,80,0,0.06,52.7158455522975,17.487781036168133
52.749999999999616,50,80,1,0.045000000000000005,52.73251221896345,17.487781036168133
52.79999999999961,65,80,1,0.045000000000000005,52.78251221896345,17.487781036168133
52.80000000000034,43,80,0,0.06,52.78251221896417,17.487781036168133
52.84999999999961,60,80,1,0.045000000000000005,52.832512218963444,17.487781036168133
52.86666666666701,48,80,0,0.06,52.84917888563084,17.487781036168133
52.89999999999961,62,80,1,0.045000000000000005,52.88251221896344,17.487781036168133
52.93333333333368,47,80,0,0.06,52.91584555229751,17.487781036168133
52.949999999999605,53,80,1,0.045000000000000005,52.93251221896344,17.487781036168133
52.9999999999996,45,80,1,0.045000000000000005,52.982512218963436,17.487781036168133
53.00000000000035,57,80,0,0.06,52.98251221896418,17.487781036168133
53.0499999999996,64,80,1,0.045000000000000005,53.03251221896343,17.487781036168133
53.06666666666702,48,80,0,0.06,53.04917888563085,17.487781036168133
53.099999999999596,43,80,1,0.045000000000000005,53.08251221896343,17.487781036168133
53.13333333333369,41,80,0,0.06,53.11584555229752,17.487781036168133
53.149999999999594,57,80,1,0.045000000000000005,53.13251221896343,17.487781036168133
53.19999999999959,67,80,1,0.045000000000000005,53.182512218963424,17.487781036168133
53.20000000000036,55,80,0,0.06,53.18251221896419,17.487781036168133
53.24999999999959,60,80,1,0.045000000000000005,53.23251221896342,17.487781036168133
53.26666666666703,45,80,0,0.06,53.24917888563086,17.487781036168133
53.299999999999585,74,80,1,0.045000000000000005,53.28251221896342,17.487781036168133
53.3333333333337,52,80,0,0.06,53.31584555229753,17.487781036168133
53.34999999999958,67,80,1,0.045000000000000005,53.332512218963416,17.487781036168133
53.39999999999958,53,80,1,0.045000000000000005,53.38251221896341,17.487781036168133
53.40000000000037,43,80,0,0.06,53.3825122189642,17.487781036168133
53.44999999999958,60,80,1,0.045000000000000005,53.43251221896341,17.487781036168133
53.46666666666704,41,80,0,0.06,53.44917888563087,17.487781036168133
53.499999999999574,59,80,1,0.045000000000000005,53.48251221896341,17.487781036168133
53.53333333333371,48,80,0,0.06,53.51584555229754,17.487781036168133
53.54999999999957,47,80,1,0.045000000000000005,53.532512218963404,17.487781036168133
53.59999999999957,52,80,1,0.045000000000000005,53.5825122189634,17.487781036168133
53.60000000000038,48,80,0,0.06,53.58251221896421,17.487781036168133
53.649999999999565,55,80,1,0.045000000000000005,53.6325122189634,17.487781036168133
53.66666666666705,50,80,0,0.06,53.64917888563088,17.487781036168133
53.69999999999956,43,80,1,0.045000000000000005,53.682512218963396,17.487781036168133
53.73333333333372,45,80,0,0.06,53.71584555229755,17.487781036168133
53.74999999999956,60,80,1,0.045000000000000005,53.73251221896339,17.487781036168133
53.79999999999956,57,80,1,0.045000000000000005,53.78251221896339,17.487781036168133
53.80000000000039,33,80,0,0.06,53.78251221896422,17.487781036168133
53.849999999999554,45,80,1,0.045000000000000005,53.83251221896339,17.487781036168133
53.86666666666706,43,80,0,0.06,53.84917888563089,17.487781036168133
53.89999999999955,62,80,1,0.045000000000000005,53.882512218963384,17.487781036168133
53.93333333333373,53,80,0,0.06,53.91584555229756,17.487781036168133
53.94999999999955,65,80,1,0.045000000000000005,53.93251221896338,17.487781036168133
53.999999999999545,60,80,1,0.045000000000000005,53.98251221896338,17.487781036168133
54.0000000000004,45,80,0,0.06,53.98251221896423,17.487781036168133
54.04999999999954,57,80,1,0.045000000000000005,54.032512218963376,17.487781036168133
54.06666666666707,45,80,0,0.06,54.0491788856309,17.487781036168133
54.09999999999954,64,80,1,0.045000000000000005,54.08251221896337,17.487781036168133
54.13333333333374,55,80,0,0.06,54.11584555229757,17.487781036168133
54.14999999999954,65,80,1,0.045000000000000005,54.13251221896337,17.487781036168133
54.199999999999534,62,80,1,0.045000000000000005,54.18251221896337,17.487781036168133
54.20000000000041,41,80,0,0.06,54.18251221896424,17.487781036168133
54.24999999999953,53,80,1,0.045000000000000005,54.232512218963365,17.487781036168133
54.26666666666708,35,80,0,0.06,54.24917888563091,17.487781036168133
54.29999999999953,62,80,1,0.045000000000000005,54.28251221896336,17.487781036168133
54.33333333333375,45,80,0,0.06,54.31584555229758,17.487781036168133
54.349999999999525,69,80,1,0.045000000000000005,54.33251221896336,17.487781036168133
54.39999999999952,55,80,1,0.045000000000000005,54.382512218963356,17.487781036168133
54.40000000000042,43,80,0,0.06,54.38251221896425,17.487781036168133
54.44999999999952,76,80,1,0.045000000000000005,54.43251221896335,17.487781036168133
54.46666666666709,40,80,0,0.06,54.44917888563092,17.487781036168133
54.49999999999952,55,80,1,0.045000000000000005,54.48251221896335,17.487781036168133
54.53333333333376,45,80,0,0.06,54.51584555229759,17.487781036168133
54.549999999999514,60,80,1,0.045000000000000005,54.53251221896335,17.487781036168133
54.59999999999951,53,80,1,0.045000000000000005,54.582512218963345,17.487781036168133
54.60000000000043,50,80,0,0.06,54.58251221896426,17.487781036168133
54.64999999999951,60,80,1,0.045000000000000005,54.63251221896334,17.487781036168133
54.6666666666671,47,80,0,0.06,54.64917888563093,17.487781036168133
54.699999999999505,45,80,1,0.045000000000000005,54.68251221896334,17.487781036168133
54.73333333333377,50,80,0,0.06,54.7158455522976,17.487781036168133
54.7499999999995,55,80,1,0.045000000000000005,54.732512218963336,17.487781036168133
54.7999999999995,50,80,1,0.045000000000000005,54.78251221896333,17.487781036168133
54.80000000000044,62,80,0,0.06,54.78251221896427,17.487781036168133
54.8499999999995,60,80,1,0.045000000000000005,54.83251221896333,17.487781036168133
54.86666666666711,45,80,0,0.06,54.84917888563094,17.487781036168133
54.899999999999494,67,80,1,0.045000000000000005,54.88251221896333,17.487781036168133
54.93333333333378,50,80,0,0.06,54.91584555229761,17.487781036168133
54.94999999999949,65,80,1,0.045000000000000005,54.932512218963325,17.487781036168133
54.99999999999949,41,80,1,0.045000000000000005,54.98251221896332,17.487781036168133
55.00000000000045,43,80,0,0.06,54.98251221896428,17.487781036168133
55.049999999999486,76,80,1,0.045000000000000005,55.03251221896332,17.487781036168133
55.06666666666712,41,80,0,0.06,55.04917888563095,17.487781036168133
55.09999999999948,62,80,1,0.045000000000000005,55.082512218963316,17.487781036168133
55.13333333333379,43,80,0,0.06,55.11584555229762,17.487781036168133
55.14999999999948,53,80,1,0.045000000000000005,55.13251221896331,17.487781036168133
55.19999999999948,60,80,1,0.045000000000000005,55.18251221896331,17.487781036168133
55.20000000000046,43,80,0,0.06,55.18251221896429,17.487781036168133
55.249999999999474,60,80,1,0.045000000000000005,55.23251221896331,17.487781036168133
55.26666666666713,50,80,0,0.06,55.24917888563096,17.487781036168133
55.29999999999947,53,80,1,0.045000000000000005,55.282512218963305,17.487781036168133
55.3333333333338,65,80,0,0.06,55.31584555229763,17.487781036168133
55.34999999999947,60,80,1,0.045000000000000005,55.3325122189633,17.487781036168133
55.399999999999466,55,80,1,0.045000000000000005,55.3825122189633,17.487781036168133
55.40000000000047,41,80,0,0.06,55.3825122189643,17.487781036168133
55.44999999999946,55,80,1,0.045000000000000005,55.432512218963296,17.487781036168133
55.46666666666714,43,80,0,0.06,55.44917888563097,17.487781036168133
55.49999999999946,53,80,1,0.045000000000000005,55.48251221896329,17.487781036168133
55.53333333333381,47,80,0,0.06,55.51584555229764,17.487781036168133
55.54999999999946,48,80,1,0.045000000000000005,55.53251221896329,17.487781036168133
55.599999999999454,60,80,1,0.045000000000000005,55.58251221896329,17.487781036168133
55.60000000000048,50,80,0,0.06,55.58251221896431,17.487781036168133
55.64999999999945,64,80,1,0.045000000000000005,55.632512218963285,17.487781036168133
55.66666666666715,50,80,0,0.06,55.64917888563098,17.487781036168133
55.69999999999945,64,80,1,0.045000000000000005,55.68251221896328,17.487781036168133
55.73333333333382,57,80,0,0.06,55.71584555229765,17.487781036168133
55.749999999999446,65,80,1,0.045000000000000005,55.73251221896328,17.487781036168133
55.79999999999944,62,80,1,0.045000000000000005,55.78251221896328,17.487781036168133
55.80000000000049,28,80,0,0.06,55.78251221896432,17.487781036168133
55.84999999999944,55,80,1,0.045000000000000005,55.832512218963274,17.487781036168133
55.86666666666716,28,80,0,0.06,55.84917888563099,17.487781036168133
55.89999999999944,65,80,1,0.045000000000000005,55.88251221896327,17.487781036168133
55.93333333333383,43,80,0,0.06,55.91584555229766,17.487781036168133
55.949999999999434,48,80,1,0.045000000000000005,55.93251221896327,17.487781036168133
56.0,45,51,0,0.0720605727073188,55.97797653958944,22.023460410557185
55.99999999999943,52,80,1,0.045000000000000005,55.982512218963265,17.487781036168133
56.0,50,103,1,0.013164470449156888,55.98610948191593,13.890518084066471
56.01462718938795,31,105,1,0.022006734714814218,56.00104947677798,13.577712609970675
56.03907911684885,55,69,1,0.009000000000000001,56.01987090570516,19.208211143695017
56.04907911684885,71,108,1,0.013700743858486271,56.03597061245002,13.10850439882698
56.0643021655805,74,74,1,0.009000000000000001,56.04587596812205,18.426197458455523
56.0743021655805,54,76,1,0.009000000000000001,56.05618877359614,18.113391984359726
56.084302165580496,62,81,1,0.009298354022879698,56.06697078728138,17.331378299120235
56.08006730300813,71,110,0,0.03221090704553716,56.067271604083395,12.795698924731184
56.094633670050364,63,79,1,0.08503937195815521,56.07698948627715,17.64418377321603
56.11585719972539,67,54,0,0.10025777170091331,56.094302947525975,21.55425219941349
56.189121861114984,53,59,1,0.009000000000000001,56.16834962260081,20.772238514174
56.19912186111498,35,97,1,0.05628637244114424,56.18429292660863,14.82893450635386
56.22725472383752,79,58,0,0.04657687527685172,56.206326082586294,20.928641251221897
56.26166227493847,83,108,1,0.009000000000000001,56.248553770539644,13.10850439882698
56.27166227493847,69,82,1,0.04074179516305557,56.2544872993764,17.174975562072337
56.27900680747847,79,111,0,0.02835963977781001,56.26636751129078,12.639296187683286
56.3105175183427,51,72,0,0.06556568968255952,56.29177851541015,18.73900293255132
56.316930936230754,86,57,1,0.028449047064033107,56.29584589224248,21.085043988269796
56.34854098852412,90,83,1,0.009000000000000001,56.3315224156991,17.01857282502444
56.35854098852412,61,83,1,0.009000000000000001,56.341522415699096,17.01857282502444
56.36854098852412,53,80,1,0.06620698772632201,56.35105320748795,17.487781036168133
56.383368284656655,58,93,0,0.04727553307813554,56.36791373920211,15.454545454545453
56.43589665474347,58,79,0,0.016604228471882962,56.41825247097026,17.64418377321603
56.44210430822003,78,112,1,0.009000000000000001,56.42962141476939,12.482893450635387
56.45210430822003,62,70,1,0.01074340657278689,56.433052499813385,19.05180840664712
56.45434579749001,50,90,0,0.07124854000206779,56.43842204382432,15.923753665689148
56.46404142663424,66,75,1,0.04527515458349624,56.445771631912834,18.269794721407624
56.51434715394924,41,71,1,0.009000000000000001,56.49545174827964,18.89540566959922
56.524347153949236,64,66,1,0.009000000000000001,56.504669734594394,19.67741935483871
56.534347153949234,61,53,1,0.031854360079445206,56.51263649901277,21.71065493646139
56.533510841936746,48,110,0,0.010083476339556566,56.52071514301201,12.795698924731184
56.544714704536254,60,79,0,0.012052279001942,56.52707052076304,17.64418377321603
56.55810612564952,76,94,0,0.011851523890248973,56.542807982932025,15.298142717497555
56.571274485527574,78,69,0,0.009000000000000001,56.55206627438388,19.208211143695017
56.56974088737084,70,101,1,0.014747569935592305,56.55553756381268,14.203323558162268
56.58127448552757,55,87,0,0.009000000000000001,56.56488152365074,16.392961876832846
56.58612707618816,77,110,1,0.01990826759112328,56.57333137726343,12.795698924731184
56.59127448552757,61,105,0,0.05502287375759858,56.5776967729176,13.577712609970675
56.60824737351163,60,57,1,0.02389571481600429,56.58716232952336,21.085043988269796
56.63479816775163,72,57,1,0.014340923212433673,56.61371312376336,21.085043988269796
56.65073252687656,95,50,1,0.01713875184335554,56.628552663728954,22.179863147605083
56.652411011924904,47,91,0,0.016094403075452658,56.63664366099626,15.76735092864125
56.67029368200874,58,65,0,0.04648913460495004,56.65045985991685,19.83382209188661
56.66977558448029,54,80,1,0.009000000000000001,56.652287803444125,17.487781036168133
56.67977558448029,41,94,1,0.05738742391403165,56.66447744176279,15.298142717497555
56.72194827601424,64,62,0,0.01476826003464414,56.701645245711205,20.303030303030305
56.74353938882921,31,68,1,0.017675606432327483,56.72417477494847,19.364613880742915
56.73835745383051,36,106,0,0.009000000000000001,56.724936143957585,13.421309872922777
56.74835745383051,56,71,0,0.04637579071233761,56.72946204816091,18.89540566959922
56.7631789515318,55,51,1,0.01009993876701861,56.74115549112124,22.023460410557185
56.774401105717374,45,98,1,0.009000000000000001,56.75972857394807,14.672531769305962
56.78440110571737,59,50,1,0.009000000000000001,56.762221242569765,22.179863147605083
56.799886110177546,77,55,0,0.02134911289911241,56.77848826071518,21.397849462365592
56.79440110571737,47,100,1,0.009000000000000001,56.78004137942216,14.359726295210166
56.80440110571737,54,98,1,0.028181574887169616,56.78972857394806,14.672531769305962
56.82360734673212,40,61,0,0.038157489801833123,56.80314791369204,20.459433040078203
56.83571396670311,62,99,1,0.03565659573083889,56.82119783767085,14.516129032258064
56.86600455762304,65,53,0,0.009000000000000001,56.84429390268658,21.71065493646139
56.87533240640404,68,95,1,0.01356002305921733,56.86019066642359,15.141739980449657
56.87600455762304,61,101,0,0.02392855691484676,56.86180123406488,14.203323558162268
56.89039909869206,53,59,1,0.07542868662162097,56.86962686017788,20.772238514174
56.90259184308398,51,71,0,0.010681795248178947,56.883696437414386,18.89540566959922
56.914460504470846,71,86,0,0.024494357774674357,56.897911139856966,16.549364613880744
56.94167645755382,80,92,0,0.03654644769033297,56.926065509362225,15.610948191593351
56.97420875049386,69,61,1,0.009000000000000001,56.95374931745378,20.459433040078203
56.98228362165419,46,58,0,0.009000000000000001,56.961354980402966,20.928641251221897
56.984208750493856,50,112,1,0.009000000000000001,56.97172585704322,12.482893450635387
56.99228362165419,54,103,0,0.030445634732039584,56.97839310357012,13.890518084066471
56.994208750493854,53,102,1,0.009000000000000001,56.98016182967274,14.04692082111437
57.00420875049385,75,106,1,0.01544205976544971,56.99078744062093,13.421309872922777
57.02611210468979,42,56,0,0.08882016919391167,57.00487065796447,21.241446725317694
57.02136659467769,71,105,1,0.04975920386247195,57.007788882067715,13.577712609970675
57.07665459896932,42,87,1,0.011762101515431552,57.06026163709249,16.392961876832846
57.08972360065313,59,55,1,0.009000000000000001,57.06832575119076,21.397849462365592
57.09972360065313,33,81,1,0.01563664039338594,57.08239222235401,17.331378299120235
57.11709764553467,31,82,1,0.009000000000000001,57.0999226699726,17.174975562072337
57.12709764553467,49,50,1,0.01682099361544371,57.10491778238706,22.179863147605083
57.12480118157191,66,86,0,0.04524795096835027,57.10825181695803,16.549364613880744
57.145787638440716,46,53,1,0.02732653226153869,57.12407698350425,21.71065493646139
57.175076682647855,70,102,0,0.026003189083751755,57.16102976182674,14.04692082111437
57.17615045206465,81,109,1,0.02684742141519075,57.163198350402865,12.952101661779082
57.20396911496314,74,96,0,0.009000000000000001,57.188983777719734,14.985337243401759
57.205980920303745,45,86,1,0.009000000000000001,57.189431555689865,16.549364613880744
57.213969114963135,73,69,0,0.051376173887665,57.19476090381944,19.208211143695017
57.21598092030374,51,72,1,0.009000000000000001,57.197241917371194,18.73900293255132
57.22598092030374,29,76,1,0.022796957492105006,57.20786752831938,18.113391984359726
57.25131087307275,76,50,1,0.015765877687155625,57.22913100992514,22.179863147605083
57.268828514947366,66,66,1,0.009000000000000001,57.249151095592524,19.67741935483871
57.2710537526161,39,52,0,0.08557371912425171,57.24918669494259,21.867057673509287
57.278828514947364,63,85,1,0.009000000000000001,57.262122747596436,16.705767350928642
57.28882851494736,63,75,1,0.04075367362981704,57.27055872022596,18.269794721407624
57.334110374536046,50,53,1,0.01214629016795929,57.31239971959958,21.71065493646139
57.34760625250045,56,68,1,0.009000000000000001,57.32824163861971,19.364613880742915
57.357606252500446,81,103,1,0.009250767290254182,57.34371573441638,13.890518084066471
57.366135662754154,67,60,0,0.02340920142899085,57.345519826977025,20.6158357771261
57.36788488282295,51,65,1,0.026390679931016972,57.34805106073106,19.83382209188661
57.392145886564144,47,80,0,0.009000000000000001,57.37465810552798,17.487781036168133
57.39720786052408,54,86,1,0.048402300850760666,57.3806584959102,16.549364613880744
57.40214588656414,53,97,0,0.06650543179451178,57.38731695205779,14.82893450635386
57.4509881948027,34,100,1,0.014556698565337409,57.436628468507486,14.359726295210166
57.467162304319736,78,57,1,0.014144012944670077,57.446077260331464,21.085043988269796
57.47604081078027,54,106,0,0.018748449364584426,57.462619500907344,13.421309872922777
57.48287787425826,70,69,1,0.009000000000000001,57.463669663114565,19.208211143695017
57.496872421185365,41,59,0,0.009000000000000001,57.47610018267119,20.772238514174
57.492877874258255,60,97,1,0.03888439194182232,57.4780489397519,14.82893450635386
57.50687242118536,70,87,0,0.031055644225308928,57.49047945930853,16.392961876832846
57.536082754193615,47,73,1,0.009000000000000001,57.517500153998114,18.58260019550342
57.541378692546814,52,75,0,0.03795641274754439,57.52310889782541,18.269794721407624
57.54608275419361,69,95,1,0.013298475987559904,57.53094101421316,15.141739980449657
57.560858838624235,53,83,1,0.009000000000000001,57.54384026579921,17.01857282502444
57.57085883862423,21,60,1,0.032565637913855736,57.550243002847104,20.6158357771261
57.58355248448853,32,68,0,0.11180089113097948,57.56418787060779,19.364613880742915
57.60704288075074,67,93,1,0.03148981666076805,57.591588335296194,15.454545454545453
57.64203156592937,87,58,1,0.010138906793666745,57.62110292467815,20.928641251221897
57.653297017922334,93,71,1,0.02092301728138725,57.63440161225274,18.89540566959922
57.67654481490165,65,86,1,0.04531882600414145,57.659995450287774,16.549364613880744
57.70777569685628,73,65,0,0.009431053381212749,57.68794187476439,19.83382209188661
57.71825464505763,30,66,0,0.06665006475136831,57.698577225702785,19.67741935483871
57.72689906601737,83,99,1,0.009000000000000001,57.71238293698511,14.516129032258064
57.736899066017365,55,105,1,0.013028286751829075,57.72332135340739,13.577712609970675
57.75137494018606,73,106,1,0.009000000000000001,57.737953630313136,13.421309872922777
57.76137494018606,57,103,1,0.02209786118012145,57.74748442210199,13.890518084066471
57.785928119275084,53,61,1,0.009000000000000001,57.765468686235,20.459433040078203
57.79592811927508,72,76,1,0.009000000000000001,57.777814727290725,18.113391984359726
57.79231027255915,64,106,0,0.06106304166462004,57.778888962686224,13.421309872922777
57.80592811927508,47,68,1,0.009000000000000001,57.78656350539434,19.364613880742915
57.81592811927508,53,77,1,0.01621464889690972,57.79797113002777,17.956989247311828
57.8339443958272,66,97,1,0.009000000000000001,57.81911546132085,14.82893450635386
57.8439443958272,64,96,1,0.009000000000000001,57.8289590585838,14.985337243401759
57.8539443958272,54,100,1,0.009000000000000001,57.83958466953199,14.359726295210166
57.8639443958272,46,53,1,0.009000000000000001,57.842233740890734,21.71065493646139
57.86015809663095,48,110,0,0.009000000000000001,57.84736239770621,12.795698924731184
57.870158096630945,62,68,0,0.01628351813392196,57.850793482750205,19.364613880742915
57.873944395827195,65,65,1,0.009000000000000001,57.854110573735305,19.83382209188661
57.88394439582719,74,82,1,0.015471030979559644,57.86676942026512,17.174975562072337
57.88825089455752,65,68,0,0.009000000000000001,57.86888628067678,19.364613880742915
57.89825089455752,80,58,0,0.009000000000000001,57.877322253306296,20.928641251221897
57.90113443024892,67,69,1,0.020341931138961895,57.88192621910523,19.208211143695017
57.90825089455752,54,90,0,0.009000000000000001,57.89232714089183,15.923753665689148
57.91825089455752,80,83,0,0.009000000000000001,57.90123232173249,17.01857282502444
57.923736575958884,54,51,1,0.02261625447370371,57.901713115548326,22.023460410557185
57.928250894557515,41,92,0,0.030523169154047586,57.91263994636592,15.610948191593351
57.94886574759633,69,54,1,0.009000000000000001,57.927311495396914,21.55425219941349
57.95886574759633,28,63,1,0.029807651770529714,57.93871912003034,20.146627565982406
57.9621655269509,74,85,0,0.026752586383296816,57.94545975959997,16.705767350928642
57.9919853606747,64,96,1,0.021578028806114598,57.977000023431295,14.985337243401759
57.99189062293234,58,111,0,0.04822528433120918,57.97925132674465,12.639296187683286
58.015960948237044,80,72,1,0.020701256123432255,57.997221945304496,18.73900293255132
58.03896234392975,68,96,1,0.0315921311077836,58.023977006686344,14.985337243401759
58.04547427218924,76,111,0,0.009000000000000001,58.03283497600155,12.639296187683286
58.05547427218924,77,92,0,0.11449560715137751,58.03986332399764,15.610948191593351
58.07406471182728,34,68,1,0.009094479621667532,58.054700097946544,19.364613880742915
58.08416968918469,90,106,1,0.011741045694894531,58.070748379311766,13.421309872922777
58.09721529551235,68,64,1,0.009000000000000001,58.07722507068341,19.990224828934508
58.10721529551235,64,75,1,0.02356107240702523,58.08894550079094,18.269794721407624
58.133394264853486,63,77,1,0.009000000000000001,58.115437275606176,17.956989247311828
58.143394264853484,74,54,1,0.009000000000000001,58.12184001265407,21.55425219941349
58.15339426485348,48,76,1,0.03356026536971941,58.135280872869124,18.113391984359726
58.18269161346854,57,98,0,0.009000000000000001,58.168019081699235,14.672531769305962
58.19068344859762,56,55,1,0.017306766417691924,58.16928559913525,21.397849462365592
58.19269161346854,62,73,0,0.06507343287809615,58.17410901327304,18.58260019550342
58.20991318906172,50,100,1,0.06220581005753127,58.19555346276651,14.359726295210166
58.264995427777535,34,69,0,0.026891210589357097,58.24578721663384,19.208211143695017
58.27903075579231,45,85,1,0.011751174055707607,58.262324988441385,16.705767350928642
58.29208761585421,53,50,1,0.05495365886702087,58.2699077527066,22.179863147605083
58.2948745506546,31,108,0,0.03877279319014835,58.28176604625577,13.10850439882698
58.33795543197699,61,96,0,0.07630210802482634,58.322970094733584,14.985337243401759
58.35314723681756,62,103,1,0.009000000000000001,58.339256718733495,13.890518084066471
58.36314723681756,45,112,1,0.012378867964881113,58.35066434336692,12.482893450635387
58.37690153455632,35,84,1,0.021704591799794587,58.36003936446834,16.86217008797654
58.4010177476672,49,55,1,0.009000000000000001,58.37961989820483,21.397849462365592
58.411017747667195,78,85,1,0.009000000000000001,58.39431198031627,16.705767350928642
58.422735552004575,58,54,0,0.009000000000000001,58.40118129980516,21.55425219941349
58.42101774766719,57,67,1,0.13631727451301376,58.401496731049406,19.521016617790814
58.43273555200457,63,95,0,0.009000000000000001,58.41759381202412,15.141739980449657
58.44273555200457,70,94,0,0.009000000000000001,58.42743740928707,15.298142717497555
58.45273555200457,81,59,0,0.009000000000000001,58.43196331349039,20.772238514174
58.46273555200457,38,64,0,0.046753895013147154,58.44274532717563,19.990224828934508
58.514684324241394,84,56,0,0.028521744869849246,58.493442877516074,21.241446725317694
58.54637515187456,35,106,0,0.009000000000000001,58.53295384200163,13.421309872922777
58.556375151874555,49,91,0,0.009000000000000001,58.540607800945914,15.76735092864125
58.572481386014985,55,67,1,0.009000000000000001,58.5529603693972,19.521016617790814
58.56637515187455,47,107,0,0.09086332167082112,58.553110244738676,13.264907135874878
58.58248138601498,55,106,1,0.03005566531257945,58.56906007614206,13.421309872922777
58.61587656969563,66,70,1,0.07049434096039635,58.596824761288985,19.05180840664712
58.66733439817546,54,111,0,0.018870700183236225,58.65469510198778,12.639296187683286
58.688301842823506,64,60,0,0.09002061501841153,58.66768600704638,20.6158357771261
58.69420361520718,55,104,1,0.009000000000000001,58.68046949986016,13.734115347018573
58.70420361520718,56,67,1,0.019299825363330237,58.68468259858939,19.521016617790814
58.72564786561088,41,78,1,0.025484235868464173,58.70784727910062,17.80058651026393
58.75396368324251,57,80,1,0.0865938895868402,58.736475902206344,17.487781036168133
58.78832474839952,55,100,0,0.009607981749426156,58.773965022104306,14.359726295210166
58.799000283676655,52,55,0,0.012833713494960208,58.77760243421429,21.397849462365592
58.81325996533772,60,76,0,0.01131011502925453,58.795146573353364,18.113391984359726
58.82582675981467,61,111,0,0.009000000000000001,58.81318746362698,12.639296187683286
58.835826759814665,54,53,0,0.04642721023602229,58.8141161048782,21.71065493646139
58.85017911611678,52,69,1,0.01335351236527089,58.830970904973086,19.208211143695017
58.865016352078186,66,84,1,0.02494399161529814,58.84815418199021,16.86217008797654
58.8874125489658,57,86,0,0.009000000000000001,58.87086318435192,16.549364613880744
58.89273189831741,65,68,1,0.03337371533033581,58.87336728443667,19.364613880742915
58.8974125489658,78,77,0,0.07132721882507649,58.87945555971849,17.956989247311828
58.929813804240005,54,67,1,0.009704278856115241,58.91029278762222,19.521016617790814
58.940596336302356,30,69,1,0.062239459441924834,58.921388125158664,19.208211143695017
58.97666501432699,59,95,0,0.03329105185832462,58.96152327434654,15.141739980449657
59.009751291237826,49,56,1,0.009000000000000001,58.98850984451251,21.241446725317694
59.01365507194735,80,54,0,0.009000000000000001,58.99210081974793,21.55425219941349
59.019751291237824,60,79,1,0.009000000000000001,59.00210710746461,17.64418377321603
59.023655071947346,39,83,0,0.012114806752469311,59.00663649912232,17.01857282502444
59.02975129123782,69,76,1,0.010841108827023589,59.011637899253465,18.113391984359726
59.03711596833898,80,77,0,0.15063895653714018,59.01915897909167,17.956989247311828
59.041796967712294,72,69,1,0.009000000000000001,59.0225887565686,19.208211143695017
59.05179696771229,58,58,1,0.028393420704410605,59.03086832646107,20.928641251221897
59.08334521293941,81,108,1,0.009000000000000001,59.070236708540584,13.10850439882698
59.09334521293941,57,82,1,0.03746913732112346,59.07617023737734,17.174975562072337
59.13497758774066,87,110,1,0.07061532015799558,59.12218188881592,12.795698924731184
59.20449258671358,58,87,0,0.04297191557336261,59.188099624836745,16.392961876832846
59.21343905458288,52,63,1,0.009000000000000001,59.19329242701689,20.146627565982406
59.223439054582876,68,75,1,0.02152225970411251,59.20516925986147,18.269794721407624
59.24735267647633,60,107,1,0.05119622137964714,59.234087769340455,13.264907135874878
59.252239159572866,85,89,0,0.05877342963283149,59.23615900317013,16.080156402737046
59.304237366898164,46,59,1,0.04476267163309807,59.28346512838399,20.772238514174
59.317542970276016,37,59,0,0.014586079197129563,59.29677073176184,20.772238514174
59.333749724939494,49,96,0,0.009000000000000001,59.31876438769609,14.985337243401759
59.34374972493949,49,81,0,0.0104135267738561,59.326418346640374,17.331378299120235
59.355320310243776,56,97,0,0.009000000000000001,59.34049137573742,14.82893450635386
59.35397366871272,43,110,1,0.009000000000000001,59.341177969787985,12.795698924731184
59.365320310243774,75,50,0,0.009000000000000001,59.34314044709617,22.179863147605083
59.36397366871272,65,60,1,0.047007257293587894,59.34335783293559,20.6158357771261
59.37532031024377,42,82,0,0.009000000000000001,59.3581453346817,17.174975562072337
59.38532031024377,94,76,0,0.009000000000000001,59.36720691825941,18.113391984359726
59.39532031024377,85,64,0,0.03418442847843528,59.37533008541483,19.990224828934508
59.41620395459448,54,78,1,0.009000000000000001,59.39840336808422,17.80058651026393
59.42620395459448,40,54,1,0.01744657121618246,59.40464970239506,21.55425219941349
59.43330300855314,53,86,0,0.045289970987207134,59.41675364393926,16.549364613880744
59.44558903372357,76,67,1,0.009000000000000001,59.426068017105784,19.521016617790814
59.45558903372357,37,89,1,0.0458847415335543,59.43950887732083,16.080156402737046
59.483625198538924,69,101,0,0.009000000000000001,59.46942187498076,14.203323558162268
59.49362519853892,40,66,0,0.014504862770337244,59.47394777918408,19.67741935483871
59.506572079871965,60,68,1,0.009000000000000001,59.487207465991226,19.364613880742915
59.509741712728186,51,80,0,0.05447232246347494,59.49225393169202,17.487781036168133
59.51657207987196,47,61,1,0.009526112910558625,59.49611264683188,20.459433040078203
59.527156649772586,60,55,1,0.016474783745195537,59.50575880031022,21.397849462365592
59.54546196504503,68,71,1,0.01847306810753035,59.52656655937543,18.89540566959922
59.56598759627562,39,61,1,0.0369890457328892,59.54552816323554,20.459433040078203
59.57026651546538,89,89,0,0.009000000000000001,59.55418635906264,16.080156402737046
59.580266515465375,59,80,0,0.011996753483702195,59.56277873442921,17.487781036168133
59.59359624155838,62,107,0,0.0225279710870073,59.5803313344225,13.264907135874878
59.60708653597883,55,66,1,0.027956573298133402,59.58740911662399,19.67741935483871
59.61862732054394,86,86,0,0.0435654936191608,59.60207795593006,16.549364613880744
59.63814939519898,50,79,1,0.027830601093987883,59.620505211425765,17.64418377321603
59.66703342456523,54,62,0,0.018305908993061944,59.6467303942622,20.303030303030305
59.66907228530341,44,108,1,0.05475830596831947,59.65596378090458,13.10850439882698
59.687373323446415,64,70,0,0.01683455976493165,59.66832151503977,19.05180840664712
59.706078389851896,57,83,0,0.08213588333681807,59.68905981702687,17.01857282502444
59.72991484749043,45,81,1,0.009000000000000001,59.71258346919131,17.331378299120235
59.739914847490425,54,106,1,0.011784761131745754,59.7264935376175,13.421309872922777
59.753009026525696,57,106,1,0.050771748537911415,59.73958771665277,13.421309872922777
59.79734048244836,43,73,0,0.026957745140541924,59.77875788225286,18.58260019550342
59.809422080456706,23,50,1,0.03137850808919371,59.7872422173091,22.179863147605083
59.82729353260452,61,88,0,0.009000000000000001,59.81105697346474,16.236559139784944
59.83729353260452,49,60,0,0.015988584821835926,59.81667769682739,20.6158357771261
59.8442870894447,38,62,1,0.009000000000000001,59.823984059141665,20.303030303030305
59.854287089444696,53,90,1,0.009000000000000001,59.83836333577901,15.923753665689148
59.855058626851005,70,107,0,0.014078756541940228,59.84179371971513,13.264907135874878
59.864287089444694,66,80,1,0.009000000000000001,59.84679930840853,17.487781036168133
59.870701689675386,68,55,0,0.03346190863351409,59.84930384021302,21.397849462365592
59.87428708944469,65,111,1,0.010270961809883156,59.861647793257006,12.639296187683286
59.88569926923345,49,60,1,0.009000000000000001,59.86508343345632,20.6158357771261
59.89569926923345,45,106,1,0.009107078250398621,59.88227795936052,13.421309872922777
59.90581824506722,70,53,1,0.018240687430539408,59.88410759013076,21.71065493646139
59.90788158815707,21,91,0,0.11263924321513699,59.89211423722843,15.76735092864125
59.9260856755456,57,85,1,0.009000000000000001,59.90937990819467,16.705767350928642
59.9360856755456,58,90,1,0.01825085434572062,59.92016192187991,15.923753665689148
59.9563644025964,52,89,1,0.022863711527909874,59.94028424619366,16.080156402737046
59.9817685265163,57,58,1,0.009000000000000001,59.960839885265074,20.928641251221897
59.991768526516296,47,79,1,0.056307696303663765,59.97412434274308,17.64418377321603
60.03303630284055,46,110,0,0.009073026722324386,60.020240603915816,12.795698924731184
60.04311744364313,63,90,0,0.009000000000000001,60.027193689977445,15.923753665689148
60.05433263352037,59,69,1,0.009000000000000001,60.035124422376676,19.208211143695017
60.05311744364313,73,92,0,0.009000000000000001,60.03750649545154,15.610948191593351
60.06311744364313,70,105,0,0.025736742518314523,60.04953973103316,13.577712609970675
60.064332633520365,83,104,1,0.0319052428800448,60.050598518173345,13.734115347018573
60.091713824219035,42,111,0,0.009000000000000001,60.07907452803135,12.639296187683286
60.09978290338708,61,97,1,0.021341290318827845,60.084953968880725,14.82893450635386
60.10171382421903,48,95,0,0.01331900443730041,60.08657208423858,15.141739980449657
60.11651271803826,49,67,0,0.031166384173479753,60.09699170142047,19.521016617790814
60.12349544818578,51,64,1,0.009000000000000001,60.10350522335684,19.990224828934508
60.133495448185776,21,50,1,0.0408809774524464,60.11131558503817,22.179863147605083
60.15114203378657,48,64,0,0.014297720691681108,60.13115180895763,19.990224828934508
60.16702839011066,40,50,0,0.009000000000000001,60.14484852696305,22.179863147605083
60.178918756466274,40,72,1,0.03267501032608276,60.160179753533725,18.73900293255132
60.17702839011066,41,101,0,0.030785885763472683,60.16282506655249,14.203323558162268
60.21123492984785,66,88,0,0.009000000000000001,60.19499837070806,16.236559139784944
60.215224323495256,77,109,1,0.014857200174249501,60.202272221833475,12.952101661779082
60.221234929847846,52,88,0,0.009000000000000001,60.20499837070806,16.236559139784944
60.23173232368887,75,74,1,0.01446931092580894,60.213306126230414,18.426197458455523
60.231234929847844,79,100,0,0.009976402600525557,60.21687520355263,14.359726295210166
60.247809335828656,39,57,1,0.05866346970072952,60.226724291840384,21.085043988269796
60.242319821626204,50,109,0,0.013808344820716193,60.22936771996442,12.952101661779082
60.257662426982556,58,106,0,0.014084691740236749,60.24424111710963,13.421309872922777
60.273312084471705,83,55,0,0.0643511219186661,60.25191423500934,21.397849462365592
60.31299096882947,74,72,1,0.03529470457122881,60.29425196589692,18.73900293255132
60.344813331048,67,62,0,0.0744284797162462,60.32451030074497,20.303030303030305
60.35220730724195,38,87,1,0.02062290224461918,60.335814345365115,16.392961876832846
60.3751216430693,57,75,1,0.009000000000000001,60.356851848347894,18.269794721407624
60.3851216430693,83,101,1,0.015101937108646081,60.370918319511134,14.203323558162268
60.40190157319002,53,52,1,0.028162346975865084,60.380034515516506,21.867057673509287
60.42751164184383,68,103,0,0.04415491532615124,60.41362112375976,13.890518084066471
60.43319306982987,71,102,1,0.009000000000000001,60.41914614900875,14.04692082111437
60.44319306982987,60,68,1,0.0352922803548902,60.42382845594913,19.364613880742915
60.47657265887288,61,85,0,0.009214946434785199,60.459866891521955,16.705767350928642
60.482406714668635,41,51,1,0.010713425190507518,60.460383254258076,22.023460410557185
60.48681148824487,42,51,0,0.027973629416541457,60.46478802783431,22.023460410557185
60.49431052043587,58,65,1,0.0560467611971071,60.47447669834398,19.83382209188661
60.51789329870769,60,108,0,0.08715836217093706,60.50478479430886,13.10850439882698
60.55658469954376,86,106,1,0.009000000000000001,60.54316338967084,13.421309872922777
60.56658469954376,72,88,1,0.009000000000000001,60.550348140403976,16.236559139784944
60.57658469954376,66,97,1,0.009000000000000001,60.561755765037404,14.82893450635386
60.58658469954376,53,73,1,0.009000000000000001,60.568002099348256,18.58260019550342
60.596584699543754,49,100,1,0.014559736387403073,60.58222497324854,14.359726295210166
60.61276218441865,48,61,1,0.009000000000000001,60.59230275137857,20.459433040078203
60.61473592334207,55,101,0,0.02960431505444504,60.600532599783904,14.203323558162268
60.62276218441865,54,54,1,0.013396977967865223,60.60120793221923,21.55425219941349
60.637647715494055,68,96,1,0.009000000000000001,60.62266237825065,14.985337243401759
60.64764771549405,66,80,1,0.015274335416506307,60.630159934457886,17.487781036168133
60.6476296067359,29,81,0,0.009000000000000001,60.63029822843678,17.331378299120235
60.657629606735895,91,92,0,0.009000000000000001,60.6420186585443,15.610948191593351
60.66762960673589,58,59,0,0.018889438731780964,60.64685736822172,20.772238514174
60.66461919929017,79,111,1,0.009000000000000001,60.651979903102486,12.639296187683286
60.67461919929017,66,67,1,0.009234101152590162,60.65509818267238,19.521016617790814
60.68861787199343,83,60,0,0.028211067534432335,60.6680020362163,20.6158357771261
60.68487931168194,46,86,1,0.01682670506910623,60.66832994706806,16.549364613880744
60.703575650647615,52,78,1,0.011266177931478051,60.68577506413735,17.80058651026393
60.716093626127034,70,91,1,0.014729850239691663,60.70032627519839,15.76735092864125
60.71996350258724,43,110,0,0.055587932155131574,60.70716780366251,12.795698924731184
60.732460126393356,84,59,1,0.029255381342884943,60.71168788787918,20.772238514174
60.76496610566323,42,73,1,0.05150654372789902,60.746383505467726,18.58260019550342
60.7817278716485,65,54,0,0.019725381230808497,60.760173619449084,21.55425219941349
60.80364496190495,71,101,0,0.026614682519690507,60.78944163834679,14.203323558162268
60.82219559869423,75,82,1,0.02496382805306711,60.80502062313216,17.174975562072337
60.833216831371274,50,81,0,0.10423968608170472,60.815885453072156,17.331378299120235
60.84993318541986,59,80,1,0.05073498956320195,60.83244540438369,17.487781036168133
60.90630539604564,63,65,1,0.012872234863526117,60.88647157395375,19.83382209188661
60.92060787922733,56,106,1,0.043886845305795175,60.90718656935441,13.421309872922777
60.94903870479539,51,84,0,0.01638603992744307,60.932176534707416,16.86217008797654
60.967245415825886,65,55,0,0.02133549732012952,60.94584756636352,21.397849462365592
60.96937104067822,90,98,1,0.05479674818013808,60.95469850890891,14.672531769305962
60.99095152395936,68,58,0,0.014613952152637272,60.970022882708136,20.928641251221897
61.007189248573404,54,56,0,0.03436976493064064,60.985947801848084,21.241446725317694
61.03025631643393,63,87,1,0.009000000000000001,61.013863354557095,16.392961876832846
61.040256316433926,41,61,1,0.009000000000000001,61.019796883393845,20.459433040078203
61.04537787627412,77,64,0,0.026348647091738335,61.02538765144518,19.990224828934508
61.050256316433924,59,77,1,0.009000000000000001,61.032299327186614,17.956989247311828
61.06025631643392,60,61,1,0.01863305847421875,61.03979688339384,20.459433040078203
61.07465415082049,51,64,0,0.027524787151800827,61.054663925991555,19.990224828934508
61.08095971473861,47,89,1,0.016290295488998383,61.064879558335875,16.080156402737046
61.10523724765583,63,57,0,0.03376556149799709,61.08415220366756,21.085043988269796
61.09906004305972,47,97,1,0.015531808549202854,61.08423110855337,14.82893450635386
61.11631760811439,78,80,1,0.01082481647003746,61.09882982707823,17.487781036168133
61.12834518196999,37,55,1,0.019939835328555568,61.10694733250762,21.397849462365592
61.14275453820916,75,60,0,0.015061022712675471,61.12213870243203,20.6158357771261
61.150500554557276,74,107,1,0.009000000000000001,61.1372356474214,13.264907135874878
61.15948900788991,53,81,0,0.03253859388283788,61.14215762959079,17.331378299120235
61.160500554557274,54,87,1,0.022315755832376098,61.14410759268044,16.392961876832846
61.18529583881547,46,52,1,0.03446620809209061,61.16342878114196,21.867057673509287
61.19564300109306,63,108,0,0.045505119080364836,61.18253449669423,13.10850439882698
61.22359162558446,38,54,1,0.009000000000000001,61.202037373385046,21.55425219941349
61.23359162558446,70,65,1,0.009000000000000001,61.21375780349257,19.83382209188661
61.24620424451569,60,74,0,0.01945498778344683,61.227778047057235,18.426197458455523
61.24359162558446,84,107,1,0.04071769168577514,61.23032671844858,13.264907135874878
61.26782089760841,69,80,0,0.05090072464626819,61.25033311657224,17.487781036168133
61.28883350523532,50,61,1,0.010010198747575316,61.268374072195236,20.459433040078203
61.29995594828818,62,85,1,0.013898562862040003,61.28325018093725,16.705767350928642
61.31539879591267,53,57,1,0.045441519197191096,61.2943137519244,21.085043988269796
61.324377258326486,78,101,0,0.01723880807740522,61.31017393476832,14.203323558162268
61.343531489523606,59,70,0,0.01395115796477601,61.32447968111696,19.05180840664712
61.35903277615113,37,99,0,0.018282568224897294,61.34451664711887,14.516129032258064
61.36588937279844,56,80,1,0.01457946199694569,61.348401591762276,17.487781036168133
61.37934674084546,66,70,0,0.017994735571276833,61.36029493243882,19.05180840664712
61.38208877501727,74,67,1,0.009000000000000001,61.362567758399486,19.521016617790814
61.39208877501727,58,78,1,0.009000000000000001,61.37428818850701,17.80058651026393
61.40208877501727,62,60,1,0.02124207313205293,61.38147293924014,20.6158357771261
61.399340891480215,46,78,0,0.009000000000000001,61.38154030496995,17.80058651026393
61.40934089148021,52,52,0,0.009905001343305022,61.3874738338067,21.867057673509287
61.42034644852833,92,72,0,0.010538060316204743,61.40160744559578,18.73900293255132
61.42569107849733,69,89,1,0.012722698385203655,61.40961092209459,16.080156402737046
61.43982741003644,65,57,1,0.021111777487070275,61.41874236604817,21.085043988269796
61.432055404435225,87,110,0,0.016009512490151177,61.41925970551049,12.795698924731184
61.449843751646505,47,78,0,0.012791743295154596,61.43204316513624,17.80058651026393
61.46328494057763,65,66,1,0.0556459820653687,61.44360752122279,19.67741935483871
61.464056799752235,47,62,0,0.03847821222765861,61.4437537694492,20.303030303030305
61.50681036889408,59,98,0,0.033357154022375574,61.49213783712477,14.672531769305962
61.52511380953915,52,94,1,0.051776327244201614,61.50981566682165,15.298142717497555
61.54387387336339,54,85,0,0.011167133050134772,61.52716810601246,16.705767350928642
61.55628179897465,54,104,0,0.009000000000000001,61.54254768362763,13.734115347018573
61.56628179897465,66,95,0,0.011736404461922787,61.5511400589942,15.141739980449657
61.57932224837678,59,55,0,0.010382144255741644,61.557924398914416,21.397849462365592
61.58264306203271,55,88,1,0.026760458017371185,61.566406502892924,16.236559139784944
61.5908579642165,40,108,0,0.009000000000000001,61.57774945981767,13.10850439882698
61.600857964216495,70,84,0,0.1012585050925673,61.58399579412852,16.86217008797654
61.612376904274235,38,56,1,0.028056692024277005,61.591135457548916,21.241446725317694
61.64355100652343,55,101,1,0.06261811601190607,61.62934768296527,14.203323558162268
61.713126690981106,68,78,1,0.01394630425296975,61.695326104470844,17.80058651026393
61.71336741431935,57,93,0,0.009000000000000001,61.697912868864805,15.454545454545453
61.72336741431935,54,57,0,0.029040791919080516,61.702282370331076,21.085043988269796
61.72862258459552,83,75,1,0.009000000000000001,61.710352789874115,18.269794721407624
61.73862258459552,68,93,1,0.018941901224033605,61.72316803914097,15.454545454545453
61.75966914151111,34,65,1,0.023707349493164942,61.73983531941922,19.83382209188661
61.7556349608961,62,112,0,0.009000000000000001,61.743152067445465,12.482893450635387
61.7656349608961,60,68,0,0.04376353086135271,61.74627034701536,19.364613880742915
61.786010640947964,55,105,1,0.012595673269716627,61.77243292833799,13.577712609970675
61.800005833469875,54,79,1,0.0090757878004785,61.78236164969666,17.64418377321603
61.81426110629761,82,67,0,0.009000000000000001,61.79474008967982,19.521016617790814
61.81009004213708,63,98,1,0.09144689967981534,61.79541751036777,14.672531769305962
61.824261106297605,63,54,0,0.01273208741026672,61.80270685409819,21.55425219941349
61.83840787008679,84,56,0,0.009000000000000001,61.81716642336147,21.241446725317694
61.84840787008679,62,100,0,0.014268916178567638,61.83404814379158,14.359726295210166
61.86426222139631,68,72,0,0.016957651698429086,61.84552321846376,18.73900293255132
61.88310405661679,64,60,0,0.009000000000000001,61.86248822083966,20.6158357771261
61.893104056616785,65,80,0,0.01938529686860185,61.87561627558062,17.487781036168133
61.91169770844798,36,75,1,0.009000000000000001,61.893427913726576,18.269794721407624
61.91464327535967,61,83,0,0.026488982429539523,61.89762470253465,17.01857282502444
61.92169770844798,60,98,1,0.02891484273841635,61.90702517667867,14.672531769305962
61.94407547805916,69,53,0,0.009000000000000001,61.9223648231227,21.71065493646139
61.95382531149066,62,73,1,0.009000000000000001,61.93524271129516,18.58260019550342
61.95407547805916,49,102,0,0.009000000000000001,61.940028557238044,14.04692082111437
61.96407547805916,66,68,0,0.009000000000000001,61.94471086417842,19.364613880742915
61.96382531149066,71,87,1,0.013307536125506128,61.94743234961383,16.392961876832846
61.974075478059156,39,80,0,0.009000000000000001,61.95658769702299,17.487781036168133
61.97861146274122,79,61,1,0.01566931541807885,61.95815202970114,20.459433040078203
61.984075478059154,49,111,0,0.014127721475874282,61.97143618187147,12.639296187683286
61.99602181320575,21,83,1,0.03198309221241721,61.97900324038073,17.01857282502444
61.99977294636568,51,102,0,0.009000000000000001,61.985726025544565,14.04692082111437
62.00977294636568,62,82,0,0.019367481354382394,61.99259797080361,17.174975562072337
62.03155858233066,57,58,1,0.009000000000000001,62.010629941079436,20.928641251221897
62.03129237009277,53,69,0,0.02226449741574741,62.01208415894908,19.208211143695017
62.04155858233066,67,57,1,0.01394930510314999,62.02047353834239,21.085043988269796
62.056030700554714,52,63,0,0.02430438838740159,62.03588407298873,20.146627565982406
62.05705781022305,51,75,1,0.05189001857192688,62.038788015501645,18.269794721407624
62.083035576540716,68,68,0,0.009000000000000001,62.06367096265998,19.364613880742915
62.093035576540714,69,59,0,0.009000000000000001,62.07226333802654,20.772238514174
62.10303557654071,78,108,0,0.032277095145143236,62.08992707214188,13.10850439882698
62.11471338641408,48,99,1,0.009224297771596212,62.10019725738182,14.516129032258064
62.1249626061603,51,81,1,0.01163437576563511,62.107631227861184,17.331378299120235
62.13889901559087,69,59,0,0.03179033163709821,62.1181267770767,20.772238514174
62.137889690344345,48,88,1,0.009000000000000001,62.12165313120456,16.236559139784944
62.14788969034434,64,107,1,0.01592508707712433,62.134624783208466,13.264907135874878
62.165584231541146,62,65,1,0.055751592902831104,62.145750409449256,19.83382209188661
62.17422160629876,53,54,0,0.009000000000000001,62.15266735409934,21.55425219941349
62.184221606298756,67,75,0,0.03280409625419005,62.16595181157735,18.269794721407624
62.22067060213674,49,109,0,0.06820819451556817,62.20771850047496,12.952101661779082
62.227530445877626,69,110,1,0.009000000000000001,62.21473474695289,12.795698924731184
62.237530445877624,55,56,1,0.03744496120437927,62.216288999152304,21.241446725317694
62.27913595832693,57,77,1,0.056236508310580385,62.26117896907962,17.956989247311828
62.29645748493182,63,71,0,0.009000000000000001,62.277562079262225,18.89540566959922
62.30645748493182,59,57,0,0.013894202545160583,62.28537244094355,21.085043988269796
62.321895487759775,50,71,0,0.013835991888290863,62.30300008209018,18.89540566959922
62.3372688120801,53,72,0,0.04001672784325719,62.31852980914755,18.73900293255132
62.341620967560914,59,83,1,0.009000000000000001,62.32460239473589,17.01857282502444
62.35162096756091,95,104,1,0.009000000000000001,62.33788685221389,13.734115347018573
62.36162096756091,51,77,1,0.02070358610855688,62.3436639783136,17.956989247311828
62.38173184301705,65,59,0,0.012619048111322879,62.360959604502874,20.772238514174
62.384624952125975,32,52,1,0.03267814207605923,62.362757894452464,21.867057673509287
62.395753007585185,46,72,0,0.04324684986134765,62.37701400465264,18.73900293255132
62.42093399887715,64,103,1,0.021082562037113253,62.407043480793085,13.890518084066471
62.443805062986684,69,89,0,0.009000000000000001,62.42772490658395,16.080156402737046
62.44435906780728,65,107,1,0.009000000000000001,62.4310941606714,13.264907135874878
62.45380506298668,79,106,0,0.009000000000000001,62.44038375311376,13.421309872922777
62.454359067807275,64,106,1,0.009000000000000001,62.44093775793435,13.421309872922777
62.46435906780727,50,52,1,0.009000000000000001,62.44249201013376,21.867057673509287
62.46380506298668,32,60,0,0.021806791745199058,62.44318922720955,20.6158357771261
62.47435906780727,61,77,1,0.02432877645837972,62.45640207855996,17.956989247311828
62.48803483159246,66,90,0,0.012850558816417444,62.47211107792677,15.923753665689148
62.50139104164992,68,50,1,0.009000000000000001,62.47921117850231,22.179863147605083
62.502313230277366,75,105,0,0.054433750622067956,62.48873551766739,13.577712609970675
62.511391041649915,44,54,1,0.03129801686765991,62.4898367894505,21.55425219941349
62.546166615947314,55,72,1,0.009000000000000001,62.527427613014765,18.73900293255132
62.55616661594731,23,110,1,0.009000000000000001,62.54337091702258,12.795698924731184
62.562795175412994,61,96,0,0.06812475697425721,62.54780983816959,14.985337243401759
62.56616661594731,59,104,1,0.019589205770165125,62.55243250060029,13.734115347018573
62.58793240013638,54,55,1,0.009000000000000001,62.566534550674014,21.397849462365592
62.59793240013638,79,53,1,0.02711827843575053,62.576221745199916,21.71065493646139
62.62806382062055,89,88,1,0.009000000000000001,62.61182726148076,16.236559139784944
62.638063820620545,106,67,1,0.009000000000000001,62.61854280400276,19.521016617790814
62.63848934982884,46,87,0,0.03818860646636732,62.622096387952006,16.392961876832846
62.64806382062054,64,102,1,0.05660211123552832,62.63401689979943,14.04692082111437
62.68092113479147,69,55,0,0.009000000000000001,62.6595232853291,21.397849462365592
62.690921134791466,73,60,0,0.016828192155446762,62.67030529901434,20.6158357771261
62.709619126075296,59,84,0,0.011115901991022319,62.69275695598732,16.86217008797654
62.710955055326686,41,111,1,0.024465840022871947,62.698315759139,12.639296187683286
62.721970128287545,56,91,0,0.026095127107771097,62.706202777358904,15.76735092864125
62.73813932201877,59,80,1,0.009000000000000001,62.7206515409826,17.487781036168133
62.748139322018766,46,76,1,0.009000000000000001,62.73002593003441,18.113391984359726
62.750964713962844,54,103,0,0.04886100171144936,62.737074195878776,13.890518084066471
62.75813932201876,65,105,1,0.009000000000000001,62.74456160940879,13.577712609970675
62.76813932201876,74,51,1,0.009000000000000001,62.7461158616082,22.023460410557185
62.77813932201876,49,82,1,0.06504951585809282,62.76096434645669,17.174975562072337
62.80525471586446,55,110,0,0.009000000000000001,62.79245901693972,12.795698924731184
62.815254715864455,65,56,0,0.04991145956603481,62.794013269139136,21.241446725317694
62.85041656186109,51,111,1,0.009000000000000001,62.8377772656734,12.639296187683286
62.860416561861086,57,90,1,0.009000000000000001,62.8444928081954,15.923753665689148
62.87071189316005,60,89,0,0.009748733982146653,62.85463173675731,16.080156402737046
62.870416561861084,36,93,1,0.011163330543642146,62.85496201640654,15.454545454545453
62.88282026246513,102,62,1,0.009000000000000001,62.8625172321621,20.303030303030305
62.88154381980688,93,90,0,0.011631424041812636,62.86562006614119,15.923753665689148
62.89446762429778,77,72,0,0.009000000000000001,62.87572862136523,18.73900293255132
62.89282026246513,48,85,1,0.009000000000000001,62.8761144951142,16.705767350928642
62.90446762429778,67,85,0,0.05010804393384473,62.88776185694685,16.705767350928642
62.90282026246513,69,103,1,0.009000000000000001,62.88892974438106,13.890518084066471
62.912820262465125,27,64,1,0.05442169688946091,62.89283003763619,19.990224828934508
62.96014322866872,53,94,0,0.03877936500592372,62.94484508595122,15.298142717497555
62.973288814564526,64,66,1,0.009000000000000001,62.953611395209684,19.67741935483871
62.983288814564524,70,74,1,0.02027554511832271,62.96486261710607,18.426197458455523
63.00323141200864,75,77,0,0.009000000000000001,62.98527442276133,17.956989247311828
63.00581719802933,60,80,1,0.022599514169588202,62.98832941699316,17.487781036168133
63.013231412008636,62,78,0,0.091770923066992,62.995430825498374,17.80058651026393
63.03092776932887,55,79,1,0.013719834632182473,63.013283585555655,17.64418377321603
63.04617203003129,34,108,1,0.023413585732254657,63.033063525632464,13.10850439882698
63.072187125289354,59,84,1,0.009000000000000001,63.05532495520138,16.86217008797654
63.08218712528935,51,97,1,0.009000000000000001,63.067358190783,14.82893450635386
63.09218712528935,65,78,1,0.08009026069404772,63.07438653877909,17.80058651026393
63.1151991043053,67,69,0,0.009000000000000001,63.095990893161606,19.208211143695017
63.125199104305295,58,105,0,0.05469382624642811,63.11162139169532,13.577712609970675
63.185970022356884,63,69,0,0.011638887780173652,63.16676181121319,19.208211143695017
63.18117630383829,70,103,1,0.014850772488705706,63.167285785754224,13.890518084066471
63.19890211989041,53,77,0,0.04124266144251341,63.1809451306431,17.956989247311828
63.197677162159074,58,86,1,0.0124896426398357,63.181127797545194,16.549364613880744
63.211554542870005,24,106,1,0.009000000000000001,63.19813323299708,13.421309872922777
63.22155454287,48,87,1,0.02141023956673958,63.20516158099317,16.392961876832846
63.24534369794416,63,54,1,0.009000000000000001,63.22378944574474,21.55425219941349
63.244727299270984,51,77,0,0.017930874387472307,63.226770310023674,17.956989247311828
63.255343697944156,83,55,1,0.014305880032626287,63.23394584848179,21.397849462365592
63.26465049303484,79,72,0,0.012741575281747873,63.245911490102294,18.73900293255132
63.27123912020263,34,60,1,0.01076486432596949,63.2506232844255,20.6158357771261
63.27880779890345,52,82,0,0.02015375193033479,63.26163282334138,17.174975562072337
63.28320008056482,87,70,1,0.08305989851366997,63.264148272158174,19.05180840664712
63.30120085660382,77,66,0,0.029993464982702053,63.28152343724898,19.67741935483871
63.334526928806824,62,86,0,0.009000000000000001,63.317977564192944,16.549364613880744
63.34452692880682,64,51,0,0.028169886227202505,63.32250346839626,22.023460410557185
63.3758268023926,105,72,0,0.02599031475173147,63.357087799460054,18.73900293255132
63.37548885669112,68,110,1,0.009000000000000001,63.36269315776639,12.795698924731184
63.38548885669112,87,51,1,0.009000000000000001,63.36346539628056,22.023460410557185
63.39548885669112,45,83,1,0.031732542186251,63.37847028386609,17.01857282502444
63.40470492989453,69,62,0,0.009000000000000001,63.384401899591495,20.303030303030305
63.414704929894526,46,53,0,0.08128994142211926,63.39299427495806,21.71065493646139
63.430747236898064,64,65,1,0.009000000000000001,63.410913414806174,19.83382209188661
63.44074723689806,69,93,1,0.009000000000000001,63.425292691443516,15.454545454545453
63.45074723689806,34,63,1,0.01622018070814052,63.430600609332075,20.146627565982406
63.4687696599071,41,110,1,0.02114398001386785,63.45597396098237,12.795698924731184
63.492262971033625,38,77,1,0.009000000000000001,63.474305981786316,17.956989247311828
63.50226297103362,87,101,1,0.009000000000000001,63.48805964747546,14.203323558162268
63.505027087030214,23,94,0,0.009000000000000001,63.489728944312716,15.298142717497555
63.51226297103362,31,61,1,0.012678629751558528,63.49180353799354,20.459433040078203
63.51502708703021,35,96,0,0.02085467335894241,63.50004174978681,14.985337243401759
63.52635033742424,66,94,1,0.009000000000000001,63.51105219470674,15.298142717497555
63.53819894631793,60,61,0,0.009000000000000001,63.517739513277846,20.459433040078203
63.53635033742424,46,75,1,0.009000000000000001,63.51808054270283,18.269794721407624
63.546350337424236,83,72,1,0.012091416139514193,63.52761133449169,18.73900293255132
63.548198946317925,45,90,0,0.01667265783344955,63.532275192652236,15.923753665689148
63.559785244245916,76,91,1,0.009000000000000001,63.544017893317275,15.76735092864125
63.569785244245914,41,78,1,0.009000000000000001,63.55198465773565,17.80058651026393
63.566724121688424,47,101,0,0.028420264821533824,63.55252079813026,14.203323558162268
63.57978524424591,57,64,1,0.009000000000000001,63.559795019416974,19.990224828934508
63.58978524424591,63,57,1,0.009000000000000001,63.56870020025764,21.085043988269796
63.59978524424591,39,94,1,0.019466194622453664,63.58448710152841,15.298142717497555
63.59830219371235,57,111,0,0.014601173738808627,63.585662897524664,12.639296187683286
63.61452572008881,55,94,0,0.02448847737820617,63.59922757737131,15.298142717497555
63.621414349381965,78,66,1,0.015562648469638129,63.60173693002712,19.67741935483871
63.638706181014896,61,77,1,0.020088298011074316,63.62074919176759,17.956989247311828
63.64173513939792,51,85,0,0.009000000000000001,63.625029372046995,16.705767350928642
63.65173513939792,60,110,0,0.0684560966686753,63.63893944047319,12.795698924731184
63.661026512138314,44,87,1,0.009000000000000001,63.64463355026148,16.392961876832846
63.67102651213831,39,66,1,0.03914852125258716,63.65134909278347,19.67741935483871
63.71452486908563,52,72,1,0.012464687581598898,63.69578586615308,18.73900293255132
63.72837452195407,39,73,1,0.04679904699658521,63.70979192175857,18.58260019550342
63.72779746902978,70,92,0,0.020998736462089482,63.71218652083819,15.610948191593351
63.751129398432106,59,79,0,0.009000000000000001,63.73348521465889,17.64418377321603
63.761129398432104,22,86,0,0.009000000000000001,63.744580033818224,16.549364613880744
63.7711293984321,34,60,0,0.011913849433917227,63.75051356265497,20.6158357771261
63.78037346306139,38,90,1,0.03458834057984643,63.7644497093957,15.923753665689148
63.78436700891423,67,71,0,0.018916574115014878,63.765471603244634,18.89540566959922
63.80538542459758,74,107,0,0.07401907064422318,63.792120517461704,13.264907135874878
63.81880495259455,75,52,1,0.018182258746976692,63.79693789492104,21.867057673509287
63.83900746231341,51,82,1,0.03906909120557864,63.82183248675134,17.174975562072337
63.88241756365294,91,50,1,0.009697026931151258,63.86023770050534,22.179863147605083
63.8876288364245,63,83,0,0.009000000000000001,63.870610263599474,17.01857282502444
63.89319203802089,59,77,1,0.03918093539643765,63.87523504877358,17.956989247311828
63.897628836424495,73,65,0,0.009000000000000001,63.877795014332605,19.83382209188661
63.90762883642449,73,96,0,0.01661777021894475,63.89264349918109,14.985337243401759
63.92609302555665,90,85,0,0.009000000000000001,63.909387258205726,16.705767350928642
63.9367264106836,57,81,1,0.009000000000000001,63.91939503238448,17.331378299120235
63.93609302555665,82,93,0,0.009000000000000001,63.920638480102106,15.454545454545453
63.94609302555665,52,67,0,0.12613326653298387,63.92657200893886,19.521016617790814
63.946726410683596,43,92,1,0.009869014259509538,63.931115462492,15.610948191593351
63.95769198208305,61,100,1,0.010429401455192172,63.94333225578784,14.359726295210166
63.96928020592215,67,74,1,0.009000000000000001,63.9508540084637,18.426197458455523
63.97928020592215,76,54,1,0.009000000000000001,63.957725953722736,21.55425219941349
63.98928020592215,63,103,1,0.009000000000000001,63.97538968783808,13.890518084066471
64.0,62,80,0,0.06,63.982512218963834,17.487781036168133
64.0,60,80,1,0.045000000000000005,63.982512218963834,17.487781036168133
63.99928020592215,67,102,1,0.009000000000000001,63.98523328510103,14.04692082111437
64.05,62,80,1,0.045000000000000005,64.03251221896383,17.487781036168133
64.06666666666666,53,80,0,0.06,64.0491788856305,17.487781036168133
64.1,72,80,1,0.045000000000000005,64.08251221896383,17.487781036168133
64.13333333333333,48,80,0,0.06,64.11584555229716,17.487781036168133
64.14999999999999,53,80,1,0.045000000000000005,64.13251221896383,17.487781036168133
64.19999999999999,33,80,0,0.06,64.18251221896382,17.487781036168133
64.19999999999999,48,80,1,0.045000000000000005,64.18251221896382,17.487781036168133
64.24999999999999,52,80,1,0.045000000000000005,64.23251221896382,17.487781036168133
64.26666666666665,41,80,0,0.06,64.24917888563049,17.487781036168133
64.29999999999998,48,80,1,0.045000000000000005,64.28251221896382,17.487781036168133
64.33333333333331,53,80,0,0.06,64.31584555229715,17.487781036168133
64.34999999999998,69,80,1,0.045000000000000005,64.33251221896381,17.487781036168133
64.39999999999998,48,80,0,0.06,64.38251221896381,17.487781036168133
64.39999999999998,72,80,1,0.045000000000000005,64.38251221896381,17.487781036168133
64.44999999999997,62,80,1,0.045000000000000005,64.43251221896381,17.487781036168133
64.46666666666664,57,80,0,0.06,64.44917888563047,17.487781036168133
64.49999999999997,69,80,1,0.045000000000000005,64.4825122189638,17.487781036168133
64.5333333333333,50,80,0,0.06,64.51584555229714,17.487781036168133
64.54999999999997,60,80,1,0.045000000000000005,64.5325122189638,17.487781036168133
64.59999999999997,40,80,0,0.06,64.5825122189638,17.487781036168133
64.59999999999997,59,80,1,0.045000000000000005,64.5825122189638,17.487781036168133
64.64999999999996,57,80,1,0.045000000000000005,64.6325122189638,17.487781036168133
64.66666666666663,41,80,0,0.06,64.64917888563046,17.487781036168133
64.69999999999996,57,80,1,0.045000000000000005,64.6825122189638,17.487781036168133
64.73333333333329,48,80,0,0.06,64.71584555229713,17.487781036168133
64.74999999999996,47,80,1,0.045000000000000005,64.73251221896379,17.487781036168133
64.79999999999995,29,80,0,0.06,64.78251221896379,17.487781036168133
64.79999999999995,62,80,1,0.045000000000000005,64.78251221896379,17.487781036168133
64.84999999999995,59,80,1,0.045000000000000005,64.83251221896379,17.487781036168133
64.86666666666662,60,80,0,0.06,64.84917888563045,17.487781036168133
64.89999999999995,65,80,1,0.045000000000000005,64.88251221896378,17.487781036168133
64.93333333333328,50,80,0,0.06,64.91584555229711,17.487781036168133
64.94999999999995,60,80,1,0.045000000000000005,64.93251221896378,17.487781036168133
64.99999999999994,57,80,0,0.06,64.98251221896378,17.487781036168133
64.99999999999994,57,80,1,0.045000000000000005,64.98251221896378,17.487781036168133
65.04999999999994,53,80,1,0.045000000000000005,65.03251221896377,17.487781036168133
65.0666666666666,35,80,0,0.06,65.04917888563044,17.487781036168133
65.09999999999994,60,80,1,0.045000000000000005,65.08251221896377,17.487781036168133
65.13333333333327,57,80,0,0.06,65.1158455522971,17.487781036168133
65.14999999999993,65,80,1,0.045000000000000005,65.13251221896377,17.487781036168133
65.19999999999993,65,80,0,0.06,65.18251221896377,17.487781036168133
65.19999999999993,50,80,1,0.045000000000000005,65.18251221896377,17.487781036168133
65.24999999999993,60,80,1,0.045000000000000005,65.23251221896376,17.487781036168133
65.2666666666666,36,80,0,0.06,65.24917888563043,17.487781036168133
65.29999999999993,60,80,1,0.045000000000000005,65.28251221896376,17.487781036168133
65.33333333333326,53,80,0,0.06,65.31584555229709,17.487781036168133
65.34999999999992,53,80,1,0.045000000000000005,65.33251221896376,17.487781036168133
65.39999999999992,48,80,0,0.06,65.38251221896375,17.487781036168133
65.39999999999992,55,80,1,0.045000000000000005,65.38251221896375,17.487781036168133
65.44999999999992,60,80,1,0.045000000000000005,65.43251221896375,17.487781036168133
65.46666666666658,35,80,0,0.06,65.44917888563042,17.487781036168133
65.49999999999991,50,80,1,0.045000000000000005,65.48251221896375,17.487781036168133
65.53333333333325,50,80,0,0.06,65.51584555229708,17.487781036168133
65.54999999999991,62,80,1,0.045000000000000005,65.53251221896375,17.487781036168133
65.59999999999991,53,80,0,0.06,65.58251221896374,17.487781036168133
65.59999999999991,52,80,1,0.045000000000000005,65.58251221896374,17.487781036168133
65.6499999999999,67,80,1,0.045000000000000005,65.63251221896374,17.487781036168133
65.66666666666657,43,80,0,0.06,65.6491788856304,17.487781036168133
65.6999999999999,77,80,1,0.045000000000000005,65.68251221896374,17.487781036168133
65.73333333333323,57,80,0,0.06,65.71584555229707,17.487781036168133
65.7499999999999,53,80,1,0.045000000000000005,65.73251221896373,17.487781036168133
65.7999999999999,33,80,0,0.06,65.78251221896373,17.487781036168133
65.7999999999999,64,80,1,0.045000000000000005,65.78251221896373,17.487781036168133
65.8499999999999,53,80,1,0.045000000000000005,65.83251221896373,17.487781036168133
65.86666666666656,36,80,0,0.06,65.8491788856304,17.487781036168133
65.89999999999989,67,80,1,0.045000000000000005,65.88251221896373,17.487781036168133
65.93333333333322,48,80,0,0.06,65.91584555229706,17.487781036168133
65.94999999999989,48,80,1,0.045000000000000005,65.93251221896372,17.487781036168133
65.99999999999989,48,80,0,0.06,65.98251221896372,17.487781036168133
65.99999999999989,62,80,1,0.045000000000000005,65.98251221896372,17.487781036168133
66.04999999999988,53,80,1,0.045000000000000005,66.03251221896372,17.487781036168133
66.06666666666655,41,80,0,0.06,66.04917888563038,17.487781036168133
66.09999999999988,57,80,1,0.045000000000000005,66.08251221896371,17.487781036168133
66.13333333333321,53,80,0,0.06,66.11584555229705,17.487781036168133
66.14999999999988,50,80,1,0.045000000000000005,66.13251221896371,17.487781036168133
66.19999999999987,52,80,0,0.06,66.18251221896371,17.487781036168133
66.19999999999987,65,80,1,0.045000000000000005,66.18251221896371,17.487781036168133
66.24999999999987,53,80,1,0.045000000000000005,66.2325122189637,17.487781036168133
66.26666666666654,53,80,0,0.06,66.24917888563037,17.487781036168133
66.29999999999987,64,80,1,0.045000000000000005,66.2825122189637,17.487781036168133
66.3333333333332,47,80,0,0.06,66.31584555229703,17.487781036168133
66.34999999999987,57,80,1,0.045000000000000005,66.3325122189637,17.487781036168133
66.39999999999986,52,80,0,0.06,66.3825122189637,17.487781036168133
66.39999999999986,59,80,1,0.045000000000000005,66.3825122189637,17.487781036168133
66.44999999999986,60,80,1,0.045000000000000005,66.4325122189637,17.487781036168133
66.46666666666653,43,80,0,0.06,66.44917888563036,17.487781036168133
66.49999999999986,53,80,1,0.045000000000000005,66.48251221896369,17.487781036168133
66.53333333333319,64,80,0,0.06,66.51584555229702,17.487781036168133
66.54999999999986,60,80,1,0.045000000000000005,66.53251221896369,17.487781036168133
66.59999999999985,41,80,0,0.06,66.58251221896369,17.487781036168133
66.59999999999985,72,80,1,0.045000000000000005,66.58251221896369,17.487781036168133
66.64999999999985,53,80,1,0.045000000000000005,66.63251221896368,17.487781036168133
66.66666666666652,64,80,0,0.06,66.64917888563035,17.487781036168133
66.69999999999985,69,80,1,0.045000000000000005,66.68251221896368,17.487781036168133
66.73333333333318,48,80,0,0.06,66.71584555229701,17.487781036168133
66.74999999999984,71,80,1,0.045000000000000005,66.73251221896368,17.487781036168133
66.79999999999984,36,80,0,0.06,66.78251221896367,17.487781036168133
66.79999999999984,53,80,1,0.045000000000000005,66.78251221896367,17.487781036168133
66.84999999999984,48,80,1,0.045000000000000005,66.83251221896367,17.487781036168133
66.8666666666665,57,80,0,0.06,66.84917888563034,17.487781036168133
66.89999999999984,62,80,1,0.045000000000000005,66.88251221896367,17.487781036168133
66.93333333333317,48,80,0,0.06,66.915845552297,17.487781036168133
66.94999999999983,55,80,1,0.045000000000000005,66.93251221896367,17.487781036168133
66.99999999999983,53,80,0,0.06,66.98251221896366,17.487781036168133
66.99999999999983,74,80,1,0.045000000000000005,66.98251221896366,17.487781036168133
67.04999999999983,60,80,1,0.045000000000000005,67.03251221896366,17.487781036168133
67.06666666666649,57,80,0,0.06,67.04917888563033,17.487781036168133
67.09999999999982,53,80,1,0.045000000000000005,67.08251221896366,17.487781036168133
67.13333333333316,50,80,0,0.06,67.11584555229699,17.487781036168133
67.14999999999982,50,80,1,0.045000000000000005,67.13251221896365,17.487781036168133
67.19999999999982,43,80,0,0.06,67.18251221896365,17.487781036168133
67.19999999999982,67,80,1,0.045000000000000005,67.18251221896365,17.487781036168133
67.24999999999982,55,80,1,0.045000000000000005,67.23251221896365,17.487781036168133
67.26666666666648,55,80,0,0.06,67.24917888563031,17.487781036168133
67.29999999999981,60,80,1,0.045000000000000005,67.28251221896365,17.487781036168133
67.33333333333314,48,80,0,0.06,67.31584555229698,17.487781036168133
67.34999999999981,67,80,1,0.045000000000000005,67.33251221896364,17.487781036168133
67.3999999999998,53,80,0,0.06,67.38251221896364,17.487781036168133
67.3999999999998,55,80,1,0.045000000000000005,67.38251221896364,17.487781036168133
67.4499999999998,59,80,1,0.045000000000000005,67.43251221896364,17.487781036168133
67.46666666666647,29,80,0,0.06,67.4491788856303,17.487781036168133
67.4999999999998,59,80,1,0.045000000000000005,67.48251221896363,17.487781036168133
67.53333333333313,50,80,0,0.06,67.51584555229697,17.487781036168133
67.5499999999998,65,80,1,0.045000000000000005,67.53251221896363,17.487781036168133
67.5999999999998,41,80,0,0.06,67.58251221896363,17.487781036168133
67.5999999999998,64,80,1,0.045000000000000005,67.58251221896363,17.487781036168133
67.64999999999979,57,80,1,0.045000000000000005,67.63251221896363,17.487781036168133
67.66666666666646,60,80,0,0.06,67.64917888563029,17.487781036168133
67.69999999999979,60,80,1,0.045000000000000005,67.68251221896362,17.487781036168133
67.73333333333312,52,80,0,0.06,67.71584555229695,17.487781036168133
67.74999999999979,57,80,1,0.045000000000000005,67.73251221896362,17.487781036168133
67.79999999999978,48,80,0,0.06,67.78251221896362,17.487781036168133
67.79999999999978,48,80,1,0.045000000000000005,67.78251221896362,17.487781036168133
67.84999999999978,62,80,1,0.045000000000000005,67.83251221896361,17.487781036168133
67.86666666666645,50,80,0,0.06,67.84917888563028,17.487781036168133
67.89999999999978,74,80,1,0.045000000000000005,67.88251221896361,17.487781036168133
67.93333333333311,40,80,0,0.06,67.91584555229694,17.487781036168133
67.94999999999978,52,80,1,0.045000000000000005,67.93251221896361,17.487781036168133
67.99999999999977,60,80,0,0.06,67.9825122189636,17.487781036168133
67.99999999999977,53,80,1,0.045000000000000005,67.9825122189636,17.487781036168133
68.04999999999977,53,80,1,0.045000000000000005,68.0325122189636,17.487781036168133
68.06666666666644,62,80,0,0.06,68.04917888563027,17.487781036168133
68.09999999999977,65,80,1,0.045000000000000005,68.0825122189636,17.487781036168133
68.1333333333331,50,80,0,0.06,68.11584555229693,17.487781036168133
68.14999999999976,62,80,1,0.045000000000000005,68.1325122189636,17.487781036168133
68.19999999999976,60,80,0,0.06,68.1825122189636,17.487781036168133
68.19999999999976,57,80,1,0.045000000000000005,68.1825122189636,17.487781036168133
68.24999999999976,52,80,1,0.045000000000000005,68.23251221896359,17.487781036168133
68.26666666666642,43,80,0,0.06,68.24917888563026,17.487781036168133
68.29999999999976,60,80,1,0.045000000000000005,68.28251221896359,17.487781036168133
68.33333333333309,41,80,0,0.06,68.31584555229692,17.487781036168133
68.34999999999975,47,80,1,0.045000000000000005,68.33251221896359,17.487781036168133
68.39999999999975,48,80,0,0.06,68.38251221896358,17.487781036168133
68.39999999999975,60,80,1,0.045000000000000005,68.38251221896358,17.487781036168133
68.44999999999975,65,80,1,0.045000000000000005,68.43251221896358,17.487781036168133
68.46666666666641,50,80,0,0.06,68.44917888563025,17.487781036168133
68.49999999999974,48,80,1,0.045000000000000005,68.48251221896358,17.487781036168133
68.53333333333308,43,80,0,0.06,68.51584555229691,17.487781036168133
68.54999999999974,47,80,1,0.045000000000000005,68.53251221896357,17.487781036168133
68.59999999999974,52,80,0,0.06,68.58251221896357,17.487781036168133
68.59999999999974,72,80,1,0.045000000000000005,68.58251221896357,17.487781036168133
68.64999999999974,55,80,1,0.045000000000000005,68.63251221896357,17.487781036168133
68.6666666666664,50,80,0,0.06,68.64917888563023,17.487781036168133
68.69999999999973,69,80,1,0.045000000000000005,68.68251221896357,17.487781036168133
68.73333333333306,40,80,0,0.06,68.7158455522969,17.487781036168133
68.74999999999973,57,80,1,0.045000000000000005,68.73251221896356,17.487781036168133
68.79999999999973,52,80,0,0.06,68.78251221896356,17.487781036168133
68.79999999999973,57,80,1,0.045000000000000005,68.78251221896356,17.487781036168133
68.84999999999972,62,80,1,0.045000000000000005,68.83251221896356,17.487781036168133
68.86666666666639,53,80,0,0.06,68.84917888563022,17.487781036168133
68.89999999999972,52,80,1,0.045000000000000005,68.88251221896356,17.487781036168133
68.93333333333305,48,80,0,0.06,68.91584555229689,17.487781036168133
68.94999999999972,60,80,1,0.045000000000000005,68.93251221896355,17.487781036168133
68.99999999999972,57,80,0,0.06,68.98251221896355,17.487781036168133
68.99999999999972,55,80,1,0.045000000000000005,68.98251221896355,17.487781036168133
69.04999999999971,48,80,1,0.045000000000000005,69.03251221896355,17.487781036168133
69.06666666666638,38,80,0,0.06,69.04917888563021,17.487781036168133
69.09999999999971,62,80,1,0.045000000000000005,69.08251221896354,17.487781036168133
69.13333333333304,50,80,0,0.06,69.11584555229688,17.487781036168133
69.14999999999971,57,80,1,0.045000000000000005,69.13251221896354,17.487781036168133
69.1999999999997,38,80,0,0.06,69.18251221896354,17.487781036168133
69.1999999999997,57,80,1,0.045000000000000005,69.18251221896354,17.487781036168133
69.2499999999997,50,80,1,0.045000000000000005,69.23251221896354,17.487781036168133
69.26666666666637,38,80,0,0.06,69.2491788856302,17.487781036168133
69.2999999999997,72,80,1,0.045000000000000005,69.28251221896353,17.487781036168133
69.33333333333303,41,80,0,0.06,69.31584555229686,17.487781036168133
69.3499999999997,67,80,1,0.045000000000000005,69.33251221896353,17.487781036168133
69.3999999999997,40,80,0,0.06,69.38251221896353,17.487781036168133
69.3999999999997,67,80,1,0.045000000000000005,69.38251221896353,17.487781036168133
69.44999999999969,57,80,1,0.045000000000000005,69.43251221896352,17.487781036168133
69.46666666666636,43,80,0,0.06,69.44917888563019,17.487781036168133
69.49999999999969,45,80,1,0.045000000000000005,69.48251221896352,17.487781036168133
69.53333333333302,45,80,0,0.06,69.51584555229685,17.487781036168133
69.54999999999968,74,80,1,0.045000000000000005,69.53251221896352,17.487781036168133
69.59999999999968,53,80,0,0.06,69.58251221896352,17.487781036168133
69.59999999999968,59,80,1,0.045000000000000005,69.58251221896352,17.487781036168133
69.64999999999968,53,80,1,0.045000000000000005,69.63251221896351,17.487781036168133
69.66666666666634,45,80,0,0.06,69.64917888563018,17.487781036168133
69.69999999999968,62,80,1,0.045000000000000005,69.68251221896351,17.487781036168133
69.73333333333301,35,80,0,0.06,69.71584555229684,17.487781036168133
69.74999999999967,69,80,1,0.045000000000000005,69.7325122189635,17.487781036168133
69.79999999999967,57,80,0,0.06,69.7825122189635,17.487781036168133
69.79999999999967,59,80,1,0.045000000000000005,69.7825122189635,17.487781036168133
69.84999999999967,69,80,1,0.045000000000000005,69.8325122189635,17.487781036168133
69.86666666666633,41,80,0,0.06,69.84917888563017,17.487781036168133
69.89999999999966,67,80,1,0.045000000000000005,69.8825122189635,17.487781036168133
69.933333333333,47,80,0,0.06,69.91584555229683,17.487781036168133
69.94999999999966,50,80,1,0.045000000000000005,69.9325122189635,17.487781036168133
69.99999999999966,50,80,0,0.06,69.98251221896349,17.487781036168133
69.99999999999966,53,80,1,0.045000000000000005,69.98251221896349,17.487781036168133
70.04999999999966,67,80,1,0.045000000000000005,70.03251221896349,17.487781036168133
70.06666666666632,48,80,0,0.06,70.04917888563016,17.487781036168133
70.09999999999965,38,80,1,0.045000000000000005,70.08251221896349,17.487781036168133
70.13333333333298,55,80,0,0.06,70.11584555229682,17.487781036168133
70.14999999999965,57,80,1,0.045000000000000005,70.13251221896348,17.487781036168133
70.19999999999965,50,80,0,0.06,70.18251221896348,17.487781036168133
70.19999999999965,48,80,1,0.045000000000000005,70.18251221896348,17.487781036168133
70.24999999999964,55,80,1,0.045000000000000005,70.23251221896348,17.487781036168133
70.26666666666631,41,80,0,0.06,70.24917888563014,17.487781036168133
70.29999999999964,57,80,1,0.045000000000000005,70.28251221896348,17.487781036168133
70.33333333333297,65,80,0,0.06,70.3158455522968,17.487781036168133
70.34999999999964,57,80,1,0.045000000000000005,70.33251221896347,17.487781036168133
70.39999999999964,48,80,0,0.06,70.38251221896347,17.487781036168133
70.39999999999964,55,80,1,0.045000000000000005,70.38251221896347,17.487781036168133
70.44999999999963,50,80,1,0.045000000000000005,70.43251221896347,17.487781036168133
70.4666666666663,45,80,0,0.06,70.44917888563013,17.487781036168133
70.49999999999963,77,80,1,0.045000000000000005,70.48251221896346,17.487781036168133
70.53333333333296,55,80,0,0.06,70.5158455522968,17.487781036168133
70.54999999999963,74,80,1,0.045000000000000005,70.53251221896346,17.487781036168133
70.59999999999962,48,80,0,0.06,70.58251221896346,17.487781036168133
70.59999999999962,50,80,1,0.045000000000000005,70.58251221896346,17.487781036168133
70.64999999999962,72,80,1,0.045000000000000005,70.63251221896346,17.487781036168133
70.66666666666629,50,80,0,0.06,70.64917888563012,17.487781036168133
70.69999999999962,55,80,1,0.045000000000000005,70.68251221896345,17.487781036168133
70.73333333333295,67,80,0,0.06,70.71584555229678,17.487781036168133
70.74999999999962,60,80,1,0.045000000000000005,70.73251221896345,17.487781036168133
70.79999999999961,45,80,0,0.06,70.78251221896345,17.487781036168133
70.79999999999961,59,80,1,0.045000000000000005,70.78251221896345,17.487781036168133
70.84999999999961,53,80,1,0.045000000000000005,70.83251221896344,17.487781036168133
70.86666666666628,45,80,0,0.06,70.84917888563011,17.487781036168133
70.89999999999961,67,80,1,0.045000000000000005,70.88251221896344,17.487781036168133
70.93333333333294,48,80,0,0.06,70.91584555229677,17.487781036168133
70.9499999999996,60,80,1,0.045000000000000005,70.93251221896344,17.487781036168133
70.9999999999996,55,80,0,0.06,70.98251221896344,17.487781036168133
70.9999999999996,55,80,1,0.045000000000000005,70.98251221896344,17.487781036168133
71.0499999999996,48,80,1,0.045000000000000005,71.03251221896343,17.487781036168133
71.06666666666626,35,80,0,0.06,71.0491788856301,17.487781036168133
71.0999999999996,52,80,1,0.045000000000000005,71.08251221896343,17.487781036168133
71.13333333333293,31,80,0,0.06,71.11584555229676,17.487781036168133
71.1499999999996,45,80,1,0.045000000000000005,71.13251221896343,17.487781036168133
71.19999999999959,43,80,0,0.06,71.18251221896342,17.487781036168133
71.19999999999959,60,80,1,0.045000000000000005,71.18251221896342,17.487781036168133
71.24999999999959,50,80,1,0.045000000000000005,71.23251221896342,17.487781036168133
71.26666666666625,33,80,0,0.06,71.24917888563009,17.487781036168133
71.29999999999959,57,80,1,0.045000000000000005,71.28251221896342,17.487781036168133
71.33333333333292,43,80,0,0.06,71.31584555229675,17.487781036168133
71.34999999999958,69,80,1,0.045000000000000005,71.33251221896342,17.487781036168133
71.39999999999958,52,80,0,0.06,71.38251221896341,17.487781036168133
71.39999999999958,69,80,1,0.045000000000000005,71.38251221896341,17.487781036168133
71.44999999999958,59,80,1,0.045000000000000005,71.43251221896341,17.487781036168133
71.46666666666624,40,80,0,0.06,71.44917888563008,17.487781036168133
71.49999999999957,59,80,1,0.045000000000000005,71.48251221896341,17.487781036168133
71.5333333333329,36,80,0,0.06,71.51584555229674,17.487781036168133
71.54999999999957,74,80,1,0.045000000000000005,71.5325122189634,17.487781036168133
71.59999999999957,48,80,0,0.06,71.5825122189634,17.487781036168133
71.59999999999957,64,80,1,0.045000000000000005,71.5825122189634,17.487781036168133
71.64999999999957,57,80,1,0.045000000000000005,71.6325122189634,17.487781036168133
71.66666666666623,53,80,0,0.06,71.64917888563006,17.487781036168133
71.69999999999956,48,80,1,0.045000000000000005,71.6825122189634,17.487781036168133
71.7333333333329,33,80,0,0.06,71.71584555229673,17.487781036168133
71.74999999999956,62,80,1,0.045000000000000005,71.7325122189634,17.487781036168133
71.79999999999956,53,80,0,0.06,71.78251221896339,17.487781036168133
71.79999999999956,65,80,1,0.045000000000000005,71.78251221896339,17.487781036168133
71.84999999999955,53,80,1,0.045000000000000005,71.83251221896339,17.487781036168133
71.86666666666622,53,80,0,0.06,71.84917888563005,17.487781036168133
71.89999999999955,62,80,1,0.045000000000000005,71.88251221896338,17.487781036168133
71.93333333333288,55,80,0,0.06,71.91584555229672,17.487781036168133
71.94999999999955,57,80,1,0.045000000000000005,71.93251221896338,17.487781036168133
71.99999999999955,57,80,0,0.06,71.98251221896338,17.487781036168133
71.99999999999955,57,80,1,0.045000000000000005,71.98251221896338,17.487781036168133
72.04999999999954,40,80,1,0.045000000000000005,72.03251221896338,17.487781036168133
72.06666666666621,65,80,0,0.06,72.04917888563004,17.487781036168133
72.09999999999954,57,80,1,0.045000000000000005,72.08251221896337,17.487781036168133
72.13333333333287,45,80,0,0.06,72.1158455522967,17.487781036168133
72.14999999999954,67,80,1,0.045000000000000005,72.13251221896337,17.487781036168133
72.19999999999953,48,80,0,0.06,72.18251221896337,17.487781036168133
72.19999999999953,53,80,1,0.045000000000000005,72.18251221896337,17.487781036168133
72.24999999999953,60,80,1,0.045000000000000005,72.23251221896336,17.487781036168133
72.2666666666662,43,80,0,0.06,72.24917888563003,17.487781036168133
72.29999999999953,53,80,1,0.045000000000000005,72.28251221896336,17.487781036168133
72.33333333333286,48,80,0,0.06,72.3158455522967,17.487781036168133
72.34999999999953,62,80,1,0.045000000000000005,72.33251221896336,17.487781036168133
72.39999999999952,60,80,0,0.06,72.38251221896336,17.487781036168133
72.39999999999952,57,80,1,0.045000000000000005,72.38251221896336,17.487781036168133
72.44999999999952,52,80,1,0.045000000000000005,72.43251221896335,17.487781036168133
72.46666666666619,36,80,0,0.06,72.44917888563002,17.487781036168133
72.49999999999952,69,80,1,0.045000000000000005,72.48251221896335,17.487781036168133
72.53333333333285,41,80,0,0.06,72.51584555229668,17.487781036168133
72.54999999999951,67,80,1,0.045000000000000005,72.53251221896335,17.487781036168133
72.59999999999951,59,80,0,0.06,72.58251221896334,17.487781036168133
72.59999999999951,55,80,1,0.045000000000000005,72.58251221896334,17.487781036168133
72.64999999999951,62,80,1,0.045000000000000005,72.63251221896334,17.487781036168133
72.66666666666617,55,80,0,0.06,72.64917888563001,17.487781036168133
72.6999999999995,64,80,1,0.045000000000000005,72.68251221896334,17.487781036168133
72.73333333333284,45,80,0,0.06,72.71584555229667,17.487781036168133
72.7499999999995,65,80,1,0.045000000000000005,72.73251221896334,17.487781036168133
72.7999999999995,53,80,0,0.06,72.78251221896333,17.487781036168133
72.7999999999995,45,80,1,0.045000000000000005,72.78251221896333,17.487781036168133
72.8499999999995,67,80,1,0.045000000000000005,72.83251221896333,17.487781036168133
72.86666666666616,50,80,0,0.06,72.84917888563,17.487781036168133
72.8999999999995,55,80,1,0.045000000000000005,72.88251221896333,17.487781036168133
72.93333333333283,60,80,0,0.06,72.91584555229666,17.487781036168133
72.94999999999949,57,80,1,0.045000000000000005,72.93251221896332,17.487781036168133
72.99999999999949,48,80,0,0.06,72.98251221896332,17.487781036168133
72.99999999999949,81,80,1,0.045000000000000005,72.98251221896332,17.487781036168133
73.04999999999949,62,80,1,0.045000000000000005,73.03251221896332,17.487781036168133
73.06666666666615,55,80,0,0.06,73.04917888562998,17.487781036168133
73.09999999999948,55,80,1,0.045000000000000005,73.08251221896332,17.487781036168133
73.13333333333281,69,80,0,0.06,73.11584555229665,17.487781036168133
73.14999999999948,41,80,1,0.045000000000000005,73.13251221896331,17.487781036168133
73.19999999999948,52,80,0,0.06,73.18251221896331,17.487781036168133
73.19999999999948,71,80,1,0.045000000000000005,73.18251221896331,17.487781036168133
73.24999999999947,48,80,1,0.045000000000000005,73.23251221896331,17.487781036168133
73.26666666666614,48,80,0,0.06,73.24917888562997,17.487781036168133
73.29999999999947,50,80,1,0.045000000000000005,73.2825122189633,17.487781036168133
73.3333333333328,53,80,0,0.06,73.31584555229664,17.487781036168133
73.34999999999947,57,80,1,0.045000000000000005,73.3325122189633,17.487781036168133
73.39999999999947,45,80,0,0.06,73.3825122189633,17.487781036168133
73.39999999999947,71,80,1,0.045000000000000005,73.3825122189633,17.487781036168133
73.44999999999946,65,80,1,0.045000000000000005,73.4325122189633,17.487781036168133
73.46666666666613,67,80,0,0.06,73.44917888562996,17.487781036168133
73.49999999999946,57,80,1,0.045000000000000005,73.4825122189633,17.487781036168133
73.53333333333279,48,80,0,0.06,73.51584555229662,17.487781036168133
73.54999999999946,62,80,1,0.045000000000000005,73.53251221896329,17.487781036168133
73.59999999999945,45,80,0,0.06,73.58251221896329,17.487781036168133
73.59999999999945,55,80,1,0.045000000000000005,73.58251221896329,17.487781036168133
73.64999999999945,60,80,1,0.045000000000000005,73.63251221896329,17.487781036168133
73.66666666666612,41,80,0,0.06,73.64917888562995,17.487781036168133
73.69999999999945,60,80,1,0.045000000000000005,73.68251221896328,17.487781036168133
73.73333333333278,55,80,0,0.06,73.71584555229661,17.487781036168133
73.74999999999945,67,80,1,0.045000000000000005,73.73251221896328,17.487781036168133
73.79999999999944,53,80,0,0.06,73.78251221896328,17.487781036168133
73.79999999999944,67,80,1,0.045000000000000005,73.78251221896328,17.487781036168133
73.84999999999944,62,80,1,0.045000000000000005,73.83251221896327,17.487781036168133
73.8666666666661,43,80,0,0.06,73.84917888562994,17.487781036168133
73.89999999999944,57,80,1,0.045000000000000005,73.88251221896327,17.487781036168133
73.93333333333277,52,80,0,0.06,73.9158455522966,17.487781036168133
73.94999999999943,65,80,1,0.045000000000000005,73.93251221896327,17.487781036168133
73.99999999999943,35,80,0,0.06,73.98251221896327,17.487781036168133
73.99999999999943,59,80,1,0.045000000000000005,73.98251221896327,17.487781036168133
