onset_time,pitch,velocity,voice_id,duration,trigger_time,compensation_ms
0.0,43,62,0,0.06,-0.020303030303030305,20.303030303030305
0.0,53,62,1,0.045000000000000005,-0.020303030303030305,20.303030303030305
0.05,57,62,1,0.045000000000000005,0.029696969696969697,20.303030303030305
0.06666666666666667,45,62,0,0.06,0.04636363636363636,20.303030303030305
0.1,60,62,1,0.045000000000000005,0.0796969696969697,20.303030303030305
0.13333333333333333,50,62,0,0.06,0.11303030303030302,20.303030303030305
0.15000000000000002,55,62,1,0.045000000000000005,0.12969696969696973,20.303030303030305
0.2,50,62,0,0.06,0.17969696969696972,20.303030303030305
0.2,71,62,1,0.045000000000000005,0.17969696969696972,20.303030303030305
0.25,62,62,1,0.045000000000000005,0.2296969696969697,20.303030303030305
0.26666666666666666,55,62,0,0.06,0.24636363636363637,20.303030303030305
0.3,57,62,1,0.045000000000000005,0.27969696969696967,20.303030303030305
0.3333333333333333,57,62,0,0.06,0.313030303030303,20.303030303030305
0.35,67,62,1,0.045000000000000005,0.32969696969696966,20.303030303030305
0.39999999999999997,48,62,0,0.06,0.37969696969696964,20.303030303030305
0.39999999999999997,50,62,1,0.045000000000000005,0.37969696969696964,20.303030303030305
0.44999999999999996,67,62,1,0.045000000000000005,0.42969696969696963,20.303030303030305
0.4666666666666666,50,62,0,0.06,0.4463636363636363,20.303030303030305
0.49999999999999994,67,62,1,0.045000000000000005,0.4796969696969696,20.303030303030305
0.5333333333333333,45,62,0,0.06,0.5130303030303031,20.303030303030305
0.5499999999999999,72,62,1,0.045000000000000005,0.5296969696969697,20.303030303030305
0.6,45,62,0,0.06,0.5796969696969697,20.303030303030305
0.6,60,62,1,0.045000000000000005,0.5796969696969697,20.303030303030305
0.65,65,62,1,0.045000000000000005,0.6296969696969698,20.303030303030305
0.6666666666666666,35,62,0,0.06,0.6463636363636364,20.303030303030305
0.7000000000000001,62,62,1,0.045000000000000005,0.6796969696969698,20.303030303030305
0.7333333333333333,41,62,0,0.06,0.713030303030303,20.303030303030305
0.7500000000000001,62,62,1,0.045000000000000005,0.7296969696969698,20.303030303030305
0.7999999999999999,41,62,0,0.06,0.7796969696969697,20.303030303030305
0.8000000000000002,53,62,1,0.045000000000000005,0.7796969696969699,20.303030303030305
0.8500000000000002,69,62,1,0.045000000000000005,0.8296969696969699,20.303030303030305
0.8666666666666666,48,62,0,0.06,0.8463636363636363,20.303030303030305
0.9000000000000002,62,62,1,0.045000000000000005,0.87969696969697,20.303030303030305
0.9333333333333332,45,62,0,0.06,0.913030303030303,20.303030303030305
0.9500000000000003,52,62,1,0.045000000000000005,0.92969696969697,20.303030303030305
0.9999999999999999,59,62,0,0.06,0.9796969696969696,20.303030303030305
1.0000000000000002,59,62,1,0.045000000000000005,0.97969696969697,20.303030303030305
1.0500000000000003,48,62,1,0.045000000000000005,1.02969696969697,20.303030303030305
1.0666666666666667,59,62,0,0.06,1.0463636363636364,20.303030303030305
1.1000000000000003,48,62,1,0.045000000000000005,1.07969696969697,20.303030303030305
1.1333333333333333,53,62,0,0.06,1.113030303030303,20.303030303030305
1.1500000000000004,53,62,1,0.045000000000000005,1.12969696969697,20.303030303030305
1.2,53,62,0,0.06,1.1796969696969697,20.303030303030305
1.2000000000000004,64,62,1,0.045000000000000005,1.1796969696969701,20.303030303030305
1.2500000000000004,67,62,1,0.045000000000000005,1.2296969696969702,20.303030303030305
1.2666666666666666,53,62,0,0.06,1.2463636363636363,20.303030303030305
1.3000000000000005,53,62,1,0.045000000000000005,1.2796969696969702,20.303030303030305
1.3333333333333333,47,62,0,0.06,1.313030303030303,20.303030303030305
1.3500000000000005,57,62,1,0.045000000000000005,1.3296969696969703,20.303030303030305
1.4,47,62,0,0.06,1.3796969696969696,20.303030303030305
1.4000000000000006,60,62,1,0.045000000000000005,1.3796969696969703,20.303030303030305
1.4500000000000006,59,62,1,0.045000000000000005,1.4296969696969704,20.303030303030305
1.4666666666666666,41,62,0,0.06,1.4463636363636363,20.303030303030305
1.5000000000000007,60,62,1,0.045000000000000005,1.4796969696969704,20.303030303030305
1.5333333333333332,45,62,0,0.06,1.513030303030303,20.303030303030305
1.5500000000000007,52,62,1,0.045000000000000005,1.5296969696969704,20.303030303030305
1.5999999999999999,53,62,0,0.06,1.5796969696969696,20.303030303030305
1.6000000000000008,62,62,1,0.045000000000000005,1.5796969696969705,20.303030303030305
1.6500000000000008,57,62,1,0.045000000000000005,1.6296969696969705,20.303030303030305
1.6666666666666665,48,62,0,0.06,1.6463636363636363,20.303030303030305
1.7000000000000008,57,62,1,0.045000000000000005,1.6796969696969706,20.303030303030305
1.7333333333333332,45,62,0,0.06,1.713030303030303,20.303030303030305
1.7500000000000009,62,62,1,0.045000000000000005,1.7296969696969706,20.303030303030305
1.7999999999999998,45,62,0,0.06,1.7796969696969696,20.303030303030305
1.800000000000001,60,62,1,0.045000000000000005,1.7796969696969707,20.303030303030305
1.850000000000001,62,62,1,0.045000000000000005,1.8296969696969707,20.303030303030305
1.8666666666666665,48,62,0,0.06,1.8463636363636362,20.303030303030305
1.900000000000001,57,62,1,0.045000000000000005,1.8796969696969708,20.303030303030305
1.9333333333333331,53,62,0,0.06,1.9130303030303029,20.303030303030305
1.950000000000001,67,62,1,0.045000000000000005,1.9296969696969708,20.303030303030305
1.9999999999999998,40,62,0,0.06,1.9796969696969695,20.303030303030305
2.000000000000001,57,62,1,0.045000000000000005,1.9796969696969706,20.303030303030305
2.0500000000000007,67,62,1,0.045000000000000005,2.02969696969697,20.303030303030305
2.0666666666666664,45,62,0,0.06,2.046363636363636,20.303030303030305
2.1000000000000005,57,62,1,0.045000000000000005,2.07969696969697,20.303030303030305
2.1333333333333333,53,62,0,0.06,2.113030303030303,20.303030303030305
2.1500000000000004,64,62,1,0.045000000000000005,2.12969696969697,20.303030303030305
2.2,38,62,0,0.06,2.1796969696969697,20.303030303030305
2.2,53,62,1,0.045000000000000005,2.1796969696969697,20.303030303030305
2.25,48,62,1,0.045000000000000005,2.2296969696969695,20.303030303030305
2.266666666666667,55,62,0,0.06,2.2463636363636366,20.303030303030305
2.3,65,62,1,0.045000000000000005,2.2796969696969693,20.303030303030305
2.333333333333334,43,62,0,0.06,2.3130303030303034,20.303030303030305
2.3499999999999996,57,62,1,0.045000000000000005,2.329696969696969,20.303030303030305
2.3999999999999995,64,62,1,0.045000000000000005,2.379696969696969,20.303030303030305
2.400000000000001,52,62,0,0.06,2.3796969696969703,20.303030303030305
2.4499999999999993,67,62,1,0.045000000000000005,2.429696969696969,20.303030303030305
2.4666666666666677,48,62,0,0.06,2.446363636363637,20.303030303030305
2.499999999999999,55,62,1,0.045000000000000005,2.4796969696969686,20.303030303030305
2.5333333333333345,50,62,0,0.06,2.513030303030304,20.303030303030305
2.549999999999999,55,62,1,0.045000000000000005,2.5296969696969684,20.303030303030305
2.5999999999999988,60,62,1,0.045000000000000005,2.5796969696969683,20.303030303030305
2.6000000000000014,40,62,0,0.06,2.579696969696971,20.303030303030305
2.6499999999999986,57,62,1,0.045000000000000005,2.629696969696968,20.303030303030305
2.6666666666666683,48,62,0,0.06,2.646363636363638,20.303030303030305
2.6999999999999984,60,62,1,0.045000000000000005,2.679696969696968,20.303030303030305
2.733333333333335,45,62,0,0.06,2.7130303030303047,20.303030303030305
2.7499999999999982,65,62,1,0.045000000000000005,2.7296969696969677,20.303030303030305
2.799999999999998,53,62,1,0.045000000000000005,2.7796969696969676,20.303030303030305
2.800000000000002,55,62,0,0.06,2.7796969696969716,20.303030303030305
2.849999999999998,59,62,1,0.045000000000000005,2.8296969696969674,20.303030303030305
2.866666666666669,43,62,0,0.06,2.8463636363636384,20.303030303030305
2.8999999999999977,67,62,1,0.045000000000000005,2.879696969696967,20.303030303030305
2.933333333333336,47,62,0,0.06,2.9130303030303053,20.303030303030305
2.9499999999999975,65,62,1,0.045000000000000005,2.929696969696967,20.303030303030305
2.9999999999999973,65,62,1,0.045000000000000005,2.979696969696967,20.303030303030305
3.0000000000000027,45,62,0,0.06,2.979696969696972,20.303030303030305
3.049999999999997,55,62,1,0.045000000000000005,3.0296969696969667,20.303030303030305
3.0666666666666695,50,62,0,0.06,3.046363636363639,20.303030303030305
3.099999999999997,60,62,1,0.045000000000000005,3.0796969696969665,20.303030303030305
3.1333333333333364,55,62,0,0.06,3.113030303030306,20.303030303030305
3.149999999999997,62,62,1,0.045000000000000005,3.1296969696969663,20.303030303030305
3.1999999999999966,62,62,1,0.045000000000000005,3.179696969696966,20.303030303030305
3.2000000000000033,48,62,0,0.06,3.179696969696973,20.303030303030305
3.2499999999999964,55,62,1,0.045000000000000005,3.229696969696966,20.303030303030305
3.26666666666667,50,62,0,0.06,3.2463636363636397,20.303030303030305
3.2999999999999963,65,62,1,0.045000000000000005,3.279696969696966,20.303030303030305
3.333333333333337,41,62,0,0.06,3.3130303030303065,20.303030303030305
3.349999999999996,64,62,1,0.045000000000000005,3.3296969696969656,20.303030303030305
3.399999999999996,53,62,1,0.045000000000000005,3.3796969696969654,20.303030303030305
3.400000000000004,48,62,0,0.06,3.3796969696969734,20.303030303030305
3.4499999999999957,64,62,1,0.045000000000000005,3.4296969696969652,20.303030303030305
3.466666666666671,40,62,0,0.06,3.4463636363636403,20.303030303030305
3.4999999999999956,67,62,1,0.045000000000000005,3.479696969696965,20.303030303030305
3.5333333333333377,41,62,0,0.06,3.513030303030307,20.303030303030305
3.5499999999999954,57,62,1,0.045000000000000005,3.529696969696965,20.303030303030305
3.599999999999995,59,62,1,0.045000000000000005,3.5796969696969647,20.303030303030305
3.6000000000000045,55,62,0,0.06,3.579696969696974,20.303030303030305
3.649999999999995,67,62,1,0.045000000000000005,3.6296969696969645,20.303030303030305
3.6666666666666714,47,62,0,0.06,3.646363636363641,20.303030303030305
3.699999999999995,50,62,1,0.045000000000000005,3.6796969696969644,20.303030303030305
3.7333333333333383,43,62,0,0.06,3.713030303030308,20.303030303030305
3.7499999999999947,50,62,1,0.045000000000000005,3.729696969696964,20.303030303030305
3.7999999999999945,64,62,1,0.045000000000000005,3.779696969696964,20.303030303030305
3.800000000000005,48,62,0,0.06,3.7796969696969747,20.303030303030305
3.8499999999999943,57,62,1,0.045000000000000005,3.829696969696964,20.303030303030305
3.866666666666672,38,62,0,0.06,3.8463636363636415,20.303030303030305
3.899999999999994,50,62,1,0.045000000000000005,3.8796969696969636,20.303030303030305
3.933333333333339,57,62,0,0.06,3.9130303030303084,20.303030303030305
3.949999999999994,48,62,1,0.045000000000000005,3.9296969696969635,20.303030303030305
3.999999999999994,62,62,1,0.045000000000000005,3.9796969696969633,20.303030303030305
4.000000000000005,45,62,0,0.06,3.979696969696975,20.303030303030305
4.049999999999994,69,62,1,0.045000000000000005,4.029696969696963,20.303030303030305
4.066666666666672,48,62,0,0.06,4.046363636363641,20.303030303030305
4.099999999999993,55,62,1,0.045000000000000005,4.079696969696963,20.303030303030305
4.133333333333338,45,62,0,0.06,4.113030303030308,20.303030303030305
4.149999999999993,55,62,1,0.045000000000000005,4.129696969696963,20.303030303030305
4.199999999999993,57,62,1,0.045000000000000005,4.179696969696963,20.303030303030305
4.200000000000005,47,62,0,0.06,4.179696969696974,20.303030303030305
4.249999999999993,57,62,1,0.045000000000000005,4.229696969696962,20.303030303030305
4.266666666666671,41,62,0,0.06,4.246363636363641,20.303030303030305
4.299999999999993,65,62,1,0.045000000000000005,4.279696969696962,20.303030303030305
4.3333333333333375,45,62,0,0.06,4.313030303030307,20.303030303030305
4.3499999999999925,47,62,1,0.045000000000000005,4.329696969696962,20.303030303030305
4.399999999999992,60,62,1,0.045000000000000005,4.379696969696962,20.303030303030305
4.400000000000004,52,62,0,0.06,4.379696969696973,20.303030303030305
4.449999999999992,69,62,1,0.045000000000000005,4.429696969696962,20.303030303030305
4.46666666666667,43,62,0,0.06,4.44636363636364,20.303030303030305
4.499999999999992,64,62,1,0.045000000000000005,4.4796969696969615,20.303030303030305
4.533333333333337,47,62,0,0.06,4.513030303030306,20.303030303030305
4.549999999999992,59,62,1,0.045000000000000005,4.529696969696961,20.303030303030305
4.599999999999992,62,62,1,0.045000000000000005,4.579696969696961,20.303030303030305
4.600000000000003,57,62,0,0.06,4.579696969696973,20.303030303030305
4.6499999999999915,65,62,1,0.045000000000000005,4.629696969696961,20.303030303030305
4.66666666666667,48,62,0,0.06,4.646363636363639,20.303030303030305
4.699999999999991,55,62,1,0.045000000000000005,4.679696969696961,20.303030303030305
4.733333333333336,41,62,0,0.06,4.713030303030306,20.303030303030305
4.749999999999991,50,62,1,0.045000000000000005,4.729696969696961,20.303030303030305
4.799999999999991,62,62,1,0.045000000000000005,4.7796969696969605,20.303030303030305
4.8000000000000025,53,62,0,0.06,4.779696969696972,20.303030303030305
4.849999999999991,62,62,1,0.045000000000000005,4.82969696969696,20.303030303030305
4.866666666666669,53,62,0,0.06,4.846363636363638,20.303030303030305
4.899999999999991,55,62,1,0.045000000000000005,4.87969696969696,20.303030303030305
4.933333333333335,53,62,0,0.06,4.913030303030305,20.303030303030305
4.94999999999999,60,62,1,0.045000000000000005,4.92969696969696,20.303030303030305
4.99999999999999,53,62,1,0.045000000000000005,4.97969696969696,20.303030303030305
5.000000000000002,48,62,0,0.06,4.979696969696971,20.303030303030305
5.04999999999999,71,62,1,0.045000000000000005,5.02969696969696,20.303030303030305
5.066666666666668,48,62,0,0.06,5.046363636363638,20.303030303030305
5.09999999999999,52,62,1,0.045000000000000005,5.079696969696959,20.303030303030305
5.133333333333335,55,62,0,0.06,5.113030303030304,20.303030303030305
5.14999999999999,60,62,1,0.045000000000000005,5.129696969696959,20.303030303030305
5.1999999999999895,62,62,1,0.045000000000000005,5.179696969696959,20.303030303030305
5.200000000000001,45,62,0,0.06,5.179696969696971,20.303030303030305
5.249999999999989,59,62,1,0.045000000000000005,5.229696969696959,20.303030303030305
5.2666666666666675,53,62,0,0.06,5.246363636363637,20.303030303030305
5.299999999999989,57,62,1,0.045000000000000005,5.279696969696959,20.303030303030305
5.333333333333334,48,62,0,0.06,5.313030303030303,20.303030303030305
5.349999999999989,76,62,1,0.045000000000000005,5.3296969696969585,20.303030303030305
5.399999999999989,65,62,1,0.045000000000000005,5.379696969696958,20.303030303030305
5.4,52,62,0,0.06,5.37969696969697,20.303030303030305
5.449999999999989,43,62,1,0.045000000000000005,5.429696969696958,20.303030303030305
5.466666666666667,48,62,0,0.06,5.446363636363636,20.303030303030305
5.4999999999999885,65,62,1,0.045000000000000005,5.479696969696958,20.303030303030305
5.533333333333333,45,62,0,0.06,5.513030303030303,20.303030303030305
5.549999999999988,62,62,1,0.045000000000000005,5.529696969696958,20.303030303030305
5.599999999999988,55,62,1,0.045000000000000005,5.579696969696958,20.303030303030305
5.6,43,62,0,0.06,5.579696969696969,20.303030303030305
5.649999999999988,43,62,1,0.045000000000000005,5.629696969696957,20.303030303030305
5.666666666666666,41,62,0,0.06,5.646363636363636,20.303030303030305
5.699999999999988,65,62,1,0.045000000000000005,5.679696969696957,20.303030303030305
5.7333333333333325,53,62,0,0.06,5.713030303030302,20.303030303030305
5.749999999999988,69,62,1,0.045000000000000005,5.729696969696957,20.303030303030305
5.799999999999987,52,62,1,0.045000000000000005,5.779696969696957,20.303030303030305
5.799999999999999,43,62,0,0.06,5.7796969696969684,20.303030303030305
5.849999999999987,55,62,1,0.045000000000000005,5.829696969696957,20.303030303030305
5.866666666666665,50,62,0,0.06,5.846363636363635,20.303030303030305
5.899999999999987,60,62,1,0.045000000000000005,5.8796969696969565,20.303030303030305
5.933333333333332,45,62,0,0.06,5.913030303030301,20.303030303030305
5.949999999999987,60,62,1,0.045000000000000005,5.929696969696956,20.303030303030305
5.999999999999987,60,62,1,0.045000000000000005,5.979696969696956,20.303030303030305
5.999999999999998,43,62,0,0.06,5.979696969696968,20.303030303030305
6.0499999999999865,60,62,1,0.045000000000000005,6.029696969696956,20.303030303030305
6.066666666666665,53,62,0,0.06,6.046363636363634,20.303030303030305
6.099999999999986,53,62,1,0.045000000000000005,6.079696969696956,20.303030303030305
6.133333333333331,57,62,0,0.06,6.113030303030301,20.303030303030305
6.149999999999986,57,62,1,0.045000000000000005,6.129696969696956,20.303030303030305
6.199999999999986,53,62,1,0.045000000000000005,6.1796969696969555,20.303030303030305
6.1999999999999975,36,62,0,0.06,6.179696969696967,20.303030303030305
6.249999999999986,62,62,1,0.045000000000000005,6.229696969696955,20.303030303030305
6.266666666666664,48,62,0,0.06,6.2463636363636335,20.303030303030305
6.299999999999986,60,62,1,0.045000000000000005,6.279696969696955,20.303030303030305
6.33333333333333,50,62,0,0.06,6.3130303030303,20.303030303030305
6.349999999999985,65,62,1,0.045000000000000005,6.329696969696955,20.303030303030305
6.399999999999985,55,62,1,0.045000000000000005,6.379696969696955,20.303030303030305
6.399999999999997,48,62,0,0.06,6.379696969696966,20.303030303030305
6.449999999999985,50,62,1,0.045000000000000005,6.429696969696955,20.303030303030305
6.466666666666663,60,62,0,0.06,6.446363636363633,20.303030303030305
6.499999999999985,53,62,1,0.045000000000000005,6.479696969696954,20.303030303030305
6.53333333333333,60,62,0,0.06,6.513030303030299,20.303030303030305
6.549999999999985,57,62,1,0.045000000000000005,6.529696969696954,20.303030303030305
6.5999999999999845,55,62,1,0.045000000000000005,6.579696969696954,20.303030303030305
6.599999999999996,50,62,0,0.06,6.579696969696966,20.303030303030305
6.649999999999984,69,62,1,0.045000000000000005,6.629696969696954,20.303030303030305
6.6666666666666625,43,62,0,0.06,6.646363636363632,20.303030303030305
6.699999999999984,59,62,1,0.045000000000000005,6.679696969696954,20.303030303030305
6.733333333333329,41,62,0,0.06,6.7130303030302985,20.303030303030305
6.749999999999984,57,62,1,0.045000000000000005,6.7296969696969535,20.303030303030305
6.799999999999984,59,62,1,0.045000000000000005,6.779696969696953,20.303030303030305
6.799999999999995,35,62,0,0.06,6.779696969696965,20.303030303030305
6.849999999999984,52,62,1,0.045000000000000005,6.829696969696953,20.303030303030305
6.866666666666662,55,62,0,0.06,6.846363636363631,20.303030303030305
6.8999999999999835,55,62,1,0.045000000000000005,6.879696969696953,20.303030303030305
6.933333333333328,41,62,0,0.06,6.913030303030298,20.303030303030305
6.949999999999983,60,62,1,0.045000000000000005,6.929696969696953,20.303030303030305
6.999999999999983,67,62,1,0.045000000000000005,6.979696969696953,20.303030303030305
6.999999999999995,52,62,0,0.06,6.979696969696964,20.303030303030305
7.049999999999983,57,62,1,0.045000000000000005,7.0296969696969525,20.303030303030305
7.066666666666661,52,62,0,0.06,7.046363636363631,20.303030303030305
7.099999999999983,53,62,1,0.045000000000000005,7.079696969696952,20.303030303030305
7.1333333333333275,45,62,0,0.06,7.113030303030297,20.303030303030305
7.149999999999983,53,62,1,0.045000000000000005,7.129696969696952,20.303030303030305
7.199999999999982,53,62,1,0.045000000000000005,7.179696969696952,20.303030303030305
7.199999999999994,43,62,0,0.06,7.1796969696969635,20.303030303030305
7.249999999999982,60,62,1,0.045000000000000005,7.229696969696952,20.303030303030305
7.26666666666666,47,62,0,0.06,7.24636363636363,20.303030303030305
7.299999999999982,48,62,1,0.045000000000000005,7.279696969696952,20.303030303030305
7.333333333333327,45,62,0,0.06,7.313030303030296,20.303030303030305
7.349999999999982,67,62,1,0.045000000000000005,7.329696969696951,20.303030303030305
7.399999999999982,48,62,1,0.045000000000000005,7.379696969696951,20.303030303030305
7.399999999999993,53,62,0,0.06,7.379696969696963,20.303030303030305
7.4499999999999815,60,62,1,0.045000000000000005,7.429696969696951,20.303030303030305
7.46666666666666,60,62,0,0.06,7.446363636363629,20.303030303030305
7.499999999999981,67,62,1,0.045000000000000005,7.479696969696951,20.303030303030305
7.533333333333326,50,62,0,0.06,7.513030303030296,20.303030303030305
7.549999999999981,60,62,1,0.045000000000000005,7.529696969696951,20.303030303030305
7.599999999999981,60,62,1,0.045000000000000005,7.5796969696969505,20.303030303030305
7.5999999999999925,53,62,0,0.06,7.579696969696962,20.303030303030305
7.649999999999981,62,62,1,0.045000000000000005,7.62969696969695,20.303030303030305
7.666666666666659,41,62,0,0.06,7.6463636363636285,20.303030303030305
7.699999999999981,55,62,1,0.045000000000000005,7.67969696969695,20.303030303030305
7.733333333333325,57,62,0,0.06,7.713030303030295,20.303030303030305
7.7499999999999805,52,62,1,0.045000000000000005,7.72969696969695,20.303030303030305
7.79999999999998,60,62,1,0.045000000000000005,7.77969696969695,20.303030303030305
7.799999999999992,62,62,0,0.06,7.779696969696961,20.303030303030305
7.84999999999998,57,62,1,0.045000000000000005,7.82969696969695,20.303030303030305
7.866666666666658,50,62,0,0.06,7.846363636363628,20.303030303030305
7.89999999999998,50,62,1,0.045000000000000005,7.879696969696949,20.303030303030305
7.933333333333325,43,62,0,0.06,7.913030303030294,20.303030303030305
7.94999999999998,64,62,1,0.045000000000000005,7.929696969696949,20.303030303030305
7.99999999999998,62,62,1,0.045000000000000005,7.979696969696949,20.303030303030305
7.999999999999991,47,62,0,0.06,7.979696969696961,20.303030303030305
8.04999999999998,53,62,1,0.045000000000000005,8.02969696969695,20.303030303030305
8.066666666666658,41,62,0,0.06,8.046363636363628,20.303030303030305
8.09999999999998,45,62,1,0.045000000000000005,8.07969696969695,20.303030303030305
8.133333333333324,41,62,0,0.06,8.113030303030294,20.303030303030305
8.14999999999998,57,62,1,0.045000000000000005,8.129696969696951,20.303030303030305
8.199999999999982,64,62,1,0.045000000000000005,8.179696969696952,20.303030303030305
8.19999999999999,43,62,0,0.06,8.17969696969696,20.303030303030305
8.249999999999982,60,62,1,0.045000000000000005,8.229696969696953,20.303030303030305
8.266666666666657,55,62,0,0.06,8.246363636363627,20.303030303030305
8.299999999999983,59,62,1,0.045000000000000005,8.279696969696953,20.303030303030305
8.333333333333323,43,62,0,0.06,8.313030303030294,20.303030303030305
8.349999999999984,57,62,1,0.045000000000000005,8.329696969696954,20.303030303030305
8.399999999999984,60,62,1,0.045000000000000005,8.379696969696955,20.303030303030305
8.39999999999999,48,62,0,0.06,8.37969696969696,20.303030303030305
8.449999999999985,65,62,1,0.045000000000000005,8.429696969696955,20.303030303030305
8.466666666666656,43,62,0,0.06,8.446363636363627,20.303030303030305
8.499999999999986,55,62,1,0.045000000000000005,8.479696969696956,20.303030303030305
8.533333333333323,45,62,0,0.06,8.513030303030293,20.303030303030305
8.549999999999986,50,62,1,0.045000000000000005,8.529696969696957,20.303030303030305
8.599999999999987,62,62,1,0.045000000000000005,8.579696969696958,20.303030303030305
8.599999999999989,38,62,0,0.06,8.57969696969696,20.303030303030305
8.649999999999988,53,62,1,0.045000000000000005,8.629696969696958,20.303030303030305
8.666666666666655,41,62,0,0.06,8.646363636363626,20.303030303030305
8.699999999999989,50,62,1,0.045000000000000005,8.679696969696959,20.303030303030305
8.733333333333322,50,62,0,0.06,8.713030303030292,20.303030303030305
8.74999999999999,64,62,1,0.045000000000000005,8.72969696969696,20.303030303030305
8.799999999999988,48,62,0,0.06,8.779696969696959,20.303030303030305
8.79999999999999,62,62,1,0.045000000000000005,8.77969696969696,20.303030303030305
8.84999999999999,53,62,1,0.045000000000000005,8.829696969696961,20.303030303030305
8.866666666666655,50,62,0,0.06,8.846363636363625,20.303030303030305
8.899999999999991,65,62,1,0.045000000000000005,8.879696969696962,20.303030303030305
8.933333333333321,55,62,0,0.06,8.913030303030292,20.303030303030305
8.949999999999992,57,62,1,0.045000000000000005,8.929696969696963,20.303030303030305
8.999999999999988,62,62,0,0.06,8.979696969696958,20.303030303030305
8.999999999999993,67,62,1,0.045000000000000005,8.979696969696963,20.303030303030305
9.049999999999994,53,62,1,0.045000000000000005,9.029696969696964,20.303030303030305
9.066666666666654,47,62,0,0.06,9.046363636363624,20.303030303030305
9.099999999999994,55,62,1,0.045000000000000005,9.079696969696965,20.303030303030305
9.13333333333332,40,62,0,0.06,9.11303030303029,20.303030303030305
9.149999999999995,59,62,1,0.045000000000000005,9.129696969696965,20.303030303030305
9.199999999999987,48,62,0,0.06,9.179696969696957,20.303030303030305
9.199999999999996,57,62,1,0.045000000000000005,9.179696969696966,20.303030303030305
9.249999999999996,60,62,1,0.045000000000000005,9.229696969696967,20.303030303030305
9.266666666666653,59,62,0,0.06,9.246363636363624,20.303030303030305
9.299999999999997,62,62,1,0.045000000000000005,9.279696969696968,20.303030303030305
9.33333333333332,43,62,0,0.06,9.31303030303029,20.303030303030305
9.349999999999998,57,62,1,0.045000000000000005,9.329696969696968,20.303030303030305
9.399999999999986,43,62,0,0.06,9.379696969696957,20.303030303030305
9.399999999999999,72,62,1,0.045000000000000005,9.379696969696969,20.303030303030305
9.45,60,62,1,0.045000000000000005,9.42969696969697,20.303030303030305
9.466666666666653,47,62,0,0.06,9.446363636363623,20.303030303030305
9.5,59,62,1,0.045000000000000005,9.47969696969697,20.303030303030305
9.533333333333319,50,62,0,0.06,9.51303030303029,20.303030303030305
9.55,57,62,1,0.045000000000000005,9.529696969696971,20.303030303030305
9.599999999999985,53,62,0,0.06,9.579696969696956,20.303030303030305
9.600000000000001,71,62,1,0.045000000000000005,9.579696969696972,20.303030303030305
9.650000000000002,60,62,1,0.045000000000000005,9.629696969696973,20.303030303030305
9.666666666666652,53,62,0,0.06,9.646363636363622,20.303030303030305
9.700000000000003,57,62,1,0.045000000000000005,9.679696969696973,20.303030303030305
9.733333333333318,50,62,0,0.06,9.713030303030289,20.303030303030305
9.750000000000004,55,62,1,0.045000000000000005,9.729696969696974,20.303030303030305
9.799999999999985,33,62,0,0.06,9.779696969696955,20.303030303030305
9.800000000000004,57,62,1,0.045000000000000005,9.779696969696975,20.303030303030305
9.850000000000005,57,62,1,0.045000000000000005,9.829696969696975,20.303030303030305
9.866666666666651,47,62,0,0.06,9.846363636363622,20.303030303030305
9.900000000000006,47,62,1,0.045000000000000005,9.879696969696976,20.303030303030305
9.933333333333318,41,62,0,0.06,9.913030303030288,20.303030303030305
9.950000000000006,59,62,1,0.045000000000000005,9.929696969696977,20.303030303030305
9.999999999999984,47,62,0,0.06,9.979696969696954,20.303030303030305
10.000000000000007,62,62,1,0.045000000000000005,9.979696969696978,20.303030303030305
10.050000000000008,62,62,1,0.045000000000000005,10.029696969696978,20.303030303030305
10.06666666666665,43,62,0,0.06,10.04636363636362,20.303030303030305
10.100000000000009,67,62,1,0.045000000000000005,10.079696969696979,20.303030303030305
10.133333333333317,47,62,0,0.06,10.113030303030287,20.303030303030305
10.15000000000001,69,62,1,0.045000000000000005,10.12969696969698,20.303030303030305
10.199999999999983,53,62,0,0.06,10.179696969696954,20.303030303030305
10.20000000000001,71,62,1,0.045000000000000005,10.17969696969698,20.303030303030305
10.25000000000001,62,62,1,0.045000000000000005,10.229696969696981,20.303030303030305
10.26666666666665,47,62,0,0.06,10.24636363636362,20.303030303030305
10.300000000000011,53,62,1,0.045000000000000005,10.279696969696982,20.303030303030305
10.333333333333316,36,62,0,0.06,10.313030303030287,20.303030303030305
10.350000000000012,65,62,1,0.045000000000000005,10.329696969696982,20.303030303030305
10.399999999999983,50,62,0,0.06,10.379696969696953,20.303030303030305
10.400000000000013,62,62,1,0.045000000000000005,10.379696969696983,20.303030303030305
10.450000000000014,62,62,1,0.045000000000000005,10.429696969696984,20.303030303030305
10.466666666666649,43,62,0,0.06,10.44636363636362,20.303030303030305
10.500000000000014,53,62,1,0.045000000000000005,10.479696969696985,20.303030303030305
10.533333333333315,45,62,0,0.06,10.513030303030286,20.303030303030305
10.550000000000015,53,62,1,0.045000000000000005,10.529696969696985,20.303030303030305
10.599999999999982,45,62,0,0.06,10.579696969696952,20.303030303030305
10.600000000000016,60,62,1,0.045000000000000005,10.579696969696986,20.303030303030305
10.650000000000016,60,62,1,0.045000000000000005,10.629696969696987,20.303030303030305
10.666666666666648,41,62,0,0.06,10.646363636363619,20.303030303030305
10.700000000000017,62,62,1,0.045000000000000005,10.679696969696987,20.303030303030305
10.733333333333315,36,62,0,0.06,10.713030303030285,20.303030303030305
10.750000000000018,57,62,1,0.045000000000000005,10.729696969696988,20.303030303030305
10.799999999999981,48,62,0,0.06,10.779696969696952,20.303030303030305
10.800000000000018,65,62,1,0.045000000000000005,10.779696969696989,20.303030303030305
10.85000000000002,60,62,1,0.045000000000000005,10.82969696969699,20.303030303030305
10.866666666666648,52,62,0,0.06,10.846363636363618,20.303030303030305
10.90000000000002,59,62,1,0.045000000000000005,10.87969696969699,20.303030303030305
10.933333333333314,53,62,0,0.06,10.913030303030284,20.303030303030305
10.95000000000002,53,62,1,0.045000000000000005,10.929696969696991,20.303030303030305
10.99999999999998,29,62,0,0.06,10.97969696969695,20.303030303030305
11.000000000000021,64,62,1,0.045000000000000005,10.979696969696992,20.303030303030305
11.050000000000022,57,62,1,0.045000000000000005,11.029696969696992,20.303030303030305
11.066666666666647,45,62,0,0.06,11.046363636363617,20.303030303030305
11.100000000000023,57,62,1,0.045000000000000005,11.079696969696993,20.303030303030305
11.133333333333313,52,62,0,0.06,11.113030303030284,20.303030303030305
11.150000000000023,57,62,1,0.045000000000000005,11.129696969696994,20.303030303030305
11.19999999999998,60,62,0,0.06,11.17969696969695,20.303030303030305
11.200000000000024,74,62,1,0.045000000000000005,11.179696969696995,20.303030303030305
11.250000000000025,62,62,1,0.045000000000000005,11.229696969696995,20.303030303030305
11.266666666666646,53,62,0,0.06,11.246363636363617,20.303030303030305
11.300000000000026,60,62,1,0.045000000000000005,11.279696969696996,20.303030303030305
11.333333333333313,40,62,0,0.06,11.313030303030283,20.303030303030305
11.350000000000026,65,62,1,0.045000000000000005,11.329696969696997,20.303030303030305
11.399999999999979,45,62,0,0.06,11.37969696969695,20.303030303030305
11.400000000000027,72,62,1,0.045000000000000005,11.379696969696997,20.303030303030305
11.450000000000028,65,62,1,0.045000000000000005,11.429696969696998,20.303030303030305
11.466666666666645,55,62,0,0.06,11.446363636363616,20.303030303030305
11.500000000000028,65,62,1,0.045000000000000005,11.479696969696999,20.303030303030305
11.533333333333312,43,62,0,0.06,11.513030303030282,20.303030303030305
11.55000000000003,55,62,1,0.045000000000000005,11.529696969697,20.303030303030305
11.599999999999978,33,62,0,0.06,11.579696969696949,20.303030303030305
11.60000000000003,64,62,1,0.045000000000000005,11.579696969697,20.303030303030305
11.65000000000003,59,62,1,0.045000000000000005,11.629696969697001,20.303030303030305
11.666666666666645,45,62,0,0.06,11.646363636363615,20.303030303030305
11.700000000000031,65,62,1,0.045000000000000005,11.679696969697002,20.303030303030305
11.733333333333311,47,62,0,0.06,11.713030303030282,20.303030303030305
11.750000000000032,52,62,1,0.045000000000000005,11.729696969697002,20.303030303030305
11.799999999999978,50,62,0,0.06,11.779696969696948,20.303030303030305
11.800000000000033,67,62,1,0.045000000000000005,11.779696969697003,20.303030303030305
11.850000000000033,50,62,1,0.045000000000000005,11.829696969697004,20.303030303030305
11.866666666666644,43,62,0,0.06,11.846363636363614,20.303030303030305
11.900000000000034,60,62,1,0.045000000000000005,11.879696969697005,20.303030303030305
11.93333333333331,52,62,0,0.06,11.91303030303028,20.303030303030305
11.950000000000035,60,62,1,0.045000000000000005,11.929696969697005,20.303030303030305
11.999999999999977,45,62,0,0.06,11.979696969696947,20.303030303030305
12.000000000000036,57,62,1,0.045000000000000005,11.979696969697006,20.303030303030305
12.050000000000036,62,62,1,0.045000000000000005,12.029696969697007,20.303030303030305
12.066666666666643,50,62,0,0.06,12.046363636363614,20.303030303030305
12.100000000000037,60,62,1,0.045000000000000005,12.079696969697007,20.303030303030305
12.13333333333331,48,62,0,0.06,12.11303030303028,20.303030303030305
12.150000000000038,60,62,1,0.045000000000000005,12.129696969697008,20.303030303030305
12.199999999999976,36,62,0,0.06,12.179696969696947,20.303030303030305
12.200000000000038,55,62,1,0.045000000000000005,12.179696969697009,20.303030303030305
12.250000000000039,57,62,1,0.045000000000000005,12.22969696969701,20.303030303030305
12.266666666666643,36,62,0,0.06,12.246363636363613,20.303030303030305
12.30000000000004,53,62,1,0.045000000000000005,12.27969696969701,20.303030303030305
12.333333333333309,36,62,0,0.06,12.31303030303028,20.303030303030305
12.35000000000004,53,62,1,0.045000000000000005,12.329696969697011,20.303030303030305
12.399999999999975,50,62,0,0.06,12.379696969696946,20.303030303030305
12.400000000000041,77,62,1,0.045000000000000005,12.379696969697012,20.303030303030305
12.450000000000042,60,62,1,0.045000000000000005,12.429696969697012,20.303030303030305
12.466666666666642,48,62,0,0.06,12.446363636363612,20.303030303030305
12.500000000000043,57,62,1,0.045000000000000005,12.479696969697013,20.303030303030305
12.533333333333308,41,62,0,0.06,12.513030303030279,20.303030303030305
12.550000000000043,48,62,1,0.045000000000000005,12.529696969697014,20.303030303030305
12.599999999999975,50,62,0,0.06,12.579696969696945,20.303030303030305
12.600000000000044,57,62,1,0.045000000000000005,12.579696969697014,20.303030303030305
12.650000000000045,55,62,1,0.045000000000000005,12.629696969697015,20.303030303030305
12.666666666666641,41,62,0,0.06,12.646363636363612,20.303030303030305
12.700000000000045,60,62,1,0.045000000000000005,12.679696969697016,20.303030303030305
12.733333333333308,36,62,0,0.06,12.713030303030278,20.303030303030305
12.750000000000046,62,62,1,0.045000000000000005,12.729696969697017,20.303030303030305
12.799999999999974,48,62,0,0.06,12.779696969696944,20.303030303030305
12.800000000000047,62,62,1,0.045000000000000005,12.779696969697017,20.303030303030305
12.850000000000048,50,62,1,0.045000000000000005,12.829696969697018,20.303030303030305
12.86666666666664,53,62,0,0.06,12.846363636363611,20.303030303030305
12.900000000000048,69,62,1,0.045000000000000005,12.879696969697019,20.303030303030305
12.933333333333307,52,62,0,0.06,12.913030303030277,20.303030303030305
12.950000000000049,69,62,1,0.045000000000000005,12.92969696969702,20.303030303030305
12.999999999999973,41,62,0,0.06,12.979696969696944,20.303030303030305
13.00000000000005,55,62,1,0.045000000000000005,12.97969696969702,20.303030303030305
13.05000000000005,60,62,1,0.045000000000000005,13.02969696969702,20.303030303030305
13.06666666666664,36,62,0,0.06,13.04636363636361,20.303030303030305
13.100000000000051,67,62,1,0.045000000000000005,13.079696969697022,20.303030303030305
13.133333333333306,47,62,0,0.06,13.113030303030277,20.303030303030305
13.150000000000052,52,62,1,0.045000000000000005,13.129696969697022,20.303030303030305
13.199999999999973,55,62,0,0.06,13.179696969696943,20.303030303030305
13.200000000000053,48,62,1,0.045000000000000005,13.179696969697023,20.303030303030305
13.250000000000053,50,62,1,0.045000000000000005,13.229696969697024,20.303030303030305
13.266666666666639,53,62,0,0.06,13.24636363636361,20.303030303030305
13.300000000000054,65,62,1,0.045000000000000005,13.279696969697024,20.303030303030305
13.333333333333306,50,62,0,0.06,13.313030303030276,20.303030303030305
13.350000000000055,65,62,1,0.045000000000000005,13.329696969697025,20.303030303030305
13.399999999999972,41,62,0,0.06,13.379696969696942,20.303030303030305
13.400000000000055,55,62,1,0.045000000000000005,13.379696969697026,20.303030303030305
13.450000000000056,59,62,1,0.045000000000000005,13.429696969697027,20.303030303030305
13.466666666666638,40,62,0,0.06,13.446363636363609,20.303030303030305
13.500000000000057,57,62,1,0.045000000000000005,13.479696969697027,20.303030303030305
13.533333333333305,52,62,0,0.06,13.513030303030275,20.303030303030305
13.550000000000058,55,62,1,0.045000000000000005,13.529696969697028,20.303030303030305
13.599999999999971,38,62,0,0.06,13.579696969696942,20.303030303030305
13.600000000000058,62,62,1,0.045000000000000005,13.579696969697029,20.303030303030305
13.650000000000059,69,62,1,0.045000000000000005,13.62969696969703,20.303030303030305
13.666666666666638,59,62,0,0.06,13.646363636363608,20.303030303030305
13.70000000000006,55,62,1,0.045000000000000005,13.67969696969703,20.303030303030305
13.733333333333304,53,62,0,0.06,13.713030303030274,20.303030303030305
13.75000000000006,60,62,1,0.045000000000000005,13.72969696969703,20.303030303030305
13.79999999999997,41,62,0,0.06,13.779696969696941,20.303030303030305
13.800000000000061,65,62,1,0.045000000000000005,13.779696969697032,20.303030303030305
13.850000000000062,53,62,1,0.045000000000000005,13.829696969697032,20.303030303030305
13.866666666666637,47,62,0,0.06,13.846363636363607,20.303030303030305
13.900000000000063,62,62,1,0.045000000000000005,13.879696969697033,20.303030303030305
13.933333333333303,38,62,0,0.06,13.913030303030274,20.303030303030305
13.950000000000063,65,62,1,0.045000000000000005,13.929696969697034,20.303030303030305
13.99999999999997,45,62,0,0.06,13.97969696969694,20.303030303030305
14.000000000000064,53,62,1,0.045000000000000005,13.979696969697034,20.303030303030305
14.050000000000065,67,62,1,0.045000000000000005,14.029696969697035,20.303030303030305
14.066666666666636,55,62,0,0.06,14.046363636363607,20.303030303030305
14.100000000000065,69,62,1,0.045000000000000005,14.079696969697036,20.303030303030305
14.133333333333303,59,62,0,0.06,14.113030303030273,20.303030303030305
14.150000000000066,71,62,1,0.045000000000000005,14.129696969697036,20.303030303030305
14.199999999999969,52,62,0,0.06,14.17969696969694,20.303030303030305
14.200000000000067,64,62,1,0.045000000000000005,14.179696969697037,20.303030303030305
14.250000000000068,57,62,1,0.045000000000000005,14.229696969697038,20.303030303030305
14.266666666666636,33,62,0,0.06,14.246363636363606,20.303030303030305
14.300000000000068,62,62,1,0.045000000000000005,14.279696969697039,20.303030303030305
14.333333333333302,50,62,0,0.06,14.313030303030272,20.303030303030305
14.350000000000069,59,62,1,0.045000000000000005,14.32969696969704,20.303030303030305
14.399999999999968,50,62,0,0.06,14.379696969696939,20.303030303030305
14.40000000000007,62,62,1,0.045000000000000005,14.37969696969704,20.303030303030305
14.45000000000007,62,62,1,0.045000000000000005,14.42969696969704,20.303030303030305
14.466666666666635,45,62,0,0.06,14.446363636363605,20.303030303030305
14.500000000000071,50,62,1,0.045000000000000005,14.479696969697041,20.303030303030305
14.533333333333301,53,62,0,0.06,14.513030303030272,20.303030303030305
14.550000000000072,60,62,1,0.045000000000000005,14.529696969697042,20.303030303030305
14.599999999999968,40,62,0,0.06,14.579696969696938,20.303030303030305
14.600000000000072,59,62,1,0.045000000000000005,14.579696969697043,20.303030303030305
14.650000000000073,60,62,1,0.045000000000000005,14.629696969697044,20.303030303030305
14.666666666666634,52,62,0,0.06,14.646363636363604,20.303030303030305
14.700000000000074,53,62,1,0.045000000000000005,14.679696969697044,20.303030303030305
14.7333333333333,47,62,0,0.06,14.713030303030271,20.303030303030305
14.750000000000075,53,62,1,0.045000000000000005,14.729696969697045,20.303030303030305
14.799999999999967,50,62,0,0.06,14.779696969696937,20.303030303030305
14.800000000000075,60,62,1,0.045000000000000005,14.779696969697046,20.303030303030305
14.850000000000076,67,62,1,0.045000000000000005,14.829696969697046,20.303030303030305
14.866666666666633,62,62,0,0.06,14.846363636363604,20.303030303030305
14.900000000000077,53,62,1,0.045000000000000005,14.879696969697047,20.303030303030305
14.9333333333333,50,62,0,0.06,14.91303030303027,20.303030303030305
14.950000000000077,52,62,1,0.045000000000000005,14.929696969697048,20.303030303030305
15.0,55,55,1,0.009000000000000001,14.978602150537634,21.397849462365592
14.999999999999966,45,62,0,0.06,14.979696969696937,20.303030303030305
15.0,58,100,0,0.009000000000000001,14.98564027370479,14.359726295210166
15.01,40,83,1,0.009000000000000001,14.992981427174975,17.01857282502444
15.01,64,96,0,0.009000000000000001,14.995014662756597,14.985337243401759
15.02,57,80,0,0.009000000000000001,15.002512218963831,17.487781036168133
15.02,36,82,1,0.010577337040074217,15.002825024437927,17.174975562072337
15.031752596711193,71,54,1,0.009000000000000001,15.01019834451178,21.55425219941349
15.03,56,123,0,0.009000000000000001,15.01923753665689,10.762463343108504
15.04,55,69,0,0.009000000000000001,15.020791788856304,19.208211143695017
15.041752596711193,63,86,1,0.009000000000000001,15.025203232097313,16.549364613880744
15.051752596711193,54,40,1,0.009000000000000001,15.02800870619311,23.743890518084065
15.049999999999999,72,115,0,0.009000000000000001,15.037986314760508,12.013685239491693
15.061752596711193,64,65,1,0.009000000000000001,15.041918774619306,19.83382209188661
15.059999999999999,44,103,0,0.009000000000000001,15.046109481915932,13.890518084066471
15.071752596711192,51,73,1,0.009000000000000001,15.053169996515688,18.58260019550342
15.069999999999999,45,101,0,0.009000000000000001,15.055796676441837,14.203323558162268
15.079999999999998,82,86,0,0.009000000000000001,15.063450635386118,16.549364613880744
15.089999999999998,52,59,0,0.009000000000000001,15.069227761485823,20.772238514174
15.081752596711192,78,120,1,0.009000000000000001,15.07052092515694,11.231671554252198
15.091752596711192,21,57,1,0.009000000000000001,15.070667552722922,21.085043988269796
15.099999999999998,49,86,0,0.009000000000000001,15.083450635386118,16.549364613880744
15.101752596711192,84,78,1,0.009000000000000001,15.083952010200928,17.80058651026393
15.111752596711192,64,57,1,0.009000000000000001,15.090667552722921,21.085043988269796
15.109999999999998,21,102,0,0.009000000000000001,15.095953079178884,14.04692082111437
15.119999999999997,49,93,0,0.009000000000000001,15.104545454545452,15.454545454545453
15.129999999999997,56,54,0,0.01708420591139182,15.108445747800584,21.55425219941349
15.121752596711191,68,113,1,0.01332262847566778,15.109426105997604,12.32649071358749
15.136555517239712,86,76,1,0.009000000000000001,15.118442125255353,18.113391984359726
15.146555517239712,74,99,1,0.009000000000000001,15.132039388207454,14.516129032258064
15.156555517239712,51,53,1,0.009000000000000001,15.13484486230325,21.71065493646139
15.148982451012655,78,105,0,0.009000000000000001,15.135404738402684,13.577712609970675
15.158982451012655,40,124,0,0.012811548386844613,15.148376390406595,10.606060606060606
15.166555517239711,74,99,1,0.009000000000000001,15.152039388207454,14.516129032258064
15.173217504775815,62,110,0,0.01093834588617764,15.160421805851083,12.795698924731184
15.176555517239711,62,94,1,0.009000000000000001,15.161257374522213,15.298142717497555
15.185371222427124,70,83,0,0.009000000000000001,15.168352649602099,17.01857282502444
15.18655551723971,66,90,1,0.009000000000000001,15.170631763574022,15.923753665689148
15.195371222427124,89,46,0,0.009000000000000001,15.172565748331326,22.805474095796676
15.19655551723971,46,65,1,0.009000000000000001,15.176721695147824,19.83382209188661
15.205371222427123,89,69,0,0.009000000000000001,15.186163011283428,19.208211143695017
15.20655551723971,72,112,1,0.009000000000000001,15.194072623789076,12.482893450635387
15.21655551723971,50,76,1,0.009000000000000001,15.198442125255351,18.113391984359726
15.215371222427123,93,109,0,0.009000000000000001,15.202419120765343,12.952101661779082
15.22655551723971,79,42,1,0.009000000000000001,15.203124432195722,23.43108504398827
15.225371222427123,24,73,0,0.009000000000000001,15.206788622231619,18.58260019550342
15.23655551723971,73,90,1,0.009000000000000001,15.220631763574021,15.923753665689148
15.235371222427123,54,101,0,0.018126360529443306,15.221167898868961,14.203323558162268
15.255511623015392,93,54,0,0.009000000000000001,15.233957370815979,21.55425219941349
15.24655551723971,48,113,1,0.009000000000000001,15.234229026526123,12.32649071358749
15.25655551723971,61,99,1,0.009000000000000001,15.242039388207452,14.516129032258064
15.26655551723971,78,37,1,0.009000000000000001,15.242342418510482,24.21309872922776
15.265511623015392,51,80,0,0.015209228026793599,15.248023841979224,17.487781036168133
15.276555517239709,25,89,1,0.009000000000000001,15.260475360836972,16.080156402737046
15.286555517239709,38,69,1,0.009000000000000001,15.267347306096013,19.208211143695017
15.292410765267386,72,39,0,0.009000000000000001,15.268510472012254,23.900293255131963
15.282410765267386,79,103,0,0.009000000000000001,15.26852024718332,13.890518084066471
15.296555517239709,62,82,1,0.009000000000000001,15.279380541677636,17.174975562072337
15.302410765267386,48,90,0,0.009000000000000001,15.286487011601697,15.923753665689148
15.306555517239708,50,85,1,0.009000000000000001,15.289849749888779,16.705767350928642
15.316555517239708,30,47,1,0.009000000000000001,15.293906445880959,22.649071358748778
15.312410765267385,39,110,0,0.009000000000000001,15.299615066342653,12.795698924731184
15.322410765267385,69,98,0,0.009000000000000001,15.307738233498078,14.672531769305962
15.326555517239708,41,82,1,0.009000000000000001,15.309380541677635,17.174975562072337
15.336555517239708,48,66,1,0.009000000000000001,15.316878097884869,19.67741935483871
15.342410765267385,54,58,0,0.019643872595766946,15.321482124016162,20.928641251221897
15.332410765267385,38,123,0,0.009000000000000001,15.321648301924276,10.762463343108504
15.346555517239707,42,42,1,0.009000000000000001,15.32312443219572,23.43108504398827
15.356555517239707,71,118,1,0.009000000000000001,15.345011040211359,11.544477028347998
15.364237290373792,44,75,0,0.009000000000000001,15.345967495652385,18.269794721407624
15.366555517239707,81,103,1,0.009000000000000001,15.35266499915564,13.890518084066471
15.374237290373792,61,98,0,0.009000000000000001,15.359564758604485,14.672531769305962
15.384237290373791,78,45,0,0.009000000000000001,15.361275413540946,22.961876832844574
15.376555517239707,75,123,1,0.009000000000000001,15.365793053896597,10.762463343108504
15.386555517239707,52,92,1,0.009000000000000001,15.370944569048113,15.610948191593351
15.394237290373791,54,52,0,0.009000000000000001,15.372370232700282,21.867057673509287
15.396555517239706,53,42,1,0.009000000000000001,15.373124432195718,23.43108504398827
15.404237290373791,27,57,0,0.009000000000000001,15.38315224638552,21.085043988269796
15.406555517239706,63,104,1,0.009000000000000001,15.392821401892688,13.734115347018573
15.41423729037379,65,88,0,0.009000000000000001,15.398000731234006,16.236559139784944
15.416555517239706,22,84,1,0.009000000000000001,15.399693347151729,16.86217008797654
15.42423729037379,38,40,0,0.019974436009490195,15.400493399855707,23.743890518084065
15.426555517239706,67,104,1,0.009000000000000001,15.412821401892687,13.734115347018573
15.436555517239706,55,92,1,0.009000000000000001,15.420944569048112,15.610948191593351
15.446431108162113,44,39,0,0.009000000000000001,15.422530814906981,23.900293255131963
15.446555517239705,53,84,1,0.009000000000000001,15.429693347151728,16.86217008797654
15.456555517239705,71,84,1,0.009000000000000001,15.439693347151728,16.86217008797654
15.456431108162112,60,88,0,0.009000000000000001,15.440194549022328,16.236559139784944
15.466431108162112,36,55,0,0.01096133000695183,15.445033258699747,21.397849462365592
15.466555517239705,41,66,1,0.009000000000000001,15.446878097884866,19.67741935483871
15.476555517239705,60,50,1,0.009000000000000001,15.4543756540921,22.179863147605083
15.478610363725393,43,79,0,0.013047697258653311,15.460966179952177,17.64418377321603
15.486555517239704,66,41,1,0.009000000000000001,15.462968029458668,23.587487781036167
15.496555517239704,52,45,1,0.009000000000000001,15.47359364040686,22.961876832844574
15.493107805123897,57,84,0,0.009000000000000001,15.47624563503592,16.86217008797654
15.503107805123896,29,79,0,0.009000000000000001,15.48546362135068,17.64418377321603
15.513107805123896,96,51,0,0.009000000000000001,15.49108434471334,22.023460410557185
15.506555517239704,53,103,1,0.009000000000000001,15.492664999155638,13.890518084066471
15.516555517239704,40,68,1,0.009000000000000001,15.49719090335896,19.364613880742915
15.526555517239704,40,67,1,0.009000000000000001,15.507034500621913,19.521016617790814
15.523107805123896,35,98,0,0.009000000000000001,15.50843527335459,14.672531769305962
15.533107805123896,55,69,0,0.009000000000000001,15.5138995939802,19.208211143695017
15.536555517239703,76,81,1,0.009000000000000001,15.519224138940583,17.331378299120235
15.543107805123896,61,67,0,0.009000000000000001,15.523586788506105,19.521016617790814
15.546555517239703,44,56,1,0.009000000000000001,15.525314070514385,21.241446725317694
15.556555517239703,43,40,1,0.009000000000000001,15.53281162672162,23.743890518084065
15.563107805123895,53,37,0,0.009000000000000001,15.538894706394668,24.21309872922776
15.553107805123895,44,103,0,0.009000000000000001,15.539217287039829,13.890518084066471
15.573107805123895,73,53,0,0.009000000000000001,15.551397150187434,21.71065493646139
15.566555517239703,57,103,1,0.009000000000000001,15.552664999155636,13.890518084066471
15.586555517239702,52,51,1,0.009000000000000001,15.564532056829146,22.023460410557185
15.576555517239703,85,116,1,0.009000000000000001,15.564698234737259,11.857282502443795
15.583107805123895,45,80,0,0.009000000000000001,15.565620024087726,17.487781036168133
15.596555517239702,51,68,1,0.009000000000000001,15.577190903358959,19.364613880742915
15.593107805123894,54,122,0,0.014876671921199602,15.582188939043737,10.918866080156402
15.606555517239702,34,72,1,0.009000000000000001,15.58781651430715,18.73900293255132
15.609637440591895,57,54,0,0.009000000000000001,15.588083188392481,21.55425219941349
15.626555517239701,58,43,1,0.009000000000000001,15.603280834932761,23.27468230694037
15.616555517239702,77,108,1,0.009000000000000001,15.603447012840874,13.10850439882698
15.619637440591895,63,121,0,0.009000000000000001,15.60856217177469,11.0752688172043
15.639637440591894,74,38,0,0.009000000000000001,15.615580744599715,24.05669599217986
15.629637440591894,50,106,0,0.009000000000000001,15.616216130718971,13.421309872922777
15.636555517239701,62,108,1,0.009000000000000001,15.623447012840874,13.10850439882698
15.649637440591894,87,65,0,0.011146573207907984,15.629803618500008,19.83382209188661
15.646555517239701,47,98,1,0.009000000000000001,15.631882985470394,14.672531769305962
15.6565555172397,48,39,1,0.009000000000000001,15.63265522398457,23.900293255131963
15.662022521934015,41,38,0,0.009000000000000001,15.637965825941835,24.05669599217986
15.6665555172397,84,66,1,0.009000000000000001,15.646878097884862,19.67741935483871
15.672022521934014,42,63,0,0.009000000000000001,15.651875894368033,20.146627565982406
15.6765555172397,74,49,1,0.009000000000000001,15.654219251355048,22.33626588465298
15.682022521934014,73,59,0,0.009812595004336929,15.66125028341984,20.772238514174
15.6865555172397,57,37,1,0.01463394380876148,15.662342418510473,24.21309872922776
15.692925405272167,52,86,0,0.01539946361935604,15.676376040658287,16.549364613880744
15.702815454804991,62,85,1,0.009000000000000001,15.686109687454062,16.705767350928642
15.710035920404785,68,46,0,0.020713402762369087,15.687230446308988,22.805474095796676
15.712815454804991,71,94,1,0.009000000000000001,15.697517312087493,15.298142717497555
15.72281545480499,63,89,1,0.009000000000000001,15.706735298402254,16.080156402737046
15.73281545480499,78,70,1,0.009000000000000001,15.713763646398343,19.05180840664712
15.733050812362972,63,113,0,0.009000000000000001,15.720724321649385,12.32649071358749
15.74281545480499,34,70,1,0.009000000000000001,15.723763646398343,19.05180840664712
15.743050812362972,42,110,0,0.009000000000000001,15.73025511343824,12.795698924731184
15.75281545480499,46,64,1,0.009048327548928268,15.732825229976056,19.990224828934508
15.753050812362972,76,109,0,0.011666533791124272,15.740098710701192,12.952101661779082
15.766013627686442,32,40,0,0.009000000000000001,15.742269737168359,23.743890518084065
15.762869152081578,62,68,1,0.009000000000000001,15.743504538200835,19.364613880742915
15.772869152081578,55,93,1,0.00965874736515639,15.757414606627032,15.454545454545453
15.776013627686442,58,75,0,0.009000000000000001,15.757743832965035,18.269794721407624
15.786013627686442,27,79,0,0.0166933872888516,15.768369443913226,17.64418377321603
15.783601093598419,46,100,1,0.009000000000000001,15.76924136730321,14.359726295210166
15.793601093598419,67,72,1,0.009000000000000001,15.774862090665867,18.73900293255132
15.803601093598418,70,69,1,0.009000000000000001,15.784392882454723,19.208211143695017
15.804561835785165,55,119,0,0.01599942282432223,15.793173761493865,11.3880742913001
15.813601093598418,100,86,1,0.009000000000000001,15.797051728984538,16.549364613880744
15.822338972256635,60,54,0,0.009000000000000001,15.800784720057221,21.55425219941349
15.823601093598418,78,57,1,0.009000000000000001,15.802516049610148,21.085043988269796
15.832338972256634,54,76,0,0.010421599837544239,15.814225580272275,18.113391984359726
15.833601093598418,56,96,1,0.009000000000000001,15.818615756355015,14.985337243401759
15.843918527631683,55,41,0,0.009000000000000001,15.820331039850647,23.587487781036167
15.843601093598418,45,107,1,0.012591540939686481,15.830336186462542,13.264907135874878
15.853918527631683,70,51,0,0.009000000000000001,15.831895067221126,22.023460410557185
15.863918527631682,47,37,0,0.009000000000000001,15.839705428902455,24.21309872922776
15.857591694642514,108,115,1,0.009000000000000001,15.845578009403022,12.013685239491693
15.867591694642513,72,123,1,0.009000000000000001,15.856829231299404,10.762463343108504
15.883918527631682,64,37,0,0.009000000000000001,15.859705428902455,24.21309872922776
15.873918527631682,44,101,0,0.009000000000000001,15.85971520407352,14.203323558162268
15.877591694642513,63,92,1,0.009000000000000001,15.86198074645092,15.610948191593351
15.887591694642513,24,59,1,0.009000000000000001,15.866819456128338,20.772238514174
15.897591694642513,36,48,1,0.009000000000000001,15.875099026020811,22.49266862170088
15.893918527631682,72,98,0,0.012280158047914718,15.879245995862375,14.672531769305962
15.907591694642512,61,95,1,0.009000000000000001,15.892449954662062,15.141739980449657
15.90756314768492,50,117,0,0.028606147377245456,15.895862267919524,11.700879765395896
15.917591694642512,35,70,1,0.009000000000000001,15.898539886235865,19.05180840664712
15.927591694642512,46,103,1,0.027491178241200655,15.913701176558446,13.890518084066471
15.93934775588186,56,99,0,0.009000000000000001,15.924831626849603,14.516129032258064
15.94934775588186,51,65,0,0.009000000000000001,15.929513933789973,19.83382209188661
15.958137448243846,85,83,1,0.009000000000000001,15.941118875418821,17.01857282502444
15.95934775588186,57,93,0,0.019125670852217322,15.943893210427314,15.454545454545453
15.968137448243846,54,89,1,0.009000000000000001,15.95205729184111,16.080156402737046
15.978137448243846,58,71,1,0.009000000000000001,15.959242042574246,18.89540566959922
15.980598501273212,68,82,0,0.013389063463153258,15.96342352571114,17.174975562072337
15.988137448243846,73,75,1,0.009000000000000001,15.969867653522439,18.269794721407624
15.995475238454492,70,75,0,0.01317911296912756,15.977205443733085,18.269794721407624
15.998137448243845,73,82,1,0.009000000000000001,15.980962472681773,17.174975562072337
16.008137448243847,67,74,1,0.009000000000000001,15.989711250785392,18.426197458455523
16.01813744824385,85,38,1,0.009000000000000001,15.99408075225167,24.05669599217986
16.01011869730908,38,119,0,0.009000000000000001,15.998730623017778,11.3880742913001
16.02011869730908,57,91,0,0.009000000000000001,16.00435134638044,15.76735092864125
16.02813744824385,65,74,1,0.009000000000000001,16.009711250785394,18.426197458455523
16.03011869730908,81,68,0,0.009000000000000001,16.01075408342834,19.364613880742915
16.03813744824385,85,116,1,0.009000000000000001,16.026280165741408,11.857282502443795
16.040118697309083,51,117,0,0.009000000000000001,16.028417817543687,11.700879765395896
16.050118697309085,37,89,0,0.009000000000000001,16.034038540906348,16.080156402737046
16.048137448243853,52,109,1,0.009000000000000001,16.035185346582075,12.952101661779082
16.058137448243855,62,63,1,0.009000000000000001,16.037990820677873,20.146627565982406
16.060118697309086,101,80,0,0.010429571604764617,16.04263091627292,17.487781036168133
16.068137448243856,67,115,1,0.009000000000000001,16.056123763004365,12.013685239491693
16.07170711020327,41,96,0,0.009000000000000001,16.056721772959868,14.985337243401759
16.081707110203272,71,55,0,0.009000000000000001,16.060309260740908,21.397849462365592
16.078137448243858,56,111,1,0.012849334159757007,16.065498152056175,12.639296187683286
16.092414486199143,45,81,1,0.009000000000000001,16.075083107900024,17.331378299120235
16.101707110203275,82,41,0,0.011608458958918403,16.07811962242224,23.587487781036167
16.091707110203274,22,114,0,0.009000000000000001,16.079537022226734,12.170087976539591
16.102414486199145,54,118,1,0.009571450180231941,16.090870009170796,11.544477028347998
16.113049430843848,59,116,1,0.009000000000000001,16.101192148341404,11.857282502443795
16.114605397935406,65,123,0,0.009000000000000001,16.103842934592297,10.762463343108504
16.12304943084385,86,101,1,0.009000000000000001,16.108846107285686,14.203323558162268
16.13304943084385,56,45,1,0.009000000000000001,16.110087554011006,22.961876832844574
16.124605397935408,104,116,0,0.032467499199595,16.112748115432964,11.857282502443795
16.143049430843853,75,122,1,0.009000000000000001,16.132130564763695,10.918866080156402
16.153049430843854,79,124,1,0.021840985029736897,16.142443370237793,10.606060606060606
16.160680397046068,62,92,0,0.009000000000000001,16.145069448854475,15.610948191593351
16.17068039704607,57,99,0,0.009000000000000001,16.15616426801381,14.516129032258064
16.18068039704607,50,49,0,0.009000000000000001,16.158344131161417,22.33626588465298
16.177317191988006,54,116,1,0.009000000000000001,16.165459909485563,11.857282502443795
16.190680397046073,69,62,0,0.009000000000000001,16.170377366743043,20.303030303030305
16.187317191988008,60,92,1,0.009000000000000001,16.171706243796415,15.610948191593351
16.200680397046074,43,45,0,0.009000000000000001,16.17771852021323,22.961876832844574
16.19731719198801,81,118,1,0.01612540021228503,16.18577271495966,11.544477028347998
16.210680397046076,108,109,0,0.009000000000000001,16.197728295384298,12.952101661779082
16.21523430333499,51,93,1,0.009000000000000001,16.199779757880446,15.454545454545453
16.220680397046078,44,79,0,0.017273952494240515,16.20303621327286,17.64418377321603
16.225234303334993,48,61,1,0.009000000000000001,16.204774870294916,20.459433040078203
16.235234303334995,37,102,1,0.009000000000000001,16.22118738251388,14.04692082111437
16.245234303334996,67,49,1,0.009000000000000001,16.222898037450342,22.33626588465298
16.239873677595234,68,119,0,0.0147180153488351,16.228485603303934,11.3880742913001
16.256227027982828,68,50,0,0.013403464284830543,16.23404716483522,22.179863147605083
16.255234303334998,50,96,1,0.009000000000000001,16.240248966091595,14.985337243401759
16.265234303335,48,48,1,0.009000000000000001,16.242741634713298,22.49266862170088
16.271119766077085,62,56,0,0.009000000000000001,16.24987831935177,21.241446725317694
16.275234303335,46,89,1,0.009000000000000001,16.259154146932264,16.080156402737046
16.285234303335002,75,37,1,0.009000000000000001,16.261021204605775,24.21309872922776
16.281119766077087,44,68,0,0.009000000000000001,16.261755152196343,19.364613880742915
16.291119766077088,46,45,0,0.017887075479880322,16.268157889244243,22.961876832844574
16.295234303335004,21,115,1,0.009000000000000001,16.283220618095513,12.013685239491693
16.305234303335006,33,58,1,0.009000000000000001,16.284305662083785,20.928641251221897
16.310994294388067,42,101,0,0.009000000000000001,16.296790970829903,14.203323558162268
16.315234303335007,34,80,1,0.010963053443676018,16.29774652229884,17.487781036168133
16.32099429438807,47,105,0,0.009000000000000001,16.3074165817781,13.577712609970675
16.33099429438807,98,54,0,0.009000000000000001,16.309440042188655,21.55425219941349
16.32741547382798,76,89,1,0.009000000000000001,16.311335317425243,16.080156402737046
16.33741547382798,22,91,1,0.009000000000000001,16.32164812289934,15.76735092864125
16.34099429438807,29,111,0,0.009000000000000001,16.32835499820039,12.639296187683286
16.347415473827983,54,74,1,0.009000000000000001,16.328989276369526,18.426197458455523
16.350994294388073,71,80,0,0.009000000000000001,16.333506513351907,17.487781036168133
16.360994294388075,68,57,0,0.009000000000000001,16.339909250399806,21.085043988269796
16.357415473827984,84,102,1,0.014514755382816056,16.34336855300687,14.04692082111437
16.370994294388076,44,72,0,0.009000000000000001,16.352255291455524,18.73900293255132
16.373542979808892,36,64,1,0.009000000000000001,16.353552754979958,19.990224828934508
16.383542979808894,60,98,1,0.009000000000000001,16.368870448039587,14.672531769305962
16.380994294388078,70,122,0,0.009000000000000001,16.37007542830792,10.918866080156402
16.393542979808895,29,66,1,0.009000000000000001,16.373865560454057,19.67741935483871
16.39099429438808,47,98,0,0.01784041505750661,16.376321762618772,14.672531769305962
16.403542979808897,32,91,1,0.02230378412889804,16.387775628880256,15.76735092864125
16.41081697778531,69,100,0,0.009000000000000001,16.396457251490098,14.359726295210166
16.42832496217434,89,48,1,0.009000000000000001,16.40583229355264,22.49266862170088
16.42081697778531,21,116,0,0.018348094462293105,16.408959695282867,11.857282502443795
16.441203749410082,60,86,0,0.009000000000000001,16.424654384796202,16.549364613880744
16.43832496217434,49,107,1,0.009000000000000001,16.425060055038468,13.264907135874878
16.448324962174343,46,72,1,0.009000000000000001,16.42958595924179,18.73900293255132
16.451203749410084,62,102,0,0.009000000000000001,16.437156828588968,14.04692082111437
16.461203749410085,51,43,0,0.009000000000000001,16.437929067103145,23.27468230694037
16.468324962174346,63,39,1,0.009000000000000001,16.444424668919215,23.900293255131963
16.458324962174345,42,121,1,0.009000000000000001,16.44724969335714,11.0752688172043
16.471203749410087,46,93,0,0.009000000000000001,16.45574920395554,15.454545454545453
16.478324962174348,46,114,1,0.013549725899673843,16.46615487419781,12.170087976539591
16.48120374941009,38,103,0,0.012196828980178315,16.46731323132602,13.890518084066471
16.493380213173985,78,75,1,0.009000000000000001,16.475110418452577,18.269794721407624
16.494755781610287,46,94,0,0.009000000000000001,16.47945763889279,15.298142717497555
16.50475578161029,46,40,0,0.009000000000000001,16.481011891092205,23.743890518084065
16.503380213173987,95,73,1,0.009000000000000001,16.484797612978483,18.58260019550342
16.51338021317399,92,52,1,0.009000000000000001,16.491513155500478,21.867057673509287
16.51475578161029,55,120,0,0.009000000000000001,16.503524110056038,11.231671554252198
16.524755781610292,66,59,0,0.009000000000000001,16.50398354309612,20.772238514174
16.52338021317399,68,91,1,0.009000000000000001,16.50761286224535,15.76735092864125
16.534755781610293,38,47,0,0.009000000000000001,16.512106710251544,22.649071358748778
16.53338021317399,51,79,1,0.009000000000000001,16.515736029400774,17.64418377321603
16.543380213173993,74,48,1,0.009000000000000001,16.52088754455229,22.49266862170088
16.544755781610295,50,111,0,0.010218774864079063,16.532116485422613,12.639296187683286
16.553380213173995,55,64,1,0.01405332352055772,16.53338998834506,19.990224828934508
16.556109975903716,48,50,0,0.009000000000000001,16.53393011275611,22.179863147605083
16.566109975903718,65,54,0,0.009000000000000001,16.544555723704303,21.55425219941349
16.568995017085726,83,77,1,0.009000000000000001,16.551038027838413,17.956989247311828
16.57610997590372,39,69,0,0.009000000000000001,16.556901764760024,19.208211143695017
16.578995017085727,53,114,1,0.009820976708222273,16.56682492910919,12.170087976539591
16.589907213428198,43,51,1,0.009000000000000001,16.56788375301764,22.023460410557185
16.58610997590372,50,93,0,0.009000000000000001,16.570655430449175,15.454545454545453
16.5999072134282,75,47,1,0.017187475273414996,16.57725814206945,22.649071358748778
16.596109975903722,50,98,0,0.01284933567207418,16.581437444134416,14.672531769305962
16.61038701553936,65,55,0,0.009000000000000001,16.588989166076995,21.397849462365592
16.619004408176437,53,89,1,0.009000000000000001,16.6029242517737,16.080156402737046
16.62038701553936,46,121,0,0.009000000000000001,16.609311746722156,11.0752688172043
16.62900440817644,49,80,1,0.009272831742000335,16.611516627140272,17.487781036168133
16.630387015539362,59,100,0,0.009000000000000001,16.61602728924415,14.359726295210166
16.63930755455644,76,81,1,0.009605982783462487,16.62197617625732,17.331378299120235
16.640387015539364,92,105,0,0.009000000000000001,16.626809302929395,13.577712609970675
16.650387015539366,44,70,0,0.009000000000000001,16.631335207132718,19.05180840664712
16.649980868760284,82,110,1,0.009000000000000001,16.637185169835554,12.795698924731184
16.660387015539367,35,89,0,0.022772552909371302,16.64430685913663,16.080156402737046
16.659980868760286,79,118,1,0.009000000000000001,16.648436391731938,11.544477028347998
16.669980868760288,22,118,1,0.009000000000000001,16.65843639173194,11.544477028347998
16.685689852105334,74,38,0,0.009962995544757483,16.661633156113155,24.05669599217986
16.67998086876029,59,91,1,0.009000000000000001,16.664213517831648,15.76735092864125
16.68998086876029,45,84,1,0.01137137482173342,16.673118698672315,16.86217008797654
16.696759847155064,94,63,0,0.009000000000000001,16.676613219589083,20.146627565982406
16.70261572967333,70,115,1,0.009840400345183156,16.690602044433838,12.013685239491693
16.706759847155066,59,90,0,0.013477857204873276,16.690836093489377,15.923753665689148
16.713549507834646,37,67,1,0.009000000000000001,16.694028491216855,19.521016617790814
16.723549507834647,83,48,1,0.009000000000000001,16.701056839212946,22.49266862170088
16.72173524404937,65,85,0,0.009000000000000001,16.705029476698442,16.705767350928642
16.73354950783465,74,99,1,0.009000000000000001,16.71903337880239,14.516129032258064
16.73173524404937,42,116,0,0.009000000000000001,16.719877961546928,11.857282502443795
16.74354950783465,67,43,1,0.009000000000000001,16.72027482552771,23.27468230694037
16.741735244049373,91,96,0,0.009000000000000001,16.72674990680597,14.985337243401759
16.753549507834652,37,49,1,0.009000000000000001,16.731213241949998,22.33626588465298
16.751735244049375,64,73,0,0.009000000000000001,16.73315264385387,18.58260019550342
16.761735244049376,52,123,0,0.011148760976880705,16.750972780706267,10.762463343108504
16.763549507834654,42,115,1,0.009000000000000001,16.751535822595162,12.013685239491693
16.773549507834655,89,97,1,0.009000000000000001,16.7587205733283,14.82893450635386
16.783549507834657,74,47,1,0.009000000000000001,16.760900436475907,22.649071358748778
16.78412275624591,81,55,0,0.009000000000000001,16.762724906783546,21.397849462365592
16.77412275624591,60,120,0,0.009000000000000001,16.762891084691656,11.231671554252198
16.79354950783466,31,105,1,0.01397663851478527,16.77997179522469,13.577712609970675
16.794122756245912,80,114,0,0.009000000000000001,16.781952668269373,12.170087976539591
16.80907910618442,59,38,1,0.009000000000000001,16.78502241019224,24.05669599217986
16.804122756245913,79,89,0,0.009000000000000001,16.788042599843177,16.080156402737046
16.81907910618442,59,52,1,0.009000000000000001,16.79721204851091,21.867057673509287
16.814122756245915,55,118,0,0.009000000000000001,16.802578279217567,11.544477028347998
16.824122756245917,56,57,0,0.009000000000000001,16.803037712257648,21.085043988269796
16.829079106184423,40,38,1,0.009000000000000001,16.805022410192244,24.05669599217986
16.834122756245918,71,123,0,0.009000000000000001,16.82336029290281,10.762463343108504
16.84412275624592,71,74,0,0.009000000000000001,16.825696558787463,18.426197458455523
16.839079106184425,62,107,1,0.009000000000000001,16.82581419904855,13.264907135874878
16.849079106184426,72,66,1,0.009000000000000001,16.829401686829588,19.67741935483871
16.859079106184428,88,60,1,0.00914545096328159,16.838463270407303,20.6158357771261
16.85412275624592,60,97,0,0.009000000000000001,16.839293821739567,14.82893450635386
16.864122756245923,82,89,0,0.01760622740383701,16.848042599843186,16.080156402737046
16.86924071836585,47,78,1,0.009804470110294715,16.851440131855586,17.80058651026393
16.880134574043957,63,48,1,0.009000000000000001,16.857641905422255,22.49266862170088
16.883685231139076,48,72,0,0.009000000000000001,16.864946228206524,18.73900293255132
16.89013457404396,71,63,1,0.009000000000000001,16.869987946477977,20.146627565982406
16.893685231139077,24,66,0,0.009000000000000001,16.87400781178424,19.67741935483871
16.90013457404396,65,109,1,0.010000016183859248,16.887182472382182,12.952101661779082
16.90368523113908,86,101,0,0.009000000000000001,16.889481907580915,14.203323558162268
16.91368523113908,46,47,0,0.009000000000000001,16.89103615978033,22.649071358748778
16.911245703137137,77,79,1,0.009000000000000001,16.89360151936392,17.64418377321603
16.92124570313714,61,52,1,0.009000000000000001,16.899378645463628,21.867057673509287
16.923685231139082,61,120,0,0.02195552038908336,16.91245355958483,11.231671554252198
16.93124570313714,59,114,1,0.009000000000000001,16.9190756151606,12.170087976539591
16.94808025379362,61,48,0,0.009000000000000001,16.925587585171918,22.49266862170088
16.94124570313714,54,99,1,0.01106484902297144,16.926729574104883,14.516129032258064
16.953539979829333,72,106,1,0.029199320329461112,16.940118669956412,13.421309872922777
16.95808025379362,72,113,0,0.009000000000000001,16.945753763080035,12.32649071358749
16.968080253793623,80,72,0,0.009000000000000001,16.94934125086107,18.73900293255132
16.978080253793625,61,55,0,0.009762125278244738,16.95668240433126,21.397849462365592
16.98598366908429,67,75,1,0.009000000000000001,16.967713874362882,18.269794721407624
16.98892705965834,78,58,0,0.01330964509066946,16.96799841840712,20.928641251221897
16.995983669084293,73,86,1,0.009000000000000001,16.979434304470413,16.549364613880744
17.005983669084294,63,73,1,0.013252477837669668,16.98740106888879,18.58260019550342
17.00371555420353,52,121,0,0.009000000000000001,16.992640285386326,11.0752688172043
17.013715554203532,84,63,0,0.009000000000000001,16.99356892663755,20.146627565982406
17.023715554203534,52,47,0,0.013824309079023918,17.001066482844784,22.649071358748778
17.020708644459482,52,74,1,0.009000000000000001,17.002282447001026,18.426197458455523
17.03907589762467,21,45,0,0.010008590384250006,17.016114020791825,22.961876832844574
17.030708644459484,76,102,1,0.009000000000000001,17.016661723638368,14.04692082111437
17.040708644459485,39,112,1,0.009000000000000001,17.02822575100885,12.482893450635387
17.050708644459487,85,84,1,0.009000000000000001,17.03384647437151,16.86217008797654
17.05019655360717,63,104,0,0.009000000000000001,17.03646243826015,13.734115347018573
17.06070864445949,87,58,1,0.009000000000000001,17.039780003208268,20.928641251221897
17.06019655360717,70,122,0,0.016326505655576987,17.049277687527013,10.918866080156402
17.07070864445949,82,88,1,0.009000000000000001,17.054472085319706,16.236559139784944
17.08070864445949,53,93,1,0.009780203357496865,17.065254099004946,15.454545454545453
17.0783371154467,59,115,0,0.01579029290452695,17.06632343020721,12.013685239491693
17.09588188534062,84,41,0,0.009000000000000001,17.072294397559585,23.587487781036167
17.09157553707893,85,124,1,0.015188555125504957,17.08096947647287,10.606060606060606
17.108451709440605,66,50,1,0.009000000000000001,17.086271846293,22.179863147605083
17.105881885340622,92,68,0,0.01743478458356999,17.08651727145988,19.364613880742915
17.118451709440606,86,43,1,0.009000000000000001,17.095177027133666,23.27468230694037
17.125253868211257,76,88,0,0.009000000000000001,17.109017309071472,16.236559139784944
17.135253868211258,63,47,0,0.009000000000000001,17.11260479685251,22.649071358748778
17.128451709440608,69,101,1,0.009000000000000001,17.114248385882444,14.203323558162268
17.13845170944061,57,77,1,0.009000000000000001,17.120494720193296,17.956989247311828
17.14525386821126,101,110,0,0.009000000000000001,17.13245816928653,12.795698924731184
17.14845170944061,21,123,1,0.009000000000000001,17.1376892460975,10.762463343108504
17.158451709440612,65,75,1,0.009000000000000001,17.140181914719204,18.269794721407624
17.15525386821126,65,99,0,0.009000000000000001,17.140737739179002,14.516129032258064
17.165253868211263,42,103,0,0.009000000000000001,17.151363350127195,13.890518084066471
17.175253868211264,51,59,0,0.009000000000000001,17.15448162969709,20.772238514174
17.168451709440614,71,107,1,0.009000000000000001,17.15518680230474,13.264907135874878
17.178451709440616,81,67,1,0.009000000000000001,17.158930692822825,19.521016617790814
17.185253868211266,81,38,0,0.012663443913933167,17.161197172219087,24.05669599217986
17.188451709440617,25,70,1,0.019202081899009973,17.16939990103397,19.05180840664712
17.19932436144897,31,63,0,0.009000000000000001,17.179177733882987,20.146627565982406
17.20932436144897,77,50,0,0.009783665302692259,17.187144498301365,22.179863147605083
17.209787355995072,75,83,1,0.009000000000000001,17.19276878317005,17.01857282502444
17.220195100674186,87,39,0,0.009000000000000001,17.196294807419054,23.900293255131963
17.219787355995074,41,82,1,0.009000000000000001,17.202612380433003,17.174975562072337
17.229787355995075,33,92,1,0.009000000000000001,17.214176407803482,15.610948191593351
17.230195100674187,68,104,0,0.009000000000000001,17.216460985327167,13.734115347018573
17.24019510067419,81,65,0,0.009000000000000001,17.220361278582303,19.83382209188661
17.239787355995077,72,98,1,0.009000000000000001,17.22511482422577,14.672531769305962
17.24978735599508,63,90,1,0.009000000000000001,17.23386360232939,15.923753665689148
17.25019510067419,58,120,0,0.009000000000000001,17.238963429119938,11.231671554252198
17.25978735599508,48,106,1,0.009000000000000001,17.24636604612216,13.421309872922777
17.260195100674192,59,116,0,0.009000000000000001,17.24833781817175,11.857282502443795
17.26978735599508,25,83,1,0.009000000000000001,17.25276878317006,17.01857282502444
17.270195100674194,83,101,0,0.009239605122118247,17.25599177711603,14.203323558162268
17.28046132858766,77,42,0,0.01243732578091964,17.25703024354367,23.43108504398827
17.279787355995083,59,61,1,0.009000000000000001,17.259327922955006,20.459433040078203
17.289787355995085,68,56,1,0.014335693820557754,17.26854590926977,21.241446725317694
17.294280579455346,76,101,0,0.009000000000000001,17.280077255897183,14.203323558162268
17.305715904684593,71,56,1,0.009131847359054897,17.284474457959277,21.241446725317694
17.304280579455348,42,77,0,0.014010337492039027,17.286323590208035,17.956989247311828
17.31586240175021,69,50,1,0.009000000000000001,17.293682538602603,22.179863147605083
17.31984762111317,49,38,0,0.011441124676605244,17.29579092512099,24.05669599217986
17.32586240175021,85,118,1,0.01129057740572814,17.314317924721863,11.544477028347998
17.332559981864954,57,92,0,0.009000000000000001,17.31694903367336,15.610948191593351
17.338407487756577,47,117,1,0.009000000000000001,17.32670660799118,11.700879765395896
17.342559981864955,62,109,0,0.009000000000000001,17.329607880203177,12.952101661779082
17.348407487756578,67,94,1,0.009000000000000001,17.33310934503908,15.298142717497555
17.352559981864957,74,112,0,0.018194499399260117,17.340077088414322,12.482893450635387
17.35840748775658,77,104,1,0.009000000000000001,17.34467337240956,13.734115347018573
17.37277609230858,75,41,0,0.01332593253325716,17.349188604527544,23.587487781036167
17.36840748775658,40,78,1,0.012679266249567523,17.350606901246316,17.80058651026393
17.387582684012198,43,47,0,0.009000000000000001,17.36493361265345,22.649071358748778
17.38249556136721,55,123,1,0.009000000000000001,17.3717330980241,10.762463343108504
17.3975826840122,93,45,0,0.009000000000000001,17.374620807179355,22.961876832844574
17.392495561367213,68,113,1,0.009000000000000001,17.380169070653626,12.32649071358749
17.402495561367214,48,106,1,0.00913528667123684,17.389074251494293,13.421309872922777
17.41264587989081,62,60,1,0.009000000000000001,17.392030044113685,20.6158357771261
17.4075826840122,62,109,0,0.009000000000000001,17.394630582350423,12.952101661779082
17.422645879890812,75,43,1,0.009000000000000001,17.39937119758387,23.27468230694037
17.417582684012203,57,91,0,0.009000000000000001,17.40181533308356,15.76735092864125
17.427582684012204,48,92,0,0.009000000000000001,17.41197173582061,15.610948191593351
17.432645879890813,58,83,1,0.009000000000000001,17.41562730706579,17.01857282502444
17.437582684012206,55,79,0,0.014959867230531606,17.419938500238988,17.64418377321603
17.442645879890815,38,124,1,0.009000000000000001,17.432039819284753,10.606060606060606
17.452645879890817,50,79,1,0.009000000000000001,17.4350016961176,17.64418377321603
17.454204758712798,34,84,0,0.009000000000000001,17.437342588624823,16.86217008797654
17.462645879890818,55,72,1,0.009000000000000001,17.443906876958266,18.73900293255132
17.47264587989082,26,46,1,0.009000000000000001,17.449840405795022,22.805474095796676
17.4642047587128,79,109,0,0.009000000000000001,17.451252657051022,12.952101661779082
17.4742047587128,82,110,0,0.009000000000000001,17.46140905978807,12.795698924731184
17.48264587989082,63,95,1,0.009000000000000001,17.46750413991037,15.141739980449657
17.484204758712803,49,122,0,0.009000000000000001,17.473285892632646,10.918866080156402
17.492645879890823,37,79,1,0.009000000000000001,17.475001696117605,17.64418377321603
17.494204758712804,68,122,0,0.024718324403349447,17.483285892632647,10.918866080156402
17.502645879890824,74,115,1,0.009000000000000001,17.490632194651333,12.013685239491693
17.521669563605414,66,40,0,0.009000000000000001,17.49792567308733,23.743890518084065
17.512645879890826,78,114,1,0.009000000000000001,17.500475791914287,12.170087976539591
17.522645879890828,78,92,1,0.009000000000000001,17.507034931699234,15.610948191593351
17.53264587989083,60,69,1,0.009000000000000001,17.513437668747134,19.208211143695017
17.54264587989083,100,43,1,0.009000000000000001,17.51937119758389,23.27468230694037
17.531669563605416,44,115,0,0.009000000000000001,17.519655878365924,12.013685239491693
17.541669563605417,49,72,0,0.009024489567441741,17.522930560672865,18.73900293255132
17.551696774235907,77,53,0,0.009000000000000001,17.529986119299444,21.71065493646139
17.552645879890832,78,76,1,0.009000000000000001,17.53453248790647,18.113391984359726
17.56169677423591,85,66,0,0.016563402491042337,17.54201935488107,19.67741935483871
17.562645879890834,52,86,1,0.009000000000000001,17.546096515276954,16.549364613880744
17.572645879890835,71,42,1,0.009000000000000001,17.549214794846847,23.43108504398827
17.580100554781513,57,97,0,0.009000000000000001,17.56527162027516,14.82893450635386
17.582645879890837,26,96,1,0.017754900997760177,17.567660542647435,14.985337243401759
17.590100554781515,41,99,0,0.009000000000000001,17.575584425749256,14.516129032258064
17.600100554781516,31,53,0,0.009000000000000001,17.578389899845053,21.71065493646139
17.602373547666126,71,116,1,0.031625397474405036,17.590516265163682,11.857282502443795
17.610100554781518,27,100,0,0.009000000000000001,17.595740828486306,14.359726295210166
17.62010055478152,78,100,0,0.009000000000000001,17.605740828486308,14.359726295210166
17.63010055478152,41,103,0,0.009000000000000001,17.616210036697453,13.890518084066471
17.63751287819324,53,110,1,0.009000000000000001,17.62471717926851,12.795698924731184
17.650100554781524,84,56,0,0.009000000000000001,17.628859108056208,21.241446725317694
17.640100554781522,50,123,0,0.009000000000000001,17.629338091438413,10.762463343108504
17.647512878193243,78,98,1,0.034765687995217,17.632840346423936,14.672531769305962
17.660100554781526,97,101,0,0.009000000000000001,17.645897231223362,14.203323558162268
17.670100554781527,73,96,0,0.009000000000000001,17.655115217538125,14.985337243401759
17.68010055478153,36,84,0,0.009000000000000001,17.663238384693553,16.86217008797654
17.686141420410152,35,98,1,0.009000000000000001,17.671468888640845,14.672531769305962
17.69010055478153,57,86,0,0.009000000000000001,17.67355119016765,16.549364613880744
17.706141420410155,54,38,1,0.009000000000000001,17.682084724417976,24.05669599217986
17.696141420410154,71,116,1,0.009000000000000001,17.68428413790771,11.857282502443795
17.70010055478153,50,103,0,0.02062223980785102,17.686210036697464,13.890518084066471
17.716141420410157,44,68,1,0.009000000000000001,17.696776806529414,19.364613880742915
17.723014154568034,31,64,0,0.009000000000000001,17.7030239297391,19.990224828934508
17.733014154568036,45,48,0,0.009000000000000001,17.710521485946334,22.49266862170088
17.72614142041016,55,95,1,0.009000000000000001,17.71099968042971,15.141739980449657
17.73614142041016,49,96,1,0.010633848552169683,17.721156083166758,14.985337243401759
17.743014154568037,54,66,0,0.009000000000000001,17.7233367352132,19.67741935483871
17.747956807690347,62,87,1,0.009000000000000001,17.731563845813515,16.392961876832846
17.75301415456804,49,75,0,0.009000000000000001,17.73474435984663,18.269794721407624
17.75795680769035,52,101,1,0.00942058764190119,17.743753484132185,14.203323558162268
17.768424127292462,65,71,1,0.009420999519441411,17.749528721622863,18.89540566959922
17.76301415456804,61,123,0,0.009000000000000001,17.75225169122493,10.762463343108504
17.773014154568042,68,112,0,0.0164999839989796,17.760531261117407,12.482893450635387
17.778891904536287,53,98,1,0.009000000000000001,17.76421937276698,14.672531769305962
17.78889190453629,103,108,1,0.009000000000000001,17.775783400137463,13.10850439882698
17.79889190453629,50,50,1,0.01918799960625048,17.776712041388684,22.179863147605083
17.791347470122464,76,120,0,0.009000000000000001,17.78011579856821,11.231671554252198
17.801347470122465,25,106,0,0.009000000000000001,17.787926160249544,13.421309872922777
17.811347470122467,76,85,0,0.009000000000000001,17.79464170277154,16.705767350928642
17.82021190409879,48,40,1,0.009000000000000001,17.796468013580707,23.743890518084065
17.82134747012247,77,52,0,0.009000000000000001,17.799480412448958,21.867057673509287
17.83134747012247,28,73,0,0.009000000000000001,17.812764869926966,18.58260019550342
17.830211904098793,54,113,1,0.009000000000000001,17.817885413385206,12.32649071358749
17.840211904098794,54,90,1,0.010479033890874685,17.824288150433105,15.923753665689148
17.84134747012247,34,117,0,0.009000000000000001,17.829646590357076,11.700879765395896
17.851347470122473,68,99,0,0.009000000000000001,17.836831341090214,14.516129032258064
17.861855275088658,58,54,1,0.009000000000000001,17.840301022889243,21.55425219941349
17.851855275088656,61,118,1,0.009000000000000001,17.840310798060308,11.544477028347998
17.861347470122475,51,94,0,0.009000000000000001,17.846049327404977,15.298142717497555
17.871347470122476,26,40,0,0.009000000000000001,17.847603579604392,23.743890518084065
17.87185527508866,36,93,1,0.009000000000000001,17.856400729634114,15.454545454545453
17.88185527508866,53,65,1,0.009000000000000001,17.862021452996775,19.83382209188661
17.881347470122478,45,121,0,0.009000000000000001,17.870272201305273,11.0752688172043
17.89134747012248,56,59,0,0.009000000000000001,17.870575231608306,20.772238514174
17.891855275088663,54,101,1,0.009000000000000001,17.8776519515305,14.203323558162268
17.901855275088664,31,48,1,0.009000000000000001,17.879362606466962,22.49266862170088
17.90134747012248,67,76,0,0.009000000000000001,17.88323407813812,18.113391984359726
17.911855275088666,36,40,1,0.009000000000000001,17.888111384570582,23.743890518084065
17.911347470122482,69,95,0,0.009000000000000001,17.896205730142032,15.141739980449657
17.921347470122484,46,90,0,0.009000000000000001,17.905423716456795,15.923753665689148
17.921855275088667,53,96,1,0.009460373057879013,17.906869937845265,14.985337243401759
17.931347470122486,21,50,0,0.009000000000000001,17.90916760697488,22.179863147605083
17.932366800708532,70,86,1,0.009000000000000001,17.915817436094652,16.549364613880744
17.942366800708534,41,54,1,0.009000000000000001,17.92081254850912,21.55425219941349
17.941347470122487,34,122,0,0.020509998324751273,17.93042860404233,10.918866080156402
17.952366800708536,82,88,1,0.016254589331528305,17.93613024156875,16.236559139784944
17.96413635714999,63,90,0,0.01539413151104432,17.9482126034843,15.923753665689148
17.970427455521346,35,59,1,0.009000000000000001,17.949655217007173,20.772238514174
17.980427455521347,41,40,1,0.011044626562157158,17.956683565003264,23.743890518084065
17.981240947717815,77,117,0,0.009000000000000001,17.96954006795242,11.700879765395896
17.992699262812632,43,64,1,0.009000000000000001,17.972709037983698,19.990224828934508
17.991240947717817,76,77,0,0.01051497057233011,17.973283958470503,17.956989247311828
18.002699262812634,30,37,1,0.009000000000000001,17.978486164083407,24.21309872922776
18.00292424835374,55,115,0,0.009000000000000001,17.990910563114248,12.013685239491693
18.012699262812635,64,56,1,0.009000000000000001,17.99145781608732,21.241446725317694
18.01292424835374,58,88,0,0.009000000000000001,17.996687689213957,16.236559139784944
18.022699262812637,85,123,1,0.009000000000000001,18.011936799469527,10.762463343108504
18.022924248353743,44,123,0,0.024452915699091596,18.012161785010633,10.762463343108504
18.03269926281264,56,73,1,0.009000000000000001,18.014116662617134,18.58260019550342
18.050094154686068,66,50,0,0.009000000000000001,18.027914291538462,22.179863147605083
18.04269926281264,82,116,1,0.009059463978682345,18.030841980310196,11.857282502443795
18.06009415468607,39,73,0,0.009000000000000001,18.041511554490565,18.58260019550342
18.052765333900066,61,124,1,0.009000000000000001,18.042159273294004,10.606060606060606
18.062765333900067,29,81,1,0.009000000000000001,18.04543395560095,17.331378299120235
18.07276533390007,61,75,1,0.012574027156690398,18.05449553917866,18.269794721407624
18.07009415468607,82,99,0,0.025455762048029927,18.055578025653812,14.516129032258064
18.08673647518528,72,51,1,0.00919886200592068,18.06471301477472,22.023460410557185
18.098378334739436,31,43,0,0.02009025830340357,18.075103652432496,23.27468230694037
18.096957432969635,54,75,1,0.009000000000000001,18.078687638248226,18.269794721407624
18.116957432969638,55,41,1,0.009000000000000001,18.093369945188602,23.587487781036167
18.106957432969637,47,124,1,0.009000000000000001,18.096351372363575,10.606060606060606
18.12070084396544,30,118,0,0.009000000000000001,18.109156366937093,11.544477028347998
18.12695743296964,67,89,1,0.009000000000000001,18.110877276566903,16.080156402737046
18.130700843965442,59,87,0,0.017245627535843147,18.11430788208861,16.392961876832846
18.13695743296964,48,51,1,0.009000000000000001,18.114933972559083,22.023460410557185
18.146957432969643,47,67,1,0.009000000000000001,18.127436416351852,19.521016617790814
18.1498626523386,49,86,0,0.009000000000000001,18.13331328772472,16.549364613880744
18.156957432969644,92,51,1,0.009000000000000001,18.134933972559086,22.023460410557185
18.159862652338603,74,76,0,0.013537532382708642,18.141749260354242,18.113391984359726
18.166957432969646,40,57,1,0.009000000000000001,18.145872388981378,21.085043988269796
18.176957432969647,62,37,1,0.009000000000000001,18.15274433424042,24.21309872922776
18.174904354986058,45,81,0,0.009000000000000001,18.15757297668694,17.331378299120235
18.18490435498606,40,42,0,0.009000000000000001,18.16147326994207,23.43108504398827
18.18695743296965,77,85,1,0.009000000000000001,18.17025166561872,16.705767350928642
18.19490435498606,71,41,0,0.009000000000000001,18.171316867205025,23.587487781036167
18.19695743296965,40,65,1,0.009000000000000001,18.177123610877764,19.83382209188661
18.204904354986063,58,63,0,0.009000000000000001,18.18475772742008,20.146627565982406
18.206957432969652,59,77,1,0.009000000000000001,18.18900044372234,17.956989247311828
18.216957432969654,46,49,1,0.009000000000000001,18.194621167085,22.33626588465298
18.214904354986064,48,113,0,0.009000000000000001,18.202577864272477,12.32649071358749
18.226957432969655,47,80,1,0.009000000000000001,18.20946965193349,17.487781036168133
18.234904354986067,39,53,0,0.009000000000000001,18.213193700049604,21.71065493646139
18.224904354986066,64,123,0,0.009000000000000001,18.214141891642956,10.762463343108504
18.236957432969657,81,93,1,0.009000000000000001,18.22150288751511,15.454545454545453
18.24695743296966,79,37,1,0.009000000000000001,18.22274433424043,24.21309872922776
18.25490435498607,53,50,0,0.009000000000000001,18.232724491838464,22.179863147605083
18.24490435498607,32,122,0,0.009000000000000001,18.233985488905912,10.918866080156402
18.25695743296966,98,78,1,0.009000000000000001,18.239156846459395,17.80058651026393
18.26695743296966,62,107,1,0.012362229138524966,18.253692525833788,13.264907135874878
18.264904354986072,74,124,0,0.009000000000000001,18.25429829438001,10.606060606060606
18.28069324312358,73,66,1,0.009000000000000001,18.26101582376874,19.67741935483871
18.274904354986074,50,109,0,0.009000000000000001,18.261952253324296,12.952101661779082
18.284904354986075,66,81,0,0.009000000000000001,18.267572976686957,17.331378299120235
18.29069324312358,57,123,1,0.009000000000000001,18.27993077978047,10.762463343108504
18.294904354986077,34,123,0,0.010996052368122396,18.284141891642967,10.762463343108504
18.307122190950658,91,48,0,0.011847318937297886,18.284629522328956,22.49266862170088
18.300693243123582,83,113,1,0.009000000000000001,18.288366752409996,12.32649071358749
18.310693243123584,61,55,1,0.009000000000000001,18.28929539366122,21.397849462365592
18.320693243123586,75,59,1,0.009000000000000001,18.299921004609413,20.772238514174
18.330285878658767,53,38,0,0.009000000000000001,18.306229182666588,24.05669599217986
18.320285878658765,92,114,0,0.009000000000000001,18.308115790682226,12.170087976539591
18.330693243123587,42,102,1,0.009000000000000001,18.31664632230247,14.04692082111437
18.34028587865877,56,90,0,0.01048839816642207,18.32436212499308,15.923753665689148
18.34069324312359,75,121,1,0.009000000000000001,18.329617974306384,11.0752688172043
18.35069324312359,66,98,1,0.009000000000000001,18.336020711354283,14.672531769305962
18.360693243123592,22,52,1,0.009000000000000001,18.33882618545008,21.867057673509287
18.35193965439924,54,118,0,0.009000000000000001,18.34039517737089,11.544477028347998
18.37193965439924,71,38,0,0.009000000000000001,18.347882958407062,24.05669599217986
18.36193965439924,57,123,0,0.009000000000000001,18.35117719105613,10.762463343108504
18.370693243123593,66,115,1,0.015978749700983813,18.358679557884102,12.013685239491693
18.381939654399243,56,60,0,0.009000000000000001,18.361323818622118,20.6158357771261
18.38844740945802,61,43,1,0.009000000000000001,18.36517272715108,23.27468230694037
18.391939654399245,77,56,0,0.012632868424292459,18.37069820767393,21.241446725317694
18.398447409458022,73,108,1,0.009000000000000001,18.385338905059196,13.10850439882698
18.408447409458024,78,92,1,0.009000000000000001,18.39283646126643,15.610948191593351
18.40597617487068,51,110,0,0.01084989458849432,18.39318047594595,12.795698924731184
18.418447409458025,35,64,1,0.009721126152057955,18.39845718462909,19.990224828934508
18.41803161330234,62,107,0,0.009000000000000001,18.404766706166466,13.264907135874878
18.42803161330234,68,45,0,0.009000000000000001,18.405069736469496,22.961876832844574
18.42924866073809,79,85,1,0.009000000000000001,18.41254289338716,16.705767350928642
18.43924866073809,63,40,1,0.009000000000000001,18.415504770220007,23.743890518084065
18.438031613302343,81,113,0,0.009000000000000001,18.425705122588756,12.32649071358749
18.448031613302344,43,85,0,0.009000000000000001,18.431325845951417,16.705767350928642
18.458031613302346,74,55,0,0.009000000000000001,18.436633763839982,21.397849462365592
18.449248660738093,88,118,1,0.009000000000000001,18.437704183709744,11.544477028347998
18.459248660738094,71,115,1,0.009000000000000001,18.447234975498603,12.013685239491693
18.469248660738096,81,61,1,0.009000000000000001,18.44878922769802,20.459433040078203
18.468031613302347,40,102,0,0.009000000000000001,18.45398469248123,14.04692082111437
18.47803161330235,72,91,0,0.009000000000000001,18.462264262373708,15.76735092864125
18.479248660738097,62,100,1,0.013124248518601183,18.464888934442886,14.359726295210166
18.48803161330235,72,52,0,0.009000000000000001,18.46616455562884,21.867057673509287
18.498031613302352,34,58,0,0.009000000000000001,18.47710297205113,20.928641251221897
18.4938311590921,33,100,1,0.009000000000000001,18.47947143279689,14.359726295210166
18.508031613302354,100,40,0,0.010679327779746188,18.48428772278427,23.743890518084065
18.5038311590921,60,101,1,0.009000000000000001,18.489627835533938,14.203323558162268
18.513831159092103,57,117,1,0.009000000000000001,18.502130279326707,11.700879765395896
18.519897533057627,71,104,0,0.014507812043094785,18.506163417710606,13.734115347018573
18.523831159092104,49,122,1,0.009000000000000001,18.512912293011947,10.918866080156402
18.536017324216623,66,57,0,0.014508568322636807,18.514932280228354,21.085043988269796
18.533831159092106,78,86,1,0.009000000000000001,18.517281794478226,16.549364613880744
18.543831159092107,37,88,1,0.009000000000000001,18.527594599952323,16.236559139784944
18.55213795568622,57,115,0,0.009000000000000001,18.54012427044673,12.013685239491693
18.55383115909211,23,115,1,0.009000000000000001,18.541817473852618,12.013685239491693
18.56213795568622,42,70,0,0.013704564571458654,18.543086147279574,19.05180840664712
18.56383115909211,56,97,1,0.011543961427907395,18.549002224585756,14.82893450635386
18.57736524965451,82,63,0,0.009000000000000001,18.557218622088527,20.146627565982406
18.586657782900897,46,39,1,0.009000000000000001,18.562757489645765,23.900293255131963
18.576657782900895,35,113,1,0.009000000000000001,18.56433129218731,12.32649071358749
18.58736524965451,50,48,0,0.009000000000000001,18.56487258103281,22.49266862170088
18.5966577829009,55,57,1,0.009000000000000001,18.57557273891263,21.085043988269796
18.597365249654512,56,93,0,0.009000000000000001,18.581910704199966,15.454545454545453
18.607365249654514,43,47,0,0.016110252253737623,18.584716178295764,22.649071358748778
18.6066577829009,26,70,1,0.009000000000000001,18.587605974494252,19.05180840664712
18.6166577829009,67,92,1,0.009000000000000001,18.601046834709308,15.610948191593351
18.626657782900903,62,56,1,0.009000000000000001,18.605416336175587,21.241446725317694
18.625265529936446,53,111,0,0.009000000000000001,18.612626233748763,12.639296187683286
18.635265529936447,40,58,0,0.009000000000000001,18.614336888685227,20.928641251221897
18.636657782900905,29,69,1,0.009000000000000001,18.61744957175721,19.208211143695017
18.64526552993645,51,55,0,0.009000000000000001,18.623867680474085,21.397849462365592
18.646657782900906,54,47,1,0.009000000000000001,18.624008711542157,22.649071358748778
18.65526552993645,80,55,0,0.009000000000000001,18.633867680474086,21.397849462365592
18.656657782900908,53,76,1,0.009000000000000001,18.638544390916547,18.113391984359726
18.66665778290091,55,59,1,0.009000000000000001,18.645885544386736,20.772238514174
18.665265529936452,22,117,0,0.009000000000000001,18.653564650171056,11.700879765395896
18.675265529936453,68,83,0,0.009000000000000001,18.65824695711143,17.01857282502444
18.67665778290091,93,101,1,0.009000000000000001,18.662454459342747,14.203323558162268
18.686657782900912,75,87,1,0.009000000000000001,18.67026482102408,16.392961876832846
18.685265529936455,40,102,0,0.014961296622157175,18.67121860911534,14.04692082111437
18.696657782900914,85,48,1,0.009000000000000001,18.674165114279212,22.49266862170088
18.70188919284996,64,56,0,0.009000000000000001,18.680647746124645,21.241446725317694
18.706657782900916,47,46,1,0.009000000000000001,18.68385230880512,22.805474095796676
18.711889192849963,30,102,0,0.009000000000000001,18.697842272028847,14.04692082111437
18.716657782900917,92,73,1,0.011162633671768583,18.698075182705413,18.58260019550342
18.721889192849964,75,44,0,0.009000000000000001,18.69877091328007,23.118279569892472
18.729060709202884,44,64,1,0.009000000000000001,18.70907048437395,19.990224828934508
18.731889192849966,45,53,0,0.009409020063633658,18.710178537913503,21.71065493646139
18.739060709202885,48,51,1,0.009000000000000001,18.717037248792327,22.023460410557185
18.742343659587338,30,114,0,0.009000000000000001,18.7301735716108,12.170087976539591
18.749060709202887,46,87,1,0.009000000000000001,18.732667747326055,16.392961876832846
18.75234365958734,75,122,0,0.009000000000000001,18.741424793507182,10.918866080156402
18.76234365958734,70,70,0,0.02674985591633798,18.743291851180693,19.05180840664712
18.75906070920289,50,100,1,0.009000000000000001,18.744700982907677,14.359726295210166
18.76906070920289,78,81,1,0.009000000000000001,18.75172933090377,17.331378299120235
18.77906070920289,79,94,1,0.009000000000000001,18.763762566485394,15.298142717497555
18.789060709202893,54,69,1,0.009000000000000001,18.769852498059198,19.208211143695017
18.792065721716604,69,120,0,0.012534637587231041,18.78083405016235,11.231671554252198
18.799060709202895,75,91,1,0.009000000000000001,18.783293358274253,15.76735092864125
18.805993096813527,64,79,0,0.009000000000000001,18.78834891304031,17.64418377321603
18.809060709202896,79,122,1,0.014296128483307306,18.79814184312274,10.918866080156402
18.81599309681353,76,95,0,0.009000000000000001,18.80085135683308,15.141739980449657
18.82494529640657,43,90,1,0.012399503911185555,18.809021542740883,15.923753665689148
18.82599309681353,72,84,0,0.009000000000000001,18.809130926725555,16.86217008797654
18.838722522974557,58,64,1,0.009000000000000001,18.818732298145623,19.990224828934508
18.83599309681353,49,111,0,0.009000000000000001,18.82335380062585,12.639296187683286
18.845993096813533,33,97,0,0.009000000000000001,18.83116416230718,14.82893450635386
18.84872252297456,44,114,1,0.009000000000000001,18.83655243499802,12.170087976539591
18.855993096813535,67,68,0,0.009000000000000001,18.83662848293279,19.364613880742915
18.85872252297456,21,104,1,0.009000000000000001,18.84498840762754,13.734115347018573
18.865993096813536,91,124,0,0.022217527911462327,18.855387036207475,10.606060606060606
18.86872252297456,60,110,1,0.009000000000000001,18.85592682404983,12.795698924731184
18.878722522974563,72,66,1,0.009000000000000001,18.859045103619724,19.67741935483871
18.888722522974565,51,41,1,0.009000000000000001,18.86513503519353,23.587487781036167
18.890679238937384,66,102,0,0.011362964642107964,18.87663231811627,14.04692082111437
18.898722522974566,81,113,1,0.009000000000000001,18.88639603226098,12.32649071358749
18.903304755206392,52,86,0,0.009000000000000001,18.886755390592512,16.549364613880744
18.913304755206394,76,76,0,0.009000000000000001,18.895191363222033,18.113391984359726
18.908722522974568,63,116,1,0.009000000000000001,18.896865240472124,11.857282502443795
18.91872252297457,23,69,1,0.009000000000000001,18.899514311830874,19.208211143695017
18.923304755206395,66,58,0,0.01799371931492092,18.902376113955174,20.928641251221897
18.92872252297457,29,121,1,0.009000000000000001,18.917647254157366,11.0752688172043
18.943297776667418,83,51,0,0.009000000000000001,18.92127431625686,22.023460410557185
18.938722522974572,73,86,1,0.009000000000000001,18.922173158360692,16.549364613880744
18.948722522974574,77,64,1,0.009000000000000001,18.92873229814564,19.990224828934508
18.95329777666742,46,82,0,0.0096765647199705,18.93612280110535,17.174975562072337
18.958722522974575,46,56,1,0.009000000000000001,18.93748107624926,21.241446725317694
18.964049515245165,41,79,0,0.009000000000000001,18.946405331471947,17.64418377321603
18.968722522974577,62,79,1,0.015138476416911123,18.95107833920136,17.64418377321603
18.974049515245166,63,99,0,0.009000000000000001,18.959533386212907,14.516129032258064
18.984049515245168,68,56,0,0.00994994942531075,18.962808068519852,21.241446725317694
18.995543052326703,61,44,1,0.009000000000000001,18.97242477275681,23.118279569892472
18.9855430523267,51,120,1,0.009000000000000001,18.97431138077245,11.231671554252198
18.995105014606626,70,84,0,0.009000000000000001,18.97824284451865,16.86217008797654
19.005543052326704,30,56,1,0.009000000000000001,18.984301605601388,21.241446725317694
19.005105014606627,53,65,0,0.009000000000000001,18.98527119251474,19.83382209188661
19.01510501460663,61,53,0,0.010501139804889028,18.993394359670166,21.71065493646139
19.015543052326706,53,79,1,0.009000000000000001,18.997898868553488,17.64418377321603
19.026772947723174,77,73,0,0.009000000000000001,19.00819034752767,18.58260019550342
19.025543052326707,61,88,1,0.009000000000000001,19.009306493186923,16.236559139784944
19.036772947723176,54,37,0,0.009000000000000001,19.01255984899395,24.21309872922776
19.03554305232671,60,107,1,0.010424675758017482,19.022278145190835,13.264907135874878
19.046772947723177,45,92,0,0.009000000000000001,19.031161999531584,15.610948191593351
19.047126025391172,57,110,1,0.009000000000000001,19.034330326466442,12.795698924731184
19.05677294772318,49,58,0,0.009000000000000001,19.035844306471958,20.928641251221897
19.057126025391174,39,67,1,0.009000000000000001,19.037605008773383,19.521016617790814
19.067126025391175,95,62,1,0.009370914933516657,19.046822995088146,20.303030303030305
19.06677294772318,85,117,0,0.009000000000000001,19.055072067957784,11.700879765395896
19.07677294772318,66,108,0,0.009000000000000001,19.063664443324356,13.10850439882698
19.077538153095084,49,112,1,0.009000000000000001,19.06505525964445,12.482893450635387
19.086772947723183,47,83,0,0.009000000000000001,19.06975437489816,17.01857282502444
19.087538153095085,59,81,1,0.009000000000000001,19.070206774795967,17.331378299120235
19.097538153095087,57,54,1,0.009000000000000001,19.07598390089567,21.55425219941349
19.096772947723185,78,107,0,0.009000000000000001,19.08350804058731,13.264907135874878
19.10753815309509,46,54,1,0.009000000000000001,19.085983900895673,21.55425219941349
19.116772947723188,75,43,0,0.02047805972186773,19.093498265416248,23.27468230694037
19.106772947723186,62,113,0,0.009000000000000001,19.0944464570096,12.32649071358749
19.11753815309509,53,53,1,0.009000000000000001,19.095827498158627,21.71065493646139
19.12753815309509,57,85,1,0.009000000000000001,19.110832385744164,16.705767350928642
19.147538153095095,43,44,1,0.009000000000000001,19.124419873525202,23.118279569892472
19.13952634741415,23,103,0,0.009000000000000001,19.125635829330083,13.890518084066471
19.137538153095093,47,122,1,0.009000000000000001,19.126619287014936,10.918866080156402
19.149526347414152,53,97,0,0.009000000000000001,19.134697412907798,14.82893450635386
19.157538153095096,21,84,1,0.009000000000000001,19.14067598300712,16.86217008797654
19.159526347414154,55,119,0,0.009000000000000001,19.148138273122854,11.3880742913001
19.167538153095098,47,79,1,0.009000000000000001,19.14989396932188,17.64418377321603
19.1775381530951,35,43,1,0.009000000000000001,19.15426347078816,23.27468230694037
19.169526347414156,47,117,0,0.009000000000000001,19.15782546764876,11.700879765395896
19.179526347414157,42,94,0,0.009000000000000001,19.16422820469666,15.298142717497555
19.18952634741416,81,61,0,0.009000000000000001,19.16906691437408,20.459433040078203
19.1875381530951,69,124,1,0.009000000000000001,19.17693209248904,10.606060606060606
19.197538153095103,58,98,1,0.009000000000000001,19.182865621325796,14.672531769305962
19.19952634741416,73,97,0,0.009000000000000001,19.184697412907806,14.82893450635386
19.207538153095104,64,73,1,0.009000000000000001,19.1889555528996,18.58260019550342
19.217538153095106,31,45,1,0.009000000000000001,19.19457627626226,22.961876832844574
19.219526347414163,63,48,0,0.010794540809244762,19.19703367879246,22.49266862170088
19.20952634741416,70,114,0,0.009000000000000001,19.197356259437623,12.170087976539591
19.227538153095107,90,58,1,0.009000000000000001,19.206609511843887,20.928641251221897
19.231520281646656,46,57,0,0.018268259058816218,19.210435237658388,21.085043988269796
19.23753815309511,62,48,1,0.009000000000000001,19.215045484473407,22.49266862170088
19.24753815309511,53,63,1,0.009000000000000001,19.22739152552913,20.146627565982406
19.251818347267562,56,79,0,0.009000000000000001,19.234174163494345,17.64418377321603
19.257538153095112,78,82,1,0.009000000000000001,19.24036317753304,17.174975562072337
19.267538153095114,47,60,1,0.013361744231423488,19.24692231731799,20.6158357771261
19.271818347267565,37,60,0,0.009000000000000001,19.25120251149044,20.6158357771261
19.261818347267564,30,124,0,0.009000000000000001,19.251212286661502,10.606060606060606
19.281818347267567,55,43,0,0.009000000000000001,19.258543664960627,23.27468230694037
19.282384535574472,21,121,1,0.009000000000000001,19.271309266757267,11.0752688172043
19.29181834726757,78,74,0,0.009000000000000001,19.273392149809112,18.426197458455523
19.292384535574474,64,110,1,0.009000000000000001,19.279588836649744,12.795698924731184
19.30181834726757,55,58,0,0.009000000000000001,19.28088970601635,20.928641251221897
19.302384535574475,59,74,1,0.009000000000000001,19.28395833811602,18.426197458455523
19.312384535574477,56,107,1,0.009000000000000001,19.299119628438604,13.264907135874878
19.31181834726757,68,120,0,0.009000000000000001,19.30058667571332,11.231671554252198
19.321818347267573,58,75,0,0.009000000000000001,19.303548552546165,18.269794721407624
19.32238453557448,91,90,1,0.009000000000000001,19.30646078190879,15.923753665689148
19.33238453557448,36,59,1,0.009000000000000001,19.311612297060307,20.772238514174
19.331818347267575,85,74,0,0.009000000000000001,19.31339214980912,18.426197458455523
19.34238453557448,77,76,1,0.009000000000000001,19.32427114359012,18.113391984359726
19.341818347267576,44,122,0,0.009000000000000001,19.33089948118742,10.918866080156402
19.352384535574483,69,67,1,0.009000000000000001,19.332863518956692,19.521016617790814
19.351818347267578,57,120,0,0.009000000000000001,19.340586675713325,11.231671554252198
19.36181834726758,55,103,0,0.009000000000000001,19.34792782918351,13.890518084066471
19.362384535574485,56,106,1,0.009000000000000001,19.348963225701564,13.421309872922777
19.372384535574486,68,52,1,0.009000000000000001,19.350517477900976,21.867057673509287
19.37181834726758,65,87,0,0.009000000000000001,19.35542538539075,16.392961876832846
19.381818347267583,73,41,0,0.009000000000000001,19.358230859486547,23.587487781036167
19.382384535574488,56,48,1,0.009000000000000001,19.359891866952786,22.49266862170088
19.391818347267584,34,54,0,0.009000000000000001,19.37026409506817,21.55425219941349
19.39238453557449,36,120,1,0.009000000000000001,19.381152864020237,11.231671554252198
19.40238453557449,57,58,1,0.012694429253896697,19.38145589432327,20.928641251221897
19.401818347267586,67,65,0,0.009000000000000001,19.3819845251757,19.83382209188661
19.41648945696771,30,57,1,0.009000000000000001,19.395404412979442,21.085043988269796
19.411818347267587,84,120,0,0.012743798345306557,19.400586675713335,11.231671554252198
19.426489456967712,93,56,1,0.009000000000000001,19.405248010242396,21.241446725317694
19.425978123206818,63,77,0,0.009000000000000001,19.408021133959505,17.956989247311828
19.43597812320682,72,118,0,0.009000000000000001,19.42443364617847,11.544477028347998
19.44597812320682,58,58,0,0.009000000000000001,19.4250494819556,20.928641251221897
19.436489456967713,77,120,1,0.009000000000000001,19.42525778541346,11.231671554252198
19.446489456967715,39,111,1,0.009000000000000001,19.433850160780032,12.639296187683286
19.456489456967716,51,61,1,0.009000000000000001,19.43603002392764,20.459433040078203
19.455978123206823,72,115,0,0.009000000000000001,19.44396443796733,12.013685239491693
19.466489456967718,48,56,1,0.009000000000000001,19.445248010242402,21.241446725317694
19.465978123206824,45,68,0,0.02176014525799702,19.44661350932608,19.364613880742915
19.47648945696772,57,99,1,0.009000000000000001,19.46197332793546,14.516129032258064
19.48648945696772,78,79,1,0.009000000000000001,19.468845273194503,17.64418377321603
19.496489456967723,36,38,1,0.009000000000000001,19.472432760975543,24.05669599217986
19.490156062382376,97,102,0,0.009000000000000001,19.47610914156126,14.04692082111437
19.500156062382377,44,51,0,0.009000000000000001,19.47813260197182,22.023460410557185
19.51015606238238,82,41,0,0.009000000000000001,19.486568574601343,23.587487781036167
19.506489456967724,65,70,1,0.009000000000000001,19.487437648561077,19.05180840664712
19.516489456967726,55,94,1,0.009000000000000001,19.501191314250228,15.298142717497555
19.52015606238238,64,98,0,0.009000000000000001,19.505483530613073,14.672531769305962
19.526489456967727,61,101,1,0.009000000000000001,19.512286133409564,14.203323558162268
19.530156062382382,59,99,0,0.009000000000000001,19.515639933350123,14.516129032258064
19.540156062382383,92,44,0,0.009000000000000001,19.51703778281249,23.118279569892472
19.53648945696773,83,75,1,0.009000000000000001,19.51821966224632,18.269794721407624
19.54648945696773,80,106,1,0.009000000000000001,19.53306814709481,13.421309872922777
19.550156062382385,30,102,0,0.011912476976426644,19.53610914156127,14.04692082111437
19.556489456967732,43,82,1,0.009000000000000001,19.53931448140566,17.174975562072337
19.56339214791175,65,90,0,0.009000000000000001,19.54746839424606,15.923753665689148
19.566489456967734,60,94,1,0.009000000000000001,19.551191314250236,15.298142717497555
19.57339214791175,44,105,0,0.009000000000000001,19.55981443530178,13.577712609970675
19.576489456967735,80,102,1,0.009000000000000001,19.56244253614662,14.04692082111437
19.583392147911752,108,60,0,0.009000000000000001,19.562776312134627,20.6158357771261
19.586489456967737,81,97,1,0.009000000000000001,19.571660522461382,14.82893450635386
19.593392147911754,77,73,0,0.009000000000000001,19.57480954771625,18.58260019550342
19.59648945696774,47,63,1,0.009000000000000001,19.576342829401757,20.146627565982406
19.603392147911755,35,90,0,0.009000000000000001,19.587468394246066,15.923753665689148
19.60648945696774,29,88,1,0.022131523848547056,19.590252897827956,16.236559139784944
19.613392147911757,45,72,0,0.01224728540482579,19.594653144979205,18.73900293255132
19.631080039021683,72,52,1,0.009000000000000001,19.609212981348172,21.867057673509287
19.62700024280601,73,116,0,0.009000000000000001,19.615142960303565,11.857282502443795
19.641080039021684,74,52,1,0.009000000000000001,19.619212981348173,21.867057673509287
19.63700024280601,50,114,0,0.009000000000000001,19.62483015482947,12.170087976539591
19.647000242806012,65,53,0,0.009000000000000001,19.62528958786955,21.71065493646139
19.651080039021686,34,42,1,0.009000000000000001,19.627648953977697,23.43108504398827
19.657000242806014,93,75,0,0.015298814631515917,19.638730448084605,18.269794721407624
19.661080039021687,47,76,1,0.009000000000000001,19.642966647037326,18.113391984359726
19.67108003902169,50,98,1,0.009000000000000001,19.656407507252382,14.672531769305962
19.67399892572992,49,90,0,0.014633085605694015,19.65807517206423,15.923753665689148
19.691080039021692,63,41,1,0.009914329181783511,19.667492551240656,23.587487781036167
19.68108003902169,78,123,1,0.009000000000000001,19.67031757567858,10.762463343108504
19.700257909736248,66,49,0,0.014357195865632897,19.677921643851594,22.33626588465298
19.690257909736246,72,113,0,0.009000000000000001,19.67793141902266,12.32649071358749
19.702095960334784,53,117,1,0.009000000000000001,19.690395080569388,11.700879765395896
19.712095960334786,30,60,1,0.009000000000000001,19.69148012455766,20.6158357771261
19.71621034958695,52,89,0,0.009000000000000001,19.700130193184215,16.080156402737046
19.726210349586953,26,53,0,0.01751222146082907,19.70449969465049,21.71065493646139
19.722095960334787,45,93,1,0.009000000000000001,19.70664141488024,15.454545454545453
19.73209596033479,81,79,1,0.009000000000000001,19.71445177656157,17.64418377321603
19.74209596033479,71,78,1,0.009000000000000001,19.724295373824525,17.80058651026393
19.74566837343232,60,56,0,0.009000000000000001,19.724426926707004,21.241446725317694
19.75566837343232,36,83,0,0.013918300923260912,19.7386498006073,17.01857282502444
19.752095960334792,56,114,1,0.02058022262087122,19.739925872358253,12.170087976539591
19.771133152235944,74,51,0,0.009000000000000001,19.749109691825385,22.023460410557185
19.781133152235945,54,62,0,0.009000000000000001,19.760830121932916,20.303030303030305
19.774962874357982,75,119,1,0.009000000000000001,19.76357480006668,11.3880742913001
19.791133152235947,42,40,0,0.009000000000000001,19.767389261717863,23.743890518084065
19.784962874357984,65,101,1,0.009000000000000001,19.77075955079982,14.203323558162268
19.794962874357985,76,52,1,0.009000000000000001,19.773095816684474,21.867057673509287
19.804962874357987,21,61,1,0.009000000000000001,19.78450344131791,20.459433040078203
19.80113315223595,53,95,0,0.009000000000000001,19.7859914122555,15.141739980449657
19.81113315223595,79,69,0,0.009000000000000001,19.791924941092255,19.208211143695017
19.814962874357988,87,118,1,0.009000000000000001,19.80341839732964,11.544477028347998
19.82113315223595,48,94,0,0.009000000000000001,19.805835009518454,15.298142717497555
19.82496287435799,61,97,1,0.009000000000000001,19.810133939851635,14.82893450635386
19.83496287435799,41,46,1,0.009000000000000001,19.812157400262194,22.805474095796676
19.831133152235953,54,119,0,0.02046717962706341,19.819745077944653,11.3880742913001
19.844962874357993,76,84,1,0.009000000000000001,19.828100704270017,16.86217008797654
19.854962874357994,78,63,1,0.009000000000000001,19.834816246792013,20.146627565982406
19.85387446293269,44,115,0,0.009000000000000001,19.8418607776932,12.013685239491693
19.863874462932692,76,55,0,0.009000000000000001,19.84247661347033,21.397849462365592
19.864962874357996,51,56,1,0.009000000000000001,19.84372142763268,21.241446725317694
19.873874462932694,85,66,0,0.01007640826719653,19.854197043577855,19.67741935483871
19.874962874357998,40,65,1,0.01003146462989228,19.85512905226611,19.83382209188661
19.885070472118468,51,80,0,0.009000000000000001,19.8675826910823,17.487781036168133
19.89610894616899,59,39,1,0.009000000000000001,19.87220865291386,23.900293255131963
19.88610894616899,51,103,1,0.009000000000000001,19.87221842808492,13.890518084066471
19.89507047211847,21,112,0,0.009000000000000001,19.882587578667835,12.482893450635387
19.90610894616899,64,75,1,0.009000000000000001,19.887839151447583,18.269794721407624
19.90507047211847,27,117,0,0.015299479500288248,19.893369592353075,11.700879765395896
19.916108946168993,74,61,1,0.009000000000000001,19.895649513128916,20.459433040078203
19.926108946168995,47,50,1,0.009000000000000001,19.90392908302139,22.179863147605083
19.92206989378546,50,82,0,0.009000000000000001,19.904894918223388,17.174975562072337
19.93206989378546,30,93,0,0.009000000000000001,19.916615348330915,15.454545454545453
19.936108946168996,84,108,1,0.009000000000000001,19.92300044177017,13.10850439882698
19.94206989378546,39,120,0,0.009000000000000001,19.93083822223121,11.231671554252198
19.946108946168998,52,113,1,0.009000000000000001,19.93378245545541,12.32649071358749
19.956108946169,65,85,1,0.009000000000000001,19.939403178818072,16.705767350928642
19.952069893785463,60,118,0,0.009000000000000001,19.940525416757115,11.544477028347998
19.962069893785465,73,55,0,0.009000000000000001,19.9406720443231,21.397849462365592
19.976108946169003,56,39,1,0.009000000000000001,19.95220865291387,23.900293255131963
19.972069893785466,55,66,0,0.009000000000000001,19.952392474430628,19.67741935483871
19.966108946169,21,114,1,0.009000000000000001,19.953938858192462,12.170087976539591
19.982069893785468,78,90,0,0.009000000000000001,19.96614614011978,15.923753665689148
19.986108946169004,48,113,1,0.009000000000000001,19.973782455455417,12.32649071358749
19.99206989378547,53,123,0,0.01801830706859931,19.98130743044236,10.762463343108504
19.996108946169006,27,101,1,0.010138477021048697,19.981905622610842,14.203323558162268
20.012090234972803,29,51,0,0.009000000000000001,19.990066774562244,22.023460410557185
20.007373920636837,95,99,1,0.009000000000000001,19.992857791604578,14.516129032258064
20.022090234972804,76,46,0,0.009000000000000001,19.999284760877007,22.805474095796676
20.01737392063684,80,83,1,0.01096650218990097,20.000355347811816,17.01857282502444
20.029558923070063,71,78,1,0.009000000000000001,20.011758336559797,17.80058651026393
20.032090234972806,82,104,0,0.009000000000000001,20.018356119625786,13.734115347018573
20.039558923070064,52,69,1,0.009000000000000001,20.02035071192637,19.208211143695017
20.049558923070066,86,54,1,0.009000000000000001,20.02800467087065,21.55425219941349
20.042090234972807,59,112,0,0.012801288762885244,20.029607341522173,12.482893450635387
20.05631388915379,30,59,0,0.009000000000000001,20.03554165063962,20.772238514174
20.066313889153793,82,72,0,0.009000000000000001,20.04757488622124,18.73900293255132
20.059558923070067,50,120,1,0.016587973909184133,20.048327251515815,11.231671554252198
20.076313889153795,53,84,0,0.010545490056971196,20.05945171906582,16.86217008797654
20.08803110032821,60,37,0,0.009000000000000001,20.06381800159898,24.21309872922776
20.077990005191385,51,106,1,0.009000000000000001,20.064568695318464,13.421309872922777
20.087990005191386,71,47,1,0.009000000000000001,20.065340933832637,22.649071358748778
20.09803110032821,52,56,0,0.009000000000000001,20.076789653602894,21.241446725317694
20.108031100328212,97,37,0,0.009000000000000001,20.083818001598985,24.21309872922776
20.097990005191388,61,102,1,0.009000000000000001,20.083943084370272,14.04692082111437
20.10799000519139,75,116,1,0.009000000000000001,20.096132722688946,11.857282502443795
20.11799000519139,59,88,1,0.009000000000000001,20.101753446051607,16.236559139784944
20.118031100328214,54,111,0,0.017596145425459776,20.10539180414053,12.639296187683286
20.127990005191393,46,95,1,0.009000000000000001,20.112848265210943,15.141739980449657
20.137582373023168,58,54,0,0.009000000000000001,20.116028120823753,21.55425219941349
20.137990005191394,107,73,1,0.009000000000000001,20.11940740499589,18.58260019550342
20.147990005191396,48,100,1,0.012639252100773398,20.133630278896185,14.359726295210166
20.14758237302317,62,104,0,0.009000000000000001,20.13384825767615,13.734115347018573
20.15758237302317,53,60,0,0.009000000000000001,20.136966537246046,20.6158357771261
20.1620336186367,84,76,1,0.009000000000000001,20.143920226652337,18.113391984359726
20.167582373023173,66,83,0,0.009000000000000001,20.15056380019815,17.01857282502444
20.1720336186367,45,64,1,0.009000000000000001,20.152043393807766,19.990224828934508
20.177582373023174,37,117,0,0.009000000000000001,20.16588149325778,11.700879765395896
20.1820336186367,71,114,1,0.009000000000000001,20.169863530660162,12.170087976539591
20.187582373023176,50,119,0,0.025761664017770643,20.176194298731875,11.3880742913001
20.192033618636703,42,112,1,0.009000000000000001,20.17955072518607,12.482893450635387
20.202033618636705,40,95,1,0.011370679958352193,20.186891878656255,15.141739980449657
20.214667707479318,63,59,1,0.009000000000000001,20.193895468965145,20.772238514174
20.216206444154032,34,74,0,0.009000000000000001,20.197780246695576,18.426197458455523
20.226206444154034,51,93,0,0.009000000000000001,20.21075189869949,15.454545454545453
20.22466770747932,22,106,1,0.009000000000000001,20.2112463976064,13.421309872922777
20.236206444154035,70,54,0,0.009000000000000001,20.21465219195462,21.55425219941349
20.244667707479323,92,54,1,0.009000000000000001,20.223113455279908,21.55425219941349
20.23466770747932,75,121,1,0.009000000000000001,20.223592438662116,11.0752688172043
20.246206444154037,68,73,0,0.009000000000000001,20.227623843958533,18.58260019550342
20.254667707479324,84,90,1,0.009000000000000001,20.238743953813636,15.923753665689148
20.264667707479326,93,38,1,0.009000000000000001,20.240611011487147,24.05669599217986
20.25620644415404,68,105,0,0.009000000000000001,20.24262873154407,13.577712609970675
20.26620644415404,61,76,0,0.020072011076282925,20.24809305216968,18.113391984359726
20.274667707479328,26,93,1,0.009000000000000001,20.259213162024782,15.454545454545453
20.288508678683243,70,52,0,0.01370863339146913,20.266641621009732,21.867057673509287
20.28466770747933,80,95,1,0.009000000000000001,20.26952596749888,15.141739980449657
20.29466770747933,64,78,1,0.01112780406500096,20.276867120969065,17.80058651026393
20.303740493562653,54,109,0,0.009000000000000001,20.290788391900875,12.952101661779082
20.30703193421822,58,93,1,0.009000000000000001,20.291577388763674,15.454545454545453
20.31703193421822,54,65,1,0.010512691376915925,20.297198112126335,19.83382209188661
20.313740493562655,52,116,0,0.009000000000000001,20.30188321106021,11.857282502443795
20.323740493562656,39,91,0,0.021638704739825865,20.307973142634015,15.76735092864125
20.328712702414794,95,121,1,0.009000000000000001,20.31763743359759,11.0752688172043
20.338712702414796,56,95,1,0.009000000000000001,20.323570962434346,15.141739980449657
20.34778349882913,63,105,0,0.009000000000000001,20.33420578621916,13.577712609970675
20.348712702414797,61,103,1,0.009000000000000001,20.33482218433073,13.890518084066471
20.357783498829132,87,54,0,0.009000000000000001,20.336229246629717,21.55425219941349
20.3587127024148,77,92,1,0.009000000000000001,20.343101754223206,15.610948191593351
20.367783498829134,64,73,0,0.009000000000000001,20.34920089863363,18.58260019550342
20.377783498829135,44,59,0,0.009000000000000001,20.357011260314962,20.772238514174
20.3687127024148,61,117,1,0.009000000000000001,20.357011822649405,11.700879765395896
20.387783498829137,71,38,0,0.009000000000000001,20.363726802836958,24.05669599217986
20.378712702414802,64,99,1,0.009000000000000001,20.364196573382543,14.516129032258064
20.388712702414804,74,43,1,0.009000000000000001,20.365438020107863,23.27468230694037
20.398712702414805,24,50,1,0.009000000000000001,20.3765328392672,22.179863147605083
20.39778349882914,56,118,0,0.009000000000000001,20.38623902180079,11.544477028347998
20.408712702414807,21,58,1,0.009000000000000001,20.387784061163586,20.928641251221897
20.40778349882914,58,112,0,0.009000000000000001,20.395300605378505,12.482893450635387
20.41778349882914,26,91,0,0.009000000000000001,20.4020161479005,15.76735092864125
20.41871270241481,44,86,1,0.009283119499940463,20.40216333780093,16.549364613880744
20.429027279636966,71,45,1,0.009000000000000001,20.40606540280412,22.961876832844574
20.437783498829145,87,40,0,0.009000000000000001,20.41403960831106,23.743890518084065
20.427783498829143,56,117,0,0.009000000000000001,20.416082619063747,11.700879765395896
20.44902727963697,96,39,1,0.009000000000000001,20.425126986381837,23.900293255131963
20.439027279636967,45,117,1,0.009000000000000001,20.42732639987157,11.700879765395896
20.447783498829146,50,105,0,0.009000000000000001,20.434205786219177,13.577712609970675
20.457783498829148,76,44,0,0.011606013990693104,20.434665219259255,23.118279569892472
20.45902727963697,74,55,1,0.009000000000000001,20.437629430174606,21.397849462365592
20.47067906992992,74,45,0,0.009000000000000001,20.447717193097073,22.961876832844574
20.469027279636972,87,68,1,0.009000000000000001,20.44966266575623,19.364613880742915
20.479027279636973,68,109,1,0.009000000000000001,20.466075177975195,12.952101661779082
20.48067906992992,69,121,0,0.009000000000000001,20.469603801112715,11.0752688172043
20.49067906992992,80,60,0,0.009000000000000001,20.470063234152796,20.6158357771261
20.489027279636975,36,88,1,0.009000000000000001,20.47279072049719,16.236559139784944
20.499027279636977,35,99,1,0.009000000000000001,20.484511150604717,14.516129032258064
20.500679069929923,61,90,0,0.009000000000000001,20.484755316264234,15.923753665689148
20.509027279636978,78,39,1,0.009000000000000001,20.485126986381847,23.900293255131963
20.510679069929925,42,48,0,0.009000000000000001,20.488186401308223,22.49266862170088
20.51902727963698,45,49,1,0.009000000000000001,20.496691013752326,22.33626588465298
20.520679069929926,61,59,0,0.009000000000000001,20.499906831415753,20.772238514174
20.52902727963698,22,44,1,0.009000000000000001,20.50590900006709,23.118279569892472
20.539027279636983,52,46,1,0.009000000000000001,20.516221805541186,22.805474095796676
20.530679069929928,34,100,0,0.009000000000000001,20.516319343634716,14.359726295210166
20.54067906992993,83,49,0,0.009000000000000001,20.518342804045275,22.33626588465298
20.549027279636984,84,37,1,0.011209396309294201,20.524814180907757,24.21309872922776
20.55067906992993,21,56,0,0.009000000000000001,20.529437623204615,21.241446725317694
20.560679069929932,55,82,0,0.009000000000000001,20.54350409436786,17.174975562072337
20.56148216442509,70,89,1,0.017345091921073013,20.545402008022354,16.080156402737046
20.570679069929934,75,38,0,0.01965049743929308,20.546622373937755,24.05669599217986
20.58075448878184,46,117,1,0.009000000000000001,20.569053609016443,11.700879765395896
20.592512955973593,82,51,0,0.014832186785131641,20.570489495563034,22.023460410557185
20.59075448878184,72,70,1,0.009000000000000001,20.571702680375193,19.05180840664712
20.610754488781843,47,54,1,0.009000000000000001,20.58920023658243,21.55425219941349
20.600754488781842,70,121,1,0.009000000000000001,20.589679219964637,11.0752688172043
20.60899316351263,74,72,0,0.009000000000000001,20.590254160580077,18.73900293255132
20.61899316351263,59,68,0,0.009000000000000001,20.599628549631888,19.364613880742915
20.620754488781845,40,72,1,0.009000000000000001,20.602015485849293,18.73900293255132
20.628993163512632,43,54,0,0.009000000000000001,20.607438911313217,21.55425219941349
20.630754488781847,66,97,1,0.009000000000000001,20.615925554275492,14.82893450635386
20.638993163512634,68,93,0,0.009000000000000001,20.623538618058088,15.454545454545453
20.640754488781848,82,85,1,0.009000000000000001,20.62404872143092,16.705767350928642
20.648993163512635,84,89,0,0.009000000000000001,20.6329130071099,16.080156402737046
20.65075448878185,51,112,1,0.009000000000000001,20.638271595331215,12.482893450635387
20.658993163512637,61,93,0,0.009000000000000001,20.64353861805809,15.454545454545453
20.66075448878185,49,98,1,0.009000000000000001,20.646081957012544,14.672531769305962
20.66899316351264,54,71,0,0.009000000000000001,20.65009775784304,18.89540566959922
20.67899316351264,84,44,0,0.009000000000000001,20.655874883942747,23.118279569892472
20.670754488781853,72,122,1,0.009000000000000001,20.659835622701696,10.918866080156402
20.680754488781854,73,103,1,0.009000000000000001,20.666863970697786,13.890518084066471
20.690754488781856,94,50,1,0.009000000000000001,20.66857462563425,22.179863147605083
20.68899316351264,44,79,0,0.009000000000000001,20.671348979739424,17.64418377321603
20.700754488781858,45,48,1,0.009000000000000001,20.678261820160156,22.49266862170088
20.698993163512643,102,106,0,0.016987600612435472,20.685571853639722,13.421309872922777
20.71075448878186,91,53,1,0.011035791281617795,20.689043833845396,21.71065493646139
20.717868275304237,87,92,0,0.009000000000000001,20.702257327112644,15.610948191593351
20.723016479094767,39,84,1,0.009000000000000001,20.70615430900679,16.86217008797654
20.72786827530424,88,85,0,0.018490575664678176,20.71116250795331,16.705767350928642
20.73301647909477,59,112,1,0.009000000000000001,20.720533585644134,12.482893450635387
20.74301647909477,58,51,1,0.009000000000000001,20.72099301868421,22.023460410557185
20.748413359376105,79,73,0,0.009000000000000001,20.7298307591806,18.58260019550342
20.75301647909477,73,70,1,0.009000000000000001,20.733964670688124,19.05180840664712
20.758413359376107,71,66,0,0.009000000000000001,20.738735940021268,19.67741935483871
20.763016479094773,62,44,1,0.009000000000000001,20.73989819952488,23.118279569892472
20.768413359376108,68,81,0,0.011809641646760695,20.75108198107699,17.331378299120235
20.773016479094775,38,71,1,0.009000000000000001,20.754121073425175,18.89540566959922
20.781535183428065,53,104,0,0.009000000000000001,20.767801068081045,13.734115347018573
20.791535183428067,43,50,0,0.009000000000000001,20.76935532028046,22.179863147605083
20.783016479094776,62,112,1,0.009000000000000001,20.77053358564414,12.482893450635387
20.793016479094778,91,50,1,0.009000000000000001,20.77083661594717,22.179863147605083
20.80153518342807,60,104,0,0.009000000000000001,20.78780106808105,13.734115347018573
20.80301647909478,70,120,1,0.011470620334367198,20.791784807540527,11.231671554252198
20.82153518342807,65,37,0,0.009000000000000001,20.797322084698845,24.21309872922776
20.81153518342807,82,124,0,0.009000000000000001,20.80092912282201,10.606060606060606
20.815761612799633,73,97,1,0.009000000000000001,20.80093267829328,14.82893450635386
20.825761612799635,47,52,1,0.009000000000000001,20.803894555126124,21.867057673509287
20.835761612799637,44,51,1,0.009000000000000001,20.813738152389078,22.023460410557185
20.831535183428073,59,110,0,0.010182826417019637,20.818739484503343,12.795698924731184
20.845761612799638,91,77,1,0.009000000000000001,20.827804623552325,17.956989247311828
20.842849435002538,42,112,0,0.015421564942393913,20.830366541551903,12.482893450635387
20.85576161279964,45,76,1,0.009000000000000001,20.83764822081528,18.113391984359726
20.869984507160755,42,41,0,0.009000000000000001,20.84639701937972,23.587487781036167
20.859984507160753,50,112,0,0.009000000000000001,20.84750161371012,12.482893450635387
20.86576161279964,65,76,1,0.009000000000000001,20.84764822081528,18.113391984359726
20.875761612799643,53,69,1,0.009000000000000001,20.856553401655948,19.208211143695017
20.885761612799644,66,58,1,0.009000000000000001,20.864832971548424,20.928641251221897
20.879984507160756,52,107,0,0.009000000000000001,20.866719600024883,13.264907135874878
20.895761612799646,38,71,1,0.009000000000000001,20.876866207130046,18.89540566959922
20.889984507160758,81,118,0,0.009000000000000001,20.87844003013241,11.544477028347998
20.89998450716076,106,55,0,0.011433873469582391,20.878586657698396,21.397849462365592
20.905761612799648,36,80,1,0.010283834333546809,20.88827383176348,17.487781036168133
20.91268881101585,86,81,0,0.016833193959107047,20.895357432716732,17.331378299120235
20.917188095392476,66,98,1,0.009000000000000001,20.90251556362317,14.672531769305962
20.927188095392477,69,75,1,0.009000000000000001,20.90891830067107,18.269794721407624
20.931392359859302,76,77,0,0.009000000000000001,20.91343537061199,17.956989247311828
20.941392359859304,76,42,0,0.009000000000000001,20.917961274815315,23.43108504398827
20.93718809539248,42,102,1,0.009000000000000001,20.923141174571363,14.04692082111437
20.94718809539248,82,39,1,0.009000000000000001,20.92328780213735,23.900293255131963
20.951392359859305,63,114,0,0.009000000000000001,20.939222271882766,12.170087976539591
20.961392359859307,89,52,0,0.009000000000000001,20.939525302185796,21.867057673509287
20.957188095392482,60,105,1,0.009000000000000001,20.943610382782513,13.577712609970675
20.97139235985931,91,59,0,0.009000000000000001,20.950620121345136,20.772238514174
20.967188095392483,34,120,1,0.025714932924254506,20.95595642383823,11.231671554252198
20.98139235985931,68,70,0,0.015963007555140286,20.962340551452662,19.05180840664712
20.9957602430861,61,54,1,0.009000000000000001,20.974205990886684,21.55425219941349
20.99912903492058,92,42,0,0.009880421405096965,20.97569794987659,23.43108504398827
21.0057602430861,77,64,1,0.009000000000000001,20.985770018257167,19.990224828934508
21.010107280926242,45,70,0,0.009000000000000001,20.991055472519594,19.05180840664712
21.015760243086103,48,56,1,0.009000000000000001,20.994518796360786,21.241446725317694
21.020107280926243,64,92,0,0.009000000000000001,21.00449633273465,15.610948191593351
21.025760243086104,44,82,1,0.009000000000000001,21.008585267524033,17.174975562072337
21.030107280926245,44,120,0,0.009000000000000001,21.018875609371992,11.231671554252198
21.035760243086106,65,116,1,0.009000000000000001,21.023902960583662,11.857282502443795
21.040107280926247,70,107,0,0.009000000000000001,21.026842373790373,13.264907135874878
21.050107280926248,60,45,0,0.009000000000000001,21.027145404093403,22.961876832844574
21.045760243086107,24,99,1,0.009000000000000001,21.031244114053848,14.516129032258064
21.05576024308611,76,54,1,0.009000000000000001,21.034205990886694,21.55425219941349
21.06010728092625,62,97,0,0.009000000000000001,21.045278346419895,14.82893450635386
21.07010728092625,77,42,0,0.009000000000000001,21.046676195882263,23.43108504398827
21.06576024308611,66,101,1,0.009000000000000001,21.051556919527947,14.203323558162268
21.080107280926253,68,79,0,0.009000000000000001,21.062463097153035,17.64418377321603
21.075760243086112,71,124,1,0.009000000000000001,21.06515418248005,10.606060606060606
21.085760243086114,80,72,1,0.009000000000000001,21.06702124015356,18.73900293255132
21.090107280926254,38,95,0,0.009000000000000001,21.074965540945804,15.141739980449657
21.100107280926256,71,39,0,0.012413582198658664,21.076206987671124,23.900293255131963
21.095760243086115,23,101,1,0.009000000000000001,21.08155691952795,14.203323558162268
21.105760243086117,54,87,1,0.009000000000000001,21.089367281209284,16.392961876832846
21.115760243086118,80,63,1,0.009000000000000001,21.095613615520136,20.146627565982406
21.113900150035878,86,75,0,0.009000000000000001,21.09563035531447,18.269794721407624
21.12390015003588,90,107,0,0.009000000000000001,21.110635242900006,13.264907135874878
21.13390015003588,55,48,0,0.009000000000000001,21.11140748141418,22.49266862170088
21.12576024308612,76,116,1,0.009000000000000001,21.113902960583676,11.857282502443795
21.13576024308612,68,84,1,0.009000000000000001,21.118898072998146,16.86217008797654
21.145760243086123,68,61,1,0.009000000000000001,21.125300810046046,20.459433040078203
21.155760243086124,38,40,1,0.016620670928592613,21.13201635256804,23.743890518084065
21.143900150035883,75,122,0,0.020187962925692575,21.132981283955726,10.918866080156402
21.166331219953317,78,97,0,0.009000000000000001,21.151502285446963,14.82893450635386
21.174227655229004,63,83,1,0.009000000000000001,21.15720908240398,17.01857282502444
21.17633121995332,56,84,0,0.009000000000000001,21.159469049865343,16.86217008797654
21.184227655229005,52,80,1,0.009000000000000001,21.16673987419284,17.487781036168133
21.18633121995332,80,87,0,0.009000000000000001,21.16993825807649,16.392961876832846
21.194227655229007,63,72,1,0.009000000000000001,21.175488652296455,18.73900293255132
21.20422765522901,75,56,1,0.009000000000000001,21.182986208503692,21.241446725317694
21.196331219953322,48,122,0,0.009000000000000001,21.185412353873165,10.918866080156402
21.206331219953324,64,80,0,0.009000000000000001,21.188843438917157,17.487781036168133
21.216331219953325,60,54,0,0.009000000000000001,21.19477696775391,21.55425219941349
21.21422765522901,64,90,1,0.009000000000000001,21.19830390156332,15.923753665689148
21.226331219953327,81,41,0,0.009000000000000001,21.20274373217229,23.587487781036167
21.22422765522901,91,106,1,0.009000000000000001,21.21080634535609,13.421309872922777
21.24633121995333,74,37,0,0.009000000000000001,21.222118121224103,24.21309872922776
21.234227655229013,65,122,1,0.009000000000000001,21.223308789148856,10.918866080156402
21.244227655229015,41,59,1,0.009000000000000001,21.22345541671484,20.772238514174
21.23633121995333,69,113,0,0.009000000000000001,21.22400472923974,12.32649071358749
21.254227655229016,66,39,1,0.009000000000000001,21.230327361973885,23.900293255131963
21.25633121995333,44,51,0,0.009355893554703157,21.234307759542773,22.023460410557185
21.266726657236333,72,43,0,0.009000000000000001,21.243451974929393,23.27468230694037
21.264227655229018,69,77,1,0.009000000000000001,21.246270665981704,17.956989247311828
21.276726657236335,71,75,0,0.012918375952728274,21.258456862514926,18.269794721407624
21.27422765522902,44,94,1,0.009000000000000001,21.25892951251152,15.298142717497555
21.29108040829492,31,71,0,0.009000000000000001,21.27218500262532,18.89540566959922
21.28422765522902,61,120,1,0.009000000000000001,21.272995983674768,11.231671554252198
21.294227655229022,79,60,1,0.009000000000000001,21.273611819451897,20.6158357771261
21.301080408294922,68,42,0,0.009000000000000001,21.277649323250934,23.43108504398827
21.304227655229024,66,84,1,0.009000000000000001,21.28736548514105,16.86217008797654
21.311080408294924,85,102,0,0.009600177688392943,21.297033487473808,14.04692082111437
21.314227655229026,79,84,1,0.009000000000000001,21.29736548514105,16.86217008797654
21.32174727239314,87,74,0,0.009000000000000001,21.303321074934683,18.426197458455523
21.324227655229027,39,85,1,0.009000000000000001,21.3075218878781,16.705767350928642
21.33174727239314,30,64,0,0.009704779836506586,21.311757047564207,19.990224828934508
21.34253036110037,77,48,0,0.009000000000000001,21.320037692478667,22.49266862170088
21.33422765522903,63,121,1,0.009000000000000001,21.323152386411824,11.0752688172043
21.34422765522903,89,94,1,0.009000000000000001,21.328929512511532,15.298142717497555
21.35422765522903,64,95,1,0.009000000000000001,21.33908591524858,15.141739980449657
21.35253036110037,45,107,0,0.009000000000000001,21.339265453964497,13.264907135874878
21.362530361100372,52,66,0,0.009000000000000001,21.342852941745534,19.67741935483871
21.364227655229033,64,66,1,0.010083912886218347,21.344550235874195,19.67741935483871
21.375432002880387,79,62,1,0.009000000000000001,21.355128972577358,20.303030303030305
21.372530361100374,62,116,0,0.012180030755969549,21.36067307859793,11.857282502443795
21.38543200288039,73,44,1,0.009000000000000001,21.362313723310496,23.118279569892472
21.386063728607006,60,62,0,0.009000000000000001,21.365760698303976,20.303030303030305
21.396063728607007,88,38,0,0.009000000000000001,21.372007032614828,24.05669599217986
21.39543200288039,36,117,1,0.00983256533397215,21.383731123114995,11.700879765395896
21.40606372860701,67,95,0,0.009000000000000001,21.39092198862656,15.141739980449657
21.406357075473693,50,105,1,0.009000000000000001,21.392779362863724,13.577712609970675
21.416357075473694,39,56,1,0.009000000000000001,21.39511562874838,21.241446725317694
21.41606372860701,85,83,0,0.04305113186644018,21.399045155781987,17.01857282502444
21.426357075473696,50,53,1,0.012768656433235938,21.404646420537233,21.71065493646139
21.440544471510623,57,101,1,0.009000000000000001,21.42634114795246,14.203323558162268
21.450544471510625,73,81,1,0.009000000000000001,21.433213093211506,17.331378299120235
21.460544471510627,74,46,1,0.009000000000000001,21.43773899741483,22.805474095796676
21.463898319569722,106,106,0,0.009000000000000001,21.4504770096968,13.421309872922777
21.473898319569724,77,59,0,0.009000000000000001,21.45312608105555,20.772238514174
21.470544471510628,49,94,1,0.009000000000000001,21.45524632879313,15.298142717497555
21.483898319569725,82,41,0,0.009000000000000001,21.46031083178869,23.587487781036167
21.48054447151063,50,107,1,0.009000000000000001,21.467279564374756,13.264907135874878
21.49054447151063,45,69,1,0.009000000000000001,21.471336260366936,19.208211143695017
21.493898319569727,75,92,0,0.015473997134614522,21.478287371378133,15.610948191593351
21.500544471510633,69,54,1,0.009000000000000001,21.478990219311218,21.55425219941349
21.510544471510634,67,70,1,0.009000000000000001,21.491492663103987,19.05180840664712
21.511091649719297,75,113,0,0.009000000000000001,21.49876515900571,12.32649071358749
21.5210916497193,34,73,0,0.025615273837257434,21.502509049523795,18.58260019550342
21.520544471510636,74,100,1,0.009000000000000001,21.506184745215425,14.359726295210166
21.530544471510638,48,60,1,0.009000000000000001,21.509928635733512,20.6158357771261
21.54054447151064,30,85,1,0.009000000000000001,21.52383870415971,16.705767350928642
21.54955306509403,36,43,0,0.009000000000000001,21.52627838278709,23.27468230694037
21.55054447151064,90,46,1,0.009000000000000001,21.527738997414843,22.805474095796676
21.559553065094033,48,49,0,0.009000000000000001,21.53721679920938,22.33626588465298
21.560544471510642,64,106,1,0.009000000000000001,21.54712316163772,13.421309872922777
21.570544471510644,81,66,1,0.009000000000000001,21.550867052155805,19.67741935483871
21.569553065094034,52,94,0,0.009000000000000001,21.554254922376536,15.298142717497555
21.580544471510645,46,67,1,0.009000000000000001,21.561023454892855,19.521016617790814
21.579553065094036,50,80,0,0.009000000000000001,21.56206528405787,17.487781036168133
21.590544471510647,108,87,1,0.009000000000000001,21.574151509633815,16.392961876832846
21.589553065094037,68,110,0,0.009000000000000001,21.576757366169307,12.795698924731184
21.59955306509404,47,54,0,0.009000000000000001,21.577998812894624,21.55425219941349
21.61054447151065,22,40,1,0.009000000000000001,21.586800580992566,23.743890518084065
21.60955306509404,74,58,0,0.009000000000000001,21.58862442384282,20.928641251221897
21.60054447151065,65,123,1,0.009000000000000001,21.58978200816754,10.762463343108504
21.629553065094044,21,43,0,0.009000000000000001,21.606278382787103,23.27468230694037
21.619553065094042,86,108,0,0.009000000000000001,21.606444560695216,13.10850439882698
21.62054447151065,65,114,1,0.014790305416148236,21.608374383534112,12.170087976539591
21.63697814419526,55,69,1,0.009000000000000001,21.617769933051566,19.208211143695017
21.639553065094045,59,99,0,0.009000000000000001,21.625036936061786,14.516129032258064
21.646978144195263,68,61,1,0.009000000000000001,21.626518711155185,20.459433040078203
21.649553065094047,85,109,0,0.01122905365416714,21.63660096343227,12.952101661779082
21.662029791376455,77,44,0,0.009000000000000001,21.638911511806562,23.118279569892472
21.656978144195264,58,83,1,0.009000000000000001,21.63995957137024,17.01857282502444
21.666978144195266,51,81,1,0.009000000000000001,21.649646765896147,17.331378299120235
21.676978144195267,89,58,1,0.009000000000000001,21.656049502944047,20.928641251221897
21.672029791376456,46,102,0,0.009000000000000001,21.65798287055534,14.04692082111437
21.682029791376458,37,96,0,0.009000000000000001,21.667044454133055,14.985337243401759
21.68697814419527,75,110,1,0.009000000000000001,21.67418244527054,12.795698924731184
21.69697814419527,46,53,1,0.009000000000000001,21.675267489258808,21.71065493646139
21.69202979137646,45,110,0,0.009000000000000001,21.67923409245173,12.795698924731184
21.70202979137646,61,87,0,0.009000000000000001,21.68563682949963,16.392961876832846
21.706978144195272,56,110,1,0.009000000000000001,21.694182445270542,12.795698924731184
21.712029791376462,58,83,0,0.009000000000000001,21.69501121855144,17.01857282502444
21.716978144195274,52,89,1,0.009000000000000001,21.700897987792537,16.080156402737046
21.722029791376464,64,91,0,0.009000000000000001,21.706262440447823,15.76735092864125
21.726978144195275,93,119,1,0.01080969443801989,21.715590069903975,11.3880742913001
21.732029791376466,83,111,0,0.009000000000000001,21.719390495188783,12.639296187683286
21.742029791376467,45,66,0,0.009000000000000001,21.72235237202163,19.67741935483871
21.738988915793076,22,88,1,0.009000000000000001,21.72275235665329,16.236559139784944
21.748988915793078,45,82,1,0.009000000000000001,21.731813940231007,17.174975562072337
21.75202979137647,57,100,0,0.009000000000000001,21.737670065081257,14.359726295210166
21.75898891579308,56,102,1,0.009000000000000001,21.744941994971963,14.04692082111437
21.76202979137647,46,100,0,0.009000000000000001,21.74767006508126,14.359726295210166
21.76898891579308,59,76,1,0.014532101351930848,21.75087552380872,18.113391984359726
21.77202979137647,37,101,0,0.009000000000000001,21.757826467818308,14.203323558162268
21.785135695073002,50,68,1,0.009000000000000001,21.76577108119226,19.364613880742915
21.782029791376473,61,121,0,0.009000000000000001,21.77095452255927,11.0752688172043
21.792029791376475,71,68,0,0.009000000000000001,21.772665177495732,19.364613880742915
21.795135695073004,76,68,1,0.009000000000000001,21.77577108119226,19.364613880742915
21.802029791376476,95,51,0,0.009599502925660008,21.780006330965918,22.023460410557185
21.805135695073005,26,97,1,0.009000000000000001,21.79030676056665,14.82893450635386
21.81269590573832,89,63,0,0.010887036126973075,21.792549278172338,20.146627565982406
21.815135695073007,27,63,1,0.009000000000000001,21.794989067507025,20.146627565982406
21.824792612546066,68,68,0,0.009000000000000001,21.805427998665323,19.364613880742915
21.82513569507301,46,94,1,0.009000000000000001,21.80983755235551,15.298142717497555
21.83513569507301,76,66,1,0.009000000000000001,21.81545827571817,19.67741935483871
21.834792612546067,42,103,0,0.013223662189123898,21.820902094462,13.890518084066471
21.84513569507301,90,110,1,0.009000000000000001,21.83233999614828,12.795698924731184
21.855135695073013,67,52,1,0.009000000000000001,21.833268637399502,21.867057673509287
21.849485570533982,58,120,0,0.009000000000000001,21.83825389897973,11.231671554252198
21.865135695073015,42,43,1,0.009000000000000001,21.841861012766074,23.27468230694037
21.859485570533984,29,88,0,0.009000000000000001,21.8432490113942,16.236559139784944
21.875135695073016,61,60,1,0.00986522434411309,21.85451985929589,20.6158357771261
21.869485570533985,49,121,0,0.009000000000000001,21.85841030171678,11.0752688172043
21.879485570533987,54,94,0,0.011312243621565861,21.86418742781649,15.298142717497555
21.886097055455362,82,93,1,0.009000000000000001,21.870642510000817,15.454545454545453
21.892054730113504,72,64,0,0.009000000000000001,21.87206450528457,19.990224828934508
21.906097055455366,92,41,1,0.010994847643820006,21.88250956767433,23.587487781036167
21.902054730113505,74,69,0,0.009000000000000001,21.88284651896981,19.208211143695017
21.896097055455364,42,119,1,0.009000000000000001,21.884708981164064,11.3880742913001
21.912054730113507,64,49,0,0.009000000000000001,21.889718464228853,22.33626588465298
21.92205473011351,67,50,0,0.009000000000000001,21.899874866965902,22.179863147605083
21.918313552837386,21,81,1,0.009000000000000001,21.900982174538267,17.331378299120235
21.93205473011351,57,38,0,0.009000000000000001,21.90799803412133,24.05669599217986
21.928313552837388,71,84,1,0.009000000000000001,21.911451382749412,16.86217008797654
21.93831355283739,21,79,1,0.009000000000000001,21.92066936906417,17.64418377321603
21.94205473011351,40,72,0,0.009000000000000001,21.92331572718096,18.73900293255132
21.94831355283739,65,57,1,0.009000000000000001,21.927228508849122,21.085043988269796
21.952054730113513,55,58,0,0.009000000000000001,21.931126088862293,20.928641251221897
21.958313552837392,92,104,1,0.009000000000000001,21.944579437490372,13.734115347018573
21.962054730113515,61,107,0,0.01205287152435551,21.94878982297764,13.264907135874878
21.97544680958502,74,55,0,0.012044704364995839,21.954048960122655,21.397849462365592
21.968313552837394,73,111,1,0.02097748131573871,21.95567425664971,12.639296187683286
21.988829814435014,70,94,0,0.009000000000000001,21.973531671717517,15.298142717497555
22.00162186541044,97,37,1,0.009000000000000001,21.97740876668121,24.21309872922776
21.991621865410437,63,123,1,0.009000000000000001,21.980859402067328,10.762463343108504
22.009123054317342,33,51,0,0.009000000000000001,21.987099593906784,22.023460410557185
21.998829814435016,78,118,0,0.009263915894093117,21.987285337406668,11.544477028347998
22.01162186541044,21,79,1,0.009000000000000001,21.993977681637222,17.64418377321603
22.019123054317344,47,50,0,0.009754065809444566,21.996943191169738,22.179863147605083
22.02162186541044,76,99,1,0.009000000000000001,22.007105736378183,14.516129032258064
22.029960905216726,84,92,0,0.009914295300596088,22.014349957025132,15.610948191593351
22.031621865410443,81,85,1,0.009000000000000001,22.014916098059516,16.705767350928642
22.040976788884056,38,103,0,0.009528165850034522,22.027086270799987,13.890518084066471
22.041621865410445,73,108,1,0.009000000000000001,22.02851336101162,13.10850439882698
22.051621865410446,89,45,1,0.009000000000000001,22.0286599885776,22.961876832844574
22.051563639828537,84,79,0,0.009000000000000001,22.03391945605532,17.64418377321603
22.061621865410448,55,74,1,0.009000000000000001,22.04319566795199,18.426197458455523
22.061563639828538,62,79,0,0.009000000000000001,22.04391945605532,17.64418377321603
22.07162186541045,71,58,1,0.009000000000000001,22.05069322415923,20.928641251221897
22.07156363982854,66,72,0,0.009000000000000001,22.052824636895988,18.73900293255132
22.08156363982854,62,98,0,0.009000000000000001,22.066891108059234,14.672531769305962
22.08162186541045,21,102,1,0.009000000000000001,22.067574944589335,14.04692082111437
22.091621865410453,54,99,1,0.009000000000000001,22.077105736378194,14.516129032258064
22.091563639828543,54,123,0,0.009000000000000001,22.080801176485434,10.762463343108504
22.101621865410454,74,69,1,0.009000000000000001,22.08241365426676,19.208211143695017
22.101563639828544,68,74,0,0.009000000000000001,22.083137442370088,18.426197458455523
22.111621865410456,30,60,1,0.009000000000000001,22.09100602963333,20.6158357771261
22.111563639828546,47,114,0,0.009000000000000001,22.099393551852007,12.170087976539591
22.121563639828548,39,101,0,0.009000000000000001,22.107360316270384,14.203323558162268
22.121621865410457,44,111,1,0.018975402341162455,22.108982569222775,12.639296187683286
22.13156363982855,86,60,0,0.009000000000000001,22.110947804051424,20.6158357771261
22.14156363982855,48,100,0,0.012186040631174571,22.12720391353334,14.359726295210166
22.152705645789528,102,43,1,0.009000000000000001,22.129430963482587,23.27468230694037
22.142705645789526,63,111,1,0.009000000000000001,22.130066349601844,12.639296187683286
22.1551036849743,35,79,0,0.009000000000000001,22.137459501201082,17.64418377321603
22.17270564578953,58,45,1,0.009000000000000001,22.149743768956686,22.961876832844574
22.16270564578953,86,111,1,0.009000000000000001,22.150066349601847,12.639296187683286
22.1651036849743,30,105,0,0.009000000000000001,22.151525972364333,13.577712609970675
22.175103684974303,48,81,0,0.009000000000000001,22.157772306675184,17.331378299120235
22.185103684974305,62,46,0,0.009000000000000001,22.162298210878507,22.805474095796676
22.182705645789532,69,83,1,0.009000000000000001,22.16568707296451,17.01857282502444
22.192705645789534,73,66,1,0.009000000000000001,22.173028226434695,19.67741935483871
22.195103684974306,37,86,0,0.009000000000000001,22.178554320360426,16.549364613880744
22.202705645789536,69,60,1,0.009000000000000001,22.18208981001241,20.6158357771261
22.205103684974308,42,71,0,0.009000000000000001,22.186208279304708,18.89540566959922
22.212705645789537,50,118,1,0.009000000000000001,22.20116116876119,11.544477028347998
22.21510368497431,81,124,0,0.01563911937367464,22.204497624368248,10.606060606060606
22.22270564578954,29,82,1,0.009000000000000001,22.205530670227468,17.174975562072337
22.23270564578954,61,42,1,0.009000000000000001,22.209274560745552,23.43108504398827
22.23248048427839,21,110,0,0.009000000000000001,22.21968478535366,12.795698924731184
22.242705645789542,75,109,1,0.010727948693182573,22.229753544127764,12.952101661779082
22.242480484278392,57,112,0,0.009000000000000001,22.229997590827757,12.482893450635387
22.254625588781966,83,63,1,0.009000000000000001,22.234478961215984,20.146627565982406
22.252480484278394,55,99,0,0.009201046550666902,22.237964355246135,14.516129032258064
22.26270386933469,66,93,0,0.013780565512005183,22.247249323880144,15.454545454545453
22.264625588781968,35,119,1,0.01118498696279626,22.253237514490667,11.3880742913001
22.277053352073963,58,84,1,0.009000000000000001,22.260191181985988,16.86217008797654
22.278015608792472,58,109,0,0.009000000000000001,22.265063507130694,12.952101661779082
22.288015608792474,86,66,0,0.009000000000000001,22.268338189437635,19.67741935483871
22.287053352073965,69,82,1,0.009000000000000001,22.269878376511894,17.174975562072337
22.297053352073966,84,69,1,0.012318551001176695,22.27784514093027,19.208211143695017
22.298015608792475,37,69,0,0.019422984215058708,22.27880739764878,19.208211143695017
22.310740630964162,73,89,1,0.009000000000000001,22.294660474561425,16.080156402737046
22.319596702364763,80,98,0,0.009000000000000001,22.304924170595456,14.672531769305962
22.320740630964163,48,110,1,0.009215229275051036,22.307944932039433,12.795698924731184
22.330979774603108,73,59,1,0.009000000000000001,22.310207536088935,20.772238514174
22.329596702364764,36,106,0,0.009000000000000001,22.316175392491843,13.421309872922777
22.34097977460311,84,73,1,0.009000000000000001,22.322397174407605,18.58260019550342
22.339596702364766,38,82,0,0.009000000000000001,22.322421726802695,17.174975562072337
22.349596702364767,83,52,0,0.009000000000000001,22.327729644691257,21.867057673509287
22.360979774603113,57,48,1,0.009000000000000001,22.33848710598141,22.49266862170088
22.35097977460311,73,118,1,0.009000000000000001,22.339435297574763,11.544477028347998
22.35959670236477,57,116,0,0.009000000000000001,22.347739419862325,11.857282502443795
22.36959670236477,55,88,0,0.009000000000000001,22.353360143224986,16.236559139784944
22.379596702364772,45,38,0,0.009000000000000001,22.355540006372593,24.05669599217986
22.380979774603116,78,44,1,0.009000000000000001,22.357861495033223,23.118279569892472
22.370979774603114,59,122,1,0.009000000000000001,22.360060908522957,10.918866080156402
22.389596702364774,51,101,0,0.009000000000000001,22.37539337880661,14.203323558162268
22.390979774603117,45,105,1,0.009000000000000001,22.37740206199315,13.577712609970675
22.40097977460312,57,42,1,0.009000000000000001,22.37754868955913,23.43108504398827
22.399596702364775,74,53,0,0.009000000000000001,22.377886047428312,21.71065493646139
22.409596702364777,65,38,0,0.011591732001642248,22.385540006372597,24.05669599217986
22.41097977460312,48,78,1,0.009000000000000001,22.393179188092855,17.80058651026393
22.422476404588824,70,72,0,0.009000000000000001,22.403737401656272,18.73900293255132
22.420979774603122,40,89,1,0.009000000000000001,22.404899618200385,16.080156402737046
22.432476404588826,99,55,0,0.009000000000000001,22.411078555126462,21.397849462365592
22.430979774603124,52,69,1,0.009000000000000001,22.41177156345943,19.208211143695017
22.442476404588827,46,83,0,0.009000000000000001,22.425457831763804,17.01857282502444
22.440979774603125,81,104,1,0.009000000000000001,22.427245659256105,13.734115347018573
22.46097977460313,68,50,1,0.012405085878400961,22.438799911455522,22.179863147605083
22.45247640458883,64,108,0,0.009000000000000001,22.439367900190003,13.10850439882698
22.450979774603127,32,124,1,0.009000000000000001,22.440373713997065,10.606060606060606
22.46247640458883,67,56,0,0.009000000000000001,22.441234957863514,21.241446725317694
22.472476404588832,21,110,0,0.014718044411221433,22.459680705664102,12.795698924731184
22.474763203356908,68,107,1,0.009000000000000001,22.461498296221034,13.264907135874878
22.488829787267967,62,40,0,0.009000000000000001,22.465085896749883,23.743890518084065
22.48476320335691,70,86,1,0.009000000000000001,22.46821383874303,16.549364613880744
22.49476320335691,73,38,1,0.009000000000000001,22.47070650736473,24.05669599217986
22.49882978726797,98,114,0,0.009000000000000001,22.48665969929143,12.170087976539591
22.504763203356912,51,102,1,0.009000000000000001,22.490716282535796,14.04692082111437
22.50882978726797,21,85,0,0.010022875015322976,22.492124019917043,16.705767350928642
22.514763203356914,61,78,1,0.009000000000000001,22.49696261684665,17.80058651026393
22.519966315062774,62,77,0,0.009000000000000001,22.50200932581546,17.956989247311828
22.524763203356915,50,76,1,0.013116129549668797,22.506649811372554,18.113391984359726
22.529966315062776,36,53,0,0.009000000000000001,22.508255660126313,21.71065493646139
22.539966315062777,78,74,0,0.009000000000000001,22.52154011760432,18.426197458455523
22.539336680634324,39,109,1,0.009000000000000001,22.526384578972547,12.952101661779082
22.549336680634326,90,88,1,0.009804541508369723,22.53310012149454,16.236559139784944
22.54996631506278,49,110,0,0.009000000000000001,22.53717061613805,12.795698924731184
22.55996631506278,78,48,0,0.009000000000000001,22.53747364644108,22.49266862170088
22.570230615643627,65,45,1,0.01240825107912694,22.547268738810782,22.961876832844574
22.560230615643626,92,113,1,0.009000000000000001,22.54790412493004,12.32649071358749
22.569966315062782,48,90,0,0.009000000000000001,22.554042561397093,15.923753665689148
22.579966315062784,64,49,0,0.009000000000000001,22.55763004917813,22.33626588465298
22.5840175612871,72,43,1,0.009000000000000001,22.56074287898016,23.27468230694037
22.589966315062785,91,69,0,0.009000000000000001,22.57075810391909,19.208211143695017
22.599966315062787,65,61,0,0.012211094928428425,22.57950688202271,20.459433040078203
22.604017561287105,50,39,1,0.009000000000000001,22.580117268031973,23.900293255131963
22.594017561287103,53,117,1,0.009000000000000001,22.582316681521707,11.700879765395896
22.614017561287106,77,70,1,0.009000000000000001,22.59496575288046,19.05180840664712
22.613534198316597,54,108,0,0.009000000000000001,22.60042569391777,13.10850439882698
22.624017561287108,57,52,1,0.019559726832243586,22.602150503613597,21.867057673509287
22.623534198316598,72,87,0,0.009000000000000001,22.607141236439766,16.392961876832846
22.6335341983166,40,95,0,0.009000000000000001,22.61839245833615,15.141739980449657
22.64575059110071,73,89,1,0.009000000000000001,22.629670434697974,16.080156402737046
22.6435341983166,86,106,0,0.009000000000000001,22.63011288844368,13.421309872922777
22.653534198316603,68,67,0,0.009000000000000001,22.634013181698812,19.521016617790814
22.655750591100713,67,82,1,0.009000000000000001,22.63857561553864,17.174975562072337
22.665750591100714,48,61,1,0.009000000000000001,22.645291158060637,20.459433040078203
22.663534198316604,37,87,0,0.013587926934084353,22.647141236439772,16.392961876832846
22.675750591100716,54,67,1,0.009000000000000001,22.656229574482925,19.521016617790814
22.68863189491003,35,41,0,0.009000000000000001,22.665044407128995,23.587487781036167
22.67863189491003,51,119,0,0.009000000000000001,22.66724382061873,11.3880742913001
22.685750591100717,51,98,1,0.009000000000000001,22.67107805933141,14.672531769305962
22.69575059110072,70,68,1,0.009000000000000001,22.676385977219976,19.364613880742915
22.698631894910033,50,68,0,0.009000000000000001,22.67926728102929,19.364613880742915
22.708631894910035,53,52,0,0.009000000000000001,22.686764837236524,21.867057673509287
22.70575059110072,47,76,1,0.009000000000000001,22.68763719911636,18.113391984359726
22.715750591100722,90,63,1,0.009000000000000001,22.69560396353474,20.146627565982406
22.718631894910036,60,53,0,0.009000000000000001,22.696921239973573,21.71065493646139
22.725750591100724,53,62,1,0.009000000000000001,22.705447560797694,20.303030303030305
22.728631894910038,80,112,0,0.009000000000000001,22.716149001459403,12.482893450635387
22.73863189491004,83,80,0,0.009000000000000001,22.721144113873873,17.487781036168133
22.745750591100727,75,43,1,0.009000000000000001,22.722475908793786,23.27468230694037
22.735750591100725,47,115,1,0.009000000000000001,22.723736905861234,12.013685239491693
22.74863189491004,41,47,0,0.009000000000000001,22.72598282355129,22.649071358748778
22.75575059110073,49,49,1,0.009000000000000001,22.733414325216074,22.33626588465298
22.758631894910042,53,75,0,0.009000000000000001,22.740362100188634,18.269794721407624
22.76575059110073,84,75,1,0.009000000000000001,22.74748079637932,18.269794721407624
22.768631894910044,63,83,0,0.009000000000000001,22.75161332208502,17.01857282502444
22.77575059110073,69,96,1,0.009000000000000001,22.76076525385733,14.985337243401759
22.778631894910045,82,83,0,0.017883219797861342,22.761613322085022,17.01857282502444
22.785750591100733,67,42,1,0.009000000000000001,22.762319506056745,23.43108504398827
22.795750591100735,76,86,1,0.009000000000000001,22.779201226486855,16.549364613880744
22.79850213912989,62,114,0,0.009000000000000001,22.78633205115335,12.170087976539591
22.805750591100736,58,90,1,0.009000000000000001,22.789826837435047,15.923753665689148
22.808502139129892,48,93,0,0.009000000000000001,22.793047593675347,15.454545454545453
22.815750591100738,88,87,1,0.009000000000000001,22.799357629223906,16.392961876832846
22.818502139129894,23,85,0,0.009000000000000001,22.801796371778966,16.705767350928642
22.82575059110074,61,52,1,0.009000000000000001,22.80388353342723,21.867057673509287
22.828502139129895,35,94,0,0.009000000000000001,22.813203996412398,15.298142717497555
22.83575059110074,64,107,1,0.009515698849043297,22.822485683964867,13.264907135874878
22.838502139129897,64,121,0,0.009000000000000001,22.827426870312692,11.0752688172043
22.8485021391299,85,85,0,0.009000000000000001,22.83179637177897,16.705767350928642
22.8463235898219,89,118,1,0.009000000000000001,22.83477911279355,11.544477028347998
22.8585021391299,72,68,0,0.009000000000000001,22.839137525249157,19.364613880742915
22.8563235898219,75,98,1,0.013307250016208203,22.841651058052594,14.672531769305962
22.8685021391299,75,94,0,0.009000000000000001,22.853203996412404,15.298142717497555
22.878502139129903,80,67,0,0.02444510021356408,22.858981122512112,19.521016617790814
22.871109423173245,54,117,1,0.009000000000000001,22.85940854340785,11.700879765395896
22.881109423173246,64,79,1,0.009000000000000001,22.86346523940003,17.64418377321603
22.891109423173248,49,37,1,0.009000000000000001,22.86689632444402,24.21309872922776
22.90566336158942,38,47,0,0.009000000000000001,22.88301429023067,22.649071358748778
22.90110942317325,41,122,1,0.009000000000000001,22.890190557093092,10.918866080156402
22.91110942317325,58,105,1,0.009000000000000001,22.897531710563282,13.577712609970675
22.91566336158942,32,81,0,0.009000000000000001,22.8983319832903,17.331378299120235
22.921109423173252,58,63,1,0.009000000000000001,22.90096279560727,20.146627565982406
22.92566336158942,67,108,0,0.009000000000000001,22.912554857190596,13.10850439882698
22.931109423173254,88,109,1,0.009000000000000001,22.918157321511476,12.952101661779082
22.941109423173256,67,70,1,0.01260461234482027,22.922057614766608,19.05180840664712
22.935663361589423,69,109,0,0.014487289978503995,22.922711259927645,12.952101661779082
22.95176035045443,57,50,0,0.016579219827151243,22.929580487306822,22.179863147605083
22.955114548000832,65,82,1,0.009000000000000001,22.93793957243876,17.174975562072337
22.965114548000834,56,54,1,0.009000000000000001,22.94356029580142,21.55425219941349
22.97018170581793,29,63,0,0.009000000000000001,22.950035078251947,20.146627565982406
22.98018170581793,42,86,0,0.015685860779019744,22.96363234120405,16.549364613880744
22.975114548000835,80,123,1,0.013658197858090209,22.964352084657726,10.762463343108504
22.990290323398714,64,43,1,0.010579411734454603,22.967015641091773,23.27468230694037
22.997610440016842,46,103,0,0.009000000000000001,22.983719921932774,13.890518084066471
23.007610440016844,71,43,0,0.009000000000000001,22.984335757709903,23.27468230694037
23.002045225325887,60,80,1,0.009000000000000001,22.98455744428972,17.487781036168133
23.01204522532589,94,92,1,0.009000000000000001,22.996434277134295,15.610948191593351
23.017610440016846,38,59,0,0.009000000000000001,22.996838201502673,20.772238514174
23.02204522532589,25,81,1,0.009000000000000001,23.00471384702677,17.331378299120235
23.027610440016847,46,64,0,0.009000000000000001,23.007620215187913,19.990224828934508
23.03204522532589,56,63,1,0.009000000000000001,23.01189859775991,20.146627565982406
23.03761044001685,60,56,0,0.009000000000000001,23.016368993291533,21.241446725317694
23.042045225325893,43,117,1,0.009000000000000001,23.030344345560497,11.700879765395896
23.04761044001685,64,119,0,0.009000000000000001,23.03622236572555,11.3880742913001
23.057610440016852,56,82,0,0.009000000000000001,23.04043546445478,17.174975562072337
23.052045225325895,46,124,1,0.009000000000000001,23.041439164719833,10.606060606060606
23.062045225325896,81,90,1,0.009000000000000001,23.046121471660207,15.923753665689148
23.067610440016853,99,56,0,0.009700536428273092,23.046368993291537,21.241446725317694
23.078388813826045,36,48,0,0.009000000000000001,23.055896145204343,22.49266862170088
23.072045225325898,92,106,1,0.0194790838614485,23.058623915452976,13.421309872922777
23.088388813826047,77,86,0,0.009000000000000001,23.071839449212167,16.549364613880744
23.09368865183862,43,66,1,0.009000000000000001,23.07401123248378,19.67741935483871
23.09838881382605,86,72,0,0.009000000000000001,23.079649810893496,18.73900293255132
23.10368865183862,50,111,1,0.020841753988350812,23.091049355650938,12.639296187683286
23.11838881382605,51,48,0,0.010380694546276912,23.09589614520435,22.49266862170088
23.10838881382605,48,113,0,0.009000000000000001,23.096062323112463,12.32649071358749
23.126846156270123,74,102,1,0.009000000000000001,23.112799235449007,14.04692082111437
23.12992291887747,41,99,0,0.009000000000000001,23.11540678984521,14.516129032258064
23.136846156270124,100,61,1,0.009000000000000001,23.116386723230047,20.459433040078203
23.13992291887747,94,69,0,0.009000000000000001,23.120714707733775,19.208211143695017
23.156846156270127,63,37,1,0.009000000000000001,23.1326330575409,24.21309872922776
23.146846156270126,57,115,1,0.009000000000000001,23.134832471030634,12.013685239491693
23.149922918877472,65,103,0,0.009000000000000001,23.136032400793404,13.890518084066471
23.159922918877474,69,68,0,0.009000000000000001,23.14055830499673,19.364613880742915
23.169922918877475,70,95,0,0.009000000000000001,23.154781178897025,15.141739980449657
23.16684615627013,60,121,1,0.009000000000000001,23.155770887452924,11.0752688172043
23.17684615627013,48,63,1,0.009000000000000001,23.15669952870415,20.146627565982406
23.179922918877477,59,51,0,0.009000000000000001,23.157899458466918,22.023460410557185
23.186846156270132,28,75,1,0.009000000000000001,23.168576361548723,18.269794721407624
23.196846156270134,45,61,1,0.01378567977865878,23.176386723230056,20.459433040078203
23.18992291887748,49,119,0,0.009000000000000001,23.178534844586178,11.3880742913001
23.19992291887748,62,96,0,0.009000000000000001,23.184937581634077,14.985337243401759
23.20992291887748,98,86,0,0.014266557308040632,23.1933735542636,16.549364613880744
23.21216357824642,61,72,1,0.009000000000000001,23.19342457531387,18.73900293255132
23.232163578246425,45,45,1,0.009000000000000001,23.20920170141358,22.961876832844574
23.222163578246423,51,111,1,0.009000000000000001,23.20952428205874,12.639296187683286
23.225774649219748,73,100,0,0.009000000000000001,23.211414922924536,14.359726295210166
23.23577464921975,32,106,0,0.013509592254518168,23.222353339346828,13.421309872922777
23.242163578246426,55,70,1,0.009000000000000001,23.22311176983978,19.05180840664712
23.252163578246428,60,45,1,0.010817139273993338,23.229201701413583,22.961876832844574
23.250785307280324,62,60,0,0.025863135952635594,23.2301694715032,20.6158357771261
23.2641826218842,68,85,1,0.009000000000000001,23.24747685453327,16.705767350928642
23.2741826218842,79,109,1,0.009000000000000001,23.261230520222423,12.952101661779082
23.279522125005474,57,90,0,0.009000000000000001,23.263598371339786,15.923753665689148
23.284182621884202,34,71,1,0.009000000000000001,23.265287216214602,18.89540566959922
23.289522125005476,39,69,0,0.009000000000000001,23.27031391386178,19.208211143695017
23.294182621884204,74,77,1,0.010909179907978574,23.27622563263689,17.956989247311828
23.299522125005478,55,48,0,0.009000000000000001,23.277029456383776,22.49266862170088
23.30630393289307,64,71,1,0.009000000000000001,23.28740852722347,18.89540566959922
23.31630393289307,48,49,1,0.009000000000000001,23.293967667008417,22.33626588465298
23.30952212500548,56,95,0,0.009000000000000001,23.29438038502503,15.141739980449657
23.31952212500548,62,41,0,0.009000000000000001,23.295934637224445,23.587487781036167
23.336303932893074,31,55,1,0.01773623289924275,23.31490608343071,21.397849462365592
23.326303932893072,76,124,1,0.009000000000000001,23.31569787228701,10.606060606060606
23.329522125005482,60,115,0,0.03134292366348795,23.31750843976599,12.013685239491693
23.36434759574269,71,47,0,0.009000000000000001,23.34169852438394,22.649071358748778
23.356010858336678,55,121,1,0.009000000000000001,23.344935589519473,11.0752688172043
23.36601085833668,60,74,1,0.009000000000000001,23.347584660878223,18.426197458455523
23.37434759574269,56,104,0,0.009731643179006192,23.36061348039567,13.734115347018573
23.37601085833668,57,105,1,0.009000000000000001,23.362433145726712,13.577712609970675
23.386010858336682,40,72,1,0.009000000000000001,23.36727185540413,18.73900293255132
23.385160532608253,88,89,0,0.011465525085532152,23.369080376205517,16.080156402737046
23.396010858336684,67,49,1,0.009000000000000001,23.37367459245203,22.33626588465298
23.39790000492551,59,103,0,0.01072004261133389,23.384009486841443,13.890518084066471
23.406010858336685,56,118,1,0.009000000000000001,23.394466381308337,11.544477028347998
23.41981116338255,62,56,0,0.009000000000000001,23.398569716657235,21.241446725317694
23.40981116338255,31,122,0,0.009000000000000001,23.398892297302393,10.918866080156402
23.416010858336687,65,123,1,0.009000000000000001,23.405248394993578,10.762463343108504
23.429811163382553,94,56,0,0.013257454600832814,23.408569716657237,21.241446725317694
23.42601085833669,85,83,1,0.009000000000000001,23.408992285511665,17.01857282502444
23.43601085833669,59,56,1,0.009000000000000001,23.414769411611374,21.241446725317694
23.454541668494592,52,40,0,0.009000000000000001,23.430797777976508,23.743890518084065
23.44454166849459,47,108,0,0.009000000000000001,23.431433164095765,13.10850439882698
23.44601085833669,73,112,1,0.01094235857604794,23.433527964886057,12.482893450635387
23.4581690345323,69,38,1,0.009000000000000001,23.43411233854012,24.05669599217986
23.464541668494594,85,116,0,0.009000000000000001,23.45268438599215,11.857282502443795
23.474541668494595,58,68,0,0.009000000000000001,23.455177054613852,19.364613880742915
23.468169034532302,75,116,1,0.009199650097406949,23.45631175202986,11.857282502443795
23.478390867973864,71,91,1,0.012725586501507007,23.462623517045223,15.76735092864125
23.484541668494597,89,68,0,0.010235069784409058,23.465177054613854,19.364613880742915
23.492530408531096,25,51,1,0.009000000000000001,23.470506948120537,22.023460410557185
23.495913968255053,66,89,0,0.009000000000000001,23.479833811852316,16.080156402737046
23.505913968255054,50,83,0,0.029731265147032854,23.48889539543003,17.01857282502444
23.502530408531097,59,124,1,0.015047785970781985,23.491924347925035,10.606060606060606
23.519250170720856,74,90,1,0.009000000000000001,23.503326417055167,15.923753665689148
23.529250170720857,79,87,1,0.009000000000000001,23.512857208844025,16.392961876832846
23.538948707307313,87,114,0,0.009000000000000001,23.526778619330774,12.170087976539591
23.548948707307314,76,52,0,0.009000000000000001,23.527081649633804,21.867057673509287
23.53925017072086,63,123,1,0.009000000000000001,23.52848770737775,10.762463343108504
23.54925017072086,87,110,1,0.009000000000000001,23.53645447179613,12.795698924731184
23.559250170720862,21,70,1,0.009000000000000001,23.540198362314214,19.05180840664712
23.558948707307316,54,91,0,0.009000000000000001,23.543181356378675,15.76735092864125
23.568948707307317,67,46,0,0.009000000000000001,23.54614323321152,22.805474095796676
23.569250170720863,55,47,1,0.009000000000000001,23.546601099362114,22.649071358748778
23.579250170720865,85,87,1,0.009000000000000001,23.562857208844033,16.392961876832846
23.57894870730732,46,118,0,0.009000000000000001,23.56740423027897,11.544477028347998
23.599250170720868,60,43,1,0.010020503339952655,23.575975488413928,23.27468230694037
23.589250170720867,42,121,1,0.009000000000000001,23.57817490190366,11.0752688172043
23.58894870730732,84,123,0,0.009000000000000001,23.57818624396421,10.762463343108504
23.598948707307322,77,67,0,0.014829103152525669,23.57942769068953,19.521016617790814
23.610384063320815,76,81,1,0.009000000000000001,23.593052685021696,17.331378299120235
23.615425488587906,72,74,0,0.009000000000000001,23.59699929112945,18.426197458455523
23.620384063320817,92,96,1,0.009000000000000001,23.605398726077414,14.985337243401759
23.630384063320818,87,49,1,0.009000000000000001,23.608047797436164,22.33626588465298
23.625425488587908,81,107,0,0.009000000000000001,23.612160581452034,13.264907135874878
23.63542548858791,24,61,0,0.009000000000000001,23.614966055547832,20.459433040078203
23.64542548858791,53,65,0,0.009000000000000001,23.625591666496025,19.83382209188661
23.64038406332082,37,120,1,0.009000000000000001,23.629152391766567,11.231671554252198
23.65038406332082,36,73,1,0.009000000000000001,23.631801463125317,18.58260019550342
23.660384063320823,63,59,1,0.009000000000000001,23.63961182480665,20.772238514174
23.655425488587912,64,93,0,0.009000000000000001,23.639970943133367,15.454545454545453
23.665425488587914,60,55,0,0.009000000000000001,23.64402763912555,21.397849462365592
23.675425488587916,29,66,0,0.009000000000000001,23.655748069233077,19.67741935483871
23.670384063320824,47,119,1,0.009000000000000001,23.658995989029524,11.3880742913001
23.685425488587917,79,71,0,0.009000000000000001,23.666530082918317,18.89540566959922
23.680384063320826,70,106,1,0.009000000000000001,23.666962753447905,13.421309872922777
23.690384063320828,69,43,1,0.009000000000000001,23.667109381013887,23.27468230694037
23.69542548858792,104,90,0,0.01635022576245768,23.67950173492223,15.923753665689148
23.70038406332083,71,89,1,0.009820665992614589,23.684303906918093,16.080156402737046
23.711295914423733,72,61,1,0.009000000000000001,23.690836481383656,20.459433040078203
23.721295914423735,53,49,1,0.009000000000000001,23.69895964853908,22.33626588465298
23.71359240610176,33,99,0,0.009000000000000001,23.6990762770695,14.516129032258064
23.723592406101762,60,75,0,0.009000000000000001,23.705322611380353,18.269794721407624
23.731295914423736,42,94,1,0.009000000000000001,23.71599777170624,15.298142717497555
23.733592406101764,69,93,0,0.01266495713287683,23.718137860647218,15.454545454545453
23.75129591442374,47,50,1,0.009000000000000001,23.729116051276133,22.179863147605083
23.741295914423738,92,114,1,0.009000000000000001,23.7291258264472,12.170087976539591
23.74766458069385,57,100,0,0.009000000000000001,23.73330485439864,14.359726295210166
23.757664580693852,77,79,0,0.015329285430900928,23.740020396920634,17.64418377321603
23.76129591442374,47,72,1,0.009000000000000001,23.74255691149119,18.73900293255132
23.77469712006152,56,83,0,0.009000000000000001,23.757678547236498,17.01857282502444
23.771295914423742,39,123,1,0.009000000000000001,23.760533451080633,10.762463343108504
23.781295914423744,32,119,1,0.01285636411575929,23.769907840132444,11.3880742913001
23.794697120061524,51,40,0,0.009000000000000001,23.77095322954344,23.743890518084065
23.784697120061523,76,114,0,0.009000000000000001,23.772527032084984,12.170087976539591
23.795580763441254,43,48,1,0.009000000000000001,23.773088094819553,22.49266862170088
23.805580763441256,21,39,1,0.009000000000000001,23.781680470186124,23.900293255131963
23.804697120061526,47,112,0,0.009000000000000001,23.79221422661089,12.482893450635387
23.814697120061528,70,79,0,0.009000000000000001,23.79705293628831,17.64418377321603
23.815580763441258,67,78,1,0.011188184211251236,23.797780176930992,17.80058651026393
23.828012079231538,48,51,1,0.009000000000000001,23.80598861882098,22.023460410557185
23.82469712006153,41,77,0,0.009000000000000001,23.806740130814216,17.956989247311828
23.844697120061532,61,50,0,0.009000000000000001,23.822517256913926,22.179863147605083
23.83469712006153,61,120,0,0.009000000000000001,23.823465448507278,11.231671554252198
23.83801207923154,29,109,1,0.009000000000000001,23.82505997756976,12.952101661779082
23.858012079231543,64,44,1,0.009000000000000001,23.83489379966165,23.118279569892472
23.84801207923154,61,116,1,0.009000000000000001,23.836154796729097,11.857282502443795
23.854697120061534,79,92,0,0.009000000000000001,23.83908617186994,15.610948191593351
23.864697120061535,62,59,0,0.009000000000000001,23.843924881547363,20.772238514174
23.868012079231544,57,66,1,0.009000000000000001,23.848334659876706,19.67741935483871
23.874697120061537,51,51,0,0.009000000000000001,23.85267365965098,22.023460410557185
23.878012079231546,63,108,1,0.009000000000000001,23.86490357483272,13.10850439882698
23.88469712006154,53,100,0,0.009000000000000001,23.870337393766327,14.359726295210166
23.888012079231547,46,97,1,0.009000000000000001,23.873183144725193,14.82893450635386
23.89801207923155,41,53,1,0.009545761555764051,23.876301424295086,21.71065493646139
23.89469712006154,39,90,0,0.009000000000000001,23.87877336639585,15.923753665689148
23.90469712006154,62,49,0,0.010821237014778246,23.882360854176888,22.33626588465298
23.908618480960175,55,99,1,0.009000000000000001,23.894102351927916,14.516129032258064
23.916720716744628,72,73,0,0.009000000000000001,23.898138116549124,18.58260019550342
23.918618480960177,98,73,1,0.009000000000000001,23.900035880764673,18.58260019550342
23.92861848096018,66,40,1,0.009000000000000001,23.904874590442095,23.743890518084065
23.92672071674463,29,86,0,0.009000000000000001,23.91017135213075,16.549364613880744
23.93861848096018,85,46,1,0.009000000000000001,23.915813006864383,22.805474095796676
23.93672071674463,69,90,0,0.009000000000000001,23.920796963078942,15.923753665689148
23.946720716744633,77,46,0,0.009000000000000001,23.923915242648835,22.805474095796676
23.94861848096018,39,81,1,0.010420901697659928,23.931287102661063,17.331378299120235
23.956720716744634,48,55,0,0.009000000000000001,23.93532286728227,21.397849462365592
23.96019726062425,51,73,1,0.009000000000000001,23.941614660428744,18.58260019550342
23.966720716744636,64,38,0,0.009000000000000001,23.942664020752456,24.05669599217986
23.97019726062425,65,57,1,0.009000000000000001,23.94911221663598,21.085043988269796
23.98019726062425,63,91,1,0.009000000000000001,23.96442990969561,15.76735092864125
23.976720716744637,63,123,0,0.009000000000000001,23.965958253401528,10.762463343108504
23.990197260624253,53,44,1,0.009000000000000001,23.96707898105436,23.118279569892472
23.98672071674464,82,92,0,0.009000000000000001,23.971109768553045,15.610948191593351
23.99672071674464,47,81,0,0.01433672187527358,23.97938933844552,17.331378299120235
24.000197260624255,58,77,1,0.009000000000000001,23.98224027137694,17.956989247311828
24.010197260624256,76,58,1,0.009000000000000001,23.989268619373036,20.928641251221897
24.012650407717167,50,52,0,0.009000000000000001,23.990783350043657,21.867057673509287
24.02265040771717,38,53,0,0.009000000000000001,24.000939752780706,21.71065493646139
24.020197260624258,54,72,1,0.009000000000000001,24.001458257691706,18.73900293255132
24.03265040771717,65,95,0,0.009000000000000001,24.01750866773672,15.141739980449657
24.03019726062426,52,120,1,0.009000000000000001,24.018965589070007,11.231671554252198
24.042650407717172,39,92,0,0.009000000000000001,24.02703945952558,15.610948191593351
24.04019726062426,42,114,1,0.009000000000000001,24.02802717264772,12.170087976539591
24.050197260624262,73,90,1,0.009000000000000001,24.034273506958574,15.923753665689148
24.052650407717174,58,99,0,0.009000000000000001,24.038134278684915,14.516129032258064
24.062650407717175,54,40,0,0.009946133094558177,24.03890651719909,23.743890518084065
24.070197260624266,81,38,1,0.011314345502523014,24.046140564632086,24.05669599217986
24.060197260624264,52,118,1,0.009000000000000001,24.048652783595916,11.544477028347998
24.073701666711127,49,67,0,0.009000000000000001,24.054180650093336,19.521016617790814
24.082768755627068,54,119,1,0.009000000000000001,24.071380681335768,11.3880742913001
24.08370166671113,82,114,0,0.01302439161624474,24.07153157873459,12.170087976539591
24.09276875562707,72,83,1,0.009000000000000001,24.075750182802047,17.01857282502444
24.10276875562707,58,80,1,0.011441532898337417,24.085280974590905,17.487781036168133
24.0981732129514,36,112,0,0.009000000000000001,24.085690319500767,12.482893450635387
24.115481569958558,52,49,1,0.009371034957822627,24.093145304073904,22.33626588465298
24.108173212951403,46,120,0,0.009000000000000001,24.09694154139715,11.231671554252198
24.118173212951405,67,68,0,0.024105809187359408,24.09880859907066,19.364613880742915
24.125893831022804,66,83,1,0.009000000000000001,24.10887525819778,17.01857282502444
24.135893831022806,81,50,1,0.009000000000000001,24.1137139678752,22.179863147605083
24.145893831022807,85,83,1,0.009000000000000001,24.128875258197784,17.01857282502444
24.144957445381802,45,94,0,0.009000000000000001,24.129659302664304,15.298142717497555
24.154957445381804,88,56,0,0.009000000000000001,24.133715998656488,21.241446725317694
24.15589383102281,45,92,1,0.009000000000000001,24.140282882831215,15.610948191593351
24.164957445381805,78,54,0,0.009000000000000001,24.14340319318239,21.55425219941349
24.16589383102281,40,56,1,0.009000000000000001,24.144652384297494,21.241446725317694
24.17589383102281,48,62,1,0.009000000000000001,24.155590800719782,20.303030303030305
24.174957445381807,63,71,0,0.009000000000000001,24.156062039712207,18.89540566959922
24.185893831022813,78,56,1,0.009000000000000001,24.164652384297497,21.241446725317694
24.18495744538181,61,63,0,0.009000000000000001,24.164810817815827,20.146627565982406
24.19495744538181,68,74,0,0.009000000000000001,24.176531247923354,18.426197458455523
24.195893831022815,58,97,1,0.009000000000000001,24.18106489651646,14.82893450635386
24.20495744538181,48,63,0,0.01054996515331593,24.18481081781583,20.146627565982406
24.205893831022816,59,62,1,0.009000000000000001,24.185590800719787,20.303030303030305
24.215893831022818,28,78,1,0.009000000000000001,24.198093244512553,17.80058651026393
24.216679628885498,81,83,0,0.009000000000000001,24.199661056060474,17.01857282502444
24.2266796288855,76,44,0,0.009000000000000001,24.203561349315606,23.118279569892472
24.22589383102282,73,113,1,0.009000000000000001,24.213567340309233,12.32649071358749
24.23589383102282,80,64,1,0.009000000000000001,24.215903606193887,19.990224828934508
24.245893831022823,40,60,1,0.009000000000000001,24.225277995245698,20.6158357771261
24.2366796288855,46,122,0,0.012727493228466407,24.225760762805344,10.918866080156402
24.255893831022824,40,39,1,0.009000000000000001,24.231993537767693,23.900293255131963
24.25082128802824,64,86,0,0.0207495958792912,24.23427192341436,16.549364613880744
24.273876394560787,74,42,0,0.009000000000000001,24.2504453095168,23.43108504398827
24.265893831022826,66,106,1,0.009000000000000001,24.252472521149905,13.421309872922777
24.275893831022827,75,55,1,0.009000000000000001,24.254495981560463,21.397849462365592
24.28589383102283,35,88,1,0.009000000000000001,24.269657271883045,16.236559139784944
24.28387639456079,41,118,0,0.009000000000000001,24.27233191753244,11.544477028347998
24.29387639456079,50,63,0,0.009000000000000001,24.27372976699481,20.146627565982406
24.29589383102283,75,111,1,0.011259301514899029,24.283254534835148,12.639296187683286
24.303876394560792,61,64,0,0.009000000000000001,24.283886169731858,19.990224828934508
24.308404166039384,38,69,1,0.009000000000000001,24.28919595489569,19.208211143695017
24.313876394560793,64,43,0,0.009000000000000001,24.290601712253853,23.27468230694037
24.318404166039386,48,100,1,0.009000000000000001,24.304044439744175,14.359726295210166
24.323876394560795,58,113,0,0.009000000000000001,24.311549903847208,12.32649071358749
24.328404166039387,47,106,1,0.009000000000000001,24.314982856166466,13.421309872922777
24.343876394560798,21,46,0,0.009000000000000001,24.321070920465,22.805474095796676
24.333876394560797,67,122,0,0.009000000000000001,24.32295752848064,10.918866080156402
24.33840416603939,53,114,1,0.012302164248964659,24.32623407806285,12.170087976539591
24.352073237427128,56,66,1,0.009000000000000001,24.33239581807229,19.67741935483871
24.3538763945608,63,95,0,0.010947042448956279,24.33873465458035,15.141739980449657
24.36207323742713,81,72,1,0.009000000000000001,24.343334234494577,18.73900293255132
24.36603977505964,74,75,0,0.009000000000000001,24.34776998033823,18.269794721407624
24.37207323742713,70,38,1,0.009000000000000001,24.34801654143495,24.05669599217986
24.382073237427132,43,67,1,0.009000000000000001,24.36255222080934,19.521016617790814
24.376039775059642,61,110,0,0.009000000000000001,24.36324407613491,12.795698924731184
24.386039775059643,65,109,0,0.02360847475660898,24.373087673397865,12.952101661779082
24.392073237427134,58,102,1,0.009000000000000001,24.378026316606018,14.04692082111437
24.402073237427135,45,74,1,0.009000000000000001,24.38364703996868,18.426197458455523
24.412073237427137,63,47,1,0.009000000000000001,24.389424166068387,22.649071358748778
24.4122714136781,63,77,0,0.009000000000000001,24.394314424430785,17.956989247311828
24.4222714136781,75,57,0,0.011269526421379315,24.40118636968983,21.085043988269796
24.42207323742714,67,75,1,0.009000000000000001,24.40380344270573,18.269794721407624
24.43207323742714,56,108,1,0.009000000000000001,24.418964733028314,13.10850439882698
24.434793109701854,86,93,0,0.009000000000000001,24.419338564247308,15.454545454545453
24.444793109701855,79,47,0,0.009000000000000001,24.422144038343106,22.649071358748778
24.44207323742714,54,109,1,0.009000000000000001,24.429121135765364,12.952101661779082
24.452073237427143,24,96,1,0.009000000000000001,24.43708790018374,14.985337243401759
24.454793109701857,104,86,0,0.009000000000000001,24.438243745087977,16.549364613880744
24.462073237427145,59,99,1,0.009000000000000001,24.447557108394886,14.516129032258064
24.46479310970186,55,97,0,0.009000000000000001,24.449964175195504,14.82893450635386
24.472073237427146,49,62,1,0.009000000000000001,24.451770207124117,20.303030303030305
24.47479310970186,84,109,0,0.009000000000000001,24.461841008040082,12.952101661779082
24.482073237427148,60,92,1,0.009000000000000001,24.466462289235555,15.610948191593351
24.48479310970186,63,113,0,0.010468287696334627,24.472466618988275,12.32649071358749
24.49207323742715,22,88,1,0.009000000000000001,24.475836678287365,16.236559139784944
24.496424540475566,82,89,0,0.009000000000000001,24.48034438407283,16.080156402737046
24.50207323742715,33,64,1,0.009000000000000001,24.482083012598217,19.990224828934508
24.512073237427153,66,43,1,0.015533916980811677,24.488798555120212,23.27468230694037
24.506424540475567,55,112,0,0.009000000000000001,24.493941647024933,12.482893450635387
24.51642454047557,56,98,0,0.009000000000000001,24.501752008706262,14.672531769305962
24.52642454047557,65,43,0,0.009000000000000001,24.50314985816863,23.27468230694037
24.52933314518361,71,66,1,0.009000000000000001,24.50965572582877,19.67741935483871
24.539333145183612,83,44,1,0.009019646520886361,24.51621486561372,23.118279569892472
24.536424540475572,21,117,0,0.009000000000000001,24.524723660710176,11.700879765395896
24.549354974651262,81,56,1,0.009000000000000001,24.528113527925946,21.241446725317694
24.546424540475574,58,77,0,0.009000000000000001,24.52846755122826,17.956989247311828
24.556424540475575,77,51,0,0.009000000000000001,24.534401080065017,22.023460410557185
24.559354974651264,56,85,1,0.009000000000000001,24.542649207300336,16.705767350928642
24.57642454047558,37,47,0,0.013639333157523557,24.55377546911683,22.649071358748778
24.566424540475577,99,118,0,0.009000000000000001,24.55488006344723,11.544477028347998
24.569354974651265,77,109,1,0.009000000000000001,24.556402872989487,12.952101661779082
24.579354974651267,66,105,1,0.009000000000000001,24.565777262041298,13.577712609970675
24.58935497465127,48,48,1,0.009000000000000001,24.566862306029567,22.49266862170088
24.59157935509505,62,85,0,0.009000000000000001,24.574873587744122,16.705767350928642
24.60157935509505,73,68,0,0.009000000000000001,24.582214741214308,19.364613880742915
24.59935497465127,58,108,1,0.009000000000000001,24.586246470252444,13.10850439882698
24.60935497465127,85,89,1,0.009000000000000001,24.593274818248535,16.080156402737046
24.611579355095053,56,86,0,0.009000000000000001,24.595029990481173,16.549364613880744
24.621579355095054,86,48,0,0.009000000000000001,24.599086686473353,22.49266862170088
24.619354974651273,64,64,1,0.009000000000000001,24.59936474982234,19.990224828934508
24.629354974651275,50,57,1,0.009000000000000001,24.608269930663006,21.085043988269796
24.631579355095056,75,67,0,0.009000000000000001,24.612058338477265,19.521016617790814
24.639354974651276,75,56,1,0.009000000000000001,24.61811352792596,21.241446725317694
24.641579355095057,60,76,0,0.025162178779477223,24.623465963110696,18.113391984359726
24.649354974651278,47,52,1,0.009000000000000001,24.627487916977767,21.867057673509287
24.65935497465128,72,78,1,0.009000000000000001,24.641554388141014,17.80058651026393
24.6695373315167,59,43,0,0.009000000000000001,24.64626264920976,23.27468230694037
24.66935497465128,60,53,1,0.009000000000000001,24.647644319714818,21.71065493646139
24.679354974651282,62,57,1,0.009000000000000001,24.658269930663014,21.085043988269796
24.679537331516702,59,70,0,0.009000000000000001,24.660485523110054,19.05180840664712
24.699354974651285,65,40,1,0.009000000000000001,24.6756110841332,23.743890518084065
24.689537331516703,57,112,0,0.009000000000000001,24.67705443806607,12.482893450635387
24.689354974651284,50,119,1,0.009000000000000001,24.677966900359984,11.3880742913001
24.699537331516705,34,91,0,0.009000000000000001,24.683769980588064,15.76735092864125
24.709354974651287,57,77,1,0.009000000000000001,24.691397985403974,17.956989247311828
24.709537331516707,77,119,0,0.009000000000000001,24.698149257225406,11.3880742913001
24.719537331516708,69,90,0,0.009000000000000001,24.70361357785102,15.923753665689148
24.72935497465129,64,42,1,0.009000000000000001,24.705923889607302,23.43108504398827
24.71935497465129,40,112,1,0.009000000000000001,24.706872081200654,12.482893450635387
24.72953733151671,75,105,0,0.009000000000000001,24.71595961890674,13.577712609970675
24.73935497465129,72,112,1,0.014023429795920741,24.726872081200657,12.482893450635387
24.73953733151671,45,123,0,0.009000000000000001,24.728774868173602,10.762463343108504
24.749537331516713,70,67,0,0.02334420334243997,24.730016314898922,19.521016617790814
24.754936563313425,53,86,1,0.009000000000000001,24.738387198699545,16.549364613880744
24.764936563313427,21,65,1,0.009000000000000001,24.74510274122154,19.83382209188661
24.775475335230535,74,86,0,0.01216501358110277,24.758925970616655,16.549364613880744
24.774936563313428,70,121,1,0.009000000000000001,24.763861294496223,11.0752688172043
24.78493656331343,38,98,1,0.02162730698302459,24.770264031544123,14.672531769305962
24.788992016987315,57,74,0,0.009000000000000001,24.77056581952886,18.426197458455523
24.808992016987318,99,42,0,0.009000000000000001,24.78556093194333,23.43108504398827
24.798992016987317,65,116,0,0.009000000000000001,24.787134734484873,11.857282502443795
24.80896690440568,86,116,1,0.009000000000000001,24.797109621903235,11.857282502443795
24.81899201698732,78,65,0,0.009000000000000001,24.799158194895433,19.83382209188661
24.81896690440568,47,104,1,0.009000000000000001,24.80523278905866,13.734115347018573
24.82899201698732,35,49,0,0.009000000000000001,24.806655751102667,22.33626588465298
24.828966904405682,53,52,1,0.009000000000000001,24.80709984673217,21.867057673509287
24.838992016987323,70,104,0,0.009000000000000001,24.825257901640303,13.734115347018573
24.838966904405684,66,111,1,0.009000000000000001,24.826327608218,12.639296187683286
24.848966904405685,69,82,1,0.009000000000000001,24.831791928843614,17.174975562072337
24.848992016987324,38,109,0,0.01384994822946786,24.836039915325546,12.952101661779082
24.858966904405687,53,72,1,0.009000000000000001,24.840227901473135,18.73900293255132
24.8643808483534,44,57,0,0.009000000000000001,24.84329580436513,21.085043988269796
24.86896690440569,36,75,1,0.009841439219082614,24.85069710968428,18.269794721407624
24.8743808483534,85,57,0,0.018201615304837167,24.853295804365132,21.085043988269796
24.879901836871337,78,41,1,0.011954337670636942,24.8563143490903,23.587487781036167
24.893184434283157,54,58,1,0.009000000000000001,24.872255793031936,20.928641251221897
24.894604865358776,68,70,0,0.009000000000000001,24.87555305695213,19.05180840664712
24.90318443428316,72,88,1,0.009000000000000001,24.886947875143374,16.236559139784944
24.904604865358777,58,81,0,0.009000000000000001,24.88727348705966,17.331378299120235
24.91460486535878,21,82,0,0.009000000000000001,24.897429889796708,17.174975562072337
24.91318443428316,48,98,1,0.009000000000000001,24.898511902513853,14.672531769305962
24.92318443428316,34,103,1,0.009000000000000001,24.909293916199093,13.890518084066471
24.934604865358782,54,49,0,0.009000000000000001,24.912268599474128,22.33626588465298
24.933184434283163,65,60,1,0.009000000000000001,24.912568598506038,20.6158357771261
24.92460486535878,40,116,0,0.009000000000000001,24.912747582856337,11.857282502443795
24.944604865358784,48,66,0,0.01436156851005949,24.924927446003945,19.67741935483871
24.943184434283165,47,96,1,0.009000000000000001,24.928199097039762,14.985337243401759
24.953184434283166,56,56,1,0.009000000000000001,24.93194298755785,21.241446725317694
24.963184434283168,41,54,1,0.009000000000000001,24.941630182083752,21.55425219941349
24.960562163703294,98,110,0,0.009000000000000001,24.947766464778564,12.795698924731184
24.97318443428317,21,66,1,0.009000000000000001,24.95350701492833,19.67741935483871
24.970562163703296,52,88,0,0.009000000000000001,24.95432560456351,16.236559139784944
24.980562163703297,21,48,0,0.009000000000000001,24.958069495081595,22.49266862170088
24.9905621637033,58,64,0,0.009000000000000001,24.970571938874365,19.990224828934508
24.98318443428317,44,117,1,0.009000000000000001,24.971483554517775,11.700879765395896
24.993184434283172,67,112,1,0.009000000000000001,24.980701540832538,12.482893450635387
25.003184434283174,81,90,1,0.009000000000000001,24.987260680617485,15.923753665689148
25.0005621637033,25,114,0,0.009000000000000001,24.98839207572676,12.170087976539591
25.013184434283176,41,40,1,0.009000000000000001,24.98944054376509,23.743890518084065
25.0105621637033,50,75,0,0.009000000000000001,24.992292368981893,18.269794721407624
25.023184434283177,38,80,1,0.009000000000000001,25.00569665324701,17.487781036168133
25.020562163703303,71,120,0,0.009000000000000001,25.00933049214905,11.231671554252198
25.03318443428318,42,69,1,0.009000000000000001,25.013976223139483,19.208211143695017
25.030562163703305,61,88,0,0.009000000000000001,25.01432560456352,16.236559139784944
25.040562163703306,64,44,0,0.009000000000000001,25.017443884133414,23.118279569892472
25.04318443428318,47,108,1,0.009000000000000001,25.030075929884354,13.10850439882698
25.050562163703308,53,121,0,0.009000000000000001,25.039486894886103,11.0752688172043
25.05318443428318,52,105,1,0.009000000000000001,25.039606721673213,13.577712609970675
25.06056216370331,26,91,0,0.009000000000000001,25.04479481277467,15.76735092864125
25.07056216370331,62,39,0,0.009000000000000001,25.04666187044818,23.900293255131963
25.063184434283183,41,116,1,0.009000000000000001,25.05132715178074,11.857282502443795
25.073184434283185,63,107,1,0.009000000000000001,25.05991952714731,13.264907135874878
25.080562163703313,77,72,0,0.009000000000000001,25.06182316077076,18.73900293255132
25.090562163703314,42,43,0,0.018140948887916127,25.067287481396374,23.27468230694037
25.083184434283186,56,120,1,0.009000000000000001,25.071952762728934,11.231671554252198
25.093184434283188,21,67,1,0.009000000000000001,25.073663417665397,19.521016617790814
25.10318443428319,90,107,1,0.009000000000000001,25.089919527147316,13.264907135874878
25.11318443428319,35,83,1,0.009000000000000001,25.096165861458168,17.01857282502444
25.12071877357878,28,39,0,0.009000000000000001,25.09681848032365,23.900293255131963
25.11071877357878,54,104,0,0.009000000000000001,25.096984658231758,13.734115347018573
25.123184434283193,99,92,1,0.009000000000000001,25.1075734860916,15.610948191593351
25.133184434283194,57,74,1,0.009000000000000001,25.114758236824738,18.426197458455523
25.13071877357878,47,124,0,0.009000000000000001,25.12011271297272,10.606060606060606
25.140718773578783,68,68,0,0.009000000000000001,25.12135415969804,19.364613880742915
25.143184434283196,49,86,1,0.009000000000000001,25.126635069669316,16.549364613880744
25.153184434283197,50,63,1,0.009000000000000001,25.133037806717216,20.146627565982406
25.150718773578784,84,82,0,0.009000000000000001,25.133543798016714,17.174975562072337
25.160718773578786,90,98,0,0.009000000000000001,25.14604624180948,14.672531769305962
25.170718773578788,46,38,0,0.009000000000000001,25.14666207758661,24.05669599217986
25.1631844342832,58,101,1,0.009000000000000001,25.148981110725035,14.203323558162268
25.1731844342832,42,52,1,0.009000000000000001,25.15131737660969,21.867057673509287
25.18071877357879,41,49,0,0.009000000000000001,25.158382507694135,22.33626588465298
25.19071877357879,60,48,0,0.009000000000000001,25.16822610495709,22.49266862170088
25.183184434283202,86,117,1,0.009000000000000001,25.171483554517806,11.700879765395896
25.193184434283204,25,84,1,0.009000000000000001,25.17632226419523,16.86217008797654
25.200718773578792,44,78,0,0.021740563994204085,25.182918187068527,17.80058651026393
25.203184434283205,69,96,1,0.009000000000000001,25.188199097039803,14.985337243401759
25.22318443428321,67,46,1,0.009000000000000001,25.20037896018741,22.805474095796676
25.213184434283207,47,124,1,0.009000000000000001,25.202578373677145,10.606060606060606
25.224874955794576,49,78,0,0.009000000000000001,25.20707436928431,17.80058651026393
25.23318443428321,31,109,1,0.009000000000000001,25.220232332621432,12.952101661779082
25.234874955794577,59,104,0,0.009000000000000001,25.221140840447557,13.734115347018573
25.24318443428321,81,76,1,0.009000000000000001,25.22507104229885,18.113391984359726
25.24487495579458,70,76,0,0.014459741992542435,25.226761563810218,18.113391984359726
25.253184434283213,58,73,1,0.009000000000000001,25.23460183408771,18.58260019550342
25.260941335786292,44,72,0,0.009000000000000001,25.24220233285374,18.73900293255132
25.263184434283215,62,76,1,0.009000000000000001,25.245071042298854,18.113391984359726
25.270941335786294,51,104,0,0.009000000000000001,25.257207220439273,13.734115347018573
25.273184434283216,64,92,1,0.009000000000000001,25.257573486091623,15.610948191593351
25.280941335786295,53,77,0,0.009761295073239116,25.262984346538982,17.956989247311828
25.291787219201005,23,63,0,0.009000000000000001,25.271640591635023,20.146627565982406
25.283184434283218,39,123,1,0.009000000000000001,25.27242197094011,10.762463343108504
25.301787219201007,69,44,0,0.009000000000000001,25.278668939631114,23.118279569892472
25.29318443428322,38,101,1,0.009000000000000001,25.278981110725056,14.203323558162268
25.313184434283222,70,44,1,0.009000000000000001,25.29006615471333,23.118279569892472
25.30318443428322,36,117,1,0.009000000000000001,25.291483554517825,11.700879765395896
25.31178721920101,71,75,0,0.009000000000000001,25.2935174244796,18.269794721407624
25.323184434283224,68,88,1,0.009000000000000001,25.30694787514344,16.236559139784944
25.32178721920101,33,113,0,0.015039221424266799,25.309460728487423,12.32649071358749
25.333184434283226,25,120,1,0.009000000000000001,25.321952762728973,11.231671554252198
25.338497465227974,47,106,0,0.009000000000000001,25.325076155355053,13.421309872922777
25.343184434283227,53,101,1,0.009000000000000001,25.328981110725064,14.203323558162268
25.348497465227975,48,92,0,0.01603482621655684,25.332886517036382,15.610948191593351
25.35318443428323,79,103,1,0.023727085901136282,25.33929391619916,13.890518084066471
25.366313938801927,35,102,0,0.009000000000000001,25.35226701798081,14.04692082111437
25.379547863062268,59,85,1,0.009000000000000001,25.36284209571134,16.705767350928642
25.37631393880193,48,123,0,0.010707815254802706,25.36555147545882,10.762463343108504
25.388211511307265,53,73,0,0.009000000000000001,25.36962891111176,18.58260019550342
25.38954786306227,52,69,1,0.009000000000000001,25.370339651918574,19.208211143695017
25.39954786306227,31,40,1,0.009000000000000001,25.375803972544187,23.743890518084065
25.398211511307267,75,80,0,0.009000000000000001,25.3807237302711,17.487781036168133
25.408211511307268,74,37,0,0.009000000000000001,25.38399841257804,24.21309872922776
25.409547863062272,95,77,1,0.009000000000000001,25.39159087381496,17.956989247311828
25.41821151130727,30,58,0,0.009000000000000001,25.39728287005605,20.928641251221897
25.419547863062274,94,70,1,0.009000000000000001,25.400496054655626,19.05180840664712
25.42821151130727,106,42,0,0.009000000000000001,25.404780426263283,23.43108504398827
25.429547863062275,52,116,1,0.009000000000000001,25.41769058055983,11.857282502443795
25.438211511307273,57,78,0,0.009000000000000001,25.420410924797007,17.80058651026393
25.439547863062277,35,83,1,0.009000000000000001,25.422529290237254,17.01857282502444
25.448211511307274,51,39,0,0.009000000000000001,25.424311218052143,23.900293255131963
25.44954786306228,58,88,1,0.009000000000000001,25.433311303922494,16.236559139784944
25.45954786306228,21,92,1,0.009000000000000001,25.443936914870687,15.610948191593351
25.458211511307276,58,108,0,0.015567073139109796,25.44510300690845,13.10850439882698
25.46954786306228,65,92,1,0.009000000000000001,25.453936914870688,15.610948191593351
25.47550825923962,28,70,0,0.01703582154912875,25.456456450832974,19.05180840664712
25.479547863062283,24,88,1,0.009000000000000001,25.4633113039225,16.236559139784944
25.489547863062285,70,83,1,0.013514649276828453,25.47252929023726,17.01857282502444
25.494436949849764,64,82,0,0.014593665893232362,25.477261974287693,17.174975562072337
25.50456414003654,89,84,1,0.009000000000000001,25.487701969948564,16.86217008797654
25.51456414003654,29,62,1,0.009000000000000001,25.49426110973351,20.303030303030305
25.510652134175576,39,96,0,0.009000000000000001,25.495666796932174,14.985337243401759
25.520652134175577,56,75,0,0.009000000000000001,25.50238233945417,18.269794721407624
25.524564140036542,97,113,1,0.009000000000000001,25.512237649322955,12.32649071358749
25.53065213417558,45,82,0,0.011258145692144676,25.513477158613508,17.174975562072337
25.534564140036544,76,64,1,0.009056554959851693,25.51457391520761,19.990224828934508
25.54316118494463,84,122,0,0.013446383031371054,25.532242318864473,10.918866080156402
25.544626978880824,89,116,1,0.009000000000000001,25.53276969637838,11.857282502443795
25.554626978880826,82,70,1,0.009000000000000001,25.53557517047418,19.05180840664712
25.558101610535044,61,76,0,0.009000000000000001,25.539988218550683,18.113391984359726
25.564626978880828,79,109,1,0.009000000000000001,25.55167487721905,12.952101661779082
25.568101610535045,44,101,0,0.009000000000000001,25.55389828697688,14.203323558162268
25.58462697888083,42,44,1,0.009000000000000001,25.561508699310938,23.118279569892472
25.57462697888083,55,116,1,0.009000000000000001,25.562769696378385,11.857282502443795
25.578101610535047,29,95,0,0.009000000000000001,25.562959870554597,15.141739980449657
25.58810161053505,51,47,0,0.009000000000000001,25.5654525391763,22.649071358748778
25.59810161053505,52,41,0,0.009000000000000001,25.574514122754014,23.587487781036167
25.594626978880832,47,110,1,0.009000000000000001,25.581831279956102,12.795698924731184
25.604626978880834,40,48,1,0.009000000000000001,25.582134310259132,22.49266862170088
25.60810161053505,65,56,0,0.009000000000000001,25.586860163809735,21.241446725317694
25.614626978880835,59,64,1,0.009000000000000001,25.5946367540519,19.990224828934508
25.624626978880837,97,46,1,0.010214489775204817,25.60182150478504,22.805474095796676
25.618101610535053,58,97,0,0.009000000000000001,25.6032726760287,14.82893450635386
25.635976411964396,47,68,1,0.009000000000000001,25.616611798083653,19.364613880742915
25.628101610535055,44,120,0,0.011245704633827182,25.616869938980802,11.231671554252198
25.640596837905974,59,57,0,0.009000000000000001,25.619511793917706,21.085043988269796
25.645976411964398,71,57,1,0.009000000000000001,25.62489136797613,21.085043988269796
25.650596837905976,42,59,0,0.009000000000000001,25.629824599391803,20.772238514174
25.6559764119644,51,82,1,0.009000000000000001,25.63880143640233,17.174975562072337
25.660596837905977,66,58,0,0.010590876448598774,25.639668196654757,20.928641251221897
25.6659764119644,44,80,1,0.01092283660004985,25.648488630928234,17.487781036168133
25.678112897075568,21,50,1,0.009000000000000001,25.655933033927962,22.179863147605083
25.672364478404422,57,113,0,0.009000000000000001,25.660037987690835,12.32649071358749
25.682364478404423,46,98,0,0.009000000000000001,25.667691946635117,14.672531769305962
25.68811289707557,57,79,1,0.009000000000000001,25.670468713302352,17.64418377321603
25.692364478404425,43,75,0,0.009000000000000001,25.674094683683016,18.269794721407624
25.702364478404427,61,82,0,0.009000000000000001,25.685189502842356,17.174975562072337
25.69811289707557,65,123,1,0.009000000000000001,25.687350433732462,10.762463343108504
25.708112897075573,93,80,1,0.009000000000000001,25.690625116039406,17.487781036168133
25.712364478404428,59,96,0,0.009000000000000001,25.697379141161026,14.985337243401759
25.718112897075574,66,65,1,0.009000000000000001,25.698279074983688,19.83382209188661
25.72236447840443,52,84,0,0.009000000000000001,25.705502308316454,16.86217008797654
25.73236447840443,63,51,0,0.010424756189674611,25.710341017993873,22.023460410557185
25.728112897075576,63,106,1,0.009000000000000001,25.714691587202655,13.421309872922777
25.738112897075577,69,96,1,0.014278301461004079,25.723127559832175,14.985337243401759
25.743947540837404,56,115,0,0.009000000000000001,25.731933855597912,12.013685239491693
25.763977676476696,50,39,1,0.009000000000000001,25.740077383221564,23.900293255131963
25.753977676476694,72,104,1,0.009000000000000001,25.740243561129674,13.734115347018573
25.753947540837405,41,107,0,0.009000000000000001,25.74068263370153,13.264907135874878
25.763947540837407,66,77,0,0.009000000000000001,25.745990551590094,17.956989247311828
25.77394754083741,67,74,0,0.009000000000000001,25.755521343378952,18.426197458455523
25.7839776764767,63,43,1,0.015478650161783146,25.76070299416976,23.27468230694037
25.773977676476697,55,117,1,0.009000000000000001,25.7622767967113,11.700879765395896
25.78394754083741,95,102,0,0.009000000000000001,25.769900620016294,14.04692082111437
25.80117617665646,94,54,1,0.015770055112872015,25.779621924457043,21.55425219941349
25.804062562672993,33,40,0,0.009000000000000001,25.78031867215491,23.743890518084065
25.79394754083741,58,122,0,0.009103519652023556,25.783028674757254,10.918866080156402
25.814062562672994,53,81,0,0.009000000000000001,25.796731184373876,17.331378299120235
25.818698460115204,80,78,1,0.009000000000000001,25.80089787360494,17.80058651026393
25.824062562672996,21,71,0,0.009000000000000001,25.805167157003396,18.89540566959922
25.828698460115206,21,78,1,0.009000000000000001,25.81089787360494,17.80058651026393
25.838698460115207,33,77,1,0.009000000000000001,25.820741470867894,17.956989247311828
25.834062562672997,100,112,0,0.011604108252297947,25.821579669222363,12.482893450635387
25.84869846011521,67,46,1,0.009000000000000001,25.82589298601941,22.805474095796676
25.84695601628666,72,93,0,0.009000000000000001,25.831501470832116,15.454545454545453
25.856956016286663,70,47,0,0.010338549700544366,25.834306944927913,22.649071358748778
25.85869846011521,74,67,1,0.009000000000000001,25.83917744349742,19.521016617790814
25.868443293731712,87,69,0,0.009000000000000001,25.849235082588017,19.208211143695017
25.868698460115212,39,83,1,0.009000000000000001,25.85167988729019,17.01857282502444
25.878698460115213,76,49,1,0.0172401159606397,25.85636219423056,22.33626588465298
25.878443293731713,81,58,0,0.014585970434511925,25.857514652480493,20.928641251221897
25.897854144515925,42,72,1,0.0356590296306898,25.879115141583373,18.73900293255132
25.89464992754784,73,96,0,0.009000000000000001,25.879664590304436,14.985337243401759
25.90464992754784,54,82,0,0.009000000000000001,25.88747495198577,17.174975562072337
25.914649927547842,63,57,0,0.009000000000000001,25.893564883559574,21.085043988269796
25.924649927547843,23,117,0,0.009000000000000001,25.912949047782448,11.700879765395896
25.934649927547845,64,101,0,0.009000000000000001,25.92044660398968,14.203323558162268
25.947475288550027,61,43,1,0.009000000000000001,25.924200606243087,23.27468230694037
25.937475288550026,78,108,1,0.009000000000000001,25.9243667841512,13.10850439882698
25.944649927547847,43,85,0,0.009000000000000001,25.92794416019692,16.705767350928642
25.95747528855003,93,38,1,0.018703929126429274,25.93341859255785,24.05669599217986
25.954649927547848,108,109,0,0.009000000000000001,25.94169782588607,12.952101661779082
25.96464992754785,76,108,0,0.009279331011407162,25.951541423149024,13.10850439882698
25.978257432023838,32,66,1,0.009000000000000001,25.958580012669,19.67741935483871
25.974960295338303,42,107,0,0.011055598576116746,25.96169538820243,13.264907135874878
25.98825743202384,105,56,1,0.009000000000000001,25.967015985298524,21.241446725317694
25.98724429375621,77,114,0,0.009000000000000001,25.97507420577967,12.170087976539591
25.99724429375621,59,61,0,0.009000000000000001,25.976784860716133,20.459433040078203
25.99825743202384,40,95,1,0.009000000000000001,25.98311569204339,15.141739980449657
26.007244293756212,74,48,0,0.009000000000000001,25.98475162513451,22.49266862170088
26.008257432023843,53,116,1,0.009000000000000001,25.9964001495214,11.857282502443795
26.018257432023844,70,92,1,0.009000000000000001,26.00264648383225,15.610948191593351
26.017244293756214,65,122,0,0.014658622513678044,26.006325427676057,10.918866080156402
26.033531652104745,64,62,0,0.009000000000000001,26.013228621801716,20.303030303030305
26.028257432023846,57,121,1,0.009000000000000001,26.01718216320664,11.0752688172043
26.038257432023848,52,105,1,0.009111224248954,26.02467971941388,13.577712609970675
26.043531652104747,52,100,0,0.009000000000000001,26.029171925809536,14.359726295210166
26.048381014522686,40,110,1,0.009000000000000001,26.035585315597956,12.795698924731184
26.058381014522688,21,74,1,0.009000000000000001,26.03995481706423,18.426197458455523
26.06353165210475,48,48,0,0.009000000000000001,26.04103898348305,22.49266862170088
26.05353165210475,45,116,0,0.009000000000000001,26.041674369602305,11.857282502443795
26.06838101452269,29,47,1,0.009000000000000001,26.04573194316394,22.649071358748778
26.07353165210475,21,40,0,0.009000000000000001,26.049787761586668,23.743890518084065
26.083531652104753,63,60,0,0.009000000000000001,26.062915816327628,20.6158357771261
26.07838101452269,21,101,1,0.009000000000000001,26.064177690964527,14.203323558162268
26.093531652104755,68,46,0,0.014949739332938437,26.070726178008957,22.805474095796676
26.088381014522692,56,90,1,0.009000000000000001,26.072457260857004,15.923753665689148
26.098381014522694,43,62,1,0.009000000000000001,26.078077984219664,20.303030303030305
26.108381014522696,69,70,1,0.009000000000000001,26.089329206116048,19.05180840664712
26.110142473585796,90,100,0,0.009000000000000001,26.095782747290585,14.359726295210166
26.120142473585798,45,77,0,0.009000000000000001,26.102185484338484,17.956989247311828
26.118381014522697,41,90,1,0.009000000000000001,26.10245726085701,15.923753665689148
26.1301424735858,32,65,0,0.009000000000000001,26.110308651493913,19.83382209188661
26.1283810145227,66,92,1,0.009000000000000001,26.112770066331105,15.610948191593351
26.1401424735858,68,97,0,0.009000000000000001,26.125313539079446,14.82893450635386
26.1383810145227,58,116,1,0.009000000000000001,26.126523732020257,11.857282502443795
26.148381014522702,77,66,1,0.009000000000000001,26.128703595167863,19.67741935483871
26.150142473585802,42,92,0,0.009000000000000001,26.13453152539421,15.610948191593351
26.158381014522703,48,58,1,0.009000000000000001,26.137452373271483,20.928641251221897
26.160142473585804,41,94,0,0.009000000000000001,26.144844330868306,15.298142717497555
26.170142473585805,65,52,0,0.009000000000000001,26.148275415912295,21.867057673509287
26.168381014522705,58,76,1,0.009000000000000001,26.150267622538344,18.113391984359726
26.178381014522706,44,56,1,0.009000000000000001,26.15713956779739,21.241446725317694
26.180142473585807,53,47,0,0.009000000000000001,26.157493402227058,22.649071358748778
26.188381014522708,52,70,1,0.009000000000000001,26.16932920611606,19.05180840664712
26.19014247358581,57,75,0,0.009000000000000001,26.1718726788644,18.269794721407624
26.19838101452271,63,63,1,0.016598256327770337,26.178234386956728,20.146627565982406
26.20014247358581,73,58,0,0.009000000000000001,26.17921383233459,20.928641251221897
26.21014247358581,72,68,0,0.009000000000000001,26.19077785970507,19.364613880742915
26.216823521553565,53,63,1,0.009000000000000001,26.196676893987583,20.146627565982406
26.220142473585813,60,49,0,0.009000000000000001,26.19780620770116,22.33626588465298
26.230142473585815,101,58,0,0.009000000000000001,26.209213832334594,20.928641251221897
26.226823521553566,71,110,1,0.009000000000000001,26.214027822628836,12.795698924731184
26.236823521553568,53,65,1,0.009000000000000001,26.21698969946168,19.83382209188661
26.240142473585816,42,89,0,0.013199312319223232,26.22406231718308,16.080156402737046
26.24682352155357,53,73,1,0.009000000000000001,26.228240921358065,18.58260019550342
26.25682352155357,53,66,1,0.009000000000000001,26.237146102198732,19.67741935483871
26.25480837616273,50,81,0,0.009000000000000001,26.237476997863613,17.331378299120235
26.264808376162733,40,94,0,0.009000000000000001,26.249510233445235,15.298142717497555
26.266823521553572,30,91,1,0.009000000000000001,26.25105617062493,15.76735092864125
26.276823521553574,21,72,1,0.009000000000000001,26.258084518621022,18.73900293255132
26.274808376162735,86,93,0,0.012720985541312221,26.25935383070819,15.454545454545453
26.28894280454197,64,68,0,0.009000000000000001,26.26957819066123,19.364613880742915
26.286823521553575,58,122,1,0.009000000000000001,26.27590465547342,10.918866080156402
26.298942804541973,79,53,0,0.013277880884639845,26.27723214960551,21.71065493646139
26.296823521553577,46,107,1,0.009000000000000001,26.283558614417704,13.264907135874878
26.313696005524907,64,46,0,0.013314623036666,26.29089053142911,22.805474095796676
26.30682352155358,108,109,1,0.009000000000000001,26.2938714198918,12.952101661779082
26.31682352155358,72,84,1,0.009000000000000001,26.299961351465605,16.86217008797654
26.32682352155358,54,38,1,0.009000000000000001,26.302766825561402,24.05669599217986
26.336823521553583,54,44,1,0.009000000000000001,26.31370524198369,23.118279569892472
26.328490031121202,58,108,0,0.016266127226016877,26.315381526722376,13.10850439882698
26.346823521553585,56,78,1,0.009000000000000001,26.32902293504332,17.80058651026393
26.346563505816775,69,119,0,0.009000000000000001,26.335175431525474,11.3880742913001
26.356823521553586,59,83,1,0.009000000000000001,26.339804948728563,17.01857282502444
26.356563505816776,78,92,0,0.009000000000000001,26.340952557625183,15.610948191593351
26.366563505816778,54,48,0,0.009000000000000001,26.344070837195076,22.49266862170088
26.366823521553588,73,76,1,0.009000000000000001,26.348710129569227,18.113391984359726
26.37656350581678,49,103,0,0.009000000000000001,26.36267298773271,13.890518084066471
26.37682352155359,46,104,1,0.01056494556797923,26.36308940620657,13.734115347018573
26.388562349962456,48,90,1,0.009000000000000001,26.372638596296767,15.923753665689148
26.38656350581678,53,106,0,0.013595170531728913,26.37314219594386,13.421309872922777
26.398562349962457,67,92,1,0.009000000000000001,26.382951401770864,15.610948191593351
26.401669250852034,97,86,0,0.009000000000000001,26.385119886238154,16.549364613880744
26.40856234996246,63,93,1,0.009000000000000001,26.393107804507913,15.454545454545453
26.411669250852036,75,119,0,0.009069087215083357,26.400281176560735,11.3880742913001
26.41856234996246,82,85,1,0.009000000000000001,26.401856582611533,16.705767350928642
26.42174601442435,52,82,0,0.009000000000000001,26.40457103886228,17.174975562072337
26.428562349962462,36,65,1,0.015799844467666888,26.408728527870576,19.83382209188661
26.431746014424352,92,116,0,0.017934138785493183,26.41988873192191,11.857282502443795
26.446117732704312,39,37,1,0.009000000000000001,26.421904633975085,24.21309872922776
26.45167283529712,69,76,0,0.009000000000000001,26.43355944331276,18.113391984359726
26.456117732704314,56,85,1,0.011653881913168133,26.439411965353386,16.705767350928642
26.461672835297122,60,56,0,0.011320916048509487,26.440431388571806,21.241446725317694
26.46906649038561,38,77,1,0.009413763288555949,26.451109501138298,17.956989247311828
26.474251630906576,47,81,0,0.009000000000000001,26.456920252607457,17.331378299120235
26.479526227372894,55,82,1,0.009000000000000001,26.462351251810823,17.174975562072337
26.489526227372895,69,43,1,0.009000000000000001,26.466251545065955,23.27468230694037
26.484251630906577,85,89,0,0.009000000000000001,26.46817147450384,16.080156402737046
26.499526227372897,52,62,1,0.013866358393063214,26.479223197069867,20.303030303030305
26.49425163090658,108,121,0,0.009000000000000001,26.483176362089374,11.0752688172043
26.50425163090658,38,76,0,0.009000000000000001,26.48613823892222,18.113391984359726
26.514933292254078,58,74,1,0.009000000000000001,26.49650709479562,18.426197458455523
26.514251630906582,56,111,0,0.009000000000000001,26.5016123347189,12.639296187683286
26.524251630906583,78,57,0,0.009000000000000001,26.503166586918315,21.085043988269796
26.52493329225408,51,71,1,0.009000000000000001,26.50603788658448,18.89540566959922
26.534251630906585,56,38,0,0.009000000000000001,26.510194934914406,24.05669599217986
26.53493329225408,65,66,1,0.009000000000000001,26.515255872899242,19.67741935483871
26.544251630906587,50,93,0,0.010994292142471601,26.52879708545204,15.454545454545453
26.544933292254083,86,92,1,0.010992963497331292,26.52932234406249,15.610948191593351
26.557147696140007,61,55,1,0.009000000000000001,26.535749846677643,21.397849462365592
26.556467511064888,92,119,0,0.009000000000000001,26.545079436773587,11.3880742913001
26.567147696140008,71,57,1,0.009000000000000001,26.54606265215174,21.085043988269796
26.56646751106489,64,75,0,0.009000000000000001,26.54819771634348,18.269794721407624
26.57646751106489,60,85,0,0.009000000000000001,26.559761743713963,16.705767350928642
26.57714769614001,25,101,1,0.009000000000000001,26.562944372581846,14.203323558162268
26.58714769614001,64,57,1,0.009000000000000001,26.566062652151743,21.085043988269796
26.586467511064892,55,101,0,0.013132732976435779,26.57226418750673,14.203323558162268
26.597147696140013,71,114,1,0.009000000000000001,26.584977608163474,12.170087976539591
26.601059436594266,56,109,0,0.010614650039360667,26.588107334932488,12.952101661779082
26.607147696140014,67,107,1,0.009000000000000001,26.59388278900414,13.264907135874878
26.612853492193555,52,75,0,0.009000000000000001,26.594583697472146,18.269794721407624
26.617147696140016,81,55,1,0.009000000000000001,26.595749846677652,21.397849462365592
26.622853492193556,57,74,0,0.009000000000000001,26.6044272947351,18.426197458455523
26.627147696140018,53,57,1,0.009000000000000001,26.60606265215175,21.085043988269796
26.63714769614002,65,37,1,0.009000000000000001,26.612934597410792,24.21309872922776
26.632853492193558,43,113,0,0.009000000000000001,26.62052700147997,12.32649071358749
26.64285349219356,66,67,0,0.009000000000000001,26.62333247557577,19.521016617790814
26.64714769614002,66,81,1,0.009000000000000001,26.629816317840902,17.331378299120235
26.657147696140022,39,47,1,0.009000000000000001,26.634498624781273,22.649071358748778
26.65285349219356,54,122,0,0.009000000000000001,26.641934626113404,10.918866080156402
26.667147696140024,32,90,1,0.009000000000000001,26.651223942474335,15.923753665689148
26.662853492193562,68,118,0,0.010991678349805903,26.651309015165214,11.544477028347998
26.675066468137793,62,112,0,0.01442747918392182,26.662583574687158,12.482893450635387
26.677147696140025,68,109,1,0.009000000000000001,26.664195594478247,12.952101661779082
26.691097000564373,64,55,0,0.009000000000000001,26.66969915110201,21.397849462365592
26.687147696140027,43,91,1,0.009000000000000001,26.671380345211386,15.76735092864125
26.69714769614003,99,59,1,0.009437391503212723,26.676375457625856,20.772238514174
26.701097000564374,64,92,0,0.009000000000000001,26.68548605237278,15.610948191593351
26.707633686699154,84,86,1,0.009000000000000001,26.691084322085274,16.549364613880744
26.717633686699156,57,42,1,0.009000000000000001,26.694202601655167,23.43108504398827
26.711097000564376,87,116,0,0.009000000000000001,26.699239718061932,11.857282502443795
26.721097000564377,47,76,0,0.009000000000000001,26.702983608580016,18.113391984359726
26.727633686699157,48,70,1,0.009000000000000001,26.70858187829251,19.05180840664712
26.73109700056438,71,58,0,0.009000000000000001,26.71016835931316,20.928641251221897
26.74763368669916,93,41,1,0.009000000000000001,26.724046198918124,23.587487781036167
26.73763368669916,77,106,1,0.009000000000000001,26.724212376826237,13.421309872922777
26.74109700056438,21,86,0,0.009000000000000001,26.7245476359505,16.549364613880744
26.751097000564382,89,57,0,0.009000000000000001,26.730011956576114,21.085043988269796
26.761097000564384,45,46,0,0.009000000000000001,26.738291526468586,22.805474095796676
26.75763368669916,87,121,1,0.009000000000000001,26.746558417881957,11.0752688172043
26.767633686699163,75,90,1,0.009000000000000001,26.751709933033474,15.923753665689148
26.777633686699165,65,49,1,0.009000000000000001,26.75529742081451,22.33626588465298
26.771097000564385,46,110,0,0.009781764629377783,26.758301301639655,12.795698924731184
26.78196562793036,27,56,0,0.009000000000000001,26.760724181205045,21.241446725317694
26.787633686699166,60,49,1,0.009000000000000001,26.765297420814512,22.33626588465298
26.791965627930363,88,103,0,0.009000000000000001,26.778075109846295,13.890518084066471
26.797633686699168,55,104,1,0.009964742810618455,26.783899571352148,13.734115347018573
26.801965627930365,54,96,0,0.025295384532491902,26.786980290686962,14.985337243401759
26.80870562315541,50,109,1,0.009000000000000001,26.795753521493634,12.952101661779082
26.818705623155413,59,115,1,0.009000000000000001,26.80669193791592,12.013685239491693
26.828705623155415,50,95,1,0.009000000000000001,26.813563883174965,15.141739980449657
26.830071610744245,58,87,0,0.009000000000000001,26.813678648867413,16.392961876832846
26.838705623155416,29,78,1,0.009000000000000001,26.82090503664515,17.80058651026393
26.840071610744246,52,82,0,0.009000000000000001,26.822896635182175,17.174975562072337
26.848705623155418,54,58,1,0.009000000000000001,26.827776981904197,20.928641251221897
26.850071610744248,55,88,0,0.009000000000000001,26.833835051604463,16.236559139784944
26.85870562315542,68,55,1,0.009000000000000001,26.837307773693055,21.397849462365592
26.86007161074425,71,100,0,0.011216967569849847,26.845711884449038,14.359726295210166
26.872534908044084,51,51,0,0.009000000000000001,26.850511447633526,22.023460410557185
26.86870562315542,62,105,1,0.009000000000000001,26.855127910545452,13.577712609970675
26.878705623155422,39,87,1,0.009000000000000001,26.86231266127859,16.392961876832846
26.888705623155424,46,71,1,0.009000000000000001,26.869810217485824,18.89540566959922
26.882534908044086,75,115,0,0.009561858076731732,26.870521222804594,12.013685239491693
26.898705623155426,49,59,1,0.009000000000000001,26.877933384641253,20.772238514174
26.89315919479601,32,96,0,0.04813836469581536,26.878173857552607,14.985337243401759
26.908705623155427,44,52,1,0.009000000000000001,26.886838565481916,21.867057673509287
26.91870562315543,28,76,1,0.009000000000000001,26.900592231171068,18.113391984359726
26.92870562315543,59,66,1,0.009000000000000001,26.90902820380059,19.67741935483871
26.938705623155432,65,96,1,0.009000000000000001,26.92372028591203,14.985337243401759
26.946646266680247,38,80,0,0.009000000000000001,26.92915848564408,17.487781036168133
26.948705623155433,37,89,1,0.009000000000000001,26.932625466752697,16.080156402737046
26.958705623155435,71,61,1,0.0226982711634064,26.938246190115358,20.459433040078203
26.95664626668025,55,97,0,0.009000000000000001,26.941817332173894,14.82893450635386
26.96664626668025,52,102,0,0.009000000000000001,26.952599345859134,14.04692082111437
26.976646266680252,57,57,0,0.009000000000000001,26.955561222691983,21.085043988269796
26.98392592444811,95,85,1,0.009000000000000001,26.96722015709718,16.705767350928642
26.986646266680253,49,89,0,0.010237184817895373,26.970566110277517,16.080156402737046
26.99392592444811,56,82,1,0.009000000000000001,26.97675094888604,17.174975562072337
26.998020916477916,50,89,0,0.009000000000000001,26.98194076007518,16.080156402737046
27.008020916477918,59,43,0,0.009000000000000001,26.984746234170977,23.27468230694037
27.00392592444811,64,87,1,0.009000000000000001,26.98753296257128,16.392961876832846
27.013925924448113,30,100,1,0.009000000000000001,26.999566198152902,14.359726295210166
27.01802091647792,37,82,0,0.0234644749873211,27.00084594091585,17.174975562072337
27.033925924448116,51,46,1,0.009000000000000001,27.01112045035232,22.805474095796676
27.023925924448115,59,115,1,0.009000000000000001,27.011912239208623,12.013685239491693
27.04409255535272,59,88,0,0.009000000000000001,27.027855996212935,16.236559139784944
27.043925924448118,47,114,1,0.009000000000000001,27.03175583647158,12.170087976539591
27.05409255535272,47,51,0,0.009000000000000001,27.032069094942162,22.023460410557185
27.05392592444812,48,97,1,0.009000000000000001,27.039096989941765,14.82893450635386
27.064092555352723,69,57,0,0.009000000000000001,27.043007511364454,21.085043988269796
27.06392592444812,43,118,1,0.009000000000000001,27.052381447419773,11.544477028347998
27.074092555352724,105,61,0,0.009000000000000001,27.053633122312647,20.459433040078203
27.073925924448123,26,79,1,0.009000000000000001,27.056281740674905,17.64418377321603
27.083925924448124,21,41,1,0.023317038584350545,27.060338436667088,23.587487781036167
27.084092555352726,60,82,0,0.011507387759317044,27.066917579790655,17.174975562072337
27.096878541751966,72,49,0,0.01063062333260577,27.074542275867312,22.33626588465298
27.1098337450974,23,37,1,0.01275312904579505,27.085620646368174,24.21309872922776
27.10869034545486,74,89,0,0.009000000000000001,27.092610189052124,16.080156402737046
27.124003888481617,43,56,1,0.009000000000000001,27.1027624417563,21.241446725317694
27.118690345454862,59,114,0,0.009000000000000001,27.106520257478323,12.170087976539591
27.128690345454864,108,101,0,0.009000000000000001,27.1144870218967,14.203323558162268
27.138690345454865,99,54,0,0.009000000000000001,27.11713609325545,21.55425219941349
27.13400388848162,41,120,1,0.009000000000000001,27.122772216927366,11.231671554252198
27.14400388848162,53,101,1,0.009000000000000001,27.129800564923457,14.203323558162268
27.154003888481622,45,63,1,0.009000000000000001,27.13385726091564,20.146627565982406
27.148690345454867,63,121,0,0.009000000000000001,27.137615076637662,11.0752688172043
27.15869034545487,74,95,0,0.009000000000000001,27.143548605474418,15.141739980449657
27.16869034545487,34,49,0,0.009000000000000001,27.146354079570216,22.33626588465298
27.174003888481625,84,54,1,0.009000000000000001,27.15244963628221,21.55425219941349
27.164003888481624,45,120,1,0.009000000000000001,27.15277221692737,11.231671554252198
27.17869034545487,59,51,0,0.011050539842550805,27.156666885044313,22.023460410557185
27.184003888481627,94,86,1,0.009000000000000001,27.167454523867747,16.549364613880744
27.190968723057704,59,49,0,0.009000000000000001,27.16863245717305,22.33626588465298
27.194003888481628,50,75,1,0.015517246715369852,27.17573409376022,18.269794721407624
27.200968723057706,52,76,0,0.009000000000000001,27.182855331073345,18.113391984359726
27.210968723057707,34,41,0,0.009000000000000001,27.18738123527667,23.587487781036167
27.211245273720927,49,93,1,0.009000000000000001,27.19579072826638,15.454545454545453
27.22124527372093,60,69,1,0.009000000000000001,27.202037062577233,19.208211143695017
27.22096872305771,21,93,0,0.009000000000000001,27.205514177603163,15.454545454545453
27.23096872305771,53,85,0,0.011323501167719028,27.214262955706783,16.705767350928642
27.24124527372093,71,39,1,0.009000000000000001,27.2173449804658,23.900293255131963
27.23124527372093,68,111,1,0.009000000000000001,27.218605977533247,12.639296187683286
27.251245273720933,59,39,1,0.009000000000000001,27.2273449804658,23.900293255131963
27.24355039102184,59,116,0,0.009000000000000001,27.231693108519398,11.857282502443795
27.253550391021843,56,88,0,0.009000000000000001,27.23731383188206,16.236559139784944
27.261245273720935,77,45,1,0.009000000000000001,27.23828339688809,22.961876832844574
27.263550391021845,55,90,0,0.009000000000000001,27.247626637356156,15.923753665689148
27.281245273720938,48,38,1,0.009000000000000001,27.25718857772876,24.05669599217986
27.271245273720936,66,108,1,0.009000000000000001,27.25813676932211,13.10850439882698
27.273550391021846,32,109,0,0.009000000000000001,27.26059828936007,12.952101661779082
27.283550391021848,75,83,0,0.009000000000000001,27.266531818196825,17.01857282502444
27.29124527372094,76,42,1,0.012173151099838466,27.26781418867695,23.43108504398827
27.29355039102185,58,101,0,0.014060666937273278,27.279347067463686,14.203323558162268
27.304770997165203,39,99,1,0.009000000000000001,27.290254868132944,14.516129032258064
27.309173354285488,75,110,0,0.009000000000000001,27.296377655360757,12.795698924731184
27.31917335428549,60,81,0,0.009000000000000001,27.30184197598637,17.331378299120235
27.32481257147532,61,49,1,0.010656853490863606,27.302476305590666,22.33626588465298
27.314770997165205,54,123,1,0.009037416879104707,27.304008533822095,10.762463343108504
27.32917335428549,91,102,0,0.011402169363697166,27.315126433464375,14.04692082111437
27.336653519798503,49,66,1,0.009000000000000001,27.316976100443664,19.67741935483871
27.341842431356266,58,116,0,0.009000000000000001,27.329985148853822,11.857282502443795
27.346653519798505,54,92,1,0.009000000000000001,27.33104257160691,15.610948191593351
27.351842431356268,32,87,0,0.018121644951920216,27.335449469479435,16.392961876832846
27.356653519798506,59,82,1,0.009000000000000001,27.339478544236435,17.174975562072337
27.366653519798508,58,55,1,0.009000000000000001,27.345255670336144,21.397849462365592
27.37665351979851,44,73,1,0.009000000000000001,27.358070919603005,18.58260019550342
27.371977592413955,35,109,0,0.009000000000000001,27.359025490752177,12.952101661779082
27.38665351979851,68,74,1,0.009000000000000001,27.368227322340054,18.426197458455523
27.381977592413957,73,108,0,0.009000000000000001,27.36886908801513,13.10850439882698
27.39197759241396,108,89,0,0.009000000000000001,27.375897436011222,16.080156402737046
27.40197759241396,40,78,0,0.009000000000000001,27.384177005903695,17.80058651026393
27.406653519798514,42,50,1,0.009000000000000001,27.384473656650908,22.179863147605083
27.396653519798512,47,117,1,0.009000000000000001,27.384952640033116,11.700879765395896
27.41197759241396,70,83,0,0.009000000000000001,27.39495901958894,17.01857282502444
27.421977592413963,85,41,0,0.009000000000000001,27.398390104632927,23.587487781036167
27.416653519798516,43,85,1,0.009000000000000001,27.399947752447588,16.705767350928642
27.426653519798517,57,102,1,0.009000000000000001,27.4126065989774,14.04692082111437
27.43665351979852,61,47,1,0.009000000000000001,27.41400444843977,22.649071358748778
27.431977592413965,31,83,0,0.009000000000000001,27.41495901958894,17.01857282502444
27.441977592413966,83,64,0,0.009000000000000001,27.421987367585032,19.990224828934508
27.44665351979852,92,73,1,0.009000000000000001,27.428070919603016,18.58260019550342
27.451977592413968,64,62,0,0.009000000000000001,27.43167456211094,20.303030303030305
27.45665351979852,78,71,1,0.009000000000000001,27.437758114128922,18.89540566959922
27.46197759241397,68,99,0,0.009000000000000001,27.44746146338171,14.516129032258064
27.466653519798523,43,121,1,0.009000000000000001,27.45557825098132,11.0752688172043
27.481977592413973,87,43,0,0.02133129393609689,27.458702910107032,23.27468230694037
27.47197759241397,108,111,0,0.009000000000000001,27.45933829622629,12.639296187683286
27.476653519798525,44,87,1,0.009000000000000001,27.460260557921693,16.392961876832846
27.486653519798526,61,107,1,0.009000000000000001,27.473388612662653,13.264907135874878
27.496653519798528,66,82,1,0.009000000000000001,27.479478544236457,17.174975562072337
27.505679030120746,89,65,0,0.009000000000000001,27.48584520802886,19.83382209188661
27.50665351979853,49,99,1,0.013529902542194591,27.49213739076627,14.516129032258064
27.515679030120747,47,77,0,0.009000000000000001,27.497722040873434,17.956989247311828
27.52168674484541,79,41,1,0.009000000000000001,27.498099257064375,23.587487781036167
27.52567903012075,64,88,0,0.009000000000000001,27.509442470980964,16.236559139784944
27.531686744845413,63,56,1,0.009000000000000001,27.510445298120096,21.241446725317694
27.53567903012075,77,37,0,0.009000000000000001,27.511465931391523,24.21309872922776
27.541686744845414,44,59,1,0.009000000000000001,27.52091450633124,20.772238514174
27.545679030120752,67,108,0,0.009000000000000001,27.532570525721926,13.10850439882698
27.551686744845416,32,72,1,0.009000000000000001,27.532947741912864,18.73900293255132
27.555679030120753,46,93,0,0.009000000000000001,27.540224484666208,15.454545454545453
27.561686744845417,58,67,1,0.009000000000000001,27.542165728227626,19.521016617790814
27.57168674484542,45,49,1,0.009000000000000001,27.549350478960765,22.33626588465298
27.565679030120755,49,99,0,0.009000000000000001,27.551162901088496,14.516129032258064
27.575679030120757,52,53,0,0.009000000000000001,27.553968375184294,21.71065493646139
27.58168674484542,67,54,1,0.009000000000000001,27.560132492646005,21.55425219941349
27.585679030120758,76,110,0,0.009000000000000001,27.572883331196028,12.795698924731184
27.591686744845422,75,114,1,0.009000000000000001,27.579516656868883,12.170087976539591
27.59567903012076,98,104,0,0.009000000000000001,27.58194491477374,13.734115347018573
27.601686744845424,25,97,1,0.009000000000000001,27.58685781033907,14.82893450635386
27.611686744845425,51,59,1,0.009000000000000001,27.590914506331252,20.772238514174
27.60567903012076,75,113,0,0.009000000000000001,27.593352539407174,12.32649071358749
27.621686744845427,60,49,1,0.009000000000000001,27.599350478960773,22.33626588465298
27.615679030120763,64,113,0,0.009000000000000001,27.603352539407176,12.32649071358749
27.625679030120764,73,81,0,0.009000000000000001,27.608347651821646,17.331378299120235
27.631686744845428,80,52,1,0.009000000000000001,27.609819687171917,21.867057673509287
27.635679030120766,86,38,0,0.009000000000000001,27.611622334128587,24.05669599217986
27.64168674484543,60,57,1,0.009000000000000001,27.62060170085716,21.085043988269796
27.65168674484543,73,40,1,0.009000000000000001,27.627942854327348,23.743890518084065
27.645679030120768,45,102,0,0.009000000000000001,27.63163210929965,14.04692082111437
27.65567903012077,64,102,0,0.009000000000000001,27.641632109299653,14.04692082111437
27.66567903012077,58,57,0,0.009000000000000001,27.644593986132502,21.085043988269796
27.661686744845433,45,108,1,0.009000000000000001,27.648578240446607,13.10850439882698
27.671686744845434,71,110,1,0.009000000000000001,27.658891045920704,12.795698924731184
27.681686744845436,69,51,1,0.009000000000000001,27.659663284434878,22.023460410557185
27.675679030120772,63,102,0,0.009000000000000001,27.661632109299656,14.04692082111437
27.685679030120774,50,74,0,0.024912472972285073,27.667252832662317,18.426197458455523
27.691686744845438,61,94,1,0.009000000000000001,27.67638860212794,15.298142717497555
27.70168674484544,45,73,1,0.009000000000000001,27.683104144649935,18.58260019550342
27.71168674484544,39,81,1,0.009000000000000001,27.694355366546322,17.331378299120235
27.713359555645535,91,80,0,0.009000000000000001,27.69587177460937,17.487781036168133
27.721686744845442,60,43,1,0.014273534036060756,27.6984120625385,23.27468230694037
27.723359555645537,33,88,0,0.009000000000000001,27.707122996505753,16.236559139784944
27.73335955564554,37,95,0,0.023877076531125207,27.71821781566509,15.141739980449657
27.73754622710773,77,96,1,0.009000000000000001,27.72256088986433,14.985337243401759
27.75988964068012,43,38,0,0.012144004677434778,27.735832944687942,24.05669599217986
27.747546227107733,67,117,1,0.009000000000000001,27.735845347342337,11.700879765395896
27.757546227107735,66,82,1,0.009000000000000001,27.740371251545664,17.174975562072337
27.767546227107736,55,70,1,0.009000000000000001,27.74849441870109,19.05180840664712
27.773382979210606,35,104,0,0.009000000000000001,27.759648863863585,13.734115347018573
27.777546227107738,55,111,1,0.017710154806430022,27.764906930920056,12.639296187683286
27.783382979210607,36,110,0,0.010951164047641631,27.770587280285877,12.795698924731184
27.795550939263542,57,110,0,0.009000000000000001,27.782755240338812,12.795698924731184
27.79722417689266,68,100,1,0.009000000000000001,27.782864450597447,14.359726295210166
27.805550939263544,48,60,0,0.009000000000000001,27.78493510348642,20.6158357771261
27.80722417689266,44,62,1,0.009000000000000001,27.78692114658963,20.303030303030305
27.817224176892662,50,55,1,0.009000000000000001,27.795826327430298,21.397849462365592
27.815550939263545,70,69,0,0.009000000000000001,27.79634272811985,19.208211143695017
27.827224176892663,63,81,1,0.009000000000000001,27.809892798593545,17.331378299120235
27.825550939263547,44,92,0,0.009000000000000001,27.809939991071953,15.610948191593351
27.83555093926355,45,66,0,0.009000000000000001,27.81587351990871,19.67741935483871
27.837224176892665,49,116,1,0.009000000000000001,27.82536689439022,11.857282502443795
27.847224176892666,88,59,1,0.009000000000000001,27.826451938378494,20.772238514174
27.84555093926355,63,87,0,0.009000000000000001,27.829157977386718,16.392961876832846
27.857224176892668,53,39,1,0.009000000000000001,27.833323883637537,23.900293255131963
27.85555093926355,66,71,0,0.018572173551032932,27.83665553359395,18.89540566959922
27.87618668765359,59,40,0,0.009000000000000001,27.852442797135506,23.743890518084065
27.86722417689267,46,100,1,0.009000000000000001,27.85286445059746,14.359726295210166
27.87722417689267,44,74,1,0.009000000000000001,27.858797979434215,18.426197458455523
27.896186687653593,56,40,0,0.009000000000000001,27.87244279713551,23.743890518084065
27.887224176892673,64,102,1,0.009000000000000001,27.873177256071557,14.04692082111437
27.897224176892674,67,43,1,0.009000000000000001,27.873949494585734,23.27468230694037
27.88618668765359,108,117,0,0.009000000000000001,27.874485807888195,11.700879765395896
27.907224176892676,39,81,1,0.009000000000000001,27.889892798593557,17.331378299120235
27.906186687653594,87,99,0,0.009000000000000001,27.891670558621335,14.516129032258064
27.917224176892677,34,47,1,0.009000000000000001,27.894575105533928,22.649071358748778
27.916186687653596,42,104,0,0.009000000000000001,27.902452572306576,13.734115347018573
27.92722417689268,66,76,1,0.009000000000000001,27.909110784908318,18.113391984359726
27.9361866876536,99,41,0,0.01381584788047086,27.912599199872563,23.587487781036167
27.926186687653598,48,121,0,0.009000000000000001,27.915111418836393,11.0752688172043
27.93722417689268,86,81,1,0.009000000000000001,27.919892798593562,17.331378299120235
27.947224176892682,105,67,1,0.009000000000000001,27.92770316027489,19.521016617790814
27.95153762974301,55,85,0,0.015587826198959726,27.934831862392084,16.705767350928642
27.957224176892684,39,69,1,0.009000000000000001,27.93801596574899,19.208211143695017
27.967224176892685,77,57,1,0.009000000000000001,27.946139132904417,21.085043988269796
27.968857436630746,63,86,0,0.015421357160279536,27.952308072016866,16.549364613880744
27.977224176892687,52,114,1,0.009000000000000001,27.965054088916148,12.170087976539591
27.985992277919944,86,91,0,0.009000000000000001,27.970224926991303,15.76735092864125
27.98722417689269,70,106,1,0.015747650086001066,27.973802867019767,13.421309872922777
27.995992277919946,86,55,0,0.009000000000000001,27.974594428457582,21.397849462365592
28.004721565877134,67,47,1,0.009000000000000001,27.982072494518384,22.649071358748778
28.005992277919947,88,43,0,0.012606351747940767,27.982717595613007,23.27468230694037
28.014721565877135,54,43,1,0.009000000000000001,27.991446883570195,23.27468230694037
28.01999933541766,56,39,0,0.009000000000000001,27.996099042162527,23.900293255131963
28.024721565877137,34,72,1,0.009000000000000001,28.005982562944585,18.73900293255132
28.02999933541766,75,54,0,0.009000000000000001,28.008445083218245,21.55425219941349
28.03472156587714,74,51,1,0.009000000000000001,28.01269810546658,22.023460410557185
28.03999933541766,50,66,0,0.010569451489589772,28.020321916062823,19.67741935483871
28.04472156587714,53,43,1,0.009000000000000001,28.0214468835702,23.27468230694037
28.051743170406095,63,82,0,0.009000000000000001,28.034568194844024,17.174975562072337
28.05472156587714,75,67,1,0.009000000000000001,28.03520054925935,19.521016617790814
28.061743170406096,65,69,0,0.009000000000000001,28.0425349592624,19.208211143695017
28.064721565877143,59,115,1,0.009000000000000001,28.05270788063765,12.013685239491693
28.071743170406098,58,73,0,0.009000000000000001,28.053160570210594,18.58260019550342
28.074721565877145,58,81,1,0.017492846987266,28.057390187578026,17.331378299120235
28.0817431704061,67,69,0,0.015567095650642106,28.062534959262404,19.208211143695017
28.09415806252966,56,64,1,0.009000000000000001,28.074167837700728,19.990224828934508
28.099039943351258,53,63,0,0.01250393559227137,28.078893315785276,20.146627565982406
28.104158062529663,104,107,1,0.013138776456688114,28.09089315539379,13.264907135874878
28.118756703037093,75,46,1,0.009000000000000001,28.095951228941296,22.805474095796676
28.11293320512045,54,90,0,0.009000000000000001,28.09700945145476,15.923753665689148
28.12293320512045,21,94,0,0.009000000000000001,28.107635062402952,15.298142717497555
28.128756703037094,57,86,1,0.009000000000000001,28.112207338423215,16.549364613880744
28.13293320512045,79,68,0,0.009000000000000001,28.11356859123971,19.364613880742915
28.138756703037096,30,54,1,0.009000000000000001,28.11720245083768,21.55425219941349
28.142933205120453,67,68,0,0.01127837342004779,28.12356859123971,19.364613880742915
28.148756703037098,56,107,1,0.009000000000000001,28.135491795901224,13.264907135874878
28.15546473114273,82,76,0,0.009000000000000001,28.137351339158368,18.113391984359726
28.1587567030371,55,89,1,0.009000000000000001,28.142676546634362,16.080156402737046
28.16546473114273,56,60,0,0.009000000000000001,28.144848895365605,20.6158357771261
28.1687567030371,67,102,1,0.009000000000000001,28.154709782215985,14.04692082111437
28.175464731142732,65,75,0,0.009000000000000001,28.157194936421323,18.269794721407624
28.178756703037102,69,80,1,0.009000000000000001,28.161268922000936,17.487781036168133
28.185464731142734,67,93,0,0.009000000000000001,28.170010185688188,15.454545454545453
28.195464731142735,25,58,0,0.022666159571968277,28.174536089891514,20.928641251221897
28.188756703037104,35,116,1,0.009000000000000001,28.17689942053466,11.857282502443795
28.198756703037105,41,65,1,0.009000000000000001,28.17892288094522,19.83382209188661
28.208756703037107,49,97,1,0.009000000000000001,28.193927768530752,14.82893450635386
28.220649352889367,57,92,0,0.009000000000000001,28.205038404697774,15.610948191593351
28.21875670303711,71,124,1,0.009000000000000001,28.208150642431047,10.606060606060606
28.22875670303711,34,64,1,0.009000000000000001,28.208766478208176,19.990224828934508
28.23875670303711,72,54,1,0.009000000000000001,28.217202450837696,21.55425219941349
28.23064935288937,53,116,0,0.009199699911841752,28.218792070386925,11.857282502443795
28.250871241680304,45,43,0,0.009000000000000001,28.227596559373364,23.27468230694037
28.240871241680303,76,112,0,0.009000000000000001,28.228388348229668,12.482893450635387
28.248756703037113,41,88,1,0.011805291425938516,28.23252014389733,16.236559139784944
28.260871241680306,64,79,0,0.009000000000000001,28.243227057907088,17.64418377321603
28.261873693510378,40,81,1,0.009000000000000001,28.24454231521126,17.331378299120235
28.270871241680307,52,64,0,0.01089850160737259,28.250881016851373,19.990224828934508
28.27187369351038,63,106,1,0.009000000000000001,28.258452383637458,13.421309872922777
28.282980687910722,74,50,0,0.013980753384944906,28.260800824763116,22.179863147605083
28.291873693510382,34,45,1,0.009000000000000001,28.268911816677537,22.961876832844574
28.28187369351038,69,114,1,0.009000000000000001,28.26970360553384,12.170087976539591
28.29851485833844,69,60,0,0.009000000000000001,28.277899022561314,20.6158357771261
28.301873693510384,63,122,1,0.009000000000000001,28.290954827430227,10.918866080156402
28.311873693510385,65,92,1,0.009000000000000001,28.296262745318792,15.610948191593351
28.30851485833844,67,114,0,0.009000000000000001,28.2963447703619,12.170087976539591
28.318514858338443,24,59,0,0.009000000000000001,28.29774261982427,20.772238514174
28.321873693510387,66,50,1,0.012561432988999177,28.29969383036278,22.179863147605083
28.328514858338444,46,81,0,0.009000000000000001,28.311183480039325,17.331378299120235
28.335830841275943,78,104,1,0.009000000000000001,28.322096725928922,13.734115347018573
28.338514858338446,68,123,0,0.014819951075847515,28.327752394995336,10.762463343108504
28.345830841275944,52,109,1,0.009000000000000001,28.332878739614166,12.952101661779082
28.355830841275946,73,55,1,0.009000000000000001,28.334432991813582,21.397849462365592
28.354981470644944,57,75,0,0.009000000000000001,28.336711675923535,18.269794721407624
28.364981470644945,40,69,0,0.009000000000000001,28.34577325950125,19.208211143695017
28.365830841275947,87,73,1,0.009000000000000001,28.347248241080443,18.58260019550342
28.374981470644947,71,39,0,0.009000000000000001,28.351081177389815,23.900293255131963
28.37583084127595,35,72,1,0.009000000000000001,28.357091838343397,18.73900293255132
28.38498147064495,38,59,0,0.009000000000000001,28.364209232130776,20.772238514174
28.38583084127595,84,95,1,0.014198282602448735,28.3706891012955,15.141739980449657
28.39498147064495,70,79,0,0.009000000000000001,28.377337286871732,17.64418377321603
28.401606710834226,67,53,1,0.009000000000000001,28.379896055897763,21.71065493646139
28.40498147064495,88,73,0,0.009000000000000001,28.386398870449447,18.58260019550342
28.411606710834228,57,87,1,0.009000000000000001,28.395213748957396,16.392961876832846
28.414981470644953,86,76,0,0.009000000000000001,28.396868078660592,18.113391984359726
28.42160671083423,84,96,1,0.009000000000000001,28.406621373590827,14.985337243401759
28.424981470644955,73,100,0,0.009000000000000001,28.410621744349744,14.359726295210166
28.43160671083423,34,71,1,0.009000000000000001,28.41271130516463,18.89540566959922
28.434981470644956,63,77,0,0.009000000000000001,28.417024481397643,17.956989247311828
28.441606710834233,21,53,1,0.009000000000000001,28.41989605589777,21.71065493646139
28.444981470644958,41,51,0,0.011535369772139224,28.4229580102344,22.023460410557185
28.451606710834234,72,52,1,0.009000000000000001,28.429739653160723,21.867057673509287
28.457798548169556,62,86,0,0.009000000000000001,28.441249183555676,16.549364613880744
28.461606710834236,72,78,1,0.009000000000000001,28.44380612432397,17.80058651026393
28.467798548169558,36,42,0,0.009000000000000001,28.44436746312557,23.43108504398827
28.471606710834237,81,65,1,0.009000000000000001,28.45177288874235,19.83382209188661
28.48160671083424,30,60,1,0.01244185218824059,28.460990875057114,20.6158357771261
28.47779854816956,62,102,0,0.009000000000000001,28.463751627348444,14.04692082111437
28.48779854816956,69,40,0,0.009000000000000001,28.464054657651477,23.743890518084065
28.495430991043396,52,66,1,0.010521156287472879,28.475753571688557,19.67741935483871
28.497798548169563,63,110,0,0.01106554697389704,28.485002849244832,12.795698924731184
28.510093600362783,61,76,0,0.011813067697870706,28.491980208378422,18.113391984359726
28.507121164696144,59,107,1,0.009000000000000001,28.49385625756027,13.264907135874878
28.523219231138196,64,48,0,0.020449305915638222,28.500726562516494,22.49266862170088
28.517121164696146,80,101,1,0.009000000000000001,28.502917841137982,14.203323558162268
28.527121164696148,86,69,1,0.009000000000000001,28.507912953552452,19.208211143695017
28.54712116469615,46,40,1,0.009000000000000001,28.523377274178067,23.743890518084065
28.53712116469615,92,117,1,0.009000000000000001,28.525420284930753,11.700879765395896
28.54594068215557,83,67,0,0.022057585253779544,28.52641966553778,19.521016617790814
28.557121164696152,76,97,1,0.009000000000000001,28.542292230189798,14.82893450635386
28.570449110215325,58,39,0,0.009000000000000001,28.546548816960193,23.900293255131963
28.567121164696154,75,112,1,0.009000000000000001,28.55463827124552,12.482893450635387
28.580449110215326,78,44,0,0.01796721949678269,28.557330830645434,23.118279569892472
28.577121164696155,45,108,1,0.009000000000000001,28.56401266029733,13.10850439882698
28.59712116469616,81,49,1,0.009000000000000001,28.574784898811505,22.33626588465298
28.587121164696157,74,119,1,0.009000000000000001,28.575733090404857,11.3880742913001
28.600412687433973,51,52,0,0.009000000000000001,28.578545629760463,21.867057673509287
28.610412687433975,81,38,0,0.009000000000000001,28.586355991441796,24.05669599217986
28.60712116469616,21,91,1,0.009000000000000001,28.59135381376752,15.76735092864125
28.620412687433976,36,48,0,0.009000000000000001,28.597920018812275,22.49266862170088
28.61712116469616,80,76,1,0.009000000000000001,28.5990077727118,18.113391984359726
28.627121164696163,76,94,1,0.011416277020021934,28.611823021978665,15.298142717497555
28.630412687433978,35,82,0,0.009000000000000001,28.613237711871907,17.174975562072337
28.63980591694063,53,44,1,0.009000000000000001,28.616687637370738,23.118279569892472
28.64041268743398,36,120,0,0.009000000000000001,28.629181015879727,11.231671554252198
28.649805916940632,53,65,1,0.013820078429439204,28.629972094848746,19.83382209188661
28.65041268743398,54,103,0,0.014824009139303203,28.636522169349913,13.890518084066471
28.66516155964001,77,45,1,0.009000000000000001,28.642199682807163,22.961876832844574
28.666883808699872,59,66,0,0.009000000000000001,28.647206389345033,19.67741935483871
28.676883808699873,61,73,0,0.009000000000000001,28.65830120850437,18.58260019550342
28.67516155964001,32,96,1,0.009000000000000001,28.660176222396608,14.985337243401759
28.686883808699875,69,57,0,0.009000000000000001,28.665798764711607,21.085043988269796
28.68516155964001,76,80,1,0.013735522120121751,28.667673778603845,17.487781036168133
28.70042325088459,71,67,1,0.009000000000000001,28.6809022342668,19.521016617790814
28.696883808699877,58,109,0,0.016031422182303752,28.6839317070381,12.952101661779082
28.710423250884592,77,90,1,0.009000000000000001,28.694499497218903,15.923753665689148
28.720423250884593,73,60,1,0.009000000000000001,28.69980741510747,20.6158357771261
28.71469650001355,44,100,0,0.009000000000000001,28.700336773718337,14.359726295210166
28.730423250884595,96,65,1,0.009000000000000001,28.71058942879271,19.83382209188661
28.72469650001355,55,103,0,0.009000000000000001,28.710805981929482,13.890518084066471
28.734696500013552,52,73,0,0.009000000000000001,28.716113899818048,18.58260019550342
28.744696500013553,88,57,0,0.009000000000000001,28.723611456025285,21.085043988269796
28.740423250884596,85,122,1,0.014983660634686329,28.72950438480444,10.918866080156402
28.754696500013555,66,59,0,0.013250391278014738,28.733924261499382,20.772238514174
28.757071762700914,82,92,1,0.009000000000000001,28.74146081450932,15.610948191593351
28.769419156989127,33,51,0,0.009842951494684747,28.747395696578568,22.023460410557185
28.767071762700915,44,81,1,0.009000000000000001,28.749740384401797,17.331378299120235
28.777071762700917,39,38,1,0.009000000000000001,28.753015066708738,24.05669599217986
28.780355769760998,46,65,0,0.009000000000000001,28.760521947669112,19.83382209188661
28.78707176270092,85,87,1,0.009000000000000001,28.770678800824086,16.392961876832846
28.79707176270092,44,39,1,0.009000000000000001,28.77317146944579,23.900293255131963
28.790355769761,44,92,0,0.009000000000000001,28.774744821569406,15.610948191593351
28.800355769761,56,67,0,0.009000000000000001,28.78083475314321,19.521016617790814
28.80707176270092,43,102,1,0.009000000000000001,28.793024841879806,14.04692082111437
28.817071762700923,57,59,1,0.011205046742270589,28.79629952418675,20.772238514174
28.810355769761003,63,112,0,0.009000000000000001,28.797872876310368,12.482893450635387
28.820355769761004,73,100,0,0.009000000000000001,28.805996043465793,14.359726295210166
28.830355769761006,93,77,0,0.009000000000000001,28.812398780513693,17.956989247311828
28.82952181463678,108,85,1,0.009000000000000001,28.812816047285853,16.705767350928642
28.839521814636782,67,60,1,0.009000000000000001,28.818905978859657,20.6158357771261
28.840355769761008,61,79,0,0.02894851768170523,28.82271158598779,17.64418377321603
28.849521814636784,66,94,1,0.009000000000000001,28.834223671919286,15.298142717497555
28.859521814636786,35,82,1,0.009000000000000001,28.842346839074715,17.174975562072337
28.872520789407346,58,80,0,0.014559749434982156,28.85503300837118,17.487781036168133
28.869521814636787,44,105,1,0.009000000000000001,28.855944102026818,13.577712609970675
28.87952181463679,30,61,1,0.009000000000000001,28.85906238159671,20.459433040078203
28.888698288779548,57,48,0,0.009000000000000001,28.866205620157846,22.49266862170088
28.88952181463679,40,85,1,0.009000000000000001,28.872816047285863,16.705767350928642
28.89869828877955,75,69,0,0.009000000000000001,28.879490077635854,19.208211143695017
28.899521814636792,48,110,1,0.009000000000000001,28.88672611571206,12.795698924731184
28.909521814636793,61,55,1,0.009000000000000001,28.88812396517443,21.397849462365592
28.90869828877955,72,105,0,0.009000000000000001,28.89512057616958,13.577712609970675
28.918698288779552,74,53,0,0.009000000000000001,28.89698763384309,21.71065493646139
28.919521814636795,36,105,1,0.009000000000000001,28.905944102026826,13.577712609970675
28.928698288779554,60,109,0,0.009000000000000001,28.915746187117776,12.952101661779082
28.929521814636797,21,119,1,0.012787987231329172,28.918133740345496,11.3880742913001
28.943730689338274,73,43,1,0.009000000000000001,28.920456007031333,23.27468230694037
28.938698288779555,43,77,0,0.009000000000000001,28.920741299532242,17.956989247311828
28.948698288779557,61,102,0,0.009000000000000001,28.93465136795844,14.04692082111437
28.953730689338276,26,92,1,0.009000000000000001,28.938119741146682,15.610948191593351
28.95869828877956,30,93,0,0.009000000000000001,28.943243743325013,15.454545454545453
28.963730689338277,80,75,1,0.009000000000000001,28.94546089461687,18.269794721407624
28.96869828877956,55,111,0,0.009000000000000001,28.956058992591878,12.639296187683286
28.97373068933828,61,80,1,0.009583548009951946,28.956242908302112,17.487781036168133
28.97869828877956,57,114,0,0.009000000000000001,28.966528200803022,12.170087976539591
28.984379076016005,63,99,1,0.009000000000000001,28.969862946983746,14.516129032258064
28.988698288779563,57,100,0,0.009000000000000001,28.974338562484352,14.359726295210166
28.998698288779565,34,78,0,0.009000000000000001,28.9808977022693,17.80058651026393
28.994379076016006,43,106,1,0.009000000000000001,28.980957766143085,13.421309872922777
29.004379076016008,42,47,1,0.009000000000000001,28.98173000465726,22.649071358748778
29.008698288779566,21,69,0,0.009000000000000001,28.98949007763587,19.208211143695017
29.01437907601601,41,115,1,0.009000000000000001,29.002365390776518,12.013685239491693
29.018698288779568,77,114,0,0.009000000000000001,29.00652820080303,12.170087976539591
29.02437907601601,60,84,1,0.009000000000000001,29.007516905928036,16.86217008797654
29.02869828877957,65,80,0,0.009000000000000001,29.011210507743403,17.487781036168133
29.034379076016013,45,50,1,0.009000000000000001,29.012199212868406,22.179863147605083
29.03869828877957,57,51,0,0.009000000000000001,29.016674828369013,22.023460410557185
29.044379076016014,108,47,1,0.009000000000000001,29.021730004657265,22.649071358748778
29.058698288779574,62,49,0,0.013336782478482327,29.03636202289492,22.33626588465298
29.048698288779573,95,123,0,0.009000000000000001,29.037935825436463,10.762463343108504
29.054379076016016,30,94,1,0.009000000000000001,29.039080933298518,15.298142717497555
29.064379076016017,91,56,1,0.009000000000000001,29.0431376292907,21.241446725317694
29.07351693597789,54,60,0,0.016707920805371933,29.052901100200764,20.6158357771261
29.07437907601602,39,104,1,0.009000000000000001,29.060644960669,13.734115347018573
29.08437907601602,97,71,1,0.009000000000000001,29.06548367034642,18.89540566959922
29.0920812924283,76,53,0,0.009000000000000001,29.070370637491838,21.71065493646139
29.094379076016022,21,115,1,0.009000000000000001,29.08236539077653,12.013685239491693
29.102081292428302,55,107,0,0.015179860328742455,29.08881638529243,13.264907135874878
29.104379076016023,63,122,1,0.009000000000000001,29.093460209935866,10.918866080156402
29.114379076016025,76,63,1,0.009000000000000001,29.094232448450043,20.146627565982406
29.118947803904682,41,91,0,0.009000000000000001,29.10318045297604,15.76735092864125
29.124379076016027,53,62,1,0.013374155967975889,29.104076045712997,20.303030303030305
29.128947803904683,33,55,0,0.009000000000000001,29.10754995444232,21.397849462365592
29.13923924931378,53,45,1,0.009000000000000001,29.116277372480933,22.961876832844574
29.138947803904685,96,65,0,0.009000000000000001,29.1191139818128,19.83382209188661
29.14923924931378,21,51,1,0.009349582835080167,29.12721578890322,22.023460410557185
29.148947803904687,79,71,0,0.009000000000000001,29.130052398235087,18.89540566959922
29.159627674686092,31,45,1,0.009000000000000001,29.136665797853247,22.961876832844574
29.158947803904688,71,60,0,0.010454887569031271,29.138331968127563,20.6158357771261
29.170564345648057,70,44,0,0.009000000000000001,29.147446066078164,23.118279569892472
29.169627674686094,78,74,1,0.009000000000000001,29.151201477227637,18.426197458455523
29.179627674686095,46,52,1,0.014771107892010216,29.157760617012585,21.867057673509287
29.180564345648058,70,54,0,0.009000000000000001,29.159010093448643,21.55425219941349
29.19604001678833,30,41,1,0.009000000000000001,29.172452529007295,23.587487781036167
29.19056434564806,51,88,0,0.009000000000000001,29.174327786508275,16.236559139784944
29.20056434564806,98,103,0,0.009000000000000001,29.186673827563993,13.890518084066471
29.206040016788332,80,104,1,0.009000000000000001,29.192305901441312,13.734115347018573
29.210564345648063,73,88,0,0.009000000000000001,29.19432778650828,16.236559139784944
29.216040016788334,77,72,1,0.009000000000000001,29.197301013855782,18.73900293255132
29.220564345648064,44,53,0,0.009000000000000001,29.1988536907116,21.71065493646139
29.226040016788335,35,123,1,0.009000000000000001,29.215277553445226,10.762463343108504
29.230564345648066,69,99,0,0.009000000000000001,29.216048216615807,14.516129032258064
29.240564345648068,67,45,0,0.009000000000000001,29.217602468815222,22.961876832844574
29.24604001678834,92,39,1,0.009000000000000001,29.222139723533207,23.900293255131963
29.236040016788337,46,109,1,0.009000000000000001,29.22308791512656,12.952101661779082
29.25056434564807,61,104,0,0.009000000000000001,29.23683023030105,13.734115347018573
29.26056434564807,57,53,0,0.009000000000000001,29.238853690711608,21.71065493646139
29.26604001678834,81,45,1,0.009000000000000001,29.243078139955497,22.961876832844574
29.25604001678834,76,111,1,0.009000000000000001,29.243400720600658,12.639296187683286
29.270564345648072,51,108,0,0.009000000000000001,29.257455841249246,13.10850439882698
29.276040016788343,50,73,1,0.03639006080603967,29.25745741659284,18.58260019550342
29.280564345648074,45,67,0,0.009000000000000001,29.261043329030283,19.521016617790814
29.290564345648075,91,43,0,0.009000000000000001,29.267289663341135,23.27468230694037
29.300564345648077,89,79,0,0.02102324781792714,29.28292016187486,17.64418377321603
29.316473417683945,42,86,1,0.009000000000000001,29.299924053070065,16.549364613880744
29.323923509890218,73,84,0,0.009000000000000001,29.307061339802242,16.86217008797654
29.326473417683946,34,120,1,0.009000000000000001,29.315241746129693,11.231671554252198
29.336473417683948,67,83,1,0.009000000000000001,29.319454844858925,17.01857282502444
29.33392350989022,60,124,0,0.009000000000000001,29.323317449284158,10.606060606060606
29.34392350989022,38,70,0,0.009000000000000001,29.324871701483573,19.05180840664712
29.34647341768395,21,77,1,0.009000000000000001,29.328516428436636,17.956989247311828
29.35647341768395,57,46,1,0.009000000000000001,29.333667943588154,22.805474095796676
29.363923509890224,61,51,0,0.009000000000000001,29.341900049479666,22.023460410557185
29.353923509890222,57,118,0,0.009000000000000001,29.342379032861874,11.544477028347998
29.366473417683952,64,42,1,0.009000000000000001,29.343042332639964,23.43108504398827
29.373923509890226,52,90,0,0.009000000000000001,29.357999756224537,15.923753665689148
29.386473417683955,63,40,1,0.009000000000000001,29.36272952716587,23.743890518084065
29.376473417683954,65,110,1,0.009000000000000001,29.363677718759224,12.795698924731184
29.383923509890227,94,66,0,0.009000000000000001,29.36424609053539,19.67741935483871
29.396473417683957,70,90,1,0.009000000000000001,29.380549664018268,15.923753665689148
29.39392350989023,77,108,0,0.009000000000000001,29.380815005491403,13.10850439882698
29.40392350989023,81,50,0,0.009000000000000001,29.381743646742624,22.179863147605083
29.40647341768396,54,113,1,0.009000000000000001,29.39414692697037,12.32649071358749
29.41647341768396,85,84,1,0.015165227840769784,29.399611247595985,16.86217008797654
29.413923509890232,85,101,0,0.009000000000000001,29.39972018633207,14.203323558162268
29.423923509890233,45,65,0,0.009000000000000001,29.404089687798347,19.83382209188661
29.433923509890235,66,52,0,0.009000000000000001,29.412056452216724,21.867057673509287
29.443923509890237,65,41,0,0.009000000000000001,29.4203360221092,23.587487781036167
29.43332367084037,69,119,1,0.009000000000000001,29.42193559654907,11.3880742913001
29.44332367084037,77,90,1,0.009000000000000001,29.427399917174682,15.923753665689148
29.453323670840373,69,92,1,0.009000000000000001,29.43771272264878,15.610948191593351
29.453923509890238,66,90,0,0.011836145538439289,29.43799975622455,15.923753665689148
29.463323670840374,69,58,1,0.009000000000000001,29.442395029589154,20.928641251221897
29.473323670840376,76,44,1,0.009000000000000001,29.450205391270483,23.118279569892472
29.467074782710725,87,93,0,0.009000000000000001,29.45162023725618,15.454545454545453
29.477074782710726,78,49,0,0.009000000000000001,29.454738516826072,22.33626588465298
29.483323670840377,21,95,1,0.011440407868075226,29.468181930859927,15.141739980449657
29.487074782710728,89,88,0,0.011986009547310971,29.470838223570944,16.236559139784944
29.49603523513824,48,53,1,0.009000000000000001,29.474324580201777,21.71065493646139
29.50039257109663,79,104,0,0.009000000000000001,29.48665845574961,13.734115347018573
29.506035235138242,21,102,1,0.009000000000000001,29.491988314317126,14.04692082111437
29.51039257109663,77,75,0,0.009000000000000001,29.492122776375222,18.269794721407624
29.516035235138244,60,44,1,0.009000000000000001,29.49291695556835,23.118279569892472
29.520392571096632,72,47,0,0.009000000000000001,29.497743499737883,22.649071358748778
29.526035235138245,58,88,1,0.009000000000000001,29.50979867599846,16.236559139784944
29.530392571096634,86,93,0,0.009000000000000001,29.51493802564209,15.454545454545453
29.536035235138247,65,60,1,0.009000000000000001,29.51541939936112,20.6158357771261
29.540392571096636,38,84,0,0.009000000000000001,29.52353040100866,16.86217008797654
29.54603523513825,54,83,1,0.011343936844875512,29.529016662313225,17.01857282502444
29.550392571096637,43,109,0,0.009000000000000001,29.53744046943486,12.952101661779082
29.56039257109664,60,96,0,0.009000000000000001,29.545407233853236,14.985337243401759
29.55863960941033,47,109,1,0.009000000000000001,29.545687507748553,12.952101661779082
29.568639609410333,59,63,1,0.009000000000000001,29.54849298184435,20.146627565982406
29.57039257109664,42,100,0,0.009000000000000001,29.55603284480143,14.359726295210166
29.578639609410335,53,51,1,0.009000000000000001,29.556616148999776,22.023460410557185
29.58039257109664,40,43,0,0.009000000000000001,29.5571178887897,23.27468230694037
29.588639609410336,61,110,1,0.009000000000000001,29.575843910485606,12.795698924731184
29.600392571096645,72,52,0,0.015353354077440725,29.578525513423134,21.867057673509287
29.590392571096643,82,124,0,0.009000000000000001,29.57978651049058,10.606060606060606
29.598639609410338,56,116,1,0.009000000000000001,29.586782326907894,11.857282502443795
29.620292804530475,81,46,1,0.009000000000000001,29.597487330434678,22.805474095796676
29.60863960941034,83,122,1,0.01048787560812355,29.597720743330182,10.918866080156402
29.617451853404912,44,84,0,0.009000000000000001,29.600589683316937,16.86217008797654
29.627451853404914,38,107,0,0.009000000000000001,29.61418694626904,13.264907135874878
29.630292804530477,22,100,1,0.009000000000000001,29.615933078235265,14.359726295210166
29.64029280453048,35,67,1,0.009000000000000001,29.620771787912688,19.521016617790814
29.637451853404915,43,87,0,0.009000000000000001,29.621058891528083,16.392961876832846
29.647451853404917,51,103,0,0.009000000000000001,29.63356133532085,13.890518084066471
29.66029280453048,80,39,1,0.009000000000000001,29.63639251127535,23.900293255131963
29.65029280453048,26,121,1,0.009000000000000001,29.639217535713275,11.0752688172043
29.65745185340492,69,118,0,0.025519414664166584,29.64590737637657,11.544477028347998
29.670292804530483,57,79,1,0.009000000000000001,29.652648620757265,17.64418377321603
29.680292804530485,56,76,1,0.009000000000000001,29.662179412546124,18.113391984359726
29.685806758587326,82,82,0,0.009000000000000001,29.668631783025255,17.174975562072337
29.690292804530486,47,68,1,0.009000000000000001,29.670928190649743,19.364613880742915
29.695806758587327,85,72,0,0.010401757809514484,29.677067755654775,18.73900293255132
29.707364267264566,67,51,0,0.009000000000000001,29.685340806854008,22.023460410557185
29.700292804530488,81,107,1,0.009000000000000001,29.687027897394614,13.264907135874878
29.717364267264568,73,73,0,0.009000000000000001,29.698781667069063,18.58260019550342
29.71029280453049,49,124,1,0.009000000000000001,29.699686743924428,10.606060606060606
29.72029280453049,27,70,1,0.009000000000000001,29.701240996123843,19.05180840664712
29.72736426726457,66,55,0,0.009000000000000001,29.705966417802205,21.397849462365592
29.730292804530492,52,62,1,0.009000000000000001,29.709989774227463,20.303030303030305
29.73736426726457,21,96,0,0.009000000000000001,29.72237893002117,14.985337243401759
29.740292804530494,38,99,1,0.009000000000000001,29.725776675498235,14.516129032258064
29.747364267264572,22,77,0,0.009000000000000001,29.72940727801726,17.956989247311828
29.750292804530496,76,88,1,0.009000000000000001,29.73405624539071,16.236559139784944
29.760292804530497,72,44,1,0.0123514659971092,29.737174524960604,23.118279569892472
29.757364267264574,60,70,0,0.014382819224676694,29.738312458857926,19.05180840664712
29.773345177514216,49,37,0,0.012087514683326786,29.74913207878499,24.21309872922776
29.774016655638395,72,54,1,0.009000000000000001,29.75246240343898,21.55425219941349
29.786775749384578,89,40,0,0.020844440577181954,29.763031858866494,23.743890518084065
29.784016655638396,47,77,1,0.009000000000000001,29.766059666391083,17.956989247311828
29.794016655638398,70,117,1,0.009000000000000001,29.782315775873002,11.700879765395896
29.8040166556384,54,90,1,0.014678857357056794,29.78809290197271,15.923753665689148
29.80993623891478,81,65,0,0.009000000000000001,29.790102416822894,19.83382209188661
29.82032649714624,21,104,1,0.010230552019461776,29.80659238179922,13.734115347018573
29.81993623891478,54,121,0,0.009000000000000001,29.808860970097577,11.0752688172043
29.831693777167864,30,63,1,0.009000000000000001,29.811547149601882,20.146627565982406
29.829936238914783,49,82,0,0.009000000000000001,29.812761263352712,17.174975562072337
29.839936238914785,79,75,0,0.010653685796984504,29.821666444193376,18.269794721407624
29.841693777167865,63,82,1,0.009000000000000001,29.824518801605794,17.174975562072337
29.851693777167867,61,99,1,0.009000000000000001,29.837177648135608,14.516129032258064
29.8517736675781,61,120,0,0.013973648406492482,29.84054199602385,11.231671554252198
29.86169377716787,58,91,1,0.009000000000000001,29.845926426239227,15.76735092864125
29.867299943585316,65,77,0,0.009000000000000001,29.849342954338002,17.956989247311828
29.87169377716787,41,71,1,0.009000000000000001,29.85279837149827,18.89540566959922
29.877299943585317,50,60,0,0.009000000000000001,29.856684107808192,20.6158357771261
29.88729994358532,59,76,0,0.009000000000000001,29.869186551600958,18.113391984359726
29.891693777167873,36,53,1,0.009000000000000001,29.86998312223141,21.71065493646139
29.88169377716787,45,124,1,0.009000000000000001,29.87108771656181,10.606060606060606
29.89729994358532,72,42,0,0.016316401026922524,29.873868858541332,23.43108504398827
29.901693777167875,71,113,1,0.009000000000000001,29.889367286454288,12.32649071358749
29.91542927805968,52,62,0,0.009000000000000001,29.89512624775665,20.303030303030305
29.911693777167876,40,106,1,0.009000000000000001,29.898272467294955,13.421309872922777
29.921693777167878,64,69,1,0.009000000000000001,29.902485566024183,19.208211143695017
29.93169377716788,35,55,1,0.009000000000000001,29.910295927705516,21.397849462365592
29.92542927805968,50,97,0,0.009000000000000001,29.910600343553327,14.82893450635386
29.935429278059683,82,110,0,0.009000000000000001,29.922633579134953,12.795698924731184
29.94169377716788,78,83,1,0.009000000000000001,29.924675204342858,17.01857282502444
29.951693777167883,48,60,1,0.009000000000000001,29.931077941390758,20.6158357771261
29.945429278059684,73,124,0,0.009000000000000001,29.934823217453623,10.606060606060606
29.955429278059686,83,97,0,0.009000000000000001,29.94060034355333,14.82893450635386
29.965429278059688,65,52,0,0.009000000000000001,29.943562220386177,21.867057673509287
29.961693777167884,62,118,1,0.009000000000000001,29.950149300139536,11.544477028347998
29.971693777167886,50,67,1,0.009000000000000001,29.952172760550095,19.521016617790814
29.97542927805969,54,68,0,0.009000000000000001,29.956064664178946,19.364613880742915
29.98542927805969,45,93,0,0.009000000000000001,29.969974732605145,15.454545454545453
29.99238503972468,33,49,1,0.009000000000000001,29.970048773840027,22.33626588465298
29.981693777167887,34,120,1,0.009622136301113818,29.970462105613635,11.231671554252198
29.995429278059692,65,67,0,0.009000000000000001,29.9759082614419,19.521016617790814
