onset_time,pitch,velocity,voice_id,intended_onset,compensation_ms
0.03248289613569616,60,607,0,0.05061583846218687,18.132942326490713
0.050332644510343,58,553,0,0.06952130531190703,19.188660801564026
0.09204084650117016,56,435,0,0.11353644767419069,21.495601173020532
0.11439520126945563,66,688,1,0.13094456588333636,16.54936461388074
0.12232198307175222,58,429,0,0.14393488629755868,21.61290322580645
0.16402461435698767,85,661,1,0.18110183820840509,17.077223851417415
0.16708369607095278,72,674,1,0.18390676547466733,16.823069403714555
0.17553157500209707,68,431,1,0.19710537754364155,21.573802541544467
0.18044804815849533,66,498,1,0.20071197777726368,20.263929618768344
0.23232463845565035,56,451,0,0.2535074341545751,21.182795698924735
0.23498305629725685,52,552,0,0.2541912674409519,19.208211143695024
0.25270968065555827,68,601,1,0.2709599250348349,18.250244379276637
0.28303769000633006,61,411,0,0.3050024993904943,21.964809384164198
0.31646804237245657,67,570,1,0.3353243473577938,18.85630498533726
0.3460734135738129,72,541,1,0.3654966784809488,19.423264907135888
0.34860029632403666,64,436,1,0.3700763471549262,21.476050830889562
0.3498916574494785,76,668,1,0.366832028905979,16.940371456500486
0.37141074347452796,74,424,1,0.39312139841098936,21.710654936461367
0.39884978492666867,66,405,1,0.42093189636361883,22.08211143695013
0.4316766036703856,54,481,0,0.45227288910538066,20.59628543499508
0.4347575710521189,71,643,1,0.45218670106189407,17.42913000977518
0.4939957236435885,62,471,0,0.5147875124998935,20.791788856305004
0.5273915592858069,74,500,1,0.5476163882203133,20.224828934506377
0.5619165017043449,68,690,1,0.5784267656339637,16.51026392961876
0.5637197971463153,61,659,0,0.5808361216819946,17.116324535679382
0.5929790120383737,76,624,1,0.6107795985486375,17.800586510263884
0.6471229864732491,72,622,1,0.664962673667775,17.839687194525936
0.6529641873740109,72,624,1,0.6707647738842748,17.800586510263884
0.6869289207296162,58,575,0,0.7056874740042984,18.7585532746823
0.7059194087054739,62,424,0,0.7276300636419353,21.710654936461424
0.7190311410001274,64,566,0,0.7379656473539886,18.93450635386114
0.7291134749208754,60,696,0,0.7455064367977082,16.39296187683283
0.7371963309400117,64,438,1,0.7586332810866392,21.43695014662751
0.7514186243077319,74,608,1,0.7695320162920916,18.113391984359737
0.7895726185095194,67,466,1,0.8104621590764793,20.88954056695991
0.8080746557908542,64,516,1,0.8279866792512647,19.912023460410524
0.8229937698498766,66,610,0,0.8410680611499743,18.074291300097798
0.8319646286329554,64,695,0,0.8483771408519192,16.412512218963798
0.8347967785381492,72,578,1,0.8534966807864386,18.69990224828939
0.8500728777064768,77,522,1,0.8698675991141014,19.794721407624593
0.8501706228097209,75,561,1,0.8692028808742369,19.0322580645161
0.8638790772151872,64,458,0,0.884925020519195,21.04594330400778
0.8856054229292248,66,650,0,0.902897700544083,17.29227761485822
0.8934314238309212,70,438,1,0.9148683739775487,21.43695014662751
0.9736416890792776,66,472,1,0.9944139275934516,20.772238514173978
0.9964260835967825,64,599,0,1.014715428660321,18.289345063538576
0.9965832794787197,69,448,1,1.0178247262040374,21.2414467253177
1.0143374175870876,57,670,0,1.031238688359326,16.90127077223849
1.0509478748835865,79,472,1,1.0717201133977605,20.772238514173978
1.0890837429636069,76,653,1,1.1063173695520723,17.233626588465313
1.0926688602071635,67,547,0,1.1119748230615134,19.3059628543499
1.100535649246506,75,519,1,1.1203890216805235,19.8533724340175
1.117912187880943,73,631,1,1.1355759219962902,17.663734115347097
1.129766096854401,58,583,1,1.1483682473920354,18.602150537634316
1.1568753709968551,59,594,0,1.1752624677710488,18.38709677419365
1.15857632254755,63,566,1,1.1775108289014113,18.934506353861252
1.1779268191093122,61,613,0,1.195942459383017,18.015640273704776
1.1806613963938808,68,667,1,1.1976213181925122,16.959921798631513
1.2035201783598117,57,672,0,1.2203823484477883,16.862170087976438
1.2218480901829156,72,454,1,1.2429722348554473,21.124144672531656
1.2535669752259826,78,444,1,1.2748866233198242,21.31964809384158
1.260292211669611,66,503,1,1.2804583895777244,20.166177908113468
1.3181288240958502,72,408,1,1.3401522845064073,22.023460410557163
1.3416130940886166,76,404,1,1.3637147558676976,22.10166177908104
1.3736689182272255,74,560,1,1.3927207266338726,19.05180840664707
1.3762684631133832,75,650,1,1.3935607407282413,17.29227761485822
1.3830004651707144,65,622,0,1.4008401523652403,17.839687194525823
1.3874069584412048,70,452,1,1.4085702037979986,21.163245356793823
1.4296232077157502,58,546,0,1.448948720912231,19.32551319648087
1.4500603224868602,71,477,1,1.4707348092903794,20.67448680351913
1.4668716568077669,74,524,1,1.4866272775311296,19.755620723362654
1.4989286604751169,66,623,1,1.5167487973275118,17.820136852394853
1.5149118806231676,72,583,1,1.533514031160802,18.602150537634316
1.5357553429825894,73,683,1,1.552402459307125,16.647116324535773
1.5436568392230794,68,475,0,1.5643704267108605,20.71358748778107
1.6235279695347584,74,556,1,1.6426579793099294,19.130009775171175
1.6449744500241372,60,621,1,1.662833687560794,17.859237536656792
1.6687934459709124,69,483,1,1.6893506307216455,20.557184750733086
1.6760125108491946,58,567,0,1.6949274668609249,18.914956011730283
1.6906060791792505,73,600,1,1.7088758739006582,18.269794721407607
1.7134360989046487,50,584,0,1.7320186991001518,18.582600195503346
1.7173038903864533,59,694,1,1.7337359529475482,16.43206256109488
1.7368897168307815,79,674,1,1.753712786234496,16.8230694037145
1.7500559669121407,64,509,1,1.7701048427674682,20.048875855327424
1.7961433459223701,72,520,1,1.8159771680142567,19.833822091886532
1.8242424516282894,68,462,1,1.8452101935637732,20.9677419354839
1.8451521564465865,68,485,1,1.8656702405130576,20.518084066471147
1.9950513040942586,72,449,1,2.0162732004774453,21.22189638318673
2.045923372542493,80,599,1,2.064212717606032,18.289345063538576
2.077990437309719,71,457,1,2.0990559309558576,21.065493646138748
2.1659113126682374,65,684,1,2.1825388786506417,16.627565982404576
2.184735013477902,74,505,1,2.2048620907017535,20.127077223851302
2.190110058469727,76,410,1,2.2120944181960223,21.984359726295224
2.219584973659824,60,697,0,2.235958385194526,16.373411534701972
2.2622157505416065,66,658,0,2.279351625419417,17.135874877810238
2.2745569630791027,69,616,1,2.2925139523264146,17.956989247311867
2.285534871820793,80,452,1,2.3066981171775867,21.163245356793595
2.3075517367836498,73,407,1,2.329594747536338,22.043010752688133
2.3584575513609467,54,618,0,2.3763754399239967,17.917888563049928
2.366236755825741,63,433,1,2.3877714576830233,21.53470185728247
2.4773545753953785,77,546,1,2.4966800885918596,19.325513196481097
2.4978244111614143,77,503,1,2.5179905890695276,20.16617790811324
2.5694909205945,59,598,0,2.587799816000169,18.308895405669773
2.573618498535799,78,480,1,2.594234334312925,20.615835777125994
2.6312709886452113,60,473,0,2.6520236768172545,20.752688172043236
2.666099107045942,82,477,1,2.686773593849461,20.674486803518903
2.672461635007006,59,513,1,2.6924323094938094,19.970674486803546
2.6997993683895585,63,427,1,2.7214513722996267,21.652003910068288
2.752726785823057,64,456,0,2.7738118298113266,21.085043988269717
2.78568061365587,59,407,0,2.807723624408558,22.043010752688133
2.7918573158376394,54,640,0,2.8093450968738076,17.487781036168144
2.817690631789786,79,508,1,2.8377590579872445,20.068426197458393
2.840024088625059,60,660,0,2.8571208628186073,17.0967741935483
2.8668298408252784,74,506,1,2.8869373677069987,20.107526881720332
2.8669409185218147,66,544,1,2.8863055324025577,19.364613880743036
2.8762730824123626,63,448,0,2.8975145291376805,21.241446725317473
2.9013976094968545,52,509,0,2.9214464853521815,20.048875855327424
2.914517380811501,63,667,1,2.9314773026101326,16.959921798631513
2.9241663400506956,65,495,0,2.944488920695857,20.32258064516145
3.023311970162337,57,557,0,3.0424224295953772,19.110459433039978
3.0895397371957225,65,497,0,3.109823217156622,20.283479960899513
3.096006166563709,73,455,0,3.1171107608941098,21.104594330400687
3.1585000478613563,60,433,0,3.1800347497186388,21.53470185728247
3.1689424291251957,76,584,1,3.187525029320699,18.582600195503346
3.173673354133436,71,648,1,3.1910047324325563,17.331378299120388
3.1856989879382773,68,404,0,3.2078006497173583,22.10166177908104
3.2160201255282623,73,472,1,3.2367923640424365,20.772238514174205
3.3206891525488853,70,422,1,3.3424389081696084,21.749755620723136
3.3478511885863225,68,604,1,3.366042781939206,18.1915933528835
3.3733770893726374,66,669,0,3.390297910487007,16.920821114369573
3.378407506693369,70,494,1,3.3987496376806616,20.34213098729242
3.391310084837119,53,679,0,3.4080354025301784,16.725317693059424
3.3923350647547847,58,597,0,3.410663510502585,18.328445747800743
3.4433133160936302,60,504,1,3.4634599436596125,20.14662756598227
3.486256819737524,63,531,1,3.5058755880659698,19.61876832844564
3.4875567726371113,63,430,0,3.5091501255207866,21.59335288367538
3.525410237209329,66,470,1,3.546221576407765,20.811339198436144
3.541984851028745,69,627,0,3.559726786512616,17.741935483870748
3.56284887879561,52,419,0,3.5846572854427263,21.8084066471165
3.571266718067869,77,663,1,3.5883048412350247,17.03812316715539
3.5774823821877764,64,643,0,3.5949115121975517,17.429130009775236
3.658779518785885,67,560,0,3.677831327192532,19.05180840664707
3.6846917024006234,83,510,1,3.70472102791382,20.029325513196454
3.7075987576109206,76,548,1,3.72688517012314,19.286412512219158
3.7124968773625344,70,481,1,3.7330931627975295,20.596285434995025
3.724120641064045,54,446,0,3.745401188473625,21.280547409579867
3.7260803915787983,65,684,0,3.742707957561203,16.627565982404576
3.72895117070264,60,656,0,3.746126146264712,17.174975562072177
3.74571413487905,49,671,0,3.762595855309158,16.881720430107634
3.81991905635186,72,563,1,3.8389122137321143,18.99315738025416
3.862706104684965,56,563,0,3.881699262065219,18.99315738025416
3.869895575220419,64,403,0,3.892016787341631,22.12121212121201
3.9044803997395503,70,513,1,3.924451074226354,19.970674486803546
3.98871565274153,58,567,1,4.00763060875326,18.914956011730283
4.082099025077705,56,423,0,4.103829230356297,21.730205278592166
4.131078698840973,71,659,1,4.148195023376652,17.11632453567927
4.153904752895415,58,501,0,4.17411003148779,20.20527859237518
4.1657990905629605,73,414,1,4.187705248920731,21.906158357771346
4.230072483597516,71,406,1,4.252135044692334,22.062561094819102
4.298071887300923,64,441,0,4.319450186421157,21.37829912023426
4.367984001777769,56,423,0,4.389714207056361,21.73020527859262
4.398325541593007,59,666,0,4.41530501373377,16.979472140762482
4.4871911087216585,65,601,1,4.505441353100935,18.25024437927641
4.488540341607303,84,519,1,4.508393714041321,19.85337243401773
4.526906248850753,62,588,0,4.545410647677732,18.504398826979923
4.541530731710927,56,554,0,4.56069984217036,19.169110459432886
4.574925499821519,75,694,1,4.591357562382613,16.432062561094426
4.603430470458921,76,684,1,4.620058036441327,16.62756598240503
4.606377524340248,78,490,1,4.626797856696064,20.420332355815844
4.607546574821216,70,624,1,4.625347161331479,17.80058651026411
4.615253844121228,65,423,0,4.636984049399821,21.73020527859262
4.637260728734181,51,577,0,4.655980181324601,18.719452590420588
4.699017017466392,63,678,1,4.715761885501584,16.744868035190848
4.896755036603319,69,542,0,4.916158751168323,19.40371456500452
4.905408701414522,77,472,1,4.926180939928696,20.772238514174205
4.944982120106205,64,579,1,4.963662472012364,18.68035190615865
4.95052024953969,54,411,0,4.972485058923855,21.964809384164255
4.963609301197339,76,508,1,4.983677727394797,20.068426197458393
5.016039766222079,71,607,1,5.034172708548569,18.132942326490593
5.035583353022071,57,668,0,5.052523724478571,16.940371456500543
5.095036891835185,67,594,0,5.113423988609378,18.387096774193196
5.097703062407883,67,559,1,5.116774421156661,19.07135874877804
5.1000605927679805,64,467,0,5.12093058299281,20.869990224829053
5.121351392086867,69,586,1,5.139894891598108,18.543499511241862
5.142407197576958,65,481,0,5.163003483011953,20.59628543499548
5.171415503846174,55,691,0,5.187906217433661,16.490713587487335
5.18444048521573,82,655,1,5.201635011119934,17.194525904203147
5.207650874465102,61,528,0,5.227328293819941,19.677419354839003
5.279584962445695,58,669,0,5.296505783560065,16.920821114369573
5.304007717500218,73,415,1,5.325894325515859,21.886608015640377
5.377366491690811,72,637,1,5.394912923753372,17.546432062561507
5.471709462310471,64,483,0,5.4922666470612045,20.55718475073354
5.499254115995099,77,521,1,5.519068387744856,19.81427174975579
5.503844242537398,63,684,1,5.520471808519803,16.62756598240503
5.522807387284094,53,474,0,5.543540525114007,20.733137829912266
5.628812114639849,78,532,1,5.648411332626164,19.599217986315125
5.727204250078688,71,638,1,5.744731131799119,17.526881720430538
5.745004813789343,65,620,1,5.762883601668132,17.87878787878799
5.751081857016279,52,616,0,5.769038846263591,17.956989247311867
5.760817050235445,52,410,0,5.78280140996174,21.984359726295224
5.787398654295586,71,589,1,5.805883502780435,18.484848484848044
5.82459961971976,59,586,0,5.843143119231002,18.543499511241862
5.846974230062163,69,438,1,5.868411180208791,21.43695014662717
5.902219979920523,62,413,0,5.924145688620425,21.925708699902316
5.910621244800218,68,574,1,5.929399348417031,18.778103616813496
5.916657673370398,77,549,1,5.935924535540487,19.266862170087734
5.924053976590755,73,652,1,5.941307153521351,17.253176930596055
5.990045523101687,57,455,0,6.011150117432088,21.104594330400687
6.036956404712566,76,471,1,6.057748193568871,20.791788856305175
6.053835615788577,56,429,0,6.075448519014383,21.612903225806804
6.076396027971012,55,550,0,6.095643339798968,19.247311827956764
6.114925231305513,77,553,1,6.134113892107077,19.188660801563856
6.133698855456996,68,697,0,6.150072266991698,16.373411534701518
6.161194428039369,74,507,1,6.181282404578958,20.087976539589363
6.169095209326818,68,664,1,6.186113782151843,17.01857282502442
6.210459010389416,71,591,0,6.228904758190002,18.445747800586105
6.221694357083716,63,522,1,6.24148907849134,19.79472140762482
6.256855701779672,73,500,1,6.277080530714178,20.22482893450615
6.272390344631685,58,663,0,6.28942846779884,17.03812316715539
6.298108192079224,51,498,0,6.318372121697992,20.26392961876809
6.329010799976535,53,413,0,6.350936508676438,21.925708699902316
6.398175699079535,61,402,0,6.420316461542877,22.14076246334298
6.418714884980578,70,446,1,6.439995432390157,21.280547409579412
6.431815880634088,62,516,0,6.451727904094499,19.912023460410637
6.4381931447999285,59,689,0,6.454722959071678,16.529814271750183
6.442759901097049,62,695,1,6.459172413316012,16.412512218963457
6.479114914225812,54,654,0,6.496328990472147,17.214076246334116
6.496872505219522,74,648,1,6.514203883518642,17.331378299119933
6.498742604801176,53,467,0,6.519612595026006,20.869990224829053
6.556099597490237,55,510,0,6.576128923003433,20.029325513196454
6.565694869464133,71,448,0,6.58693631618945,21.241446725317473
6.620025436617683,63,681,1,6.636711653626481,16.68621700879794
6.653632126168238,69,412,1,6.675577385210271,21.945259042033285
6.659864073428847,73,461,1,6.680851365706461,20.98729227761487
6.707403524602252,57,625,0,6.725184560770384,17.78103616813314
6.76312340242348,63,663,1,6.780161525590636,17.03812316715539
6.813868184005539,54,577,1,6.832587636595959,18.719452590420588
6.822731047135254,64,532,0,6.842330265121569,19.599217986315125
6.826070278813476,61,448,0,6.847311725538793,21.241446725317473
6.866633934951848,64,645,1,6.88402396427736,17.39002932551284
6.938925633128342,66,446,1,6.960206180537922,21.280547409579412
6.952083118652583,60,610,0,6.97015740995268,18.074291300097684
6.953762789770453,72,489,1,6.974202672468399,20.439882697946814
6.956523023339953,75,604,1,6.974714616692836,18.1915933528835
6.9642075605298075,50,644,0,6.981617140197452,17.40957966764381
7.002141890856603,60,638,0,7.019668772577034,17.526881720430538
7.051086245382276,74,445,1,7.072386343133986,21.300097751710382
7.103972076622963,56,623,0,7.121792213475358,17.82013685239508
7.141393842726176,71,597,1,7.159722288473976,18.328445747800288
7.17105533727745,74,542,1,7.1904590518424545,19.40371456500452
7.181352657738359,78,562,1,7.200365365460744,19.01270772238513
7.202815946122574,73,519,1,7.2226693185565916,19.85337243401773
7.244442173981259,69,692,0,7.260913337226615,16.471163245356365
7.262601149523815,73,548,1,7.281887562036033,19.286412512218703
7.276638518473504,64,541,0,7.29606178338064,19.42326490713549
7.303834364086862,75,415,1,7.325720972102503,21.886608015640377
7.329566743024196,56,453,0,7.350710438038858,21.143695014662626
7.355471914137562,64,535,1,7.3750124810974835,19.540566959922216
7.440458567825299,62,512,0,7.460448792654233,19.990224828934515
7.459172980648142,64,669,1,7.476093801762511,16.920821114369573
7.488698836056678,64,642,0,7.506147516408584,17.44868035190575
7.530424365142837,79,463,1,7.55137255673619,20.94819159335293
7.583578696648575,75,578,1,7.6022785988968655,18.699902248289618
7.588564073656756,67,548,0,7.607850486168974,19.286412512218703
7.607216378423524,70,646,1,7.624586857406905,17.370478983381872
7.614699192819505,69,442,1,7.636057941597608,21.35874877810329
7.65337849048429,69,588,1,7.671882889311269,18.504398826979923
7.664874901108526,63,621,1,7.682734138645182,17.85923753665702
7.673844287931098,80,456,1,7.694929331919369,21.085043988269717
7.679006889734887,58,464,0,7.699935530986108,20.92864125122196
7.690953711238733,64,422,0,7.712703466859457,21.74975562072359
7.704529804403523,62,618,0,7.722447692966574,17.917888563049928
7.846412020988365,71,663,1,7.863450144155521,17.03812316715539
7.896816830220361,56,564,0,7.915790437258485,18.97360703812319
7.928865723588528,58,550,0,7.948113035416484,19.247311827956764
7.95593177032148,74,597,1,7.974260216069281,18.328445747800288
7.976045397705433,69,608,1,7.994158789689792,18.113391984359623
7.978369064875588,74,471,1,7.999160853731894,20.791788856305175
8.01173096691853,76,675,1,8.028534485980114,16.803519061583756
8.015616174660744,65,455,0,8.036720768991145,21.104594330400687
8.048397402368163,78,654,1,8.065611478614498,17.214076246334116
8.112675780450337,71,699,1,8.129010091300776,16.33431085043958
8.12659098424713,56,609,0,8.144684825889358,18.093841642228654
8.139298991841661,68,561,1,8.158331249906178,19.0322580645161
8.153287495658297,62,566,0,8.172222002012159,18.934506353861252
8.154249889134165,80,502,1,8.17443561738441,20.18572825024421
8.206875596821412,55,556,0,8.226005606596583,19.130009775171857
8.22666303168551,67,504,1,8.246809659251491,20.14662756598227
8.267287114979705,52,507,0,8.287375091519294,20.087976539589363
8.289664263605543,66,689,1,8.306194077877292,16.529814271749274
8.36384423186211,71,540,1,8.383287047111379,19.44281524926737
8.426690548599726,61,406,0,8.448753109694545,22.062561094819102
8.475740768944204,73,474,1,8.496473906774115,20.733137829911357
8.488544563669691,74,651,1,8.505817290942419,17.272727272727934
8.566366032604117,67,626,0,8.584127518430119,17.761485826002172
8.602322115958513,74,565,1,8.621276172654506,18.954056695991312
8.607009521485049,78,684,1,8.623637087467452,16.62756598240412
8.653880566055193,56,673,0,8.670723185801037,16.842619745844786
8.667172427600828,76,639,1,8.684679758979128,17.50733137829957
8.683481407631,75,639,1,8.700988739009299,17.50733137829957
8.696411817041762,74,408,1,8.71843527745232,22.023460410557163
8.711560020543164,70,619,1,8.729458358764083,17.89833822091896
8.719002272348321,78,676,1,8.735786241067773,16.783968719451877
8.720358629644425,59,695,1,8.736771141863388,16.412512218963457
8.820116914150384,70,627,1,8.837858849634257,17.741935483871202
8.853239609220086,55,633,0,8.870864242651173,17.624633431085385
8.87089233339163,74,686,1,8.887480798689772,16.588465298142182
8.878420964607725,54,428,0,8.900053418175663,21.632453567937773
8.908649613443279,66,668,0,8.925589984899778,16.940371456499633
8.921359848104885,78,636,1,8.938925830509577,17.565982404692477
8.948480384495113,74,542,1,8.967884099060118,19.40371456500543
8.985695723148456,58,589,0,9.004180571633304,18.484848484848044
9.021440317371502,79,504,1,9.041586944937483,20.14662756598227
9.037211748552362,58,685,0,9.053819764192637,16.608015640273152
9.048034892636673,67,681,1,9.06472110964547,16.68621700879703
9.054931601431019,65,474,0,9.07566473926093,20.733137829911357
9.089535774557193,75,525,1,9.109271844938425,19.73607038123191
9.151757455502192,77,441,1,9.173135754622429,21.37829912023517
9.226728327176838,77,653,1,9.243961953765304,17.233626588465995
9.273202706525126,82,483,1,9.293759891275858,20.55718475073263
9.279899299574312,62,661,0,9.29697652342573,17.07722385141824
9.304398856116672,80,676,1,9.321182824836123,16.783968719451877
9.310168509004454,79,659,1,9.327284833540133,17.116324535680178
9.326905729312827,81,677,1,9.343670147690148,16.764418377320908
9.339934838382003,63,429,0,9.36154774160781,21.612903225806804
9.345921588247109,55,441,0,9.367299887367345,21.37829912023517
9.37820544692244,61,676,0,9.394989415641891,16.783968719451877
9.383485209948502,60,572,0,9.402302414249576,18.817204301074526
9.394716513962708,70,515,0,9.41464808776525,19.931573802541607
9.408794008822163,58,496,0,9.429097039125192,20.303030303030027
9.427877407664836,67,540,1,9.447320222914103,19.44281524926737
9.483360830485639,65,562,1,9.502373538208024,19.01270772238604
9.487254265074487,56,572,0,9.506071469375561,18.817204301074526
9.530793569095284,66,621,0,9.54865280663194,17.85923753665702
9.59158305759398,57,495,0,9.611905638239142,20.322580645160997
9.603759361933331,67,475,0,9.624472949421111,20.713587487780387
9.619005244988324,63,655,0,9.636199770892528,17.194525904204056
9.67402984595017,73,477,1,9.69470433275369,20.674486803518448
9.67491196420663,71,608,0,9.69302535619099,18.113391984359623
9.678202093872368,65,632,0,9.695846277645586,17.644183773216355
9.711620699039608,64,589,0,9.730105547524456,18.484848484848044
9.727535564442702,50,695,0,9.743948076661665,16.412512218963457
9.823425521600527,65,481,1,9.84402180703552,20.59628543499457
9.838782155964267,63,628,0,9.856504541106007,17.722385141740233
9.842249152402706,57,626,0,9.860010638228708,17.761485826002172
9.851461195397732,70,445,1,9.872761293149445,21.30009775171129
9.8590127536653,62,603,1,9.877223897360315,18.21114369501447
9.887407236233518,51,632,0,9.905051420006734,17.644183773216355
9.94972125441452,79,683,1,9.966368370739055,16.64711632453509
9.959214028109523,72,505,1,9.979341105333376,20.127077223851302
9.980278806293175,68,521,1,10.00009307804293,19.81427174975579
9.989889882688637,63,750,1,10.005227126090396,15.337243401760134
9.992930667502828,63,619,1,10.010829005723746,17.89833822091896
10.019881719274808,66,766,1,10.034906157202473,15.024437927664621
10.033505465532295,78,638,1,10.051032347252725,17.526881720430538
10.036441097561692,68,584,1,10.055023697757195,18.58260019550289
10.052180261180196,49,799,1,10.066559537817536,14.379276637340809
10.05485907228243,78,642,1,10.072307752634337,17.44868035190666
10.05848203848351,51,899,1,10.070906280907751,12.424242424242038
10.062782553382412,31,685,1,10.079390569022685,16.608015640273152
10.066919173741645,71,749,1,10.082275967485536,15.356793743891103
10.07050826925177,51,516,1,10.09042029271218,19.912023460410637
10.072715453050291,70,830,1,10.086488669081572,13.773216031280754
10.073286899909967,71,528,0,10.092964319264805,19.677419354839003
10.076712514390733,51,668,0,10.093652885847233,16.940371456499633
10.078618201061216,46,596,0,10.096966197151147,18.347996089931257
10.082663375262507,61,687,0,10.099232290218518,16.568914956011213
10.089860100099132,66,532,1,10.109459318085449,19.599217986315125
10.12248146802785,62,617,1,10.140418906933032,17.937438905180898
10.13532707088944,57,603,0,10.153538214584454,18.21114369501447
10.136418491508493,62,690,1,10.152928755438111,16.510263929618304
10.153230518371442,55,806,1,10.167472942613866,14.242424242424022
10.158741621906751,62,724,0,10.174587174203916,15.84555229716534
10.15928557743237,53,629,0,10.176988412231978,17.702834799609263
10.173145834020739,74,718,0,10.189108688370691,15.962854349951158
10.175947464151259,64,833,1,10.189662029156146,13.714565004887845
10.179799995783823,45,832,0,10.193534111130841,13.734115347018815
10.179919924502377,41,519,1,10.199773296936396,19.85337243401773
10.187326145136463,48,554,0,10.206495255595897,19.169110459433796
10.188020201915807,46,659,0,10.205136526451486,17.116324535680178
10.20421131506352,59,863,0,10.217339369804478,13.12805474095876
10.213549821403248,53,733,1,10.229219420621236,15.669599217986615
10.225068239249783,55,581,1,10.24370949047168,18.6412512218958
10.228150241015557,62,770,0,10.243096477574696,14.946236559138924
10.230451801450544,64,655,0,10.247646327354747,17.194525904204056
10.230981598652113,77,603,1,10.249192742347129,18.21114369501447
10.238456476845101,50,742,1,10.253950122983909,15.49364613880789
10.23977615762762,50,874,0,10.252689158605136,12.913000977516276
10.244464479423437,51,763,1,10.259547568377496,15.08308895405753
10.246006102002486,60,531,0,10.265624870330932,19.618768328446095
10.247655598962753,61,621,0,10.26551483649941,17.85923753665702
10.251890228641233,61,664,0,10.26890880146626,17.01857282502533
10.253526578014284,56,722,1,10.269411230995711,15.88465298142728
10.271873464530453,47,644,0,10.289283044198097,17.40957966764472
10.292151749665365,58,754,0,10.3074107916986,15.259042033236256
10.29604192194886,38,608,1,10.314155313933218,18.113391984359623
10.296810127361379,65,766,1,10.311834565289043,15.024437927664621
10.314361884051342,83,600,1,10.33263167877275,18.26979472140738
10.318361811931428,55,667,1,10.33532173373006,16.959921798630603
10.319142012188083,61,847,0,10.332582872403137,13.440860215054272
10.322950940923278,74,887,0,10.335609787453091,12.658846529813673
10.330834656659574,58,790,0,10.345389886376093,14.555229716519534
10.35251496062718,71,848,0,10.365936270500104,13.421309872923302
10.369173338638062,64,700,1,10.38548809914637,16.31476050830861
10.381484233187496,65,596,1,10.399832229277429,18.347996089931257
10.38298194400507,65,521,1,10.402796215754826,19.81427174975579
10.385140559522274,60,675,1,10.401944078583856,16.803519061582847
10.387824352932652,61,657,1,10.404979778152594,17.155425219942117
10.402348959338857,81,848,0,10.41577026921178,13.421309872923302
10.430004904214506,69,542,1,10.449408618779511,19.40371456500543
10.435373421216736,52,649,1,10.452685249173726,17.311827956989873
10.438869894180316,55,667,1,10.455829815978946,16.959921798630603
10.443117276906706,66,530,1,10.462755595577285,19.638318670577064
10.447454654148842,59,778,0,10.462244487970933,14.789833822091168
10.450782800520749,75,633,0,10.468407433951834,17.624633431085385
10.469206570996839,64,873,0,10.482139122316486,12.932551319647246
10.474946668895988,46,536,1,10.494467685513781,19.521016617791247
10.481967838257432,47,705,0,10.498184847055086,16.21700879765376
10.483563249618232,49,683,1,10.500210365942767,16.64711632453509
10.486337190790303,57,853,1,10.499660748952572,13.323558162268455
10.497982347040956,56,732,0,10.513671496601074,15.689149560117585
10.506516748296116,78,695,0,10.522929260515081,16.412512218963457
10.509107258731701,51,693,1,10.525558871634926,16.451612903225396
10.519786941167958,56,716,1,10.535788896202172,16.001955034213097
10.52342846766415,38,748,0,10.538804811750174,15.376344086022073
10.524898553703506,52,716,0,10.54090050873772,16.001955034213097
10.527381077282893,44,888,1,10.540020373470576,12.639296187682703
10.532720030632161,49,813,1,10.546825602479668,14.105571847507235
10.535022617735372,60,663,1,10.55206074090253,17.0381231671563
10.539212833855355,51,707,0,10.555390741968747,16.177908113391823
10.545157461528346,54,574,1,10.563935565145158,18.778103616812587
10.551710197396005,52,687,1,10.568279112352016,16.568914956011213
10.55213593355902,50,618,0,10.57005382212207,17.917888563049928
10.56063346384259,60,619,1,10.578531802063509,17.89833822091896
10.565913493283567,61,576,1,10.584652496216119,18.739002932550648
10.598581841701,67,700,1,10.614896602209308,16.31476050830861
10.604156554205685,62,663,1,10.621194677372841,17.0381231671563
10.61166412584491,39,717,1,10.627646530536992,15.982404692082127
10.611782623039826,68,513,0,10.631753297526629,19.970674486803546
10.626435225069695,66,767,0,10.641440112655228,15.004887585533652
10.637373735344877,46,897,1,10.64983707845338,12.463343108503977
10.640954523284512,73,609,0,10.659048364926742,18.093841642228654
10.64436627750095,37,828,1,10.658178594216494,13.812316715542693
10.646068682990485,36,725,1,10.66189468494552,15.826001955034371
10.648346723545929,80,507,1,10.668434700085518,20.087976539589363
10.655865872855122,54,657,1,10.673021298075064,17.155425219942117
10.663613812711949,63,654,1,10.680827888958284,17.214076246335026
10.66846253485592,52,522,1,10.688257256263546,19.79472140762482
10.6720206399777,66,857,0,10.685265996771445,13.245356793744577
10.68822897313319,49,874,0,10.701141974110708,12.913000977516276
10.699222240896853,53,830,0,10.712995456928134,13.773216031280754
10.737104612897701,63,831,0,10.75085827858685,13.753665689149784
10.738254407090299,50,660,1,10.755351181283848,17.09677419354921
10.746181602833099,53,680,1,10.762887370184028,16.705767350928
10.75670582982283,67,680,0,10.773411597173757,16.705767350928
10.766957811474347,45,629,0,10.784660646273956,17.702834799609263
10.774783545475831,75,581,0,10.793424796697728,18.6412512218958
10.783557862666688,46,593,1,10.801964509783012,18.406647116324166
10.787592496809966,53,639,0,10.805099828188267,17.50733137829957
10.798153803772248,52,702,1,10.814429463596294,16.27565982404667
10.800380854228465,62,527,0,10.820077823925434,19.696969696969973
10.803388275448777,60,657,1,10.820543700668718,17.155425219942117
10.824259477023686,65,588,1,10.842763875850665,18.504398826979013
10.825460772571962,74,593,1,10.843867419688285,18.406647116324166
10.826536422722448,72,652,0,10.843789599653045,17.253176930596965
10.832048309145895,47,770,1,10.846994545705034,14.946236559138924
10.848438682116889,73,728,0,10.86420603304553,15.767350928641463
10.86547836769938,61,615,1,10.883454907288822,17.976539589442837
10.875900240114689,43,706,1,10.892097698570211,16.197458455522792
10.889350813968294,60,661,1,10.906428037819714,17.07722385141824
10.893180266092381,57,638,0,10.910707147812811,17.526881720430538
10.89449648438206,54,600,0,10.912766279103467,18.26979472140738
10.898667477938774,52,653,0,10.91590110452724,17.233626588465995
10.916355083363737,55,882,0,10.929111681604205,12.75659824046852
10.917568524237279,54,851,0,10.930931183083809,13.362658846530394
10.919218199871198,65,550,0,10.938465511699157,19.247311827957674
10.925621901104858,44,505,1,10.945748978328709,20.127077223851302
10.929455900798631,73,653,0,10.946689527387099,17.233626588465995
10.934971135412777,50,867,1,10.948020988785213,13.049853372434882
10.937111669253733,49,892,1,10.949672764072892,12.561094819158825
10.953311108159056,61,578,0,10.972011010407345,18.69990224828871
10.96816125835067,54,723,0,10.984026360989965,15.86510263929631
10.977948169521188,46,665,1,10.994947192004082,16.99902248289436
10.985184302546125,52,850,1,10.998566511734786,13.382209188661363
10.988396364153605,90,716,1,11.004398319187818,16.001955034213097
10.992307523009707,63,731,1,11.008016222911955,15.708699902248554
10.992695334475728,54,770,1,11.007641571034867,14.946236559138924
11.006281122444753,66,589,0,11.0247659709296,18.484848484848044
11.007731050725866,73,541,0,11.027154315633002,19.4232649071364
11.008691985536917,40,806,1,11.02293440977934,14.242424242424022
11.010898197607869,55,731,1,11.026606897510117,15.708699902248554
11.027897470835114,72,517,1,11.047789943953394,19.892473118279668
11.03117182976659,81,816,1,11.045218750587704,14.046920821114327
11.03237900610146,87,854,0,11.045683013921597,13.304007820137485
11.033487858213745,74,692,0,11.0499590214591,16.471163245356365
11.04669787069334,62,844,0,11.060197381934788,13.49951124144718
11.05148591813498,62,698,0,11.06783977932755,16.353861192570548
11.077665489228929,79,760,1,11.092807229209381,15.141739980450438
11.102118489126443,33,610,0,11.120192780426542,18.074291300097684
11.108158217884386,72,796,1,11.122596145548119,14.437927663733717
11.112446867596324,53,857,0,11.125692224390068,13.245356793744577
11.114020996056553,70,728,1,11.129788346985196,15.767350928641463
11.125213610074278,88,780,0,11.139964343212107,14.75073313782923
11.128843467841394,76,810,1,11.143007690715294,14.164222873900144
11.165687306333425,46,883,1,11.178424354231762,12.73704789833755
11.186874978188337,62,794,0,11.201352006536332,14.477028347995656
11.199378389212134,68,850,1,11.212760598400795,13.382209188661363
11.203735481920681,51,897,0,11.216198825029185,12.463343108503977
11.213780542167125,96,729,1,11.229528342753635,15.747800586510493
11.233903363542543,67,731,1,11.249612063444793,15.708699902248554
11.240365528585327,56,623,1,11.258185665437722,17.82013685239508
11.248848748860693,57,778,0,11.263638582682784,14.789833822091168
11.262264184230915,56,598,0,11.280573079636584,18.30889540566932
11.267012785938201,38,860,0,11.280199491705552,13.186705767351668
11.267957462056676,79,769,1,11.282923248957946,14.965786901269894
11.272247301328791,49,827,0,11.286079168386465,13.831867057673662
11.274647856504792,53,762,1,11.28975049580098,15.1026392961885
11.289669067120021,46,887,1,11.302327913649835,12.658846529813673
11.291016005118108,62,656,0,11.308190980680182,17.174975562073087
11.301472919344976,73,707,0,11.317650827458367,16.177908113391823
11.302051092209155,68,500,1,11.32227592114366,20.22482893450615
11.308517185027727,56,641,1,11.325985415721766,17.46823069403763
11.319805448935849,70,689,0,11.336335263207598,16.529814271749274
11.32514902561899,63,782,0,11.339860658072558,14.71163245356729
11.32594044295814,39,819,1,11.339928712752862,13.988269794721418
11.32720304867369,61,592,1,11.345629246132145,18.426197458455135
11.34032859581546,78,577,1,11.359048048405882,18.719452590419678
11.341885332586934,56,707,0,11.358063240700325,16.177908113391823
11.354284963257305,77,859,1,11.367491219366787,13.206256109482638
11.373386735727847,57,777,0,11.388196119892068,14.809384164222138
11.382413807917123,56,701,0,11.3987090180833,16.29521016617764
11.38535648274492,55,834,0,11.399051497407676,13.695014662756876
11.386382483142803,48,714,0,11.402423538861278,16.041055718475036
11.399095450189133,59,712,1,11.415175606591871,16.080156402736975
11.414720083059896,47,547,1,11.434026045914246,19.305962854350582
11.420076175809731,60,820,1,11.434044895262321,13.968719452590449
11.421071909085104,63,696,0,11.437464870961936,16.392961876832487
11.435387524478017,58,710,0,11.451506781565016,16.119257086998914
11.455780699555918,43,510,0,11.475810025069116,20.029325513196454
11.459493676374262,71,636,1,11.477059658778954,17.565982404692477
11.463365189107646,49,573,1,11.48216284306659,18.797653958943556
11.512603296408926,73,777,1,11.527412680573148,14.809384164222138
11.517470367055905,46,641,0,11.534938597749942,17.46823069403763
11.544958726214503,80,697,1,11.561332137749204,16.373411534701518
11.552539550884523,64,812,1,11.566664673074161,14.125122189638205
11.553232683122328,56,870,0,11.566223885468368,12.991202346040154
11.558751651275674,55,794,1,11.57322867962367,14.477028347995656
11.572141765890239,44,888,0,11.584781062077921,12.639296187682703
11.574977189876865,73,667,1,11.591937111675495,16.959921798630603
11.576349382604226,53,512,0,11.596339607433162,19.990224828934515
11.580780482545746,48,850,1,11.594162691734407,13.382209188661363
11.590550767433479,73,857,1,11.603796124227223,13.245356793744577
11.592699113392781,59,603,0,11.610910257087795,18.21114369501447
11.598063198606265,63,677,0,11.614827616983586,16.764418377320908
11.614443090652173,27,507,1,11.634531067191762,20.087976539589363
11.61610430254253,38,817,0,11.630131673021513,14.027370478983357
11.624667419722824,39,614,1,11.642663509654398,17.996089931573806
11.625687534359171,50,851,0,11.639050193205701,13.362658846530394
11.62621168505222,75,548,0,11.645498097564442,19.286412512219613
11.635774449599301,57,503,0,11.655940627507414,20.16617790811324
11.636929054332004,47,528,1,11.656606473686843,19.677419354839003
11.651227969949424,43,520,1,11.67106179204131,19.83382209188676
11.655132013196909,59,872,0,11.668084114858686,12.952101661778215
11.666509085260182,55,637,1,11.684055517322744,17.546432062561507
11.680643395792517,66,898,1,11.69308718855889,12.443792766373008
11.684847407371732,57,512,0,11.704837632200666,19.990224828934515
11.702380275176798,47,669,1,11.719301096291167,16.920821114368664
11.70310962170098,61,795,1,11.717567099706844,14.457478005864687
11.708007544848583,71,618,1,11.725925433411632,17.917888563049928
11.71031813022768,65,763,0,11.725401219181737,15.08308895405753
11.714436484792675,51,538,0,11.733918400726205,19.481915933529308
11.721153468394045,57,502,1,11.741339196644288,20.18572825024421
11.72993594018682,44,523,1,11.749711111252314,19.77517106549385
11.73259934867019,60,514,0,11.752550472814862,19.951124144672576
11.734661365371492,41,764,1,11.749724903983418,15.06353861192656
11.740546732856986,61,722,1,11.756431385838415,15.88465298142728
11.748787073088234,62,612,1,11.766822263704071,18.035190615835745
11.78075060332826,74,839,1,11.794347866280361,13.597262952102028
11.781596369166433,67,872,1,11.794548470828211,12.952101661778215
11.809299941611602,53,885,1,11.821997888825678,12.697947214075612
11.81543185236066,54,738,1,11.831003699867992,15.571847507331768
11.823550267769022,34,764,1,11.838613806380948,15.06353861192656
11.836213868667942,76,515,1,11.856145442470485,19.931573802541607
11.83840179336573,79,656,0,11.855576768927804,17.174975562073087
11.842599257310743,55,642,1,11.86004793766265,17.44868035190666
11.846102932444474,70,871,1,11.859074584448383,12.971652003909185
11.880695177981911,44,529,0,11.90035304699462,19.657869012708034
11.882234120409985,48,653,0,11.89946774699845,17.233626588465995
11.912059858594532,63,516,1,11.931971882054942,19.912023460410637
11.920800461097063,62,785,1,11.935453442524237,14.652981427174382
11.923838132765322,53,894,0,11.936360126900219,12.521994134896886
11.957832714700919,62,563,0,11.976825872081172,18.99315738025325
11.958909200148042,84,800,1,11.973268926443252,14.359726295209839
11.964427285352494,56,848,0,11.977848595225417,13.421309872923302
11.97256842259706,51,537,1,11.99206988887272,19.501466275660277
11.979179578911088,51,605,1,11.99735162192184,18.17204301075253
11.9883863965961,69,749,1,12.003743190339993,15.356793743891103
12.006012890273606,71,503,1,12.02617906818172,20.16617790811324
12.007156246098642,57,731,1,12.02286494600089,15.708699902248554
12.015259723958629,54,518,0,12.035132646734777,19.872922776148698
12.023709062389914,46,836,0,12.037364976368409,13.655913978494937
12.037118309915662,48,761,0,12.052240499553982,15.122189638319469
12.044855092449435,62,685,0,12.06146310808971,16.608015640273152
12.049526959335415,80,503,1,12.069693137243528,20.16617790811324
12.051831458306035,60,670,1,12.068732729078272,16.901270772237694
12.057492350496082,62,671,0,12.07437407092619,16.881720430106725
12.05985938022501,59,639,1,12.077366711603311,17.50733137829957
12.061712952222232,78,638,1,12.079239833942662,17.526881720430538
12.06200078166481,44,886,1,12.074679178536755,12.678396871944642
12.069147255444934,68,862,0,12.082294860528023,13.14760508308973
12.103118249669434,67,652,0,12.120371426600032,17.253176930596965
12.10795611901656,40,785,1,12.122609100443736,14.652981427174382
12.120653437284183,41,507,1,12.140741413823772,20.087976539589363
12.129054524379873,51,540,1,12.148497339629142,19.44281524926737
12.135280568814116,52,682,0,12.151947235480781,16.66666666666606
12.135803677129884,69,766,1,12.150828115057548,15.024437927664621
12.138202170728292,64,522,0,12.157996892135916,19.79472140762482
12.138927442355138,59,530,0,12.158565761025715,19.638318670577064
12.149193590440992,52,596,1,12.167541586530923,18.347996089931257
12.152086382772149,37,553,1,12.171275043573715,19.188660801564765
12.158768864916468,64,861,1,12.17193602034169,13.167155425220699
12.161433586155148,56,810,0,12.175597809029048,14.164222873900144
12.171692579489244,37,876,0,12.1845664797825,12.873900293254337
12.172710830667208,60,695,1,12.189123342886173,16.412512218963457
12.175045833017096,53,638,1,12.192572714737528,17.526881720430538
12.176569537486955,72,898,0,12.189013330253328,12.443792766373008
12.18083363133113,43,664,0,12.197852204156156,17.01857282502533
12.183292999892496,72,562,1,12.202305707614881,19.01270772238604
12.200508796758365,61,737,1,12.21610019460783,15.591397849462737
12.202694354545443,54,893,0,12.21523589902247,12.541544477027855
12.219008316628438,66,757,0,12.234208707635283,15.200391006843347
12.240230389630979,66,885,1,12.252928336845054,12.697947214075612
12.24250029708878,91,641,1,12.259968527782817,17.46823069403763
12.261143528500858,48,622,0,12.278983215695384,17.83968719452605
12.268422412968432,81,632,1,12.286066596741648,17.644183773216355
12.269054367960626,67,654,1,12.28626844420696,17.214076246335026
12.27556792611884,63,686,1,12.292156391416984,16.588465298142182
12.306356435562643,64,818,1,12.320364255699495,14.007820136852388
12.31855925320939,52,863,1,12.33168730795035,13.12805474095876
12.324637339296354,65,864,0,12.337745843695181,13.10850439882779
12.33070811444108,56,710,1,12.346827371528079,16.119257086998914
12.340433188114972,92,517,0,12.36032566123325,19.892473118279668
12.347622413401043,62,520,1,12.367456235492929,19.83382209188676
12.351314187596921,67,753,1,12.366592779972288,15.278592375367225
12.366985851019772,81,849,0,12.380387610550564,13.401759530792333
12.377735576963675,73,643,1,12.39516470697345,17.42913000977569
12.392073412508328,38,701,1,12.408368622674505,16.29521016617764
12.392223747859083,40,619,0,12.410122086080003,17.89833822091896
12.393016453463092,64,783,0,12.40770853557453,14.69208211143632
12.406758365291498,55,540,0,12.426201180540765,19.44281524926737
12.413364928155739,47,500,1,12.433589757090246,20.22482893450615
12.431451514733057,46,850,0,12.444833723921718,13.382209188661363
12.433127695520655,65,670,0,12.450028966292894,16.901270772237694
12.436744565483092,52,641,1,12.45421279617713,17.46823069403763
12.446732247232777,59,745,1,12.462167242345192,15.434995112414981
12.44870834993383,64,781,0,12.463439532729527,14.73118279569826
12.462413946861277,61,714,1,12.478455002579752,16.041055718475036
12.478253404858028,60,702,0,12.494529064682077,16.27565982404667
12.485145761724825,72,608,1,12.503259153709186,18.113391984359623
12.487101724044514,52,761,1,12.502223913682833,15.122189638319469
12.492285609187668,46,576,1,12.511024612120218,18.739002932550648
12.497960522987542,62,830,1,12.511733739018823,13.773216031280754
12.498501529987,74,895,1,12.511003973779765,12.502443792765916
12.499865640777637,52,538,1,12.519347556711166,19.481915933529308
12.512973179989958,47,702,0,12.529248839814004,16.27565982404667
12.526800339108606,42,839,1,12.540397602060708,13.597262952102028
12.556745668634083,41,756,1,12.571965609983057,15.219941348974316
12.559762654324286,44,839,1,12.573359917276388,13.597262952102028
12.571774973266379,68,898,1,12.584218766032752,12.443792766373008
12.58189680538007,44,778,0,12.596686639202161,14.789833822091168
12.583543867883174,70,572,1,12.602361072184248,18.817204301074526
12.592133006108256,54,619,1,12.610031344329174,17.89833822091896
12.594202684915766,49,640,0,12.611690465951934,17.4877810361686
12.607037630047513,49,588,0,12.625542028874492,18.504398826979013
12.626451338061642,81,725,1,12.642277340016676,15.826001955034371
12.642406075286518,72,761,1,12.657528264924837,15.122189638319469
12.650229512735981,57,573,1,12.669027166694924,18.797653958943556
12.656235824871867,68,564,1,12.67520943190999,18.97360703812228
12.66933894999098,64,875,1,12.682232400626365,12.893450635385307
12.672302988997451,66,891,1,12.68488363415874,12.580645161289794
12.677736066386752,56,599,0,12.69602541145029,18.28934506353835
12.679030903646252,65,582,1,12.697652604526017,18.62170087976483
12.679800409621945,68,520,1,12.699634231713832,19.83382209188676
12.701583316993103,58,604,1,12.719774910345986,18.1915933528835
12.701750122942643,61,826,0,12.715601540342448,13.851417399804632
12.70703274614007,58,624,0,12.724833332650334,17.80058651026411
12.710183944515249,88,864,1,12.723292448914076,13.10850439882779
12.722658742621691,45,553,1,12.741847403423257,19.188660801564765
12.731722012087033,70,838,0,12.745338825381266,13.616813294232998
12.733379052416264,50,833,1,12.747093617421154,13.714565004887845
12.738709390799706,70,872,1,12.751661492461484,12.952101661778215
12.750148562076584,70,648,0,12.767479940375704,17.331378299120843
12.754985495586743,60,828,0,12.768797812302285,13.812316715542693
12.765540353961258,46,859,0,12.77874661007074,13.206256109482638
12.783442064750766,75,809,0,12.797625837966796,14.183773216031113
12.789162845354612,65,645,1,12.806552874680126,17.39002932551375
12.79475080387993,59,602,0,12.812981497917075,18.23069403714544
12.819563464924192,69,520,1,12.83939728701608,19.83382209188676
12.821405886214974,65,720,1,12.837329639880663,15.923753665689219
12.822017381155778,68,850,1,12.835399590344439,13.382209188661363
12.837619570674844,40,641,1,12.855087801368882,17.46823069403763
12.849228215430385,49,855,1,12.862512672908391,13.284457478006516
12.855864151229904,48,864,1,12.868972655628731,13.10850439882779
12.857159711931905,65,690,1,12.873669975861523,16.510263929618304
12.863757958419063,73,608,1,12.881871350403422,18.113391984359623
12.871559687561142,57,663,1,12.888597810728298,17.0381231671563
12.873566498422145,56,631,1,12.891230232537492,17.663734115347324
12.897619815805148,82,556,0,12.91674982558032,19.130009775171857
12.903359820313415,75,756,1,12.91857976166239,15.219941348974316
12.906980687948254,60,590,1,12.92544598609097,18.465298142717074
12.92550901628233,61,838,1,12.939125829576565,13.616813294232998
12.941490956117997,81,762,1,12.956593595414185,15.1026392961885
12.953846640677952,51,740,0,12.969379387501021,15.532746823069829
12.954341359494771,66,860,1,12.967528065262123,13.186705767351668
12.960474020612132,57,672,0,12.977336190700107,16.862170087975755
12.960569220379437,51,527,1,12.980266190076406,19.696969696969973
12.969432867024496,65,602,1,12.987663561061641,18.23069403714544
12.980874493286771,52,670,1,12.99777576405901,16.901270772237694
12.982397677241929,65,819,1,12.99638594703665,13.988269794721418
12.99302025966078,49,814,0,13.007106281166156,14.086021505376266
13.001349905801339,59,655,1,13.018544431705543,17.194525904204056
13.02964510026903,65,793,1,13.044141678959157,14.496578690126626
13.05481098267988,53,510,1,13.074840308193078,20.029325513196454
13.091739492469706,40,679,0,13.108464810162765,16.72531769305897
13.109856305902865,67,593,1,13.128262953019188,18.406647116324166
13.11200030683026,80,501,0,13.132205585422636,20.20527859237518
13.121649179052595,50,858,1,13.134874985504208,13.225806451613607
13.121991462006166,89,616,0,13.139948451253478,17.956989247311867
13.13583215627921,50,763,0,13.150915245233268,15.08308895405753
13.145119541422467,59,717,1,13.161101946114549,15.982404692082127
13.14830130741798,55,830,1,13.162074523449263,13.773216031280754
13.156924589937407,71,562,1,13.175937297659793,19.01270772238604
13.160537724764282,62,775,0,13.175386209612768,14.848484848484077
13.162661342060126,67,609,0,13.180755183702354,18.093841642228654
13.162726985412212,80,605,1,13.180899028422964,18.17204301075253
13.166183106099366,68,621,1,13.184042343636023,17.85923753665702
13.169607252481535,55,527,0,13.189304222178505,19.696969696969973
13.177297203896076,55,768,1,13.192282541139477,14.985337243400863
13.18087141249597,60,836,0,13.194527326474464,13.655913978494937
13.205068372498046,60,618,1,13.222986261061097,17.917888563049928
13.206663981055213,72,769,1,13.221629767956482,14.965786901269894
13.210207503611471,64,744,1,13.225662049066017,15.45454545454595
13.227673951137442,52,862,1,13.240821556220531,13.14760508308973
13.237487299124279,57,544,1,13.256851913005022,19.36461388074349
13.246963282554308,60,601,1,13.265213526933586,18.25024437927641
13.272083780439917,67,596,1,13.29043177652985,18.347996089931257
13.273725692343783,74,726,1,13.289532143956688,15.806451612903402
13.293485676327935,58,772,0,13.308392812202811,14.907135874876985
13.309319107756467,65,671,1,13.326200828186575,16.881720430106725
13.318573741478488,47,564,1,13.337547348516612,18.97360703812228
13.322010453339477,65,546,1,13.341335966535958,19.325513196481552
13.337785457774132,70,892,0,13.35034655259329,12.561094819158825
13.360475403035146,59,516,0,13.380387426495556,19.912023460410637
13.363174338572216,69,621,1,13.381033576108873,17.85923753665702
13.3954230474088,45,817,0,13.409450417887783,14.027370478983357
13.413114025954282,71,896,0,13.425596919404917,12.482893450634947
13.42168441864913,62,615,1,13.439660958238573,17.976539589442837
13.42512424826462,77,557,0,13.44423470769766,19.110459433040887
13.432143856006709,68,600,1,13.450413650728116,18.26979472140738
13.443438916649711,58,755,0,13.458678408340816,15.239491691105286
13.443590325936889,53,892,1,13.456151420756047,12.561094819158825
13.445185971833101,58,683,1,13.461833088157636,16.64711632453509
13.455334069278702,52,898,1,13.467777862045075,12.443792766373008
13.457411301871277,52,863,1,13.470539356612235,13.12805474095876
13.47861244288131,66,803,1,13.492913518150129,14.30107526881693
13.480269941547046,55,791,0,13.494805620921436,14.535679374388565
13.480375687475503,63,737,1,13.495967085324967,15.591397849462737
13.496891921465688,66,596,0,13.515239917555618,18.347996089931257
13.49755000955204,63,586,0,13.516093509063282,18.543499511240952
13.502501074553015,68,558,0,13.521591983643924,19.090909090909918
13.505652014620605,63,620,1,13.523530802499392,17.87878787878799
13.509244238442394,51,852,0,13.522587346946793,13.343108504399424
13.525202828195383,47,759,1,13.540364118517964,15.161290322581408
13.545730959397494,59,583,1,13.564333109935127,18.60215053763386
13.546850642171862,33,737,0,13.562442040021324,15.591397849462737
13.557367861417935,46,819,0,13.571356131212656,13.988269794721418
13.557401457559855,63,700,1,13.573716218068164,16.31476050830861
13.573561240609337,87,870,1,13.586552442955377,12.991202346040154
13.581278168087687,53,665,0,13.598277190570581,16.99902248289436
13.58842855460596,55,799,0,13.6028078312433,14.379276637340809
13.589296921244784,56,883,1,13.602033969143122,12.73704789833755
13.603345885139557,71,757,0,13.6185462761464,15.200391006843347
13.617637764670906,72,804,1,13.631919289597592,14.281524926685961
13.620802912464297,74,649,1,13.638114740421289,17.311827956989873
13.621382312843323,59,837,0,13.635018676479687,13.636363636363967
13.62172138661535,65,706,0,13.637918845070873,16.197458455522792
13.626371046283719,64,767,1,13.641375933869252,15.004887585533652
13.632932149845704,49,667,0,13.649892071644336,16.959921798630603
13.649043480999914,64,693,0,13.665495093903141,16.451612903225396
13.65015669413951,51,694,1,13.666588756700603,16.432062561094426
13.65242695512384,66,766,1,13.667451393051504,15.024437927664621
13.653570332620259,44,878,0,13.66640513222925,12.834799608992398
13.653686223439097,64,547,1,13.672992186293447,19.305962854350582
13.656692447375937,36,643,0,13.674121577385712,17.42913000977569
13.669386208716094,61,845,0,13.68286616961541,13.479960899316211
13.682401633654907,81,718,0,13.698364488004858,15.962854349951158
13.687924879623832,59,845,1,13.701404840523148,13.479960899316211
13.713568076039028,67,722,1,13.729452729020455,15.88465298142728
13.716528880010902,57,821,1,13.730478049121361,13.94916911045948
13.717073803829912,52,692,1,13.733544967075268,16.471163245356365
13.724548429106779,44,670,1,13.741449699879016,16.901270772237694
13.72796396857618,51,686,1,13.744552433874322,16.588465298142182
13.757716694024026,74,891,0,13.770297339185316,12.580645161289794
13.764911324799455,65,852,1,13.778254433303854,13.343108504399424
13.776736329843777,73,786,1,13.791369760928822,14.633431085043412
13.779191682967145,84,775,1,13.794040167815629,14.848484848484077
13.799980910394787,48,756,1,13.81520085174376,15.219941348974316
13.811638494058037,57,686,1,13.82822695935618,16.588465298142182
13.832057634212145,49,764,1,13.847121172824071,15.06353861192656
13.85177144218872,59,835,1,13.865446906509348,13.675464320625906
13.864707822104117,54,511,0,13.884717597275182,20.009775171065485
13.879949771866832,84,849,0,13.893351531397624,13.401759530792333
13.886194808989663,60,760,0,13.901336548970114,15.141739980450438
13.890762866884295,49,511,0,13.910772642055361,20.009775171065485
13.892400655202136,68,678,0,13.909145523237326,16.74486803518994
13.894085880146063,46,660,1,13.911182654339612,17.09677419354921
13.901795305395115,44,757,1,13.916995696401958,15.200391006843347
13.923499076994862,50,676,1,13.940283045714313,16.783968719451877
13.924658338041677,80,619,1,13.942556676262598,17.89833822091896
13.92734482807224,69,738,1,13.942916675579573,15.571847507331768
13.934823722674933,54,569,0,13.9536995780024,18.875855327467434
13.961677565946923,55,581,1,13.980318817168818,18.6412512218958
13.98388344378799,72,664,1,14.000902016613015,17.01857282502533
13.98515580668605,69,792,1,13.999671935718307,14.516129032257595
13.986734727595431,53,609,1,14.00482856923766,18.093841642228654
13.987714279401901,73,759,1,14.002875569724484,15.161290322581408
14.004902168298754,72,792,1,14.019418297331011,14.516129032257595
14.007946288545632,64,679,1,14.024671606238691,16.72531769305897
14.023709369481058,58,515,0,14.043640943283599,19.931573802541607
14.030819588580417,65,716,0,14.046821543614632,16.001955034213097
14.044544776604642,59,780,0,14.059295509742471,14.75073313782923
14.06251731589535,62,700,1,14.07883207640366,16.31476050830861
14.073810735729177,51,696,1,14.09020369760601,16.392961876832487
14.078195698857211,57,533,0,14.097775366501395,19.579667644184156
14.083404368746148,53,617,0,14.10134180765133,17.937438905180898
14.0950802559526,68,630,1,14.112763540410079,17.683284457478294
14.097903162334495,32,873,1,14.110835713654142,12.932551319647246
14.122728194294485,38,673,0,14.13957081404033,16.842619745844786
14.134021395176148,42,523,1,14.153796566241642,19.77517106549385
14.136163567502257,51,691,0,14.152654281089745,16.490713587487335
14.15221588856449,57,606,1,14.17036838123311,18.152492668621562
14.152307024432446,69,749,0,14.167663818176337,15.356793743891103
14.158561890304735,57,868,1,14.17159219333504,13.030303030303912
14.172435208883496,56,783,0,14.187127290994932,14.69208211143632
14.191465666765543,55,524,0,14.211221287488906,19.75562072336288
14.218929795475029,58,596,1,14.23727779156496,18.347996089931257
14.235539098326694,59,663,1,14.25257722149385,17.0381231671563
14.236423672688609,58,873,0,14.249356224008256,12.932551319647246
14.24544155697625,39,875,1,14.258335007611635,12.893450635385307
14.248657404825149,45,767,0,14.263662292410682,15.004887585533652
14.292824848085527,53,515,1,14.31275642188807,19.931573802541607
14.293280072771275,51,699,0,14.309614383621714,16.33431085043958
14.30834462503505,73,568,1,14.327240030704647,18.895405669598404
14.308735890686094,63,837,1,14.322372254322458,13.636363636363967
14.308817541482027,50,840,1,14.322395254091997,13.577712609971059
14.312228600716164,42,561,1,14.33126085878068,19.03225806451701
14.328706520754853,61,532,0,14.348305738741168,19.599217986315125
14.335727055436553,56,502,0,14.355912783686797,20.18572825024421
14.3536826299045,53,566,1,14.37261713625836,18.934506353860343
14.353821147621563,63,544,0,14.373185761502308,19.36461388074349
14.357962567723463,81,845,1,14.37144252862278,13.479960899316211
14.360378750809689,57,860,1,14.37356545657704,13.186705767351668
14.36628576649671,56,569,1,14.385161621824176,18.875855327467434
14.372993577653292,76,800,1,14.387353303948501,14.359726295209839
14.37370968506807,93,651,1,14.390982412340797,17.272727272727934
14.408196195191175,48,846,1,14.421656605748362,13.460410557185241
14.413450456414596,43,843,1,14.426969517998174,13.51906158357815
14.413626384805887,46,502,0,14.433812113056133,20.18572825024421
14.413673057663821,49,678,0,14.430417925699011,16.74486803518994
14.415977317859202,78,833,1,14.42969188286409,13.714565004887845
14.426183015728164,54,793,0,14.44067959441829,14.496578690126626
14.430464614734678,48,898,0,14.44290840750105,12.443792766373008
14.442511718236835,56,524,0,14.4622673389602,19.75562072336288
14.44414372827992,49,638,1,14.46167061000035,17.526881720430538
14.45498649853665,47,640,1,14.472474279572818,17.4877810361686
14.457023289987198,59,503,0,14.477189467895313,20.16617790811324
14.461926212020062,56,710,0,14.47804546910706,16.119257086998914
14.48563747912494,80,883,0,14.498374527023278,12.73704789833755
14.491512756825264,71,734,1,14.507162805701121,15.650048875855646
14.491815967085067,50,535,1,14.511356534044989,19.540566959922216
14.495163100658367,52,643,1,14.512592230668142,17.42913000977569
14.50053587205607,59,504,1,14.520682499622051,20.14662756598227
14.521672609887476,56,795,0,14.536130087893342,14.457478005864687
14.555991325560546,60,615,1,14.573967865149989,17.976539589442837
14.559347671283767,56,735,0,14.574978169817491,15.630498533724676
14.562037407500412,31,822,1,14.575967026268742,13.92961876832851
14.575475013404118,55,882,1,14.588231611644586,12.75659824046852
14.598710893585157,74,600,1,14.616980688306565,18.26979472140738
14.603970259280494,74,805,1,14.61823223386505,14.261974584554991
14.605468334673892,62,753,0,14.620746927049261,15.278592375367225
14.607296286271975,48,558,1,14.626387195362884,19.090909090909918
14.624357102944112,82,741,0,14.63987029942505,15.51319648093886
14.625318347758054,41,713,0,14.64137895381866,16.060606060606005
14.628403564547806,57,750,1,14.643740807949568,15.337243401760134
14.630235882690389,46,749,1,14.64559267643428,15.356793743891103
14.635120145654799,63,896,1,14.647603039105434,12.482893450634947
14.643875907562927,53,622,1,14.661715594757453,17.83968719452605
14.650010887901544,52,898,0,14.662454680667917,12.443792766373008
14.659569772683064,52,715,1,14.675591278059407,16.021505376344066
14.663470301293273,56,544,0,14.682834915174016,19.36461388074349
14.672030722095409,52,773,1,14.686918307628154,14.887585532746016
14.679387744504476,66,845,0,14.692867705403792,13.479960899316211
14.689701443329547,72,659,1,14.706817767865227,17.116324535680178
14.6925598994357,64,650,1,14.709852177050559,17.292277614858904
14.700196920765162,54,745,1,14.715631915877577,15.434995112414981
14.706525414188267,68,703,0,14.722781523670182,16.2561094819157
14.715503814142423,53,842,1,14.729042426068132,13.53861192570912
14.718846115654907,46,781,0,14.733577298450605,14.73118279569826
14.725451480565988,66,521,1,14.745265752315746,19.81427174975579
14.727583534756072,46,506,1,14.747691061637791,20.107526881720332
14.735884570137516,62,849,0,14.749286329668308,13.401759530792333
14.73664157102995,63,554,0,14.755810681489384,19.169110459433796
14.738421421987839,70,741,1,14.753934618468778,15.51319648093886
14.749330128709968,45,546,1,14.768655641906449,19.325513196481552
14.762120258284096,62,761,1,14.777242447922415,15.122189638319469
14.762861281949005,45,899,1,14.775285524373249,12.424242424242038
14.7657157630879,57,735,1,14.781346261621625,15.630498533724676
14.771325324161914,58,794,0,14.785802352509911,14.477028347995656
14.772483001879072,60,545,0,14.791828065417684,19.34506353861252
14.776999903459162,62,749,1,14.792356697203052,15.356793743891103
14.788557208429417,40,706,0,14.80475466688494,16.197458455522792
14.789730062867998,60,636,1,14.80729604527269,17.565982404692477
14.808944039496748,75,548,1,14.828230452008967,19.286412512219613
14.80957658785721,58,536,1,14.829097604475,19.521016617791247
14.81258385946549,52,767,0,14.827588747051024,15.004887585533652
14.825777601390811,86,546,1,14.845103114587292,19.325513196481552
14.837580780792955,43,537,1,14.857082247068615,19.501466275660277
14.848626861604643,68,787,0,14.863240742347557,14.613880742912443
14.849283272789446,50,651,1,14.866556000062173,17.272727272727934
14.850485114485162,71,882,0,14.86324171272563,12.75659824046852
14.850710850193433,88,639,0,14.868218181571732,17.50733137829957
14.86820537799031,35,612,0,14.886240568606146,18.035190615835745
14.87082933798291,64,664,0,14.887847910807935,17.01857282502533
14.882728365621507,62,530,1,14.902366684292083,19.638318670577064
14.904023587908195,67,712,0,14.920103744310932,16.080156402736975
14.913778030233924,53,813,0,14.927883602081433,14.105571847507235
14.922448260378674,74,782,0,14.937159892832241,14.71163245356729
14.922854252186779,60,892,0,14.935415347005938,12.561094819158825
14.937966438156408,54,746,1,14.953381882926694,15.415444770284012
14.93926601932682,50,642,0,14.956714699678725,17.44868035190666
14.941561899202187,50,760,0,14.956703639182637,15.141739980450438
14.942442807177601,33,845,0,14.955922768076917,13.479960899316211
14.946623037032644,70,580,1,14.965283838596672,18.66080156402677
14.953262368545461,74,661,1,14.970339592396881,17.07722385141824
14.964524457364167,76,552,0,14.983732668507862,19.208211143695735
14.966064371568777,51,718,1,14.982027225918728,15.962854349951158
14.974168830061657,50,680,0,14.990874597412585,16.705767350928
15.016647303384136,59,521,1,15.036461575133892,19.81427174975579
15.022485079074926,77,712,1,15.038565235477662,16.080156402736975
15.025096035219155,69,671,1,15.041977755649263,16.881720430106725
15.038486710757002,69,715,0,15.054508216133346,16.021505376344066
15.04696384719311,83,781,1,15.061695029988808,14.73118279569826
15.048023043409806,60,872,0,15.060975145071584,12.952101661778215
15.05315483165581,67,528,0,15.07283225101065,19.677419354839003
15.055453821908417,64,630,0,15.073137106365895,17.683284457478294
15.058435679677672,59,566,0,15.077370186031532,18.934506353860343
15.072810982160119,45,782,1,15.087522614613686,14.71163245356729
15.075332896160486,66,814,0,15.089418917665862,14.086021505376266
15.076049306907299,67,804,0,15.090330831833985,14.281524926685961
15.07634292627664,61,774,0,15.091210961467256,14.868035190615046
15.077179549224267,52,707,0,15.093357457337659,16.177908113391823
15.081984958549691,69,536,1,15.101505975167484,19.521016617791247
15.08838081804919,87,828,1,15.102193134764732,13.812316715542693
15.113824706354999,49,603,1,15.132035850050013,18.21114369501447
15.118868136860586,49,525,0,15.13860420724182,19.73607038123191
15.151320048258638,54,754,0,15.166579090291874,15.259042033236256
15.15502281677891,68,683,1,15.171669933103445,16.64711632453509
15.172584015494959,74,744,1,15.188038560949504,15.45454545454595
15.172594890506305,57,821,1,15.186544059616764,13.94916911045948
15.195524765074898,41,836,0,15.209180679053393,13.655913978494937
15.196804788735331,71,689,0,15.21333460300708,16.529814271749274
15.210258335980468,68,765,0,15.225302324250265,15.043988269795591
15.215288610193047,53,560,0,15.234340418599695,19.05180840664798
15.22241610915658,51,564,1,15.241389716194703,18.97360703812228
15.238560701415379,57,630,1,15.256243985872858,17.683284457478294
15.239998736290573,51,867,1,15.25304858966301,13.049853372434882
15.241389661266643,58,887,1,15.254048507796456,12.658846529813673
15.24560117502575,38,528,1,15.265278594380588,19.677419354839003
15.25332789315657,53,699,0,15.269662204007009,16.33431085043958
15.254081701118015,52,806,1,15.26832412536044,14.242424242424022
15.259059273237723,65,854,1,15.27236328105786,13.304007820137485
15.261605571194648,71,858,0,15.274831377646262,13.225806451613607
15.268159783026151,54,805,0,15.282421757610706,14.261974584554991
15.271502522971918,54,539,0,15.290964888563316,19.46236559139834
15.29486519314535,39,853,1,15.308188751307618,13.323558162268455
15.298887044721132,61,774,1,15.313755079911747,14.868035190615046
15.31384977567696,69,565,1,15.332803832372953,18.954056695991312
15.349113627211484,48,678,0,15.365858495246673,16.74486803518994
15.354815637919481,51,822,1,15.36874525668781,13.92961876832851
15.365277979960215,66,829,1,15.379070746333628,13.792766373411723
15.36871515576894,51,849,1,15.382116915299733,13.401759530792333
15.369666507992212,48,815,0,15.38373297915546,14.066471163245296
15.372217594784612,53,525,1,15.391953665165843,19.73607038123191
15.388617000647788,77,681,1,15.405303217656584,16.68621700879703
15.394443313635312,53,505,1,15.414570390859165,20.127077223851302
15.397794328700439,82,821,0,15.411743497810898,13.94916911045948
15.401471471741266,51,742,0,15.416965117880075,15.49364613880789
15.401850799654072,60,835,1,15.415526263974698,13.675464320625906
15.402622849396248,53,671,1,15.419504569826355,16.881720430106725
15.40333858749808,54,726,1,15.419145039110983,15.806451612903402
15.411950073712875,57,644,0,15.42935965338052,17.40957966764472
15.418858282076343,78,577,1,15.437577734666762,18.719452590419678
15.424230659552157,61,878,1,15.437065459161149,12.834799608992398
15.442185385001673,39,610,1,15.460259676301773,18.074291300097684
15.442235371323292,50,752,1,15.45753351404079,15.298142717498195
15.468129335954938,43,696,0,15.48452229783177,16.392961876832487
15.47092060379181,50,527,0,15.49061757348878,19.696969696969973
15.482587678642922,71,553,1,15.501776339444486,19.188660801564765
15.520655052460823,41,745,1,15.536090047573238,15.434995112414981
15.520699336677714,67,605,1,15.538871379688466,18.17204301075253
15.523060892923695,75,671,0,15.539942613353801,16.881720430106725
15.524435622255842,67,798,1,15.538834449235313,14.398826979471778
15.52484694078668,60,898,0,15.537290733553055,12.443792766373008
15.525611723381164,59,747,0,15.541007617809317,15.395894428153042
15.53095340742493,57,588,0,15.549457806251908,18.504398826979013
15.533975264919679,72,849,1,15.547377024450473,13.401759530792333
15.534641538225276,36,585,0,15.553204588078648,18.563049853371922
15.544079208529332,59,661,0,15.56115643238075,17.07722385141824
15.546355577770893,54,844,0,15.559855089012341,13.49951124144718
15.552015534514936,60,653,1,15.569249161103402,17.233626588465995
15.567716047482222,61,770,1,15.58266228404136,14.946236559138924
15.594209619464912,63,772,1,15.60911675533979,14.907135874876985
15.599215449137123,58,632,1,15.61685963291034,17.644183773216355
15.611139823596435,49,596,0,15.629487819686366,18.347996089931257
15.625116662947248,65,826,1,15.638968080347054,13.851417399804632
15.625752394796736,48,566,0,15.644686901150596,18.934506353860343
15.636075829264499,60,525,1,15.65581189964573,19.73607038123191
15.642015181416857,37,524,1,15.66177080214022,19.75562072336288
15.64995906392512,56,503,1,15.670125241833233,20.16617790811324
15.654139399742316,61,602,0,15.672370093779461,18.23069403714544
15.658897028562889,65,733,1,15.674566627780877,15.669599217986615
15.66813007227095,56,828,0,15.681942388986492,13.812316715542693
15.682338946614966,71,830,0,15.696112162646246,13.773216031280754
15.686974714354784,43,579,1,15.705655066260942,18.68035190615774
15.69872673760683,64,820,0,15.712695457059421,13.968719452590449
15.699803701715759,69,777,1,15.71461308587998,14.809384164222138
15.710909685146618,61,528,0,15.730587104501458,19.677419354839003
15.71111155214332,64,609,0,15.729205393785548,18.093841642228654
15.71347166271575,69,863,0,15.726599717456708,13.12805474095876
15.73094333579012,61,564,1,15.749916942828243,18.97360703812228
15.74130991736969,50,843,0,15.754828978953269,13.51906158357815
15.772498031216532,69,548,0,15.791784443728751,19.286412512219613
15.773736982123753,74,828,1,15.787549298839295,13.812316715542693
15.775091768701483,40,531,0,15.794710537029928,19.618768328446095
15.777421680900288,56,544,1,15.796786294781032,19.36461388074349
15.799210827453404,59,896,0,15.811693720904039,12.482893450634947
15.810881762988508,58,511,1,15.830891538159575,20.009775171065485
15.814339782623753,73,722,1,15.83022443560518,15.88465298142728
15.81736892830949,63,811,1,15.831513600841259,14.144672531769174
15.818348982005086,59,844,1,15.831848493246532,13.49951124144718
15.822079955832027,51,886,1,15.834758352703972,12.678396871944642
15.838257147340224,56,833,1,15.851971712345112,13.714565004887845
15.842268580303005,79,532,1,15.861867798289321,19.599217986315125
15.855644089928477,63,636,1,15.873210072333169,17.565982404692477
15.882346355172778,59,690,0,15.898856619102396,16.510263929618304
15.885494187196377,76,608,1,15.903607579180736,18.113391984359623
15.885552996956418,52,638,1,15.903079878676849,17.526881720430538
15.889241583487351,70,833,1,15.90295614849224,13.714565004887845
15.891495860748991,51,599,1,15.90978520581253,18.28934506353835
15.891643790180835,72,658,1,15.908779665058645,17.135874877811148
15.905713904551865,57,843,0,15.919232966135443,13.51906158357815
15.90958618172786,65,807,1,15.923809055628153,14.222873900293052
15.92569221741881,69,519,0,15.945545589852827,19.85337243401773
15.928594471337648,62,795,1,15.943051949343513,14.457478005864687
15.963025438501802,50,689,1,15.979555252773551,16.529814271749274
15.971087581709503,52,610,1,15.9891618730096,18.074291300097684
15.973047053966528,64,899,1,15.98547129639077,12.424242424242038
15.98307430310409,64,560,1,16.002126111510737,19.05180840664798
15.987770096914252,63,594,1,16.006157193688445,18.387096774193196
15.98944409560645,56,610,1,16.007518386906547,18.074291300097684
15.989746963112506,56,528,0,16.009424382467344,19.677419354839003
15.995898048936176,46,762,0,16.011000688232365,15.1026392961885
16.013660038158434,70,612,0,16.03169522877427,18.035190615835745
16.015235961777055,55,731,1,16.030944661679303,15.708699902248554
16.035298811025115,75,818,0,16.04930663116197,14.007820136852388
16.03664681064434,81,655,1,16.053841336548544,17.194525904204056
16.039508050037387,66,564,1,16.05848165707551,18.97360703812228
16.05261899526831,69,541,1,16.072042260175447,19.4232649071364
16.063154495994784,57,607,1,16.081287438321272,18.132942326490593
16.063775085465842,61,586,0,16.08231858497708,18.543499511240952
16.06772341921215,59,671,1,16.084605139642257,16.881720430106725
16.068854721475972,42,559,0,16.08792608022475,19.071358748778948
16.069948477358277,48,672,1,16.086810647446253,16.862170087975755
16.07065723761153,66,636,0,16.088223220016225,17.565982404692477
16.072854684142232,68,750,0,16.088191927543992,15.337243401760134
16.073723212010055,43,801,1,16.088063387963135,14.34017595307887
16.098487701436877,59,663,1,16.115525824604035,17.0381231671563
16.104934081469445,64,554,0,16.124103191928878,19.169110459433796
16.123561556002585,43,666,1,16.140541028143346,16.979472140761573
16.1301853491629,81,590,1,16.148650647305615,18.465298142717074
16.136695746986778,74,568,1,16.155591152656378,18.895405669598404
16.13796798588536,59,692,0,16.154439149130717,16.471163245356365
16.16780361305025,34,648,1,16.185134991349372,17.331378299120843
16.16857679434911,45,552,0,16.187785005492806,19.208211143695735
16.17550449901818,51,740,0,16.19103724584125,15.532746823069829
16.177747252006068,62,809,1,16.1919310252221,14.183773216031113
16.181962189850662,51,512,1,16.201952414679596,19.990224828934515
16.192196860188545,66,885,0,16.20489480740262,12.697947214075612
16.195616717647844,47,718,0,16.211579571997795,15.962854349951158
16.202894773972602,79,844,1,16.21639428521405,13.49951124144718
16.216026084510787,66,506,1,16.236133611392507,20.107526881720332
16.219359446644145,43,542,0,16.23876316120915,19.40371456500543
16.219384646239664,59,541,0,16.2388079111468,19.4232649071364
16.226110280308664,69,609,0,16.244204121950894,18.093841642228654
16.239390515752643,72,757,1,16.254590906759486,15.200391006843347
16.24153261925165,64,783,0,16.256224701363088,14.69208211143632
16.262978358436218,71,706,0,16.27917581689174,16.197458455522792
16.278423570980777,73,675,0,16.29522709004236,16.803519061582847
16.282409997009864,56,681,1,16.29909621401866,16.68621700879703
16.30316626660507,53,661,0,16.32024349045649,17.07722385141824
16.32236793888553,63,527,1,16.3420649085825,19.696969696969973
16.327632875566106,60,863,1,16.340760930307066,13.12805474095876
16.332943198422946,70,862,0,16.346090803506037,13.14760508308973
16.33646648691328,57,529,1,16.35612435592599,19.657869012708034
16.33710748697132,62,692,0,16.353578650216676,16.471163245356365
16.34855479216268,49,570,1,16.36741109714802,18.856304985336465
16.363222778356857,75,548,0,16.382509190869076,19.286412512219613
16.36725267086655,69,713,0,16.383313276927154,16.060606060606005
16.375334256599253,77,799,0,16.389713533236595,14.379276637340809
16.386032791308633,47,580,0,16.40469359287266,18.66080156402677
16.39123758758664,62,685,1,16.407845603226917,16.60801564027497
16.394391234221555,53,656,1,16.41156620978363,17.174975562073087
16.407838667549306,64,707,1,16.424016575662698,16.17790811339364
16.408752637206764,37,744,0,16.424207182661306,15.454545454544132
16.41127001340837,58,554,1,16.4304391238678,19.169110459431977
16.412552623708233,62,702,0,16.428828283532283,16.27565982404849
16.421773366238547,85,809,1,16.43595713945458,14.183773216031113
16.422741063195566,49,882,1,16.435497661436038,12.756598240470339
16.42530710319502,43,746,1,16.4407225479653,15.415444770282193
16.42613653770156,47,533,1,16.445716205345743,19.579667644182337
16.4326618058259,53,753,0,16.447940398201265,15.278592375365406
16.43714291635734,52,814,0,16.451228937862716,14.086021505376266
16.43848461894599,77,764,1,16.453548157557915,15.063538611924741
16.439076810747416,62,683,1,16.45572392707195,16.64711632453691
16.448486010603386,48,804,0,16.46276753553007,14.281524926685961
16.453066430806913,53,879,1,16.465881680073778,12.815249266863248
16.47333363340059,68,834,1,16.487028648063347,13.695014662756876
16.4740243725665,44,769,1,16.488990159467768,14.965786901269894
16.479055665424912,81,762,0,16.4941583047211,15.10263929618668
16.496346711277866,51,746,0,16.51176215604815,15.415444770282193
16.505373155792547,67,811,1,16.519517828324314,14.144672531769174
16.52371958900219,58,585,0,16.54228263885556,18.563049853371922
16.52879315385701,67,601,1,16.547043398236283,18.25024437927641
16.53492827521882,56,584,0,16.55351087541432,18.58260019550289
16.536506155859037,67,716,0,16.55250811089325,16.001955034211278
16.537380291395376,66,893,1,16.549921835872407,12.541544477029674
16.549361431467307,53,500,0,16.569586260401813,20.22482893450797
16.55204168678023,75,726,1,16.567848138393128,15.806451612901583
16.556534180698517,73,608,1,16.574647572682874,18.113391984359623
16.5614326321759,81,538,0,16.580914548109426,19.48191593352749
16.5623364552352,55,762,1,16.577439094531385,15.10263929618668
16.56368983978611,38,732,0,16.57937898934623,15.689149560115766
16.56411999730231,62,708,1,16.580278355073574,16.158357771262672
16.57175525940332,44,653,1,16.58898888599179,17.233626588465995
16.58769152255376,51,614,1,16.605687612485337,17.996089931573806
16.58968894935522,56,837,1,16.603325312991586,13.636363636363967
16.592115627196502,55,797,0,16.606534004518103,14.418377321602748
16.598729680352896,58,709,1,16.614868487782026,16.138807429131703
16.60526072516368,61,778,1,16.62005055898577,14.789833822091168
16.605806585844867,45,793,0,16.620303164534995,14.496578690126626
16.615355829191955,51,865,1,16.62844478324865,13.08895405669682
16.639077333730363,57,614,0,16.657073423661934,17.996089931573806
16.64497869851963,60,822,1,16.65890831728796,13.92961876832851
16.68156112821707,67,747,1,16.69695702264522,15.395894428151223
16.68416635468125,66,779,1,16.698936638161207,14.770283479960199
16.691290630798683,75,821,1,16.70523979990914,13.94916911045948
16.693571974627766,59,593,1,16.711978621744088,18.406647116324166
16.694469552804264,53,564,1,16.713443159842388,18.97360703812228
16.695265123598755,49,540,1,16.71470793884802,19.44281524926555
16.700503326159566,56,594,0,16.71889042293376,18.387096774193196
16.713359614797056,53,823,1,16.727269683223255,13.91006842619754
16.721452743746102,50,791,0,16.735988423120492,14.535679374388565
16.72843031014856,72,856,1,16.741695217284438,13.264907135875546
16.730177279741973,61,694,1,16.746609342303067,16.432062561096245
16.737246989385916,57,693,1,16.753698602289145,16.451612903227215
16.739433972985246,74,822,0,16.753363591753576,13.92961876832851
16.75095900520289,50,695,1,16.767371517421857,16.412512218965276
16.759347823847627,60,524,1,16.77910344457099,19.755620723361062
16.780974741777353,39,578,1,16.799674644025643,18.69990224828871
16.784798084259766,59,767,0,16.799802971845295,15.004887585531833
16.7887115711395,71,722,1,16.804596224120928,15.884652981425461
16.789082910431937,53,724,0,16.8049284627291,15.845552297163522
16.826468598329527,77,853,1,16.839792156491797,13.323558162268455
16.8318346353533,51,832,0,16.845568750700316,13.734115347018815
16.836452237686252,72,724,1,16.852297789983414,15.845552297163522
16.854659689341236,55,744,1,16.87011423479578,15.454545454544132
16.877343157613257,70,838,0,16.89095997090749,13.616813294232998
16.898239116800603,63,561,1,16.91727137486512,19.03225806451519
16.905075800470495,51,541,1,16.924499065377628,19.42326490713458
16.91083582343324,73,615,1,16.92881236302268,17.976539589442837
16.92628173003471,52,570,0,16.945138035020044,18.856304985336465
16.929278772494808,71,670,0,16.946180043267045,16.901270772239513
16.930523902091274,73,822,0,16.944453520859604,13.92961876832851
16.935348980008524,68,837,0,16.948985343644885,13.636363636363967
16.935472524901105,84,728,0,16.951239875829746,15.767350928639644
16.944890216958598,66,546,1,16.964215730155075,19.325513196479733
16.960202061574368,47,815,0,16.974268532737614,14.066471163245296
16.962685652990416,53,545,0,16.982030716529025,19.345063538610702
16.967892834766353,55,821,0,16.981842003876814,13.94916911045948
16.97650443713135,63,898,1,16.988948229897723,12.443792766374827
17.01311960282525,39,767,0,17.028124490410782,15.004887585531833
17.016063851329502,67,728,0,17.03183120225814,15.767350928639644
17.019949072261305,55,680,0,17.036654839612233,16.70576735092982
17.02549096051122,68,760,0,17.040632700491667,15.14173998044862
17.03446048695499,58,853,1,17.04778404511726,13.323558162268455
17.035294989213302,45,505,0,17.055422066437153,20.12707722385312
17.07024312270754,56,591,1,17.08868887050813,18.445747800586105
17.07397484587114,34,737,0,17.089566243720597,15.591397849460918
17.08154778427435,43,826,0,17.095399201674155,13.851417399804632
17.094010683797695,82,562,1,17.11302339152008,19.01270772238422
17.098823110050983,61,648,1,17.116154488350105,17.331378299120843
17.100746955957266,48,510,0,17.120776281470466,20.029325513198273
17.1019448500239,49,523,1,17.121720021089395,19.77517106549203
17.107346316597752,60,730,1,17.123074566842128,15.728250244377705
17.108975062485815,64,803,1,17.12327613775463,14.30107526881693
17.119641881500403,70,574,0,17.138419985117217,18.778103616812587
17.123920913281403,32,882,0,17.136677511521874,12.756598240470339
17.12488817692127,85,752,0,17.14018631963877,15.298142717496376
17.136244156336385,76,690,1,17.152754420266007,16.510263929620123
17.15137473031375,41,863,1,17.164502785054708,13.12805474095876
17.16896621851764,64,792,1,17.183482347549894,14.516129032257595
17.190003963898477,40,736,0,17.20561491209007,15.610948191591888
17.195550977147935,51,581,1,17.21419222836983,18.6412512218958
17.200496448511565,60,556,0,17.219626458286733,19.130009775170038
17.207568563686436,65,737,0,17.2231599615359,15.591397849460918
17.215083478543235,66,522,1,17.234878199950856,19.794721407623
17.231747299104754,49,599,0,17.250036644168294,18.28934506353835
17.243069792397694,43,530,1,17.26270811106827,19.638318670575245
17.246235039025265,37,785,0,17.26088802045244,14.652981427174382
17.26219602728288,63,847,1,17.275636887497935,13.440860215054272
17.280324164738023,53,584,0,17.298906764933527,18.58260019550289
17.299546691042625,58,673,1,17.316389310788473,16.842619745846605
17.316105314223297,56,754,1,17.33136435625653,15.259042033234437
17.32349155119427,47,785,1,17.338144532621445,14.652981427174382
17.326621837920044,56,856,1,17.33988674505592,13.264907135875546
17.334615758238535,40,880,1,17.34741145716327,12.795698924732278
17.33478470313403,70,684,0,17.351412269116437,16.62756598240594
17.34155807310537,63,840,0,17.35513578571534,13.577712609971059
17.346005179280674,56,516,1,17.365917202741084,19.912023460408818
17.367795549522597,89,805,0,17.382057524107154,14.261974584554991
17.391048148627277,67,588,1,17.409552547454254,18.504398826979013
17.394750461850848,53,667,1,17.411710383649478,16.959921798632422
17.397879795482556,60,557,1,17.416990254915596,19.11045943303907
17.3990159087193,45,593,0,17.41742255583562,18.406647116324166
17.40935707816674,57,711,1,17.42545678491161,16.099706744869763
17.413069761153906,52,507,1,17.4331577376935,20.087976539591182
17.43861431069225,50,746,0,17.454029755462532,15.415444770282193
17.45071401585744,68,771,1,17.46564070207445,14.926686217007955
17.455107798479013,57,773,1,17.46999538401176,14.887585532746016
17.470176545553954,54,508,1,17.490244971751412,20.068426197460212
17.470904456216058,54,871,1,17.483876108219967,12.971652003911004
17.47474587417285,61,520,0,17.494579696264736,19.83382209188494
17.48942106348397,73,572,1,17.508238267785043,18.817204301074526
17.494414893275845,42,607,1,17.512547835602334,18.132942326490593
17.514601386910385,74,566,1,17.533535893264244,18.934506353860343
17.533265391854407,70,559,1,17.55233675060318,19.07135874877713
17.537012547058346,60,890,1,17.549612742561767,12.600195503422583
17.54029051883693,76,752,1,17.555588661554427,15.298142717496376
17.555897464869304,76,606,1,17.574049957537927,18.152492668621562
17.559217411901887,63,610,1,17.577291703201983,18.074291300097684
17.56037147567558,71,698,1,17.57672533686815,16.353861192572367
17.5867779472857,47,542,1,17.606181661850705,19.40371456500361
17.587856689596634,75,560,0,17.606908498003282,19.05180840664616
17.587972760865583,77,702,0,17.60424842068963,16.27565982404849
17.587984215042248,57,732,1,17.603673364602365,15.689149560115766
17.593227339199647,60,603,1,17.61143848289466,18.21114369501447
17.595693990830185,60,740,0,17.611226737653254,15.53274682306801
17.59786226212035,53,516,1,17.617774285580758,19.912023460408818
17.59825021709367,71,835,1,17.6119256814143,13.675464320625906
17.604836851562574,72,630,1,17.62252013602005,17.683284457478294
17.624101591099887,66,507,0,17.64418956763948,20.087976539591182
17.634608073261997,48,598,0,17.652916968667665,18.30889540566932
17.641493052878655,67,534,1,17.661053170180704,19.560117302051367
17.652011520035824,64,873,1,17.66494407135547,12.932551319649065
17.666315901857306,64,578,1,17.685015804105596,18.69990224828871
17.67026440123705,48,660,1,17.687361175430595,17.09677419354921
17.671517900856053,41,636,1,17.689083883260743,17.565982404692477
17.67693370900737,45,767,1,17.691938596592898,15.004887585531833
17.68696338899741,48,693,0,17.703415001900638,16.451612903227215
17.68805872262541,66,672,0,17.70492089271339,16.862170087977574
17.690193340590444,84,624,1,17.707993927100706,17.80058651026411
17.71409851610273,50,804,1,17.728380041029418,14.281524926685961
17.72200803448783,63,767,0,17.73701292207336,15.004887585531833
17.72480997636697,71,526,1,17.74452649640607,19.716520039099123
17.72676931970096,55,574,0,17.745547423317774,18.778103616812587
17.737615294224824,69,630,0,17.7552985786823,17.683284457478294
17.738910491615655,41,529,0,17.75856836062836,19.657869012706215
17.74951028924932,80,527,1,17.769207258946288,19.696969696968154
17.75356162496012,57,578,0,17.772261527208407,18.69990224828871
17.766160005635946,29,590,1,17.78462530377866,18.465298142717074
17.767862877563843,64,509,0,17.787911753419174,20.048875855329243
17.77571122474576,39,783,1,17.790403306857197,14.69208211143632
17.78320355719382,69,760,0,17.798345297174265,15.14173998044862
17.784083908173358,55,847,1,17.797524768388413,13.440860215054272
17.791046735272612,48,719,0,17.80699003928043,15.94330400781837
17.796612820262283,65,540,1,17.816055635511546,19.44281524926555
17.803268351580897,72,812,0,17.817393473770537,14.125122189638205
17.816335724917536,58,741,1,17.83184892139847,15.51319648093704
17.83430983185844,73,786,1,17.848943262943486,14.633431085043412
17.850144989595094,53,548,0,17.86943140210731,19.286412512217794
17.85337543587804,70,591,0,17.871821183678627,18.445747800586105
17.854128766094274,70,615,1,17.872105305683714,17.976539589442837
17.86444491521855,66,874,0,17.877357916196065,12.913000977518095
17.865713925568837,66,808,0,17.879917249127,14.203323558162083
17.886641280171947,41,790,0,17.901196509888464,14.555229716519534
17.902629104835988,54,510,1,17.922658430349188,20.029325513198273
17.90307018218466,72,624,1,17.920870768694925,17.80058651026411
17.92332650084887,72,552,0,17.942534711992565,19.208211143693916
17.926147650265435,41,517,1,17.94604012338371,19.89247311827785
17.935000209926812,63,727,1,17.950787111197585,15.786901270770613
17.938051351157412,45,764,0,17.95311488976934,15.063538611924741
17.956080370617194,50,788,0,17.970674701017977,14.594330400781473
17.969839719687098,62,668,0,17.986780091143597,16.940371456501452
17.973457611808843,61,630,1,17.991140896266323,17.683284457478294
17.975456433731313,63,519,0,17.99530980616533,19.85337243401591
17.9855981566764,77,492,1,18.005979388347953,20.381231671555724
17.987469343292144,71,411,1,18.00943415267631,21.964809384164255
18.041125368301174,70,545,1,18.060470431839786,19.345063538610702
18.05000834705373,69,521,1,18.06982261880348,19.81427174975397
18.081482321480454,72,633,1,18.099106954911537,17.624633431085385
18.1211140277503,66,639,0,18.1386213591286,17.50733137829957
18.192681990195965,71,644,1,18.210091569863607,17.40957966764472
18.19924408701841,57,439,0,18.22066148682291,21.41739980449711
18.235353100312892,76,607,1,18.253486042639384,18.132942326490593
18.339548446872193,76,698,1,18.355902308064763,16.353861192572367
18.371556237102475,76,406,1,18.393618798197295,22.062561094819102
18.39781782987912,75,657,1,18.414973255099063,17.155425219942117
18.45348216848894,60,589,0,18.47196701697379,18.484848484848044
18.475384596691306,79,477,1,18.496059083494828,20.674486803520267
18.492137442323234,61,544,0,18.511502056203977,19.364613880741672
18.518371375618866,58,615,0,18.53634791520831,17.976539589442837
18.53086541443928,64,573,1,18.54966306839822,18.797653958943556
18.54289788497111,66,545,1,18.562242948509724,19.345063538610702
18.5767605140984,67,557,0,18.595870973531436,19.11045943303907
18.581966418699942,66,496,1,18.602269449002975,20.303030303031846
18.67014454017924,76,500,1,18.69036936911375,20.22482893450797
18.70974439469773,55,634,0,18.727349477786685,17.605083088954416
18.727384617478293,64,431,1,18.748958420019836,21.573802541544865
18.745420306081904,54,401,0,18.76758061888738,22.16031280547395
18.779952671765624,53,455,0,18.801057266096024,21.104594330401596
18.78946783468722,54,681,0,18.80615405169602,16.68621700879885
18.794077701861458,69,426,0,18.81574925611366,21.671554252199712
18.806532919551206,70,553,1,18.82572158035277,19.188660801562946
18.850833447916123,71,571,1,18.86967020255933,18.836754643205495
18.958151139107507,60,413,0,18.98007684780741,21.925708699902316
19.051418574725492,76,686,1,19.068007040023637,16.588465298144
19.1735461837632,72,498,1,19.193810113381968,20.263929618769907
19.179167735980275,60,493,0,19.199529417309698,20.361681329424755
19.181846905794874,75,420,1,19.20363576209986,21.78885630498553
19.20320931369704,67,421,1,19.224978619659893,21.76930596285456
19.211233134600196,74,448,1,19.232474581325516,21.241446725318383
19.226400740799416,64,662,0,19.243458414308705,17.05767350928727
19.250361437625397,54,620,0,19.268240225504186,17.87878787878799
19.32025077664343,75,680,1,19.33695654399436,16.70576735092982
19.36728388464447,65,694,0,19.383715947205566,16.432062561096245
19.37041949572583,56,403,0,19.39254070784704,22.12121212121201
19.40934539076973,70,573,1,19.428143044728674,18.797653958943556
19.415994667931916,58,578,0,19.434694570180202,18.69990224828871
19.43149761824219,56,421,0,19.453266924205042,21.76930596285456
19.442761512617718,73,642,1,19.460210192969626,17.44868035190666
19.454789891203607,69,673,1,19.471632510949455,16.842619745846605
19.463170828875096,70,695,1,19.47958334109406,16.412512218965276
19.49769305914929,80,525,1,19.517429129530523,19.736070381230093
19.518961199804693,59,569,0,19.53783705513216,18.875855327467434
19.625263349635137,66,634,1,19.642868432724093,17.605083088954416
19.63653244849384,73,590,1,19.654997746636557,18.465298142717074
19.641605616820854,79,499,1,19.66184999609749,20.244379276638938
19.642283845345517,70,511,1,19.662293620516586,20.009775171067304
19.646043039567388,79,690,1,19.662553303497006,16.510263929620123
19.658353014595406,66,417,1,19.680200521926785,21.847507331378438
19.67139429049471,79,680,1,19.68810005784564,16.70576735092982
19.697756969167983,52,484,0,19.718294603576584,20.53763440860348
19.725568721945884,55,587,0,19.744092671114995,18.523949169109983
19.791020675568067,57,619,0,19.808919013788984,17.89833822091896
19.79851865936068,71,529,1,19.81817652837339,19.657869012706215
19.8308427946355,70,413,0,19.8527685033354,21.925708699902316
19.839441101239277,71,597,1,19.85776954698708,18.328445747800288
19.873316672681653,60,581,0,19.891957923903547,18.6412512218958
19.905327014720378,71,438,1,19.926763964867003,21.436950146628078
19.943921477968757,81,463,1,19.964869669562113,20.94819159335384
19.958090826090746,73,641,1,19.975559056784782,17.46823069403763
19.96873060587187,52,635,0,19.98631613861869,17.585532746823446
20.00302746812163,58,516,0,20.022939491582036,19.912023460408818
20.018078978420363,73,416,1,20.039946036093873,21.867057673509407
20.021433796308337,79,540,1,20.040876611557604,19.44281524926555
20.022684993303056,75,525,1,20.042421063684287,19.736070381230093
20.030516759183797,75,639,1,20.048024090562095,17.50733137829957
20.066461847614523,58,417,0,20.0883093549459,21.847507331378438
20.073290361438662,70,630,1,20.090973645896142,17.683284457478294
20.08219607379605,66,569,0,20.101071929123517,18.875855327467434
20.175146939904632,74,450,1,20.19634928594569,21.202346041056444
20.24943690813292,62,599,0,20.267726253196457,18.28934506353835
20.293887707630596,58,669,0,20.310808528744964,16.920821114370483
20.30979570811935,71,640,1,20.32728348915552,17.4877810361686
20.330212838950594,69,648,1,20.347544217249713,17.331378299120843
20.35026633192911,63,564,0,20.369239938967233,18.97360703812228
20.370302159420874,63,493,0,20.390663840750296,20.361681329424755
20.39117315969541,73,487,1,20.411652143077617,20.478983382210572
20.44816949394364,56,491,0,20.46857027595733,20.400782013686694
20.452456244698983,72,657,1,20.469611669918926,17.155425219942117
20.468340535764973,64,662,0,20.48539820927426,17.05767350928727
20.481029006440007,61,578,0,20.499728908688297,18.69990224828871
20.49228073497738,61,690,0,20.508790998907003,16.510263929620123
20.500741482677682,66,461,1,20.5217287749553,20.98729227761578
20.544759719173605,57,657,0,20.56191514439355,17.155425219942117
20.546169041557924,60,496,0,20.566472071860957,20.303030303031846
20.567156139915756,72,415,1,20.589042747931394,21.886608015640377
20.567581952657946,66,494,1,20.58792408364524,20.342130987293785
20.593510933124243,56,608,0,20.6116243251086,18.113391984359623
20.594161068394406,69,554,0,20.613330178853836,19.169110459431977
20.68485942705,60,474,0,20.705592564879915,20.733137829913176
20.809168364335946,68,699,1,20.82550267518639,16.334310850441398
20.85968494678982,52,401,0,20.881845259595295,22.16031280547395
20.88836776030214,77,491,1,20.908768542315826,20.400782013686694
20.89818309372685,71,464,1,20.919111734978074,20.92864125122287
20.946036845031337,51,507,0,20.96612482157093,20.087976539591182
20.95774354401941,71,468,1,20.978593983902112,20.850439882698993
20.97989026016566,75,542,1,20.999293974730662,19.40371456500361
20.980549732486907,70,592,1,20.998975929945363,18.426197458455135
21.007507749394758,57,657,0,21.024663174614698,17.155425219942117
21.02847218097921,68,694,1,21.044904243540305,16.432062561096245
21.08385705955965,67,551,1,21.103084821045474,19.227761485824885
21.11571159947772,64,444,1,21.137031247571564,21.31964809384226
21.133744959542895,62,517,0,21.153637432661174,19.89247311827785
21.13375800408981,81,431,1,21.155331806631356,21.573802541544865
21.140240876955534,72,472,1,21.161013115469707,20.772238514175115
21.29697983027678,71,553,0,21.31616849107834,19.188660801562946
21.304980352582135,77,678,1,21.321725220617324,16.744868035191757
21.335798173611572,60,618,0,21.353716062174623,17.917888563049928
21.374724227347873,53,597,0,21.393052673095674,18.328445747800288
21.392864829933025,69,533,1,21.412444497577205,19.579667644182337
21.399490305791648,69,669,1,21.41641112690602,16.920821114370483
21.41556036474028,83,655,1,21.432754890644482,17.194525904204056
21.421786168719247,61,556,0,21.44091617849442,19.130009775170038
21.43732075619829,61,640,0,21.454808537234456,17.4877810361686
21.501911793747286,74,442,1,21.523270542525392,21.3587487781042
21.5302669944771,55,664,0,21.547285567302126,17.01857282502533
21.552023708176378,66,624,1,21.56982429468664,17.80058651026411
21.60829370218143,61,433,0,21.629828404038715,21.534701857282926
21.65145339219093,73,689,1,21.667983206462683,16.529814271751093
21.726714541642693,79,433,1,21.748249243499977,21.534701857282926
21.75064683689871,67,517,1,21.77053931001699,19.89247311827785
21.753055032873643,69,482,1,21.773631767966506,20.57673509286542
21.756564180282616,55,418,0,21.778392137271865,21.82795698924747
21.79261717946251,60,670,0,21.80951845023475,16.901270772239513
21.800443155743427,70,471,1,21.82123494459973,20.791788856306084
21.810568276757678,47,651,0,21.827841004030404,17.272727272727934
21.811225018221297,57,464,0,21.832153659472517,20.92864125122287
21.84636176558234,69,424,1,21.8680724205188,21.71065493646165
21.9189297147743,66,582,1,21.937551415654067,18.62170087976483
21.932302684530814,71,602,1,21.95053337856796,18.23069403714544
21.942666821942126,56,488,0,21.963126254982207,20.459433040079603
21.985699231720165,60,643,0,22.003128361729942,17.42913000977569
21.994412512298055,57,501,0,22.014617790890433,20.205278592377
22.035059140932116,55,554,0,22.05422825139155,19.169110459431977
22.06078132157873,63,665,0,22.077780344061626,16.99902248289436
22.08027708002196,62,693,0,22.09672869292519,16.451612903227215
22.085858588167344,63,462,0,22.106826330102827,20.96774193548481
22.106091510965726,57,680,0,22.122797278316654,16.70576735092982
22.124841767200646,62,687,0,22.14141068215666,16.56891495601303
22.12834453175311,58,516,0,22.14825655521352,19.912023460408818
22.13174001988836,57,526,0,22.15145653992746,19.716520039099123
22.13238699516821,68,407,0,22.154430005920897,22.043010752688133
22.13903612006681,48,555,0,22.15818568018411,19.149560117301007
22.153977148804675,65,513,1,22.173947823291478,19.970674486801727
22.154604666589865,71,663,1,22.171642789757023,17.0381231671563
22.163807357243744,54,507,0,22.183895333783333,20.087976539591182
22.170196271519583,57,537,0,22.189697737795242,19.50146627565846
22.18131238899769,65,573,0,22.20011004295663,18.797653958943556
22.195161365875,70,411,1,22.217126175259164,21.964809384164255
22.217515471058988,67,502,1,22.237701199309235,20.18572825024603
22.23618073739096,70,569,1,22.25505659271843,18.875855327467434
22.256258634550566,52,593,0,22.27466528166689,18.406647116324166
22.261494545277905,66,408,1,22.283518005688464,22.023460410557163
22.33075573889203,70,416,1,22.352622796565537,21.867057673509407
22.35661106458468,67,483,1,22.377168249335412,20.55718475073445
22.380149750022024,64,593,0,22.39855639713835,18.406647116324166
22.38744062309924,60,552,0,22.406648834242937,19.208211143693916
22.405646382104305,61,505,0,22.425773459328155,20.12707722385312
22.42388750336291,67,417,1,22.445735010694285,21.847507331378438
22.47054076207212,80,499,1,22.49078514134876,20.244379276638938
22.481303800362102,72,607,1,22.499436742688594,18.132942326490593
22.485703271297666,69,624,1,22.503503857807928,17.80058651026411
22.537130880518035,76,544,1,22.556495494398774,19.364613880741672
22.552370453443046,60,690,1,22.568880717372668,16.510263929620123
22.585518540732433,71,612,1,22.60355373134827,18.035190615835745
22.590943040539905,71,696,1,22.607336002416737,16.392961876834306
22.5916520037667,69,648,0,22.60898338206582,17.331378299120843
22.633559823147515,75,675,1,22.6503633422091,16.803519061584666
22.720709468565964,69,467,1,22.741579458790795,20.869990224829962
22.73355480628628,58,450,0,22.754757152327336,21.202346041056444
22.734114759948223,65,676,0,22.75089872866768,16.783968719453696
22.749903928846393,61,589,0,22.768388777331243,18.484848484848044
22.74992190271613,76,516,1,22.76983392617654,19.912023460408818
22.840182288849416,54,432,0,22.86173654104883,21.554252199413895
22.860359353303643,64,439,0,22.88177675310814,21.41739980449711
22.878709119765105,61,555,1,22.897858679882408,19.149560117301007
22.940349208255448,64,407,0,22.962392219008137,22.043010752688133
22.982351897873723,58,602,0,23.000582591910867,18.23069403714544
23.000675947701605,73,574,1,23.01945405131842,18.778103616812587
23.003454270102182,71,498,1,23.023718199720953,20.263929618769907
23.026343554261153,70,510,1,23.04637287977435,20.029325513198273
23.073021489264463,63,687,1,23.089590404220473,16.56891495601303
23.10378157975508,75,504,1,23.123928207321065,20.14662756598409
23.19170765364259,59,406,0,23.213770214737412,22.062561094819102
23.23245821183801,59,612,1,23.25049340245385,18.035190615835745
23.32454624825908,72,458,1,23.345592191563085,21.045943304008688
23.36378361496146,73,503,1,23.383949792869576,20.16617790811506
23.366299642711105,70,648,1,23.383631021010228,17.331378299120843
23.385926761786234,60,672,0,23.402788931874213,16.862170087977574
23.39261429961934,53,587,0,23.411138248788447,18.523949169109983
23.42248539361292,59,507,0,23.44257337015251,20.087976539591182
23.424350900505697,74,450,1,23.445553246546755,21.202346041056444
23.43597239585264,74,461,1,23.456959688130258,20.98729227761578
23.448781901903576,78,426,1,23.470453456155777,21.671554252199712
23.48530449461393,66,445,1,23.50660459236564,21.30009775171129
23.48552208455463,59,522,0,23.505316805962256,19.794721407623
23.5048637242134,64,573,0,23.523661378172342,18.797653958943556
23.506457652589162,71,425,1,23.52814875718349,21.69110459433068
23.51588100745529,61,571,0,23.5347177620985,18.836754643205495
23.532755267336384,52,584,0,23.551337867531885,18.58260019550289
23.564927870184956,74,676,1,23.581711838904408,16.783968719453696
23.570079655905502,67,404,1,23.59218131768458,22.10166177908104
23.625505076233452,68,580,1,23.644165877797477,18.66080156402677
23.655307291023103,63,583,0,23.673909441560735,18.60215053763386
23.694971900499038,62,455,0,23.716076494829437,21.104594330401596
23.700203244260184,57,459,0,23.721229637222063,21.02639296187772
23.719782641443498,60,569,0,23.738658496770963,18.875855327467434
23.730244053258723,60,493,0,23.75060573458815,20.361681329424755
23.735196029485436,69,437,1,23.756652529974197,21.456500488759048
23.747424259921168,77,478,1,23.76807919638256,20.654936461389298
23.787087645215596,60,544,0,23.80645225909634,19.364613880741672
23.800177151567613,69,663,1,23.817215274734767,17.0381231671563
23.816073459359153,63,665,1,23.833072481842045,16.99902248289436
23.831611446391243,55,682,0,23.84827811305791,16.66666666666788
23.91838305452739,54,541,0,23.93780631943452,19.42326490713458
23.94414729641693,80,698,1,23.960501157609503,16.353861192572367
23.947261174467794,78,644,1,23.964670754135437,17.40957966764472
23.98943664491134,66,589,1,24.00792149339619,18.484848484848044
23.992103916735942,67,647,1,24.009454845377192,17.350928641251812
24.015405303301986,73,679,1,24.032130620995044,16.725317693060788
24.12218502383528,71,528,1,24.141862443190114,19.677419354837184
24.146776966403483,71,540,1,24.16621978165275,19.44281524926555
24.21404626985363,70,460,1,24.235053112473373,21.00684261974675
24.215134858035047,73,580,1,24.23379565959907,18.66080156402677
24.255623277941947,69,457,1,24.276688771588088,21.065493646139657
24.408135816128702,78,530,1,24.42777413479928,19.638318670575245
24.468875757977045,72,574,0,24.48765386159386,18.778103616812587
24.469908712459272,79,669,1,24.486829533573644,16.920821114370483
24.575074772315496,69,418,0,24.596902729304745,21.82795698924747
24.612060893536462,64,603,0,24.630272037231475,18.21114369501447
24.649636155916234,62,530,1,24.669274474586807,19.638318670575245
24.685017824772693,54,546,0,24.704343337969174,19.325513196479733
24.692035963686866,61,609,0,24.710129805329096,18.093841642228654
24.699170703877556,62,618,0,24.717088592440607,17.917888563049928
24.733299456296805,54,447,0,24.754560453364256,21.260997067449352
24.738751411138708,77,659,1,24.755867735674386,17.116324535680178
24.74622220327406,67,626,1,24.76398368910006,17.761485826002172
24.75603006597215,62,450,0,24.777232412013205,21.202346041056444
24.895139118860918,59,439,0,24.916556518665416,21.41739980449711
24.899127231277213,61,441,0,24.92050553039745,21.37829912023517
24.94995188796704,69,424,1,24.971662542903502,21.71065493646165
24.991200702577206,77,523,1,25.0109758736427,19.77517106549203
25.032569376341403,57,622,0,25.050409063535927,17.83968719452605
25.21879628655619,71,435,1,25.240291887729214,21.495601173020987
25.241777156089732,70,559,1,25.260848514838507,19.07135874877713
25.259527408277435,64,676,1,25.276311376996887,16.783968719453696
25.263481088904182,79,630,1,25.281164373361662,17.683284457478294
25.31178950961824,81,521,1,25.331603781367996,19.81427174975397
25.35109931063188,71,500,1,25.37132413956639,20.22482893450797
25.364922899561034,71,484,1,25.385460533969635,20.53763440860348
25.396726578314432,77,566,1,25.415661084668294,18.934506353860343
25.431531591131222,57,480,0,25.452147426908347,20.61583577712736
25.48175669313684,61,673,0,25.49859931288269,16.842619745846605
25.494184299457697,72,509,1,25.514233175313027,20.048875855329243
25.500822329557035,61,643,0,25.518251459566812,17.42913000977569
25.524960474227452,73,474,1,25.545693612057367,20.733137829913176
25.5296255195155,66,424,0,25.55133617445196,21.71065493646165
25.56100118537426,67,677,1,25.57776560375158,16.764418377322727
25.578031305691503,74,501,1,25.59823658428388,20.205278592377
25.602107553145874,69,530,1,25.621745871816447,19.638318670575245
25.603850788420363,65,600,1,25.622120583141772,18.26979472140738
25.613604184482707,71,432,1,25.635158436682122,21.554252199413895
25.665643356635883,68,418,1,25.68747131362513,21.82795698924747
25.72621477997601,71,581,1,25.74485603119791,18.6412512218958
25.80120629516929,60,629,0,25.818909129968898,17.702834799609263
25.815963217472444,71,560,1,25.835015025879088,19.05180840664616
25.83225211369012,62,594,0,25.850639210464312,18.387096774193196
25.921511647323985,72,622,1,25.939351334518513,17.83968719452605
25.943125067825193,75,446,1,25.964405615234774,21.280547409580322
25.960930488875047,74,659,1,25.978046813410725,17.116324535680178
25.978899138103973,66,566,0,25.997833644457835,18.934506353860343
25.99121517240355,70,605,1,26.009387215414304,18.17204301075253
26.005651410130657,59,598,0,26.023960305536328,18.30889540566932
26.033739493822882,74,653,1,26.05097312041135,17.233626588465995
26.08014234701862,62,685,0,26.096750362658895,16.60801564027497
26.086161216572396,70,477,1,26.106835703375918,20.674486803520267
26.12056677055561,56,682,0,26.137233437222275,16.66666666666788
26.138050091696204,63,542,1,26.15745380626121,19.40371456500361
26.195913080298897,67,686,1,26.212501545597043,16.588465298144
26.240642733594004,66,579,0,26.259323085500164,18.68035190615774
26.269862394516224,56,682,0,26.286529061182893,16.66666666666788
26.27835442955777,57,651,0,26.2956271568305,17.272727272727934
26.304270225929933,61,417,0,26.326117733261313,21.847507331378438
26.345448317660576,65,564,0,26.364421924698696,18.97360703812228
26.355497434701924,68,551,1,26.374725196187747,19.227761485824885
26.44011796062978,56,454,0,26.461242105302315,21.124144672532566
26.464649317865188,77,508,1,26.484717744062646,20.068426197460212
26.525288203771556,79,502,1,26.545473932021803,20.18572825024603
26.554176431371424,57,607,0,26.572309373697912,18.132942326490593
26.597851193032067,60,573,0,26.616648846991012,18.797653958943556
26.610622626092063,68,564,1,26.629596233130187,18.97360703812228
26.674212573477263,69,454,1,26.695336718149797,21.124144672532566
26.679282771875375,72,654,1,26.69649684812171,17.214076246335026
26.723219968936792,57,519,0,26.743073341370806,19.85337243401591
26.738804870722305,71,499,1,26.759049249998945,20.244379276638938
26.7584289700868,62,414,0,26.78033512844457,21.906158357771346
26.830717232823456,69,426,1,26.852388787075654,21.671554252199712
26.8556627535081,70,584,1,26.874245353703603,18.58260019550289
26.8614149628887,68,486,1,26.88191349661304,20.49853372434154
26.886907135263588,66,528,0,26.906584554618426,19.677419354837184
27.05107454061161,66,545,0,27.070419604150217,19.345063538610702
27.070542592026882,68,628,1,27.088264977168624,17.722385141740233
27.073229543212626,73,457,1,27.094295036858767,21.065493646139657
27.07379359830397,74,401,1,27.095953911109444,22.16031280547395
27.074631332739354,72,645,1,27.09202136206487,17.39002932551375
27.07560612325555,66,669,0,27.092526944369922,16.920821114370483
27.076628425136047,57,570,1,27.095484730121385,18.856304985336465
27.1072748662487,76,474,1,27.128008004078616,20.733137829913176
27.183237638904334,69,403,1,27.205358851025547,22.12121212121201
27.252526256844757,75,688,1,27.26907562145864,16.549364613882062
27.29549787480731,63,414,0,27.317404033165083,21.906158357771346
27.305466829508315,65,406,0,27.327529390603132,22.062561094819102
27.36123499015436,74,482,1,27.381811725247225,20.57673509286542
27.382283807058453,65,667,1,27.399243728857087,16.959921798632422
27.400689721767673,64,517,0,27.420582194885952,19.89247311827785
27.432049052452804,62,604,0,27.450240645805685,18.1915933528835
27.436079622454805,64,439,0,27.457497022259304,21.41739980449711
27.442455721525395,62,652,0,27.459708898455993,17.253176930596965
27.45910028481679,68,626,1,27.476861770642795,17.761485826002172
27.470872164116155,58,566,0,27.489806670470013,18.934506353860343
27.47569293928901,58,663,0,27.49273106245617,17.0381231671563
27.503605893565,75,664,1,27.520624466390025,17.01857282502533
27.512110234850468,73,558,1,27.531201143941377,19.0909090909081
27.539906207366748,71,686,1,27.556494672664893,16.588465298144
27.541090858144365,52,418,0,27.562918815133614,21.82795698924747
27.554427504283595,67,669,1,27.571348325397963,16.920821114370483
27.59538024415181,69,505,1,27.615507321375663,20.12707722385312
27.616881212383692,72,513,1,27.63685188687049,19.970674486801727
27.637335904905715,70,461,1,27.65832319718333,20.98729227761578
27.654715813771404,80,614,1,27.672711903702975,17.996089931573806
27.683628242131388,70,659,1,27.70074456666707,17.116324535680178
27.687457237004153,62,412,0,27.709402496046188,21.945259042033285
27.699264352453284,78,553,1,27.718453013254845,19.188660801562946
27.705464340161726,80,555,1,27.724613900279024,19.149560117301007
27.735286472546377,75,572,1,27.75410367684745,18.817204301074526
27.745209451215356,62,491,0,27.765610233229044,20.400782013686694
27.755565504496563,75,651,1,27.772838231769292,17.272727272727934
27.77060188787757,72,526,1,27.790318407916672,19.716520039099123
27.792390045662522,78,502,1,27.81257577391277,20.18572825024603
27.816011237761117,67,455,1,27.83711583209152,21.104594330401596
27.87688129083247,60,605,0,27.895053333843222,18.17204301075253
27.904373963105535,53,472,0,27.92514620161971,20.772238514175115
27.943865238523824,65,440,0,27.96526308798619,21.39784946236614
27.957953323142082,60,535,0,27.977493890102004,19.540566959920397
28.02284943866049,72,699,1,28.039183749510933,16.334310850441398
28.05472199126881,69,570,1,28.073578296254144,18.856304985336465
28.054914884133098,83,526,1,28.074631404172194,19.716520039099123
28.080162133713518,51,608,0,28.09827552569788,18.113391984359623
28.113545172415712,61,549,1,28.1328120345858,19.266862170086824
28.152265829128098,51,672,0,28.169127999216073,16.862170087977574
28.158696736705444,80,430,1,28.18029008958912,21.593352883675834
28.174374065005132,65,402,1,28.196514827468476,22.14076246334298
28.18057976566298,66,555,1,28.199729325780282,19.149560117301007
28.257657824453823,76,473,1,28.278410512625864,20.752688172044145
28.259875864343268,67,443,0,28.28121506277924,21.33919843597323
28.28630442874158,63,653,0,28.303538055330044,17.233626588465995
28.357685755850362,59,615,1,28.375662295439806,17.976539589442837
28.39067702198957,65,504,1,28.410823649555553,20.14662756598409
28.430062076765932,69,586,1,28.44860557627717,18.543499511240952
28.457940724037904,76,518,1,28.477813646814052,19.87292277614688
28.47260279665687,52,494,0,28.492944927644164,20.342130987293785
28.481401372357393,75,418,1,28.503229329346638,21.82795698924747
28.5419712236674,69,650,1,28.559263501282256,17.292277614858904
28.544338468088522,64,624,0,28.562139054598784,17.80058651026411
28.561117311135302,69,447,1,28.582378308202752,21.260997067449352
28.590981141051728,54,610,0,28.609055432351827,18.074291300097684
28.61968005292753,78,699,1,28.636014363777974,16.334310850441398
28.6295304297927,71,539,1,28.648992795384096,19.46236559139652
28.703959810341125,82,605,1,28.72213185335188,18.17204301075253
28.70562948284969,58,459,0,28.726655875811566,21.02639296187772
28.769874148020747,66,696,1,28.78626710989758,16.392961876834306
28.79369303382541,75,458,1,28.81473897712942,21.045943304008688
28.863309041923564,79,608,1,28.88142243390792,18.113391984359623
28.907398396177115,48,660,0,28.924495170370665,17.09677419354921
28.908815343848644,66,442,0,28.93017409262675,21.3587487781042
28.91771528124457,68,620,1,28.935594069123354,17.87878787878799
28.972917623264998,72,586,1,28.99146112277624,18.543499511240952
29.00194502164972,52,673,0,29.018787641395566,16.842619745846605
29.03954584973816,75,588,1,29.05805024856514,18.504398826979013
29.04872801370638,67,538,1,29.068209929639906,19.48191593352749
29.048731094249348,65,594,0,29.067118191023543,18.387096774193196
29.06280138112517,73,450,1,29.084003727166227,21.202346041056444
29.102064113402356,65,414,0,29.12397027176013,21.906158357771346
29.120861217233468,65,573,0,29.139658871192413,18.797653958943556
29.142877388634666,74,489,1,29.163317271332613,20.439882697948633
29.185003391438524,59,574,0,29.20378149505534,18.778103616812587
29.196876625740348,78,673,1,29.213719245486196,16.842619745846605
29.233831959055923,58,579,0,29.25251231096208,18.68035190615774
29.24228567107061,82,558,1,29.26137658016152,19.0909090909081
29.284797684607035,58,593,0,29.303204331723357,18.406647116324166
29.315198397048515,56,632,0,29.332842580821733,17.644183773216355
29.33492696163716,75,443,1,29.356266160073133,21.33919843597323
29.375724258434786,65,574,0,29.3945023620516,18.778103616812587
29.407533786033685,74,495,1,29.427856366678846,20.322580645162816
29.41662079143446,77,402,1,29.438761553897802,22.14076246334298
29.43571201262433,60,540,0,29.455154827873592,19.44281524926555
29.444884574530974,53,447,0,29.466145571598425,21.260997067449352
29.44750040340453,74,584,1,29.466083003600033,18.58260019550289
29.492124760560287,79,485,1,29.51264284462676,20.51808406647251
29.527440016105306,74,490,1,29.54786034846112,20.420332355817663
29.545840380280616,68,625,0,29.56362141644875,17.78103616813314
29.54965698568114,70,692,1,29.5661281489265,16.471163245358184
29.60738826783282,70,628,1,29.625110652974563,17.722385141740233
29.61197069489002,56,431,0,29.633544497431565,21.573802541544865
29.619710428479536,65,693,0,29.63616204138276,16.451612903227215
29.646182247242415,75,425,1,29.667873351836743,21.69110459433068
29.648972622753732,60,695,0,29.6653851349727,16.412512218965276
29.661280747096647,72,456,1,29.68236579108492,21.085043988270627
29.670984120052676,56,690,0,29.687494383982294,16.510263929620123
29.675167325520974,71,693,0,29.691618938424202,16.451612903227215
29.717867753070532,66,421,0,29.739637059033388,21.76930596285456
29.729462782059464,73,594,1,29.74784987883366,18.387096774193196
29.820639008395364,61,417,0,29.84248651572674,21.847507331378438
29.856175635653027,68,650,1,29.873467913267888,17.292277614858904
29.862624467157378,61,491,0,29.883025249171062,20.400782013686694
29.903761980379844,53,572,0,29.92257918468092,18.817204301074526
29.94315473069308,65,683,1,29.95980184701762,16.64711632453691
29.952797561616148,66,561,0,29.971829819680664,19.03225806451519
29.971872006273703,70,527,1,29.99156897597067,19.696969696968154
30.014768952331572,70,494,1,30.035111083318863,20.342130987293785
30.024060280536986,81,588,1,30.042564679363963,18.504398826979013
30.03273465474982,70,662,1,30.04979232825911,17.05767350928727
30.037382931636586,55,438,0,30.05881988178321,21.436950146628078
30.055457084836082,77,529,1,30.07511495384879,19.657869012706215
30.07441263509221,73,559,1,30.093483993840987,19.07135874877713
30.090299615999943,75,648,1,30.10763099429906,17.331378299120843
30.11451945399432,68,465,0,30.135428544903412,20.9090909090919
30.234787172755606,65,674,0,30.25161024215932,16.823069403715635
30.309279605906596,71,547,0,30.328585568760943,19.305962854348763
30.33454620647136,55,548,0,30.353832618983574,19.286412512217794
30.383672081026226,59,574,1,30.40245018464304,18.778103616812587
30.412656861691254,69,421,1,30.434426167654106,21.76930596285456
30.41854283673299,59,634,0,30.43614791982194,17.605083088954416
30.4234427595951,55,690,0,30.439953023524723,16.510263929620123
30.436313931352156,76,602,1,30.454544625389303,18.23069403714544
30.47044347841717,65,546,1,30.48976899161365,19.325513196479733
30.506585150597907,59,420,0,30.528374006902894,21.78885630498553
30.536613357462816,77,509,1,30.556662233318143,20.048875855329243
30.553546971501518,63,615,0,30.57152351109096,17.976539589442837
30.554860591122157,57,515,0,30.574792164924695,19.931573802539788
30.56161406614275,53,539,0,30.581076431734147,19.46236559139652
30.565367357810082,73,501,1,30.58557263640246,20.205278592377
30.586351697157546,56,402,0,30.60849245962089,22.14076246334298
30.63166938924962,73,480,1,30.652285225026745,20.61583577712736
30.661090165131913,66,494,0,30.68143229611921,20.342130987293785
30.66201567959647,61,616,0,30.67997266884378,17.956989247311867
30.66620533761106,79,682,1,30.682872004277726,16.66666666666788
30.669583191725554,72,561,1,30.688615449790067,19.03225806451519
30.67799119226616,56,598,0,30.69630008767183,18.30889540566932
30.67935036743757,71,610,1,30.69742465873767,18.074291300097684
30.732543067790658,61,591,0,30.750988815591246,18.445747800586105
30.756430395064985,72,573,1,30.775228049023927,18.797653958943556
30.778793453542942,82,569,1,30.797669308870407,18.875855327467434
30.837510870362472,67,689,1,30.854040684634224,16.529814271751093
30.872686140240436,72,572,1,30.89150334454151,18.817204301074526
30.87648804852584,70,471,0,30.897279837382147,20.791788856306084
30.927458795979884,64,475,0,30.948172383467668,20.713587487782206
30.976821668363424,58,644,0,30.994231248031067,17.40957966764472
31.01221186395043,72,591,1,31.030657611751018,18.445747800586105
31.048893073876194,69,410,1,31.070877433602487,21.984359726295224
31.071748098427886,78,643,1,31.08917722843766,17.42913000977569
31.082049807144017,60,496,0,31.102352837447047,20.303030303031846
31.100038452959,56,691,0,31.11652916654649,16.490713587489154
31.170542322925424,71,424,1,31.192252977861884,21.71065493646165
31.18093336938809,68,551,1,31.200161130873916,19.227761485824885
31.18939372131611,69,482,0,31.20997045640898,20.57673509286542
31.21134464591245,82,506,1,31.23145217279417,20.10752688172215
31.24724227812035,57,504,0,31.267388905686335,20.14662756598409
31.3557968500916,71,564,1,31.37477045712972,18.97360703812228
31.36845370241685,70,569,1,31.387329557744316,18.875855327467434
31.3875767256772,61,407,0,31.409619736429885,22.043010752688133
31.402499627065684,60,524,0,31.422255247789046,19.755620723361062
31.4567669738417,64,437,0,31.47822347433046,21.456500488759048
31.481503561990188,73,493,1,31.50186524331961,20.361681329424755
31.481701138299723,83,595,1,31.500068684731787,18.367546432062227
31.507335423757866,74,616,1,31.525292413005175,17.956989247311867
31.53484365243765,65,614,0,31.552839742369226,17.996089931573806
31.546483007109323,63,449,1,31.567704903492512,21.221896383187413
31.568080041890273,71,545,1,31.587425105428885,19.345063538610702
31.58121485508439,60,543,0,31.60059901930726,19.38416422287264
31.59635006922292,53,560,0,31.615401877629566,19.05180840664616
31.646896323911538,56,517,0,31.666788797029813,19.89247311827785
31.712231512566607,73,445,1,31.733531610318316,21.30009775171129
31.7379820140128,73,423,1,31.75971221929139,21.73020527859262
31.741875362183027,78,510,1,31.761904687696223,20.029325513198273
31.753983306027457,67,537,1,31.773484772303117,19.50146627565846
31.761484517400397,57,426,0,31.783156071652595,21.671554252199712
31.768666009379533,74,595,1,31.787033555811593,18.367546432062227
31.825011509496683,56,504,0,31.845158137062665,20.14662756598409
31.836297253430867,72,551,1,31.855525014916694,19.227761485824885
31.875999458447815,68,619,1,31.893897796668735,17.89833822091896
31.986938702415905,68,684,1,32.00356626839831,16.62756598240594
31.989576189659665,68,505,1,32.00970326688352,20.12707722385312
32.00112808600453,71,436,1,32.02260413683542,21.476050830890017
32.014955545125474,71,499,1,32.035199924402114,20.244379276638938
32.04655789126035,75,677,1,32.06332230963768,16.764418377322727
32.04770635840635,71,669,1,32.06462717952072,16.920821114370483
32.05766630132789,68,695,1,32.074078813546855,16.412512218965276
32.08749935593762,72,640,1,32.10498713697379,17.4877810361686
32.090461443395355,68,470,1,32.111272782593794,20.811339198437054
32.13560333348803,65,477,1,32.15627782029155,20.674486803520267
32.152490219568755,64,443,1,32.17382941800473,21.33919843597323
32.15840390492251,74,438,1,32.17984085506914,21.436950146628078
32.16065360716866,71,694,1,32.177085669729756,16.432062561096245
32.19194332268751,61,457,0,32.21300881633365,21.065493646139657
32.2541771068718,77,448,1,32.27541855359712,21.241446725318383
32.28312870658769,72,496,1,32.30343173689072,20.303030303031846
32.30054406935734,59,638,0,32.31807095107777,17.526881720430538
32.32966696002002,58,487,0,32.35014594340223,20.478983382210572
32.447520055621204,68,449,1,32.46874195200439,21.221896383187413
32.45649774825426,81,689,1,32.473027562526006,16.529814271751093
32.47212735932034,55,601,0,32.49037760369961,18.25024437927641
32.5084132717993,60,490,0,32.52883360415512,20.420332355817663
32.530595190239254,69,564,1,32.549568797277374,18.97360703812228
32.5739937406903,59,540,0,32.59343655593956,19.44281524926555
32.57830783013474,76,622,1,32.596147517329264,17.83968719452605
32.58668249078738,57,685,0,32.603290506427655,16.60801564027497
32.58871506636643,67,593,1,32.607121713482755,18.406647116324166
32.61693500138697,76,452,1,32.638098246743766,21.163245356794505
32.6191378056144,73,500,1,32.63936263454891,20.22482893450797
32.64367751884802,74,508,1,32.663745945045484,20.068426197460212
32.70171327768824,78,649,1,32.71902510564523,17.311827956989873
32.83306820543989,69,532,1,32.85266742342621,19.599217986316944
32.84460282838972,74,500,1,32.86482765732423,20.22482893450797
32.88989459638607,53,496,0,32.9101976266891,20.303030303031846
32.90175335867087,64,638,1,32.919280240391295,17.5268817204269
32.90260499336635,70,457,1,32.92367048701249,21.06549364613602
32.96473756651985,68,657,1,32.98189299173979,17.155425219942117
32.98935270359347,58,673,0,33.00619532333931,16.842619745846605
33.0108845004925,71,444,1,33.032204148586345,21.31964809384226
33.012303587752626,58,693,0,33.02875520065585,16.451612903227215
33.01698906730719,74,501,1,33.037194345899564,20.20527859237336
33.10029539772837,72,558,1,33.11938630681928,19.090909090911737
33.10328012556612,73,546,1,33.12260563876261,19.32551319648337
33.10421910031998,75,682,1,33.12088576698664,16.66666666666424
33.115305744641546,72,518,1,33.1351786674177,19.872922776150517
33.13048748816697,66,451,0,33.15167028386589,21.182795698921836
33.16188532739036,73,421,1,33.18365463335321,21.769305962850922
33.24035530958156,69,557,1,33.2594657690146,19.11045943303907
33.260340264083545,76,438,1,33.281777214230175,21.436950146628078
33.26536254390406,60,424,0,33.287073198840524,21.71065493646165
33.36312650435872,63,623,1,33.38094664121111,17.82013685239508
33.363859171756886,75,647,1,33.381210100398135,17.350928641251812
33.3872960598521,75,602,1,33.40552675388924,18.230694037149078
33.419757311933104,59,608,0,33.43787070391747,18.11339198436326
33.4367526203967,62,638,0,33.45427950211713,17.5268817204269
33.44080444705631,73,426,1,33.46247600130851,21.671554252199712
33.4431116063437,65,427,0,33.46476361025376,21.652003910065105
33.519829558601465,62,452,1,33.54099280395826,21.163245356794505
33.595622496476786,69,495,1,33.61594507712194,20.322580645159178
33.64171435504514,72,675,1,33.65851787410672,16.803519061584666
33.66246133375317,58,500,0,33.68268616268768,20.22482893450797
33.67116323610638,61,415,0,33.69304984412202,21.88660801563674
33.69487551509345,62,659,0,33.711991839629135,17.116324535680178
33.74470330314842,67,502,0,33.76488903139866,20.18572825024603
33.776154555743844,51,666,0,33.793134027884605,16.979472140759754
33.77676519297276,62,452,0,33.79792843832955,21.163245356794505
33.86059446439134,60,645,0,33.87798449371685,17.39002932551375
33.90281357964284,83,403,1,33.92493479176405,22.12121212121565
33.914015966625165,69,463,1,33.93496415821851,20.948191593350202
33.944173318568374,55,652,0,33.96142649549897,17.253176930593327
33.94455056171118,70,612,1,33.96258575232702,18.035190615839383
33.94468687135094,63,574,0,33.963464974967756,18.778103616816225
34.12803468075329,75,667,1,34.144994602551925,16.959921798632422
34.16094167907738,87,507,1,34.18102965561697,20.087976539587544
34.16555793252235,63,650,0,34.1828502101372,17.292277614855266
34.17753658320733,70,599,1,34.19582592827087,18.28934506353835
34.21056719827982,77,470,1,34.23137853747825,20.811339198437054
34.231902819142896,72,562,1,34.250915526865285,19.01270772238786
34.250939014825164,75,645,1,34.268329044150676,17.39002932551375
34.26848384561459,64,570,0,34.28734015059993,18.856304985340103
34.285991268501384,51,493,0,34.3063529498308,20.361681329421117
34.29545356193267,66,512,1,34.315443786761605,19.990224828936334
34.37120695470116,69,470,1,34.392018293899596,20.811339198437054
34.429418721572084,66,405,1,34.451500833009035,22.08211143695371
34.44457228600523,62,537,0,34.46407375228089,19.50146627565846
34.45517708379556,73,408,1,34.47720054420612,22.023460410557163
34.45868769177201,77,690,1,34.47519795570163,16.510263929616485
34.461386745079295,79,451,1,34.48256954077822,21.182795698921836
34.466465009058396,45,690,0,34.482975272988014,16.510263929616485
34.485439601895436,66,694,0,34.50187166445653,16.432062561092607
34.492366523544185,67,647,1,34.50971745218544,17.350928641251812
34.50125687598505,68,432,0,34.522811128184465,21.554252199413895
34.56750291423342,70,434,1,34.589018065748576,21.515151515151956
34.64210118182127,70,646,1,34.65947166080464,17.370478983379144
34.68665741864888,77,480,1,34.707273254426006,20.61583577712736
34.74480203834545,58,657,0,34.761957463565395,17.155425219942117
34.74691435162865,67,419,0,34.768722758275764,21.80840664711286
34.75305104147275,53,604,0,34.77124263482564,18.19159335288714
34.78515595466249,65,647,1,34.80250688330374,17.350928641251812
34.79114955107214,63,426,0,34.81282110532434,21.671554252199712
34.81559424932441,63,578,0,34.834294151572706,18.699902248292346
34.825072179059845,62,664,1,34.84209075188487,17.018572825021693
34.82671400440144,68,484,1,34.84725163881004,20.53763440860348
34.89799308525634,75,446,1,34.91927363266592,21.280547409580322
34.912809330371054,51,696,0,34.929202292247886,16.392961876830668
34.94895243982679,59,617,0,34.96688987873197,17.937438905180898
34.95762995536313,78,681,1,34.97431617237193,16.68621700879885
34.984251127179874,69,551,1,35.0034788886657,19.227761485824885
35.01296671833062,74,520,1,35.03280054042251,19.833822091888578
35.06793711945733,59,619,0,35.08583545767825,17.89833822091896
35.07531708763447,71,632,1,35.09296127140768,17.644183773212717
35.082527045529794,74,425,1,35.10421815012412,21.691104594327044
35.11516588097491,73,438,1,35.136602831121536,21.436950146628078
35.1180838774747,72,435,1,35.13957947864772,21.49560117301735
35.15985072246804,80,469,1,35.180681612008605,20.830889540564385
35.160132006098955,60,511,0,35.18014178127002,20.009775171063666
35.178374673390785,70,430,1,35.19996802627446,21.593352883675834
35.34284513817509,61,415,0,35.36473174619073,21.88660801563674
35.39861059588108,66,602,0,35.41684128991823,18.230694037149078
35.52846031187355,57,521,0,35.54827458362331,19.81427174975397
35.54538044953573,53,456,0,35.56646549352399,21.085043988270627
35.55064675039037,67,582,1,35.56926845127014,18.62170087976847
35.57421419489183,67,461,1,35.59520148716944,20.98729227761214
35.60387902200926,69,614,1,35.621875111940824,17.996089931570168
35.60459043715232,50,680,0,35.621296204503246,16.70576735092618
35.6420539455901,55,491,0,35.66245472760379,20.400782013683056
35.70835195840971,69,509,1,35.72840083426503,20.048875855325605
35.72501104641502,80,434,1,35.74652619793017,21.515151515151956
35.76012367545799,55,657,0,35.77727910067793,17.155425219942117
35.80963692458941,69,532,1,35.82923614257572,19.599217986316944
35.94520732394879,59,578,0,35.96390722619709,18.699902248292346
35.96450572499871,67,510,1,35.98453505051191,20.029325513198273
35.98942244532282,80,575,1,36.0081809985975,18.758553274681617
36.00231663911896,72,490,1,36.02273697147478,20.420332355817663
36.03399756164245,74,655,1,36.05119208754665,17.194525904204056
36.061889996632715,61,630,0,36.07957328109019,17.683284457474656
36.0805596753489,56,551,0,36.099787436834724,19.227761485824885
36.09279233384331,72,416,1,36.11465939151682,21.867057673509407
36.09835225588549,57,618,0,36.116270144448535,17.91788856304629
36.10971206140863,62,573,0,36.12850971536758,18.797653958943556
36.1126810418847,69,576,1,36.131420044817254,18.739002932554286
36.12954479290825,73,680,1,36.146250560259176,16.70576735092618
36.184889314070844,58,502,0,36.20507504232109,20.18572825024603
36.186623034957776,58,416,0,36.20849009263129,21.867057673509407
36.19184151555641,59,473,0,36.21259420372846,20.752688172040507
36.209224405270916,52,470,0,36.23003574446935,20.811339198437054
36.24582882470545,59,610,0,36.26390311600555,18.074291300101322
36.30753700548437,59,697,0,36.32391041701908,16.373411534703337
36.331859068950834,56,620,0,36.34973785682962,17.87878787878435
36.342348823957366,66,438,0,36.363785774103995,21.436950146628078
36.345718605120396,70,655,1,36.3629131310246,17.194525904204056
36.40376939076057,73,429,1,36.425382293986374,21.612903225803166
36.41790989098018,74,568,1,36.43680529664978,18.89540566960204
36.42827917277566,66,493,0,36.448640854105086,20.361681329421117
36.4627253226746,75,547,1,36.482031285528954,19.305962854348763
36.488185442233664,64,494,0,36.50852757322095,20.342130987293785
36.51232142678317,72,468,0,36.53317186666586,20.850439882698993
36.650790555909516,69,546,1,36.670116069106,19.32551319648337
36.65127448542839,77,668,1,36.66821485688489,16.940371456497815
36.658246163330176,62,422,0,36.6799959189509,21.74975562072359
36.663963025845604,71,664,1,36.68098159867063,17.018572825021693
36.67999892671771,60,667,0,36.69695884851634,16.959921798632422
36.70739626893427,66,688,1,36.72394563354815,16.549364613878424
36.79718438129467,75,554,1,36.81635349175411,19.169110459435615
36.84746956653913,68,589,0,36.865954415023985,18.484848484848044
36.94129514551397,61,672,0,36.958157315601945,16.862170087973936
37.04671869777024,74,521,1,37.06653296951999,19.81427174975397
37.05594088224959,79,426,1,37.07761243650179,21.671554252199712
37.08201011730229,60,514,0,37.101961241446965,19.951124144674395
37.09811726919701,57,508,0,37.11818569539447,20.068426197460212
37.13060756448491,57,627,0,37.14834949996878,17.741935483871202
37.132264017673485,50,479,0,37.15289940379274,20.63538611925469
37.180086030599846,72,622,1,37.19792571779436,17.839687194522412
37.183772959476634,68,684,1,37.20040052545904,16.627565982402302
37.191198232431134,72,690,1,37.20770849636075,16.510263929616485
37.267129131482896,56,592,0,37.285555328941356,18.426197458458773
37.26805454441074,66,533,0,37.287634212054925,19.579667644182337
37.338387607842726,76,673,1,37.35523022758857,16.842619745846605
37.34392647048251,74,460,1,37.364933313102256,21.00684261974675
37.38964935480795,60,621,0,37.40750859234461,17.85923753665702
37.41122569017372,56,583,0,37.429827840711354,18.60215053763386
37.45796797878295,63,630,1,37.47565126324043,17.683284457474656
37.48556052411107,67,415,1,37.507447132126714,21.88660801563674
37.50356878658495,71,559,1,37.522640145333725,19.07135874877713
37.55772630509824,53,410,0,37.57971066482454,21.984359726295224
37.56444082658847,56,668,0,37.581381198044966,16.940371456497815
37.586942428528246,72,679,1,37.603667746221305,16.725317693060788
37.605752036069845,54,431,0,37.62732583861139,21.573802541541227
37.62231044397668,61,449,0,37.64353234035987,21.221896383183775
37.6376632766025,55,674,0,37.65448634600621,16.823069403711997
37.64636713527325,72,535,1,37.66590770223317,19.540566959920397
37.64664254131689,53,533,0,37.666222208961074,19.579667644182337
37.66880184223943,69,545,1,37.68814690577804,19.345063538610702
37.74533753286828,54,551,0,37.7645652943541,19.227761485824885
37.745903454098624,75,563,1,37.764896611478875,18.99315738025325
37.77022624671866,68,550,1,37.78947355854662,19.247311827959493
37.81263544562809,49,472,0,37.833407684142266,20.772238514175115
37.82041565628294,50,487,0,37.840894639665144,20.478983382206934
37.82746961869759,58,599,1,37.84575896376113,18.28934506353835
37.83785484685938,65,606,0,37.856007339528006,18.1524926686252
37.864243301624306,73,539,1,37.88370566721571,19.46236559139652
37.885870186971054,69,483,1,37.90642737172179,20.557184750730812
37.942587061433684,66,529,0,37.96224493044639,19.657869012706215
37.98771393820812,68,583,0,38.00631608874575,18.60215053763386
37.99565939370477,74,728,0,38.01142674463341,15.767350928639644
38.02676752261348,66,725,1,38.04259352456852,15.82600195503619
38.02841263291644,63,799,0,38.042791909553785,14.379276637344446
38.05218465194993,63,785,0,38.066837633377105,14.65298142717802
38.05739261350482,77,684,1,38.07402017948722,16.627565982402302
38.06002263881791,81,823,1,38.07393270724411,13.910068426193902
38.061894139482085,55,731,1,38.07760283938434,15.708699902250373
38.07767849574002,68,650,1,38.09497077335487,17.292277614855266
38.0782629947573,48,877,1,38.09111734470842,12.854349951121549
38.10639074006499,60,839,1,38.11998800301709,13.59726295209839
38.1108394649197,55,723,1,38.126704567558996,15.86510263929813
38.13160421336061,56,540,1,38.15104702860988,19.442815249269188
38.13917996244102,51,808,1,38.15338328599918,14.203323558162083
38.141898922550624,52,768,1,38.156884259794026,14.985337243400863
38.14769968902471,43,741,1,38.16321288550565,15.513196480940678
38.170112114117885,48,531,1,38.18973088244633,19.618768328444276
38.179438795320664,58,732,1,38.195127944880774,15.689149560115766
38.184881777582696,54,836,0,38.19853769156119,13.655913978494937
38.20720227782997,68,597,0,38.225530723577776,18.328445747800288
38.21294593737793,72,831,1,38.226699603067075,13.753665689146146
38.215467010371675,41,619,1,38.2333653485926,17.89833822091896
38.227774924366514,54,706,1,38.24397238282204,16.197458455520973
38.235440042998164,48,530,1,38.25507836166874,19.638318670578883
38.25004178576239,78,646,0,38.26741226474577,17.370478983379144
38.25558555646755,45,573,0,38.27438321042649,18.797653958943556
38.25855622748021,71,775,1,38.2734047123287,14.848484848487715
38.26448353052061,40,823,1,38.2783935989468,13.910068426193902
38.26903209954344,95,723,1,38.284897202182734,15.86510263929813
38.2832942302462,52,549,1,38.30256109241628,19.266862170086824
38.28707566175859,54,757,0,38.302276052765436,15.200391006845166
38.29057767779549,75,700,0,38.3068924383038,16.31476050830679
38.296153213588674,65,806,0,38.3103956378311,14.242424242424022
38.29921337156722,57,761,0,38.31433556120554,15.122189638321288
38.30398048684807,47,580,1,38.3226412884121,18.660801564030407
38.304695472248625,71,512,0,38.32468569707756,19.990224828936334
38.3080111463091,75,893,0,38.32055269078613,12.541544477026036
38.30838296274985,54,540,1,38.327825777999124,19.442815249269188
38.30851862165815,60,626,1,38.326280107484145,17.761485825998534
38.30968891679009,54,874,1,38.32260191776761,12.913000977518095
38.320816702609775,44,621,1,38.33867594014643,17.85923753665702
38.33677153482281,54,696,1,38.35316449669964,16.392961876830668
38.35257095271166,59,717,0,38.36855335740374,15.982404692083946
38.37329640841145,75,512,0,38.393286633240386,19.990224828936334
38.380115069857865,63,607,0,38.398248012184354,18.132942326490593
38.3834780935792,69,663,1,38.400516216746354,17.0381231671563
38.390888446662096,51,719,1,38.406831750669916,15.943304007822007
38.3944922819088,48,563,1,38.413485439289055,18.99315738025325
38.39942988790236,52,577,1,38.418149340492775,18.719452590419678
38.40376651454564,85,890,1,38.416366710049054,12.600195503422583
38.45395338847461,61,899,1,38.466377630898855,12.42424242424022
38.46290206238238,46,630,1,38.48058534683986,17.683284457474656
38.46846552912256,58,665,0,38.48546455160546,16.99902248289436
38.506839156165896,58,861,1,38.52000631159111,13.16715542521706
38.50997718505389,67,776,0,38.52480611956024,14.828934506353107
38.520854396162214,52,899,0,38.53327863858645,12.42424242424022
38.522996195349876,76,831,1,38.53674986103903,13.753665689146146
38.52536240302895,94,577,0,38.54408185561937,18.719452590419678
38.5427290143224,67,796,1,38.557166941986125,14.437927663733717
38.5456306803777,71,611,0,38.56368542133566,18.054740957966715
38.548570978233876,60,575,1,38.567329531508555,18.758553274681617
38.55739450099491,60,621,0,38.575253738531565,17.85923753665702
38.56551495342621,46,852,0,38.57885806193061,13.343108504399424
38.56702067174771,62,840,0,38.580598384357685,13.577712609971059
38.57203567048077,87,692,0,38.58850683372613,16.471163245354546
38.57207431477505,61,824,0,38.58596483285912,13.89051808406657
38.578465762814865,71,537,1,38.59796722909052,19.50146627565846
38.5812743103849,66,777,1,38.59608369454912,14.809384164225776
38.58789481649139,49,877,1,38.60074916644251,12.854349951121549
38.5882145765177,71,575,1,38.60697312979238,18.758553274681617
38.609965555644514,65,608,0,38.62807894762888,18.11339198436326
38.61255948220265,57,837,1,38.62619584583901,13.636363636360329
38.648640463263504,56,733,1,38.66431006248149,15.669599217988434
38.653326174300744,72,631,1,38.6709899084161,17.663734115347324
38.657762375158356,44,848,1,38.671183685031274,13.421309872923302
38.66087526816872,56,700,0,38.67719002867703,16.31476050830679
38.664219166984466,50,823,0,38.678129235410665,13.910068426193902
38.66646208049684,58,760,1,38.68160382047729,15.14173998044862
38.669192503848,78,817,0,38.683219874326994,14.027370478986995
38.672630124195386,64,785,0,38.68728310562256,14.65298142717802
38.68240814192203,68,523,1,38.70218331298752,19.77517106549203
38.6892049146797,41,564,1,38.70817852171783,18.97360703812592
38.69134938100666,55,571,0,38.71018613564986,18.836754643205495
38.697915699273345,63,675,0,38.714719218334935,16.803519061584666
38.713046459136095,41,572,1,38.731863663437174,18.817204301078164
38.71447284661616,71,869,0,38.72748359930433,13.010752688169305
38.7350367469595,67,807,0,38.749259620859796,14.22287390029669
38.740510791327225,46,585,1,38.759073841180594,18.563049853371922
38.74531112273134,67,890,0,38.757911318234754,12.600195503422583
38.76131124605698,81,817,1,38.77533861653596,14.027370478986995
38.76499169100677,51,544,0,38.78435630488752,19.36461388074531
38.76994861384508,66,592,0,38.78837481130354,18.426197458458773
38.789935379853056,72,766,0,38.80495981778072,15.024437927662802
38.80794046043842,66,653,1,38.82517408702689,17.233626588465995
38.80895527685938,69,787,0,38.82356915760229,14.61388074291608
38.82349230488976,37,829,1,38.83728507126317,13.792766373408085
38.83075249517928,55,765,1,38.84579648344908,15.04398826979741
38.839063704872395,75,701,1,38.85535891503857,16.29521016617946
38.84104313133958,65,584,1,38.85962573153509,18.58260019550653
38.85771134999802,65,658,0,38.87484722487583,17.13587487780751
38.8799715866854,67,616,1,38.89792857593271,17.95698924730823
38.88155646805138,70,639,1,38.899063799429676,17.50733137829957
38.88930304626216,56,848,0,38.902724356135074,13.421309872923302
38.88984783103879,55,716,0,38.905849786073006,16.001955034211278
38.8925024340198,69,788,0,38.90709676442058,14.594330400781473
38.893077097611375,46,664,1,38.9100956704364,17.018572825021693
38.912566989575936,53,878,1,38.92540178918493,12.834799608994217
38.91599234517036,79,738,1,38.93156419267769,15.571847507329949
38.91776619520495,49,682,1,38.93443286187161,16.66666666666424
38.92048167781547,67,546,1,38.939807191011944,19.32551319648337
38.92797509951686,69,896,0,38.940457992967495,12.482893450636766
38.92838720935555,63,761,1,38.94350939899387,15.122189638321288
38.944855877071866,71,649,1,38.962167705028854,17.311827956989873
38.9480665295795,63,531,0,38.96768529790794,19.618768328444276
38.95251837239483,55,679,0,38.969243690087886,16.725317693060788
38.96913710954665,60,540,1,38.98857992479592,19.442815249269188
38.9814835172054,83,551,0,39.00071127869123,19.227761485824885
38.9958522256414,56,690,1,39.01236248957102,16.510263929616485
38.996493436720364,46,523,1,39.016268607785854,19.77517106549203
39.01112530584635,41,799,0,39.02550458248369,14.379276637344446
39.01184103858839,88,512,1,39.031831263417324,19.990224828936334
39.01470086178011,68,623,0,39.032520998632506,17.82013685239508
39.029469783178186,58,554,0,39.04863889363762,19.169110459435615
39.03020379441768,51,894,1,39.04272578855257,12.521994134898705
39.032584202380654,62,740,0,39.048116949203724,15.53274682306801
39.035426037271556,64,601,0,39.05367628165084,18.25024437927641
39.039883156927154,67,888,0,39.05252245311484,12.639296187684522
39.065393809295315,72,616,1,39.083350798542625,17.95698924730823
39.073578348868075,52,591,0,39.09202409666866,18.445747800586105
39.0766418618893,59,851,1,39.090004520735825,13.362658846526756
39.07834909439012,42,889,1,39.09096884023567,12.619745845549915
39.10863528462025,83,749,0,39.12399207836414,15.356793743892922
39.110593282784286,63,786,1,39.12522671386933,14.633431085043412
39.130390542040665,63,557,1,39.1495010014737,19.11045943303907
39.131132101754936,51,843,1,39.14465116333851,13.519061583574512
39.13693313045404,49,553,1,39.1561217912556,19.188660801562946
39.13933351546936,36,708,0,39.15549187324062,16.158357771259034
39.14305165800712,53,786,1,39.15768508909216,14.633431085043412
39.144526592140295,68,626,1,39.162288077966295,17.761485825998534
39.15197688696561,47,708,1,39.16813524473687,16.158357771259034
39.15275383867459,64,602,1,39.17098453271174,18.230694037149078
39.16417679395453,50,744,0,39.17963133940908,15.454545454544132
39.170407562037546,55,798,0,39.18480638901702,14.398826979471778
39.187668774414504,48,701,1,39.20396398458068,16.29521016617946
39.20193139136621,55,823,0,39.21584145979241,13.910068426193902
39.221282476827746,53,642,0,39.23873115717964,17.448680351903022
39.23382843773899,75,674,1,39.250651507142706,16.823069403711997
39.23720231002212,74,670,1,39.25410358079436,16.901270772235875
39.24305638624752,57,776,0,39.25788532075387,14.828934506353107
39.24404278170754,61,768,1,39.25902811895094,14.985337243400863
39.24441298675696,54,737,1,39.26000438460643,15.591397849464556
39.251415920746496,72,775,0,39.26626440559499,14.848484848487715
39.25172980965818,59,694,0,39.268161872219274,16.432062561092607
39.29013228176246,64,865,0,39.30322123581915,13.088954056693183
39.30038429006562,52,640,1,39.31787207110179,17.48778103616496
39.30614033470178,81,674,1,39.32296340410549,16.823069403711997
39.32001684544518,38,662,1,39.33707451895446,17.05767350928363
39.33324288412864,52,804,0,39.347524409055325,14.281524926685961
39.33358389153725,59,550,1,39.35283120336521,19.247311827959493
39.34761696946036,78,590,1,39.36608226760308,18.465298142720712
39.35101730869859,65,858,1,39.3642431151502,13.225806451613607
39.353375375324646,61,809,1,39.367559148540685,14.183773216034751
39.35512374671799,49,764,0,39.37018728532992,15.063538611924741
39.35559146804947,63,767,1,39.370596355635,15.00488758553547
39.35836221872987,37,751,1,39.37367991178951,15.317693059630983
39.38897709865942,42,678,0,39.40572196669461,16.74486803518812
39.39202808654203,49,681,1,39.40871430355083,16.68621700879885
39.39390520043813,40,734,1,39.40955524931398,15.650048875853827
39.41277490455248,49,703,1,39.42903101403439,16.25610948191752
39.424042332007524,66,801,1,39.438382507960604,14.340175953082507
39.4690660620813,62,760,1,39.48420780206175,15.14173998044862
39.488438705062435,59,534,0,39.50799882236449,19.560117302055005
39.49280186191068,52,703,0,39.5090579713926,16.25610948191752
39.49943452445944,31,860,0,39.51262123022679,13.186705767351668
39.51061832689208,57,620,0,39.528497114770865,17.87878787878435
39.51325558006283,39,662,1,39.53031325357212,17.05767350928363
39.51444868857092,56,641,0,39.53191691926496,17.46823069403763
39.51522985451265,39,524,0,39.53498547523601,19.7556207233647
39.529132076294914,58,591,0,39.5475778240955,18.445747800586105
39.532209524489964,72,638,1,39.549736406210386,17.5268817204269
39.539315598562894,68,833,0,39.553030163567776,13.714565004884207
39.542330971366084,55,696,0,39.558723933242916,16.392961876830668
39.552894781362085,49,666,0,39.569874253502846,16.979472140759754
39.559959442451785,42,733,1,39.57562904166977,15.669599217988434
39.56243160820574,46,712,1,39.57851176460848,16.080156402735156
39.57722641523262,70,623,1,39.595046552085016,17.82013685239508
39.579158991382215,51,844,1,39.592658502623664,13.49951124144718
39.584135968576035,70,584,1,39.602718568771536,18.58260019550653
39.58564142137709,51,569,0,39.604517276704556,18.875855327467434
39.58675335964798,36,665,1,39.60375238213087,16.99902248289436
39.58923568040293,59,503,0,39.60940185831104,20.166177908111422
39.624636582114206,70,598,1,39.64294547751988,18.308895405672956
39.63180627077795,59,676,1,39.6485902394974,16.78396871945006
39.63479279270788,86,776,1,39.64962172721423,14.828934506353107
39.63871889389639,48,703,0,39.654975003378304,16.25610948191752
39.64457509139698,97,613,0,39.66259073167069,18.015640273704776
39.656397406614126,71,570,0,39.67525371159947,18.856304985340103
39.663281924143014,40,660,1,39.680378698336554,17.09677419354557
39.66396381873134,44,853,1,39.6772873768936,13.323558162264817
39.666402971602,58,726,0,39.68220942321489,15.806451612901583
39.66718978435775,40,663,0,39.68422790752491,17.0381231671563
39.689086123301976,66,833,0,39.70280068830686,13.714565004884207
39.695346146689936,63,764,1,39.71040968530186,15.063538611924741
39.69879813039606,61,748,1,39.71417447448208,15.376344086020254
39.70077076015629,50,729,0,39.7165185607428,15.747800586512312
39.7035893164333,53,585,0,39.72215236628667,18.563049853371922
39.708451052766186,67,844,0,39.72195056400763,13.49951124144718
39.71347555029577,48,736,1,39.72908649848736,15.610948191591888
39.73850709792969,60,685,0,39.75511511356997,16.60801564027497
39.742998762964376,62,612,1,39.76103395358021,18.035190615839383
39.743335512373335,59,655,1,39.76053003827754,17.194525904204056
39.760110813278736,48,812,0,39.77423593546837,14.125122189638205
39.76851697950797,56,763,1,39.78360006846203,15.083088954059349
39.77301290552459,58,868,0,39.78604320855489,13.030303030303912
39.78653856079962,67,574,0,39.80531666441644,18.778103616816225
39.78737388411376,45,528,1,39.807051303468604,19.677419354840822
39.795994647904024,73,610,0,39.81406893920413,18.074291300101322
39.804347907634174,46,504,1,39.82449453520016,20.14662756598409
39.80753029594635,61,651,0,39.82480302321908,17.272727272727934
39.82223018705922,74,591,1,39.8406759348598,18.445747800586105
39.82623840298585,71,530,0,39.84587672165643,19.638318670578883
39.827565736935334,47,696,1,39.843958698812166,16.392961876830668
39.841930808842086,43,703,1,39.85818691832401,16.25610948191752
39.8630918128241,50,503,1,39.88325799073221,20.166177908111422
39.87159492543637,77,873,0,39.88452747675601,12.932551319645427
39.873348531720964,42,526,0,39.89306505176007,19.71652003910276
39.873547313557445,43,792,1,39.8880634425897,14.516129032257595
39.88285623747976,66,651,1,39.90012896475248,17.272727272727934
39.88378698081083,50,881,0,39.89656312939343,12.77614858259767
39.891499234790544,62,844,0,39.90499874603199,13.49951124144718
39.89799876893774,69,667,0,39.91495869073637,16.959921798632422
39.90548451793173,48,730,0,39.92121276817611,15.728250244377705
39.90648272539022,81,864,0,39.91959122978905,13.10850439882779
39.91833937461931,65,551,1,39.93756713610514,19.227761485824885
39.9203191856577,62,762,1,39.93542182495389,15.10263929618668
39.942531365438654,69,798,1,39.95693019241813,14.398826979471778
39.95104990755718,49,525,0,39.97078597793841,19.736070381230093
39.96516816495615,49,648,0,39.98249954325526,17.331378299117205
39.9916181482727,50,618,0,40.00953603683574,17.91788856304629
39.99922202399158,59,585,1,40.01778507384495,18.563049853371922
40.00094559062454,52,690,1,40.01745585455416,16.510263929616485
40.00195652125389,81,892,1,40.01451761607305,12.561094819160644
40.010909200650936,30,702,1,40.02718486047498,16.27565982404485
40.01507612576427,55,876,1,40.027950026057525,12.873900293256156
40.01940502499123,82,830,0,40.03317824102251,13.773216031280754
40.02074543083537,64,664,1,40.03776400366039,17.018572825021693
40.03011417401923,66,500,0,40.05033900295374,20.22482893450797
40.038366832950295,67,771,0,40.05329351916731,14.926686217011593
40.039420937612235,42,706,1,40.05561839606776,16.197458455520973
40.04306078668645,62,588,1,40.06156518551344,18.50439882698265
40.04589142086412,65,633,1,40.06351605429521,17.624633431085385
40.082936927550605,54,852,0,40.096280036055,13.343108504399424
40.0836307109621,65,693,0,40.10008232386532,16.451612903227215
40.084773688762404,71,701,1,40.10106889892859,16.29521016617946
40.08610170344232,52,650,1,40.103393981057174,17.292277614855266
40.09030197200487,44,504,1,40.11044859957086,20.14662756598409
40.09663026748226,26,504,1,40.11677689504824,20.14662756598409
40.10157913386732,75,647,1,40.11893006250857,17.350928641251812
40.10911355726321,63,861,0,40.12228071268842,13.16715542521706
40.127475466058584,47,741,0,40.14298866253952,15.513196480940678
40.12812169110276,70,858,0,40.14134749755438,13.225806451613607
40.13900885199362,71,821,1,40.152958021104084,13.949169110455841
40.14128469601672,64,588,1,40.159789094843696,18.50439882698265
40.14184602793268,58,582,1,40.16046772881245,18.62170087976847
40.154167051044055,48,842,1,40.16770566296976,13.53861192570912
40.15843141479113,55,889,1,40.17105116063668,12.619745845549915
40.17431320691625,71,625,1,40.192094243084384,17.78103616813314
40.177330695244514,52,819,1,40.19131896503923,13.98826979471778
40.1791945915699,50,513,1,40.1991652660567,19.970674486801727
40.18392933246557,58,721,1,40.199833535789125,15.904203323560068
40.18435580497915,64,855,0,40.19764026245715,13.284457478002878
40.185420945655444,64,606,1,40.20357343832407,18.1524926686252
40.201335555766384,54,774,1,40.216203590956994,14.868035190615046
40.20744815148704,63,599,0,40.22573749655058,18.28934506353835
40.21756414933309,62,550,0,40.236811461161054,19.247311827959493
40.21865184943899,50,576,0,40.23739085237155,18.739002932554286
40.225644428148875,56,614,0,40.24364051808044,17.996089931570168
40.227108099422686,69,615,1,40.24508463901213,17.976539589442837
40.25089812818494,68,743,1,40.26637222398162,15.47409579667874
40.26254575306086,74,702,1,40.27882141288491,16.27565982404485
40.263587192022065,49,595,0,40.28195473845413,18.367546432062227
40.2693785401858,59,508,1,40.28944696638326,20.068426197460212
40.27002340721014,82,509,0,40.29007228306546,20.048875855325605
40.27316689193755,44,684,0,40.28979445791995,16.627565982402302
40.275914171312806,92,646,1,40.29328465029619,17.370478983379144
40.27680205753586,41,607,1,40.29493499986235,18.132942326490593
40.346374302784156,63,793,1,40.360870881474284,14.496578690130264
40.35230707151392,46,705,1,40.36852408031157,16.21700879765558
40.353490607619335,65,612,1,40.371525798235176,18.035190615839383
40.3620234713783,48,618,1,40.37994135994135,17.91788856304629
40.39214802500969,55,537,0,40.411649491285345,19.50146627565846
40.393563458381315,59,731,1,40.409272158283564,15.708699902250373
40.410986090268764,59,779,1,40.425756373748726,14.770283479963837
40.4115210183332,57,600,1,40.42979081305461,18.269794721411017
40.4137457647308,52,895,0,40.42624820852356,12.502443792764097
40.41414577069754,56,845,1,40.42762573159685,13.479960899312573
40.414900617264855,51,534,0,40.43446073456691,19.560117302055005
40.429026463415326,56,804,1,40.44330798834201,14.281524926685961
40.449852977047904,55,552,1,40.4690611881916,19.208211143697554
40.454337829277826,69,688,1,40.470887193891706,16.549364613878424
40.46818020518024,45,684,1,40.484807771162636,16.627565982402302
40.47405005571724,56,832,1,40.48778417106426,13.734115347018815
40.488731087936024,42,679,0,40.50545640562908,16.725317693060788
40.491127136670656,74,556,1,40.51025714644583,19.130009775173676
40.49845427366622,79,664,0,40.51547284649124,17.018572825021693
40.505668898556536,72,534,1,40.52522901585859,19.560117302055005
40.52027280834468,59,624,0,40.53807339485494,17.800586510260473
40.537624500989075,51,558,0,40.55671541007999,19.090909090911737
40.5417961615625,42,579,0,40.56047651346866,18.68035190615774
40.54527803340157,58,551,0,40.564505794887395,19.227761485824885
40.54540956477318,52,517,0,40.565302037891456,19.89247311827785
40.54609254568362,47,749,0,40.56144933942751,15.356793743892922
40.54987095713035,53,797,0,40.56428933445196,14.418377321606386
40.552999372660274,31,885,0,40.56569731987435,12.697947214073793
40.579425627369176,58,684,0,40.59605319335158,16.627565982402302
40.592926370128744,53,509,0,40.61297524598407,20.048875855325605
40.61537357639607,50,788,1,40.62996790679685,14.594330400781473
40.618587815167956,59,717,0,40.63457021986004,15.982404692083946
40.62719437130394,50,555,1,40.64634393142124,19.149560117301007
40.64158723961983,63,797,0,40.656005616941435,14.418377321606386
40.651872174779044,69,626,0,40.66963366060504,17.761485825998534
40.653693372567716,70,510,0,40.673722698080915,20.029325513198273
40.66031514642679,59,881,1,40.673091295009385,12.77614858259767
40.67209517292332,67,593,1,40.69050182003964,18.406647116324166
40.673020214344575,66,584,0,40.69160281454008,18.58260019550653
40.67516284324878,73,531,0,40.69478161157722,19.618768328444276
40.68719091896782,71,687,1,40.70375983392383,16.56891495601303
40.68744377355137,67,806,1,40.7016861977938,14.242424242424022
40.69499135928136,88,847,0,40.70843221949641,13.440860215050634
40.70004973756537,73,840,1,40.713627450175345,13.577712609971059
40.712205074531596,60,707,0,40.72838298264499,16.17790811339364
40.72041758926756,41,543,1,40.73980175349043,19.38416422287264
40.72737829640806,57,698,0,40.743732157600625,16.35386119256873
40.7281154872043,79,704,1,40.74435204634408,16.236559139782912
40.73438841017906,68,642,0,40.75183709053096,17.448680351903022
40.73629152642914,54,524,1,40.75604714715251,19.7556207233647
40.749585007120295,70,748,0,40.76496135120632,15.376344086020254
40.759429464276344,65,802,0,40.77375008988729,14.3206256109479
40.76718041428571,64,687,1,40.78374932924173,16.56891495601303
40.768987051722036,32,571,1,40.78782380636524,18.836754643205495
40.77213055265407,49,833,1,40.78584511765895,13.714565004884207
40.78232559292061,46,519,1,40.80217896535462,19.85337243401591
40.78784925404233,54,650,0,40.80514153165718,17.292277614855266
40.80843563680416,44,543,1,40.82781980102703,19.38416422287264
40.82282248343745,76,719,0,40.83876578744527,15.943304007822007
40.82973148638419,78,613,1,40.84774712665789,18.015640273704776
40.83092907323942,65,816,1,40.844975994060526,14.046920821114327
40.83685861015998,66,799,0,40.85123788679732,14.379276637344446
40.84203233611779,66,610,0,40.86010662741789,18.074291300101322
40.846746864440185,61,717,1,40.86272926913227,15.982404692083946
40.857097844332074,69,550,1,40.87634515616003,19.247311827959493
40.85949198277732,33,756,1,40.874711924126295,15.219941348972498
40.89610628464407,49,672,0,40.912968454732045,16.862170087973936
40.90351836345285,59,672,0,40.920380533540815,16.862170087973936
40.90634876066426,60,802,1,40.92066938627521,14.3206256109479
40.92044275424184,47,887,0,40.93310160077165,12.658846529811854
40.94555316001608,78,796,1,40.95999108767982,14.437927663733717
40.94814459520534,62,727,0,40.963931496476114,15.786901270774251
40.95498139698272,54,679,1,40.971706714675776,16.725317693060788
40.961599170140474,67,529,0,40.98125703915318,19.657869012706215
40.99310450631446,47,645,1,41.01049453563998,17.39002932551375
41.004613105449295,47,626,1,41.022374591275295,17.761485825998534
41.00713882949,79,685,1,41.023746845130276,16.60801564027497
41.010270389531556,55,690,0,41.026780653461174,16.510263929616485
41.013788040963405,39,621,0,41.03164727850006,17.85923753665702
41.017910008579584,94,625,1,41.03569104474772,17.78103616813314
41.02002200470367,73,856,1,41.03328691183955,13.264907135875546
41.02181628123466,48,864,0,41.03492478563349,13.10850439882779
41.028138673928495,56,848,1,41.04155998380142,13.421309872923302
41.03673479985059,64,791,1,41.05127047922499,14.535679374392203
41.049833340326636,65,613,0,41.06784898060034,18.015640273704776
41.05111409759701,48,847,1,41.06455495781206,13.440860215050634
41.05128837799402,51,817,0,41.065315748473004,14.027370478986995
41.05859442945183,77,841,0,41.072152591719664,13.558162267836451
41.07390262367333,51,632,1,41.09154680744654,17.644183773212717
41.07431447986972,70,892,1,41.086875574688875,12.561094819160644
41.07934958740789,66,890,1,41.09194978291131,12.600195503422583
41.087972631665075,63,665,1,41.104971654147974,16.99902248289436
41.09443856025823,44,697,1,41.110811971792934,16.373411534703337
41.09635013830425,62,625,1,41.114131174472384,17.78103616813314
41.11177803138713,80,667,1,41.12873795318576,16.959921798632422
41.11344257300288,44,604,1,41.13163416635577,18.19159335288714
41.11764381538586,45,785,0,41.13229679681304,14.65298142717802
41.12387585720801,50,571,0,41.142712611851216,18.836754643205495
41.13088862237461,54,884,1,41.14360611993082,12.7174975562084
41.157920618808106,66,655,1,41.175115144712315,17.194525904204056
41.16205288560123,40,728,1,41.17782023652986,15.767350928639644
41.16587480168346,85,505,0,41.186001878907305,20.127077223849483
41.169578387483426,67,568,1,41.18847379315302,18.89540566960204
41.169834006942146,55,614,0,41.18783009687372,17.996089931570168
41.17108061259561,70,838,1,41.184697425889844,13.616813294232998
41.179742971225146,73,891,1,41.19232361638643,12.580645161287975
41.1996459716628,58,634,1,41.21725105475174,17.605083088950778
41.204251852763036,49,813,1,41.21835742461055,14.105571847510873
41.206414478373304,56,794,1,41.2208915067213,14.477028347995656
41.2071378437083,62,717,1,41.22312024840039,15.982404692083946
41.214246869730815,46,771,0,41.229173555947824,14.926686217011593
41.230028435826526,51,771,1,41.244955122043535,14.926686217011593
41.245584689889974,52,576,0,41.26432369282253,18.739002932554286
41.25759074559311,46,717,1,41.2735731502852,15.982404692083946
41.26575607735296,37,592,1,41.28418227481142,18.426197458458773
41.266501839026226,56,510,0,41.286531164539426,20.029325513198273
41.27699235149594,82,555,0,41.29614191161325,19.149560117301007
41.280282585781585,70,791,1,41.294818265155975,14.535679374392203
41.30059001488781,61,775,0,41.315438499736295,14.848484848487715
41.30168407829082,56,660,1,41.318780852484366,17.09677419354557
41.31349279762873,78,880,1,41.32628849655347,12.795698924732278
41.3159847181082,64,891,0,41.32856536326949,12.580645161287975
41.32421578173229,61,535,1,41.34375634869222,19.540566959920397
41.32507014213944,47,792,0,41.3395862711717,14.516129032257595
41.330282732986724,67,676,1,41.34706670170617,16.78396871945006
41.33225709942425,57,880,1,41.34505279834898,12.795698924732278
41.3495355084809,47,862,1,41.36268311356399,13.14760508308973
41.353242611305475,61,822,0,41.367172230073805,13.92961876832851
41.378122524559885,62,623,1,41.39594266141228,17.82013685239508
41.39419313863167,60,872,0,41.40714524029345,12.952101661780034
41.41559295180068,45,512,0,41.43558317662962,19.990224828936334
41.41963588907442,48,770,1,41.43458212563356,14.946236559138924
41.428988647450595,39,569,0,41.44786450277807,18.875855327467434
41.434935266746486,78,521,1,41.45474953849624,19.81427174975397
41.445417215791565,71,831,1,41.459170881480716,13.753665689146146
41.44568504076233,74,693,0,41.46213665366555,16.451612903227215
41.44910618769998,67,670,0,41.46600745847222,16.901270772235875
41.452771049826346,55,664,1,41.46978962265137,17.018572825021693
41.469845228911055,78,774,1,41.48471326410167,14.868035190615046
41.47410982770484,37,506,1,41.49421735458656,20.10752688172215
41.481977526132894,47,702,1,41.49825318595694,16.27565982404485
41.49154037941684,51,775,0,41.506388864265325,14.848484848487715
41.49234147872531,61,517,1,41.512233951843584,19.89247311827785
41.510106717460964,39,507,1,41.53019469400055,20.087976539587544
41.51497538661842,71,786,1,41.52960881770346,14.633431085043412
41.52281117723876,57,796,1,41.53724910490249,14.437927663733717
41.52715623885596,41,781,0,41.541887421651666,14.731182795701898
41.5340664277498,61,781,1,41.5487976105455,14.731182795701898
41.534501283330044,27,728,1,41.550268634258686,15.767350928639644
41.549113249529896,53,679,0,41.565838567222954,16.725317693060788
41.559314349790895,66,545,1,41.578659413329504,19.345063538610702
41.56809246104781,51,655,1,41.58528698695201,17.194525904204056
41.57300315154592,74,750,1,41.58834039494768,15.337243401758315
41.575320729201906,40,892,1,41.58788182402107,12.561094819160644
41.577219960513375,55,728,1,41.59298731144201,15.767350928639644
41.58256928279134,61,633,0,41.60019391622242,17.624633431085385
41.58376312624397,60,665,1,41.60076214872687,16.99902248289436
41.59363004821717,68,538,1,41.613111964150704,19.481915933531127
41.59408683747586,80,599,1,41.61237618253939,18.28934506353835
41.613754422178786,52,702,1,41.630030082002826,16.27565982404485
41.618589136370126,60,651,1,41.63586186364285,17.272727272727934
41.61955191414049,76,787,1,41.6341657948834,14.61388074291608
41.62402333692482,60,512,0,41.64401356175376,19.990224828936334
41.634278454925784,53,703,0,41.6505345644077,16.25610948191752
41.6369514766007,59,836,1,41.65060739057919,13.655913978494937
41.641612058028194,58,669,1,41.65853287914256,16.920821114370483
41.661236032896646,48,725,0,41.67706203485168,15.82600195503619
41.66160092595736,84,861,0,41.67476808138258,13.16715542521706
41.66404196421289,45,742,0,41.6795356103517,15.49364613880607
41.671473699789985,55,860,0,41.68466040555733,13.186705767351668
41.685919925978006,72,871,1,41.69889157798191,12.971652003907366
41.69157577327197,51,739,0,41.70712807043717,15.552297165202617
41.6918333494575,63,688,1,41.70838271407138,16.549364613878424
41.7054341129969,70,775,1,41.72028259784538,14.848484848487715
41.72302232863927,72,519,1,41.74287570107328,19.85337243401591
41.73145161014508,44,626,1,41.74921309597108,17.761485825998534
41.73606904010092,78,647,0,41.75341996874217,17.350928641251812
41.74088456683157,77,788,1,41.75547889723235,14.594330400781473
41.74575462349448,52,519,0,41.76560799592849,19.85337243401591
41.75363267443863,61,729,1,41.76938047502514,15.747800586512312
41.77030960064704,46,747,1,41.78570549507519,15.395894428154861
41.788270878211705,70,549,1,41.80753774038179,19.266862170086824
41.78950868430174,48,627,1,41.807250619785606,17.741935483871202
41.79591761208226,38,608,1,41.81403100406663,18.11339198436326
41.800715381676426,71,756,0,41.8159353230254,15.219941348972498
41.80441519844291,48,897,0,41.81687854155141,12.463343108502158
41.81826934621475,54,646,0,41.83563982519813,17.370478983379144
41.825370817204735,58,731,0,41.841079517106984,15.708699902250373
41.82695353246213,85,602,1,41.84518422649927,18.230694037149078
41.83151126271468,43,579,1,41.85019161462084,18.68035190615774
41.83543116643998,59,549,1,41.854698028610066,19.266862170086824
41.85080889493146,56,854,0,41.8641129027516,13.304007820137485
41.852429624326334,55,700,1,41.868744384834635,16.31476050830679
41.86209858942547,70,622,1,41.879938276619995,17.839687194522412
41.86322762887685,37,572,0,41.88204483317793,18.817204301078164
41.87315648512171,71,615,1,41.89113302471115,17.976539589442837
41.876201853733235,67,750,0,41.891539097134995,15.337243401758315
41.88826211484665,83,780,1,41.90301284798448,14.75073313782923
41.88880051615589,66,620,1,41.906679304034675,17.87878787878435
41.89629786254685,40,893,0,41.908839407023876,12.541544477026036
41.905283878481924,62,598,0,41.9235927738876,18.308895405672956
41.92346906481314,59,680,1,41.94017483216407,16.70576735092618
41.94353106531633,56,857,0,41.95677642211007,13.245356793740939
41.95203965215605,82,792,1,41.96655578118831,14.516129032257595
41.9549660020973,46,778,1,41.96975583591939,14.789833822091168
41.95561464243551,41,829,1,41.96940740880892,13.792766373408085
41.964936184319484,45,659,1,41.98205250885517,17.116324535680178
41.978912105374256,48,612,1,41.9969472959901,18.035190615839383
41.98643929580191,58,716,0,42.00244125083612,16.001955034211278
41.99903809833488,67,790,0,42.0135933280514,14.555229716519534
41.99999100010808,68,742,0,42.01548464624688,15.49364613880607
42.004693208622214,69,519,1,42.02454658105623,19.85337243401591
42.00730695216056,54,626,0,42.02506843798656,17.761485825998534
42.013407539530576,47,629,0,42.03111037433019,17.702834799609263
42.01448891801581,55,531,0,42.03410768634425,19.618768328444276
42.032086969443746,51,826,1,42.04593838684355,13.851417399804632
42.05327705274769,66,790,0,42.06783228246421,14.555229716519534
42.060943708574996,90,668,1,42.077884080031495,16.940371456497815
42.06240648633111,49,734,1,42.07805653520697,15.650048875853827
42.06456745694717,64,658,1,42.081703331824976,17.13587487780751
42.08024380886225,74,719,1,42.096187112870076,15.943304007822007
42.084060362779816,56,688,0,42.100609727393696,16.549364613878424
42.086199689320495,55,534,1,42.10575980662255,19.560117302055005
42.09069200828711,69,676,0,42.10747597700656,16.78396871945006
42.097908128578375,53,580,0,42.11656893014241,18.660801564030407
42.110950327535974,65,561,1,42.12998258560049,19.03225806451519
42.11294881820696,45,541,1,42.1323720831141,19.42326490713458
42.12034242674709,64,871,1,42.13331407875099,12.971652003907366
42.121176095926714,62,728,0,42.136943446855355,15.767350928639644
42.121766421976865,73,545,1,42.141111485515474,19.345063538610702
42.12270513032209,53,805,1,42.136967104906645,14.26197458455863
42.12785194952591,66,545,0,42.14719701306452,19.345063538610702
42.129963818336186,66,684,0,42.14659138431859,16.627565982402302
42.135868415584326,65,735,1,42.15149891411806,15.630498533726495
42.141942013142256,56,577,1,42.16066146573267,18.719452590419678
42.14389175486966,52,645,1,42.16128178419517,17.39002932551375
42.14951128770494,48,785,1,42.164164269132115,14.65298142717802
42.15060093548698,70,720,1,42.16652468915266,15.9237536656874
42.16165300586369,65,857,0,42.17489836265743,13.245356793740939
42.16601788671317,66,550,1,42.18526519854113,19.247311827959493
42.16696448120551,74,546,0,42.186289994401996,19.32551319648337
42.181561148093664,55,822,1,42.195490766861994,13.92961876832851
42.188627051970784,57,776,1,42.20345598647714,14.828934506353107
42.198946598179226,78,535,0,42.218487165139145,19.540566959920397
42.20052169999868,58,556,0,42.219651709773856,19.130009775173676
42.202813842418514,61,831,1,42.216567508107666,13.753665689146146
42.205052350701834,69,719,1,42.22099565470966,15.943304007822007
42.21362962322974,67,765,0,42.22867361149954,15.04398826979741
42.21964888490277,64,639,1,42.237156216281065,17.50733137829957
42.22003137887567,40,744,1,42.23548592433021,15.454545454544132
42.233603301357185,72,659,0,42.25071962589287,17.116324535680178
42.234957191825295,66,732,1,42.250646341385405,15.689149560115766
42.24528730570224,43,862,1,42.25843491078533,13.14760508308973
42.253912051189936,39,822,0,42.267841669958266,13.92961876832851
42.25450584966031,51,822,0,42.268435468428635,13.92961876832851
42.2558177423919,57,692,0,42.272288905637254,16.471163245354546
42.259970513076574,66,829,1,42.27376327944998,13.792766373408085
42.26559983688138,39,850,1,42.27898204607004,13.382209188661363
42.27001721763984,35,536,1,42.289538234257634,19.521016617793066
42.28066361687365,69,548,1,42.299950029385876,19.286412512221432
42.28183723936599,59,864,1,42.29494574376481,13.10850439882779
42.28401146432783,54,852,1,42.29735457283223,13.343108504399424
42.285210386608824,59,812,1,42.29933550879846,14.125122189638205
42.28649304045797,68,765,0,42.30153702872777,15.04398826979741
42.293424270311945,67,860,1,42.3066109760793,13.186705767351668
42.293870456011526,52,615,1,42.311846995600966,17.976539589442837
42.303723274155885,36,690,1,42.3202335380855,16.510263929616485
42.31129069164574,68,839,0,42.324887954597834,13.59726295209839
42.312980226810524,55,629,1,42.33068306161014,17.702834799609263
42.31336845216387,74,882,0,42.32612505040434,12.756598240470339
42.33140509865834,46,698,1,42.34775895985091,16.35386119256873
42.340170186833326,69,712,1,42.35625034323606,16.080156402735156
42.359165851620226,78,831,0,42.37291951730937,13.753665689146146
42.37631845601425,55,760,1,42.3914601959947,15.14173998044862
42.389150946023655,65,697,0,42.405524357558356,16.373411534703337
42.419794129611894,62,836,0,42.43345004359039,13.655913978494937
42.42264421527213,48,539,1,42.44210658086352,19.46236559139652
42.4237772239218,72,860,0,42.436963929689156,13.186705767351668
42.42626689588058,71,711,0,42.44236660262545,16.099706744869763
42.43686359776898,58,630,0,42.45454688222646,17.683284457474656
42.439431628180415,49,806,0,42.45367405242283,14.242424242424022
42.439433606513994,73,764,1,42.45449714512592,15.063538611924741
42.44116726332399,74,602,0,42.45939795736113,18.230694037149078
42.45679804153757,38,701,0,42.473093251703744,16.29521016617946
42.46026794978094,75,570,0,42.47912425476628,18.856304985340103
42.4682537154282,53,791,0,42.48278939480259,14.535679374392203
42.47670133273559,73,502,0,42.496887060985834,20.18572825024603
42.48482702288613,51,502,1,42.50501275113638,20.18572825024603
42.50705920270997,56,843,1,42.52057826429355,13.519061583574512
42.51286994801034,63,864,0,42.52597845240917,13.10850439882779
42.529945192983135,51,685,1,42.54655320862341,16.60801564027497
42.53038758792904,63,645,1,42.54777761725455,17.39002932551375
42.560718308230875,39,586,0,42.57926180774212,18.54349951124459
42.56148654761657,55,676,0,42.57827051633601,16.78396871945006
42.574438517213885,61,841,1,42.587996679481726,13.558162267836451
42.5765423582207,50,754,0,42.591801400253935,15.259042033234437
42.58511274208287,66,568,1,42.604008147752474,18.89540566960204
42.58573526108479,51,580,1,42.604396062648824,18.660801564030407
42.59661098054402,52,786,1,42.611244411629066,14.633431085043412
42.59886075130366,79,636,1,42.61642673370835,17.56598240468884
42.60499714845512,60,533,0,42.6245768160993,19.579667644182337
42.62866110216791,45,861,0,42.64182825759313,13.16715542521706
42.646891063552985,60,660,1,42.663987837746525,17.09677419354557
42.6506417745318,67,715,1,42.66666327990814,16.021505376345885
42.66420886903967,42,677,1,42.680973287417,16.764418377322727
42.665068505522285,51,503,0,42.685234683430394,20.166177908111422
42.67057611857253,48,734,0,42.68622616744838,15.650048875853827
42.67185119256408,72,769,1,42.68681697946535,14.965786901273532
42.697947392230894,42,680,1,42.71465315958182,16.70576735092618
42.701106970918666,68,679,1,42.717832288611724,16.725317693060788
42.712597559822115,68,781,0,42.727328742617814,14.731182795701898
42.715598715313455,65,526,1,42.73531523535256,19.71652003910276
42.73041905742859,59,590,1,42.74888435557131,18.465298142720712
42.7408497427723,59,536,1,42.76037075939009,19.521016617793066
42.7480559462604,46,778,1,42.76284578008249,14.789833822091168
42.74897088184484,56,535,0,42.76851144880476,19.540566959920397
42.754497508337515,45,548,1,42.77378392084974,19.286412512221432
42.76728752132527,48,605,1,42.78545956433602,18.17204301075253
42.77241093435371,44,528,0,42.79208835370854,19.677419354840822
42.77783826655421,61,690,1,42.79434853048383,16.510263929616485
42.80993826399917,54,894,1,42.82246025813407,12.521994134898705
42.81216236282212,66,620,0,42.83004115070091,17.87878787878435
42.812443720068025,37,619,0,42.83034205828894,17.89833822091896
42.83338883703985,71,781,1,42.84812001983555,14.731182795701898
42.835196531813516,74,670,1,42.85209780258575,16.901270772235875
42.8384193948561,60,750,1,42.853756638257856,15.337243401758315
42.8405624839213,67,872,0,42.853514585583085,12.952101661780034
42.858789708966604,52,569,1,42.87766556429408,18.875855327467434
42.85979601547142,38,694,1,42.87622807803251,16.432062561092607
42.860004968878776,43,841,1,42.87356313114661,13.558162267836451
42.86231702182449,51,857,1,42.87556237861823,13.245356793740939
42.86906780679424,55,588,1,42.887572205621225,18.50439882698265
42.88959533015252,66,508,1,42.90966375634998,20.068426197460212
42.8934192287486,72,515,0,42.91335080255114,19.931573802539788
42.89357731875804,60,517,1,42.91346979187632,19.89247311827785
42.90292935259458,68,519,0,42.9227827250286,19.85337243401591
42.90925969522285,58,759,0,42.92442098554543,15.161290322583227
42.916920112562366,44,876,1,42.92979401285562,12.873900293256156
42.94244468541458,67,636,0,42.96001066781927,17.56598240468884
42.96658174229856,60,573,0,42.9853793962575,18.797653958943556
43.01390837100961,65,561,1,43.03294062907413,19.03225806451519
43.01898326058637,66,779,0,43.033753544066336,14.770283479963837
43.02271063793482,62,636,1,43.040276620339505,17.56598240468884
43.05641784609991,44,638,1,43.07394472782034,17.5268817204269
43.070848987217374,56,614,0,43.088845077148946,17.996089931570168
43.079339991305375,68,808,1,43.09354331486353,14.203323558162083
43.08365882641966,50,721,1,43.099563029743216,15.904203323560068
43.09150388759509,70,894,1,43.10402588172998,12.521994134898705
43.09941098333947,43,783,0,43.114103065450905,14.692082111439959
43.10565520144269,81,603,0,43.1238663451377,18.21114369501447
43.10862511042955,50,850,1,43.12200731961821,13.382209188661363
43.1192552407585,59,850,0,43.132637449947154,13.382209188661363
43.12485041889197,69,636,0,43.14241640129666,17.56598240468884
43.13500357448738,74,759,1,43.15016486480996,15.161290322583227
43.15967960964088,54,671,1,43.17656133007099,16.881720430108544
43.16307754053737,49,531,1,43.182696308865815,19.618768328444276
43.164493809704844,85,855,1,43.177778267182845,13.284457478002878
43.16525690078652,41,534,0,43.18481701808857,19.560117302055005
43.17515703511491,80,640,1,43.19264481615107,17.48778103616496
43.189800534510915,61,674,0,43.20662360391462,16.823069403711997
43.21300930740292,71,654,1,43.23022338364925,17.214076246331388
43.21629970958318,61,872,1,43.229251811244964,12.952101661780034
43.21675036468474,68,658,0,43.233886239562544,17.13587487780751
43.21733613642159,45,775,1,43.232184621270086,14.848484848487715
43.2195208677718,68,642,1,43.2369695481237,17.448680351903022
43.2256676906729,66,623,0,43.24348782752529,17.82013685239508
43.233166779745325,59,716,1,43.24916873477954,16.001955034211278
43.242160878668095,75,778,1,43.25695071249019,14.789833822091168
43.2581132475266,42,651,0,43.27538597479933,17.272727272727934
43.26822502409238,43,740,0,43.28375777091545,15.53274682306801
43.2700877303978,51,629,1,43.287790565197405,17.702834799609263
43.27743381736815,76,642,0,43.294882497720046,17.448680351903022
43.278369992029575,53,673,0,43.295212611775426,16.842619745846605
43.27903339791201,86,679,0,43.295758715605075,16.725317693060788
43.28509465865899,75,507,1,43.30518263519858,20.087976539587544
43.289691856488695,27,841,1,43.30325001875653,13.558162267836451
43.29238265447946,46,652,1,43.30963583141005,17.253176930593327
43.29938910097257,71,838,1,43.3130059142668,13.616813294232998
43.30256392156684,62,531,0,43.322182689895286,19.618768328444276
43.308536389376115,86,635,0,43.32612192212294,17.585532746823446
43.318916831284895,71,517,0,43.33880930440317,19.89247311827785
43.33318081070763,64,550,0,43.352428122535585,19.247311827959493
43.33485523229983,56,515,1,43.35478680610237,19.931573802539788
43.33489360001257,63,845,0,43.34837356091188,13.479960899312573
43.34425075611246,45,888,0,43.356890052300145,12.639296187684522
43.35146178147612,62,564,0,43.37043538851424,18.97360703812592
43.3592879254798,61,770,0,43.37423416203893,14.946236559138924
43.369803355724855,61,805,0,43.38406533030942,14.26197458455863
43.37525266075219,68,588,1,43.39375705957917,18.50439882698265
43.37772944363215,74,804,1,43.39201096855883,14.281524926685961
43.377982394155964,50,741,0,43.39349559063691,15.513196480940678
43.391686599807336,66,662,0,43.408744273316614,17.05767350928363
43.39871515434602,67,526,1,43.418431674385126,19.71652003910276
43.401864591392346,63,796,0,43.41630251905608,14.437927663733717
43.41161431296796,67,677,1,43.42837873134528,16.764418377322727
43.41750849366465,40,723,0,43.433373596303944,15.86510263929813
43.42510940896093,55,754,1,43.44036845099416,15.259042033234437
43.438986952923294,58,885,1,43.45168490013737,12.697947214073793
43.472183089013875,57,843,0,43.48570215059745,13.519061583574512
43.479226828367445,73,517,1,43.49911930148572,19.89247311827785
43.4795474728538,39,836,1,43.4932033868323,13.655913978494937
43.4922188652284,56,812,1,43.50634398741804,14.125122189638205
43.4986236216151,55,736,0,43.514234569806696,15.610948191591888
43.50954770993272,63,713,1,43.525608315993324,16.060606060607824
43.532945704928174,55,506,0,43.5530532318099,20.10752688172215
43.53449422640819,60,695,0,43.550906738627155,16.412512218965276
43.54178187025432,73,676,1,43.55856583897376,16.78396871945006
43.557051686731235,74,528,1,43.57672910608607,19.677419354840822
43.5591637400176,35,668,0,43.5761041114741,16.940371456497815
43.569324879536104,54,755,0,43.584564371227216,15.239491691107105
43.57435353265994,74,781,1,43.58908471545565,14.731182795701898
43.602183176635144,57,788,1,43.61677750703593,14.594330400781473
43.63207195522742,25,696,1,43.64846491710425,16.392961876830668
43.63739304959773,58,570,1,43.656249354583075,18.856304985340103
43.640192326995404,81,512,1,43.66018255182434,19.990224828936334
43.64026627369822,39,876,0,43.653140173991474,12.873900293256156
43.6542205778719,63,666,0,43.67120005001266,16.979472140759754
43.66638124513575,39,767,1,43.681386132721286,15.00488758553547
43.67062654003235,39,596,0,43.68897453612229,18.347996089934895
43.682541463665736,46,600,1,43.70081125838715,18.269794721411017
43.72907781165895,53,797,1,43.74349618898056,14.418377321606386
43.730266875668185,38,585,1,43.74882992552156,18.563049853371922
43.73975989547284,44,716,1,43.75576185050705,16.001955034211278
43.742121579091936,55,841,1,43.75567974135978,13.558162267836451
43.7462212834803,60,677,0,43.76298570185762,16.764418377322727
43.749132638891,52,869,1,43.762143391579166,13.010752688169305
43.750448930722676,58,806,1,43.7646913549651,14.242424242424022
43.75975034365711,69,576,1,43.778489346589666,18.739002932554286
43.7664074159011,45,891,0,43.778988061062385,12.580645161287975
43.784196545159084,53,779,1,43.798966828639045,14.770283479963837
43.785122715572456,50,541,1,43.80454598047959,19.42326490713458
43.79682474612091,42,500,1,43.81704957505542,20.22482893450797
43.80826609819307,65,537,1,43.827767564468736,19.50146627565846
43.81799823911486,64,720,0,43.833921992780546,15.9237536656874
43.82005211872451,72,710,0,43.83617137581151,16.119257086997095
43.83047586793856,80,596,1,43.848823864028496,18.347996089934895
43.84416031653167,85,810,1,43.85832453940557,14.164222873900144
43.85311890182547,76,830,1,43.86689211785675,13.773216031280754
43.85430528879232,38,662,1,43.8713629623016,17.05767350928363
43.868709217529826,46,694,1,43.88514128009092,16.432062561092607
43.87767033267277,45,681,0,43.894356549681575,16.68621700879885
43.897487183450444,64,883,1,43.91022423134878,12.737047898335732
43.924278640711634,65,808,1,43.9384819642698,14.203323558162083
43.93782082976997,50,789,1,43.95239560982862,14.574780058654142
43.938083464343954,74,672,1,43.95494563443192,16.862170087973936
43.96412169638807,46,835,0,43.9777971607087,13.675464320622268
43.96976178570045,55,792,1,43.98427791473271,14.516129032257595
43.973722344518244,52,600,0,43.991992139239656,18.269794721411017
43.981824893925406,93,885,0,43.99452284113948,12.697947214073793
44.00426897811054,69,767,0,44.01927386569607,15.00488758553547
44.00568101783003,64,842,1,44.01921962975574,13.53861192570912
44.01182405617655,59,528,1,44.03150147553139,19.677419354840822
44.0151138093988,56,747,0,44.03050970382695,15.395894428154861
44.02194348251537,56,583,1,44.040545633053,18.60215053763386
44.02670372003993,76,882,0,44.039460318280405,12.756598240470339
44.032377094159905,70,515,1,44.05230866796245,19.931573802539788
44.04726390096958,75,521,0,44.06707817271934,19.81427174975397
44.06738820397189,62,601,1,44.08563844835116,18.25024437927641
44.06823359184669,49,521,0,44.088047863596444,19.81427174975397
44.09643949824262,58,896,1,44.108922391693255,12.482893450636766
44.12127868797564,52,686,0,44.13786715327378,16.588465298140363
44.13196095310066,56,606,0,44.150113445769286,18.1524926686252
44.13954663947315,64,828,1,44.1533589561887,13.812316715542693
44.140365680745674,42,541,0,44.15978894565281,19.42326490713458
44.142332906787516,64,724,0,44.15817845908468,15.845552297163522
44.1488328888571,68,630,1,44.16651617331457,17.683284457474656
44.150013018462886,55,515,0,44.16994459226542,19.931573802539788
44.155384754727955,64,757,1,44.1705851457348,15.200391006845166
44.15768118702934,55,813,0,44.17178675887685,14.105571847510873
44.17275248720837,58,552,0,44.19196069835207,19.208211143697554
44.18245944238332,61,685,1,44.19906745802359,16.60801564027497
44.187508765811316,58,728,1,44.20327611673996,15.767350928639644
44.226468866321554,60,808,0,44.24067218987972,14.203323558162083
44.227544863991255,67,576,1,44.24628386692381,18.739002932554286
44.23839226989113,40,829,1,44.252185036264535,13.792766373408085
44.25272299563807,79,560,0,44.27177480404472,19.051808406649798
44.25485618263473,69,581,1,44.27349743385663,18.6412512218958
44.25493392777393,42,681,1,44.27162014478273,16.68621700879885
44.269840307972395,65,684,1,44.2864678739548,16.627565982402302
44.27953073522556,58,702,0,44.29580639504961,16.27565982404485
44.287638615513266,70,585,1,44.306201665366636,18.563049853371922
44.29516940839644,46,657,0,44.31232483361638,17.155425219942117
44.30252704063975,35,587,0,44.32105098980887,18.523949169109983
44.30513886007705,59,668,1,44.32207923153355,16.940371456497815
44.319073758401366,65,591,1,44.33751950620196,18.445747800586105
44.319582708159906,50,733,1,44.33525230737789,15.669599217988434
44.329572757105126,56,862,0,44.34272036218822,13.14760508308973
44.335611435151456,68,539,1,44.35507380074285,19.46236559139652
44.35996908393358,61,736,1,44.375580032125164,15.610948191591888
44.3862468409761,51,682,1,44.402913507642765,16.66666666666424
44.393797893336966,71,664,1,44.41081646616199,17.018572825021693
44.39954345569884,54,839,1,44.413140718650936,13.59726295209839
44.40705236945004,79,649,1,44.42436419740704,17.311827956989873
44.41787222622994,47,705,1,44.4340892350276,16.21700879765558
44.425586316160505,77,790,1,44.440141545877026,14.555229716519534
44.427510585246395,47,531,0,44.44712935357484,19.618768328444276
44.42978448977819,60,615,1,44.44776102936763,17.976539589442837
44.43345718336812,31,501,0,44.45366246196049,20.20527859237336
44.44788133113302,66,779,0,44.46265161461298,14.770283479963837
44.45646948528905,67,798,0,44.47086831226852,14.398826979471778
44.46325728252722,60,554,1,44.48242639298666,19.169110459435615
44.46603198841983,48,714,0,44.482073044138296,16.041055718473217
44.469330156546256,59,513,1,44.489300831033056,19.970674486801727
44.482281528569224,79,846,0,44.49574193912641,13.460410557185241
44.48485812999746,55,681,1,44.50154434700626,16.68621700879885
44.485861279403224,21,716,0,44.50186323443744,16.001955034211278
44.48804759860805,60,644,1,44.50545717827569,17.409579667641083
44.494259641208046,55,697,1,44.51063305274275,16.373411534703337
44.514318849306086,81,821,1,44.52826801841655,13.949169110455841
44.51489680992641,51,505,1,44.53502388715026,20.127077223849483
44.51732037110963,43,895,1,44.5298228149024,12.502443792764097
44.527989725492134,29,568,0,44.54688513116173,18.89540566960204
44.52824767008392,77,735,1,44.543878168617645,15.630498533726495
44.53554990658677,38,518,0,44.55542282936292,19.872922776150517
44.53775671772217,44,643,0,44.55518584773194,17.42913000977569
44.55045173141342,58,745,1,44.56588672652584,15.4349951124168
44.55671733076314,46,721,1,44.57262153408671,15.904203323560068
44.560188800133304,65,807,1,44.574411674033605,14.22287390029669
44.56514755710071,67,616,1,44.58310454634802,17.95698924730823
44.58924657387786,64,621,0,44.60710581141451,17.85923753665702
44.60376801941551,51,671,0,44.62064973984562,16.881720430108544
44.637172552609094,47,505,1,44.65729962983295,20.127077223849483
44.64788091122324,53,599,1,44.66617025628678,18.28934506353835
44.664681167606915,49,517,0,44.68457364072519,19.89247311827785
44.677819942960824,42,760,0,44.69296168294127,15.14173998044862
44.681610346041445,63,828,0,44.69542266275699,13.812316715542693
44.69853898318111,47,679,1,44.715264300874175,16.725317693060788
44.70879127123034,55,780,0,44.72354200436816,14.75073313782923
44.72241682927776,60,621,0,44.74027606681442,17.85923753665702
44.723026432053814,71,644,0,44.74043601172145,17.409579667641083
44.748432144885676,56,638,1,44.765959026606104,17.5268817204269
44.750098216929764,61,819,0,44.76408648672448,13.98826979471778
44.7542820870546,70,606,1,44.772434579723225,18.1524926686252
44.756000285163196,54,702,1,44.77227594498724,16.27565982404485
44.756027973214735,62,792,1,44.77054410224699,14.516129032257595
44.75867425336682,79,503,1,44.778840431274936,20.166177908111422
44.80356778112716,65,719,1,44.819511085134984,15.943304007822007
44.807857024858066,64,567,1,44.82677198086979,18.914956011729373
44.812692298446756,58,568,1,44.83158770411635,18.89540566960204
44.81989982707111,65,774,1,44.83476786226172,14.868035190615046
44.82866251379783,43,576,0,44.847401516730386,18.739002932554286
44.847334553157445,46,778,1,44.86212438697954,14.789833822091168
44.854034936426714,59,872,1,44.866987038088496,12.952101661780034
44.85523499468306,56,544,0,44.874599608563805,19.36461388074531
44.859865447227925,58,708,0,44.876023804999186,16.158357771259034
44.86962763651028,62,569,1,44.88850349183775,18.875855327467434
44.870825560018574,81,561,1,44.88985781808309,19.03225806451519
44.872264118851206,51,726,1,44.88807057046411,15.806451612901583
44.897236802452184,61,685,1,44.91384481809246,16.60801564027497
44.90725484700098,51,585,1,44.92581789685435,18.563049853371922
44.921129515664624,78,798,1,44.9355283426441,14.398826979471778
44.94206737628919,60,805,0,44.956329350873744,14.26197458455863
44.94445719940226,71,659,1,44.961573523937936,17.116324535680178
44.95016036990725,53,705,0,44.966377378704905,16.21700879765558
44.95243804468512,43,602,0,44.97066873872226,18.230694037149078
44.95429215130357,56,720,1,44.97021590496926,15.9237536656874
44.9556699836308,59,678,0,44.97241485166598,16.74486803518812
44.96594885498025,86,831,1,44.97970252066939,13.753665689146146
44.96850996239399,40,582,1,44.98713166327376,18.62170087976847
44.973617108834475,60,768,1,44.98860244607788,14.985337243400863
44.991767573018926,61,820,1,45.00573629247152,13.968719452590449
44.99241349213995,66,565,1,45.01136754883594,18.954056695991312
44.992613421103144,47,619,1,45.01051175932407,17.89833822091896
45.01326813113468,63,625,1,45.03104916730282,17.78103616813314
45.02062394799489,34,869,0,45.03363470068306,13.010752688169305
45.02820559723373,75,665,1,45.04520461971662,16.99902248289436
45.03665318428366,63,664,0,45.053671757108674,17.018572825021693
45.03883670333885,79,867,0,45.05188655671128,13.049853372431244
45.03977511229484,28,502,0,45.05996084054509,20.18572825024603
45.04698322552238,81,731,0,45.06269192542463,15.708699902250373
45.052457432223754,36,801,1,45.066797608176834,14.340175953082507
45.052578500404486,55,542,1,45.071982214969495,19.40371456500725
45.11502112429299,65,535,0,45.134561691252905,19.540566959920397
45.134093795350694,52,711,1,45.15019350209556,16.099706744869763
45.182633474084646,89,870,1,45.19562467643068,12.991202346041973
45.183791410579694,56,864,0,45.19689991497852,13.10850439882779
45.19111960567652,55,565,1,45.21007366237251,18.954056695991312
45.195061259443634,63,800,0,45.209420985738845,14.359726295209839
45.207838781995214,72,541,1,45.22726204690235,19.42326490713458
45.20840326978591,68,716,0,45.224405224820124,16.001955034211278
45.213896576113655,49,562,0,45.232909283836044,19.01270772238786
45.23029856647952,36,652,1,45.24755174341011,17.253176930593327
45.23928256984283,64,734,0,45.254932618718684,15.650048875853827
45.24041899825919,55,548,0,45.2597054107714,19.286412512221432
45.24807711807099,51,541,1,45.26750038297812,19.42326490713458
45.25367821885629,56,631,1,45.27134195297163,17.663734115347324
45.25660764362781,72,755,1,45.271847135318914,15.239491691107105
45.26141496805485,42,753,0,45.27669356043022,15.278592375369044
45.26235740599224,60,814,1,45.27644342749762,14.086021505376266
45.283937129835124,56,719,1,45.29988043384295,15.943304007822007
45.29212863292981,44,843,1,45.30564769451338,13.519061583574512
45.29328255441109,43,653,0,45.31051618099956,17.233626588465995
45.29906012346743,64,566,0,45.317994629821285,18.93450635386398
45.316582762781984,64,501,1,45.336788041374355,20.20527859237336
45.31843318909776,45,782,0,45.33314482155133,14.71163245356729
45.33909996011989,72,859,1,45.352306216229366,13.206256109479
45.34606202173254,54,775,1,45.36091050658103,14.848484848487715
45.350362458877754,55,732,0,45.36605160843787,15.689149560115766
45.359121273501856,69,783,1,45.373813355613294,14.692082111439959
45.36643300815219,51,841,1,45.37999117042003,13.558162267836451
45.377863779702835,49,545,1,45.397208843241444,19.345063538610702
45.39625943383901,69,855,0,45.409543891317014,13.284457478002878
45.40481794212202,53,594,1,45.423205038896214,18.387096774196834
45.4061031309128,80,646,1,45.42347360989617,17.370478983379144
45.422512245447805,59,693,0,45.43896385835103,16.451612903227215
45.426817215876966,57,858,0,45.44004302232858,13.225806451613607
45.437247119821684,48,611,1,45.45530186077965,18.054740957966715
45.43930540347972,60,867,0,45.45235525685216,13.049853372431244
45.44395117775136,45,653,0,45.46118480433983,17.233626588465995
45.4440689645358,79,660,1,45.46116573872934,17.09677419354557
45.44790173569179,60,774,1,45.462769770882396,14.868035190615046
45.4541312688671,54,787,0,45.468745149610015,14.61388074291608
45.454841674591655,53,662,0,45.47189934810094,17.05767350928363
45.47525216599132,68,651,1,45.49252489326405,17.272727272727934
45.476655397717366,54,605,1,45.49482744072812,18.17204301075253
45.47736333723241,78,602,1,45.49559403126956,18.230694037149078
45.48889066809418,85,858,1,45.502116474545794,13.225806451613607
45.497884249238524,48,768,1,45.512869586481926,14.985337243400863
45.50498467821147,66,604,1,45.52317627156435,18.19159335288714
45.51364028123698,24,814,1,45.52772630274235,14.086021505376266
45.51907698880078,33,593,0,45.537483635917106,18.406647116324166
45.528609713795404,52,516,1,45.54852173725582,19.912023460412456
45.52998768416615,54,501,0,45.55019296275853,20.20527859237336
45.530287471220355,67,711,1,45.54638717796522,16.099706744869763
45.531070996929714,56,698,1,45.547424858122284,16.35386119256873
45.532336222461424,84,811,0,45.546480894993195,14.144672531772812
45.53261469588583,47,872,0,45.54556679754761,12.952101661780034
45.53325344015438,53,662,1,45.55031111366367,17.05767350928363
45.54262510751616,64,652,1,45.55987828444675,17.253176930593327
45.54803993496002,64,605,0,45.56621197797078,18.17204301075253
45.548350173239285,53,663,0,45.56538829640644,17.0381231671563
45.55027649880285,61,597,0,45.56860494455065,18.328445747800288
45.556875199594195,58,596,0,45.57522319568413,18.347996089934895
45.56261512022249,40,550,1,45.58186243205044,19.247311827959493
45.562640015758895,58,676,0,45.579423984478346,16.78396871945006
45.56447900423572,49,690,0,45.58098926816534,16.510263929616485
45.570317691212196,69,567,1,45.58923264722392,18.914956011729373
45.57374533035345,63,836,0,45.58740124433194,13.655913978494937
45.579000461826176,51,837,1,45.592636825462534,13.636363636360329
45.580475412681736,39,899,1,45.592899655105974,12.42424242424022
45.58189492551581,61,522,1,45.60168964692344,19.79472140762664
45.58746238872922,76,508,1,45.607530814926676,20.068426197460212
45.5893755112859,45,785,0,45.60402849271308,14.65298142717802
45.59031529326459,51,791,1,45.604850972638985,14.535679374392203
45.60903404571377,76,718,1,45.62499690006372,15.962854349949339
45.610381700105705,43,550,0,45.629629011933666,19.247311827959493
45.62959463403916,21,585,1,45.648157683892535,18.563049853371922
45.634339647008176,73,869,1,45.64735039969635,13.010752688169305
45.636853630611675,48,631,1,45.65451736472702,17.663734115347324
45.6471591262597,55,539,1,45.666621491851096,19.46236559139652
45.64912427332019,50,841,1,45.662682435588025,13.558162267836451
45.673688538491504,61,598,1,45.69199743389718,18.308895405672956
45.675110501867444,36,625,0,45.692891538035575,17.78103616813314
45.67688737938265,80,704,1,45.69312393852243,16.236559139782912
45.67842016428055,52,822,0,45.692349783048876,13.92961876832851
45.683538106823946,56,821,1,45.6974872759344,13.949169110455841
45.68512976526282,56,829,0,45.69892253163623,13.792766373408085
45.6858073006005,57,692,1,45.70227846384586,16.471163245354546
45.70760076470021,59,633,1,45.7252253981313,17.624633431085385
45.71880514526015,51,710,0,45.73492440234715,16.119257086997095
45.74992586364197,51,649,1,45.76723769159896,17.311827956989873
45.75395284347106,73,726,0,45.76975929508396,15.806451612901583
45.771951546054765,68,635,1,45.78953707880159,17.585532746823446
45.7830336235461,65,631,0,45.80069735766145,17.663734115347324
45.78857446342629,56,512,1,45.80856468825523,19.990224828936334
45.78927788539972,82,886,0,45.80195628227167,12.678396871946461
45.81974173586439,71,607,1,45.83787467819088,18.132942326490593
45.82707668738842,54,562,0,45.84608939511081,19.01270772238786
45.82739297072987,54,697,1,45.84376638226457,16.373411534703337
45.848612466095226,65,875,1,45.86150591673061,12.893450635383488
45.862746650523135,64,681,0,45.87943286753193,16.68621700879885
45.871395668988285,51,542,1,45.89079938355329,19.40371456500725
45.87911740293546,82,630,0,45.89680068739293,17.683284457474656
45.897768397605724,58,692,0,45.91423956085108,16.471163245354546
45.89819044783349,58,879,1,45.91100569710035,12.81524926685961
45.91928579958372,62,808,0,45.93348912314188,14.203323558162083
45.94658337004877,65,601,1,45.964833614428045,18.25024437927641
45.95902275172818,35,670,1,45.97592402250041,16.901270772235875
45.975662301615955,57,614,0,45.99365839154753,17.996089931570168
46.00678098883596,65,535,0,46.02632155579588,19.540566959920397
46.01312579165435,65,473,1,46.03387847982639,20.752688172040507
46.036978907477916,63,695,0,46.05339141969689,16.412512218965276
46.10110431701976,53,476,0,46.12179835416541,20.694037145651237
46.1221533955983,68,631,1,46.13981712971365,17.663734115347324
46.16872771551023,67,666,1,46.18570718765099,16.979472140759754
46.183251866966465,70,557,1,46.2023623263995,19.11045943303907
46.278322911921386,51,660,0,46.29541968611493,17.09677419354557
46.30268915770426,72,593,0,46.32109580482058,18.406647116324166
46.31677036738295,63,644,0,46.33417994705059,17.409579667641083
46.33879997245034,59,431,0,46.36037377499188,21.573802541541227
46.43853110387231,70,699,1,46.45486541472275,16.334310850441398
46.45757248898215,63,634,0,46.475177572071104,17.605083088950778
46.45780554917837,80,468,1,46.47865598906107,20.850439882698993
46.47417133649044,72,496,1,46.494474366793476,20.303030303031846
46.49424335505089,74,623,1,46.51206349190329,17.82013685239508
46.538538060712945,60,572,0,46.557355265014024,18.817204301078164
46.6498088208584,57,692,0,46.666279984103745,16.471163245354546
46.7123128502735,58,646,0,46.72968332925688,17.370478983379144
46.89047975015459,75,530,1,46.91011806882517,19.638318670578883
46.9241270965355,62,615,0,46.94210363612494,17.976539589442837
47.00674323058881,59,583,0,47.02534538112644,18.60215053763386
47.014055006093685,70,424,1,47.03576566103015,21.71065493646165
47.03173569582016,69,691,1,47.048226409407654,16.490713587489154
47.05146327188693,69,646,1,47.06883375087031,17.370478983379144
47.16203217184169,76,687,1,47.1786010867977,16.56891495601303
47.16772027731931,72,571,1,47.18655703196252,18.836754643205495
47.17389868140439,59,594,0,47.19228577817859,18.387096774196834
47.20424323377759,70,463,0,47.22519142537094,20.948191593350202
47.22898665185527,49,657,0,47.24614207707521,17.155425219942117
47.24656873180662,66,569,1,47.265444587134084,18.875855327467434
47.290857631083504,63,636,0,47.308423613488195,17.56598240468884
47.32407212719293,72,451,1,47.34525492289185,21.182795698921836
47.365985038908924,57,624,0,47.383785625419186,17.800586510260473
47.366225462506335,58,689,0,47.382755276778084,16.529814271751093
47.38049896602338,77,504,1,47.40064559358937,20.14662756598409
47.40097777576004,74,530,1,47.42061609443062,19.638318670578883
47.522976288562695,66,625,1,47.54075732473083,17.78103616813314
47.56980746684914,69,577,1,47.58852691943956,18.719452590419678
47.575312040250026,67,461,1,47.59629933252764,20.98729227761214
47.583175072462616,67,636,1,47.600741054867306,17.56598240468884
47.59709845778789,72,510,1,47.61712778330108,20.029325513198273
47.608241556625,64,643,0,47.625670686634784,17.42913000977569
47.636384411582505,71,633,1,47.65400904501359,17.624633431085385
47.63845789582004,80,561,1,47.65749015388455,19.03225806451519
47.64426343260359,66,627,0,47.662005368087456,17.741935483871202
47.646557310362574,72,635,1,47.664142843109396,17.585532746823446
47.679075851963006,59,615,0,47.69705239155245,17.976539589442837
47.68518344770936,73,490,1,47.70560378006518,20.420332355817663
47.697333910026934,83,483,1,47.71789109477767,20.557184750730812
47.713584940009106,67,504,1,47.733731567575084,20.14662756598409
47.74442280049292,57,659,0,47.7615391250286,17.116324535680178
47.74840948487342,58,408,0,47.77043294528397,22.023460410557163
47.751949112456344,65,590,1,47.77041441059907,18.465298142720712
47.76635788585472,78,633,1,47.78398251928581,17.624633431085385
47.81995091517439,61,488,0,47.84041034821447,20.459433040079603
47.82408316221062,71,532,1,47.84368238019694,19.599217986316944
47.82539560131887,81,618,1,47.843313489881915,17.91788856304629
47.85455276253571,68,534,1,47.87411287983777,19.560117302055005
47.91603518592154,73,462,1,47.93700292785702,20.96774193548481
47.91673439378672,73,478,1,47.93738933024811,20.654936461389298
47.955220133004346,55,572,0,47.974037337305425,18.817204301078164
47.9764519115718,69,469,1,47.99728280111236,20.830889540564385
47.99380361873317,73,470,1,48.014614957931606,20.811339198437054
48.010117607001085,56,693,0,48.02656921990431,16.451612903227215
48.12725091494249,74,648,1,48.14458229324161,17.331378299117205
48.17970599037693,77,501,1,48.19991126896931,20.20527859237336
48.182260982117484,64,687,1,48.198829897073495,16.56891495601303
48.20009973464089,55,697,0,48.21647314617559,16.373411534703337
48.25128528729634,72,628,1,48.26900767243808,17.722385141736595
48.27107419904417,58,573,1,48.28987185300312,18.797653958943556
48.27387386149914,73,650,1,48.29116613911399,17.292277614855266
48.29196796563554,61,642,0,48.30941664598745,17.448680351903022
48.30154440659394,64,522,0,48.32133912800156,19.79472140762664
48.33349227372558,73,449,1,48.35471417010877,21.221896383183775
48.39086540023917,51,450,0,48.41206774628023,21.202346041056444
48.44263833330402,74,402,1,48.46477909576736,22.14076246334298
48.45307383547948,69,489,1,48.47351371817743,20.439882697944995
48.47208350982128,55,467,0,48.49295350004611,20.869990224826324
48.48341215988159,62,657,1,48.500567585101535,17.155425219942117
48.500908990026,60,633,0,48.51853362345709,17.624633431085385
48.507914401506326,58,479,0,48.528549787625586,20.63538611925469
48.525707127421526,70,692,1,48.54217829066688,16.471163245354546
48.55668216605627,61,467,0,48.577552156281094,20.869990224826324
48.559616867200624,67,411,0,48.58158167658478,21.964809384160617
48.56790477662256,72,617,1,48.58584221552774,17.937438905180898
48.59079936669808,49,450,0,48.61200171273913,21.202346041056444
48.60682266016697,60,410,0,48.62880701989326,21.984359726295224
48.612668448045305,55,462,0,48.63363618998079,20.96774193548481
48.64856583139347,74,614,1,48.66656192132504,17.996089931570168
48.830500862266526,75,469,1,48.85133175180709,20.830889540564385
48.92060237899236,56,522,0,48.94039710039999,19.79472140762664
48.92460242260937,68,415,1,48.946489030625,21.88660801563674
48.94375471317195,71,447,1,48.96501571023939,21.260997067445714
48.960759114456444,77,529,1,48.98041698346915,19.657869012706215
48.991776569076464,68,624,1,49.009577155586726,17.800586510260473
49.0135469965817,58,432,0,49.03510124878112,21.554252199413895
49.03662212863242,55,623,0,49.054442265484816,17.82013685239508
49.081931643948096,69,535,1,49.10147221090802,19.540566959920397
49.09962397538159,54,606,0,49.11777646805022,18.1524926686252
49.10315089099653,66,672,0,49.12001306108451,16.862170087973936
49.1128635176903,49,645,0,49.13025354701581,17.39002932551375
49.198374469568186,58,601,0,49.21662471394747,18.25024437927641
49.21882196706798,68,651,1,49.23609469434071,17.272727272727934
49.25017701444107,70,532,1,49.26977623242739,19.599217986316944
49.28467754468536,69,427,1,49.30632954859542,21.652003910065105
49.28825504116082,64,480,0,49.308870876937945,20.61583577712736
49.29945836082862,59,446,0,49.320738908238205,21.280547409580322
49.37284094201096,74,612,1,49.3908761326268,18.035190615839383
49.50717189016848,53,657,0,49.52432731538842,17.155425219942117
49.559504225116875,76,670,1,49.57640549588911,16.901270772235875
49.62105448455967,74,462,1,49.64202222649516,20.96774193548481
49.62292604050842,74,583,1,49.641528191046056,18.60215053763386
49.623971582730185,68,505,0,49.64409865995403,20.127077223849483
49.63079067479683,72,539,1,49.65025304038823,19.46236559139652
49.6370466158387,63,641,0,49.654514846532734,17.46823069403763
49.702733521645285,56,654,0,49.71994759789162,17.214076246331388
49.71616380539035,62,499,0,49.736408184666985,20.2443792766353
49.80461372110259,71,561,1,49.82364597916711,19.03225806451519
49.813722058290985,57,650,0,49.83101433590584,17.292277614855266
49.820270295007575,73,426,1,49.841941849259776,21.671554252199712
49.8505915022237,45,475,0,49.871305089711484,20.713587487778568
49.85969887700507,79,548,1,49.878985289517296,19.286412512221432
49.86072403258998,58,573,0,49.87952168654892,18.797653958943556
49.87843397130594,75,662,1,49.89549164481522,17.05767350928363
49.92622849376488,70,698,1,49.94258235495745,16.35386119256873
50.0751945779582,77,512,1,50.09518480278714,19.990224828936334
50.07650883736743,61,668,0,50.09344920882393,16.940371456497815
50.109927892688326,73,629,1,50.12763072748794,17.702834799609263
50.16430171925417,71,503,1,50.18446789716228,20.166177908111422
50.20988882934032,55,569,0,50.22876468466779,18.875855327467434
50.220451335199584,77,557,1,50.23956179463262,19.11045943303907
50.250099149667044,54,565,0,50.26905320636304,18.954056695991312
50.2590850062652,57,555,0,50.2782345663825,19.149560117301007
50.314809018264114,68,401,1,50.3369693310696,22.160312805477588
50.33513540800545,79,575,1,50.353893961280136,18.758553274681617
50.33658497638987,67,590,1,50.355050274532594,18.465298142720712
50.4216881174412,65,626,1,50.43944960326719,17.761485825998534
50.44226721592441,75,569,1,50.461143071251875,18.875855327467434
50.45591614601009,60,495,0,50.47623872665525,20.322580645159178
50.48644210106457,58,645,0,50.50383213039008,17.39002932551375
50.4921194670267,71,581,1,50.5107607182486,18.6412512218958
50.51079234749807,68,553,1,50.529981008299636,19.188660801562946
50.53509025897706,55,609,0,50.55318410061928,18.093841642228654
50.53739006425829,80,421,1,50.55915937022114,21.769305962850922
50.5392956797785,67,503,1,50.559461857686614,20.166177908111422
50.677901318294346,63,581,0,50.69654256951624,18.6412512218958
50.68367249080304,82,441,1,50.70505078992327,21.37829912023153
50.70387513693415,78,566,1,50.72280964328801,18.93450635386398
50.706527297506675,61,609,1,50.72462113914891,18.093841642228654
50.71013286650557,63,624,0,50.72793345301583,17.800586510260473
50.72179920501416,75,437,1,50.74325570550291,21.45650048875541
50.73533007824495,63,683,1,50.75197719456949,16.64711632453691
50.73873188648489,67,598,0,50.75704078189057,18.308895405672956
50.738754952332314,66,690,1,50.75526521626193,16.510263929616485
50.74267850835149,74,686,1,50.75926697364963,16.588465298140363
50.757900781002476,70,467,1,50.77877077122731,20.869990224826324
50.78654427940856,52,481,0,50.80714056484356,20.59628543499275
50.83613714338719,56,649,0,50.85344897134418,17.311827956989873
50.854382211470146,65,608,1,50.87249560345451,18.11339198436326
50.86417773461458,73,678,1,50.88092260264976,16.74486803518812
50.89641367883643,64,661,1,50.913490902687855,17.07722385141824
50.89903047090922,73,569,0,50.91790632623668,18.875855327467434
50.900885429473995,62,630,0,50.91856871393147,17.683284457474656
50.91215962204916,61,604,0,50.93035121540205,18.19159335288714
50.92232536937235,65,637,0,50.93987180143491,17.546432062561507
50.960128903391244,78,441,1,50.98150720251148,21.37829912023153
50.9992538481005,60,406,0,51.02131640919532,22.062561094819102
51.01143923105404,58,478,0,51.03209416751543,20.654936461389298
51.01536818137223,62,491,0,51.03576896338591,20.400782013683056
51.03373538295824,74,673,1,51.050578002704086,16.842619745846605
51.03401437050445,72,547,1,51.053320333358805,19.305962854348763
51.05189792769692,60,407,0,51.07394093844961,22.04301075269177
51.07305498268542,66,666,1,51.09003445482618,16.979472140759754
51.096113818636596,62,601,0,51.11436406301587,18.25024437927641
51.10650553810795,76,542,1,51.12590925267296,19.40371456500725
51.1106427766186,57,472,1,51.131415015132774,20.772238514175115
51.12147144011549,60,571,0,51.140308194758695,18.836754643205495
51.17344192060837,63,458,0,51.19448786391238,21.045943304008688
51.19176139382495,85,606,1,51.209913886493574,18.1524926686252
51.19237450793762,69,496,1,51.212677538240655,20.303030303031846
51.20728102676479,71,693,1,51.223732639668015,16.451612903227215
51.229956678211806,59,543,0,51.24934084243468,19.38416422287264
51.26757892277577,66,577,1,51.286298375366194,18.719452590419678
51.28080878111149,69,668,1,51.29774915256799,16.940371456497815
51.302772657962585,59,699,0,51.319106968813024,16.334310850441398
51.32224104907349,75,529,1,51.341898918086194,19.657869012706215
51.355338528912206,52,517,0,51.37523100203049,19.89247311827785
51.397149728852135,78,427,1,51.4188017327622,21.652003910065105
51.402641313329866,58,463,0,51.423589504923214,20.948191593350202
51.44005943878168,69,464,1,51.460988080032905,20.92864125122287
51.45799538012636,68,542,1,51.47739909469137,19.40371456500725
51.516726253376326,70,584,1,51.535308853571834,18.58260019550653
51.51897745584843,51,489,0,51.53941733854637,20.439882697944995
51.532462856911174,73,628,1,51.55018524205291,17.722385141736595
51.532986327181995,72,622,1,51.55082601437651,17.839687194522412
51.55928004454856,70,595,1,51.57764759098062,18.367546432062227
51.58044982844637,55,411,0,51.60241463783053,21.964809384160617
51.60793904617546,67,583,1,51.62654119671309,18.60215053763386
51.6082004774103,58,567,0,51.62711543342203,18.914956011729373
51.65218806388466,69,540,1,51.67163087913392,19.442815249269188
51.703803643812044,69,655,1,51.72099816971625,17.194525904204056
51.8058609510651,72,528,1,51.82553837041994,19.677419354840822
51.81360362274053,57,596,0,51.83195161883046,18.347996089934895
51.856937369591826,70,579,1,51.87561772149798,18.68035190615774
51.85960960746986,71,550,1,51.87885691929782,19.247311827959493
51.86188885150885,56,564,0,51.88086245854698,18.97360703812592
51.86542060815252,59,567,0,51.884335564164246,18.914956011729373
51.87710249767223,56,448,0,51.89834394439755,21.241446725318383
51.89446309176865,71,691,0,51.910953805356144,16.490713587489154
51.97205874467366,67,566,0,51.990993251027525,18.93450635386398
51.993005597956305,77,652,1,52.0102587748869,17.253176930593327
51.996843812575165,69,581,1,52.01548506379706,18.6412512218958
52.03082553178204,57,584,0,52.04940813197755,18.58260019550653
52.08050521495684,68,446,1,52.10178576236642,21.280547409580322
52.16959175427523,67,443,1,52.1909309527112,21.339198435969593
52.2173540858348,57,404,0,52.23945574761388,22.10166177908104
52.2177645859827,69,529,1,52.23742245499541,19.657869012706215
52.230075137767265,75,555,1,52.249224697884564,19.149560117301007
52.27996382758351,69,506,1,52.30007135446523,20.10752688172215
52.342700664134036,64,459,0,52.36372705709591,21.02639296187408
52.39833077950298,73,541,1,52.41775404441011,19.42326490713458
52.399367072289444,60,645,0,52.41675710161496,17.39002932551375
52.4504739259928,83,563,1,52.469467083373054,18.99315738025325
52.470392148515124,75,661,1,52.48746937236654,17.07722385141824
52.53936064845956,57,583,0,52.557962798997195,18.60215053763386
52.59207188093318,71,462,1,52.61303962286867,20.96774193548481
52.60034370560318,78,434,1,52.62185885711833,21.515151515151956
52.64824252764367,56,470,0,52.669053866842106,20.811339198437054
52.67413350195616,69,682,1,52.69080016862283,16.66666666666424
52.77190781074414,81,637,1,52.7894542428067,17.546432062561507
52.773743388228404,66,541,1,52.793166653135536,19.42326490713458
52.79431154204735,57,625,0,52.81209257821549,17.78103616813314
52.841583954349844,64,405,0,52.863666065786795,22.08211143695371
52.9075576249312,60,401,0,52.929717937736676,22.160312805477588
52.91805818687296,63,536,1,52.937579203490756,19.521016617793066
52.920922273395796,74,691,1,52.93741298698328,16.490713587489154
52.939721317445276,66,681,0,52.95640753445408,16.68621700879885
52.95905537461351,71,567,1,52.97797033062524,18.914956011729373
53.009427459174354,60,466,0,53.030316999741316,20.88954056696093
53.02305341907595,55,451,0,53.04423621477487,21.182795698921836
53.024736176660966,68,454,1,53.0458603213335,21.124144672532566
53.03524431027714,73,475,1,53.05595789776492,20.713587487778568
53.10252082210735,67,608,1,53.12063421409171,18.11339198436326
53.111380057397184,68,566,1,53.13031456375104,18.93450635386398
53.13366169674892,61,440,0,53.15505954621129,21.39784946236614
53.1351727098787,57,451,0,53.15635550557762,21.182795698921836
53.14200269918308,59,525,0,53.16173876956431,19.736070381230093
53.14888603418737,64,430,0,53.17047938707105,21.593352883675834
53.1593943044673,64,603,0,53.17760544816231,18.21114369501447
53.202643125629805,72,425,1,53.22433423022413,21.691104594327044
53.27241334226722,82,685,1,53.2890213579075,16.60801564027497
53.36184791807191,71,630,1,53.379531202529385,17.683284457474656
53.36952655161775,69,587,0,53.38805050078686,18.523949169109983
53.37990897840302,71,611,1,53.39796371936099,18.054740957966715
53.46540697505678,72,625,1,53.48318801122491,17.78103616813314
53.48066163265605,62,552,1,53.49986984379975,19.208211143697554
53.49117344228789,74,668,1,53.50811381374439,16.940371456497815
53.55171427398661,56,448,0,53.57295572071193,21.241446725318383
53.611570896552564,62,618,0,53.62948878511561,17.91788856304629
53.61485742200639,63,429,1,53.636470325232196,21.612903225803166
53.62236695227644,57,585,0,53.640930002129814,18.563049853371922
53.64054247515386,54,526,0,53.66025899519296,19.71652003910276
53.67410118498383,68,473,1,53.69485387315587,20.752688172040507
53.683011524662035,68,620,0,53.70089031254082,17.87878787878435
53.710324681078255,76,482,1,53.73090141617112,20.57673509286542
53.740472697752224,64,458,1,53.76151864105623,21.045943304008688
53.74698867635507,65,476,1,53.767682713500726,20.694037145651237
53.78639865903548,68,464,0,53.8073273002867,20.92864125122287
53.80488672769581,55,559,0,53.82395808644459,19.07135874877713
53.827822991258195,68,460,0,53.84882983387794,21.00684261974675
53.86527404080593,73,499,1,53.88551842008256,20.2443792766353
53.86778246046887,72,612,1,53.88581765108471,18.035190615839383
53.90418545972108,64,492,0,53.924566691392634,20.381231671555724
53.91667572412778,68,486,1,53.93717425785212,20.49853372434154
53.91889675589477,57,539,0,53.938359121486165,19.46236559139652
53.923591897760254,76,612,1,53.941627088376094,18.035190615839383
53.93438559948737,68,589,1,53.952870447972224,18.484848484848044
53.936082295041594,67,525,1,53.95581836542283,19.736070381230093
53.965084852998636,76,420,1,53.98687370930362,21.78885630498553
53.97700833740321,69,574,1,53.99578644102003,18.778103616816225
54.00537982614264,70,441,1,54.026758125262866,21.37829912023153
54.039643215483004,74,530,1,54.059281534153584,19.638318670578883
54.17192012318412,68,439,1,54.193337522988614,21.41739980449347
54.188862970475554,57,437,0,54.21031947096431,21.45650048875541
54.21008372931739,58,400,0,54.232263592464996,22.17986314760492
54.21102191763479,71,519,1,54.2308752900688,19.85337243401591
54.26116363224333,66,616,0,54.27912062149064,17.95698924730823
54.29030995220677,54,567,0,54.3092249082185,18.914956011729373
54.329685719640786,63,511,1,54.349695494811854,20.009775171063666
54.33535253700365,55,668,0,54.35229290846015,16.940371456497815
54.362481554577826,64,557,1,54.38159201401086,19.11045943303907
54.42540702621553,72,570,1,54.44426333120087,18.856304985340103
54.43281755571724,55,681,0,54.44950377272604,16.68621700879885
54.4596876076127,61,510,0,54.4797169331259,20.029325513198273
54.4728769021407,63,641,0,54.49034513283473,17.46823069403763
54.47426480637582,65,662,1,54.491322479885106,17.05767350928363
54.55962698090509,75,517,1,54.57951945402336,19.89247311827785
54.57349049878646,55,697,0,54.58986391032117,16.373411534703337
54.579213543722226,80,610,1,54.59728783502233,18.074291300101322
54.61139238683325,55,568,0,54.63028779250285,18.89540566960204
54.66627971470504,70,667,1,54.68323963650368,16.959921798632422
54.683545198018294,50,488,0,54.70400463105837,20.459433040079603
54.71565005035759,73,604,1,54.73384164371048,18.19159335288714
54.72094998412253,82,507,1,54.74103796066211,20.087976539587544
54.729827228386114,65,485,1,54.75034531245259,20.518084066468873
54.75445222951839,79,660,1,54.77154900371194,17.09677419354557
54.758159857850025,61,503,0,54.77832603575814,20.166177908111422
54.784334062195654,70,666,1,54.801313534336416,16.979472140759754
54.80741098689974,80,511,1,54.8274207620708,20.009775171063666
54.844770688863704,82,563,1,54.863763846243955,18.99315738025325
54.865045539832344,67,415,1,54.886932147847986,21.88660801563674
54.91600750752261,63,487,0,54.93648649090481,20.478983382206934
54.954179260174456,59,465,0,54.97508835108354,20.909090909088263
55.0366155580886,74,659,1,55.05373188262428,17.116324535680178
55.042617921174205,76,670,1,55.05951919194644,16.901270772235875
55.04319997996917,74,494,1,55.06354211095646,20.342130987293785
55.059658692300374,65,550,1,55.07890600412833,19.247311827959493
55.05996753168566,73,492,1,55.080348763357215,20.381231671555724
55.07479121968122,61,601,0,55.09304146406049,18.25024437927641
55.15359654194921,58,517,0,55.17348901506749,19.89247311827785
55.20294408450655,71,544,1,55.222308698387295,19.36461388074531
55.22637480599127,72,519,1,55.246228178425284,19.85337243401591
55.23368031324315,71,429,1,55.25529321646895,21.612903225803166
55.23492403142791,62,628,0,55.25264641656965,17.722385141736595
55.24079161285999,54,679,0,55.25751693055305,16.725317693060788
55.25785623720033,61,499,0,55.27810061647696,20.2443792766353
55.26650129783388,74,577,1,55.2852207504243,18.719452590419678
55.36252772595372,75,647,1,55.37987865459497,17.350928641251812
55.36398890011154,61,416,0,55.385855957785054,21.867057673509407
55.45874396222391,54,420,0,55.4805328185289,21.78885630498553
55.48745694586487,52,580,0,55.5061177474289,18.660801564030407
55.51528688882958,72,559,1,55.53435824757835,19.07135874877713
55.529920068010725,67,457,1,55.55098556165686,21.06549364613602
55.53419033740301,65,408,1,55.55621379781356,22.023460410557163
55.54881309437402,59,455,0,55.569917688704415,21.10459433039796
55.55158904406698,63,538,0,55.57107096000051,19.481915933531127
55.55658587223441,77,509,1,55.57663474808973,20.048875855325605
55.60456742063593,64,596,1,55.62291541672587,18.347996089934895
55.65489844149422,49,653,0,55.67213206808268,17.233626588465995
55.70075465353074,60,501,0,55.72095993212311,20.20527859237336
55.70318001221326,71,411,1,55.725144821597425,21.964809384160617
55.74359458943196,71,484,1,55.76413222384056,20.53763440860348
55.748454350474006,70,697,1,55.76482776200871,16.373411534703337
55.80887248110935,65,482,0,55.829449216202214,20.57673509286542
55.81952838271093,75,403,1,55.84164959483215,22.12121212121565
55.83915513729176,53,454,0,55.860279281964296,21.124144672532566
55.846490337989806,54,648,0,55.863821716288925,17.331378299117205
55.91418471441652,65,469,0,55.93501560395708,20.830889540564385
55.955851044106744,76,548,1,55.97513745661896,19.286412512221432
55.99522633062999,45,524,1,56.01498195135335,19.7556207233647
56.000777583406,68,540,1,56.02022039865527,19.442815249269188
56.0080275330774,69,511,1,56.028037308248464,20.009775171063666
56.015080710185174,56,698,0,56.031434571377744,16.35386119256873
56.022142489057046,61,703,1,56.03839859853897,16.25610948191752
56.03250254519985,46,856,0,56.04576745233572,13.264907135875546
56.04556692276978,56,690,0,56.0620771866994,16.510263929616485
56.05379943279896,43,888,1,56.06643872898664,12.639296187684522
56.05498453756111,44,580,1,56.07364533912514,18.660801564030407
56.082733891395904,61,737,0,56.098325289245366,15.591397849464556
56.08614043823497,53,761,1,56.1012626278733,15.122189638321288
56.113745371444566,71,736,1,56.12935631963616,15.610948191591888
56.118426028743436,51,825,0,56.132296996485366,13.870967741931963
56.12438279187894,59,619,1,56.14228113009987,17.89833822091896
56.12814740032095,69,659,0,56.14526372485663,17.116324535680178
56.12840231885716,43,559,1,56.14747367760594,19.07135874877713
56.13246866777811,48,802,1,56.14678929338906,14.3206256109479
56.13951345170099,54,801,1,56.15385362765408,14.340175953082507
56.14815186848216,55,789,1,56.16272664854081,14.574780058654142
56.15383564852743,57,630,1,56.17151893298491,17.683284457474656
56.161434167048384,40,666,0,56.178413639189145,16.979472140759754
56.16502100020796,43,520,0,56.18485482229984,19.833822091888578
56.1654951836126,39,553,0,56.18468384441416,19.188660801562946
56.177429106409605,62,805,0,56.19169108099416,14.26197458455863
56.18008177866006,52,514,0,56.200032902804736,19.951124144674395
56.18032438822378,62,540,0,56.19976720347305,19.442815249269188
56.181714778501984,68,650,0,56.19900705611684,17.292277614855266
56.192047246387204,51,869,0,56.20505799907538,13.010752688169305
56.205990531175964,44,505,1,56.22611760839982,20.127077223849483
56.20646515457808,57,521,1,56.226279426327835,19.81427174975397
56.229797109303554,82,850,0,56.24317931849221,13.382209188661363
56.24269844567532,36,766,1,56.25772288360298,15.024437927662802
56.2487780924948,69,595,0,56.26714563892686,18.367546432062227
56.25876805691918,31,554,1,56.27793716737862,19.169110459435615
56.259804057335614,33,540,1,56.27924687258488,19.442815249269188
56.26716184346185,47,652,1,56.284415020392444,17.253176930593327
56.27378039528685,56,574,1,56.29255849890367,18.778103616816225
56.27662236211704,53,587,0,56.295146311286146,18.523949169109983
56.2774976190552,40,893,1,56.29003916353222,12.541544477026036
56.28682874940435,73,745,0,56.302263744516765,15.4349951124168
56.291518534170294,46,514,1,56.31146965831497,19.951124144674395
56.292128737416284,61,647,0,56.309479666057534,17.350928641251812
56.29581534026315,75,547,1,56.31512130311749,19.305962854348763
56.30144616453161,43,895,1,56.313948608324374,12.502443792764097
56.301496324348015,83,580,1,56.32015712591205,18.660801564030407
56.30232400811286,55,625,0,56.32010504428099,17.78103616813314
56.32213103724494,65,677,1,56.33889545562226,16.764418377322727
56.34133025269695,71,827,0,56.35516211975462,13.831867057670024
56.384016309696676,49,658,1,56.401152184574485,17.13587487780751
56.40458648509552,34,875,1,56.4174799357309,12.893450635383488
56.405974885209964,47,879,0,56.41879013447682,12.81524926685961
56.40810219715958,37,855,1,56.42138665463758,13.284457478002878
56.41179646734686,53,625,1,56.42957750351499,17.78103616813314
56.414297061617226,41,899,0,56.426721304041465,12.42424242424022
56.419240061549786,65,661,1,56.4363172854012,17.07722385141824
56.42077132596367,51,570,1,56.43962763094901,18.856304985340103
56.43144879827201,59,702,1,56.447724458096054,16.27565982404485
56.434125121850506,59,891,1,56.44670576701179,12.580645161287975
56.45018360216984,68,586,0,56.46872710168108,18.54349951124459
56.47484021948713,73,583,0,56.493442370024766,18.60215053763386
56.493557590543205,62,642,1,56.51100627089511,17.448680351903022
56.49673233210833,56,785,1,56.51138531353551,14.65298142717802
56.49732382019971,46,855,1,56.51060827767771,13.284457478002878
56.49754238260617,80,715,1,56.513563887982514,16.021505376345885
56.50032382219153,66,841,1,56.51388198445937,13.558162267836451
56.5108062742902,41,586,0,56.52934977380145,18.54349951124459
56.511360971983216,79,748,0,56.52673731606924,15.376344086020254
56.511954558971354,76,866,0,56.52502396268592,13.069403714565851
56.52299882584857,59,858,0,56.53622463230018,13.225806451613607
56.52840707168821,38,593,1,56.54681371880453,18.406647116324166
56.54901179644255,73,892,1,56.56157289126171,12.561094819160644
56.55462654147187,62,520,1,56.57446036356375,19.833822091888578
56.561781105363686,55,528,0,56.58145852471852,19.677419354840822
56.564066220860724,61,797,1,56.57848459818233,14.418377321606386
56.56425932272249,57,622,0,56.582099009917016,17.839687194522412
56.56479388885323,53,850,1,56.578176098041894,13.382209188661363
56.56680426529931,71,785,1,56.58145724672649,14.65298142717802
56.5766704392392,61,615,0,56.59464697882864,17.976539589442837
56.57972512830088,78,836,1,56.593381042279375,13.655913978494937
56.585745865467736,77,694,1,56.60217792802883,16.432062561092607
56.58667820129472,56,876,1,56.599552101587975,12.873900293256156
56.58670635469994,80,723,1,56.60257145733924,15.86510263929813
56.60110827598712,55,574,0,56.61988637960393,18.778103616816225
56.61094530636608,67,587,1,56.629469255535184,18.523949169109983
56.611671253899765,73,859,1,56.62487751000925,13.206256109479
56.61218227673121,70,610,1,56.630256568031314,18.074291300101322
56.63097590549788,69,504,1,56.65112253306386,20.14662756598409
56.6738273271457,56,887,0,56.68648617367551,12.658846529811854
56.67827243080086,71,614,0,56.69626852073243,17.996089931570168
56.70659999331897,35,855,1,56.71988445079697,13.284457478002878
56.71027227014705,70,766,0,56.72529670807471,15.024437927662802
56.713181484854246,52,674,1,56.73000455425796,16.823069403711997
56.72063545217609,35,774,1,56.7355034873667,14.868035190615046
56.72583848436543,51,518,1,56.745711407141584,19.872922776150517
56.72822717325416,49,551,0,56.74745493473999,19.227761485824885
56.74089302667157,73,585,1,56.75945607652494,18.563049853371922
56.74217077467676,54,628,0,56.759893159818496,17.722385141736595
56.774919746846635,64,891,0,56.78750039200793,12.580645161287975
56.78225580742397,57,532,0,56.80185502541029,19.599217986316944
56.785061634765746,50,677,0,56.801826053143074,16.764418377322727
56.78576185706973,64,626,0,56.80352334289573,17.761485825998534
56.79493261976771,25,631,1,56.81259635388305,17.663734115347324
56.80284825676351,68,521,1,56.82266252851326,19.81427174975397
56.833013401670385,89,609,0,56.85110724331262,18.093841642228654
56.84902670839954,50,703,0,56.86528281788146,16.25610948191752
56.85033273680629,70,874,1,56.86324573778381,12.913000977518095
56.85539436283251,74,509,1,56.875443238687836,20.048875855325605
56.85713960334629,65,786,0,56.87177303443133,14.633431085043412
56.8619572353075,46,669,1,56.87887805642187,16.920821114370483
56.869373058652,56,751,0,56.88469075171164,15.317693059630983
56.87095803222866,51,835,0,56.88463349654928,13.675464320622268
56.87130061230358,65,868,0,56.884330915333884,13.030303030303912
56.871931971624896,42,584,1,56.890514571820404,18.58260019550653
56.87460723830934,48,828,0,56.888419555024875,13.812316715542693
56.87922833266303,60,839,1,56.892825595615136,13.59726295209839
56.88032183499481,77,646,1,56.89769231397818,17.370478983379144
56.88362683691476,42,790,1,56.89818206663128,14.555229716519534
56.88774955919389,54,613,1,56.905765199467595,18.015640273704776
56.8919257973797,76,533,1,56.91150546502388,19.579667644182337
56.894895050264886,48,639,1,56.91240238164319,17.50733137829957
56.90477617133587,58,528,0,56.92445359069071,19.677419354840822
56.9400640439878,92,666,0,56.957043516128564,16.979472140759754
56.95288303500306,59,728,0,56.9686503859317,15.767350928639644
56.95668434836696,60,899,1,56.96910859079121,12.42424242424022
56.97521852040946,60,725,0,56.9910445223645,15.82600195503619
57.00443958065818,73,771,0,57.019366266875195,14.926686217011593
57.006106714966066,38,564,1,57.02508032200419,18.97360703812592
57.00720004473584,61,735,0,57.02283054326956,15.630498533726495
57.008156293972725,68,630,0,57.025839578430194,17.683284457474656
57.0169659781782,58,842,0,57.0305045901039,13.53861192570912
57.01879194222745,54,694,1,57.035224004788546,16.432062561092607
57.02936592283433,73,805,1,57.04362789741889,14.26197458455863
57.03519010368638,47,747,0,57.05058599811454,15.395894428154861
57.043521566571634,65,658,0,57.060657441449436,17.13587487780751
57.07769936467584,64,574,0,57.09647746829265,18.778103616816225
57.0892550846019,41,769,1,57.10422087150317,14.965786901273532
57.09232828502226,49,620,0,57.11020707290105,17.87878787878435
57.10250368952996,30,733,1,57.118173288747954,15.669599217988434
57.11369875537453,50,850,1,57.12708096456319,13.382209188661363
57.12283598586725,64,540,1,57.14227880111652,19.442815249269188
57.13853931380752,67,578,1,57.157239216055814,18.699902248292346
57.145725680085974,53,685,1,57.162333695726254,16.60801564027497
57.158861598921725,66,720,1,57.174785352587406,15.9237536656874
57.16125009653012,72,668,0,57.17819046798661,16.940371456497815
57.16751847279237,65,568,1,57.18641387846198,18.89540566960204
57.171823983706595,59,754,0,57.187083025739824,15.259042033234437
57.179809299086656,61,545,0,57.199154362625265,19.345063538610702
57.180028381473136,36,883,0,57.19276542937147,12.737047898335732
57.180340865921195,56,730,0,57.19606911616557,15.728250244377705
57.18086088673537,81,788,1,57.19545521713615,14.594330400781473
57.18727665817625,54,584,1,57.20585925837176,18.58260019550653
57.18985429083871,83,832,1,57.20358840618573,13.734115347018815
57.19051960016333,64,748,1,57.20589594424935,15.376344086020254
57.215717831723865,56,806,1,57.22996025596629,14.242424242424022
57.22804648974433,67,738,1,57.24361833725166,15.571847507329949
57.230110861618314,62,752,1,57.245409004335805,15.298142717496376
57.233281606139364,84,815,1,57.24734807730262,14.066471163248934
57.24531191812966,69,706,1,57.26150937658518,16.197458455520973
57.24699914538198,76,567,1,57.265914101393705,18.914956011729373
57.28953551263708,55,532,1,57.30913473062339,19.599217986316944
57.2922902510981,56,510,1,57.3123195766113,20.029325513198273
57.29554144101104,87,594,0,57.31392853778524,18.387096774196834
57.29801628344577,44,516,0,57.317928306906175,19.912023460412456
57.29972784568192,61,818,1,57.31373566581877,14.007820136852388
57.30718556735738,39,660,0,57.324282341550926,17.09677419354557
57.31189107156681,67,866,1,57.32496047528137,13.069403714565851
57.319536531248204,59,542,1,57.33894024581321,19.40371456500725
57.32172036996231,39,787,0,57.33633425070522,14.61388074291608
57.33272791270585,61,791,1,57.34726359208024,14.535679374392203
57.337562689048475,73,500,0,57.357787517982985,20.22482893450797
57.339311751844974,55,542,1,57.35871546640998,19.40371456500725
57.34409721438533,48,769,1,57.3590630012866,14.965786901273532
57.35258233231119,51,532,0,57.3721815502975,19.599217986316944
57.35627797922914,61,725,1,57.372103981184175,15.82600195503619
57.36408197218866,62,740,1,57.37961471901173,15.53274682306801
57.364242460170615,69,771,1,57.379169146387625,14.926686217011593
57.3662058593623,62,573,1,57.385003513321244,18.797653958943556
57.378853083924874,59,748,0,57.39422942801089,15.376344086020254
57.385743623634035,78,596,1,57.40409161972397,18.347996089934895
57.38759289635021,57,648,1,57.40492427464933,17.331378299117205
57.400389467214126,64,707,1,57.41656737532752,16.17790811339364
57.40427327903913,72,849,0,57.41767503856992,13.401759530788695
57.40462029523552,43,897,0,57.41708363834402,12.463343108502158
57.41097095870286,49,650,1,57.42826323631772,17.292277614855266
57.41695947777925,51,549,1,57.436226339949336,19.266862170086824
57.427394358708106,69,771,0,57.44232104492512,14.926686217011593
57.430120777708666,57,631,1,57.44778451182402,17.663734115347324
57.43654603105431,67,745,1,57.45198102616673,15.4349951124168
57.43829973591748,75,839,1,57.451896998869586,13.59726295209839
57.4437579151808,45,624,1,57.46155850169106,17.800586510260473
57.45510817953372,56,692,1,57.47157934277907,16.471163245354546
57.456881103709115,49,868,1,57.46991140673942,13.030303030303912
57.46030313675114,50,883,1,57.47304018464948,12.737047898335732
57.47065787518032,49,644,1,57.488067454847965,17.409579667641083
57.47719891714055,58,696,1,57.49359187901738,16.392961876830668
57.47720425553169,61,754,1,57.492463297564925,15.259042033234437
57.480588067589956,97,850,0,57.49397027677861,13.382209188661363
57.481902090704835,45,892,1,57.49446318552399,12.561094819160644
57.483201146199534,61,809,0,57.49738491941557,14.183773216034751
57.495093842671906,56,705,1,57.51131085146956,16.21700879765558
57.500584006471186,63,814,1,57.514670027976564,14.086021505376266
57.50511726282205,70,870,1,57.51810846516808,12.991202346041973
57.517897380283166,62,659,0,57.53501370481885,17.116324535680178
57.52063185981581,62,608,1,57.53874525180017,18.11339198436326
57.52081605859799,53,541,0,57.54023932350512,19.42326490713458
57.52580720569139,62,685,0,57.54241522133167,16.60801564027497
57.54199108514464,52,889,1,57.55461083099019,12.619745845549915
57.59168729315789,68,753,1,57.60696588553326,15.278592375369044
57.599069409373584,55,895,1,57.61157185316635,12.502443792764097
57.599548165889026,67,775,1,57.61439665073752,14.848484848487715
57.62069118872805,55,620,1,57.63856997660684,17.87878787878435
57.623328316151536,73,835,1,57.637003780472156,13.675464320622268
57.63437944841922,51,778,0,57.64916928224131,14.789833822091168
57.63859682183589,79,748,0,57.65397316592191,15.376344086020254
57.63944647290846,57,887,0,57.65210531943827,12.658846529811854
57.653977898151076,67,806,1,57.6682203223935,14.242424242424022
57.67008638487661,56,749,0,57.6854431786205,15.356793743892922
57.67423567867755,54,638,1,57.691762560397976,17.5268817204269
57.681444949994585,43,535,1,57.7009855169545,19.540566959920397
57.69442304219911,30,667,1,57.71138296399774,16.959921798632422
57.705469132424234,77,762,0,57.72057177172042,15.10263929618668
57.711981709243375,55,638,0,57.7295085909638,17.5268817204269
57.7247096364739,74,630,1,57.74239292093137,17.683284457474656
57.7375705618951,69,721,1,57.753474765218655,15.904203323560068
57.739419801139526,60,584,1,57.758002401335034,18.58260019550653
57.740447941832024,45,793,1,57.75494452052216,14.496578690130264
57.76774411099533,61,899,0,57.78016835341957,12.42424242424022
57.77441344806816,71,677,0,57.79117786644548,16.764418377322727
57.79153497718771,67,582,1,57.81015667806748,18.62170087976847
57.79279148599575,50,762,1,57.80789412529194,15.10263929618668
57.794077802940585,70,687,1,57.810646717896596,16.56891495601303
57.79748976013947,74,682,1,57.814156426806136,16.66666666666424
57.801282674490544,56,730,1,57.81701092473492,15.728250244377705
57.80287208508462,78,802,0,57.81719271069557,14.3206256109479
57.830829514956015,59,670,0,57.84773078572825,16.901270772235875
57.84877028966319,51,735,1,57.864400788196924,15.630498533726495
57.872225655019975,43,874,1,57.885138655997494,12.913000977518095
57.88045710518818,72,769,1,57.89542289208946,14.965786901273532
57.88170976809643,62,675,1,57.89851328715801,16.803519061584666
57.89678064191673,56,867,1,57.90983049528916,13.049853372431244
57.90335959464207,59,843,0,57.91687865622564,13.519061583574512
57.925666839626,61,871,0,57.93863849162991,12.971652003907366
57.940195485121656,53,892,0,57.95275657994082,12.561094819160644
57.95793449393986,45,767,0,57.97293938152539,15.00488758553547
57.97543928095902,51,729,1,57.99118708154553,15.747800586512312
57.98432606865736,55,510,1,58.00435539417056,20.029325513198273
57.99985845662374,47,629,0,58.01756129142335,17.702834799609263
58.003753737457316,46,630,1,58.02143702191479,17.683284457474656
58.004140763477366,57,624,0,58.02194134998763,17.800586510260473
58.0223091683886,70,535,1,58.04184973534852,19.540566959920397
58.025380186968846,65,835,1,58.039055651289466,13.675464320622268
58.03448999548312,58,540,1,58.05393281073239,19.442815249269188
58.03738310400326,56,588,0,58.055887502830245,18.50439882698265
58.03808204946749,59,856,1,58.05134695660337,13.264907135875546
58.04060296318977,89,607,1,58.05873590551626,18.132942326490593
58.04159108624038,57,725,0,58.05741708819542,15.82600195503619
58.07047965820467,66,611,1,58.08853439916263,18.054740957966715
58.07139252203353,64,633,0,58.08901715546462,17.624633431085385
58.08156674232614,64,598,0,58.09987563773181,18.308895405672956
58.08264127364739,69,518,1,58.102514196423535,19.872922776150517
58.10419629894422,63,586,1,58.12273979845546,18.54349951124459
58.12598154868823,40,881,1,58.138757697270826,12.77614858259767
58.12822557375671,34,864,0,58.14133407815554,13.10850439882779
58.13941632216825,56,661,0,58.156493546019675,17.07722385141824
58.164458864250165,65,567,1,58.18337382026189,18.914956011729373
58.16590191965908,74,597,0,58.184230365406876,18.328445747800288
58.16710067042343,68,513,1,58.18707134491023,19.970674486801727
58.170502482985974,70,878,0,58.18333728259497,12.834799608994217
58.171785896841406,75,553,0,58.19097455764297,19.188660801562946
58.17659134060784,61,512,1,58.19658156543677,19.990224828936334
58.20249624273679,35,690,1,58.21900650666641,16.510263929616485
58.20637706367198,61,665,1,58.22337608615487,16.99902248289436
58.22378331218195,77,871,0,58.236754964185856,12.971652003907366
58.22553306699339,81,553,0,58.24472172779495,19.188660801562946
58.23894255254902,74,804,0,58.25322407747571,14.281524926685961
58.24814929850023,74,561,0,58.26718155656475,19.03225806451519
58.26238934794763,38,593,1,58.280795995063954,18.406647116324166
58.279034572528346,40,522,1,58.298829293935974,19.79472140762664
58.29021752789331,71,855,0,58.30350198537132,13.284457478002878
58.29916088923257,73,712,1,58.315241045635304,16.080156402735156
58.313103986099385,62,503,1,58.333270164007494,20.166177908111422
58.31528985930392,31,883,1,58.32802690720225,12.737047898335732
58.316628511344426,69,616,1,58.334585500591736,17.95698924730823
58.32446232539458,69,872,1,58.33741442705636,12.952101661780034
58.3286576092031,45,817,1,58.34268497968208,14.027370478986995
58.33647643671735,69,598,1,58.35478533212302,18.308895405672956
58.342947604527474,55,508,1,58.36301603072493,20.068426197460212
58.348326630912894,50,554,1,58.36749574137233,19.169110459435615
58.349828865732825,59,595,0,58.368196412164885,18.367546432062227
58.352811160786445,61,724,0,58.3686567130836,15.845552297163522
58.377059931416206,76,744,1,58.392514476870744,15.454545454544132
58.38052287059306,62,585,0,58.39908592044644,18.563049853371922
58.3876322080538,67,660,1,58.40472898224735,17.09677419354557
58.39631589652716,65,618,0,58.41423378509021,17.91788856304629
58.43309710143357,50,853,1,58.44642065959583,13.323558162264817
58.43948992871121,28,783,0,58.454182010822656,14.692082111439959
58.447155839791186,45,893,0,58.45969738426821,12.541544477026036
58.452442024412434,54,771,1,58.467368710629444,14.926686217011593
58.45351700689622,51,853,0,58.46684056505848,13.323558162264817
58.45803086873674,67,587,0,58.47655481790585,18.523949169109983
58.46691727969843,63,894,0,58.47943927383333,12.521994134898705
58.47061125531413,57,628,0,58.48833364045587,17.722385141736595
58.481167800554154,56,569,1,58.50004365588162,18.875855327467434
58.48241376019855,66,571,0,58.50125051484176,18.836754643205495
58.49493936215336,42,533,1,58.51451902979754,19.579667644182337
58.498618561027875,64,655,0,58.515813086932084,17.194525904204056
58.500523228529694,62,724,1,58.51636878082686,15.845552297163522
58.50430894712011,81,709,0,58.52044775454924,16.138807429131703
58.53162834072973,58,575,1,58.55038689400441,18.758553274681617
58.53259555566161,46,838,1,58.54621236895584,13.616813294232998
58.55061812240417,54,541,1,58.5700413873113,19.42326490713458
58.5665531273608,50,718,0,58.58251598171075,15.962854349949339
58.58165250653194,66,668,0,58.59859287798844,16.940371456497815
58.59416519163752,59,798,1,58.60856401861699,14.398826979471778
58.611015490019035,52,828,1,58.62482780673457,13.812316715542693
58.615640116033596,59,761,0,58.630762305671915,15.122189638321288
58.63417363940034,55,666,0,58.6511531115411,16.979472140759754
58.642337278202454,73,874,0,58.655250279179974,12.913000977518095
58.64564460939095,69,737,1,58.66123600724041,15.591397849464556
58.6568742190635,60,660,1,58.67397099325705,17.09677419354557
58.65836555322219,67,749,1,58.67372234696608,15.356793743892922
58.66421366650064,59,532,1,58.683812884486954,19.599217986316944
58.66624869497608,65,811,1,58.68039336750786,14.144672531772812
58.66812210005195,66,553,1,58.687310760853514,19.188660801562946
58.66971214592618,71,567,1,58.688627101937904,18.914956011729373
58.6713398809756,83,617,0,58.68927731988079,17.937438905180898
58.68049774609718,55,862,0,58.693645351180265,13.14760508308973
58.68107482375922,49,801,1,58.695414999712305,14.340175953082507
58.691180118586566,58,617,1,58.709117557491744,17.937438905180898
58.701032832500154,56,739,0,58.716585129665354,15.552297165202617
58.70241319266072,62,813,1,58.71651876450823,14.105571847510873
58.70297966847563,55,871,0,58.71595132047954,12.971652003907366
58.704059996695264,66,627,1,58.72180193217913,17.741935483871202
58.705847054095294,63,766,1,58.72087149202295,15.024437927662802
58.71572606105316,54,824,1,58.72961657913723,13.89051808406657
58.7217383613383,77,560,1,58.740790169744955,19.051808406649798
58.73082208016383,68,887,1,58.74348092669364,12.658846529811854
58.73792099949747,68,609,1,58.756014841139695,18.093841642228654
58.738556853927584,60,863,1,58.75168490866854,13.128054740955122
58.746154723683745,69,664,1,58.76317329650877,17.018572825021693
58.754296771299245,51,631,1,58.7719605054146,17.663734115347324
58.75768070309385,76,586,1,58.776224202605086,18.54349951124459
58.77527326540649,67,681,0,58.79195948241529,16.68621700879885
58.7828511554345,79,868,0,58.795881458464805,13.030303030303912
58.79197600917243,77,625,1,58.80975704534056,17.78103616813314
58.792404778808795,56,648,0,58.809736157107906,17.331378299117205
58.7925988814116,74,566,0,58.811533387765465,18.93450635386398
58.82258087404147,48,589,1,58.841065722526324,18.484848484848044
58.83200434421643,49,648,1,58.84933572251555,17.331378299117205
58.836593475018375,76,878,0,58.84942827462737,12.834799608994217
58.85467136378599,51,569,0,58.873547219113455,18.875855327467434
58.85700358567241,48,865,1,58.8700925397291,13.088954056693183
58.874671247534266,76,657,1,58.891826672754206,17.155425219942117
58.87731706974299,79,724,1,58.89316262204016,15.845552297163522
58.88890914141987,61,602,0,58.907139835457016,18.230694037149078
58.891549723017775,56,845,0,58.905029683917085,13.479960899312573
58.905702615149885,39,637,1,58.92324904721245,17.546432062561507
58.916394128686605,63,754,1,58.93165317071984,15.259042033234437
58.92806155432401,43,566,0,58.946996060677876,18.93450635386398
58.93002216257257,59,712,0,58.946102318975306,16.080156402735156
58.94566859830504,65,800,1,58.96002832460025,14.359726295209839
58.953239286052884,55,753,0,58.96851787842825,15.278592375369044
58.95436852758524,83,766,1,58.9693929655129,15.024437927662802
58.96883996647005,56,630,1,58.986523250927526,17.683284457474656
58.96947999918447,50,667,1,58.9864399209831,16.959921798632422
58.98482991257972,37,819,1,58.998818182374436,13.98826979471778
58.9851020752455,56,569,1,59.003977930572965,18.875855327467434
58.99923915612414,51,751,1,59.01455684918377,15.317693059630983
59.00831772737156,47,669,1,59.02523854848593,16.920821114370483
59.051104098813305,41,848,0,59.06452540868623,13.421309872923302
59.06608345213318,68,523,1,59.08585862319867,19.77517106549203
59.066263431560046,54,815,0,59.08032990272329,14.066471163248934
59.08279664257957,67,740,0,59.098329389402636,15.53274682306801
59.08374364119042,47,844,0,59.097243152431865,13.49951124144718
59.084377933698164,64,670,1,59.101279204470394,16.901270772235875
59.084614801892684,71,863,1,59.09774285663364,13.128054740955122
59.114965804064084,40,570,0,59.133822109049426,18.856304985340103
59.121882072805384,56,501,0,59.142087351397755,20.20527859237336
59.122108995191404,72,517,1,59.14200146830968,19.89247311827785
59.127747845113646,58,525,1,59.14748391549488,19.736070381230093
59.13113967639076,55,600,1,59.14940947111217,18.269794721411017
59.13800285864672,48,571,1,59.156839613289925,18.836754643205495
59.14941537452743,58,608,1,59.16752876651179,18.11339198436326
59.15053103630342,54,631,0,59.16819477041877,17.663734115347324
59.15144045422668,64,832,1,59.1651745695737,13.734115347018815
59.163116676358534,60,516,0,59.18302869981895,19.912023460412456
59.16660110230591,61,868,1,59.17963140533622,13.030303030303912
59.18071858388566,76,835,0,59.194394048206284,13.675464320622268
59.18602451406611,64,730,0,59.20175276431049,15.728250244377705
59.197487289520325,43,526,1,59.21720380955943,19.71652003910276
59.21388162814736,57,717,1,59.229864032839444,15.982404692083946
59.215004977328974,66,841,0,59.22856313959681,13.558162267836451
59.21855614575025,57,719,0,59.23449944975807,15.943304007822007
59.21975670917704,73,896,1,59.23223960262768,12.482893450636766
59.22937940780619,76,778,1,59.244169241628285,14.789833822091168
59.24768073906363,58,609,0,59.26577458070586,18.093841642228654
59.277179604865594,56,888,1,59.28981890105328,12.639296187684522
59.27723137912629,53,842,1,59.290769991052,13.53861192570912
59.28027429200657,71,786,1,59.29490772309161,14.633431085043412
59.28078099991742,49,798,1,59.29517982689689,14.398826979471778
59.291056275392606,53,669,0,59.307977096506974,16.920821114370483
59.292315419017335,84,673,1,59.30915803876319,16.842619745846605
59.294298711144265,61,601,0,59.31254895552354,18.25024437927641
59.30039817832767,56,859,0,59.313604434437146,13.206256109479
59.30161458521564,64,890,1,59.31421478071906,12.600195503422583
59.3429938726125,76,718,1,59.358956726962454,15.962854349949339
59.344839154959615,47,539,1,59.36430152055101,19.46236559139652
59.351370029758115,72,782,1,59.366081662211684,14.71163245356729
59.35174333132254,62,833,1,59.36545789632743,13.714565004884207
59.35716037062055,36,841,1,59.37071853288839,13.558162267836451
59.371705528802615,59,622,0,59.38954521599714,17.839687194522412
59.3846618916174,49,804,1,59.398943416544085,14.281524926685961
59.386952005928286,30,741,1,59.402465202409225,15.513196480940678
59.38912892843982,57,802,0,59.403449554050766,14.3206256109479
59.39103903889258,61,552,1,59.41024725003628,19.208211143697554
59.392806093012425,61,757,1,59.408006484019275,15.200391006845166
59.39364473031631,67,574,0,59.41242283393312,18.778103616816225
59.396810051466375,58,593,1,59.4152166985827,18.406647116324166
59.40303535098387,61,687,1,59.41960426593988,16.56891495601303
59.40786780860901,65,835,1,59.42154327292964,13.675464320622268
59.411081572435805,43,643,1,59.42851070244558,17.42913000977569
59.41159366783195,64,503,1,59.43175984574006,20.166177908111422
59.41657040651578,78,847,0,59.43001126673084,13.440860215050634
59.418566326098585,41,676,0,59.43535029481803,16.78396871945006
59.418665224639454,73,502,0,59.438850952889695,20.18572825024603
59.42124275572475,48,844,1,59.4347422669662,13.49951124144718
59.42601221162635,44,867,0,59.43906206499879,13.049853372431244
59.42941821235578,32,700,1,59.445732972864086,16.31476050830679
59.43845648783752,48,753,0,59.45373508021289,15.278592375369044
59.43957690843025,44,816,1,59.453623829251356,14.046920821114327
59.443483341168886,62,546,0,59.46280885436537,19.32551319648337
59.4459026258845,53,576,0,59.46464162881705,18.739002932554286
59.46528635338784,59,790,0,59.47984158310436,14.555229716519534
59.476743083265646,57,815,0,59.49080955442889,14.066471163248934
59.51032446553443,87,820,1,59.52429318498702,13.968719452590449
59.524905734982774,50,726,0,59.54071218659567,15.806451612901583
59.53685921659638,66,844,1,59.55035872783783,13.49951124144718
59.53710190916121,64,616,1,59.55505889840852,17.95698924730823
59.54894405961843,70,574,1,59.567722163235246,18.778103616816225
59.55249599832092,72,803,1,59.56679707358974,14.301075268820568
59.56554522600889,60,635,0,59.58313075875571,17.585532746823446
59.56726848001563,64,866,0,59.580337883730195,13.069403714565851
59.56996162480734,66,840,0,59.583539337417314,13.577712609971059
59.5780462368738,69,839,0,59.5916434998259,13.59726295209839
59.57976372563228,87,611,1,59.597818466590255,18.054740957966715
59.58182088004476,56,717,0,59.59780328473685,15.982404692083946
59.58321642529574,84,888,1,59.595855721483424,12.639296187684522
59.592152601256366,63,878,0,59.604987400865355,12.834799608994217
59.602966228714706,64,826,1,59.61681764611451,13.851417399804632
59.607329166001996,71,626,1,59.625090651827996,17.761485825998534
59.61155167048351,59,516,1,59.63146369394392,19.912023460412456
59.61939272750396,67,867,0,59.63244258087639,13.049853372431244
59.62037696773171,43,569,1,59.63925282305918,18.875855327467434
59.63213742878678,67,680,1,59.648843196137705,16.70576735092618
59.63682799411163,75,597,1,59.655156439859425,18.328445747800288
59.64760973761641,58,727,0,59.663396638887185,15.786901270774251
59.65455492180328,55,737,1,59.670146319652744,15.591397849464556
59.66604696326665,46,687,0,59.68261587822266,16.56891495601303
59.68189945114154,73,611,0,59.699954192099504,18.054740957966715
59.69394075807349,61,794,1,59.708417786421485,14.477028347995656
59.69660448056709,48,638,0,59.71413136228752,17.5268817204269
59.697783759026244,50,587,1,59.71630770819535,18.523949169109983
59.702281224225956,65,681,0,59.71896744123475,16.68621700879885
59.72275403047908,51,501,0,59.74295930907145,20.20527859237336
59.725980183898606,52,586,1,59.74452368340985,18.54349951124459
59.72969335230955,45,869,1,59.74270410499772,13.010752688169305
59.7454816213502,56,690,0,59.76199188527981,16.510263929616485
59.74937600599069,74,680,1,59.76608177334162,16.70576735092618
59.75651128914453,42,850,1,59.76989349833318,13.382209188661363
59.76997992540078,67,803,0,59.7842810006696,14.301075268820568
59.77227341134436,56,896,1,59.784756304794996,12.482893450636766
59.77384014684313,69,794,1,59.788317175191125,14.477028347995656
59.781403407186986,44,840,0,59.79498111979695,13.577712609971059
59.83491118095901,67,738,1,59.85048302846634,15.571847507329949
59.839786387383185,62,828,0,59.85359870409873,13.812316715542693
59.84919024069798,64,632,1,59.86683442447119,17.644183773212717
59.85172072406794,47,501,1,59.87192600266032,20.20527859237336
59.85882076615857,60,542,1,59.878224480723574,19.40371456500725
59.86020501483688,56,844,0,59.87370452607833,13.49951124144718
59.86404446328254,69,566,0,59.882978969636405,18.93450635386398
59.86827807867663,45,686,1,59.88486654397477,16.588465298140363
59.87175508671897,62,777,0,59.886564470883194,14.809384164225776
59.87221801940701,76,553,1,59.891406680208576,19.188660801562946
59.8848051704397,74,574,1,59.903583274056516,18.778103616816225
59.89133470506666,70,788,1,59.905929035467445,14.594330400781473
59.891607349864046,53,876,0,59.9044812501573,12.873900293256156
59.90401833224719,40,529,1,59.9236762012599,19.657869012706215
59.91130997064016,50,653,1,59.928543597228625,17.233626588465995
59.93254821407824,67,522,0,59.952342935485866,19.79472140762664
59.93368423235546,47,884,1,59.94640172991167,12.7174975562084
59.93698940619518,62,849,1,59.95039116572597,13.401759530788695
59.94664541763603,40,871,1,59.95961706963993,12.971652003907366
59.950757394482245,51,718,0,59.96672024883219,15.962854349949339
59.98424797267038,59,691,1,60.00073868625787,16.490713587489154
59.98962968570893,67,695,1,60.00604219792789,16.412512218965276
60.00570133423885,51,791,0,60.02023701361325,14.535679374392203
60.00621246066,56,514,1,60.02616358480468,19.951124144674395
60.02819669986705,62,883,1,60.04093374776539,12.737047898335732
60.04024515057239,60,855,0,60.05352960805039,13.284457478002878
60.06472222852537,57,797,1,60.07914060584697,14.418377321606386
60.069338206108405,54,578,0,60.0880381083567,18.699902248292346
60.08655834207135,69,770,0,60.10150457863049,14.946236559138924
60.091205734296935,56,613,0,60.10922137457064,18.015640273704776
60.105707844373626,41,825,1,60.119578812115556,13.870967741931963
60.1085972293775,74,650,1,60.12588950699236,17.292277614855266
60.11561087980961,75,880,1,60.12840657873434,12.795698924732278
60.11584170767162,75,585,1,60.13440475752499,18.563049853371922
60.14303275562326,69,772,1,60.15793989149814,14.907135874876985
60.157231666254816,66,811,1,60.171376338786594,14.144672531772812
60.17636997843497,39,618,1,60.19428786699801,17.91788856304629
60.20264526444384,56,729,1,60.218393065030355,15.747800586512312
60.22240943772061,54,676,1,60.23919340644006,16.78396871945006
60.23785616531368,54,542,0,60.25725987987869,19.40371456500725
60.23832519562008,78,642,0,60.25577387597198,17.448680351903022
60.24077389451355,51,545,1,60.26011895805216,19.345063538610702
60.243302967659154,35,836,1,60.25695888163765,13.655913978494937
60.246162499703054,68,540,0,60.265605314952325,19.442815249269188
60.24646345573791,63,625,0,60.26424449190604,17.78103616813314
60.24860632348471,77,539,1,60.26806868907611,19.46236559139652
60.25515141007373,74,787,1,60.26976529081664,14.61388074291608
60.276157774811495,64,753,1,60.29143636718686,15.278592375369044
60.28278221307789,67,809,1,60.29696598629392,14.183773216034751
60.28623142194911,51,692,1,60.30270258519446,16.471163245354546
60.298331022210924,52,741,1,60.31384421869186,15.513196480940678
60.315251110156446,73,870,1,60.32824231250249,12.991202346041973
60.32845329607767,46,539,1,60.34791566166907,19.46236559139652
60.35223389221605,40,718,0,60.368196746566,15.962854349949339
60.35348796872986,47,582,1,60.37210966960963,18.62170087976847
60.36246442792185,51,745,1,60.377899423034265,15.4349951124168
60.36827430284575,70,681,0,60.384960519854545,16.68621700879885
60.36957111641416,52,502,1,60.3897568446644,20.18572825024603
60.372854033754614,27,881,0,60.38563018233721,12.77614858259767
60.374698598750335,49,537,1,60.39420006502599,19.50146627565846
60.37865119592113,71,788,0,60.39324552632191,14.594330400781473
60.38976398996162,68,890,1,60.40236418546504,12.600195503422583
60.39438089737154,56,519,0,60.41423426980556,19.85337243401591
60.395150751399605,51,742,1,60.41064439753841,15.49364613880607
60.40430828645305,69,549,1,60.42357514862314,19.266862170086824
60.406544585661216,30,745,1,60.42197958077363,15.4349951124168
60.41143911579889,59,552,0,60.43064732694259,19.208211143697554
60.4138375558208,43,851,1,60.42720021466732,13.362658846526756
60.41557775361258,43,787,0,60.4301916343555,14.61388074291608
60.430494114553895,56,840,0,60.44407182716387,13.577712609971059
60.4310799299062,60,866,1,60.444149333620764,13.069403714565851
60.43913065856058,63,582,0,60.45775235944035,18.62170087976847
60.444597083628274,44,522,1,60.4643918050359,19.79472140762664
60.445410896500896,73,730,0,60.46113914674527,15.728250244377705
60.445476060253725,68,855,1,60.45876051773173,13.284457478002878
60.44738951909773,52,882,1,60.460146117338205,12.756598240470339
60.45001209463493,57,523,1,60.46978726570042,19.77517106549203
60.45271268398989,55,844,1,60.46621219523133,13.49951124144718
60.45585428854577,57,839,1,60.46945155149787,13.59726295209839
60.46041986926626,59,598,1,60.478728764671935,18.308895405672956
60.46592255655846,54,659,0,60.483038881094146,17.116324535680178
60.478250882110814,53,777,1,60.49306026627504,14.809384164225776
60.48661113254717,45,564,0,60.50558473958529,18.97360703812592
60.50486764461658,77,579,1,60.523547996522744,18.68035190615774
60.53171755718947,66,821,1,60.54566672629993,13.949169110455841
60.53844289193382,73,664,0,60.555461464758835,17.018572825021693
60.53913265745629,52,588,0,60.557637056283276,18.50439882698265
60.5658520866474,59,515,1,60.58578366044995,19.931573802539788
60.580890760343834,59,511,1,60.600900535514896,20.009775171063666
60.60321778152333,54,849,0,60.61661954105412,13.401759530788695
60.62846725204632,54,855,1,60.64175170952432,13.284457478002878
60.62872858577472,53,584,0,60.647311185970224,18.58260019550653
60.62930476689858,81,676,1,60.64608873561802,16.78396871945006
60.63285826584888,70,552,1,60.65206647699258,19.208211143697554
60.63674569395857,45,883,1,60.64948274185691,12.737047898335732
60.63676568796631,66,501,1,60.65697096655869,20.20527859237336
60.638328163187474,35,716,1,60.65433011822168,16.001955034211278
60.663903397590985,65,621,0,60.68176263512764,17.85923753665702
60.68200948238434,60,649,0,60.69932131034133,17.311827956989873
60.683610476302206,36,627,0,60.70135241178608,17.741935483871202
60.69063593936066,57,569,0,60.709511794688126,18.875855327467434
60.69589901264776,49,695,1,60.71231152486672,16.412512218965276
60.727762096787615,89,593,1,60.74616874390394,18.406647116324166
60.73355069369118,70,548,0,60.7528371062034,19.286412512221432
60.73824440723839,60,637,1,60.75579083930095,17.546432062561507
60.74724441493899,57,895,0,60.75974685873176,12.502443792764097
60.750072235507766,57,561,1,60.76910449357228,19.03225806451519
60.781758663666814,60,512,0,60.80174888849575,19.990224828936334
60.78256532205752,61,592,1,60.800991519515975,18.426197458458773
60.79173267162103,34,671,1,60.80861439205114,16.881720430108544
60.79822351836433,62,884,1,60.810941015920534,12.7174975562084
60.803397568621335,42,518,0,60.82327049139749,19.872922776150517
60.81593038959629,55,858,1,60.829156196047904,13.225806451613607
60.82410071820078,46,692,0,60.84057188144614,16.471163245354546
60.83106267990999,73,844,1,60.84456219115144,13.49951124144718
60.839552239857284,67,725,0,60.855378241812325,15.82600195503619
60.84978665938702,67,601,0,60.868036903766296,18.25024437927641
60.85047782617003,42,561,1,60.86951008423454,19.03225806451519
60.853067578553535,51,665,0,60.87006660103643,16.99902248289436
60.86439465016779,53,790,0,60.8789498798843,14.555229716519534
60.88170355971379,48,675,0,60.89850707877538,16.803519061584666
60.88633262859294,61,690,1,60.90284289252255,16.510263929616485
60.88777836097023,48,545,1,60.90712342450884,19.345063538610702
60.89064084022503,47,664,1,60.907659413050055,17.018572825021693
60.894340661089934,68,749,0,60.909697454833825,15.356793743892922
60.914197179861425,69,537,1,60.93369864613708,19.50146627565846
60.916072347451134,66,805,1,60.93033432203569,14.26197458455863
60.91883015660461,72,703,1,60.93508626608653,16.25610948191752
60.92771493067165,67,684,1,60.944342496654045,16.627565982402302
60.97137626264098,72,681,0,60.98806247964978,16.68621700879885
60.972253956540044,44,757,0,60.98745434754689,15.200391006845166
60.976316665977585,42,595,1,60.994684212409645,18.367546432062227
60.99283980608195,51,817,0,61.00686717656094,14.027370478986995
60.996454379183696,41,569,1,61.01533023451117,18.875855327467434
60.99950206939999,66,634,0,61.01710715248894,17.605083088950778
61.003568757449386,83,719,0,61.019512061457206,15.943304007822007
61.00812983823678,67,874,1,61.0210428392143,12.913000977518095
61.011011898593,75,836,1,61.02466781257149,13.655913978494937
61.01139452575649,53,687,1,61.0279634407125,16.56891495601303
61.01660315782933,69,804,1,61.03088468275602,14.281524926685961
61.0231220537228,54,818,0,61.037129873859655,14.007820136852388
61.03256077557617,48,551,1,61.051788537062,19.227761485824885
61.0566515110067,57,564,1,61.075625118044826,18.97360703812592
61.06077038298527,59,586,0,61.079313882496514,18.54349951124459
61.061765863657676,83,831,1,61.07551952934682,13.753665689146146
61.09805800412903,42,569,1,61.116933859456495,18.875855327467434
61.101386622748684,56,765,0,61.11643061101849,15.04398826979741
61.114357839177636,63,583,0,61.132959989715275,18.60215053763386
61.1144742721624,64,642,0,61.1319229525143,17.448680351903022
61.13633805168044,77,757,1,61.15153844268728,15.200391006845166
61.14121103893565,54,833,0,61.15492560394054,13.714565004884207
61.1448949121598,83,722,1,61.160779565141226,15.884652981425461
61.155290489383596,62,640,1,61.17277827041976,17.48778103616496
61.17903217998345,57,853,1,61.192355738145714,13.323558162264817
61.188603858352614,50,802,0,61.202924483963564,14.3206256109479
61.19052043603661,65,690,0,61.20703069996622,16.510263929616485
61.20222590221518,49,548,1,61.221512314727406,19.286412512221432
61.204760476548806,59,744,0,61.22021502200335,15.454545454544132
61.210875058051144,50,536,1,61.23039607466893,19.521016617793066
61.21485135428613,58,532,0,61.23445057227245,19.599217986316944
61.21858244095458,48,508,1,61.23865086715203,20.068426197460212
61.22362854815925,56,867,1,61.236678401531684,13.049853372431244
61.224058965398925,73,874,0,61.236971966376444,12.913000977518095
61.23945626247535,67,761,1,61.25457845211368,15.122189638321288
61.23956063832,57,834,1,61.25325565298276,13.695014662756876
61.24653810834531,46,732,1,61.26222725790543,15.689149560115766
61.24711904027054,54,878,0,61.259953839879536,12.834799608994217
61.253205478893406,37,520,1,61.27303930098529,19.833822091888578
61.26014942328645,60,629,1,61.27785225808606,17.702834799609263
61.26321645395909,58,707,1,61.27939436207248,16.17790811339364
61.26915222148746,56,517,0,61.289044694605735,19.89247311827785
61.27577937406859,47,545,1,61.2951244376072,19.345063538610702
61.296191281864346,56,585,0,61.314754331717715,18.563049853371922
61.29950964067369,58,742,1,61.3150032868125,15.49364613880607
61.31048174286557,77,882,1,61.323238341106034,12.756598240470339
61.32873710538567,57,811,1,61.34288177791744,14.144672531772812
61.33609820565276,70,762,1,61.35120084494894,15.10263929618668
61.33941382968628,54,505,1,61.35954090691013,20.127077223849483
61.34550147898045,64,685,0,61.36210949462073,16.60801564027497
61.34632244896707,58,759,1,61.36148373928966,15.161290322583227
61.35037201560987,55,872,0,61.36332411727165,12.952101661780034
61.360640927846795,56,895,1,61.373143371639564,12.502443792764097
61.363156063264924,47,843,0,61.376675124848504,13.519061583574512
61.37947404762225,34,618,0,61.397391936185294,17.91788856304629
61.38963611279554,56,872,1,61.402588214457325,12.952101661780034
61.39621396634532,66,836,0,61.40986988032382,13.655913978494937
61.41227397094519,65,860,1,61.42546067671255,13.186705767351668
61.41493224403469,66,881,0,61.42770839261728,12.77614858259767
61.4248035599777,48,824,0,61.438694078061765,13.89051808406657
61.426499956659974,63,819,1,61.44048822645469,13.98826979471778
61.4346089521604,72,639,1,61.4521162835387,17.50733137829957
61.43553513363258,69,678,1,61.452280001667766,16.74486803518812
61.44755881917803,82,793,1,61.462055397868156,14.496578690130264
61.44845630747626,78,754,1,61.4637153495095,15.259042033234437
61.448529407143404,62,848,1,61.46195071701633,13.421309872923302
61.45491881143228,55,575,1,61.473677364706965,18.758553274681617
61.472515313600994,61,802,0,61.486835939211936,14.3206256109479
61.48484258389098,37,508,0,61.50491101008844,20.068426197460212
61.48834808825736,51,897,1,61.50081143136587,12.463343108502158
61.499477165248564,63,663,0,61.51651528841572,17.0381231671563
61.50292381587481,55,726,0,61.51873026748771,15.806451612901583
61.52022806338945,80,802,0,61.5345486890004,14.3206256109479
61.5234588670489,71,642,0,61.540907547400806,17.448680351903022
61.5298323523296,49,847,1,61.54327321254465,13.440860215050634
61.535908626423364,61,599,0,61.5541979714869,18.28934506353835
61.54190201369671,57,623,1,61.55972215054911,17.82013685239508
61.54229100449487,44,642,1,61.559739684846775,17.448680351903022
61.55240496760466,53,629,1,61.570107802404266,17.702834799609263
61.56802423131052,63,622,1,61.58586391850504,17.839687194522412
61.57278995630497,80,558,1,61.591880865395886,19.090909090911737
61.58772727061237,35,830,0,61.60150048664365,13.773216031280754
61.60554275479254,76,743,0,61.621016850589214,15.47409579667874
61.60596396742242,62,673,1,61.62280658716826,16.842619745846605
61.60791043185038,67,572,1,61.62672763615146,18.817204301078164
61.62637710153189,45,632,1,61.6440212853051,17.644183773212717
61.629230183196775,63,730,0,61.644958433441154,15.728250244377705
61.653411058877644,49,533,1,61.67299072652183,19.579667644182337
61.661032659939906,77,841,0,61.67459082220774,13.558162267836451
61.66255815023439,64,583,0,61.68116030077203,18.60215053763386
61.67547701419013,61,533,1,61.695056681834316,19.579667644182337
61.68069885713726,51,650,1,61.697991134752115,17.292277614855266
61.682674921329586,65,776,1,61.69750385583594,14.828934506353107
61.688400915163996,45,852,1,61.7017440236684,13.343108504399424
61.69563112618207,47,675,0,61.71243464524366,16.803519061584666
61.70542648373035,70,848,0,61.718847793603274,13.421309872923302
61.70815866405002,55,652,0,61.72541184098061,17.253176930593327
61.7187903357455,58,737,0,61.734381733594965,15.591397849464556
61.72800562162935,56,619,0,61.745903959850274,17.89833822091896
61.730356822322264,41,656,0,61.74753179788433,17.17497556206945
61.736421760476134,68,824,1,61.7503122785602,13.89051808406657
61.76354961987026,47,834,1,61.77724463453302,13.695014662756876
61.77213114736114,72,602,1,61.79036184139829,18.230694037149078
61.7772746079611,61,862,0,61.79042221304419,13.14760508308973
61.79155277617126,54,706,0,61.80775023462678,16.197458455520973
61.7920489489258,55,538,0,61.811530864859336,19.481915933531127
61.79523743960485,63,581,0,61.81387869082674,18.6412512218958
61.81619816410461,70,799,1,61.83057744074196,14.379276637344446
61.83335118181453,64,644,0,61.85076076148217,17.409579667641083
61.84877626953584,61,672,1,61.865638439623815,16.862170087973936
61.85357308434862,65,541,0,61.87299634925575,19.42326490713458
61.86496420796609,52,596,1,61.883312204056026,18.347996089934895
61.867709732148526,55,503,1,61.887875910056636,20.166177908111422
61.87545826779457,47,586,0,61.89400176730582,18.54349951124459
61.89652610502585,44,572,1,61.91534330932693,18.817204301078164
61.90115755009824,42,556,0,61.920287559873415,19.130009775173676
61.90671812123273,68,794,0,61.921195149580726,14.477028347995656
61.91094217103888,74,740,1,61.92647491786195,15.53274682306801
61.913922495863964,21,544,1,61.93328710974471,19.36461388074531
61.914620427167435,47,601,1,61.93287067154671,18.25024437927641
61.92365531675367,47,604,0,61.941846910106555,18.19159335288714
61.933794812874694,45,711,1,61.94989451961956,16.099706744869763
61.93574938679277,41,579,0,61.95442973869893,18.68035190615774
61.959530125870394,74,786,1,61.97416355695543,14.633431085043412
61.97711818059407,65,726,0,61.992924632206964,15.806451612901583
61.979389801059575,76,674,0,61.99621287046328,16.823069403711997
61.992305222150556,77,671,0,62.00918694258066,16.881720430108544
61.99788578971697,75,679,1,62.014611107410026,16.725317693060788
62.01178661892646,79,581,0,62.03042787014836,18.6412512218958
62.023749708790575,61,712,0,62.039829865193305,16.080156402735156
62.02473188871017,62,695,1,62.041144400929134,16.412512218965276
62.03457942910228,53,605,1,62.05275147211304,18.17204301075253
62.037879665423375,66,762,0,62.05298230471956,15.10263929618668
62.040112537286795,36,717,0,62.056094941978884,15.982404692083946
62.04330923330708,39,688,1,62.05985859792095,16.549364613878424
62.044673383223916,82,604,0,62.062864976576805,18.19159335288714
62.05031460017389,65,648,0,62.06764597847301,17.331378299117205
62.05137100268247,59,576,1,62.07011000561502,18.739002932554286
62.067505002360754,34,667,0,62.084464924159384,16.959921798632422
62.07243309497884,47,693,0,62.088884707882066,16.451612903227215
62.08207893030645,56,692,1,62.09855009355181,16.471163245354546
62.08524022651361,77,567,1,62.10415518252534,18.914956011729373
62.089266110561,49,840,1,62.10284382317097,13.577712609971059
62.09646086860149,61,509,1,62.11650974445681,20.048875855325605
62.10959014490562,61,858,1,62.12281595135723,13.225806451613607
62.1232263395529,67,876,0,62.13610023984616,12.873900293256156
62.13927484827285,61,789,1,62.1538496283315,14.574780058654142
62.15401238552834,62,594,1,62.17239948230254,18.387096774196834
62.178788311145084,74,520,1,62.198622133236974,19.833822091888578
62.184938181265736,67,878,0,62.19777298087473,12.834799608994217
62.190310396391254,48,771,0,62.205237082608264,14.926686217011593
62.19354338202484,77,738,1,62.20911522953217,15.571847507329949
62.19555910171449,53,738,0,62.21113094922181,15.571847507329949
62.19731957728719,54,648,1,62.21465095558631,17.331378299117205
62.198448063211686,47,784,0,62.213120594980985,14.672531769305351
62.22320690552274,51,691,0,62.23969761911023,16.490713587489154
62.2325778527912,60,773,1,62.24746543832396,14.887585532749654
62.23885254235401,64,866,0,62.25192194606858,13.069403714565851
62.240252305517316,71,833,0,62.2539668705222,13.714565004884207
62.24618997309715,72,852,1,62.259533081601546,13.343108504399424
62.25027884654919,64,545,1,62.2696239100878,19.345063538610702
62.257185679750826,70,568,1,62.27608108542042,18.89540566960204
62.26336711659805,75,548,1,62.28265352911027,19.286412512221432
62.27721151454636,82,856,1,62.290476421682236,13.264907135875546
62.28806927183586,70,775,0,62.30291775668435,14.848484848487715
62.296670435880436,62,571,1,62.31550719052364,18.836754643205495
62.29908589980557,60,751,0,62.314403592865204,15.317693059630983
62.29956521942823,37,762,0,62.31466785872442,15.10263929618668
62.30005188991119,64,632,1,62.317696073684395,17.644183773212717
62.30384221974175,36,762,0,62.31894485903794,15.10263929618668
62.30912608101172,49,736,1,62.324737029203305,15.610948191591888
62.31760918801896,63,505,0,62.33773626524281,20.127077223849483
62.31983467319975,48,882,1,62.33259127144022,12.756598240470339
62.32079930581067,46,666,0,62.33777877795143,16.979472140759754
62.321788592514494,59,705,1,62.33800560131215,16.21700879765558
62.33023427656208,45,894,1,62.342756270696974,12.521994134898705
62.352159104903976,81,896,0,62.364641998354614,12.482893450636766
62.4022937343333,69,866,1,62.41536313804786,13.069403714565851
62.40632240645852,61,659,1,62.42343873099421,17.116324535680178
62.408092058660074,65,670,0,62.42499332943231,16.901270772235875
62.42650470397702,69,564,1,62.44547831101514,18.97360703812592
62.4336106174761,62,506,1,62.45371814435782,20.10752688172215
62.45993228394898,62,875,0,62.47282573458437,12.893450635383488
62.46408330258846,66,692,0,62.48055446583382,16.471163245354546
62.4827096083209,64,690,1,62.49921987225052,16.510263929616485
62.497041601471324,65,742,0,62.51253524761013,15.49364613880607
62.498896349787856,61,843,0,62.512415411371435,13.519061583574512
62.52289325384789,71,877,1,62.53574760379901,12.854349951121549
62.52372994272342,60,703,0,62.539986052205336,16.25610948191752
62.5304040073958,48,874,0,62.54331700837332,12.913000977518095
62.534225846392374,61,531,0,62.553844614720816,19.618768328444276
62.54884989796787,70,615,1,62.56682643755731,17.976539589442837
62.57620799233729,54,792,1,62.59072412136955,14.516129032257595
62.602438098388404,65,644,1,62.61984767805605,17.409579667641083
62.62755305594539,50,841,1,62.641111218213226,13.558162267836451
62.62891020686025,62,506,0,62.649017733741964,20.10752688172215
62.62949845558538,64,533,1,62.649078123229565,19.579667644182337
62.63101068693712,43,836,1,62.64466660091561,13.655913978494937
62.63272640106701,70,575,1,62.65148495434169,18.758553274681617
62.63562678338073,50,769,0,62.650592570282,14.965786901273532
62.638505776897816,75,623,0,62.65632591375021,17.82013685239508
62.63931063012515,38,857,1,62.65255598691889,13.245356793740939
62.660642269150586,56,849,1,62.67404402868137,13.401759530788695
62.66232733457891,51,713,0,62.678387940639524,16.060606060607824
62.67774534546208,54,767,0,62.69275023304761,15.00488758553547
62.6996255208843,55,644,1,62.71703510055194,17.409579667641083
62.70092270361178,58,736,0,62.716533651803374,15.610948191591888
62.71890204303261,30,592,0,62.73732824049107,18.426197458458773
62.74532564522023,53,740,1,62.760858392043296,15.53274682306801
62.77728199430749,75,692,0,62.79375315755284,16.471163245354546
62.79540805803925,41,548,0,62.814694470551466,19.286412512221432
62.80603327061548,50,726,1,62.82183972222838,15.806451612901583
62.81293522922218,42,559,1,62.83200658797095,19.07135874877713
62.81890351261966,73,616,0,62.83686050186697,17.95698924730823
62.819580047754805,59,524,0,62.83933566847817,19.7556207233647
62.82130724700691,58,652,0,62.8385604239375,17.253176930593327
62.82485537950315,75,561,0,62.84388763756766,19.03225806451519
62.828949960412096,35,799,1,62.84332923704944,14.379276637344446
62.83201778985588,53,678,1,62.84876265789107,16.74486803518812
62.83218172024455,58,888,1,62.84482101643223,12.639296187684522
62.833192199208156,72,624,1,62.85099278571842,17.800586510260473
62.852732318982675,66,530,0,62.87237063765325,19.638318670578883
62.85454263927714,40,567,0,62.87345759528887,18.914956011729373
62.8554389827733,81,540,1,62.87488179802257,19.442815249269188
62.87250004839451,45,801,1,62.88684022434759,14.340175953082507
62.87384659767747,58,839,0,62.88744386062957,13.59726295209839
62.885676656076875,84,841,0,62.89923481834471,13.558162267836451
62.894819784485726,45,810,0,62.90898400735963,14.164222873900144
62.909898308384584,56,513,1,62.92986898287138,19.970674486801727
62.93997650110066,75,605,0,62.95814854411141,18.17204301075253
62.944066176404654,54,818,1,62.95807399654151,14.007820136852388
62.94513496685059,74,731,0,62.96084366675284,15.708699902250373
62.948516344986444,67,779,0,62.963286628466406,14.770283479963837
62.954231109577954,55,875,1,62.967124560213335,12.893450635383488
62.96316238949184,60,552,0,62.98237060063554,19.208211143697554
62.97402630765337,64,592,0,62.99245250511183,18.426197458458773
62.98594753322162,68,843,0,62.99946659480519,13.519061583574512
62.9957973054606,53,559,1,63.014868664209374,19.07135874877713
62.99797483627273,70,823,1,63.011884904698924,13.910068426193902
62.99868427926678,61,711,1,63.01478398601165,16.099706744869763
63.001204480622924,41,840,0,63.0147821932329,13.577712609971059
63.00770701124665,56,800,0,63.02206673754186,14.359726295209839
63.014089389301674,40,593,1,63.032496036418,18.406647116324166
63.01759828611612,59,801,1,63.0319384620692,14.340175953082507
63.02169394832237,67,875,1,63.03458739895776,12.893450635383488
63.026702204081296,64,548,0,63.04598861659352,19.286412512221432
63.03230977065607,76,599,1,63.05059911571961,18.28934506353835
63.04641567989044,45,882,1,63.05917227813091,12.756598240470339
63.047972777209175,35,564,0,63.066946384247295,18.97360703812592
63.056210391302166,36,534,1,63.07577050860422,19.560117302055005
63.08125538972168,53,889,0,63.09387513556724,12.619745845549915
63.0844570464767,77,825,1,63.09832801421864,13.870967741931963
63.08490547413797,59,726,1,63.100711925750865,15.806451612901583
63.101000957834344,48,671,0,63.11788267826445,16.881720430108544
63.102075706823804,61,743,0,63.11754980262048,15.47409579667874
63.129922608941044,28,899,1,63.14234685136528,12.42424242424022
63.137194366946126,62,504,1,63.15734099451211,20.14662756598409
63.14332391711972,55,800,1,63.15768364341493,14.359726295209839
63.14853162253408,48,621,0,63.166390860070734,17.85923753665702
63.16351243108075,56,880,0,63.176308130005474,12.795698924732278
63.18205642561741,86,887,1,63.19471527214722,12.658846529811854
63.19431258462997,67,757,1,63.20951297563681,15.200391006845166
63.20015768998707,41,866,0,63.21322709370164,13.069403714565851
63.21681855978844,51,862,1,63.229966164871534,13.14760508308973
63.22033919992528,60,764,0,63.2354027385372,15.063538611924741
63.221105769119795,55,532,0,63.24070498710611,19.599217986316944
63.22425529518981,39,758,0,63.23943613585452,15.180840664710558
63.2337582340789,48,702,0,63.250033893902945,16.27565982404485
63.23731141459803,58,684,1,63.25393898058043,16.627565982402302
63.23853104164919,61,693,0,63.25498265455242,16.451612903227215
63.25336422230985,57,707,1,63.26954213042325,16.17790811339364
63.25571350334031,52,554,1,63.27488261379975,19.169110459435615
63.26149038578029,60,703,0,63.27774649526221,16.25610948191752
63.26245080920949,70,831,1,63.276204474898634,13.753665689146146
63.28399362887621,65,894,1,63.29651562301111,12.521994134898705
63.28753875844807,53,592,1,63.30596495590653,18.426197458458773
63.28882766649679,47,801,1,63.303167842449874,14.340175953082507
63.302600161268444,77,769,1,63.317565948169715,14.965786901273532
63.3034356470895,61,737,1,63.31902704493896,15.591397849464556
63.30493784839465,38,661,1,63.32201507224607,17.07722385141824
63.306952770369605,65,895,0,63.319455214162375,12.502443792764097
63.32327076155937,72,555,0,63.34242032167667,19.149560117301007
63.323492050491865,52,680,0,63.340197817842785,16.70576735092618
63.34975599315377,50,851,1,63.363118652000296,13.362658846526756
63.35561443626498,66,555,1,63.37476399638228,19.149560117301007
63.36973862843265,69,733,1,63.385408227650636,15.669599217988434
63.372657171113595,40,531,1,63.39227593944204,19.618768328444276
63.3783937592715,64,778,0,63.39318359309359,14.789833822091168
63.37878686667942,53,608,0,63.39690025866378,18.11339198436326
63.379858308290125,77,784,0,63.39453084005943,14.672531769305351
63.3858930269616,67,678,1,63.402637894996786,16.74486803518812
63.387062329282934,49,650,0,63.40435460689779,17.292277614855266
63.40404872001189,60,662,1,63.42110639352118,17.05767350928363
63.40716615615259,57,783,1,63.42185823826403,14.692082111439959
63.40963465843589,38,711,0,63.42573436518076,16.099706744869763
63.418465380182155,57,864,0,63.431573884580985,13.10850439882779
63.42287878310326,47,656,1,63.44005375866533,17.17497556206945
63.42761449585448,76,671,0,63.444496216284584,16.881720430108544
63.43857435904029,36,683,1,63.45522147536482,16.64711632453691
63.44328317587326,68,605,0,63.46145521888402,18.17204301075253
63.44685776879079,68,673,0,63.46370038853664,16.842619745846605
63.452075244646046,60,710,1,63.468194501733045,16.119257086997095
63.45293385073198,66,775,1,63.467782335580466,14.848484848487715
63.468075572099096,64,554,1,63.487244682558526,19.169110459435615
63.507306774773916,61,721,0,63.52321097809748,15.904203323560068
63.508443204408735,51,814,0,63.52252922591411,14.086021505376266
63.51334719572812,39,679,1,63.53007251342118,16.725317693060788
63.513519670825474,62,704,1,63.52975622996526,16.236559139782912
63.519159626303896,63,712,0,63.53523978270663,16.080156402735156
63.52828645000177,41,664,1,63.545305022826795,17.018572825021693
63.52940514785757,66,768,0,63.54439048510096,14.985337243400863
63.5364545365888,50,668,1,63.55339490804529,16.940371456497815
63.53815889725657,62,735,1,63.5537893957903,15.630498533726495
63.53895625942903,59,509,1,63.55900513528435,20.048875855325605
63.54037636105964,78,804,1,63.55465788598633,14.281524926685961
63.54372760190822,65,625,0,63.561508638076354,17.78103616813314
63.553345014943076,51,784,1,63.56801754671238,14.672531769305351
63.56504007019108,68,881,1,63.577816218773684,12.77614858259767
63.56809713978486,67,755,1,63.58333663147597,15.239491691107105
63.57663794071681,72,546,0,63.59596345391329,19.32551319648337
63.580023837085164,50,702,0,63.59629949690921,16.27565982404485
63.58906573214829,63,750,1,63.60440297555005,15.337243401758315
63.589848158939645,69,899,0,63.602272401363884,12.42424242424022
63.60323023614415,64,758,0,63.618411076808854,15.180840664710558
63.6060290705956,59,511,1,63.62603884576667,20.009775171063666
63.6084034155144,85,817,0,63.62243078599339,14.027370478986995
63.614370562425506,65,527,0,63.63406753212248,19.696969696968154
63.6208244470564,64,702,0,63.637100106880446,16.27565982404485
63.623476370209254,52,727,1,63.639263271480026,15.786901270774251
63.63344388900725,68,574,1,63.65222199262407,18.778103616816225
63.64993860666796,50,604,1,63.66813020002085,18.19159335288714
63.651785933191015,63,582,1,63.670407634070784,18.62170087976847
63.65605473908126,72,716,1,63.672056694115476,16.001955034211278
63.669007848923336,66,869,0,63.6820186016115,13.010752688169305
63.68565041290895,79,549,1,63.70491727507904,19.266862170086824
63.69566454875635,42,718,1,63.7116274031063,15.962854349949339
63.707976623098524,77,550,1,63.727223934926485,19.247311827959493
63.71162060840218,51,782,0,63.72633224085574,14.71163245356729
63.71926696533251,59,548,1,63.73855337784473,19.286412512221432
63.7343179679305,72,768,1,63.7493033051739,14.985337243400863
63.74014107519317,53,710,1,63.75626033228016,16.119257086997095
63.74923115035869,54,660,1,63.766327924552236,17.09677419354557
63.773661704486955,56,899,1,63.78608594691119,12.42424242424022
63.7981108539966,55,560,1,63.81716266240325,19.051808406649798
63.80632528254317,64,673,1,63.823167902289015,16.842619745846605
63.821598284765734,80,818,0,63.83560610490259,14.007820136852388
63.86663712242052,56,847,1,63.88007798263557,13.440860215050634
63.87653306624465,54,622,0,63.89437275343917,17.839687194522412
63.87819338921001,57,659,0,63.8953097137457,17.116324535680178
63.889460446735136,59,763,1,63.9045435356892,15.083088954059349
63.90022234190726,58,567,0,63.919137297918994,18.914956011729373
63.9051432562971,53,584,1,63.92372585649261,18.58260019550653
63.90673359734756,53,811,1,63.92087826987934,14.144672531772812
63.917178418159864,65,573,0,63.935976072118805,18.797653958943556
63.91787506836501,54,772,1,63.932782204239885,14.907135874876985
63.93336549198716,70,838,0,63.946982305281395,13.616813294232998
63.939159170891564,42,545,0,63.95850423443018,19.345063538610702
63.94403474889118,63,505,1,63.96416182611503,20.127077223849483
63.94523137344483,71,530,0,63.96486969211541,19.638318670578883
63.949150303952024,34,574,1,63.96792840756884,18.778103616816225
63.96722957333662,30,801,1,63.981569749289704,14.340175953082507
63.969684333921606,81,573,0,63.98848198788055,18.797653958943556
63.97510856860119,53,734,1,63.99075861747705,15.650048875853827
63.99563531787261,74,429,0,64.01724822109841,21.612903225803166
64.0575861533644,68,526,1,64.0773026734035,19.71652003910276
64.06825542356684,67,650,0,64.0855477011817,17.292277614855266
64.07426304856027,56,430,0,64.09585640144394,21.593352883675834
64.14732860306934,75,445,1,64.16862870082105,21.300097751707654
64.15376035203049,75,505,1,64.17388742925434,20.127077223849483
64.17890661385452,62,517,0,64.1987990869728,19.89247311827785
64.19120738629906,66,532,0,64.21080660428537,19.599217986316944
64.21014310413142,75,679,1,64.22686842182448,16.725317693060788
64.2385228395061,47,445,0,64.25982293725781,21.300097751707654
64.26857089044407,52,540,0,64.28801370569333,19.442815249269188
64.27183597223882,70,585,1,64.29039902209219,18.563049853371922
64.30755718856177,71,563,1,64.32655034594202,18.99315738025325
64.30828586464132,77,508,1,64.32835429083877,20.068426197460212
64.37905796303731,69,498,1,64.39932189265609,20.263929618769907
64.38466667002437,58,625,0,64.4024477061925,17.78103616813314
64.38538809649076,66,531,0,64.4050068648192,19.618768328444276
64.41233904105951,69,517,1,64.43223151417779,19.89247311827785
64.47229068433391,70,532,1,64.49188990232022,19.599217986316944
64.47856150645272,70,557,1,64.49767196588576,19.11045943303907
64.5531161933965,76,579,1,64.57179654530266,18.68035190615774
64.58046720871869,58,546,1,64.59979272191516,19.32551319648337
64.60277088775443,81,666,1,64.61975035989519,16.979472140759754
64.62213593192459,53,429,0,64.64374883515039,21.612903225803166
64.65833435831054,77,654,1,64.67554843455687,17.214076246331388
64.67632477651757,61,473,0,64.69707746468961,20.752688172040507
64.67970403100509,72,525,1,64.69944010138632,19.736070381230093
64.6987837571731,69,628,1,64.71650614231484,17.722385141736595
64.71402589477033,72,521,1,64.73384016652008,19.81427174975397
64.73353769751498,72,448,1,64.75477914424029,21.241446725318383
64.73696489063995,65,538,0,64.75644680657349,19.481915933531127
64.75226044470115,63,477,0,64.77293493150466,20.67448680351663
64.75615344876708,58,577,0,64.7748729013575,18.719452590419678
64.78315145468376,64,446,0,64.80443200209334,21.280547409580322
64.81957759697376,76,631,1,64.8372413310891,17.663734115347324
64.84767515207527,58,557,0,64.8667856115083,19.11045943303907
64.85322484972937,71,509,1,64.8732737255847,20.048875855325605
64.85523606584552,60,558,0,64.87432697493642,19.090909090911737
64.9026719889097,70,607,1,64.92080493123619,18.132942326490593
64.91104829737266,74,637,1,64.92859472943522,17.546432062561507
64.9220771599091,63,504,0,64.94222378747507,20.14662756598409
64.96865383148942,63,569,0,64.98752968681688,18.875855327467434
64.98102106959627,70,596,1,64.9993690656862,18.347996089934895
64.9986256628353,55,668,0,65.0155660342918,16.940371456497815
65.03945371750957,60,697,1,65.05582712904427,16.373411534703337
65.05070601378517,61,427,0,65.07235801769524,21.652003910065105
65.06366663764393,69,411,1,65.08563144702809,21.964809384160617
65.1150292167531,64,565,1,65.13398327344909,18.954056695991312
65.12459820725391,56,688,0,65.14114757186779,16.549364613878424
65.2278994582217,67,699,1,65.24423376907214,16.334310850441398
65.243362982133,58,414,0,65.26526914049076,21.906158357771346
65.25666508104581,66,550,1,65.27591239287378,19.247311827959493
65.27144248197855,58,536,0,65.29096349859634,19.521016617793066
65.29930223885404,65,593,1,65.31770888597036,18.406647116324166
65.35199962267878,77,561,1,65.37103188074329,19.03225806451519
65.35472363574875,75,642,1,65.37217231610066,17.448680351903022
65.3594191662156,55,439,0,65.3808365660201,21.41739980449347
65.38077354431508,66,531,1,65.40039231264352,19.618768328444276
65.38500897956544,71,412,1,65.40695423860747,21.945259042033285
65.38505484784518,74,408,1,65.40707830825575,22.023460410557163
65.39035641006012,62,661,0,65.40743363391154,17.07722385141824
65.41499996145126,57,683,0,65.43164707777579,16.64711632453691
65.43789948068266,57,471,0,65.45869126953896,20.791788856302446
65.4389999917146,82,517,1,65.45889246483287,19.89247311827785
65.43943094689998,66,436,0,65.46090699773086,21.476050830890017
65.53288714271763,56,454,0,65.55401128739015,21.124144672532566
65.56755386092198,59,592,1,65.58598005838043,18.426197458451497
65.68232810873154,66,409,0,65.70433201879996,22.003910068422556
65.69825759262957,50,507,0,65.71834556916916,20.08797653959482
65.75726979816471,72,475,1,65.77798338565249,20.713587487785844
65.8217906022263,73,682,1,65.83845726889298,16.666666666671517
65.83804319265087,74,629,1,65.85574602745048,17.702834799609263
65.84881186830987,51,497,0,65.86909534827078,20.28347996089724
65.85226507326712,56,536,0,65.8717860898849,19.52101661778579
65.87378026660161,64,527,0,65.89347723629858,19.69696969697543
65.90701473976786,69,490,1,65.92743507212369,20.420332355817663
65.91001884973147,57,546,0,65.92934436292795,19.32551319648337
65.91020827617014,66,649,1,65.92752010412713,17.311827956989873
65.92257367623246,70,524,1,65.94232929695582,19.755620723357424
65.9287871663764,61,434,0,65.95030231789154,21.515151515151956
65.9740694790463,71,554,1,65.99323858950574,19.169110459435615
66.06395745726499,80,461,1,66.0849447495426,20.98729227761214
66.08579412631475,69,456,1,66.10687917030302,21.08504398826335
66.14990206843355,74,668,1,66.16684243989003,16.940371456497815
66.15030541200333,63,401,0,66.1724657248088,22.160312805470312
66.15514082269169,76,695,1,66.17155333491066,16.412512218958
66.17049114330231,72,517,1,66.19038361642059,19.89247311827785
66.21777346730009,54,654,0,66.23498754354644,17.214076246338664
66.22163479092941,74,507,1,66.24172276746901,20.08797653959482
66.24566556248675,57,518,0,66.26553848526291,19.872922776150517
66.28616269091341,78,635,1,66.30374822366024,17.58553274681617
66.42233595000455,72,561,1,66.44136820806906,19.03225806451519
66.4825194364547,69,695,0,66.49893194867364,16.412512218958
66.50019621264585,81,514,1,66.52014733679053,19.951124144674395
66.52713176845673,73,471,1,66.54792355731304,20.791788856309722
66.57144148686118,78,535,1,66.59098205382111,19.540566959927673
66.60186393302249,70,523,1,66.62163910408799,19.775171065499308
66.633764508041,61,462,0,66.65473224997649,20.96774193548481
66.63433459695017,71,657,1,66.65149002217011,17.155425219942117
66.66715643759916,71,415,1,66.68904304561481,21.886608015644015
66.69726874233776,56,528,0,66.71694616169259,19.677419354833546
66.71358931270173,80,591,1,66.73203506050233,18.44574780059338
66.82747545528953,66,607,1,66.84560839761603,18.13294232649787
66.86689644973373,63,440,0,66.88829429919609,21.397849462358863
66.96116873456191,59,648,0,66.97850011286103,17.331378299117205
67.0238151111462,61,410,0,67.0457994708725,21.984359726295224
67.05603866558945,81,437,1,67.07749516607821,21.45650048875541
67.05887989186859,73,483,1,67.07943707661931,20.557184750738088
67.089958011731,56,661,0,67.10703523558242,17.07722385141824
67.098786783073,60,464,0,67.11971542432421,20.928641251215595
67.1339488260539,60,570,0,67.15280513103923,18.856304985340103
67.20828053837569,54,649,0,67.22559236633268,17.311827956989873
67.24089503201853,68,568,0,67.25979043768812,18.895405669594766
67.27011008494263,65,485,1,67.2906281690091,20.518084066468873
67.44312285895052,80,670,1,67.46002412972277,16.90127077224315
67.45724829981033,52,679,0,67.47397361750339,16.725317693053512
67.46714513152449,58,520,0,67.48697895361637,19.833822091881302
67.47619638597992,58,611,0,67.49425112693788,18.05474095797399
67.48611418339819,58,465,0,67.50702327430727,20.909090909088263
67.49345245897956,61,418,0,67.5152804159688,21.82795698924747
67.52496462367372,64,475,1,67.54567821116152,20.713587487785844
67.53166125111969,73,548,1,67.5509476636319,19.286412512214156
67.62861668361111,73,696,1,67.64500964548793,16.392961876830668
67.67632221605568,71,666,1,67.69330168819644,16.97947214076703
67.69302279612366,73,609,1,67.71111663776588,18.093841642228654
67.7035453335842,50,454,0,67.72466947825673,21.124144672532566
67.7880761293236,62,630,0,67.80575941378108,17.683284457481932
67.81562839431088,70,430,1,67.83722174719455,21.593352883675834
67.81932626943565,75,541,1,67.83874953434278,19.42326490713458
67.8247685787055,76,582,1,67.84339027958528,18.62170087976847
67.83091844115732,73,632,1,67.84856262493054,17.644183773212717
67.89108231574163,83,652,1,67.90833549267222,17.253176930593327
67.90122967401254,73,509,1,67.92127854986788,20.048875855325605
67.91634858990986,72,607,1,67.93448153223636,18.13294232649787
67.92052175013613,73,451,1,67.94170454583507,21.182795698929112
67.94479599020985,70,481,1,67.96539227564485,20.59628543499275
67.96669459414537,59,426,0,67.98836614839756,21.671554252199712
67.9785185251747,64,508,1,67.99858695137216,20.068426197452936
68.02919817227377,72,406,1,68.0512607333686,22.062561094819102
68.04610019032405,76,619,1,68.06399852854497,17.898338220911683
68.07376043741446,54,450,0,68.09496278345551,21.202346041056444
68.08713167705739,52,445,0,68.10843177480909,21.300097751707654
68.14621097431238,73,506,1,68.16631850119411,20.10752688172215
68.15715666652325,68,501,1,68.17736194511562,20.20527859237336
68.16918416493027,60,473,0,68.18993685310231,20.752688172040507
68.18140835140998,65,666,1,68.19838782355076,16.97947214076703
68.18483527790139,60,690,0,68.201345541831,16.51026392962376
68.23622136498771,59,648,0,68.25355274328683,17.331378299117205
68.29785682437559,67,580,1,68.31651762593961,18.66080156402313
68.35417010037689,73,540,1,68.37361291562615,19.442815249261912
68.3805436442171,64,631,1,68.39820737833244,17.66373411534005
68.3959178727744,59,555,0,68.4150674328917,19.149560117308283
68.44503569675112,61,400,1,68.46721555989873,22.179863147612195
68.47643943916879,65,606,0,68.4945919318374,18.1524926686252
68.49083348469013,68,444,1,68.51215313278396,21.319648093834985
68.49961557581001,75,444,1,68.52093522390385,21.319648093834985
68.50040546051598,78,528,1,68.52008287987081,19.677419354833546
68.50610867880717,67,551,1,68.525336440293,19.22776148583216
68.55018927167754,68,520,1,68.57002309376941,19.833822091881302
68.56302991862378,62,659,0,68.58014624315946,17.116324535672902
68.56733728599811,54,418,0,68.58916524298735,21.82795698924747
68.57085617944131,71,694,1,68.58728824200242,16.432062561099883
68.60560378340178,64,525,1,68.625339853783,19.736070381230093
68.62314601706969,61,483,1,68.64370320182041,20.557184750738088
68.64169871625174,77,664,1,68.65871728907675,17.018572825021693
68.6650710306748,72,605,1,68.68324307368555,18.17204301075253
68.66528456878555,64,666,0,68.68226404092633,16.97947214076703
68.69985137464585,72,623,1,68.71767151149824,17.820136852387805
68.71214052400998,59,511,0,68.73215029918106,20.00977517107094
68.71687992803534,55,648,0,68.73421130633446,17.331378299117205
68.73962015385608,61,596,0,68.75796814994601,18.34799608992762
68.7397658743366,74,605,1,68.75793791734736,18.17204301075253
68.83272210907222,77,460,1,68.85372895169195,21.006842619739473
68.85497391034748,75,509,1,68.8750227862028,20.048875855325605
68.87589873657471,69,644,0,68.89330831624235,17.409579667641083
68.90299131387462,58,695,0,68.91940382609357,16.412512218958
68.92947772909604,74,530,1,68.94911604776661,19.638318670578883
68.96662081088677,75,559,1,68.98569216963556,19.071358748784405
68.96839110980365,75,662,1,68.98544878331293,17.057673509290908
68.97890185078029,70,624,1,68.99670243729054,17.800586510260473
68.99053421539199,63,694,0,69.0069662779531,16.432062561099883
68.9942725258261,62,611,0,69.01232726678408,18.05474095797399
69.01047289820809,74,431,1,69.03204670074965,21.573802541548503
69.0186509556342,67,460,1,69.03965779825394,21.006842619739473
69.09716038401291,71,612,1,69.11519557462874,18.035190615832107
69.12624621627357,68,664,0,69.1432647890986,17.018572825021693
69.14450099653332,79,407,1,69.16654400728602,22.04301075269177
69.1960162513692,66,402,0,69.21815701383255,22.14076246334298
69.2304241839659,78,596,1,69.24877218005582,18.34799608992762
69.27360747607281,59,408,0,69.29563093648338,22.02346041056444
69.30328643623689,69,500,1,69.32351126517139,20.224828934500692
69.30466519230949,68,630,1,69.32234847676698,17.683284457481932
69.31439156168635,77,428,1,69.33602401525428,21.632453567930497
69.35511219412605,65,590,0,69.37357749226877,18.465298142720712
69.38997037138715,76,551,1,69.40919813287299,19.22776148583216
69.41759093154202,72,541,1,69.43701419644917,19.42326490713458
69.48454346298763,68,492,1,69.50492469465918,20.38123167154845
69.52829938397795,62,639,0,69.54580671535625,17.507331378292292
69.59254986996974,71,501,1,69.61275514856212,20.20527859237336
69.5993427113437,58,530,0,69.61898103001427,19.638318670578883
69.60616600615803,63,433,0,69.62770070801531,21.534701857279288
69.60779195123587,68,569,1,69.62666780656333,18.875855327467434
69.67184404805697,72,582,1,69.69046574893675,18.62170087976847
69.68944280296755,75,665,1,69.70644182545044,16.99902248289436
69.72601395793266,60,630,0,69.74369724239014,17.683284457481932
69.76833954814202,54,696,0,69.78473251001886,16.392961876830668
69.81224469319314,74,623,1,69.83006483004552,17.820136852387805
69.83303876303171,66,404,0,69.8551404248108,22.101661779088317
69.86208415341206,77,652,1,69.87933733034265,17.253176930593327
69.88133477689377,53,532,1,69.90093399488008,19.599217986309668
69.89613362037154,74,650,1,69.91342589798641,17.29227761486254
69.90960509291047,62,567,1,69.92852004892221,18.91495601173665
69.92062575849496,77,618,1,69.93854364705801,17.917888563053566
69.93528791768834,66,591,1,69.95373366548894,18.44574780059338
70.00522461852594,74,455,1,70.02632921285635,21.104594330405234
70.06317825757519,73,516,1,70.0830902810356,19.91202346040518
70.08655734159122,62,588,0,70.1050617404182,18.504398826975375
70.2474707188892,57,457,0,70.26853621253534,21.06549364613602
70.27744325765056,75,602,1,70.29567395168772,18.230694037149078
70.28438745985169,66,641,1,70.30185569054572,17.46823069403763
70.43696965148304,72,642,1,70.45441833183496,17.448680351910298
70.43999538258527,59,506,0,70.460102909467,20.10752688172215
70.50041162603313,60,546,0,70.5197371392296,19.32551319648337
70.51558023881107,67,576,0,70.53431924174362,18.73900293254701
70.51991996877778,67,615,0,70.53789650836723,17.97653958943556
70.53213911751318,55,502,0,70.55232484576344,20.18572825024603
70.5379915072109,73,435,1,70.55948710838392,21.495601173024625
70.54837516179612,65,483,0,70.56893234654684,20.557184750738088
70.5775703325774,71,648,1,70.59490171087651,17.331378299117205
70.57952751202166,44,486,0,70.60002604574599,20.49853372434154
70.65770687955133,64,519,1,70.67756025198535,19.853372434023186
70.67296230509638,71,408,1,70.69498576550694,22.02346041056444
70.67982060636396,70,540,1,70.69926342161322,19.442815249261912
70.70338800043578,74,691,1,70.71987871402327,16.490713587481878
70.71209442279604,56,644,0,70.72950400246368,17.409579667641083
70.71599131107344,64,434,0,70.73750646258858,21.515151515151956
70.73817356589862,67,525,1,70.75790963627985,19.736070381230093
70.75490191728497,73,665,1,70.77190093976786,16.99902248289436
70.84287043537307,73,539,1,70.86233280096448,19.462365591403795
70.87172447279906,68,668,0,70.88866484425556,16.940371456497815
70.92960495302192,62,692,0,70.94607611626728,16.471163245354546
70.93545437733113,83,622,1,70.95329406452566,17.839687194529688
70.97338787531852,55,491,0,70.99378865733222,20.400782013690332
70.9963551803254,72,530,1,71.01599349899597,19.638318670578883
71.0278604222356,50,492,0,71.04824165390716,20.38123167154845
71.0474385967377,60,426,0,71.0691101509899,21.671554252199712
71.10662357764019,59,541,0,71.12604684254732,19.42326490713458
71.14560139416199,77,433,1,71.16713609601926,21.534701857279288
71.1501893429946,66,533,1,71.16976901063877,19.579667644182337
71.27715153790395,60,526,0,71.29686805794306,19.71652003910276
71.29773312448509,73,412,1,71.31967838352712,21.94525904202601
71.32228597874725,65,698,1,71.33863983993982,16.353861192576005
71.32252630930003,53,586,0,71.34106980881127,18.54349951124459
71.34135148402633,70,553,1,71.3605401448279,19.188660801562946
71.36598514949898,77,479,1,71.38662053561825,20.635386119261966
71.37687023612804,71,581,1,71.39551148734994,18.6412512218958
71.37918408559145,82,561,1,71.39821634365596,19.03225806451519
71.3811026485178,56,412,0,71.40304790755982,21.94525904202601
71.45711513699172,57,484,0,71.47765277140032,20.537634408596205
71.47170742493704,70,458,1,71.49275336824104,21.045943304008688
71.54392332115945,65,404,0,71.56602498293854,22.101661779088317
71.55915256712716,78,500,1,71.57937739606166,20.224828934500692
71.56468958870086,74,595,1,71.58305713513293,18.367546432069503
71.58589003439722,61,556,0,71.60502004417239,19.1300097751664
71.58828069290315,69,522,1,71.60807541431078,19.79472140762664
71.64122032353804,70,533,1,71.66079999118222,19.579667644182337
71.64855204087637,62,592,0,71.66697823833482,18.426197458451497
71.65820333041961,62,403,0,71.68032454254083,22.12121212121565
71.66218099027591,70,655,1,71.67937551618012,17.19452590419678
71.68836377074122,66,689,0,71.70489358501297,16.529814271751093
71.71635626388303,56,636,0,71.73392224628772,17.56598240468884
71.71982528060485,73,471,1,71.74061706946117,20.791788856309722
71.75625951886879,77,503,1,71.7764256967769,20.166177908118698
71.77089126040988,73,612,1,71.78892645102572,18.035190615832107
71.77169109894268,73,426,1,71.79336265319488,21.671554252199712
71.80940661306235,65,489,0,71.8298464957603,20.439882697944995
71.8188794265957,63,499,1,71.83912380587233,20.244379276642576
71.83960137621331,71,682,1,71.85626804287998,16.666666666671517
71.8760739494775,69,628,1,71.89379633461924,17.722385141736595
71.88545260094381,59,578,0,71.90415250319211,18.699902248292346
71.91576499415228,68,630,1,71.93344827860976,17.683284457481932
71.96045737012783,57,570,0,71.97931367511316,18.856304985340103
71.96590204341173,61,453,0,71.98704573842639,21.143695014659897
72.03937905083419,70,528,1,72.05905647018902,19.677419354833546
72.04511707958355,51,666,0,72.06209655172432,16.97947214076703
72.05358946710425,69,440,1,72.0749873165666,21.397849462358863
72.12467889929162,53,491,0,72.14507968130532,20.400782013690332
72.15444975229774,65,674,0,72.17127282170145,16.823069403719273
72.17409409990145,68,650,1,72.19138637751632,17.29227761486254
72.20462243040193,64,562,1,72.22363513812431,19.01270772238786
72.24716003918896,78,694,1,72.26359210175005,16.432062561099883
72.27567375624155,74,597,1,72.29400220198936,18.328445747800288
72.27580559605262,57,580,0,72.29446639761665,18.66080156402313
72.27793937739267,63,650,0,72.29523165500754,17.29227761486254
72.2931803394506,58,631,0,72.31084407356595,17.66373411534005
72.34020445864171,77,621,1,72.35806369617836,17.85923753665702
72.39770028430824,68,560,1,72.41675209271489,19.05180840664252
72.49127548974936,67,429,0,72.51288839297516,21.612903225803166
72.65377720262691,66,498,1,72.67404113224568,20.263929618769907
72.66644495691682,76,406,1,72.68850751801165,22.062561094819102
72.67000805314558,76,578,1,72.68870795539387,18.699902248292346
72.68265982921153,74,623,1,72.70047996606392,17.820136852387805
72.68633042374233,71,667,1,72.70329034554095,16.959921798625146
72.74711777286228,63,656,0,72.76429274842435,17.17497556206945
72.74974168217388,71,504,1,72.76988830973986,20.146627565976814
72.76063753637925,60,574,0,72.77941563999606,18.778103616816225
72.77461301984474,68,608,1,72.7927264118291,18.113391984355985
72.7779881923546,64,632,1,72.79563237612781,17.644183773212717
72.79391268303056,74,584,1,72.81249528322606,18.582600195499253
72.84606148540884,58,450,0,72.86726383144989,21.202346041056444
72.87460856596981,64,698,0,72.89096242716239,16.353861192576005
72.91379609078702,67,600,0,72.93206588550842,18.26979472140374
72.92395766172329,75,686,0,72.94054612702145,16.58846529814764
72.94175830160347,70,686,1,72.95834676690163,16.58846529814764
73.0112693746046,69,402,1,73.03341013706795,22.14076246334298
73.09061577839817,58,405,0,73.11269788983512,22.082111436946434
73.13168859440445,77,692,1,73.14815975764981,16.471163245354546
73.1360372773918,73,556,1,73.15516728716696,19.1300097751664
73.1376466383463,58,549,0,73.15691350051638,19.266862170086824
73.22412676376206,61,601,0,73.24237700814133,18.25024437927641
73.23857857485947,58,435,0,73.2600741760325,21.495601173024625
73.24512454300931,71,409,0,73.26712845307773,22.003910068422556
73.26959213252483,63,692,0,73.28606329577019,16.471163245354546
73.29053262776091,77,679,1,73.30725794545397,16.725317693053512
73.29875542073657,65,556,1,73.31788543051174,19.1300097751664
73.30391983510698,58,575,0,73.32267838838168,18.758553274688893
73.30601936232159,71,589,1,73.32450421080644,18.484848484848044
73.3207225483895,70,469,1,73.34155343793006,20.830889540564385
73.33523164600162,51,444,0,73.35655129409545,21.319648093834985
73.33849684901726,87,537,1,73.35799831529292,19.50146627565846
73.34334788523041,86,696,1,73.35974084710725,16.392961876830668
73.36964980351341,60,452,0,73.3908130488702,21.16324535678723
73.42208486146265,61,482,0,73.44266159655551,20.57673509286542
73.52230379959315,66,511,1,73.54231357476422,20.00977517107094
73.57939504350203,63,513,0,73.59936571798885,19.970674486801727
73.62117447869468,59,497,0,73.64145795865558,20.28347996089724
73.63725040609891,63,648,1,73.65458178439803,17.331378299117205
73.67080840135458,69,429,0,73.69242130458038,21.612903225803166
73.67121914207966,74,405,1,73.69330125351661,22.082111436946434
73.81231217999694,58,498,0,73.8325761096157,20.263929618769907
73.8305632789941,73,523,1,73.8503384500596,19.775171065499308
73.83418811544637,63,502,0,73.8543738436966,20.18572825024603
73.83627479696523,76,556,1,73.8554048067404,19.1300097751664
73.8396070688431,60,511,0,73.85961684401417,20.00977517107094
73.84805794213223,53,509,0,73.86810681798755,20.048875855325605
73.8520571922118,59,666,0,73.86903666435256,16.97947214076703
73.87450764519261,62,611,0,73.89256238615059,18.05474095797399
73.92292983008439,69,403,1,73.94505104220559,22.12121212121565
73.94164347066726,57,669,0,73.95856429178163,16.920821114370483
73.97874547848366,63,547,1,73.99805144133802,19.30596285435604
