onset_time,pitch,velocity,voice_id
5.203769953158188e-06,40,103,0
0.0004043358953843135,25,68,0
0.0010549425983027061,60,68,0
0.0011089082081183132,106,60,0
0.0012208795470067335,63,114,0
0.001393314544058757,100,67,0
0.002017192023353962,74,67,0
0.002030612247347694,32,92,0
0.002184404372168336,56,71,0
0.0023598491974895575,31,84,0
0.0025606832276132397,39,66,0
0.002721322493846353,70,96,0
0.002747217929900642,97,104,0
0.00295633685837714,26,66,0
0.0032434502100527397,37,107,0
0.00352568856334169,93,99,0
0.003562978380769749,55,82,0
0.0038292687475378986,47,88,0
0.004165099478703662,66,93,0
0.004393365018657701,86,103,0
0.004565345704829102,52,67,0
0.004753702231821117,105,70,0
0.005398410913016731,94,94,0
0.005612434258477012,21,100,0
0.005632755719763837,85,110,0
0.00598865466488536,61,101,0
0.006044173792778173,76,94,0
0.006243540481337933,87,87,0
0.006476901205413624,82,94,0
0.0069478493303970455,49,98,0
0.0069551608642612756,54,76,0
0.007106628896857874,89,83,0
0.007217295211648732,88,60,0
0.00848913824266084,33,104,0
0.008804678390152577,30,100,0
0.008832802589188683,65,92,0
0.008957635956735195,101,83,0
0.009068284415457541,28,83,0
0.00942853570557981,51,64,0
0.009717120953891038,43,74,0
0.5001545661652886,89,84,1
0.5002431596643145,66,97,1
0.5009367476782809,88,78,1
0.5017711067940704,77,79,1
0.5019524298779805,27,108,1
0.5022426930946056,56,107,1
0.502372490874968,67,64,1
0.5024398964337908,106,62,1
0.5026520236768173,41,75,1
0.5028077236244085,51,95,1
0.5029444889206959,36,113,1
0.5032539969815927,55,96,1
0.5036771580305943,33,107,1
0.5037015870025544,40,94,1
0.5038509772860192,68,94,1
0.5039309772466676,61,83,1
0.5042818414831731,91,77,1
0.5049251769381886,65,70,1
0.505026370931052,94,83,1
0.5056830860333548,38,94,1
0.5057690388462636,81,111,1
0.5063113862599726,95,115,1
0.5064547229590717,75,99,1
0.5064963289904721,63,114,1
0.506519612595026,34,60,1
0.5065761289230034,50,100,1
0.5071217922134753,83,71,1
0.5072245211526151,70,67,1
0.5074649140511802,35,91,1
0.5079481130354165,28,92,1
0.5084922341049418,30,68,1
0.5085300945546736,87,61,1
0.5089204655517712,45,113,1
0.5091486439022045,84,84,1
0.5092831856258773,49,88,1
0.5094045858435291,69,94,1
0.5095392857700258,105,107,1
0.5096361997708925,104,77,1
0.5096665481904367,62,105,1
0.5097301055475244,60,79,1
1.0001822182565154,75,89,2
1.0002327193573584,58,85,2
1.0002651131054163,69,88,2
1.0004530400977205,90,84,2
1.0006936130087516,50,106,2
1.0007056874740043,73,64,2
1.0007118864846023,91,64,2
1.0009444296075594,41,105,2
1.0010077800137742,88,108,2
1.0011816482762166,42,80,2
1.0016293442708144,61,98,2
1.0017320186991001,49,106,2
1.001957911347893,25,64,2
1.002818547747734,82,107,2
1.0031897563029377,71,71,2
1.0037461261462648,89,99,2
1.0038610263780077,76,88,2
1.0038816992620652,64,85,2
1.0039850473439738,85,91,2
1.0043385164923797,31,93,2
1.004582528904915,84,110,2
1.0047347177078056,105,60,2
1.005031362585801,94,112,2
1.0054561678931593,103,96,2
1.005754741778759,83,71,2
1.0058577558127346,30,114,2
1.006158500980522,39,113,2
1.0062585991571424,51,104,2
1.0063509365086765,101,107,2
1.0064241927820632,95,81,2
1.0064328821844235,23,75,2
1.0065869363161895,57,75,2
1.0068300677341635,72,111,2
1.0081446848258893,60,85,2
1.0084487531096946,26,75,2
1.0085648984118831,92,60,2
1.0090535064195607,79,87,2
1.0094023024142496,81,62,2
1.0094146480877653,80,81,2
1.009611905638239,24,73,2
1.5004315991195059,40,84,3
1.5004544638034145,94,98,3
1.500737965647354,24,65,3
1.5007773463696499,103,60,3
1.501626169393449,62,97,3
1.5018812115972375,76,87,3
1.5027738118298113,58,79,3
1.5028096318959223,22,62,3
1.5030952761628633,52,84,3
1.5035335222802606,88,100,3
1.504182430362906,59,104,3
1.5045454106476777,65,86,3
1.5045565675278572,28,109,3
1.5046369840493998,26,67,3
1.5052309784417015,71,103,3
1.505277011090863,97,63,3
1.5053609636634413,38,108,3
1.5055385428440131,21,90,3
1.5058365611185087,92,98,3
1.505843143119231,80,85,3
1.5061341519593578,60,91,3
1.5062013259780154,86,87,3
1.5062755808008406,63,69,3
1.5062939863813527,23,113,3
1.5068473117255388,107,92,3
1.506957486889846,54,98,3
1.5069816171401975,35,87,3
1.5072571950838836,74,104,3
1.5081379501970695,31,115,3
1.5082253724292316,68,65,3
1.5089026378389092,46,72,3
1.5089114311369807,42,104,3
1.50901158010491,89,78,3
1.5091092718449384,70,112,3
1.5094979991329192,73,103,3
1.5095041148407655,47,104,3
1.509693025356191,53,78,3
1.5097439480766617,77,62,3
1.509862107444796,66,72,3
1.509929647961193,64,95,3
2.000366832028906,36,63,4
2.000393121398411,49,61,4
2.0004086861626647,63,69,4
2.000610779598549,91,110,4
2.000817590319489,42,102,4
2.0008870253375703,61,76,4
2.001071720113398,32,86,4
2.001206358711006,84,79,4
2.0016893506307216,72,115,4
2.0017231987120163,97,88,4
2.0017701048427674,104,69,4
2.0018452101935638,22,75,4
2.001922890188087,82,63,4
2.0020633371840577,77,64,4
2.002093493233367,78,90,4
2.00252436944344,80,115,4
2.002768776481472,27,106,4
2.0027859033903197,58,76,4
2.0036426986104807,74,93,4
2.003689136395698,86,67,4
2.0037047210279137,98,70,4
2.0044741236682344,88,88,4
2.004607787680327,103,83,4
2.0046253471613316,35,63,4
2.0048452298519104,56,113,4
2.0050341727085486,67,65,4
2.0051167744211567,90,91,4
2.005321134852653,70,62,4
2.0053261726645504,108,91,4
2.006182547715303,68,75,4
2.006279003894909,95,102,4
2.006903948286294,62,112,4
2.0071334958588456,55,84,4
2.0074747093813374,64,99,4
2.0074825969038366,101,114,4
2.0079941039890903,45,72,4
2.0080620127979305,81,82,4
2.008735786241068,40,107,4
2.008952068376872,107,62,4
2.009208724005318,44,70,4
2.500664962673668,47,95,5
2.501168980407084,106,94,5
2.501392720726634,96,64,5
2.501397723766263,34,92,5
2.501636559428657,89,115,5
2.50164265797931,66,69,5
2.5018123306616564,93,70,5
2.5020162732004776,85,109,5
2.5023221269514684,99,68,5
2.5030137787416415,39,96,5
2.503349056146571,71,108,5
2.503588304841235,25,103,5
2.503769444294249,49,79,5
2.503838912213732,55,74,5
2.5039244510742265,98,72,5
2.504391349085702,58,61,5
2.5046267978566963,83,60,5
2.5050272039009247,104,76,5
2.505230654247691,97,69,5
2.505334610919763,103,73,5
2.50543552861114,108,83,5
2.505744731131799,43,102,5
2.506200727559285,56,109,5
2.50624237995914,67,114,5
2.506277080530714,22,90,5
2.506651972206962,95,82,5
2.5073086747520366,36,97,5
2.5074112064929004,27,72,5
2.5074760938017624,52,68,5
2.5079402518927028,101,103,5
2.507952673118599,21,65,5
2.5081457472023136,75,64,5
2.508165994394716,91,99,5
2.508418287767583,63,62,5
2.5087720054081313,32,61,5
2.5089389258305097,90,112,5
2.508995745732746,74,70,5
2.5090647211096453,69,97,5
2.50938340456821,81,96,5
2.5093983212361346,40,89,5
3.0002538635566034,105,88,6
3.000270959925035,45,87,6
3.000365496678481,100,77,6
3.0006570863942836,73,86,6
3.000670764773884,52,84,6
3.0008534966807865,36,85,6
3.001486627277531,90,111,6
3.001552402459307,42,84,6
3.001561525973662,84,102,6
3.0017803596686976,81,68,6
3.001819281304953,29,66,6
3.0019068772066366,66,66,6
3.00205139640482,54,61,6
3.0020990559309557,27,70,6
3.0022197216193294,38,109,6
3.002310747965881,95,80,6
3.0027074467314354,64,83,6
3.0037330931627975,68,112,6
3.0040076306087533,34,113,6
3.004087341710981,44,108,6
3.00414624123727,57,112,6
3.0044076274693823,50,110,6
3.0045328883474802,69,102,6
3.0047206694511,48,86,6
3.0050219501033126,55,94,6
3.005243902693276,92,103,6
3.005596403313082,39,83,6
3.005648411332626,79,93,6
3.0059538501732006,70,111,6
3.00643999543239,103,92,6
3.0065892394191014,102,85,6
3.0067189274359873,62,108,6
3.007159722288474,61,81,6
3.007499604703992,41,85,6
3.00775527616695,21,76,6
3.0086178562101353,85,111,6
3.008980542894407,82,97,6
3.009461154621336,37,65,6
3.0096107031746944,59,69,6
3.0099687425184594,23,100,6
3.5003118313506127,51,65,7
3.5005142581348423,35,93,7
3.500751377817358,86,104,7
3.5009158207332662,90,95,7
3.5010659825313377,82,69,7
3.5013681863091897,33,85,7
3.501851329288386,65,70,7
3.5021494037859076,64,90,7
3.502464020332391,84,105,7
3.502496680088592,37,113,7
3.5026226404429983,61,86,7
3.5027214513722997,48,60,7
3.5033424389081698,41,112,7
3.5036097389694003,85,112,7
3.5043482733860376,79,87,7
3.5044600577295797,104,80,7
3.504760504021991,47,101,7
3.504954913162062,108,85,7
3.5049636624720124,101,71,7
3.5054190094737834,94,99,7
3.5059023066686907,93,110,7
3.5059507793070024,83,99,7
3.505968428489169,46,104,7
3.506587833667107,72,98,7
3.5066367116536266,70,81,7
3.5068840239642776,69,80,7
3.5069227656451787,99,99,7
3.5069469647085443,76,102,7
3.507281887562036,26,76,7
3.507322248864096,60,95,7
3.5073257209721027,105,86,7
3.507709122037458,59,66,7
3.50799415878969,89,113,7
3.5080656114786146,100,108,7
3.508191023176742,24,61,7
3.508491956515653,30,94,7
3.508729458358764,63,70,7
3.5091731357546223,45,110,7
3.5093682973932476,73,80,7
3.509502373538208,95,88,7
4.0000508213981805,93,105,8
4.000348651602338,84,83,8
4.000354223684186,61,79,8
4.000443766635333,69,63,8
4.000487835816732,77,102,8
4.000615170262392,50,115,8
4.001094688600545,75,100,8
4.002163240230366,76,74,8
4.0025264909396085,85,104,8
4.002602333679516,87,71,8
4.002729593748563,103,66,8
4.002813909605775,40,110,8
4.003290513653699,108,88,8
4.003911697660804,25,84,8
4.004574320977737,21,93,8
4.004633807482156,74,98,8
4.004766768283304,101,111,8
4.004911863408687,26,96,8
4.005152479243147,58,96,8
4.005160790204436,82,64,8
4.005182603666764,92,108,8
4.0052503150086025,66,63,8
4.005326025194008,62,93,8
4.005972740724303,39,83,8
4.006229373829351,28,115,8
4.006297779229961,72,68,8
4.006957142928497,47,69,8
4.007352126545235,86,112,8
4.007478716040922,70,105,8
4.00852193533347,83,67,8
4.008601268164179,48,72,8
4.008829062691374,78,65,8
4.00894479930968,56,108,8
4.0089492144122785,73,70,8
4.008974361480462,99,65,8
4.009065137194446,22,64,8
4.00931589488319,41,113,8
4.00962121972592,102,85,8
4.009914753351451,71,62,8
4.009963357758068,31,102,8
4.500012318351664,101,61,9
4.500178618924783,85,74,9
4.500313023137475,55,71,9
4.500911644904062,82,94,9
4.501536580381611,40,72,9
4.501592457382793,41,63,9
4.501608254690782,89,86,9
4.501854588746767,86,111,9
4.5020035914354875,36,82,9
4.502037012492763,69,76,9
4.502255401424438,37,70,9
4.502475399556034,54,79,9
4.502941679733435,95,88,9
4.503119519904951,28,74,9
4.503207427404381,66,91,9
4.503259254639521,75,76,9
4.504422987623809,23,106,9
4.504536936346053,24,100,9
4.504620972907657,72,91,9
4.504715324601025,74,93,9
4.505303543937282,42,98,9
4.5054323280579,57,88,9
4.505584126725832,70,81,9
4.505627502863434,103,105,9
4.505983272651224,102,106,9
4.506073064482627,44,73,9
4.506515194668022,90,62,9
4.507149240402023,21,93,9
4.507244226726141,81,110,9
4.507312700669737,48,66,9
4.507458370120309,46,70,9
4.507600940784381,88,65,9
4.50796797827864,35,114,9
4.508573600920925,45,70,9
4.508681228134905,64,85,9
4.509095245109478,99,88,9
4.509118360349599,29,88,9
4.509632366534401,31,111,9
4.509645204722702,96,92,9
4.509675112636137,107,70,9
5.000401091914124,21,95,10
5.001315676851273,44,91,10
5.00163523872585,29,89,10
5.001796831088702,79,62,10
5.001809769527095,47,110,10
5.002106621890056,80,77,10
5.002375433249239,82,87,10
5.002472310744031,100,113,10
5.002581334327012,91,83,10
5.002768277972351,57,103,10
5.003251900642247,35,96,10
5.003459349925469,103,78,10
5.003592333693998,55,71,10
5.003710387629846,68,114,10
5.003910815366518,26,80,10
5.0042172092687345,77,110,10
5.004386154191896,87,88,10
5.004453052550026,51,92,10
5.004866689414247,43,112,10
5.00492277856448,32,88,10
5.005148173539297,27,66,10
5.005786754085724,72,67,10
5.005923503285934,39,77,10
5.005929508514349,56,108,10
5.006229665835635,62,78,10
5.006315602200925,24,81,10
5.006567366645413,54,79,10
5.007158249646821,63,115,10
5.007252576604151,45,114,10
5.007331130224153,36,96,10
5.0085438509336955,102,94,10
5.008670314961225,25,104,10
5.008707499012725,69,74,10
5.008734232380816,64,114,10
5.009007018640113,34,91,10
5.009090325206657,78,100,10
5.009123633456167,88,65,10
5.009694123223353,23,90,10
5.009713950940417,49,69,10
5.009876495637361,83,105,10
5.500146670570462,75,90,11
5.500904816952871,42,114,11
5.501089183418467,53,65,11
5.501091096317658,105,85,11
5.501489918559702,93,68,11
5.501684443851428,45,73,11
5.50246069658798,72,100,11
5.502886855955307,23,114,11
5.502968692745603,95,99,11
5.503171957167654,91,85,11
5.503283812278851,36,71,11
5.503756722518817,54,106,11
5.503804197042328,52,105,11
5.50438172346412,62,109,11
5.504444194527512,27,78,11
5.505004453091307,100,64,11
5.505266237972689,66,92,11
5.505423636649797,47,100,11
5.505456868884955,59,60,11
5.505484997216515,101,63,11
5.505634389273484,61,84,11
5.5058706170770115,38,75,11
5.5059648547498545,73,92,11
5.5060983180549865,108,67,11
5.5063020874832915,33,86,11
5.5064257596894715,68,112,11
5.506490746587944,90,108,11
5.506505116477917,39,102,11
5.507524277626156,74,60,11
5.507593443279228,50,107,11
5.507651908645558,103,69,11
5.508137662883196,79,109,11
5.508471673613726,104,87,11
5.5086890062554055,71,67,11
5.508778911590413,37,76,11
5.509013756495884,58,77,11
5.509142365159515,82,61,11
5.5092567483088075,41,89,11
5.50951478559666,44,85,11
5.509933369373586,24,93,11
6.000601423426008,93,113,12
6.0006761256359225,58,66,12
6.000694238427461,70,94,12
6.00079419368989,34,114,12
6.000856582495964,26,80,12
6.000966764496467,53,105,12
6.001753029423576,29,108,12
6.001918673247188,106,81,12
6.002009336886591,52,98,12
6.00226656402227,89,96,12
6.002337120819105,75,70,12
6.002346420818554,78,98,12
6.003233715621155,92,107,12
6.003243337531154,76,84,12
6.003330019130582,57,61,12
6.00347571524239,21,85,12
6.00354996305832,61,74,12
6.003993159158093,84,104,12
6.004503709362582,42,78,12
6.004652056122837,65,101,12
6.005190597909083,82,87,12
6.005329577865513,32,72,12
6.0053582768447304,91,83,12
6.005400119146045,86,69,12
6.0055778341737005,81,77,12
6.005622968158779,85,98,12
6.006508773690472,103,73,12
6.006618391898494,80,80,12
6.006649117244872,60,97,12
6.006694869551982,25,94,12
6.006900048908206,83,70,12
6.007306505102393,44,62,12
6.007561633288953,79,63,12
6.007954499607897,87,101,12
6.008003565078224,23,91,12
6.008800790875615,101,68,12
6.008941908746642,74,76,12
6.009271778194795,40,91,12
6.009576252845053,94,100,12
6.009941393612212,37,66,12
6.500426332092871,98,82,13
6.5006461667984405,27,68,13
6.500746298143371,76,63,13
6.501338037362795,66,64,13
6.501737525956623,49,90,13
6.501768871451438,48,82,13
6.501777663878513,100,63,13
6.501896948481747,91,61,13
6.501988562777753,60,74,13
6.502208026297857,31,72,13
6.502288946048466,99,91,13
6.502326455385627,54,87,13
6.50248580257715,40,110,13
6.502653874091882,94,74,13
6.502658511366543,81,68,13
6.503235003949115,107,109,13
6.503542362404448,45,88,13
6.503714085676501,23,78,13
6.503870787603356,30,78,13
6.504047984290852,101,65,13
6.504185806216239,71,78,13
6.504816348465349,21,61,13
6.505255046219687,84,102,13
6.5058214822978,61,69,13
6.506180516742872,108,71,13
6.506189481930077,68,70,13
6.506292988060108,29,115,13
6.506331896260135,37,91,13
6.506460901234625,95,94,13
6.50654075795372,78,91,13
6.506557236725617,39,73,13
6.506809748272382,47,84,13
6.506916180555693,28,104,13
6.507243174696766,89,77,13
6.507826960407441,74,84,13
6.507903377358602,51,93,13
6.507920936337605,59,88,13
6.508343033659548,77,90,13
6.508480158852494,33,79,13
6.509638222754823,103,90,13
7.00043173735797,66,75,14
7.00121501376301,38,95,14
7.001317287734546,51,91,14
7.001600716349546,73,111,14
7.001648148157295,71,91,14
7.001774287694697,45,72,14
7.0019747048986,36,63,14
7.0021351136631065,34,69,14
7.002406927118325,79,108,14
7.002522410201734,91,80,14
7.002859067892391,50,100,14
7.002975484513188,55,84,14
7.004605394972741,86,71,14
7.005058526929519,105,74,14
7.005083605469163,94,68,14
7.005422372054919,40,77,14
7.0054502691889695,76,112,14
7.00565021992859,87,99,14
7.005903476904588,67,114,14
7.0063629135397925,81,109,14
7.0064581081265525,89,100,14
7.006561618376811,64,113,14
7.0068888530205005,63,73,14
7.007259799099853,83,93,14
7.007284906771616,47,99,14
7.007328015447663,82,99,14
7.007550419287463,85,95,14
7.0076112153704315,95,81,14
7.007764474464997,53,61,14
7.008159469389686,32,84,14
7.0081778532985695,24,70,14
7.008407030280112,99,76,14
7.0084199855289,26,86,14
7.0084651433869025,59,109,14
7.008613699963634,92,114,14
7.008733229158608,96,84,14
7.0088692490020925,23,73,14
7.009189265336396,56,69,14
7.009373880664971,27,90,14
7.009846697395245,74,91,14
7.500336136001833,64,113,15
7.500570547211512,97,68,15
7.500626532034554,69,104,15
7.500653661575644,70,108,15
7.500689580163564,43,98,15
7.500806015137571,93,76,15
7.50133479972416,88,92,15
7.501353540822777,38,65,15
7.501589081676694,52,86,15
7.501861014178463,95,106,15
7.50246978799072,68,64,15
7.502495461998495,87,69,15
7.502592967588658,62,77,15
7.502617056837359,104,75,15
7.502719497261286,49,109,15
7.502821870746932,81,85,15
7.502987255735888,105,114,15
7.50429656812739,106,111,15
7.504368507026152,50,79,15
7.504497398424506,27,72,15
7.504581868867379,35,113,15
7.504829688720854,94,104,15
7.504875711936734,80,89,15
7.504964611523553,100,63,15
7.505180787662388,82,108,15
7.506102251494776,90,74,15
7.506569551562672,53,73,15
7.507279393069737,28,65,15
7.507295082286524,79,107,15
7.507513750860291,22,106,15
7.507593982624179,65,62,15
7.507655128989911,72,106,15
7.507767105569552,37,102,15
7.508026433097957,48,70,15
7.508419335667918,45,87,15
7.508727302504846,96,108,15
7.50906254580521,103,111,15
7.509064374533444,63,65,15
7.509406792451154,42,92,15
7.509566146210835,91,70,15
8.000293641591023,83,83,16
8.000333836017864,97,62,16
8.0009303048646,67,67,16
8.001176439881593,50,98,16
8.00122433898359,25,102,16
8.001298264489517,26,71,16
8.001660343134162,38,99,16
8.001688542066777,100,61,16
8.00195840812587,66,111,16
8.002764416905833,81,80,16
8.003123491018854,49,74,16
8.003131619948173,43,101,16
8.003196668324405,36,82,16
8.003230111983862,30,64,16
8.003566709741417,99,115,16
8.00363100736634,47,85,16
8.003636931247561,106,67,16
8.004476029403202,98,86,16
8.0048535898316,22,109,16
8.005070511038655,56,84,16
8.005201905232516,51,73,16
8.005578201919292,55,100,16
8.00598112629369,28,115,16
8.006134731386393,86,87,16
8.006426746576723,29,81,16
8.006561340180205,85,115,16
8.00686860997675,65,69,16
8.007251855480273,79,78,16
8.007326352347008,74,103,16
8.007397303320856,80,111,16
8.007574818847894,33,99,16
8.007985932723827,64,111,16
8.00820377507449,82,92,16
8.00856873936075,96,65,16
8.008969579304235,72,87,16
8.008971863409647,31,108,16
8.009677558771035,92,94,16
8.009797824578545,58,70,16
8.00988415989412,60,84,16
8.009970781570816,21,110,16
8.500124040362774,73,112,17
8.500346702667265,84,78,17
8.500481428359784,75,108,17
8.500636409092866,45,78,17
8.500789691621907,56,82,17
8.500938572848234,51,104,17
8.500965344701955,87,73,17
8.501149329970596,94,79,17
8.501853301795288,49,97,17
8.502395101699095,34,81,17
8.502418938282588,74,95,17
8.502972378077086,65,89,17
8.50299919111507,33,73,17
8.5030126526076,30,94,17
8.503169465877912,59,73,17
8.50430427410321,101,111,17
8.504345959608587,91,115,17
8.504687679654644,44,67,17
8.50517446351755,103,106,17
8.505214456890435,102,101,17
8.505406984766449,90,97,17
8.505717723520483,66,78,17
8.505828068350835,92,105,17
8.505932215701074,62,73,17
8.505983574842977,69,78,17
8.505989785081772,24,87,17
8.506678046832263,27,83,17
8.50669200262938,104,73,17
8.507036859774608,39,105,17
8.507431931987316,63,79,17
8.507945782787003,83,107,17
8.508292867993168,28,68,17
8.508313735143856,106,68,17
8.508522638743912,57,99,17
8.508556960938375,58,62,17
8.508789789002822,21,114,17
8.508923024981396,32,85,17
8.50902894995192,76,84,17
8.509096268194366,52,66,17
8.509954375161913,85,110,17
9.00012309703016,82,100,18
9.000673845547855,27,96,18
9.000776146447315,51,99,18
9.000843923805446,108,77,18
9.000988736176406,70,61,18
9.001157376066788,80,84,18
9.001388713263966,92,67,18
9.00154321565283,93,86,18
9.00171848481327,52,105,18
9.002160513650116,79,92,18
9.002262791082142,44,71,18
9.003842396201374,29,110,18
9.003873925856686,97,78,18
9.003993687483947,64,61,18
9.0040389786417,57,87,18
9.004488530716747,73,77,18
9.004501233611819,102,74,18
9.004666077846972,50,95,18
9.005021536099619,36,64,18
9.005299915229264,23,104,18
9.005324926994371,107,79,18
9.005425343685323,89,79,18
9.005792663538205,74,100,18
9.005902855429532,25,92,18
9.00598692402319,88,87,18
9.006378770926636,30,82,18
9.006464500901247,22,85,18
9.00694882373676,56,106,18
9.007409812502745,76,89,18
9.007593510257527,53,98,18
9.008080226299066,61,89,18
9.008167232025585,83,77,18
9.008200126291193,68,108,18
9.008290177325454,59,106,18
9.008518412368739,63,106,18
9.008617424949183,77,108,18
9.0088803906436,78,98,18
9.008896520330175,104,88,18
9.009101346367821,31,63,18
9.009912632267337,69,82,18
9.500624575936191,79,86,19
9.501092642103096,64,76,19
9.501248208139668,30,70,19
9.501306523438235,81,80,19
9.501487959694051,70,87,19
9.502004745155284,89,64,19
9.50203223091086,45,110,19
9.502757675682513,52,63,19
9.50285783555526,75,95,19
9.503753299079197,94,70,19
9.50386540506823,107,94,19
9.504075842085738,61,96,19
9.504391498166337,43,95,19
9.504483190553694,26,93,19
9.504626756050653,92,83,19
9.504834074359731,42,72,19
9.504923254800012,73,99,19
9.505112754622008,36,77,19
9.505333866287653,74,105,19
9.505735289514556,29,67,19
9.505772790292331,91,81,19
9.505887315221313,56,93,19
9.507221432354559,41,80,19
9.507617981913777,71,76,19
9.507645277946548,37,80,19
9.507905097942748,108,103,19
9.507942106625494,87,98,19
9.508275189221063,33,98,19
9.508469688542071,99,113,19
9.508539619669554,60,96,19
9.508635475225146,22,106,19
9.508655771456246,93,83,19
9.508699691596476,34,103,19
9.508770905810183,66,110,19
9.508834647629861,35,112,19
9.508930902051954,98,78,19
9.509440420938255,100,60,19
9.509560471436119,102,87,19
9.509807393435834,105,78,19
9.509809873781627,90,94,19
10.000001346930045,32,112,20
10.000038199226585,26,81,20
10.000468519085276,40,80,20
10.000543320348228,38,76,20
10.000626896216218,75,78,20
10.000892895245256,34,73,20
10.00101892388066,47,82,20
10.001338283629996,96,98,20
10.001428759613393,53,86,20
10.00246823869202,95,90,20
10.002703932863845,48,69,20
10.002714093804467,59,88,20
10.00276169557821,37,78,20
10.002842740929275,94,112,20
10.003133479175851,52,95,20
10.003162701497294,98,114,20
10.003175867952612,103,89,20
10.003602339188005,70,91,20
10.003773180539632,80,91,20
10.003876488054557,43,105,20
10.004338174195766,31,111,20
10.004938140404569,66,87,20
10.004966954228179,79,98,20
10.005111291392373,99,72,20
10.005201698923107,102,114,20
10.005525009674079,49,115,20
10.006295576968917,93,60,20
10.006870192665032,54,109,20
10.007069764874558,58,112,20
10.007409040561521,97,76,20
10.007486452341261,72,100,20
10.00775346150403,64,113,20
10.00788932471776,68,67,20
10.008039585075526,88,73,20
10.008225347943842,65,82,20
10.00839338492356,36,84,20
10.008427119021606,71,69,20
10.008918721448108,78,113,20
10.009099431438544,105,79,20
10.009640784164901,24,109,20
10.500013536257155,40,71,21
10.500235949646456,71,102,21
10.500578444494472,49,87,21
10.500656948589544,25,114,21
10.500756050406167,94,89,21
10.501408029488926,98,65,21
10.501469627095883,79,112,21
10.501958330841342,26,96,21
10.502253812680067,95,93,21
10.502282353634937,107,87,21
10.50246603634978,90,75,21
10.502998005275652,60,113,21
10.503029157288331,50,79,21
10.503480955931684,39,97,21
10.503656807482614,72,100,21
10.503717392949063,108,76,21
10.50388165706127,89,114,21
10.503980052929546,70,60,21
10.504579957590035,82,97,21
10.50473809828398,66,99,21
10.504840770697102,74,106,21
10.505179605277126,35,106,21
10.505444823328002,86,101,21
10.505782983994203,63,91,21
10.50622413641566,23,66,21
10.506359547071638,101,92,21
10.50646458741638,91,111,21
10.507474444065966,78,76,21
10.50780376123571,83,85,21
10.507813218557473,76,91,21
10.507831984132986,52,95,21
10.507851895431484,46,113,21
10.508111237699335,28,84,21
10.508470608269839,96,88,21
10.508985606046748,47,84,21
10.509427243190942,21,86,21
10.509577898009882,24,71,21
10.509627683502533,81,106,21
10.509741944438163,59,83,21
10.509913279015642,65,112,21
11.000275191851404,99,99,22
11.000326179483416,86,103,22
11.000577029284159,44,68,22
11.00090721702235,29,81,22
11.001438143503147,96,69,22
11.0014817792823,57,86,22
11.002248902168159,43,96,22
11.002286944094003,91,67,22
11.002755479392194,105,69,22
11.003263384309319,60,72,22
11.003863231730765,54,87,22
11.004009417624731,108,115,22
11.004156038959074,56,101,22
11.004275018313281,84,103,22
11.004301028765298,24,95,22
11.00431380648774,39,86,22
11.004443653492416,78,96,22
11.00481549340276,73,81,22
11.004946751895913,79,83,22
11.005127202478127,88,109,22
11.00563324642033,45,62,22
11.005738412541046,59,87,22
11.00622039562371,27,95,22
11.006354436456595,21,88,22
11.00679549927134,89,81,22
11.007191598969445,101,88,22
11.007517721730391,94,114,22
11.007631083636014,75,114,22
11.008231608307089,62,86,22
11.008396596557088,32,104,22
11.008398161621455,55,61,22
11.0084584955046,71,113,22
11.008472716677218,52,102,22
11.008773556122053,22,83,22
11.009022364034623,100,80,22
11.009037575717752,36,68,22
11.009548469930385,40,79,22
11.009563200933876,87,107,22
11.009743722386792,82,101,22
11.009924422893748,61,96,22
11.50016061864981,78,110,23
11.500708915758914,50,76,23
11.50097514325641,29,99,23
11.501184923587685,92,76,23
11.501243828312413,75,76,23
11.5022672738233,100,68,23
11.502475100731404,32,114,23
11.503088344240073,106,82,23
11.503119840203265,80,96,23
11.50312863160855,79,108,23
11.503165496652679,95,111,23
11.50387237271178,68,60,23
11.50429595943576,37,106,23
11.504822643612522,103,98,23
11.504825004202354,55,97,23
11.505010878802622,31,91,23
11.505015154614798,45,62,23
11.505066726489828,64,108,23
11.505342905518937,71,65,23
11.505407345671331,74,60,23
11.505493097714801,49,80,23
11.505589806340998,22,74,23
11.506159119156766,46,83,23
11.506250291860852,108,79,23
11.506279933826042,67,104,23
11.506771524124577,34,65,23
11.507061931829634,86,98,23
11.507144107636266,62,100,23
11.507821712630912,70,95,23
11.507975473605372,38,100,23
11.508087899845636,53,65,23
11.50816410784965,36,112,23
11.508432780909365,98,61,23
11.508506802606048,85,107,23
11.508793410201765,52,72,23
11.50906572210672,89,84,23
11.509352970985454,33,71,23
11.50952467116688,63,88,23
11.50961513338983,84,93,23
11.509819056980765,91,106,23
12.000083199422273,41,61,24
12.000090541615803,24,74,24
12.000137455540113,66,84,24
12.000625262957428,65,104,24
12.000811491785363,103,95,24
12.000913914863318,31,81,24
12.000926254830514,78,63,24
12.00101893100873,56,95,24
12.001885406057493,64,107,24
12.001992703364667,62,95,24
12.002144064829931,51,87,24
12.00242022079981,81,80,24
12.0024755977028,63,108,24
12.002483762603697,36,104,24
12.002587116421555,98,84,24
12.00270806328037,45,60,24
12.004335827926326,57,88,24
12.004340209727088,85,85,24
12.004344033190065,52,69,24
12.004589405165968,23,63,24
12.005894539894847,58,81,24
12.006067317247174,93,108,24
12.006132916848873,29,110,24
12.00637688246896,42,107,24
12.006724604980251,21,65,24
12.00672871668598,102,68,24
12.007140527233782,90,115,24
12.0072344781785,54,112,24
12.007327334747862,55,66,24
12.007387231507266,72,89,24
12.007483843496763,87,60,24
12.008050903184957,71,69,24
12.008229838050418,69,95,24
12.00838491833843,88,60,24
12.008398016066645,105,91,24
12.008774700466544,50,93,24
12.009145486638486,60,78,24
12.009327105081328,97,68,24
12.009514907101767,76,78,24
12.00977006954439,68,100,24
12.500191289664373,52,94,25
12.500577321592251,53,82,25
12.500835543375107,90,104,25
12.501053454844813,103,64,25
12.50115394642179,102,76,25
12.501172039056803,98,99,25
12.501428419648143,30,61,25
12.501613628010555,45,110,25
12.501657481769652,99,98,25
12.501716939077054,50,105,25
12.50204316383399,62,89,25
12.502062521138361,49,65,25
12.502195539232298,36,89,25
12.502223613047482,77,101,25
12.502342033709263,51,62,25
12.502415368417017,100,100,25
12.502453523141662,46,71,25
12.503372065755658,67,80,25
12.503542713272171,75,113,25
12.503910328691275,43,75,25
12.50391859373188,41,103,25
12.504119580950341,40,106,25
12.504157751035233,32,106,25
12.5042894433343,69,96,25
12.505001127520766,39,111,25
12.505192245707802,47,82,25
12.50532504066416,64,104,25
12.50540905003838,61,82,25
12.505568784431722,55,88,25
12.506056378893234,88,114,25
12.506077526830957,72,76,25
12.506163004859257,89,68,25
12.506314189212183,95,82,25
12.506920736470244,25,96,25
12.506964298070361,104,72,25
12.507021460961818,68,91,25
12.508705269662693,107,107,25
12.508908555349832,37,81,25
12.508956747776187,86,77,25
12.509598628027135,84,81,25
13.000311490927935,43,67,26
13.000336764038744,70,99,26
13.000389793206612,87,89,26
13.000769716693808,79,103,26
13.000883849469846,95,72,26
13.001877224056923,44,101,26
13.001909265850717,78,80,26
13.00218715612998,97,95,26
13.002433966832186,108,61,26
13.002595764492751,47,99,26
13.002640619846938,27,76,26
13.002646350269254,59,96,26
13.002695118622922,41,62,26
13.002719460394184,54,65,26
13.003230273457541,57,69,26
13.003245118001754,30,90,26
13.003252906183617,64,74,26
13.003683472137944,58,113,26
13.003827987644364,103,66,26
13.004323462264033,24,75,26
13.00557337169573,55,89,26
13.005953032659274,96,101,26
13.006363742815333,67,82,26
13.006595107686408,21,68,26
13.00661968944794,94,112,26
13.006668473913056,105,71,26
13.006923589224611,51,88,26
13.006946409588938,84,85,26
13.00696156145138,80,88,26
13.006989488284875,81,70,26
13.007608513309307,91,71,26
13.007780252431447,104,101,26
13.007962414505414,62,87,26
13.008149397285406,29,81,26
13.008218309465853,53,87,26
13.008791857726013,34,104,26
13.00888118188934,40,70,26
13.008979191869576,88,103,26
13.009009608956905,33,75,26
13.009390684794504,25,75,26
13.500300260053294,66,109,27
13.50031743765373,53,63,27
13.500519893519778,27,66,27
13.500623940685983,64,71,27
13.500670165377512,59,113,27
13.50071034889044,39,85,27
13.500845653780972,100,74,27
13.500851034861197,24,87,27
13.501536910428442,105,84,27
13.50196653584953,98,88,27
13.50211231831473,37,109,27
13.50277012524326,94,113,27
13.502865195489271,48,73,27
13.503352790500783,99,99,27
13.50354924660877,46,60,27
13.503855975925134,45,115,27
13.504018871998907,89,100,27
13.504233351441531,72,60,27
13.504650095175265,43,102,27
13.50572607232882,21,100,27
13.50583190804277,65,81,27
13.50592840180508,76,78,27
13.506068469555402,29,99,27
13.506226305335987,84,92,27
13.506590454101323,54,81,27
13.507374260857707,83,105,27
13.508026403123528,67,109,27
13.508169739072718,106,89,27
13.508473879305713,82,74,27
13.50852547421246,60,97,27
13.508629968313588,77,106,27
13.508809730056397,26,71,27
13.508829148165187,62,81,27
13.508860934353132,107,76,27
13.50897365865791,75,107,27
13.50921307512213,78,69,27
13.509379652314339,49,62,27
13.509733826191649,85,114,27
13.50975343133479,61,79,27
13.509972378999036,57,79,27
14.000006533907612,63,73,28
14.000400591190507,105,115,28
14.000870172183028,64,91,28
14.00093776526257,36,91,28
14.001430011226658,66,114,28
14.001520485674245,32,67,28
14.001544922040049,102,113,28
14.001751231401304,50,76,28
14.002075409362057,87,112,28
14.002182075345521,61,65,28
14.002205042634357,49,96,28
14.002381466536656,68,89,28
14.002496689527403,27,72,28
14.00263247346518,41,85,28
14.002857075676609,34,94,28
14.002914609134939,29,87,28
14.003512193873489,74,72,28
14.00367390728697,85,84,28
14.003745482433796,89,98,28
14.004583235945876,39,84,28
14.004662994129399,71,62,28
14.004680690542344,37,87,28
14.004861304852149,45,97,28
14.005567849109282,67,99,28
14.00571260469937,26,75,28
14.006273289350906,79,63,28
14.006727646144125,53,108,28
14.007502657639389,91,98,28
14.007605756424553,55,104,28
14.007925948132092,101,113,28
14.007959263871435,90,104,28
14.007977322633483,108,63,28
14.008257109515606,47,66,28
14.00845120851496,65,72,28
14.008706690341254,62,90,28
14.008740717733051,107,78,28
14.009084345518794,21,62,28
14.009207396503426,82,97,28
14.009271237818645,100,107,28
14.009699265253452,106,77,28
14.500068779622197,69,105,29
14.500556055216805,56,94,29
14.501165830745556,78,83,29
14.501198910934727,25,97,29
14.50164405529079,49,90,29
14.501846324573474,71,83,29
14.501906098330744,79,67,29
14.502124472771955,27,99,29
14.502466586158054,30,72,29
14.502716331812744,61,71,29
14.50287945342676,42,68,29
14.50299942069777,43,75,29
14.50313878076515,48,99,29
14.503421076208635,66,75,29
14.504024062592993,108,60,29
14.504111974888826,46,87,29
14.504299576197798,39,109,29
14.504338439228553,100,71,29
14.504467145272585,89,102,29
14.504709602524347,91,111,29
14.504928195845329,26,106,29
14.505015179603502,45,95,29
14.505314549141893,38,86,29
14.50546695682072,99,114,29
14.50577891112694,40,95,29
14.505960819552383,57,115,29
14.50661913632637,67,91,29
14.506635235939134,83,115,29
14.506910558127393,23,92,29
14.50734925847395,81,103,29
14.50751177136954,24,76,29
14.5075386808271,58,100,29
14.507570481146987,68,78,29
14.508174078473061,86,105,29
14.50830949171055,103,63,29
14.508845868882297,70,101,29
14.508955628481319,44,77,29
14.509043597749939,80,114,29
14.509091752640536,84,107,29
14.509680763814508,96,108,29
15.000080591033422,35,103,30
15.00029155186022,69,65,30
15.000430524027157,36,78,30
15.000502144316904,78,78,30
15.000913741048604,55,76,30
15.000957290547444,56,73,30
15.001076141847598,62,76,30
15.001562837095499,39,77,30
15.002169562458638,47,85,30
15.002200886768714,98,63,30
15.002371444659778,58,83,30
15.002623429667809,49,103,30
15.002780995150664,24,64,30
15.002856995940448,66,94,30
15.00288005345924,40,79,30
15.00313050145063,44,114,30
15.003148258293516,97,94,30
15.003165867599087,91,103,30
15.003176946975472,103,72,30
15.003796167644516,53,106,30
15.00398227793958,23,95,30
15.004439038323198,26,94,30
15.004441152464963,99,84,30
15.004646131688089,82,102,30
15.005004773158667,94,102,30
15.005182761764477,105,76,30
15.005316610237644,86,85,30
15.005377829347413,70,106,30
15.00556328007257,93,65,30
15.006580549838612,37,107,30
15.007101147663374,65,73,30
15.007500284121422,63,93,30
15.007681281783809,90,66,30
15.007809638636445,74,79,30
15.00836498490618,52,74,30
15.0089359458645,61,91,30
15.009072489443565,83,109,30
15.009431748229613,108,99,30
15.00962261446609,27,82,30
15.009686746055744,34,66,30
15.500346727042261,103,115,31
15.50056680432166,75,76,31
15.500812296348066,62,96,31
15.501492494697414,49,99,31
15.501538999046938,59,105,31
15.501562015079307,91,62,31
15.501563169707088,101,73,31
15.501613673583885,21,67,31
15.501934353429565,70,67,31
15.502299937539632,78,113,31
15.502405315851801,82,106,31
15.502598281379402,106,85,31
15.50268174367745,65,71,31
15.502706439419818,86,111,31
15.502972872042813,79,87,31
15.503604745051415,41,66,31
15.50361074726341,97,72,31
15.50391910562944,47,95,31
15.503969921622074,33,75,31
15.504084555814085,58,102,31
15.504113039720663,57,88,31
15.505299405869302,40,74,31
15.505719958782835,44,66,31
15.506415044812563,95,64,31
15.50671270825229,56,104,31
15.506723838432917,22,71,31
15.506730921309112,68,89,31
15.506796972168333,107,76,31
15.50697163692138,51,80,31
15.507379509473976,92,69,31
15.507601609297902,28,114,31
15.50793818103908,77,106,31
15.508054323292999,72,106,31
15.508243504472494,27,82,31
15.508260646845482,98,96,31
15.508860861088134,46,75,31
15.508956899442666,36,95,31
15.509772799325665,99,95,31
15.509884209939635,76,74,31
15.509925817954878,64,88,31
16.000000307188454,50,77,32
16.000011120941963,90,110,32
16.000128974697894,47,71,32
16.000162434432095,68,90,32
16.000944188976604,33,87,32
16.001034341148603,98,80,32
16.001182186222913,40,96,32
16.00134576267104,29,96,32
16.002178913796268,54,83,32
16.00254481331618,83,93,32
16.002719545593983,61,95,32
16.00293353421441,65,68,32
16.002958240974966,76,60,32
16.003235304124853,25,61,32
16.003427309254278,42,71,32
16.00356596175986,92,73,32
16.004020272168884,45,69,32
16.005254703073557,38,69,32
16.005402994067616,69,81,32
16.00556578428502,57,74,32
16.005934613827048,106,61,32
16.006337115997656,43,86,32
16.00649788046764,99,83,32
16.00661834585114,74,113,32
16.006650559890065,35,88,32
16.00676361067873,41,79,32
16.006796331823953,91,98,32
16.00697832785505,34,91,32
16.007121370458805,56,83,32
16.007147188335022,58,85,32
16.007287780544505,108,73,32
16.007289392001052,102,105,32
16.0077982088401,26,73,32
16.007921911948017,49,107,32
16.00831518333112,75,79,32
16.00851150735426,82,115,32
16.00900264111202,71,93,32
16.009183975420815,28,98,32
16.009459246440322,95,61,32
16.009576316462727,23,65,32
16.500001865281707,44,71,33
16.500380863005994,33,108,33
16.500611046676195,35,70,33
16.50076722826853,80,115,33
16.501063372973483,72,63,33
16.50111208747338,31,111,33
16.501141399693097,81,84,33
16.501353554349734,30,75,33
16.50162537987469,102,70,33
16.501660525214817,77,66,33
16.501805182283924,83,84,33
16.50197639220591,50,72,33
16.502149165313867,39,70,33
16.50262470585121,76,113,33
16.502973615313085,48,63,33
16.503179825513403,75,99,33
16.503456249935763,41,111,33
16.50370024524143,34,87,33
16.503969479729342,43,96,33
16.504149604360798,104,112,33
16.504520865968114,27,97,33
16.504553831354805,51,105,33
16.504574430558698,52,112,33
16.504667280937678,38,106,33
16.50499302946014,62,98,33
16.505252584187815,60,113,33
16.50550471777103,69,60,33
16.505797311661343,61,67,33
16.506139794562735,63,102,33
16.506164281773717,56,110,33
16.506199685648742,91,66,33
16.506756213095983,57,91,33
16.506981984306766,58,105,33
16.50730492477482,46,83,33
16.507900148415597,82,94,33
16.50815769404635,54,113,33
16.508681692953264,70,113,33
16.50872655072176,84,85,33
16.509410482600384,88,71,33
16.509858053208504,103,105,33
17.000440658615705,54,87,34
17.00045585157949,92,68,34
17.000486948484,75,87,34
17.000511502056202,108,88,34
17.000620414169564,23,114,34
17.00071155678878,88,80,34
17.000771875302263,25,64,34
17.000980076847807,84,91,34
17.00123283779299,71,101,34
17.00126944413755,53,64,34
17.001453266924205,105,101,34
17.001633667583985,33,77,34
17.00169887073219,30,82,34
17.0018445905106,60,63,34
17.001852768503337,41,110,34
17.00202293949158,99,108,34
17.002458474424934,69,91,34
17.002966124821572,72,91,34
17.00358139716529,39,69,34
17.003827841004032,106,103,34
17.00386707057044,34,93,34
17.003977934409292,45,83,34
17.00441833704802,97,63,34
17.004832942849664,104,61,34
17.005056967437813,100,84,34
17.005117074471148,87,81,34
17.005185616886656,90,112,34
17.005412701109417,94,114,34
17.0055787367566,74,73,34
17.005660184248878,73,75,34
17.00573865849677,80,114,34
17.006455721814273,29,108,34
17.006843142489252,102,74,34
17.008391466080706,40,65,34
17.008421653766504,58,81,34
17.008780335128446,95,90,34
17.009459708898454,98,104,34
17.00948980667047,103,66,34
17.00959791020405,35,98,34
17.009895053333842,76,98,34
17.500309308813936,73,86,35
17.500609019330994,57,82,35
17.500609287217205,24,102,35
17.500913088025445,60,82,35
17.501046759705357,90,92,35
17.501216953067267,99,110,35
17.50125375349234,37,77,35
17.501285964859605,36,80,35
17.501305045596375,41,82,35
17.501646205132364,21,68,35
17.5018117185085,86,112,35
17.501827511659876,101,91,35
17.501957556064056,72,60,35
17.502425782660737,27,77,35
17.5025361277086,78,83,35
17.502557437015483,43,65,35
17.50275536567141,58,106,35
17.50295747562595,64,86,35
17.50316077683843,103,66,35
17.503173054774205,97,82,35
17.503186896039907,91,74,35
17.503190450743322,54,89,35
17.503274209587335,42,86,35
17.503616470948412,100,103,35
17.50412403060468,93,100,35
17.50415514063062,62,72,35
17.50440539159873,94,110,35
17.504945211251204,95,99,35
17.50513175082282,49,65,35
17.50573850597975,92,98,35
17.505880936376055,51,101,35
17.5061164641939,104,79,35
17.506269684345288,56,109,35
17.506420865073522,105,110,35
17.506940174141057,61,82,35
17.507144141014706,23,104,35
17.507906911019003,34,104,35
17.50808394882304,85,107,35
17.509080150893748,53,102,35
17.509119595841998,35,102,35
18.000536347915208,78,67,36
18.00119952941731,107,84,36
18.001316869034362,69,108,36
18.001373000327156,101,114,36
18.001466951140152,45,81,36
18.001682785885077,56,78,36
18.001688584633705,27,110,36
18.001891957923903,84,104,36
18.00252314736135,42,113,36
18.00312064044652,86,103,36
18.003129195480287,104,89,36
18.003288226178487,91,108,36
18.00331616849108,105,83,36
18.003833971410582,58,111,36
18.004754757152327,102,87,36
18.00500579317431,66,100,36
18.005105704087285,48,74,36
18.0054890963164,57,76,36
18.00645725043351,47,63,36
18.006623137387308,76,78,36
18.006777232412013,44,106,36
18.006825404787673,64,75,36
18.006903228469007,73,78,36
18.007050409063535,96,84,36
18.00717464990612,63,77,36
18.00741977729514,43,75,36
18.007518251459565,79,97,36
18.00764650950385,52,78,36
18.008023960305536,53,114,36
18.00811946234638,39,95,36
18.0083644219247,82,101,36
18.008490980199586,32,75,36
18.008572309373697,71,64,36
18.008585064545514,88,78,36
18.008586981212446,21,79,36
18.008614180460956,70,94,36
18.008730431470152,74,99,36
18.009450240645805,92,106,36
18.00945749702226,34,66,36
18.00952386752399,37,73,36
18.500182750697235,62,102,37
18.50031722491816,93,81,37
18.50037697724915,55,114,37
18.5006142512926,98,75,37
18.50068648666148,107,92,37
18.50081164224464,29,64,37
18.501218795017813,40,86,37
18.50137020910036,95,100,37
18.50184920297467,91,95,37
18.502239245877966,58,93,37
18.502670750074564,104,60,37
18.50274506673507,74,99,37
18.50279445307319,48,92,37
18.5032072452446,30,97,37
18.503258813426157,87,63,37
18.50363272796399,45,82,37
18.50398642494213,103,60,37
18.5042815517303,86,65,37
18.504522024791036,32,101,37
18.505346609230756,85,83,37
18.505349666734094,24,93,37
18.505375846256925,22,114,37
18.505624293741178,76,105,37
18.506246639742837,97,68,37
18.50671587742939,73,81,37
18.50686513943043,39,68,37
18.50739091421993,108,61,37
18.50750260794087,46,96,37
18.50773183501259,53,81,37
18.507825001443802,31,77,37
18.50808067817116,63,88,37
18.508150721006757,71,102,37
18.50858761429839,42,63,37
18.50862922393511,36,92,37
18.50877452126603,26,95,37
18.50886502526642,65,66,37
18.50904135352578,75,91,37
18.509513968619792,59,101,37
18.50954042265078,41,77,37
18.509918891959476,78,87,37
19.00006047043184,69,111,38
19.000253486042638,92,100,38
19.000557408535876,40,62,38
19.000805808122866,32,102,38
19.0008975950056,105,60,38
19.001098631137406,33,88,38
19.001232474581325,91,65,38
19.001322687150985,28,92,38
19.00147163251095,25,66,38
19.00161694553274,79,66,38
19.001801586477328,45,82,38
19.00196688197313,44,75,38
19.002040876611556,88,94,38
19.002057943769895,96,93,38
19.002374833051693,23,82,38
19.00240803816073,94,90,38
19.00297977235496,67,100,38
19.002998975929945,86,97,38
19.00307679089478,52,98,38
19.00316101311547,83,66,38
19.00342929662759,101,92,38
19.003625019845316,81,88,38
19.0038212349446,100,114,38
19.00386807242052,26,77,38
19.00469040747518,97,74,38
19.00483860218864,22,91,38
19.006009454845376,31,75,38
19.00609812761548,29,91,38
19.006427950705064,75,114,38
19.00683870124909,106,100,38
19.006900468884094,103,82,38
19.00696079861567,80,73,38
19.007415661084668,24,89,38
19.008009387215413,70,62,38
19.008143839206692,53,61,38
19.0082399765188,102,85,38
19.00883683967688,66,93,38
19.009108262646862,99,73,38
19.00926059559818,68,69,38
19.009658323197183,59,85,38
19.5004149732551,96,107,39
19.500528266863647,68,73,39
19.500881344309768,99,107,39
19.50119381011338,25,92,39
19.501213029980054,30,78,39
19.501654997746638,42,68,39
19.501662553303497,61,72,39
19.501818176528374,97,61,39
19.50196486966956,108,82,39
19.502117458620525,31,76,39
19.502589042747932,79,95,39
19.50302775128272,84,93,39
19.503220675351958,90,61,39
19.50327842837886,91,72,39
19.503400043860598,89,80,39
19.503797374048215,27,95,39
19.503936355202775,70,93,39
19.504303465323723,33,101,39
19.504353963234,77,62,39
19.50473435659375,50,103,39
19.50527587973272,86,61,39
19.505324709078838,21,103,39
19.505353477680618,59,74,39
19.505597446613336,80,79,39
19.505644165877797,104,105,39
19.505973123783306,78,83,39
19.506005831969873,36,65,39
19.506353233467085,43,72,39
19.506669274474586,92,105,39
19.507066041289942,54,82,39
19.507192452005757,60,71,39
19.50726084851484,58,75,39
19.507767984372087,71,95,39
19.508157453806263,88,73,39
19.50847547633055,81,99,39
19.50854547393202,57,85,39
19.508579349139975,51,79,39
19.50869649684812,74,87,39
19.509301652028626,103,99,39
19.50953120114394,26,114,39
20.00016028156455,57,103,40
20.000403338521384,66,93,40
20.00056224294851,76,93,40
20.000797150731874,97,111,40
20.0009957971354,49,89,40
20.001261153223755,84,85,40
20.001312879720047,48,101,40
20.001840447720504,62,113,40
20.002017949482525,38,77,40
20.002257895521506,63,71,40
20.002497441792293,35,113,40
20.003009663196316,86,82,40
20.00309691711105,53,78,40
20.003432754890646,25,77,40
20.00376986167287,100,69,40
20.00406416536574,60,106,40
20.00474157945879,87,60,40
20.004856342984134,33,79,40
20.00514742193757,61,67,40
20.00546407074212,55,109,40
20.005592181317684,51,83,40
20.005756652529975,65,61,40
20.005817215274735,85,95,40
20.006032130620994,92,82,40
20.006103630078183,23,110,40
20.00616621978165,105,83,40
20.006235053112473,45,63,40
20.006486829533575,93,99,40
20.0067639836891,75,78,40
20.00683114285723,90,108,40
20.007564510879888,79,75,40
20.007604000672874,69,89,40
20.007663472131046,72,92,40
20.008520484158048,52,105,40
20.008798377479415,36,72,40
20.00899248918289,95,84,40
20.00908826497717,47,96,40
20.00912800800408,54,94,40
20.009325667087058,104,70,40
20.00963685188687,107,112,40
20.500071420817683,59,72,41
20.50009543353067,46,108,41
20.50019448050368,68,114,41
20.50030415880808,42,66,41
20.500470583794602,54,109,41
20.500524817101,85,63,41
20.500622050915258,70,99,41
20.500753014335984,22,85,41
20.500792131500084,87,109,41
20.501111508797834,66,63,41
20.50124647428993,34,62,41
20.5015844803719,84,83,41
20.50175672099956,31,110,41
20.501887940277733,108,108,41
20.502014063092133,21,83,41
20.502207125859446,52,108,41
20.502547487073368,33,89,41
20.503113819398926,90,90,41
20.503292306153416,69,86,41
20.50351884834347,55,103,41
20.50375852465182,72,75,41
20.504016968927598,26,106,41
20.504502362866727,91,75,41
20.50456730592886,106,74,41
20.505027501916096,82,90,41
20.5051318989171,103,102,41
20.50521550983911,67,95,41
20.50615064629858,47,107,41
20.506359107657097,95,108,41
20.506508332215613,80,99,41
20.50705615304784,102,89,41
20.507153810171786,37,93,41
20.507268769061398,44,82,41
20.507658684256626,23,81,41
20.50820544647746,40,106,41
20.50822702921717,41,114,41
20.508394532342095,79,106,41
20.508740136713087,50,61,41
20.509614145404235,65,81,41
20.509732608830305,83,114,41
21.00006796548586,95,60,42
21.000479138679133,99,80,42
21.000796050769925,34,83,42
21.001064117629028,22,104,42
21.001195308695472,52,86,42
21.001244218868518,24,82,42
21.001314123828553,107,89,42
21.001389689918867,29,79,42
21.001435447559437,108,83,42
21.001606336126187,42,83,42
21.00173023869751,27,94,42
21.00182063128882,50,68,42
21.00185408850374,103,88,42
21.002303192246828,75,78,42
21.002359966059092,57,63,42
21.002441475605067,36,101,42
21.002624850079005,97,83,42
21.00266772063624,44,81,42
21.00322989683177,47,74,42
21.003887684128618,66,76,42
21.00450109858685,31,78,42
21.00512862879377,46,63,42
21.005139554466908,89,74,42
21.005503512788387,35,60,42
21.005812154774894,94,70,42
21.00599597260044,85,76,42
21.00654346459653,32,64,42
21.006599934501352,79,77,42
21.00690123117682,68,91,42
21.007069563184935,64,73,42
21.007111600875277,43,104,42
21.007181679475604,51,94,42
21.0074729755756,59,60,42
21.008217524169854,37,71,42
21.008374495950836,101,68,42
21.008447975811883,28,110,42
21.008725199518295,73,77,42
21.00889012190111,93,87,42
21.009258273744436,96,71,42
21.00948520327514,91,108,42
21.500343768583516,100,75,43
21.500511655064454,107,85,43
21.500814472128912,93,94,43
21.50104313087352,55,115,43
21.501062138275884,21,72,43
21.501067118191024,41,62,43
21.501139658871192,69,71,43
21.501332842580823,75,64,43
21.50133416335523,67,85,43
21.501455154827873,72,69,43
21.50163354449743,84,112,43
21.501817635977613,95,114,43
21.502328585568762,66,81,43
21.502581076431735,51,71,43
21.502926550976674,36,115,43
21.50310235283745,101,102,43
21.50322809793448,83,94,43
21.504350145943402,42,62,43
21.504583634794262,62,99,43
21.504639854174403,31,83,43
21.504672609960075,85,93,43
21.50492001729432,104,106,43
21.505041328419185,96,62,43
21.505281892617564,58,111,43
21.50528707319884,50,113,43
21.505454279502118,28,64,43
21.505773534012196,34,69,43
21.506389630219733,56,104,43
21.50643907957068,43,72,43
21.50646407375228,53,92,43
21.506916434019733,45,70,43
21.507076205857405,63,98,43
21.507677646177143,89,104,43
21.507758772544697,46,100,43
21.507950115369283,57,66,43
21.50807957328109,48,112,43
21.508343247957495,60,115,43
21.508677020979192,40,98,43
21.508771275618987,74,101,43
21.509277457330754,92,79,43
22.000707914360113,55,90,44
22.000774115519846,104,110,44
22.001094909725545,64,102,44
22.00124870076906,85,75,44
22.001894434331675,70,106,44
22.00202853238728,42,80,44
22.00260403108788,26,105,44
22.002837979430417,32,112,44
22.002840583890404,83,86,44
22.003058135112838,98,97,44
22.003223248244694,69,67,44
22.003285706327322,61,115,44
22.003433009691957,45,80,44
22.003965905743865,91,115,44
22.004011479694917,63,90,44
22.004407390410844,107,97,44
22.00512835362435,106,113,44
22.00525445126362,103,114,44
22.005270501564926,28,75,44
22.005413626383962,37,113,44
22.005825337774407,34,60,44
22.006022563023773,48,79,44
22.006197478544916,90,67,44
22.006318801592467,33,74,44
22.0068378820089,100,75,44
22.006869414350035,88,67,44
22.006894171338715,30,92,44
22.00693863161876,99,66,44
22.007156207169718,50,70,44
22.007274523912862,36,62,44
22.0075311884718,54,96,44
22.00759238979657,94,80,44
22.007768937482048,60,105,44
22.00838399638092,105,84,44
22.008696164577323,43,111,44
22.008931137413224,25,67,44
22.009477960660146,52,72,44
22.009665589185552,96,85,44
22.009947749545738,57,97,44
22.00998318756571,92,61,44
22.500037024068323,69,76,45
22.50007042914624,73,110,45
22.500461964832017,29,92,45
22.500767956842868,32,61,45
22.500783016704794,50,61,45
22.500955591039585,49,96,45
22.5009834492159,103,95,45
22.501625612059314,60,75,45
22.501739608876964,56,73,45
22.501773513616598,53,106,45
22.50217748704834,34,81,45
22.50236797585456,43,78,45
22.502393322865473,93,98,45
22.502714308642762,39,80,45
22.502995563196148,95,73,45
22.503157211297705,45,110,45
22.503495228011694,68,90,45
22.5041370603191,97,110,45
22.504483464705245,47,100,45
22.504492745469566,105,103,45
22.504577438171662,67,108,45
22.504740762641077,26,113,45
22.504892388614277,51,77,45
22.505734318253555,88,80,45
22.50579596727413,106,94,45
22.506241134200458,28,88,45
22.50678887337189,27,100,45
22.506805606661388,58,90,45
22.50791362919123,80,68,45
22.508054960460324,62,79,45
22.50817107099167,52,75,45
22.5085709693961,70,109,45
22.508685528307858,72,105,45
22.508756851275862,104,85,45
22.5089814644482,41,61,45
22.509126050268833,82,98,45
22.509354248244485,64,111,45
22.50940497198513,94,98,45
22.509528343891706,87,106,45
22.50979803535381,108,107,45
23.000991461122776,56,75,46
23.001293806169667,72,92,46
23.001645660584295,93,71,46
23.001923157727845,32,109,46
23.002042564679364,48,78,46
23.002204704809994,27,91,46
23.00236720475854,39,89,46
23.002458185870225,37,88,46
23.002583004291274,79,68,46
23.003354068134964,31,100,46
23.00358742510543,108,70,46
23.00375821219008,91,106,46
23.004063322309637,57,67,46
23.004156277820293,78,106,46
23.004468741952003,88,66,46
23.00448085487283,80,99,46
23.004511300697978,47,91,46
23.00463936263455,63,101,46
23.00480183515262,103,67,46
23.004858856061897,42,78,46
23.004879001952794,34,84,46
23.004923670487013,69,78,46
23.005330552900947,41,78,46
23.005429404444893,83,78,46
23.005658517874107,73,82,46
23.00586235498781,24,86,46
23.006229540441833,85,82,46
23.00626802630065,81,64,46
23.006280304645696,68,67,46
23.00631544378676,44,96,46
23.006692682917507,36,79,46
23.00718699265973,70,85,46
23.00777984971571,26,85,46
23.008008180998598,58,99,46
23.008299395932124,21,93,46
23.008670116069105,35,110,46
23.009148421498516,100,98,46
23.009167560031187,40,86,46
23.009522640145335,60,92,46
23.009956451766744,97,74,46
23.500728984518716,76,90,47
23.500894731228104,38,99,47
23.500907208827478,91,98,47
23.500992376649197,101,61,47
23.50101165619613,73,104,47
23.501289025850735,34,64,47
23.50132470656342,48,70,47
23.501493816362263,59,80,47
23.50157203883557,37,108,47
23.501723863621052,27,64,47
23.502336904488253,107,97,47
23.50253198907013,108,98,47
23.50262695477002,45,96,47
23.503560672991192,69,88,47
23.50417984085507,106,100,47
23.504549568797277,64,87,47
23.504852906340616,98,68,47
23.505018695310245,60,110,47
23.505032204148588,67,89,47
23.505183654633353,28,83,47
23.50546247600131,29,61,47
23.50546915513793,26,82,47
23.50613116239069,47,86,47
23.50623137853748,46,80,47
23.50626832904415,77,92,47
23.506392018293898,43,79,47
23.50648256954078,50,70,47
23.506844353610692,53,82,47
23.507199968026274,103,111,47
23.507534756054465,72,90,47
23.507651488498613,95,64,47
23.507889139629658,58,79,47
23.508036934518774,99,89,47
23.50817822073566,24,105,47
23.508532847985673,105,86,47
23.508561536219947,41,94,47
23.508723945633548,70,94,47
23.50874766062554,74,80,47
23.509623380574812,40,61,47
23.509789473558545,94,96,47
24.00027470562513,99,104,48
24.0003804917831,74,65,48
24.000952489339728,30,83,48
24.00110073760181,68,60,48
24.001120117130682,84,88,48
24.001151557874028,25,74,48
24.001180060266194,104,95,48
24.00127224886937,72,112,48
24.00173396066206,55,111,48
24.001748839361948,54,84,48
24.00194996737521,42,66,48
24.00200712842914,32,73,48
24.002020809360864,62,114,48
24.003134773598465,23,105,48
24.00383387863632,71,96,48
24.0040362589527,98,113,48
24.00453572809615,81,79,48
24.00471321794105,108,76,48
24.004935436595893,35,62,48
24.00528068080932,91,92,48
24.005328471322834,95,91,48
24.00588126065468,21,104,48
24.006028463803958,97,93,48
24.006205568470236,51,90,48
24.006383500651307,107,83,48
24.006669657034873,82,85,48
24.00672644343527,57,91,48
24.006993847409873,48,90,48
24.007247869749584,26,77,48
24.007275364272303,22,106,48
24.00728637022317,67,98,48
24.00740378296941,88,99,48
24.007565391672262,65,107,48
24.00837161964195,56,65,48
24.008494644299287,46,101,48
24.00865294559201,58,104,48
24.008801547329103,28,113,48
24.00914694560337,64,97,48
24.009810976245134,31,73,48
24.009935781728192,79,86,48
24.50010551636816,40,93,49
24.500372217045694,88,112,49
24.500508534236356,21,97,49
24.500914262688617,39,66,49
24.501156056106115,82,87,49
24.50169203051677,74,85,49
24.50187527222912,90,96,49
24.50190576046517,105,107,49
24.502155128575478,73,93,49
24.50221071552814,25,89,49
24.502871647651304,94,98,49
24.50327747225896,92,98,49
24.503409478016426,86,64,49
24.50388630945607,102,73,49
24.50390693537101,51,92,49
24.504151556760572,91,106,49
24.504194814850898,36,64,49
24.504527543377087,57,101,49
24.504620393428397,79,84,49
24.50472990593698,53,77,49
24.50500290518678,67,98,49
24.505196850311503,104,103,49
24.5055683869469,46,99,49
24.506219367337568,62,70,49
24.506644237865927,54,106,49
24.506658308276517,66,108,49
24.50670864887002,75,90,49
24.506731113481244,93,97,49
24.507292109485007,60,67,49
24.50775081800339,47,107,49
24.50835540224544,61,79,49
24.508635568029984,97,87,49
24.508828231626786,28,101,49
24.508918731300085,99,87,49
24.508995127650962,84,62,49
24.50903027873493,58,66,49
24.50917600696262,108,109,49
24.509408799063415,31,103,49
24.509616127584334,87,78,49
24.509907488093933,96,63,49
25.000278410512625,61,98,50
25.000394175851202,51,66,50
25.000881422433906,88,99,50
25.00164270449456,22,111,50
25.002093483993843,71,75,50
25.002402450184643,43,89,50
25.00246656446845,98,71,50
25.002778911259878,30,72,50
25.00279766930887,40,107,50
25.00329530413774,93,114,50
25.00338367865925,70,82,50
25.003567704903492,79,72,50
25.004136655235833,94,68,50
25.00440603114059,41,95,50
25.004554655720064,46,115,50
25.00459614751733,92,66,50
25.004698043214486,38,71,50
25.00498189299174,25,114,50
25.0050371943459,78,90,50
25.005300523392123,65,88,50
25.005572518333185,67,98,50
25.005649526076525,105,85,50
25.005821448028147,72,94,50
25.006005347682063,56,92,50
25.006285039000836,34,114,50
25.006640122280675,24,102,50
25.006842090751885,97,83,50
25.00693400853429,86,93,50
25.007413087083506,84,81,50
25.007426359896815,50,101,50
25.007501608329544,107,100,50
25.008276102613493,32,88,50
25.008302028843456,27,97,50
25.008569501298695,33,84,50
25.008824411913476,76,103,50
25.008898363940883,23,115,50
25.00912207571249,80,111,50
25.009355230227587,101,63,50
25.009678645659513,83,70,50
25.00990642737172,108,104,50
25.500099692347344,21,96,51
25.50024817211445,54,98,51
25.5002583897222,69,97,51
25.500523328573006,23,99,51
25.500666598298235,53,107,51
25.50080063402529,71,93,51
25.500847661544263,44,76,51
25.501306343815575,98,69,51
25.50155692597756,22,75,51
25.5018690729645,105,111,51
25.50201175232289,94,106,51
25.502117981498817,61,107,51
25.502176997988574,104,82,51
25.502217794919336,60,65,51
25.50225664583052,70,67,51
25.502329018386494,95,110,51
25.502989261500982,33,108,51
25.503653668415506,34,108,51
25.503718367845664,66,70,51
25.504108163955674,41,95,51
25.504744531798444,86,95,51
25.50508479035308,56,112,51
25.50554620491211,79,104,51
25.506831755632398,91,80,51
25.507271628097403,27,106,51
25.507714733448594,50,99,51
25.507804711383802,24,100,51
25.507828486179868,84,78,51
25.507925397676214,47,77,51
25.50799082145772,65,77,51
25.50807625869563,92,99,51
25.508352440601588,57,108,51
25.50841615459758,67,71,51
25.508453299756887,76,78,51
25.508455108108407,101,62,51
25.50854515435911,75,71,51
25.50915138820405,78,113,51
25.509660214591303,35,91,51
25.509807611743888,81,65,51
25.509985608065858,31,102,51
26.00085402484291,58,69,52
26.00088773266956,41,96,52
26.001132312232592,29,108,52
26.00138397585968,69,99,52
26.00171678195043,92,71,52
26.001783315124282,24,65,52
26.001996697380406,99,83,52
26.00239369836342,25,109,52
26.00267668437194,80,71,52
26.003206199065502,68,60,52
26.003379987810284,52,79,52
26.003712709205054,55,62,52
26.004063664052776,60,89,52
26.004105986972384,27,102,52
26.004120177389517,62,76,52
26.004498039907045,65,69,52
26.004850729091427,76,94,52
26.004945970527636,74,95,52
26.005016991660064,89,106,52
26.005246723066858,28,80,52
26.005408270639716,54,107,52
26.00555870814199,67,88,52
26.005873698685757,48,93,52
26.00639374800543,75,82,52
26.006657652402655,108,108,52
26.006857127688246,63,86,52
26.006928784276965,32,103,52
26.006995278704025,35,102,52
26.0072546816845,73,110,52
26.007284939338476,84,73,52
26.007563560547435,59,102,52
26.007941345617322,44,65,52
26.008078314518265,100,87,52
26.00818360641395,97,73,52
26.00858980547122,82,104,52
26.008649949762077,98,65,52
26.008947475708315,79,83,52
26.008962567164716,70,82,52
26.00898596910569,43,114,52
26.0090686657734,36,70,52
26.500150225419805,30,77,53
26.500498645764942,52,63,53
26.500631882792746,106,67,53
26.500645007586865,71,89,53
26.501141837802372,104,110,53
26.501428459075917,86,98,53
26.501569172720373,87,72,53
26.501742106750715,95,78,53
26.501755797776347,61,96,53
26.501775579197133,64,76,53
26.502642997527737,39,83,53
26.50287241347975,82,115,53
26.503127132951416,23,83,53
26.504338880484855,73,75,53
26.504652054331217,29,81,53
26.50511339089796,72,63,53
26.505183187224294,103,96,53
26.505201154145023,77,102,53
26.505440299652946,53,79,53
26.5055979572218,83,77,53
26.50587347791243,24,98,53
26.505881437067295,65,61,53
26.505981874999385,43,92,53
26.50601826348633,27,61,53
26.506034042122202,89,72,53
26.506107317796445,70,69,53
26.506392954726653,35,78,53
26.507249311975198,38,60,53
26.507373729720307,26,106,53
26.507475971280993,68,64,53
26.507642515980695,92,68,53
26.507899745000167,78,65,53
26.508066858547636,100,96,53
26.508067781425062,93,84,53
26.508534655532024,67,107,53
26.50882205737227,47,66,53
26.509151671379744,45,85,53
26.50962891634178,60,113,53
26.509725224956338,76,106,53
26.50999751563429,28,75,53
27.000048844660203,23,85,54
27.000097793803057,32,63,54
27.000297905040327,100,114,54
27.000751229101546,90,65,54
27.001062785115707,46,107,54
27.00111635929396,70,75,54
27.001154029593145,71,89,54
27.001522902470676,79,77,54
27.001806366979412,49,110,54
27.002006320901465,83,102,54
27.002261515998022,39,106,54
27.002339228207795,27,112,54
27.002639755197098,44,109,54
27.002849132525526,38,68,54
27.00306398798362,82,80,54
27.00314952061919,66,79,54
27.003286043394798,61,89,54
27.003363080944137,77,85,54
27.003702930664414,47,78,54
27.004275075575926,57,69,54
27.004770482251793,22,108,54
27.004782836675112,91,105,54
27.00482854764983,94,76,54
27.00483402236523,76,70,54
27.004856307340322,58,90,54
27.005106829844472,89,110,54
27.00535660061728,60,73,54
27.006291468339704,75,109,54
27.006593573872788,101,78,54
27.007041755561946,72,101,54
27.007151367768113,87,79,54
27.007328383372723,105,93,54
27.00755886379568,98,88,54
27.008145652121136,36,70,54
27.008348994283644,84,65,54
27.00841983528058,42,98,54
27.008544550831854,56,63,54
27.008728302341535,73,97,54
27.009366613045845,45,106,54
27.009920747645914,64,64,54
27.50000241004685,21,113,55
27.500310681302444,26,71,55
27.50038799454729,53,74,55
27.500785362427926,61,61,55
27.500833790537687,80,82,55
27.501573715833498,79,89,55
27.50186772528231,98,111,55
27.501915213220503,22,111,55
27.50208231808608,63,70,55
27.502399489037238,100,87,55
27.502407125856635,38,77,55
27.50241244336038,65,103,55
27.502413497038376,90,78,55
27.502504829467497,54,88,55
27.502796738565465,30,84,55
27.503032081937597,27,110,55
27.50345620168901,43,74,55
27.503506426914573,89,97,55
27.5035640473585,62,81,55
27.503768106277743,36,105,55
27.504294478970788,93,113,55
27.50470705947316,25,92,55
27.505042634607932,74,113,55
27.505335544335537,97,115,55
27.505506905446946,103,92,55
27.5057973711494,70,89,55
27.50621507311138,52,66,55
27.506670368571253,49,92,55
27.50747651824565,44,79,55
27.507667683563383,35,105,55
27.508059058425335,42,90,55
27.508167933695745,48,67,55
27.5083124580509,105,101,55
27.50834956775052,75,102,55
27.508425345083516,56,108,55
27.508656450363727,95,83,55
27.50911576887263,51,104,55
27.509285077519436,86,73,55
27.509469028994605,66,74,55
27.50959592147609,59,84,55
28.00005078812976,66,71,56
28.000107983923897,92,68,56
28.00046402886015,73,90,56
28.00069799484895,74,88,56
28.00082433272019,24,69,56
28.001050975502135,62,70,56
28.001132697530647,107,87,56
28.001584524401807,65,74,56
28.00172349214145,97,106,56
28.001974488170912,104,73,56
28.00212044849383,26,83,56
28.003110366672605,96,100,56
28.003268932630554,89,86,56
28.00471663182785,35,79,56
28.004787017205693,23,77,56
28.004918678219173,91,76,56
28.00527147294299,67,65,56
28.00528047449004,27,78,56
28.00554126163358,79,108,56
28.00571627693361,103,74,56
28.005839265391977,78,103,56
28.00623959509432,46,66,56
28.00626098101987,105,100,56
28.006562029803735,58,113,56
28.006884012907094,86,81,56
28.00701011267095,59,111,56
28.007239891642357,54,104,56
28.007362539479605,106,114,56
28.007523351779778,102,97,56
28.007639631963258,51,99,56
28.007656523367054,57,96,56
28.007728805774637,42,60,56
28.007742511477005,98,69,56
28.007842798149547,47,90,56
28.007876768403356,48,69,56
28.00891200797402,76,69,56
28.009115912278062,77,98,56
28.00917758642635,68,112,56
28.00969441469132,101,83,56
28.009841188838262,49,103,56
28.500004015440254,42,108,57
28.500438810883686,43,87,57
28.50047061197877,107,76,57
28.50050507470832,67,81,57
28.5007924960613,59,115,57
28.501197599664323,57,86,57
28.501629026544773,68,86,57
28.50190413496025,91,101,57
28.50191489614908,83,77,57
28.502562923753693,36,68,57
28.50265285089086,102,72,57
28.502845119597424,50,64,57
28.503206627547364,25,104,57
28.503207121649844,101,88,57
28.50338554027437,31,82,57
28.50354995115814,90,92,57
28.50386236395299,55,102,57
28.504340488684782,108,97,57
28.50444479977978,27,88,57
28.50473434933594,88,107,57
28.50484858739716,28,75,57
28.505319329775528,53,70,57
28.505438779211612,32,93,57
28.505523380134555,29,85,57
28.50613170360743,60,104,57
28.506415796812433,22,69,57
28.50661901576472,34,65,57
28.50668546695114,77,111,57
28.50669953490859,21,63,57
28.507203732127323,61,83,57
28.50805891169197,75,105,57
28.50812413657624,40,106,57
28.508194278536703,70,100,57
28.50853395733537,96,74,57
28.508627707774593,54,66,57
28.508688010958178,80,99,57
28.5090395306519,81,70,57
28.509055821375732,106,95,57
28.509143404426666,92,105,57
28.50963916012073,87,98,57
29.00024697297686,104,78,58
29.000616079852925,31,81,58
29.00065600764945,24,103,58
29.000786976751954,55,81,58
29.000892221680573,102,110,58
29.000947389147793,98,75,58
29.000994962261807,100,94,58
29.001209606622385,59,97,58
29.001624984154745,36,114,58
29.001747867150453,87,96,58
29.001890776537785,28,76,58
29.00249901721637,72,60,58
29.002782171870688,43,85,58
29.002862590353832,66,80,58
29.003254182806828,65,63,58
29.00373207369105,90,113,58
29.004027855340464,70,102,58
29.004238081851735,54,85,58
29.004309830628472,30,86,58
29.004801349396384,105,95,58
29.00493247493026,47,113,58
29.005273108956423,74,112,58
29.005365781900288,60,104,58
29.005611502124353,108,108,58
29.00572407725968,40,102,58
29.00579129804035,84,114,58
29.00588810270156,34,107,58
29.006041739381725,81,100,58
29.006332689173377,27,89,58
29.006498639217025,42,95,58
29.006741869488295,96,70,58
29.00686024223936,35,87,58
29.00687436860941,48,94,58
29.006906153123868,71,95,58
29.00810259130517,93,76,58
29.008496001749826,38,79,58
29.008950338588534,92,115,58
29.00900907730267,51,104,58
29.009758708627835,75,75,58
29.009871000859242,57,105,58
29.500810595638775,107,73,59
29.501702591521255,54,114,59
29.501859336408742,34,111,59
29.5021272696613,28,97,59
29.502243691756984,102,69,59
29.50225239902335,100,84,59
29.502496247044107,33,73,59
29.502536156276385,42,105,59
29.502717075188542,47,110,59
29.502762389416233,29,75,59
29.50324608798097,57,93,59
29.503377191445622,53,72,59
29.50404859889618,31,64,59
29.50488309642826,106,90,59
29.50493849195708,74,83,59
29.505036199379735,66,92,59
29.505063505532807,82,65,59
29.505492684933486,45,62,59
29.505614779437366,97,72,59
29.506035857876583,26,98,59
29.50657788780036,70,87,59
29.506814601154254,36,107,59
29.50693381900615,27,71,59
29.507164529815586,44,108,59
29.50721159268214,85,108,59
29.507483608334287,49,109,59
29.507696421638837,46,100,59
29.50783928588453,39,111,59
29.50792390775359,93,90,59
29.50813149988364,32,75,59
29.508587423965132,98,108,59
29.508670799971583,69,92,59
29.50877712960697,22,103,59
29.508837333888312,61,92,59
29.50883762015458,40,72,59
29.509333294191162,68,97,59
29.50952672866499,91,88,59
29.509578302174752,58,92,59
29.50961602025575,108,69,59
29.509715163568043,50,90,59
30.0,60,90,0
30.033333333333335,60,98,0
30.066666666666666,60,88,0
30.1,60,77,0
30.133333333333333,60,108,0
30.166666666666668,60,107,0
30.2,60,98,0
30.233333333333334,60,83,0
30.266666666666666,60,87,0
30.3,60,76,0
30.333333333333332,60,81,0
30.366666666666667,60,95,0
30.4,60,93,0
30.433333333333334,60,99,0
30.466666666666665,60,96,0
30.5,60,85,0
30.533333333333335,60,107,0
30.566666666666666,60,106,0
30.6,60,95,0
30.633333333333333,60,113,0
30.666666666666668,60,94,0
30.7,60,82,0
30.733333333333334,60,111,0
30.766666666666666,60,83,0
30.8,60,99,0
30.833333333333332,60,99,0
30.866666666666667,60,107,0
30.9,60,76,0
30.933333333333334,60,93,0
30.966666666666665,60,94,0
31.0,60,115,0
31.03333333333333,60,103,0
31.066666666666666,60,80,0
31.1,60,91,0
31.133333333333333,60,99,0
31.166666666666668,60,112,0
31.2,60,78,0
31.233333333333334,60,104,0
31.266666666666666,60,94,0
31.3,60,77,0
31.333333333333332,60,97,0
31.366666666666667,60,92,0
31.4,60,100,0
31.433333333333334,60,110,0
31.466666666666665,60,82,0
31.5,60,91,0
31.53333333333333,60,105,0
31.566666666666666,60,111,0
31.6,60,107,0
31.633333333333333,60,101,0
31.666666666666668,60,78,0
31.7,60,96,0
31.733333333333334,60,100,0
31.766666666666666,60,106,0
31.8,60,98,0
31.833333333333332,60,109,0
31.866666666666667,60,111,0
31.9,60,106,0
31.933333333333334,60,81,0
31.966666666666665,60,107,0
32.0,60,105,0
32.03333333333333,60,86,0
32.06666666666666,60,85,0
32.1,60,98,0
32.13333333333333,60,82,0
32.166666666666664,60,106,0
32.2,60,112,0
32.233333333333334,60,96,0
32.266666666666666,60,108,0
32.3,60,93,0
32.333333333333336,60,94,0
32.36666666666667,60,88,0
32.4,60,107,0
32.43333333333333,60,84,0
32.46666666666667,60,90,0
32.5,60,78,0
32.53333333333333,60,101,0
32.56666666666666,60,102,0
32.6,60,90,0
32.63333333333333,60,107,0
32.666666666666664,60,93,0
32.7,60,95,0
32.733333333333334,60,96,0
32.766666666666666,60,83,0
32.8,60,83,0
32.833333333333336,60,83,0
32.86666666666667,60,101,0
32.9,60,91,0
32.93333333333333,60,82,0
32.96666666666667,60,90,0
33.0,60,92,0
33.03333333333333,60,107,0
33.06666666666666,60,75,0
33.1,60,86,0
33.13333333333333,60,80,0
33.166666666666664,60,115,0
33.2,60,79,0
33.233333333333334,60,90,0
33.266666666666666,60,92,0
33.3,60,92,0
33.333333333333336,60,75,0
33.36666666666667,60,93,0
33.4,60,82,0
33.43333333333333,60,77,0
33.46666666666667,60,99,0
33.5,60,79,0
33.53333333333333,60,114,0
33.56666666666666,60,93,0
33.6,60,92,0
33.63333333333333,60,105,0
33.666666666666664,60,107,0
33.7,60,92,0
33.733333333333334,60,113,0
33.766666666666666,60,90,0
33.8,60,90,0
33.833333333333336,60,112,0
33.86666666666667,60,115,0
33.9,60,81,0
33.93333333333333,60,88,0
33.96666666666667,60,99,0
34.0,60,106,0
34.03333333333333,60,112,0
34.06666666666666,60,96,0
34.1,60,90,0
34.13333333333333,60,103,0
34.166666666666664,60,90,0
34.2,60,86,0
34.233333333333334,60,91,0
34.266666666666666,60,111,0
34.3,60,101,0
34.333333333333336,60,99,0
34.36666666666667,60,87,0
34.4,60,82,0
34.43333333333334,60,79,0
34.46666666666667,60,86,0
34.5,60,115,0
34.53333333333333,60,77,0
34.56666666666666,60,109,0
34.6,60,107,0
34.63333333333333,60,96,0
34.666666666666664,60,83,0
34.7,60,115,0
34.733333333333334,60,92,0
34.766666666666666,60,103,0
34.8,60,113,0
34.833333333333336,60,101,0
34.86666666666667,60,110,0
34.9,60,91,0
34.93333333333334,60,108,0
34.96666666666667,60,77,0
35.0,60,79,0
35.03333333333333,60,88,0
35.06666666666666,60,77,0
35.1,60,97,0
35.13333333333333,60,113,0
35.166666666666664,60,104,0
35.2,60,97,0
35.233333333333334,60,101,0
35.266666666666666,60,84,0
35.3,60,99,0
35.333333333333336,60,87,0
35.36666666666667,60,90,0
35.4,60,115,0
35.43333333333334,60,108,0
35.46666666666667,60,111,0
35.5,60,96,0
35.53333333333333,60,91,0
35.56666666666666,60,97,0
35.6,60,110,0
35.63333333333333,60,83,0
35.666666666666664,60,76,0
35.7,60,106,0
35.733333333333334,60,96,0
35.766666666666666,60,87,0
35.8,60,82,0
35.833333333333336,60,75,0
35.86666666666667,60,91,0
35.9,60,86,0
35.93333333333334,60,78,0
35.96666666666667,60,87,0
36.0,60,105,0
36.03333333333333,60,115,0
36.06666666666666,60,81,0
36.1,60,97,0
36.13333333333333,60,98,0
36.166666666666664,60,79,0
36.2,60,79,0
36.233333333333334,60,91,0
36.266666666666666,60,104,0
36.3,60,83,0
36.333333333333336,60,80,0
36.36666666666667,60,99,0
36.4,60,93,0
36.43333333333334,60,90,0
36.46666666666667,60,95,0
36.5,60,76,0
36.53333333333333,60,84,0
36.56666666666666,60,90,0
36.6,60,111,0
36.63333333333333,60,89,0
36.666666666666664,60,87,0
36.7,60,87,0
36.733333333333334,60,106,0
36.766666666666666,60,82,0
36.8,60,92,0
36.833333333333336,60,110,0
36.86666666666667,60,100,0
36.9,60,84,0
36.93333333333334,60,105,0
36.96666666666667,60,107,0
37.0,60,103,0
37.03333333333333,60,79,0
37.06666666666666,60,87,0
37.1,60,75,0
37.13333333333333,60,97,0
37.166666666666664,60,114,0
37.2,60,77,0
37.233333333333334,60,77,0
37.266666666666666,60,81,0
37.3,60,110,0
37.333333333333336,60,109,0
37.36666666666667,60,89,0
37.4,60,114,0
37.43333333333334,60,77,0
37.46666666666667,60,103,0
37.5,60,104,0
37.53333333333333,60,113,0
37.56666666666666,60,92,0
37.6,60,85,0
37.63333333333333,60,112,0
37.666666666666664,60,114,0
37.7,60,75,0
37.733333333333334,60,103,0
37.766666666666666,60,84,0
37.8,60,102,0
37.833333333333336,60,105,0
37.86666666666667,60,93,0
37.9,60,77,0
37.93333333333334,60,110,0
37.96666666666667,60,89,0
38.0,60,107,0
38.03333333333333,60,115,0
38.06666666666666,60,100,0
38.1,60,90,0
38.13333333333333,60,110,0
38.166666666666664,60,107,0
38.2,60,94,0
38.233333333333334,60,87,0
38.266666666666666,60,107,0
38.3,60,79,0
38.333333333333336,60,111,0
38.36666666666667,60,88,0
38.4,60,101,0
38.43333333333334,60,97,0
38.46666666666667,60,88,0
38.5,60,114,0
38.53333333333333,60,78,0
38.56666666666666,60,113,0
38.6,60,93,0
38.63333333333333,60,78,0
38.666666666666664,60,104,0
38.7,60,93,0
38.733333333333334,60,105,0
38.766666666666666,60,105,0
38.8,60,83,0
38.833333333333336,60,87,0
38.86666666666667,60,88,0
38.9,60,84,0
38.93333333333334,60,105,0
38.96666666666667,60,111,0
39.0,60,97,0
39.03333333333333,60,101,0
39.06666666666666,60,80,0
39.1,60,100,0
39.13333333333333,60,76,0
39.166666666666664,60,87,0
39.2,60,93,0
39.233333333333334,60,75,0
39.266666666666666,60,114,0
39.3,60,106,0
39.333333333333336,60,96,0
39.36666666666667,60,103,0
39.4,60,76,0
39.43333333333334,60,114,0
39.46666666666667,60,112,0
39.5,60,85,0
39.53333333333333,60,91,0
39.56666666666666,60,82,0
39.6,60,96,0
39.63333333333333,60,78,0
39.666666666666664,60,85,0
39.7,60,82,0
39.733333333333334,60,83,0
39.766666666666666,60,100,0
39.8,60,76,0
39.833333333333336,60,90,0
39.86666666666667,60,105,0
39.9,60,80,0
39.93333333333334,60,95,0
39.96666666666667,60,100,0
40.0,60,93,0
40.03333333333333,60,102,0
40.06666666666666,60,82,0
40.1,60,88,0
40.13333333333333,60,98,0
40.166666666666664,60,111,0
40.2,60,100,0
40.233333333333334,60,105,0
40.266666666666666,60,106,0
40.3,60,115,0
40.333333333333336,60,76,0
40.36666666666667,60,99,0
40.4,60,76,0
40.43333333333334,60,75,0
40.46666666666667,60,110,0
40.5,60,86,0
40.53333333333333,60,83,0
40.56666666666666,60,110,0
40.6,60,115,0
40.63333333333333,60,102,0
40.666666666666664,60,112,0
40.7,60,107,0
40.733333333333334,60,96,0
40.766666666666666,60,99,0
40.8,60,92,0
40.833333333333336,60,80,0
40.86666666666667,60,92,0
40.9,60,90,0
40.93333333333334,60,89,0
40.96666666666667,60,82,0
41.0,60,87,0
41.03333333333333,60,81,0
41.06666666666666,60,91,0
41.1,60,106,0
41.13333333333333,60,96,0
41.166666666666664,60,87,0
41.2,60,97,0
41.233333333333334,60,103,0
41.266666666666666,60,96,0
41.3,60,75,0
41.333333333333336,60,103,0
41.36666666666667,60,79,0
41.4,60,109,0
41.43333333333334,60,84,0
41.46666666666667,60,93,0
41.5,60,111,0
41.53333333333333,60,81,0
41.56666666666666,60,109,0
41.6,60,87,0
41.63333333333333,60,84,0
41.666666666666664,60,76,0
41.7,60,80,0
41.733333333333334,60,82,0
41.766666666666666,60,110,0
41.8,60,99,0
41.833333333333336,60,114,0
41.86666666666667,60,81,0
41.9,60,97,0
41.93333333333334,60,93,0
41.96666666666667,60,96,0
42.0,60,87,0
42.03333333333333,60,95,0
42.06666666666666,60,75,0
42.1,60,93,0
42.13333333333333,60,107,0
42.166666666666664,60,78,0
42.2,60,77,0
42.233333333333334,60,101,0
42.266666666666666,60,115,0
42.3,60,109,0
42.333333333333336,60,102,0
42.36666666666667,60,80,0
42.4,60,80,0
42.43333333333334,60,97,0
42.46666666666667,60,107,0
42.5,60,90,0
42.53333333333333,60,98,0
42.56666666666666,60,79,0
42.6,60,115,0
42.63333333333333,60,87,0
42.666666666666664,60,86,0
42.7,60,79,0
42.733333333333334,60,111,0
42.766666666666666,60,105,0
42.8,60,102,0
42.833333333333336,60,102,0
42.86666666666667,60,104,0
42.9,60,92,0
42.93333333333334,60,101,0
42.96666666666667,60,109,0
43.0,60,100,0
43.03333333333333,60,113,0
43.06666666666666,60,92,0
43.1,60,107,0
43.13333333333333,60,99,0
43.166666666666664,60,105,0
43.2,60,111,0
43.233333333333334,60,76,0
43.266666666666666,60,107,0
43.3,60,113,0
43.333333333333336,60,106,0
43.36666666666667,60,92,0
43.4,60,91,0
43.43333333333334,60,108,0
43.46666666666667,60,113,0
43.5,60,81,0
43.53333333333333,60,109,0
43.56666666666666,60,104,0
43.6,60,86,0
43.63333333333333,60,109,0
43.666666666666664,60,85,0
43.7,60,78,0
43.733333333333334,60,99,0
43.766666666666666,60,106,0
43.8,60,94,0
43.833333333333336,60,105,0
43.86666666666667,60,78,0
43.9,60,112,0
43.93333333333334,60,75,0
43.96666666666667,60,77,0
44.0,60,111,0
44.03333333333333,60,96,0
44.06666666666666,60,91,0
44.1,60,88,0
44.13333333333333,60,115,0
44.166666666666664,60,109,0
44.2,60,87,0
44.233333333333334,60,109,0
44.266666666666666,60,76,0
44.3,60,87,0
44.333333333333336,60,90,0
44.36666666666667,60,92,0
44.4,60,81,0
44.43333333333334,60,110,0
44.46666666666667,60,115,0
44.5,60,104,0
44.53333333333333,60,115,0
44.56666666666666,60,81,0
44.6,60,89,0
44.63333333333333,60,114,0
44.666666666666664,60,93,0
44.7,60,111,0
44.733333333333334,60,76,0
44.766666666666666,60,87,0
44.8,60,114,0
44.833333333333336,60,115,0
44.86666666666667,60,105,0
44.9,60,90,0
44.93333333333334,60,80,0
44.96666666666667,60,102,0
45.0,60,106,0
45.03333333333333,60,84,0
45.06666666666666,60,92,0
45.1,60,78,0
45.13333333333333,60,83,0
45.166666666666664,60,81,0
45.2,60,82,0
45.233333333333334,60,81,0
45.266666666666666,60,115,0
45.3,60,114,0
45.333333333333336,60,77,0
45.36666666666667,60,91,0
45.4,60,76,0
45.43333333333334,60,89,0
45.46666666666667,60,103,0
45.5,60,96,0
45.53333333333333,60,78,0
45.56666666666666,60,80,0
45.6,60,112,0
45.63333333333333,60,100,0
45.666666666666664,60,85,0
45.7,60,100,0
45.733333333333334,60,91,0
45.766666666666666,60,98,0
45.8,60,102,0
45.833333333333336,60,109,0
45.86666666666667,60,105,0
45.9,60,87,0
45.93333333333334,60,109,0
45.96666666666667,60,90,0
46.0,60,89,0
46.03333333333333,60,92,0
46.06666666666666,60,111,0
46.1,60,115,0
46.13333333333333,60,101,0
46.16666666666667,60,109,0
46.2,60,109,0
46.233333333333334,60,102,0
46.266666666666666,60,113,0
46.3,60,112,0
46.33333333333333,60,83,0
46.36666666666667,60,86,0
46.4,60,89,0
46.43333333333334,60,95,0
46.46666666666667,60,109,0
46.5,60,107,0
46.53333333333333,60,93,0
46.56666666666666,60,97,0
46.6,60,87,0
46.63333333333333,60,75,0
46.66666666666667,60,103,0
46.7,60,98,0
46.733333333333334,60,90,0
46.766666666666666,60,99,0
46.8,60,97,0
46.83333333333333,60,102,0
46.86666666666667,60,90,0
46.9,60,112,0
46.93333333333334,60,85,0
46.96666666666667,60,77,0
47.0,60,89,0
47.03333333333333,60,75,0
47.06666666666666,60,81,0
47.1,60,75,0
47.13333333333333,60,106,0
47.16666666666667,60,83,0
47.2,60,103,0
47.233333333333334,60,100,0
47.266666666666666,60,97,0
47.3,60,103,0
47.33333333333333,60,112,0
47.36666666666667,60,107,0
47.4,60,81,0
47.43333333333334,60,86,0
47.46666666666667,60,105,0
47.5,60,106,0
47.53333333333333,60,94,0
47.56666666666666,60,91,0
47.6,60,110,0
47.63333333333333,60,77,0
47.66666666666667,60,75,0
47.7,60,101,0
47.733333333333334,60,114,0
47.766666666666666,60,107,0
47.8,60,94,0
47.83333333333333,60,88,0
47.86666666666667,60,110,0
47.9,60,79,0
47.93333333333334,60,97,0
47.96666666666667,60,89,0
48.0,60,80,0
48.03333333333333,60,107,0
48.06666666666666,60,93,0
48.1,60,87,0
48.13333333333333,60,103,0
48.16666666666667,60,80,0
48.2,60,89,0
48.233333333333334,60,90,0
48.266666666666666,60,98,0
48.3,60,97,0
48.33333333333333,60,84,0
48.36666666666667,60,115,0
48.4,60,115,0
48.43333333333334,60,91,0
48.46666666666667,60,104,0
48.5,60,84,0
48.53333333333333,60,93,0
48.56666666666666,60,103,0
48.6,60,76,0
48.63333333333333,60,110,0
48.66666666666667,60,93,0
48.7,60,81,0
48.733333333333334,60,100,0
48.766666666666666,60,89,0
48.8,60,112,0
48.83333333333333,60,77,0
48.86666666666667,60,112,0
48.9,60,90,0
48.93333333333334,60,76,0
48.96666666666667,60,105,0
49.0,60,102,0
49.03333333333333,60,81,0
49.06666666666666,60,104,0
49.1,60,81,0
49.13333333333333,60,110,0
49.16666666666667,60,103,0
49.2,60,98,0
49.233333333333334,60,113,0
49.266666666666666,60,78,0
49.3,60,103,0
49.33333333333333,60,79,0
49.36666666666667,60,103,0
49.4,60,104,0
49.43333333333334,60,103,0
49.46666666666667,60,100,0
49.5,60,93,0
49.53333333333333,60,100,0
49.56666666666666,60,111,0
49.6,60,101,0
49.63333333333333,60,104,0
49.66666666666667,60,104,0
49.7,60,77,0
49.733333333333334,60,81,0
49.766666666666666,60,83,0
49.8,60,115,0
49.83333333333333,60,87,0
49.86666666666667,60,89,0
49.9,60,79,0
49.93333333333334,60,103,0
49.96666666666667,60,109,0
50.0,60,101,0
50.03333333333333,60,101,0
50.06666666666666,60,82,0
50.1,60,106,0
50.13333333333333,60,94,0
50.16666666666667,60,84,0
50.2,60,87,0
50.233333333333334,60,103,0
50.266666666666666,60,109,0
50.3,60,82,0
50.33333333333333,60,103,0
50.36666666666667,60,105,0
50.4,60,115,0
50.43333333333334,60,104,0
50.46666666666667,60,96,0
50.5,60,95,0
50.53333333333333,60,86,0
50.56666666666666,60,85,0
50.6,60,76,0
50.63333333333333,60,115,0
50.66666666666667,60,76,0
50.7,60,108,0
50.733333333333334,60,77,0
50.766666666666666,60,90,0
50.8,60,78,0
50.83333333333333,60,97,0
50.86666666666667,60,94,0
50.9,60,99,0
50.93333333333334,60,104,0
50.96666666666667,60,92,0
51.0,60,85,0
51.03333333333333,60,103,0
51.06666666666666,60,91,0
51.1,60,100,0
51.13333333333333,60,97,0
51.16666666666667,60,94,0
51.2,60,76,0
51.233333333333334,60,98,0
51.266666666666666,60,105,0
51.3,60,101,0
51.33333333333333,60,76,0
51.36666666666667,60,88,0
51.4,60,78,0
51.43333333333334,60,87,0
51.46666666666667,60,110,0
51.5,60,109,0
51.53333333333333,60,82,0
51.56666666666666,60,76,0
51.6,60,80,0
51.63333333333333,60,105,0
51.66666666666667,60,84,0
51.7,60,95,0
51.733333333333334,60,84,0
51.766666666666666,60,97,0
51.8,60,77,0
51.83333333333333,60,106,0
51.86666666666667,60,94,0
51.9,60,84,0
51.93333333333334,60,103,0
51.96666666666667,60,115,0
52.0,60,108,0
52.03333333333333,60,111,0
52.06666666666666,60,94,0
52.1,60,82,0
52.13333333333333,60,81,0
52.16666666666667,60,80,0
52.2,60,85,0
52.233333333333334,60,92,0
52.266666666666666,60,103,0
52.3,60,99,0
52.33333333333333,60,95,0
52.36666666666667,60,77,0
52.4,60,92,0
52.43333333333334,60,98,0
52.46666666666667,60,112,0
52.5,60,84,0
52.53333333333333,60,101,0
52.56666666666666,60,86,0
52.6,60,81,0
52.63333333333333,60,91,0
52.66666666666667,60,75,0
52.7,60,100,0
52.733333333333334,60,89,0
52.766666666666666,60,107,0
52.8,60,111,0
52.83333333333333,60,105,0
52.86666666666667,60,109,0
52.9,60,75,0
52.93333333333334,60,82,0
52.96666666666667,60,86,0
53.0,60,93,0
53.03333333333333,60,99,0
53.06666666666666,60,106,0
53.1,60,86,0
53.13333333333333,60,87,0
53.16666666666667,60,102,0
53.2,60,75,0
53.233333333333334,60,80,0
53.266666666666666,60,82,0
53.3,60,78,0
53.33333333333333,60,79,0
53.36666666666667,60,99,0
53.4,60,96,0
53.43333333333334,60,102,0
53.46666666666667,60,113,0
53.5,60,97,0
53.53333333333333,60,78,0
53.56666666666666,60,78,0
53.6,60,95,0
53.63333333333333,60,111,0
53.66666666666667,60,115,0
53.7,60,76,0
53.733333333333334,60,81,0
53.766666666666666,60,90,0
53.8,60,91,0
53.83333333333333,60,94,0
53.86666666666667,60,97,0
53.9,60,108,0
53.93333333333334,60,85,0
53.96666666666667,60,108,0
54.0,60,107,0
54.03333333333333,60,100,0
54.06666666666666,60,76,0
54.1,60,97,0
54.13333333333333,60,115,0
54.16666666666667,60,96,0
54.2,60,108,0
54.233333333333334,60,89,0
54.266666666666666,60,84,0
54.3,60,89,0
54.33333333333333,60,103,0
54.36666666666667,60,97,0
54.4,60,91,0
54.43333333333334,60,83,0
54.46666666666667,60,110,0
54.5,60,83,0
54.53333333333333,60,90,0
54.56666666666666,60,110,0
54.6,60,107,0
54.63333333333333,60,105,0
54.66666666666667,60,80,0
54.7,60,84,0
54.733333333333334,60,90,0
54.766666666666666,60,78,0
54.8,60,96,0
54.83333333333333,60,87,0
54.86666666666667,60,90,0
54.9,60,103,0
54.93333333333334,60,80,0
54.96666666666667,60,100,0
55.0,60,85,0
55.03333333333333,60,98,0
55.06666666666666,60,103,0
55.1,60,77,0
55.13333333333333,60,84,0
55.16666666666667,60,75,0
55.2,60,100,0
55.233333333333334,60,86,0
55.266666666666666,60,88,0
55.3,60,99,0
55.33333333333333,60,82,0
55.36666666666667,60,78,0
55.4,60,102,0
55.43333333333334,60,81,0
55.46666666666667,60,84,0
55.5,60,110,0
55.53333333333333,60,76,0
55.56666666666666,60,100,0
55.6,60,88,0
55.63333333333333,60,90,0
55.66666666666667,60,91,0
55.7,60,96,0
55.733333333333334,60,78,0
55.766666666666666,60,93,0
55.8,60,76,0
55.83333333333333,60,113,0
55.86666666666667,60,83,0
55.9,60,93,0
55.93333333333334,60,90,0
55.96666666666667,60,99,0
56.0,60,92,0
56.03333333333333,60,97,0
56.06666666666666,60,95,0
56.099999999999994,60,85,0
56.13333333333333,60,113,0
56.16666666666667,60,115,0
56.2,60,78,0
56.233333333333334,60,99,0
56.266666666666666,60,106,0
56.3,60,104,0
56.33333333333333,60,100,0
56.36666666666667,60,110,0
56.4,60,108,0
56.43333333333334,60,83,0
56.46666666666667,60,86,0
56.5,60,76,0
56.53333333333333,60,112,0
56.56666666666666,60,79,0
56.599999999999994,60,79,0
56.63333333333333,60,96,0
56.66666666666667,60,79,0
56.7,60,78,0
56.733333333333334,60,83,0
56.766666666666666,60,103,0
56.8,60,96,0
56.83333333333333,60,101,0
56.86666666666667,60,84,0
56.9,60,90,0
56.93333333333334,60,84,0
56.96666666666667,60,80,0
57.0,60,79,0
57.03333333333333,60,80,0
57.06666666666666,60,99,0
57.099999999999994,60,78,0
57.13333333333333,60,114,0
57.16666666666667,60,106,0
57.2,60,109,0
57.233333333333334,60,84,0
57.266666666666666,60,108,0
57.3,60,110,0
57.33333333333333,60,80,0
57.36666666666667,60,90,0
57.4,60,93,0
57.43333333333334,60,108,0
57.46666666666667,60,99,0
57.5,60,105,0
57.53333333333333,60,115,0
57.56666666666666,60,91,0
57.599999999999994,60,104,0
57.63333333333333,60,113,0
57.66666666666667,60,105,0
57.7,60,93,0
57.733333333333334,60,109,0
57.766666666666666,60,103,0
57.8,60,75,0
57.83333333333333,60,78,0
57.86666666666667,60,102,0
57.9,60,92,0
57.93333333333334,60,100,0
57.96666666666667,60,114,0
58.0,60,93,0
58.03333333333333,60,80,0
58.06666666666666,60,75,0
58.099999999999994,60,82,0
58.13333333333333,60,107,0
58.16666666666667,60,95,0
58.2,60,98,0
58.233333333333334,60,99,0
58.266666666666666,60,93,0
58.3,60,103,0
58.33333333333333,60,84,0
58.36666666666667,60,86,0
58.4,60,107,0
58.43333333333334,60,81,0
58.46666666666667,60,91,0
58.5,60,84,0
58.53333333333333,60,105,0
58.56666666666666,60,80,0
58.599999999999994,60,91,0
58.63333333333333,60,111,0
58.66666666666667,60,92,0
58.7,60,100,0
58.733333333333334,60,90,0
58.766666666666666,60,82,0
58.8,60,98,0
58.83333333333333,60,87,0
58.86666666666667,60,103,0
58.9,60,106,0
58.93333333333334,60,98,0
58.96666666666667,60,90,0
59.0,60,85,0
59.03333333333333,60,106,0
59.06666666666666,60,80,0
59.099999999999994,60,109,0
59.13333333333333,60,107,0
59.16666666666667,60,92,0
59.2,60,111,0
59.233333333333334,60,87,0
59.266666666666666,60,84,0
59.3,60,111,0
59.33333333333333,60,100,0
59.36666666666667,60,91,0
59.4,60,75,0
59.43333333333334,60,99,0
59.46666666666667,60,108,0
59.5,60,113,0
59.53333333333333,60,84,0
59.56666666666666,60,94,0
59.599999999999994,60,81,0
59.63333333333333,60,90,0
59.66666666666667,60,111,0
59.7,60,103,0
59.733333333333334,60,86,0
59.766666666666666,60,91,0
59.8,60,94,0
59.83333333333333,60,100,0
59.86666666666667,60,93,0
59.9,60,86,0
59.93333333333334,60,95,0
59.96666666666667,60,108,0
60.0,24,86,0
60.025,26,114,0
60.05,28,94,0
60.074999999999996,30,80,0
60.099999999999994,32,105,0
60.12499999999999,34,114,0
60.14999999999999,36,104,0
60.17499999999999,38,94,0
60.19999999999999,40,101,0
60.22499999999999,42,85,0
60.249999999999986,44,94,0
60.274999999999984,46,103,0
60.29999999999998,48,100,0
60.32499999999998,50,86,0
60.34999999999998,52,108,0
60.37499999999998,54,111,0
60.39999999999998,56,111,0
60.424999999999976,58,84,0
60.449999999999974,60,83,0
60.47499999999997,62,101,0
60.49999999999997,64,97,0
60.52499999999997,66,114,0
60.54999999999997,68,96,0
60.57499999999997,70,103,0
60.599999999999966,72,81,0
60.624999999999964,74,92,0
60.64999999999996,76,94,0
60.67499999999996,78,84,0
60.69999999999996,80,82,0
60.72499999999996,82,82,0
60.74999999999996,84,114,0
60.774999999999956,86,102,0
60.799999999999955,88,107,0
60.82499999999995,90,109,0
60.84999999999995,92,97,0
60.87499999999995,94,115,0
60.89999999999995,96,112,0
60.92499999999995,94,105,0
60.949999999999946,92,96,0
60.974999999999945,90,86,0
60.99999999999994,88,87,0
61.02499999999994,86,110,0
61.04999999999994,84,91,0
61.07499999999994,82,110,0
61.09999999999994,80,98,0
61.124999999999936,78,89,0
61.149999999999935,76,91,0
61.17499999999993,74,99,0
61.19999999999993,72,86,0
61.22499999999993,70,93,0
61.24999999999993,68,90,0
61.27499999999993,66,86,0
61.299999999999926,64,108,0
61.324999999999925,62,89,0
61.34999999999992,60,108,0
61.37499999999992,58,88,0
61.39999999999992,56,115,0
61.42499999999992,54,89,0
61.44999999999992,52,98,0
61.474999999999916,50,110,0
61.499999999999915,48,96,0
61.52499999999991,46,88,0
61.54999999999991,44,112,0
61.57499999999991,42,113,0
61.59999999999991,40,103,0
61.62499999999991,38,88,0
61.649999999999906,36,86,0
61.674999999999905,34,95,0
61.6999999999999,32,98,0
61.7249999999999,30,85,0
61.7499999999999,28,90,0
61.7749999999999,26,91,0
61.7999999999999,24,92,0
61.824999999999896,26,91,0
61.849999999999895,28,100,0
61.87499999999989,30,89,0
61.89999999999989,32,99,0
61.92499999999989,34,115,0
61.94999999999989,36,107,0
61.97499999999989,38,103,0
61.999999999999886,40,84,0
62.024999999999885,42,91,0
62.04999999999988,44,114,0
62.07499999999988,46,81,0
62.09999999999988,48,88,0
62.12499999999988,50,101,0
62.14999999999988,52,84,0
62.174999999999876,54,91,0
62.199999999999875,56,80,0
62.22499999999987,58,101,0
62.24999999999987,60,98,0
62.27499999999987,62,95,0
62.29999999999987,64,110,0
62.32499999999987,66,82,0
62.349999999999866,68,102,0
62.374999999999865,70,97,0
62.399999999999864,72,105,0
62.42499999999986,74,92,0
62.44999999999986,76,97,0
62.47499999999986,78,82,0
62.49999999999986,80,102,0
62.52499999999986,82,82,0
62.549999999999855,84,104,0
62.574999999999854,86,106,0
62.59999999999985,88,106,0
62.62499999999985,90,104,0
62.64999999999985,92,103,0
62.67499999999985,94,87,0
62.69999999999985,96,88,0
62.724999999999845,94,109,0
62.749999999999844,92,98,0
62.77499999999984,90,95,0
62.79999999999984,88,103,0
62.82499999999984,86,100,0
62.84999999999984,84,115,0
62.87499999999984,82,85,0
62.899999999999835,80,84,0
62.924999999999834,78,93,0
62.94999999999983,76,83,0
62.97499999999983,74,87,0
62.99999999999983,72,103,0
63.02499999999983,70,90,0
63.04999999999983,68,96,0
63.074999999999825,66,100,0
63.099999999999824,64,105,0
63.12499999999982,62,106,0
63.14999999999982,60,95,0
63.17499999999982,58,105,0
63.19999999999982,56,112,0
63.22499999999982,54,110,0
63.249999999999815,52,85,0
63.274999999999814,50,87,0
63.29999999999981,48,86,0
63.32499999999981,46,113,0
63.34999999999981,44,93,0
63.37499999999981,42,95,0
63.39999999999981,40,88,0
63.424999999999805,38,89,0
63.449999999999804,36,96,0
63.4749999999998,34,91,0
63.4999999999998,32,85,0
63.5249999999998,30,98,0
63.5499999999998,28,108,0
63.5749999999998,26,85,0
63.599999999999795,24,104,0
63.624999999999794,26,103,0
63.64999999999979,28,104,0
63.67499999999979,30,95,0
63.69999999999979,32,95,0
63.72499999999979,34,85,0
63.74999999999979,36,100,0
63.774999999999785,38,83,0
63.799999999999784,40,113,0
63.82499999999978,42,107,0
63.84999999999978,44,107,0
63.87499999999978,46,96,0
63.89999999999978,48,93,0
63.92499999999978,50,86,0
63.949999999999775,52,101,0
63.974999999999774,54,80,0
63.99999999999977,56,108,0
64.02499999999978,58,110,0
64.04999999999978,60,109,0
64.07499999999979,62,94,0
64.0999999999998,64,97,0
64.1249999999998,66,114,0
64.1499999999998,68,109,0
64.17499999999981,70,113,0
64.19999999999982,72,90,0
64.22499999999982,74,106,0
64.24999999999983,76,103,0
64.27499999999984,78,114,0
64.29999999999984,80,87,0
64.32499999999985,82,97,0
64.34999999999985,84,92,0
64.37499999999986,86,103,0
64.39999999999986,88,102,0
64.42499999999987,90,91,0
64.44999999999987,92,109,0
64.47499999999988,94,110,0
64.49999999999989,96,107,0
64.52499999999989,94,101,0
64.5499999999999,92,107,0
64.5749999999999,90,92,0
64.59999999999991,88,104,0
64.62499999999991,86,86,0
64.64999999999992,84,85,0
64.67499999999993,82,103,0
64.69999999999993,80,98,0
64.72499999999994,78,98,0
64.74999999999994,76,115,0
64.77499999999995,74,88,0
64.79999999999995,72,115,0
64.82499999999996,70,108,0
64.84999999999997,68,103,0
64.87499999999997,66,84,0
64.89999999999998,64,105,0
64.92499999999998,62,93,0
64.94999999999999,60,108,0
64.975,58,85,0
65.0,56,86,0
65.025,54,97,0
65.05000000000001,52,102,0
65.07500000000002,50,80,0
65.10000000000002,48,83,0
65.12500000000003,46,114,0
65.15000000000003,44,102,0
65.17500000000004,42,106,0
65.20000000000005,40,105,0
65.22500000000005,38,87,0
65.25000000000006,36,95,0
65.27500000000006,34,82,0
65.30000000000007,32,111,0
65.32500000000007,30,84,0
65.35000000000008,28,99,0
65.37500000000009,26,93,0
65.40000000000009,24,111,0
65.4250000000001,26,105,0
65.4500000000001,28,85,0
65.47500000000011,30,115,0
65.50000000000011,32,84,0
65.52500000000012,34,92,0
65.55000000000013,36,111,0
65.57500000000013,38,95,0
65.60000000000014,40,80,0
65.62500000000014,42,92,0
65.65000000000015,44,90,0
65.67500000000015,46,87,0
65.70000000000016,48,104,0
65.72500000000016,50,111,0
65.75000000000017,52,103,0
65.77500000000018,54,107,0
65.80000000000018,56,93,0
65.82500000000019,58,82,0
65.8500000000002,60,115,0
65.8750000000002,62,106,0
65.9000000000002,64,99,0
65.92500000000021,66,94,0
65.95000000000022,68,106,0
65.97500000000022,70,107,0
66.00000000000023,72,104,0
66.02500000000023,74,112,0
66.05000000000024,76,93,0
66.07500000000024,78,87,0
66.10000000000025,80,93,0
66.12500000000026,82,80,0
66.15000000000026,84,95,0
66.17500000000027,86,97,0
66.20000000000027,88,86,0
66.22500000000028,90,94,0
66.25000000000028,92,103,0
66.27500000000029,94,92,0
66.3000000000003,96,88,0
66.3250000000003,94,94,0
66.3500000000003,92,114,0
66.37500000000031,90,103,0
66.40000000000032,88,112,0
66.42500000000032,86,95,0
66.45000000000033,84,87,0
66.47500000000034,82,108,0
66.50000000000034,80,102,0
66.52500000000035,78,110,0
66.55000000000035,76,93,0
66.57500000000036,74,109,0
66.60000000000036,72,106,0
66.62500000000037,70,95,0
66.65000000000038,68,85,0
66.67500000000038,66,112,0
66.70000000000039,64,97,0
66.72500000000039,62,95,0
66.7500000000004,60,91,0
66.7750000000004,58,99,0
66.80000000000041,56,108,0
66.82500000000041,54,109,0
66.85000000000042,52,105,0
66.87500000000043,50,101,0
66.90000000000043,48,112,0
66.92500000000044,46,108,0
66.95000000000044,44,101,0
66.97500000000045,42,92,0
67.00000000000045,40,88,0
67.02500000000046,38,103,0
67.05000000000047,36,94,0
67.07500000000047,34,115,0
67.10000000000048,32,92,0
67.12500000000048,30,106,0
67.15000000000049,28,86,0
67.1750000000005,26,87,0
67.2000000000005,24,93,0
67.2250000000005,26,91,0
67.25000000000051,28,115,0
67.27500000000052,30,96,0
67.30000000000052,32,108,0
67.32500000000053,34,106,0
67.35000000000053,36,80,0
67.37500000000054,38,113,0
67.40000000000055,40,83,0
67.42500000000055,42,103,0
67.45000000000056,44,100,0
67.47500000000056,46,112,0
67.50000000000057,48,86,0
67.52500000000057,50,80,0
67.55000000000058,52,82,0
67.57500000000059,54,94,0
67.60000000000059,56,110,0
67.6250000000006,58,95,0
67.6500000000006,60,89,0
67.67500000000061,62,108,0
67.70000000000061,64,85,0
67.72500000000062,66,108,0
67.75000000000063,68,96,0
67.77500000000063,70,101,0
67.80000000000064,72,103,0
67.82500000000064,74,96,0
67.85000000000065,76,100,0
67.87500000000065,78,90,0
67.90000000000066,80,86,0
67.92500000000067,82,84,0
67.95000000000067,84,100,0
67.97500000000068,86,97,0
68.00000000000068,88,114,0
68.02500000000069,90,99,0
68.0500000000007,92,94,0
68.0750000000007,94,84,0
68.1000000000007,96,92,0
68.12500000000071,94,91,0
68.15000000000072,92,100,0
68.17500000000072,90,85,0
68.20000000000073,88,86,0
68.22500000000073,86,105,0
68.25000000000074,84,87,0
68.27500000000074,82,88,0
68.30000000000075,80,106,0
68.32500000000076,78,83,0
68.35000000000076,76,100,0
68.37500000000077,74,110,0
68.40000000000077,72,100,0
68.42500000000078,70,104,0
68.45000000000078,68,94,0
68.47500000000079,66,114,0
68.5000000000008,64,107,0
68.5250000000008,62,93,0
68.55000000000081,60,83,0
68.57500000000081,58,99,0
68.60000000000082,56,113,0
68.62500000000082,54,91,0
68.65000000000083,52,112,0
68.67500000000084,50,103,0
68.70000000000084,48,99,0
68.72500000000085,46,84,0
68.75000000000085,44,109,0
68.77500000000086,42,103,0
68.80000000000086,40,86,0
68.82500000000087,38,115,0
68.85000000000088,36,95,0
68.87500000000088,34,94,0
68.90000000000089,32,102,0
68.92500000000089,30,91,0
68.9500000000009,28,108,0
68.9750000000009,26,94,0
69.00000000000091,24,108,0
69.02500000000092,26,100,0
69.05000000000092,28,94,0
69.07500000000093,30,93,0
69.10000000000093,32,95,0
69.12500000000094,34,94,0
69.15000000000094,36,83,0
69.17500000000095,38,106,0
69.20000000000095,40,102,0
69.22500000000096,42,108,0
69.25000000000097,44,88,0
69.27500000000097,46,86,0
69.30000000000098,48,83,0
69.32500000000098,50,84,0
69.35000000000099,52,84,0
69.375000000001,54,90,0
69.400000000001,56,107,0
69.425000000001,58,95,0
69.45000000000101,60,109,0
69.47500000000102,62,83,0
69.50000000000102,64,81,0
69.52500000000103,66,82,0
69.55000000000103,68,100,0
69.57500000000104,70,85,0
69.60000000000105,72,97,0
69.62500000000105,74,84,0
69.65000000000106,76,88,0
69.67500000000106,78,99,0
69.70000000000107,80,107,0
69.72500000000107,82,105,0
69.75000000000108,84,97,0
69.77500000000109,86,98,0
69.80000000000109,88,82,0
69.8250000000011,90,88,0
69.8500000000011,92,115,0
69.87500000000111,94,110,0
69.90000000000111,96,96,0
69.92500000000112,94,102,0
69.95000000000113,92,113,0
69.97500000000113,90,84,0
70.00000000000114,88,94,0
70.02500000000114,86,82,0
70.05000000000115,84,98,0
70.07500000000115,82,107,0
70.10000000000116,80,82,0
70.12500000000117,78,83,0
70.15000000000117,76,103,0
70.17500000000118,74,110,0
70.20000000000118,72,90,0
70.22500000000119,70,80,0
70.2500000000012,68,88,0
70.2750000000012,66,96,0
70.3000000000012,64,80,0
70.32500000000121,62,82,0
70.35000000000122,60,105,0
70.37500000000122,58,110,0
70.40000000000123,56,105,0
70.42500000000123,54,102,0
70.45000000000124,52,109,0
70.47500000000124,50,89,0
70.50000000000125,48,87,0
70.52500000000126,46,104,0
70.55000000000126,44,101,0
70.57500000000127,42,94,0
70.60000000000127,40,89,0
70.62500000000128,38,99,0
70.65000000000128,36,102,0
70.67500000000129,34,80,0
70.7000000000013,32,81,0
70.7250000000013,30,98,0
70.75000000000131,28,93,0
70.77500000000131,26,87,0
70.80000000000132,24,91,0
70.82500000000132,26,105,0
70.85000000000133,28,106,0
70.87500000000134,30,108,0
70.90000000000134,32,94,0
70.92500000000135,34,80,0
70.95000000000135,36,107,0
70.97500000000136,38,82,0
71.00000000000136,40,97,0
71.02500000000137,42,113,0
71.05000000000138,44,111,0
71.07500000000138,46,108,0
71.10000000000139,48,104,0
71.12500000000139,50,105,0
71.1500000000014,52,87,0
71.1750000000014,54,98,0
71.20000000000141,56,101,0
71.22500000000142,58,108,0
71.25000000000142,60,112,0
71.27500000000143,62,114,0
71.30000000000143,64,82,0
71.32500000000144,66,98,0
71.35000000000144,68,89,0
71.37500000000145,70,106,0
71.40000000000146,72,94,0
71.42500000000146,74,90,0
71.45000000000147,76,105,0
71.47500000000147,78,103,0
71.50000000000148,80,92,0
71.52500000000148,82,111,0
71.55000000000149,84,83,0
71.5750000000015,86,92,0
71.6000000000015,88,88,0
71.6250000000015,90,113,0
71.65000000000151,92,86,0
71.67500000000152,94,80,0
71.70000000000152,96,91,0
71.72500000000153,94,100,0
71.75000000000153,92,90,0
71.77500000000154,90,93,0
71.80000000000155,88,113,0
71.82500000000155,86,113,0
71.85000000000156,84,104,0
71.87500000000156,82,83,0
71.90000000000157,80,105,0
71.92500000000157,78,95,0
71.95000000000158,76,89,0
71.97500000000159,74,81,0
72.00000000000159,72,114,0
72.0250000000016,70,98,0
72.0500000000016,68,85,0
72.07500000000161,66,98,0
72.10000000000161,64,87,0
72.12500000000162,62,93,0
72.15000000000163,60,89,0
72.17500000000163,58,82,0
72.20000000000164,56,108,0
72.22500000000164,54,94,0
72.25000000000165,52,102,0
72.27500000000165,50,102,0
72.30000000000166,48,97,0
72.32500000000167,46,98,0
72.35000000000167,44,107,0
72.37500000000168,42,105,0
72.40000000000168,40,89,0
72.42500000000169,38,83,0
72.4500000000017,36,81,0
72.4750000000017,34,82,0
72.5000000000017,32,86,0
72.52500000000171,30,95,0
72.55000000000172,28,110,0
72.57500000000172,26,89,0
72.60000000000173,24,98,0
72.62500000000173,26,107,0
72.65000000000174,28,96,0
72.67500000000175,30,107,0
72.70000000000175,32,98,0
72.72500000000176,34,102,0
72.75000000000176,36,99,0
72.77500000000177,38,92,0
72.80000000000177,40,92,0
72.82500000000178,42,90,0
72.85000000000178,44,94,0
72.87500000000179,46,96,0
72.9000000000018,48,107,0
72.9250000000018,50,98,0
72.95000000000181,52,83,0
72.97500000000181,54,101,0
73.00000000000182,56,101,0
73.02500000000182,58,113,0
73.05000000000183,60,112,0
73.07500000000184,62,112,0
73.10000000000184,64,91,0
73.12500000000185,66,81,0
73.15000000000185,68,107,0
73.17500000000186,70,89,0
73.20000000000186,72,101,0
73.22500000000187,74,96,0
73.25000000000188,76,105,0
73.27500000000188,78,82,0
73.30000000000189,80,86,0
73.32500000000189,82,87,0
73.3500000000019,84,99,0
73.3750000000019,86,91,0
73.40000000000191,88,114,0
73.42500000000192,90,96,0
73.45000000000192,92,107,0
73.47500000000193,94,89,0
73.50000000000193,96,101,0
73.52500000000194,94,112,0
73.55000000000194,92,101,0
73.57500000000195,90,92,0
73.60000000000196,88,106,0
73.62500000000196,86,94,0
73.65000000000197,84,101,0
73.67500000000197,82,109,0
73.70000000000198,80,113,0
73.72500000000198,78,113,0
73.75000000000199,76,114,0
73.775000000002,74,98,0
73.800000000002,72,87,0
73.825000000002,70,112,0
73.85000000000201,68,107,0
73.87500000000202,66,104,0
73.90000000000202,64,115,0
73.92500000000203,62,96,0
73.95000000000203,60,103,0
73.97500000000204,58,100,0
74.00000000000205,56,81,0
74.02500000000205,54,110,0
74.05000000000206,52,112,0
74.07500000000206,50,109,0
74.10000000000207,48,91,0
74.12500000000207,46,91,0
74.15000000000208,44,103,0
74.17500000000209,42,103,0
74.20000000000209,40,90,0
74.2250000000021,38,92,0
74.2500000000021,36,106,0
74.27500000000211,34,87,0
74.30000000000211,32,89,0
74.32500000000212,30,87,0
74.35000000000213,28,99,0
74.37500000000213,26,87,0
74.40000000000214,24,88,0
74.42500000000214,26,86,0
74.45000000000215,28,93,0
74.47500000000215,30,107,0
74.50000000000216,32,81,0
74.52500000000217,34,87,0
74.55000000000217,36,92,0
74.57500000000218,38,100,0
74.60000000000218,40,107,0
74.62500000000219,42,114,0
74.6500000000022,44,102,0
74.6750000000022,46,94,0
74.7000000000022,48,81,0
74.72500000000221,50,91,0
74.75000000000222,52,115,0
74.77500000000222,54,82,0
74.80000000000223,56,84,0
74.82500000000223,58,82,0
74.85000000000224,60,98,0
74.87500000000225,62,81,0
74.90000000000225,64,96,0
74.92500000000226,66,93,0
74.95000000000226,68,107,0
74.97500000000227,70,106,0
75.00000000000227,72,89,0
75.02500000000228,74,82,0
75.05000000000229,76,115,0
75.07500000000229,78,104,0
75.1000000000023,80,101,0
75.1250000000023,82,109,0
75.15000000000231,84,100,0
75.17500000000231,86,109,0
75.20000000000232,88,107,0
75.22500000000232,90,110,0
75.25000000000233,92,105,0
75.27500000000234,94,101,0
75.30000000000234,96,100,0
75.32500000000235,94,80,0
75.35000000000235,92,92,0
75.37500000000236,90,100,0
75.40000000000236,88,88,0
75.42500000000237,86,96,0
75.45000000000238,84,100,0
75.47500000000238,82,110,0
75.50000000000239,80,101,0
75.5250000000024,78,91,0
75.5500000000024,76,85,0
75.5750000000024,74,95,0
75.60000000000241,72,105,0
75.62500000000242,70,84,0
75.65000000000242,68,88,0
75.67500000000243,66,93,0
75.70000000000243,64,109,0
75.72500000000244,62,105,0
75.75000000000244,60,108,0
75.77500000000245,58,98,0
75.80000000000246,56,87,0
75.82500000000246,54,102,0
75.85000000000247,52,114,0
75.87500000000247,50,110,0
75.90000000000248,48,114,0
75.92500000000248,46,111,0
75.95000000000249,44,84,0
75.9750000000025,42,95,0
76.0000000000025,40,96,0
76.0250000000025,38,111,0
76.05000000000251,36,111,0
76.07500000000252,34,99,0
76.10000000000252,32,81,0
76.12500000000253,30,99,0
76.15000000000254,28,97,0
76.17500000000254,26,80,0
76.20000000000255,24,108,0
76.22500000000255,26,108,0
76.25000000000256,28,98,0
76.27500000000256,30,85,0
76.30000000000257,32,87,0
76.32500000000258,34,103,0
76.35000000000258,36,99,0
76.37500000000259,38,93,0
76.40000000000259,40,84,0
76.4250000000026,42,113,0
76.4500000000026,44,95,0
76.47500000000261,46,86,0
76.50000000000261,48,95,0
76.52500000000262,50,86,0
76.55000000000263,52,106,0
76.57500000000263,54,93,0
76.60000000000264,56,93,0
76.62500000000264,58,112,0
76.65000000000265,60,112,0
76.67500000000265,62,99,0
76.70000000000266,64,115,0
76.72500000000267,66,86,0
76.75000000000267,68,111,0
76.77500000000268,70,82,0
76.80000000000268,72,108,0
76.82500000000269,74,103,0
76.8500000000027,76,101,0
76.8750000000027,78,85,0
76.9000000000027,80,103,0
76.92500000000271,82,102,0
76.95000000000272,84,89,0
76.97500000000272,86,95,0
77.00000000000273,88,90,0
77.02500000000273,90,111,0
77.05000000000274,92,85,0
77.07500000000275,94,103,0
77.10000000000275,96,112,0
77.12500000000276,94,91,0
77.15000000000276,92,106,0
77.17500000000277,90,97,0
77.20000000000277,88,92,0
77.22500000000278,86,109,0
77.25000000000279,84,92,0
77.27500000000279,82,113,0
77.3000000000028,80,115,0
77.3250000000028,78,109,0
77.35000000000281,76,104,0
77.37500000000281,74,81,0
77.40000000000282,72,115,0
77.42500000000283,70,97,0
77.45000000000283,68,84,0
77.47500000000284,66,98,0
77.50000000000284,64,97,0
77.52500000000285,62,111,0
77.55000000000285,60,100,0
77.57500000000286,58,89,0
77.60000000000286,56,101,0
77.62500000000287,54,92,0
77.65000000000288,52,96,0
77.67500000000288,50,88,0
77.70000000000289,48,103,0
77.7250000000029,46,93,0
77.7500000000029,44,87,0
77.7750000000029,42,98,0
77.80000000000291,40,107,0
77.82500000000292,38,109,0
77.85000000000292,36,86,0
77.87500000000293,34,105,0
77.90000000000293,32,90,0
77.92500000000294,30,93,0
77.95000000000294,28,100,0
77.97500000000295,26,87,0
78.00000000000296,24,82,0
78.02500000000296,26,107,0
78.05000000000297,28,108,0
78.07500000000297,30,102,0
78.10000000000298,32,97,0
78.12500000000298,34,114,0
78.15000000000299,36,92,0
78.175000000003,38,91,0
78.200000000003,40,84,0
78.225000000003,42,90,0
78.25000000000301,44,90,0
78.27500000000302,46,110,0
78.30000000000302,48,110,0
78.32500000000303,50,92,0
78.35000000000304,52,93,0
78.37500000000304,54,104,0
78.40000000000305,56,112,0
78.42500000000305,58,112,0
78.45000000000306,60,94,0
78.47500000000306,62,95,0
78.50000000000307,64,85,0
78.52500000000308,66,104,0
78.55000000000308,68,94,0
78.57500000000309,70,83,0
78.60000000000309,72,83,0
78.6250000000031,74,109,0
78.6500000000031,76,113,0
78.67500000000311,78,106,0
78.70000000000312,80,110,0
78.72500000000312,82,111,0
78.75000000000313,84,88,0
78.77500000000313,86,87,0
78.80000000000314,88,93,0
78.82500000000314,90,112,0
78.85000000000315,92,102,0
78.87500000000315,94,100,0
78.90000000000316,96,91,0
78.92500000000317,94,81,0
78.95000000000317,92,92,0
78.97500000000318,90,83,0
79.00000000000318,88,99,0
79.02500000000319,86,93,0
79.0500000000032,84,109,0
79.0750000000032,82,108,0
79.1000000000032,80,87,0
79.12500000000321,78,91,0
79.15000000000322,76,105,0
79.17500000000322,74,81,0
79.20000000000323,72,93,0
79.22500000000323,70,85,0
79.25000000000324,68,110,0
79.27500000000325,66,96,0
79.30000000000325,64,104,0
79.32500000000326,62,111,0
79.35000000000326,60,91,0
79.37500000000327,58,92,0
79.40000000000327,56,98,0
79.42500000000328,54,104,0
79.45000000000329,52,110,0
79.47500000000329,50,104,0
79.5000000000033,48,95,0
79.5250000000033,46,102,0
79.55000000000331,44,93,0
79.57500000000331,42,85,0
79.60000000000332,40,104,0
79.62500000000333,38,102,0
79.65000000000333,36,91,0
79.67500000000334,34,92,0
79.70000000000334,32,115,0
79.72500000000335,30,113,0
79.75000000000335,28,85,0
79.77500000000336,26,87,0
79.80000000000337,24,87,0
79.82500000000337,26,112,0
79.85000000000338,28,113,0
79.87500000000338,30,94,0
79.90000000000339,32,115,0
79.9250000000034,34,114,0
79.9500000000034,36,101,0
79.9750000000034,38,102,0
80.00000000000341,40,101,0
80.02500000000342,42,84,0
80.05000000000342,44,110,0
80.07500000000343,46,92,0
80.10000000000343,48,107,0
80.12500000000344,50,99,0
80.15000000000344,52,112,0
80.17500000000345,54,95,0
80.20000000000346,56,108,0
80.22500000000346,58,102,0
80.25000000000347,60,103,0
80.27500000000347,62,113,0
80.30000000000348,64,86,0
80.32500000000348,66,83,0
80.35000000000349,68,113,0
80.3750000000035,70,101,0
80.4000000000035,72,84,0
80.42500000000351,74,102,0
80.45000000000351,76,94,0
80.47500000000352,78,110,0
80.50000000000352,80,88,0
80.52500000000353,82,104,0
80.55000000000354,84,104,0
80.57500000000354,86,100,0
80.60000000000355,88,88,0
80.62500000000355,90,101,0
80.65000000000356,92,102,0
80.67500000000356,94,83,0
80.70000000000357,96,108,0
80.72500000000358,94,94,0
80.75000000000358,92,80,0
80.77500000000359,90,109,0
80.80000000000359,88,108,0
80.8250000000036,86,99,0
80.8500000000036,84,112,0
80.87500000000361,82,115,0
80.90000000000362,80,101,0
80.92500000000362,78,92,0
80.95000000000363,76,86,0
80.97500000000363,74,87,0
81.00000000000364,72,107,0
81.02500000000364,70,88,0
81.05000000000365,68,104,0
81.07500000000366,66,95,0
81.10000000000366,64,89,0
81.12500000000367,62,90,0
81.15000000000367,60,110,0
81.17500000000368,58,91,0
81.20000000000368,56,110,0
81.22500000000369,54,93,0
81.2500000000037,52,111,0
81.2750000000037,50,96,0
81.3000000000037,48,114,0
81.32500000000371,46,80,0
81.35000000000372,44,108,0
81.37500000000372,42,83,0
81.40000000000373,40,102,0
81.42500000000373,38,107,0
81.45000000000374,36,95,0
81.47500000000375,34,91,0
81.50000000000375,32,100,0
81.52500000000376,30,96,0
81.55000000000376,28,92,0
81.57500000000377,26,111,0
81.60000000000377,24,94,0
81.62500000000378,26,91,0
81.65000000000379,28,94,0
81.67500000000379,30,113,0
81.7000000000038,32,85,0
81.7250000000038,34,96,0
81.75000000000381,36,99,0
81.77500000000381,38,88,0
81.80000000000382,40,84,0
81.82500000000383,42,102,0
81.85000000000383,44,112,0
81.87500000000384,46,93,0
81.90000000000384,48,96,0
81.92500000000385,50,98,0
81.95000000000385,52,112,0
81.97500000000386,54,80,0
82.00000000000387,56,92,0
82.02500000000387,58,106,0
82.05000000000388,60,85,0
82.07500000000388,62,85,0
82.10000000000389,64,112,0
82.1250000000039,66,109,0
82.1500000000039,68,114,0
82.1750000000039,70,102,0
82.20000000000391,72,89,0
82.22500000000392,74,98,0
82.25000000000392,76,107,0
82.27500000000393,78,102,0
82.30000000000393,80,83,0
82.32500000000394,82,99,0
82.35000000000394,84,98,0
82.37500000000395,86,106,0
82.40000000000396,88,113,0
82.42500000000396,90,83,0
82.45000000000397,92,86,0
82.47500000000397,94,86,0
82.50000000000398,96,105,0
82.52500000000398,94,105,0
82.55000000000399,92,98,0
82.575000000004,90,88,0
82.600000000004,88,99,0
82.62500000000401,86,95,0
82.65000000000401,84,96,0
82.67500000000402,82,101,0
82.70000000000402,80,92,0
82.72500000000403,78,91,0
82.75000000000404,76,89,0
82.77500000000404,74,80,0
82.80000000000405,72,111,0
82.82500000000405,70,109,0
82.85000000000406,68,87,0
82.87500000000406,66,100,0
82.90000000000407,64,101,0
82.92500000000408,62,97,0
82.95000000000408,60,81,0
82.97500000000409,58,88,0
83.00000000000409,56,82,0
83.0250000000041,54,105,0
83.0500000000041,52,100,0
83.07500000000411,50,109,0
83.10000000000412,48,107,0
83.12500000000412,46,115,0
83.15000000000413,44,105,0
83.17500000000413,42,113,0
83.20000000000414,40,87,0
83.22500000000414,38,89,0
83.25000000000415,36,93,0
83.27500000000416,34,94,0
83.30000000000416,32,96,0
83.32500000000417,30,97,0
83.35000000000417,28,111,0
83.37500000000418,26,102,0
83.40000000000418,24,102,0
83.42500000000419,26,114,0
83.4500000000042,28,94,0
83.4750000000042,30,103,0
83.5000000000042,32,107,0
83.52500000000421,34,95,0
83.55000000000422,36,95,0
83.57500000000422,38,85,0
83.60000000000423,40,81,0
83.62500000000423,42,92,0
83.65000000000424,44,88,0
83.67500000000425,46,113,0
83.70000000000425,48,96,0
83.72500000000426,50,106,0
83.75000000000426,52,108,0
83.77500000000427,54,101,0
83.80000000000427,56,103,0
83.82500000000428,58,86,0
83.85000000000429,60,113,0
83.87500000000429,62,91,0
83.9000000000043,64,102,0
83.9250000000043,66,94,0
83.95000000000431,68,112,0
83.97500000000431,70,92,0
84.00000000000432,72,102,0
84.02500000000433,74,111,0
84.05000000000433,76,114,0
84.07500000000434,78,80,0
84.10000000000434,80,84,0
84.12500000000435,82,92,0
84.15000000000435,84,84,0
84.17500000000436,86,111,0
84.20000000000437,88,100,0
84.22500000000437,90,103,0
84.25000000000438,92,97,0
84.27500000000438,94,100,0
84.30000000000439,96,89,0
84.3250000000044,94,103,0
84.3500000000044,92,100,0
84.3750000000044,90,104,0
84.40000000000441,88,102,0
84.42500000000442,86,101,0
84.45000000000442,84,83,0
84.47500000000443,82,113,0
84.50000000000443,80,85,0
84.52500000000444,78,107,0
84.55000000000445,76,110,0
84.57500000000445,74,114,0
84.60000000000446,72,102,0
84.62500000000446,70,85,0
84.65000000000447,68,95,0
84.67500000000447,66,81,0
84.70000000000448,64,103,0
84.72500000000448,62,96,0
84.75000000000449,60,80,0
84.7750000000045,58,85,0
84.8000000000045,56,84,0
84.82500000000451,54,108,0
84.85000000000451,52,91,0
84.87500000000452,50,82,0
84.90000000000452,48,80,0
84.92500000000453,46,106,0
84.95000000000454,44,103,0
84.97500000000454,42,98,0
85.00000000000455,40,87,0
85.02500000000455,38,81,0
85.05000000000456,36,109,0
85.07500000000456,34,109,0
85.10000000000457,32,111,0
85.12500000000458,30,80,0
85.15000000000458,28,92,0
85.17500000000459,26,90,0
85.2000000000046,24,89,0
85.2250000000046,26,105,0
85.2500000000046,28,99,0
85.27500000000461,30,96,0
85.30000000000462,32,96,0
85.32500000000462,34,83,0
85.35000000000463,36,84,0
85.37500000000463,38,102,0
85.40000000000464,40,89,0
85.42500000000464,42,107,0
85.45000000000465,44,112,0
85.47500000000466,46,105,0
85.50000000000466,48,108,0
85.52500000000467,50,106,0
85.55000000000467,52,97,0
85.57500000000468,54,89,0
85.60000000000468,56,84,0
85.62500000000469,58,89,0
85.6500000000047,60,100,0
85.6750000000047,62,103,0
85.7000000000047,64,82,0
85.72500000000471,66,110,0
85.75000000000472,68,81,0
85.77500000000472,70,81,0
85.80000000000473,72,113,0
85.82500000000474,74,99,0
85.85000000000474,76,112,0
85.87500000000475,78,83,0
85.90000000000475,80,90,0
85.92500000000476,82,84,0
85.95000000000476,84,104,0
85.97500000000477,86,113,0
86.00000000000477,88,88,0
86.02500000000478,90,85,0
86.05000000000479,92,97,0
86.07500000000479,94,93,0
86.1000000000048,96,98,0
86.1250000000048,94,93,0
86.15000000000481,92,96,0
86.17500000000481,90,114,0
86.20000000000482,88,108,0
86.22500000000483,86,96,0
86.25000000000483,84,87,0
86.27500000000484,82,80,0
86.30000000000484,80,115,0
86.32500000000485,78,86,0
86.35000000000485,76,84,0
86.37500000000486,74,103,0
86.40000000000487,72,107,0
86.42500000000487,70,96,0
86.45000000000488,68,99,0
86.47500000000488,66,82,0
86.50000000000489,64,105,0
86.5250000000049,62,94,0
86.5500000000049,60,87,0
86.5750000000049,58,92,0
86.60000000000491,56,82,0
86.62500000000492,54,80,0
86.65000000000492,52,88,0
86.67500000000493,50,110,0
86.70000000000493,48,105,0
86.72500000000494,46,96,0
86.75000000000495,44,113,0
86.77500000000495,42,88,0
86.80000000000496,40,92,0
86.82500000000496,38,84,0
86.85000000000497,36,92,0
86.87500000000497,34,80,0
86.90000000000498,32,104,0
86.92500000000499,30,83,0
86.95000000000499,28,115,0
86.975000000005,26,89,0
87.000000000005,24,107,0
87.02500000000501,26,85,0
87.05000000000501,28,106,0
87.07500000000502,30,91,0
87.10000000000502,32,82,0
87.12500000000503,34,112,0
87.15000000000504,36,89,0
87.17500000000504,38,110,0
87.20000000000505,40,94,0
87.22500000000505,42,86,0
87.25000000000506,44,115,0
87.27500000000506,46,93,0
87.30000000000507,48,93,0
87.32500000000508,50,82,0
87.35000000000508,52,82,0
87.37500000000509,54,101,0
87.4000000000051,56,98,0
87.4250000000051,58,114,0
87.4500000000051,60,91,0
87.47500000000511,62,84,0
87.50000000000512,64,89,0
87.52500000000512,66,112,0
87.55000000000513,68,92,0
87.57500000000513,70,114,0
87.60000000000514,72,111,0
87.62500000000514,74,90,0
87.65000000000515,76,103,0
87.67500000000516,78,114,0
87.70000000000516,80,98,0
87.72500000000517,82,85,0
87.75000000000517,84,114,0
87.77500000000518,86,83,0
87.80000000000518,88,112,0
87.82500000000519,90,92,0
87.8500000000052,92,115,0
87.8750000000052,94,98,0
87.9000000000052,96,91,0
87.92500000000521,94,90,0
87.95000000000522,92,85,0
87.97500000000522,90,91,0
88.00000000000523,88,106,0
88.02500000000524,86,104,0
88.05000000000524,84,82,0
88.07500000000525,82,82,0
88.10000000000525,80,99,0
88.12500000000526,78,107,0
88.15000000000526,76,102,0
88.17500000000527,74,82,0
88.20000000000528,72,103,0
88.22500000000528,70,85,0
88.25000000000529,68,99,0
88.27500000000529,66,90,0
88.3000000000053,64,111,0
88.3250000000053,62,106,0
88.35000000000531,60,100,0
88.37500000000531,58,92,0
88.40000000000532,56,101,0
88.42500000000533,54,114,0
88.45000000000533,52,101,0
88.47500000000534,50,107,0
88.50000000000534,48,100,0
88.52500000000535,46,97,0
88.55000000000535,44,110,0
88.57500000000536,42,100,0
88.60000000000537,40,93,0
88.62500000000537,38,104,0
88.65000000000538,36,106,0
88.67500000000538,34,102,0
88.70000000000539,32,110,0
88.7250000000054,30,108,0
88.7500000000054,28,109,0
88.7750000000054,26,105,0
88.80000000000541,24,99,0
88.82500000000542,26,98,0
88.85000000000542,28,106,0
88.87500000000543,30,104,0
88.90000000000543,32,102,0
88.92500000000544,34,108,0
88.95000000000545,36,94,0
88.97500000000545,38,82,0
89.00000000000546,40,89,0
89.02500000000546,42,94,0
89.05000000000547,44,95,0
89.07500000000547,46,96,0
89.10000000000548,48,98,0
89.12500000000549,50,90,0
89.15000000000549,52,84,0
89.1750000000055,54,84,0
89.2000000000055,56,93,0
89.22500000000551,58,105,0
89.25000000000551,60,87,0
89.27500000000552,62,84,0
89.30000000000553,64,86,0
89.32500000000553,66,95,0
89.35000000000554,68,93,0
89.37500000000554,70,83,0
89.40000000000555,72,115,0
89.42500000000555,74,96,0
89.45000000000556,76,115,0
89.47500000000556,78,85,0
89.50000000000557,80,95,0
89.52500000000558,82,108,0
89.55000000000558,84,115,0
89.57500000000559,86,89,0
89.6000000000056,88,115,0
89.6250000000056,90,108,0
89.6500000000056,92,93,0
89.67500000000561,94,83,0
89.70000000000562,96,115,0
89.72500000000562,94,92,0
89.75000000000563,92,97,0
89.77500000000563,90,112,0
89.80000000000564,88,100,0
89.82500000000564,86,95,0
89.85000000000565,84,94,0
89.87500000000566,82,84,0
89.90000000000566,80,85,0
89.92500000000567,78,82,0
89.95000000000567,76,91,0
89.97500000000568,74,115,0
