onset_time,pitch,velocity,voice_id,section_id,symbol
0.0,46,512,0,0,A
0.0,59,512,1,0,A
0.1,88,512,0,0,A
0.1,71,512,1,0,A
0.2,75,512,0,0,A
0.2,59,512,1,0,A
0.30000000000000004,38,512,0,0,A
0.30000000000000004,57,512,1,0,A
0.4,88,512,0,0,A
0.4,37,512,1,0,A
0.5,59,512,0,0,A
0.5,79,512,1,0,A
0.6,65,512,0,0,A
0.6,73,512,1,0,A
0.7,37,512,0,0,A
0.7,95,512,1,0,A
0.7999999999999999,56,512,0,0,A
0.7999999999999999,68,512,1,0,A
0.8999999999999999,47,512,0,0,A
0.8999999999999999,93,512,1,0,A
0.9999999999999999,57,512,0,0,A
0.9999999999999999,96,512,1,0,A
1.0999999999999999,79,512,0,0,A
1.0999999999999999,60,512,1,0,A
1.2,84,512,0,0,A
1.2,62,512,1,0,A
1.3,94,512,0,0,A
1.3,77,512,1,0,A
1.4000000000000001,63,512,0,0,A
1.4000000000000001,95,512,1,0,A
1.5000000000000002,51,512,0,0,A
1.5000000000000002,50,512,1,0,A
1.6000000000000003,82,512,0,0,A
1.6000000000000003,86,512,1,0,A
1.7000000000000004,79,512,0,0,A
1.7000000000000004,90,512,1,0,A
1.8000000000000005,87,512,0,0,A
1.8000000000000005,92,512,1,0,A
1.9000000000000006,38,512,0,0,A
1.9000000000000006,72,512,1,0,A
2.0000000000000004,86,512,0,0,A
2.0000000000000004,42,512,1,0,A
2.1000000000000005,56,512,0,0,A
2.1000000000000005,44,512,1,0,A
2.2000000000000006,74,512,0,0,A
2.2000000000000006,53,512,1,0,A
2.3000000000000007,39,512,0,0,A
2.3000000000000007,60,512,1,0,A
2.400000000000001,95,512,0,0,A
2.400000000000001,49,512,1,0,A
2.500000000000001,85,512,0,0,A
2.500000000000001,93,512,1,0,A
2.600000000000001,44,512,0,0,A
2.600000000000001,61,512,1,0,A
2.700000000000001,88,512,0,0,A
2.700000000000001,37,512,1,0,A
2.800000000000001,55,512,0,0,A
2.800000000000001,63,512,1,0,A
2.9000000000000012,82,512,0,0,A
2.9000000000000012,95,512,1,0,A
3.0000000000000013,42,512,0,0,A
3.0000000000000013,79,512,1,0,A
3.1000000000000014,96,512,0,0,A
3.1000000000000014,43,512,1,0,A
3.2000000000000015,82,512,0,0,A
3.2000000000000015,70,512,1,0,A
3.3000000000000016,49,512,0,0,A
3.3000000000000016,52,512,1,0,A
3.4000000000000017,71,512,0,0,A
3.4000000000000017,85,512,1,0,A
3.5000000000000018,75,512,0,0,A
3.5000000000000018,39,512,1,0,A
3.600000000000002,37,512,0,0,A
3.600000000000002,41,512,1,0,A
3.700000000000002,89,512,0,0,A
3.700000000000002,77,512,1,0,A
3.800000000000002,39,512,0,0,A
3.800000000000002,89,512,1,0,A
3.900000000000002,64,512,0,0,A
3.900000000000002,53,512,1,0,A
4.000000000000002,61,512,0,0,A
4.000000000000002,79,512,1,0,A
4.100000000000001,69,512,0,0,A
4.100000000000001,45,512,1,0,A
4.200000000000001,71,512,0,0,A
4.200000000000001,49,512,1,0,A
4.300000000000001,66,512,0,0,A
4.300000000000001,83,512,1,0,A
4.4,50,512,0,0,A
4.4,43,512,1,0,A
4.5,49,512,0,0,A
4.5,58,512,1,0,A
4.6,95,512,0,0,A
4.6,92,512,1,0,A
4.699999999999999,75,512,0,0,A
4.699999999999999,56,512,1,0,A
4.799999999999999,51,512,0,0,A
4.799999999999999,80,512,1,0,A
4.899999999999999,53,512,0,0,A
4.899999999999999,82,512,1,0,A
4.999999999999998,88,512,0,0,A
4.999999999999998,59,512,1,0,A
5.099999999999998,61,512,0,0,A
5.099999999999998,60,512,1,0,A
5.1999999999999975,95,512,0,0,A
5.1999999999999975,95,512,1,0,A
5.299999999999997,95,512,0,0,A
5.299999999999997,80,512,1,0,A
5.399999999999997,76,512,0,0,A
5.399999999999997,64,512,1,0,A
5.4999999999999964,50,512,0,0,A
5.4999999999999964,80,512,1,0,A
5.599999999999996,36,512,0,0,A
5.599999999999996,60,512,1,0,A
5.699999999999996,42,512,0,0,A
5.699999999999996,44,512,1,0,A
5.799999999999995,59,512,0,0,A
5.799999999999995,36,512,1,0,A
5.899999999999995,79,512,0,0,A
5.899999999999995,43,512,1,0,A
5.999999999999995,59,512,0,0,A
5.999999999999995,46,512,1,0,A
6.099999999999994,86,512,0,0,A
6.099999999999994,52,512,1,0,A
6.199999999999994,43,512,0,0,A
6.199999999999994,70,512,1,0,A
6.299999999999994,70,512,0,0,A
6.299999999999994,68,512,1,0,A
6.399999999999993,94,512,0,0,A
6.399999999999993,40,512,1,0,A
6.499999999999993,77,512,0,0,A
6.499999999999993,74,512,1,0,A
6.5999999999999925,93,512,0,0,A
6.5999999999999925,76,512,1,0,A
6.699999999999992,63,512,0,0,A
6.699999999999992,42,512,1,0,A
6.799999999999992,44,512,0,0,A
6.799999999999992,43,512,1,0,A
6.8999999999999915,47,512,0,0,A
6.8999999999999915,69,512,1,0,A
6.999999999999991,68,512,0,0,A
6.999999999999991,83,512,1,0,A
7.099999999999991,90,512,0,0,A
7.099999999999991,58,512,1,0,A
7.19999999999999,59,512,0,0,A
7.19999999999999,72,512,1,0,A
7.29999999999999,70,512,0,0,A
7.29999999999999,79,512,1,0,A
7.39999999999999,75,512,0,0,A
7.39999999999999,57,512,1,0,A
7.499999999999989,62,512,0,0,A
7.499999999999989,70,512,1,0,A
7.599999999999989,36,512,0,0,A
7.599999999999989,70,512,1,0,A
7.699999999999989,72,512,0,0,A
7.699999999999989,82,512,1,0,A
7.799999999999988,49,512,0,0,A
7.799999999999988,38,512,1,0,A
7.899999999999988,36,512,0,0,A
7.899999999999988,40,512,1,0,A
7.999999999999988,61,512,0,0,A
7.999999999999988,90,512,1,0,A
8.099999999999987,49,512,0,0,A
8.099999999999987,74,512,1,0,A
8.199999999999987,62,512,0,0,A
8.199999999999987,44,512,1,0,A
8.299999999999986,50,512,0,0,A
8.299999999999986,50,512,1,0,A
8.399999999999986,61,512,0,0,A
8.399999999999986,77,512,1,0,A
8.499999999999986,95,512,0,0,A
8.499999999999986,48,512,1,0,A
8.599999999999985,86,512,0,0,A
8.599999999999985,67,512,1,0,A
8.699999999999985,74,512,0,0,A
8.699999999999985,84,512,1,0,A
8.799999999999985,87,512,0,0,A
8.799999999999985,96,512,1,0,A
8.899999999999984,67,512,0,0,A
8.899999999999984,39,512,1,0,A
8.999999999999984,65,512,0,0,A
8.999999999999984,72,512,1,0,A
9.099999999999984,58,512,0,0,A
9.099999999999984,74,512,1,0,A
9.199999999999983,80,512,0,0,A
9.199999999999983,50,512,1,0,A
9.299999999999983,78,512,0,0,A
9.299999999999983,64,512,1,0,A
9.399999999999983,71,512,0,0,A
9.399999999999983,48,512,1,0,A
9.499999999999982,67,512,0,0,A
9.499999999999982,42,512,1,0,A
9.599999999999982,94,512,0,0,A
9.599999999999982,86,512,1,0,A
9.699999999999982,57,512,0,0,A
9.699999999999982,63,512,1,0,A
9.799999999999981,37,512,0,0,A
9.799999999999981,77,512,1,0,A
9.89999999999998,80,512,0,0,A
9.89999999999998,92,512,1,0,A
9.99999999999998,88,512,0,0,A
9.99999999999998,41,512,1,0,A
10.0,83,512,0,1,B
10.0,83,512,1,1,B
10.1,69,512,0,1,B
10.1,86,512,1,1,B
10.2,53,512,0,1,B
10.2,83,512,1,1,B
10.299999999999999,77,512,0,1,B
10.299999999999999,91,512,1,1,B
10.399999999999999,36,512,0,1,B
10.399999999999999,81,512,1,1,B
10.499999999999998,57,512,0,1,B
10.499999999999998,40,512,1,1,B
10.599999999999998,45,512,0,1,B
10.599999999999998,48,512,1,1,B
10.699999999999998,81,512,0,1,B
10.699999999999998,50,512,1,1,B
10.799999999999997,91,512,0,1,B
10.799999999999997,76,512,1,1,B
10.899999999999997,60,512,0,1,B
10.899999999999997,89,512,1,1,B
10.999999999999996,89,512,0,1,B
10.999999999999996,76,512,1,1,B
11.099999999999996,55,512,0,1,B
11.099999999999996,38,512,1,1,B
11.199999999999996,40,512,0,1,B
11.199999999999996,64,512,1,1,B
11.299999999999995,38,512,0,1,B
11.299999999999995,38,512,1,1,B
11.399999999999995,83,512,0,1,B
11.399999999999995,74,512,1,1,B
11.499999999999995,89,512,0,1,B
11.499999999999995,91,512,1,1,B
11.599999999999994,36,512,0,1,B
11.599999999999994,67,512,1,1,B
11.699999999999994,38,512,0,1,B
11.699999999999994,79,512,1,1,B
11.799999999999994,89,512,0,1,B
11.799999999999994,45,512,1,1,B
11.899999999999993,89,512,0,1,B
11.899999999999993,41,512,1,1,B
11.999999999999993,53,512,0,1,B
11.999999999999993,64,512,1,1,B
12.099999999999993,76,512,0,1,B
12.099999999999993,43,512,1,1,B
12.199999999999992,93,512,0,1,B
12.199999999999992,45,512,1,1,B
12.299999999999992,72,512,0,1,B
12.299999999999992,53,512,1,1,B
12.399999999999991,62,512,0,1,B
12.399999999999991,91,512,1,1,B
12.499999999999991,50,512,0,1,B
12.499999999999991,45,512,1,1,B
12.59999999999999,62,512,0,1,B
12.59999999999999,84,512,1,1,B
12.69999999999999,40,512,0,1,B
12.69999999999999,69,512,1,1,B
12.79999999999999,96,512,0,1,B
12.79999999999999,67,512,1,1,B
12.89999999999999,79,512,0,1,B
12.89999999999999,40,512,1,1,B
12.99999999999999,67,512,0,1,B
12.99999999999999,69,512,1,1,B
13.099999999999989,89,512,0,1,B
13.099999999999989,47,512,1,1,B
13.199999999999989,91,512,0,1,B
13.199999999999989,65,512,1,1,B
13.299999999999988,36,512,0,1,B
13.299999999999988,53,512,1,1,B
13.399999999999988,83,512,0,1,B
13.399999999999988,77,512,1,1,B
13.499999999999988,74,512,0,1,B
13.499999999999988,88,512,1,1,B
13.599999999999987,86,512,0,1,B
13.599999999999987,95,512,1,1,B
13.699999999999987,47,512,0,1,B
13.699999999999987,62,512,1,1,B
13.799999999999986,79,512,0,1,B
13.799999999999986,38,512,1,1,B
13.899999999999986,36,512,0,1,B
13.899999999999986,55,512,1,1,B
13.999999999999986,43,512,0,1,B
13.999999999999986,89,512,1,1,B
14.099999999999985,50,512,0,1,B
14.099999999999985,95,512,1,1,B
14.199999999999985,67,512,0,1,B
14.199999999999985,62,512,1,1,B
14.299999999999985,40,512,0,1,B
14.299999999999985,69,512,1,1,B
14.399999999999984,76,512,0,1,B
14.399999999999984,91,512,1,1,B
14.499999999999984,76,512,0,1,B
14.499999999999984,53,512,1,1,B
14.599999999999984,48,512,0,1,B
14.599999999999984,96,512,1,1,B
14.699999999999983,69,512,0,1,B
14.699999999999983,95,512,1,1,B
14.799999999999983,77,512,0,1,B
14.799999999999983,95,512,1,1,B
14.899999999999983,77,512,0,1,B
14.899999999999983,84,512,1,1,B
14.999999999999982,65,512,0,1,B
14.999999999999982,65,512,1,1,B
15.099999999999982,38,512,0,1,B
15.099999999999982,95,512,1,1,B
15.199999999999982,62,512,0,1,B
15.199999999999982,96,512,1,1,B
15.299999999999981,91,512,0,1,B
15.299999999999981,41,512,1,1,B
15.39999999999998,91,512,0,1,B
15.39999999999998,59,512,1,1,B
15.49999999999998,71,512,0,1,B
15.49999999999998,69,512,1,1,B
15.59999999999998,48,512,0,1,B
15.59999999999998,47,512,1,1,B
15.69999999999998,40,512,0,1,B
15.69999999999998,64,512,1,1,B
15.79999999999998,91,512,0,1,B
15.79999999999998,55,512,1,1,B
15.899999999999979,72,512,0,1,B
15.899999999999979,72,512,1,1,B
15.999999999999979,86,512,0,1,B
15.999999999999979,48,512,1,1,B
16.09999999999998,81,512,0,1,B
16.09999999999998,81,512,1,1,B
16.19999999999998,93,512,0,1,B
16.19999999999998,71,512,1,1,B
16.299999999999983,86,512,0,1,B
16.299999999999983,91,512,1,1,B
16.399999999999984,83,512,0,1,B
16.399999999999984,91,512,1,1,B
16.499999999999986,43,512,0,1,B
16.499999999999986,67,512,1,1,B
16.599999999999987,41,512,0,1,B
16.599999999999987,95,512,1,1,B
16.69999999999999,64,512,0,1,B
16.69999999999999,83,512,1,1,B
16.79999999999999,86,512,0,1,B
16.79999999999999,84,512,1,1,B
16.89999999999999,45,512,0,1,B
16.89999999999999,95,512,1,1,B
16.999999999999993,76,512,0,1,B
16.999999999999993,84,512,1,1,B
17.099999999999994,88,512,0,1,B
17.099999999999994,95,512,1,1,B
17.199999999999996,91,512,0,1,B
17.199999999999996,71,512,1,1,B
17.299999999999997,89,512,0,1,B
17.299999999999997,74,512,1,1,B
17.4,91,512,0,1,B
17.4,40,512,1,1,B
17.5,65,512,0,1,B
17.5,77,512,1,1,B
17.6,88,512,0,1,B
17.6,40,512,1,1,B
17.700000000000003,76,512,0,1,B
17.700000000000003,89,512,1,1,B
17.800000000000004,72,512,0,1,B
17.800000000000004,74,512,1,1,B
17.900000000000006,38,512,0,1,B
17.900000000000006,81,512,1,1,B
18.000000000000007,38,512,0,1,B
18.000000000000007,79,512,1,1,B
18.10000000000001,64,512,0,1,B
18.10000000000001,91,512,1,1,B
18.20000000000001,50,512,0,1,B
18.20000000000001,84,512,1,1,B
18.30000000000001,79,512,0,1,B
18.30000000000001,95,512,1,1,B
18.400000000000013,77,512,0,1,B
18.400000000000013,76,512,1,1,B
18.500000000000014,57,512,0,1,B
18.500000000000014,47,512,1,1,B
18.600000000000016,96,512,0,1,B
18.600000000000016,69,512,1,1,B
18.700000000000017,36,512,0,1,B
18.700000000000017,48,512,1,1,B
18.80000000000002,62,512,0,1,B
18.80000000000002,59,512,1,1,B
18.90000000000002,55,512,0,1,B
18.90000000000002,74,512,1,1,B
19.00000000000002,60,512,0,1,B
19.00000000000002,83,512,1,1,B
19.100000000000023,93,512,0,1,B
19.100000000000023,38,512,1,1,B
19.200000000000024,89,512,0,1,B
19.200000000000024,74,512,1,1,B
19.300000000000026,72,512,0,1,B
19.300000000000026,77,512,1,1,B
19.400000000000027,72,512,0,1,B
19.400000000000027,72,512,1,1,B
19.50000000000003,45,512,0,1,B
19.50000000000003,60,512,1,1,B
19.60000000000003,91,512,0,1,B
19.60000000000003,48,512,1,1,B
19.70000000000003,43,512,0,1,B
19.70000000000003,41,512,1,1,B
19.800000000000033,45,512,0,1,B
19.800000000000033,89,512,1,1,B
19.900000000000034,86,512,0,1,B
19.900000000000034,95,512,1,1,B
20.0,90,512,0,2,A
20.0,75,512,1,2,A
20.1,87,512,0,2,A
20.1,51,512,1,2,A
20.200000000000003,48,512,0,2,A
20.200000000000003,85,512,1,2,A
20.300000000000004,95,512,0,2,A
20.300000000000004,77,512,1,2,A
20.400000000000006,65,512,0,2,A
20.400000000000006,54,512,1,2,A
20.500000000000007,52,512,0,2,A
20.500000000000007,91,512,1,2,A
20.60000000000001,54,512,0,2,A
20.60000000000001,63,512,1,2,A
20.70000000000001,93,512,0,2,A
20.70000000000001,90,512,1,2,A
20.80000000000001,61,512,0,2,A
20.80000000000001,72,512,1,2,A
20.900000000000013,61,512,0,2,A
20.900000000000013,88,512,1,2,A
21.000000000000014,58,512,0,2,A
21.000000000000014,44,512,1,2,A
21.100000000000016,47,512,0,2,A
21.100000000000016,88,512,1,2,A
21.200000000000017,36,512,0,2,A
21.200000000000017,93,512,1,2,A
21.30000000000002,93,512,0,2,A
21.30000000000002,36,512,1,2,A
21.40000000000002,82,512,0,2,A
21.40000000000002,69,512,1,2,A
21.50000000000002,67,512,0,2,A
21.50000000000002,89,512,1,2,A
21.600000000000023,83,512,0,2,A
21.600000000000023,60,512,1,2,A
21.700000000000024,75,512,0,2,A
21.700000000000024,80,512,1,2,A
21.800000000000026,88,512,0,2,A
21.800000000000026,36,512,1,2,A
21.900000000000027,51,512,0,2,A
21.900000000000027,96,512,1,2,A
22.00000000000003,74,512,0,2,A
22.00000000000003,40,512,1,2,A
22.10000000000003,57,512,0,2,A
22.10000000000003,64,512,1,2,A
22.20000000000003,90,512,0,2,A
22.20000000000003,38,512,1,2,A
22.300000000000033,47,512,0,2,A
22.300000000000033,61,512,1,2,A
22.400000000000034,51,512,0,2,A
22.400000000000034,86,512,1,2,A
22.500000000000036,72,512,0,2,A
22.500000000000036,57,512,1,2,A
22.600000000000037,92,512,0,2,A
22.600000000000037,64,512,1,2,A
22.70000000000004,49,512,0,2,A
22.70000000000004,63,512,1,2,A
22.80000000000004,40,512,0,2,A
22.80000000000004,82,512,1,2,A
22.90000000000004,84,512,0,2,A
22.90000000000004,65,512,1,2,A
23.000000000000043,81,512,0,2,A
23.000000000000043,87,512,1,2,A
23.100000000000044,40,512,0,2,A
23.100000000000044,47,512,1,2,A
23.200000000000045,51,512,0,2,A
23.200000000000045,61,512,1,2,A
23.300000000000047,61,512,0,2,A
23.300000000000047,83,512,1,2,A
23.40000000000005,56,512,0,2,A
23.40000000000005,74,512,1,2,A
23.50000000000005,71,512,0,2,A
23.50000000000005,68,512,1,2,A
23.60000000000005,65,512,0,2,A
23.60000000000005,72,512,1,2,A
23.700000000000053,58,512,0,2,A
23.700000000000053,93,512,1,2,A
23.800000000000054,45,512,0,2,A
23.800000000000054,89,512,1,2,A
23.900000000000055,40,512,0,2,A
23.900000000000055,71,512,1,2,A
24.000000000000057,69,512,0,2,A
24.000000000000057,87,512,1,2,A
24.10000000000006,66,512,0,2,A
24.10000000000006,45,512,1,2,A
24.20000000000006,93,512,0,2,A
24.20000000000006,54,512,1,2,A
24.30000000000006,93,512,0,2,A
24.30000000000006,67,512,1,2,A
24.400000000000063,36,512,0,2,A
24.400000000000063,91,512,1,2,A
24.500000000000064,40,512,0,2,A
24.500000000000064,80,512,1,2,A
24.600000000000065,39,512,0,2,A
24.600000000000065,51,512,1,2,A
24.700000000000067,59,512,0,2,A
24.700000000000067,51,512,1,2,A
24.800000000000068,90,512,0,2,A
24.800000000000068,37,512,1,2,A
24.90000000000007,84,512,0,2,A
24.90000000000007,63,512,1,2,A
25.00000000000007,67,512,0,2,A
25.00000000000007,62,512,1,2,A
25.100000000000072,55,512,0,2,A
25.100000000000072,59,512,1,2,A
25.200000000000074,47,512,0,2,A
25.200000000000074,85,512,1,2,A
25.300000000000075,70,512,0,2,A
25.300000000000075,95,512,1,2,A
25.400000000000077,68,512,0,2,A
25.400000000000077,68,512,1,2,A
25.500000000000078,96,512,0,2,A
25.500000000000078,86,512,1,2,A
25.60000000000008,78,512,0,2,A
25.60000000000008,72,512,1,2,A
25.70000000000008,47,512,0,2,A
25.70000000000008,38,512,1,2,A
25.800000000000082,36,512,0,2,A
25.800000000000082,68,512,1,2,A
25.900000000000084,75,512,0,2,A
25.900000000000084,45,512,1,2,A
26.000000000000085,78,512,0,2,A
26.000000000000085,79,512,1,2,A
26.100000000000087,64,512,0,2,A
26.100000000000087,48,512,1,2,A
26.200000000000088,47,512,0,2,A
26.200000000000088,66,512,1,2,A
26.30000000000009,81,512,0,2,A
26.30000000000009,37,512,1,2,A
26.40000000000009,96,512,0,2,A
26.40000000000009,86,512,1,2,A
26.500000000000092,85,512,0,2,A
26.500000000000092,70,512,1,2,A
26.600000000000094,58,512,0,2,A
26.600000000000094,52,512,1,2,A
26.700000000000095,61,512,0,2,A
26.700000000000095,43,512,1,2,A
26.800000000000097,64,512,0,2,A
26.800000000000097,61,512,1,2,A
26.900000000000098,45,512,0,2,A
26.900000000000098,61,512,1,2,A
27.0000000000001,69,512,0,2,A
27.0000000000001,86,512,1,2,A
27.1000000000001,76,512,0,2,A
27.1000000000001,42,512,1,2,A
27.200000000000102,39,512,0,2,A
27.200000000000102,93,512,1,2,A
27.300000000000104,88,512,0,2,A
27.300000000000104,85,512,1,2,A
27.400000000000105,80,512,0,2,A
27.400000000000105,46,512,1,2,A
27.500000000000107,64,512,0,2,A
27.500000000000107,91,512,1,2,A
27.600000000000108,71,512,0,2,A
27.600000000000108,60,512,1,2,A
27.70000000000011,56,512,0,2,A
27.70000000000011,96,512,1,2,A
27.80000000000011,92,512,0,2,A
27.80000000000011,71,512,1,2,A
27.900000000000112,45,512,0,2,A
27.900000000000112,72,512,1,2,A
28.000000000000114,44,512,0,2,A
28.000000000000114,59,512,1,2,A
28.100000000000115,70,512,0,2,A
28.100000000000115,84,512,1,2,A
28.200000000000117,70,512,0,2,A
28.200000000000117,83,512,1,2,A
28.300000000000118,71,512,0,2,A
28.300000000000118,53,512,1,2,A
28.40000000000012,84,512,0,2,A
28.40000000000012,74,512,1,2,A
28.50000000000012,67,512,0,2,A
28.50000000000012,59,512,1,2,A
28.600000000000122,58,512,0,2,A
28.600000000000122,67,512,1,2,A
28.700000000000124,72,512,0,2,A
28.700000000000124,47,512,1,2,A
28.800000000000125,84,512,0,2,A
28.800000000000125,90,512,1,2,A
28.900000000000126,48,512,0,2,A
28.900000000000126,58,512,1,2,A
29.000000000000128,60,512,0,2,A
29.000000000000128,70,512,1,2,A
29.10000000000013,76,512,0,2,A
29.10000000000013,65,512,1,2,A
29.20000000000013,52,512,0,2,A
29.20000000000013,84,512,1,2,A
29.300000000000132,55,512,0,2,A
29.300000000000132,83,512,1,2,A
29.400000000000134,60,512,0,2,A
29.400000000000134,57,512,1,2,A
29.500000000000135,48,512,0,2,A
29.500000000000135,94,512,1,2,A
29.600000000000136,54,512,0,2,A
29.600000000000136,84,512,1,2,A
29.700000000000138,71,512,0,2,A
29.700000000000138,47,512,1,2,A
29.80000000000014,96,512,0,2,A
29.80000000000014,76,512,1,2,A
29.90000000000014,54,512,0,2,A
29.90000000000014,47,512,1,2,A
30.0,44,512,0,3,A
30.0,42,512,1,3,A
30.1,63,512,0,3,A
30.1,49,512,1,3,A
30.200000000000003,66,512,0,3,A
30.200000000000003,87,512,1,3,A
30.300000000000004,54,512,0,3,A
30.300000000000004,93,512,1,3,A
30.400000000000006,82,512,0,3,A
30.400000000000006,51,512,1,3,A
30.500000000000007,88,512,0,3,A
30.500000000000007,40,512,1,3,A
30.60000000000001,70,512,0,3,A
30.60000000000001,47,512,1,3,A
30.70000000000001,60,512,0,3,A
30.70000000000001,87,512,1,3,A
30.80000000000001,94,512,0,3,A
30.80000000000001,56,512,1,3,A
30.900000000000013,71,512,0,3,A
30.900000000000013,88,512,1,3,A
31.000000000000014,58,512,0,3,A
31.000000000000014,51,512,1,3,A
31.100000000000016,92,512,0,3,A
31.100000000000016,74,512,1,3,A
31.200000000000017,80,512,0,3,A
31.200000000000017,88,512,1,3,A
31.30000000000002,77,512,0,3,A
31.30000000000002,93,512,1,3,A
31.40000000000002,74,512,0,3,A
31.40000000000002,49,512,1,3,A
31.50000000000002,66,512,0,3,A
31.50000000000002,93,512,1,3,A
31.600000000000023,40,512,0,3,A
31.600000000000023,70,512,1,3,A
31.700000000000024,58,512,0,3,A
31.700000000000024,64,512,1,3,A
31.800000000000026,78,512,0,3,A
31.800000000000026,46,512,1,3,A
31.900000000000027,53,512,0,3,A
31.900000000000027,82,512,1,3,A
32.00000000000003,47,512,0,3,A
32.00000000000003,44,512,1,3,A
32.10000000000003,45,512,0,3,A
32.10000000000003,93,512,1,3,A
32.20000000000003,79,512,0,3,A
32.20000000000003,52,512,1,3,A
32.30000000000003,96,512,0,3,A
32.30000000000003,73,512,1,3,A
32.400000000000034,42,512,0,3,A
32.400000000000034,81,512,1,3,A
32.500000000000036,48,512,0,3,A
32.500000000000036,75,512,1,3,A
32.60000000000004,77,512,0,3,A
32.60000000000004,44,512,1,3,A
32.70000000000004,85,512,0,3,A
32.70000000000004,62,512,1,3,A
32.80000000000004,93,512,0,3,A
32.80000000000004,37,512,1,3,A
32.90000000000004,40,512,0,3,A
32.90000000000004,64,512,1,3,A
33.00000000000004,72,512,0,3,A
33.00000000000004,73,512,1,3,A
33.100000000000044,54,512,0,3,A
33.100000000000044,43,512,1,3,A
33.200000000000045,83,512,0,3,A
33.200000000000045,80,512,1,3,A
33.30000000000005,36,512,0,3,A
33.30000000000005,57,512,1,3,A
33.40000000000005,87,512,0,3,A
33.40000000000005,52,512,1,3,A
33.50000000000005,42,512,0,3,A
33.50000000000005,60,512,1,3,A
33.60000000000005,80,512,0,3,A
33.60000000000005,39,512,1,3,A
33.70000000000005,71,512,0,3,A
33.70000000000005,41,512,1,3,A
33.800000000000054,95,512,0,3,A
33.800000000000054,66,512,1,3,A
33.900000000000055,54,512,0,3,A
33.900000000000055,96,512,1,3,A
34.00000000000006,79,512,0,3,A
34.00000000000006,89,512,1,3,A
34.10000000000006,74,512,0,3,A
34.10000000000006,62,512,1,3,A
34.20000000000006,45,512,0,3,A
34.20000000000006,61,512,1,3,A
34.30000000000006,54,512,0,3,A
34.30000000000006,74,512,1,3,A
34.40000000000006,38,512,0,3,A
34.40000000000006,80,512,1,3,A
34.500000000000064,48,512,0,3,A
34.500000000000064,85,512,1,3,A
34.600000000000065,63,512,0,3,A
34.600000000000065,93,512,1,3,A
34.70000000000007,55,512,0,3,A
34.70000000000007,63,512,1,3,A
34.80000000000007,43,512,0,3,A
34.80000000000007,96,512,1,3,A
34.90000000000007,76,512,0,3,A
34.90000000000007,74,512,1,3,A
35.00000000000007,36,512,0,3,A
35.00000000000007,38,512,1,3,A
35.10000000000007,48,512,0,3,A
35.10000000000007,63,512,1,3,A
35.200000000000074,92,512,0,3,A
35.200000000000074,95,512,1,3,A
35.300000000000075,84,512,0,3,A
35.300000000000075,60,512,1,3,A
35.40000000000008,91,512,0,3,A
35.40000000000008,68,512,1,3,A
35.50000000000008,73,512,0,3,A
35.50000000000008,88,512,1,3,A
35.60000000000008,41,512,0,3,A
35.60000000000008,93,512,1,3,A
35.70000000000008,79,512,0,3,A
35.70000000000008,80,512,1,3,A
35.80000000000008,67,512,0,3,A
35.80000000000008,80,512,1,3,A
35.900000000000084,96,512,0,3,A
35.900000000000084,82,512,1,3,A
36.000000000000085,56,512,0,3,A
36.000000000000085,51,512,1,3,A
36.10000000000009,89,512,0,3,A
36.10000000000009,56,512,1,3,A
36.20000000000009,46,512,0,3,A
36.20000000000009,95,512,1,3,A
36.30000000000009,72,512,0,3,A
36.30000000000009,71,512,1,3,A
36.40000000000009,70,512,0,3,A
36.40000000000009,54,512,1,3,A
36.50000000000009,55,512,0,3,A
36.50000000000009,92,512,1,3,A
36.600000000000094,53,512,0,3,A
36.600000000000094,82,512,1,3,A
36.700000000000095,76,512,0,3,A
36.700000000000095,84,512,1,3,A
36.8000000000001,49,512,0,3,A
36.8000000000001,50,512,1,3,A
36.9000000000001,66,512,0,3,A
36.9000000000001,36,512,1,3,A
37.0000000000001,88,512,0,3,A
37.0000000000001,89,512,1,3,A
37.1000000000001,89,512,0,3,A
37.1000000000001,38,512,1,3,A
37.2000000000001,51,512,0,3,A
37.2000000000001,58,512,1,3,A
37.300000000000104,92,512,0,3,A
37.300000000000104,46,512,1,3,A
37.400000000000105,47,512,0,3,A
37.400000000000105,45,512,1,3,A
37.50000000000011,67,512,0,3,A
37.50000000000011,51,512,1,3,A
37.60000000000011,43,512,0,3,A
37.60000000000011,73,512,1,3,A
37.70000000000011,47,512,0,3,A
37.70000000000011,59,512,1,3,A
37.80000000000011,63,512,0,3,A
37.80000000000011,88,512,1,3,A
37.90000000000011,43,512,0,3,A
37.90000000000011,93,512,1,3,A
38.000000000000114,63,512,0,3,A
38.000000000000114,71,512,1,3,A
38.100000000000115,61,512,0,3,A
38.100000000000115,43,512,1,3,A
38.20000000000012,93,512,0,3,A
38.20000000000012,95,512,1,3,A
38.30000000000012,85,512,0,3,A
38.30000000000012,63,512,1,3,A
38.40000000000012,63,512,0,3,A
38.40000000000012,72,512,1,3,A
38.50000000000012,76,512,0,3,A
38.50000000000012,71,512,1,3,A
38.60000000000012,62,512,0,3,A
38.60000000000012,89,512,1,3,A
38.700000000000124,52,512,0,3,A
38.700000000000124,44,512,1,3,A
38.800000000000125,68,512,0,3,A
38.800000000000125,88,512,1,3,A
38.90000000000013,55,512,0,3,A
38.90000000000013,48,512,1,3,A
39.00000000000013,63,512,0,3,A
39.00000000000013,83,512,1,3,A
39.10000000000013,64,512,0,3,A
39.10000000000013,48,512,1,3,A
39.20000000000013,81,512,0,3,A
39.20000000000013,70,512,1,3,A
39.30000000000013,96,512,0,3,A
39.30000000000013,41,512,1,3,A
39.400000000000134,53,512,0,3,A
39.400000000000134,86,512,1,3,A
39.500000000000135,40,512,0,3,A
39.500000000000135,82,512,1,3,A
39.600000000000136,60,512,0,3,A
39.600000000000136,37,512,1,3,A
39.70000000000014,45,512,0,3,A
39.70000000000014,91,512,1,3,A
39.80000000000014,65,512,0,3,A
39.80000000000014,85,512,1,3,A
39.90000000000014,94,512,0,3,A
39.90000000000014,80,512,1,3,A
40.0,43,512,0,4,B
40.0,91,512,1,4,B
40.1,36,512,0,4,B
40.1,65,512,1,4,B
40.2,89,512,0,4,B
40.2,53,512,1,4,B
40.300000000000004,71,512,0,4,B
40.300000000000004,79,512,1,4,B
40.400000000000006,77,512,0,4,B
40.400000000000006,72,512,1,4,B
40.50000000000001,81,512,0,4,B
40.50000000000001,57,512,1,4,B
40.60000000000001,91,512,0,4,B
40.60000000000001,93,512,1,4,B
40.70000000000001,95,512,0,4,B
40.70000000000001,36,512,1,4,B
40.80000000000001,71,512,0,4,B
40.80000000000001,45,512,1,4,B
40.90000000000001,83,512,0,4,B
40.90000000000001,64,512,1,4,B
41.000000000000014,43,512,0,4,B
41.000000000000014,88,512,1,4,B
41.100000000000016,43,512,0,4,B
41.100000000000016,40,512,1,4,B
41.20000000000002,74,512,0,4,B
41.20000000000002,52,512,1,4,B
41.30000000000002,52,512,0,4,B
41.30000000000002,67,512,1,4,B
41.40000000000002,64,512,0,4,B
41.40000000000002,71,512,1,4,B
41.50000000000002,59,512,0,4,B
41.50000000000002,50,512,1,4,B
41.60000000000002,36,512,0,4,B
41.60000000000002,57,512,1,4,B
41.700000000000024,41,512,0,4,B
41.700000000000024,36,512,1,4,B
41.800000000000026,89,512,0,4,B
41.800000000000026,93,512,1,4,B
41.90000000000003,83,512,0,4,B
41.90000000000003,88,512,1,4,B
42.00000000000003,48,512,0,4,B
42.00000000000003,79,512,1,4,B
42.10000000000003,93,512,0,4,B
42.10000000000003,40,512,1,4,B
42.20000000000003,55,512,0,4,B
42.20000000000003,36,512,1,4,B
42.30000000000003,43,512,0,4,B
42.30000000000003,86,512,1,4,B
42.400000000000034,86,512,0,4,B
42.400000000000034,64,512,1,4,B
42.500000000000036,74,512,0,4,B
42.500000000000036,60,512,1,4,B
42.60000000000004,71,512,0,4,B
42.60000000000004,59,512,1,4,B
42.70000000000004,38,512,0,4,B
42.70000000000004,53,512,1,4,B
42.80000000000004,93,512,0,4,B
42.80000000000004,93,512,1,4,B
42.90000000000004,65,512,0,4,B
42.90000000000004,86,512,1,4,B
43.00000000000004,60,512,0,4,B
43.00000000000004,81,512,1,4,B
43.100000000000044,93,512,0,4,B
43.100000000000044,91,512,1,4,B
43.200000000000045,76,512,0,4,B
43.200000000000045,60,512,1,4,B
43.30000000000005,86,512,0,4,B
43.30000000000005,64,512,1,4,B
43.40000000000005,43,512,0,4,B
43.40000000000005,84,512,1,4,B
43.50000000000005,41,512,0,4,B
43.50000000000005,52,512,1,4,B
43.60000000000005,64,512,0,4,B
43.60000000000005,52,512,1,4,B
43.70000000000005,64,512,0,4,B
43.70000000000005,69,512,1,4,B
43.800000000000054,76,512,0,4,B
43.800000000000054,43,512,1,4,B
43.900000000000055,93,512,0,4,B
43.900000000000055,45,512,1,4,B
44.00000000000006,38,512,0,4,B
44.00000000000006,57,512,1,4,B
44.10000000000006,53,512,0,4,B
44.10000000000006,74,512,1,4,B
44.20000000000006,62,512,0,4,B
44.20000000000006,88,512,1,4,B
44.30000000000006,53,512,0,4,B
44.30000000000006,62,512,1,4,B
44.40000000000006,48,512,0,4,B
44.40000000000006,41,512,1,4,B
44.500000000000064,41,512,0,4,B
44.500000000000064,77,512,1,4,B
44.600000000000065,40,512,0,4,B
44.600000000000065,89,512,1,4,B
44.70000000000007,40,512,0,4,B
44.70000000000007,81,512,1,4,B
44.80000000000007,84,512,0,4,B
44.80000000000007,89,512,1,4,B
44.90000000000007,67,512,0,4,B
44.90000000000007,71,512,1,4,B
45.00000000000007,43,512,0,4,B
45.00000000000007,65,512,1,4,B
45.10000000000007,83,512,0,4,B
45.10000000000007,72,512,1,4,B
45.200000000000074,71,512,0,4,B
45.200000000000074,45,512,1,4,B
45.300000000000075,36,512,0,4,B
45.300000000000075,43,512,1,4,B
45.40000000000008,55,512,0,4,B
45.40000000000008,79,512,1,4,B
45.50000000000008,93,512,0,4,B
45.50000000000008,59,512,1,4,B
45.60000000000008,79,512,0,4,B
45.60000000000008,81,512,1,4,B
45.70000000000008,50,512,0,4,B
45.70000000000008,79,512,1,4,B
45.80000000000008,72,512,0,4,B
45.80000000000008,86,512,1,4,B
45.900000000000084,64,512,0,4,B
45.900000000000084,79,512,1,4,B
46.000000000000085,96,512,0,4,B
46.000000000000085,36,512,1,4,B
46.10000000000009,48,512,0,4,B
46.10000000000009,95,512,1,4,B
46.20000000000009,60,512,0,4,B
46.20000000000009,72,512,1,4,B
46.30000000000009,59,512,0,4,B
46.30000000000009,79,512,1,4,B
46.40000000000009,83,512,0,4,B
46.40000000000009,74,512,1,4,B
46.50000000000009,59,512,0,4,B
46.50000000000009,76,512,1,4,B
46.600000000000094,38,512,0,4,B
46.600000000000094,79,512,1,4,B
46.700000000000095,59,512,0,4,B
46.700000000000095,47,512,1,4,B
46.8000000000001,40,512,0,4,B
46.8000000000001,74,512,1,4,B
46.9000000000001,65,512,0,4,B
46.9000000000001,95,512,1,4,B
47.0000000000001,60,512,0,4,B
47.0000000000001,77,512,1,4,B
47.1000000000001,83,512,0,4,B
47.1000000000001,52,512,1,4,B
47.2000000000001,64,512,0,4,B
47.2000000000001,72,512,1,4,B
47.300000000000104,79,512,0,4,B
47.300000000000104,77,512,1,4,B
47.400000000000105,64,512,0,4,B
47.400000000000105,57,512,1,4,B
47.50000000000011,69,512,0,4,B
47.50000000000011,77,512,1,4,B
47.60000000000011,41,512,0,4,B
47.60000000000011,52,512,1,4,B
47.70000000000011,40,512,0,4,B
47.70000000000011,65,512,1,4,B
47.80000000000011,96,512,0,4,B
47.80000000000011,72,512,1,4,B
47.90000000000011,93,512,0,4,B
47.90000000000011,48,512,1,4,B
48.000000000000114,67,512,0,4,B
48.000000000000114,45,512,1,4,B
48.100000000000115,79,512,0,4,B
48.100000000000115,93,512,1,4,B
48.20000000000012,45,512,0,4,B
48.20000000000012,91,512,1,4,B
48.30000000000012,72,512,0,4,B
48.30000000000012,71,512,1,4,B
48.40000000000012,45,512,0,4,B
48.40000000000012,45,512,1,4,B
48.50000000000012,41,512,0,4,B
48.50000000000012,86,512,1,4,B
48.60000000000012,53,512,0,4,B
48.60000000000012,86,512,1,4,B
48.700000000000124,88,512,0,4,B
48.700000000000124,76,512,1,4,B
48.800000000000125,50,512,0,4,B
48.800000000000125,40,512,1,4,B
48.90000000000013,88,512,0,4,B
48.90000000000013,96,512,1,4,B
49.00000000000013,76,512,0,4,B
49.00000000000013,88,512,1,4,B
49.10000000000013,45,512,0,4,B
49.10000000000013,38,512,1,4,B
49.20000000000013,69,512,0,4,B
49.20000000000013,83,512,1,4,B
49.30000000000013,53,512,0,4,B
49.30000000000013,41,512,1,4,B
49.400000000000134,60,512,0,4,B
49.400000000000134,45,512,1,4,B
49.500000000000135,86,512,0,4,B
49.500000000000135,38,512,1,4,B
49.600000000000136,60,512,0,4,B
49.600000000000136,53,512,1,4,B
49.70000000000014,48,512,0,4,B
49.70000000000014,79,512,1,4,B
49.80000000000014,43,512,0,4,B
49.80000000000014,45,512,1,4,B
49.90000000000014,79,512,0,4,B
49.90000000000014,41,512,1,4,B
50.0,54,512,0,5,A
50.0,55,512,1,5,A
50.1,68,512,0,5,A
50.1,55,512,1,5,A
50.2,84,512,0,5,A
50.2,47,512,1,5,A
50.300000000000004,82,512,0,5,A
50.300000000000004,36,512,1,5,A
50.400000000000006,61,512,0,5,A
50.400000000000006,49,512,1,5,A
50.50000000000001,73,512,0,5,A
50.50000000000001,72,512,1,5,A
50.60000000000001,46,512,0,5,A
50.60000000000001,71,512,1,5,A
50.70000000000001,48,512,0,5,A
50.70000000000001,78,512,1,5,A
50.80000000000001,38,512,0,5,A
50.80000000000001,68,512,1,5,A
50.90000000000001,41,512,0,5,A
50.90000000000001,85,512,1,5,A
51.000000000000014,91,512,0,5,A
51.000000000000014,45,512,1,5,A
51.100000000000016,40,512,0,5,A
51.100000000000016,58,512,1,5,A
51.20000000000002,45,512,0,5,A
51.20000000000002,79,512,1,5,A
51.30000000000002,37,512,0,5,A
51.30000000000002,48,512,1,5,A
51.40000000000002,75,512,0,5,A
51.40000000000002,37,512,1,5,A
51.50000000000002,55,512,0,5,A
51.50000000000002,36,512,1,5,A
51.60000000000002,72,512,0,5,A
51.60000000000002,44,512,1,5,A
51.700000000000024,52,512,0,5,A
51.700000000000024,44,512,1,5,A
51.800000000000026,46,512,0,5,A
51.800000000000026,50,512,1,5,A
51.90000000000003,59,512,0,5,A
51.90000000000003,73,512,1,5,A
52.00000000000003,90,512,0,5,A
52.00000000000003,70,512,1,5,A
52.10000000000003,65,512,0,5,A
52.10000000000003,66,512,1,5,A
52.20000000000003,84,512,0,5,A
52.20000000000003,40,512,1,5,A
52.30000000000003,95,512,0,5,A
52.30000000000003,79,512,1,5,A
52.400000000000034,85,512,0,5,A
52.400000000000034,49,512,1,5,A
52.500000000000036,88,512,0,5,A
52.500000000000036,91,512,1,5,A
52.60000000000004,46,512,0,5,A
52.60000000000004,44,512,1,5,A
52.70000000000004,69,512,0,5,A
52.70000000000004,47,512,1,5,A
52.80000000000004,70,512,0,5,A
52.80000000000004,70,512,1,5,A
52.90000000000004,36,512,0,5,A
52.90000000000004,75,512,1,5,A
53.00000000000004,57,512,0,5,A
53.00000000000004,95,512,1,5,A
53.100000000000044,64,512,0,5,A
53.100000000000044,43,512,1,5,A
53.200000000000045,46,512,0,5,A
53.200000000000045,76,512,1,5,A
53.30000000000005,72,512,0,5,A
53.30000000000005,49,512,1,5,A
53.40000000000005,95,512,0,5,A
53.40000000000005,65,512,1,5,A
53.50000000000005,70,512,0,5,A
53.50000000000005,56,512,1,5,A
53.60000000000005,72,512,0,5,A
53.60000000000005,40,512,1,5,A
53.70000000000005,54,512,0,5,A
53.70000000000005,94,512,1,5,A
53.800000000000054,49,512,0,5,A
53.800000000000054,61,512,1,5,A
53.900000000000055,39,512,0,5,A
53.900000000000055,60,512,1,5,A
54.00000000000006,80,512,0,5,A
54.00000000000006,77,512,1,5,A
54.10000000000006,60,512,0,5,A
54.10000000000006,53,512,1,5,A
54.20000000000006,75,512,0,5,A
54.20000000000006,43,512,1,5,A
54.30000000000006,74,512,0,5,A
54.30000000000006,75,512,1,5,A
54.40000000000006,49,512,0,5,A
54.40000000000006,67,512,1,5,A
54.500000000000064,86,512,0,5,A
54.500000000000064,96,512,1,5,A
54.600000000000065,73,512,0,5,A
54.600000000000065,68,512,1,5,A
54.70000000000007,58,512,0,5,A
54.70000000000007,50,512,1,5,A
54.80000000000007,68,512,0,5,A
54.80000000000007,60,512,1,5,A
54.90000000000007,52,512,0,5,A
54.90000000000007,68,512,1,5,A
55.00000000000007,82,512,0,5,A
55.00000000000007,90,512,1,5,A
55.10000000000007,37,512,0,5,A
55.10000000000007,49,512,1,5,A
55.200000000000074,88,512,0,5,A
55.200000000000074,75,512,1,5,A
55.300000000000075,75,512,0,5,A
55.300000000000075,86,512,1,5,A
55.40000000000008,74,512,0,5,A
55.40000000000008,86,512,1,5,A
55.50000000000008,41,512,0,5,A
55.50000000000008,41,512,1,5,A
55.60000000000008,38,512,0,5,A
55.60000000000008,42,512,1,5,A
55.70000000000008,86,512,0,5,A
55.70000000000008,43,512,1,5,A
55.80000000000008,77,512,0,5,A
55.80000000000008,87,512,1,5,A
55.900000000000084,50,512,0,5,A
55.900000000000084,82,512,1,5,A
56.000000000000085,64,512,0,5,A
56.000000000000085,68,512,1,5,A
56.10000000000009,87,512,0,5,A
56.10000000000009,65,512,1,5,A
56.20000000000009,74,512,0,5,A
56.20000000000009,62,512,1,5,A
56.30000000000009,71,512,0,5,A
56.30000000000009,64,512,1,5,A
56.40000000000009,73,512,0,5,A
56.40000000000009,92,512,1,5,A
56.50000000000009,68,512,0,5,A
56.50000000000009,96,512,1,5,A
56.600000000000094,72,512,0,5,A
56.600000000000094,62,512,1,5,A
56.700000000000095,90,512,0,5,A
56.700000000000095,68,512,1,5,A
56.8000000000001,39,512,0,5,A
56.8000000000001,57,512,1,5,A
56.9000000000001,37,512,0,5,A
56.9000000000001,45,512,1,5,A
57.0000000000001,40,512,0,5,A
57.0000000000001,94,512,1,5,A
57.1000000000001,45,512,0,5,A
57.1000000000001,68,512,1,5,A
57.2000000000001,89,512,0,5,A
57.2000000000001,73,512,1,5,A
57.300000000000104,48,512,0,5,A
57.300000000000104,66,512,1,5,A
57.400000000000105,82,512,0,5,A
57.400000000000105,71,512,1,5,A
57.50000000000011,80,512,0,5,A
57.50000000000011,59,512,1,5,A
57.60000000000011,87,512,0,5,A
57.60000000000011,91,512,1,5,A
57.70000000000011,50,512,0,5,A
57.70000000000011,64,512,1,5,A
57.80000000000011,43,512,0,5,A
57.80000000000011,40,512,1,5,A
57.90000000000011,64,512,0,5,A
57.90000000000011,82,512,1,5,A
58.000000000000114,39,512,0,5,A
58.000000000000114,47,512,1,5,A
58.100000000000115,80,512,0,5,A
58.100000000000115,37,512,1,5,A
58.20000000000012,62,512,0,5,A
58.20000000000012,66,512,1,5,A
58.30000000000012,86,512,0,5,A
58.30000000000012,86,512,1,5,A
58.40000000000012,71,512,0,5,A
58.40000000000012,71,512,1,5,A
58.50000000000012,61,512,0,5,A
58.50000000000012,78,512,1,5,A
58.60000000000012,62,512,0,5,A
58.60000000000012,40,512,1,5,A
58.700000000000124,55,512,0,5,A
58.700000000000124,46,512,1,5,A
58.800000000000125,45,512,0,5,A
58.800000000000125,75,512,1,5,A
58.90000000000013,73,512,0,5,A
58.90000000000013,41,512,1,5,A
59.00000000000013,43,512,0,5,A
59.00000000000013,58,512,1,5,A
59.10000000000013,82,512,0,5,A
59.10000000000013,61,512,1,5,A
59.20000000000013,81,512,0,5,A
59.20000000000013,78,512,1,5,A
59.30000000000013,47,512,0,5,A
59.30000000000013,61,512,1,5,A
59.400000000000134,48,512,0,5,A
59.400000000000134,75,512,1,5,A
59.500000000000135,53,512,0,5,A
59.500000000000135,60,512,1,5,A
59.600000000000136,68,512,0,5,A
59.600000000000136,82,512,1,5,A
59.70000000000014,75,512,0,5,A
59.70000000000014,95,512,1,5,A
59.80000000000014,78,512,0,5,A
59.80000000000014,47,512,1,5,A
59.90000000000014,79,512,0,5,A
59.90000000000014,71,512,1,5,A
60.0,41,512,0,6,B
60.0,43,512,1,6,B
60.1,48,512,0,6,B
60.1,83,512,1,6,B
60.2,88,512,0,6,B
60.2,50,512,1,6,B
60.300000000000004,84,512,0,6,B
60.300000000000004,59,512,1,6,B
60.400000000000006,72,512,0,6,B
60.400000000000006,53,512,1,6,B
60.50000000000001,74,512,0,6,B
60.50000000000001,36,512,1,6,B
60.60000000000001,71,512,0,6,B
60.60000000000001,79,512,1,6,B
60.70000000000001,96,512,0,6,B
60.70000000000001,74,512,1,6,B
60.80000000000001,36,512,0,6,B
60.80000000000001,60,512,1,6,B
60.90000000000001,71,512,0,6,B
60.90000000000001,50,512,1,6,B
61.000000000000014,50,512,0,6,B
61.000000000000014,52,512,1,6,B
61.100000000000016,79,512,0,6,B
61.100000000000016,95,512,1,6,B
61.20000000000002,77,512,0,6,B
61.20000000000002,79,512,1,6,B
61.30000000000002,53,512,0,6,B
61.30000000000002,38,512,1,6,B
61.40000000000002,47,512,0,6,B
61.40000000000002,65,512,1,6,B
61.50000000000002,81,512,0,6,B
61.50000000000002,93,512,1,6,B
61.60000000000002,81,512,0,6,B
61.60000000000002,64,512,1,6,B
61.700000000000024,76,512,0,6,B
61.700000000000024,77,512,1,6,B
61.800000000000026,47,512,0,6,B
61.800000000000026,45,512,1,6,B
61.90000000000003,76,512,0,6,B
61.90000000000003,91,512,1,6,B
62.00000000000003,84,512,0,6,B
62.00000000000003,72,512,1,6,B
62.10000000000003,79,512,0,6,B
62.10000000000003,83,512,1,6,B
62.20000000000003,71,512,0,6,B
62.20000000000003,47,512,1,6,B
62.30000000000003,64,512,0,6,B
62.30000000000003,69,512,1,6,B
62.400000000000034,69,512,0,6,B
62.400000000000034,72,512,1,6,B
62.500000000000036,83,512,0,6,B
62.500000000000036,47,512,1,6,B
62.60000000000004,36,512,0,6,B
62.60000000000004,89,512,1,6,B
62.70000000000004,57,512,0,6,B
62.70000000000004,86,512,1,6,B
62.80000000000004,74,512,0,6,B
62.80000000000004,67,512,1,6,B
62.90000000000004,89,512,0,6,B
62.90000000000004,86,512,1,6,B
63.00000000000004,84,512,0,6,B
63.00000000000004,84,512,1,6,B
63.100000000000044,86,512,0,6,B
63.100000000000044,62,512,1,6,B
63.200000000000045,67,512,0,6,B
63.200000000000045,65,512,1,6,B
63.30000000000005,36,512,0,6,B
63.30000000000005,59,512,1,6,B
63.40000000000005,38,512,0,6,B
63.40000000000005,83,512,1,6,B
63.50000000000005,86,512,0,6,B
63.50000000000005,41,512,1,6,B
63.60000000000005,36,512,0,6,B
63.60000000000005,48,512,1,6,B
63.70000000000005,84,512,0,6,B
63.70000000000005,40,512,1,6,B
63.800000000000054,89,512,0,6,B
63.800000000000054,52,512,1,6,B
63.900000000000055,52,512,0,6,B
63.900000000000055,67,512,1,6,B
64.00000000000006,93,512,0,6,B
64.00000000000006,91,512,1,6,B
64.10000000000005,74,512,0,6,B
64.10000000000005,83,512,1,6,B
64.20000000000005,89,512,0,6,B
64.20000000000005,47,512,1,6,B
64.30000000000004,84,512,0,6,B
64.30000000000004,48,512,1,6,B
64.40000000000003,36,512,0,6,B
64.40000000000003,40,512,1,6,B
64.50000000000003,76,512,0,6,B
64.50000000000003,74,512,1,6,B
64.60000000000002,48,512,0,6,B
64.60000000000002,40,512,1,6,B
64.70000000000002,91,512,0,6,B
64.70000000000002,83,512,1,6,B
64.80000000000001,48,512,0,6,B
64.80000000000001,93,512,1,6,B
64.9,95,512,0,6,B
64.9,89,512,1,6,B
65.0,76,512,0,6,B
65.0,59,512,1,6,B
65.1,89,512,0,6,B
65.1,62,512,1,6,B
65.19999999999999,41,512,0,6,B
65.19999999999999,71,512,1,6,B
65.29999999999998,59,512,0,6,B
65.29999999999998,88,512,1,6,B
65.39999999999998,65,512,0,6,B
65.39999999999998,47,512,1,6,B
65.49999999999997,52,512,0,6,B
65.49999999999997,47,512,1,6,B
65.59999999999997,91,512,0,6,B
65.59999999999997,74,512,1,6,B
65.69999999999996,71,512,0,6,B
65.69999999999996,67,512,1,6,B
65.79999999999995,67,512,0,6,B
65.79999999999995,96,512,1,6,B
65.89999999999995,84,512,0,6,B
65.89999999999995,65,512,1,6,B
65.99999999999994,38,512,0,6,B
65.99999999999994,36,512,1,6,B
66.09999999999994,43,512,0,6,B
66.09999999999994,69,512,1,6,B
66.19999999999993,53,512,0,6,B
66.19999999999993,38,512,1,6,B
66.29999999999993,40,512,0,6,B
66.29999999999993,74,512,1,6,B
66.39999999999992,55,512,0,6,B
66.39999999999992,69,512,1,6,B
66.49999999999991,43,512,0,6,B
66.49999999999991,86,512,1,6,B
66.59999999999991,50,512,0,6,B
66.59999999999991,93,512,1,6,B
66.6999999999999,95,512,0,6,B
66.6999999999999,72,512,1,6,B
66.7999999999999,76,512,0,6,B
66.7999999999999,64,512,1,6,B
66.89999999999989,52,512,0,6,B
66.89999999999989,86,512,1,6,B
66.99999999999989,74,512,0,6,B
66.99999999999989,89,512,1,6,B
67.09999999999988,64,512,0,6,B
67.09999999999988,64,512,1,6,B
67.19999999999987,59,512,0,6,B
67.19999999999987,50,512,1,6,B
67.29999999999987,38,512,0,6,B
67.29999999999987,77,512,1,6,B
67.39999999999986,50,512,0,6,B
67.39999999999986,72,512,1,6,B
67.49999999999986,41,512,0,6,B
67.49999999999986,79,512,1,6,B
67.59999999999985,84,512,0,6,B
67.59999999999985,93,512,1,6,B
67.69999999999985,74,512,0,6,B
67.69999999999985,53,512,1,6,B
67.79999999999984,45,512,0,6,B
67.79999999999984,65,512,1,6,B
67.89999999999984,71,512,0,6,B
67.89999999999984,96,512,1,6,B
67.99999999999983,93,512,0,6,B
67.99999999999983,64,512,1,6,B
68.09999999999982,77,512,0,6,B
68.09999999999982,55,512,1,6,B
68.19999999999982,74,512,0,6,B
68.19999999999982,72,512,1,6,B
68.29999999999981,71,512,0,6,B
68.29999999999981,81,512,1,6,B
68.3999999999998,88,512,0,6,B
68.3999999999998,45,512,1,6,B
68.4999999999998,81,512,0,6,B
68.4999999999998,93,512,1,6,B
68.5999999999998,55,512,0,6,B
68.5999999999998,47,512,1,6,B
68.69999999999979,52,512,0,6,B
68.69999999999979,64,512,1,6,B
68.79999999999978,79,512,0,6,B
68.79999999999978,71,512,1,6,B
68.89999999999978,83,512,0,6,B
68.89999999999978,38,512,1,6,B
68.99999999999977,36,512,0,6,B
68.99999999999977,96,512,1,6,B
69.09999999999977,79,512,0,6,B
69.09999999999977,84,512,1,6,B
69.19999999999976,71,512,0,6,B
69.19999999999976,53,512,1,6,B
69.29999999999976,53,512,0,6,B
69.29999999999976,96,512,1,6,B
69.39999999999975,95,512,0,6,B
69.39999999999975,93,512,1,6,B
69.49999999999974,76,512,0,6,B
69.49999999999974,72,512,1,6,B
69.59999999999974,43,512,0,6,B
69.59999999999974,91,512,1,6,B
69.69999999999973,96,512,0,6,B
69.69999999999973,69,512,1,6,B
69.79999999999973,67,512,0,6,B
69.79999999999973,95,512,1,6,B
69.89999999999972,64,512,0,6,B
69.89999999999972,93,512,1,6,B
69.99999999999972,50,512,0,6,B
69.99999999999972,79,512,1,6,B
70.0,37,512,0,7,A
70.0,88,512,1,7,A
70.1,44,512,0,7,A
70.1,44,512,1,7,A
70.19999999999999,75,512,0,7,A
70.19999999999999,52,512,1,7,A
70.29999999999998,36,512,0,7,A
70.29999999999998,60,512,1,7,A
70.39999999999998,96,512,0,7,A
70.39999999999998,78,512,1,7,A
70.49999999999997,75,512,0,7,A
70.49999999999997,77,512,1,7,A
70.59999999999997,60,512,0,7,A
70.59999999999997,74,512,1,7,A
70.69999999999996,70,512,0,7,A
70.69999999999996,38,512,1,7,A
70.79999999999995,85,512,0,7,A
70.79999999999995,72,512,1,7,A
70.89999999999995,79,512,0,7,A
70.89999999999995,79,512,1,7,A
70.99999999999994,86,512,0,7,A
70.99999999999994,65,512,1,7,A
71.09999999999994,73,512,0,7,A
71.09999999999994,69,512,1,7,A
71.19999999999993,47,512,0,7,A
71.19999999999993,54,512,1,7,A
71.29999999999993,72,512,0,7,A
71.29999999999993,79,512,1,7,A
71.39999999999992,94,512,0,7,A
71.39999999999992,94,512,1,7,A
71.49999999999991,84,512,0,7,A
71.49999999999991,96,512,1,7,A
71.59999999999991,52,512,0,7,A
71.59999999999991,45,512,1,7,A
71.6999999999999,92,512,0,7,A
71.6999999999999,90,512,1,7,A
71.7999999999999,84,512,0,7,A
71.7999999999999,82,512,1,7,A
71.89999999999989,47,512,0,7,A
71.89999999999989,51,512,1,7,A
71.99999999999989,59,512,0,7,A
71.99999999999989,54,512,1,7,A
72.09999999999988,43,512,0,7,A
72.09999999999988,66,512,1,7,A
72.19999999999987,56,512,0,7,A
72.19999999999987,52,512,1,7,A
72.29999999999987,58,512,0,7,A
72.29999999999987,72,512,1,7,A
72.39999999999986,89,512,0,7,A
72.39999999999986,51,512,1,7,A
72.49999999999986,41,512,0,7,A
72.49999999999986,43,512,1,7,A
72.59999999999985,60,512,0,7,A
72.59999999999985,53,512,1,7,A
72.69999999999985,60,512,0,7,A
72.69999999999985,47,512,1,7,A
72.79999999999984,50,512,0,7,A
72.79999999999984,94,512,1,7,A
72.89999999999984,61,512,0,7,A
72.89999999999984,76,512,1,7,A
72.99999999999983,80,512,0,7,A
72.99999999999983,61,512,1,7,A
73.09999999999982,82,512,0,7,A
73.09999999999982,67,512,1,7,A
73.19999999999982,45,512,0,7,A
73.19999999999982,51,512,1,7,A
73.29999999999981,42,512,0,7,A
73.29999999999981,52,512,1,7,A
73.3999999999998,58,512,0,7,A
73.3999999999998,61,512,1,7,A
73.4999999999998,56,512,0,7,A
73.4999999999998,57,512,1,7,A
73.5999999999998,93,512,0,7,A
73.5999999999998,42,512,1,7,A
73.69999999999979,49,512,0,7,A
73.69999999999979,50,512,1,7,A
73.79999999999978,88,512,0,7,A
73.79999999999978,42,512,1,7,A
73.89999999999978,44,512,0,7,A
73.89999999999978,86,512,1,7,A
73.99999999999977,83,512,0,7,A
73.99999999999977,43,512,1,7,A
74.09999999999977,85,512,0,7,A
74.09999999999977,94,512,1,7,A
74.19999999999976,58,512,0,7,A
74.19999999999976,64,512,1,7,A
74.29999999999976,53,512,0,7,A
74.29999999999976,66,512,1,7,A
74.39999999999975,65,512,0,7,A
74.39999999999975,87,512,1,7,A
74.49999999999974,74,512,0,7,A
74.49999999999974,70,512,1,7,A
74.59999999999974,53,512,0,7,A
74.59999999999974,94,512,1,7,A
74.69999999999973,77,512,0,7,A
74.69999999999973,74,512,1,7,A
74.79999999999973,52,512,0,7,A
74.79999999999973,49,512,1,7,A
74.89999999999972,66,512,0,7,A
74.89999999999972,59,512,1,7,A
74.99999999999972,70,512,0,7,A
74.99999999999972,79,512,1,7,A
75.09999999999971,95,512,0,7,A
75.09999999999971,80,512,1,7,A
75.1999999999997,69,512,0,7,A
75.1999999999997,38,512,1,7,A
75.2999999999997,72,512,0,7,A
75.2999999999997,78,512,1,7,A
75.3999999999997,75,512,0,7,A
75.3999999999997,61,512,1,7,A
75.49999999999969,90,512,0,7,A
75.49999999999969,58,512,1,7,A
75.59999999999968,79,512,0,7,A
75.59999999999968,74,512,1,7,A
75.69999999999968,50,512,0,7,A
75.69999999999968,91,512,1,7,A
75.79999999999967,84,512,0,7,A
75.79999999999967,39,512,1,7,A
75.89999999999966,64,512,0,7,A
75.89999999999966,57,512,1,7,A
75.99999999999966,60,512,0,7,A
75.99999999999966,48,512,1,7,A
76.09999999999965,53,512,0,7,A
76.09999999999965,68,512,1,7,A
76.19999999999965,51,512,0,7,A
76.19999999999965,80,512,1,7,A
76.29999999999964,77,512,0,7,A
76.29999999999964,79,512,1,7,A
76.39999999999964,37,512,0,7,A
76.39999999999964,90,512,1,7,A
76.49999999999963,70,512,0,7,A
76.49999999999963,77,512,1,7,A
76.59999999999962,69,512,0,7,A
76.59999999999962,65,512,1,7,A
76.69999999999962,94,512,0,7,A
76.69999999999962,90,512,1,7,A
76.79999999999961,48,512,0,7,A
76.79999999999961,48,512,1,7,A
76.89999999999961,53,512,0,7,A
76.89999999999961,67,512,1,7,A
76.9999999999996,67,512,0,7,A
76.9999999999996,70,512,1,7,A
77.0999999999996,94,512,0,7,A
77.0999999999996,74,512,1,7,A
77.19999999999959,81,512,0,7,A
77.19999999999959,87,512,1,7,A
77.29999999999959,64,512,0,7,A
77.29999999999959,84,512,1,7,A
77.39999999999958,64,512,0,7,A
77.39999999999958,88,512,1,7,A
77.49999999999957,79,512,0,7,A
77.49999999999957,92,512,1,7,A
77.59999999999957,51,512,0,7,A
77.59999999999957,91,512,1,7,A
77.69999999999956,79,512,0,7,A
77.69999999999956,82,512,1,7,A
77.79999999999956,92,512,0,7,A
77.79999999999956,45,512,1,7,A
77.89999999999955,65,512,0,7,A
77.89999999999955,60,512,1,7,A
77.99999999999955,74,512,0,7,A
77.99999999999955,55,512,1,7,A
78.09999999999954,40,512,0,7,A
78.09999999999954,36,512,1,7,A
78.19999999999953,65,512,0,7,A
78.19999999999953,84,512,1,7,A
78.29999999999953,38,512,0,7,A
78.29999999999953,80,512,1,7,A
78.39999999999952,49,512,0,7,A
78.39999999999952,91,512,1,7,A
78.49999999999952,65,512,0,7,A
78.49999999999952,85,512,1,7,A
78.59999999999951,39,512,0,7,A
78.59999999999951,53,512,1,7,A
78.6999999999995,72,512,0,7,A
78.6999999999995,60,512,1,7,A
78.7999999999995,83,512,0,7,A
78.7999999999995,36,512,1,7,A
78.8999999999995,88,512,0,7,A
78.8999999999995,81,512,1,7,A
78.99999999999949,50,512,0,7,A
78.99999999999949,44,512,1,7,A
79.09999999999948,50,512,0,7,A
79.09999999999948,84,512,1,7,A
79.19999999999948,92,512,0,7,A
79.19999999999948,59,512,1,7,A
79.29999999999947,39,512,0,7,A
79.29999999999947,47,512,1,7,A
79.39999999999947,94,512,0,7,A
79.39999999999947,93,512,1,7,A
79.49999999999946,72,512,0,7,A
79.49999999999946,96,512,1,7,A
79.59999999999945,72,512,0,7,A
79.59999999999945,78,512,1,7,A
79.69999999999945,95,512,0,7,A
79.69999999999945,41,512,1,7,A
79.79999999999944,74,512,0,7,A
79.79999999999944,91,512,1,7,A
79.89999999999944,81,512,0,7,A
79.89999999999944,59,512,1,7,A
79.99999999999943,46,512,0,7,A
79.99999999999943,48,512,1,7,A
