onset_time,pitch,velocity,voice_id
0.0,60,64,0
0.0,72,64,1
0.09385361799537183,67,64,2
0.3572027567044617,67,70,2
0.391127730796931,64,72,2
0.4030954845186671,72,85,2
0.4339278780119793,64,71,2
0.4455409185403938,72,93,2
0.75,72,64,1
1.0,60,64,0
1.0034560243043562,62,70,2
1.1956516815126275,62,71,2
1.1970699594715215,60,98,2
1.3458631970681854,71,91,2
1.3554211193209398,65,65,2
1.4084151993309446,69,96,2
1.5,72,64,1
1.601084334712311,65,52,2
1.9942217908670783,71,70,2
2.0,60,64,0
2.1139708196363727,62,53,2
2.25,72,64,1
2.684130195423493,69,99,2
2.7814922915251845,62,51,2
3.0,60,64,0
3.0,72,64,1
3.012042444144917,71,56,2
3.20036243816632,72,96,2
3.2384407614696697,60,85,2
3.2786770814526287,65,51,2
3.389408353654026,69,91,2
3.5571356027789864,67,67,2
3.75,72,64,1
3.8555846782066148,62,59,2
4.0,60,64,0
4.306015077713454,69,80,2
4.5,72,64,1
4.815902153567335,72,63,2
4.859529092493589,60,89,2
5.0,60,64,0
5.231794541982513,67,67,2
5.25,72,64,1
5.386966489172553,72,75,2
6.0,60,64,0
6.0,72,64,1
6.058912178304723,65,94,2
6.089291807868849,71,94,2
6.104786981631111,71,58,2
6.400683736879413,65,57,2
6.401791220954601,64,66,2
6.650293724742605,64,82,2
6.75,72,64,1
6.83655428234132,62,88,2
7.0,60,64,0
7.047135099257773,65,56,2
7.426610539903575,65,83,2
7.446665260980836,71,72,2
7.5,72,64,1
7.667696744855318,67,84,2
7.846650439941034,69,76,2
8.0,60,64,0
8.011412544039317,64,86,2
8.25,72,64,1
8.724476736959748,64,50,2
8.980309075528957,71,63,2
9.0,60,64,0
9.0,72,64,1
9.116472021831013,60,64,2
9.228034860612699,62,62,2
9.273093833943449,72,88,2
9.402106324376524,67,81,2
9.639933728819189,67,72,2
9.75,72,64,1
9.825412851146986,71,92,2
9.87080833557345,67,81,2
10.0,60,64,0
10.053500018153528,64,71,2
10.47833398100153,62,94,2
10.5,72,64,1
10.548425326108188,67,55,2
10.67038316242582,65,93,2
10.778128737630196,69,60,2
10.85654328149679,71,77,2
10.944647109765054,69,82,2
11.0,60,64,0
11.00817429147115,64,62,2
11.25,72,64,1
11.402443285847117,71,55,2
11.545418517714827,60,86,2
11.781232955764487,62,93,2
11.837208946025921,64,81,2
11.983499507177951,60,98,2
11.99691820969791,62,61,2
12.0,60,64,0
12.0,72,64,1
12.05493046869635,62,52,2
12.12651656071216,60,66,2
12.188578734515993,62,51,2
12.29445712216657,71,86,2
12.379102887141897,60,68,2
12.607431137714695,67,93,2
12.726194036121772,69,81,2
12.75,72,64,1
12.905833480292294,71,60,2
12.998130905795467,60,87,2
13.0,60,64,0
13.089835465648328,65,83,2
13.290603031075856,64,97,2
13.5,72,64,1
13.610842547541191,60,55,2
13.84886494753068,64,69,2
13.927757787214272,65,68,2
14.0,60,64,0
14.17612701482517,71,68,2
14.25,72,64,1
14.261873553224259,71,90,2
14.496716058737803,72,88,2
15.0,60,64,0
15.0,72,64,1
15.048784822298664,60,60,2
15.132211309097698,60,99,2
15.649449388527843,69,91,2
15.709114862540142,65,65,2
15.75,72,64,1
16.0,60,64,0
16.049011677067988,60,98,2
16.10438708615557,72,61,2
16.267808994072844,72,58,2
16.33319653976819,64,97,2
16.5,72,64,1
16.708217549755293,65,73,2
16.811891057323347,60,73,2
17.0,60,64,0
17.192556833060628,60,57,2
17.25,72,64,1
17.50029741929404,72,69,2
17.674124762976746,72,74,2
17.891957240434795,67,67,2
17.927020403655636,62,51,2
18.0,60,64,0
18.0,72,64,1
18.1624834609866,72,90,2
18.20118226906992,65,82,2
18.33738398561138,72,69,2
18.428673186791602,72,56,2
18.683938825807353,72,82,2
18.75,72,64,1
18.8403520925618,64,71,2
18.901984122133566,69,79,2
19.0,60,64,0
19.5,72,64,1
19.624446003366153,67,57,2
19.82391288051345,62,70,2
19.963599945391206,65,96,2
20.0,60,64,0
20.099258632059545,67,97,2
20.1651741057328,64,98,2
20.174090703153897,65,77,2
20.25,72,64,1
20.3010454206204,69,55,2
20.393502899919874,60,86,2
20.92060759138625,60,95,2
21.0,60,64,0
21.0,72,64,1
21.60077599461066,64,82,2
21.616443183083945,67,70,2
21.658812461906773,60,52,2
21.695956185165926,60,91,2
21.75,72,64,1
22.0,60,64,0
22.246214879327333,62,52,2
22.415037346614465,72,99,2
22.5,72,64,1
22.60594348971801,69,72,2
22.63612760704646,64,91,2
23.0,60,64,0
23.055849334626622,60,89,2
23.25,72,64,1
23.294664219686958,64,97,2
23.45562302553118,62,75,2
23.78788866534859,60,73,2
24.0,60,64,0
24.0,72,64,1
24.276811857715916,62,56,2
24.416048733226155,67,69,2
24.625992548203715,72,95,2
24.75,72,64,1
24.943716443194557,65,72,2
24.94931750011558,62,51,2
25.0,60,64,0
25.06473698419807,71,71,2
25.144281813800326,62,71,2
25.32300831982956,69,98,2
25.33062101968612,69,64,2
25.41993802452767,65,86,2
25.5,72,64,1
25.567668742183475,67,93,2
26.0,60,64,0
26.239594418478333,71,53,2
26.25,72,64,1
26.608655678678396,72,79,2
26.764237767217345,71,89,2
27.0,60,64,0
27.0,72,64,1
27.02322987980068,67,99,2
27.16848810364675,69,68,2
27.485618899593288,71,68,2
27.60121558584795,71,75,2
27.606351107756243,67,72,2
27.718184351786515,65,50,2
27.75,72,64,1
27.756245659014937,60,96,2
27.813846856840254,69,97,2
27.85423729270888,67,50,2
28.0,60,64,0
28.473857992420143,71,54,2
28.5,72,64,1
28.66306408682763,71,52,2
28.719996345282443,72,86,2
28.745600443041315,67,63,2
28.764858369382427,71,98,2
28.83948118067323,69,54,2
28.968038099555805,62,75,2
29.0,60,64,0
29.10334169271525,71,85,2
29.141380635275297,69,86,2
29.243047958191937,62,54,2
29.25,72,64,1
29.678556562544628,65,80,2
29.681641135259667,64,81,2
30.0,60,64,0
30.0,72,64,1
30.026874369101375,63,65,2
30.02870393000778,66,51,2
30.029375656824463,70,69,2
30.050795217963902,61,84,2
30.076565896910026,60,92,2
30.14751907556585,62,50,2
30.22874637210352,69,92,2
30.23419377862703,71,80,2
30.246034396392517,62,99,2
30.274756268206946,60,75,2
30.284360197914317,69,59,2
30.284948872993834,61,90,2
30.302080206187494,69,99,2
30.326865185598326,67,85,2
30.340394988261796,68,85,2
30.345278320662807,68,73,2
30.38638355024389,60,84,2
30.399685534097706,61,98,2
30.437134396681294,67,72,2
30.503887844791276,64,61,2
30.51789673502733,66,74,2
30.52469970209281,60,98,2
30.54229238933673,68,71,2
30.551124947224718,62,98,2
30.552499166577558,68,68,2
30.55489230684127,66,77,2
30.629816616420978,63,68,2
30.64679898851389,64,54,2
30.655474557982544,68,70,2
30.69037050482412,66,65,2
30.72934128062034,64,91,2
30.75,72,64,1
30.82082255769067,69,54,2
30.854215969012376,70,60,2
30.857328618451188,71,58,2
30.893164382128166,71,66,2
30.895829599934302,66,95,2
30.92600981172563,69,58,2
30.969139458070845,69,51,2
30.971260676835353,64,87,2
31.0,60,64,0
31.079147140886807,60,71,2
31.121036525968872,66,74,2
31.143441912038526,63,55,2
31.174232467092107,62,93,2
31.194666477281146,70,59,2
31.253872419168097,66,52,2
31.26118751239618,61,77,2
31.282372552177314,63,77,2
31.31881138854554,68,88,2
31.353076331485454,71,98,2
31.355239563952747,60,87,2
31.369571980226333,69,93,2
31.464877178508598,64,65,2
31.483630759767333,70,86,2
31.49092268306584,62,69,2
31.49288346887806,68,98,2
31.5,72,64,1
31.522630999830977,60,52,2
31.580486819068042,68,60,2
31.58873288721551,67,87,2
31.6039372687645,71,57,2
31.60858586862903,63,75,2
31.62087240934368,71,99,2
31.628601451419932,64,90,2
31.63612738497442,70,66,2
31.644331776440385,64,69,2
31.667413519780634,62,55,2
31.74220698290647,64,96,2
31.805094186793973,69,79,2
31.855353996295147,64,82,2
31.89293619592645,61,81,2
31.998410178447237,70,70,2
32.0,60,64,0
32.03302540299908,68,71,2
32.077201716472196,60,62,2
32.07884217619422,68,84,2
32.08243466673143,64,97,2
32.08439341148599,71,66,2
32.10350123649947,64,87,2
32.16459509089672,66,86,2
32.196971798562664,69,59,2
32.208836172078364,64,63,2
32.21457292665193,60,94,2
32.23786911921665,60,98,2
32.25,72,64,1
32.27323637582516,61,77,2
32.281058722789346,66,75,2
32.298295829551975,65,52,2
32.31665357606256,71,50,2
32.3367224290381,64,79,2
32.389041395118845,68,66,2
32.3926385940036,66,64,2
32.43102798104343,61,60,2
32.43701501838076,65,83,2
32.44780719991864,61,67,2
32.46025674660767,70,83,2
32.47095931196829,65,82,2
32.50923110541129,71,79,2
32.533558367295115,62,66,2
32.608213127679484,63,59,2
32.673504696755536,69,66,2
32.680973083114324,67,54,2
32.77881441055384,64,51,2
32.788779811356356,70,92,2
32.795645523049245,62,96,2
32.799094903542056,66,65,2
32.80321390108097,65,65,2
32.82881600235787,67,53,2
32.83941948525274,62,81,2
32.855479013793904,61,68,2
32.898598919353034,61,77,2
32.90927709086968,65,70,2
32.92916851324936,64,90,2
32.94016959649399,61,98,2
32.957669726111845,70,58,2
32.96009050062403,68,71,2
32.96222288638344,70,97,2
32.96379845707244,69,85,2
33.0,60,64,0
33.0,72,64,1
33.00482183665311,60,84,2
33.009921327454656,67,71,2
33.016654828247354,71,72,2
33.03559781101583,61,94,2
33.03720704406911,70,56,2
33.0662590690578,66,95,2
33.10087808071212,71,94,2
33.151353677152144,65,84,2
33.16400642252379,68,86,2
33.16903742358162,66,66,2
33.17497634697221,69,93,2
33.181615113739376,63,74,2
33.2100309376867,62,90,2
33.22728184823293,63,96,2
33.2606550101333,67,89,2
33.27478087636787,62,91,2
33.283124930874415,65,75,2
33.3065089170094,70,94,2
33.31653386258995,68,82,2
33.31672293483558,64,55,2
33.328090243804894,63,79,2
33.33325253744126,67,58,2
33.33534343025606,62,80,2
33.348551069168295,63,73,2
33.35152175281073,61,69,2
33.4387482444139,63,64,2
33.4812148202648,60,79,2
33.48589980858446,62,51,2
33.50624106913208,67,75,2
33.514452944902345,71,54,2
33.519629894455996,65,53,2
33.533483508207745,60,69,2
33.54042382279698,60,75,2
33.576925521143686,65,86,2
33.59456127669153,63,62,2
33.613574957894755,60,55,2
33.62383454792926,69,54,2
33.62547135439858,71,51,2
33.635199604961564,61,69,2
33.6425468258189,64,58,2
33.6782484813896,70,64,2
33.69419489749073,66,84,2
33.70492098003333,60,54,2
33.74931115681187,71,99,2
33.75,72,64,1
33.752629370357774,67,60,2
33.822282551989304,71,84,2
33.824002809926114,67,71,2
33.82523505155265,67,60,2
33.86488630432845,71,79,2
33.90847949795675,64,54,2
33.91519910039305,69,53,2
33.92470122048519,69,74,2
33.95342114359582,67,88,2
33.98469622134454,62,87,2
34.0,60,64,0
34.00409754510377,60,74,2
34.015074221627216,66,51,2
34.03468128118166,67,89,2
34.0591512637781,62,55,2
34.1294166808764,66,57,2
34.158997874650716,63,64,2
34.21172048113109,60,79,2
34.2678030643945,63,78,2
34.27191534739766,60,86,2
34.30960678548559,60,53,2
34.330699624395244,69,54,2
34.38304130800489,60,87,2
34.402264024521486,63,94,2
34.40567351528469,67,64,2
34.44557364936785,64,78,2
34.45208347492897,71,94,2
34.48391087922876,62,85,2
34.5,72,64,1
34.50347260675865,70,76,2
34.51407718660348,70,59,2
34.52456087181993,65,57,2
34.53833457110655,69,95,2
34.562194140267096,69,62,2
34.56593903367231,61,74,2
34.573332411685165,67,92,2
34.64058212510245,63,97,2
34.6704038936156,67,86,2
34.701113829950415,69,98,2
34.72258138369673,69,58,2
34.7363782462948,67,90,2
34.80132515162115,66,50,2
34.80432961923494,64,75,2
34.849972572005406,65,72,2
34.91338027052949,65,89,2
34.936785872326695,68,58,2
34.942539441054734,68,75,2
34.95268228846949,63,74,2
35.0,60,64,0
35.002471377755796,65,51,2
35.01814132847958,70,83,2
35.080806250748665,70,93,2
35.1417805397938,65,73,2
35.163327494752366,63,55,2
35.16418915374438,60,98,2
35.20209874102087,70,71,2
35.20831339103345,61,70,2
35.22641250503935,60,69,2
35.24177039617625,63,71,2
35.24400073211751,67,98,2
35.25,72,64,1
35.25290317815725,66,68,2
35.26364918521039,60,94,2
35.27550855231807,67,68,2
35.27720772582255,62,96,2
35.29595848175571,65,77,2
35.31235900344496,65,53,2
35.31737913060017,66,88,2
35.35236323771682,69,59,2
35.409293582271204,61,82,2
35.40993643598952,71,81,2
35.441403517485845,67,50,2
35.4614620932655,62,73,2
35.466919510539476,67,96,2
35.48798642959552,62,82,2
35.508325360334496,67,83,2
35.5492346664222,67,63,2
35.572342575338695,70,65,2
35.58499613757557,64,70,2
35.59803455331189,66,97,2
35.60030798509604,69,56,2
35.6335941082821,64,68,2
35.63686895621239,62,85,2
35.66261423155375,61,51,2
35.72298680977452,64,69,2
35.73321858796314,61,52,2
35.75552653171672,71,69,2
35.779990587855394,65,79,2
35.79125572846666,64,93,2
35.79745157907083,69,71,2
35.835277375448,60,59,2
35.85613227986692,70,95,2
35.872054544463886,60,99,2
35.87262268420083,68,89,2
35.90262600994021,68,88,2
35.90877426214267,65,92,2
35.92246599508006,69,78,2
35.927174866671564,66,86,2
35.92763891385683,61,70,2
35.969831256476134,68,87,2
35.9715697087619,64,74,2
35.988771953230966,71,72,2
35.99158937979514,65,70,2
35.999241770708295,65,76,2
36.0,60,64,0
36.0,72,64,1
36.02198787846321,71,94,2
36.0493312341984,66,59,2
36.11078647321768,69,70,2
36.12286424320087,69,95,2
36.124066859808174,71,92,2
36.1291617494836,64,85,2
36.166011044902916,64,60,2
36.17452734970177,63,98,2
36.20648873019759,67,84,2
36.281037816238296,66,96,2
36.358062956124016,65,54,2
36.37459229881159,69,85,2
36.39399697538439,62,84,2
36.44005167124613,60,94,2
36.44425243944419,68,75,2
36.460325072575976,68,58,2
36.47115395273641,60,74,2
36.5016671422501,67,91,2
36.51705705530258,62,52,2
36.51908094481009,71,93,2
36.60489767250949,65,83,2
36.60761777083427,64,93,2
36.648800192400635,60,66,2
36.7238124587287,66,98,2
36.728930715776535,67,68,2
36.75,72,64,1
36.7618709102548,64,66,2
36.78875185313406,65,65,2
36.836046152835316,68,67,2
36.8528515944896,70,75,2
36.854175957072364,69,96,2
36.855305217894966,66,66,2
36.86028403852966,64,71,2
36.9220556701328,64,56,2
36.93087804425143,67,99,2
36.94457231603365,61,80,2
36.994092583702034,66,84,2
37.0,60,64,0
37.00370109674002,69,88,2
37.00464384162174,67,84,2
37.02520686199541,61,52,2
37.054998810737615,67,75,2
37.08725222166812,71,88,2
37.09672123120357,60,53,2
37.135823664537014,68,62,2
37.160403891697065,69,93,2
37.16703428277121,66,84,2
37.218058824930566,70,62,2
37.2368779179423,62,88,2
37.23711618561411,60,78,2
37.23807422965076,71,65,2
37.28979708125157,68,59,2
37.29220157691307,66,69,2
37.32564702131241,60,52,2
37.34139244822547,67,79,2
37.38929523144713,61,86,2
37.390370350970564,60,95,2
37.39152408510136,60,73,2
37.394846305288006,70,86,2
37.4334311248349,70,55,2
37.5,72,64,1
37.53432902841119,67,60,2
37.59284242519816,61,74,2
37.62684374992409,63,57,2
37.69834398321144,65,94,2
37.70154944327351,70,83,2
37.71366582884463,68,98,2
37.79248733344166,67,55,2
37.83281967775081,65,96,2
37.838913668719584,68,84,2
37.86165114444127,60,91,2
37.879754087013715,61,66,2
37.88393190913355,62,87,2
37.908315509441444,68,58,2
37.96464168518615,64,83,2
37.9799277360863,67,52,2
37.98789705914836,68,52,2
38.0,60,64,0
38.065788967967194,71,91,2
38.10724365471054,67,74,2
38.12725402424979,70,83,2
38.14037938674754,65,57,2
38.17012409156714,69,67,2
38.17223707774803,71,97,2
38.20097883093796,64,62,2
38.24860879651407,67,94,2
38.25,72,64,1
38.264985174949956,62,52,2
38.275670628298585,61,89,2
38.29652296182446,60,55,2
38.3149379187875,67,77,2
38.36246306175104,70,97,2
38.39326919477378,70,94,2
38.423158686383076,69,85,2
38.44725709685863,65,56,2
38.50060710253595,69,80,2
38.54429828694283,69,81,2
38.554501961505565,66,80,2
38.55452997998741,61,63,2
38.58985988518216,71,88,2
38.595224791792155,70,98,2
38.61574046126698,67,80,2
38.627558458620335,67,94,2
38.66539408937357,65,68,2
38.70117930139198,69,90,2
38.783594833336174,71,64,2
38.85081135772539,65,53,2
38.85558291007405,63,99,2
38.929160403904056,60,61,2
38.93090355208893,69,50,2
38.93239519136883,67,67,2
38.983698012490756,71,85,2
39.0,60,64,0
39.0,72,64,1
39.009770852390965,63,61,2
39.01039320794803,70,82,2
39.02016785220346,62,60,2
39.048912495375724,69,83,2
39.05690477443969,63,66,2
39.059599795591154,68,88,2
39.078317566469984,70,81,2
39.080466892892545,63,71,2
39.083986839746,62,66,2
39.16656818843492,67,77,2
39.19941939768835,64,69,2
39.21209000526358,68,54,2
39.31543426849188,60,87,2
39.321966913803976,62,98,2
39.34833181027587,71,67,2
39.39827526174654,70,57,2
39.402611658232125,68,66,2
39.40500143720018,67,64,2
39.42011582099563,61,56,2
39.444718039756225,71,73,2
39.50812762230158,62,69,2
39.54793443577487,68,79,2
39.55105391487922,60,93,2
39.55816409940212,68,87,2
39.56455383566734,71,71,2
39.58635897147546,64,51,2
39.62629165372626,70,62,2
39.63034229596609,64,67,2
39.65886385245695,61,95,2
39.75,72,64,1
39.75078747816576,65,81,2
39.7775369224265,68,82,2
39.853790914828046,68,57,2
39.88600063165362,62,73,2
39.88994395268247,71,95,2
39.893787175236795,65,71,2
39.89969129867885,60,59,2
39.93707224596986,61,82,2
39.955302573309176,60,90,2
39.96609627058627,60,62,2
39.96814221282647,65,88,2
39.97170192547459,66,75,2
40.0,60,64,0
40.00093838955355,61,64,2
40.00652167391,66,93,2
40.00928289434213,70,52,2
40.065920258279434,68,55,2
40.08988746825564,68,99,2
40.15829941050306,67,99,2
40.18284046076423,63,96,2
40.22500182499793,66,60,2
40.28130308296756,63,55,2
40.3238005232092,69,52,2
40.3248407189689,71,91,2
40.339274080708634,61,61,2
40.34636975964713,68,94,2
40.37028078799974,62,95,2
40.38055136610802,67,78,2
40.41953169354788,66,81,2
40.43677032126597,61,55,2
40.468523294759194,65,86,2
40.5,72,64,1
40.608739075560386,68,52,2
40.6108651309293,62,84,2
40.61709465615706,65,64,2
40.62454412498553,71,98,2
40.675219623115304,69,73,2
40.68907571260049,63,77,2
40.700667853864175,63,73,2
40.720261096483156,62,81,2
40.7424329373348,69,83,2
40.759103794924776,61,64,2
40.81684450691529,65,88,2
40.82494720459242,62,61,2
40.837053709996,61,89,2
40.882250636121384,60,84,2
40.9196533899062,63,97,2
40.94267688945778,69,93,2
40.954341073445065,61,86,2
41.0,60,64,0
41.00251081763898,68,96,2
41.02497935818452,66,74,2
41.052143087646,66,55,2
41.07854076303995,68,77,2
41.086005410050554,64,54,2
41.095838515160274,67,61,2
41.09934518465053,66,96,2
41.10603152070383,69,52,2
41.120617520658065,69,78,2
41.13089214765319,68,50,2
41.14581235114555,67,92,2
41.22000718422978,68,69,2
41.23193222931277,70,86,2
41.24296207750693,71,86,2
41.25,72,64,1
41.281019549724796,67,93,2
41.29580095574099,65,93,2
41.31520905858379,63,99,2
41.42319564834112,68,86,2
41.49215517847617,60,84,2
41.50720125968372,64,54,2
41.509927357435224,62,63,2
41.539062821184196,63,99,2
41.62295792887969,70,83,2
41.63271485435197,68,88,2
41.647877161079265,70,99,2
41.65836576068404,65,69,2
41.66172524053332,63,65,2
41.73198553429014,71,57,2
41.819576294045866,60,57,2
41.82382121734918,65,54,2
41.90647760328611,61,50,2
41.95199937482605,69,92,2
41.980740280700665,61,67,2
42.0,60,64,0
42.0,72,64,1
42.00478865208944,67,96,2
42.025923379391166,71,76,2
42.092746017073644,63,82,2
42.115691410835886,64,97,2
42.142025189228065,69,77,2
42.146362825909506,65,58,2
42.196692688093854,68,97,2
42.23159400987732,64,62,2
42.24011002854086,70,53,2
42.266392154662825,65,95,2
42.33137479553028,62,55,2
42.389285722687426,68,72,2
42.40358478510597,70,50,2
42.40678655917231,65,56,2
42.40693094181022,60,61,2
42.43046037593211,64,68,2
42.442758759499895,68,82,2
42.449539025718195,60,84,2
42.45598465315652,69,60,2
42.47910839303948,69,51,2
42.494675333414904,62,70,2
42.54443065146227,61,55,2
42.605834700385245,69,74,2
42.617793484507715,61,97,2
42.639491260879346,71,85,2
42.66289754483622,66,55,2
42.697244411593815,71,92,2
42.697704432708385,66,92,2
42.69789422317167,64,64,2
42.704869956778616,70,64,2
42.71035976982623,65,68,2
42.713033281361035,63,97,2
42.7315436919495,70,78,2
42.75,72,64,1
42.77216076744863,62,57,2
42.78148478484247,63,79,2
42.81296757795867,60,62,2
42.82630923630765,68,79,2
42.83130557550071,71,59,2
42.8715141752034,66,98,2
42.89245764701761,69,85,2
42.90627173968037,65,56,2
42.94855809932246,71,94,2
42.97362824891182,70,62,2
42.99663645948067,65,70,2
43.0,60,64,0
43.05053512273452,68,75,2
43.05649297508903,69,73,2
43.06972741089737,69,57,2
43.10646330002913,60,75,2
43.113844230140835,63,99,2
43.14675952630278,63,88,2
43.17429116388291,61,68,2
43.19873596560955,60,99,2
43.202886852088625,60,84,2
43.25375039683474,60,70,2
43.25626565211631,64,64,2
43.262807764978966,66,81,2
43.288207834160566,68,63,2
43.31320069474246,68,74,2
43.423329023826994,62,56,2
43.453026962887506,62,91,2
43.4670010960288,66,90,2
43.4964779104118,66,73,2
43.49991336351521,62,53,2
43.5,72,64,1
43.53212793265705,69,81,2
43.5401385974683,63,89,2
43.56604995413612,63,52,2
43.57887014021124,60,55,2
43.5898326210815,63,62,2
43.60813292913214,61,54,2
43.60994535796441,64,57,2
43.66296842837666,61,52,2
43.68200181919103,69,52,2
43.687279873615346,61,72,2
43.69916940946267,65,66,2
43.83415320581067,66,79,2
43.84429869318828,65,93,2
43.84662262028892,64,62,2
43.87181633197032,68,65,2
43.88498503543415,68,65,2
43.88501597156112,71,57,2
43.92468953763402,66,77,2
44.0,60,64,0
44.01608980619862,65,54,2
44.049496974895966,67,93,2
44.05647847306059,64,69,2
44.08090509427613,61,57,2
44.116095130155024,60,65,2
44.13376809100821,63,83,2
44.135397800196365,63,82,2
44.14184626425824,61,90,2
44.14413935527255,70,58,2
44.16195903738348,62,72,2
44.23330922173004,61,55,2
44.25,72,64,1
44.29626314789298,70,64,2
44.417469729526985,64,91,2
44.43485612557281,60,91,2
44.454254817942854,62,79,2
44.50684291214893,65,52,2
44.54586272948804,63,63,2
44.54797226271806,64,84,2
44.55273688830223,61,84,2
44.56335689895756,63,67,2
44.58896577682096,68,51,2
44.59251998204013,65,82,2
44.656540018255534,60,95,2
44.71367378661394,63,52,2
44.790006511774784,65,74,2
44.817444849980895,61,57,2
44.833708252771906,63,74,2
44.840325345726825,71,61,2
44.92472979152393,71,62,2
44.99362767357295,63,67,2
45.0,60,64,0
45.0,72,64,1
45.00176236288261,65,81,2
45.00784723693257,61,72,2
45.01196983572143,62,54,2
45.04990972305203,69,74,2
45.05140782055463,70,99,2
45.05289574759024,67,64,2
45.15577819953167,62,58,2
45.15961424606251,68,77,2
45.168648363711036,62,56,2
45.19810285045924,71,82,2
45.21590713177011,66,89,2
45.25795335118703,66,78,2
45.2824005797575,71,87,2
45.296282358790414,64,84,2
45.307744488374986,71,71,2
45.35168393215225,64,71,2
45.43466672451147,66,51,2
45.438257818602104,64,87,2
45.44577913620265,69,72,2
45.449465829136,66,54,2
45.45552404803792,64,75,2
45.46242452208418,64,67,2
45.46409449372483,63,66,2
45.46700043007971,71,60,2
45.48214612085688,63,75,2
45.48554733517101,61,97,2
45.51897133212163,67,84,2
45.53075697953217,63,78,2
45.54613603355509,64,91,2
45.60179624646319,68,66,2
45.62867050676142,68,50,2
45.67004230397391,60,59,2
45.73663795253682,71,89,2
45.75,72,64,1
45.7521111009078,70,83,2
45.7643193201437,65,57,2
45.770755084091526,60,72,2
45.78902153514126,62,54,2
45.822452833119826,60,72,2
45.85095649178661,67,72,2
45.88245450128618,62,73,2
45.885238058723914,60,54,2
45.90299942556808,67,80,2
45.91179287509883,70,64,2
45.98311199659425,62,77,2
45.994068472577695,69,54,2
46.0,60,64,0
46.01400984317361,65,81,2
46.01578953314099,69,87,2
46.01794530691173,71,66,2
46.02670002104432,67,74,2
46.11993302740884,61,52,2
46.123168279635266,63,63,2
46.124962509458356,68,99,2
46.13468565678974,63,61,2
46.15076298835734,61,62,2
46.172595125908465,71,83,2
46.176022017457974,60,89,2
46.19883767728254,68,74,2
46.21062751519136,71,74,2
46.21509622792875,63,79,2
46.28098395522731,71,81,2
46.2981158035631,60,70,2
46.306534348010075,66,88,2
46.3533880512096,68,96,2
46.360654915519966,64,57,2
46.39513211585111,66,72,2
46.42182172061822,70,71,2
46.456799862496034,68,71,2
46.4761889754087,61,51,2
46.47972025391251,63,76,2
46.5,72,64,1
46.56362327948885,62,72,2
46.609547906250796,65,92,2
46.64503746509559,60,52,2
46.65386693634563,62,72,2
46.68305677712305,66,93,2
46.70834183099492,64,96,2
46.71272592169913,69,65,2
46.75447582641289,71,54,2
46.80778650249423,63,89,2
46.81317686003106,69,83,2
46.8188818815626,69,70,2
46.8519012236268,66,76,2
46.857108358642634,68,97,2
46.89539619301498,63,85,2
46.89552727641084,69,61,2
46.92976161294467,68,83,2
46.96530202460945,63,60,2
47.0,60,64,0
47.00059383225574,66,55,2
47.05291222256015,64,53,2
47.06508083230956,63,69,2
47.1029794960591,65,84,2
47.10668686045934,65,70,2
47.10673390177743,66,70,2
47.1074714599172,63,94,2
47.109911522641944,66,56,2
47.126306501689285,62,73,2
47.12905570616452,69,53,2
47.130411936067,67,83,2
47.153279795794816,62,80,2
47.153859792266104,62,98,2
47.1791585488431,62,71,2
47.20887872917333,71,79,2
47.25,72,64,1
47.3092705627332,64,80,2
47.352863469141575,62,97,2
47.36455213923022,66,98,2
47.3787820246607,61,98,2
47.40157861917217,70,96,2
47.56171544118802,71,94,2
47.56647872252403,65,53,2
47.58361645233962,70,64,2
47.59680324111886,71,60,2
47.63047877337976,69,65,2
47.63614929246595,63,59,2
47.64633013256817,70,98,2
47.66836590320981,65,94,2
47.69827185867405,70,94,2
47.73642018953366,62,91,2
47.78430704445359,69,54,2
47.830425541228145,64,69,2
47.87099410565936,69,54,2
47.90160010980066,69,53,2
47.90287828534235,66,99,2
47.96290810573771,67,85,2
47.99916697321189,65,95,2
48.0,60,64,0
48.0,72,64,1
48.022721623534814,71,80,2
48.086698284806836,68,85,2
48.08703561611409,67,93,2
48.08817611233224,65,77,2
48.09624053778728,66,77,2
48.134916979497206,69,65,2
48.146515812486264,69,74,2
48.183997972442725,71,58,2
48.20071280974532,67,92,2
48.20233035853308,69,92,2
48.206079003509245,63,99,2
48.21931628905721,66,55,2
48.27683928748243,61,81,2
48.304089747003246,63,73,2
48.32462381851027,66,70,2
48.32596563946766,71,63,2
48.35877510354449,69,70,2
48.36618577723408,62,72,2
48.37170498761244,67,98,2
48.387292366816745,68,70,2
48.41073835251769,68,90,2
48.41129539153814,64,53,2
48.424827079929265,68,56,2
48.45360796045643,60,66,2
48.5520630567676,61,77,2
48.58413974706445,68,88,2
48.61490066957951,60,83,2
48.61703213821625,65,83,2
48.63360710867663,64,54,2
48.70643703186162,68,51,2
48.709003428226545,62,88,2
48.72871361508414,67,96,2
48.74667537563249,71,59,2
48.75,72,64,1
48.84216354285033,62,98,2
48.84778478619248,66,70,2
48.852284084777914,63,95,2
48.88735562387146,67,89,2
48.93991418390309,65,77,2
48.94729002109185,68,89,2
49.0,60,64,0
49.0522654142151,69,98,2
49.052953996181024,68,52,2
49.112936959922365,60,91,2
49.13015650339859,65,88,2
49.15689110197686,68,99,2
49.15934267032137,64,60,2
49.165039238899205,69,57,2
49.17350092307143,71,90,2
49.19504559409492,64,57,2
49.2350221620812,67,67,2
49.23932020237093,63,55,2
49.278727698519035,66,65,2
49.32738182303187,62,76,2
49.33548717202113,67,87,2
49.339278436780646,60,57,2
49.39538391463525,71,97,2
49.3995088552915,63,79,2
49.4233910136802,65,68,2
49.47690614968876,71,60,2
49.49449653289081,60,94,2
49.5,72,64,1
49.59804866730209,64,79,2
49.62322261003943,63,77,2
49.67663407564163,70,76,2
49.7056617778951,62,82,2
49.706406875798976,63,83,2
49.71229211724793,64,84,2
49.717480392101805,68,87,2
49.73693678795928,62,93,2
49.8476449754232,61,96,2
49.874009950363956,68,70,2
49.88134648491664,65,52,2
49.93431599956444,69,97,2
49.96543708660782,67,75,2
49.96808881351027,64,84,2
49.97191677686179,68,96,2
49.977223734730586,70,72,2
50.0,60,64,0
50.00147450011431,65,66,2
50.04751624624017,70,79,2
50.144222306655045,62,82,2
50.14759675308457,61,51,2
50.157052229552654,67,77,2
50.18566885636389,65,58,2
50.212294600763535,60,57,2
50.21418076900412,62,53,2
50.25,72,64,1
50.26450087104766,65,64,2
50.27047775255178,62,95,2
50.30607752669802,63,61,2
50.31270151972263,68,84,2
50.314224317754906,61,82,2
50.36605617752529,70,72,2
50.37068675368714,61,95,2
50.386107999307214,63,57,2
50.38955648987244,62,79,2
50.43008847468838,70,69,2
50.430542576218464,67,73,2
50.43123135335915,65,72,2
50.43463984980235,68,68,2
50.52473155486288,62,91,2
50.55477388789812,71,69,2
50.65493043511338,68,68,2
50.70647123004874,67,87,2
50.7096740888037,63,89,2
50.71731398756527,68,82,2
50.73312789698178,68,63,2
50.755932718242164,62,90,2
50.76484670313278,68,53,2
50.76651332320125,71,57,2
50.81895585681135,65,90,2
50.931766890982956,66,65,2
50.93861170448381,60,97,2
50.9394938430712,62,60,2
51.0,60,64,0
51.0,72,64,1
51.0742410457927,61,70,2
51.09266568509292,64,97,2
51.13716741395108,62,93,2
51.14021971213365,68,58,2
51.16787576490085,60,83,2
51.22067052416972,60,57,2
51.23888710357751,67,61,2
51.29927439250557,68,68,2
51.355036420146305,65,89,2
51.429001340477555,65,69,2
51.467875351638966,62,53,2
51.4960835657123,71,77,2
51.502753913972896,71,94,2
51.591064662132155,71,51,2
51.59898621338335,70,90,2
51.61663017560474,66,87,2
51.61846951506714,68,67,2
51.62969918408488,71,55,2
51.63086727118493,67,68,2
51.63896950253751,60,78,2
51.6549820115421,62,89,2
51.67084188462242,63,98,2
51.68901323935553,65,98,2
51.689205578162294,67,92,2
51.73564098156161,60,75,2
51.75,72,64,1
51.75117801989873,64,98,2
51.75734183772739,69,92,2
51.75847691441844,68,58,2
51.80089026157768,60,90,2
51.843512381070056,64,88,2
51.86489106978719,66,62,2
51.893021666775375,62,60,2
51.89654604592327,60,89,2
51.91024315056131,71,57,2
51.969786835129106,64,94,2
51.993193126819904,60,94,2
52.0,60,64,0
52.02487741329885,71,54,2
52.02491657158006,70,95,2
52.02622880026743,66,98,2
52.04937441697065,61,67,2
52.05241413850707,60,85,2
52.063927474710034,62,96,2
52.07750034131463,63,98,2
52.07934171107731,69,64,2
52.11398415100143,61,78,2
52.14236631379392,61,60,2
52.165191990524356,61,58,2
52.188897716621675,71,52,2
52.22107913644435,70,51,2
52.2399542501472,62,65,2
52.35845960887155,61,66,2
52.38813605678764,71,84,2
52.403029902982595,66,94,2
52.41577425525289,64,70,2
52.457033699702826,68,72,2
52.49945264256718,65,77,2
52.5,72,64,1
52.51170341710723,70,67,2
52.524636998551145,66,58,2
52.53378037724817,69,79,2
52.54856408047106,61,81,2
52.591772766326606,71,93,2
52.653886005101434,66,89,2
52.708988919346616,69,85,2
52.72146852000813,67,88,2
52.739388199753726,71,86,2
52.765331340054956,64,50,2
52.7759428544593,63,68,2
52.776587283319216,71,67,2
52.801914367894135,70,96,2
52.80377469613854,70,98,2
52.80644373117775,64,57,2
52.817780998341725,63,61,2
52.83828781640988,63,98,2
52.84207446846225,64,79,2
52.84277254252282,70,52,2
52.92589054223563,63,75,2
52.926884960254995,65,92,2
52.93915999432075,69,99,2
52.948553025978086,64,79,2
52.95203595075979,69,86,2
53.0,60,64,0
53.03007901446332,64,84,2
53.08490069285252,63,67,2
53.12872003163693,60,78,2
53.1372262057594,63,66,2
53.14940034883965,65,53,2
53.247337537076376,68,98,2
53.25,72,64,1
53.266333472445304,65,72,2
53.28084864573393,69,83,2
53.288353813459985,62,98,2
53.30605761153547,71,70,2
53.39090128109621,66,53,2
53.40156634348414,71,73,2
53.60553719878316,61,60,2
53.611345243703816,60,84,2
53.66441749370998,67,71,2
53.68548057171951,69,68,2
53.691100197534155,64,57,2
53.6921066766933,60,86,2
53.71168481878713,62,76,2
53.77173241922209,70,94,2
53.78706617447145,65,70,2
53.82131292783887,66,77,2
53.82279980659694,67,69,2
53.83852043353813,69,61,2
53.92585960542593,62,68,2
53.94384187538721,71,93,2
53.97896568108787,65,85,2
53.987379911564375,60,73,2
54.0,60,64,0
54.0,72,64,1
54.00193006379559,70,60,2
54.064680971253665,62,99,2
54.09702079380041,64,63,2
54.11223999222097,71,96,2
54.14839405213353,63,56,2
54.22650999376348,68,57,2
54.2746071985358,60,66,2
54.321535043811615,67,68,2
54.330880537955764,62,54,2
54.34873636066192,66,65,2
54.38468620091923,65,78,2
54.38546184638398,62,59,2
54.389071170273866,64,65,2
54.431913064096044,68,73,2
54.46493052312817,68,79,2
54.46515309306997,62,99,2
54.49339183943089,60,89,2
54.50211728339352,66,52,2
54.53559010535439,68,86,2
54.56931277044309,64,62,2
54.6043152935332,64,58,2
54.64063853667551,63,84,2
54.664410857283336,67,72,2
54.68112845687803,63,79,2
54.681748545083416,70,84,2
54.70166296946364,71,62,2
54.75,72,64,1
54.77542621909019,61,94,2
54.85301762494191,70,87,2
54.861918991848874,67,66,2
54.87927890426816,69,65,2
54.89554354620609,61,51,2
54.92649989452945,67,96,2
54.93242818246205,61,88,2
54.945253300043774,66,63,2
54.94938488468283,66,76,2
54.949941713086325,66,88,2
54.956347234860644,68,79,2
55.0,60,64,0
55.05290558406005,64,68,2
55.063977519775214,68,74,2
55.06725646588152,60,72,2
55.11767911682857,69,59,2
55.160748760606644,65,69,2
55.189439928844756,61,77,2
55.19612559210602,64,73,2
55.20468679770196,63,62,2
55.26684699932135,67,67,2
55.27967794721784,61,67,2
55.323078227879144,70,90,2
55.357600476077096,68,80,2
55.36283887512326,69,67,2
55.370918827871,65,66,2
55.372537347987475,61,57,2
55.372633028917384,64,93,2
55.40639695007516,71,60,2
55.45021734204096,70,68,2
55.47102667427028,61,93,2
55.49223133185409,61,64,2
55.5,72,64,1
55.56384183525249,62,98,2
55.57568464416074,67,61,2
55.60379367283386,60,72,2
55.62081495203964,60,76,2
55.6673023217918,66,59,2
55.67104720517092,64,70,2
55.72313569867734,64,82,2
55.73129417177848,70,66,2
55.75947781844277,68,79,2
55.76731027063679,63,68,2
55.79246153631802,64,91,2
55.795229464597575,65,97,2
55.80738767327675,68,84,2
55.822686053203,61,63,2
55.85951294658221,68,56,2
55.89599184587253,61,86,2
55.9391664168671,61,65,2
55.95076344173066,65,60,2
55.983542776375366,65,82,2
56.0,60,64,0
56.02331316065486,66,94,2
56.02422816993407,68,73,2
56.0909996667958,63,67,2
56.124398877448684,65,93,2
56.12573913552342,71,89,2
56.14152417479618,60,85,2
56.143754283012264,70,84,2
56.17123459427181,60,59,2
56.19085550739216,64,59,2
56.19122556753452,64,87,2
56.20151310781806,65,66,2
56.20483335340067,69,84,2
56.22180778388152,65,66,2
56.25,72,64,1
56.28093682523209,63,73,2
56.31319838765069,68,85,2
56.31426212110072,69,87,2
56.35018171867337,66,77,2
56.35795557588173,60,89,2
56.36148079403776,71,76,2
56.38289336160898,69,96,2
56.424040144310624,61,86,2
56.43175709591932,64,74,2
56.468842857222526,69,56,2
56.47953929079986,71,65,2
56.500527887364896,64,85,2
56.520400854099044,63,96,2
56.54854376884379,70,57,2
56.586763086111546,68,57,2
56.59256438010064,70,53,2
56.6499931802118,68,78,2
56.657072275424326,71,62,2
56.69147537248949,66,93,2
56.692964994741054,69,89,2
56.764461973799854,64,81,2
56.79077600168251,70,64,2
56.81137412049036,65,90,2
56.81710885871016,69,93,2
56.84128100305686,68,75,2
56.888245728285675,70,94,2
56.89632802171719,64,57,2
56.92158994642262,71,60,2
56.92911436378759,60,96,2
56.99148399883666,67,96,2
56.99304761628488,61,75,2
56.99703139287,64,69,2
57.0,60,64,0
57.0,72,64,1
57.021950060540036,70,82,2
57.101163019122914,70,83,2
57.108086297380645,69,70,2
57.19004544381658,65,87,2
57.256052996872995,61,63,2
57.27582625006314,62,79,2
57.325696698526755,67,93,2
57.38268664997079,71,82,2
57.38637013752614,70,62,2
57.40509893489377,71,93,2
57.48596579376524,63,84,2
57.503206428523946,67,75,2
57.521688285997016,71,60,2
57.537044998413066,61,68,2
57.54188751388933,65,67,2
57.64120551908621,63,93,2
57.68053257999012,70,83,2
57.71049155785761,70,65,2
57.75,72,64,1
57.80513502747909,66,57,2
57.80954365684111,67,79,2
57.84121923881414,60,92,2
57.86867958245212,70,69,2
57.889494717144835,65,78,2
57.906768240773836,68,86,2
57.906995229870105,64,77,2
57.97215313429641,69,92,2
57.97333191127399,69,89,2
58.0,60,64,0
58.02043570381784,67,97,2
58.022942244393754,64,76,2
58.02368233588881,62,93,2
58.050832192561195,69,85,2
58.05935521836937,67,76,2
58.13679767841855,60,81,2
58.15477060044398,66,98,2
58.179997453749976,63,79,2
58.24265370357091,60,88,2
58.26417052715705,60,67,2
58.38630020120715,63,76,2
58.399729607848045,60,99,2
58.4578596827174,69,94,2
58.5,72,64,1
58.54946165992917,66,59,2
58.59524748834762,68,90,2
58.601739254042286,60,66,2
58.60574869429011,67,94,2
58.6121174593886,63,54,2
58.64386670438557,67,70,2
58.66204456336045,69,68,2
58.66592626450751,66,96,2
58.72444838892507,69,89,2
58.737258300450236,63,72,2
58.75343091326053,61,94,2
58.77578988234988,68,97,2
58.78586027408921,66,95,2
58.791660965587035,68,76,2
58.79344856951376,62,86,2
58.808853333906114,67,76,2
58.85402403387814,63,83,2
58.89119416932463,67,91,2
58.9347381140596,61,98,2
58.95410217307387,67,72,2
59.0,60,64,0
59.02094700533414,64,90,2
59.02094729620472,68,55,2
59.02235188543363,69,89,2
59.028760519063205,65,70,2
59.037818594681305,62,71,2
59.070491333958174,71,61,2
59.076840859719276,63,96,2
59.09028481589349,66,99,2
59.1468787349237,64,74,2
59.15416474996539,62,63,2
59.1575132218789,70,96,2
59.198600181097135,66,65,2
59.233686017055135,64,70,2
59.23773727096712,70,80,2
59.25,72,64,1
59.272780563678424,70,83,2
59.310705646327776,68,66,2
59.38673528410554,69,71,2
59.39444349917578,63,97,2
59.40323781340339,68,70,2
59.42376753783012,60,50,2
59.45458453609858,62,85,2
59.544351145393904,67,51,2
59.574218988937616,66,55,2
59.637674940830415,66,88,2
59.685181666739254,68,66,2
59.685965267645784,68,78,2
59.689799014022306,65,55,2
59.71715054510029,64,52,2
59.72031442229847,60,61,2
59.74811106175809,66,50,2
59.75745964213431,69,64,2
59.775124200316355,63,67,2
59.7755290066869,70,84,2
59.77581609841451,69,82,2
59.863695227363,66,53,2
59.884161889635344,62,55,2
59.90392704871507,60,89,2
59.905253333416134,60,54,2
59.93693981459988,65,89,2
59.94187840360388,62,68,2
59.95450585844145,70,92,2
60.0,60,64,0
60.0,72,64,1
