onset_time,pitch,velocity,voice_id,chord_id,polyphony
0.0,84,64,0,0,5
0.0,60,64,1,0,5
0.0,48,64,2,0,5
0.0,71,64,3,0,5
0.0,67,64,4,0,5
0.5,74,64,5,1,5
0.5,53,64,6,1,5
0.5,53,64,7,1,5
0.5,76,64,8,1,5
0.5,96,64,9,1,5
1.0,76,64,10,2,6
1.0,40,64,11,2,6
1.0,72,64,12,2,6
1.0,38,64,13,2,6
1.0,76,64,14,2,6
1.0,86,64,15,2,6
1.5,38,64,16,3,6
1.5,71,64,17,3,6
1.5,91,64,18,3,6
1.5,55,64,19,3,6
1.5,72,64,20,3,6
1.5,77,64,21,3,6
2.0,81,64,22,4,6
2.0,83,64,23,4,6
2.0,62,64,24,4,6
2.0,60,64,25,4,6
2.0,40,64,26,4,6
2.0,47,64,27,4,6
2.5,71,64,28,5,6
2.5,50,64,29,5,6
2.5,65,64,30,5,6
2.5,41,64,31,5,6
2.5,77,64,32,5,6
2.5,59,64,33,5,6
3.0,50,64,34,6,7
3.0,79,64,35,6,7
3.0,38,64,36,6,7
3.0,69,64,37,6,7
3.0,83,64,38,6,7
3.0,47,64,39,6,7
3.0,48,64,40,6,7
3.5,95,64,41,7,7
3.5,59,64,42,7,7
3.5,64,64,43,7,7
3.5,96,64,44,7,7
3.5,41,64,45,7,7
3.5,38,64,46,7,7
3.5,45,64,47,7,7
4.0,41,64,48,8,7
4.0,84,64,49,8,7
4.0,65,64,50,8,7
4.0,79,64,51,8,7
4.0,93,64,52,8,7
4.0,52,64,53,8,7
4.0,96,64,54,8,7
4.5,59,64,55,9,8
4.5,88,64,56,9,8
4.5,60,64,57,9,8
4.5,48,64,58,9,8
4.5,59,64,59,9,8
4.5,74,64,60,9,8
4.5,71,64,61,9,8
4.5,62,64,62,9,8
5.0,65,64,63,10,8
5.0,76,64,64,10,8
5.0,79,64,65,10,8
5.0,77,64,66,10,8
5.0,84,64,67,10,8
5.0,60,64,68,10,8
5.0,36,64,69,10,8
5.0,77,64,70,10,8
5.5,47,64,71,11,8
5.5,50,64,72,11,8
5.5,76,64,73,11,8
5.5,36,64,74,11,8
5.5,48,64,75,11,8
5.5,76,64,76,11,8
5.5,53,64,77,11,8
5.5,64,64,78,11,8
6.0,48,64,79,12,8
6.0,95,64,80,12,8
6.0,95,64,81,12,8
6.0,91,64,82,12,8
6.0,43,64,83,12,8
6.0,83,64,84,12,8
6.0,47,64,85,12,8
6.0,50,64,86,12,8
6.5,48,64,87,13,9
6.5,55,64,88,13,9
6.5,93,64,89,13,9
6.5,91,64,90,13,9
6.5,74,64,91,13,9
6.5,76,64,92,13,9
6.5,95,64,93,13,9
6.5,72,64,94,13,9
6.5,81,64,95,13,9
7.0,95,64,96,14,9
7.0,36,64,97,14,9
7.0,95,64,98,14,9
7.0,59,64,99,14,9
7.0,40,64,100,14,9
7.0,36,64,101,14,9
7.0,43,64,102,14,9
7.0,79,64,103,14,9
7.0,59,64,104,14,9
7.5,81,64,105,15,9
7.5,50,64,106,15,9
7.5,60,64,107,15,9
7.5,60,64,108,15,9
7.5,79,64,109,15,9
7.5,57,64,110,15,9
7.5,89,64,111,15,9
7.5,89,64,112,15,9
7.5,41,64,113,15,9
8.0,86,64,114,16,10
8.0,74,64,115,16,10
8.0,60,64,116,16,10
8.0,84,64,117,16,10
8.0,96,64,118,16,10
8.0,57,64,119,16,10
8.0,89,64,120,16,10
8.0,47,64,121,16,10
8.0,72,64,122,16,10
8.0,83,64,123,16,10
8.5,38,64,124,17,10
8.5,45,64,125,17,10
8.5,83,64,126,17,10
8.5,83,64,127,17,10
8.5,69,64,128,17,10
8.5,86,64,129,17,10
8.5,53,64,130,17,10
8.5,83,64,131,17,10
8.5,77,64,132,17,10
8.5,91,64,133,17,10
9.0,36,64,134,18,10
9.0,81,64,135,18,10
9.0,57,64,136,18,10
9.0,40,64,137,18,10
9.0,45,64,138,18,10
9.0,48,64,139,18,10
9.0,81,64,140,18,10
9.0,50,64,141,18,10
9.0,91,64,142,18,10
9.0,76,64,143,18,10
9.5,60,64,144,19,11
9.5,89,64,145,19,11
9.5,89,64,146,19,11
9.5,76,64,147,19,11
9.5,55,64,148,19,11
9.5,38,64,149,19,11
9.5,40,64,150,19,11
9.5,64,64,151,19,11
9.5,38,64,152,19,11
9.5,38,64,153,19,11
9.5,83,64,154,19,11
10.0,74,64,155,20,11
10.0,89,64,156,20,11
10.0,91,64,157,20,11
10.0,36,64,158,20,11
10.0,67,64,159,20,11
10.0,38,64,160,20,11
10.0,79,64,161,20,11
10.0,89,64,162,20,11
10.0,45,64,163,20,11
10.0,89,64,164,20,11
10.0,41,64,165,20,11
10.5,53,64,166,21,11
10.5,64,64,167,21,11
10.5,76,64,168,21,11
10.5,43,64,169,21,11
10.5,93,64,170,21,11
10.5,45,64,171,21,11
10.5,72,64,172,21,11
10.5,53,64,173,21,11
10.5,62,64,174,21,11
10.5,91,64,175,21,11
10.5,50,64,176,21,11
11.0,45,64,177,22,11
11.0,62,64,178,22,11
11.0,84,64,179,22,11
11.0,40,64,180,22,11
11.0,69,64,181,22,11
11.0,96,64,182,22,11
11.0,67,64,183,22,11
11.0,79,64,184,22,11
11.0,40,64,185,22,11
11.0,67,64,186,22,11
11.0,69,64,187,22,11
11.5,89,64,188,23,12
11.5,47,64,189,23,12
11.5,91,64,190,23,12
11.5,65,64,191,23,12
11.5,36,64,192,23,12
11.5,53,64,193,23,12
11.5,83,64,194,23,12
11.5,77,64,195,23,12
11.5,74,64,196,23,12
11.5,88,64,197,23,12
11.5,86,64,198,23,12
11.5,95,64,199,23,12
12.0,47,64,200,24,12
12.0,62,64,201,24,12
12.0,79,64,202,24,12
12.0,38,64,203,24,12
12.0,36,64,204,24,12
12.0,55,64,205,24,12
12.0,43,64,206,24,12
12.0,89,64,207,24,12
12.0,50,64,208,24,12
12.0,95,64,209,24,12
12.0,67,64,210,24,12
12.0,62,64,211,24,12
12.5,40,64,212,25,12
12.5,69,64,213,25,12
12.5,76,64,214,25,12
12.5,91,64,215,25,12
12.5,76,64,216,25,12
12.5,53,64,217,25,12
12.5,48,64,218,25,12
12.5,96,64,219,25,12
12.5,69,64,220,25,12
12.5,95,64,221,25,12
12.5,77,64,222,25,12
12.5,95,64,223,25,12
13.0,77,64,224,26,13
13.0,84,64,225,26,13
13.0,65,64,226,26,13
13.0,65,64,227,26,13
13.0,38,64,228,26,13
13.0,95,64,229,26,13
13.0,62,64,230,26,13
13.0,96,64,231,26,13
13.0,91,64,232,26,13
13.0,41,64,233,26,13
13.0,91,64,234,26,13
13.0,59,64,235,26,13
13.0,71,64,236,26,13
13.5,69,64,237,27,13
13.5,48,64,238,27,13
13.5,47,64,239,27,13
13.5,40,64,240,27,13
13.5,64,64,241,27,13
13.5,91,64,242,27,13
13.5,55,64,243,27,13
13.5,72,64,244,27,13
13.5,72,64,245,27,13
13.5,86,64,246,27,13
13.5,48,64,247,27,13
13.5,81,64,248,27,13
13.5,81,64,249,27,13
14.0,93,64,250,28,13
14.0,71,64,251,28,13
14.0,86,64,252,28,13
14.0,91,64,253,28,13
14.0,83,64,254,28,13
14.0,91,64,255,28,13
14.0,43,64,256,28,13
14.0,67,64,257,28,13
14.0,41,64,258,28,13
14.0,95,64,259,28,13
14.0,64,64,260,28,13
14.0,83,64,261,28,13
14.0,86,64,262,28,13
14.5,84,64,263,29,13
14.5,45,64,264,29,13
14.5,95,64,265,29,13
14.5,76,64,266,29,13
14.5,84,64,267,29,13
14.5,88,64,268,29,13
14.5,95,64,269,29,13
14.5,91,64,270,29,13
14.5,71,64,271,29,13
14.5,89,64,272,29,13
14.5,74,64,273,29,13
14.5,91,64,274,29,13
14.5,40,64,275,29,13
15.0,65,64,276,30,14
15.0,77,64,277,30,14
15.0,88,64,278,30,14
15.0,40,64,279,30,14
15.0,76,64,280,30,14
15.0,89,64,281,30,14
15.0,72,64,282,30,14
15.0,74,64,283,30,14
15.0,38,64,284,30,14
15.0,81,64,285,30,14
15.0,38,64,286,30,14
15.0,79,64,287,30,14
15.0,64,64,288,30,14
15.0,91,64,289,30,14
15.5,50,64,290,31,14
15.5,84,64,291,31,14
15.5,79,64,292,31,14
15.5,95,64,293,31,14
15.5,77,64,294,31,14
15.5,76,64,295,31,14
15.5,57,64,296,31,14
15.5,47,64,297,31,14
15.5,96,64,298,31,14
15.5,69,64,299,31,14
15.5,36,64,300,31,14
15.5,48,64,301,31,14
15.5,62,64,302,31,14
15.5,59,64,303,31,14
16.0,55,64,304,32,14
16.0,74,64,305,32,14
16.0,60,64,306,32,14
16.0,83,64,307,32,14
16.0,93,64,308,32,14
16.0,38,64,309,32,14
16.0,89,64,310,32,14
16.0,74,64,311,32,14
16.0,72,64,312,32,14
16.0,77,64,313,32,14
16.0,72,64,314,32,14
16.0,72,64,315,32,14
16.0,45,64,316,32,14
16.0,60,64,317,32,14
16.5,91,64,318,33,15
16.5,48,64,319,33,15
16.5,43,64,320,33,15
16.5,41,64,321,33,15
16.5,45,64,322,33,15
16.5,89,64,323,33,15
16.5,86,64,324,33,15
16.5,95,64,325,33,15
16.5,62,64,326,33,15
16.5,57,64,327,33,15
16.5,86,64,328,33,15
16.5,67,64,329,33,15
16.5,64,64,330,33,15
16.5,67,64,331,33,15
16.5,83,64,332,33,15
17.0,79,64,333,34,15
17.0,79,64,334,34,15
17.0,74,64,335,34,15
17.0,50,64,336,34,15
17.0,55,64,337,34,15
17.0,36,64,338,34,15
17.0,36,64,339,34,15
17.0,93,64,340,34,15
17.0,89,64,341,34,15
17.0,77,64,342,34,15
17.0,36,64,343,34,15
17.0,62,64,344,34,15
17.0,43,64,345,34,15
17.0,72,64,346,34,15
17.0,84,64,347,34,15
17.5,40,64,348,35,15
17.5,55,64,349,35,15
17.5,79,64,350,35,15
17.5,62,64,351,35,15
17.5,72,64,352,35,15
17.5,84,64,353,35,15
17.5,59,64,354,35,15
17.5,83,64,355,35,15
17.5,43,64,356,35,15
17.5,86,64,357,35,15
17.5,43,64,358,35,15
17.5,55,64,359,35,15
17.5,62,64,360,35,15
17.5,79,64,361,35,15
17.5,79,64,362,35,15
18.0,71,64,363,36,16
18.0,96,64,364,36,16
18.0,91,64,365,36,16
18.0,86,64,366,36,16
18.0,74,64,367,36,16
18.0,52,64,368,36,16
18.0,43,64,369,36,16
18.0,96,64,370,36,16
18.0,93,64,371,36,16
18.0,88,64,372,36,16
18.0,52,64,373,36,16
18.0,67,64,374,36,16
18.0,89,64,375,36,16
18.0,36,64,376,36,16
18.0,43,64,377,36,16
18.0,41,64,378,36,16
18.5,62,64,379,37,16
18.5,76,64,380,37,16
18.5,62,64,381,37,16
18.5,38,64,382,37,16
18.5,83,64,383,37,16
18.5,89,64,384,37,16
18.5,81,64,385,37,16
18.5,69,64,386,37,16
18.5,76,64,387,37,16
18.5,55,64,388,37,16
18.5,95,64,389,37,16
18.5,91,64,390,37,16
18.5,91,64,391,37,16
18.5,55,64,392,37,16
18.5,40,64,393,37,16
18.5,36,64,394,37,16
19.0,91,64,395,38,16
19.0,52,64,396,38,16
19.0,84,64,397,38,16
19.0,57,64,398,38,16
19.0,55,64,399,38,16
19.0,88,64,400,38,16
19.0,38,64,401,38,16
19.0,95,64,402,38,16
19.0,74,64,403,38,16
19.0,64,64,404,38,16
19.0,79,64,405,38,16
19.0,48,64,406,38,16
19.0,84,64,407,38,16
19.0,79,64,408,38,16
19.0,52,64,409,38,16
19.0,79,64,410,38,16
19.5,93,64,411,39,16
19.5,47,64,412,39,16
19.5,41,64,413,39,16
19.5,53,64,414,39,16
19.5,84,64,415,39,16
19.5,96,64,416,39,16
19.5,77,64,417,39,16
19.5,71,64,418,39,16
19.5,96,64,419,39,16
19.5,52,64,420,39,16
19.5,50,64,421,39,16
19.5,76,64,422,39,16
19.5,95,64,423,39,16
19.5,95,64,424,39,16
19.5,96,64,425,39,16
19.5,65,64,426,39,16
20.0,89,64,427,40,17
20.0,76,64,428,40,17
20.0,74,64,429,40,17
20.0,89,64,430,40,17
20.0,55,64,431,40,17
20.0,57,64,432,40,17
20.0,74,64,433,40,17
20.0,77,64,434,40,17
20.0,95,64,435,40,17
20.0,86,64,436,40,17
20.0,64,64,437,40,17
20.0,69,64,438,40,17
20.0,77,64,439,40,17
20.0,72,64,440,40,17
20.0,57,64,441,40,17
20.0,67,64,442,40,17
20.0,96,64,443,40,17
20.5,55,64,444,41,17
20.5,67,64,445,41,17
20.5,55,64,446,41,17
20.5,50,64,447,41,17
20.5,47,64,448,41,17
20.5,83,64,449,41,17
20.5,59,64,450,41,17
20.5,88,64,451,41,17
20.5,67,64,452,41,17
20.5,62,64,453,41,17
20.5,43,64,454,41,17
20.5,95,64,455,41,17
20.5,55,64,456,41,17
20.5,77,64,457,41,17
20.5,71,64,458,41,17
20.5,96,64,459,41,17
20.5,74,64,460,41,17
21.0,62,64,461,42,17
21.0,59,64,462,42,17
21.0,88,64,463,42,17
21.0,43,64,464,42,17
21.0,95,64,465,42,17
21.0,74,64,466,42,17
21.0,84,64,467,42,17
21.0,53,64,468,42,17
21.0,65,64,469,42,17
21.0,55,64,470,42,17
21.0,50,64,471,42,17
21.0,52,64,472,42,17
21.0,64,64,473,42,17
21.0,47,64,474,42,17
21.0,57,64,475,42,17
21.0,50,64,476,42,17
21.0,81,64,477,42,17
21.5,38,64,478,43,18
21.5,43,64,479,43,18
21.5,84,64,480,43,18
21.5,67,64,481,43,18
21.5,48,64,482,43,18
21.5,36,64,483,43,18
21.5,72,64,484,43,18
21.5,64,64,485,43,18
21.5,47,64,486,43,18
21.5,77,64,487,43,18
21.5,41,64,488,43,18
21.5,96,64,489,43,18
21.5,45,64,490,43,18
21.5,88,64,491,43,18
21.5,67,64,492,43,18
21.5,81,64,493,43,18
21.5,52,64,494,43,18
21.5,79,64,495,43,18
22.0,67,64,496,44,18
22.0,40,64,497,44,18
22.0,57,64,498,44,18
22.0,83,64,499,44,18
22.0,69,64,500,44,18
22.0,83,64,501,44,18
22.0,48,64,502,44,18
22.0,36,64,503,44,18
22.0,40,64,504,44,18
22.0,57,64,505,44,18
22.0,83,64,506,44,18
22.0,77,64,507,44,18
22.0,91,64,508,44,18
22.0,45,64,509,44,18
22.0,89,64,510,44,18
22.0,71,64,511,44,18
22.0,62,64,512,44,18
22.0,71,64,513,44,18
22.5,53,64,514,45,18
22.5,96,64,515,45,18
22.5,95,64,516,45,18
22.5,67,64,517,45,18
22.5,69,64,518,45,18
22.5,65,64,519,45,18
22.5,59,64,520,45,18
22.5,60,64,521,45,18
22.5,88,64,522,45,18
22.5,36,64,523,45,18
22.5,40,64,524,45,18
22.5,62,64,525,45,18
22.5,74,64,526,45,18
22.5,53,64,527,45,18
22.5,55,64,528,45,18
22.5,52,64,529,45,18
22.5,89,64,530,45,18
22.5,62,64,531,45,18
23.0,48,64,532,46,18
23.0,55,64,533,46,18
23.0,76,64,534,46,18
23.0,83,64,535,46,18
23.0,48,64,536,46,18
23.0,83,64,537,46,18
23.0,96,64,538,46,18
23.0,79,64,539,46,18
23.0,48,64,540,46,18
23.0,83,64,541,46,18
23.0,83,64,542,46,18
23.0,96,64,543,46,18
23.0,81,64,544,46,18
23.0,64,64,545,46,18
23.0,50,64,546,46,18
23.0,91,64,547,46,18
23.0,69,64,548,46,18
23.0,57,64,549,46,18
23.5,83,64,550,47,19
23.5,84,64,551,47,19
23.5,57,64,552,47,19
23.5,95,64,553,47,19
23.5,45,64,554,47,19
23.5,65,64,555,47,19
23.5,43,64,556,47,19
23.5,77,64,557,47,19
23.5,38,64,558,47,19
23.5,52,64,559,47,19
23.5,86,64,560,47,19
23.5,43,64,561,47,19
23.5,91,64,562,47,19
23.5,36,64,563,47,19
23.5,65,64,564,47,19
23.5,89,64,565,47,19
23.5,53,64,566,47,19
23.5,71,64,567,47,19
23.5,79,64,568,47,19
24.0,77,64,569,48,19
24.0,72,64,570,48,19
24.0,81,64,571,48,19
24.0,57,64,572,48,19
24.0,91,64,573,48,19
24.0,93,64,574,48,19
24.0,95,64,575,48,19
24.0,36,64,576,48,19
24.0,71,64,577,48,19
24.0,45,64,578,48,19
24.0,83,64,579,48,19
24.0,64,64,580,48,19
24.0,43,64,581,48,19
24.0,88,64,582,48,19
24.0,43,64,583,48,19
24.0,40,64,584,48,19
24.0,74,64,585,48,19
24.0,52,64,586,48,19
24.0,52,64,587,48,19
24.5,67,64,588,49,19
24.5,64,64,589,49,19
24.5,71,64,590,49,19
24.5,59,64,591,49,19
24.5,50,64,592,49,19
24.5,36,64,593,49,19
24.5,57,64,594,49,19
24.5,41,64,595,49,19
24.5,36,64,596,49,19
24.5,89,64,597,49,19
24.5,93,64,598,49,19
24.5,83,64,599,49,19
24.5,88,64,600,49,19
24.5,48,64,601,49,19
24.5,79,64,602,49,19
24.5,93,64,603,49,19
24.5,40,64,604,49,19
24.5,55,64,605,49,19
24.5,36,64,606,49,19
25.0,43,64,607,50,20
25.0,86,64,608,50,20
25.0,86,64,609,50,20
25.0,64,64,610,50,20
25.0,74,64,611,50,20
25.0,60,64,612,50,20
25.0,71,64,613,50,20
25.0,59,64,614,50,20
25.0,38,64,615,50,20
25.0,53,64,616,50,20
25.0,93,64,617,50,20
25.0,93,64,618,50,20
25.0,65,64,619,50,20
25.0,86,64,620,50,20
25.0,60,64,621,50,20
25.0,81,64,622,50,20
25.0,93,64,623,50,20
25.0,91,64,624,50,20
25.0,76,64,625,50,20
25.0,60,64,626,50,20
25.5,86,64,627,51,20
25.5,64,64,628,51,20
25.5,43,64,629,51,20
25.5,84,64,630,51,20
25.5,41,64,631,51,20
25.5,52,64,632,51,20
25.5,64,64,633,51,20
25.5,52,64,634,51,20
25.5,64,64,635,51,20
25.5,69,64,636,51,20
25.5,76,64,637,51,20
25.5,43,64,638,51,20
25.5,93,64,639,51,20
25.5,45,64,640,51,20
25.5,38,64,641,51,20
25.5,57,64,642,51,20
25.5,53,64,643,51,20
25.5,74,64,644,51,20
25.5,62,64,645,51,20
25.5,88,64,646,51,20
26.0,53,64,647,52,20
26.0,62,64,648,52,20
26.0,48,64,649,52,20
26.0,41,64,650,52,20
26.0,41,64,651,52,20
26.0,77,64,652,52,20
26.0,40,64,653,52,20
26.0,89,64,654,52,20
26.0,40,64,655,52,20
26.0,81,64,656,52,20
26.0,84,64,657,52,20
26.0,89,64,658,52,20
26.0,67,64,659,52,20
26.0,71,64,660,52,20
26.0,43,64,661,52,20
26.0,65,64,662,52,20
26.0,83,64,663,52,20
26.0,72,64,664,52,20
26.0,71,64,665,52,20
26.0,45,64,666,52,20
26.5,36,64,667,53,20
26.5,43,64,668,53,20
26.5,55,64,669,53,20
26.5,79,64,670,53,20
26.5,93,64,671,53,20
26.5,59,64,672,53,20
26.5,79,64,673,53,20
26.5,81,64,674,53,20
26.5,50,64,675,53,20
26.5,79,64,676,53,20
26.5,72,64,677,53,20
26.5,86,64,678,53,20
26.5,64,64,679,53,20
26.5,79,64,680,53,20
26.5,96,64,681,53,20
26.5,36,64,682,53,20
26.5,48,64,683,53,20
26.5,95,64,684,53,20
26.5,60,64,685,53,20
26.5,72,64,686,53,20
27.0,59,64,687,54,21
27.0,79,64,688,54,21
27.0,83,64,689,54,21
27.0,74,64,690,54,21
27.0,59,64,691,54,21
27.0,76,64,692,54,21
27.0,38,64,693,54,21
27.0,79,64,694,54,21
27.0,59,64,695,54,21
27.0,47,64,696,54,21
27.0,40,64,697,54,21
27.0,74,64,698,54,21
27.0,65,64,699,54,21
27.0,95,64,700,54,21
27.0,60,64,701,54,21
27.0,77,64,702,54,21
27.0,83,64,703,54,21
27.0,52,64,704,54,21
27.0,64,64,705,54,21
27.0,72,64,706,54,21
27.0,79,64,707,54,21
27.5,77,64,708,55,21
27.5,64,64,709,55,21
27.5,57,64,710,55,21
27.5,69,64,711,55,21
27.5,77,64,712,55,21
27.5,41,64,713,55,21
27.5,52,64,714,55,21
27.5,40,64,715,55,21
27.5,65,64,716,55,21
27.5,96,64,717,55,21
27.5,72,64,718,55,21
27.5,93,64,719,55,21
27.5,48,64,720,55,21
27.5,67,64,721,55,21
27.5,45,64,722,55,21
27.5,79,64,723,55,21
27.5,93,64,724,55,21
27.5,45,64,725,55,21
27.5,91,64,726,55,21
27.5,72,64,727,55,21
27.5,71,64,728,55,21
28.0,45,64,729,56,21
28.0,45,64,730,56,21
28.0,41,64,731,56,21
28.0,86,64,732,56,21
28.0,53,64,733,56,21
28.0,86,64,734,56,21
28.0,88,64,735,56,21
28.0,76,64,736,56,21
28.0,50,64,737,56,21
28.0,40,64,738,56,21
28.0,88,64,739,56,21
28.0,96,64,740,56,21
28.0,76,64,741,56,21
28.0,88,64,742,56,21
28.0,45,64,743,56,21
28.0,38,64,744,56,21
28.0,69,64,745,56,21
28.0,83,64,746,56,21
28.0,53,64,747,56,21
28.0,41,64,748,56,21
28.0,60,64,749,56,21
28.5,45,64,750,57,22
28.5,86,64,751,57,22
28.5,38,64,752,57,22
28.5,60,64,753,57,22
28.5,53,64,754,57,22
28.5,48,64,755,57,22
28.5,79,64,756,57,22
28.5,43,64,757,57,22
28.5,45,64,758,57,22
28.5,79,64,759,57,22
28.5,41,64,760,57,22
28.5,67,64,761,57,22
28.5,69,64,762,57,22
28.5,91,64,763,57,22
28.5,69,64,764,57,22
28.5,55,64,765,57,22
28.5,36,64,766,57,22
28.5,79,64,767,57,22
28.5,59,64,768,57,22
28.5,53,64,769,57,22
28.5,96,64,770,57,22
28.5,57,64,771,57,22
29.0,40,64,772,58,22
29.0,91,64,773,58,22
29.0,45,64,774,58,22
29.0,52,64,775,58,22
29.0,43,64,776,58,22
29.0,74,64,777,58,22
29.0,52,64,778,58,22
29.0,38,64,779,58,22
29.0,57,64,780,58,22
29.0,38,64,781,58,22
29.0,69,64,782,58,22
29.0,36,64,783,58,22
29.0,50,64,784,58,22
29.0,64,64,785,58,22
29.0,50,64,786,58,22
29.0,53,64,787,58,22
29.0,60,64,788,58,22
29.0,76,64,789,58,22
29.0,95,64,790,58,22
29.0,86,64,791,58,22
29.0,88,64,792,58,22
29.0,43,64,793,58,22
29.5,59,64,794,59,22
29.5,53,64,795,59,22
29.5,50,64,796,59,22
29.5,93,64,797,59,22
29.5,55,64,798,59,22
29.5,95,64,799,59,22
29.5,95,64,800,59,22
29.5,36,64,801,59,22
29.5,72,64,802,59,22
29.5,84,64,803,59,22
29.5,48,64,804,59,22
29.5,53,64,805,59,22
29.5,59,64,806,59,22
29.5,86,64,807,59,22
29.5,95,64,808,59,22
29.5,71,64,809,59,22
29.5,43,64,810,59,22
29.5,67,64,811,59,22
29.5,59,64,812,59,22
29.5,79,64,813,59,22
29.5,41,64,814,59,22
29.5,77,64,815,59,22
30.0,77,64,816,60,22
30.0,65,64,817,60,22
30.0,48,64,818,60,22
30.0,59,64,819,60,22
30.0,89,64,820,60,22
30.0,91,64,821,60,22
30.0,74,64,822,60,22
30.0,60,64,823,60,22
30.0,91,64,824,60,22
30.0,77,64,825,60,22
30.0,64,64,826,60,22
30.0,91,64,827,60,22
30.0,38,64,828,60,22
30.0,59,64,829,60,22
30.0,45,64,830,60,22
30.0,45,64,831,60,22
30.0,40,64,832,60,22
30.0,47,64,833,60,22
30.0,48,64,834,60,22
30.0,60,64,835,60,22
30.0,84,64,836,60,22
30.0,91,64,837,60,22
30.5,86,64,838,61,23
30.5,81,64,839,61,23
30.5,96,64,840,61,23
30.5,84,64,841,61,23
30.5,91,64,842,61,23
30.5,81,64,843,61,23
30.5,91,64,844,61,23
30.5,41,64,845,61,23
30.5,72,64,846,61,23
30.5,38,64,847,61,23
30.5,52,64,848,61,23
30.5,43,64,849,61,23
30.5,52,64,850,61,23
30.5,91,64,851,61,23
30.5,57,64,852,61,23
30.5,88,64,853,61,23
30.5,96,64,854,61,23
30.5,76,64,855,61,23
30.5,60,64,856,61,23
30.5,84,64,857,61,23
30.5,48,64,858,61,23
30.5,43,64,859,61,23
30.5,84,64,860,61,23
31.0,41,64,861,62,23
31.0,55,64,862,62,23
31.0,38,64,863,62,23
31.0,81,64,864,62,23
31.0,88,64,865,62,23
31.0,96,64,866,62,23
31.0,96,64,867,62,23
31.0,79,64,868,62,23
31.0,81,64,869,62,23
31.0,43,64,870,62,23
31.0,69,64,871,62,23
31.0,53,64,872,62,23
31.0,52,64,873,62,23
31.0,45,64,874,62,23
31.0,48,64,875,62,23
31.0,74,64,876,62,23
31.0,79,64,877,62,23
31.0,55,64,878,62,23
31.0,79,64,879,62,23
31.0,57,64,880,62,23
31.0,65,64,881,62,23
31.0,77,64,882,62,23
31.0,91,64,883,62,23
31.5,55,64,884,63,23
31.5,96,64,885,63,23
31.5,41,64,886,63,23
31.5,43,64,887,63,23
31.5,48,64,888,63,23
31.5,83,64,889,63,23
31.5,88,64,890,63,23
31.5,50,64,891,63,23
31.5,84,64,892,63,23
31.5,59,64,893,63,23
31.5,72,64,894,63,23
31.5,53,64,895,63,23
31.5,74,64,896,63,23
31.5,36,64,897,63,23
31.5,71,64,898,63,23
31.5,79,64,899,63,23
31.5,96,64,900,63,23
31.5,74,64,901,63,23
31.5,36,64,902,63,23
31.5,60,64,903,63,23
31.5,71,64,904,63,23
31.5,50,64,905,63,23
31.5,50,64,906,63,23
32.0,52,64,907,64,24
32.0,79,64,908,64,24
32.0,95,64,909,64,24
32.0,77,64,910,64,24
32.0,79,64,911,64,24
32.0,53,64,912,64,24
32.0,38,64,913,64,24
32.0,47,64,914,64,24
32.0,65,64,915,64,24
32.0,81,64,916,64,24
32.0,93,64,917,64,24
32.0,81,64,918,64,24
32.0,64,64,919,64,24
32.0,76,64,920,64,24
32.0,77,64,921,64,24
32.0,47,64,922,64,24
32.0,45,64,923,64,24
32.0,76,64,924,64,24
32.0,91,64,925,64,24
32.0,84,64,926,64,24
32.0,72,64,927,64,24
32.0,79,64,928,64,24
32.0,83,64,929,64,24
32.0,71,64,930,64,24
32.5,47,64,931,65,24
32.5,64,64,932,65,24
32.5,69,64,933,65,24
32.5,69,64,934,65,24
32.5,72,64,935,65,24
32.5,83,64,936,65,24
32.5,47,64,937,65,24
32.5,36,64,938,65,24
32.5,89,64,939,65,24
32.5,57,64,940,65,24
32.5,86,64,941,65,24
32.5,74,64,942,65,24
32.5,67,64,943,65,24
32.5,89,64,944,65,24
32.5,86,64,945,65,24
32.5,84,64,946,65,24
32.5,84,64,947,65,24
32.5,86,64,948,65,24
32.5,62,64,949,65,24
32.5,67,64,950,65,24
32.5,65,64,951,65,24
32.5,36,64,952,65,24
32.5,59,64,953,65,24
32.5,38,64,954,65,24
33.0,83,64,955,66,24
33.0,86,64,956,66,24
33.0,41,64,957,66,24
33.0,36,64,958,66,24
33.0,48,64,959,66,24
33.0,84,64,960,66,24
33.0,40,64,961,66,24
33.0,89,64,962,66,24
33.0,52,64,963,66,24
33.0,52,64,964,66,24
33.0,67,64,965,66,24
33.0,93,64,966,66,24
33.0,91,64,967,66,24
33.0,74,64,968,66,24
33.0,83,64,969,66,24
33.0,89,64,970,66,24
33.0,47,64,971,66,24
33.0,84,64,972,66,24
33.0,48,64,973,66,24
33.0,36,64,974,66,24
33.0,40,64,975,66,24
33.0,76,64,976,66,24
33.0,74,64,977,66,24
33.0,48,64,978,66,24
33.5,40,64,979,67,25
33.5,91,64,980,67,25
33.5,83,64,981,67,25
33.5,48,64,982,67,25
33.5,93,64,983,67,25
33.5,95,64,984,67,25
33.5,89,64,985,67,25
33.5,76,64,986,67,25
33.5,59,64,987,67,25
33.5,89,64,988,67,25
33.5,62,64,989,67,25
33.5,41,64,990,67,25
33.5,71,64,991,67,25
33.5,59,64,992,67,25
33.5,88,64,993,67,25
33.5,65,64,994,67,25
33.5,47,64,995,67,25
33.5,52,64,996,67,25
33.5,47,64,997,67,25
33.5,91,64,998,67,25
33.5,74,64,999,67,25
33.5,71,64,1000,67,25
33.5,67,64,1001,67,25
33.5,67,64,1002,67,25
33.5,96,64,1003,67,25
34.0,84,64,1004,68,25
34.0,65,64,1005,68,25
34.0,38,64,1006,68,25
34.0,36,64,1007,68,25
34.0,43,64,1008,68,25
34.0,69,64,1009,68,25
34.0,53,64,1010,68,25
34.0,38,64,1011,68,25
34.0,40,64,1012,68,25
34.0,74,64,1013,68,25
34.0,55,64,1014,68,25
34.0,69,64,1015,68,25
34.0,43,64,1016,68,25
34.0,86,64,1017,68,25
34.0,50,64,1018,68,25
34.0,93,64,1019,68,25
34.0,95,64,1020,68,25
34.0,72,64,1021,68,25
34.0,76,64,1022,68,25
34.0,64,64,1023,68,25
34.0,52,64,1024,68,25
34.0,86,64,1025,68,25
34.0,74,64,1026,68,25
34.0,89,64,1027,68,25
34.0,64,64,1028,68,25
34.5,64,64,1029,69,25
34.5,59,64,1030,69,25
34.5,50,64,1031,69,25
34.5,38,64,1032,69,25
34.5,77,64,1033,69,25
34.5,50,64,1034,69,25
34.5,72,64,1035,69,25
34.5,41,64,1036,69,25
34.5,79,64,1037,69,25
34.5,84,64,1038,69,25
34.5,93,64,1039,69,25
34.5,74,64,1040,69,25
34.5,53,64,1041,69,25
34.5,45,64,1042,69,25
34.5,65,64,1043,69,25
34.5,71,64,1044,69,25
34.5,96,64,1045,69,25
34.5,93,64,1046,69,25
34.5,64,64,1047,69,25
34.5,77,64,1048,69,25
34.5,55,64,1049,69,25
34.5,74,64,1050,69,25
34.5,72,64,1051,69,25
34.5,71,64,1052,69,25
34.5,81,64,1053,69,25
35.0,88,64,1054,70,25
35.0,45,64,1055,70,25
35.0,81,64,1056,70,25
35.0,93,64,1057,70,25
35.0,55,64,1058,70,25
35.0,47,64,1059,70,25
35.0,52,64,1060,70,25
35.0,64,64,1061,70,25
35.0,79,64,1062,70,25
35.0,71,64,1063,70,25
35.0,83,64,1064,70,25
35.0,38,64,1065,70,25
35.0,36,64,1066,70,25
35.0,96,64,1067,70,25
35.0,79,64,1068,70,25
35.0,84,64,1069,70,25
35.0,71,64,1070,70,25
35.0,53,64,1071,70,25
35.0,53,64,1072,70,25
35.0,96,64,1073,70,25
35.0,95,64,1074,70,25
35.0,93,64,1075,70,25
35.0,76,64,1076,70,25
35.0,72,64,1077,70,25
35.0,43,64,1078,70,25
35.5,91,64,1079,71,26
35.5,96,64,1080,71,26
35.5,69,64,1081,71,26
35.5,67,64,1082,71,26
35.5,95,64,1083,71,26
35.5,64,64,1084,71,26
35.5,93,64,1085,71,26
35.5,50,64,1086,71,26
35.5,79,64,1087,71,26
35.5,38,64,1088,71,26
35.5,50,64,1089,71,26
35.5,50,64,1090,71,26
35.5,64,64,1091,71,26
35.5,36,64,1092,71,26
35.5,77,64,1093,71,26
35.5,77,64,1094,71,26
35.5,95,64,1095,71,26
35.5,40,64,1096,71,26
35.5,86,64,1097,71,26
35.5,93,64,1098,71,26
35.5,55,64,1099,71,26
35.5,67,64,1100,71,26
35.5,64,64,1101,71,26
35.5,52,64,1102,71,26
35.5,55,64,1103,71,26
35.5,62,64,1104,71,26
36.0,76,64,1105,72,26
36.0,67,64,1106,72,26
36.0,48,64,1107,72,26
36.0,88,64,1108,72,26
36.0,71,64,1109,72,26
36.0,64,64,1110,72,26
36.0,74,64,1111,72,26
36.0,62,64,1112,72,26
36.0,45,64,1113,72,26
36.0,48,64,1114,72,26
36.0,77,64,1115,72,26
36.0,65,64,1116,72,26
36.0,77,64,1117,72,26
36.0,55,64,1118,72,26
36.0,60,64,1119,72,26
36.0,79,64,1120,72,26
36.0,79,64,1121,72,26
36.0,89,64,1122,72,26
36.0,52,64,1123,72,26
36.0,62,64,1124,72,26
36.0,47,64,1125,72,26
36.0,64,64,1126,72,26
36.0,74,64,1127,72,26
36.0,79,64,1128,72,26
36.0,71,64,1129,72,26
36.0,72,64,1130,72,26
36.5,47,64,1131,73,26
36.5,59,64,1132,73,26
36.5,60,64,1133,73,26
36.5,47,64,1134,73,26
36.5,50,64,1135,73,26
36.5,48,64,1136,73,26
36.5,74,64,1137,73,26
36.5,84,64,1138,73,26
36.5,65,64,1139,73,26
36.5,88,64,1140,73,26
36.5,86,64,1141,73,26
36.5,95,64,1142,73,26
36.5,65,64,1143,73,26
36.5,64,64,1144,73,26
36.5,59,64,1145,73,26
36.5,88,64,1146,73,26
36.5,76,64,1147,73,26
36.5,95,64,1148,73,26
36.5,93,64,1149,73,26
36.5,40,64,1150,73,26
36.5,79,64,1151,73,26
36.5,74,64,1152,73,26
36.5,60,64,1153,73,26
36.5,41,64,1154,73,26
36.5,84,64,1155,73,26
36.5,72,64,1156,73,26
37.0,77,64,1157,74,27
37.0,57,64,1158,74,27
37.0,65,64,1159,74,27
37.0,91,64,1160,74,27
37.0,62,64,1161,74,27
37.0,38,64,1162,74,27
37.0,95,64,1163,74,27
37.0,93,64,1164,74,27
37.0,86,64,1165,74,27
37.0,57,64,1166,74,27
37.0,57,64,1167,74,27
37.0,65,64,1168,74,27
37.0,89,64,1169,74,27
37.0,89,64,1170,74,27
37.0,95,64,1171,74,27
37.0,84,64,1172,74,27
37.0,84,64,1173,74,27
37.0,62,64,1174,74,27
37.0,52,64,1175,74,27
37.0,86,64,1176,74,27
37.0,77,64,1177,74,27
37.0,69,64,1178,74,27
37.0,43,64,1179,74,27
37.0,36,64,1180,74,27
37.0,86,64,1181,74,27
37.0,40,64,1182,74,27
37.0,59,64,1183,74,27
37.5,86,64,1184,75,27
37.5,41,64,1185,75,27
37.5,65,64,1186,75,27
37.5,77,64,1187,75,27
37.5,36,64,1188,75,27
37.5,60,64,1189,75,27
37.5,50,64,1190,75,27
37.5,60,64,1191,75,27
37.5,76,64,1192,75,27
37.5,41,64,1193,75,27
37.5,55,64,1194,75,27
37.5,45,64,1195,75,27
37.5,76,64,1196,75,27
37.5,53,64,1197,75,27
37.5,57,64,1198,75,27
37.5,93,64,1199,75,27
37.5,77,64,1200,75,27
37.5,47,64,1201,75,27
37.5,41,64,1202,75,27
37.5,48,64,1203,75,27
37.5,69,64,1204,75,27
37.5,84,64,1205,75,27
37.5,52,64,1206,75,27
37.5,93,64,1207,75,27
37.5,79,64,1208,75,27
37.5,40,64,1209,75,27
37.5,45,64,1210,75,27
38.0,43,64,1211,76,27
38.0,43,64,1212,76,27
38.0,74,64,1213,76,27
38.0,50,64,1214,76,27
38.0,95,64,1215,76,27
38.0,69,64,1216,76,27
38.0,95,64,1217,76,27
38.0,65,64,1218,76,27
38.0,64,64,1219,76,27
38.0,76,64,1220,76,27
38.0,40,64,1221,76,27
38.0,89,64,1222,76,27
38.0,95,64,1223,76,27
38.0,57,64,1224,76,27
38.0,77,64,1225,76,27
38.0,50,64,1226,76,27
38.0,41,64,1227,76,27
38.0,59,64,1228,76,27
38.0,93,64,1229,76,27
38.0,53,64,1230,76,27
38.0,40,64,1231,76,27
38.0,83,64,1232,76,27
38.0,84,64,1233,76,27
38.0,50,64,1234,76,27
38.0,40,64,1235,76,27
38.0,77,64,1236,76,27
38.0,93,64,1237,76,27
38.5,55,64,1238,77,27
38.5,50,64,1239,77,27
38.5,60,64,1240,77,27
38.5,77,64,1241,77,27
38.5,43,64,1242,77,27
38.5,53,64,1243,77,27
38.5,93,64,1244,77,27
38.5,76,64,1245,77,27
38.5,60,64,1246,77,27
38.5,48,64,1247,77,27
38.5,43,64,1248,77,27
38.5,79,64,1249,77,27
38.5,65,64,1250,77,27
38.5,45,64,1251,77,27
38.5,57,64,1252,77,27
38.5,83,64,1253,77,27
38.5,43,64,1254,77,27
38.5,57,64,1255,77,27
38.5,64,64,1256,77,27
38.5,89,64,1257,77,27
38.5,84,64,1258,77,27
38.5,40,64,1259,77,27
38.5,93,64,1260,77,27
38.5,81,64,1261,77,27
38.5,57,64,1262,77,27
38.5,91,64,1263,77,27
38.5,45,64,1264,77,27
39.0,76,64,1265,78,28
39.0,67,64,1266,78,28
39.0,62,64,1267,78,28
39.0,83,64,1268,78,28
39.0,91,64,1269,78,28
39.0,57,64,1270,78,28
39.0,77,64,1271,78,28
39.0,96,64,1272,78,28
39.0,81,64,1273,78,28
39.0,47,64,1274,78,28
39.0,43,64,1275,78,28
39.0,88,64,1276,78,28
39.0,74,64,1277,78,28
39.0,52,64,1278,78,28
39.0,89,64,1279,78,28
39.0,86,64,1280,78,28
39.0,88,64,1281,78,28
39.0,65,64,1282,78,28
39.0,96,64,1283,78,28
39.0,38,64,1284,78,28
39.0,59,64,1285,78,28
39.0,57,64,1286,78,28
39.0,84,64,1287,78,28
39.0,55,64,1288,78,28
39.0,38,64,1289,78,28
39.0,89,64,1290,78,28
39.0,57,64,1291,78,28
39.0,81,64,1292,78,28
39.5,64,64,1293,79,28
39.5,88,64,1294,79,28
39.5,93,64,1295,79,28
39.5,76,64,1296,79,28
39.5,95,64,1297,79,28
39.5,45,64,1298,79,28
39.5,67,64,1299,79,28
39.5,86,64,1300,79,28
39.5,47,64,1301,79,28
39.5,52,64,1302,79,28
39.5,89,64,1303,79,28
39.5,93,64,1304,79,28
39.5,83,64,1305,79,28
39.5,60,64,1306,79,28
39.5,86,64,1307,79,28
39.5,84,64,1308,79,28
39.5,72,64,1309,79,28
39.5,41,64,1310,79,28
39.5,69,64,1311,79,28
39.5,89,64,1312,79,28
39.5,96,64,1313,79,28
39.5,41,64,1314,79,28
39.5,81,64,1315,79,28
39.5,64,64,1316,79,28
39.5,55,64,1317,79,28
39.5,72,64,1318,79,28
39.5,64,64,1319,79,28
39.5,52,64,1320,79,28
40.0,36,64,1321,80,28
40.0,72,64,1322,80,28
40.0,79,64,1323,80,28
40.0,65,64,1324,80,28
40.0,59,64,1325,80,28
40.0,84,64,1326,80,28
40.0,55,64,1327,80,28
40.0,96,64,1328,80,28
40.0,95,64,1329,80,28
40.0,55,64,1330,80,28
40.0,47,64,1331,80,28
40.0,84,64,1332,80,28
40.0,53,64,1333,80,28
40.0,91,64,1334,80,28
40.0,45,64,1335,80,28
40.0,60,64,1336,80,28
40.0,89,64,1337,80,28
40.0,53,64,1338,80,28
40.0,74,64,1339,80,28
40.0,79,64,1340,80,28
40.0,93,64,1341,80,28
40.0,93,64,1342,80,28
40.0,84,64,1343,80,28
40.0,41,64,1344,80,28
40.0,64,64,1345,80,28
40.0,95,64,1346,80,28
40.0,57,64,1347,80,28
40.0,60,64,1348,80,28
40.5,84,64,1349,81,29
40.5,84,64,1350,81,29
40.5,53,64,1351,81,29
40.5,89,64,1352,81,29
40.5,38,64,1353,81,29
40.5,59,64,1354,81,29
40.5,69,64,1355,81,29
40.5,72,64,1356,81,29
40.5,53,64,1357,81,29
40.5,81,64,1358,81,29
40.5,40,64,1359,81,29
40.5,64,64,1360,81,29
40.5,83,64,1361,81,29
40.5,84,64,1362,81,29
40.5,71,64,1363,81,29
40.5,62,64,1364,81,29
40.5,69,64,1365,81,29
40.5,45,64,1366,81,29
40.5,67,64,1367,81,29
40.5,43,64,1368,81,29
40.5,40,64,1369,81,29
40.5,36,64,1370,81,29
40.5,60,64,1371,81,29
40.5,93,64,1372,81,29
40.5,95,64,1373,81,29
40.5,77,64,1374,81,29
40.5,76,64,1375,81,29
40.5,55,64,1376,81,29
40.5,65,64,1377,81,29
41.0,60,64,1378,82,29
41.0,62,64,1379,82,29
41.0,81,64,1380,82,29
41.0,48,64,1381,82,29
41.0,77,64,1382,82,29
41.0,64,64,1383,82,29
41.0,84,64,1384,82,29
41.0,48,64,1385,82,29
41.0,60,64,1386,82,29
41.0,81,64,1387,82,29
41.0,47,64,1388,82,29
41.0,40,64,1389,82,29
41.0,84,64,1390,82,29
41.0,76,64,1391,82,29
41.0,40,64,1392,82,29
41.0,69,64,1393,82,29
41.0,60,64,1394,82,29
41.0,77,64,1395,82,29
41.0,86,64,1396,82,29
41.0,59,64,1397,82,29
41.0,47,64,1398,82,29
41.0,64,64,1399,82,29
41.0,69,64,1400,82,29
41.0,96,64,1401,82,29
41.0,50,64,1402,82,29
41.0,72,64,1403,82,29
41.0,38,64,1404,82,29
41.0,76,64,1405,82,29
41.0,48,64,1406,82,29
41.5,53,64,1407,83,29
41.5,57,64,1408,83,29
41.5,64,64,1409,83,29
41.5,48,64,1410,83,29
41.5,71,64,1411,83,29
41.5,65,64,1412,83,29
41.5,86,64,1413,83,29
41.5,65,64,1414,83,29
41.5,88,64,1415,83,29
41.5,89,64,1416,83,29
41.5,53,64,1417,83,29
41.5,77,64,1418,83,29
41.5,91,64,1419,83,29
41.5,48,64,1420,83,29
41.5,53,64,1421,83,29
41.5,72,64,1422,83,29
41.5,76,64,1423,83,29
41.5,64,64,1424,83,29
41.5,55,64,1425,83,29
41.5,89,64,1426,83,29
41.5,60,64,1427,83,29
41.5,62,64,1428,83,29
41.5,72,64,1429,83,29
41.5,83,64,1430,83,29
41.5,69,64,1431,83,29
41.5,91,64,1432,83,29
41.5,52,64,1433,83,29
41.5,89,64,1434,83,29
41.5,91,64,1435,83,29
42.0,38,64,1436,84,30
42.0,91,64,1437,84,30
42.0,91,64,1438,84,30
42.0,57,64,1439,84,30
42.0,86,64,1440,84,30
42.0,91,64,1441,84,30
42.0,57,64,1442,84,30
42.0,79,64,1443,84,30
42.0,72,64,1444,84,30
42.0,38,64,1445,84,30
42.0,79,64,1446,84,30
42.0,60,64,1447,84,30
42.0,93,64,1448,84,30
42.0,53,64,1449,84,30
42.0,40,64,1450,84,30
42.0,45,64,1451,84,30
42.0,50,64,1452,84,30
42.0,45,64,1453,84,30
42.0,50,64,1454,84,30
42.0,88,64,1455,84,30
42.0,89,64,1456,84,30
42.0,55,64,1457,84,30
42.0,48,64,1458,84,30
42.0,48,64,1459,84,30
42.0,83,64,1460,84,30
42.0,69,64,1461,84,30
42.0,47,64,1462,84,30
42.0,53,64,1463,84,30
42.0,69,64,1464,84,30
42.0,62,64,1465,84,30
42.5,41,64,1466,85,30
42.5,45,64,1467,85,30
42.5,72,64,1468,85,30
42.5,79,64,1469,85,30
42.5,40,64,1470,85,30
42.5,59,64,1471,85,30
42.5,53,64,1472,85,30
42.5,65,64,1473,85,30
42.5,55,64,1474,85,30
42.5,74,64,1475,85,30
42.5,55,64,1476,85,30
42.5,57,64,1477,85,30
42.5,77,64,1478,85,30
42.5,67,64,1479,85,30
42.5,96,64,1480,85,30
42.5,48,64,1481,85,30
42.5,84,64,1482,85,30
42.5,89,64,1483,85,30
42.5,65,64,1484,85,30
42.5,45,64,1485,85,30
42.5,65,64,1486,85,30
42.5,67,64,1487,85,30
42.5,72,64,1488,85,30
42.5,89,64,1489,85,30
42.5,40,64,1490,85,30
42.5,83,64,1491,85,30
42.5,52,64,1492,85,30
42.5,95,64,1493,85,30
42.5,84,64,1494,85,30
42.5,60,64,1495,85,30
43.0,91,64,1496,86,30
43.0,47,64,1497,86,30
43.0,55,64,1498,86,30
43.0,86,64,1499,86,30
43.0,71,64,1500,86,30
43.0,88,64,1501,86,30
43.0,76,64,1502,86,30
43.0,69,64,1503,86,30
43.0,41,64,1504,86,30
43.0,83,64,1505,86,30
43.0,69,64,1506,86,30
43.0,76,64,1507,86,30
43.0,89,64,1508,86,30
43.0,96,64,1509,86,30
43.0,93,64,1510,86,30
43.0,96,64,1511,86,30
43.0,38,64,1512,86,30
43.0,60,64,1513,86,30
43.0,93,64,1514,86,30
43.0,96,64,1515,86,30
43.0,45,64,1516,86,30
43.0,55,64,1517,86,30
43.0,40,64,1518,86,30
43.0,65,64,1519,86,30
43.0,71,64,1520,86,30
43.0,60,64,1521,86,30
43.0,91,64,1522,86,30
43.0,95,64,1523,86,30
43.0,79,64,1524,86,30
43.0,48,64,1525,86,30
43.5,96,64,1526,87,30
43.5,86,64,1527,87,30
43.5,74,64,1528,87,30
43.5,59,64,1529,87,30
43.5,59,64,1530,87,30
43.5,38,64,1531,87,30
43.5,43,64,1532,87,30
43.5,59,64,1533,87,30
43.5,77,64,1534,87,30
43.5,69,64,1535,87,30
43.5,38,64,1536,87,30
43.5,45,64,1537,87,30
43.5,64,64,1538,87,30
43.5,77,64,1539,87,30
43.5,83,64,1540,87,30
43.5,38,64,1541,87,30
43.5,95,64,1542,87,30
43.5,43,64,1543,87,30
43.5,36,64,1544,87,30
43.5,55,64,1545,87,30
43.5,96,64,1546,87,30
43.5,74,64,1547,87,30
43.5,88,64,1548,87,30
43.5,53,64,1549,87,30
43.5,52,64,1550,87,30
43.5,40,64,1551,87,30
43.5,59,64,1552,87,30
43.5,62,64,1553,87,30
43.5,52,64,1554,87,30
43.5,84,64,1555,87,30
44.0,52,64,1556,88,31
44.0,55,64,1557,88,31
44.0,86,64,1558,88,31
44.0,36,64,1559,88,31
44.0,43,64,1560,88,31
44.0,69,64,1561,88,31
44.0,48,64,1562,88,31
44.0,55,64,1563,88,31
44.0,36,64,1564,88,31
44.0,69,64,1565,88,31
44.0,83,64,1566,88,31
44.0,55,64,1567,88,31
44.0,83,64,1568,88,31
44.0,60,64,1569,88,31
44.0,45,64,1570,88,31
44.0,69,64,1571,88,31
44.0,59,64,1572,88,31
44.0,38,64,1573,88,31
44.0,50,64,1574,88,31
44.0,69,64,1575,88,31
44.0,79,64,1576,88,31
44.0,84,64,1577,88,31
44.0,36,64,1578,88,31
44.0,95,64,1579,88,31
44.0,45,64,1580,88,31
44.0,43,64,1581,88,31
44.0,91,64,1582,88,31
44.0,59,64,1583,88,31
44.0,55,64,1584,88,31
44.0,69,64,1585,88,31
44.0,76,64,1586,88,31
44.5,93,64,1587,89,31
44.5,77,64,1588,89,31
44.5,84,64,1589,89,31
44.5,88,64,1590,89,31
44.5,74,64,1591,89,31
44.5,69,64,1592,89,31
44.5,74,64,1593,89,31
44.5,62,64,1594,89,31
44.5,48,64,1595,89,31
44.5,71,64,1596,89,31
44.5,36,64,1597,89,31
44.5,48,64,1598,89,31
44.5,84,64,1599,89,31
44.5,89,64,1600,89,31
44.5,43,64,1601,89,31
44.5,72,64,1602,89,31
44.5,93,64,1603,89,31
44.5,36,64,1604,89,31
44.5,79,64,1605,89,31
44.5,52,64,1606,89,31
44.5,86,64,1607,89,31
44.5,65,64,1608,89,31
44.5,64,64,1609,89,31
44.5,79,64,1610,89,31
44.5,48,64,1611,89,31
44.5,55,64,1612,89,31
44.5,81,64,1613,89,31
44.5,48,64,1614,89,31
44.5,77,64,1615,89,31
44.5,41,64,1616,89,31
44.5,91,64,1617,89,31
45.0,36,64,1618,90,31
45.0,67,64,1619,90,31
45.0,88,64,1620,90,31
45.0,62,64,1621,90,31
45.0,59,64,1622,90,31
45.0,43,64,1623,90,31
45.0,79,64,1624,90,31
45.0,83,64,1625,90,31
45.0,38,64,1626,90,31
45.0,45,64,1627,90,31
45.0,50,64,1628,90,31
45.0,91,64,1629,90,31
45.0,77,64,1630,90,31
45.0,57,64,1631,90,31
45.0,50,64,1632,90,31
45.0,57,64,1633,90,31
45.0,88,64,1634,90,31
45.0,53,64,1635,90,31
45.0,41,64,1636,90,31
45.0,93,64,1637,90,31
45.0,41,64,1638,90,31
45.0,67,64,1639,90,31
45.0,45,64,1640,90,31
45.0,93,64,1641,90,31
45.0,65,64,1642,90,31
45.0,57,64,1643,90,31
45.0,74,64,1644,90,31
45.0,67,64,1645,90,31
45.0,53,64,1646,90,31
45.0,36,64,1647,90,31
45.0,76,64,1648,90,31
45.5,47,64,1649,91,32
45.5,77,64,1650,91,32
45.5,71,64,1651,91,32
45.5,60,64,1652,91,32
45.5,36,64,1653,91,32
45.5,55,64,1654,91,32
45.5,47,64,1655,91,32
45.5,60,64,1656,91,32
45.5,71,64,1657,91,32
45.5,67,64,1658,91,32
45.5,84,64,1659,91,32
45.5,77,64,1660,91,32
45.5,91,64,1661,91,32
45.5,89,64,1662,91,32
45.5,95,64,1663,91,32
45.5,79,64,1664,91,32
45.5,53,64,1665,91,32
45.5,95,64,1666,91,32
45.5,48,64,1667,91,32
45.5,59,64,1668,91,32
45.5,52,64,1669,91,32
45.5,38,64,1670,91,32
45.5,50,64,1671,91,32
45.5,40,64,1672,91,32
45.5,71,64,1673,91,32
45.5,79,64,1674,91,32
45.5,48,64,1675,91,32
45.5,38,64,1676,91,32
45.5,45,64,1677,91,32
45.5,83,64,1678,91,32
45.5,84,64,1679,91,32
45.5,79,64,1680,91,32
46.0,77,64,1681,92,32
46.0,55,64,1682,92,32
46.0,43,64,1683,92,32
46.0,93,64,1684,92,32
46.0,60,64,1685,92,32
46.0,96,64,1686,92,32
46.0,60,64,1687,92,32
46.0,74,64,1688,92,32
46.0,45,64,1689,92,32
46.0,71,64,1690,92,32
46.0,74,64,1691,92,32
46.0,62,64,1692,92,32
46.0,60,64,1693,92,32
46.0,77,64,1694,92,32
46.0,96,64,1695,92,32
46.0,53,64,1696,92,32
46.0,60,64,1697,92,32
46.0,41,64,1698,92,32
46.0,71,64,1699,92,32
46.0,57,64,1700,92,32
46.0,72,64,1701,92,32
46.0,67,64,1702,92,32
46.0,93,64,1703,92,32
46.0,59,64,1704,92,32
46.0,41,64,1705,92,32
46.0,81,64,1706,92,32
46.0,84,64,1707,92,32
46.0,83,64,1708,92,32
46.0,95,64,1709,92,32
46.0,48,64,1710,92,32
46.0,62,64,1711,92,32
46.0,96,64,1712,92,32
46.5,86,64,1713,93,32
46.5,65,64,1714,93,32
46.5,38,64,1715,93,32
46.5,57,64,1716,93,32
46.5,41,64,1717,93,32
46.5,79,64,1718,93,32
46.5,77,64,1719,93,32
46.5,86,64,1720,93,32
46.5,53,64,1721,93,32
46.5,47,64,1722,93,32
46.5,88,64,1723,93,32
46.5,52,64,1724,93,32
46.5,57,64,1725,93,32
46.5,88,64,1726,93,32
46.5,47,64,1727,93,32
46.5,96,64,1728,93,32
46.5,69,64,1729,93,32
46.5,41,64,1730,93,32
46.5,47,64,1731,93,32
46.5,36,64,1732,93,32
46.5,57,64,1733,93,32
46.5,72,64,1734,93,32
46.5,71,64,1735,93,32
46.5,72,64,1736,93,32
46.5,83,64,1737,93,32
46.5,50,64,1738,93,32
46.5,79,64,1739,93,32
46.5,50,64,1740,93,32
46.5,60,64,1741,93,32
46.5,52,64,1742,93,32
46.5,76,64,1743,93,32
46.5,48,64,1744,93,32
47.0,76,64,1745,94,32
47.0,62,64,1746,94,32
47.0,79,64,1747,94,32
47.0,81,64,1748,94,32
47.0,41,64,1749,94,32
47.0,76,64,1750,94,32
47.0,67,64,1751,94,32
47.0,96,64,1752,94,32
47.0,52,64,1753,94,32
47.0,77,64,1754,94,32
47.0,65,64,1755,94,32
47.0,67,64,1756,94,32
47.0,96,64,1757,94,32
47.0,52,64,1758,94,32
47.0,91,64,1759,94,32
47.0,43,64,1760,94,32
47.0,95,64,1761,94,32
47.0,93,64,1762,94,32
47.0,91,64,1763,94,32
47.0,71,64,1764,94,32
47.0,64,64,1765,94,32
47.0,72,64,1766,94,32
47.0,60,64,1767,94,32
47.0,95,64,1768,94,32
47.0,83,64,1769,94,32
47.0,47,64,1770,94,32
47.0,89,64,1771,94,32
47.0,53,64,1772,94,32
47.0,52,64,1773,94,32
47.0,50,64,1774,94,32
47.0,59,64,1775,94,32
47.0,57,64,1776,94,32
47.5,77,64,1777,95,33
47.5,38,64,1778,95,33
47.5,95,64,1779,95,33
47.5,47,64,1780,95,33
47.5,71,64,1781,95,33
47.5,65,64,1782,95,33
47.5,40,64,1783,95,33
47.5,53,64,1784,95,33
47.5,76,64,1785,95,33
47.5,67,64,1786,95,33
47.5,41,64,1787,95,33
47.5,79,64,1788,95,33
47.5,89,64,1789,95,33
47.5,96,64,1790,95,33
47.5,91,64,1791,95,33
47.5,96,64,1792,95,33
47.5,40,64,1793,95,33
47.5,50,64,1794,95,33
47.5,48,64,1795,95,33
47.5,91,64,1796,95,33
47.5,45,64,1797,95,33
47.5,41,64,1798,95,33
47.5,57,64,1799,95,33
47.5,38,64,1800,95,33
47.5,43,64,1801,95,33
47.5,81,64,1802,95,33
47.5,89,64,1803,95,33
47.5,71,64,1804,95,33
47.5,48,64,1805,95,33
47.5,48,64,1806,95,33
47.5,40,64,1807,95,33
47.5,40,64,1808,95,33
47.5,72,64,1809,95,33
48.0,45,64,1810,96,33
48.0,38,64,1811,96,33
48.0,74,64,1812,96,33
48.0,38,64,1813,96,33
48.0,64,64,1814,96,33
48.0,95,64,1815,96,33
48.0,93,64,1816,96,33
48.0,74,64,1817,96,33
48.0,86,64,1818,96,33
48.0,48,64,1819,96,33
48.0,72,64,1820,96,33
48.0,96,64,1821,96,33
48.0,43,64,1822,96,33
48.0,57,64,1823,96,33
48.0,84,64,1824,96,33
48.0,88,64,1825,96,33
48.0,62,64,1826,96,33
48.0,86,64,1827,96,33
48.0,62,64,1828,96,33
48.0,55,64,1829,96,33
48.0,64,64,1830,96,33
48.0,62,64,1831,96,33
48.0,55,64,1832,96,33
48.0,48,64,1833,96,33
48.0,69,64,1834,96,33
48.0,40,64,1835,96,33
48.0,62,64,1836,96,33
48.0,86,64,1837,96,33
48.0,74,64,1838,96,33
48.0,83,64,1839,96,33
48.0,43,64,1840,96,33
48.0,69,64,1841,96,33
48.0,36,64,1842,96,33
48.5,86,64,1843,97,33
48.5,71,64,1844,97,33
48.5,69,64,1845,97,33
48.5,45,64,1846,97,33
48.5,72,64,1847,97,33
48.5,65,64,1848,97,33
48.5,48,64,1849,97,33
48.5,89,64,1850,97,33
48.5,91,64,1851,97,33
48.5,62,64,1852,97,33
48.5,55,64,1853,97,33
48.5,93,64,1854,97,33
48.5,59,64,1855,97,33
48.5,96,64,1856,97,33
48.5,91,64,1857,97,33
48.5,74,64,1858,97,33
48.5,38,64,1859,97,33
48.5,71,64,1860,97,33
48.5,38,64,1861,97,33
48.5,81,64,1862,97,33
48.5,50,64,1863,97,33
48.5,36,64,1864,97,33
48.5,53,64,1865,97,33
48.5,40,64,1866,97,33
48.5,74,64,1867,97,33
48.5,79,64,1868,97,33
48.5,41,64,1869,97,33
48.5,65,64,1870,97,33
48.5,45,64,1871,97,33
48.5,95,64,1872,97,33
48.5,72,64,1873,97,33
48.5,60,64,1874,97,33
48.5,72,64,1875,97,33
49.0,55,64,1876,98,34
49.0,65,64,1877,98,34
49.0,95,64,1878,98,34
49.0,86,64,1879,98,34
49.0,76,64,1880,98,34
49.0,86,64,1881,98,34
49.0,59,64,1882,98,34
49.0,45,64,1883,98,34
49.0,40,64,1884,98,34
49.0,62,64,1885,98,34
49.0,47,64,1886,98,34
49.0,59,64,1887,98,34
49.0,50,64,1888,98,34
49.0,60,64,1889,98,34
49.0,71,64,1890,98,34
49.0,95,64,1891,98,34
49.0,38,64,1892,98,34
49.0,81,64,1893,98,34
49.0,38,64,1894,98,34
49.0,95,64,1895,98,34
49.0,65,64,1896,98,34
49.0,59,64,1897,98,34
49.0,69,64,1898,98,34
49.0,65,64,1899,98,34
49.0,52,64,1900,98,34
49.0,77,64,1901,98,34
49.0,38,64,1902,98,34
49.0,77,64,1903,98,34
49.0,91,64,1904,98,34
49.0,96,64,1905,98,34
49.0,88,64,1906,98,34
49.0,59,64,1907,98,34
49.0,36,64,1908,98,34
49.0,62,64,1909,98,34
49.5,40,64,1910,99,34
49.5,95,64,1911,99,34
49.5,45,64,1912,99,34
49.5,77,64,1913,99,34
49.5,57,64,1914,99,34
49.5,93,64,1915,99,34
49.5,48,64,1916,99,34
49.5,71,64,1917,99,34
49.5,93,64,1918,99,34
49.5,41,64,1919,99,34
49.5,77,64,1920,99,34
49.5,60,64,1921,99,34
49.5,41,64,1922,99,34
49.5,55,64,1923,99,34
49.5,89,64,1924,99,34
49.5,89,64,1925,99,34
49.5,83,64,1926,99,34
49.5,57,64,1927,99,34
49.5,88,64,1928,99,34
49.5,59,64,1929,99,34
49.5,69,64,1930,99,34
49.5,65,64,1931,99,34
49.5,84,64,1932,99,34
49.5,45,64,1933,99,34
49.5,89,64,1934,99,34
49.5,84,64,1935,99,34
49.5,38,64,1936,99,34
49.5,74,64,1937,99,34
49.5,67,64,1938,99,34
49.5,88,64,1939,99,34
49.5,43,64,1940,99,34
49.5,67,64,1941,99,34
49.5,93,64,1942,99,34
49.5,52,64,1943,99,34
50.0,77,64,1944,100,34
50.0,38,64,1945,100,34
50.0,53,64,1946,100,34
50.0,88,64,1947,100,34
50.0,60,64,1948,100,34
50.0,50,64,1949,100,34
50.0,74,64,1950,100,34
50.0,67,64,1951,100,34
50.0,50,64,1952,100,34
50.0,95,64,1953,100,34
50.0,71,64,1954,100,34
50.0,50,64,1955,100,34
50.0,83,64,1956,100,34
50.0,47,64,1957,100,34
50.0,62,64,1958,100,34
50.0,62,64,1959,100,34
50.0,91,64,1960,100,34
50.0,41,64,1961,100,34
50.0,41,64,1962,100,34
50.0,64,64,1963,100,34
50.0,84,64,1964,100,34
50.0,96,64,1965,100,34
50.0,95,64,1966,100,34
50.0,47,64,1967,100,34
50.0,81,64,1968,100,34
50.0,83,64,1969,100,34
50.0,72,64,1970,100,34
50.0,59,64,1971,100,34
50.0,47,64,1972,100,34
50.0,72,64,1973,100,34
50.0,43,64,1974,100,34
50.0,38,64,1975,100,34
50.0,81,64,1976,100,34
50.0,71,64,1977,100,34
50.5,60,64,1978,101,34
50.5,71,64,1979,101,34
50.5,52,64,1980,101,34
50.5,74,64,1981,101,34
50.5,43,64,1982,101,34
50.5,36,64,1983,101,34
50.5,57,64,1984,101,34
50.5,71,64,1985,101,34
50.5,79,64,1986,101,34
50.5,71,64,1987,101,34
50.5,65,64,1988,101,34
50.5,89,64,1989,101,34
50.5,96,64,1990,101,34
50.5,64,64,1991,101,34
50.5,95,64,1992,101,34
50.5,53,64,1993,101,34
50.5,71,64,1994,101,34
50.5,79,64,1995,101,34
50.5,41,64,1996,101,34
50.5,93,64,1997,101,34
50.5,65,64,1998,101,34
50.5,95,64,1999,101,34
50.5,84,64,2000,101,34
50.5,84,64,2001,101,34
50.5,71,64,2002,101,34
50.5,57,64,2003,101,34
50.5,64,64,2004,101,34
50.5,50,64,2005,101,34
50.5,36,64,2006,101,34
50.5,38,64,2007,101,34
50.5,84,64,2008,101,34
50.5,91,64,2009,101,34
50.5,52,64,2010,101,34
50.5,71,64,2011,101,34
51.0,83,64,2012,102,35
51.0,53,64,2013,102,35
51.0,93,64,2014,102,35
51.0,48,64,2015,102,35
51.0,72,64,2016,102,35
51.0,48,64,2017,102,35
51.0,60,64,2018,102,35
51.0,64,64,2019,102,35
51.0,74,64,2020,102,35
51.0,76,64,2021,102,35
51.0,67,64,2022,102,35
51.0,43,64,2023,102,35
51.0,89,64,2024,102,35
51.0,36,64,2025,102,35
51.0,74,64,2026,102,35
51.0,48,64,2027,102,35
51.0,57,64,2028,102,35
51.0,48,64,2029,102,35
51.0,74,64,2030,102,35
51.0,36,64,2031,102,35
51.0,76,64,2032,102,35
51.0,95,64,2033,102,35
51.0,76,64,2034,102,35
51.0,64,64,2035,102,35
51.0,43,64,2036,102,35
51.0,69,64,2037,102,35
51.0,71,64,2038,102,35
51.0,88,64,2039,102,35
51.0,96,64,2040,102,35
51.0,53,64,2041,102,35
51.0,60,64,2042,102,35
51.0,67,64,2043,102,35
51.0,47,64,2044,102,35
51.0,83,64,2045,102,35
51.0,43,64,2046,102,35
51.5,43,64,2047,103,35
51.5,86,64,2048,103,35
51.5,89,64,2049,103,35
51.5,48,64,2050,103,35
51.5,52,64,2051,103,35
51.5,89,64,2052,103,35
51.5,83,64,2053,103,35
51.5,64,64,2054,103,35
51.5,88,64,2055,103,35
51.5,48,64,2056,103,35
51.5,77,64,2057,103,35
51.5,50,64,2058,103,35
51.5,38,64,2059,103,35
51.5,60,64,2060,103,35
51.5,40,64,2061,103,35
51.5,96,64,2062,103,35
51.5,41,64,2063,103,35
51.5,59,64,2064,103,35
51.5,77,64,2065,103,35
51.5,52,64,2066,103,35
51.5,71,64,2067,103,35
51.5,96,64,2068,103,35
51.5,55,64,2069,103,35
51.5,81,64,2070,103,35
51.5,38,64,2071,103,35
51.5,57,64,2072,103,35
51.5,89,64,2073,103,35
51.5,88,64,2074,103,35
51.5,62,64,2075,103,35
51.5,89,64,2076,103,35
51.5,89,64,2077,103,35
51.5,93,64,2078,103,35
51.5,53,64,2079,103,35
51.5,52,64,2080,103,35
51.5,60,64,2081,103,35
52.0,64,64,2082,104,35
52.0,65,64,2083,104,35
52.0,50,64,2084,104,35
52.0,77,64,2085,104,35
52.0,59,64,2086,104,35
52.0,77,64,2087,104,35
52.0,72,64,2088,104,35
52.0,86,64,2089,104,35
52.0,69,64,2090,104,35
52.0,71,64,2091,104,35
52.0,89,64,2092,104,35
52.0,71,64,2093,104,35
52.0,95,64,2094,104,35
52.0,89,64,2095,104,35
52.0,86,64,2096,104,35
52.0,55,64,2097,104,35
52.0,65,64,2098,104,35
52.0,71,64,2099,104,35
52.0,57,64,2100,104,35
52.0,71,64,2101,104,35
52.0,48,64,2102,104,35
52.0,47,64,2103,104,35
52.0,74,64,2104,104,35
52.0,89,64,2105,104,35
52.0,53,64,2106,104,35
52.0,72,64,2107,104,35
52.0,72,64,2108,104,35
52.0,77,64,2109,104,35
52.0,72,64,2110,104,35
52.0,83,64,2111,104,35
52.0,84,64,2112,104,35
52.0,57,64,2113,104,35
52.0,65,64,2114,104,35
52.0,38,64,2115,104,35
52.0,84,64,2116,104,35
52.5,71,64,2117,105,36
52.5,60,64,2118,105,36
52.5,81,64,2119,105,36
52.5,88,64,2120,105,36
52.5,60,64,2121,105,36
52.5,74,64,2122,105,36
52.5,76,64,2123,105,36
52.5,57,64,2124,105,36
52.5,72,64,2125,105,36
52.5,91,64,2126,105,36
52.5,40,64,2127,105,36
52.5,67,64,2128,105,36
52.5,74,64,2129,105,36
52.5,84,64,2130,105,36
52.5,86,64,2131,105,36
52.5,77,64,2132,105,36
52.5,48,64,2133,105,36
52.5,62,64,2134,105,36
52.5,48,64,2135,105,36
52.5,36,64,2136,105,36
52.5,43,64,2137,105,36
52.5,40,64,2138,105,36
52.5,36,64,2139,105,36
52.5,41,64,2140,105,36
52.5,95,64,2141,105,36
52.5,89,64,2142,105,36
52.5,93,64,2143,105,36
52.5,77,64,2144,105,36
52.5,52,64,2145,105,36
52.5,71,64,2146,105,36
52.5,81,64,2147,105,36
52.5,81,64,2148,105,36
52.5,38,64,2149,105,36
52.5,57,64,2150,105,36
52.5,50,64,2151,105,36
52.5,96,64,2152,105,36
53.0,72,64,2153,106,36
53.0,79,64,2154,106,36
53.0,55,64,2155,106,36
53.0,64,64,2156,106,36
53.0,59,64,2157,106,36
53.0,59,64,2158,106,36
53.0,93,64,2159,106,36
53.0,69,64,2160,106,36
53.0,53,64,2161,106,36
53.0,62,64,2162,106,36
53.0,88,64,2163,106,36
53.0,45,64,2164,106,36
53.0,67,64,2165,106,36
53.0,41,64,2166,106,36
53.0,41,64,2167,106,36
53.0,69,64,2168,106,36
53.0,52,64,2169,106,36
53.0,76,64,2170,106,36
53.0,95,64,2171,106,36
53.0,79,64,2172,106,36
53.0,71,64,2173,106,36
53.0,71,64,2174,106,36
53.0,52,64,2175,106,36
53.0,41,64,2176,106,36
53.0,69,64,2177,106,36
53.0,64,64,2178,106,36
53.0,47,64,2179,106,36
53.0,41,64,2180,106,36
53.0,84,64,2181,106,36
53.0,59,64,2182,106,36
53.0,40,64,2183,106,36
53.0,76,64,2184,106,36
53.0,62,64,2185,106,36
53.0,41,64,2186,106,36
53.0,76,64,2187,106,36
53.0,93,64,2188,106,36
53.5,86,64,2189,107,36
53.5,65,64,2190,107,36
53.5,67,64,2191,107,36
53.5,88,64,2192,107,36
53.5,67,64,2193,107,36
53.5,67,64,2194,107,36
53.5,72,64,2195,107,36
53.5,76,64,2196,107,36
53.5,55,64,2197,107,36
53.5,86,64,2198,107,36
53.5,88,64,2199,107,36
53.5,96,64,2200,107,36
53.5,67,64,2201,107,36
53.5,96,64,2202,107,36
53.5,86,64,2203,107,36
53.5,91,64,2204,107,36
53.5,65,64,2205,107,36
53.5,83,64,2206,107,36
53.5,53,64,2207,107,36
53.5,91,64,2208,107,36
53.5,64,64,2209,107,36
53.5,45,64,2210,107,36
53.5,41,64,2211,107,36
53.5,69,64,2212,107,36
53.5,81,64,2213,107,36
53.5,60,64,2214,107,36
53.5,45,64,2215,107,36
53.5,59,64,2216,107,36
53.5,53,64,2217,107,36
53.5,50,64,2218,107,36
53.5,79,64,2219,107,36
53.5,62,64,2220,107,36
53.5,43,64,2221,107,36
53.5,52,64,2222,107,36
53.5,40,64,2223,107,36
53.5,57,64,2224,107,36
54.0,86,64,2225,108,36
54.0,45,64,2226,108,36
54.0,64,64,2227,108,36
54.0,67,64,2228,108,36
54.0,95,64,2229,108,36
54.0,79,64,2230,108,36
54.0,43,64,2231,108,36
54.0,84,64,2232,108,36
54.0,69,64,2233,108,36
54.0,71,64,2234,108,36
54.0,52,64,2235,108,36
54.0,43,64,2236,108,36
54.0,96,64,2237,108,36
54.0,45,64,2238,108,36
54.0,79,64,2239,108,36
54.0,41,64,2240,108,36
54.0,95,64,2241,108,36
54.0,36,64,2242,108,36
54.0,76,64,2243,108,36
54.0,96,64,2244,108,36
54.0,45,64,2245,108,36
54.0,88,64,2246,108,36
54.0,69,64,2247,108,36
54.0,76,64,2248,108,36
54.0,77,64,2249,108,36
54.0,96,64,2250,108,36
54.0,71,64,2251,108,36
54.0,86,64,2252,108,36
54.0,76,64,2253,108,36
54.0,86,64,2254,108,36
54.0,72,64,2255,108,36
54.0,83,64,2256,108,36
54.0,47,64,2257,108,36
54.0,95,64,2258,108,36
54.0,83,64,2259,108,36
54.0,59,64,2260,108,36
54.5,52,64,2261,109,37
54.5,62,64,2262,109,37
54.5,62,64,2263,109,37
54.5,88,64,2264,109,37
54.5,77,64,2265,109,37
54.5,57,64,2266,109,37
54.5,45,64,2267,109,37
54.5,50,64,2268,109,37
54.5,96,64,2269,109,37
54.5,69,64,2270,109,37
54.5,65,64,2271,109,37
54.5,71,64,2272,109,37
54.5,41,64,2273,109,37
54.5,91,64,2274,109,37
54.5,81,64,2275,109,37
54.5,47,64,2276,109,37
54.5,45,64,2277,109,37
54.5,60,64,2278,109,37
54.5,65,64,2279,109,37
54.5,89,64,2280,109,37
54.5,53,64,2281,109,37
54.5,69,64,2282,109,37
54.5,76,64,2283,109,37
54.5,60,64,2284,109,37
54.5,47,64,2285,109,37
54.5,71,64,2286,109,37
54.5,79,64,2287,109,37
54.5,59,64,2288,109,37
54.5,71,64,2289,109,37
54.5,65,64,2290,109,37
54.5,43,64,2291,109,37
54.5,40,64,2292,109,37
54.5,74,64,2293,109,37
54.5,79,64,2294,109,37
54.5,76,64,2295,109,37
54.5,67,64,2296,109,37
54.5,77,64,2297,109,37
55.0,71,64,2298,110,37
55.0,55,64,2299,110,37
55.0,91,64,2300,110,37
55.0,41,64,2301,110,37
55.0,47,64,2302,110,37
55.0,72,64,2303,110,37
55.0,91,64,2304,110,37
55.0,64,64,2305,110,37
55.0,76,64,2306,110,37
55.0,93,64,2307,110,37
55.0,83,64,2308,110,37
55.0,72,64,2309,110,37
55.0,64,64,2310,110,37
55.0,93,64,2311,110,37
55.0,45,64,2312,110,37
55.0,45,64,2313,110,37
55.0,93,64,2314,110,37
55.0,36,64,2315,110,37
55.0,52,64,2316,110,37
55.0,71,64,2317,110,37
55.0,43,64,2318,110,37
55.0,38,64,2319,110,37
55.0,72,64,2320,110,37
55.0,38,64,2321,110,37
55.0,52,64,2322,110,37
55.0,93,64,2323,110,37
55.0,62,64,2324,110,37
55.0,72,64,2325,110,37
55.0,55,64,2326,110,37
55.0,76,64,2327,110,37
55.0,52,64,2328,110,37
55.0,95,64,2329,110,37
55.0,89,64,2330,110,37
55.0,47,64,2331,110,37
55.0,71,64,2332,110,37
55.0,69,64,2333,110,37
55.0,79,64,2334,110,37
55.5,41,64,2335,111,37
55.5,72,64,2336,111,37
55.5,60,64,2337,111,37
55.5,71,64,2338,111,37
55.5,60,64,2339,111,37
55.5,72,64,2340,111,37
55.5,83,64,2341,111,37
55.5,59,64,2342,111,37
55.5,81,64,2343,111,37
55.5,83,64,2344,111,37
55.5,79,64,2345,111,37
55.5,38,64,2346,111,37
55.5,77,64,2347,111,37
55.5,40,64,2348,111,37
55.5,48,64,2349,111,37
55.5,91,64,2350,111,37
55.5,95,64,2351,111,37
55.5,45,64,2352,111,37
55.5,74,64,2353,111,37
55.5,77,64,2354,111,37
55.5,67,64,2355,111,37
55.5,43,64,2356,111,37
55.5,53,64,2357,111,37
55.5,55,64,2358,111,37
55.5,52,64,2359,111,37
55.5,48,64,2360,111,37
55.5,76,64,2361,111,37
55.5,83,64,2362,111,37
55.5,96,64,2363,111,37
55.5,71,64,2364,111,37
55.5,48,64,2365,111,37
55.5,50,64,2366,111,37
55.5,60,64,2367,111,37
55.5,65,64,2368,111,37
55.5,69,64,2369,111,37
55.5,45,64,2370,111,37
55.5,55,64,2371,111,37
56.0,38,64,2372,112,38
56.0,47,64,2373,112,38
56.0,62,64,2374,112,38
56.0,40,64,2375,112,38
56.0,40,64,2376,112,38
56.0,81,64,2377,112,38
56.0,91,64,2378,112,38
56.0,83,64,2379,112,38
56.0,36,64,2380,112,38
56.0,48,64,2381,112,38
56.0,89,64,2382,112,38
56.0,41,64,2383,112,38
56.0,86,64,2384,112,38
56.0,45,64,2385,112,38
56.0,67,64,2386,112,38
56.0,89,64,2387,112,38
56.0,50,64,2388,112,38
56.0,55,64,2389,112,38
56.0,53,64,2390,112,38
56.0,62,64,2391,112,38
56.0,36,64,2392,112,38
56.0,71,64,2393,112,38
56.0,86,64,2394,112,38
56.0,57,64,2395,112,38
56.0,93,64,2396,112,38
56.0,41,64,2397,112,38
56.0,83,64,2398,112,38
56.0,88,64,2399,112,38
56.0,81,64,2400,112,38
56.0,43,64,2401,112,38
56.0,77,64,2402,112,38
56.0,40,64,2403,112,38
56.0,91,64,2404,112,38
56.0,41,64,2405,112,38
56.0,77,64,2406,112,38
56.0,69,64,2407,112,38
56.0,93,64,2408,112,38
56.0,79,64,2409,112,38
56.5,43,64,2410,113,38
56.5,95,64,2411,113,38
56.5,83,64,2412,113,38
56.5,84,64,2413,113,38
56.5,50,64,2414,113,38
56.5,45,64,2415,113,38
56.5,67,64,2416,113,38
56.5,53,64,2417,113,38
56.5,38,64,2418,113,38
56.5,50,64,2419,113,38
56.5,71,64,2420,113,38
56.5,76,64,2421,113,38
56.5,93,64,2422,113,38
56.5,72,64,2423,113,38
56.5,40,64,2424,113,38
56.5,55,64,2425,113,38
56.5,83,64,2426,113,38
56.5,86,64,2427,113,38
56.5,79,64,2428,113,38
56.5,71,64,2429,113,38
56.5,83,64,2430,113,38
56.5,79,64,2431,113,38
56.5,91,64,2432,113,38
56.5,71,64,2433,113,38
56.5,95,64,2434,113,38
56.5,93,64,2435,113,38
56.5,65,64,2436,113,38
56.5,53,64,2437,113,38
56.5,74,64,2438,113,38
56.5,72,64,2439,113,38
56.5,64,64,2440,113,38
56.5,43,64,2441,113,38
56.5,53,64,2442,113,38
56.5,86,64,2443,113,38
56.5,60,64,2444,113,38
56.5,81,64,2445,113,38
56.5,95,64,2446,113,38
56.5,91,64,2447,113,38
57.0,69,64,2448,114,38
57.0,62,64,2449,114,38
57.0,93,64,2450,114,38
57.0,38,64,2451,114,38
57.0,95,64,2452,114,38
57.0,83,64,2453,114,38
57.0,45,64,2454,114,38
57.0,50,64,2455,114,38
57.0,69,64,2456,114,38
57.0,36,64,2457,114,38
57.0,48,64,2458,114,38
57.0,74,64,2459,114,38
57.0,40,64,2460,114,38
57.0,41,64,2461,114,38
57.0,77,64,2462,114,38
57.0,60,64,2463,114,38
57.0,71,64,2464,114,38
57.0,95,64,2465,114,38
57.0,59,64,2466,114,38
57.0,96,64,2467,114,38
57.0,55,64,2468,114,38
57.0,64,64,2469,114,38
57.0,50,64,2470,114,38
57.0,95,64,2471,114,38
57.0,57,64,2472,114,38
57.0,60,64,2473,114,38
57.0,65,64,2474,114,38
57.0,91,64,2475,114,38
57.0,45,64,2476,114,38
57.0,81,64,2477,114,38
57.0,74,64,2478,114,38
57.0,81,64,2479,114,38
57.0,93,64,2480,114,38
57.0,59,64,2481,114,38
57.0,96,64,2482,114,38
57.0,48,64,2483,114,38
57.0,95,64,2484,114,38
57.0,67,64,2485,114,38
57.5,86,64,2486,115,39
57.5,59,64,2487,115,39
57.5,69,64,2488,115,39
57.5,77,64,2489,115,39
57.5,76,64,2490,115,39
57.5,59,64,2491,115,39
57.5,79,64,2492,115,39
57.5,74,64,2493,115,39
57.5,72,64,2494,115,39
57.5,67,64,2495,115,39
57.5,40,64,2496,115,39
57.5,67,64,2497,115,39
57.5,50,64,2498,115,39
57.5,83,64,2499,115,39
57.5,69,64,2500,115,39
57.5,47,64,2501,115,39
57.5,59,64,2502,115,39
57.5,50,64,2503,115,39
57.5,67,64,2504,115,39
57.5,59,64,2505,115,39
57.5,96,64,2506,115,39
57.5,64,64,2507,115,39
57.5,86,64,2508,115,39
57.5,50,64,2509,115,39
57.5,91,64,2510,115,39
57.5,77,64,2511,115,39
57.5,59,64,2512,115,39
57.5,53,64,2513,115,39
57.5,95,64,2514,115,39
57.5,59,64,2515,115,39
57.5,86,64,2516,115,39
57.5,41,64,2517,115,39
57.5,41,64,2518,115,39
57.5,83,64,2519,115,39
57.5,48,64,2520,115,39
57.5,38,64,2521,115,39
57.5,72,64,2522,115,39
57.5,62,64,2523,115,39
57.5,84,64,2524,115,39
58.0,86,64,2525,116,39
58.0,55,64,2526,116,39
58.0,95,64,2527,116,39
58.0,53,64,2528,116,39
58.0,71,64,2529,116,39
58.0,71,64,2530,116,39
58.0,43,64,2531,116,39
58.0,69,64,2532,116,39
58.0,40,64,2533,116,39
58.0,91,64,2534,116,39
58.0,50,64,2535,116,39
58.0,50,64,2536,116,39
58.0,41,64,2537,116,39
58.0,95,64,2538,116,39
58.0,64,64,2539,116,39
58.0,93,64,2540,116,39
58.0,76,64,2541,116,39
58.0,89,64,2542,116,39
58.0,36,64,2543,116,39
58.0,48,64,2544,116,39
58.0,74,64,2545,116,39
58.0,55,64,2546,116,39
58.0,55,64,2547,116,39
58.0,60,64,2548,116,39
58.0,67,64,2549,116,39
58.0,79,64,2550,116,39
58.0,84,64,2551,116,39
58.0,72,64,2552,116,39
58.0,71,64,2553,116,39
58.0,69,64,2554,116,39
58.0,84,64,2555,116,39
58.0,41,64,2556,116,39
58.0,47,64,2557,116,39
58.0,83,64,2558,116,39
58.0,83,64,2559,116,39
58.0,41,64,2560,116,39
58.0,72,64,2561,116,39
58.0,55,64,2562,116,39
58.0,40,64,2563,116,39
58.5,72,64,2564,117,39
58.5,38,64,2565,117,39
58.5,76,64,2566,117,39
58.5,93,64,2567,117,39
58.5,81,64,2568,117,39
58.5,36,64,2569,117,39
58.5,48,64,2570,117,39
58.5,74,64,2571,117,39
58.5,45,64,2572,117,39
58.5,72,64,2573,117,39
58.5,77,64,2574,117,39
58.5,65,64,2575,117,39
58.5,64,64,2576,117,39
58.5,55,64,2577,117,39
58.5,45,64,2578,117,39
58.5,79,64,2579,117,39
58.5,81,64,2580,117,39
58.5,48,64,2581,117,39
58.5,67,64,2582,117,39
58.5,36,64,2583,117,39
58.5,84,64,2584,117,39
58.5,95,64,2585,117,39
58.5,59,64,2586,117,39
58.5,95,64,2587,117,39
58.5,69,64,2588,117,39
58.5,57,64,2589,117,39
58.5,48,64,2590,117,39
58.5,69,64,2591,117,39
58.5,91,64,2592,117,39
58.5,79,64,2593,117,39
58.5,71,64,2594,117,39
58.5,50,64,2595,117,39
58.5,76,64,2596,117,39
58.5,64,64,2597,117,39
58.5,76,64,2598,117,39
58.5,71,64,2599,117,39
58.5,57,64,2600,117,39
58.5,53,64,2601,117,39
58.5,67,64,2602,117,39
59.0,53,64,2603,118,39
59.0,57,64,2604,118,39
59.0,36,64,2605,118,39
59.0,67,64,2606,118,39
59.0,55,64,2607,118,39
59.0,48,64,2608,118,39
59.0,48,64,2609,118,39
59.0,55,64,2610,118,39
59.0,91,64,2611,118,39
59.0,79,64,2612,118,39
59.0,83,64,2613,118,39
59.0,43,64,2614,118,39
59.0,48,64,2615,118,39
59.0,77,64,2616,118,39
59.0,81,64,2617,118,39
59.0,74,64,2618,118,39
59.0,86,64,2619,118,39
59.0,74,64,2620,118,39
59.0,69,64,2621,118,39
59.0,65,64,2622,118,39
59.0,65,64,2623,118,39
59.0,38,64,2624,118,39
59.0,41,64,2625,118,39
59.0,86,64,2626,118,39
59.0,91,64,2627,118,39
59.0,96,64,2628,118,39
59.0,65,64,2629,118,39
59.0,67,64,2630,118,39
59.0,83,64,2631,118,39
59.0,69,64,2632,118,39
59.0,91,64,2633,118,39
59.0,55,64,2634,118,39
59.0,60,64,2635,118,39
59.0,38,64,2636,118,39
59.0,84,64,2637,118,39
59.0,52,64,2638,118,39
59.0,38,64,2639,118,39
59.0,53,64,2640,118,39
59.0,57,64,2641,118,39
59.5,52,64,2642,119,40
59.5,59,64,2643,119,40
59.5,65,64,2644,119,40
59.5,50,64,2645,119,40
59.5,83,64,2646,119,40
59.5,40,64,2647,119,40
59.5,69,64,2648,119,40
59.5,45,64,2649,119,40
59.5,81,64,2650,119,40
59.5,38,64,2651,119,40
59.5,84,64,2652,119,40
59.5,40,64,2653,119,40
59.5,62,64,2654,119,40
59.5,86,64,2655,119,40
59.5,38,64,2656,119,40
59.5,64,64,2657,119,40
59.5,55,64,2658,119,40
59.5,95,64,2659,119,40
59.5,36,64,2660,119,40
59.5,60,64,2661,119,40
59.5,79,64,2662,119,40
59.5,71,64,2663,119,40
59.5,88,64,2664,119,40
59.5,77,64,2665,119,40
59.5,74,64,2666,119,40
59.5,76,64,2667,119,40
59.5,83,64,2668,119,40
59.5,71,64,2669,119,40
59.5,65,64,2670,119,40
59.5,96,64,2671,119,40
59.5,95,64,2672,119,40
59.5,50,64,2673,119,40
59.5,86,64,2674,119,40
59.5,93,64,2675,119,40
59.5,89,64,2676,119,40
59.5,40,64,2677,119,40
59.5,40,64,2678,119,40
59.5,83,64,2679,119,40
59.5,60,64,2680,119,40
59.5,74,64,2681,119,40
60.0,53,64,2682,120,40
60.0,89,64,2683,120,40
60.0,96,64,2684,120,40
60.0,91,64,2685,120,40
60.0,76,64,2686,120,40
60.0,93,64,2687,120,40
60.0,83,64,2688,120,40
60.0,47,64,2689,120,40
60.0,41,64,2690,120,40
60.0,36,64,2691,120,40
60.0,36,64,2692,120,40
60.0,69,64,2693,120,40
60.0,67,64,2694,120,40
60.0,84,64,2695,120,40
60.0,52,64,2696,120,40
60.0,65,64,2697,120,40
60.0,83,64,2698,120,40
60.0,95,64,2699,120,40
60.0,88,64,2700,120,40
60.0,81,64,2701,120,40
60.0,53,64,2702,120,40
60.0,43,64,2703,120,40
60.0,48,64,2704,120,40
60.0,93,64,2705,120,40
60.0,55,64,2706,120,40
60.0,36,64,2707,120,40
60.0,88,64,2708,120,40
60.0,41,64,2709,120,40
60.0,43,64,2710,120,40
60.0,86,64,2711,120,40
60.0,76,64,2712,120,40
60.0,40,64,2713,120,40
60.0,53,64,2714,120,40
60.0,41,64,2715,120,40
60.0,79,64,2716,120,40
60.0,81,64,2717,120,40
60.0,81,64,2718,120,40
60.0,45,64,2719,120,40
60.0,60,64,2720,120,40
60.0,86,64,2721,120,40
