onset_time,pitch,velocity,voice_id
0.02843674107751064,63,605,2
0.03710196552796498,60,594,2
0.04514425500644377,51,379,1
0.05229011929885401,80,684,3
0.05865851124710739,41,475,0
0.0833092724038347,60,645,1
0.12336778128424518,77,586,3
0.13912180515627431,59,555,1
0.1505872602278215,60,735,1
0.2994049908784828,66,309,2
0.3592407017637953,80,700,3
0.36107015180906105,64,294,2
0.41566402299271105,87,475,3
0.43492369011179755,47,788,0
0.458615691676203,63,727,2
0.49608117283933073,60,220,1
0.5969553001847284,55,549,1
0.5995169018049787,40,580,0
0.6131095571930529,83,517,3
0.6425300654281787,54,698,1
0.7057559943165036,57,559,1
0.7136347210269729,47,344,0
0.7348378298347662,48,309,0
0.7560373663240918,43,407,0
0.7798514445968324,58,697,1
0.8891254567423543,66,534,2
0.8945736533744314,59,727,1
0.8977359139122453,67,638,2
0.9668705219036847,79,248,3
0.9851996848801113,59,458,1
1.0149210704601694,51,600,0
1.028364406660339,61,774,2
1.0379887689216047,68,760,2
1.0888790551577547,77,461,3
1.096833043471255,66,749,2
1.1298063396635776,45,224,0
1.2580480694382459,80,280,3
1.2837125973766514,45,301,0
1.2863125108765439,44,253,0
1.299969315694817,65,390,1
1.3004199021115235,72,441,2
1.3714485501464635,72,651,2
1.3858558798099159,63,561,1
1.4624549295740876,70,614,3
1.6955281788388747,76,262,3
1.7242571952713328,45,272,0
1.7583550521619424,80,287,3
1.7649330692360279,79,480,3
1.829177774504385,83,264,3
1.9475608881906672,42,418,0
1.9691915764607844,82,696,3
1.9773968413467855,46,502,0
1.9918887879799452,56,735,1
2.0024817149404934,47,679,0
2.0440008600637563,80,575,3
2.073152358977085,44,724,0
2.10543023264158,74,457,2
2.1661433378346917,48,752,0
2.207785838336293,68,638,2
2.2167703027268395,77,431,3
2.23022192714598,65,578,1
2.236835471182234,47,683,0
2.256207462198124,66,699,2
2.2594517626259094,53,555,1
2.27196820638342,76,765,3
2.2798633452514765,46,648,0
2.287282974073583,68,524,2
2.3412309814361305,66,427,2
2.3978628548455494,84,626,3
2.3981597044889513,45,422,0
2.39948906084785,71,749,2
2.4083876241306803,69,490,2
2.4236517019447112,80,267,3
2.460128459580169,55,421,0
2.4660576008770203,65,508,2
2.517163111857775,46,477,0
2.5440658779353305,70,395,2
2.592926695199516,53,507,1
2.593279947840247,50,737,0
2.5966236123500006,74,583,3
2.608390792638259,60,262,1
2.6952471914566467,83,404,3
2.7044148126669456,60,223,2
2.723776814774579,80,214,3
2.766925031274169,78,618,3
2.785521949219111,43,507,0
2.8209819893895998,56,591,1
2.838069371213859,73,407,2
2.880862191722987,50,770,1
2.903617576364338,47,468,0
2.939518109245094,82,784,3
2.9922727496396924,64,602,2
2.993322606353707,72,359,2
3.0158056665280584,41,361,0
3.0217511477476093,48,426,0
3.021885783925879,81,785,3
3.0240070199324998,65,794,2
3.0523090791731344,84,277,3
3.138667775328811,45,271,0
3.1438026627533913,63,503,1
3.1594789901164044,67,595,2
3.1620379318259877,43,734,0
3.1704459231859006,53,673,0
3.2421824787926576,66,612,2
3.242848434090842,69,333,2
3.396975527647845,59,580,1
3.4468693710272675,63,384,2
3.4797465242388106,84,590,3
3.5421568973742668,50,499,0
3.6019146099425257,57,417,1
3.6321152121502522,60,296,2
3.636709631861278,76,417,3
3.7314903222955316,72,302,2
3.740087201042585,73,738,2
3.797013696638058,56,483,1
3.852984096487125,50,317,1
3.917459717079913,51,324,1
3.9219169080313327,65,250,2
3.941282845000745,60,509,1
3.9634856901819133,47,552,0
4.030421598132593,78,695,3
4.031464628605297,64,209,2
4.089693238872929,56,681,1
4.100053211171308,77,233,3
4.142793292149567,54,543,1
4.170027136783523,44,647,0
4.18062173114435,87,456,3
4.215438119279618,43,370,0
4.221849208858457,66,597,2
4.228285283654931,46,417,0
4.372379129042264,50,413,0
4.396012566471838,63,340,2
4.444890484365438,54,791,0
4.461159513609744,42,261,0
4.465914669275047,82,584,3
4.546602917126513,49,291,0
4.550977132306948,45,311,0
4.5589827135929974,78,386,3
4.59908282495333,68,214,2
4.606992079915452,50,759,1
4.690311312497189,66,721,2
4.709211350957743,65,755,2
4.71254959372966,75,783,3
4.735036469232467,57,438,1
4.748872524650454,79,416,3
4.822860370664069,70,609,3
4.839330542925801,77,597,3
4.848233386619506,65,223,2
4.8510299932310765,45,371,0
4.868161377215714,74,389,3
4.868279359786202,83,275,3
4.888462215336162,47,446,0
4.95112086615871,58,268,1
4.968891892254529,54,407,1
4.969337337486416,67,544,2
5.024244190156784,44,789,0
5.070937512863987,46,781,0
5.138809527689966,66,549,2
5.162082805472905,67,206,2
5.16270137485264,44,719,0
5.18919307978051,64,224,2
5.216467710171585,61,496,1
5.261604349600365,45,302,0
5.287152924538853,50,601,0
5.3463711959289935,79,558,3
5.381063523243297,70,246,3
5.465568672803192,71,553,2
5.517137868315754,70,602,3
5.536567891248602,57,621,1
5.620017908817133,54,453,1
5.638844367662093,68,526,2
5.723753816130881,47,542,0
5.736523727545257,51,446,1
5.745509162442375,76,452,3
5.845506220132125,82,703,3
5.866284370270696,77,530,3
5.910284488273149,50,367,0
5.917443819336737,58,564,1
5.937401038155288,67,365,2
5.941465857893559,59,385,1
6.028752426420608,55,354,1
6.029082043118154,81,315,3
6.092327403379304,58,235,1
6.112110167259962,63,268,1
6.115123263483135,63,742,2
6.143696974959143,81,229,3
6.1693763525670535,60,430,1
6.178202272905067,50,272,1
6.1814711329011685,54,451,1
6.199623386942239,57,248,1
6.228773784230275,71,424,2
6.260921290684597,45,394,0
6.307943961517035,82,706,3
6.3614863105501405,65,455,2
6.491515828600401,70,527,3
6.542440290376372,49,455,0
6.6121175544393775,57,412,1
6.636408586825097,67,699,2
6.656322091924281,41,268,0
6.7118004002591425,58,607,1
6.744491528725602,65,335,2
6.869583564717027,69,690,2
6.890854536385845,60,722,2
6.954694625535211,75,254,3
6.971142574612931,65,250,2
6.9750015143329565,47,566,0
6.986583446702096,49,292,0
7.013850283531005,41,488,0
7.019635529241858,45,401,0
7.06123103723249,81,311,3
7.068827040092244,47,280,0
7.113481671595262,85,312,3
7.128665112221859,70,230,2
7.130343326566521,51,352,0
7.133822629244656,59,417,1
7.168165480588107,64,495,2
7.169913381967625,45,608,0
7.196411137367082,60,436,2
7.204636478120687,57,581,1
7.243489289488994,64,517,2
7.244162263965334,84,210,3
7.253024193981111,80,229,3
7.278040953005787,68,683,2
7.308285987629856,63,656,2
7.339537253509188,58,724,1
7.377426721144411,66,360,2
7.390483115122741,49,482,0
7.411905614837506,60,634,1
7.425864927412305,57,285,1
7.445636490063975,52,447,0
7.486861845080756,49,698,0
7.537635595152428,84,396,3
7.553526872973735,80,409,3
7.553858577961991,54,207,1
7.584282948211783,51,491,1
7.584662730481724,46,779,0
7.603184759674873,72,215,3
7.603649998959303,48,763,0
7.675453340740522,66,416,2
7.705095483775003,55,546,1
7.763874228185351,73,234,2
7.789893839490883,64,220,2
7.806210448431144,45,308,0
7.814614344299662,81,641,3
7.815894932032558,47,544,0
7.836395088690581,50,637,1
7.857008082634886,60,591,1
7.864922108753703,59,457,1
7.928313613042178,84,645,3
7.94881092645867,64,316,2
7.990847865795304,87,605,3
8.009130946034897,62,731,2
8.054621545406695,60,603,1
8.071020584602623,76,275,3
8.131598623168118,53,673,1
8.224758751175099,70,737,2
8.312008706090928,73,277,3
8.357663224480973,46,705,0
8.359430223657194,63,446,2
8.363948967282058,82,777,3
8.542598696511162,48,320,0
8.558282669558235,64,344,2
8.570291126574398,45,298,0
8.597955183540032,71,603,2
8.618640182356286,80,577,3
8.745307872065334,69,694,2
8.782220401307155,45,599,0
8.783634044832045,63,642,2
8.798080607773178,62,693,1
8.80552024295123,56,714,1
8.817633025969458,84,570,3
8.935607389730535,40,726,0
8.953965119638749,56,391,1
9.052745910922626,82,700,3
9.077829667038904,83,233,3
9.098815253329034,48,435,0
9.133384627250926,66,416,2
9.148170548859051,81,371,3
9.259838400541396,63,248,2
9.283217069084474,46,426,0
9.292833227273698,52,477,0
9.308878349358379,70,795,2
9.324064892877207,72,774,3
9.348319811325727,51,501,0
9.363713574401283,44,339,0
9.37461683745951,74,719,2
9.419873148065632,83,220,3
9.468377379345869,60,549,1
9.502547206465513,62,623,1
9.521727439119712,51,613,1
9.522900213804194,66,571,2
9.537903489872713,53,458,1
9.545966172992772,73,627,3
9.553752221746384,60,446,2
9.573311407192193,80,305,3
9.583074078115352,55,285,1
9.596389478559297,56,292,1
9.603053248571404,78,748,3
9.60835111434807,71,327,3
9.61227977085856,46,526,0
9.65693956502761,80,500,3
9.666829383887528,60,538,2
9.705252926513666,64,710,2
9.734317419822608,50,743,0
9.74366191230032,60,215,1
9.751701470275261,62,404,1
9.759489615682211,76,747,3
9.78454476997902,44,763,0
9.792753278204618,48,576,0
9.839314322005912,44,676,0
9.840722876829592,62,243,1
9.840830115065126,70,533,2
9.888478598653927,45,572,0
10.003423362464792,80,339,3
10.05171432947633,69,667,2
10.051963071648645,51,673,0
10.140847729618999,74,294,3
10.178824241514398,47,291,0
10.212301636033587,82,652,3
10.239863280905565,69,351,2
10.41869701517138,64,719,2
10.444686156712873,65,605,2
10.451605730564587,43,646,0
10.456253340338508,70,556,2
10.531488997236625,44,220,0
10.547410546438563,53,726,0
10.554832862679584,51,606,1
10.59482245776663,86,385,3
10.606312718295655,73,545,2
10.663739646385627,70,457,2
10.703551339478137,49,405,0
10.734520096340788,70,335,2
10.73847566402345,64,615,2
10.753606656579045,70,790,3
10.765063959764174,54,563,1
10.77604227535823,69,648,2
10.780324339761679,62,331,2
10.882350433612745,52,289,0
10.884449219341658,52,792,1
10.93015532347753,55,472,1
10.985336370473473,45,337,0
11.044511992753778,71,226,2
11.052391466329908,54,491,1
11.079376515628146,68,640,2
11.086309514968079,73,375,3
11.14598491081485,59,216,1
11.169572616313642,51,584,0
11.18004748199341,74,538,3
11.181244878610084,66,757,2
11.186214797570152,60,399,2
11.215393805979437,59,430,1
11.21750066677024,72,351,3
11.224284815420056,78,737,3
11.23290367171198,57,223,1
11.254674457752428,51,616,0
11.323609123771964,66,248,2
11.347134312599586,41,407,0
11.372374673701005,67,355,2
11.386151927607836,80,262,3
11.402316321151696,82,301,3
11.41686108683814,48,308,0
11.434350487985887,50,440,0
11.438342198147518,49,292,0
11.447397232681393,80,780,3
11.505012554188486,57,296,1
11.542433945564417,81,606,3
11.564808392013463,47,551,0
11.579693245412583,56,214,1
11.61198298061285,55,210,0
11.646317566683274,78,380,3
11.657623485533627,67,455,2
11.664059416093126,63,373,1
11.700787627754625,47,723,0
11.730891532920642,57,733,1
11.76103629021418,76,255,3
11.783764799588651,74,286,3
11.843466343338747,78,677,3
11.931412513434095,66,528,2
11.95058875180696,58,561,1
11.963494785693793,74,284,3
11.980596666751863,65,598,2
11.998445818985372,47,617,0
12.034288171858284,50,753,0
12.100323418718618,44,545,0
12.11594004216437,51,404,1
12.26962673097826,64,779,2
12.276417062160942,49,564,0
12.299272332935644,51,524,1
12.300658902938336,58,525,1
12.308892706775616,53,760,0
12.318905741594389,45,755,0
12.361673279580272,43,790,0
12.367923656243457,53,657,1
12.38364932439278,47,703,0
12.401062061509851,80,318,3
12.449987996373228,56,381,1
12.452410351306533,62,355,1
12.49001693930926,52,779,1
12.563636814006918,74,258,3
12.668557524523557,54,534,1
12.686990989190294,61,283,1
12.715518085127858,47,554,0
12.7827891198484,50,466,1
12.813080214358012,56,441,1
12.814604568139108,65,796,1
12.849106938370396,58,541,1
12.883488944110695,76,593,3
12.921878970188429,51,439,0
12.964836385496806,73,500,2
13.047315744003495,46,681,0
13.063035944586739,83,522,3
13.175010274759748,84,577,3
13.18300480473959,74,241,2
13.303755710318596,45,202,0
13.314663816263256,60,572,1
13.338996698390426,83,541,3
13.415942366221094,68,404,2
13.451737523711211,64,750,2
13.461061374010887,78,699,3
13.507251827911166,43,522,0
13.51680796100845,55,223,1
13.533063762455996,41,751,0
13.559197498525045,63,628,2
13.567900549432208,66,376,2
13.576371722673036,83,787,3
13.580366757163215,74,740,2
13.660487319509711,84,791,3
13.75450836601413,74,679,3
13.805399651566903,82,264,3
13.811915438110441,42,642,0
13.896966940183036,79,429,3
13.908802925856213,42,471,0
13.917851404782354,52,485,1
14.00149460779625,51,778,1
14.016024289570648,58,745,1
14.11472146226916,46,284,0
14.11527222419586,58,721,1
14.128934884785938,74,462,3
14.15462500217184,87,386,3
14.16572429876364,80,351,3
14.191000678081725,64,278,1
14.2373664662136,81,240,3
14.371596952730837,80,579,3
14.397751793429938,41,305,0
14.423524539006701,56,676,1
14.431085659649376,68,675,2
14.436428578517528,58,365,1
14.443565663451263,77,632,3
14.445593132982228,40,748,0
14.460167152997709,47,417,0
14.480519917075576,71,767,2
14.484066419473198,82,216,3
14.49250299626513,54,207,0
14.52016629547126,57,788,1
14.540488318436001,53,490,1
14.562135207858708,51,598,0
14.58617051519718,74,425,3
14.589558642812714,58,425,1
14.639443230965595,74,693,3
14.652901950529214,71,377,2
14.756678627565812,61,371,1
14.775113923688576,46,251,0
14.837465901727263,59,431,1
14.858318340245663,69,580,2
14.896394138779963,54,506,1
14.959101831299785,65,719,1
14.977079460048746,80,341,3
15.021532045173554,43,798,0
15.02240409632126,55,240,0
15.0359971014144,56,788,1
15.10232985463858,63,556,2
15.11176361623858,47,649,0
15.179297781353414,48,323,0
15.210693698637892,46,314,0
15.226653747581098,47,538,0
15.228146376651209,61,658,1
15.278142320063901,45,239,0
15.296998443489459,74,557,3
15.384236206898436,86,264,3
15.433901747574494,82,799,3
15.506447441191677,56,544,1
15.600914853663348,76,326,3
15.605590331902768,82,779,3
15.636032460400296,46,514,0
15.68483043576048,53,464,0
15.686079972486365,73,749,3
15.737325008450334,85,281,3
15.7762620364805,52,293,0
15.857848252893984,71,533,2
15.892399233693558,62,405,2
15.895017199069464,61,735,1
15.897547671938176,64,441,2
15.928022908590606,40,309,0
15.963754460199599,68,637,2
15.981173809646343,66,200,2
15.984519720961476,42,586,0
16.03987823662233,64,352,2
16.053881226470896,79,786,3
16.055390682130913,76,363,3
16.088268402876427,56,237,1
16.155988509858812,77,689,3
16.231286462167088,72,207,2
16.28128272291206,61,506,1
16.324692153026557,75,405,3
16.335677358517493,71,774,2
16.353226159582672,59,211,1
16.382564593411796,68,539,2
16.389967289613793,58,486,1
16.407645066296496,78,788,3
16.418804038904653,73,299,3
16.430494488247938,44,445,0
16.515352774405503,64,529,2
16.54835142670447,67,427,2
16.550162159375976,61,344,2
16.619722755387617,61,615,1
16.73083990891784,73,256,2
16.840745721315614,51,216,0
16.85302529441646,65,306,2
16.86782482140581,87,791,3
16.87700338318964,52,333,0
16.914666031610633,55,415,1
16.959053922283918,76,242,3
16.96296079299762,50,211,0
16.99203177346554,54,682,1
17.0077021005075,43,262,0
17.03261991265514,66,792,2
17.0375844593211,72,724,2
17.049608310055135,45,591,0
17.054306369775826,49,342,0
17.07810398780802,82,233,3
17.111852231984017,79,757,3
17.11877022738236,54,774,1
17.17186787864865,46,633,0
17.194436767357576,74,498,3
17.253384131846893,54,205,1
17.259182832752355,46,713,0
17.264426866907712,60,797,2
17.264515256218345,78,625,3
17.27424637428933,84,639,3
17.28827498507444,76,582,3
17.3066174588012,51,600,0
17.385219112021957,72,396,2
17.488810010281238,68,383,2
17.51538850775838,74,242,3
17.53524874410427,55,208,1
17.54966350385438,81,797,3
17.5767711496368,70,484,3
17.605225077687365,45,737,0
17.61128508243776,73,609,2
17.639457646705125,43,207,0
17.65902400432831,41,735,0
17.6618041056048,60,642,1
17.664648480392845,77,677,3
17.743058018012512,54,690,0
17.78077233861866,59,285,1
17.7893944887164,60,652,1
17.847678917611304,84,557,3
17.855672457006428,78,562,3
17.861071472054412,63,389,2
17.880726743965052,60,659,1
17.90106646568463,61,707,1
17.963163596045693,83,578,3
17.971590717140906,68,276,2
17.97903066476194,74,256,3
17.98367346067066,77,210,3
18.068222955577472,54,492,1
18.080311459763884,63,547,2
18.15795979711815,58,246,1
18.215041264140506,81,326,3
18.230732767360678,75,503,3
18.236508073339447,84,297,3
18.27356264083942,42,427,0
18.30047809045209,51,239,1
18.308205742534383,44,554,0
18.308517486864012,77,657,3
18.316874347212693,54,684,1
18.447600118821544,50,445,0
18.47436439471056,56,768,1
18.483716198414886,50,246,1
18.492956564273513,58,500,1
18.494479361774737,59,230,1
18.540749665124345,83,286,3
18.578795285526343,73,510,3
18.626836072101476,42,531,0
18.647255827071497,88,204,3
18.65234848988773,86,465,3
18.66075271864345,40,769,0
18.664749236112264,71,652,2
18.726868861622123,76,639,3
18.82359633470499,45,658,0
18.834598050933003,82,553,3
18.841447239627225,71,723,2
18.88091168461303,51,679,0
18.88635767255221,61,243,1
18.91443761316905,74,571,2
18.940358266633083,76,326,3
18.990871525418097,81,697,3
19.0059746530795,47,455,0
19.03826091413504,73,449,3
19.05235432757864,81,601,3
19.05354967792917,51,339,1
19.068054930376075,67,311,2
19.108024382395882,54,368,1
19.1094751149298,77,468,3
19.12257501420457,72,576,3
19.129684379757087,75,709,2
19.131454381471706,55,354,0
19.151991630049643,60,392,1
19.16217255365761,63,317,2
19.205782436383004,56,485,1
19.22737753771575,50,283,0
19.2392061825672,42,363,0
19.275728957834964,67,551,2
19.304448037259494,78,415,3
19.39204696134946,59,787,1
19.46466178184799,47,211,0
19.513013068556415,41,532,0
19.527403088553022,52,562,1
19.53881708188236,49,590,0
19.544020801856654,45,206,0
19.55300398294177,62,273,1
19.58986302952294,57,469,1
19.604931645849494,63,524,2
19.655743102430975,49,282,0
19.724825580777132,61,551,1
19.728134919036943,78,491,3
19.797224569214393,53,599,0
19.88901926072789,40,511,0
19.9055135556801,55,609,1
19.92112227910976,42,228,0
19.93581194658269,68,526,2
19.944007049374296,58,345,1
19.94665297668075,60,682,1
19.957371090112865,59,531,1
19.98811274705397,64,340,2
20.05063782180322,49,249,0
20.074588349620612,44,561,0
20.081874396114856,71,224,2
20.111598800888302,69,498,2
20.16676527793718,79,539,3
20.22136491556658,45,373,0
20.282484753189216,42,413,0
20.387077965467533,53,665,1
20.417141190602035,86,551,3
20.430851536130486,57,362,1
20.531925324196443,77,495,3
20.614139541543487,50,280,1
20.627527730414755,43,539,0
20.646020782094666,51,485,0
20.682783153364205,78,347,3
20.698162336344062,49,639,0
20.713217871973686,48,328,0
20.72475323006889,72,748,3
20.736631104729494,57,577,1
20.790754574890155,63,384,2
20.79677724920816,55,365,1
20.825562001577648,57,624,1
20.841738262709786,54,261,1
20.849295312675608,80,519,3
20.925315566294646,78,578,3
20.96105646626972,61,416,1
21.00754225526412,74,425,3
21.036491671617526,45,497,0
21.147310036062336,60,388,1
21.184779089585838,79,259,3
21.226175590277233,74,666,3
21.274023553338356,88,332,3
21.2763794902578,55,673,1
21.286947238930694,70,568,2
21.29878338501265,47,558,0
21.336074306270337,51,263,0
21.37083769371861,56,745,1
21.376194767132247,61,426,1
21.417999745166455,73,418,2
21.470919648650828,44,245,0
21.597211355416732,77,755,3
21.604444698109962,73,626,3
21.621969170629775,69,584,2
21.68335515773073,47,613,0
21.68754729621296,81,250,3
21.778921371077875,62,621,2
21.784621702816544,54,460,0
21.808371208351442,57,432,1
21.87890662909079,50,679,0
21.891337735289003,66,533,2
21.898190701087998,70,212,2
21.913516259770528,45,616,0
21.925732027329897,49,416,0
21.974007848436806,66,389,2
21.99249231210028,70,790,3
22.008749889456986,64,579,1
22.05205900553669,59,599,1
22.110309782423915,73,551,3
22.114416946054195,63,605,2
22.20912917272341,83,265,3
22.210122430479213,41,254,0
22.24504680225471,73,630,3
22.2558857179414,72,437,2
22.297608135014535,82,666,3
22.31426125808469,66,447,2
22.498469233935268,47,311,0
22.536466909083718,83,735,3
22.540876577126344,54,779,1
22.623802973870628,49,525,0
22.638867553554398,86,247,3
22.656002302685028,53,263,1
22.669513226203634,73,760,2
22.675558787597044,48,683,0
22.692407018556516,65,550,2
22.729251924805382,73,792,3
22.7292547395735,49,595,0
22.74236362976861,75,433,3
22.74438337934648,83,327,3
22.765162990440633,61,669,1
22.779140309996283,66,781,2
22.89106291828939,50,349,0
22.925895134013967,65,403,2
22.93749006896626,55,416,1
23.07520398129018,66,503,2
23.146251260696744,58,774,1
23.15882457881908,84,343,3
23.175325086927796,49,493,0
23.205946602662937,69,798,2
23.21797289845024,76,340,3
23.246194257533116,63,471,2
23.27981449704025,50,474,1
23.296948954787798,57,325,1
23.333517376289088,71,211,3
23.34390137051782,73,204,3
23.348560691327236,52,231,1
23.393729888966035,61,269,2
23.447966658102374,49,308,0
23.487553132129626,73,608,3
23.508048331773615,66,432,2
23.53275656847944,71,595,2
23.637161932093736,48,540,0
23.677592129630263,52,660,1
23.685413032706748,74,236,2
23.70939167811413,62,710,1
23.76132367211772,64,688,2
23.7655757687897,43,754,0
23.767576816790715,56,327,1
23.77656223456421,51,782,0
23.798599011399638,47,717,0
23.82463018799173,77,295,3
23.838297970130558,56,728,1
23.89906110465662,68,772,2
23.910642537745975,65,329,1
23.93178426769072,80,674,3
23.948635125169524,76,573,3
24.029289347815006,61,377,1
24.0575861084264,79,385,3
24.084627823921828,50,706,0
24.12609355977197,69,290,2
24.149343864424758,75,549,2
24.151760177439836,65,440,2
24.201189567292527,51,222,0
24.2023445179939,45,557,0
24.239325993708544,84,686,3
24.304523174411905,76,440,3
24.3405172870737,64,435,2
24.351864429084674,46,246,0
24.35249873371615,43,634,0
24.374413210729173,52,239,0
24.38754377078753,63,281,1
24.421962361321803,62,389,1
24.438154978572424,60,586,1
24.458121413038604,66,297,2
24.465653310059157,63,319,1
24.47387544149654,49,674,0
24.569387218034038,78,663,3
24.608467924398354,64,235,2
24.62103985232839,40,391,0
24.70014549258755,81,490,3
24.738116195196724,54,734,1
24.752970037595297,50,569,0
24.7847137710088,48,339,0
24.836107429067116,70,531,2
24.867856705331253,54,234,1
24.90994942756613,52,266,1
24.94039093212112,50,679,0
24.97424390200272,47,798,0
24.987033285291222,81,320,3
25.02344826561748,52,441,0
25.03905646516456,71,546,2
25.10913970263376,81,683,3
25.12151582603797,50,701,1
25.126732651613878,76,771,3
25.17305977482319,82,229,3
25.194992959575703,44,487,0
25.20123349450607,79,545,3
25.32608968636355,50,790,0
25.36850916843793,57,208,1
25.444324991603082,68,407,2
25.500607365663484,73,587,3
25.540291344137614,68,247,2
25.562584196046473,48,660,0
25.602777684435566,51,211,1
25.624091238553564,72,539,2
25.679205452360165,79,759,3
25.68833822778787,66,377,2
25.69656085706769,41,642,0
25.70919707634545,70,286,2
25.8015663952661,40,343,0
25.81386102794715,46,372,0
25.815453558748093,66,557,2
25.820235709030083,77,599,3
25.85599898120967,63,248,2
25.864992753313004,70,499,3
25.87116306634803,44,377,0
25.890417227466994,88,243,3
25.909683084830384,40,607,0
25.916827627344844,53,274,1
25.944645610288187,42,330,0
25.95316194889667,56,442,1
26.066971913210647,79,659,3
26.128995476499554,50,518,1
26.147316211794816,87,491,3
26.173774928947296,72,248,2
26.179305155032733,80,303,3
26.20614368998107,57,478,1
26.28316576971123,68,486,2
26.299146876831287,74,723,3
26.353640329355205,80,777,3
26.395484456427813,71,670,2
26.396184286058553,46,727,0
26.43266024440814,75,576,3
26.43678757586525,57,778,1
26.45028297694852,69,366,2
26.452675225623278,79,351,3
26.458607723188557,44,766,0
26.460988985228493,64,224,2
26.52980073776767,69,548,2
26.540845279001015,60,761,2
26.599757426107093,65,387,1
26.657539818602643,66,685,2
26.736864624594624,55,300,0
26.78702102034029,58,664,1
26.861531422811684,45,794,0
26.920469044175817,57,785,1
26.923590439631575,75,770,2
26.94488406887881,63,275,1
26.974791669027095,81,787,3
27.02157272598075,70,652,3
27.043323696902835,56,359,1
27.05001921779373,79,279,3
27.059509579397734,51,507,0
27.14681399494633,53,338,0
27.191697132775552,64,463,2
27.233219498943516,87,253,3
27.25433348277653,45,311,0
27.302502628008472,88,450,3
27.326197880039228,65,586,2
27.339120161944244,45,667,0
27.406673364091912,81,277,3
27.409327487829824,77,631,3
27.413707242040065,80,413,3
27.487491710764306,75,673,3
27.526492249243123,46,781,0
27.565564521279953,58,210,1
27.567689420288907,52,617,0
27.570766480423995,45,292,0
27.604327136972163,66,559,2
27.699540083458754,81,341,3
27.700387578710902,45,334,0
27.724754274989007,49,522,0
27.87587423380473,66,329,2
27.903245390930632,70,465,2
27.911914444780884,61,510,1
27.917431125545583,54,408,1
27.957600243208514,52,784,1
27.970152898103322,73,628,3
27.98149015514969,80,276,3
28.070398223251836,68,411,2
28.07738966839817,53,254,0
28.078112234173823,83,456,3
28.11259825338647,72,679,2
28.11941947496606,58,668,1
28.31543917706372,72,578,2
28.332240697553043,58,474,1
28.3622628235968,51,239,1
28.383673574628766,81,655,3
28.445045884441647,75,263,3
28.450378025326742,54,336,1
28.46208496999667,54,726,0
28.66622165505437,85,761,3
28.680001159136467,57,648,1
28.6841615292821,79,508,3
28.770023705575902,45,733,0
28.827809630138074,46,773,0
28.829756794559568,48,593,0
28.844971611467365,51,484,1
28.94264712958659,57,777,1
29.02659347585351,79,436,3
29.051909675076512,68,670,2
29.054202942657845,58,245,1
29.055720427259264,61,774,2
29.142954148916395,52,317,1
29.159197226726054,48,530,0
29.1871015051666,55,284,1
29.200593963314,81,708,3
29.229064511357688,46,423,0
29.291158981100118,62,546,1
29.340293515944143,74,524,2
29.43710818498722,59,288,1
29.46210983525134,62,575,2
29.55508166726935,70,494,3
29.654169763372945,44,355,0
29.695372444375653,59,432,1
29.696196495009172,75,708,3
29.752648987598587,77,399,3
29.82179771373501,61,604,1
29.915383692966426,69,542,2
29.9935719832181,72,514,2
30.0007727611832,54,750,1
30.02257759499434,52,374,1
30.06838669788922,47,248,0
30.099961909827634,61,624,1
30.100592401250072,84,495,3
30.10113383884819,57,237,1
30.136541797267924,54,280,1
30.140888112536064,72,676,3
30.191353788206253,80,491,3
30.228553992134184,69,336,2
30.236607183887394,65,465,2
30.287655677708774,68,298,2
30.296326653163963,65,432,2
30.298581007969336,65,774,1
30.308060075036646,54,332,0
30.342187684245026,75,343,3
30.351657083558166,45,710,0
30.4124435750705,48,497,0
30.52337726260462,77,769,3
30.65053440663026,55,694,0
30.6981776855591,45,408,0
30.72139251259607,50,360,0
30.759164135238645,65,230,2
30.823109636603597,54,727,0
30.854724072855344,75,476,3
30.883369654498043,76,384,3
30.899185438080103,51,500,1
30.912241401793988,58,607,1
30.971429954374987,68,489,2
30.976406308884165,56,684,1
31.083304386371886,78,526,3
31.167021320454477,49,710,0
31.177630411246884,56,475,1
31.20615551890458,50,226,1
31.21071103623338,60,429,2
31.250991526797318,78,531,3
31.259231568723212,75,779,3
31.30738950794803,63,299,1
31.31587452017422,51,720,0
31.320450871765747,70,426,3
31.361994918616077,75,474,3
31.421388562228675,50,618,0
31.43416708689734,49,608,0
31.472486218269047,52,229,1
31.553483426337053,52,295,0
31.558218569707503,66,503,2
31.56933660966842,68,237,2
31.59212057291464,56,706,1
31.618156247993824,55,776,1
31.630224757008545,67,539,2
31.63943526905315,64,726,2
31.669026114528776,69,229,2
31.673043919309197,59,318,1
31.701593794150828,67,258,2
31.780743191922074,75,227,2
31.819836072972024,69,767,2
31.833142059470813,65,246,2
31.85605597864506,70,301,2
31.864483091170946,51,462,1
31.87597083313418,61,414,2
31.91631149041473,75,625,3
31.965476133070467,59,556,1
31.96613155004975,58,788,1
32.044986015394706,81,212,3
32.129804644817845,49,728,0
32.1450381834032,55,314,1
32.14866971814813,46,401,0
32.14953191806715,59,654,1
32.20307357668287,85,403,3
32.23998163377082,48,646,0
32.32070360073628,57,297,1
32.32781668725909,67,793,2
32.34898473431777,64,348,1
32.502307713508415,48,699,0
32.505838287796784,68,285,2
32.67106199455262,46,504,0
32.672545235711304,77,538,3
32.73173682334041,81,231,3
32.74546432426274,56,584,1
32.80281084192394,53,539,1
32.82032129771533,48,579,0
32.85229938496186,59,662,1
32.87245083600375,56,205,1
32.91803998429736,57,414,1
32.934071991326185,75,711,3
32.93516238919482,67,429,2
32.971857242243395,47,355,0
33.00533445867357,80,411,3
33.00758178740073,64,202,2
33.02754378503276,49,667,0
33.0483618664985,67,602,2
33.07098904556615,55,264,0
33.17963193581944,52,393,1
33.24847937991331,63,493,2
33.259914472059,77,633,3
33.278160858973614,48,777,0
33.284821114565155,81,275,3
33.297842126419596,74,449,2
33.34231643104361,67,637,2
33.37539450691713,69,389,2
33.392756150023,62,258,2
33.42979825399252,65,307,2
33.48467335638892,69,528,2
33.485826883859495,53,405,0
33.624778372807555,71,485,2
33.632854333878015,64,669,2
33.65363294480996,77,307,3
33.66239986328737,62,795,2
33.6844939279454,75,317,3
33.733850475856855,78,766,3
33.73807063978048,49,261,0
33.86935056700692,69,698,2
33.88072521465807,59,708,1
33.889213592522474,66,334,2
33.91027237696955,78,753,3
33.93814468569167,55,457,1
33.94165500433092,61,786,2
33.97283129168193,80,526,3
34.01255894325546,58,217,1
34.04364763501006,48,762,0
34.08996039306587,83,595,3
34.133159289626676,45,380,0
34.16346276729254,74,793,3
34.172607614661075,65,271,1
34.19164965208551,61,308,2
34.21269093537947,65,638,2
34.22018233682058,48,624,0
34.22348604335935,71,452,2
34.30632250380152,72,682,2
34.3329915907572,82,231,3
34.35133967579249,68,719,2
34.36539157880958,73,268,3
34.37292111739195,81,505,3
34.42030107835914,47,407,0
34.44426707459395,56,373,1
34.45493429995265,68,283,2
34.49787301015435,75,370,3
34.52086637760991,76,425,3
34.55151596272011,44,572,0
34.55664845317878,60,795,1
34.575640219104834,80,246,3
34.61874852811077,56,226,1
34.63948988427014,86,210,3
34.64687796071219,78,759,3
34.65851500722429,66,449,2
34.676954090116126,60,511,2
34.68525933350456,55,435,1
34.70283479378405,45,654,0
34.75630372758163,75,582,3
34.785599895308174,71,797,2
34.83394336709904,62,652,1
34.83434629876807,50,672,1
34.8736281257742,68,437,2
34.89307524412562,64,279,2
34.901412228153326,48,214,0
34.955159288629645,61,350,1
35.01006799009586,50,593,1
35.01534550759461,72,490,2
35.0259449857115,78,416,3
35.04651642576764,85,265,3
35.055309269416014,63,451,2
35.13894765812789,71,545,2
35.14967948086665,61,296,2
35.160369641488174,80,300,3
35.17732766269667,53,609,0
35.20767267610971,60,344,1
35.21987298973344,57,332,1
35.226606502304904,75,542,2
35.228887963588875,47,467,0
35.27235042267424,62,326,2
35.28775506217982,42,298,0
35.29697546114092,80,507,3
35.30009206707824,40,676,0
35.33077586340567,53,223,1
35.36492305240791,88,767,3
35.40801882040442,43,249,0
35.41259433343078,50,608,0
35.412750758642375,55,770,1
35.488364880317306,72,538,2
35.49092020195354,42,770,0
35.49569818503551,65,356,2
35.51587781965909,77,547,3
35.54126725820171,60,548,1
35.54964878051554,64,510,1
35.56348928549739,69,677,2
35.581986996611796,76,237,3
35.58870702516443,50,290,0
35.630910857703746,49,451,0
35.64014998299608,74,641,2
35.65808152640156,51,655,1
35.669795125759805,79,312,3
35.67071765218997,75,701,3
35.74261492397202,47,583,0
35.7464868067347,41,790,0
35.75124474414505,44,445,0
35.76112656647692,54,736,1
35.80152576764518,66,279,2
35.81781105072785,80,292,3
35.863936803114505,52,767,1
35.90827467009078,75,356,2
35.953156867628074,74,423,3
35.958051571073405,75,352,3
35.96741366533731,46,327,0
35.97956781970293,56,668,1
36.015459283912165,70,791,3
36.02323679336328,48,218,0
36.04022292352546,42,718,0
36.045806000293055,74,508,2
36.1206249519309,60,485,1
36.13255462206034,52,483,0
36.23340656827306,61,372,2
36.316260614616056,48,662,0
36.3249623656954,52,554,1
36.346650365044795,49,706,0
36.36427051396118,57,311,1
36.46855281737685,49,278,0
36.47970419600059,52,219,0
36.48115325579279,67,371,2
36.48633733298938,48,677,0
36.49855306142098,77,233,3
36.528240277801,66,640,2
36.5668028011655,76,701,3
36.581075950567566,50,488,0
36.58217697506259,60,324,1
36.62477021966567,67,764,2
36.65393349863012,79,507,3
36.66838505209504,55,242,1
36.67831475590441,44,320,0
36.67840870052796,50,686,1
36.68595057878734,58,701,1
36.736803517332376,62,662,1
36.80513193692999,54,494,0
36.85392736744563,66,304,2
36.928883291007004,53,592,1
36.95482973477418,88,302,3
36.967002007294575,47,361,0
37.082621964009604,50,455,1
37.112734005544375,84,318,3
37.22178921033723,82,326,3
37.27688121356881,58,222,1
37.36791819272071,58,200,1
37.421604350924326,71,269,3
37.422894445606346,64,575,2
37.43244663338207,44,678,0
37.44043993170795,55,449,1
37.46038072973631,54,783,1
37.510103706652856,57,335,1
37.52323302328587,45,206,0
37.571985487549114,40,243,0
37.58125313380526,53,338,1
37.62400564550316,62,709,1
37.671328996170075,81,378,3
37.69825876234057,67,530,2
37.737988618060506,60,453,1
37.747633977531656,81,281,3
37.75630465786567,69,737,2
37.7701922350157,45,560,0
37.78344464244673,60,317,2
37.80967366819522,40,374,0
37.82820440841788,81,585,3
37.86746391231423,71,558,2
37.88192159710438,50,667,0
37.88918482233836,75,669,3
37.89213474317734,49,223,0
37.89534444437002,43,345,0
37.90430498142422,53,627,1
38.03663977947224,68,686,2
38.12143911413913,73,747,2
38.20394690139007,65,543,2
38.30626693477859,47,791,0
38.31448260783029,79,293,3
38.431644689966305,65,319,2
38.46380402259129,80,346,3
38.47466540919313,77,243,3
38.48770505452337,64,348,2
38.53223789004297,47,570,0
38.68106823164289,43,621,0
38.704989091503485,53,690,1
38.7231003687222,81,621,3
38.73328596981142,69,552,2
38.74680068720103,46,395,0
38.77058900421879,47,510,0
38.798564940069106,60,455,2
38.804975850832555,82,590,3
38.81387981384671,78,254,3
38.827854845556224,44,219,0
38.848295425329965,64,252,2
38.913614760305464,74,230,3
38.92393515354893,68,303,2
38.92745367659539,46,279,0
38.98109599961287,71,497,3
39.04308354205403,55,741,1
39.08418483756749,44,540,0
39.10360569711731,61,369,2
39.12044035005979,67,440,2
39.14777504488006,72,679,2
39.171683830779386,53,684,1
39.21910863127959,51,320,0
39.24004399452296,62,596,1
39.243806284917824,77,410,3
39.260160163953216,49,300,0
39.272324949139765,74,663,3
39.36643009399545,51,247,1
39.491246664205285,77,419,3
39.52590685893488,71,759,2
39.550027856716255,67,538,2
39.558949173338334,64,300,1
39.57469223139909,58,668,1
39.59321432998471,80,424,3
39.64062617529531,59,225,1
39.64742310127276,48,623,0
39.65486519188793,71,597,2
39.763098901400205,69,798,2
39.81480027688216,44,218,0
39.84717496081452,68,632,2
39.869544489275064,57,359,1
39.915829087123576,54,722,0
39.93007413556068,51,628,1
39.97653997796735,69,229,2
40.00918244771967,66,338,2
40.034082896128254,48,628,0
40.036115847586935,60,655,1
40.0464892151913,76,624,3
40.10208762931976,45,688,0
40.10973762479254,66,332,2
40.13632689202269,76,263,3
40.13767029085402,51,248,0
40.1468873829034,57,505,1
40.167924004133546,69,282,2
40.17237797514719,53,421,1
40.179292651792075,73,576,3
40.19267205701941,47,690,0
40.22860123696581,61,477,1
40.258512618314256,76,547,3
40.279505437476885,61,752,1
40.28588483078753,60,717,1
40.303389682730355,67,604,2
40.32242051118298,71,343,2
40.369944787989,51,471,0
40.3717570479541,49,638,0
40.3871795969841,55,248,0
40.393066394103165,43,673,0
40.39826407559283,45,595,0
40.428172093587676,70,387,2
40.49461211249716,62,785,2
40.50237851807016,84,746,3
40.50863353230492,60,317,1
40.525463190455845,65,587,2
40.5478415247898,73,427,3
40.548499308108674,55,407,1
40.550702896453295,66,669,2
40.57459536171606,79,705,3
40.591869749775746,85,720,3
40.636072450752955,84,736,3
40.63974613232349,59,636,1
40.64003945479478,55,631,0
40.684103131083475,60,537,1
40.76908291646623,68,659,2
40.79206953125737,47,337,0
40.81114077039007,63,603,2
40.82536574249996,86,654,3
40.87241760555898,43,608,0
40.88528722036496,49,243,0
40.90510969298253,80,564,3
40.937372125045634,81,632,3
40.960090090458586,76,251,3
40.969851966089614,51,636,0
41.01066005706479,73,402,3
41.03720263560329,57,428,1
41.05003325760141,47,645,0
41.07380759670144,40,422,0
41.07472203787837,60,297,1
41.13851488527013,66,637,2
41.14491166493069,60,430,1
41.14491998811423,44,792,0
41.20846206493713,41,635,0
41.32805236905127,55,492,0
41.36217893938451,78,210,3
41.402592469070136,60,215,1
41.41469292935406,83,571,3
41.454066686056386,41,555,0
41.459861976558955,45,747,0
41.51853497714084,49,578,0
41.57652885232665,62,502,2
41.633184952942905,51,622,1
41.64142560148868,42,639,0
41.658924892029226,56,690,1
41.682392064886464,68,387,2
41.701681898683994,74,647,2
41.72885553306465,49,745,0
41.760342033653345,63,339,2
41.861767714185326,59,231,1
41.93837198249563,57,502,1
41.960112412430504,61,319,2
41.96884819407185,70,598,3
41.971524214711586,44,307,0
42.01735020147409,65,670,2
42.020828507189854,60,307,1
42.028729983674616,66,650,2
42.03873726430209,59,680,1
42.04924171956126,50,279,1
42.05185268974605,76,272,3
42.076531670537754,81,710,3
42.10589606021846,48,495,0
42.12812766881438,46,348,0
42.130442495973234,70,738,2
42.21195798224269,61,719,1
42.26582474173502,51,508,0
42.29771978406729,55,374,1
42.353743354187976,79,788,3
42.36358126512925,66,773,2
42.369496097084934,54,722,1
42.379351798044354,40,298,0
42.430848910995905,84,258,3
42.53293529724932,61,350,1
42.562240577990735,68,426,2
42.58544162342579,83,410,3
42.58630572355974,65,491,2
42.71422963462024,59,574,1
42.72594016523971,66,265,2
42.73150872996775,48,354,0
42.735861438465285,62,743,1
42.75707867273327,64,685,2
42.78784941812224,63,725,2
42.838606535664944,47,594,0
42.85363469007989,58,207,1
42.87181409002088,56,529,1
42.90001912219293,51,278,0
43.028872516923556,44,781,0
43.04579032599929,58,372,1
43.04685481358941,70,714,2
43.08275991027593,65,658,2
43.100104254689825,72,757,3
43.10549201367994,41,244,0
43.1065389910284,79,554,3
43.119250807559254,75,591,3
43.120947792246746,69,767,2
43.12102949278601,64,609,2
43.179527088576286,53,572,1
43.204093808751985,46,301,0
43.27857558596049,75,706,3
43.31995583741424,72,316,3
43.34541963132116,80,657,3
43.350439319673654,84,628,3
43.3767020594471,67,587,2
43.539371840028394,72,720,3
43.557418213679234,81,471,3
43.55885970203111,40,697,0
43.571731186821324,52,400,1
43.57333718130517,60,506,2
43.58066255025989,55,241,1
43.58800592861299,63,670,1
43.61985064294988,48,458,0
43.63624155987157,78,285,3
43.6673758067319,51,611,1
43.69671957029549,66,681,2
43.70283354376886,55,424,1
43.752634374067085,81,391,3
43.82253831316384,78,720,3
43.825973414996376,77,249,3
43.870139318085464,64,716,2
43.89075580780254,71,651,2
43.96739161953068,62,687,2
43.9987301030459,56,766,1
44.01724487398682,82,634,3
44.01856598384953,83,465,3
44.02147420184122,66,715,2
44.025987125638224,49,624,0
44.0337828697905,68,279,2
44.03461475161635,62,579,1
44.074287898573125,61,319,1
44.11700610829566,71,606,2
44.19794374430256,75,491,3
44.25236443027277,63,260,1
44.320684148609466,42,300,0
44.3270349426309,55,366,1
44.34792118122702,50,484,0
44.35690670063992,52,706,0
44.37018486757512,48,720,0
44.384884230012986,46,361,0
44.4338832682589,70,351,2
44.43899371560403,67,232,2
44.477665774010525,76,465,3
44.51113927591489,66,709,2
44.51444574241321,55,788,1
44.52289579725845,51,240,1
44.52849358908513,46,234,0
44.53772479245343,50,223,0
44.54513942600201,74,430,2
44.54855498512591,84,425,3
44.58574444099029,47,273,0
44.60646998377142,52,782,1
44.610743924388665,57,267,1
44.618831668327495,63,622,1
44.64441563052904,80,685,3
44.72543338819707,70,417,3
44.7870583652124,88,361,3
44.81868519600245,50,389,0
44.82162857140004,47,504,0
44.84397708630009,68,529,2
44.91497230809568,55,453,1
44.922882286207305,66,313,2
44.933715532976485,53,358,1
45.00137232316496,67,562,2
45.02873881810926,51,323,1
45.03219488467329,50,472,0
45.06007480090157,80,366,3
45.07358031802824,48,509,0
45.08929908300688,55,283,0
45.09492524584908,50,372,1
45.1482632527984,57,594,1
45.18006204152794,74,476,2
45.20103927779198,68,625,2
45.23844350906187,46,217,0
45.284538881178285,68,263,2
45.340535941362035,79,546,3
45.35480050347222,69,618,2
45.36236840611602,51,321,0
45.39168551742033,80,588,3
45.4358782449245,57,246,1
45.438636376093875,58,245,1
45.46837514472733,71,417,2
45.51102215996636,79,505,3
45.57488867369796,57,255,1
45.62479538287689,43,604,0
45.79083208022244,45,720,0
45.83802595582954,77,527,3
45.98833304613151,58,559,1
45.99420655597169,54,306,0
46.03562328876003,50,766,0
46.06003995076509,49,609,0
46.09100340366661,63,360,1
46.233634500265765,55,721,0
46.246989674735175,75,316,3
46.33589314147741,77,770,3
46.41126642210188,75,231,3
46.43381633498514,68,267,2
46.4362292102815,62,209,1
46.439160648171196,47,542,0
46.44293831506848,61,566,1
46.452102954500404,70,222,3
46.510769421605644,61,387,1
46.548434214924484,59,719,1
46.61722667541923,69,444,2
46.68063602215228,67,578,2
46.712481535308626,51,768,1
46.85098583461825,80,505,3
46.870248422488395,87,345,3
46.90034422705584,68,362,2
46.92374215110099,71,435,2
46.92760931971333,64,283,2
46.9561992614422,67,785,2
46.97863528232498,75,313,3
47.00821666248374,66,421,2
47.020141831457735,81,476,3
47.021286259438725,51,329,0
47.06103278647839,74,587,3
47.0877961787078,51,595,0
47.09753363874756,62,512,2
47.12592542154144,75,590,3
47.14595166770302,53,263,0
47.20986605766384,56,552,1
47.21688956761515,62,464,2
47.246919426111795,58,620,1
47.333195980620964,43,594,0
47.37964708359055,54,209,1
47.385287689487306,47,722,0
47.40724313548233,63,549,1
47.51138922825083,56,774,1
47.51872688633914,67,504,2
47.58932612427237,51,439,1
47.6078583854091,71,283,2
47.6948211016461,68,557,2
47.70126474251155,65,449,2
47.70570668333214,72,317,2
47.719054930037224,48,669,0
47.8058427729992,66,692,2
47.87791418509556,63,474,2
47.963409824683005,53,727,0
47.96587094173191,77,243,3
47.97293777898019,84,364,3
48.03345427586328,49,442,0
48.03629376563588,56,603,1
48.08094211889043,79,625,3
48.0917147874537,80,204,3
48.106348186083665,74,353,2
48.112696255859404,76,541,3
48.12824352908424,67,392,2
48.131404622073156,73,557,2
48.153523694140596,59,786,1
48.18507604817622,79,752,3
48.2059159760137,67,752,2
48.20717736542521,51,684,0
48.20727666623471,54,649,1
48.22241997168167,56,748,1
48.24291832964685,51,460,1
48.24616748883302,65,322,2
48.27436221975363,79,474,3
48.27483098903946,55,634,1
48.31095246223463,57,567,1
48.31179653753684,81,767,3
48.35935477563394,76,479,3
48.37072768521486,79,344,3
48.382756488782086,42,657,0
48.39636117863292,46,690,0
48.40735804784678,66,451,2
48.4158883409993,70,549,3
48.42214871129817,64,272,2
48.539312314118995,69,240,2
48.54860689901752,57,582,1
48.5805577037704,68,458,2
48.65157733465712,60,254,1
48.66408091561007,67,409,2
48.687416888741375,52,272,0
48.7442096652553,53,319,1
48.75944797854796,58,208,1
48.77538032496097,46,394,0
48.84063281882587,71,414,3
48.86616754667455,63,424,2
48.928384336455025,72,266,2
48.994296894651384,47,419,0
49.005336874067346,59,349,1
49.04251382292195,53,433,0
49.10205654977902,70,221,2
49.11881746414041,67,681,2
49.165720325551575,54,348,1
49.202522301762784,79,698,3
49.253495455853084,73,598,3
49.30404231493027,65,404,2
49.32486263724019,44,469,0
49.328283274716824,57,639,1
49.337843548189284,74,505,2
49.35924019874407,81,747,3
49.38648619399771,45,336,0
49.38784829482461,42,243,0
49.426314562293996,54,564,1
49.436971905477705,55,770,1
49.47925865037067,65,716,2
49.513602420553546,58,703,1
49.58353459307695,66,793,2
49.59647727285542,59,759,1
49.659672702443764,78,325,3
49.660448080151504,80,518,3
49.68258670694492,53,571,0
49.694552408263476,51,478,0
49.86849000925986,83,216,3
49.914424062155504,73,489,2
49.975663638651326,68,795,2
49.98328333598308,52,570,1
49.98422060341411,61,714,2
50.11725566033514,46,511,0
50.20584407602052,65,407,2
50.220402812012416,58,645,1
50.23894547404519,77,577,3
50.25091654812348,71,534,3
50.27292633683875,75,538,3
50.298829585704716,69,402,2
50.35861586079494,58,241,1
50.43617164075355,63,422,1
50.48542210324036,65,696,2
50.49324935284814,45,404,0
50.50250034972316,58,522,1
50.518813212895864,64,240,2
50.57171920130418,64,312,2
50.57553998855076,60,450,2
50.59974901423005,47,428,0
50.634076266512416,60,361,1
50.677640042123976,83,252,3
50.724652774278866,52,520,0
50.73262720080039,60,599,1
50.74066426705378,56,672,1
50.77403948248109,85,616,3
50.775826778819784,76,794,3
50.799029607231724,40,564,0
50.813065553847515,78,397,3
50.83047306979554,65,349,1
50.842407454574996,50,630,0
50.88778237829489,70,464,3
50.892218246393796,49,773,0
50.982652200531625,69,426,2
51.03175869388486,46,756,0
51.03535873687538,80,729,3
51.035720543341554,54,623,1
51.11256798023308,51,589,1
51.11923735192164,50,761,1
51.12043001525817,60,264,2
51.200497170404596,82,322,3
51.206238428092746,48,236,0
51.31212236527305,55,213,1
51.34022858198378,50,380,1
51.37763396832732,54,494,1
51.4001304612545,57,756,1
51.40226285512039,46,260,0
51.450230287563464,58,445,1
51.45869606093338,67,772,2
51.49726610995853,66,378,2
51.59711673410148,49,491,0
51.60907135241902,44,384,0
51.615437166053766,66,392,2
51.62693925604053,56,593,1
51.69432755199069,43,681,0
51.701737765296784,40,566,0
51.71852557273103,54,296,1
51.74718355207942,55,242,1
51.75728187063892,69,273,2
51.80142042975871,48,629,0
51.80504006757202,65,580,2
51.873795503966726,77,388,3
51.874239839132116,45,273,0
51.916169389641254,82,507,3
52.00997635223761,59,729,1
52.012752753690116,83,437,3
52.040614276060545,68,246,2
52.10801763911442,77,319,3
52.14756717215972,41,308,0
52.17305250555923,70,749,3
52.1962175457102,73,657,3
52.2015911245932,43,515,0
52.21715437178726,49,625,0
52.23644282860502,48,353,0
52.27457448362259,53,688,1
52.40817858670823,72,773,2
52.415621646989905,43,777,0
52.53015950613539,54,373,1
52.53598485695841,52,530,0
52.54931094598908,47,226,0
52.56029288619765,49,560,0
52.56426627693626,58,385,1
52.63927788899029,57,521,1
52.67025645891996,80,479,3
52.67837409888791,69,301,2
52.711193945154285,48,691,0
52.72063720634501,46,327,0
52.84631053856099,65,712,2
52.88693416031057,67,661,2
52.910191803405944,79,234,3
52.92827804688165,66,760,2
52.93628543807108,49,566,0
52.99641915120796,77,294,3
53.089410407212334,51,740,0
53.10001650103487,46,412,0
53.1110982345071,50,364,0
53.1119738240347,71,768,3
53.14420057431696,75,554,3
53.16415485460654,51,414,1
53.24230002776198,83,632,3
53.341605982508206,66,370,2
53.34289820085622,68,373,2
53.34896290112938,61,673,1
53.35240581095899,55,384,1
53.36083425943638,53,503,1
53.39071822563412,85,537,3
53.438770896657765,52,764,1
53.481212080107355,79,531,3
53.50026782815926,62,526,2
53.65053055476436,44,693,0
53.65339447190519,61,295,2
53.709135252583394,54,257,0
53.738685715364475,61,501,1
53.76701716014281,44,574,0
53.775230338357225,64,386,2
53.835399538614965,50,316,1
53.92149725599608,59,702,1
53.935429877810655,60,715,1
53.97646408555314,55,300,0
54.06047479951115,71,212,3
54.069102870702025,56,566,1
54.178606626384344,79,633,3
54.236554405231054,79,523,3
54.2849218020308,63,296,1
54.34423465279855,42,642,0
54.3447609847767,53,616,1
54.35224464653447,69,502,2
54.42143898775834,77,781,3
54.44479985980565,75,531,3
54.45090265052695,70,587,2
54.46118133178256,68,252,2
54.505468113073526,78,704,3
54.531558224569,59,337,1
54.53428479337756,63,426,2
54.55873252414275,81,314,3
54.57210017149245,65,364,2
54.624682674189046,67,773,2
54.62939431122151,77,569,3
54.81967565535506,76,408,3
54.84958491872074,66,225,2
54.8778313952488,46,257,0
54.902423643278496,78,359,3
54.94875386982551,57,296,1
54.977236712714685,64,250,1
55.05281879901334,49,214,0
55.069852972427455,56,412,1
55.09991730072539,80,360,3
55.11182142396573,52,528,0
55.11216139328859,59,263,1
55.12272067317797,53,339,0
55.19219116667711,69,307,2
55.20731424603713,79,686,3
55.25964623066469,79,242,3
55.27612777755128,66,284,2
55.30895307369077,57,564,1
55.3103759907348,52,498,0
55.41254604167998,41,792,0
55.41667642880823,51,347,1
55.46722364788083,75,760,3
55.481550182343106,49,442,0
55.5012472654623,82,694,3
55.533009316874185,84,588,3
55.54251574353739,56,340,1
55.60611347031429,66,788,2
55.61408861420556,68,428,2
55.62078354518046,79,270,3
55.62620211878311,64,576,2
55.64841230946512,71,315,2
55.658565217867164,82,516,3
55.65970628960324,80,489,3
55.74239858346878,55,331,1
55.76146154276142,71,241,2
55.77757989177787,44,456,0
55.78184587986843,69,400,2
55.790327503205184,74,573,3
55.792314917774355,51,794,0
55.805415107959,57,534,1
55.877128056445976,51,277,0
55.87855538012504,48,547,0
55.87977558718859,81,430,3
55.95349066216822,78,454,3
55.95759967632291,45,364,0
55.96484348020615,43,412,0
55.98065485469755,44,241,0
56.11368563453562,59,449,1
56.12722918199935,47,680,0
56.20887161421754,62,617,1
56.2123970235876,71,413,2
56.23036181566621,50,621,1
56.28638217172336,62,289,2
56.298553896698905,48,728,0
56.37340563660036,72,429,2
56.379161288728255,57,447,1
56.37977742090658,82,379,3
56.407998118849264,41,590,0
56.40881023515749,68,279,2
56.48562276667605,85,446,3
56.488396699254,65,379,2
56.576198769468746,52,722,1
56.62381271256821,59,269,1
56.62395343567868,64,585,2
56.73448895771737,77,215,3
56.75326193693584,74,333,3
56.797830189312116,73,417,2
56.81733814498706,40,399,0
56.85852772899011,76,248,3
56.86708333513238,65,563,1
56.87606271722709,48,601,0
56.91812136190466,53,479,0
56.97306614401627,70,694,2
57.080877640446026,66,680,2
57.111627607159825,81,484,3
57.16283154088627,56,285,1
57.17180917917594,49,236,0
57.20335828583258,54,615,1
57.220992945150954,81,749,3
57.374272863415825,62,308,2
57.37923025594521,82,712,3
57.43739081724742,77,669,3
57.44951657797005,79,707,3
57.52605474511136,79,339,3
57.586835399307596,72,215,2
57.58876308010742,85,707,3
57.61630320092391,47,305,0
57.61783181896878,43,521,0
57.7165704261178,55,737,1
57.73552674991536,52,322,1
57.76369688157281,63,614,2
57.763735039454694,50,210,1
57.77084829664134,66,565,2
57.78918710198814,58,675,1
57.80156413231032,65,248,2
57.84099542413977,76,327,3
57.93771753830998,62,288,2
58.00392559415637,65,746,2
58.05564768432872,49,258,0
58.06116255915603,53,408,0
58.06828110906639,66,203,2
58.06971449126116,57,536,1
58.202484789828,54,577,1
58.223109493109284,53,205,1
58.29565901747052,60,634,1
58.30136216832844,76,239,3
58.33818577296245,63,384,2
58.338377712801034,46,598,0
58.415069809414014,62,692,1
58.42596406258072,57,705,1
58.432145619094705,45,291,0
58.62058199871631,67,755,2
58.6935397426235,50,674,1
58.69803462416499,81,799,3
58.73360077899271,83,532,3
58.7870745798109,77,740,3
58.8969922281802,56,470,1
58.920434949736034,69,528,2
58.967522441738645,64,730,2
58.98494414419043,58,729,1
59.051749195085456,42,795,0
59.061331867079765,47,705,0
59.069462299233436,78,601,3
59.11434677200746,73,317,2
59.153965582733754,75,299,2
59.16222057504643,50,512,0
59.18039985713516,66,423,2
59.20591439398753,69,655,2
59.25825363380969,68,642,2
59.32850920501644,66,558,2
59.41183063457169,56,479,1
59.47943991295037,56,682,1
59.494445411320676,78,732,3
59.550703685802866,66,336,2
59.566667388521594,61,646,2
59.5676927469941,88,313,3
59.59766747770343,44,653,0
59.61608397204267,75,682,3
59.69022296935106,48,276,0
59.70942726168669,75,535,3
59.732635597394996,66,405,2
59.81430150564871,49,625,0
59.82740096583825,70,776,2
59.854928841867476,78,501,3
59.869851041414755,65,410,2
59.95471210262007,60,745,2
59.9630391604133,49,221,0
59.997200585006766,54,741,1
59.99928612635777,73,687,2
