time,pitch,velocity,voice_id
0.0,60,512,2
0.05555555555555555,60,512,2
0.1111111111111111,60,512,2
0.11212339110678275,63,512,1
0.1261165316048828,48,512,1
0.1609060643453282,61,512,1
0.1673611111111111,60,512,2
0.22741115281252894,60,512,2
0.2530461376917338,52,512,1
0.29212862858508215,60,512,2
0.36276293026627354,60,512,2
0.42831409697353007,60,512,2
0.47747320110137403,52,512,1
0.49275999182022573,28,512,1
0.49557518973071113,60,512,2
0.5219871568153419,87,512,1
0.5776972742542604,60,512,2
0.6734271977935458,60,512,2
0.7172172952116491,13,512,1
0.7734271977935457,60,512,2
0.8906404841103813,60,512,2
1.0156404841103814,60,512,2
1.1126072691879019,60,512,2
1.1625178229582545,1,512,1
1.1977291942258108,60,512,2
1.1997661495583274,53,512,1
1.2972770863692356,60,512,2
1.3381643187321948,15,512,1
1.3972770863692356,60,512,2
1.5214319290853429,60,512,2
1.621431929085343,60,512,2
1.717321722577096,60,512,2
1.7983167664437982,60,512,2
1.869917510407926,60,512,2
1.9413460818364974,60,512,2
1.9589204655517727,26,512,1
2.0172584822962305,60,512,2
2.0627956034179675,5,512,1
2.1030598169892167,60,512,2
2.118530094554673,62,512,1
2.2024515758047927,60,512,2
2.285784909138126,60,512,2
2.3691182424714596,60,512,2
2.4368472168852153,60,512,2
2.498604046183108,48,512,1
2.4993472168852153,60,512,2
2.5618472168852153,60,512,2
2.61986213997182,60,512,2
2.6432295647294,16,512,1
2.6766714220976895,60,512,2
2.7374005177977208,60,512,2
2.7945563714896027,60,512,2
2.79516696257425,63,512,1
2.8451067261937593,60,512,2
2.895106726193759,60,512,2
2.945106726193759,60,512,2
2.9929487300263227,60,512,2
3.038696530107298,60,512,2
3.0798119219319786,60,512,2
3.117141072964681,60,512,2
3.123881699262043,32,512,1
3.153751855968631,60,512,2
3.159611905638216,73,512,1
3.1924366866035743,60,512,2
3.233584661553286,60,512,2
3.27304268747631,60,512,2
3.3101874339614725,60,512,2
3.314179460317129,35,512,1
3.3461635081615486,60,512,2
3.3537201808579002,23,512,1
3.3830955899169326,60,512,2
3.421063417814818,60,512,2
3.4601583977352224,60,512,2
3.493549051904597,27,512,1
3.5004861298492815,60,512,2
3.5057343788812023,15,512,1
3.542169682865403,60,512,2
3.585353903610063,60,512,2
3.6302111907453587,60,512,2
3.674450710234655,60,512,2
3.717023803821537,60,512,2
3.7605426095148813,60,512,2
3.7737064214706324,16,512,1
3.7837625958552725,30,512,1
3.7848166698796044,53,512,1
3.8096405733060017,60,512,2
3.8646073387156403,60,512,2
3.9164419018515315,60,512,2
3.9672777397081096,60,512,2
3.983226863882735,79,512,1
4.005538542843972,19,512,1
4.020884265603988,60,512,2
4.05384201831375,86,512,1
4.079143606840189,60,512,2
4.084556567527814,27,512,1
4.146555145271527,60,512,2
4.209598079647986,60,512,2
4.255811626211762,24,512,1
4.266364407960127,60,512,2
4.270452186701015,32,512,1
4.307495782999713,85,512,1
4.331530415803846,60,512,2
4.4063281346262,60,512,2
4.489661467959533,60,512,2
4.572994801292866,60,512,2
4.617918178394643,16,512,1
4.647289580247989,60,512,2
4.71871815167656,60,512,2
4.786520617832146,60,512,2
4.819265876251557,73,512,1
4.8437916812796304,60,512,2
4.902188684563511,60,512,2
4.96451816011228,60,512,2
5.002238490659001,20,512,1
5.022353845129592,60,512,2
5.076562975675337,60,512,2
5.127762950736262,60,512,2
5.162768776481406,0,512,1
5.180702464988642,60,512,2
5.1992404175910085,13,512,1
5.240325996997536,60,512,2
5.302825996997536,60,512,2
5.365105993144888,60,512,2
5.422902379248095,60,512,2
5.47845793480365,60,512,2
5.5340134903592055,60,512,2
5.572372267917285,21,512,1
5.591751110337535,60,512,2
5.65361324295473,60,512,2
5.69575998417798,74,512,1
5.708726272365326,60,512,2
5.755716126894621,50,512,1
5.759166426891874,60,512,2
5.781995069273305,19,512,1
5.812310788901428,60,512,2
5.86711667370326,60,512,2
5.918098744458465,64,512,1
5.918816743983861,60,512,2
5.9661450501243545,60,512,2
6.007866122795192,60,512,2
6.023792285849554,0,512,1
6.0274112064928165,21,512,1
6.046798814072631,60,512,2
6.088244355930386,60,512,2
6.132747691613654,60,512,2
6.1782022370681995,60,512,2
6.223656782522745,60,512,2
6.2681543557832775,60,512,2
6.310956918434746,60,512,2
6.35300753945529,60,512,2
6.387069804612343,26,512,1
6.396599805071626,60,512,2
6.4419142795749105,60,512,2
6.487368825029456,60,512,2
6.532823370484002,60,512,2
6.578277915938548,60,512,2
6.61400851416754,46,512,1
6.623732461393094,60,512,2
6.6410079460300615,59,512,1
6.670189311763885,60,512,2
6.670230226047779,30,512,1
6.714508393713943,45,512,1
6.718741924949169,60,512,2
6.768741924949169,60,512,2
6.818741924949169,60,512,2
6.869696919635363,60,512,2
6.884808369780789,16,512,1
6.915776319540813,51,512,1
6.923442845081941,60,512,2
6.9358058835026775,21,512,1
6.975573053688796,85,512,1
6.983707663295033,60,512,2
6.995953850173096,12,512,1
7.060763868431883,60,512,2
7.12467865373896,60,512,2
7.1802342092945155,60,512,2
7.235789764850071,60,512,2
7.248669937600005,7,512,1
7.28922056937272,60,512,2
7.339765414019153,60,512,2
7.384436340375603,60,512,2
7.424330731269755,60,512,2
7.462792269731294,60,512,2
7.501253808192832,60,512,2
7.53971534665437,60,512,2
7.578176885115909,60,512,2
7.616638423577447,60,512,2
7.641401131757546,73,512,1
7.655099962038985,60,512,2
7.661821071388097,80,512,1
7.693561500500524,60,512,2
7.7317167928583626,86,512,1
7.732023038962062,60,512,2
7.7704845774236,60,512,2
7.8089461158851385,60,512,2
7.846377304347589,60,512,2
7.880035796273904,60,512,2
7.910897266087172,60,512,2
7.939754100320569,60,512,2
7.967237767724423,60,512,2
7.970903369605651,25,512,1
7.993529848616199,60,512,2
8.016104046669954,53,512,1
8.018774857156611,60,512,2
8.04214940378578,35,512,1
8.044011766843838,60,512,2
8.069574292810223,60,512,2
8.095475315477803,60,512,2
8.096233325508923,65,512,1
8.12172858507643,60,512,2
8.147746827396539,60,512,2
8.173417514827118,60,512,2
8.19875427181054,60,512,2
8.223769853117945,60,512,2
8.24937856852163,60,512,2
8.249502373538077,54,512,1
8.275677155080025,60,512,2
8.27638949385321,80,512,1
8.302723981994884,60,512,2
8.330628445198233,60,512,2
8.347055751725023,70,512,1
8.349993534995525,25,512,1
8.359900484740969,60,512,2
8.366974202672335,8,512,1
8.390758995433528,60,512,2
8.42348744133088,60,512,2
8.45630687826455,60,512,2
8.488434218121684,60,512,2
8.519911757090295,60,512,2
8.551161757090295,60,512,2
8.582411757090295,60,512,2
8.613661757090295,60,512,2
8.641854729095627,17,512,1
8.644647184972133,60,512,2
8.659979341105194,28,512,1
8.675048842213194,60,512,2
8.704898718073492,60,512,2
8.714177667821533,83,512,1
8.734310482779374,60,512,2
8.763722247485257,60,512,2
8.793134012191139,60,512,2
8.813843266471453,87,512,1
8.822545776897021,60,512,2
8.832589826515875,69,512,1
8.846007984464277,61,512,1
8.852352849609568,60,512,2
8.879427317741207,62,512,1
8.882699152814203,60,512,2
8.913614860356805,60,512,2
8.945966001012843,60,512,2
8.948007696871153,53,512,1
8.959277522831806,60,512,1
8.981273344476355,60,512,2
8.996229373829204,72,512,1
8.99894921441213,10,512,1
9.020491903022904,60,512,2
9.048095160747101,39,512,1
9.052813909605627,78,512,1
9.062882455599985,60,512,2
9.106853283634637,60,512,2
9.108944799309532,76,512,1
9.152592798057958,60,512,2
9.200329723971102,60,512,2
9.25031324320665,60,512,2
9.297918089021358,60,512,2
9.343458826987128,60,512,2
9.385584748555976,60,512,2
9.424918606167882,60,512,2
9.462598035810485,59,512,1
9.46338014462942,60,512,2
9.501841683090959,60,512,2
9.54024881096943,60,512,2
9.577555316739678,60,512,2
9.60770984292516,16,512,1
9.61385149983477,60,512,2
9.650658276390587,60,512,2
9.660245869164427,10,512,1
9.661300862401145,75,512,1
9.690721570920791,60,512,2
9.735054285605099,60,512,2
9.748542097744453,14,512,1
9.78200503560498,60,512,2
9.82432334801026,20,512,1
9.83112119211732,60,512,2
9.839645204722537,18,512,1
9.858940992036626,14,512,1
9.882727233650282,60,512,2
9.937236646590748,60,512,2
9.988546416032205,60,512,2
10.021854588746598,14,512,1
10.034967670088987,60,512,2
10.081914601741454,60,512,2
10.131026395394056,60,512,2
10.179521759065992,60,512,2
10.225838565170262,60,512,2
10.271293110624807,60,512,2
10.294988881534339,85,512,1
10.316747656079352,60,512,2
10.335342422059588,76,512,1
10.362904952927687,60,512,2
10.38693193940805,14,512,1
10.411116541770145,60,512,2
10.455412963352833,75,512,1
10.461116541770146,60,512,2
10.511116541770146,60,512,2
10.528172977699445,25,512,1
10.560566825624138,60,512,2
10.607711426786421,60,512,2
10.65192612352538,60,512,2
10.690161061330922,60,512,2
10.724392531560635,60,512,2
10.757192482337626,60,512,2
10.789301550784284,60,512,2
10.818462452920004,36,512,1
10.820761911453614,60,512,2
10.848670314961037,35,512,1
10.852844532115338,60,512,2
10.8863047704119,60,512,2
10.913591510296474,2,512,1
10.921333728100784,60,512,2
10.958170684695133,60,512,2
10.972375433249049,77,512,1
10.997121850377127,60,512,2
11.038589599731848,60,512,2
11.078958096295056,60,512,2
11.1180524185757,60,512,2
11.1559871769323,60,512,2
11.183308893629698,9,512,1
11.192860681970243,60,512,2
11.228758026656054,60,512,2
11.233592507478967,27,512,1
11.263753455600046,60,512,2
11.297912213558027,60,512,2
11.33129200681122,60,512,2
11.365335533660584,60,512,2
11.371221099139902,69,512,1
11.400186888226838,60,512,2
11.435901173941124,60,512,2
11.47161545965541,60,512,2
11.482542245798774,42,512,1
11.507329745369697,60,512,2
11.543231998493695,60,512,2
11.576726021182049,4,512,1
11.58008428270477,60,512,2
11.58661632350351,42,512,1
11.617965489318825,60,512,2
11.656765133857569,18,512,1
11.658090566179817,60,512,2
11.666669715169705,61,512,1
11.689771741842009,40,512,1
11.690904816952665,30,512,1
11.702506256835482,60,512,2
11.713270331615426,18,512,1
11.752506256835483,60,512,2
11.802506256835484,60,512,2
11.852133123811734,60,512,2
11.895370781350362,60,512,2
11.93424763392959,60,512,2
11.971721936846464,60,512,2
12.008172472962368,60,512,2
12.043886758676654,60,512,2
12.079601044390941,60,512,2
12.081957779856623,79,512,1
12.109270345447749,14,512,1
12.115315330105227,60,512,2
12.151029615819514,60,512,2
12.185809320532412,35,512,1
12.1867439015338,60,512,2
12.215224810404946,6,512,1
12.222458187248087,60,512,2
12.257608605339975,60,512,2
12.291911366600319,60,512,2
12.298059925497533,0,512,1
12.325425421871536,60,512,2
12.35820316326951,60,512,2
12.390291405148757,60,512,2
12.415566370579148,36,512,1
12.42173218376211,60,512,2
12.45298218376211,60,512,2
12.48423218376211,60,512,2
12.51548218376211,60,512,2
12.525353581018203,21,512,1
12.54673218376211,60,512,2
12.57798218376211,60,512,2
12.60923218376211,60,512,2
12.616951445540252,66,512,1
12.640663546334084,60,512,2
12.672728467206326,60,512,2
12.70264895447214,35,512,1
12.705466588048886,60,512,2
12.738799921382219,60,512,2
12.772133254715552,60,512,2
12.805466588048885,60,512,2
12.815329577865285,57,512,1
12.839044664732489,60,512,2
12.84557783417347,86,512,1
12.874208617740301,60,512,2
12.886900048907977,54,512,1
12.911202282732603,60,512,2
12.949335224276755,60,512,2
12.96399315915786,4,512,1
12.986390508316198,60,512,2
13.022455383039501,60,512,2
13.045068384317972,13,512,1
13.05760587042643,60,512,2
13.091908696049225,60,512,2
13.125422811311378,60,512,2
13.141617642113285,21,512,1
13.158200608804137,60,512,2
13.162085105143337,48,512,1
13.190288903287845,60,512,2
13.20805925400094,79,512,1
13.221729731364196,60,512,2
13.252979731364196,60,512,2
13.279327307404523,65,512,1
13.284229731364196,60,512,2
13.29487061918795,79,512,1
13.315479731364196,60,512,2
13.346729731364196,60,512,2
13.377979731364196,60,512,2
13.399658221611292,12,512,1
13.402777526237251,62,512,1
13.409229731364196,60,512,2
13.440123307107953,60,512,2
13.4698808436368,60,512,2
13.49862041203042,60,512,2
13.506950352288342,72,512,1
13.526440835053654,60,512,2
13.553816482290829,60,512,2
13.580787868335586,60,512,2
13.607372471969938,60,512,2
13.633485610515232,60,512,2
13.658905402866747,60,512,2
13.68368473294959,60,512,2
13.707870056775224,60,512,2
13.731769145912551,60,512,2
13.751338037362546,20,512,1
13.755944396901185,60,512,2
13.780405571012203,60,512,2
13.805163017003505,60,512,2
13.830227721751907,60,512,2
13.84959576644296,35,512,1
13.855611366629105,60,512,2
13.881326390437549,60,512,2
13.907386059862722,60,512,2
13.926517106478858,51,512,1
13.933908052521094,60,512,2
13.939562221906238,63,512,1
13.96119788960437,60,512,2
13.989325635598211,60,512,2
14.016372014767828,33,512,1
14.018372625997857,60,512,2
14.04810572904613,60,512,2
14.058824594404307,68,512,1
14.078374010060948,60,512,2
14.109207260335802,60,512,2
14.14082110647533,60,512,2
14.153532514084763,10,512,1
14.160983956496876,7,512,1
14.163548413602312,57,512,1
14.173751421336867,60,512,2
14.207692231478124,24,512,1
14.208174896624103,60,512,2
14.210104276993716,35,512,1
14.244098950500357,60,512,2
14.27292822036675,1,512,1
14.280974797759603,60,512,2
14.31888157915777,60,512,2
14.353721670238114,58,512,1
14.357343117619308,60,512,2
14.395804656080847,60,512,2
14.404960478386537,20,512,1
14.434266194542385,60,512,2
14.439189265336132,17,512,1
14.465578132254846,22,512,1
14.47603026140382,60,512,2
14.50164814815703,28,512,1
14.506852980160893,51,512,1
14.522676002725502,60,512,2
14.573836109444908,60,512,2
14.627611215370164,7,512,1
14.627822234913515,60,512,2
14.674014943158344,9,512,1
14.68337779046907,60,512,2
14.738933346024625,60,512,2
14.788107223018882,60,512,2
14.831050682140887,60,512,2
14.871666394170749,60,512,2
14.910984882281465,60,512,2
14.949124147406312,60,512,2
14.98618522892066,60,512,2
15.007234047655848,79,512,1
15.022255444471096,60,512,2
15.05854664213858,60,512,2
15.09581964884208,60,512,2
15.134157904709534,60,512,2
15.138251306676382,18,512,1
15.171634727972734,60,512,2
15.2080875816227,60,512,2
15.22421248053266,3,512,1
15.224961663840853,46,512,1
15.244219322195633,60,512,2
15.282341823888887,60,512,2
15.322817285830318,60,512,2
15.3637064690136,60,512,2
15.384296568127105,68,512,1
15.403272619243905,60,512,2
15.441350726485352,60,512,2
15.475471035512498,60,512,2
15.506684279146969,60,512,2
15.53586655855671,60,512,2
15.560570547211226,29,512,1
15.564087513234954,60,512,2
15.591437192163971,60,512,2
15.614288868788321,76,512,1
15.617992335946356,60,512,2
15.644816149702635,60,512,2
15.646196994401706,56,512,1
15.672434848370079,60,512,2
15.70092276172166,60,512,2
15.73036649059925,60,512,2
15.738278683752931,13,512,1
15.756541746014449,36,512,1
15.760867927782167,60,512,2
15.783495063720576,40,512,1
15.792548302817156,60,512,2
15.825553707772986,60,512,2
15.854039778762973,42,512,1
15.857788741593904,60,512,2
15.88873742744792,60,512,2
15.918544133553869,60,512,2
15.936690223372995,15,512,1
15.948280269361987,60,512,2
15.97855174888272,60,512,2
16.009388379016027,60,512,2
16.040097794702604,60,512,2
16.0691626044972,60,512,2
16.09682530829348,60,512,2
16.108705784250176,26,512,1
16.11750729506971,62,512,1
16.123273674729653,60,512,2
16.150250355242864,60,512,2
16.178035862184352,60,512,2
16.206706766084856,60,512,2
16.235549583641962,60,512,2
16.26217722599753,60,512,2
16.287041886036885,60,512,2
16.310458792731456,60,512,2
16.324476029402955,69,512,1
16.33318606545873,60,512,2
16.352769044873533,39,512,1
16.355913338186003,60,512,2
16.378640610913276,60,512,2
16.40136788364055,60,512,2
16.424123453615003,60,512,2
16.441176439881364,10,512,1
16.447360320413523,60,512,2
16.469841103190138,20,512,1
16.47111013764426,60,512,2
16.491298264489295,68,512,1
16.49540817081057,60,512,2
16.495597556836163,67,512,1
16.517314964903186,60,512,1
16.520293899793824,60,512,2
16.54555017394219,60,512,2
16.54759582410093,10,512,1
16.553140607949715,87,512,1
16.57113282095281,60,512,2
16.59705477169319,60,512,2
16.623329831666666,60,512,2
16.648710677669605,60,512,2
16.673147028400344,60,512,2
16.696738153602702,60,512,2
16.71956696826661,60,512,2
16.719791049379964,34,512,1
16.742093884874603,60,512,2
16.76439446752964,60,512,2
16.786475425912545,60,512,2
16.80077078011934,66,512,1
16.808343143987866,60,512,2
16.830321450302026,60,512,2
16.852955761351062,60,512,2
16.876307886900126,60,512,2
16.88766064776519,76,512,1
16.898742267241225,22,512,1
16.900449923121208,60,512,2
16.92542744719003,60,512,2
16.949217601409895,60,512,2
16.97197725071449,60,512,2
16.99383126673416,60,512,2
17.01488101722767,60,512,2
17.027076883263167,50,512,1
17.035975945554206,60,512,2
17.0562134449724,72,512,1
17.05745316495059,60,512,2
17.079334106049096,60,512,2
17.09703685977448,60,512,1
17.101642271341664,60,512,2
17.124352591111066,60,512,2
17.146831041784672,60,512,2
17.169084606503223,60,512,2
17.191119924118397,60,512,2
17.2129433125293,60,512,2
17.213304080038647,85,512,1
17.2207896916218,61,512,1
17.235183062146465,60,512,2
17.25833906027002,60,512,2
17.260636409092765,19,512,1
17.262202253013673,43,512,1
17.282532876830903,60,512,2
17.29829286799307,87,512,1
17.306944504561212,39,512,1
17.30791528189291,60,512,2
17.33412189624027,60,512,2
17.3560708957871,50,512,1
17.359973420953988,60,512,2
17.3854839709775,60,512,2
17.410666747938112,60,512,2
17.432715687647434,54,512,1
17.435534120938275,60,512,2
17.44406971909627,85,512,1
17.46009769837266,60,512,2
17.484368391961365,60,512,2
17.508356474007144,60,512,2
17.51482041058106,39,512,1
17.532261120940834,60,512,2
17.55644212392258,60,512,2
17.57833317071468,19,512,1
17.580909255774003,60,512,2
17.605672877787022,60,512,2
17.63060216738043,60,512,2
17.640870927667915,40,512,1
17.655225405158465,60,512,2
17.67029668223061,63,512,1
17.679553636930272,60,512,2
17.69274731525516,0,512,1
17.703597258172863,60,512,2
17.722581732541883,60,512,1
17.727488632880412,60,512,2
17.75001565105189,45,512,1
17.751938238825062,60,512,2
17.776986788897325,60,512,2
17.80268017076998,60,512,2
17.828848307454095,60,512,2
17.853657361717197,60,512,2
17.877302166282856,60,512,2
17.899934704706755,60,512,2
17.916786699566725,65,512,1
17.921676304053026,60,512,2
17.92502153609962,50,512,1
17.938736985934668,83,512,1
17.943622263746526,60,512,2
17.965781674024623,60,512,2
17.98694882373677,11,512,1
17.988160865627652,60,512,2
18.010766487900533,60,512,2
18.033273468685714,60,512,2
18.055333457462293,60,512,2
18.07697223182525,60,512,2
18.08429931077393,44,512,1
18.098213174749816,60,512,2
18.119077575615062,60,512,2
18.139910908948394,60,512,2
18.15430985220517,74,512,1
18.160744242281726,60,512,2
18.18157757561506,60,512,2
18.20241090894839,60,512,2
18.223244242281723,60,512,2
18.244077575615055,60,512,2
18.251544597472286,28,512,1
18.264910908948387,60,512,2
18.28574424228172,60,512,2
18.30657757561505,60,512,2
18.327410908948384,60,512,2
18.338417233617513,55,512,1
18.34688274235787,49,512,1
18.348244242281716,60,512,2
18.369077575615048,60,512,2
18.38038996012582,63,512,1
18.38991090894838,60,512,2
18.410744242281712,60,512,2
18.431861182517725,60,512,2
18.45355864954757,60,512,2
18.453748035677904,34,512,1
18.468267073597502,28,512,1
18.475886815928714,60,512,2
18.48385511904746,21,512,1
18.498903475524607,60,512,2
18.52267576091589,60,512,2
18.543023332493615,31,512,1
18.546485284725417,60,512,2
18.570294808534943,60,512,2
18.594104332344468,60,512,2
18.601652420504536,62,512,1
18.617913856153994,60,512,2
18.641928232383233,60,512,2
18.662013121078342,84,512,1
18.66569377361194,18,512,1
18.666222817628867,60,512,2
18.68906942808847,63,512,1
18.69080761503608,60,512,2
18.715693235932406,60,512,2
18.740118274102414,60,512,2
18.76369923304097,60,512,2
18.786518845338502,60,512,2
18.800936724207197,51,512,1
18.808635475225284,54,512,1
18.808647081212683,60,512,2
18.830550910947103,60,512,2
18.852883324492726,60,512,2
18.875670326603,60,512,2
18.898065893423418,34,512,1
18.898275189221216,3,512,1
18.89894065099137,60,512,2
18.9227261774924,60,512,2
18.92846968854223,71,512,1
18.945104324890202,60,512,1
18.94706243473195,60,512,2
18.95476843468334,85,512,1
18.97198921070062,60,512,2
18.997551300887693,60,512,2
19.023799433751226,60,512,2
19.04978966907555,60,512,2
19.049978208556997,7,512,1
19.050023175479225,66,512,1
19.07142850287319,7,512,1
19.07543346070755,60,512,2
19.10074436132482,60,512,2
19.110886047139886,8,512,1
19.125735060269935,60,512,2
19.150417458763517,60,512,2
19.174802736886416,60,512,2
19.19890141340688,60,512,2
19.222723399366117,60,512,2
19.231129316427065,33,512,1
19.246793376366167,60,512,2
19.271145528470328,60,512,2
19.295789977198236,60,512,2
19.32073746245734,60,512,2
19.339061110021547,52,512,1
19.342192739619463,12,512,1
19.345480904358595,60,512,2
19.369925033801923,60,512,2
19.394080497977438,60,512,2
19.394493497420626,9,512,1
19.4179573260403,60,512,2
19.441366501098532,60,512,2
19.464273563001967,60,512,2
19.486709705103955,60,512,2
19.50401445630938,30,512,1
19.508703007252908,60,512,2
19.53036018872793,60,512,2
19.551816099381508,60,512,2
19.573076265094784,60,512,2
19.594145962995118,60,512,2
19.615030236875164,60,512,2
19.632468238692287,63,512,1
19.635733911403353,60,512,2
19.65626160523966,60,512,2
19.67661774315809,60,512,2
19.687889324718036,14,512,1
19.693773136614343,55,512,1
19.696806567266343,60,512,2
19.706870192665313,28,512,1
19.71683214740359,60,512,2
19.736698390788785,60,512,2
19.75640905098456,60,512,2
19.775967736235163,60,512,2
19.789507727077606,46,512,1
19.794754066078795,82,512,1
19.795377917231093,60,512,2
19.814642934347884,60,512,2
19.833982622727596,60,512,2
19.8343272913605,46,512,1
19.85346807144001,60,512,2
19.87310261811081,60,512,2
19.885520693646843,30,512,1
19.89288972951405,60,512,2
19.91283300867038,60,512,2
19.91647713171094,86,512,1
19.9326297670924,60,512,2
19.952120972303295,60,512,2
19.971320417310142,60,512,2
19.990240884800453,60,512,2
20.008894248000697,60,512,2
20.023677859877893,56,512,1
20.02747397121033,60,512,2
20.035438057278995,46,512,1
20.043790940487053,23,512,1
20.04618286289609,60,512,2
20.059488459558647,34,512,1
20.065023648608463,60,512,2
20.083999150978187,60,512,2
20.103112294622118,60,512,2
20.122320071445,60,512,2
20.126775422674935,83,512,1
20.141387156559613,60,512,2
20.160316604246155,60,512,2
20.170763849450267,46,512,1
20.179111359697515,60,512,2
20.197774264402472,60,512,2
20.21630806119183,60,512,2
20.234389725071825,60,512,2
20.25201050467747,60,512,2
20.26920420397009,60,512,2
20.28600066915171,60,512,2
20.30242641029322,60,512,2
20.307803761236084,71,512,1
20.308985606047123,86,512,1
20.318580730944774,60,512,2
20.334905456971907,60,512,2
20.339373784382023,27,512,1
20.35140607742166,60,512,2
20.368088381829374,60,512,2
20.384958483725775,60,512,2
20.385307373553253,83,512,1
20.40202284655938,60,512,2
20.403656807483003,58,512,1
20.419252207816573,60,512,2
20.43315147039172,82,512,1
20.436379881768868,60,512,2
20.453407651339976,60,512,2
20.4703372478951,60,512,2
20.487170353306087,60,512,2
20.50390860191138,60,512,2
20.514699882681985,46,512,1
20.520553582377225,60,512,2
20.537106839466162,60,512,2
20.552302509207518,53,512,1
20.553569875718384,60,512,2
20.569944153051154,60,512,2
20.58623109428111,60,512,2
20.60243208457398,60,512,2
20.604596648704447,73,512,1
20.60928660287057,61,512,1
20.618573780693378,60,512,2
20.634800033227588,60,512,2
20.648976746727207,32,512,1
20.651112182693208,60,512,2
20.66391858296452,69,512,1
20.667511605366673,60,512,2
20.68399971463314,60,512,2
20.700577962401415,60,512,2
20.712191174795137,17,512,1
20.717247840589025,60,512,2
20.734010882681623,60,512,2
20.750868665371403,60,512,2
20.75792595116333,58,512,1
20.767822810279398,60,512,2
20.784874985767047,60,512,2
20.794582346504377,80,512,1
20.798542219063858,64,512,1
20.802026908842688,60,512,2
20.81924422062097,60,512,2
20.836259771643135,60,512,2
20.853080518915572,60,512,2
20.869713027743533,60,512,2
20.876343636889178,87,512,1
20.886163501973606,60,512,2
20.90243781129542,60,512,2
20.918579537257315,60,512,2
20.934805820104643,60,512,2
20.951118000366485,60,512,2
20.959013830966896,53,512,1
20.96751745433224,60,512,2
20.97392458186277,34,512,1
20.977610079235433,66,512,1
20.984005595400497,60,512,2
21.000583875494037,60,512,2
21.01725703219244,60,512,2
21.025738412541532,81,512,1
21.034117675299697,60,512,2
21.051172250267104,60,512,2
21.065059579077843,74,512,1
21.068427579621893,60,512,2
21.08589089453641,60,512,2
21.096795499271835,40,512,1
21.10356986987389,60,512,2
21.104366141898186,50,512,1
21.12144980882225,60,512,2
21.1343010287658,70,512,1
21.13944480497483,60,512,2
21.14763108363652,22,512,1
21.157557103576973,60,512,2
21.175789023762153,60,512,2
21.194142961998264,60,512,2
21.21071158285225,67,512,1
21.212621395743206,60,512,2
21.230950530455846,26,512,1
21.231314681190145,60,512,2
21.246936180575258,23,512,1
21.25027295701486,60,512,2
21.264632936533253,52,512,1
21.269507764919283,60,512,2
21.28903150689529,60,512,2
21.30885753755086,60,512,2
21.328928649803046,60,512,2
21.349162788326005,60,512,2
21.3630419871969,60,512,1
21.369563980115423,60,512,2
21.381911187095504,75,512,1
21.390136420447497,60,512,2
21.410884482879016,60,512,2
21.423029309056954,61,512,1
21.431908512622172,60,512,2
21.432714385776894,56,512,1
21.45331094579641,60,512,2
21.45984858402818,21,512,1
21.475112845717188,60,512,2
21.497337297214226,60,512,2
21.52000968826984,60,512,2
21.542532112502577,60,512,2
21.552653261376125,67,512,1
21.56129941372325,64,512,1
21.564828337257282,60,512,2
21.586905065624496,60,512,2
21.591590250037978,14,512,1
21.608768675422546,60,512,2
21.62728981061714,56,512,1
21.630591002772764,60,512,2
21.652623170646024,60,512,2
21.674871330966504,60,512,2
21.684353242215142,63,512,1
21.687270567616743,46,512,1
21.69734194163088,60,512,2
21.72004178821398,60,512,2
21.742978007692717,60,512,2
21.76615811442242,60,512,2
21.767036997796893,13,512,1
21.7755898063416,28,512,1
21.78959002863216,60,512,2
21.789670352753166,82,512,1
21.81328210774397,60,512,2
21.836941987235107,60,512,2
21.839524671167492,79,512,1
21.853097878592706,22,512,1
21.86033990832921,60,512,2
21.870708915759533,77,512,1
21.883484414342927,60,512,2
21.9001215677154,79,512,1
21.906383593137864,60,512,2
21.92924352815999,60,512,2
21.952591507516154,60,512,2
21.976459941063712,60,512,2
21.978779844970482,68,512,1
22.00088497434085,60,512,2
22.025873917054295,60,512,2
22.050554623775028,60,512,2
22.06671479148732,78,512,1
22.07493827072609,60,512,2
22.099035373134107,60,512,2
22.119412724483077,56,512,1
22.12285583878226,60,512,2
22.145477846944495,27,512,1
22.14591253386927,60,512,2
22.168256529860614,60,512,2
22.189950672401373,60,512,2
22.211049036196673,60,512,2
22.231978724900035,60,512,2
22.25309340006185,60,512,2
22.27076979467133,28,512,1
22.27439803996585,60,512,2
22.284303747497592,19,512,1
22.295897849847016,60,512,2
22.3175982766257,60,512,2
22.33933740706048,60,512,2
22.34676026288122,47,512,1
22.36107653749526,60,512,2
22.382815667930043,60,512,2
22.404554798364824,60,512,2
22.426293928799605,60,512,2
22.447723010152362,29,512,1
22.448033059234387,60,512,2
22.46977218966917,60,512,2
22.49151132010395,60,512,2
22.51325045053873,60,512,2
22.518398016067362,31,512,1
22.530083199422993,53,512,1
22.535242981797573,60,512,2
22.557669393644986,60,512,2
22.558071893188636,14,512,1
22.564383849801036,18,512,1
22.580556237476472,60,512,2
22.603932875758982,60,512,2
22.627742399568508,60,512,2
22.640137455540852,62,512,1
22.651551923378033,60,512,2
22.67536144718756,60,512,2
22.684247715304995,61,512,1
22.699170970997084,60,512,2
22.72298049480661,60,512,2
22.728050903185707,18,512,1
22.746033214466944,60,512,2
22.76837359602566,60,512,2
22.79006443333823,60,512,2
22.79770742530982,80,512,1
22.80538331943332,59,512,1
22.811159759191902,60,512,2
22.82787387026829,84,512,1
22.83238792794417,60,512,2
22.84833643134221,39,512,1
22.854410010657677,60,512,2
22.877320988212578,60,512,2
22.878247432374245,21,512,1
22.901236239673036,60,512,2
22.926220796223024,60,512,2
22.950897277726522,60,512,2
22.975276850776336,60,512,2
22.99937002175798,60,512,2
23.00516424388298,73,512,1
23.017205655487242,46,512,1
23.02318669032131,60,512,2
23.04753386206553,60,512,2
23.072472360289034,60,512,2
23.098047084710526,60,512,2
23.11307795831762,31,512,1
23.124308887787624,60,512,2
23.126322165978355,48,512,1
23.143488900751237,40,512,1
23.143927307433533,34,512,1
23.152044069736608,60,512,2
23.158379083749338,86,512,1
23.181597976197303,60,512,2
23.21337208828542,60,512,2
23.24583716974774,60,512,2
23.27637130628221,60,512,2
23.27789432194279,21,512,1
23.30528785102517,60,512,2
23.32634639256572,35,512,1
23.33306562880295,60,512,2
23.360843406580727,60,512,2
23.388621184358506,60,512,2
23.416398962136284,60,512,2
23.42753865073923,18,512,1
23.44273701734692,60,512,2
23.4670510917292,60,512,2
23.489754561412603,60,512,2
23.511135538464238,60,512,2
23.514957037503194,60,512,1
23.532164007906168,60,512,2
23.55357112343373,60,512,2
23.575078050640474,52,512,1
23.57537797121209,60,512,2
23.597607662041593,60,512,2
23.60408119056915,28,512,1
23.620285613565002,60,512,2
23.643224398715553,60,512,2
23.666407153551162,60,512,2
23.67843326167878,50,512,1
23.689841802801705,60,512,2
23.713536708741167,60,512,2
23.71484344426382,10,512,1
23.73765719637526,60,512,2
23.74203472742589,7,512,1
23.75541760964359,35,512,1
23.762352388468774,60,512,2
23.769817073426125,81,512,1
23.787665060425972,60,512,2
23.789971823539947,66,512,1
23.81364354148483,60,512,2
23.83958674446783,60,512,2
23.864849815279722,60,512,2
23.889484002155058,60,512,2
23.91353439633926,60,512,2
23.935484191630877,24,512,1
23.936892298568182,60,512,2
23.959509805494296,60,512,2
23.981453783763044,60,512,2
24.002781553892213,60,512,2
24.023494855631643,60,512,2
24.043356031745258,60,512,2
24.062463483257094,60,512,2
24.080897903837734,60,512,2
24.098726460392463,60,512,2
24.116005780908097,60,512,2
24.132966332420253,60,512,2
24.137582672921532,75,512,1
24.149639118014456,60,512,2
24.166038381816634,60,512,2
24.182177226776425,60,512,2
24.198067738959274,60,512,2
24.213721094931056,60,512,2
24.22187920380914,80,512,1
24.229481249037697,60,512,2
24.24539955627515,60,512,2
24.26148085877375,60,512,2
24.275493426450023,66,512,1
24.27773025036733,60,512,2
24.28324511800275,44,512,1
24.292784575464733,26,512,1
24.294153095271156,60,512,2
24.31075504857829,60,512,2
24.327362178415576,60,512,2
24.33760851331031,69,512,1
24.343878206909455,60,512,2
24.36030461972929,60,512,2
24.376642862555727,60,512,2
24.39289434257264,60,512,2
24.409060429888253,60,512,2
24.42538025522144,60,512,2
24.426300398785816,45,512,1
24.44205537629058,60,512,2
24.458254156642262,1,512,1
24.459009608957928,76,512,1
24.4591098707171,60,512,2
24.476570650645048,60,512,2
24.479672635876288,26,512,1
24.487481839121514,60,512,1
24.490403508269626,12,512,1
24.491300806699318,74,512,1
24.49446795122605,60,512,2
24.5128359326055,60,512,2
24.531180033609797,60,512,2
24.549280497989276,60,512,2
24.56714682288691,60,512,2
24.58478790255223,60,512,2
24.60221208068722,60,512,2
24.615633953508173,79,512,1
24.619453459997565,60,512,2
24.63669483930791,60,512,2
24.653936218618256,60,512,2
24.6711775979286,60,512,2
24.688418977238946,60,512,2
24.70566035654929,60,512,2
24.722901735859637,60,512,2
24.72371485943766,27,512,1
24.74014311516998,60,512,2
24.757384494480327,60,512,2
24.758044140597843,83,512,1
24.759399317920767,13,512,1
24.774625873790672,60,512,2
24.791867253101017,60,512,2
24.809108632411363,60,512,2
24.815003594463235,40,512,1
24.826350011721708,60,512,2
24.83554687709888,64,512,1
24.843591391032053,60,512,2
24.860832770342398,60,512,2
24.878074149652743,60,512,2
24.89531552896309,60,512,2
24.90019144868106,32,512,1
24.912556908273434,60,512,2
24.930025199023056,60,512,2
24.939609201470386,2,512,1
24.947819272040768,60,512,2
24.95833791951029,65,512,1
24.95921307512323,25,512,1
24.965957938770572,60,512,2
24.984461885885192,60,512,2
25.00335394703669,60,512,2
25.02246286018922,45,512,1
25.022559940926577,60,512,2
25.041625282091797,60,512,2
25.051966535850646,52,512,1
25.060553023410357,60,512,2
25.061252205596286,50,512,1
25.079346108742634,60,512,2
25.08973382619277,7,512,1
25.09127936924624,52,512,1
25.09800737831018,60,512,2
25.105518771365336,49,512,1
25.109379652315464,18,512,1
25.116539573737796,60,512,2
25.135287786663827,60,512,2
25.154303355049368,60,512,2
25.154384567153638,83,512,1
25.16967761465383,39,512,1
25.17359799480739,60,512,2
25.1931843006094,60,512,2
25.213075840802702,60,512,2
25.233180997534195,60,512,2
25.23353696686695,12,512,1
25.25345001603536,60,512,2
25.263426451466373,87,512,1
25.273886957985336,60,512,2
25.294496055390987,60,512,2
25.31528172074483,60,512,2
25.3258069908467,39,512,1
25.335983239565824,60,512,2
25.35650883234819,60,512,2
25.376862921591258,60,512,2
25.37984234499351,56,512,1
25.397049747258574,60,512,2
25.417073377166187,60,512,2
25.437073377166186,60,512,2
25.44199245954526,78,512,1
25.457073377166186,60,512,2
25.463714672627425,84,512,1
25.464893925375247,79,512,1
25.477073377166185,60,512,2
25.497073377166185,60,512,2
25.517073377166184,60,512,2
25.52698530625328,58,512,1
25.536803884057516,60,512,2
25.556231863961624,60,512,2
25.565677273180505,59,512,1
25.575370885669592,60,512,2
25.594233530285006,60,512,2
25.61283148922351,60,512,2
25.631175650036997,60,512,2
25.649276171863697,60,512,2
25.667142551998438,60,512,2
25.68478368482925,60,512,2
25.69927123781986,71,512,1
25.702207914184754,60,512,2
25.71947558697074,60,512,2
25.729388949601635,58,512,1
25.736951695572802,60,512,2
25.754643942838285,60,512,2
25.772526460307443,84,512,1
25.77256051679924,60,512,2
25.78263247346641,12,512,1
25.790710134481103,60,512,2
25.80910209092408,60,512,2
25.827620609442597,60,512,2
25.846139127961116,60,512,2
25.864657646479635,60,512,2
25.883176164998154,60,512,2
25.895899478829264,27,512,1
25.899245224688567,58,512,1
25.901694683516673,60,512,2
25.920178397540212,60,512,2
25.93829082738123,60,512,2
25.95397865703143,81,512,1
25.956053621368234,60,512,2
25.97348639531957,60,512,2
25.99060699068361,60,512,2
26.007431691925788,60,512,2
26.024223147517397,60,512,2
26.025012756447524,86,512,1
26.041303555424452,60,512,2
26.052374785568794,14,512,1
26.054656825418895,77,512,1
26.057537340705554,79,512,1
26.05868827272571,60,512,2
26.069223674847976,11,512,1
26.076394061556076,60,512,2
26.087507696493386,42,512,1
26.09443927539992,60,512,2
26.112844078318055,60,512,2
26.129273551807145,85,512,1
26.131274920104953,60,512,2
26.14958138923113,60,512,2
26.157752440519637,10,512,1
26.167765975508818,60,512,2
26.185831086664326,60,512,2
26.203779052080947,60,512,2
26.221612126325113,60,512,2
26.239332492470943,60,512,2
26.256942265237107,60,512,2
26.274443493948795,60,512,2
26.291838165336582,60,512,2
26.294556191565682,57,512,1
26.309128206183036,60,512,2
26.326424026809512,60,512,2
26.33339971863925,55,512,1
26.343823949576993,60,512,2
26.361329873272627,60,512,2
26.371984910747376,26,512,1
26.373725089316856,3,512,1
26.378943755043963,60,512,2
26.396667612939176,60,512,2
26.414503528591126,60,512,2
26.42501517960483,23,512,1
26.43236067144827,60,512,2
26.45021781430541,60,512,2
26.468074957162553,60,512,2
26.485932100019696,60,512,2
26.487570481148325,79,512,1
26.498649626052494,43,512,1
26.503789242876838,60,512,2
26.521070571786886,65,512,1
26.521694849084536,60,512,2
26.523138780766498,54,512,1
26.53983306759398,60,512,2
26.558213164480897,60,512,2
26.5673492584753,37,512,1
26.576845036055584,60,512,2
26.58733883130938,24,512,1
26.595739270428158,60,512,2
26.614907217015194,60,512,2
26.627330001073588,67,512,1
26.633919965349445,60,512,2
26.652661719464692,60,512,2
26.656996899091954,39,512,1
26.671143797903266,60,512,2
26.689376750594462,60,512,2
26.691044545182375,52,512,1
26.70737043012689,60,512,2
26.720672341802285,1,512,1
26.725227572984032,60,512,2
26.743084715841174,60,512,2
26.760941858698317,60,512,2
26.77879900155546,60,512,2
26.7966561444126,60,512,2
26.814513287269744,60,512,2
26.819835672066528,72,512,1
26.83144309200861,30,512,1
26.832557487744776,60,512,2
26.8508397919557,60,512,2
26.86936983742468,60,512,2
26.888157927987436,60,512,2
26.907215099985013,60,512,2
26.92477350398263,79,512,1
26.926607311614827,60,512,2
26.94209059373848,16,512,1
26.946447179555634,60,512,2
26.95912892444878,34,512,1
26.966766943873072,60,512,2
26.983846110761206,30,512,1
26.98760288891936,60,512,2
27.008996088221807,60,512,2
27.009337494231435,48,512,1
27.030820581730065,60,512,2
27.03249772162589,58,512,1
27.05285497865674,60,512,2
27.057147532765867,12,512,1
27.075105434023484,60,512,2
27.09757840904199,60,512,2
27.12028069283964,60,512,2
27.142800368014605,60,512,2
27.153196520554364,16,512,1
27.165093925975924,60,512,2
27.166758229252487,13,512,1
27.16750028412287,69,512,1
27.187168065783816,60,512,2
27.20902916149777,60,512,2
27.22220088677017,65,512,1
27.230768291932552,60,512,2
27.252507422367334,60,512,2
27.274246552802115,60,512,2
27.278861817722756,56,512,1
27.295985683236896,60,512,2
27.317724813671678,60,512,2
27.32443903832467,44,512,1
27.33946394410646,60,512,2
27.351076141849074,22,512,1
27.36120307454124,60,512,2
27.382942204976022,60,512,2
27.404681335410803,60,512,2
27.418843551506043,62,512,1
27.42637630869486,60,512,2
27.447283708544887,4,512,1
27.44786896223209,60,512,2
27.448571916572085,69,512,1
27.469164869629097,60,512,2
27.490269352749273,60,512,2
27.50120387578939,72,512,1
27.504596508198095,17,512,1
27.51118749736862,60,512,2
27.5321183992058,60,512,2
27.553234319859616,60,512,2
27.574540239075635,60,512,2
27.59604136364471,60,512,2
27.613931039077112,40,512,1
27.61774314214499,60,512,2
27.64017444976158,60,512,2
27.663546556786812,60,512,2
27.672645158041416,63,512,1
27.672777190875035,41,512,1
27.68420004074234,17,512,1
27.687986708995915,60,512,2
27.699467560353266,56,512,1
27.70040258003162,75,512,1
27.713653359641587,60,512,2
27.73978139361811,60,512,2
27.765557494040817,60,512,2
27.790995569574903,60,512,2
27.816108633995572,60,512,2
27.84090888491306,60,512,2
27.865407773800072,60,512,2
27.88961606846917,60,512,2
27.913543908972727,60,512,2
27.937200857753272,60,512,2
27.96059594475158,60,512,2
27.96727529230382,14,512,1
27.983737708079175,60,512,2
28.006634230777397,60,512,2
28.01153899904852,19,512,1
28.029430246244402,60,512,2
28.052465672732534,60,512,2
28.073375324660425,33,512,1
28.075748187645168,60,512,2
28.099285886758427,60,512,2
28.112299937541227,18,512,1
28.116481050346938,78,512,1
28.123087316798255,60,512,2
28.12824350447409,81,512,1
28.147161511348852,60,512,2
28.171518030518,60,512,2
28.184445282532106,6,512,1
28.196167004850647,60,512,2
28.22111918405971,60,512,2
28.24560212433766,60,512,2
28.25434361498303,9,512,1
28.269511792669515,60,512,2
28.292886943996834,60,512,2
28.299344330389157,87,512,1
28.307795167015865,25,512,1
28.31576213720627,60,512,2
28.338489409933544,60,512,2
28.361216682660817,60,512,2
28.37602469830867,3,512,1
28.38394395538809,60,512,2
28.406671228115364,60,512,2
28.40846887224593,11,512,1
28.42005404923837,53,512,1
28.42429062369467,37,512,1
28.42946762810835,60,512,2
28.452503451322734,60,512,2
28.466611406785937,41,512,1
28.47578637581954,60,512,2
28.499324498083155,60,512,2
28.523126365603567,60,512,2
28.535941418629225,11,512,1
28.546676541801293,60,512,2
28.56996836011969,60,512,2
28.593010170737262,60,512,2
28.615809882597784,60,512,2
28.63837499542298,60,512,2
28.660712628796404,60,512,2
28.668903843210234,27,512,1
28.68282954863978,60,512,2
28.704732191362183,60,512,2
28.718002063478526,57,512,1
28.72651614171945,60,512,2
28.748508820408542,60,512,2
28.770716324685363,60,512,2
28.786763610680428,35,512,1
28.793145053946542,60,512,2
28.815801731083123,60,512,2
28.838366926921093,60,512,2
28.84127774652961,77,512,1
28.860704640813594,60,512,2
28.882821638804984,60,512,2
28.90472435741868,60,512,2
28.926418925725322,60,512,2
28.926497880469363,26,512,1
28.947911185544527,60,512,2
28.95000030719018,30,512,1
28.969206709969743,60,512,2
28.99031082038341,60,512,2
29.008236064209715,4,512,1
29.011228602110215,60,512,2
29.03196491883947,60,512,2
29.052524425932962,60,512,2
29.07291158272182,60,512,2
29.09313066388483,60,512,2
29.113185769990697,60,512,2
29.125318717666804,15,512,1
29.133291815467125,60,512,2
29.138124738212195,57,512,1
29.15356174456272,60,512,2
29.173999619865263,60,512,2
29.17694653772986,32,512,1
29.194609674343994,60,512,2
29.21539632151169,60,512,2
29.236364166378767,60,512,2
29.247302491897067,44,512,1
29.25751801727609,60,512,2
29.25767498830768,51,512,1
29.27226033196966,71,512,1
29.278862898632173,60,512,2
29.28478491070285,42,512,1
29.300404064800485,60,512,2
29.308324171835885,50,512,1
29.322143195235267,60,512,2
29.343882325670048,60,512,2
29.35498129943727,63,512,1
29.36562145610483,60,512,2
29.38736058653961,60,512,2
29.40135688317972,46,512,1
29.409099716974392,60,512,2
29.43101223673791,60,512,2
29.453353857281748,60,512,2
29.47615063650356,60,512,2
29.483157731514304,12,512,1
29.493313522189172,3,512,1
29.49943136921136,60,512,2
29.523228005877765,60,512,2
29.541204473401784,27,512,1
29.546522217231814,60,512,2
29.569321572873793,60,512,2
29.570767228270352,13,512,1
29.59165653058913,60,512,2
29.603547285569128,44,512,1
29.613554535225514,60,512,2
29.623872744116078,46,512,1
29.63542253985117,60,512,2
29.657501713948715,60,512,2
29.67979827502571,60,512,2
29.70231875117775,60,512,2
29.724998216598518,60,512,2
29.74722047404848,60,512,2
29.75162537987654,59,512,1
29.76901227481,60,512,2
29.7903978500847,60,512,2
29.811399232100154,60,512,2
29.823454808539097,82,512,1
29.831655306208003,60,512,2
29.850960833589422,60,512,2
29.86943989587739,60,512,2
29.887191547167614,60,512,2
29.89869937833085,30,512,1
29.904296386900118,60,512,2
29.921010928324662,60,512,2
29.925866239184714,3,512,1
29.93791436627345,60,512,2
29.953597940937335,52,512,1
29.955013227942914,60,512,2
29.972314424385292,60,512,2
29.989825282817293,60,512,2
29.993941360469716,43,512,1
30.007553582506247,60,512,2
30.02541072536339,60,512,2
30.043267868220532,60,512,2
30.04481277951409,11,512,1
30.05982521272446,20,512,1
30.061125011077674,60,512,2
30.078982153934817,60,512,2
30.09683929679196,60,512,2
30.1146964396491,60,512,2
30.132647804344767,60,512,2
30.15071561663064,60,512,2
30.168902167393615,60,512,2
30.171968878719674,10,512,1
30.183531028891302,87,512,1
30.18720982353213,60,512,2
30.205641031531083,60,512,2
30.20784405473405,56,512,1
30.224237255148704,60,512,2
30.23415124939727,50,512,1
30.243094324482634,60,512,2
30.262223478535855,60,512,2
30.28163678479149,60,512,2
30.292267726255133,38,512,1
30.301347227116082,60,512,2
30.321368806007275,60,512,2
30.341716653369637,60,512,2
30.362407164473442,60,512,2
30.382706199948885,83,512,1
30.383458150343458,60,512,2
30.384744348938156,50,512,1
30.404889014574657,60,512,2
30.42662814500944,60,512,2
30.439597910206007,70,512,1
30.44836727544422,60,512,2
30.470106405879,60,512,2
30.491845536313782,60,512,2
30.50077187530423,11,512,1
30.50984031514476,59,512,1
30.513584666748564,60,512,2
30.535583665942347,60,512,2
30.558016933686165,60,512,2
30.559489806672445,17,512,1
30.56285900533969,58,512,1
30.580911061600062,60,512,2
30.6042954584468,60,512,2
30.627863940741204,60,512,2
30.650192150472602,60,512,2
30.67146005124455,60,512,2
30.677286562844362,47,512,1
30.691807585036315,60,512,2
30.711346177844177,60,512,2
30.730661236339856,60,512,2
30.750121496196275,60,512,2
30.76973027360485,60,512,2
30.776277454150982,54,512,1
30.78224657397843,64,512,1
30.788743073343383,44,512,1
30.78949101273808,60,512,2
30.807991579713065,81,512,1
30.809407292764835,60,512,2
30.81731562119763,32,512,1
30.828664231837415,48,512,1
30.829712926429895,60,512,2
30.83402739484949,86,512,1
30.834596445975876,37,512,1
30.850711198616512,60,512,2
30.872477250766384,60,512,2
30.877301734535134,85,512,1
30.878796014969144,84,512,1
30.883554393375668,63,512,1
30.895100753630906,60,512,2
30.91869014366241,60,512,2
30.922438019379136,20,512,1
30.942713476780135,60,512,2
30.967017335010706,60,512,2
30.9916117404924,60,512,2
31.002611624327155,8,512,1
31.016507325179923,60,512,2
31.041101343718427,60,512,2
31.065114375831815,60,512,2
31.086940174143116,65,512,1
31.08858603349344,60,512,2
31.111551604638763,60,512,2
31.134042688179704,60,512,2
31.156087713698213,60,512,2
31.164716494909577,23,512,1
31.177712370464114,60,512,2
31.198939964422518,60,512,2
31.219791717422545,60,512,2
31.24012208465176,60,512,2
31.259960471204323,60,512,2
31.279341206976195,60,512,2
31.292957475628043,72,512,1
31.298294790106887,60,512,2
31.316848461852754,60,512,2
31.33502667489462,60,512,2
31.352851478308434,60,512,2
31.37034283666394,60,512,2
31.387518896543938,60,512,2
31.404396210714832,60,512,2
31.421014173337937,60,512,2
31.437450575074507,60,512,2
31.453711260396886,60,512,2
31.469801766166675,60,512,2
31.476493788204486,8,512,1
31.485727343866238,60,512,2
31.50149297980403,60,512,2
31.517125273147233,60,512,2
31.53283434255489,60,512,2
31.548621328588432,60,512,2
31.558160790425564,3,512,1
31.562872212094184,7,512,1
31.56448740030288,60,512,2
31.580433756252727,60,512,2
31.59646162554392,60,512,2
31.61257226893455,60,512,2
31.62209455769724,12,512,1
31.628766979987024,60,512,2
31.64504708627469,60,512,2
31.653125980251232,55,512,1
31.661413950646104,60,512,2
31.668037552362268,84,512,1
31.67781890913212,30,512,1
31.677868972550332,60,512,2
31.68130717323805,1,512,1
31.69441358942692,60,512,2
31.69632019208638,69,512,1
31.711049278164435,60,512,2
31.727533802733728,60,512,2
31.743753869287573,60,512,2
31.75972187396481,60,512,2
31.7754492710075,60,512,2
31.788252113714766,14,512,1
31.7909466702024,60,512,2
31.79846124210747,48,512,1
31.80622392171422,60,512,2
31.821404067179976,60,512,2
31.832674152786897,50,512,1
31.83665449785961,60,512,2
31.851976197620544,60,512,2
31.863024663176795,76,512,1
31.867370173478534,60,512,2
31.872736984578967,5,512,1
31.882837456366847,60,512,2
31.893316168493264,80,512,1
31.89837910193864,60,512,2
31.913996191404255,60,512,2
31.929221632307208,60,512,2
31.94403499960874,60,512,2
31.958468304758796,60,512,2
31.97254959956595,60,512,2
31.986303631707866,60,512,2
31.99975236669865,60,512,2
32.01131686903656,0,512,1
32.01291540818405,60,512,2
32.01783215454877,70,512,1
32.026028733460734,60,512,2
32.03909711414558,60,512,2
32.052121009742216,60,512,2
32.065100871972284,60,512,2
32.078037144958735,60,512,2
32.08088152158356,86,512,1
32.08168278588727,74,512,1
32.0909302654037,60,512,2
32.103780662761004,60,512,2
32.11661361585533,60,512,2
32.129488976443746,60,512,2
32.14240716727067,60,512,2
32.155368618146404,60,512,2
32.1567101298075,60,512,1
32.15933865943064,13,512,1
32.16837376611351,60,512,2
32.17112590466746,49,512,1
32.18142305561827,60,512,2
32.19451693868734,60,512,2
32.20765587510998,60,512,2
32.220840332625805,60,512,2
32.22695187466426,61,512,1
32.23407078711855,60,512,2
32.23775505296935,60,512,1
32.247347722815846,60,512,2
32.26067163249541,60,512,2
32.27357192334208,81,512,1
32.274043017697764,60,512,2
32.287462388945876,60,512,2
32.29507757838403,37,512,1
32.30093026597186,60,512,2
32.314447177951116,60,512,2
32.3280136637442,60,512,2
32.341630272146666,60,512,2
32.344679804626914,60,512,1
32.35529756214727,60,512,2
32.35820253319158,42,512,1
32.36901610319488,60,512,2
32.38278647547441,60,512,2
32.383208545429625,5,512,1
32.39660927019222,60,512,2
32.40001643757325,50,512,1
32.41048508987128,60,512,2
32.42441454865662,60,512,2
32.43839827263145,60,512,2
32.4524369001444,60,512,2
32.46167814595857,37,512,1
32.466531082148386,60,512,2
32.46732859187543,17,512,1
32.480681482551624,60,512,2
32.49488877858127,60,512,2
32.509153661160305,60,512,2
32.523218667499314,60,512,2
32.53695752801234,60,512,2
32.55039208565721,60,512,2
32.561080289577006,33,512,1
32.56354183960997,60,512,2
32.576424283830875,60,512,2
32.58905518511421,60,512,2
32.60144881335845,60,512,2
32.613665520344156,60,512,2
32.61444183407087,38,512,1
32.6260673216466,60,512,2
32.627731835014664,53,512,1
32.638662848033974,60,512,2
32.64988840541511,17,512,1
32.65146142029543,60,512,2
32.655383949794945,48,512,1
32.65857530607959,28,512,1
32.66447312883431,60,512,2
32.67770892544413,60,512,2
32.69118072962281,60,512,2
32.70490155233764,60,512,2
32.7182752369416,37,512,1
32.718866496677165,60,512,2
32.721871242706165,62,512,1
32.725375846258984,70,512,1
32.7330527691919,60,512,2
32.747471178474264,60,512,2
32.76213343936725,60,512,2
32.77537041314947,64,512,1
32.77705228275749,60,512,2
32.77953402879587,17,512,1
32.792241583047286,60,512,2
32.80771650690776,60,512,2
32.82341722861244,60,512,2
32.82634906659357,18,512,1
32.839274309162676,60,512,2
32.85529249874382,60,512,2
32.85864652354806,69,512,1
32.87147679252091,60,512,2
32.87859645345556,60,512,1
32.88783244867168,60,512,2
32.9043650081609,60,512,2
32.910143812361866,58,512,1
32.92108031646568,60,512,2
32.92284184295914,78,512,1
32.93445452929936,18,512,1
32.9370093536522,49,512,1
32.93798454749211,60,512,2
32.95508422995929,60,512,2
32.96645534356612,53,512,1
32.972386276568756,60,512,2
32.98989801632698,60,512,2
32.99185961507758,22,512,1
33.007627230447284,60,512,2
33.01043100109148,54,512,1
33.01392217793634,56,512,1
33.02568108893175,60,512,2
33.04421831189083,60,512,2
33.046202413544684,79,512,1
33.05627668877358,86,512,1
33.06327953337148,60,512,2
33.082911382283434,60,512,2
33.096965614023425,42,512,1
33.10316779220759,60,512,2
33.124028660080384,60,512,2
33.14507268496399,60,512,2
33.16630476277835,60,512,2
33.17132268715295,73,512,1
33.18564395380536,75,512,1
33.18773001111521,60,512,2
33.20935378352948,60,512,2
33.22469040747714,57,512,1
33.23127118406876,60,512,2
33.253617975931085,60,512,2
33.25683870125104,21,512,1
33.27642024690158,60,512,2
33.283603940402486,37,512,1
33.29970682614998,60,512,2
33.32350970388207,60,512,2
33.34245550626138,87,512,1
33.34629872641263,60,512,2
33.36817869817187,60,512,2
33.36965832319912,39,512,1
33.38925160594574,60,512,2
33.40960157309113,60,512,2
33.423014630596505,44,512,1
33.429525054386374,60,512,2
33.44929161092366,60,512,2
33.459520624468304,19,512,1
33.46890490262624,60,512,2
33.48836844911599,60,512,2
33.5076856371373,60,512,2
33.52487384441862,25,512,1
33.527263643567984,60,512,2
33.54489048400639,65,512,1
33.547785572545614,60,512,2
33.55299232004491,75,512,1
33.5643369433151,54,512,1
33.56939984237384,60,512,2
33.576013840708775,45,512,1
33.57741627287641,15,512,1
33.59020023229921,79,512,1
33.59229779911688,60,512,2
33.61673318046938,60,512,2
33.64092361466725,60,512,2
33.66403223788328,60,512,2
33.68619409169311,60,512,2
33.70751808689732,60,512,2
33.72835142023066,60,512,2
33.749184753563995,60,512,2
33.769621021043505,32,512,1
33.77001808689733,60,512,2
33.790851420230666,60,512,2
33.811684753564,60,512,2
33.83192677919451,60,512,2
33.84663310709688,47,512,1
33.851220172738834,60,512,2
33.86968861417121,60,512,2
33.88743086527525,60,512,2
33.90341641112873,5,512,1
33.90452730689806,60,512,2
33.90497253886773,21,512,1
33.921118858518625,60,512,2
33.923258245842014,70,512,1
33.9374408239075,60,512,2
33.95350599724808,60,512,2
33.963560930853475,68,512,1
33.96932618878966,60,512,2
33.984912327838146,60,512,2
34.000274552267726,60,512,2
34.015422286651216,60,512,2
34.03036431073136,60,512,2
34.045108819655105,60,512,2
34.05966347715192,60,512,2
34.07403546264171,60,512,2
34.084353963235785,13,512,1
34.0882315130993,60,512,2
34.102257960372356,60,512,2
34.116138143454755,60,512,2
34.129965048848426,60,512,2
34.143739286155714,60,512,2
34.147918913239735,0,512,1
34.15746145343315,60,512,2
34.17113213749547,60,512,2
34.18475191420939,60,512,2
34.19832134877762,60,512,2
34.209226037572705,80,512,1
34.21184099601339,60,512,2
34.225311400606074,60,512,2
34.23873309737802,60,512,2
34.25210661153314,60,512,2
34.26543245889747,60,512,2
34.27871114615207,60,512,2
34.29194317105848,60,512,2
34.30512902267714,60,512,2
34.31774419494781,75,512,1
34.31832253310566,60,512,2
34.33160855073612,60,512,2
34.3380511685149,49,512,1
34.34498904442755,60,512,2
34.352878796782434,25,512,1
34.35846605378154,60,512,2
34.36474769006217,43,512,1
34.37049661491633,50,512,1
34.3720416927489,60,512,2
34.380854030303354,71,512,1
34.385718153476056,60,512,2
34.399497710410884,60,512,2
34.41338272468971,60,512,2
34.42722017391931,60,512,2
34.44100483478978,60,512,2
34.44456817804728,75,512,1
34.45473730762866,60,512,2
34.46841818146209,60,512,2
34.482048034310566,60,512,2
34.485768079198095,74,512,1
34.49424953519233,86,512,1
34.49562743347486,60,512,2
34.509156935812435,60,512,2
34.52247272208243,60,512,2
34.534217126176955,83,512,1
34.535511088172875,60,512,2
34.54828879068035,60,512,2
34.56082095842371,60,512,2
34.57312130609755,60,512,2
34.58520231310603,60,512,2
34.59707537428054,60,512,2
34.60875092770917,60,512,2
34.62045026261662,60,512,2
34.622846003824726,67,512,1
34.62865071099544,46,512,1
34.63224647350774,60,512,2
34.63290044028346,57,512,1
34.64318039611862,23,512,1
34.64414200057645,60,512,2
34.65613938803034,60,512,2
34.668241290397475,60,512,2
34.68045047933306,60,512,2
34.69276985097517,60,512,2
34.70520243390466,60,512,2
34.71760564358679,60,512,2
34.72978403106275,60,512,2
34.74174946287365,60,512,2
34.75351279375481,60,512,2
34.75743435174122,81,512,1
34.765083983703015,60,512,2
34.77647219815711,60,512,2
34.78768589418054,60,512,2
34.798732894967515,60,512,2
34.8012611532254,39,512,1
34.80962045455213,60,512,2
34.81160593695208,12,512,1
34.820558648288475,60,512,2
34.831312879721686,49,512,1
34.83157593118687,60,512,2
34.84267403973812,60,512,2
34.84669754451382,27,512,1
34.85385477482512,60,512,2
34.86512000511239,60,512,2
34.87647167066828,60,512,2
34.88225789552314,25,512,1
34.887911786839766,60,512,2
34.892060056787145,15,512,1
34.89252530389799,39,512,1
34.89944244840151,60,512,2
34.911065834003445,60,512,2
34.91317904673936,43,512,1
34.914458255499895,8,512,1
34.922845310434646,60,512,2
34.93479053408882,60,512,2
34.9382956583159,68,512,1
34.94445274024927,57,512,1
34.946908669438805,60,512,2
34.959207410827545,60,512,2
34.96332172522223,55,512,1
34.97169503887907,60,512,2
34.98063794556415,82,512,1
34.982355882284054,14,512,1
34.98438048485899,60,512,2
34.99727340439593,60,512,2
35.01038426228084,60,512,2
35.01338813021765,86,512,1
35.01377201782618,35,512,1
35.02357821213236,60,512,2
35.0368182586125,60,512,2
35.04542573327126,77,512,1
35.05010488770354,60,512,2
35.06343859398136,60,512,2
35.0768198808296,60,512,2
35.08058457987396,68,512,1
35.09024926066072,60,512,2
35.10372725514423,60,512,2
35.117200052533384,60,512,2
35.130527698844176,60,512,2
35.133389447755064,22,512,1
35.13674037867583,48,512,1
35.14371480268102,60,512,2
35.156765733336364,60,512,2
35.16968463785871,60,512,2
35.18247545658504,60,512,2
35.19514193730349,60,512,2
35.20768764819104,60,512,2
35.22018764819104,60,512,2
35.232687648191046,60,512,2
35.23501945405288,87,512,1
35.24518764819105,60,512,2
35.25768764819105,60,512,2
35.270187648191055,60,512,2
35.28268764819106,60,512,2
35.29475463606324,66,512,1
35.29518764819106,60,512,2
35.30768764819106,60,512,2
35.320187648191066,60,512,2
35.320687539065766,54,512,1
35.33268764819107,60,512,2
35.34518764819107,60,512,2
35.35158448037343,83,512,1
35.357687648191074,60,512,2
35.37018764819108,60,512,2
35.37290876854385,36,512,1
35.3819267639664,61,512,1
35.38268764819108,60,512,2
35.39518764819108,60,512,2
35.407687648191086,60,512,2
35.4100954335322,67,512,1
35.42023588139222,60,512,2
35.43286364838983,60,512,2
35.43456730593038,40,512,1
35.445572477637754,60,512,2
35.45709671343656,59,512,1
35.45836394711613,60,512,2
35.47123968660545,60,512,2
35.48420138009654,60,512,2
35.497250768346575,60,512,2
35.497658684258134,48,512,1
35.51038965159199,60,512,2
35.51467720616122,60,512,1
35.522902551055225,49,512,1
35.52380428677636,60,512,2
35.53756561581863,60,512,2
35.54432839921207,48,512,1
35.55170172687658,60,512,2
35.55509656450953,56,512,1
35.566150697541644,79,512,1
35.56624469415425,60,512,2
35.574528248054335,53,512,1
35.5812314137884,60,512,2
35.58472248499094,46,512,1
35.59670467858512,60,512,2
35.61271458038968,60,512,2
35.62578541818352,39,512,1
35.62884361264774,60,512,2
35.644972644905806,60,512,2
35.66110167716387,60,512,2
35.677230709421934,60,512,2
35.69335974168,60,512,2
35.70570853936425,86,512,1
35.70794182345464,65,512,1
35.70948877393806,60,512,2
35.71570181631901,41,512,1
35.720141966346176,46,512,1
35.72591956371184,60,512,2
35.74290047563808,60,512,2
35.75867177354597,70,512,1
35.760490024008426,60,512,2
35.77875780134304,60,512,2
35.792716641915085,23,512,1
35.79603245422829,72,512,1
35.797787636071725,60,512,2
35.81768200347774,60,512,2
35.823709737127366,87,512,1
35.83796897491738,60,512,2
35.838957263556594,31,512,1
35.8579401445041,85,512,1
35.8585955096204,60,512,2
35.867054900248164,84,512,1
35.87957914716908,60,512,2
35.90093898533288,60,512,2
35.92268699449011,60,512,2
35.9446426939829,60,512,2
35.948634315779316,38,512,1
35.95450109858827,33,512,1
35.966812130225485,60,512,2
35.989201648222036,60,512,2
36.00966734227676,34,512,1
36.0118179125954,60,512,2
36.03418473645529,60,512,2
36.04889012190251,65,512,1
36.055899751805036,60,512,2
36.07701729867491,60,512,2
36.080492944929034,87,512,1
36.09758452724036,60,512,2
36.10948520327653,49,512,1
36.11764266710891,60,512,2
36.127793651704735,78,512,1
36.137784811568736,60,512,2
36.14681282110671,33,512,1
36.15809172878496,60,512,2
36.1784162200768,77,512,1
36.17856751839155,60,512,2
36.18309668870538,2,512,1
36.19921645259879,60,512,2
36.20199093420073,47,512,1
36.220042986525236,60,512,2
36.23715364115365,51,512,1
36.24004126721204,60,512,2
36.25927051040963,60,512,2
36.277814079559,60,512,2
36.29574119966308,60,512,2
36.300680373142264,53,512,1
36.30358661363161,55,512,1
36.305059258002814,39,512,1
36.313110114734386,60,512,2
36.32644485061655,35,512,1
36.33027390121369,60,512,2
36.347337152529306,60,512,2
36.36430161821899,60,512,2
36.38116899760194,60,512,2
36.39794094177559,60,512,2
36.408116270145776,59,512,1
36.41461905551134,60,512,2
36.42987368472445,40,512,1
36.431204899055516,60,512,2
36.44769998984122,60,512,2
36.464105804116464,60,512,2
36.48042377849347,60,512,2
36.4966553114238,60,512,2
36.51280176460364,60,512,2
36.528798675130766,60,512,2
36.5446334996678,60,512,2
36.5603110832663,60,512,2
36.57583603385491,60,512,2
36.5912127381962,60,512,2
36.606445376487486,60,512,2
36.616524759556356,49,512,1
36.62150862951456,60,512,2
36.636369564355405,60,512,2
36.65103615451186,60,512,2
36.66551586186191,60,512,2
36.67981568154866,60,512,2
36.69394218192268,60,512,2
36.70438649018563,71,512,1
36.70790154018895,60,512,2
36.72176001150338,60,512,2
36.73556545411724,60,512,2
36.74931847290649,60,512,2
36.76301966132597,60,512,2
36.77666960170928,60,512,2
36.79026886555849,60,512,2
36.803818013824255,60,512,2
36.81735947408505,60,512,2
36.83100099278251,60,512,2
36.83104313087476,34,512,1
36.844744815566806,60,512,2
36.85859327323394,60,512,2
36.87254878631004,60,512,2
36.88129086195266,19,512,1
36.8866138699576,60,512,2
36.9007911392318,60,512,2
36.91507685351751,60,512,2
36.929362567803224,60,512,2
36.94364828208894,60,512,2
36.95793399637465,60,512,2
36.97221971066036,60,512,2
36.978349737858046,25,512,1
36.986505424946074,60,512,2
37.00079113923179,60,512,2
37.00436757817968,2,512,1
37.007890961117695,28,512,1
37.01508331471792,60,512,2
37.01696688987994,26,512,1
37.02949322858415,60,512,2
37.044023831087635,60,512,2
37.0586781975762,60,512,2
37.073459536032416,60,512,2
37.085391910796325,27,512,1
37.08837119521232,60,512,2
37.09039947973405,50,512,1
37.09097018218356,63,512,1
37.10341667343704,60,512,2
37.104636220744624,60,512,1
37.11397960346499,84,512,1
37.11852127269486,60,512,2
37.13342189825607,60,512,2
37.134778673550315,60,512,1
37.14306931073099,25,512,1
37.148126631499984,60,512,2
37.162643032574046,60,512,2
37.17697818635703,60,512,2
37.191138743332395,60,512,2
37.204593036883296,20,512,1
37.205130956044776,60,512,2
37.20869352301109,26,512,1
37.2142130088175,45,512,1
37.21909948036064,60,512,2
37.22446149256574,70,512,1
37.23328950491088,60,512,2
37.247711852477714,60,512,2
37.25048766318929,57,512,1
37.25605753730637,8,512,1
37.26237825378382,60,512,2
37.271865900969885,83,512,1
37.27730145755267,60,512,2
37.29249535830131,60,512,2
37.30124870077021,27,512,1
37.30797514548087,60,512,2
37.32360014548087,60,512,2
37.332840583891546,87,512,1
37.33922514548087,60,512,2
37.34260403108902,71,512,1
37.35205881988292,35,512,1
37.35485014548087,60,512,2
37.37047514548087,60,512,2
37.38610014548087,60,512,2
37.390774115520976,41,512,1
37.40172514548087,60,512,2
37.41735857358645,60,512,2
37.42618285021126,65,512,1
37.43306879453218,60,512,2
37.44885694929654,60,512,2
37.45497229195132,23,512,1
37.464724207366224,60,512,2
37.48067176774272,60,512,2
37.49579792843944,2,512,1
37.496700859995,60,512,2
37.51281274536095,60,512,2
37.52887538840766,60,512,2
37.54144240021228,34,512,1
37.54485557099507,60,512,2
37.552081060347064,58,512,1
37.56075455232227,60,512,2
37.57657355983213,60,512,2
37.592313790322066,60,512,2
37.6079764110054,60,512,2
37.61447971656491,12,512,1
37.622948172384554,49,512,1
37.6236014110054,60,512,2
37.6392264110054,60,512,2
37.6548514110054,60,512,2
37.65895815731668,47,512,1
37.6704764110054,60,512,2
37.679683269602066,35,512,1
37.6861014110054,60,512,2
37.7017264110054,60,512,2
37.71732616264642,60,512,2
37.72574582197658,79,512,1
37.732701418105655,60,512,2
37.74130320433279,52,512,1
37.747861642326754,60,512,2
37.76281565159882,60,512,2
37.777571674244896,60,512,2
37.7921374041901,60,512,2
37.80652004840565,60,512,2
37.82075273537253,60,512,2
37.8348710250132,60,512,2
37.84887763930053,60,512,2
37.86277519378329,60,512,2
37.87656620332807,60,512,2
37.89025308746862,60,512,2
37.903838175394974,60,512,2
37.91729584792731,60,512,2
37.930561320790744,60,512,2
37.94364263721496,60,512,2
37.95654729319411,60,512,2
37.969282288325445,60,512,2
37.981854170724205,60,512,2
37.98223612619894,81,512,1
37.99426907683817,60,512,2
38.006532766852956,60,512,2
38.01874735100673,60,512,2
38.03099849160013,60,512,2
38.043286518502256,60,512,2
38.04940750859335,80,512,1
38.055611766570195,60,512,2
38.05624113420146,17,512,1
38.06797457575521,60,512,2
38.077210546609976,14,512,1
38.08037529121185,60,512,2
38.0928142634101,60,512,2
38.09299556319714,56,512,1
38.105291848250616,60,512,2
38.110461964833,81,512,1
38.11211431258098,67,512,1
38.11784165701327,60,512,2
38.11819677002879,56,512,1
38.11912605026982,19,512,1
38.130511191124874,60,512,2
38.14330393245672,60,512,2
38.15622353464202,60,512,2
38.16927383515944,60,512,2
38.169884904845844,44,512,1
38.17299423124901,29,512,1
38.18245886853069,60,512,2
38.1926066165493,8,512,1
38.19578288076024,60,512,2
38.209250345163014,60,512,2
38.21416160946503,12,512,1
38.22054348098445,1,512,1
38.22279772839841,60,512,2
38.23639502229387,60,512,2
38.25004278189248,60,512,2
38.2637415725939,60,512,2
38.27749197042678,60,512,2
38.27842945482552,57,512,1
38.29129456233046,60,512,2
38.30514994644634,60,512,2
38.30752847475186,29,512,1
38.31905873241937,60,512,2
38.333021541709954,60,512,2
38.347039007916905,60,512,2
38.34816056757209,52,512,1
38.36111177711179,60,512,2
38.37144312043781,51,512,1
38.37248797063847,17,512,1
38.375240508185186,60,512,2
38.38942587320544,60,512,2
38.39211506749375,29,512,1
38.40366855779038,60,512,2
38.417909491770985,60,512,2
38.42019099199446,82,512,1
38.424067737486645,78,512,1
38.43197922173132,60,512,2
38.445883800913535,60,512,2
38.45962893327073,60,512,2
38.47322000109118,60,512,2
38.48666208987241,60,512,2
38.499960010772824,60,512,2
38.50732219206403,15,512,1
38.5121076309952,4,512,1
38.51311832092334,60,512,2
38.52614134184348,60,512,2
38.53903317617383,60,512,2
38.55179772290948,60,512,2
38.56443869129545,60,512,2
38.56541238214523,17,512,1
38.57695961352521,60,512,2
38.58936385636593,60,512,2
38.601654631819414,60,512,2
38.60485885606278,37,512,1
38.61385467732759,60,512,2
38.624923670487895,73,512,1
38.62594136391566,40,512,1
38.6260911486353,60,512,2
38.638364373644556,60,512,2
38.65067468520366,60,512,2
38.66302242121225,60,512,2
38.66486828212029,11,512,1
38.675407924729214,60,512,2
38.687831544083636,60,512,2
38.70029363298877,60,512,2
38.71279363298877,60,512,2
38.72529363298877,60,512,2
38.737793632988776,60,512,2
38.74164566058516,1,512,1
38.75029363298878,60,512,2
38.75382053882597,58,512,1
38.75631117027978,18,512,1
38.75666407304781,47,512,1
38.76279363298878,60,512,2
38.775293632988785,60,512,2
38.77648030318141,10,512,1
38.78779363298879,60,512,2
38.80029363298879,60,512,2
38.804126782484644,11,512,1
38.81278904665671,60,512,2
38.82509236206325,60,512,2
38.837212217318,60,512,2
38.847326126993245,57,512,1
38.84915662017446,60,512,2
38.86093301072765,60,512,2
38.87254831630357,60,512,2
38.88400899969858,60,512,2
38.89532110172855,60,512,2
38.90649027888822,60,512,2
38.91338506879508,86,512,1
38.91761743852584,60,512,2
38.91997977455641,30,512,1
38.9215966634945,77,512,1
38.92877222045582,60,512,2
38.9312160525943,17,512,1
38.93995483124312,60,512,2
38.951165480038846,60,512,2
38.954003566269215,69,512,1
38.962404378625806,60,512,2
38.97367174146508,60,512,2
38.98496778574368,60,512,2
38.996292731423246,60,512,2
39.007646801289965,60,512,2
39.0190104376536,60,512,2
39.03037407401723,60,512,2
39.035420270697465,86,512,1
39.041737710380865,60,512,2
39.04952260078443,65,512,1
39.0531013467445,60,512,2
39.06446498310813,60,512,2
39.075828619471764,60,512,2
39.0871922558354,60,512,2
39.091430619528026,1,512,1
39.09855589219903,60,512,2
39.10991952856266,60,512,2
39.12136054411761,60,512,2
39.13289212653232,60,512,2
39.144516455323306,60,512,2
39.15623579870471,60,512,2
39.156844353611476,1,512,1
39.158181455812056,19,512,1
39.16323442855178,66,512,1
39.168052518719314,60,512,2
39.17996907675723,60,512,2
39.19157203883634,34,512,1
39.1919880394986,60,512,2
39.20411208532086,60,512,2
39.21630720727208,60,512,2
39.2285023292233,60,512,2
39.240697451174526,60,512,2
39.24978947355931,30,512,1
39.25289257312575,60,512,2
39.26508769507697,60,512,2
39.26520882178524,83,512,1
39.277282817028194,60,512,2
39.28947793897942,60,512,2
39.30079076021052,43,512,1
39.30090720882823,87,512,1
39.30167306093064,60,512,2
39.31387814378297,60,512,2
39.32615638730935,60,512,2
39.326231378538225,14,512,1
39.3385091204174,60,512,2
39.35093771268881,60,512,2
39.361268017992,6,512,1
39.36344357614223,60,512,2
39.37602816709558,60,512,2
39.38869298813471,60,512,2
39.401439590195864,60,512,2
39.41426483714452,60,512,2
39.427132415068506,60,512,2
39.43078929855111,20,512,1
39.44004274543832,60,512,2
39.449502792236835,13,512,1
39.45299625676047,60,512,2
39.46599338474296,60,512,2
39.47805466283112,61,512,1
39.47903457246575,60,512,2
39.48403519992512,32,512,1
39.492120270556526,60,512,2
39.49917772652566,69,512,1
39.50334045548491,67,512,1
39.50525093737181,60,512,2
39.51460672791726,79,512,1
39.517784284068526,60,512,1
39.51842703918376,60,512,2
39.53082010741279,34,512,1
39.53164905037278,60,512,2
39.544917453626184,60,512,2
39.5525822681333,40,512,1
39.5582327401432,60,512,2
39.57159540984647,60,512,2
39.58500597160043,60,512,2
39.58664033033181,37,512,1
39.59846494343666,60,512,2
39.60563737101514,69,512,1
39.611972852786685,60,512,2
39.61462610303326,13,512,1
39.6254863663002,60,512,2
39.63899987981372,60,512,2
39.64188985660039,28,512,1
39.65251339332723,60,512,2
39.66602690684075,60,512,2
39.679540420354265,60,512,2
39.69305393386778,60,512,2
39.70127224887004,36,512,1
39.706567447381296,60,512,2
39.70923286021081,81,512,1
39.720153305007045,60,512,2
39.733891304543405,60,512,2
39.73672059502728,82,512,1
39.747786654436624,60,512,2
39.76184486653686,60,512,2
39.77151264284528,30,512,1
39.776071781388396,60,512,2
39.77727536427296,18,512,1
39.79047359629243,60,512,2
39.80313477359911,83,512,1
39.80505689652297,60,512,2
39.819828690139246,60,512,2
39.8347964469138,60,512,2
39.8380182589994,74,512,1
39.84996814198632,60,512,2
39.85027470562577,73,512,1
39.85756539167291,49,512,1
39.86535230496274,60,512,2
39.87540217266842,52,512,1
39.88095807531251,60,512,2
39.88679971710153,24,512,1
39.89136056234495,85,512,1
39.89679526507884,60,512,2
39.91287443011591,60,512,2
39.91729923519349,68,512,1
39.92893675486511,60,512,2
39.944916624040246,60,512,2
39.9514218137645,71,512,1
39.96081529671659,60,512,2
39.97663400021753,60,512,2
39.98527007624643,66,512,1
39.99237393122519,60,512,2
39.99331657844238,14,512,1
40.00803625684154,60,512,2
40.02366125684154,60,512,2
40.03802697405396,69,512,1
40.03928625684154,60,512,2
40.05491125684154,60,512,2
40.07053625684154,60,512,2
40.08616125684154,60,512,2
40.09155851536611,64,512,1
40.0992062813677,75,512,1
40.10178625684154,60,512,2
40.11738513471437,60,512,2
40.13275955376467,60,512,2
40.1409041897785,41,512,1
40.147918976340684,60,512,2
40.162872216382155,60,512,2
40.17762750007959,60,512,2
40.192192519417276,60,512,2
40.20657447959571,60,512,2
40.220833409583065,60,512,2
40.23153412882446,62,512,1
40.235034592707464,60,512,2
40.2491787258662,60,512,2
40.26190381786353,61,512,1
40.26326649204027,60,512,2
40.27729856068058,60,512,2
40.2912755880804,60,512,2
40.30354931201023,24,512,1
40.305198217734876,60,512,2
40.31906708068783,60,512,2
40.32174498486453,19,512,1
40.332882795866695,60,512,2
40.3466459704059,60,512,2
40.360357199959246,60,512,2
40.37401706900169,60,512,2
40.387626151121054,60,512,2
40.401185009299994,60,512,2
40.40415155676111,40,512,1
40.41470718438282,60,512,2
40.42086135771602,18,512,1
40.42832898891846,60,512,2
40.43327747225948,73,512,1
40.442052652438335,60,512,2
40.45588048875985,60,512,2
40.469814900510784,60,512,2
40.4812048182249,29,512,1
40.48385838397055,60,512,2
40.49801353425584,60,512,2
40.512283050881,60,512,2
40.5266190766335,60,512,2
40.52863556803049,39,512,1
40.53590866267446,54,512,1
40.53664423786643,73,512,1
40.54101427287116,60,512,2
40.54606792895872,5,512,1
40.555469377327896,60,512,2
40.567621875112444,32,512,1
40.56998514318316,60,512,2
40.58456233951822,60,512,2
40.5992017517899,60,512,2
40.613904182322585,60,512,2
40.62867045081947,60,512,2
40.63293794470703,61,512,1
40.639926255485015,24,512,1
40.64350139489379,60,512,2
40.65782923614306,7,512,1
40.65839787062119,60,512,2
40.67336075311411,60,512,2
40.68839093711943,60,512,2
40.70348933764033,60,512,2
40.71859294226809,60,512,2
40.73349261312858,60,512,2
40.74342186405805,76,512,1
40.74728422487346,8,512,1
40.7481964289926,60,512,2
40.76271194763194,60,512,2
40.777046251756545,60,512,2
40.79120598986522,60,512,2
40.80519741268249,60,512,2
40.81904631354195,60,512,2
40.832789778902836,60,512,2
40.844666831558754,24,512,1
40.84643018670507,60,512,2
40.85996982669796,60,512,2
40.86267258685191,52,512,1
40.87341090495695,60,512,2
40.88189934743705,3,512,1
40.88675554810696,60,512,2
40.89105219555282,51,512,1
40.90000580727545,60,512,2
40.91073085091069,21,512,1
40.91316378244596,60,512,2
40.92650656292966,60,512,2
40.94004212203407,60,512,2
40.95010114431703,54,512,1
40.95377902162325,60,512,2
40.96447500247852,72,512,1
40.96772647465279,60,512,2
40.9806489927958,23,512,1
40.98189441649949,60,512,2
40.996293586643745,60,512,2
40.996294237111584,27,512,1
41.005035135113395,32,512,1
41.010935622599476,60,512,2
41.013383678659665,71,512,1
41.02568895698091,60,512,2
41.040506796641374,60,512,2
41.0553899938897,60,512,2
41.059477695820725,53,512,1
41.07033941995392,60,512,2
41.0853559655741,60,512,2
41.100440541619285,60,512,2
41.115590034351996,60,512,2
41.13067030648515,60,512,2
41.13564952607691,7,512,1
41.14568229968744,60,512,2
41.15990642737211,26,512,1
41.16062693444988,60,512,2
41.17550511074712,60,512,2
41.18882441191385,19,512,1
41.19031770867233,60,512,2
41.19522709454105,7,512,1
41.20506558904711,60,512,2
41.219706033920176,60,512,2
41.223522309751075,75,512,1
41.23416058520438,60,512,2
41.248436177052895,60,512,2
41.2625393219726,60,512,2
41.26735251216343,78,512,1
41.27647614592515,60,512,2
41.28058237830856,53,512,1
41.29025241975372,60,512,2
41.303873587395316,60,512,2
41.307844056656435,85,512,1
41.31490810301303,69,512,1
41.31738710090883,60,512,2
41.33090061442235,60,512,2
41.34441412793586,60,512,2
41.35792764144938,60,512,2
41.371441154962895,60,512,2
41.38495466847641,60,512,2
41.39595276841138,49,512,1
41.39846818198993,60,512,2
41.404309878726906,53,512,1
41.41198169550344,60,512,2
41.42549520901696,60,512,2
41.439008722530474,60,512,2
41.45252223604399,60,512,2
41.466035749557506,60,512,2
41.47954926307102,60,512,2
41.486852014538016,43,512,1
41.49306277658454,60,512,2
41.50538121010071,58,512,1
41.50657629009805,60,512,2
41.50702324979451,44,512,1
41.52008980361157,60,512,2
41.52219682133407,10,512,1
41.533603317125085,60,512,2
41.5471168306386,60,512,2
41.549246586096125,16,512,1
41.560630344152116,60,512,2
41.57414385766563,60,512,2
41.58765737117915,60,512,2
41.601170884692664,60,512,2
41.614671581104474,60,512,2
41.62802622937056,60,512,2
41.64123948525688,60,512,2
41.644243720260825,48,512,1
41.654315761812896,60,512,2
41.66725924674951,60,512,2
41.67388674750699,20,512,1
41.680073918247636,60,512,2
41.69276355936741,60,512,2
41.70533177120653,60,512,2
41.717831771206534,60,512,2
41.72080063402556,23,512,1
41.73033177120654,60,512,2
41.74283177120654,60,512,2
41.75533177120654,60,512,2
41.75915138820431,22,512,1
41.767831771206545,60,512,2
41.778741091180514,33,512,1
41.78033177120655,60,512,2
41.782329018386754,12,512,1
41.79283177120655,60,512,2
41.79537083455616,33,512,1
41.80533177120655,60,512,2
41.81781513160117,60,512,2
41.82066659829848,80,512,1
41.830259706167766,60,512,2
41.83080018269782,7,512,1
41.84266585456646,60,512,2
41.849016312295106,87,512,1
41.855033930929615,60,512,2
41.86736428398009,60,512,2
41.870613438745075,65,512,1
41.87606973116298,57,512,1
41.879657257146256,60,512,2
41.883363937234265,29,512,1
41.89191318867394,60,512,2
41.90413241173527,60,512,2
41.91626638421057,60,512,2
41.92822429641272,60,512,2
41.940013630958184,60,512,2
41.95164135363609,60,512,2
41.96311396213302,60,512,2
41.97443752899844,60,512,2
41.98561773966245,60,512,2
41.99366286386228,54,512,1
41.99665992618557,60,512,2
42.00756909731255,60,512,2
42.01845657739869,60,512,2
42.02607862824102,1,512,1
42.02936993025558,60,512,2
42.040309341067,60,512,2
42.051274997235375,60,512,2
42.062267088419084,60,512,2
42.06386462564348,25,512,1
42.073285806570695,60,512,2
42.08433134597598,60,512,2
42.095403903293814,60,512,2
42.1065036775969,60,512,2
42.1070680359623,15,512,1
42.11766317388535,60,512,2
42.12890668235997,60,512,2
42.13662111825827,65,512,1
42.140236124528464,60,512,2
42.14669154155553,45,512,1
42.15165349616419,60,512,2
42.16249887606449,77,512,1
42.16316087138312,60,512,2
42.17476040701291,60,512,2
42.18645434727999,60,512,2
42.19272315397198,77,512,1
42.19824502884347,60,512,2
42.21013488620771,60,512,2
42.213660282657635,74,512,1
42.215506904914875,86,512,1
42.222010990264096,60,512,2
42.2338536880011,60,512,2
42.245663260009145,60,512,2
42.25195358960865,26,512,1
42.257439982970425,60,512,2
42.25764095586595,36,512,1
42.269184129734676,60,512,2
42.28089596939316,60,512,2
42.28371270920521,71,512,1
42.292575767350755,60,512,2
42.29406366405293,64,512,1
42.3042237853963,60,512,2
42.30807831451842,10,512,1
42.315840281771244,60,512,2
42.32742551123657,60,512,2
42.328177884306044,30,512,1
42.33897972513815,60,512,2
42.35050317147055,60,512,2
42.36199609493924,60,512,2
42.37085402484305,59,512,1
42.37345873702138,60,512,2
42.38489133602517,60,512,2
42.39629412714777,60,512,2
42.40766734253189,60,512,2
42.4149752931604,9,512,1
42.4189915124004,60,512,2
42.43025789168139,60,512,2
42.4319800303032,81,512,1
42.44146735767779,60,512,2
42.45262076569614,60,512,2
42.4637189498116,60,512,2
42.474762723599014,60,512,2
42.48575288083196,60,512,2
42.49669019615141,60,512,2
42.50757542570562,60,512,2
42.51837385812084,60,512,2
42.52907248845489,60,512,2
42.53967404189829,60,512,2
42.5501811216191,60,512,2
42.55756789222913,11,512,1
42.560596216286754,60,512,2
42.561303179881016,23,512,1
42.570632534089086,54,512,1
42.57092170700928,60,512,2
42.58115987373876,60,512,2
42.582532011633795,25,512,1
42.591312901194115,60,512,2
42.601382884345,60,512,2
42.61017645160188,28,512,1
42.61138841894386,60,512,2
42.621434181083,60,512,2
42.62372657129903,27,512,1
42.63152065924275,60,512,2
42.64164835186194,60,512,2
42.6518177676243,60,512,2
42.65415261437581,41,512,1
42.66202942575554,60,512,2
42.6674088320673,0,512,1
42.672283856331575,60,512,2
42.682581600598425,60,512,2
42.685712129177595,70,512,1
42.69292321130437,60,512,2
42.70330925304488,60,512,2
42.71371874312056,60,512,2
42.72339237340536,8,512,1
42.72410572305607,60,512,2
42.72661466205331,39,512,1
42.734470338358975,60,512,2
42.744812732975255,60,512,2
42.748570290283375,72,512,1
42.755133049312704,60,512,2
42.76468601810128,15,512,1
42.76543142826384,60,512,2
42.77570800922838,60,512,2
42.77827581217487,36,512,1
42.78596293013533,60,512,2
42.796196327464564,60,512,2
42.80549684613662,65,512,1
42.80640833626812,60,512,2
42.81223602548329,73,512,1
42.816599090190984,60,512,2
42.82676872149156,60,512,2
42.83691736106173,60,512,2
42.84704513844653,60,512,2
42.852381248432586,65,512,1
42.857152181863505,60,512,2
42.86723861822165,60,512,2
42.8763929547267,9,512,1
42.87730457314006,60,512,2
42.880740749072146,14,512,1
42.8873501709662,60,512,2
42.89086457507124,22,512,1
42.895183187224326,86,512,1
42.89737553479389,60,512,2
42.901775579197164,33,512,1
42.90738078648087,60,512,2
42.912804550647635,50,512,1
42.9174103970465,60,512,2
42.92748052703104,60,512,2
42.93759167085551,60,512,2
42.94559795722182,35,512,1
42.94774433307002,60,512,2
42.95793902864648,60,512,2
42.961128405445194,27,512,1
42.96817628328232,60,512,2
42.97603404212222,50,512,1
42.97845663371567,60,512,2
42.98878062805254,60,512,2
42.99914882610654,60,512,2
42.99989279945108,38,512,1
43.00956179975182,60,512,2
43.019916584929526,60,512,2
43.030205180541,60,512,2
43.040428842485895,60,512,2
43.04938719301978,47,512,1
43.050588787394815,60,512,2
43.060686194328596,60,512,2
43.07072220638408,60,512,2
43.0806979322127,60,512,2
43.09061444745748,60,512,2
43.100472796113934,60,512,2
43.11027671768256,60,512,2
43.120080639251185,60,512,2
43.12988456081981,60,512,2
43.13148059759488,12,512,1
43.139688482388436,60,512,2
43.14949240395706,60,512,2
43.15929632552569,60,512,2
43.16910024709431,60,512,2
43.17890416866294,60,512,2
43.188708090231565,60,512,2
43.18957912075714,7,512,1
43.19851201180019,60,512,2
43.208315933368816,60,512,2
43.21012821649508,19,512,1
43.21816804878175,60,512,2
43.220547141748305,53,512,1
43.2280778775578,60,512,2
43.23804644394193,60,512,2
43.238094274884595,75,512,1
43.248074802800645,60,512,2
43.2551759946505,15,512,1
43.258111045663014,65,512,1
43.25816404091804,60,512,2
43.26831527836321,60,512,2
43.278529669933874,60,512,2
43.285115256408055,7,512,1
43.2888084066814,60,512,2
43.29390287908659,37,512,1
43.299152717523,60,512,2
43.30956387094725,60,512,2
43.32004317681953,60,512,2
43.32121155461256,25,512,1
43.32514452434397,30,512,1
43.33059198829472,60,512,2
43.34121170384502,60,512,2
43.35190376941144,60,512,2
43.36266968068837,60,512,2
43.37351098555129,60,512,2
43.38019401245612,62,512,1
43.38442928663889,60,512,2
43.38508168806338,79,512,1
43.39542624410167,60,512,2
43.4007190671731,21,512,1
43.40650357853033,60,512,2
43.4120063209014,46,512,1
43.413928390764745,65,512,1
43.41766307407854,60,512,2
43.42890658179613,60,512,2
43.440236023190145,60,512,2
43.451653394033265,60,512,2
43.46316076844075,60,512,2
43.463286043394724,58,512,1
43.47476030323949,60,512,2
43.48645424265512,60,512,2
43.49824492334591,60,512,2
43.50767233394151,73,512,1
43.5101347798153,60,512,2
43.52218492935377,60,512,2
43.53358219041234,79,512,1
43.53441263260714,60,512,2
43.53482854764974,74,512,1
43.54682593550235,60,512,2
43.551116359293864,41,512,1
43.554917379430094,53,512,1
43.559433508603384,60,512,2
43.5648158914021,18,512,1
43.57224471701448,60,512,2
43.57762847902337,85,512,1
43.585269700653946,60,512,2
43.59483066245183,20,512,1
43.59851946684018,60,512,2
43.612005997575366,60,512,2
43.62379599356437,51,512,1
43.62543237752933,60,512,2
43.638762636886874,60,512,2
43.64411946548601,43,512,1
43.65199881570138,60,512,2
43.658505116519656,67,512,1
43.66514288277104,60,512,2
43.67819673907853,60,512,2
43.69116222101994,60,512,2
43.70404110343856,60,512,2
43.70654077552943,38,512,1
43.716874914402055,60,512,2
43.72975114138363,60,512,2
43.73317259174344,65,512,1
43.74267020726971,60,512,2
43.755632542015945,60,512,2
43.76046964422394,32,512,1
43.767632949119836,29,512,1
43.76863858281367,60,512,2
43.781688774261475,60,512,2
43.78242945361673,42,512,1
43.78446772158826,2,512,1
43.79478356854198,60,512,2
43.80413644564713,48,512,1
43.80792342560416,60,512,2
43.81531339953222,32,512,1
43.821123860493074,45,512,1
43.82116414549283,60,512,2
43.8266046972135,70,512,1
43.8269130176932,44,512,1
43.83454562516335,60,512,2
43.84807243470986,60,512,2
43.85167470490534,61,512,1
43.86038812947796,65,512,1
43.861749396433126,60,512,2
43.87558160473356,60,512,2
43.883257022115615,56,512,1
43.889574448065524,60,512,2
43.90373363321966,60,512,2
43.91806521224211,60,512,2
43.932575612348664,60,512,2
43.942399489037065,53,512,1
43.94727166925098,60,512,2
43.95667036857108,66,512,1
43.96216066438241,60,512,2
43.962363427433104,56,512,1
43.977250366595165,60,512,2
43.98350642691439,14,512,1
43.99254907900251,60,512,2
44.008065691762674,60,512,2
44.023690691762674,60,512,2
44.039315691762674,60,512,2
44.04191521322031,22,512,1
44.054940691762674,60,512,2
44.070565691762674,60,512,2
44.078941821585964,80,512,1
44.086190691762674,60,512,2
44.09040069086328,67,512,1
44.096038030788236,78,512,1
44.101815691762674,60,512,2
44.11742298049668,60,512,2
44.13287966702918,60,512,2
44.148190042009524,60,512,2
44.1633581957799,60,512,2
44.17448632591596,62,512,1
44.17838803124374,60,512,2
44.193283275689375,60,512,2
44.196460469440744,49,512,1
44.20729521421954,48,512,1
44.20804749167079,60,512,2
44.21447569950485,68,512,1
44.22271864872544,60,512,2
44.23490449096713,49,512,1
44.237326919264596,60,512,2
44.24555912017051,57,512,1
44.25187310622161,60,512,2
44.26635799557339,60,512,2
44.28078235683782,60,512,2
44.295146943552574,60,512,2
44.30945249373616,60,512,2
44.32366145935984,60,512,2
44.33775659564871,60,512,2
44.34013409453847,22,512,1
44.3517406022304,60,512,2
44.36561607352136,60,512,2
44.379385504385404,60,512,2
44.39305129540652,60,512,2
44.40661575780771,60,512,2
44.42005716986708,60,512,2
44.427651065916066,78,512,1
44.43335443566262,60,512,2
44.44651211119609,60,512,2
44.45953451693884,60,512,2
44.472425754556944,60,512,2
44.48518972213813,60,512,2
44.49783012808136,60,512,2
44.50756004241746,64,512,1
44.51035050379011,60,512,2
44.52281824194734,60,512,2
44.535247339409075,60,512,2
44.542366331314405,69,512,1
44.54763815360073,60,512,2
44.55999103646787,60,512,2
44.57230633459314,60,512,2
44.57261671366608,30,512,1
44.58458438931001,60,512,2
44.5968255368135,60,512,2
44.60903010826784,60,512,2
44.61105097550183,42,512,1
44.61191277371007,51,512,1
44.62125214884092,60,512,2
44.623268932630246,22,512,1
44.63351081297623,60,512,2
44.63534036113174,23,512,1
44.645806431555414,60,512,2
44.658139340469575,60,512,2
44.66478701720538,81,512,1
44.6705098807261,60,512,2
44.68291839855838,60,512,2
44.69536524553855,60,512,2
44.70785077869343,60,512,2
44.72035077869343,60,512,2
44.726262592746295,70,512,1
44.73285077869343,60,512,2
44.73656202980341,20,512,1
44.745350778693435,60,512,2
44.74933593143668,34,512,1
44.75785077869344,60,512,2
44.76077144374052,31,512,1
44.77035077869344,60,512,2
44.77962365316421,63,512,1
44.782850778693444,60,512,2
44.79535077869345,60,512,2
44.80785077869345,60,512,2
44.8173706351761,37,512,1
44.820400039427845,60,512,2
44.833028853581176,60,512,2
44.84051966098096,55,512,1
44.84573875023905,60,512,2
44.85853130804219,60,512,2
44.86904961880134,42,512,1
44.8714081574622,60,512,2
44.877497257467475,82,512,1
44.884370983213394,60,512,2
44.89456099526626,28,512,1
44.89742152681078,60,512,2
44.9105615892851,60,512,2
44.92228100377866,66,512,1
44.923610679444984,60,512,2
44.936527798944056,60,512,2
44.9493168853824,60,512,2
44.96198168399688,60,512,2
44.97452576058294,60,512,2
44.98695251332031,60,512,2
44.9992651836142,60,512,2
45.01131079861666,50,512,1
45.011466866050434,60,512,2
45.02379996062948,60,512,2
45.03628497811695,60,512,2
45.04874987688014,77,512,1
45.048927650396976,60,512,2
45.054906943458874,70,512,1
45.06173407812243,60,512,2
45.0694355314561,22,512,1
45.0747107647425,60,512,2
45.08786465467014,60,512,2
45.10120317622126,60,512,2
45.11472988569304,60,512,2
45.128406743984335,60,512,2
45.129122545610606,78,512,1
45.14223884530403,60,512,2
45.15623157789928,60,512,2
45.164423937407065,9,512,1
45.16561584360925,32,512,1
45.169474279980186,17,512,1
45.170390648336245,60,512,2
45.18472210841737,60,512,2
45.199232385093346,60,512,2
45.21392831378694,60,512,2
45.21434048868436,23,512,1
45.2259988578801,23,512,1
45.228694687518356,60,512,2
45.243525738214025,60,512,2
45.25842232198029,60,512,2
45.26812413657581,28,512,1
45.27338531396126,60,512,2
45.28050507470788,20,512,1
45.283949451859776,80,512,1
45.28841560893647,60,512,2
45.30351412194279,60,512,2
45.31860137232144,60,512,2
45.33341879724525,60,512,2
45.34191489614863,77,512,1
45.34798045414293,60,512,2
45.36123283927407,63,512,1
45.362299216883464,60,512,2
45.37638691104813,60,512,2
45.390254429920205,60,512,2
45.39094556344728,0,512,1
45.40050455570574,76,512,1
45.40391183445316,60,512,2
45.417340165145085,60,512,2
45.43048408239519,60,512,2
45.443361040886565,60,512,2
45.455986773470165,60,512,2
45.46837552053677,60,512,2
45.47077993866362,64,512,1
45.47492781345817,31,512,1
45.48054022146906,60,512,2
45.49249267557578,60,512,2
45.49349052424414,49,512,1
45.50424367825874,60,512,2
45.515803136923736,60,512,2
45.5271801702055,60,512,2
45.53838319335523,60,512,2
45.549137274939575,2,512,1
45.54941999208147,60,512,2
45.55402393564765,36,512,1
45.560297786699316,60,512,2
45.56303281026016,19,512,1
45.57102328810061,60,512,2
45.58160274678597,60,512,2
45.586549071230976,64,512,1
45.59204199598292,60,512,2
45.60234648970014,60,512,2
45.606076959034475,60,512,1
45.612565251875765,60,512,2
45.62284844220839,60,512,2
45.62661591065908,30,512,1
45.63319729227119,60,512,2
45.643613073329156,60,512,2
45.654097098151624,60,512,2
45.66352308884158,73,512,1
45.66465072293262,60,512,2
45.667835838946914,3,512,1
45.675275349326874,60,512,2
45.6859724266101,60,512,2
45.69674345397304,60,512,2
45.70693863342276,16,512,1
45.707589982959426,60,512,2
45.71845954817682,60,512,2
45.72932911339421,60,512,2
45.7401986786116,60,512,2
45.75106824382899,60,512,2
45.753293212774295,34,512,1
45.76193780904638,60,512,2
45.77280737426377,60,512,2
45.78367693948116,60,512,2
45.79453846563753,42,512,1
45.79454650469855,60,512,2
45.798496001749285,16,512,1
45.798753632398466,27,512,1
45.80541606991594,60,512,2
45.808556436640906,74,512,1
45.81626009947149,60,512,2
45.82633268917283,42,512,1
45.82705336055893,60,512,2
45.83779656070368,60,512,2
45.84849039113368,60,512,2
45.85913552730047,60,512,2
45.869732629379044,60,512,2
45.88028234274757,60,512,2
45.89078529844784,60,512,2
45.895018402424995,85,512,1
45.90124211362745,60,512,2
45.90687436860885,74,512,1
45.91164531991463,60,512,2
45.9219371412151,60,512,2
45.923486024693865,6,512,1
45.932121092488835,60,512,2
45.942200507265625,60,512,2
45.95217855050897,60,512,2
45.95278217187012,79,512,1
45.96205823032926,60,512,2
45.97184240866984,60,512,2
45.97249901721579,49,512,1
45.98153381107391,60,512,2
45.99113503562723,60,512,2
46.00064856116016,60,512,2
46.01007790794651,60,512,2
46.01944065743521,60,512,2
46.028738204285546,60,512,2
46.037971895083686,60,512,2
46.04714303063321,60,512,2
46.0562528681071,60,512,2
46.065302623071325,60,512,2
46.07429347138922,60,512,2
46.08322655101517,60,512,2
46.09210296368541,60,512,2
46.100923776512936,60,512,2
46.10968860393249,60,512,2
46.1183866113458,60,512,2
46.12298863188726,43,512,1
46.1270193078066,60,512,2
46.13558814632804,60,512,2
46.144094526756625,60,512,2
46.15253979845921,60,512,2
46.16092526283777,60,512,2
46.169252175685266,60,512,2
46.1775217493946,60,512,2
46.18573515503189,60,512,2
46.193893524283965,60,512,2
46.20199795128937,60,512,2
46.21005986946359,60,512,2
46.21811132163169,60,512,2
46.218878729317886,22,512,1
46.22615234846665,60,512,2
46.234182990378635,60,512,2
46.242203287517356,60,512,2
46.250213279774414,60,512,2
46.25821300678562,60,512,2
46.26620250793327,60,512,2
46.27227533876873,32,512,1
46.27418182234845,60,512,2
46.28215098891323,60,512,2
46.290110046262896,60,512,2
46.293396606204176,2,512,1
46.29753610131414,32,512,1
46.29805903278813,60,512,2
46.30168211092369,42,512,1
46.305997986637195,60,512,2
46.31396483428528,60,512,2
46.321972341274574,60,512,2
46.326769767522464,10,512,1
46.33002113546685,60,512,2
46.333204868975905,45,512,1
46.33404705874264,60,512,1
46.33811186103401,60,512,2
46.346245179057014,60,512,2
46.35442176815342,60,512,2
46.362642325135106,60,512,2
46.3637344459108,76,512,1
46.37090756569807,60,512,2
46.376981738606496,32,512,1
46.378179041767666,69,512,1
46.379218225146204,60,512,2
46.3875750591511,60,512,2
46.395978844550086,60,512,2
46.40443038018495,60,512,2
46.41140165433316,40,512,1
46.41294331122324,60,512,2
46.421530923568234,60,512,2
46.42342966519634,33,512,1
46.43019521183444,60,512,2
46.43716452981492,12,512,1
46.43893826086938,60,512,2
46.447762251565976,60,512,2
46.449614175777796,66,512,1
46.45170259152058,59,512,1
46.45603585787591,68,512,1
46.45666946716481,60,512,2
46.458611135199945,55,512,1
46.46125088909769,68,512,1
46.465063505532136,68,512,1
46.46566230009763,60,512,2
46.47474325943003,60,512,2
46.47681460115358,38,512,1
46.483914978968556,60,512,2
46.49318022610621,60,512,2
46.501128581446444,86,512,1
46.50254191149008,60,512,2
46.502852443422384,11,512,1
46.50488309642758,30,512,1
46.51199855105684,60,512,2
46.513246087980285,8,512,1
46.521540522597135,60,512,2
46.53117017133895,60,512,2
46.53272240542437,20,512,1
46.532740415896356,72,512,1
46.536404832930735,70,512,1
46.540889951735494,60,512,2
46.550702434712214,60,512,2
46.56061031554332,60,512,2
46.57061642242588,60,512,2
46.57789040604133,83,512,1
46.580723725828385,60,512,2
46.58590916092757,69,512,1
46.58874897234528,18,512,1
46.59093534870106,60,512,2
46.60125457764682,60,512,2
46.6110526516241,81,512,1
46.61166036525638,60,512,2
46.621976787546345,60,512,2
46.63220611442669,60,512,2
46.642350521156736,60,512,2
46.6524120937863,60,512,2
46.66239283420075,60,512,2
46.67229466480478,60,512,2
46.682119432876036,60,512,2
46.69186891461656,60,512,2
46.70154481892742,60,512,2
46.70663791623869,70,512,1
46.711165920027064,60,512,2
46.718940995360335,87,512,1
46.72082277683121,60,512,2
46.72733153023034,18,512,1
46.7305157904696,60,512,2
46.73706718576972,79,512,1
46.74024536962299,60,512,2
46.750011930723545,60,512,2
46.759815898162145,60,512,2
46.76965770450284,60,512,2
46.77705496651861,18,512,1
46.77953779070481,60,512,2
46.78945660635211,60,512,2
46.799414609891606,60,512,2
46.809412268879335,60,512,2
46.81943112892025,60,512,2
46.82730679011454,32,512,1
46.82947014279482,60,512,2
46.839529432535834,60,512,2
46.849609121412115,60,512,2
46.858947619869376,81,512,1
46.85970933394609,60,512,2
46.86231314182187,68,512,1
46.863045753662135,82,512,1
46.86983019593172,60,512,2
46.87997183445272,60,512,2
46.89013437790118,60,512,2
46.89670253975969,15,512,1
46.900317955996464,60,512,2
46.90178841068432,31,512,1
46.90602511363499,52,512,1
46.91052534936578,60,512,2
46.92084021421908,60,512,2
46.931266005779825,60,512,2
46.941806368053044,60,512,2
46.950922690044855,2,512,1
46.95246514856432,60,512,2
46.95861033399895,4,512,1
46.96324641461003,60,512,2
46.96650606523175,8,512,1
46.97415447121256,60,512,2
46.985193881003966,60,512,2
46.9860322213558,45,512,1
46.98983597299661,13,512,1
46.990238841912415,76,512,1
46.99128747202798,26,512,1
46.99636948629735,60,512,2
47.00768643364687,60,512,2
47.01910993774203,60,512,2
47.03062359128917,60,512,2
47.042001542111706,72,512,1
47.042229556982285,60,512,2
47.05020052709705,85,512,1
47.053930085249455,60,512,2
47.06572751931175,60,512,2
47.07189852660191,76,512,1
47.07762430062316,60,512,2
47.08849937491325,86,512,1
47.08962297472706,60,512,2
47.10172619756902,60,512,2
47.10357513328347,18,512,1
47.11393674230998,60,512,2
47.123423340823805,76,512,1
47.126257506689164,60,512,2
47.13869152099189,60,512,2
47.15124195668412,60,512,2
47.1529158812808,0,512,1
47.15934269791383,28,512,1
47.16391213578307,60,512,2
47.176149030144856,66,512,1
47.17670554104213,60,512,2
47.189625827038036,60,512,2
47.19311703321411,39,512,1
47.20267683226001,60,512,2
47.20881105148275,18,512,1
47.2112684392681,79,512,1
47.21581621545747,60,512,2
47.22886548385717,60,512,2
47.24182647061816,60,512,2
47.24355289643136,67,512,1
47.24795786731094,82,512,1
47.25470094749767,60,512,2
47.26749062769504,60,512,2
47.26840785071856,52,512,1
47.28019716852837,60,512,2
47.29282217395577,60,512,2
47.30536719695216,60,512,2
47.317867196952164,60,512,2
47.33036719695217,60,512,2
47.336397752014854,50,512,1
47.34286719695217,60,512,2
47.35536719695217,60,512,2
47.35748238806096,65,512,1
47.367867196952176,60,512,2
47.38036719695218,60,512,2
47.39286719695218,60,512,2
47.39527456463636,67,512,1
47.40341569632858,69,512,1
47.405367196952184,60,512,2
47.417883991978215,60,512,2
47.43044013044813,60,512,2
47.43162515644671,43,512,1
47.443035985314445,60,512,2
47.454633910087175,40,512,1
47.45567193545562,60,512,2
47.46834836580872,60,512,2
47.481065667505845,60,512,2
47.49382423801452,60,512,2
47.494457787474715,35,512,1
47.506624481282266,60,512,2
47.519423254299625,60,512,2
47.53218023326207,60,512,2
47.538817173063066,69,512,1
47.544895825385,60,512,2
47.55757043130951,60,512,2
47.57020444525009,60,512,2
47.5827982551381,60,512,2
47.585038887967016,28,512,1
47.58648031657241,86,512,1
47.58787930938348,56,512,1
47.59535224276112,60,512,2
47.59923743131177,34,512,1
47.607866783898416,60,512,2
47.62039141604204,60,512,2
47.622882958044634,43,512,1
47.624555016951284,71,512,1
47.63295546573315,60,512,2
47.64341934493484,85,512,1
47.64555930709871,60,512,2
47.65820332021787,60,512,2
47.662636054397154,32,512,1
47.670887891255354,60,512,2
47.68361341259864,60,512,2
47.696380282999236,60,512,2
47.69936853429999,54,512,1
47.70269359700571,23,512,1
47.709188907718044,60,512,2
47.721979284745174,60,512,2
47.72381229952683,30,512,1
47.732569522994154,25,512,1
47.73472794973544,60,512,2
47.7474353085767,60,512,2
47.76010176061237,60,512,2
47.77272769878833,60,512,2
47.78531350979553,60,512,2
47.79785957420856,60,512,2
47.810366266620306,60,512,2
47.81354423991893,16,512,1
47.815409862354336,70,512,1
47.82273801774954,60,512,2
47.82856729946411,34,512,1
47.83496011156347,60,512,2
47.84703787172093,60,512,2
47.85897631285817,60,512,2
47.87078016517122,60,512,2
47.88245389653699,60,512,2
47.88528226607632,46,512,1
47.89400173246791,60,512,2
47.90542767415432,60,512,2
47.91679131051795,60,512,2
47.91869099068629,61,512,1
47.928154946881584,60,512,2
47.93680237753747,76,512,1
47.93951858324522,60,512,2
47.95088221960885,60,512,2
47.951184617049975,35,512,1
47.96224585597248,60,512,2
47.97360949233612,60,512,2
47.98497312869975,60,512,2
47.991352411911485,54,512,1
47.99633676506338,60,512,2
48.007700401427016,60,512,2
48.018985041194135,60,512,2
48.030155878640414,60,512,2
48.041216299805534,60,512,2
48.052169525764654,60,512,2
48.063018623679916,60,512,2
48.073766516916955,60,512,2
48.0834582857021,72,512,1
48.0844159943214,60,512,2
48.09496971873911,60,512,2
48.10543023485427,60,512,2
48.10940179834629,2,512,1
48.11577667204115,60,512,2
48.12435734356743,21,512,1
48.12599188610517,60,512,2
48.136080766484646,60,512,2
48.146047905626446,60,512,2
48.15589762368368,60,512,2
48.165633990630774,60,512,2
48.17526084611881,60,512,2
48.184781817347314,60,512,2
48.188226479270924,15,512,1
48.194200335189734,60,512,2
48.20351964877685,60,512,2
48.20571213909513,26,512,1
48.21278494703531,60,512,2
48.21490613575796,27,512,1
48.22206618038286,60,512,2
48.22415439016157,34,512,1
48.22577020401588,50,512,1
48.23136343127457,60,512,2
48.234786448704476,64,512,1
48.24067678287883,60,512,2
48.24796068525294,86,512,1
48.25000631908599,60,512,2
48.25935212451719,60,512,2
48.26732441459027,14,512,1
48.26871428453331,60,512,2
48.27809288524401,60,512,2
48.287488013516985,60,512,2
48.296899756987344,60,512,2
48.301137619587,70,512,1
48.30632820406712,60,512,2
48.31079588147268,50,512,1
48.315762166331275,60,512,2
48.32519612859543,60,512,2
48.334630090859584,60,512,2
48.34406405312374,60,512,2
48.35349801538789,60,512,2
48.362931977652046,60,512,2
48.3723659399162,60,512,2
48.381799902180354,60,512,2
48.38977422947608,78,512,1
48.39123386444451,60,512,2
48.40066782670866,60,512,2
48.41010060039579,60,512,2
48.41951661786188,60,512,2
48.428915968139705,60,512,2
48.43829873947612,60,512,2
48.4476650193417,60,512,2
48.4570148944403,60,512,2
48.46634845071842,60,512,2
48.47381408809796,44,512,1
48.475665773374445,60,512,2
48.484966946867715,60,512,2
48.490789805992584,37,512,1
48.49425205492749,60,512,2
48.49950211205758,6,512,1
48.503521180561755,60,512,2
48.506693483506545,70,512,1
48.51280465373604,60,512,2
48.52215257738454,60,512,2
48.53128978907819,67,512,1
48.531566309555195,60,512,2
48.540261583422144,29,512,1
48.54104725659909,60,512,2
48.550596875607894,60,512,2
48.560216677011596,60,512,2
48.56084387947786,52,512,1
48.56990822734971,60,512,2
48.57967315223015,60,512,2
48.58153749311993,72,512,1
48.58951313949165,60,512,2
48.59709180703685,68,512,1
48.59942994258705,60,512,2
48.60942538420658,60,512,2
48.614386716966926,9,512,1
48.619387824276465,60,512,2
48.62931086977153,60,512,2
48.63659763640342,40,512,1
48.63919498496622,60,512,2
48.64608583154529,49,512,1
48.64904062507972,60,512,2
48.658848236521465,60,512,2
48.668618257128074,60,512,2
48.67835111639224,60,512,2
48.688047235683776,60,512,2
48.69720267923836,10,512,1
48.69770702846317,60,512,2
48.707330900488024,60,512,2
48.71363725521024,47,512,1
48.71694628510341,60,512,2
48.7265616697188,60,512,2
48.726740073563505,1,512,1
48.736177054334185,60,512,2
48.736366929142456,34,512,1
48.74579243894957,60,512,2
48.75540782356496,60,512,2
48.765023208180345,60,512,2
48.77463859279573,60,512,2
48.77722943424276,73,512,1
48.78425397741112,60,512,2
48.793869362026506,60,512,2
48.80348474664189,60,512,2
48.81313894946984,60,512,2
48.82010672287734,71,512,1
48.82290235042968,60,512,2
48.83277872606322,60,512,2
48.836109075220435,62,512,1
48.84277207520231,60,512,2
48.848118896434535,26,512,1
48.849730453494,16,512,1
48.852886637695704,60,512,2
48.86271388188121,64,512,1
48.863126915211325,60,512,2
48.86744126685599,46,512,1
48.87127311878631,24,512,1
48.873497694402076,60,512,2
48.88400407277129,60,512,2
48.88652484728291,0,512,1
48.89465148763222,60,512,2
48.905445748625574,60,512,2
48.916276846384875,60,512,2
48.92703223950555,60,512,2
48.93433463699616,46,512,1
48.9377134971267,60,512,2
48.94832213484744,60,512,2
48.954811256917,48,512,1
48.9588596172524,60,512,2
48.96240878063588,74,512,1
48.969327360286016,60,512,2
48.97972673348648,60,512,2
48.98833271281918,85,512,1
48.99005906208942,60,512,2
49.00032562901043,60,512,2
49.00931025992857,56,512,1
49.01052903257692,60,512,2
49.02071123487494,60,512,2
49.030872367608275,60,512,2
49.041012561122194,60,512,2
49.051131944422984,60,512,2
49.05950606371461,69,512,1
49.06123064519712,60,512,2
49.07130878983013,60,512,2
49.07134490106376,87,512,1
49.07585863050409,5,512,1
49.081366503425045,60,512,2
49.081910518685895,62,512,1
49.091403909820585,60,512,2
49.1004741563602,67,512,1
49.10142113160895,60,512,2
49.10910643015715,9,512,1
49.111441067114846,60,512,2
49.12160384941903,60,512,2
49.1319157364557,60,512,2
49.13499618411878,15,512,1
49.142383455398395,60,512,2
49.14482728387356,67,512,1
49.15301425332827,60,512,2
49.16171709988853,24,512,1
49.16381595514755,60,512,2
49.172832965278765,29,512,1
49.17479703004382,60,512,2
49.1798495031624,67,512,1
49.1859666680982,60,512,2
49.1956115114655,61,512,1
49.197334868992634,60,512,2
49.19778371904424,1,512,1
49.20891254523273,60,512,2
49.21396247346694,8,512,1
49.22063766210199,60,512,2
49.22875371263205,60,512,1
49.2324931690285,60,512,2
49.24448349813584,60,512,2
49.25303723851509,55,512,1
49.25661333785931,60,512,2
49.26241602461917,49,512,1
49.268887654152614,60,512,2
49.279430207095224,50,512,1
49.28131171400199,60,512,2
49.2938911115617,60,512,2
49.29402294677953,15,512,1
49.306631797276914,60,512,2
49.319496060448955,60,512,2
49.33019502647486,18,512,1
49.33108169387426,58,512,1
49.332446046972066,60,512,2
49.34548348978327,60,512,2
49.35861018092293,60,512,2
49.37182797439303,60,512,2
49.38513878919548,60,512,2
49.38982390554392,50,512,1
49.39854461256461,60,512,2
49.41001812033743,9,512,1
49.41204750340911,60,512,2
49.425517158620714,60,512,2
49.438938114120624,60,512,2
49.452310894967454,60,512,2
49.45364818096181,59,512,1
49.465636016845565,60,512,2
49.472307342764786,79,512,1
49.478913986297826,60,512,2
49.48688999984861,79,512,1
49.492145300951,60,512,2
49.50533044973405,60,512,2
49.51845153327287,60,512,2
49.52664074121071,80,512,1
49.53148287629426,60,512,2
49.54442629935373,60,512,2
49.55728356219178,60,512,2
49.570056366543135,60,512,2
49.58274635878121,60,512,2
49.58557810125606,16,512,1
49.5953551324094,60,512,2
49.60788423041002,60,512,2
49.611631146749865,34,512,1
49.61928729369147,53,512,1
49.6203351474606,60,512,2
49.63270933202667,60,512,2
49.64500818833933,60,512,2
49.65004504480849,87,512,1
49.654518690445215,31,512,1
49.65723307826523,60,512,2
49.66938532307605,60,512,2
49.670491526285936,80,512,1
49.681466205124075,60,512,2
49.69347696942976,60,512,2
49.694532616832504,14,512,1
49.70541882518698,60,512,2
49.705908719228425,62,512,1
49.717262464604524,60,512,2
49.727161487787434,35,512,1
49.728974672626975,60,512,2
49.74055974530488,60,512,2
49.749810294889826,56,512,1
49.75202174915548,60,512,2
49.76336453799752,60,512,2
49.7745917682293,60,512,2
49.78570691272274,60,512,2
49.79319879576534,73,512,1
49.79671327348357,60,512,2
49.80611494852585,70,512,1
49.80761399320928,60,512,2
49.81841206585986,60,512,2
49.82133760694943,72,512,1
49.82911034634261,60,512,2
49.839711559400214,60,512,2
49.85021830778072,60,512,2
49.86063307975926,60,512,2
49.8709582560732,60,512,2
49.88119611632585,60,512,2
49.89134884490763,60,512,2
49.90141853647844,60,512,2
49.91142137435652,60,512,2
49.91796848176636,75,512,1
49.921444269403814,60,512,2
49.9289752862224,84,512,1
49.9314873426776,60,512,2
49.93189360875655,11,512,1
49.93830192562933,39,512,1
49.94020280314758,8,512,1
49.941550716457336,60,512,2
49.95163451426202,60,512,2
49.961738860867804,60,512,2
49.97186388232602,60,512,2
49.982009705981476,60,512,2
49.9921764604911,60,512,2
49.994767538753706,81,512,1
49.99793632414118,86,512,1
50.00236427584296,60,512,2
50.01078662058176,57,512,1
50.011309312519884,23,512,1
50.01257328337559,60,512,2
50.018577655482346,51,512,1
50.02280361579774,60,512,2
50.03305540720847,60,512,2
50.04332879311758,60,512,2
50.053623910466506,60,512,2
50.059030975069106,39,512,1
50.063940897649566,60,512,2
50.07427989453563,60,512,2
50.07803075642199,41,512,1
50.08464104249018,60,512,2
50.089409657877034,74,512,1
50.095024484397875,60,512,2
50.10543036468543,60,512,2
50.1158470313521,60,512,2
50.12626369801876,60,512,2
50.136680364685425,60,512,2
50.14709703135209,60,512,2
50.157513698018754,60,512,2
50.167312211097325,71,512,1
50.16793036468542,60,512,2
50.17834703135208,60,512,2
50.18876369801875,60,512,2
50.198524388855006,80,512,1
50.19918036468541,60,512,2
50.209597031352075,60,512,2
50.2199929126856,60,512,2
50.2303663719221,60,512,2
50.24071755362348,60,512,2
50.25104660080422,60,512,2
50.2613536549545,60,512,2
50.26233396269315,5,512,1
50.27163885606284,60,512,2
50.28190234263837,60,512,2
50.2896786235102,80,512,1
50.29214425173255,60,512,2
50.30236471896066,60,512,2
50.312554048613094,60,512,2
50.32268029834894,60,512,2
50.33274462774081,60,512,2
50.342748161222474,60,512,2
50.34388133080858,41,512,1
50.35269198956304,60,512,2
50.362577171262465,60,512,2
50.37240473387352,60,512,2
50.382175675254906,60,512,2
50.39189096475979,60,512,2
50.4015515443639,60,512,2
50.41116979881553,60,512,2
50.420805882106244,60,512,2
50.426708266806294,63,512,1
50.43045989368833,60,512,2
50.440131933941764,60,512,2
50.44982210418641,60,512,2
50.451756001395616,35,512,1
50.455897290359296,23,512,1
50.458072109962785,68,512,1
50.45953050669434,60,512,2
50.46925724470244,60,512,2
50.47538384186749,28,512,1
50.479002422425175,60,512,2
50.48876614506761,60,512,2
50.49854851883862,60,512,2
50.50834965096438,60,512,2
50.518185779686604,60,512,2
50.528060121887314,60,512,2
50.53797312584786,60,512,2
50.54452182939212,59,512,1
50.54792524867634,60,512,2
50.55149862798738,68,512,1
50.55165987221455,40,512,1
50.55791695655269,60,512,2
50.567948724982614,60,512,2
50.578021039060744,60,512,2
50.5878331689007,39,512,1
50.58813439374338,60,512,2
50.598289294131305,60,512,2
50.60130323946552,53,512,1
50.6084862557631,60,512,2
50.618708040391404,60,512,2
50.62895123018905,60,512,2
50.63413926057902,61,512,1
50.634500952684405,83,512,1
50.63921596009894,60,512,2
50.64542926388949,60,512,1
50.6495023664872,60,512,2
50.659810587164294,60,512,2
50.67014076140653,60,512,2
50.672419606355234,81,512,1
50.68049302997793,60,512,2
50.686948207297206,54,512,1
50.690867535152634,60,512,2
50.6919782442869,87,512,1
50.699568146704394,7,512,1
50.70126442073761,60,512,2
50.707588888499885,53,512,1
50.71169207485603,60,512,2
50.71436777169171,26,512,1
50.716113570129465,5,512,1
50.72221123385136,60,512,2
50.732824342380894,60,512,2
50.743533955726924,60,512,2
50.75434274692482,60,512,2
50.76391941189635,44,512,1
50.76522572820109,46,512,1
50.76525351449204,60,512,2
50.77626919082119,60,512,2
50.78739285130811,60,512,2
50.78764036823014,77,512,1
50.787657633208944,70,512,1
50.7979923809405,80,512,1
50.79862772429513,60,512,2
50.80997720192021,60,512,2
50.81977993423584,67,512,1
50.821340838283845,60,512,2
50.83270447464748,60,512,2
50.84406811101111,60,512,2
50.855431747374745,60,512,2
50.85608722942023,79,512,1
50.86679538373838,60,512,2
50.86733327908562,28,512,1
50.87815902010201,60,512,2
50.889522656465644,60,512,2
50.89319316879866,47,512,1
50.894139676983286,20,512,1
50.89857192953431,38,512,1
50.90088629282928,60,512,2
50.90846193865999,50,512,1
50.91226138562835,60,512,2
50.921077922472094,7,512,1
50.92378559330377,60,512,2
50.93546491091603,60,512,2
50.94635156988707,14,512,1
50.94730574515638,60,512,2
50.95931495494957,60,512,2
50.97149989734655,60,512,2
50.97323895552423,60,512,1
50.98386847957329,60,512,2
50.996429218274656,60,512,2
50.998169576872364,29,512,1
50.99859332819566,6,512,1
51.00919130720551,60,512,2
51.01115517899949,14,512,1
51.01959626153632,48,512,1
51.02207253557842,60,512,2
51.0350398284156,60,512,2
51.04593705782793,26,512,1
51.04809493022449,60,512,2
51.0612396451723,60,512,2
51.0696541069921,56,512,1
51.07447583997917,60,512,2
51.07542033344938,41,512,1
51.087805446994054,60,512,2
51.101230467467694,60,512,2
51.111747085918886,1,512,1
51.11473948843774,60,512,2
51.128199382504505,60,512,2
51.13328801804418,68,512,1
51.14161068240296,60,512,2
51.154973911301994,60,512,2
51.16828958304328,60,512,2
51.18155820237259,60,512,2
51.1947802651637,60,512,2
51.20775976849654,68,512,1
51.20795625863531,60,512,2
51.22116948381264,60,512,2
51.23447563345445,60,512,2
51.24655453456331,44,512,1
51.24787669132768,60,512,2
51.2613747126975,60,512,2
51.27497182798393,60,512,2
51.28867024666225,60,512,2
51.29714153146229,22,512,1
51.30247226142733,60,512,2
51.30630636190366,55,512,1
51.30640250914789,19,512,1
51.31637069491651,60,512,2
51.33032303087075,60,512,2
51.344329900520975,60,512,2
51.3583919475054,60,512,2
51.35981131195547,25,512,1
51.372509828213516,60,512,2
51.38668421214233,60,512,2
51.39502547606556,17,512,1
51.40091578226557,60,512,2
51.41520149655128,60,512,2
51.429487210836996,60,512,2
51.436867557201154,21,512,1
51.44377292512271,60,512,2
51.44978444391987,34,512,1
51.45425002413956,3,512,1
51.456065122251566,23,512,1
51.45805863940842,60,512,2
51.47234435369413,60,512,2
51.486630067979846,60,512,2
51.50091578226556,60,512,2
51.511969536300406,57,512,1
51.51519775964224,60,512,2
51.529421710446385,60,512,2
51.54358833719207,60,512,2
51.557698328320335,60,512,2
51.57175235859097,60,512,2
51.58575108946035,60,512,2
51.59412093609463,58,512,1
51.59969516944599,60,512,2
51.60063608996007,25,512,1
51.601717008363806,86,512,1
51.60252223134061,45,512,1
51.61358523447827,60,512,2
51.62763316033946,60,512,2
51.641849415954034,60,512,2
51.656240175580855,60,512,2
51.67081199941208,60,512,2
51.67143834470819,19,512,1
51.68309432470798,38,512,1
51.68315653626811,85,512,1
51.68557186814783,60,512,2
51.68686574291903,82,512,1
51.700527221651846,60,512,2
51.710120699351286,73,512,1
51.71568357968828,60,512,2
51.73098049507706,60,512,2
51.74642193968226,60,512,2
51.75459495774692,9,512,1
51.76201207565297,60,512,2
51.77748207118222,76,512,1
51.77775526841703,60,512,2
51.78067796395655,39,512,1
51.79365610083695,60,512,2
51.80971938865749,60,512,2
51.817427214970124,18,512,1
51.8258991491027,60,512,2
51.826915055456396,36,512,1
51.837007586672655,29,512,1
51.838657272369325,11,512,1
51.84216406766756,60,512,2
51.85657318824982,10,512,1
51.85851550087276,60,512,2
51.87454167469993,71,512,1
51.87495484160073,60,512,2
51.8914835204739,60,512,2
51.9081030073008,60,512,2
51.924635709361965,60,512,2
51.94090165296942,60,512,2
51.95691341221596,60,512,2
51.97268260056576,60,512,2
51.97617462747736,35,512,1
51.98821997076071,60,512,2
52.003535501732834,60,512,2
52.01867080146664,60,512,2
52.03373707437865,60,512,2
52.04873525776398,60,512,2
52.05327566293744,24,512,1
52.0541763900569,38,512,1
52.063666267877146,60,512,2
52.07853100058785,60,512,2
52.07898638928122,25,512,1
52.09333033201068,60,512,2
52.108065119110044,60,512,2
52.12273620028148,60,512,2
52.130370519935134,63,512,1
52.13734439591043,60,512,2
52.13947732803826,52,512,1
52.15189050890961,60,512,2
52.1663753252359,60,512,2
52.178119814905045,25,512,1
52.18079961438774,60,512,2
52.19516412988393,60,512,2
52.20946960972463,60,512,2
52.22364030320736,60,512,2
52.23764229352456,60,512,2
52.25148148862946,60,512,2
52.26516345875288,60,512,2
52.26627556023688,51,512,1
52.278693462868496,60,512,2
52.2920764725469,60,512,2
52.30531719350692,60,512,2
52.318438368335556,60,512,2
52.32338993969977,49,512,1
52.331469800782195,60,512,2
52.34218794351392,40,512,1
52.34441331146503,60,512,2
52.357270660184355,60,512,2
52.37004354873194,60,512,2
52.382733623535664,60,512,2
52.39534247815095,60,512,2
52.3965462119333,43,512,1
52.40787165560983,60,512,2
52.41459599549452,38,512,1
52.42044589064565,60,512,2
52.4307234838365,53,512,1
52.43314055594959,60,512,2
52.44595916789436,60,512,2
52.458905417022315,60,512,2
52.471983180349184,60,512,2
52.48061556677413,55,512,1
52.485196534806896,60,512,2
52.49854977195714,60,512,2
52.499435652169694,63,512,1
52.51204741412536,60,512,2
52.52530198180235,60,512,2
52.52573499584747,33,512,1
52.53828288570351,60,512,2
52.55100651197851,60,512,2
52.56348766832845,60,512,2
52.57573978950826,60,512,2
52.58777510959954,60,512,2
52.590289967441464,8,512,1
52.59525579373873,12,512,1
52.59960480740296,60,512,2
52.6099455914042,36,512,1
52.61123912991198,60,512,2
52.62265811224196,60,512,2
52.633872377684796,60,512,2
52.64489261677669,60,512,2
52.65012756479517,13,512,1
52.65572861791062,60,512,2
52.658326832234295,71,512,1
52.66638937067309,60,512,2
52.6768831544191,60,512,2
52.67917098504981,76,512,1
52.687217614586906,60,512,2
52.697399828767324,60,512,2
52.70153825924316,46,512,1
52.70743636416218,60,512,2
52.71739194417114,60,512,2
52.72728867018733,60,512,2
52.73712757579721,60,512,2
52.746909664650005,60,512,2
52.75663591165872,60,512,2
52.766307264139876,60,512,2
52.775924642895774,60,512,2
52.77724870853387,14,512,1
52.78548894324274,60,512,2
52.79500103598862,60,512,2
52.80446176836258,60,512,2
52.81390367923413,60,512,2
52.82336245504258,60,512,2
52.82598564349964,62,512,1
52.832838186429086,60,512,2
52.84233096484937,60,512,2
52.85184088258396,60,512,2
52.861368032748686,60,512,2
52.869125842177304,3,512,1
52.87091250930527,60,512,2
52.876267838168566,29,512,1
52.880474407072136,60,512,2
52.881477463242426,49,512,1
52.890053821735364,60,512,2
52.898724628148884,80,512,1
52.899650849859874,60,512,2
52.909265588900745,60,512,2
52.91570853025348,58,512,1
52.91888097351613,60,512,2
52.92849635813152,60,512,2
52.935943317337305,86,512,1
52.938111742746905,60,512,2
52.94772712736229,60,512,2
52.95108289356286,12,512,1
52.95734251197768,60,512,2
52.966957896593065,60,512,2
52.97657328120845,60,512,2
52.98618866582384,60,512,2
52.986435521227904,39,512,1
52.995804050439226,60,512,2
53.00541943505461,60,512,2
53.007557912426876,59,512,1
53.01502480895845,60,512,2
53.02461249105617,60,512,2
53.03215120596848,4,512,1
53.03418257880633,60,512,2
53.04373516877567,60,512,2
53.04576959149923,79,512,1
53.05327035665047,60,512,2
53.06278823724779,60,512,2
53.072288904526424,60,512,2
53.07875120992183,41,512,1
53.08177245159781,60,512,2
53.09123897073664,60,512,2
53.100688553391386,60,512,2
53.11012374143492,60,512,2
53.11638341750381,52,512,1
53.1195757583737,60,512,2
53.12904469452581,60,512,2
53.13736279898583,37,512,1
53.13853064101981,60,512,2
53.14803368980497,60,512,2
53.157553933661625,60,512,2
53.163939778287165,19,512,1
53.16709146621175,60,512,2
53.176646381929686,60,512,2
53.18621877615301,60,512,2
53.18687372465557,7,512,1
53.19580874509366,60,512,2
53.20541638584915,60,512,2
53.206374453785166,10,512,1
53.21501178109414,60,512,2
53.22457196746911,60,512,2
53.23409733019868,60,512,2
53.23688233277134,16,512,1
53.24358824752864,60,512,2
53.2530450909018,60,512,2
53.25558729443322,27,512,1
53.2624682251281,60,512,2
53.27185800854939,60,512,2
53.28121479319887,60,512,2
53.29053892495565,60,512,2
53.29931944139451,36,512,1
53.29983074369431,60,512,2
53.30909058342996,60,512,2
53.31838112284614,60,512,2
53.32559185879776,19,512,1
53.32770384958147,60,512,2
53.33705910011988,60,512,2
53.346447216844936,60,512,2
53.35253457129468,26,512,1
53.35586854818558,60,512,2
53.356594456585114,0,512,1
53.36532344876658,60,512,2
53.36598637178625,22,512,1
53.37112858164739,67,512,1
53.37481227956378,60,512,2
53.38433540806441,60,512,2
53.39389320843265,60,512,2
53.4034860616806,60,512,2
53.41309500449458,60,512,2
53.42268623579899,60,512,2
53.43225985323311,60,512,2
53.433482306395014,25,512,1
53.44181595354207,60,512,2
53.45135463258825,60,512,2
53.460875985362584,60,512,2
53.47038010599556,60,512,2
53.47986708776811,60,512,2
53.489337023122324,60,512,2
53.49879000367195,60,512,2
53.508226120212775,60,512,2
53.50984644369166,29,512,1
53.51770421527847,60,512,2
53.52456127208739,66,512,1
53.52723367467506,60,512,2
53.536815341082104,60,512,2
53.54645008044968,60,512,2
53.55613878290739,60,512,2
53.56111593924558,53,512,1
53.563150082749814,14,512,1
53.56588236371944,60,512,2
53.5722010982981,86,512,1
53.5756817642888,60,512,2
53.57581046491075,14,512,1
53.5825339810735,12,512,1
53.5850438070409,69,512,1
53.58553795321351,60,512,2
53.59545192739841,60,512,2
53.59857660396833,80,512,1
53.605171503620745,63,512,1
53.605424713226014,60,512,2
53.61523258512729,78,512,1
53.61550124040438,60,512,2
53.623379699790306,44,512,1
53.62572307189869,60,512,2
53.63609664824912,60,512,2
53.64138232086575,76,512,1
53.64662889876829,60,512,2
53.65102074924555,9,512,1
53.653788870901224,17,512,1
53.65732729497552,60,512,2
53.668199911769676,60,512,2
53.668721060635356,59,512,1
53.67771571439118,69,512,1
53.67792003125919,38,512,1
53.67925549775383,60,512,2
53.68291293746994,16,512,1
53.69050355643971,60,512,2
53.69493076709576,59,512,1
53.7019544404591,60,512,2
53.70540029192049,66,512,1
53.713555981713036,60,512,2
53.72500344496592,60,512,2
53.73630283600997,60,512,2
53.74745977939812,60,512,2
53.75250581576382,38,512,1
53.75847955154343,60,512,2
53.76936711020839,60,512,2
53.769617624781326,9,512,1
53.780127120854516,60,512,2
53.78520815585931,51,512,1
53.785351205074605,59,512,1
53.79076398025169,60,512,2
53.801281837688144,60,512,2
53.811684614072696,60,512,2
53.81793298076485,26,512,1
53.82197601918004,60,512,2
53.832159567255225,60,512,2
53.84223859116432,60,512,2
53.852216255253644,60,512,2
53.85733920370073,2,512,1
53.8620955670589,60,512,2
53.871879387987484,60,512,2
53.88157044308211,60,512,2
53.89117132996059,60,512,2
53.89496075478285,44,512,1
53.896343293570425,19,512,1
53.90068452701514,60,512,2
53.91012214605581,60,512,2
53.913182549970635,36,512,1
53.919610471840386,60,512,2
53.92915032906766,60,512,2
53.93874256501158,60,512,2
53.942189701268894,41,512,1
53.94838805039529,60,512,2
53.95270963207655,52,512,1
53.95808768030911,60,512,2
53.96784237517528,60,512,2
53.97765308176227,60,512,2
53.98752077425191,60,512,2
53.99601359607061,36,512,1
53.99744645536274,60,512,2
54.007431157533134,60,512,2
54.01005770661075,64,512,1
54.01746097078205,60,512,2
54.027531305913044,60,512,2
54.037642657397406,60,512,2
54.04779552983694,60,512,2
54.057990438256766,60,512,2
54.05991778878116,12,512,1
54.06822790840908,60,512,2
54.07093287384503,11,512,1
54.074809802458276,5,512,1
54.07850847708838,60,512,2
54.07933858795567,27,512,1
54.08883269245872,60,512,2
54.09920111439353,60,512,2
54.109614314828555,60,512,2
54.11996876217232,60,512,2
54.128752098042284,77,512,1
54.13025702640053,60,512,2
54.13501119700605,85,512,1
54.14048036320985,60,512,2
54.14908917743901,32,512,1
54.1506399890368,60,512,2
54.16073708275642,60,512,2
54.17077278728769,60,512,2
54.180748211111606,60,512,2
54.19066442970787,60,512,2
54.200522486915325,60,512,2
54.200930303745196,67,512,1
54.205321179722375,55,512,1
54.210323396221085,60,512,2
54.2150144741962,10,512,1
54.22006814198291,60,512,2
54.227368168316076,2,512,1
54.22975768058889,60,512,2
54.2393929415585,60,512,2
54.247344870401,39,512,1
54.24897482858842,60,512,2
54.258504220546634,60,512,2
54.26798197241776,60,512,2
54.27740891620264,60,512,2
54.286785861774774,60,512,2
54.28695488458955,34,512,1
54.29611359769614,60,512,2
54.3053928919947,60,512,2
54.31466140756941,60,512,2
54.32394587485811,60,512,2
54.33324637645949,60,512,2
54.3425629956873,60,512,2
54.35189581657904,60,512,2
54.36124492390477,60,512,2
54.36716975273329,28,512,1
54.37061040317612,60,512,2
54.37242195891788,82,512,1
54.37999234065538,60,512,2
54.382548032658065,14,512,1
54.389390823364735,60,512,2
54.39880593909571,60,512,2
54.40823777641869,60,512,2
54.41764250319737,60,512,2
54.42566564003004,68,512,1
54.42701407377702,60,512,2
54.4363528367835,60,512,2
54.445659134771496,60,512,2
54.45493330437162,60,512,2
54.46417567643292,60,512,2
54.473386576161,60,512,2
54.47719470231087,3,512,1
54.48256632325193,60,512,2
54.491715232022145,60,512,2
54.50083361153436,60,512,2
54.50992452062527,60,512,2
54.51901542971618,60,512,2
54.528106338807085,60,512,2
54.53643679235729,3,512,1
54.53719724789799,60,512,2
54.53846318012553,35,512,1
54.542215010506254,12,512,1
54.5462881569889,60,512,2
54.55537906607981,60,512,2
54.56446997517072,60,512,2
54.573560884261624,60,512,2
54.58258649861931,71,512,1
54.582651232612164,30,512,1
54.58265179335253,60,512,2
54.58943428107036,32,512,1
54.59174270244344,60,512,2
54.60083361153435,60,512,2
54.609924520625256,60,512,2
54.61880668462321,6,512,1
54.619015429716164,60,512,2
54.62810633880707,60,512,2
54.63719724789798,60,512,2
54.64628815698889,60,512,2
54.655379066079796,60,512,2
54.65555263322378,52,512,1
54.664469975170704,60,512,2
54.672498762099345,85,512,1
54.67356088426161,60,512,2
54.67498872820923,4,512,1
54.68265179335252,60,512,2
54.69174270244343,60,512,2
54.700833611534335,60,512,2
54.70337710774493,78,512,1
54.70695677662984,32,512,1
54.70993141520167,60,512,2
54.719105149900074,60,512,2
54.722112629167064,59,512,1
54.728356743613446,60,512,2
54.73460969591981,3,512,1
54.73768820717691,60,512,2
54.74472116744001,2,512,1
54.74710163934208,60,512,2
54.7565992322472,60,512,2
54.762016552110346,27,512,1
54.763477378353265,54,512,1
54.766183277332324,60,512,2
54.76856285127814,74,512,1
54.77585617174459,60,512,2
54.7758589760312,21,512,1
54.785200826829836,82,512,1
54.785620425284094,60,512,2
54.79547866794715,60,512,2
54.800693953147075,49,512,1
54.805433658130944,60,512,2
54.81551031246359,60,512,2
54.82573227666586,60,512,2
54.82780785483132,39,512,1
54.82862879283866,76,512,1
54.83564126943528,50,512,1
54.836105991693046,60,512,2
54.84663838731754,60,512,2
54.85011871346435,26,512,1
54.85733693556949,60,512,2
54.8604703905318,6,512,1
54.86820971191716,60,512,2
54.86912485053996,66,512,1
54.87070504955334,86,512,1
54.879265465600426,60,512,2
54.89051370084591,60,512,2
54.89764244220984,53,512,1
54.90196477109106,60,512,2
54.91356617330074,60,512,2
54.925013503000116,60,512,2
54.935598931013,80,512,1
54.93631276562843,60,512,2
54.947469585416655,60,512,2
54.958489238483494,60,512,2
54.969376682321716,60,512,2
54.98013658214513,60,512,2
54.99077333449571,60,512,2
55.001291088451545,60,512,2
55.01059308894563,6,512,1
55.01170495403038,60,512,2
55.0220962811125,60,512,2
55.03246521551057,60,512,2
55.04281190147108,60,512,2
55.05313648169788,60,512,2
55.06343909737509,60,512,2
55.07371988818976,60,512,2
55.08397899235394,60,512,2
55.08582998479479,48,512,1
55.09421654662645,60,512,2
55.09998598167697,84,512,1
55.104432686334135,60,512,2
55.10828667143294,81,512,1
55.11466453607731,60,512,2
55.116616532002276,53,512,1
55.124961062886825,60,512,2
55.13532350631669,60,512,2
55.14000905835006,47,512,1
55.14575314597528,60,512,2
55.15625130335932,60,512,2
55.16681934379723,60,512,2
55.17745867850984,60,512,2
55.179721666235,12,512,1
55.188170766797285,60,512,2
55.193186972570444,35,512,1
55.19887562458172,85,512,1
55.19895711836159,60,512,2
55.209819295775475,60,512,2
55.220758917108654,60,512,2
55.223801949977336,20,512,1
55.2317776587242,60,512,2
55.24287725825853,60,512,2
55.24661790713572,35,512,1
55.254059517800016,60,512,2
55.25813182147042,8,512,1
55.26282397109863,22,512,1
55.26532630728257,60,512,2
55.27667956811233,60,512,2
55.28168701642561,59,512,1
55.28812131704718,60,512,2
55.29007783970026,47,512,1
55.29105955911101,46,512,1
55.29670995460887,9,512,1
55.29899250306738,86,512,1
55.29965365035112,60,512,2
55.31127874824746,60,512,2
55.3229066552242,60,512,2
55.33453456220094,60,512,2
55.346162469177685,60,512,2
55.347104247161425,44,512,1
55.357790376154426,60,512,2
55.36495317646689,1,512,1
55.36941828313117,60,512,2
55.38104619010791,60,512,2
55.39267409708465,60,512,2
55.40430200406139,60,512,2
55.41088522314969,49,512,1
55.41594155601483,60,512,2
55.419500691550276,14,512,1
55.42761273199288,60,512,2
55.439315790930074,60,512,2
55.45105099531193,60,512,2
55.45304722805807,80,512,1
55.4628186112435,60,512,2
55.47461890851958,60,512,2
55.48645216069672,60,512,2
55.49395489075936,12,512,1
55.49831864516703,60,512,2
55.51021864323388,60,512,2
55.514606849732345,75,512,1
55.51978929646769,1,512,1
55.522240401383954,60,512,2
55.52844709166828,47,512,1
55.52933413320202,28,512,1
55.53440277867222,60,512,2
55.5467108076206,60,512,2
55.55071322989165,82,512,1
55.55916982750733,60,512,2
55.571785511150225,60,512,2
55.580440922161486,4,512,1
55.58456389476903,60,512,2
55.59751141137036,60,512,2
55.61063492817594,60,512,2
55.62375610114118,60,512,2
55.629462644927536,17,512,1
55.63683224895957,60,512,2
55.64642531835089,83,512,1
55.64986383250445,60,512,2
55.66285130483473,60,512,2
55.66832779070773,7,512,1
55.675795111379244,60,512,2
55.688695690115516,60,512,2
55.690106919898625,25,512,1
55.701553471743196,60,512,2
55.70824723163825,0,512,1
55.71437398456371,60,512,2
55.72719449738422,60,512,2
55.74001501020473,60,512,2
55.75283552302524,60,512,2
55.760508539685816,57,512,1
55.76565603584575,60,512,2
55.77337219909658,42,512,1
55.77847654866626,60,512,2
55.79129706148677,60,512,2
55.79406567807653,21,512,1
55.797671681400914,73,512,1
55.804117574307284,60,512,2
55.81683070810606,60,512,2
55.82153296160262,29,512,1
55.82922337010253,60,512,2
55.84131881683791,60,512,2
55.85313760959073,60,512,2
55.864698033595886,60,512,2
55.87601643681312,60,512,2
55.88043904613376,60,512,1
55.887107506375074,60,512,2
55.897984496199705,60,512,2
55.902438427297106,38,512,1
55.90865941592955,60,512,2
55.91246270733848,27,512,1
55.91921988613895,60,512,2
55.929686970253925,60,512,2
55.93290478958968,25,512,1
55.93722311168068,38,512,1
55.94006310970646,60,512,2
55.95035064119362,60,512,2
55.96055180286913,60,512,2
55.970668740071574,60,512,2
55.97562640996991,18,512,1
55.980703510631265,60,512,2
55.9906580897928,60,512,2
55.99385470434443,18,512,1
56.000534374786994,60,512,2
56.00294865627812,44,512,1
56.010339323711996,60,512,2
56.02016316132713,60,512,2
56.03000599714803,60,512,2
56.03437777271632,49,512,1
56.03986794175228,60,512,2
56.04667924473338,65,512,1
56.04974910679391,60,512,2
56.05964960501812,60,512,2
56.06956955027625,60,512,2
56.075307506021296,6,512,1
56.07950905754103,60,512,2
56.089468242922116,60,512,2
56.099447223681864,60,512,2
56.10944611825144,60,512,2
56.116991062051405,23,512,1
56.11933403533065,60,512,2
56.129107287644025,60,512,2
56.13641675709902,65,512,1
56.13876978861005,60,512,2
56.148325233515195,60,512,2
56.157777116190275,60,512,2
56.16600253032673,77,512,1
56.167128744080834,60,512,2
56.176383251896716,60,512,2
56.18554361400139,60,512,2
56.19461265568048,60,512,2
56.2035930634111,60,512,2
56.212527367254,60,512,2
56.22147595694497,60,512,2
56.23043890119583,60,512,2
56.234242457029445,1,512,1
56.239416269270805,60,512,2
56.24507394093583,49,512,1
56.24840813099275,60,512,2
56.2574145567495,60,512,2
56.26643561750029,60,512,2
56.269144403694916,12,512,1
56.27412669943741,46,512,1
56.27547138478225,60,512,2
56.28452193071703,60,512,2
56.29358732801748,60,512,2
56.29393352838485,49,512,1
56.29767179328141,25,512,1
56.30266764999451,60,512,2
56.31174974895406,60,512,2
56.320801981151945,60,512,2
56.32809034549977,32,512,1
56.329824639634964,60,512,2
56.33881801268575,60,512,2
56.347782383930586,60,512,2
56.35502162010499,79,512,1
56.356718032444064,60,512,2
56.36562523285074,60,512,2
56.374504255423886,60,512,2
56.38335536618146,60,512,2
56.392178826979354,60,512,2
56.40097489560202,60,512,2
56.409743825850605,60,512,2
56.41226429604822,12,512,1
56.41848586762862,60,512,2
56.42720126702526,60,512,2
56.43589026639646,60,512,2
56.444553104443735,60,512,2
56.446291136196464,43,512,1
56.45319001629089,60,512,2
56.45714087022419,4,512,1
56.461801233558695,60,512,2
56.470386984437525,60,512,2
56.47894749375811,60,512,2
56.487482983060424,60,512,2
56.49599367066072,60,512,2
56.504479771716866,60,512,2
56.51294791826544,60,512,2
56.5214039372751,60,512,2
56.52984788072663,60,512,2
56.53827980023042,60,512,2
56.546699747030175,60,512,2
56.548387045242656,18,512,1
56.555107772006544,60,512,2
56.56311777646537,71,512,1
56.56350392568071,60,512,2
56.571888258217946,60,512,2
56.58026081943109,60,512,2
56.588621658784035,60,512,2
56.59697082539513,60,512,2
56.60349160386296,77,512,1
56.60530836804054,60,512,2
56.61366387843604,60,512,2
56.62205453623345,60,512,2
56.630480788105395,60,512,2
56.63106481763015,43,512,1
56.63894309025813,60,512,2
56.64744190871866,60,512,2
56.650796558406604,16,512,1
56.655977719633114,60,512,2
56.66455100957685,60,512,2
56.673162275876884,60,512,2
56.681812026947256,60,512,2
56.68970854197597,40,512,1
56.69050078263794,60,512,2
56.69820496444387,5,512,1
56.699229074598016,60,512,2
56.70476837774587,33,512,1
56.70799744665376,60,512,2
56.716769376478325,60,512,2
56.72554130630289,60,512,2
56.73431323612745,60,512,2
56.73537523099931,80,512,1
56.74308516595201,60,512,2
56.74431650853912,49,512,1
56.75185709577657,60,512,2
56.7521115803716,31,512,1
56.76062902560113,60,512,2
56.769400955425695,60,512,2
56.77817288525026,60,512,2
56.780381182449155,8,512,1
56.78694481507482,60,512,2
56.79571674489938,60,512,2
56.80448867472394,60,512,2
56.813281376959175,60,512,2
56.814147358022566,35,512,1
56.822115055952494,60,512,2
56.83099028908086,60,512,2
56.83305353213274,24,512,1
56.83789673613519,6,512,1
56.839907667395856,60,512,2
56.84533589729836,35,512,1
56.84886779608115,60,512,2
56.85083201816235,36,512,1
56.857871294929794,60,512,2
56.864603861754006,3,512,1
56.86691879884241,60,512,2
56.87601095834748,60,512,2
56.88514844014483,60,512,2
56.88862862576855,15,512,1
56.892491744969675,27,512,1
56.893980064372286,64,512,1
56.8943319276737,60,512,2
56.896612653059904,55,512,1
56.90356212170664,60,512,2
56.91014949970829,64,512,1
56.912845877163555,60,512,2
56.92118345333442,79,512,1
56.92219408900131,60,512,2
56.93160811547646,60,512,2
56.93710243341651,75,512,1
56.937899747592944,80,512,1
56.941089363159136,60,512,2
56.95043456246025,72,512,1
56.95063928937119,60,512,2
56.96025940478468,60,512,2
56.965739615172254,46,512,1
56.96995127619384,60,512,2
56.97335970307104,69,512,1
56.974003214822105,32,512,1
56.97971652947485,60,512,2
56.989556852749175,60,512,2
56.99197486281375,76,512,1
56.99643748532166,36,512,1
56.99947399976787,60,512,2
57.009469793536,60,512,2
57.01712188193397,37,512,1
57.01943205730359,60,512,2
57.029354928582265,60,512,2
57.03923887160564,60,512,2
57.049084341553176,60,512,2
57.05889178479563,60,512,2
57.068661639132,60,512,2
57.074228764681884,33,512,1
57.07839433401838,60,512,2
57.0880902907889,60,512,2
57.097141319933236,12,512,1
57.09774992286935,60,512,2
57.10200350851169,55,512,1
57.10295926348701,60,512,1
57.1073736359835,60,512,2
57.117002674642336,60,512,2
57.11729606648956,15,512,1
57.12220243877123,76,512,1
57.12664960225223,60,512,2
57.13473569498295,75,512,1
57.136314518825785,60,512,2
57.14599752531065,60,512,2
57.15569872360179,60,512,2
57.15844950376992,53,512,1
57.1637008927979,22,512,1
57.165418216553995,60,512,2
57.17515610799458,60,512,2
57.17606409776463,57,512,1
57.18212027850222,14,512,1
57.18491250273628,60,512,2
57.19468750659042,60,512,2
57.20448122638025,60,512,2
57.214293769954594,60,512,2
57.216140907376946,57,512,1
57.22412524620161,60,512,2
57.23397576506293,60,512,2
57.24384543754795,60,512,2
57.2477640332174,35,512,1
57.25227448253783,22,512,1
57.253734375748394,60,512,2
57.26364269285317,60,512,2
57.26786928105614,44,512,1
57.27357050316342,60,512,2
57.28198917359233,31,512,1
57.28351792210791,60,512,2
57.29348506625866,60,512,2
57.30253501015823,52,512,1
57.30347205334683,60,512,2
57.31347900227894,60,512,2
57.32350603315334,60,512,2
57.32569150980371,25,512,1
57.333553267277026,60,512,2
57.3436208271827,60,512,2
57.35318469425318,73,512,1
57.353708836646184,60,512,2
57.36234028175023,81,512,1
57.363817420704166,60,512,2
57.37394670567221,60,512,2
57.38409681916318,60,512,2
57.39426789010594,60,512,2
57.404460048764406,60,512,2
57.41464558835491,60,512,2
57.42478903458431,60,512,2
57.427496257518634,68,512,1
57.43489090575419,60,512,2
57.44495170960763,60,512,2
57.45389775319336,85,512,1
57.45497194362808,60,512,2
57.458429503898905,34,512,1
57.463539056669255,83,512,1
57.46495209532742,60,512,2
57.474892642523706,60,512,2
57.479531671764846,47,512,1
57.48479405360906,60,512,2
57.494656787808076,60,512,2
57.50079641606002,34,512,1
57.50448129542725,60,512,2
57.51428521699587,60,512,2
57.5240891385645,60,512,2
57.533893060133124,60,512,2
57.538576559879544,23,512,1
57.542502463249754,38,512,1
57.54369698170175,60,512,2
57.553500903270375,60,512,2
57.563304824839,60,512,2
57.57310874640763,60,512,2
57.58291266797625,60,512,2
57.59271658954488,60,512,2
57.602520511113504,60,512,2
57.606438679272664,43,512,1
57.61231475170477,60,512,2
57.622071554604716,60,512,2
57.62597910991974,45,512,1
57.63179134640259,60,512,2
57.64147454564131,60,512,2
57.6511215630284,60,512,2
57.66073280163998,60,512,2
57.670308657117914,60,512,2
57.67984951786044,60,512,2
57.689355765206614,60,512,2
57.69882777361471,60,512,2
57.70826591083489,60,512,2
57.71765593887197,60,512,2
57.72699655172692,60,512,2
57.727360821440456,15,512,1
57.736288522759025,60,512,2
57.73672234149509,26,512,1
57.73877832603284,25,512,1
57.74553260534323,60,512,2
57.754729533586215,60,512,2
57.7556271154305,7,512,1
57.763880023009854,60,512,2
57.772984771203745,60,512,2
57.77299592655293,71,512,1
57.78204445844861,60,512,2
57.791059748312044,60,512,2
57.80003128821818,60,512,2
57.80896000930591,60,512,2
57.81793164462876,60,512,2
57.82694681795971,60,512,2
57.8288487412349,50,512,1
57.835249340839496,33,512,1
57.8360061683159,60,512,2
57.845110350484944,60,512,2
57.85426003557489,60,512,2
57.863455911589,60,512,2
57.86583195161589,71,512,1
57.867277640402186,54,512,1
57.872432730841766,83,512,1
57.87269868402685,60,512,2
57.8819890765132,60,512,2
57.88894054604909,18,512,1
57.890867477675094,3,512,1
57.89132783145618,60,512,2
57.90071571073653,60,512,2
57.90202656921696,26,512,1
57.91015349642967,60,512,2
57.91964199156257,60,512,2
57.92918202090742,60,512,2
57.93348013353468,23,512,1
57.93877443181439,60,512,2
57.948420095085794,60,512,2
57.95811990589428,60,512,2
57.96787478474766,60,512,2
57.97757295571775,80,512,1
57.97768567850343,60,512,2
57.98348030152412,72,512,1
57.98755356143608,60,512,2
57.992654992169214,48,512,1
57.992687812978645,81,512,1
57.997479436360614,60,512,2
58.00746433581591,60,512,2
58.00981415721537,56,512,1
58.01743456735337,60,512,2
58.0273653120584,60,512,2
58.03725703601327,60,512,2
58.04711019619577,60,512,2
58.054624902101075,44,512,1
58.056925240726365,60,512,2
58.06670260910687,60,512,2
58.07094243066106,38,512,1
58.07644273245084,60,512,2
58.08614603370614,60,512,2
58.08915927745805,20,512,1
58.09249375787697,38,512,1
58.09581292786996,60,512,2
58.105443822196584,60,512,2
58.108612334115875,55,512,1
58.11506928360051,60,512,2
58.116459642622,63,512,1
58.124712614000636,60,512,2
58.12623945574462,40,512,1
58.13437391322341,60,512,2
58.144053282027905,60,512,2
58.15375082211801,60,512,2
58.16346663615494,60,512,2
58.16553429560864,76,512,1
58.17320082776985,60,512,2
58.1829535015767,60,512,2
58.186249224694876,77,512,1
58.192402271660946,37,512,1
58.1927247631854,60,512,2
58.194802540007856,38,512,1
58.19494597770369,87,512,1
58.202291166136106,15,512,1
58.2025147192151,60,512,2
58.21232347730774,60,512,2
58.22215114614183,60,512,2
58.2319978354465,60,512,2
58.24186365601574,60,512,2
58.244184467894144,0,512,1
58.245188083117824,48,512,1
58.25174871972294,60,512,2
58.260211922459256,72,512,1
58.26165313953567,60,512,2
58.27157702953069,60,512,2
58.28152050490928,60,512,2
58.2914836820128,60,512,2
58.30146667833857,60,512,2
58.31145203303513,60,512,2
58.316266436830084,39,512,1
58.32133880934621,60,512,2
58.3311298795655,60,512,2
58.34082797890117,60,512,2
58.350435714475836,60,512,2
58.3599555735802,60,512,2
58.361475238338734,46,512,1
58.36938993125448,60,512,2
58.37136233651241,17,512,1
58.37874105726356,60,512,2
58.38801112252405,60,512,2
58.39720220503504,60,512,2
58.404609207726146,52,512,1
58.40631629535869,60,512,2
58.41172099852345,50,512,1
58.41545970671022,60,512,2
58.41716553639474,42,512,1
58.42468020323015,60,512,2
58.433979762328796,60,512,2
58.44336044727887,60,512,2
58.45028457391538,84,512,1
58.45282441252061,60,512,2
58.46237390939541,60,512,2
58.47201129235113,60,512,2
58.478972433248856,76,512,1
58.480912448409974,22,512,1
58.48166311699902,28,512,1
58.48173902566725,60,512,2
58.49155969075417,60,512,2
58.501475994087464,60,512,2
58.51147304297046,60,512,2
58.51193738932718,19,512,1
58.51472980981064,49,512,1
58.52145014941626,60,512,2
58.53140743237481,60,512,2
58.541345009617764,60,512,2
58.547995786437944,44,512,1
58.55126299775478,60,512,2
58.56116151224952,60,512,2
58.571040667435334,60,512,2
58.58090057653074,60,512,2
58.590741351654536,60,512,2
58.600563103840734,60,512,2
58.610364860936,60,512,2
58.62012909430033,60,512,2
58.62985623215323,60,512,2
58.631297622331864,73,512,1
58.639546694624904,60,512,2
58.64040487824018,59,512,1
58.64699027413732,23,512,1
58.64920089396871,60,512,2
58.65881923476646,60,512,2
58.65894523236601,74,512,1
58.66840211412691,60,512,2
58.677949921877726,60,512,2
58.68746304075106,60,512,2
58.69694184656321,60,512,2
58.70451336724843,41,512,1
58.706386708388365,60,512,2
58.709543693619175,11,512,1
58.71496770112816,27,512,1
58.71583205266374,60,512,2
58.72529428030266,60,512,2
58.733604630288376,57,512,1
58.73477348211164,60,512,2
58.74426974971383,60,512,2
58.75108123352165,68,512,1
58.751640307311476,29,512,1
58.75378317555932,60,512,2
58.763313852935646,60,512,2
58.766575683054725,10,512,1
58.77286187597843,60,512,2
58.782427339682215,60,512,2
58.78978269485687,35,512,1
58.79201033991147,60,512,2
58.8016109734118,60,512,2
58.811232319462825,60,512,2
58.82088942395619,60,512,2
58.822792652777274,29,512,1
58.83058268807298,60,512,2
58.837242049124946,81,512,1
58.840312520546654,60,512,2
58.850079337863484,60,512,2
58.85988356446991,60,512,2
58.86297546761029,84,512,1
58.86972563298705,60,512,2
58.87960598443269,60,512,2
58.88952506845114,60,512,2
58.89554693685332,32,512,1
58.89948334355113,60,512,2
58.90948127735234,60,512,2
58.91950027593321,60,512,2
58.92953942918492,60,512,2
58.93199728279796,64,512,1
58.93959885914873,60,512,2
58.94967868910204,60,512,2
58.95977904357599,60,512,2
58.960379383126195,24,512,1
58.960890031776664,1,512,1
58.969900048373354,60,512,2
58.98004183058681,60,512,2
58.990204518617546,60,512,2
59.00038824219414,60,512,2
59.00565644882068,56,512,1
59.01059798647468,60,512,2
59.01488092259948,71,512,1
59.015209913883325,65,512,1
59.02095893263196,60,512,2
59.0314779682045,60,512,2
59.04216251830627,60,512,2
59.05302060611918,60,512,2
59.05317354083282,68,512,1
59.06100367494777,67,512,1
59.064060922411194,60,512,2
59.07057571864984,34,512,1
59.0752929057797,60,512,2
59.08380241166095,56,512,1
59.08672683571093,60,512,2
59.09837394104471,60,512,2
59.11024652707475,60,512,2
59.119706000675386,5,512,1
59.122358125345514,60,512,2
59.13472367129408,60,512,2
59.14178398251609,28,512,1
59.1473597163222,60,512,2
59.16028468280369,60,512,2
59.168550886635856,9,512,1
59.173519173127154,60,512,2
59.181304556362306,84,512,1
59.18309541991542,43,512,1
59.18708634742538,60,512,2
59.19646401736345,71,512,1
59.19948977343799,73,512,1
59.201012389571076,60,512,2
59.215310511230435,60,512,2
59.229786194178736,60,512,2
59.23969249138501,56,512,1
59.244446193246354,60,512,2
59.25929770153854,60,512,2
59.26269270423983,85,512,1
59.27434839122871,60,512,2
59.28960645935907,60,512,2
59.29950343476191,64,512,1
59.30508067941992,60,512,2
59.31082233221188,78,512,1
59.31642751913636,5,512,1
59.320906696720925,60,512,2
59.33739340314897,60,512,2
59.35462971394496,60,512,2
59.368377290982984,44,512,1
59.368386571541684,3,512,1
59.37144135663665,60,512,1
59.372726233108175,60,512,2
59.3750073490582,42,512,1
59.377334602716836,58,512,1
59.38852983968706,55,512,1
59.39182339466609,60,512,2
59.406770819716264,40,512,1
59.41210397369716,60,512,2
59.43314958665186,60,512,2
59.45289737600203,76,512,1
59.45457478367284,60,512,2
59.476400739347326,60,512,2
59.4986506649885,60,512,2
59.52135009304939,60,512,2
59.541032588091085,18,512,1
59.544995231042705,60,512,2
59.545240376695396,49,512,1
59.556826448819656,50,512,1
59.569747472542936,60,512,2
59.57498730364764,47,512,1
59.59577544592225,60,512,2
59.602447895187005,57,512,1
59.61009005663936,83,512,1
59.61141166032868,50,512,1
59.62329487411648,60,512,2
59.63509482737514,44,512,1
59.65341116960152,60,512,2
59.66065928889027,22,512,1
59.687205617305686,60,512,2
59.68881712671135,79,512,1
59.71698480467484,78,512,1
59.7262027881677,69,512,1
59.726367052057014,60,512,2
59.73534189891477,5,512,1
59.74126562136175,29,512,1
59.750710067798906,29,512,1
59.77560724458913,60,512,2
59.7795311108495,51,512,1
59.79003174297852,17,512,1
59.8376727830072,0,512,1
59.85015074527375,60,512,2
59.85494589777676,82,512,1
59.91104822640606,33,512,1
59.975245032136336,60,512,2
59.97997227204293,8,512,1
