onset_time,pitch,velocity,voice_id
0.015278661601584748,47,287,0
0.125590644744382,59,437,1
0.13268090043457548,45,262,0
0.15057681830824857,49,312,0
0.1849784386265507,54,375,0
0.23450551256472085,48,300,0
0.2580851297248453,58,425,1
0.26177207327362995,57,412,1
0.2861700791919235,76,650,3
0.33921604620425755,67,537,2
0.3593624579794974,65,512,2
0.41078132952289637,60,450,1
0.4795018847455542,49,312,0
0.506700616764164,59,437,1
0.518657021409068,70,575,2
0.582361251713698,66,525,2
0.6166124374436358,46,275,0
0.6416426606361525,53,362,1
0.6465720082341584,70,575,2
0.7139947543250021,48,300,0
0.7157867943419858,80,700,3
0.7176751353373028,45,262,0
0.767942254717054,80,700,3
0.8830892807162629,48,300,0
0.8848938427372516,51,337,1
0.9179159022203247,69,562,2
0.9322149507290353,66,525,2
0.9458948069912668,51,337,0
0.9459636820678994,72,600,3
0.9874243515608552,61,462,1
0.9879835287023307,65,512,2
1.0257954253878134,77,662,3
1.0334885271561844,55,387,1
1.0374861279241319,84,750,3
1.078451891004017,59,437,1
1.0963417745773234,67,537,2
1.1071549508886747,58,425,1
1.1483605881762282,52,350,0
1.1627309241047699,65,512,1
1.1850598819326918,51,337,0
1.1923807551070433,49,312,0
1.2012077641144532,64,500,2
1.2064561543982086,79,687,3
1.275211336743165,56,400,1
1.2964500959401093,68,550,2
1.3339620973378783,80,700,3
1.3662649072866697,64,500,2
1.4260032545276742,76,650,3
1.4442267346600497,54,375,0
1.475449416626962,47,287,0
1.530237727408544,68,550,2
1.5403464340293878,46,275,0
1.557850744209694,67,537,2
1.5640495563123518,65,512,2
1.5861941338090144,59,437,1
1.5878387353802499,40,200,0
1.590758054619028,60,450,1
1.5978088194359201,48,300,0
1.621743843819452,57,412,1
1.6449817629055752,58,425,1
1.6492449852911413,63,487,2
1.659750823236697,56,400,1
1.7103826844066714,56,400,1
1.715424940631668,83,737,3
1.7225207731688161,87,787,3
1.786589241925315,57,412,1
1.8294265284582112,50,325,0
1.9143219142197667,75,637,3
1.9304709092514365,59,437,1
1.9883792740274513,61,462,1
2.04047948164347,70,575,2
2.0656855944933077,51,337,0
2.090556269213291,52,350,1
2.1151582324819724,65,512,2
2.1218526436179603,63,487,2
2.12647162547531,76,650,3
2.1946069307579505,60,450,1
2.2170967887995645,59,437,1
2.228949587531804,73,612,3
2.323568325808662,61,462,1
2.3358946823492603,77,662,3
2.510263979408644,47,287,0
2.5170990698508833,54,375,1
2.5467241865608243,81,712,3
2.547533687432857,70,575,3
2.551723119337255,53,362,1
2.5711072379076114,55,387,0
2.5801750058088713,83,737,3
2.592328515547333,79,687,3
2.6476208964487293,57,412,1
2.669148564540616,82,725,3
2.691261672218147,75,637,3
2.7231219726063807,81,712,3
2.7635048161722136,54,375,1
2.8106395859428175,72,600,3
2.812682425155262,87,787,3
2.8287854354182094,88,800,3
2.832152573041042,73,612,3
2.9573299879643082,50,325,0
2.9916956877839613,78,675,3
3.0310993024093893,43,237,0
3.0616552565143804,68,550,2
3.1695778753729607,49,312,0
3.173079510014581,70,575,3
3.180340719525367,47,287,0
3.32660056154785,65,512,2
3.4645886990569,52,350,0
3.507507845645017,56,400,1
3.508817056770011,47,287,0
3.520462434798981,70,575,3
3.5468451290767797,44,250,0
3.547487972872416,48,300,0
3.583555638210541,85,762,3
3.5923361827184093,57,412,1
3.603650979613847,72,600,2
3.645012762251679,63,487,1
3.645427363742555,45,262,0
3.701696680925638,60,450,1
3.726114063644155,40,200,0
3.748235296400076,73,612,3
3.768815365218377,58,425,1
3.7771489884814216,51,337,1
3.8183944374437058,79,687,3
3.8337611839929195,68,550,2
3.852567629316833,44,250,0
3.9104264634274486,64,500,1
3.9752798392665527,50,325,1
4.039079899829463,55,387,1
4.049810807192109,69,562,2
4.051645321906,60,450,1
4.089662582899669,65,512,1
4.138253164735085,59,437,1
4.247771593180432,66,525,2
4.3308219998117945,48,300,0
4.351794244253533,78,675,3
4.356880437342727,69,562,2
4.421677420930399,72,600,2
4.444476415155641,73,612,3
4.5558766090991645,55,387,1
4.5844963048685194,53,362,1
4.62997158290031,45,262,0
4.727433647467331,60,450,2
4.733444477376508,64,500,1
4.7692359932186825,82,725,3
4.798432366617095,55,387,1
4.817817178673693,64,500,1
4.822979947608027,60,450,1
4.856050216645161,82,725,3
4.909265930743836,58,425,1
4.92137046196569,74,625,2
4.931177570241255,52,350,0
5.024299929593894,42,225,0
5.0258743646540065,73,612,3
5.038029431546686,44,250,0
5.06297529670561,43,237,0
5.083600289407102,82,725,3
5.137312035253772,79,687,3
5.1839207725394765,88,800,3
5.23248249091977,74,625,3
5.258826075838774,86,775,3
5.311073985603317,59,437,1
5.3117842950242755,63,487,2
5.314251208577796,61,462,1
5.324830846489848,75,637,2
5.349307384337383,60,450,1
5.357807321468687,75,637,3
5.379491641055727,71,587,3
5.417448240110415,69,562,2
5.445283272871099,48,300,0
5.5116518196277084,52,350,0
5.572974116704503,50,325,1
5.644335122511567,61,462,1
5.6584394067849395,78,675,3
5.665182868561099,50,325,1
5.705032968256278,81,712,3
5.74929021974156,63,487,2
5.750573340290535,64,500,2
5.761977735615011,47,287,0
5.879809414254493,76,650,3
5.88897399645741,58,425,1
5.890985836146194,73,612,2
5.901388023480156,46,275,0
5.910060981621666,54,375,1
6.014551386861306,82,725,3
6.025260025154973,52,350,0
6.041012614058332,62,475,2
6.043050106893722,55,387,1
6.047860896705939,54,375,1
6.065554356117736,55,387,0
6.090408562209265,82,725,3
6.123461988598204,65,512,2
6.172108590098884,76,650,3
6.241287516903713,74,625,3
6.247189684124453,79,687,3
6.260784943438112,58,425,1
6.3223668713706,64,500,2
6.3266170391950505,55,387,1
6.349376306655591,48,300,0
6.350110533490733,69,562,2
6.378350691942367,40,200,0
6.396901349628354,59,437,1
6.443014668487841,74,625,3
6.443125039595552,42,225,0
6.480425880847505,81,712,3
6.489314137463034,66,525,2
6.519717220742347,73,612,2
6.5211230373212405,55,387,1
6.724709624871446,79,687,3
6.761396114422593,50,325,1
6.783218390068869,51,337,1
6.931895777994557,77,662,3
7.047923364425575,54,375,1
7.0740210940315835,49,312,0
7.095969993743326,80,700,3
7.121765006286735,54,375,1
7.239954131379205,53,362,1
7.240367709987912,48,300,0
7.26143822241634,55,387,1
7.302762483738986,58,425,1
7.313979938049509,40,200,0
7.342585251821659,73,612,3
7.41679104959007,49,312,0
7.441826341276717,82,725,3
7.483011419213116,49,312,0
7.5644313887920465,67,537,2
7.590727943978634,70,575,3
7.645291356625524,42,225,0
7.665275120279463,70,575,2
7.679125772044867,70,575,3
7.70897735603762,53,362,0
7.739200549278869,57,412,1
7.847615182830177,48,300,0
7.87640983873579,61,462,1
7.904774122686115,75,637,3
7.908940309547242,65,512,2
7.979204521478453,73,612,2
7.984546640932401,56,400,1
8.000092226073749,49,312,0
8.002993785823813,75,637,3
8.004206335137146,53,362,1
8.030915813402258,68,550,2
8.117652306191552,45,262,0
8.12347237005509,73,612,3
8.193671098110434,72,600,2
8.21472777049653,53,362,0
8.23924444515346,76,650,3
8.243574634226704,55,387,0
8.271336627479538,48,300,0
8.326595847813403,77,662,3
8.392979233872422,57,412,1
8.421286460710096,66,525,2
8.46988113114248,53,362,0
8.472253763251405,57,412,1
8.495993191548784,60,450,1
8.51275102113086,43,237,0
8.529050825176368,55,387,1
8.611053998644536,71,587,2
8.646126717230244,47,287,0
8.683007562357574,73,612,3
8.690642671056391,44,250,0
8.710148160100742,46,275,0
8.772917253523199,65,512,2
8.774828398619636,44,250,0
8.820228648323146,61,462,1
8.821260195659324,46,275,0
8.85612493877189,50,325,0
8.865089200028216,52,350,1
8.919389641448054,66,525,2
8.921279160138573,56,400,1
8.945940256527726,62,475,2
8.955873365253273,81,712,3
8.9669980003029,41,212,0
9.002184534402854,42,225,0
9.079110673699933,65,512,2
9.174361576259425,46,275,0
9.233398646698047,80,700,3
9.241728471409886,65,512,2
9.261033467358013,57,412,1
9.282851025435264,75,637,3
9.333547770678216,49,312,0
9.382143099277116,66,525,2
9.383614370323809,67,537,2
9.39931619464013,70,575,2
9.482085166908947,54,375,0
9.495636754482314,46,275,0
9.514870767279687,67,537,2
9.68576658049848,65,512,1
9.834622524149852,60,450,1
9.842502649855213,68,550,2
9.855141589025862,47,287,0
9.89409835162378,79,687,3
9.906416146094573,77,662,3
9.942622695584353,45,262,0
9.951200353413752,81,712,3
10.00620948468241,72,600,3
10.032516995450077,68,550,2
10.045416866001752,52,350,1
10.051300873494355,67,537,2
10.096501687019266,59,437,1
10.184154718732753,81,712,3
10.186716371029966,69,562,2
10.220219481031625,64,500,2
10.23003852074975,45,262,0
10.257709768320552,48,300,0
10.257834141307328,63,487,1
10.290072731872788,80,700,3
10.332175676722965,76,650,3
10.353171068369498,75,637,3
10.355220045738777,68,550,2
10.370523406237439,45,262,0
10.4009435853888,62,475,2
10.411629654446212,55,387,1
10.42061774195404,69,562,2
10.427092982182366,88,800,3
10.47162751601864,66,525,2
10.482925969921736,58,425,1
10.485014991243323,76,650,3
10.598354040740444,72,600,2
10.645205636292413,65,512,1
10.66774166888308,62,475,2
10.688713264855078,61,462,2
10.791042112866972,50,325,0
10.796986699024124,71,587,2
10.825412122903389,64,500,1
10.875784052286566,55,387,1
10.889361721242674,69,562,2
10.905832502121907,83,737,3
10.97682168666585,55,387,1
11.032022107997738,63,487,1
11.036840706921131,80,700,3
11.096675439645454,67,537,2
11.127117595520033,71,587,2
11.145453173769498,62,475,1
11.188471966390996,70,575,2
11.26497023781853,64,500,2
11.273350435603813,80,700,3
11.29058348102854,53,362,1
11.297903432560036,82,725,3
11.300136332030853,66,525,2
11.304740287427137,60,450,1
11.31330695446098,63,487,1
11.385746919923411,68,550,2
11.389452085157597,80,700,3
11.45833804942463,65,512,1
11.506067088874085,77,662,3
11.559967283159507,66,525,2
11.621547439588833,46,275,0
11.623968693261373,54,375,1
11.624605624462859,49,312,0
11.630795028425133,55,387,1
11.632508647412163,64,500,1
11.694382336804814,53,362,1
11.706660127488211,51,337,0
11.743919914328476,65,512,2
11.749722140924344,50,325,0
11.757952304541302,44,250,0
11.808846339176476,76,650,3
11.863339424633244,49,312,0
11.863976455701012,50,325,0
11.8884843480664,57,412,1
11.903846517962648,71,587,2
11.975679080906362,66,525,2
11.982087679228446,46,275,0
12.04161768201404,69,562,2
12.062352067598162,66,525,2
12.065379612785227,65,512,2
12.082960266519825,75,637,3
12.10787992697268,70,575,2
12.107998959874333,68,550,2
12.109851189769918,57,412,1
12.118943659236507,73,612,3
12.126631356166216,76,650,3
12.140992428946188,81,712,3
12.143601825494855,64,500,2
12.194809257414342,70,575,3
12.223379656394,70,575,2
12.237289901853398,53,362,0
12.253707718888972,71,587,2
12.262280248961865,81,712,3
12.262768690064243,87,787,3
12.361829316608405,63,487,2
12.364327791311172,64,500,2
12.365624741312663,75,637,2
12.410579806449244,77,662,3
12.429511559647631,72,600,3
12.441534419981659,84,750,3
12.467238608878118,55,387,1
12.506131818034689,46,275,0
12.513940844629946,67,537,2
12.517458951461487,86,775,3
12.542520558800472,82,725,3
12.572231329031503,77,662,3
12.573676712063902,62,475,2
12.60187925793514,54,375,1
12.649836077654392,82,725,3
12.677133079323749,67,537,2
12.679721116067446,86,775,3
12.738168062113003,70,575,3
12.844864553171728,54,375,1
12.891892243050506,45,262,0
12.908285578434429,83,737,3
12.91021172795845,65,512,2
13.059526234482504,56,400,1
13.060210994937956,45,262,0
13.069057447023825,66,525,2
13.085737873490784,48,300,0
13.114869109040969,55,387,1
13.15703291932089,50,325,0
13.278155867516634,70,575,2
13.282645864815182,83,737,3
13.317943637515095,62,475,2
13.400270946232675,79,687,3
13.405907453875411,61,462,2
13.407152729352784,72,600,3
13.428367369443817,46,275,0
13.45240197325144,67,537,2
13.465171517417186,51,337,0
13.490594462755205,54,375,1
13.529338073455687,82,725,3
13.538390465865882,54,375,0
13.658334934534205,44,250,0
13.671971494894146,50,325,0
13.725308742498946,83,737,3
13.734695419162279,60,450,2
13.73593385083282,73,612,3
13.756166444655182,52,350,0
13.756524550866736,51,337,1
13.761883252173867,45,262,0
13.771648024446566,66,525,2
13.800710045021948,78,675,3
13.807116017244962,62,475,2
13.808561391994223,42,225,0
13.832288059064059,64,500,1
13.862032640687438,59,437,1
13.876015562948421,70,575,2
13.876292102389403,62,475,2
13.913737385817273,58,425,1
13.91459315398108,75,637,3
13.920109798063832,72,600,3
13.925747682633355,71,587,2
13.982872213405733,49,312,0
14.020787953392448,87,787,3
14.022598677167695,66,525,2
14.057848777183613,71,587,2
14.063215999579775,74,625,2
14.09948468455841,68,550,2
14.10645830030673,61,462,1
14.139999565233637,49,312,0
14.32556800697379,53,362,1
14.389962272379899,77,662,3
14.404127249139064,88,800,3
14.419241422252489,57,412,1
14.489407832810151,75,637,2
14.494956590062717,45,262,0
14.672281251262762,63,487,1
14.682470891310402,49,312,0
14.712766229494479,48,300,0
14.769404761447348,68,550,2
14.805430567966178,85,762,3
14.814117570852627,66,525,2
14.90712263856202,56,400,1
14.98456623183864,60,450,1
14.989060184931477,67,537,2
14.993142635702933,74,625,3
15.00696311344838,46,275,0
15.014423136446132,57,412,1
15.076552910208306,85,762,3
15.09785677214241,71,587,2
15.107407092738693,49,312,0
15.132109534859424,59,437,1
15.18325842906104,71,587,3
15.192856895291989,64,500,2
15.194227594247838,75,637,3
15.340366041381557,46,275,0
15.343530188325989,77,662,3
15.41642686164801,63,487,2
15.428570200912649,58,425,1
15.479702098644598,63,487,2
15.514850173824936,76,650,3
15.530430457659996,69,562,2
15.543096292614326,80,700,3
15.574567703611242,50,325,1
15.588413170253839,66,525,2
15.658421903800976,76,650,3
15.660033748703713,49,312,0
15.762279276735145,74,625,3
15.773797137467845,63,487,1
15.810504264225285,69,562,2
15.812886691717774,80,700,3
15.861861653022697,61,462,2
15.880766912348777,40,200,0
15.892218009885463,66,525,2
15.89658831795629,60,450,1
15.911569970719961,81,712,3
15.923524098097491,67,537,2
15.926154318806718,63,487,2
15.943417171799647,45,262,0
15.981298510120393,54,375,1
16.05390278884467,56,400,1
16.057388584469404,47,287,0
16.12824653814858,43,237,0
16.139626745482037,69,562,2
16.198777781587566,64,500,2
16.222406022825094,57,412,1
16.2267048836956,70,575,2
16.27632792920392,46,275,0
16.33818094709227,71,587,2
16.35920040488957,45,262,0
16.3763584619525,47,287,0
16.392036215834537,69,562,2
16.412016637073126,60,450,1
16.495418327095944,62,475,1
16.50559168831267,42,225,0
16.544428012588796,69,562,2
16.616735249432132,62,475,2
16.64901653536796,81,712,3
16.705012601559147,43,237,0
16.743860747129194,83,737,3
16.77078233322532,47,287,0
16.86897120604388,85,762,3
17.018831150853725,67,537,2
17.034896092154302,74,625,3
17.046218849049012,74,625,2
17.092249115693217,77,662,3
17.102578443000233,61,462,1
17.130248626785036,86,775,3
17.1628970408935,60,450,1
17.16917625300855,60,450,2
17.17927861176014,80,700,3
17.179581340968227,78,675,3
17.182512666144667,70,575,2
17.206037869115992,54,375,0
17.211831177786305,66,525,2
17.214510282004394,74,625,3
17.232813376624907,70,575,3
17.24320072753872,83,737,3
17.26443268979804,53,362,1
17.35694166944768,50,325,0
17.367544731429888,60,450,1
17.42367904484664,41,212,0
17.42484303716195,84,750,3
17.439765104375418,52,350,0
17.4475478828548,49,312,0
17.460981029378576,68,550,2
17.488072275816684,59,437,1
17.500576511673028,80,700,3
17.501585489775966,77,662,3
17.515463696282687,57,412,1
17.603676214942038,57,412,1
17.609472883245335,47,287,0
17.61997002708883,71,587,2
17.627832976127394,77,662,3
17.693988830699574,71,587,2
17.7076206336905,86,775,3
17.73878670895039,69,562,2
17.769433576337818,71,587,2
17.778779477568403,61,462,1
17.811855909228626,75,637,3
17.858899006656173,84,750,3
17.866431959530807,60,450,1
17.866505594178275,80,700,3
17.87885832454604,71,587,2
17.904302495050242,43,237,0
17.906321960255077,53,362,0
17.93389748726694,83,737,3
17.994568669709,73,612,3
18.01599803668084,43,237,0
18.0182437123569,69,562,2
18.03760795619213,68,550,2
18.03879874383622,57,412,1
18.06523611233998,50,325,1
18.06566370757385,73,612,3
18.069478274131285,51,337,1
18.07165463221859,76,650,3
18.141381341458512,64,500,2
18.15821376454335,75,637,3
18.179020093566415,46,275,0
18.18935285651986,78,675,3
18.222218873761413,53,362,0
18.243843776256167,82,725,3
18.24770000545907,85,762,3
18.31469569796738,48,300,0
18.349323820210724,57,412,1
18.367047481675762,59,437,1
18.391582327745052,71,587,3
18.406538472922538,60,450,1
18.415230796083854,63,487,1
18.50973591922536,59,437,1
18.525520592887805,50,325,0
18.55130109960089,71,587,2
18.583840674410165,51,337,1
18.590076442842904,73,612,3
18.63891435358787,47,287,0
18.69531345364146,70,575,3
18.69837790530689,46,275,0
18.708469226158634,47,287,0
18.77353761611934,62,475,1
18.78530055491567,65,512,1
18.79188129593351,52,350,0
18.794517344659074,61,462,1
18.829683807891158,60,450,1
18.87081583858041,47,287,0
18.895856381956133,49,312,0
18.904945990657087,42,225,0
18.96239219388235,77,662,3
18.98451146660415,68,550,2
18.993707465337106,49,312,0
19.044113112365633,48,300,0
19.086722278758828,52,350,0
19.110407622989143,71,587,2
19.12537344700189,63,487,1
19.22688181330987,55,387,1
19.29412061179195,67,537,2
19.30464058593015,71,587,2
19.314188553796484,53,362,0
19.332947953393003,61,462,2
19.36902347255966,51,337,0
19.442326426835553,61,462,1
19.45177950181023,76,650,3
19.571443053221916,58,425,1
19.588176234869096,48,300,0
19.59219305222176,77,662,3
19.727243699265145,67,537,2
19.753677922185744,73,612,2
19.816033227332632,80,700,3
19.855514558808306,56,400,1
19.91456137936977,51,337,0
19.91734795202984,83,737,3
19.939064345764166,50,325,1
19.99850295446248,64,500,2
20.054643025252744,43,237,0
20.13862933598865,53,362,1
20.20588809361893,80,700,3
20.239406397136765,59,437,1
20.271403872165337,62,475,2
20.281548950879394,61,462,1
20.31466523961374,56,400,1
20.38556556627326,77,662,3
20.464131151097007,74,625,3
20.574083547444253,73,612,3
20.60443374689626,59,437,1
20.617036092654036,72,600,2
20.64414803251014,80,700,3
20.66481288281649,76,650,3
20.69678231815653,56,400,1
20.71238108252404,41,212,0
20.740545187892824,74,625,3
20.794002962313293,51,337,0
20.815668852827816,41,212,0
20.831558810484644,76,650,3
20.954238544210327,76,650,3
20.97177923585525,54,375,1
21.070810229321598,57,412,1
21.19597743489318,40,200,0
21.215042886768366,78,675,3
21.21867818753119,53,362,0
21.276290896195533,45,262,0
21.31071568793304,79,687,3
21.36148935720556,59,437,1
21.42493957273222,60,450,1
21.467395437963397,65,512,2
21.46887868118539,81,712,3
21.520927240172135,59,437,1
21.562736502710404,55,387,1
21.56793701756969,70,575,2
21.617118563721352,41,212,0
21.62776444442209,51,337,0
21.703397809233383,47,287,0
21.715398854635282,55,387,1
21.717281128378506,57,412,1
21.76345868756166,73,612,2
21.80149449035383,75,637,3
21.837279056084977,54,375,1
21.862520514180606,72,600,2
21.878241783156845,55,387,1
21.887702562335257,58,425,1
21.954323769168337,74,625,3
21.971996694806787,56,400,1
21.976265606751824,46,275,0
21.99870254059637,66,525,2
22.001879641525132,73,612,2
22.077094897669802,54,375,1
22.101750524312063,66,525,2
22.158665377381862,74,625,2
22.24376353581416,59,437,1
22.426699532665214,74,625,3
22.435318464811523,47,287,0
22.621026888826815,80,700,3
22.68110953658734,75,637,3
22.701549323048713,78,675,3
22.75291020427532,75,637,2
22.76047515039504,61,462,2
22.762054197843305,58,425,1
22.826292965038746,72,600,2
22.882150263599353,64,500,2
22.885684479673927,79,687,3
22.922460540374335,59,437,1
22.9234464747901,55,387,1
22.951739352709733,62,475,2
22.98519605896301,61,462,1
23.024475773626637,83,737,3
23.035793620703632,70,575,3
23.041855972642484,85,762,3
23.113300945996365,72,600,2
23.14694399413807,58,425,1
23.150094452333672,76,650,3
23.174370713666285,60,450,1
23.178038545757165,48,300,0
23.261233822811437,45,262,0
23.307671048848686,88,800,3
23.309679283024625,48,300,0
23.335199232066973,76,650,3
23.41442579857265,71,587,2
23.4428288991341,60,450,2
23.448753958651228,75,637,3
23.54244870679459,65,512,1
23.737265977491084,50,325,1
23.76321818705753,47,287,0
23.776230746911143,63,487,2
23.922290164771386,65,512,2
23.959548352699095,64,500,2
24.044480733126747,58,425,1
24.062269701479536,76,650,3
24.07481887303092,67,537,2
24.08206353629046,65,512,2
24.10247567676408,85,762,3
24.128892422085666,56,400,1
24.15500666777121,71,587,2
24.18794156162997,76,650,3
24.23000995934818,54,375,1
24.240425931927764,51,337,1
24.28454350062861,69,562,2
24.333890429965383,74,625,3
24.36658493308738,72,600,3
24.393059718468503,65,512,1
24.393869957018513,84,750,3
24.43899304220826,57,412,1
24.595687230266975,40,200,0
24.660122154027977,68,550,2
24.66933363066336,42,225,0
24.67505584147013,43,237,0
24.72006552312359,72,600,2
24.74911931825832,46,275,0
24.84224304876363,62,475,1
24.849079528421743,78,675,3
24.90392898021508,49,312,0
24.911728161751782,73,612,2
24.93327496302778,63,487,2
25.026890257133143,54,375,0
25.02831313966087,80,700,3
25.13948720129589,60,450,1
25.154494176980744,53,362,1
25.165719452907126,42,225,0
25.18998863068785,58,425,1
25.20856999894768,59,437,1
25.252756737785965,70,575,3
25.26122830713459,59,437,1
25.39395852507623,62,475,2
25.407344141556948,66,525,2
25.41276923856569,74,625,3
25.50631627346295,78,675,3
25.542010567716925,72,600,2
25.57070347005898,76,650,3
25.612301590019445,48,300,0
25.740148913913696,60,450,1
25.747879627642217,49,312,0
25.759771681589186,61,462,2
25.75986782509385,51,337,0
25.834251381389166,76,650,3
25.87123560781209,46,275,0
25.893724567112855,66,525,2
25.900951309396778,48,300,0
25.91739810643602,67,537,2
25.925530580302627,78,675,3
26.02291914835003,52,350,1
26.07091725093011,61,462,1
26.099090599289323,48,300,0
26.129775537219096,76,650,3
26.152997320391222,49,312,0
26.153420751556627,59,437,1
26.20211388569027,80,700,3
26.22195196811984,69,562,2
26.24025132631684,49,312,0
26.257513139091916,57,412,1
26.26846536905022,70,575,2
26.32288207744263,83,737,3
26.34617410227533,72,600,2
26.380197395091507,80,700,3
26.392231338402592,40,200,0
26.395239929073316,62,475,1
26.415767908265206,46,275,0
26.428762528393232,60,450,1
26.517009313355373,57,412,1
26.53063576432256,48,300,0
26.552435088229366,41,212,0
26.606398621587534,82,725,3
26.623758909222154,70,575,3
26.654100455115277,80,700,3
26.68017567752679,62,475,1
26.697702245547525,62,475,2
26.771438796064192,52,350,0
26.822003546001184,45,262,0
26.85088411574626,83,737,3
26.920902910326863,51,337,0
26.92522373867678,69,562,2
26.953268668528796,58,425,1
26.969639256096148,61,462,1
27.01644086694063,81,712,3
27.045206088965212,85,762,3
27.14292111407384,43,237,0
27.142929853721025,77,662,3
27.21078258521464,70,575,2
27.321672656201244,60,450,1
27.394492189025776,84,750,3
27.396784859768605,73,612,3
27.449427322968916,77,662,3
27.544055368072716,80,700,3
27.54849431088678,50,325,1
27.55625398338465,64,500,1
27.56858024663518,66,525,2
27.577412828152685,47,287,0
27.617000533920628,68,550,2
27.638579133548625,45,262,0
27.646819623819898,61,462,1
27.66135693731358,60,450,1
27.709171999478325,69,562,2
27.719375886877998,65,512,2
27.72530494253817,74,625,3
27.7304964507906,55,387,1
27.77310923655479,77,662,3
27.780104152878366,82,725,3
27.815399654080505,61,462,1
27.85650590160231,84,750,3
27.876726110272546,63,487,2
27.90844986783881,79,687,3
27.98590630850824,50,325,1
28.026048076830484,85,762,3
28.052347269065987,44,250,0
28.12850296274352,69,562,2
28.130168773332908,75,637,3
28.16419402655098,78,675,3
28.2462696827003,63,487,2
28.252291331196357,87,787,3
28.29737179004658,68,550,2
28.357620913013204,57,412,1
28.363624809730496,66,525,2
28.491504146376336,80,700,3
28.51586248490786,70,575,2
28.605470055502334,67,537,2
28.619576447700773,49,312,0
28.627632036740977,64,500,2
28.637100145947635,73,612,2
28.644254791231152,66,525,2
28.66883390746037,56,400,1
28.908135624392262,60,450,1
28.91014364468987,53,362,1
28.92918524464606,57,412,1
28.933858731388952,48,300,0
28.98277790894709,82,725,3
29.111118314482514,71,587,2
29.160105988809992,67,537,2
29.171404127892117,46,275,0
29.214868713865116,70,575,2
29.234265904469183,63,487,2
29.246611705123346,57,412,1
29.25648057361441,51,337,0
29.28434891733947,66,525,2
29.2931000506312,78,675,3
29.33551449931242,49,312,0
29.35789636397508,56,400,1
29.41965848178447,54,375,1
29.42541213600024,65,512,2
29.437839923514442,46,275,0
29.44459629871142,58,425,1
29.451972322400685,41,212,0
29.454521620692606,53,362,1
29.514032012058223,80,700,3
29.523448245094464,82,725,3
29.549168149985977,56,400,1
29.738226708450387,51,337,0
29.777778690843608,83,737,3
29.83632117392383,61,462,2
29.847214488089417,50,325,1
29.857588505315967,47,287,0
29.88060674833207,76,650,3
29.953000798896184,60,450,2
29.960052297812627,53,362,1
29.961228418919884,54,375,1
29.998031080274355,73,612,3
30.023560731087702,73,612,2
30.031208825320384,60,450,1
30.090927129858944,54,375,1
30.099698067345525,63,487,2
30.108214045768253,53,362,1
30.117079519569913,66,525,2
30.205260527341366,74,625,3
30.24873630212741,56,400,1
30.295260879405554,79,687,3
30.321075495803868,60,450,1
30.37413940246317,72,600,3
30.40165628914338,83,737,3
30.404551556402613,88,800,3
30.46184563024677,44,250,0
30.49245792033634,63,487,1
30.53416500169519,72,600,2
30.605376285691555,58,425,1
30.60928671396061,41,212,0
30.626885509546586,70,575,2
30.656877582567837,67,537,2
30.662129432857693,52,350,1
30.66404845948208,53,362,0
30.687862338344665,48,300,0
30.693770811366182,44,250,0
30.74323300188956,46,275,0
30.78426496674115,76,650,3
30.79440775355224,52,350,1
30.79820017564146,40,200,0
30.839058119280637,79,687,3
30.839187131950368,56,400,1
30.879793765528134,51,337,0
30.883812865058594,73,612,2
30.964016380411287,66,525,2
31.01426984723038,48,300,0
31.025502532714164,50,325,0
31.069453794541058,40,200,0
31.09346328964667,79,687,3
31.097882751024446,48,300,0
31.108791388942628,74,625,3
31.12695707935606,86,775,3
31.129676290241328,77,662,3
31.147794363927538,81,712,3
31.229884240984703,46,275,0
31.240947924124463,66,525,2
31.317155216756234,69,562,2
31.337478345479816,49,312,0
31.379028883264787,50,325,1
31.39442686587825,78,675,3
31.444230036496347,66,525,2
31.462880777219194,58,425,1
31.463332019603513,71,587,2
31.48061358012545,47,287,0
31.511180223936986,46,275,0
31.51399540684829,44,250,0
31.518964656372635,45,262,0
31.588518360008617,83,737,3
31.595229532245835,42,225,0
31.61718020885605,76,650,3
31.62303462957841,59,437,1
31.647612317954692,50,325,1
31.78004956862952,79,687,3
31.8345869014279,55,387,1
31.83907831031483,62,475,2
31.846613193098,78,675,3
31.85581351913337,57,412,1
31.857797458335664,46,275,0
31.86911713425059,80,700,3
31.938916184918675,60,450,1
31.954634741002835,54,375,0
31.98668721089101,86,775,3
32.01263723937045,74,625,3
32.021844974600846,59,437,1
32.04781967918167,50,325,0
32.095272175790384,77,662,3
32.146039530592276,51,337,0
32.23685658105871,48,300,0
32.27881451335803,64,500,2
32.31355203390936,53,362,1
32.3146632838875,75,637,3
32.32568780234868,63,487,1
32.43545879020081,78,675,3
32.45868141258542,53,362,1
32.45893917740837,58,425,1
32.46091485036385,75,637,3
32.5086881423357,49,312,0
32.541663708408535,57,412,1
32.566230765736144,81,712,3
32.569452094309234,59,437,1
32.574683428019654,47,287,0
32.63399493421435,73,612,2
32.636511559975055,58,425,1
32.77088337725714,86,775,3
32.7887015933177,43,237,0
32.87812557824855,62,475,1
32.888165967338466,71,587,3
32.971448019382464,55,387,1
32.97865008857274,86,775,3
33.01183707171389,44,250,0
33.11563120512416,53,362,1
33.12456807308788,51,337,0
33.143550004990196,66,525,2
33.15221386754713,45,262,0
33.19279494670892,64,500,1
33.33883988550229,47,287,0
33.33952064919786,50,325,0
33.34629419532345,45,262,0
33.4019617882353,82,725,3
33.40293423944755,79,687,3
33.40853766623279,72,600,3
33.42025509674075,69,562,2
33.45507447321785,49,312,0
33.457704442836665,60,450,1
33.491364073898524,43,237,0
33.529708923663605,46,275,0
33.53533532752188,45,262,0
33.54327011124362,75,637,3
33.565338262291114,53,362,1
33.59183133584194,50,325,1
33.611766819728935,68,550,2
33.66776743711352,74,625,3
33.708661971375506,68,550,2
33.77980431382516,60,450,1
33.80649866301695,55,387,1
33.81924640803467,49,312,0
33.83173687608278,63,487,2
33.92114622222916,49,312,0
33.93499029810882,80,700,3
33.95472925949104,78,675,3
34.03040214217361,47,287,0
34.037854187617164,65,512,1
34.08934815143284,78,675,3
34.18215957192715,49,312,0
34.262562797592,83,737,3
34.28802078309046,68,550,2
34.317867328741094,70,575,2
34.323000456235135,59,437,1
34.3389606740393,45,262,0
34.34752469185053,72,600,2
34.412791753835606,45,262,0
34.4181990408231,68,550,2
34.45462045289617,58,425,1
34.481979942620676,50,325,0
34.522470130066345,47,287,0
34.58850355117563,70,575,3
34.589850787167,68,550,2
34.60081518998883,78,675,3
34.63385321112915,61,462,1
34.63991388115537,73,612,3
34.68543997807544,63,487,1
34.70531807611937,52,350,1
34.736953836556054,71,587,3
34.74764987968337,64,500,2
34.76067798746748,53,362,1
34.775653929284964,55,387,1
34.79789324264894,69,562,2
34.86913308539109,60,450,1
34.87373307205057,60,450,2
34.88371058284303,44,250,0
34.91644403468226,53,362,1
34.95999572062312,74,625,3
34.96031199024316,70,575,2
34.96719912157522,57,412,1
34.99723597063334,80,700,3
35.07846929327304,47,287,0
35.22301901623533,70,575,2
35.35720214326034,79,687,3
35.44423291709167,50,325,1
35.46361722520201,58,425,1
35.53290844413658,81,712,3
35.561594594345706,58,425,1
35.585340782962554,72,600,2
35.59256304005369,80,700,3
35.62937547410299,77,662,3
35.68042842199241,52,350,0
35.68299140172535,54,375,1
35.688724208736886,73,612,3
35.797632574128386,77,662,3
35.816957945550854,63,487,2
35.84148463995055,64,500,2
35.89360644225625,57,412,1
35.92363008669494,78,675,3
35.95071170040302,62,475,2
35.9784561685225,80,700,3
35.978548893958745,46,275,0
36.043959368538275,47,287,0
36.07715979898187,80,700,3
36.09470018710371,60,450,1
36.108134224592874,74,625,2
36.11322204384314,65,512,2
36.11571652363605,50,325,0
36.21901377643259,70,575,2
36.23784288585179,51,337,0
36.28586518549678,54,375,1
36.286841402095476,48,300,0
36.290982511446664,46,275,0
36.31343573472382,50,325,0
36.415012012726585,45,262,0
36.41591593603896,59,437,1
36.5112776645808,55,387,0
36.58700217627121,62,475,1
36.82761037220413,67,537,2
36.87060443430835,78,675,3
36.90071802611759,62,475,1
36.95315173275471,53,362,1
36.95737481140471,44,250,0
36.987322024979235,57,412,1
36.99713116228471,81,712,3
37.00705013049476,65,512,2
37.01431129337467,74,625,3
37.01612211763912,55,387,1
37.052180910896084,50,325,0
37.127068631945434,57,412,1
37.167385777493365,60,450,1
37.17362627052779,88,800,3
37.17393469774295,82,725,3
37.18076029969669,76,650,3
37.18980943072348,44,250,0
37.22936499095783,52,350,0
37.254258275792346,76,650,3
37.2569117306329,83,737,3
37.28842947157156,82,725,3
37.29176280773032,40,200,0
37.300864900664614,44,250,0
37.33877554547183,74,625,2
37.36200554972955,70,575,2
37.368591510604226,83,737,3
37.374204257428055,40,200,0
37.40191177972077,43,237,0
37.40999185828695,49,312,0
37.5055575960843,69,562,2
37.511313277493784,80,700,3
37.511474057913475,74,625,3
37.56240303927458,68,550,2
37.5971977300306,50,325,1
37.60706147691787,54,375,0
37.62598421646856,44,250,0
37.67951448094604,54,375,1
37.7029029325269,72,600,3
37.719242813341516,70,575,2
37.73084931578512,68,550,2
37.7535411476665,69,562,2
37.76607286963944,65,512,2
37.7707552765463,79,687,3
37.905537515958855,46,275,0
37.91099551057883,64,500,2
37.93073098763214,51,337,0
37.9361522135846,60,450,2
37.98836641854422,62,475,2
37.99492943694945,55,387,1
38.011345854794584,64,500,2
38.02068196689291,70,575,2
38.13891745340306,46,275,0
38.17364891377528,60,450,1
38.25365799953409,71,587,2
38.37646004774674,85,762,3
38.400691460754715,48,300,0
38.401804641475195,40,200,0
38.41410385652646,74,625,3
38.42423673894811,77,662,3
38.45460271033104,70,575,2
38.52191698255892,49,312,0
38.542826631540265,73,612,3
38.60881932350943,65,512,2
38.61043458202399,81,712,3
38.6580693077477,73,612,3
38.729385805604096,43,237,0
38.767929860476194,74,625,3
38.797900126922336,65,512,1
38.93842242931671,67,537,2
38.96804768337953,59,437,1
39.03137831736182,63,487,2
39.04244056855736,61,462,1
39.058207841479586,46,275,0
39.090435330002606,71,587,2
39.09293153147483,70,575,3
39.13666756561414,59,437,1
39.148528524529105,62,475,1
39.16756261797162,47,287,0
39.311925957218726,57,412,1
39.358833989317866,42,225,0
39.38623615203694,58,425,1
39.44665264854911,51,337,0
39.453025809784975,66,525,2
39.46963913765931,63,487,1
39.47832091514463,62,475,1
39.53198527674582,67,537,2
39.554702732879726,48,300,0
39.65815501192942,48,300,0
39.67747777005116,64,500,1
39.699606429755626,73,612,3
39.703238220815805,56,400,1
39.74483667589071,55,387,1
39.77437364008388,78,675,3
39.77783931493826,68,550,2
39.78941816191034,43,237,0
39.83090564787972,40,200,0
39.83454790318927,77,662,3
39.837806599220734,73,612,2
39.867483024650056,58,425,1
39.88391282508771,78,675,3
39.9030493209071,52,350,0
40.0365324873989,51,337,1
40.04882048887375,50,325,1
40.05548912521042,75,637,3
40.08505916331962,59,437,1
40.11543953138368,68,550,2
40.265380902578045,49,312,0
40.27341031480059,78,675,3
40.27951163469188,55,387,0
40.33019824928031,71,587,2
40.34349517082984,46,275,0
40.3486307913997,60,450,1
40.35809792856983,80,700,3
40.400822087711305,70,575,2
40.44689807181949,79,687,3
40.44903351999145,63,487,2
40.473596368141145,64,500,2
40.541483434328356,44,250,0
40.54525993659273,69,562,2
40.55504301347312,45,262,0
40.59897155417749,64,500,2
40.642017005833694,63,487,2
40.65585754955789,45,262,0
40.66713244828296,56,400,1
40.67702751805945,71,587,2
40.68479494619382,68,550,2
40.709878495661094,47,287,0
40.73855688454316,65,512,2
40.75649596398132,50,325,1
40.8038643994805,42,225,0
40.856701076885926,63,487,2
40.863588890826136,46,275,0
40.89369177247341,77,662,3
40.95557360968191,64,500,2
40.980234438116035,84,750,3
40.99445006941956,85,762,3
41.144985210279245,48,300,0
41.14552293864392,63,487,2
41.17111383979883,85,762,3
41.18896426578799,70,575,2
41.19836028244159,64,500,2
41.3198013080092,65,512,2
41.482132232219584,64,500,1
41.53301024740653,53,362,1
41.56095250782888,61,462,2
41.572552157696734,67,537,2
41.58132143734773,74,625,2
41.595826441991385,61,462,1
41.61902770057847,75,637,3
41.646834000845736,73,612,3
41.65290838993757,81,712,3
41.65860457817215,46,275,0
41.66655329048831,83,737,3
41.694274884984225,57,412,1
41.72799418491791,51,337,0
41.76073862719791,62,475,1
41.76910979603383,66,525,2
41.84128677622044,61,462,2
41.86139274970774,84,750,3
41.88068507944139,47,287,0
41.90405213255791,58,425,1
41.90829253418742,64,500,1
41.94908089975425,45,262,0
41.95518375721578,83,737,3
41.976638761705395,70,575,2
42.02227778601676,72,600,3
42.05187303184327,74,625,2
42.08162388441653,75,637,2
42.12920078233163,48,300,0
42.21228937288542,68,550,2
42.233263645738376,50,325,1
42.32886363609144,48,300,0
42.34889460741056,72,600,3
42.35907292137935,57,412,1
42.37488104408882,53,362,0
42.380430378543394,42,225,0
42.41320232021002,58,425,1
42.42716550624941,57,412,1
42.42797016670586,75,637,3
42.50465395899185,87,787,3
42.53865465999477,70,575,2
42.576174124549425,80,700,3
42.614019253528994,77,662,3
42.72849781687456,77,662,3
42.78759517065368,75,637,2
42.79998536756746,78,675,3
42.93031331189726,63,487,1
42.94492147927921,69,562,2
42.95875158600122,75,637,2
42.98864141297827,82,725,3
43.02060213282853,65,512,2
43.046052715893325,66,525,2
43.048355212320885,70,575,3
43.05196081776215,50,325,0
43.117954634618236,81,712,3
43.13950669375275,61,462,1
43.20404344680931,41,212,0
43.242042376524175,76,650,3
43.329869540301054,72,600,2
43.34768648045736,83,737,3
43.35637619965815,72,600,3
43.364233733144395,40,200,0
43.403859610527235,60,450,2
43.4061998656144,65,512,2
43.40926864920527,72,600,2
43.42577617510261,67,537,2
43.42881091941997,75,637,2
43.4959073660061,41,212,0
43.50437421537214,49,312,0
43.50820143452139,58,425,1
43.57068677063329,60,450,2
43.59241033302743,73,612,3
43.595187513323204,51,337,0
43.62314466957447,53,362,1
43.66397790150804,60,450,2
43.69253620184881,82,725,3
43.70415101882873,59,437,1
43.7123160303999,57,412,1
43.7428453888727,60,450,2
43.78521090774418,80,700,3
43.80013798350122,40,200,0
43.81559510690018,69,562,2
43.8715410743682,78,675,3
43.886506695352594,52,350,1
43.90701100370847,86,775,3
43.920406012655995,84,750,3
43.92482463453305,66,525,2
43.926480520512804,68,550,2
44.05276239446641,60,450,1
44.05428492224898,54,375,1
44.06305850128047,82,725,3
44.0785846193301,67,537,2
44.07922124688574,69,562,2
44.118884263797945,61,462,2
44.140506060622705,61,462,1
44.16032095357631,58,425,1
44.16177214605415,72,600,2
44.18780607411919,70,575,3
44.239170693385894,72,600,3
44.28374522669693,44,250,0
44.30968488111284,64,500,2
44.35214500427947,88,800,3
44.39279575941846,43,237,0
44.45100126388053,78,675,3
44.45888452398434,44,250,0
44.50986483596433,54,375,1
44.533597284470176,78,675,3
44.58636409520418,70,575,2
44.70741776647284,56,400,1
44.72737151526538,75,637,3
44.728546031473904,63,487,1
44.751445411389525,65,512,2
44.81677634757941,44,250,0
44.82052250520262,50,325,1
44.87792740217572,80,700,3
44.88132819367055,69,562,2
44.89489370906642,68,550,2
44.95007973725096,49,312,0
44.95680535232546,65,512,2
44.96248137242719,58,425,1
44.99711680632027,80,700,3
45.01325056420053,83,737,3
45.021102825645784,46,275,0
45.13937820759348,70,575,3
45.15259921349454,79,687,3
45.16366597722971,58,425,1
45.22185009283721,64,500,2
45.281248808756516,64,500,1
45.296823135094066,53,362,1
45.332658431719864,71,587,2
45.338942423081626,59,437,1
45.36594893409745,81,712,3
45.3698044913344,68,550,2
45.397679117224676,78,675,3
45.42713083574418,76,650,3
45.42799776140876,46,275,0
45.4335189428136,59,437,1
45.44158535856683,53,362,1
45.45639110099709,73,612,3
45.472488252277266,71,587,2
45.487274234877155,66,525,2
45.51735521788063,79,687,3
45.52614624828217,60,450,2
45.56542526739575,74,625,2
45.60372070456665,45,262,0
45.626132052958965,49,312,0
45.63039538804427,69,562,2
45.659194514563204,53,362,1
45.77871867489568,51,337,0
45.83239449261294,55,387,1
45.838457234041286,79,687,3
45.84650149574112,60,450,1
45.85951053814259,68,550,2
45.862339639768955,84,750,3
45.91348314904921,57,412,1
45.94947806735834,56,400,1
45.97033462254531,68,550,2
45.98536902843107,64,500,2
46.10104786117968,64,500,2
46.12335936945184,58,425,1
46.15039806291417,67,537,2
46.223649507191226,78,675,3
46.266109470956366,48,300,0
46.33635845854602,75,637,2
46.37145659973681,60,450,1
46.474039415025665,50,325,0
46.55976096229905,84,750,3
46.62329295453833,82,725,3
46.6313916612336,54,375,0
46.66346418125878,61,462,2
46.710026249419855,62,475,1
46.73430410028395,69,562,2
46.73667427457452,68,550,2
46.755073756739066,78,675,3
46.814960339641715,47,287,0
46.83718917850088,43,237,0
46.85075254994789,68,550,2
46.85122787900069,64,500,2
46.921050764202704,41,212,0
46.92610222650085,70,575,2
47.015507171252956,86,775,3
47.03912337846288,43,237,0
47.047472782025615,55,387,1
47.06536424245829,47,287,0
47.0722993864198,54,375,0
47.110200053491795,45,262,0
47.15631096310939,60,450,2
47.21088857839875,64,500,2
47.21863684829979,63,487,2
47.250335675813986,81,712,3
47.275748600158586,62,475,2
47.3557557405579,57,412,1
47.37931526127844,59,437,1
47.38343109992661,54,375,0
47.38869824000573,47,287,0
47.431189976197054,43,237,0
47.44352386603529,44,250,0
47.51202210479071,63,487,1
47.52897899001595,74,625,2
47.559530746440345,62,475,1
47.586282471689465,46,275,0
47.595840771568405,71,587,2
47.62258018415522,47,287,0
47.707943897789306,46,275,0
47.736869109720594,72,600,2
47.748218306790385,70,575,2
47.751783890825564,47,287,0
47.771379605673935,65,512,1
47.78828690529769,62,475,2
47.87549628630595,78,675,3
47.96252936987169,53,362,1
48.01845237751824,53,362,0
48.04385150231853,69,562,2
48.04635090243248,60,450,1
48.12015269448437,77,662,3
48.17131359522984,50,325,1
48.17823314781065,51,337,0
48.205739544875335,46,275,0
48.21843541645247,56,400,1
48.26617712596543,70,575,3
48.326560040136464,40,200,0
48.33964432037712,60,450,1
48.34470178568028,48,300,0
48.35225246419001,81,712,3
48.39111074647386,77,662,3
48.44545926829278,51,337,0
48.45699472081685,60,450,1
48.51128839063907,47,287,0
48.55084617263865,54,375,1
48.5987601741949,56,400,1
48.672549490620234,71,587,3
48.7319679210033,73,612,3
48.76309602401664,78,675,3
48.77158933529222,74,625,3
48.77819031189096,67,537,2
48.840148551444706,73,612,2
48.85339939234106,42,225,0
48.85933717497388,56,400,1
48.859870634462595,47,287,0
48.86646845042554,66,525,2
48.87980681027321,83,737,3
48.88851164973054,59,437,1
48.89882081510171,52,350,1
48.901634927611376,65,512,2
48.968864896432216,62,475,1
49.00570733420699,51,337,1
49.01639146650611,65,512,2
49.01859323406536,67,537,2
49.0542022851694,55,387,1
49.066797484972305,48,300,0
49.150661411850855,59,437,1
49.160473242606265,58,425,1
49.18952163370915,42,225,0
49.27839210144999,81,712,3
49.305554524937406,52,350,1
49.31092512844914,66,525,2
49.40316455269138,45,262,0
49.43636116030066,60,450,1
49.44117986856032,43,237,0
49.443437328327605,54,375,0
49.45220606558621,64,500,1
49.4642654646451,45,262,0
49.47932761833752,65,512,1
49.48745265050131,48,300,0
49.50846700308247,55,387,1
49.52967606807886,72,600,2
49.53054727423115,70,575,2
49.53401661986605,58,425,1
49.58699079713886,61,462,1
49.62708730754613,73,612,2
49.629257265832756,52,350,1
49.65916636314611,47,287,0
49.66623424457393,75,637,3
49.7256756028422,57,412,1
49.79773800413061,46,275,0
49.801770472446606,48,300,0
49.86545537168306,70,575,2
49.872902479973376,69,562,2
49.89858648585219,67,537,2
49.9054907849011,50,325,0
49.95186020745503,80,700,3
49.96277569276764,64,500,1
49.9636591502137,54,375,1
50.03307340570836,66,525,2
50.124256374314875,85,762,3
50.15095488509187,78,675,3
50.23815066674842,48,300,0
50.264418319381925,67,537,2
50.304742207936705,53,362,1
50.34461006342569,50,325,0
50.41492355274837,47,287,0
50.429894550262254,59,437,1
50.502329241773495,70,575,2
50.51347279573497,78,675,3
50.54784746208156,64,500,2
50.56055089900874,57,412,1
50.56188623045675,45,262,0
50.623070590763625,45,262,0
50.667789870474074,44,250,0
50.676997322058114,71,587,2
50.6832124335561,49,312,0
50.683993561443565,60,450,2
50.69291407433103,72,600,3
50.698851715795875,81,712,3
50.728122846538675,51,337,0
50.75137117848208,49,312,0
50.789275331296245,67,537,2
50.7899394624099,78,675,3
50.79283145258172,54,375,1
50.804455271297265,50,325,0
50.8266511978309,71,587,3
50.83068033408979,47,287,0
50.941029780290066,57,412,1
50.94178905520127,56,400,1
50.9672503686593,45,262,0
50.993129222138684,50,325,1
51.128853722530216,52,350,1
51.18480565043332,52,350,0
51.35593595829014,70,575,2
51.36197766795631,48,300,0
51.383407094172014,77,662,3
51.42995441397623,40,200,0
51.440039932063094,54,375,1
51.45514419410271,60,450,1
51.46486316929296,46,275,0
51.47058107301624,55,387,1
51.52290805971609,61,462,1
51.554435415347406,61,462,2
51.57010104511173,45,262,0
51.623121886902844,57,412,1
51.62313495532233,68,550,2
51.66825488442367,55,387,1
51.74780235480283,57,412,1
51.815931311389846,71,587,2
51.85563997712508,47,287,0
51.97137251943923,61,462,2
52.024683163876546,41,212,0
52.05194500901252,81,712,3
52.07312093485166,60,450,1
52.112809540326374,63,487,2
52.14219132848148,68,550,2
52.14450992338926,56,400,1
52.172276063552225,48,300,0
52.2309680519293,45,262,0
52.25521573997864,52,350,0
52.278610160128366,40,200,0
52.281134229036944,77,662,3
52.34441432822299,76,650,3
52.37862289550285,57,412,1
52.44735976122757,65,512,2
52.47087637117458,73,612,3
52.50533980307326,65,512,2
52.593293558253734,70,575,2
52.61652966895185,53,362,1
52.648750237842755,55,387,1
52.71178663283213,67,537,2
52.72218004472644,77,662,3
52.746059546393305,71,587,2
52.835934736020675,69,562,2
52.876294728150164,79,687,3
52.889392824809775,67,537,2
52.897654259011105,53,362,1
52.90343674542067,51,337,0
52.92583230180089,46,275,0
53.02069529937833,75,637,2
53.02357010590801,60,450,1
53.0618409240159,58,425,1
53.08146506563079,78,675,3
53.12362422231919,57,412,1
53.12628329671306,74,625,3
53.14169689141517,64,500,2
53.157010214355466,49,312,0
53.176570028301725,69,562,2
53.22262652520772,76,650,3
53.311856835922434,60,450,2
53.3452034276735,44,250,0
53.34918133923992,71,587,2
53.393049066317424,80,700,3
53.39927766563609,82,725,3
53.41401001415867,65,512,2
53.429410488742796,72,600,2
53.436491965258924,78,675,3
53.448623997486834,48,300,0
53.47576816151728,85,762,3
53.48686606479736,78,675,3
53.52491862173683,60,450,2
53.559529429213995,54,375,1
53.560242389741376,61,462,1
53.56316530819185,60,450,1
53.58884583553963,78,675,3
53.701131099436985,61,462,1
53.702480702864456,77,662,3
53.718087503628524,72,600,3
53.73383334480023,69,562,2
53.73591944905308,79,687,3
53.73977337235094,62,475,1
53.75361251195637,42,225,0
53.78309285139943,53,362,1
53.845764071774745,88,800,3
53.890607613627,67,537,2
53.92454784359321,66,525,2
54.046918893658926,57,412,1
54.062885641223225,49,312,0
54.06320439245427,72,600,3
54.08052301629868,70,575,2
54.12681476700711,66,525,2
54.19011472748052,56,400,1
54.21549263563304,63,487,2
54.2332784298472,63,487,1
54.27237761126717,85,762,3
54.3019283212245,44,250,0
54.31573066956417,70,575,3
54.32380642777,41,212,0
54.37363521947848,48,300,0
54.40982416527036,55,387,1
54.426748246000585,58,425,1
54.42726993398999,77,662,3
54.43464716258308,67,537,2
54.43524894634183,79,687,3
54.457542270674,49,312,0
54.48081368489927,80,700,3
54.49357828504915,72,600,3
54.52034197658832,46,275,0
54.52842477267997,64,500,2
54.533606107088374,50,325,0
54.54908446797308,82,725,3
54.57345894336779,79,687,3
54.62870615040063,52,350,1
54.67900903022952,65,512,2
54.720654611768694,68,550,2
54.76908224124627,53,362,0
54.77312697217796,77,662,3
54.77716264682235,63,487,2
54.79375243951906,67,537,2
54.81211662813378,51,337,0
54.8272782538177,60,450,2
54.85983320824302,43,237,0
54.87380325191466,82,725,3
54.90790998475952,79,687,3
54.951441844396356,52,350,1
54.96742018746668,54,375,1
55.00540489191279,67,537,2
55.0473162987313,40,200,0
55.06466737055068,78,675,3
55.09931475093127,45,262,0
55.102510592158396,54,375,1
55.16874459141467,61,462,1
55.18691480771492,52,350,1
55.19839624060047,59,437,1
55.203737332587835,80,700,3
55.21929102683761,61,462,1
55.2699478498947,74,625,3
55.309473685523926,42,225,0
55.32507107273379,51,337,0
55.35648843887458,55,387,1
55.41752158796428,57,412,1
55.44487447432437,64,500,1
55.45022264090888,86,775,3
55.4644111550918,84,750,3
55.48426814740268,71,587,2
55.50994042914447,45,262,0
55.56424130906977,59,437,1
55.566584571536836,43,237,0
55.60039814456115,77,662,3
55.60559565380861,51,337,0
55.71769368653076,48,300,0
55.748313630450724,74,625,2
55.763637190619576,45,262,0
55.80656039600261,65,512,2
55.82027485884903,81,712,3
55.84037784371453,61,462,1
55.89270766471577,54,375,0
55.90155001423266,77,662,3
55.91542645508984,79,687,3
55.949124566337446,76,650,3
55.99975139636172,60,450,2
56.00965460380402,78,675,3
56.01465809568374,66,525,2
56.05007452153975,49,312,0
56.06501824616706,55,387,1
56.09649486096508,69,562,2
56.133189471651235,58,425,1
56.24619545338758,63,487,2
56.26707198774223,76,650,3
56.31466718822044,80,700,3
56.32938503243377,42,225,0
56.37084067417021,57,412,1
56.377537049463655,41,212,0
56.4127598332848,56,400,1
56.41880795190413,53,362,1
56.43475616963318,60,450,2
56.47948629841109,73,612,2
56.486914587734375,68,550,2
56.60383715250571,68,550,2
56.69341666368279,55,387,1
56.713349242476575,44,250,0
56.71941983282099,87,787,3
56.7272952383794,85,762,3
56.78767615689045,58,425,1
56.80955157767754,60,450,1
56.81284429756479,69,562,2
57.00658788091793,58,425,1
57.02125366645636,74,625,3
57.041752237530204,55,387,1
57.084626952592735,67,537,2
57.147699353089166,60,450,1
57.22054294620394,70,575,2
57.23843066795123,78,675,3
57.2453977836372,51,337,0
57.35035883524157,53,362,0
57.35753564651175,70,575,2
57.4079967675992,47,287,0
57.4591968709918,76,650,3
57.63052286575304,56,400,1
57.63502788778861,61,462,1
57.715852068891486,66,525,2
57.754490422353285,60,450,1
57.75852991343443,62,475,2
57.765800118807,73,612,3
57.78725023266584,58,425,1
57.80119585999944,57,412,1
57.8089008996879,80,700,3
57.80993257266544,45,262,0
57.85086843895673,64,500,2
57.851116146607865,75,637,2
57.8796639475579,58,425,1
57.89103747913518,77,662,3
57.900545499850914,82,725,3
57.960994950928786,73,612,2
57.98171302694691,71,587,3
58.014996567612634,50,325,0
58.044415857252254,68,550,2
58.04971179508113,85,762,3
58.06286085384824,67,537,2
58.0688808192081,66,525,2
58.104177708000975,64,500,2
58.11884023699989,52,350,0
58.20620203860528,82,725,3
58.26094117163219,41,212,0
58.29353366929222,58,425,1
58.31581943952919,61,462,2
58.371859105647076,67,537,2
58.40980818061148,58,425,1
58.446529619751125,78,675,3
58.45628944919189,83,737,3
58.47936410595453,77,662,3
58.48174564458206,68,550,2
58.48669593686669,46,275,0
58.52108760437149,60,450,2
58.53020842398724,49,312,0
58.54151442910028,70,575,2
58.54617774580144,51,337,0
58.564018899585534,54,375,1
58.58681895183759,83,737,3
58.60541843572767,60,450,1
58.61857530966018,81,712,3
58.637884638180516,45,262,0
58.675957267450784,67,537,2
58.71204016552283,48,300,0
58.73746667383891,58,425,1
58.73900290529358,52,350,0
58.74634714587911,86,775,3
58.76996138110497,81,712,3
58.80399602491551,40,200,0
58.890832703844914,49,312,0
58.93749235592888,82,725,3
58.93774581217729,71,587,2
58.94048188702867,57,412,1
58.941147479378685,54,375,1
58.97532609441861,53,362,0
59.00778903093208,54,375,1
59.07566022818422,76,650,3
59.077003492286856,45,262,0
59.1100279811309,58,425,1
59.1309015860062,57,412,1
59.16521308902628,44,250,0
59.17701916224628,54,375,1
59.19895630377969,81,712,3
59.37172763576059,58,425,1
59.385617368122965,43,237,0
59.39248320536108,47,287,0
59.39900640693059,63,487,2
59.4920642528011,78,675,3
59.607795726349806,58,425,1
59.6082841684123,61,462,1
59.642455346297794,54,375,1
59.68765350674918,60,450,1
59.691703938868095,78,675,3
59.69632920322248,68,550,2
59.78129174469149,49,312,0
59.796665972901735,44,250,0
59.82606689265046,67,537,2
59.858150514162176,77,662,3
59.98454239849221,64,500,2
