onset_time,pitch,velocity,voice_id
0.00033879160246594987,77,92,0
0.0010221266422519959,39,63,0
0.001042469660518095,104,81,0
0.0011323804584075525,36,80,0
0.0012466268120326686,96,60,0
0.0013911619414306187,76,77,0
0.0016552051036728976,105,95,0
0.0019068772066366659,63,88,0
0.0022009721408109708,48,80,0
0.0030993692626861092,51,89,0
0.003334991716911442,65,84,0
0.0034634599436596126,32,77,0
0.0034938699904933303,61,89,0
0.003623938991166331,95,81,0
0.0037443536972042203,29,68,0
0.0041462412372702375,54,87,0
0.004241306713023861,81,88,0
0.004522179408898072,89,83,0
0.004720669451099993,107,99,0
0.004808369780890736,70,86,0
0.005021950103312426,74,60,0
0.005151736824068126,40,76,0
0.005344558912572469,42,89,0
0.005350697189336586,99,99,0
0.005596403313082179,102,63,0
0.005776319540915472,87,65,0
0.005874536042340743,30,60,0
0.006078943937942587,55,68,0
0.006114542354346478,21,99,0
0.0070723863431339865,100,87,0
0.0074424965184328885,88,69,0
0.007499604703991778,33,78,0
0.007755276166950106,22,61,0
0.007900846371240867,80,96,0
0.008028534485980114,41,85,0
0.00863518140612957,66,97,0
0.008698963620621282,31,99,0
0.008721239089441515,79,71,0
0.00910686198255713,69,60,0
0.009610703174694552,44,79,0
0.5000233939062578,108,89,1
0.5000525381855838,22,71,1
0.5006717539991571,58,96,1
0.5007593341036962,25,96,1
0.5008279866792512,59,95,1
0.5010659825313377,88,68,1
0.5013227621112533,78,88,1
0.5013688563006881,91,90,1
0.5013935607407283,47,63,1
0.5016628336875608,61,60,1
0.501716792858483,80,82,1
0.502064212717606,35,81,1
0.5025073066056159,93,66,1
0.5035154016113422,67,60,1
0.5036097389694003,69,76,1
0.5038929561404197,50,99,1
0.5039664937305205,101,83,1
0.5040255004359698,33,68,1
0.5041877052489208,60,87,1
0.5043482733860375,40,98,1
0.5043719339635724,29,95,1
0.5048375494193241,32,95,1
0.504954913162062,31,99,1
0.5049636624720124,104,93,1
0.505398427789082,48,78,1
0.5054190094737836,56,83,1
0.505732943781794,81,76,1
0.5059507793070025,64,76,1
0.5061040466700796,83,93,1
0.5062333255090499,90,61,1
0.5065142038835186,45,71,1
0.5068318385644548,37,65,1
0.5071904590518425,26,98,1
0.5077091137706427,89,61,1
0.5077098592553548,46,88,1
0.5081505442840246,99,97,1
0.5087389007756251,65,99,1
0.509142988065605,42,80,1
0.5093682973932476,86,64,1
0.509502373538208,106,71,1
1.0000508213981802,42,64,2
1.0003673193742662,31,62,2
1.0004694535714782,85,85,2
1.0004878358167317,77,77,2
1.000578426765634,65,82,2
1.0008104621590765,24,72,2
1.0012443755729685,39,96,2
1.0015389590633985,47,91,2
1.0022381761482262,58,84,2
1.002336077510499,106,84,2
1.0027295937485632,94,88,2
1.0027726564569677,82,74,2
1.0032905136536987,80,84,2
1.004084532130707,105,74,2
1.0042135700227708,69,64,2
1.0042777313373585,60,83,2
1.0046338074821561,61,72,2
1.0046731076653765,26,89,2
1.0046740151124987,25,72,2
1.0055085737060914,33,93,2
1.005929399348417,22,73,2
1.0059727407243033,48,94,2
1.0073227180718465,95,62,2
1.0075823847570409,53,76,2
1.0078634501441555,81,65,2
1.0082620569579397,64,64,2
1.0085120691404876,78,99,2
1.00852193533347,21,68,2
1.008528218216919,63,77,2
1.0086012681641792,104,70,2
1.0087746086263039,93,62,2
1.0088290626913745,88,88,2
1.0088378588496343,40,94,2
1.0088874807986898,102,84,2
1.0089447993096807,99,72,2
1.009065137194446,57,62,2
1.0094273177413513,66,69,2
1.0098233051508008,84,83,2
1.0098918490981337,74,66,2
1.0099116862613697,56,67,2
1.500116205399081,54,77,3
1.500245869164588,105,70,3
1.500311340828845,82,84,3
1.5008238104561584,28,73,3
1.5010219361969372,96,98,3
1.5015893828327675,46,93,3
1.5018545887467665,29,74,3
1.5022554014244374,102,81,3
1.5022995460589108,45,94,3
1.5023005368303144,36,70,3
1.5027325952699822,101,76,3
1.5032074274043812,64,97,3
1.5039759439796279,104,64,3
1.5043030589489945,74,97,3
1.5047993883471713,37,90,3
1.5048152235151255,84,73,3
1.5052702409621186,41,88,3
1.5054323280578996,24,84,3
1.505819714019144,103,61,3
1.5059439585922854,66,71,3
1.5059832726512243,87,79,3
1.5062622032163142,35,83,3
1.5068045662635932,72,77,3
1.506832953766065,88,85,3
1.5069368222578148,48,91,3
1.5071492404020226,70,77,3
1.5072188762792693,90,70,3
1.5073127006697369,57,75,3
1.5077092184464405,86,66,3
1.507975591006372,55,70,3
1.508187856433571,31,70,3
1.5082151294740744,23,74,3
1.508573600920925,98,79,3
1.5086435824983964,40,75,3
1.5086862316795562,42,67,3
1.509208478478157,108,62,3
1.5096323665344014,21,87,3
1.5098397764795983,85,60,3
1.509843514074029,44,76,3
1.5099712450015772,89,76,3
2.0008152648955244,21,94,4
2.00163523872585,38,84,4
2.0017419333657824,49,80,4
2.0017968310887024,39,73,4
2.0020584121003675,63,79,4
2.0022056112492232,44,74,4
2.002357920939592,88,85,4
2.0023605046334647,108,62,4
2.0025252778207543,85,79,4
2.002576828885112,47,71,4
2.003251900642247,30,99,4
2.0035673205304,27,71,4
2.003793585899224,72,96,4
2.003838471518678,73,77,4
2.0042172092687345,79,71,4
2.004254933344481,91,63,4
2.0044202437378287,86,75,4
2.004494338352137,24,67,4
2.004746308757498,100,87,4
2.004866689414247,25,61,4
2.00504844881893,82,91,4
2.005148173539297,77,84,4
2.0051977394855602,83,69,4
2.005880583780901,55,93,4
2.0059772356525585,57,95,4
2.005987139801001,67,95,4
2.00617144986604,36,60,4
2.0063156022009254,43,74,4
2.006626212790083,89,98,4
2.0066939040145937,68,60,4
2.007158249646821,45,89,4
2.007271690697663,76,83,4
2.0073535029866574,81,79,4
2.008543850933696,41,73,4
2.0085798625392273,34,64,4
2.008642161776742,48,65,4
2.009694123223353,56,61,4
2.0096982104507854,103,90,4
2.0097139509404163,33,96,4
2.0099633391605676,101,62,4
2.500057586604981,56,74,5
2.5007319592376844,33,94,5
2.5008962633915495,100,89,5
2.501202090553706,60,66,5
2.501489918559702,107,96,5
2.501684443851427,82,73,5
2.501945583231853,74,73,5
2.5019577798568355,95,75,5
2.502434822965763,86,70,5
2.50246069658798,29,95,5
2.5034124782762617,66,71,5
2.5037325179162933,85,97,5
2.5037978578017923,80,85,5
2.503800745089372,39,63,5
2.5038855810127036,31,84,5
2.5041354910152536,94,84,5
2.5042452742519634,50,66,5
2.5047918187762974,26,88,5
2.5048587175918633,24,86,5
2.5052248104051613,69,66,5
2.5053916127667524,45,75,5
2.5056343892734847,23,78,5
2.505964854749854,108,91,5
2.5060790509279345,78,82,5
2.5061949034600963,96,68,5
2.5063020874832915,68,66,5
2.506474747141546,87,74,5
2.506675933855636,44,65,5
2.5068111785396496,61,69,5
2.5070904626172243,38,95,5
2.507161506742232,47,72,5
2.5079781364885863,27,78,5
2.5079978109542402,37,90,5
2.508129857387161,51,80,5
2.5081574864350427,30,72,5
2.508689006255406,105,60,5
2.5090137564958845,67,72,5
2.5092960587742197,34,87,5
2.509344360268055,48,81,5
2.50951478559666,35,61,5
3.000012366797594,78,75,6
3.0006310903307916,96,95,6
3.00089124432116,66,98,6
3.0009292914437937,61,81,6
3.0019032486281905,32,61,6
3.0023464208185544,83,87,6
3.0030312835594533,24,61,6
3.003335695494722,86,81,6
3.0036294427184598,36,94,6
3.00380909525511,87,61,6
3.003910427630582,76,71,6
3.003969815170743,99,82,6
3.0040947785300522,50,89,6
3.0045037093625817,63,75,6
3.004748865435062,21,89,6
3.005068384318205,26,93,6
3.005097242467517,72,62,6
3.005156794276965,65,94,6
3.0053295778655134,73,62,6
3.005622968158779,60,95,6
3.0064016822382817,84,67,6
3.0066491172448724,40,79,6
3.0067430380640903,22,89,6
3.0069000489082067,74,75,6
3.0072142206732875,45,62,6
3.0073065051023926,43,89,6
3.0073718022500726,47,60,6
3.007862759567571,23,74,6
3.0080035650782238,51,86,6
3.008174497084912,81,94,6
3.008420332943764,49,80,6
3.0086468619203353,79,75,6
3.0088007908756147,89,62,6
3.0093059521464394,82,97,6
3.0093695782303107,100,68,6
3.0094238701910223,71,77,6
3.009616657359548,77,88,6
3.00974164628628,28,64,6
3.0099215801482333,94,96,6
3.0099413936122117,58,61,6
3.5001212077464388,71,80,7
3.5001919227682308,70,74,7
3.500416729006024,39,82,7
3.500666520405607,58,83,7
3.501053675339528,99,76,7
3.5012719976268745,63,93,7
3.501331450041781,29,76,7
3.5013380373627947,91,80,7
3.50137109705729,84,98,7
3.501988562777753,21,96,7
3.502269646943654,90,76,7
3.5027936771393473,31,99,7
3.5029653558128766,82,70,7
3.5032467592689005,62,77,7
3.503677593508773,46,87,7
3.5037140856765014,107,70,7
3.5038759523148277,67,90,7
3.503923937215285,50,72,7
3.5039447627857006,42,97,7
3.504432730874436,64,67,7
3.5045437733455995,76,85,7
3.5046147746462473,57,70,7
3.5047601812936877,88,88,7
3.5048163484653485,44,66,7
3.50495452103461,79,67,7
3.5058214822977996,77,82,7
3.506189481930077,37,72,7
3.5065869214620746,94,60,7
3.5071632338806267,43,83,7
3.5072431746967667,36,96,7
3.507336143805614,59,81,7
3.507374337687215,75,60,7
3.5080888346163634,83,88,7
3.508824594404561,25,64,7
3.5088660421524045,66,94,7
3.508951177407065,96,67,7
3.5095650139829946,60,80,7
3.5095957664432103,69,95,7
3.5096382227548233,47,61,7
3.509707499576707,49,78,7
4.000018798835249,68,98,8
4.000032182636043,108,97,8
4.000052296135429,72,85,8
4.000528039604685,95,83,8
4.000991780995872,83,91,8
4.001515693715877,46,89,8
4.0016688511785485,43,79,8
4.002040356346289,26,69,8
4.002172090976912,65,85,8
4.002975484513188,24,78,8
4.003056042154902,79,78,8
4.003269316163381,89,90,8
4.003553845686858,49,72,8
4.0038537588304735,66,63,8
4.003915256981778,101,80,8
4.004023271246866,59,66,8
4.004134164492952,99,96,8
4.004615574744198,81,75,8
4.004809728898861,85,73,8
4.004883941300649,94,82,8
4.004982556822634,42,78,8
4.005386956673431,76,95,8
4.005799837874282,105,63,8
4.005903476904588,23,62,8
4.006021456440525,50,78,8
4.006149782403411,75,61,8
4.006764679372264,40,77,8
4.007220709382027,92,83,8
4.007234047656123,57,96,8
4.007423480505725,106,98,8
4.007457337827312,62,73,8
4.007495454844689,98,79,8
4.0076112153704315,53,67,8
4.008117522168657,44,64,8
4.008399639802822,63,71,8
4.008407030280112,21,72,8
4.008733229158608,103,84,8
4.008798164859419,39,93,8
4.0088145077967505,107,63,8
4.009963343376272,55,63,8
4.500179456785685,41,99,9
4.500336136001833,82,79,9
4.50052257879286,76,73,9
4.500975625102393,106,75,9
4.501512468287349,64,63,9
4.501563818044034,47,95,9
4.501616198112859,57,73,9
4.501657745401633,21,61,9
4.502387962113815,49,99,9
4.502565300624442,48,62,9
4.50258620834888,85,79,9
4.503086987433732,58,80,9
4.504039778763265,95,98,9
4.504117655415845,81,98,9
4.5041798993387046,43,66,9
4.505233909113744,102,93,9
4.505324206822753,54,92,9
4.505448477590845,60,63,9
4.505454318694069,27,83,9
4.505653302545716,108,78,9
4.506085272726964,71,92,9
4.5061290016086195,103,65,9
4.506196994401994,104,80,9
4.506641879145054,73,61,9
4.506837541055771,32,92,9
4.507078350972297,91,76,9
4.507251557275511,66,96,9
4.507308209649807,52,80,9
4.507324487318381,86,70,9
4.507567515056886,97,81,9
4.507718577261816,45,65,9
4.507869701349176,74,97,9
4.508064036172328,89,69,9
4.508469187280886,107,69,9
4.50877830078152,88,81,9
4.50882135614282,28,80,9
4.508998333456873,56,77,9
4.509633944342135,22,74,9
4.509780618179735,61,91,9
4.509849896561409,93,85,9
5.000038171341243,25,98,10
5.000590938900783,99,74,10
5.0007267087161,74,62,10
5.00110748445319,79,70,10
5.001274539594228,81,78,10
5.001288487120003,100,78,10
5.0016713201147125,55,79,10
5.002126443763711,41,94,10
5.002155298687914,94,74,10
5.002267303829235,85,67,10
5.002271795570235,97,67,10
5.00239874112756,108,93,10
5.0024433994078645,87,87,10
5.00260286857566,98,92,10
5.003251040154317,103,99,10
5.003352080473709,73,85,10
5.003479414115822,37,77,10
5.003577982653255,30,93,10
5.003897593874265,107,97,10
5.004214440415793,50,73,10
5.004790700631034,76,84,10
5.005604406309804,104,86,10
5.006209285674784,42,81,10
5.006341421382958,46,79,10
5.0069415057350986,106,84,10
5.007380691233386,82,70,10
5.007392947351648,69,93,10
5.007488263369633,77,82,10
5.007539619035968,57,68,10
5.0076315529125885,84,73,10
5.007660647765353,78,94,10
5.008192551048714,49,71,10
5.008259782127081,51,92,10
5.0084373732640675,54,86,10
5.0087422672413835,34,86,10
5.009012960107746,88,68,10
5.009036078443468,33,76,10
5.009180765521991,24,82,10
5.009727763228921,52,62,10
5.009768003285107,95,73,10
5.500015651051915,35,86,11
5.5000210384317585,43,89,11
5.500029210326214,103,71,11
5.500367213625008,74,92,11
5.500405587375447,80,79,11
5.500448535680236,75,70,11
5.500709322161338,30,84,11
5.500922847920733,37,87,11
5.501138383934766,95,98,11
5.50131489119898,64,60,11
5.501400240975533,63,60,11
5.501960977127384,54,94,11
5.502069925784384,100,72,11
5.502576072203337,33,82,11
5.502689589458265,38,97,11
5.503388606493387,94,80,11
5.503619199908378,90,70,11
5.5038987235294154,47,78,11
5.504042397296442,82,74,11
5.504110210752655,88,67,11
5.504385384885374,87,68,11
5.504474681413225,96,79,11
5.504504653016578,62,94,11
5.504562365089555,44,77,11
5.504935465803401,46,70,11
5.505370074883514,27,67,11
5.5054958365672215,71,92,11
5.505747795542645,26,98,11
5.505986924023191,23,73,11
5.506006510665483,51,60,11
5.506040716770713,59,86,11
5.50665292101978,52,92,11
5.5066857264672295,92,69,11
5.506709430047425,45,71,11
5.506746078529162,76,92,11
5.506865899134926,21,61,11
5.507498507644365,107,61,11
5.508166821754507,101,76,11
5.508237903842213,89,98,11
5.509540331275851,70,64,11
6.000379815632899,76,70,12
6.000389960125749,51,86,12
6.000394595328909,25,76,12
6.00132372379035,87,86,12
6.001357890470639,33,85,12
6.001600249364632,73,65,12
6.0020730900318755,21,76,12
6.002469074266676,86,82,12
6.002593348973171,66,80,12
6.003424479788347,83,80,12
6.003534607405467,53,71,12
6.003855119047369,26,81,12
6.004404413503124,105,93,12
6.004667820772312,96,71,12
6.004740064284832,107,65,12
6.004778784480222,46,72,12
6.004855896996594,57,83,12
6.004878511971924,34,96,12
6.0050545511791045,37,70,12
6.0054140760734755,97,96,12
6.0054170481241,62,81,12
6.005448276575452,39,60,12
6.005493224794032,68,64,12
6.005804676009937,40,83,12
6.006029428764794,95,68,12
6.00606877341577,49,76,12
6.006206604798246,24,96,12
6.006234059581595,72,83,12
6.00626234321421,101,70,12
6.0071088471668235,79,78,12
6.007308180287118,27,67,12
6.007345779231214,108,77,12
6.0075621361395015,80,74,12
6.007942106625494,31,79,12
6.008354802363823,42,96,12
6.009094546109372,84,70,12
6.009559188289553,106,96,12
6.009664173858664,30,98,12
6.009840131632105,28,72,12
6.009997138041559,78,72,12
6.500038199226585,22,64,13
6.500220269212238,81,98,13
6.500468519085276,50,91,13
6.500626896216219,44,67,13
6.5006600984414025,85,94,13
6.500723164752579,98,78,13
6.500729018353679,45,72,13
6.501027482524524,56,88,13
6.5018784285253775,57,82,13
6.502146280732588,103,78,13
6.502323843230561,61,98,13
6.502714093804467,105,90,13
6.502715470474112,78,74,13
6.5028427409292755,79,77,13
6.5028997011894365,88,89,13
6.5040130602421975,29,82,13
6.504631727167514,100,83,13
6.504764369863438,92,60,13
6.5047825988419525,77,61,13
6.505006242680704,54,75,13
6.505201698923107,91,72,13
6.505225765993368,34,75,13
6.505489804494417,48,89,13
6.5054913033627715,31,73,13
6.505546573480351,21,79,13
6.505858647884535,89,67,13
6.505934857629759,87,76,13
6.506478174459906,96,81,13
6.506668544210143,97,90,13
6.506817486440902,60,76,13
6.506826172212234,64,73,13
6.506874063641362,26,90,13
6.508082352100092,40,91,13
6.508237780901012,38,70,13
6.5086693346835185,101,69,13
6.509167916907024,83,67,13
6.509292280536319,59,86,13
6.509308873720608,70,60,13
6.509404485057361,32,88,13
6.509789811151748,74,80,13
7.000013536257154,96,95,14
7.000146933886549,65,96,14
7.000193276309176,92,95,14
7.000656948589544,79,88,14
7.001255502147626,52,89,14
7.001315182669164,60,71,14
7.0014080294889265,59,85,14
7.001523277856627,74,99,14
7.002253812680068,48,66,14
7.002391587777822,58,91,14
7.00246603634978,25,87,14
7.002655828329586,95,91,14
7.002874095964656,101,94,14
7.002911442477852,22,81,14
7.003320993653931,91,84,14
7.003480955931683,42,71,14
7.003677336508051,66,96,14
7.0045491888950755,28,75,14
7.004734008814949,61,82,14
7.004928645844474,23,97,14
7.005309376784121,106,83,14
7.0054380572786625,98,69,14
7.005469632513714,70,67,14
7.005483820361957,26,95,14
7.005791752553748,51,80,14
7.006509573351181,34,70,14
7.006668666605509,87,69,14
7.00671642281546,81,63,14
7.00677542267459,56,79,14
7.00724856499315,68,84,14
7.007729214818761,72,99,14
7.007731418739187,21,66,14
7.007769280103272,55,76,14
7.007831984132986,36,84,14
7.008470608269839,46,68,14
7.009110687027674,82,61,14
7.009488459558312,85,94,14
7.009577898009882,27,68,14
7.009627683502532,38,87,14
7.009634992408876,105,85,14
7.500004427814372,44,95,15
7.500360188182914,32,76,15
7.500449112989956,39,88,15
7.501481779282299,99,88,15
7.502220758706933,40,99,15
7.502286767796036,57,80,15
7.502403989128935,24,85,15
7.50255309076504,62,78,15
7.502888849389092,68,86,15
7.503099999371718,106,89,15
7.5035702934397,75,87,15
7.503924581862295,81,89,15
7.504156038959073,84,60,15
7.5041944799395734,28,63,15
7.504287020209865,102,88,15
7.50431380648774,82,70,15
7.50480890146603,56,72,15
7.504815493402758,60,62,15
7.504975398521461,79,88,15
7.505059579077349,29,70,15
7.505166983852263,64,85,15
7.505633246420331,90,80,15
7.505640740288335,87,86,15
7.505650853124528,55,81,15
7.505771225860383,63,73,15
7.50622039562371,96,88,15
7.506406151835489,105,98,15
7.507517721730391,59,64,15
7.5078134884061445,43,79,15
7.508082754395559,22,81,15
7.508231608307089,49,79,15
7.508354078308421,27,95,15
7.508396596557088,83,66,15
7.5084584955046,101,64,15
7.5084804208960145,21,67,15
7.508552069850183,91,68,15
7.508940943025332,37,66,15
7.509182390866754,36,82,15
7.509184264321454,71,98,15
7.509548469930385,108,60,15
8.00011417983454,78,92,16
8.00030857904308,79,88,16
8.000708915758914,71,73,16
8.000982349921891,38,65,16
8.001184923587685,76,94,16
8.00118874391177,39,71,16
8.001251252571418,55,76,16
8.001317150285791,53,69,16
8.001421704467038,91,65,16
8.001628150496769,34,92,16
8.001630353369316,86,91,16
8.001914276804996,45,71,16
8.002857583245927,25,78,16
8.003097878592092,28,82,16
8.003119840203265,105,85,16
8.003165496652679,85,81,16
8.003356104542698,62,62,16
8.003843550385241,103,78,16
8.00387237271178,108,63,16
8.00404527385574,33,92,16
8.00429595943576,22,64,16
8.004305402095072,92,87,16
8.004488136457466,65,61,16
8.005488586650774,100,70,16
8.005589806340998,31,88,16
8.006212924490496,50,92,16
8.00624874099607,68,62,16
8.006279933826042,36,75,16
8.0067105528386,75,60,16
8.00672702994209,51,96,16
8.006972093819096,64,91,16
8.007184539473226,52,65,16
8.007821712630912,70,94,16
8.008087899845636,37,90,16
8.008171281420156,46,92,16
8.008506802606048,94,78,16
8.009209945210966,89,82,16
8.00952467116688,63,75,16
8.009670352752561,29,78,16
8.009702571097261,49,63,16
8.50050018576821,62,92,17
8.500625262957428,51,62,17
8.500771451685395,85,93,17
8.50101893100873,43,86,17
8.501992703364667,29,82,17
8.502026326341353,79,81,17
8.502040246657385,21,98,17
8.502144064829931,50,64,17
8.502153443813825,60,92,17
8.502204836934734,101,68,17
8.502533571700596,97,86,17
8.502688535143822,103,87,17
8.503722003918252,41,69,17
8.50411339466499,42,97,17
8.504335827926326,66,94,17
8.504344033190065,31,68,17
8.504383849800307,107,78,17
8.50450254246143,104,60,17
8.504935009921544,35,72,17
8.505214490241668,56,76,17
8.505468759658761,65,79,17
8.505894539894847,63,76,17
8.506167836078525,68,60,17
8.506252047695304,98,89,17
8.506274865717844,80,63,17
8.506664630475269,84,80,17
8.506724604980251,52,97,17
8.50672871668598,57,77,17
8.50680111885447,87,87,17
8.507867695033571,70,62,17
8.50799718763965,91,98,17
8.508398016066645,105,91,17
8.508613196258151,24,63,17
8.508849643081806,64,78,17
8.508900570254653,72,80,17
8.509145486638486,102,87,17
8.509152571849178,96,96,17
8.509207666084633,76,65,17
8.509362671394133,90,68,17
8.509390570959672,71,80,17
9.000099787766585,73,87,18
9.000191289664373,51,91,18
9.000577321592251,22,78,18
9.000669736120253,53,81,18
9.00114285769998,86,85,18
9.00118415039176,34,87,18
9.001214953910878,105,95,18
9.002036671377727,84,93,18
9.00231548435965,52,88,18
9.003110024947327,104,98,18
9.00335673833039,91,87,18
9.003754689284666,108,74,18
9.004118647404175,61,60,18
9.004119580950341,50,60,18
9.004157751035233,54,92,18
9.00419271661166,37,76,18
9.004390955652509,35,83,18
9.004512941130292,33,78,18
9.004650552483007,79,81,18
9.004663097561401,26,89,18
9.004792600899146,36,99,18
9.00540905003838,80,69,18
9.005413696101572,101,89,18
9.005455851826692,71,77,18
9.005606782949389,87,91,18
9.005719122038506,28,68,18
9.006314189212183,82,72,18
9.006477742329503,29,77,18
9.006920736470244,46,66,18
9.006966272712173,66,88,18
9.006972754190539,102,60,18
9.007146412749087,76,75,18
9.007729867213056,68,98,18
9.008205987576765,94,74,18
9.00843326167788,100,66,18
9.008573089023608,103,62,18
9.008908555349832,59,73,18
9.008956747776187,106,66,18
9.009017740285461,63,61,18
9.009680658120507,107,87,18
9.500057185813608,53,86,19
9.500136985504088,85,94,19
9.500157429129956,62,90,19
9.500336764038744,34,80,19
9.500883849469846,92,96,19
9.50094327426291,77,67,19
9.500949179368217,30,79,19
9.50130080669829,47,70,19
9.501384354933293,106,84,19
9.501909265850717,104,72,19
9.502288754624836,90,78,19
9.50241496485257,66,74,19
9.50249008736109,102,97,19
9.502646350269254,67,98,19
9.50304030272448,108,72,19
9.503089559900681,31,74,19
9.503604268271415,71,70,19
9.503905936075817,86,63,19
9.50428984931841,21,99,19
9.504323462264033,93,60,19
9.504422938054512,41,69,19
9.504639901314643,40,81,19
9.50511635717895,33,94,19
9.505287244190985,73,91,19
9.50557337169573,58,65,19
9.506547090753562,76,66,19
9.507362288825286,96,66,19
9.50747838574412,38,92,19
9.50748232831332,25,60,19
9.507643533864364,105,91,19
9.507767904834072,63,74,19
9.507780252431447,101,82,19
9.508013479918738,94,69,19
9.508644332468684,42,69,19
9.508884641099229,61,74,19
9.509030937278766,54,90,19
9.509384137438582,32,64,19
9.509833056568185,44,83,19
9.509906791570657,46,78,19
9.509961576734987,35,97,19
10.000449614415915,37,98,20
10.00082272324277,63,90,20
10.000985829270224,108,90,20
10.001144315186124,67,82,20
10.001279369245118,72,98,20
10.00167491089094,54,96,20
10.0021079310155,101,93,20
10.002162270091278,90,76,20
10.002197067903914,51,69,20
10.002564630610168,78,95,20
10.003024195112785,104,87,20
10.003060514635228,55,70,20
10.003064634680428,65,93,20
10.003470623684994,40,77,20
10.004353936461758,66,71,20
10.004584314241315,53,72,20
10.004749509652637,102,97,20
10.00478496116256,26,69,20
10.005055087603898,50,83,20
10.005298812610885,28,96,20
10.006172188058779,23,64,20
10.006226305335987,68,67,20
10.00623998485529,57,82,20
10.006642017130718,49,74,20
10.006672123371942,91,99,20
10.006739942081458,77,91,20
10.007374260857707,84,83,20
10.007592925069185,80,99,20
10.0077680333214,33,97,20
10.007894094219136,96,66,20
10.007982931972093,59,67,20
10.008090236402916,86,90,20
10.008169739072718,93,89,20
10.008646589218582,46,82,20
10.008845832929213,29,68,20
10.008860934353132,56,86,20
10.009407732996895,36,89,20
10.009423834540023,73,91,20
10.009753732771465,22,85,20
10.009972378999036,82,79,20
10.500301038722114,56,61,21
10.500661651888345,61,96,21
10.501998412712819,25,70,21
10.502810497501669,105,71,21
10.502914609134939,49,67,21
10.502956545416124,90,97,21
10.5033600705899,27,71,21
10.50375805015846,104,89,21
10.503797515229193,103,99,21
10.504185822855314,94,83,21
10.5044903876793,73,68,21
10.504680690542344,43,87,21
10.50475687818011,76,80,21
10.505105807574596,87,74,21
10.505129221647747,72,89,21
10.505511599619163,35,68,21
10.505564562058254,47,80,21
10.50565781554841,74,82,21
10.50568464898508,98,90,21
10.506152536532824,66,77,21
10.506263223516562,107,89,21
10.506370947008245,92,76,21
10.506533834984786,42,97,21
10.506678679067008,71,78,21
10.507245982868476,44,73,21
10.507494260059808,81,67,21
10.507605756424553,70,75,21
10.507628933355544,62,76,21
10.507727714196651,32,91,21
10.50773552741865,22,82,21
10.507752440518349,89,94,21
10.507960074024274,86,70,21
10.508391803949802,99,60,21
10.509106057172144,21,69,21
10.509149658650779,41,67,21
10.509207396503426,55,82,21
10.50924522468732,53,72,21
10.509273551805864,30,81,21
10.509471614629003,54,63,21
10.509995577032504,31,91,21
11.000167563044924,91,64,22
11.000317784843574,26,80,22
11.000503495269694,37,84,22
11.000987372068826,38,96,22
11.00105853235878,67,94,22
11.00118709095509,28,97,22
11.0015603581134,49,97,22
11.002146958874633,64,68,22
11.00221238696446,90,67,22
11.00226521626036,41,60,22
11.002400707404876,98,93,22
11.002528581182501,108,80,22
11.003032858908492,70,94,22
11.003281794827975,96,85,22
11.003321097833082,35,73,22
11.003625597965591,95,76,22
11.00399518784587,31,84,22
11.004077481050027,84,65,22
11.004666931208844,61,73,22
11.004773503981225,42,75,22
11.005315721526868,77,85,22
11.005666052589055,100,82,22
11.005679742973161,107,87,22
11.00654160154286,55,77,22
11.006586613549398,27,77,22
11.006920112559467,53,81,22
11.006996899090588,79,99,22
11.00738866677133,50,89,22
11.007451794953695,22,81,22
11.007815056477423,89,90,22
11.008084057388936,59,86,22
11.008265510741914,73,64,22
11.008634657303414,99,71,22
11.008731088427643,93,72,22
11.008956979631995,102,61,22
11.009128924447365,105,94,22
11.009337494230016,43,82,22
11.009371089449196,71,85,22
11.009426591769666,57,67,22
11.009835672065137,103,68,22
11.500237077536445,102,80,23
11.500505591879595,59,71,23
11.50050622472269,86,70,23
11.500618857016805,61,86,23
11.500768074410693,32,70,23
11.50087591297406,94,85,23
11.500931961195628,30,72,23
11.500953609212731,79,87,23
11.501002455637229,90,84,23
11.501305012641172,53,84,23
11.501354595367946,49,61,23
11.501811832790501,77,78,23
11.502217819781924,74,76,23
11.502260790710105,106,80,23
11.502338969314723,21,78,23
11.50287326716509,29,82,23
11.503072164170213,82,82,23
11.503458060984105,45,81,23
11.503641127750106,41,63,23
11.503822522519775,47,70,23
11.504171934185646,71,87,23
11.504200040740814,31,77,23
11.504309839019209,42,68,23
11.5045440315448,92,62,23
11.506595059816513,54,92,23
11.506617186826439,73,93,23
11.506966951114368,99,63,23
11.50709438864634,38,67,23
11.507972110725788,97,89,23
11.50820426820259,63,94,23
11.50832363539661,50,76,23
11.50857955090915,58,85,23
11.508871193172237,62,64,23
11.509042432914075,26,99,23
11.509264637979562,43,77,23
11.509467560351737,87,71,23
11.509467562446922,108,79,23
11.5094825153779,69,66,23
11.509738004133572,25,61,23
11.509976228222515,91,71,23
12.000136824147607,73,91,24
12.000401388590854,93,92,24
12.000932714467782,95,70,24
12.00122007413577,85,86,24
12.001259551963793,70,99,24
12.001263864224057,68,85,24
12.001517754098511,60,86,24
12.001659010243708,101,98,24
12.001746471858963,64,86,24
12.001834524011501,98,84,24
12.002530263409202,88,83,24
12.002940674621767,51,87,24
12.003238195749024,30,96,24
12.003781007697874,27,87,24
12.00397884175557,81,74,24
12.004263983568016,79,95,24
12.00482713473077,77,61,24
12.004922323151824,55,91,24
12.005002785352078,76,69,24
12.00511638582519,82,78,24
12.005236005471525,61,71,24
12.005466963282963,89,96,24
12.005753591731292,92,89,24
12.005942418273087,107,61,24
12.006009120056591,100,73,24
12.006334117402421,80,73,24
12.006504252488238,97,81,24
12.006923543061545,62,99,24
12.007341512590417,32,93,24
12.00765829039235,53,61,24
12.007685813309132,48,69,24
12.00779516701424,37,85,24
12.007809193563862,44,66,24
12.008067575637892,31,79,24
12.0082327321268,21,80,24
12.00846887224429,23,71,24
12.008505745280152,28,98,24
12.008903843208552,24,87,24
12.009288595498456,46,99,24
12.009344330387535,71,83,24
12.500209341178268,69,83,25
12.50048092310412,62,86,25
12.501080445593765,46,85,25
12.501255497898985,92,85,25
12.501899361364575,26,85,25
12.502325413316209,84,67,25
12.502523119270696,73,97,25
12.502980756505249,91,72,25
12.503075297954904,30,81,25
12.503152394346495,59,92,25
12.503393052673095,55,95,25
12.503586215819537,29,96,25
12.503700245241427,107,82,25
12.50395937226196,33,66,25
12.504027037209946,94,88,25
12.504259377084669,57,78,25
12.504541836627366,77,70,25
12.50498129943548,28,65,25
12.505413744209074,63,79,25
12.505443448876344,85,73,25
12.505447722269828,100,66,25
12.505726428531156,86,79,25
12.505797311661341,48,85,25
12.506323962564656,71,94,25
12.506409655280988,45,63,25
12.506519008655625,104,98,25
12.50652949658138,70,87,25
12.506666170848794,72,71,25
12.506737017335421,68,81,25
12.507302491895295,24,72,25
12.507534721106596,44,63,25
12.507665273162216,93,63,25
12.50770447221074,49,71,25
12.5079001484156,39,87,25
12.508157694046352,74,88,25
12.508595563969179,50,67,25
12.508979352934437,22,99,25
12.509241077159112,23,72,25
12.509325445893525,21,93,25
12.50975473028314,31,74,25
13.00012907227981,94,88,26
13.00014330905867,93,68,26
13.000210211067262,68,81,26
13.000258093928633,49,67,26
13.000511502056204,25,97,26
13.000595870973532,69,82,26
13.000681090247236,43,61,26
13.001491408259398,102,71,26
13.001844590510599,86,87,26
13.001994115977585,89,63,26
13.002441616087161,88,94,26
13.002803347525514,62,74,26
13.003418472854982,26,80,26
13.003531028889384,40,88,26
13.00373808108867,60,66,26
13.003809518450234,41,77,26
13.003832153659472,107,96,26
13.004141410682157,22,75,26
13.004418337048019,75,62,26
13.004661162926585,32,80,26
13.004744348936207,36,80,26
13.005117074471148,85,78,26
13.005162832991976,23,90,26
13.0055787367566,108,72,26
13.005738658496771,48,72,26
13.005994611396588,35,77,26
13.006050895185405,91,87,26
13.006103774953184,33,98,26
13.006722506872942,66,92,26
13.007877421883023,57,91,26
13.008204875844802,90,63,26
13.0082593230855,82,65,26
13.008372372182219,81,98,26
13.008391466080708,97,79,26
13.008662924359822,31,98,26
13.008835647283702,51,67,26
13.00905538837929,45,90,26
13.009505328209544,79,86,26
13.009945819890353,38,68,26
13.009956378335948,59,89,26
13.500609019330994,69,78,27
13.500691535677184,31,99,27
13.500913088025447,73,70,27
13.501275701745714,62,60,27
13.501285964859605,95,94,27
13.501352173137128,39,94,27
13.501587367633743,101,81,27
13.501957556064056,96,99,27
13.501962943023111,84,93,27
13.502438019377102,99,80,27
13.502545405429217,68,66,27
13.502613330178853,57,87,27
13.502881845259596,100,65,27
13.503150105071834,102,77,27
13.503543771829861,59,82,27
13.503960009663857,41,67,27
13.504200110042957,65,92,27
13.504296733633552,36,75,27
13.50440539159873,51,79,27
13.504717398375185,27,82,27
13.504838025398607,93,82,27
13.505213770214738,25,60,27
13.505485884150547,37,72,27
13.505848278113058,107,99,27
13.505890200909809,85,72,27
13.505937806319434,49,82,27
13.505992992870064,106,61,27
13.506101079220363,97,72,27
13.50618610289094,104,81,27
13.506256819122614,87,83,27
13.506269684345288,103,82,27
13.50652275110899,58,99,27
13.506920505530397,98,93,27
13.506949531193431,55,90,27
13.506993394662526,75,86,27
13.507802126485357,83,79,27
13.508326117733262,66,96,27
13.508796014967118,72,99,27
13.508906584554618,50,93,27
13.50908015089375,22,97,27
14.000255697990898,97,84,28
14.000636847675025,43,70,28
14.000881521581366,82,82,28
14.001316869034362,58,60,28
14.001682785885077,101,70,28
14.001688584633705,108,99,28
14.001891957923904,95,95,28
14.002322246909014,64,78,28
14.003132664765806,70,64,28
14.003169426217672,57,78,28
14.003281600723536,52,76,28
14.004454095211058,45,80,28
14.004608983382067,23,64,28
14.004754757152327,99,97,28
14.005105704087285,34,93,28
14.005234071850674,69,75,28
14.005778279715114,81,76,28
14.005978399868457,44,67,28
14.006249797483761,63,62,28
14.006693569842408,61,70,28
14.006766446348198,31,92,28
14.006777232412013,48,63,28
14.006826526050443,42,98,28
14.007518251459567,94,67,28
14.007646509503848,53,84,28
14.007832154546566,71,66,28
14.007950580176061,78,94,28
14.008120776110086,96,63,28
14.008123907241862,77,77,28
14.008461242105302,104,78,28
14.008596795850803,32,60,28
14.008614180460954,84,73,28
14.008712516273986,27,91,28
14.008713152472469,66,69,28
14.00875488650396,47,72,28
14.009032481050951,56,99,28
14.00911818628686,106,77,28
14.009450240645807,88,88,28
14.009562918815133,107,66,28
14.009812415974555,28,62,28
14.500389578463485,32,72,29
14.500602269449002,93,76,29
14.500686486661479,26,67,29
14.500811642244637,87,72,29
14.501186606144746,73,60,29
14.501191406719961,91,63,29
14.501642868432723,36,81,29
14.501871242704105,94,94,29
14.502318412917147,85,60,29
14.502326366383867,60,83,29
14.502421746503474,31,86,29
14.50279445307319,53,60,29
14.503078191500261,61,83,29
14.503146289089353,65,82,29
14.503262821515689,42,93,29
14.503373306088458,79,83,29
14.50363272796399,24,88,29
14.5037482492435,72,91,29
14.505375846256925,75,66,29
14.50671587742939,76,89,29
14.5070637199681,88,73,29
14.507110009619499,39,95,29
14.507179326909402,55,78,29
14.50724029188773,63,60,29
14.507328591873318,86,92,29
14.507390914219929,105,98,29
14.507780463064831,68,63,29
14.50807865645684,100,93,29
14.508150721006759,30,76,29
14.508212501545596,40,88,29
14.508399977606043,46,89,29
14.508587614298387,25,71,29
14.508614456860213,101,82,29
14.50875904925,66,79,29
14.508865025266418,59,88,29
14.509094295036858,41,60,29
14.509178408830936,62,75,29
14.509540422650781,89,65,29
14.509868959453883,29,99,29
14.509888405413037,48,77,29
15.000038371455078,87,79,30
15.000722769475733,31,85,30
15.000809537361157,34,76,30
15.000897595005602,75,96,30
15.001114876878388,80,89,30
15.001471632510949,45,92,30
15.001954580003684,49,79,30
15.002012637881345,68,73,30
15.002021493992252,106,83,30
15.002057943769895,51,70,30
15.002402194332085,56,77,30
15.003076790894779,50,76,30
15.003140438069185,58,86,30
15.00316101311547,102,69,30
15.003625019845314,55,86,30
15.003782245152433,83,66,30
15.004131073977272,82,84,30
15.004259975194683,62,71,30
15.004308582753822,35,62,30
15.00465036334221,91,96,30
15.004838602188643,29,83,30
15.004890484004493,88,61,30
15.005519363610604,98,76,30
15.005689554832818,47,92,30
15.00583127823453,90,68,30
15.005964670754135,28,95,30
15.006009454845378,24,91,30
15.00619168044243,44,85,30
15.006242407369975,101,91,30
15.006838701249091,77,81,30
15.006914160575132,59,87,30
15.007126656189865,89,61,30
15.007252870843546,97,97,30
15.007598236584284,76,90,30
15.00848923869476,69,91,30
15.008726258854859,99,85,30
15.008844787275967,23,83,30
15.009164891511155,48,77,30
15.009172205918249,96,78,30
15.009192080310537,25,84,30
15.500414973255099,52,80,31
15.500528266863647,93,76,31
15.500573103100105,60,72,31
15.500849662898895,85,71,31
15.501213029980056,67,90,31
15.501654997746636,25,82,31
15.501818176528374,105,62,31
15.501920233691363,61,70,31
15.501975559056785,87,79,31
15.50206993601245,59,96,31
15.502574789761438,37,95,31
15.502650812843386,51,69,31
15.502796363184933,55,95,31
15.502864737377445,71,85,31
15.503278839940183,70,97,31
15.503363233942704,41,65,31
15.50387834269571,29,68,31
15.504850179875241,54,69,31
15.504897858679882,76,67,31
15.50506685790854,62,80,31
15.505324709078838,56,71,31
15.505528148757184,90,97,31
15.505826861465545,28,78,31
15.50617194227117,47,63,31
15.506233795659599,58,71,31
15.506353233467083,57,88,31
15.506727559862469,99,80,31
15.507074262751619,73,80,31
15.507211323573568,107,65,31
15.50738743509616,88,73,31
15.507767984372085,98,64,31
15.507890228445481,89,68,31
15.508051168513163,35,89,31
15.508364155965799,48,81,31
15.508365308907608,38,97,31
15.508545473932022,95,65,31
15.508579349139973,39,83,31
15.50922603757094,101,76,31
15.509301652028626,42,93,31
15.509328676901266,43,83,31
16.00008777211948,21,85,32
16.000210091569862,32,84,32
16.000324510767907,24,74,32
16.000352151735257,85,68,32
16.000797150731874,29,96,32
16.000867065675955,42,71,32
16.000992295960945,69,97,32
16.001303531300433,78,75,32
16.001840447720504,26,80,32
16.002017949482525,48,66,32
16.00215155621624,87,67,32
16.002257895521506,65,85,32
16.002715504551777,86,74,32
16.002755667763093,25,92,32
16.002980068571937,101,74,32
16.00304490424354,88,63,32
16.003261702541284,107,86,32
16.00341865768798,81,63,32
16.00372999835567,34,63,32
16.003940901527745,35,85,32
16.00399126100445,33,69,32
16.00403031311283,99,87,32
16.00406416536574,49,96,32
16.00537340496843,93,70,32
16.005756652529975,73,75,32
16.007176761577934,91,84,32
16.00738546053397,108,64,32
16.007514233175314,75,73,32
16.007604000672874,23,91,32
16.008166552432016,36,92,32
16.008295658314285,63,64,32
16.00838608887534,61,90,32
16.008472694099627,58,72,32
16.008606678217888,37,71,32
16.00899248918289,74,72,32
16.009185216027706,56,75,32
16.009236648375495,39,69,32
16.009442088383462,92,82,32
16.00963685188687,98,72,32
16.009769655461266,83,93,32
16.500061838226408,47,61,33
16.50050507392383,49,97,33
16.500524817101,31,69,33
16.500639009420485,106,79,33
16.500792131500084,86,76,33
16.500966945597877,75,87,33
16.501119345781348,25,92,33
16.501545208299905,23,97,33
16.501661849996097,30,63,33
16.501843013969502,98,80,33
16.502547487073368,102,86,33
16.502627209435612,57,80,33
16.502786943159286,72,87,33
16.503032197838444,50,82,33
16.503164571308744,64,93,33
16.5034302671259,39,69,33
16.503471921675622,84,68,33
16.50375852465182,26,61,33
16.503922670415236,78,99,33
16.50392909335605,95,72,33
16.504049685873763,53,60,33
16.504144083977184,71,99,33
16.50428351800569,90,78,33
16.50456730592886,34,72,33
16.504769833926176,80,69,33
16.505096564508037,93,60,33
16.505684319543306,105,95,33
16.505701816317547,33,79,33
16.505798295760478,45,65,33
16.50587626986615,88,80,33
16.506150697540146,41,75,33
16.5077448560312,108,90,33
16.50783501502588,85,92,33
16.50785189884423,52,86,33
16.507882009298665,36,86,33
16.509376397799578,35,66,33
16.509521439170765,101,78,33
16.509614145404235,40,73,33
16.509620584989413,32,82,33
16.50983711583209,28,80,33
17.000098275525698,40,61,34
17.000680373140916,80,94,34
17.000689278781348,28,88,34
17.001064117629028,84,74,34
17.001195308695472,33,97,34
17.001256434924123,73,98,34
17.001828645267548,41,94,34
17.002416012764357,96,90,34
17.00253984753376,90,61,34
17.002667945494338,64,84,34
17.00320997045641,97,73,34
17.00322989683177,57,87,34
17.003478223474332,61,66,34
17.003596755612232,99,76,34
17.003862877051457,94,60,34
17.00390917426841,63,63,34
17.00411113416995,54,69,34
17.004603290506427,95,62,34
17.00491019762669,58,64,34
17.0049209201035,76,93,34
17.005091354129217,108,80,34
17.005224968088907,51,76,34
17.006356319986402,72,61,34
17.006768722758277,68,65,34
17.006877692063657,74,82,34
17.007040314525916,53,86,34
17.007111600875277,98,97,34
17.00715364115229,27,65,34
17.00746603204644,30,72,34
17.0074729755756,25,90,34
17.007603282214042,78,91,34
17.007638565002,23,98,34
17.00777727910068,70,63,34
17.008001375827522,36,96,34
17.008147936675236,66,96,34
17.00841622007543,26,73,34
17.008499464959453,69,98,34
17.008715858828623,86,94,34
17.00937825799985,46,81,34
17.009533071675822,107,62,34
17.50011917982978,47,62,35
17.50039947973286,68,61,35
17.50055101535159,104,61,35
17.50091777606471,58,77,35
17.501067118191024,34,87,35
17.501356614671604,67,97,35
17.50219861956369,29,66,35
17.50275170112488,83,95,35
17.50315668481164,95,74,35
17.50315743402484,93,86,35
17.503866964499874,44,87,35
17.504078959373714,107,97,35
17.50453926136422,56,90,35
17.504636220743436,79,97,35
17.504778673549133,66,85,35
17.505253182644505,48,65,35
17.505391910795137,38,87,35
17.50572171961784,74,88,35
17.506103760597817,39,74,35
17.50626054708981,71,86,35
17.50655509971846,91,60,35
17.50666935417557,102,75,35
17.50682511730116,69,85,35
17.50715322310529,106,85,35
17.50725326390736,57,80,35
17.507517945873673,21,79,35
17.507890961116487,41,88,35
17.508263903116006,50,69,35
17.50858206790977,84,98,35
17.50867999591895,24,79,35
17.508696958848518,43,90,35
17.508793244633626,70,94,35
17.509138762903216,35,62,35
17.50928555532894,49,69,35
17.509306722555625,53,92,35
17.509727937016564,82,75,35
17.509756019191567,64,86,35
17.509824825806014,100,84,35
17.509976722632647,103,62,35
17.509981999076658,46,70,35
18.000176700447955,53,88,36
18.00019167887525,62,60,36
18.000330119359003,96,89,36
18.000562139054598,39,96,36
18.00086782954065,33,77,36
18.00097610038109,101,95,36
18.001034750636467,24,74,36
18.001438679663433,89,84,36
18.001442400211182,37,94,36
18.001567604286517,26,93,36
18.001654201521283,45,70,36
18.0019022793082,25,72,36
18.002056214876994,63,66,36
18.00209918045748,55,62,36
18.00217728899683,52,85,36
18.002183031118115,85,98,36
18.00223086334529,71,79,36
18.002861350424585,32,60,36
18.002922489567393,21,98,36
18.003015868698736,54,94,36
18.00303735046225,70,95,36
18.003540645623552,44,77,36
18.00447971656382,38,94,36
18.004523667592064,67,96,36
18.004528833604155,81,95,36
18.00483574585704,99,83,36
18.004934067004132,73,63,36
18.0049722919502,87,83,36
18.00514784234933,68,78,36
18.00537275673668,104,80,36
18.005936846199088,76,74,36
18.00712220205177,94,70,36
18.007537201765622,77,74,36
18.007955783762576,64,81,36
18.00833034263941,22,98,36
18.008787465236768,59,92,36
18.009061375361274,93,82,36
18.00911785112382,23,75,36
18.009152899403794,69,66,36
18.009760860241997,72,95,36
18.500185312335944,42,90,37
18.50019972932578,102,85,37
18.500693077730382,35,85,37
18.500706966081843,83,65,37
18.500925285543666,77,61,37
18.501778840587345,84,67,37
18.501923463631538,76,99,37
18.502115067492817,33,89,37
18.50236720475854,26,87,37
18.502437082119044,92,72,37
18.50248797063753,101,93,37
18.502691897394733,58,75,37
18.502771443518732,47,89,37
18.503433777895747,39,67,37
18.503783156071652,64,89,37
18.504109425523502,46,61,37
18.504161609464063,57,72,37
18.504173829418004,40,80,37
18.504226866196575,72,92,37
18.504320672850668,91,71,37
18.504352927241875,31,78,37
18.504426937019673,89,78,37
18.50506044692412,59,68,37
18.505180153489086,90,88,37
18.505217334188533,50,71,37
18.505807685836146,66,61,37
18.505822374488027,21,62,37
18.506267705194173,48,81,37
18.506349297301178,82,83,37
18.50689791247313,23,86,37
18.507318727372866,73,84,37
18.507528474750913,43,89,37
18.50781728989005,108,85,37
18.508131420044815,60,85,37
18.50820849009263,44,68,37
18.50842945482456,28,69,37
18.50863789622965,54,64,37
18.509061009286803,86,94,37
18.509813833342413,41,63,37
18.509962244930446,103,85,37
19.00031513043082,57,62,38
19.000806697673912,31,76,38
19.00134024894319,24,60,38
19.0014660830036,52,62,38
19.001499092532473,39,83,38
19.001828930530685,95,86,38
19.00210191968719,63,62,38
19.002171032294697,71,81,38
19.002389976802114,72,74,38
19.00268856912904,83,61,38
19.002891503344543,92,70,38
19.003414694066084,108,62,38
19.003415703870317,56,61,38
19.00368725155471,67,82,38
19.0040035662684,93,65,38
19.004111272782595,81,75,38
19.004595629775054,23,97,38
19.005026301156214,73,61,38
19.005032204148588,62,91,38
19.005183654633353,80,64,38
19.00520231960504,40,95,38
19.00599358587136,64,64,38
19.00607778438607,29,94,38
19.006330851264963,21,77,38
19.00645150083301,98,96,38
19.00648256954078,90,64,38
19.00650113223419,86,84,38
19.006673318496677,54,84,38
19.006802506883304,100,99,38
19.007013635603105,84,86,38
19.008005361051268,69,88,38
19.008255348415204,87,71,38
19.008723945633548,35,71,38
19.00879393056807,82,91,38
19.009077612436503,77,99,38
19.00932266883921,44,98,38
19.00953316372201,51,80,38
19.00964928601502,79,98,38
19.009682088408628,65,64,38
19.009828601178555,88,90,38
19.50003918374951,52,70,39
19.50034650709814,103,77,39
19.500520237550294,108,87,39
19.50102332179534,62,63,39
19.501151557874028,28,74,39
19.501785197892726,84,99,39
19.50200712842914,21,88,39
19.502059881841884,58,87,39
19.502343700906778,78,83,39
19.502434670440667,94,83,39
19.502650472874095,85,81,39
19.502759488281573,47,84,39
19.50278112167554,102,91,39
19.502817973503966,104,91,39
19.502846747388464,79,96,39
19.502860899220313,65,60,39
19.502984930980748,72,80,39
19.503134773598465,57,79,39
19.50319225297786,48,90,39
19.503525292413006,86,90,39
19.503616660831952,50,67,39
19.503762593293303,76,91,39
19.50418932977984,101,65,39
19.504873748079213,68,94,39
19.505097260752883,54,82,39
19.505328471322834,39,87,39
19.50539661788903,60,85,39
19.505834262151442,32,85,39
19.506374024812093,33,85,39
19.50658901806575,87,67,39
19.506640330331113,95,97,39
19.506993847409873,71,97,39
19.507565391672262,90,73,39
19.508022736971476,91,98,39
19.508183005094395,31,66,39
19.508759330221864,40,96,39
19.50914694560337,26,68,39
19.50943766382212,22,86,39
19.509453070402515,93,93,39
19.50965517918235,98,95,39
20.00003959943012,89,90,40
20.000508534236356,49,65,40
20.000512242964042,94,67,40
20.000948491932533,75,78,40
20.00097376729108,104,99,40
20.001058050248567,65,73,40
20.001156056106115,60,63,40
20.001514104439362,81,93,40
20.00153412882389,85,98,40
20.001566128148927,52,77,40
20.00159159083994,58,70,40
20.00169203051677,39,84,40
20.001764397704704,46,97,40
20.00190381786297,21,98,40
20.002154629072756,50,69,40
20.002435283388994,100,95,40
20.002626697353303,36,88,40
20.00315553474443,91,87,40
20.00337477045713,67,99,40
20.00354931200968,107,84,40
20.003616073184254,44,99,40
20.003837724579775,103,79,40
20.004194814850898,61,82,40
20.004527543377087,22,69,40
20.004638098246744,78,74,40
20.00472990593698,27,81,40
20.005498769211563,64,87,40
20.005657420260707,72,85,40
20.005785639322795,47,87,40
20.005908662673953,62,67,40
20.006634903451285,84,73,40
20.00670864887002,97,61,40
20.00720111333515,66,84,40
20.00740509521218,105,77,40
20.007728400834264,74,93,40
20.008425382293986,88,61,40
20.008939730574625,25,66,40
20.008995127650962,92,89,40
20.00926665553887,86,77,40
20.009859341686248,40,77,40
20.500597622741783,108,78,41
20.500601085560785,97,71,41
20.500881422433906,85,76,41
20.50164270449456,100,74,41
20.501682365791083,61,63,41
20.501736716369543,40,84,41
20.502093483993843,72,72,41
20.50247462981233,71,72,41
20.502736663849216,27,70,41
20.502778911259878,25,86,41
20.50279766930887,106,81,41
20.50314587633414,95,88,41
20.50329530413774,76,82,41
20.504554655720064,81,87,41
20.505182057321825,70,98,41
20.505227094540675,96,67,41
20.50540552675389,46,93,41
20.505415969227986,32,90,41
20.505572518333185,90,98,41
20.505830676844223,33,75,41
20.506154514203843,78,82,41
20.506455958727496,104,98,41
20.506720197621807,43,97,41
20.50693400853429,30,71,41
20.50697864395352,24,88,41
20.507181017379562,34,90,41
20.507272684704525,107,92,41
20.50732877452884,56,91,41
20.508008026879786,23,74,41
20.508245170698,22,63,41
20.50825248666652,92,66,41
20.508484822099337,67,76,41
20.509003122395743,88,71,41
20.509187473048044,41,88,41
20.509207708496362,50,85,41
20.509355230227587,93,73,41
20.50940690187723,49,85,41
20.509450170942486,38,95,41
20.509477695820323,65,64,41
20.509993362799836,51,98,41
21.000099692347344,106,71,42
21.000523328573006,70,75,42
21.00061343874484,87,61,42
21.00065798217795,86,66,42
21.000666598298235,24,76,42
21.00075412175993,69,98,42
21.000800182697578,47,67,42
21.00080063402529,107,83,42
21.001306343815575,39,83,42
21.001636756637296,81,71,42
21.001948404916554,75,67,42
21.002117981498817,65,61,42
21.002217794919336,48,76,42
21.002326038621487,33,70,42
21.002685049172527,72,98,42
21.003363937234028,95,89,42
21.00388674750671,46,80,42
21.004108163955674,44,60,42
21.004113302903313,52,66,42
21.004948259516006,73,84,42
21.005027834418467,45,77,42
21.006069731162743,104,65,42
21.006583995953772,77,63,42
21.00696362432533,23,60,42
21.007297705115736,56,78,42
21.007372192235714,67,63,42
21.007436025175608,100,70,42
21.007472361380394,41,98,42
21.007714733448594,21,72,42
21.00799082145772,35,90,42
21.008049668338817,50,96,42
21.00841615459758,98,61,42
21.00854515435911,84,96,42
21.008546750413842,92,72,42
21.008679666420022,58,88,42
21.00874109118026,22,93,42
21.009261929864145,97,85,42
21.009597837864376,61,98,42
21.009629579946488,94,66,42
21.009807611743888,105,70,42
21.500363407483164,88,65,43
21.500434333572358,30,97,43
21.500867486355013,77,96,43
21.501132312232592,58,65,43
21.501303179880914,91,92,43
21.501349784860718,67,70,43
21.50138397585968,29,92,43
21.50149777131681,62,89,43
21.501980030303077,95,77,43
21.502267342268983,31,90,43
21.50246348247242,33,83,43
21.5025320116337,38,85,43
21.502858414486635,52,97,43
21.503057561275124,57,63,43
21.503206199065502,100,83,43
21.503320007021177,79,81,43
21.503945511292812,86,60,43
21.504105986972384,32,87,43
21.50417968508014,65,85,43
21.50428918959494,78,79,43
21.504381116510334,27,95,43
21.504498039907045,70,97,43
21.504564134397125,21,90,43
21.504850729091427,63,60,43
21.505016991660064,50,83,43
21.505304242203273,84,83,43
21.505597174359284,68,60,43
21.505873698685757,69,69,43
21.5059017077365,43,74,43
21.506074717539086,61,72,43
21.506463651121237,64,95,43
21.506928784276965,90,98,43
21.50697447828164,106,70,43
21.507464521288572,74,82,43
21.50808357822498,81,80,43
21.50818360641395,60,95,43
21.508306357646862,47,72,43
21.508962567164716,71,66,43
21.509297917226306,54,83,43
21.50936570218071,55,82,43
22.000038302905004,33,83,44
22.000547449822594,25,77,44
22.000645007586865,77,93,44
22.000740749072104,51,74,44
22.0008645750712,31,82,44
22.00106551247216,99,64,44
22.00112840544517,44,87,44
22.00159749460234,90,65,44
22.00164730896081,82,75,44
22.002193893891963,24,94,44
22.002322896540964,80,74,44
22.002642997527737,43,95,44
22.002744117210003,35,79,44
22.002874025338453,102,81,44
22.00303503909148,26,60,44
22.003127132951416,96,69,44
22.004261223709726,84,80,44
22.00467387335448,32,87,44
22.00477109817694,58,60,44
22.005031335547482,73,63,44
22.005183187224294,105,82,44
22.005268171660504,69,72,44
22.0055054530062,94,69,44
22.0055979572218,28,95,44
22.005701872158,41,98,44
22.005798053451667,65,87,44
22.0073679456871,89,88,44
22.007642515980695,68,68,44
22.007928400452734,45,88,44
22.008050933767997,36,92,44
22.008066858547636,107,75,44
22.008067781425062,53,97,44
22.008368634222265,91,93,44
22.00874747073489,75,93,44
22.00882205737227,64,68,44
22.009384476404104,93,92,44
22.009616114422546,38,76,44
22.00962891634178,83,86,44
22.009992072989434,61,92,44
22.00999751563429,92,64,44
22.500395575065625,39,68,45
22.500696906967303,73,91,45
22.500988733426627,105,89,45
22.501806366979412,47,99,45
22.50200564659588,60,94,45
22.502102761779017,104,79,45
22.50230979310528,34,76,45
22.502339228207795,59,95,45
22.502639755197098,96,72,45
22.502849132525526,61,61,45
22.503033642822142,44,72,45
22.50314952061919,69,61,45
22.503216863687012,55,94,45
22.503402229944513,66,67,45
22.50358219041243,65,75,45
22.503822373200144,25,68,45
22.50383567391007,75,93,45
22.50421774241936,88,78,45
22.504605825506946,67,62,45
22.504770482251793,92,79,45
22.50482854764983,27,70,45
22.504830662451933,46,80,45
22.50483402236523,48,90,45
22.505780721020123,94,87,45
22.5064336972507,71,62,45
22.506484549141813,53,70,45
22.506980705464034,77,85,45
22.507041755561946,99,96,45
22.507328383372723,49,91,45
22.50755060414816,86,63,45
22.50765270524117,58,81,45
22.507672333941592,106,69,45
22.50801164067175,107,68,45
22.50806707807745,87,77,45
22.508544550831854,78,70,45
22.508588415834144,82,67,45
22.508778473110166,31,70,45
22.509108342269897,38,99,45
22.50934410794571,56,86,45
22.509366613045845,85,71,45
23.000094198559726,29,69,46
23.000151741990464,58,75,46
23.000154982418263,66,98,46
23.000203410818823,90,60,46
23.000342979013034,84,93,46
23.000364254433016,26,72,46
23.00038799454729,56,86,46
23.000400690863483,25,63,46
23.000785362427926,41,76,46
23.00101276123831,62,89,46
23.001354945189288,42,67,46
23.001506109530684,105,84,46
23.00208231808608,76,62,46
23.002422933292003,85,69,46
23.00259399738802,61,70,46
23.00309733248946,87,68,46
23.00345620168901,98,60,46
23.003461085001643,71,96,46
23.00383481122575,47,95,46
23.00391998043889,64,64,46
23.004500519305537,65,74,46
23.004556256153553,81,69,46
23.004677486753746,45,68,46
23.00490449096736,60,75,46
23.005042634607932,24,80,46
23.00505772833869,99,68,46
23.005506905446946,46,60,46
23.005559120170744,49,85,46
23.006066615297758,70,82,46
23.006882189194076,107,91,46
23.007004548654244,57,74,46
23.007667683563383,55,88,46
23.007785158800615,27,83,46
23.007839718505057,54,84,46
23.008026562441522,51,73,46
23.00829428870434,74,94,46
23.00836118615545,96,77,46
23.008629640464754,80,84,46
23.009108242203304,31,75,46
23.00996807712679,21,96,46
23.500701014802676,78,77,47
23.50100947681636,95,87,47
23.501039593759124,46,90,47
23.501126092293493,50,78,47
23.501130529678345,29,77,47
23.501262834725846,25,62,47
23.501310798617048,70,74,47
23.50183579627355,102,90,47
23.502105284884408,53,88,47
23.5021905917306,101,80,47
23.502336247636485,28,88,47
23.502703485904956,96,73,47
23.502805278218553,68,93,47
23.503462660415348,36,80,47
23.503690177324113,65,85,47
23.50379924290962,71,65,47
23.504066365268848,74,90,47
23.504203333094317,62,98,47
23.504854976402825,97,84,47
23.505049328040894,55,98,47
23.505085274317736,45,74,47
23.505809685866318,66,93,47
23.50605071253438,63,94,47
23.506110234115418,93,65,47
23.506178131945894,94,78,47
23.50626098101987,73,91,47
23.506292191930083,22,68,47
23.506526020152155,42,77,47
23.506562029803735,98,80,47
23.50730928035933,75,68,47
23.507497257467836,99,78,47
23.50756233589816,77,83,47
23.507746729371817,54,93,47
23.508749876880525,23,97,47
23.508866154889894,24,63,47
23.5090496188017,100,71,47
23.50922223318155,106,61,47
23.509324439783775,41,78,47
23.50933593143701,56,94,47
23.509841188838262,108,68,47
24.000234329553674,99,69,48
24.000642527229544,25,60,48
24.000719808184634,69,62,48
24.000779938664095,40,84,48
24.001045628647542,87,87,48
24.00122921879999,46,97,48
24.001290364088895,107,95,48
24.001585202340273,28,88,48
24.00160713349191,52,62,48
24.00189138696327,88,90,48
24.00214564820093,64,90,48
24.00215243820501,86,94,48
24.002340577750175,42,66,48
24.00245999740307,102,76,48
24.00320733092345,105,68,48
24.00341020172256,85,83,48
24.003625832125948,94,97,48
24.003735402963144,39,71,48
24.003962772624917,96,76,48
24.004023935648146,83,96,48
24.004315843291174,55,72,48
24.005125762159242,21,89,48
24.005184929749422,93,80,48
24.005336169313093,49,79,48
24.005703125078266,32,85,48
24.006076959034978,71,87,48
24.00622549396213,70,89,48
24.00654907123148,36,60,48
24.00668504901151,41,75,48
24.0070286644405,65,89,48
24.007139009333965,104,63,48
24.0075838477159,72,92,48
24.0077069197076,29,70,48
24.008134068935647,97,81,48
24.00856612336225,76,67,48
24.00875008699744,82,89,48
24.00921987475965,62,84,48
24.009498292054865,90,60,48
24.00966225725706,84,68,48
24.009668655502935,54,74,48
24.500080081406736,72,93,49
24.500551096399406,32,82,49
24.500895201967968,67,63,49
24.50116273680293,96,80,49
24.501401654333826,95,90,49
24.501682110924335,93,96,49
24.50181808465667,25,91,49
24.501834053486096,56,90,49
24.502796014326453,26,88,49
24.5028622430724,88,94,49
24.503084692125828,76,90,49
24.503327341539837,74,76,49
24.503672777012806,103,73,49
24.50383534512434,34,71,49
24.50390376446047,84,63,49
24.504047058743293,71,78,49
24.504438559911407,30,63,49
24.504466887217447,40,71,49
24.504507060582505,91,86,49
24.504852556041474,102,77,49
24.504971672807176,38,69,49
24.50512749899794,43,92,49
24.505161348046745,73,78,49
24.50527148381625,92,62,49
24.506392628831815,69,63,49
24.506507883208467,53,97,49
24.50676976752311,52,70,49
24.50698173860715,51,92,49
24.50714119140925,45,99,49
24.508175653295446,61,60,49
24.508179041768326,79,65,49
24.508423713338182,97,82,49
24.508608108626866,68,84,49
24.508639548220096,104,62,49
24.508713335923403,54,62,49
24.50892611328044,35,94,49
24.508967465499076,49,96,49
24.509014468295383,77,92,49
24.509556394617235,106,62,49
24.50996296804245,21,81,49
25.000117798762865,49,84,50
25.000466848198993,45,84,50
25.00055156590602,98,97,50
25.000741761955943,97,65,50
25.001201592587357,95,76,50
25.00176039682155,99,90,50
25.001879035887985,66,75,50
25.00222082188209,56,92,50
25.002525860066847,107,89,50
25.00342022664248,67,67,50
25.00367169625695,52,79,50
25.00449598906008,37,92,50
25.004892299002044,105,67,50
25.005005808894484,88,67,50
25.005285842014374,70,85,50
25.005306951897634,61,96,50
25.005425754525355,57,63,50
25.005807968298534,39,75,50
25.006025113635747,29,84,50
25.00603744288563,63,82,50
25.006223166372486,31,92,50
25.00630448115658,68,92,50
25.00630851038645,71,66,50
25.00671779270255,55,80,50
25.00720101654539,90,68,50
25.007206162906638,84,71,50
25.007249127466245,60,77,50
25.007331530231067,42,93,50
25.007348505204995,34,99,50
25.00746313812569,35,63,50
25.008215355778898,30,94,50
25.008406036227733,94,81,50
25.008406326448192,92,98,50
25.008808814237746,23,66,50
25.009040349864545,108,77,50
25.009439959067105,64,64,50
25.00945673537051,47,85,50
25.009892166834206,26,88,50
25.00990222534615,82,67,50
25.00997582592946,22,60,50
25.500007895110933,24,85,51
25.50031056876035,77,63,51
25.500546846207534,44,78,51
25.500723572577414,51,90,51
25.50072376393194,94,96,51
25.50096125851732,60,70,51
25.500999852474838,89,73,51
25.50133468879282,64,90,51
25.501445797102395,75,65,51
25.50162515644757,69,96,51
25.50171273410666,91,61,51
25.50177409470121,62,91,51
25.50179645315864,41,70,51
25.50256661689896,58,95,51
25.502668992880988,39,99,51
25.50277258416349,80,92,51
25.503012312947938,52,91,51
25.503415696329444,97,90,51
25.50366752076426,48,69,51
25.50377387624975,22,61,51
25.504795192371112,68,90,51
25.504824236015946,35,88,51
25.504992429075248,83,77,51
25.505164443419027,21,78,51
25.50579632458202,40,74,51
25.505823955084086,85,92,51
25.506338498187354,63,80,51
25.506447199773817,74,73,51
25.50665272836237,28,73,51
25.506781225015366,31,85,51
25.50694827579328,71,98,51
25.507075354377456,67,67,51
25.50718990756853,38,88,51
25.507472246450885,46,97,51
25.50748238806181,27,88,51
25.50840785071939,26,72,51
25.508975621934532,55,92,51
25.509223077754836,81,72,51
25.509283357720058,107,97,51
25.509375503374073,79,66,51
26.000333231994396,61,95,52
26.000540476273496,72,70,52
26.000565156907967,87,77,52
26.000938218723956,78,83,52
26.000950565368324,101,91,52
26.001183622278514,44,66,52
26.001255241812277,102,90,52
26.00131743799632,32,72,52
26.001842198992964,31,63,52
26.001981307418237,24,65,52
26.002062027159017,54,97,52
26.00207469438059,60,81,52
26.00210047337292,103,77,52
26.002392232136657,105,98,52
26.003166024348275,28,86,52
26.003578411586414,47,66,52
26.00374649219015,50,69,52
26.004118522831444,46,94,52
26.00421118904434,23,72,52
26.004300553451912,65,63,52
26.004315081198477,51,90,52
26.004395077804475,107,94,52
26.00471083729484,36,94,52
26.004941576035517,45,94,52
26.005123003609153,40,96,52
26.005159458785254,48,61,52
26.005282266077273,82,60,52
26.005435955749114,64,81,52
26.00599704413408,97,66,52
26.00610860083517,73,74,52
26.006145410182214,59,75,52
26.006472222833978,83,65,52
26.00661447816613,95,90,52
26.006918639081608,94,76,52
26.00790259903942,104,99,52
26.00856729946506,79,94,52
26.008878176403357,98,90,52
26.00940179834729,41,62,52
26.00940537301103,100,91,52
26.009532371787813,34,93,52
26.500189276405116,78,66,53
26.500261583423235,62,89,53
26.50084387947895,22,89,53
26.501289789079273,105,63,53
26.501537493121027,97,68,53
26.502061970792553,79,82,53
26.502110066917076,50,86,53
26.502212378198067,61,67,53
26.502284258523083,101,71,53
26.502573654584015,92,83,53
26.50259550433273,80,82,53
26.50272002573731,88,80,53
26.5027315962037,30,75,53
26.503230710684058,38,88,53
26.503637255211355,54,79,53
26.504386716968032,28,69,53
26.504472137407937,98,91,53
26.504532617725257,70,67,53
26.504732131868845,26,90,53
26.505864595123747,57,83,53
26.50589156377394,66,93,53
26.506041306288566,59,78,53
26.5060858315464,82,61,53
26.50669348350763,103,87,53
26.50674007356463,33,61,53
26.50687283004413,36,88,53
26.507091807037945,77,64,53
26.507354365938923,44,77,53
26.50757469050723,42,72,53
26.5082164933388,68,70,53
26.508262173757753,34,67,53
26.50838621796198,93,89,53
26.508394080376092,39,63,53
26.508418087090288,25,79,53
26.508430369469277,74,95,53
26.50895100029066,24,86,53
26.508978981047743,90,64,53
26.50908437547872,84,79,53
26.50991056508739,99,82,53
26.50999741272258,94,66,53
27.000195026476106,40,90,54
27.00022202812988,72,84,54
27.00063535722424,95,63,54
27.001031467608783,49,91,54
27.00107853264562,38,85,54
27.001254417844507,73,76,54
27.001261950910262,94,75,54
27.00126655872847,31,90,54
27.001344901064954,34,83,54
27.00171709988974,105,84,54
27.001910518687087,97,60,54
27.001985428588682,66,95,54
27.002336090320362,65,68,54
27.002416024620402,51,63,54
27.002475645081418,104,85,54
27.002804632242047,63,98,54
27.00283296527998,69,91,54
27.00312760727422,81,78,54
27.003739387136036,29,64,54
27.00376311816955,80,98,54
27.00386155918594,76,63,54
27.004827283874768,79,63,54
27.0053898087445,56,69,54
27.005671287075323,44,97,54
27.005720546391814,58,78,54
27.00615726053445,91,88,54
27.006289051449237,62,70,54
27.007120079611983,96,95,54
27.007219769617986,54,76,54
27.007423102455338,50,73,54
27.007906029647696,103,81,54
27.00793893361762,39,82,54
27.00795072881181,64,94,54
27.00838887899126,87,95,54
27.008753712633272,74,69,54
27.00905321828376,90,69,54
27.009106430158347,78,69,54
27.009709047114498,75,64,54
27.009849503163615,60,63,54
27.009882621151434,68,73,54
27.500045044809802,63,83,55
27.500106701270063,42,95,55
27.500139490186918,25,98,55
27.500219865220394,87,78,55
27.500627221714144,103,73,55
27.500709161914386,74,64,55
27.50101754528501,23,81,55
27.50103378007202,35,76,55
27.50111034923024,58,91,55
27.501275681513643,83,72,55
27.501411096483327,93,92,55
27.501526581645408,54,76,55
27.5017929623526,96,83,55
27.503280696844858,50,83,55
27.504128393977588,41,85,55
27.504518690446524,29,88,55
27.504760207068802,59,71,55
27.504947542404356,40,88,55
27.50509735510004,22,90,55
27.50520874036635,86,71,55
27.50548021497229,106,64,55
27.505877954050664,73,70,55
27.505889360225627,60,68,55
27.505893316449477,104,65,55
27.50604801761844,64,96,55
27.50611494852719,65,66,55
27.50649228779541,27,69,55
27.506678062199867,34,62,55
27.506694120642535,61,96,55
27.507229306722387,98,65,55
27.507304137528816,92,74,55
27.50793537402229,43,90,55
27.508301925630697,55,99,55
27.50897528622377,68,80,55
27.509132059618143,56,82,55
27.509214577362165,47,89,55
27.50969439375676,91,95,55
27.50975450524135,24,74,55
27.509760201575244,62,75,55
27.50981029489115,100,67,55
28.00011526014053,24,95,56
28.00047957732437,73,67,56
28.000516856799113,55,84,56
28.001130997394238,53,60,56
28.001326039907468,106,75,56
28.001606031464295,101,77,56
28.001756001397084,48,95,56
28.0020928776153,80,66,56
28.002268371023256,52,94,56
28.002683397912747,34,64,56
28.002937618730275,63,70,56
28.003239792747102,105,83,56
28.003332417405506,95,84,56
28.003563666377552,93,88,56
28.00396889393089,30,74,56
28.004239305350296,89,77,56
28.004473324266662,86,87,56
28.0045218293936,90,85,56
28.00453370605604,49,80,56
28.00470371567385,71,66,56
28.00476058769502,79,90,56
28.00491514225832,27,87,56
28.004990361729043,43,85,56
28.005097231716036,32,97,56
28.00523292462889,69,63,56
28.00538137067711,108,89,56
28.005706831750718,37,75,56
28.005718287711826,68,73,56
28.005897290360764,98,88,56
28.006303977312747,85,85,56
28.006629062523444,40,71,56
28.00703913426128,92,87,56
28.007458922650656,31,91,56
28.00766705237997,91,83,56
28.00829668680265,107,90,56
28.00858373379761,54,64,56
28.008629710273322,77,66,56
28.009592354353238,35,95,56
28.00980648219564,104,94,56
28.00999707637822,99,83,56
28.50000410289439,54,81,57
28.500670937326298,26,63,57
28.500949079097662,72,94,57
28.50115517900107,58,74,57
28.50136250565092,83,63,57
28.501670556694688,77,75,57
28.501701427401773,76,62,57
28.501855259752578,70,70,57
28.503193168800212,56,80,57
28.50356476670848,104,72,57
28.50373650296373,32,71,57
28.503916755965356,89,80,57
28.50398054840679,103,97,57
28.504244928326766,37,74,57
28.5042654569861,30,92,57
28.504441130051752,91,63,57
28.504523234776343,24,80,57
28.505374169386,101,67,57
28.505413353827013,41,87,57
28.505570475861923,80,96,57
28.506087229421784,22,75,57
28.50635156988864,88,98,57
28.506561460918473,59,66,57
28.506613603936614,92,66,57
28.506641527650544,93,68,57
28.506908535043397,39,65,57
28.507126014072984,25,98,57
28.507720317859725,85,88,57
28.508042611543786,67,99,57
28.508158552557457,40,74,57
28.508169576873943,63,97,57
28.50867477023496,62,60,57
28.508781151969856,46,83,57
28.508986165409436,95,88,57
28.509232995082698,102,79,57
28.509558700432684,42,93,57
28.509596261537897,90,80,57
28.509682079277034,61,76,57
28.509722297092164,57,88,57
28.509779934237383,96,63,57
29.00005924065454,50,85,58
29.00008198321131,34,67,58
29.000092415884055,55,72,58
29.000120699353005,30,69,58
29.00060073168355,53,75,58
29.000869395606923,81,96,58
29.00112098510351,77,84,58
29.001557516228655,26,61,58
29.002210788736935,98,63,58
29.002650349181405,60,93,58
29.003060009735833,85,66,58
29.003946600879498,66,87,58
29.00398841411947,68,82,58
29.004092495737854,27,94,58
29.004165922277842,47,81,58
29.00418130682971,96,63,58
29.004280193524398,45,99,58
29.004304935834316,70,81,58
29.004337237028313,56,65,58
29.004489117225926,32,85,58
29.004711725593783,108,94,58
29.004997056733348,88,78,58
29.005459025592668,59,62,58
29.005885860973493,82,71,58
29.006062022536103,42,92,58
29.006065122253233,52,85,58
29.006511769607435,97,73,58
29.00653764503093,64,77,58
29.00707031169323,103,74,58
29.00709933073434,40,87,58
29.00790702903746,28,61,58
29.00808977749614,36,62,58
29.008107304652302,99,87,58
29.008271581484276,38,72,58
29.0086233491644,49,98,58
29.00894597873351,33,97,58
29.009470402781442,74,86,58
29.009610209357653,78,62,58
29.009628704940017,86,67,58
29.00987214454831,73,74,58
29.500161082185492,59,94,59
29.50072348383836,100,97,59
29.500870820495916,42,73,59
29.501110633032816,65,99,59
29.50126370141947,52,85,59
29.501265453111962,36,88,59
29.501406533392338,76,91,59
29.5015534330251,98,75,59
29.501635550384137,38,88,59
29.501701526411445,62,80,59
29.50184926018773,82,94,59
29.5020307059292,37,75,59
29.502368129274537,58,83,59
29.50294293773989,96,79,59
29.50301834660893,25,70,59
29.503087856583527,43,72,59
29.503140440030176,103,62,59
29.503389939701616,24,98,59
29.50346266050788,54,92,59
29.50356386478523,108,79,59
29.5038542109973,23,65,59
29.50403548620814,89,61,59
29.504114109317605,49,65,59
29.50500333655676,83,77,59
29.505115361942348,35,98,59
29.505664436850868,88,67,59
29.505842247888317,55,89,59
29.505861823540883,93,95,59
29.50655415696803,66,97,59
29.50668180661958,70,64,59
29.507643240002068,26,99,59
29.50767860923126,46,99,59
29.50771588864468,87,89,59
29.508413567713053,74,73,59
29.50841930674479,86,71,59
29.508464351763074,79,81,59
29.508578891852462,21,85,59
29.50964622855617,61,91,59
29.50992015969397,95,67,59
29.50992803978186,45,83,59
