onset_time,pitch,velocity,voice_id
0.0,24,92,0
0.025,26,113,0
0.05,28,115,0
0.07500000000000001,30,109,0
0.1,32,104,0
0.125,34,81,0
0.15,36,115,0
0.175,38,97,0
0.19999999999999998,40,84,0
0.22499999999999998,42,98,0
0.24999999999999997,44,97,0
0.27499999999999997,46,111,0
0.3,48,100,0
0.325,50,89,0
0.35000000000000003,52,116,0
0.37500000000000006,54,101,0
0.4000000000000001,56,92,0
0.4250000000000001,58,96,0
0.4500000000000001,60,88,0
0.47500000000000014,62,103,0
0.5000000000000001,64,93,0
0.5250000000000001,66,87,0
0.5500000000000002,68,116,0
0.5750000000000002,70,98,0
0.6000000000000002,72,107,0
0.6250000000000002,74,109,0
0.6500000000000002,76,86,0
0.6750000000000003,78,105,0
0.7000000000000003,80,119,0
0.7250000000000003,82,90,0
0.7500000000000003,84,93,0
0.7750000000000004,86,100,0
0.8000000000000004,88,87,0
0.8250000000000004,90,82,0
0.8500000000000004,92,107,0
0.8750000000000004,94,108,0
0.9000000000000005,96,102,0
0.9250000000000005,96,97,1
0.9500000000000005,94,114,1
0.9750000000000005,92,92,1
1.0000000000000004,90,91,1
1.0250000000000004,88,84,1
1.0500000000000003,86,118,1
1.0750000000000002,84,90,1
1.1,82,90,1
1.125,80,110,1
1.15,78,110,1
1.1749999999999998,76,92,1
1.1999999999999997,74,93,1
1.2249999999999996,72,104,1
1.2499999999999996,70,112,1
1.2749999999999995,68,112,1
1.2999999999999994,66,94,1
1.3249999999999993,64,95,1
1.3499999999999992,62,117,1
1.3749999999999991,60,85,1
1.399999999999999,58,104,1
1.424999999999999,56,94,1
1.4499999999999988,54,83,1
1.4749999999999988,52,83,1
1.4999999999999987,50,109,1
1.5249999999999986,48,113,1
1.5499999999999985,46,106,1
1.5749999999999984,44,110,1
1.5999999999999983,42,111,1
1.6249999999999982,40,118,1
1.6499999999999981,38,88,1
1.674999999999998,36,87,1
1.699999999999998,34,93,1
1.7249999999999979,32,112,1
1.7499999999999978,30,102,1
1.7749999999999977,28,100,1
1.7999999999999976,26,91,1
1.8249999999999975,24,81,1
1.8499999999999974,24,92,2
1.8749999999999973,26,83,2
1.8999999999999972,28,99,2
1.9249999999999972,30,93,2
1.949999999999997,32,109,2
1.974999999999997,34,108,2
1.999999999999997,36,87,2
2.024999999999997,38,91,2
2.0499999999999967,40,117,2
2.0749999999999966,42,105,2
2.0999999999999965,44,81,2
2.1249999999999964,46,119,2
2.1499999999999964,48,93,2
2.1749999999999963,50,85,2
2.199999999999996,52,119,2
2.224999999999996,54,110,2
2.249999999999996,56,96,2
2.274999999999996,58,104,2
2.299999999999996,60,111,2
2.3249999999999957,62,91,2
2.3499999999999956,64,92,2
2.3749999999999956,66,98,2
2.3999999999999955,68,104,2
2.4249999999999954,70,110,2
2.4499999999999953,72,116,2
2.474999999999995,74,104,2
2.499999999999995,76,95,2
2.524999999999995,78,117,2
2.549999999999995,80,102,2
2.574999999999995,82,93,2
2.5999999999999948,84,85,2
2.6249999999999947,86,104,2
2.6499999999999946,88,102,2
2.6749999999999945,90,91,2
2.6999999999999944,92,92,2
2.7249999999999943,94,115,2
2.7499999999999942,96,118,2
2.774999999999994,96,113,3
2.799999999999994,94,85,3
2.824999999999994,92,117,3
2.849999999999994,90,119,3
2.874999999999994,88,87,3
2.8999999999999937,86,87,3
2.9249999999999936,84,119,3
2.9499999999999935,82,112,3
2.9749999999999934,80,113,3
2.9999999999999933,78,94,3
3.0249999999999932,76,115,3
3.049999999999993,74,114,3
3.074999999999993,72,101,3
3.099999999999993,70,102,3
3.124999999999993,68,119,3
3.149999999999993,66,101,3
3.1749999999999927,64,84,3
3.1999999999999926,62,110,3
3.2249999999999925,60,92,3
3.2499999999999925,58,107,3
3.2749999999999924,56,99,3
3.2999999999999923,54,112,3
3.324999999999992,52,95,3
3.349999999999992,50,108,3
3.374999999999992,48,102,3
3.399999999999992,46,103,3
3.424999999999992,44,113,3
3.4499999999999917,42,86,3
3.4749999999999917,40,117,3
3.4999999999999916,38,116,3
3.5249999999999915,36,83,3
3.5499999999999914,34,113,3
3.5749999999999913,32,101,3
3.599999999999991,30,84,3
3.624999999999991,28,102,3
3.649999999999991,26,94,3
3.674999999999991,24,110,3
3.699999999999991,24,88,4
3.7249999999999908,26,104,4
3.7499999999999907,28,104,4
3.7749999999999906,30,100,4
3.7999999999999905,32,88,4
3.8249999999999904,34,117,4
3.8499999999999903,36,101,4
3.8749999999999902,38,102,4
3.89999999999999,40,83,4
3.92499999999999,42,108,4
3.94999999999999,44,94,4
3.97499999999999,46,80,4
3.99999999999999,48,109,4
4.02499999999999,50,108,4
4.04999999999999,52,99,4
4.07499999999999,54,112,4
4.099999999999991,56,115,4
4.124999999999991,58,101,4
4.1499999999999915,60,92,4
4.174999999999992,62,86,4
4.199999999999992,64,87,4
4.2249999999999925,66,107,4
4.249999999999993,68,88,4
4.274999999999993,70,104,4
4.299999999999994,72,95,4
4.324999999999994,74,89,4
4.349999999999994,76,90,4
4.374999999999995,78,110,4
4.399999999999995,80,91,4
4.424999999999995,82,110,4
4.449999999999996,84,93,4
4.474999999999996,86,111,4
4.4999999999999964,88,96,4
4.524999999999997,90,114,4
4.549999999999997,92,80,4
4.5749999999999975,94,108,4
4.599999999999998,96,83,4
4.624999999999998,96,102,5
4.649999999999999,94,107,5
4.674999999999999,92,95,5
4.699999999999999,90,91,5
4.725,88,100,5
4.75,86,96,5
4.775,84,119,5
4.800000000000001,82,92,5
4.825000000000001,80,111,5
4.850000000000001,78,116,5
4.875000000000002,76,94,5
4.900000000000002,74,91,5
4.9250000000000025,72,94,5
4.950000000000003,70,113,5
4.975000000000003,68,85,5
5.0000000000000036,66,96,5
5.025000000000004,64,99,5
5.050000000000004,62,88,5
5.075000000000005,60,84,5
5.100000000000005,58,102,5
5.125000000000005,56,112,5
5.150000000000006,54,117,5
5.175000000000006,52,93,5
5.200000000000006,50,96,5
5.225000000000007,48,98,5
5.250000000000007,46,112,5
5.2750000000000075,44,80,5
5.300000000000008,42,92,5
5.325000000000008,40,106,5
5.3500000000000085,38,85,5
5.375000000000009,36,85,5
5.400000000000009,34,112,5
5.42500000000001,32,109,5
5.45000000000001,30,114,5
5.47500000000001,28,102,5
5.500000000000011,26,89,5
5.525000000000011,24,98,5
5.550000000000011,24,107,6
5.575000000000012,26,102,6
5.600000000000012,28,83,6
5.625000000000012,30,99,6
5.650000000000013,32,98,6
5.675000000000013,34,106,6
5.7000000000000135,36,113,6
5.725000000000014,38,83,6
5.750000000000014,40,117,6
5.775000000000015,42,86,6
5.800000000000015,44,86,6
5.825000000000015,46,105,6
5.850000000000016,48,105,6
5.875000000000016,50,98,6
5.900000000000016,52,88,6
5.925000000000017,54,99,6
5.950000000000017,56,95,6
5.975000000000017,58,96,6
6.000000000000018,60,101,6
6.025000000000018,62,92,6
6.0500000000000185,64,91,6
6.075000000000019,66,89,6
6.100000000000019,68,80,6
6.1250000000000195,70,111,6
6.15000000000002,72,109,6
6.17500000000002,74,87,6
6.200000000000021,76,100,6
6.225000000000021,78,101,6
6.250000000000021,80,97,6
6.275000000000022,82,81,6
6.300000000000022,84,88,6
6.325000000000022,86,82,6
6.350000000000023,88,105,6
6.375000000000023,90,100,6
6.4000000000000234,92,109,6
6.425000000000024,94,107,6
6.450000000000024,96,115,6
6.4750000000000245,96,105,7
6.500000000000025,94,113,7
6.525000000000025,92,87,7
6.550000000000026,90,89,7
6.575000000000026,88,93,7
6.600000000000026,86,119,7
6.625000000000027,84,94,7
6.650000000000027,82,96,7
6.675000000000027,80,97,7
6.700000000000028,78,111,7
6.725000000000028,76,117,7
6.750000000000028,74,102,7
6.775000000000029,72,102,7
6.800000000000029,70,114,7
6.8250000000000295,68,118,7
6.85000000000003,66,94,7
6.87500000000003,64,103,7
6.9000000000000306,62,107,7
6.925000000000031,60,95,7
6.950000000000031,58,95,7
6.975000000000032,56,119,7
7.000000000000032,54,118,7
7.025000000000032,52,85,7
7.050000000000033,50,81,7
7.075000000000033,48,92,7
7.100000000000033,46,88,7
7.125000000000034,44,113,7
7.150000000000034,42,96,7
7.1750000000000345,40,106,7
7.200000000000035,38,108,7
7.225000000000035,36,116,7
7.2500000000000355,34,101,7
7.275000000000036,32,103,7
7.300000000000036,30,86,7
7.325000000000037,28,113,7
7.350000000000037,26,91,7
7.375000000000037,24,102,7
7.400000000000038,24,94,8
7.425000000000038,26,112,8
7.450000000000038,28,92,8
7.475000000000039,30,102,8
7.500000000000039,32,117,8
7.525000000000039,34,111,8
7.55000000000004,36,114,8
7.57500000000004,38,80,8
7.6000000000000405,40,84,8
7.625000000000041,42,92,8
7.650000000000041,44,84,8
7.675000000000042,46,111,8
7.700000000000042,48,100,8
7.725000000000042,50,103,8
7.750000000000043,52,97,8
7.775000000000043,54,100,8
7.800000000000043,56,89,8
7.825000000000044,58,103,8
7.850000000000044,60,119,8
7.875000000000044,62,100,8
7.900000000000045,64,104,8
7.925000000000045,66,102,8
7.9500000000000455,68,101,8
7.975000000000046,70,83,8
8.000000000000046,72,113,8
8.025000000000047,74,85,8
8.050000000000047,76,107,8
8.075000000000047,78,110,8
8.100000000000048,80,114,8
8.125000000000048,82,118,8
8.150000000000048,84,102,8
8.175000000000049,86,85,8
8.200000000000049,88,95,8
8.22500000000005,90,81,8
8.25000000000005,92,103,8
8.27500000000005,94,96,8
8.30000000000005,96,80,8
8.32500000000005,96,85,9
8.350000000000051,94,84,9
8.375000000000052,92,108,9
8.400000000000052,90,91,9
8.425000000000052,88,118,9
8.450000000000053,86,82,9
8.475000000000053,84,80,9
8.500000000000053,82,106,9
8.525000000000054,80,103,9
8.550000000000054,78,98,9
8.575000000000054,76,87,9
8.600000000000055,74,81,9
8.625000000000055,72,109,9
8.650000000000055,70,109,9
8.675000000000056,68,118,9
8.700000000000056,66,111,9
8.725000000000056,64,80,9
8.750000000000057,62,117,9
8.775000000000057,60,92,9
8.800000000000058,58,90,9
8.825000000000058,56,89,9
8.850000000000058,54,105,9
8.875000000000059,52,99,9
8.900000000000059,50,96,9
8.92500000000006,48,96,9
8.95000000000006,46,83,9
8.97500000000006,44,84,9
9.00000000000006,42,102,9
9.02500000000006,40,89,9
9.050000000000061,38,107,9
9.075000000000061,36,112,9
9.100000000000062,34,105,9
9.125000000000062,32,108,9
9.150000000000063,30,106,9
9.175000000000063,28,97,9
9.200000000000063,26,119,9
9.225000000000064,24,89,9
9.250000000000064,24,84,10
9.275000000000064,26,89,10
9.300000000000065,28,100,10
9.325000000000065,30,103,10
9.350000000000065,32,117,10
9.375000000000066,34,82,10
9.400000000000066,36,119,10
9.425000000000066,38,110,10
9.450000000000067,40,116,10
9.475000000000067,42,81,10
9.500000000000068,44,81,10
9.525000000000068,46,118,10
9.550000000000068,48,113,10
9.575000000000069,50,99,10
9.600000000000069,52,112,10
9.62500000000007,54,83,10
9.65000000000007,56,90,10
9.67500000000007,58,84,10
9.70000000000007,60,104,10
9.72500000000007,62,116,10
9.750000000000071,64,113,10
9.775000000000071,66,88,10
9.800000000000072,68,85,10
9.825000000000072,70,97,10
9.850000000000072,72,93,10
9.875000000000073,74,98,10
9.900000000000073,76,93,10
9.925000000000074,78,119,10
9.950000000000074,80,96,10
9.975000000000074,82,114,10
10.000000000000075,84,108,10
10.025000000000075,86,96,10
10.050000000000075,88,87,10
10.075000000000076,90,80,10
10.100000000000076,92,115,10
10.125000000000076,94,86,10
10.150000000000077,96,84,10
10.175000000000077,96,103,11
10.200000000000077,94,107,11
10.225000000000078,92,96,11
10.250000000000078,90,116,11
10.275000000000079,88,99,11
10.300000000000079,86,82,11
10.32500000000008,84,116,11
10.35000000000008,82,105,11
10.37500000000008,80,94,11
10.40000000000008,78,87,11
10.42500000000008,76,92,11
10.450000000000081,74,82,11
10.475000000000081,72,80,11
10.500000000000082,70,88,11
10.525000000000082,68,110,11
10.550000000000082,66,105,11
10.575000000000083,64,96,11
10.600000000000083,62,113,11
10.625000000000083,60,88,11
10.650000000000084,58,92,11
10.675000000000084,56,84,11
10.700000000000085,54,92,11
10.725000000000085,52,80,11
10.750000000000085,50,104,11
10.775000000000086,48,83,11
10.800000000000086,46,115,11
10.825000000000086,44,89,11
10.850000000000087,42,107,11
10.875000000000087,40,85,11
10.900000000000087,38,106,11
10.925000000000088,36,91,11
10.950000000000088,34,82,11
10.975000000000088,32,112,11
11.000000000000089,30,89,11
11.02500000000009,28,110,11
11.05000000000009,26,94,11
11.07500000000009,24,86,11
11.10000000000009,24,115,12
11.12500000000009,26,93,12
11.150000000000091,28,93,12
11.175000000000091,30,82,12
11.200000000000092,32,82,12
11.225000000000092,34,101,12
11.250000000000092,36,98,12
11.275000000000093,38,114,12
11.300000000000093,40,91,12
11.325000000000093,42,84,12
11.350000000000094,44,89,12
11.375000000000094,46,112,12
11.400000000000095,48,92,12
11.425000000000095,50,114,12
11.450000000000095,52,111,12
11.475000000000096,54,90,12
11.500000000000096,56,117,12
11.525000000000096,58,103,12
11.550000000000097,60,114,12
11.575000000000097,62,98,12
11.600000000000097,64,85,12
11.625000000000098,66,119,12
11.650000000000098,68,114,12
11.675000000000098,70,83,12
11.700000000000099,72,112,12
11.7250000000001,74,92,12
11.7500000000001,76,115,12
11.7750000000001,78,98,12
11.8000000000001,80,91,12
11.8250000000001,82,90,12
11.850000000000101,84,85,12
11.875000000000101,86,91,12
11.900000000000102,88,106,12
11.925000000000102,90,104,12
11.950000000000102,92,82,12
11.975000000000103,94,82,12
12.000000000000103,96,99,12
12.025000000000103,96,107,13
12.050000000000104,94,102,13
12.075000000000104,92,82,13
12.100000000000104,90,103,13
12.125000000000105,88,119,13
12.150000000000105,86,85,13
12.175000000000106,84,99,13
12.200000000000106,82,90,13
12.225000000000106,80,111,13
12.250000000000107,78,106,13
12.275000000000107,76,100,13
12.300000000000107,74,92,13
12.325000000000108,72,101,13
12.350000000000108,70,114,13
12.375000000000108,68,101,13
12.400000000000109,66,107,13
12.425000000000109,64,100,13
12.45000000000011,62,97,13
12.47500000000011,60,110,13
12.50000000000011,58,116,13
12.52500000000011,56,100,13
12.55000000000011,54,93,13
12.575000000000111,52,104,13
12.600000000000112,50,106,13
12.625000000000112,48,119,13
12.650000000000112,46,102,13
12.675000000000113,44,110,13
12.700000000000113,42,108,13
12.725000000000113,40,109,13
12.750000000000114,38,105,13
12.775000000000114,36,99,13
12.800000000000114,34,117,13
12.825000000000115,32,98,13
12.850000000000115,30,106,13
12.875000000000115,28,104,13
12.900000000000116,26,119,13
12.925000000000116,24,117,13
12.950000000000117,24,102,14
12.975000000000117,26,108,14
13.000000000000117,28,94,14
13.025000000000118,30,82,14
13.050000000000118,32,89,14
13.075000000000118,34,94,14
13.100000000000119,36,95,14
13.125000000000119,38,96,14
13.15000000000012,40,98,14
13.17500000000012,42,90,14
13.20000000000012,44,84,14
13.22500000000012,46,84,14
13.25000000000012,48,93,14
13.275000000000121,50,105,14
13.300000000000122,52,87,14
13.325000000000122,54,84,14
13.350000000000122,56,86,14
13.375000000000123,58,95,14
13.400000000000123,60,93,14
13.425000000000123,62,116,14
13.450000000000124,64,83,14
13.475000000000124,66,115,14
13.500000000000124,68,96,14
13.525000000000125,70,115,14
13.550000000000125,72,85,14
13.575000000000125,74,95,14
13.600000000000126,76,108,14
13.625000000000126,78,115,14
13.650000000000126,80,117,14
13.675000000000127,82,116,14
13.700000000000127,84,89,14
13.725000000000128,86,115,14
13.750000000000128,88,108,14
13.775000000000128,90,93,14
13.800000000000129,92,83,14
13.825000000000129,94,115,14
13.85000000000013,96,92,14
13.87500000000013,96,97,15
13.90000000000013,94,112,15
13.92500000000013,92,100,15
13.95000000000013,90,95,15
13.975000000000131,88,94,15
14.000000000000131,86,84,15
14.025000000000132,84,85,15
14.050000000000132,82,117,15
14.075000000000133,80,82,15
14.100000000000133,78,91,15
14.125000000000133,76,115,15
14.150000000000134,74,112,15
14.175000000000134,72,115,15
14.200000000000134,70,112,15
14.225000000000135,68,110,15
14.250000000000135,66,100,15
14.275000000000135,64,106,15
14.300000000000136,62,106,15
14.325000000000136,60,87,15
14.350000000000136,58,116,15
14.375000000000137,56,111,15
14.400000000000137,54,105,15
14.425000000000137,52,81,15
14.450000000000138,50,91,15
14.475000000000138,48,101,15
14.500000000000139,46,96,15
14.525000000000139,44,86,15
14.55000000000014,42,83,15
14.57500000000014,40,116,15
14.60000000000014,38,117,15
14.62500000000014,36,111,15
14.65000000000014,34,90,15
14.675000000000141,32,80,15
14.700000000000141,30,104,15
14.725000000000142,28,103,15
14.750000000000142,26,96,15
14.775000000000142,24,87,15
14.800000000000143,24,106,16
14.825000000000143,26,97,16
14.850000000000144,28,106,16
14.875000000000144,30,101,16
14.900000000000144,32,95,16
14.925000000000145,34,81,16
14.950000000000145,36,84,16
14.975000000000145,38,97,16
15.000000000000146,40,82,16
15.025000000000146,42,106,16
15.050000000000146,44,96,16
15.075000000000147,46,95,16
15.100000000000147,48,85,16
15.125000000000147,50,86,16
15.150000000000148,52,93,16
15.175000000000148,54,117,16
15.200000000000149,56,119,16
15.225000000000149,58,94,16
15.25000000000015,60,112,16
15.27500000000015,62,106,16
15.30000000000015,64,108,16
15.32500000000015,66,116,16
15.35000000000015,68,84,16
15.375000000000151,70,108,16
15.400000000000151,72,111,16
15.425000000000152,74,85,16
15.450000000000152,76,81,16
15.475000000000152,78,85,16
15.500000000000153,80,83,16
15.525000000000153,82,108,16
15.550000000000153,84,104,16
15.575000000000154,86,88,16
15.600000000000154,88,82,16
15.625000000000155,90,105,16
15.650000000000155,92,106,16
15.675000000000155,94,115,16
15.700000000000156,96,111,16
15.725000000000156,96,80,17
15.750000000000156,94,95,17
15.775000000000157,92,90,17
15.800000000000157,90,105,17
15.825000000000157,88,119,17
15.850000000000158,86,80,17
15.875000000000158,84,105,17
15.900000000000158,82,107,17
15.925000000000159,80,88,17
15.95000000000016,78,101,17
15.97500000000016,76,87,17
16.00000000000016,74,106,17
16.02500000000016,72,118,17
16.050000000000157,70,98,17
16.075000000000156,68,104,17
16.100000000000154,66,117,17
16.125000000000153,64,100,17
16.15000000000015,62,103,17
16.17500000000015,60,103,17
16.20000000000015,58,98,17
16.225000000000147,56,81,17
16.250000000000146,54,93,17
16.275000000000144,52,111,17
16.300000000000143,50,111,17
16.32500000000014,48,107,17
16.35000000000014,46,118,17
16.37500000000014,44,119,17
16.400000000000137,42,119,17
16.425000000000136,40,92,17
16.450000000000134,38,91,17
16.475000000000133,36,87,17
16.50000000000013,34,94,17
16.52500000000013,32,105,17
16.55000000000013,30,91,17
16.575000000000127,28,106,17
16.600000000000126,26,97,17
16.625000000000124,24,115,17
16.650000000000123,24,106,18
16.67500000000012,26,88,18
16.70000000000012,28,118,18
16.72500000000012,30,80,18
16.750000000000117,32,86,18
16.775000000000116,34,105,18
16.800000000000114,36,86,18
16.825000000000113,38,86,18
16.85000000000011,40,87,18
16.87500000000011,42,95,18
16.90000000000011,44,82,18
16.925000000000107,46,89,18
16.950000000000106,48,86,18
16.975000000000104,50,100,18
17.000000000000103,52,116,18
17.0250000000001,54,110,18
17.0500000000001,56,102,18
17.0750000000001,58,106,18
17.100000000000097,60,101,18
17.125000000000096,62,118,18
17.150000000000095,64,106,18
17.175000000000093,66,83,18
17.20000000000009,68,103,18
17.22500000000009,70,102,18
17.25000000000009,72,98,18
17.275000000000087,74,82,18
17.300000000000086,76,106,18
17.325000000000085,78,82,18
17.350000000000083,80,107,18
17.37500000000008,82,96,18
17.40000000000008,84,110,18
17.42500000000008,86,89,18
17.450000000000077,88,101,18
17.475000000000076,90,109,18
17.500000000000075,92,100,18
17.525000000000073,94,115,18
17.55000000000007,96,102,18
17.57500000000007,96,117,19
17.60000000000007,94,91,19
17.625000000000068,92,104,19
17.650000000000066,90,99,19
17.675000000000065,88,86,19
17.700000000000063,86,108,19
17.725000000000062,84,108,19
17.75000000000006,82,92,19
17.77500000000006,80,82,19
17.800000000000058,78,81,19
17.825000000000056,76,95,19
17.850000000000055,74,109,19
17.875000000000053,72,117,19
17.900000000000052,70,85,19
17.92500000000005,68,86,19
17.95000000000005,66,84,19
17.975000000000048,64,86,19
18.000000000000046,62,113,19
18.025000000000045,60,111,19
18.050000000000043,58,92,19
18.075000000000042,56,109,19
18.10000000000004,54,104,19
18.12500000000004,52,100,19
18.150000000000038,50,100,19
18.175000000000036,48,107,19
18.200000000000035,46,99,19
18.225000000000033,44,113,19
18.250000000000032,42,84,19
18.27500000000003,40,97,19
18.30000000000003,38,118,19
18.325000000000028,36,90,19
18.350000000000026,34,96,19
18.375000000000025,32,101,19
18.400000000000023,30,116,19
18.425000000000022,28,99,19
18.45000000000002,26,85,19
18.47500000000002,24,113,19
18.500000000000018,24,93,20
18.525000000000016,26,102,20
18.550000000000015,28,99,20
18.575000000000014,30,92,20
18.600000000000012,32,111,20
18.62500000000001,34,105,20
18.65000000000001,36,93,20
18.675000000000008,38,115,20
18.700000000000006,40,87,20
18.725000000000005,42,119,20
18.750000000000004,44,101,20
18.775000000000002,46,101,20
18.8,48,95,20
18.825,50,106,20
18.849999999999998,52,89,20
18.874999999999996,54,104,20
18.899999999999995,56,110,20
18.924999999999994,58,100,20
18.949999999999992,60,106,20
18.97499999999999,62,96,20
18.99999999999999,64,112,20
19.024999999999988,66,110,20
19.049999999999986,68,105,20
19.074999999999985,70,100,20
19.099999999999984,72,115,20
19.124999999999982,74,80,20
19.14999999999998,76,83,20
19.17499999999998,78,83,20
19.199999999999978,80,105,20
19.224999999999977,82,83,20
19.249999999999975,84,88,20
19.274999999999974,86,109,20
19.299999999999972,88,83,20
19.32499999999997,90,84,20
19.34999999999997,92,102,20
19.374999999999968,94,95,20
19.399999999999967,96,101,20
19.424999999999965,96,116,21
19.449999999999964,94,87,21
19.474999999999962,92,112,21
19.49999999999996,90,117,21
19.52499999999996,88,95,21
19.549999999999958,86,84,21
19.574999999999957,84,95,21
19.599999999999955,82,86,21
19.624999999999954,80,80,21
19.649999999999952,78,88,21
19.67499999999995,76,97,21
19.69999999999995,74,82,21
19.724999999999948,72,103,21
19.749999999999947,70,107,21
19.774999999999945,68,89,21
19.799999999999944,66,88,21
19.824999999999942,64,92,21
19.84999999999994,62,114,21
19.87499999999994,60,102,21
19.899999999999938,58,96,21
19.924999999999937,56,86,21
19.949999999999935,54,95,21
19.974999999999934,52,119,21
19.999999999999932,50,115,21
20.02499999999993,48,99,21
20.04999999999993,46,103,21
20.07499999999993,44,84,21
20.099999999999927,42,85,21
20.124999999999925,40,107,21
20.149999999999924,38,84,21
20.174999999999923,36,118,21
20.19999999999992,34,117,21
20.22499999999992,32,81,21
20.24999999999992,30,118,21
20.274999999999917,28,100,21
20.299999999999915,26,119,21
20.324999999999914,24,116,21
20.349999999999913,24,97,22
20.37499999999991,26,91,22
20.39999999999991,28,96,22
20.42499999999991,30,116,22
20.449999999999907,32,117,22
20.474999999999905,34,94,22
20.499999999999904,36,86,22
20.524999999999903,38,93,22
20.5499999999999,40,80,22
20.5749999999999,42,117,22
20.5999999999999,44,82,22
20.624999999999897,46,116,22
20.649999999999896,48,110,22
20.674999999999894,50,92,22
20.699999999999893,52,97,22
20.72499999999989,54,96,22
20.74999999999989,56,96,22
20.77499999999989,58,90,22
20.799999999999887,60,99,22
20.824999999999886,62,89,22
20.849999999999884,64,108,22
20.874999999999883,66,113,22
20.89999999999988,68,96,22
20.92499999999988,70,92,22
20.94999999999988,72,118,22
20.974999999999877,74,106,22
20.999999999999876,76,105,22
21.024999999999874,78,107,22
21.049999999999873,80,92,22
21.07499999999987,82,91,22
21.09999999999987,84,107,22
21.12499999999987,86,81,22
21.149999999999867,88,116,22
21.174999999999866,90,113,22
21.199999999999864,92,102,22
21.224999999999863,94,108,22
21.24999999999986,96,114,22
21.27499999999986,96,90,23
21.29999999999986,94,112,23
21.324999999999857,92,90,23
21.349999999999856,90,88,23
21.374999999999854,88,93,23
21.399999999999853,86,88,23
21.42499999999985,84,118,23
21.44999999999985,82,82,23
21.47499999999985,80,108,23
21.499999999999847,78,98,23
21.524999999999846,76,115,23
21.549999999999844,74,111,23
21.574999999999843,72,86,23
21.59999999999984,70,107,23
21.62499999999984,68,97,23
21.64999999999984,66,84,23
21.674999999999837,64,102,23
21.699999999999836,62,101,23
21.724999999999834,60,105,23
21.749999999999833,58,91,23
21.77499999999983,56,119,23
21.79999999999983,54,98,23
21.82499999999983,52,80,23
21.849999999999827,50,82,23
21.874999999999826,48,106,23
21.899999999999824,46,97,23
21.924999999999823,44,109,23
21.94999999999982,42,81,23
21.97499999999982,40,84,23
21.99999999999982,38,108,23
22.024999999999817,36,112,23
22.049999999999816,34,99,23
22.074999999999815,32,109,23
22.099999999999813,30,84,23
22.12499999999981,28,100,23
22.14999999999981,26,94,23
22.17499999999981,24,99,23
22.199999999999807,24,87,24
22.224999999999806,26,110,24
22.249999999999805,28,91,24
22.274999999999803,30,100,24
22.2999999999998,32,109,24
22.3249999999998,34,106,24
22.3499999999998,36,105,24
22.374999999999797,38,112,24
22.399999999999796,40,105,24
22.424999999999795,42,105,24
22.449999999999793,44,115,24
22.474999999999792,46,119,24
22.49999999999979,48,80,24
22.52499999999979,50,94,24
22.549999999999788,52,80,24
22.574999999999786,54,90,24
22.599999999999785,56,81,24
22.624999999999783,58,80,24
22.649999999999782,60,110,24
22.67499999999978,62,95,24
22.69999999999978,64,101,24
22.724999999999778,66,97,24
22.749999999999776,68,96,24
22.774999999999775,70,109,24
22.799999999999773,72,89,24
22.824999999999772,74,114,24
22.84999999999977,76,100,24
22.87499999999977,78,95,24
22.899999999999768,80,85,24
22.924999999999766,82,82,24
22.949999999999765,84,100,24
22.974999999999763,86,92,24
22.999999999999762,88,97,24
23.02499999999976,90,103,24
23.04999999999976,92,106,24
23.074999999999758,94,83,24
23.099999999999756,96,101,24
23.124999999999755,96,103,25
23.149999999999753,94,119,25
23.174999999999752,92,89,25
23.19999999999975,90,81,25
23.22499999999975,88,119,25
23.249999999999748,86,85,25
23.274999999999746,84,97,25
23.299999999999745,82,96,25
23.324999999999743,80,117,25
23.349999999999742,78,102,25
23.37499999999974,76,109,25
23.39999999999974,74,100,25
23.424999999999738,72,89,25
23.449999999999736,70,92,25
23.474999999999735,68,91,25
23.499999999999734,66,88,25
23.524999999999732,64,83,25
23.54999999999973,62,118,25
23.57499999999973,60,103,25
23.599999999999728,58,113,25
23.624999999999726,56,118,25
23.649999999999725,54,84,25
23.674999999999724,52,94,25
23.699999999999722,50,83,25
23.72499999999972,48,118,25
23.74999999999972,46,87,25
23.774999999999718,44,103,25
23.799999999999716,42,107,25
23.824999999999715,40,106,25
23.849999999999714,38,80,25
23.874999999999712,36,113,25
23.89999999999971,34,96,25
23.92499999999971,32,116,25
23.949999999999708,30,117,25
23.974999999999707,28,105,25
23.999999999999705,26,103,25
24.024999999999704,24,118,25
24.049999999999702,24,100,26
24.0749999999997,26,109,26
24.0999999999997,28,92,26
24.124999999999698,30,116,26
24.149999999999697,32,82,26
24.174999999999695,34,111,26
24.199999999999694,36,114,26
24.224999999999692,38,98,26
24.24999999999969,40,93,26
24.27499999999969,42,101,26
24.299999999999688,44,96,26
24.324999999999687,46,83,26
24.349999999999685,48,119,26
24.374999999999684,50,98,26
24.399999999999682,52,116,26
24.42499999999968,54,81,26
24.44999999999968,56,94,26
24.474999999999678,58,81,26
24.499999999999677,60,90,26
24.524999999999675,62,102,26
24.549999999999674,64,89,26
24.574999999999672,66,82,26
24.59999999999967,68,84,26
24.62499999999967,70,82,26
24.649999999999668,72,117,26
24.674999999999667,74,92,26
24.699999999999665,76,98,26
24.724999999999664,78,119,26
24.749999999999662,80,114,26
24.77499999999966,82,103,26
24.79999999999966,84,103,26
24.82499999999966,86,96,26
24.849999999999657,88,119,26
24.874999999999655,90,89,26
24.899999999999654,92,81,26
24.924999999999653,94,102,26
24.94999999999965,96,85,26
24.97499999999965,96,81,27
24.99999999999965,94,100,27
25.024999999999647,92,114,27
25.049999999999645,90,108,27
25.074999999999644,88,86,27
25.099999999999643,86,108,27
25.12499999999964,84,116,27
25.14999999999964,82,102,27
25.17499999999964,80,112,27
25.199999999999637,78,87,27
25.224999999999635,76,91,27
25.249999999999634,74,89,27
25.274999999999633,72,94,27
25.29999999999963,70,103,27
25.32499999999963,68,105,27
25.34999999999963,66,118,27
25.374999999999627,64,82,27
25.399999999999626,62,81,27
25.424999999999624,60,85,27
25.449999999999623,58,100,27
25.47499999999962,56,88,27
25.49999999999962,54,89,27
25.52499999999962,52,115,27
25.549999999999617,50,82,27
25.574999999999616,48,103,27
25.599999999999614,46,101,27
25.624999999999613,44,93,27
25.64999999999961,42,106,27
25.67499999999961,40,112,27
25.69999999999961,38,101,27
25.724999999999607,36,108,27
25.749999999999606,34,98,27
25.774999999999604,32,98,27
25.799999999999603,30,85,27
25.8249999999996,28,98,27
25.8499999999996,26,92,27
25.8749999999996,24,105,27
25.899999999999597,24,101,28
25.924999999999596,26,100,28
25.949999999999594,28,115,28
25.974999999999593,30,81,28
25.99999999999959,32,109,28
26.02499999999959,34,106,28
26.04999999999959,36,86,28
26.074999999999587,38,99,28
26.099999999999586,40,110,28
26.124999999999584,42,102,28
26.149999999999583,44,92,28
26.17499999999958,46,96,28
26.19999999999958,48,83,28
26.22499999999958,50,93,28
26.249999999999577,52,99,28
26.274999999999576,54,92,28
26.299999999999574,56,82,28
26.324999999999573,58,105,28
26.34999999999957,60,105,28
26.37499999999957,62,97,28
26.39999999999957,64,111,28
26.424999999999567,66,93,28
26.449999999999566,68,82,28
26.474999999999564,70,80,28
26.499999999999563,72,105,28
26.52499999999956,74,103,28
26.54999999999956,76,114,28
26.57499999999956,78,93,28
26.599999999999557,80,82,28
26.624999999999556,82,92,28
26.649999999999554,84,93,28
26.674999999999553,86,100,28
26.69999999999955,88,105,28
26.72499999999955,90,82,28
26.74999999999955,92,119,28
26.774999999999547,94,83,28
26.799999999999546,96,115,28
26.824999999999545,96,80,29
26.849999999999543,94,119,29
26.87499999999954,92,112,29
26.89999999999954,90,86,29
26.92499999999954,88,90,29
26.949999999999537,86,106,29
26.974999999999536,84,93,29
26.999999999999535,82,101,29
27.024999999999533,80,95,29
27.04999999999953,78,91,29
27.07499999999953,76,89,29
27.09999999999953,74,103,29
27.124999999999527,72,97,29
27.149999999999526,70,101,29
27.174999999999525,68,88,29
27.199999999999523,66,96,29
27.224999999999522,64,117,29
27.24999999999952,62,119,29
27.27499999999952,60,92,29
27.299999999999518,58,116,29
27.324999999999516,56,85,29
27.349999999999515,54,100,29
27.374999999999513,52,115,29
27.399999999999512,50,86,29
27.42499999999951,48,115,29
27.44999999999951,46,104,29
27.474999999999508,44,90,29
27.499999999999506,42,93,29
27.524999999999505,40,108,29
27.549999999999503,38,89,29
27.574999999999502,36,84,29
27.5999999999995,34,87,29
27.6249999999995,32,84,29
27.649999999999498,30,103,29
27.674999999999496,28,119,29
27.699999999999495,26,105,29
27.724999999999493,24,85,29
27.749999999999492,24,95,30
27.77499999999949,26,115,30
27.79999999999949,28,91,30
27.824999999999488,30,90,30
27.849999999999486,32,82,30
27.874999999999485,34,116,30
27.899999999999483,36,85,30
27.924999999999482,38,98,30
27.94999999999948,40,97,30
27.97499999999948,42,95,30
27.999999999999478,44,102,30
28.024999999999476,46,116,30
28.049999999999475,48,88,30
28.074999999999473,50,82,30
28.099999999999472,52,87,30
28.12499999999947,54,117,30
28.14999999999947,56,83,30
28.174999999999468,58,91,30
28.199999999999466,60,110,30
28.224999999999465,62,104,30
28.249999999999464,64,95,30
28.274999999999462,66,93,30
28.29999999999946,68,92,30
28.32499999999946,70,86,30
28.349999999999458,72,91,30
28.374999999999456,74,116,30
28.399999999999455,76,83,30
28.424999999999454,78,81,30
28.449999999999452,80,114,30
28.47499999999945,82,82,30
28.49999999999945,84,83,30
28.524999999999448,86,117,30
28.549999999999446,88,91,30
28.574999999999445,90,98,30
28.599999999999444,92,89,30
28.624999999999442,94,80,30
28.64999999999944,96,96,30
28.67499999999944,96,95,31
28.699999999999438,94,88,31
28.724999999999437,92,88,31
28.749999999999435,90,88,31
28.774999999999434,88,91,31
28.799999999999432,86,94,31
28.82499999999943,84,81,31
28.84999999999943,82,90,31
28.874999999999428,80,90,31
28.899999999999427,78,87,31
28.924999999999425,76,111,31
28.949999999999424,74,85,31
28.974999999999422,72,99,31
28.99999999999942,70,118,31
29.02499999999942,68,114,31
29.049999999999418,66,87,31
29.074999999999417,64,113,31
29.099999999999415,62,98,31
29.124999999999414,60,86,31
29.149999999999412,58,110,31
29.17499999999941,56,97,31
29.19999999999941,54,119,31
29.224999999999408,52,93,31
29.249999999999407,50,118,31
29.274999999999405,48,115,31
29.299999999999404,46,96,31
29.324999999999402,44,116,31
29.3499999999994,42,88,31
29.3749999999994,40,99,31
29.399999999999398,38,107,31
29.424999999999397,36,99,31
29.449999999999395,34,115,31
29.474999999999394,32,106,31
29.499999999999392,30,87,31
29.52499999999939,28,111,31
29.54999999999939,26,80,31
29.574999999999388,24,96,31
29.599999999999387,24,88,32
29.624999999999385,26,99,32
29.649999999999384,28,111,32
29.674999999999383,30,81,32
29.69999999999938,32,111,32
29.72499999999938,34,88,32
29.74999999999938,36,109,32
29.774999999999377,38,99,32
29.799999999999375,40,117,32
29.824999999999374,42,80,32
29.849999999999373,44,84,32
29.87499999999937,46,114,32
29.89999999999937,48,115,32
29.92499999999937,50,80,32
29.949999999999367,52,93,32
29.974999999999365,54,88,32
29.999999999999364,56,109,32
