onset_time,pitch,velocity,voice_id
0.0,60,80,0
0.0,60,80,1
0.010428179777263536,69,68,2
0.039689195189384636,67,61,2
0.04345863675521455,72,96,2
0.04478838716874079,62,60,2
0.06521243502712445,76,63,2
0.06567464187154975,55,95,2
0.10537307616832031,84,84,2
0.10983260925164616,80,62,2
0.11789380323965676,69,68,2
0.13046129361255313,52,81,2
0.1514917574769931,65,82,2
0.15916987996593537,84,71,2
0.17270176191837483,77,69,2
0.17765144774345684,78,93,2
0.19759599710589595,57,69,2
0.21838117534255397,62,89,2
0.21987592936209407,65,81,2
0.2947788258612313,70,65,2
0.3028518894160926,80,61,2
0.3183098861837907,62,80,1
0.3284685730405073,63,89,2
0.33136084490616174,82,61,2
0.3321384831604613,81,91,2
0.3387931004235877,75,75,2
0.34709413557153485,49,71,2
0.364676886637797,77,60,2
0.36787944117144233,62,80,0
0.4422948229208243,60,67,2
0.5046302544606373,63,72,2
0.5248759080691545,52,74,2
0.5269349182681127,75,67,2
0.5279634063944867,67,69,2
0.5388996351010249,71,64,2
0.578112032106379,74,78,2
0.5854409841093623,77,97,2
0.5888164985053763,74,70,2
0.6234156017287724,73,79,2
0.6235386555149043,54,79,2
0.6366197723675814,64,80,1
0.6508074534568387,52,80,2
0.6835899984800279,70,77,2
0.6934542800892775,75,69,2
0.7357588823428847,64,80,0
0.7376438261261269,81,93,2
0.7465731328206002,62,85,2
0.7548506517186081,79,89,2
0.7839145580287801,73,68,2
0.832409044971036,78,90,2
0.835239542606936,66,63,2
0.8670260482308663,56,65,2
0.8997791586024522,76,73,2
0.9162164661308358,51,63,2
0.9167886388861717,50,85,2
0.9174982762482395,76,98,2
0.9258848697770196,58,76,2
0.954929658551372,65,80,1
0.9788018815513746,80,78,2
0.9905414809932118,58,65,2
0.9963149289247095,74,88,2
1.0039180467888664,80,70,2
1.0629169375862138,68,75,2
1.08521680848667,78,89,2
1.103638323514327,65,80,0
1.1213938960586824,49,84,2
1.1709675272861393,74,99,2
1.2075752670928852,83,70,2
1.2160803941244034,58,66,2
1.2218289884830562,65,85,2
1.259691871297255,48,81,2
1.2598469026124026,82,84,2
1.2718529764105952,82,78,2
1.2732395447351628,67,80,1
1.274690318444943,78,90,2
1.338315232282524,75,85,2
1.354569739077194,48,95,2
1.4375471693773798,72,82,2
1.4528284866765764,67,72,2
1.460278479485045,50,84,2
1.4715177646857693,67,80,0
1.4811783032846582,49,61,2
1.4823527718931113,65,61,2
1.5354385708062077,57,75,2
1.5389170343836627,52,68,2
1.5915494309189535,69,80,1
1.6332289673306684,56,87,2
1.6580101897817192,49,72,2
1.664039815833626,81,94,2
1.6742292113728328,78,72,2
1.696536718642558,57,90,2
1.6986395888383718,59,80,2
1.7072353731420917,83,91,2
1.7081604789152993,68,93,2
1.733312739676796,53,67,2
1.749260086000118,50,61,2
1.7722850713678444,57,97,2
1.7983786830915716,52,91,2
1.8393972058572117,69,80,0
1.859719656820556,73,99,2
1.8689892664648933,68,87,2
1.909859317102744,71,80,1
1.9264601641793537,73,96,2
1.9330896612918314,73,60,2
1.9708559740171474,55,69,2
1.987617738688124,52,63,2
1.9897894306986783,62,94,2
2.041051084646421,63,69,2
2.0502521181977835,48,70,2
2.079018016636164,63,73,2
2.1274876292894223,84,97,2
2.150316755813149,50,71,2
2.154234405028336,78,76,2
2.174956492738682,60,75,2
2.177334201659481,63,94,2
2.177446966927299,68,61,2
2.1951291412859417,49,70,2
2.207276647028654,71,80,0
2.2185833964445028,74,62,2
2.228169203286535,72,80,1
2.2462593361978036,73,88,2
2.2550067786182053,72,77,2
2.278312863380489,58,79,2
2.3021309364509284,55,73,2
2.3043166489275597,55,93,2
2.3111646522133116,80,90,2
2.391438194572488,54,99,2
2.4409060881557885,68,77,2
2.4761022048821975,55,89,2
2.495216780496455,68,84,2
2.5000437781703493,67,78,2
2.5073677196895994,55,67,2
2.530411470496161,78,87,2
2.5464790894703255,60,80,1
2.5751560882000963,72,80,0
2.647846871205209,76,67,2
2.7342524505064354,56,90,2
2.7420030297991502,62,62,2
2.7843302887431074,77,62,2
2.7884573691052355,73,81,2
2.8495972240120584,57,76,2
2.864788975654116,62,80,1
2.8683552759328506,76,95,2
2.8929208604252947,63,76,2
2.9395566079342013,83,73,2
2.9430355293715387,60,80,0
2.9660915951631273,67,68,2
2.9759914249923485,84,89,2
3.0128219695981198,69,80,2
3.073578487027027,54,71,2
3.109155152189438,70,96,2
3.136056277711916,76,91,2
3.183098861837907,64,80,1
3.185107910519622,63,70,2
3.195573172491345,75,79,2
3.2147601508604438,78,94,2
3.2286847497089353,61,70,2
3.23618765327148,80,67,2
3.2368759879848463,56,63,2
3.2753060184190272,74,86,2
3.2783257748923034,71,99,2
3.310914970542981,62,80,0
3.3109846180133196,60,97,2
3.332656165094575,73,89,2
3.3338353894481374,76,86,2
3.3511222881746874,75,80,2
3.3960389922223997,75,79,2
3.4312757473275703,55,63,2
3.444119823578088,70,70,2
3.484863051392678,76,72,2
3.496548821269681,52,68,2
3.500329282193522,54,63,2
3.5014087480216975,65,80,1
3.518035741044929,83,71,2
3.5420221932604137,74,68,2
3.610868937672776,49,72,2
3.628829615049028,72,85,2
3.6409193453941846,56,97,2
3.6506974371569205,74,72,2
3.6510196167062716,48,98,2
3.6520661584163276,70,87,2
3.6787944117144233,64,80,0
3.695048448052231,57,78,2
3.7093325501502954,72,83,2
3.724366282723567,50,78,2
3.7285928318969055,53,72,2
3.7398892011098654,53,72,2
3.7622917463552192,49,87,2
3.7727225020142208,65,61,2
3.7882656009610605,70,69,2
3.8121539290511715,49,81,2
3.8137802054124212,59,72,2
3.8143772959161413,69,68,2
3.819718634205488,67,80,1
3.8769829727025225,84,92,2
3.8879007658630536,67,73,2
3.9015220097308556,71,79,2
3.964591501869367,67,74,2
4.041635682368193,48,91,2
4.043996245378897,48,92,2
4.046200801193469,64,76,2
4.046673852885865,65,80,0
4.047841904014501,48,83,2
4.0892535937944405,77,89,2
4.126687605043017,50,72,2
4.129482052150331,58,75,2
4.138028520389279,69,80,1
4.181030780043611,71,61,2
4.188393754761538,69,76,2
4.219255008006103,73,91,2
4.322744005564775,60,67,2
4.333082759163924,48,62,2
4.385784377566079,71,71,2
4.414553294057308,67,80,0
4.416668482377089,57,79,2
4.434725038122944,82,75,2
4.45425223546127,71,73,2
4.45633840657307,71,80,1
4.506650175393769,75,75,2
4.582041357026859,83,92,2
4.604246469924426,63,89,2
4.6119580872298975,63,71,2
4.636765277894975,64,74,2
4.671614064922112,62,77,2
4.673739330400786,63,87,2
4.675056701655203,62,82,2
4.697606632643096,81,73,2
4.701035691632921,58,89,2
4.722433595627321,48,92,2
4.72438594055329,62,74,2
4.726064742542753,73,66,2
4.753286959278975,51,74,2
4.7656756581752,52,97,2
4.7746482927568605,72,80,1
4.782432735228751,69,80,0
4.897772310239303,82,70,2
4.908261665786395,60,88,2
4.941622611129832,57,90,2
4.956509574091539,58,84,2
4.956763320523374,65,83,2
4.958051107880395,81,78,2
4.960829468591672,70,61,2
4.991287195649371,54,81,2
5.064058755851646,50,79,2
5.092958178940651,60,80,1
5.096785506839062,59,92,2
5.150312176400193,71,80,0
5.17419828953364,54,67,2
5.1962566959865555,73,84,2
5.209726201668266,80,68,2
5.230267031080472,84,93,2
5.310537503698706,62,82,2
5.317756913029709,49,64,2
5.3316026596698,54,84,2
5.351074742025503,79,67,2
5.411268065124442,62,80,1
5.459137497679621,51,75,2
5.467368148825273,67,74,2
5.493019917350803,83,60,2
5.518191617571635,72,80,0
5.5467599416174505,79,81,2
5.613243019951526,75,62,2
5.634363109275779,60,97,2
5.695369582613562,48,73,2
5.705866199537635,82,95,2
5.729577951308232,64,80,1
5.802850098831416,77,77,2
5.82288841283621,83,77,2
5.886071058743077,60,80,0
5.941241715077229,72,62,2
5.953149158106726,63,69,2
6.0478878374920235,65,80,1
6.118238442636483,66,98,2
6.192906333856827,48,60,2
6.2062135966879355,52,86,2
6.25395049991452,62,80,0
6.2746630141644175,69,86,2
6.280431985840384,71,70,2
6.301824662168007,84,64,2
6.304503309310196,83,66,2
6.320827985403219,83,78,2
6.354984962724219,51,88,2
6.366197723675814,67,80,1
6.401490710351547,83,74,2
6.404688220471332,65,94,2
6.435956163863834,63,96,2
6.4630153938148975,65,71,2
6.46627345050886,69,89,2
6.4758665007647505,49,79,2
6.486932764488332,68,96,2
6.539045242776808,83,62,2
6.555079132289526,76,68,2
6.566303135207286,73,98,2
6.621829941085962,64,80,0
6.628963697518278,68,85,2
6.657698769963568,64,61,2
6.679998464940406,63,82,2
6.681751693939877,78,82,2
6.684507609859605,69,80,1
6.684796547808033,56,80,2
6.688117882609533,78,75,2
6.692578912765855,61,68,2
6.743045004435374,84,72,2
6.767518095183205,49,87,2
6.772263672538652,61,86,2
6.77637583574011,80,76,2
6.7807049872397345,82,97,2
6.783561791984031,67,95,2
6.788697174347256,49,60,2
6.804252845118685,66,77,2
6.827112832240181,84,68,2
6.874471888374587,65,72,2
6.910937114668513,63,99,2
6.915469995380997,51,74,2
6.925754108937094,59,63,2
6.947154149693951,76,92,2
6.96095172989886,54,83,2
6.961782239950448,61,95,2
6.989709382257404,65,80,0
7.002817496043395,71,80,1
7.005477150776325,59,69,2
7.007996291632784,82,95,2
7.024898664945124,52,79,2
7.031869211875758,64,70,2
7.032319775447988,79,71,2
7.037598818461846,57,77,2
7.060442416621053,64,89,2
7.095035950673893,52,96,2
7.097056663885391,56,79,2
7.116699398504755,80,84,2
7.129255724046599,83,71,2
7.136672661385748,83,80,2
7.159744319421789,65,84,2
7.190211869824434,56,70,2
7.19259726992721,76,68,2
7.198870755469324,61,84,2
7.20345946092387,72,94,2
7.209549197507312,62,91,2
7.223929928667016,53,73,2
7.321127382227186,72,80,1
7.339212655292858,76,60,2
7.34337708935478,62,76,2
7.357588823428847,67,80,0
7.402274535909446,76,84,2
7.421112926164081,51,67,2
7.453723454128794,65,64,2
7.462414294420332,63,64,2
7.478158404701325,58,94,2
7.480869144082306,61,78,2
7.488437218936451,50,82,2
7.4921631023313555,65,68,2
7.509064152289779,67,89,2
7.518183787876011,72,75,2
7.534816923777908,60,92,2
7.566551728729646,51,61,2
7.580726320819541,61,73,2
7.632668074479138,80,60,2
7.639437268410976,60,80,1
7.694582013707166,75,85,2
7.696111131873221,84,84,2
7.7234481355105515,55,75,2
7.7254682646002895,69,80,0
7.751751653190016,81,74,2
7.785552742800891,52,85,2
7.799356321909771,52,75,2
7.82995137330837,78,73,2
7.846586357160721,56,88,2
7.899241815132046,79,83,2
7.9239616272385485,80,74,2
7.948800567864755,50,78,2
7.957747154594768,62,80,1
8.002307115657262,77,67,2
8.00865532940279,59,93,2
8.009413274732964,76,61,2
8.05629575973367,50,86,2
8.09176254558537,73,69,2
8.09334770577173,71,80,0
8.097549057195254,77,94,2
8.125840083239513,56,82,2
8.152151232330349,73,67,2
8.158597536758336,49,87,2
8.182508877406184,50,82,2
8.199983923105066,51,63,2
8.215650466233804,72,73,2
8.275834126613754,60,88,2
8.276057040778557,64,80,1
8.329640086478609,82,60,2
8.348722356475331,70,63,2
8.360986234340283,56,91,2
8.434831593941752,49,92,2
8.461227146943173,72,80,0
8.57620368016541,78,85,2
8.59436692696235,65,80,1
8.596086208761612,49,76,2
8.597337723189241,79,98,2
8.633422343435157,65,82,2
8.642438207803828,60,91,2
8.669017321915266,52,74,2
8.69873974306339,57,72,2
8.70439268692345,72,61,2
8.70776646296637,81,78,2
8.72309730836199,84,83,2
8.777837146923163,77,83,2
8.797146088785059,54,70,2
8.797438998670074,53,81,2
8.805372455214728,50,74,2
8.822856017510478,60,69,2
8.829106588114616,60,80,0
8.834736544560243,50,86,2
8.835563974379303,73,68,2
8.854053843349885,71,87,2
8.887253900985405,53,60,2
8.903768515531906,59,76,2
8.91267681314614,67,80,1
8.915148475560239,83,90,2
8.918897431266037,49,69,2
8.973258576060955,58,96,2
8.996210204174165,81,88,2
8.996781629701557,73,77,2
9.024752368809402,65,97,2
9.025362810095723,68,98,2
9.031201956294632,83,65,2
9.031644342545569,69,99,2
9.067400307596596,77,71,2
9.090904731794831,77,73,2
9.093232288094494,55,69,2
9.161106639496108,81,79,2
9.185615012349544,56,74,2
9.19361547406085,67,90,2
9.196986029286059,62,80,0
9.19879436917729,72,66,2
9.203243324805964,66,69,2
9.23098669932993,69,80,1
9.253196263059014,52,69,2
9.259870179773397,58,98,2
9.279699463109916,62,87,2
9.30144529078874,55,89,2
9.319291232266847,66,96,2
9.35909244291118,70,62,2
9.404170330193832,74,74,2
9.466465799294907,79,80,2
9.473419144801051,73,96,2
9.495723529955152,74,71,2
9.549296585513721,71,80,1
9.564865470457502,64,80,0
9.591516831777772,66,63,2
9.595702495414663,76,68,2
9.598899004998152,80,98,2
9.606016367855993,66,87,2
9.63457394922245,84,82,2
9.683858603061127,66,99,2
9.704249352361247,80,81,2
9.720592278205356,63,83,2
9.73685265448586,70,85,2
9.74281465405744,54,89,2
9.749070210359672,73,92,2
9.756640259069764,79,75,2
9.784852792106179,59,81,2
9.803422648344084,55,77,2
9.856946452662923,52,66,2
9.857650445525683,75,85,2
9.867606471697512,72,80,1
9.877740682233975,52,67,2
9.892983036812335,73,65,2
9.904528609983508,52,89,2
9.932744911628943,65,80,0
9.933476330210539,69,98,2
9.959388389226831,62,82,2
10.0013754518428,60,91,2
10.008434421064758,75,81,2
10.018385753855421,80,68,2
10.073779083711813,70,90,2
10.140456653781207,80,66,2
10.145006215601507,65,68,2
10.185916357881302,60,80,1
10.227360340498302,77,72,2
10.259933526091228,73,62,2
10.300624352800385,67,80,0
10.329566346456263,63,94,2
10.361163777313676,60,92,2
10.416071894294243,80,80,2
10.442636571114084,73,90,2
10.504226244065093,62,80,1
10.564179290060677,48,93,2
10.617576201694538,49,91,2
10.623384562610033,53,94,2
10.635895480206974,71,74,2
10.661656660683423,65,91,2
10.668503793971828,69,80,0
10.709909141988406,74,65,2
10.715802822943203,55,80,2
10.761157971529297,75,92,2
10.807314810787167,57,91,2
10.822536130248883,64,80,1
11.0068745053125,64,78,2
11.03638323514327,71,80,0
11.039263955514976,76,92,2
11.053790340054647,53,87,2
11.132259477262906,61,90,2
11.140846016432674,65,80,1
11.15047944828243,69,80,2
11.160210988984522,53,93,2
11.168020204311906,73,74,2
11.168975866110515,59,73,2
11.266753154535232,82,78,2
11.317301082652385,61,74,2
11.393659446589146,69,65,2
11.404262676314712,72,80,0
11.414779317090844,70,68,2
11.459155902616464,67,80,1
11.519878087892906,54,96,2
11.583433850814991,72,79,2
11.60422990021215,60,93,2
11.610057345279971,68,97,2
11.615592565249315,57,85,2
11.6491979154176,56,77,2
11.772142117486155,60,80,0
11.777465788800255,69,80,1
11.815685776471124,62,87,2
11.853360826633685,49,68,2
11.890958893366713,72,91,2
11.896589287899372,60,65,2
11.91656249954797,81,73,2
11.925554664006594,81,87,2
12.04205016143223,82,83,2
12.044072492471171,50,72,2
12.054434983107408,53,71,2
12.082996218218453,66,78,2
12.08487442815702,50,80,2
12.095775674984047,71,80,1
12.110422653214737,65,86,2
12.140021558657597,62,80,0
12.152760400393497,56,78,2
12.167317181225398,59,83,2
12.20600935706861,52,85,2
12.23119277702245,50,87,2
12.414085561167838,72,80,1
12.440687508129187,58,77,2
12.479524116490861,77,95,2
12.50790099982904,64,80,0
12.53214624347422,51,88,2
12.532288606776829,52,76,2
12.575815167742448,48,63,2
12.59815155725226,74,88,2
12.631783229032914,75,63,2
12.663592306382613,76,69,2
12.732395447351628,60,80,1
12.736850556999672,65,84,2
12.787381725412299,59,90,2
12.796887910830588,60,62,2
12.875780441000481,65,80,0
12.918807630894918,49,61,2
12.95036109158737,84,84,2
12.950858245981468,63,65,2
12.991313210466192,71,85,2
13.01076060941438,82,67,2
13.041023032314182,69,94,2
13.050705333535419,62,80,1
13.06655121345475,83,86,2
13.133510200263308,58,84,2
13.169450309556778,76,77,2
13.243659882171924,67,80,0
13.261311876870817,82,60,2
13.311206377022998,62,98,2
13.316532156609195,78,62,2
13.339967620139772,63,63,2
13.36901521971921,64,80,1
13.384361799224813,57,96,2
13.460985851251497,79,74,2
13.5737739322993,49,67,2
13.611539323343367,69,80,0
13.665521839871431,71,97,2
13.668294710186409,70,78,2
13.687325105903,65,80,1
13.694005350518513,49,85,2
13.698978676627215,78,98,2
13.700453411089292,73,69,2
13.715673882062463,76,97,2
13.715933628419151,50,73,2
13.727009017243278,61,78,2
13.747372175098654,72,89,2
13.807390725167249,48,64,2
13.82194409942285,50,90,2
13.83151877019969,73,66,2
13.871139322621898,65,78,2
13.879921763421851,56,90,2
13.881965517135274,70,98,2
13.882715891484287,68,83,2
13.893953910451744,48,93,2
13.948412646519053,68,82,2
13.95248600507761,74,99,2
13.976869346124703,53,65,2
13.979418764514808,71,80,0
14.00563499208679,67,80,1
14.092706724891363,83,97,2
14.099013995058916,75,95,2
14.14465922965897,64,86,2
14.227417069868617,50,70,2
14.255773810075738,59,64,2
14.32394487827058,69,80,1
14.34729820568625,72,80,0
14.367951751697863,59,76,2
14.374573501767616,49,66,2
14.449785897988509,69,86,2
14.459220309826053,70,74,2
14.556866174081975,77,72,2
14.642254764454371,71,80,1
14.680676281993307,52,70,2
14.715177646857693,60,80,0
14.741979923029056,56,85,2
14.793009955758533,68,81,2
14.825370610645361,58,87,2
14.904352322620062,52,83,2
14.947169873014653,82,88,2
14.960564650638162,72,80,1
14.96657730180475,74,68,2
14.980436129733537,49,63,2
15.057928530662895,71,77,2
15.081689805874387,78,75,2
15.083057088029136,62,80,0
15.114687399001212,80,92,2
15.192478742432867,77,88,2
15.198462154510594,84,98,2
15.202596330957363,75,69,2
15.224255492523824,78,68,2
15.249652622840697,58,90,2
15.274706472910843,70,87,2
15.278874536821952,60,80,1
15.340701925237125,49,62,2
15.347687876475527,74,73,2
15.365413486680936,82,84,2
15.387232794666685,49,74,2
15.388176388733376,84,61,2
15.450936529200579,64,80,0
15.520296504070437,68,83,2
15.538552125264177,52,73,2
15.597184423005745,62,80,1
15.629600159323724,68,66,2
15.654413027854936,76,95,2
15.69943595279257,67,83,2
15.81881597037202,65,80,0
15.915494309189535,64,80,1
16.06145824570115,67,86,2
16.14545520375809,72,96,2
16.18669541154346,67,80,0
16.233804195373324,65,80,1
16.2563675963781,49,97,2
16.337347208471655,79,89,2
16.37518805528023,73,86,2
16.39266218035455,53,98,2
16.401382829042173,50,74,2
16.42352510410662,80,85,2
16.429552007411775,48,60,2
16.43528145402362,52,63,2
16.47730797236733,60,88,2
16.50419127013581,66,60,2
16.504768526890075,59,81,2
16.51539855722116,72,70,2
16.552114081557114,67,80,1
16.554574852714904,69,80,0
16.66192148032404,82,69,2
16.66676325611765,59,76,2
16.707143359493887,77,95,2
16.721927416136097,52,85,2
16.729378415971468,81,80,2
16.801755203535176,69,72,2
16.813614455400934,60,68,2
16.849940036037502,50,70,2
16.868556455427907,67,70,2
16.870423967740905,69,80,1
16.922454293886346,71,80,0
16.941775632579194,78,65,2
17.090167156298843,52,60,2
17.111147757736834,71,65,2
17.16154276797222,80,72,2
17.1887338539247,71,80,1
17.19524319676761,55,81,2
17.233674950668032,71,90,2
17.25814751740593,67,81,2
17.279876230051826,63,96,2
17.29033373505779,72,80,0
17.29950645458664,59,86,2
17.3346044908408,60,73,2
17.361760137422948,72,64,2
17.47970923099896,79,95,2
17.50610739905275,71,91,2
17.50704374010849,72,80,1
17.547784199610707,56,93,2
17.583539963124565,70,66,2
17.590263960967317,60,69,2
17.595975779413887,79,76,2
17.658213176229232,60,80,0
17.66909608972184,62,89,2
17.82434705005254,83,80,2
17.82535362629228,60,80,1
17.854234588953197,52,72,2
17.88559584803192,69,60,2
17.968109091711483,63,60,2
17.979435450220695,57,92,2
18.026092617400675,62,80,0
18.14366351247607,62,80,1
18.16150796724264,71,97,2
18.168292859224398,65,84,2
18.188264340542965,65,85,2
18.199504505678668,54,72,2
18.393972058572118,64,80,0
18.46197339865986,64,80,1
18.481881542941668,51,87,2
18.483756683590574,73,92,2
18.61654630348941,52,96,2
18.626726958655116,63,89,2
18.62730808932109,82,67,2
18.76185149974356,65,80,0
18.775666559806897,73,60,2
18.78028328484365,65,80,1
18.796836473561502,65,71,2
18.819590900325892,76,64,2
18.844733216682787,70,83,2
18.97256287340299,61,65,2
18.975972692541514,62,84,2
18.984003019340207,80,60,2
19.010184785338613,72,84,2
19.088149594629233,68,60,2
19.098593171027442,67,80,1
19.10453902697708,64,91,2
19.11472758660781,70,62,2
19.129730940915003,67,80,0
19.186377277213605,64,78,2
19.19876609645599,61,88,2
19.230506644938533,76,61,2
19.247537423722196,67,68,2
19.247808419949948,77,76,2
19.416903057211233,69,80,1
19.423823445692634,66,95,2
19.46400979623589,60,76,2
19.497610382086442,69,80,0
19.561511580851363,65,71,2
19.67703898041834,70,79,2
19.70503721108463,80,62,2
19.70667994279283,65,63,2
19.735212943395023,71,80,1
19.786031589947353,56,76,2
19.81965771146503,80,96,2
19.823908664386252,79,74,2
19.854745294599297,64,92,2
19.865489823257885,71,80,0
19.88620898300482,66,75,2
19.891326272314952,74,70,2
19.972059323385988,53,79,2
20.053522829578814,72,80,1
20.118525796065686,82,97,2
20.177020273986223,84,83,2
20.233369264429328,72,80,0
20.263915230299915,81,75,2
20.266793917811135,67,89,2
20.371832715762604,60,80,1
20.42245594317677,72,93,2
20.60124870560077,60,80,0
20.626173905410567,51,60,2
20.667147703651647,57,83,2
20.690142601946395,62,80,1
20.792328158666837,57,83,2
20.859229363427374,71,68,2
20.89849484674987,68,81,2
20.92620697354363,58,71,2
20.95801259725091,74,76,2
20.969128146772213,62,80,0
20.98844311861431,63,84,2
21.008452488130185,64,80,1
21.05892837904897,73,87,2
21.067726342255714,77,74,2
21.200469884857,63,89,2
21.29946683170556,54,86,2
21.32094469656984,63,81,2
21.326762374313976,65,80,1
21.337007587943656,64,80,0
21.356074418527857,82,69,2
21.39863786265791,63,90,2
21.483582989777876,59,86,2
21.4849237681351,82,71,2
21.56649901475218,68,90,2
21.57740029668407,83,91,2
21.645072260497766,67,80,1
21.7048870291151,65,80,0
21.86126720293404,64,91,2
21.950642686382206,79,94,2
21.963382146681557,69,80,1
22.02456035981687,53,80,2
22.04549782677058,71,69,2
22.07276647028654,67,80,0
22.146152108410302,74,75,2
22.147457597895297,67,66,2
22.15420010303655,72,63,2
22.206803935796913,49,86,2
22.22939374109067,56,84,2
22.281692032865347,71,80,1
22.28204096593835,75,90,2
22.44064591145798,69,80,0
22.443781339680555,50,70,2
22.45584020306494,67,79,2
22.53388586896665,53,95,2
22.539559230636446,80,76,2
22.598276878170857,48,70,2
22.600001919049138,72,80,1
22.660975281670677,84,89,2
22.80205941736036,53,94,2
22.808525352629424,71,80,0
22.91831180523293,60,80,1
22.989595100628684,81,97,2
23.176404793800867,72,80,0
23.23662169141672,62,80,1
23.309443742811887,62,81,2
23.33757216256305,73,86,2
23.54428423497231,60,80,0
23.55493157760051,64,80,1
23.578890053977975,61,96,2
23.63030059550177,54,94,2
23.80077847413472,78,63,2
23.830798753197683,71,75,2
23.873241463784304,65,80,1
23.912163676143752,62,80,0
23.917064615419395,78,75,2
23.967886055609075,76,80,2
24.019583584314926,79,85,2
24.191551349968094,67,80,1
24.272851141816165,64,95,2
24.280043117315195,64,80,0
24.285054046230638,61,78,2
24.47546367049077,83,76,2
24.5047492887479,71,85,2
24.509861236151885,69,80,1
24.55104114754978,74,81,2
24.647922558486638,65,80,0
24.676872779375284,72,87,2
24.678700818493596,79,60,2
24.713871712623877,65,95,2
24.798083627573913,65,96,2
24.828171122335675,71,80,1
25.01580199965808,67,80,0
25.146481008519466,72,80,1
25.162444655014642,84,61,2
25.183181289246917,73,76,2
25.28024149174466,56,99,2
25.306487145869696,82,97,2
25.31198199557786,55,80,2
25.38368144082952,69,80,0
25.464790894703256,60,80,1
25.571462167233502,67,68,2
25.741343398870274,69,72,2
25.751560882000962,71,80,0
25.7638257252051,66,70,2
25.770445210165597,77,75,2
25.783100780887047,62,80,1
25.841037897471118,75,75,2
25.951305121723692,82,61,2
26.023446258317602,58,67,2
26.07516679422831,78,72,2
26.09213345747037,83,76,2
26.101410667070837,64,80,1
26.119294494112534,77,98,2
26.119440323172405,72,80,0
26.377401859274165,70,83,2
26.389914037354117,66,62,2
26.419720553254628,65,80,1
26.442712636111054,59,89,2
26.47503237000286,62,72,2
26.487319764343848,60,80,0
26.64619799012982,78,78,2
26.660969858624686,84,66,2
26.68739122116392,84,68,2
26.69196517935452,62,78,2
26.73803043943842,67,80,1
26.85519920551529,62,80,0
26.954789006881395,76,99,2
27.024181794018844,73,81,2
27.05634032562221,69,80,1
27.069933514858626,49,77,2
27.223078646686734,64,80,0
27.26544370057378,67,82,2
27.374650211806,71,80,1
27.433157917456825,62,61,2
27.590958087858176,65,80,0
27.69296009798979,72,80,1
27.706524024006097,51,70,2
27.880033226552257,69,90,2
27.958837529029616,67,80,0
27.96251702957329,70,92,2
28.01126998417358,60,80,1
28.022246351395133,73,73,2
28.134274544453685,58,75,2
28.143807211060338,75,70,2
28.236691536341002,49,92,2
28.32671697020106,69,80,0
28.32957987035737,62,80,1
28.531749632515044,55,66,2
28.553817578592287,76,90,2
28.612851179657817,58,73,2
28.64788975654116,64,80,1
28.653483525529257,84,87,2
28.668231271489507,65,75,2
28.6945964113725,71,80,0
28.966199642724952,65,80,1
28.99425919924876,61,78,2
29.062475852543944,72,80,0
29.127075093957362,57,76,2
29.284509528908742,67,80,1
29.3866961850365,82,85,2
29.4057174486058,56,65,2
29.430355293715387,60,80,0
29.591917470136945,82,68,2
29.602819415092533,69,80,1
29.73516755072907,58,76,2
29.79823473488683,62,80,0
29.921129301276324,71,80,1
30.112869411192747,59,90,2
30.166114176058272,64,80,0
30.239439187460114,72,80,1
30.320184692201938,50,71,2
30.323725826944262,61,82,2
30.533993617229715,65,80,0
30.557749073643905,60,80,1
30.8760589598277,62,80,1
30.901873058401158,67,80,0
31.097354397585274,75,64,2
31.19436884601149,64,80,1
31.215460142921525,58,95,2
31.22790112849442,72,95,2
31.269752499572597,69,80,0
31.36763347445571,68,62,2
31.51267873219528,65,80,1
31.574621708274886,57,83,2
31.63763194074404,71,80,0
31.83098861837907,67,80,1
31.905720561794077,62,76,2
32.00551138191548,72,80,0
32.03494321875309,66,98,2
32.054410711899834,69,85,2
32.14861992840291,68,63,2
32.14929850456286,69,80,1
32.37339082308692,60,80,0
32.399196295986435,79,71,2
32.46760839074665,71,80,1
32.500489380810535,70,60,2
32.546780079406616,60,80,2
32.74127026425837,62,80,0
32.78591827693044,72,80,1
32.894354912691846,52,78,2
32.93941770293034,51,80,2
32.980002909955026,75,77,2
33.10422816311423,60,80,1
33.10914970542981,64,80,0
33.233316230806764,61,62,2
33.25822554193764,55,91,2
33.42253804929802,62,80,1
33.477029146601254,65,80,0
33.49579160738524,56,69,2
33.63382617649611,82,99,2
33.64341294958959,84,74,2
33.74084793548181,64,80,1
33.81470407401366,68,64,2
33.84490858777269,67,80,0
33.89161018130914,65,63,2
34.02413228447059,80,87,2
34.05915782166561,65,80,1
34.11635638023084,55,63,2
34.18652227681472,64,74,2
34.21278802894414,69,80,0
34.22128686784216,78,76,2
34.227631743986244,81,62,2
34.29023827988835,53,69,2
34.3774677078494,67,80,1
34.50531999127834,69,82,2
34.58066747011558,71,80,0
34.648773183749555,61,77,2
34.69577759403319,69,80,1
34.750106167029955,50,60,2
34.80184717357296,59,94,2
34.86928714162946,83,90,2
34.928937282546215,59,60,2
34.9305617226929,49,62,2
34.948546911287025,72,80,0
35.00304583002566,49,62,2
35.01408748021698,71,80,1
35.316426352458464,60,80,0
35.33239736640077,72,80,1
35.33745819795942,62,96,2
35.3414729606026,70,78,2
35.385738369190896,76,88,2
35.38767731366921,64,84,2
35.4003217287956,79,92,2
35.422851935038786,54,95,2
35.433873956928196,77,88,2
35.51682739574054,75,85,2
35.59456117333869,61,63,2
35.61523863398608,77,73,2
35.624378454305386,64,86,2
35.650553890712416,79,92,2
35.65070725258456,60,80,1
35.67876222349078,53,81,2
35.6843057936299,62,80,0
35.71373708203424,71,62,2
35.75651491053543,53,82,2
35.88881795897186,74,80,2
35.94567978237582,65,82,2
35.96901713876835,62,80,1
36.008151415565486,71,63,2
36.05218523480135,64,80,0
36.09718966453387,84,80,2
36.12041250768909,71,96,2
36.17757910672313,81,90,2
36.243751958261576,62,80,2
36.263909807551364,58,85,2
36.28732702495214,64,80,1
36.317846882588114,69,94,2
36.42006467597279,65,80,0
36.449146760425236,71,97,2
36.60563691113593,65,80,1
36.642675133141566,48,83,2
36.663970849869266,65,70,2
36.672340299135385,59,88,2
36.73532541300663,75,62,2
36.787944117144235,67,80,0
36.835482820855155,54,60,2
36.861678854370766,70,78,2
36.92394679731972,67,80,1
36.93257494881269,68,81,2
37.01888191797393,81,73,2
37.031850749866955,58,73,2
37.155823558315674,69,80,0
37.195116132255194,69,75,2
37.24225668350351,69,80,1
37.34635504825273,82,92,2
37.42652296445649,76,72,2
37.43829306014741,75,97,2
37.487027150707114,65,71,2
37.52370299948712,71,80,0
37.551075571645875,61,97,2
37.5605665696873,71,80,1
37.878876455871094,72,80,1
37.89158244065856,72,80,0
37.95561784358939,65,98,2
38.05740235689693,75,92,2
38.10652054242336,71,92,2
38.18722383436447,55,88,2
38.197186342054884,60,80,1
38.259461881830006,60,80,0
38.37608107824127,55,64,2
38.44997054041345,51,65,2
38.515496228238675,62,80,1
38.627341323001446,62,80,0
38.637439089454354,74,90,2
38.81038645928832,83,75,2
38.81946174707878,52,90,2
38.833806114422465,64,80,1
38.94789678991231,80,84,2
38.96063644514289,81,92,2
38.964710030773865,77,72,2
38.995220764172885,64,80,0
39.13738785852978,55,69,2
39.14326840535173,73,83,2
39.14985366827965,84,69,2
39.152116000606256,65,80,1
39.17476122675407,81,90,2
39.18354496985183,54,72,2
39.22798846278598,75,62,2
39.27410277162909,75,93,2
39.36310020534433,65,80,0
39.470425886790046,67,80,1
39.479344440542484,61,87,2
39.55048452477445,51,78,2
39.5669244147587,65,82,2
39.63414784836845,72,91,2
39.6918163710846,54,72,2
39.697301007166146,75,92,2
39.73097964651577,67,80,0
39.73612412183511,52,93,2
39.78873577297384,69,80,1
39.81314409115775,50,92,2
39.83374816653783,78,64,2
39.88714760212185,67,62,2
39.91197150286496,66,66,2
39.923824985900595,58,83,2
39.98962704282278,50,81,2
40.003251187130004,70,82,2
40.06177311209223,54,89,2
40.06942977994565,70,77,2
40.09885908768722,69,80,0
40.10704565915763,71,80,1
40.12126890320918,54,91,2
40.18891060722261,81,66,2
40.22796984364991,66,92,2
40.2286573402921,56,64,2
40.27611484604225,65,87,2
40.334527306603164,72,67,2
40.341114270881285,61,74,2
40.369770370261506,72,63,2
40.39059945520743,66,93,2
40.39483391260682,62,64,2
40.42535554534142,72,80,1
40.43076042479606,63,92,2
40.46163548494255,74,64,2
40.466738528858656,71,80,0
40.494564347305186,57,97,2
40.578529604418065,51,93,2
40.58005084259812,66,85,2
40.652192766868424,75,60,2
40.66159827591879,68,63,2
40.74366543152521,60,80,1
40.794109966168755,61,98,2
40.8346179700301,72,80,0
40.91880863343082,80,85,2
41.056191221313895,57,92,2
41.061975317709,62,80,1
41.06542395051954,66,92,2
41.07842012146976,77,67,2
41.14867589936362,69,79,2
41.16044983253604,50,75,2
41.20249741120154,60,80,0
41.32632248513084,84,80,2
41.32647585678465,65,85,2
41.350680906740145,58,82,2
41.38028520389279,64,80,1
41.427740114454416,49,77,2
41.43227603211706,59,90,2
41.46445107964927,53,71,2
41.47953749053022,76,60,2
41.499682896776896,77,68,2
41.50367427158175,49,62,2
41.57037685237298,62,80,0
41.62785211352662,56,85,2
41.663968189617854,49,68,2
41.691259250451736,76,75,2
41.69859509007658,65,80,1
41.72895666574958,80,83,2
41.798148453755424,57,73,2
41.799296482315725,81,62,2
41.82546741658145,55,93,2
41.89533689754075,84,92,2
41.93174637941553,80,83,2
41.936958209984596,53,68,2
41.93825629354443,64,80,0
41.991778995660674,66,72,2
42.01690497626037,67,80,1
42.040996126795825,79,61,2
42.054653132898856,74,66,2
42.11457404457437,48,80,2
42.19174480683604,80,78,2
42.20608910161709,79,84,2
42.306135734715866,65,80,0
42.31666427765578,52,81,2
42.32868011816118,64,70,2
42.33521486244416,69,80,1
42.3738546775321,55,92,2
42.44290658578487,81,91,2
42.445393450896766,56,80,2
42.48109203695103,70,98,2
42.49226882658176,82,79,2
42.49701071933542,54,67,2
42.51919837737757,62,96,2
42.60521866467108,67,68,2
42.65352474862795,71,80,1
42.67401517588731,67,80,0
42.73074928257391,72,84,2
42.78691355633608,50,84,2
42.84946478094585,71,92,2
42.90426075379188,81,61,2
42.94557767064393,69,78,2
42.96161640527099,58,79,2
42.97183463481174,72,80,1
42.98052907418492,55,88,2
42.98141932434321,82,65,2
43.04189461705875,69,80,0
43.05653902943034,55,76,2
43.0855016422766,84,84,2
43.17538731945513,74,97,2
43.209370254176946,75,63,2
43.29014452099553,60,80,1
43.31245837060427,81,89,2
43.358903926395406,79,79,2
43.4097740582302,71,80,0
43.42088620429738,62,62,2
43.44254967546525,64,82,2
43.462703842811436,80,77,2
43.46686958527302,63,85,2
43.500285970321315,76,95,2
43.502633379242845,56,67,2
43.53067407867954,80,76,2
43.60845440717932,62,80,1
43.61290902444119,76,90,2
43.676759244729816,60,96,2
43.67791366124347,68,92,2
43.69687362245132,68,86,2
43.70590351121164,52,63,2
43.72562767122434,57,81,2
43.77765349940164,72,80,0
43.8323418385305,53,85,2
43.87767452581659,60,91,2
43.9176780394841,48,83,2
43.926764293363114,64,80,1
43.928764397423755,67,94,2
43.95979143689514,55,96,2
43.974865398810465,57,91,2
43.98391135793922,56,66,2
44.000686828638784,50,92,2
44.051273708074646,58,90,2
44.05486562679282,59,71,2
44.06482046621668,57,70,2
44.09012021139791,72,83,2
44.090904390698846,72,67,2
44.11745023197736,58,91,2
44.14024665684487,83,97,2
44.14553294057308,60,80,0
44.196360422801725,73,81,2
44.208134763027346,61,93,2
44.245074179546904,65,80,1
44.2690195316462,48,78,2
44.298780055403356,51,79,2
44.323502745274496,77,73,2
44.48187729734565,59,92,2
44.5076587480269,82,69,2
44.51341238174452,62,80,0
44.55881119379033,60,75,2
44.563384065730695,67,80,1
44.691472682528754,78,63,2
44.72938026087453,70,86,2
44.786151890586325,51,87,2
44.81836782815671,63,75,2
44.862960161555435,54,92,2
44.88129182291596,64,80,0
44.881693951914485,69,80,1
44.95755771678953,69,78,2
44.99008053431449,76,80,2
45.01627623437715,58,81,2
45.043576766618266,80,68,2
45.088772724226,76,68,2
45.11821334144717,59,68,2
45.14164722712291,54,86,2
45.14195338004908,73,76,2
45.148602349970325,56,67,2
45.17077960100023,81,75,2
45.18843280979431,60,77,2
45.200003838098276,71,80,1
45.24917126408741,65,80,0
45.27092113122294,83,92,2
45.33849231854603,72,60,2
45.340090527089345,71,71,2
45.36050326818294,64,65,2
45.415884370755926,49,64,2
45.42703704774495,60,75,2
45.518313724282066,72,80,1
45.52163543173265,78,77,2
45.52868858316208,76,77,2
45.57278406016361,75,60,2
45.60178001140856,74,78,2
45.61705070525885,67,80,0
45.6260864979083,62,67,2
45.63541231555279,78,62,2
45.69572915627171,62,84,2
45.72753411747591,80,64,2
45.75520680116153,67,99,2
45.76173291457634,59,78,2
45.83662361046586,60,80,1
45.8492558802531,84,77,2
45.86531135447359,56,90,2
45.88300037542366,70,92,2
45.90376237436898,55,77,2
45.9098697189615,79,98,2
45.918274549824005,61,75,2
45.93564893049103,74,75,2
45.984930146430294,69,80,0
46.0098346468484,72,97,2
46.04676017758864,60,66,2
46.052989023780555,68,73,2
46.14723431680899,78,84,2
46.14781265872743,84,91,2
46.15493349664965,62,80,1
46.202970424207734,52,97,2
46.20849262473057,60,81,2
46.22806675950443,75,75,2
46.23006586819101,72,88,2
46.23254302039215,82,75,2
46.250010111240215,54,71,2
46.27352023218699,79,76,2
46.29949714274034,50,96,2
46.35280958760173,71,80,0
46.40186421580855,84,86,2
46.42874830252756,69,84,2
46.43908812439036,55,72,2
46.46730113938714,64,67,2
46.47324338283344,64,80,1
46.49232273669315,74,64,2
46.523692241666005,80,71,2
46.541922443110614,64,62,2
46.571987624293826,59,94,2
46.58119792145593,74,92,2
46.72060234042928,55,81,2
46.72068902877318,72,80,0
46.73033754506121,70,68,2
46.74496372889112,76,77,2
46.768917042537275,67,88,2
46.79155326901723,65,80,1
46.792134544472816,63,98,2
46.85637962449235,64,86,2
46.87684224223586,63,95,2
46.88824812878813,66,76,2
46.89126186580195,55,93,2
46.90041230248323,76,62,2
46.918274072541664,83,64,2
46.96394176224998,73,73,2
46.990630422331705,78,62,2
47.020387428553995,59,82,2
47.02382887970132,64,98,2
47.03642872482566,62,89,2
47.06956413251377,56,82,2
47.08856846994462,60,80,0
47.10873778745703,59,86,2
47.10986315520102,67,80,1
47.251127940677556,79,69,2
47.27958064811207,72,84,2
47.2911340871463,65,72,2
47.335235070578825,62,75,2
47.381910047905656,79,93,2
47.40544633583409,53,96,2
47.42817304138481,69,80,1
47.43651699932351,82,81,2
47.44950436648733,81,76,2
47.45644791111606,62,80,0
47.507376454502165,52,82,2
47.54311768385498,65,95,2
47.58196903994607,63,68,2
47.61606583608448,55,61,2
47.64525759904646,72,91,2
47.650792859791814,79,81,2
47.66963098860301,73,72,2
47.67099623842587,69,67,2
47.703054469090794,78,60,2
47.71062510606074,57,76,2
47.714588872429616,59,71,2
47.719611430357034,75,63,2
47.72077820303897,53,72,2
47.73670799324199,67,90,2
47.74648292756861,71,80,1
47.75092071274056,52,66,2
47.75234403464031,70,82,2
47.77129961409418,56,83,2
47.81805536892598,76,64,2
47.824327352287504,64,80,0
47.889470145265705,63,64,2
47.89176235145833,69,76,2
47.896315838505245,55,89,2
47.919365851138316,67,68,2
47.99203428681153,61,65,2
47.996171920835614,84,84,2
47.99909574124809,81,78,2
48.00536597681542,58,75,2
48.0647928137524,72,80,1
48.172753504211165,80,80,2
48.18345333830954,78,61,2
48.18522809291761,81,69,2
48.19220679345894,65,80,0
48.20989430746085,54,75,2
48.22164920974352,70,96,2
48.23358034273441,54,74,2
48.24265872497572,72,72,2
48.27370694861434,50,72,2
48.279715785010886,67,91,2
48.30925056034278,81,67,2
48.32525153916536,77,77,2
48.38310269993619,60,80,1
48.443595779756606,64,95,2
48.49533724178323,57,85,2
48.53262877093173,82,69,2
48.56008623463039,67,80,0
48.61708472685015,67,90,2
48.6432584966885,65,92,2
48.65520391164852,74,88,2
48.66665728691107,83,64,2
48.70141258611998,62,80,1
48.79249145365785,70,72,2
48.81749888251346,79,60,2
48.82067060705457,57,82,2
48.92796567580183,69,80,0
48.94490390308363,58,99,2
48.96948832184956,53,62,2
48.981531751997785,81,62,2
49.00155090643974,83,66,2
49.00546402669845,84,95,2
49.01972247230377,64,80,1
49.02338075268705,64,94,2
49.029189198433954,59,74,2
49.062857971418985,68,99,2
49.11771838285249,66,62,2
49.13260233254716,50,88,2
49.139333623496775,65,89,2
49.159656745318365,66,98,2
49.16721089124798,53,77,2
49.18244764169731,63,70,2
49.211926495781746,55,97,2
49.23572023003295,65,99,2
49.23785077514448,59,60,2
49.25562166197092,57,88,2
49.27685197790784,54,69,2
49.295845116973275,71,80,0
49.320809226036936,48,87,2
49.33803235848756,65,80,1
49.36999320069478,83,90,2
49.40691718754669,68,78,2
49.456576157908096,84,62,2
49.46353315784426,71,95,2
49.46983316226236,72,74,2
49.487832755293645,54,92,2
49.500188241997726,64,85,2
49.50207924092077,76,75,2
49.506268933810844,77,95,2
49.51161986084355,54,92,2
49.52329333341966,80,79,2
49.6078410205332,54,72,2
49.62518383780298,71,92,2
49.64935612836081,58,64,2
49.65634224467135,67,80,1
49.663724558144715,72,80,0
49.737310915883455,56,96,2
49.78438207916558,59,73,2
49.79679854904223,82,86,2
49.81550763962633,51,82,2
49.8532931644603,83,73,2
49.865044062616555,75,99,2
49.94845195089093,60,63,2
49.97465213085514,69,80,1
50.00903806856727,70,98,2
50.03160399931616,60,80,0
50.08013673173487,66,78,2
50.123907022535946,84,63,2
50.1395092228082,71,89,2
50.1519022023455,63,78,2
50.18228740716354,80,90,2
50.19383720377724,59,90,2
50.252084115486014,81,68,2
50.29296201703893,71,80,1
50.3245959544303,54,72,2
50.3941564303505,58,73,2
50.3994834404876,62,80,0
50.40336455461543,78,69,2
50.418161663927954,76,90,2
50.42451137636764,60,96,2
50.516065658753156,78,82,2
50.58052920824929,49,86,2
50.58948240137594,62,65,2
50.61127190322272,72,80,1
50.61254200034564,58,85,2
50.61538155362639,81,61,2
50.66355712114699,51,72,2
50.75928531053099,58,78,2
50.76736288165904,64,80,0
50.802740892267536,76,60,2
50.855035630069395,49,99,2
50.90090025208107,63,91,2
50.90212529050231,60,81,2
50.92720959446542,84,88,2
50.92958178940651,60,80,1
50.96744490087115,64,61,2
50.972105538092556,68,99,2
50.98800832044951,66,97,2
51.041058075957075,54,70,2
51.0682384562052,55,76,2
51.10697834630123,60,67,2
51.135242322830486,65,80,0
51.14495704183997,84,81,2
51.15196764502277,49,63,2
51.21526356850834,58,70,2
51.2478916755903,62,80,1
51.24846141663015,71,67,2
51.2517937700995,53,68,2
51.279493597701986,73,85,2
51.288865467949705,54,61,2
51.317426727221424,66,75,2
51.32712844084857,53,90,2
51.35130858342732,76,65,2
51.36322841551477,49,80,2
51.3973931844537,66,85,2
51.43553111215989,51,78,2
51.44759672324895,53,87,2
51.47017046794178,84,67,2
51.503121764001925,67,80,0
51.51241500301981,75,73,2
51.517491898422726,77,83,2
51.52300286350121,54,96,2
51.56620156177409,64,80,1
51.607915110834824,56,85,2
51.61076503553851,72,90,2
51.65188769269931,80,91,2
51.667848696205986,48,61,2
51.67828699726004,53,84,2
51.70647361852276,65,61,2
51.7131659156276,57,60,2
51.717845185148995,75,95,2
51.73817123338304,58,71,2
51.763187615284934,80,68,2
51.86694096825598,48,95,2
51.87100120517337,69,80,0
51.884511447957884,65,80,1
51.92742260782647,60,87,2
51.954654643561526,84,97,2
51.95481034916008,67,92,2
51.969913363960785,48,81,2
51.97604605727058,50,84,2
51.977615451051605,65,77,2
51.9956358232416,61,65,2
52.00764127832292,78,77,2
52.06910498240645,74,75,2
52.0729952582022,64,74,2
52.08086006227029,76,67,2
52.087752189511974,83,72,2
52.09069026584287,84,66,2
52.14405974954765,73,76,2
52.18232125981605,64,91,2
52.19483030204812,69,81,2
52.202821334141674,67,80,1
52.23888064634481,71,80,0
52.32943788432603,72,72,2
52.33686749635712,49,82,2
52.34738517036951,69,88,2
52.364862526565844,52,81,2
52.39097836180022,51,60,2
52.39923415861961,83,88,2
52.43460743052586,53,64,2
52.45765507169981,68,94,2
52.47525425523773,60,69,2
52.48578296364849,84,78,2
52.486685754683236,72,96,2
52.521131220325465,69,80,1
52.56557464316462,73,66,2
52.569960150161556,67,94,2
52.60676008751626,72,80,0
52.635566459759644,80,72,2
52.66760810566073,61,69,2
52.755985122011445,83,61,2
52.78915618457936,64,65,2
52.81111111136741,68,67,2
52.839441106509256,71,80,1
52.89351364317976,63,95,2
52.90187908722701,63,84,2
52.91165666469106,67,99,2
52.9425225284206,76,66,2
52.94738946937969,75,82,2
52.955312328466725,55,78,2
52.974639528687696,60,80,0
52.97572693382659,71,81,2
52.99080405252053,50,72,2
53.02667388740289,72,80,2
53.03859264809889,66,60,2
53.03916321287117,80,78,2
53.047606445951764,49,92,2
53.068520413873415,62,63,2
53.07938876814708,69,62,2
53.082926260023605,57,86,2
53.085150967354316,65,94,2
53.08807386714928,69,87,2
53.14595154208845,74,65,2
53.157750992693046,72,80,1
53.22098432214914,60,65,2
53.25105355229337,80,82,2
53.29901578761176,52,92,2
53.316010685535986,73,75,2
53.32887853266526,60,83,2
53.342518969859135,62,80,0
53.36057590752955,74,64,2
53.428083820567736,61,72,2
53.44943410834142,71,71,2
53.463335362759736,50,64,2
53.47606087887684,60,80,1
53.50585661034932,77,96,2
53.57826584644934,82,90,2
53.593187633346815,61,87,2
53.646586326350416,59,87,2
53.67850229155228,75,89,2
53.68779831276096,76,77,2
53.71039841103058,64,80,0
53.72973127640177,64,86,2
53.78652311061589,68,94,2
53.79437076506063,62,80,1
53.83403132989747,70,85,2
53.845452610834066,67,98,2
53.85875203903015,58,77,2
53.86856499968021,81,92,2
53.87314968360895,57,84,2
53.89068276433902,57,90,2
53.89835355838339,53,96,2
53.91299670054887,83,61,2
53.988985579671656,71,92,2
54.05897881811989,59,98,2
54.07827785220202,65,80,0
54.08984754066051,70,91,2
54.09630495060198,74,77,2
54.099232981226294,84,76,2
54.09925395590549,53,93,2
54.11268065124442,64,80,1
54.18335791085929,48,98,2
54.22532616023924,53,66,2
54.25426796874546,69,94,2
54.283467433022416,71,89,2
54.36581033025527,72,71,2
54.37509933191976,62,94,2
54.379499902201914,73,70,2
54.417087383912985,55,63,2
54.42820458440243,71,84,2
54.43099053742821,65,80,1
54.44615729337347,67,80,0
54.471046917111465,53,91,2
54.516325355346886,82,79,2
54.55411091302858,48,90,2
54.55813140782535,83,63,2
54.57516398652552,59,97,2
54.5800253614943,58,60,2
54.58096720429904,59,62,2
54.62362932302061,54,96,2
54.69163302466204,58,81,2
54.749300423612,67,80,1
54.750780199486755,83,76,2
54.75743854344708,78,73,2
54.78621491894713,80,94,2
54.794229303219076,60,72,2
54.8126975025291,65,94,2
54.814036734544906,69,80,0
54.816738126417896,71,61,2
54.8988981611429,56,72,2
54.903636430989074,78,75,2
54.925336817766045,57,77,2
54.940290701648124,49,66,2
54.94933804130195,62,95,2
54.954228998875315,50,89,2
54.958796130855035,78,66,2
54.97153251617947,53,74,2
54.98432695364088,50,99,2
55.0024787928807,58,78,2
55.06761030979579,69,80,1
55.07801194710152,62,96,2
55.107703165961766,75,61,2
55.12201243539885,57,72,2
55.17828909638028,54,99,2
55.18191617571635,71,80,0
55.19617315464302,62,90,2
55.210920339224344,65,75,2
55.29074625611344,65,65,2
55.31191071220661,71,87,2
55.32659240738413,49,91,2
55.328322383930086,67,69,2
55.36869812129612,81,77,2
55.37351725832411,73,63,2
55.38592019597958,71,80,1
55.4060560027185,54,68,2
55.4251655385477,77,66,2
55.42599092448703,52,67,2
55.46591884855996,58,66,2
55.46694556962285,48,99,2
55.50823129020247,81,62,2
55.520402053143826,48,76,2
55.53365011922994,66,61,2
55.54979561688779,72,80,0
55.5524519353544,49,74,2
55.56087671557074,68,88,2
55.57103152221095,67,81,2
55.68134323455853,70,63,2
55.70174930275309,68,65,2
55.70423008216337,72,80,1
55.70921064972281,71,97,2
55.72272536147731,51,85,2
55.75423413202339,59,70,2
55.764026364157495,69,85,2
55.818238811426355,67,76,2
55.83580670303515,65,83,2
55.84515093997023,48,87,2
55.86335549898724,77,94,2
55.86568646875848,80,90,2
55.91767505805923,60,80,0
55.93936490422028,71,72,2
55.95990614472496,61,94,2
56.00449384984688,83,75,2
56.02253996834716,60,80,1
56.023862913536995,52,74,2
56.03545352343981,58,77,2
56.080407246443556,71,96,2
56.08864317945854,78,86,2
56.141865200997636,60,94,2
56.166937246627846,63,94,2
56.17145715314411,71,87,2
56.18574058400352,60,98,2
56.20704577898993,71,97,2
56.21581861904645,73,68,2
56.2245897359135,49,71,2
56.22964689001358,63,74,2
56.241963890736244,48,80,2
56.24243573495632,58,94,2
56.25555297384063,82,92,2
56.28555449923068,62,80,0
56.30366191866633,76,78,2
56.33174981001513,84,82,2
56.34084985453095,62,80,1
56.39095962146901,64,72,2
56.45281622834038,75,60,2
56.46178790401508,76,88,2
56.49909193245993,50,83,2
56.52890297964667,57,75,2
56.53978641129868,61,84,2
56.570731004622026,59,82,2
56.65343394040212,64,80,0
56.654192632893746,77,87,2
56.65915974071474,64,80,1
56.69016332942455,79,75,2
56.73542199847085,79,97,2
56.800988546069924,79,70,2
56.80976304347641,73,62,2
56.82088462831417,48,74,2
56.833951717065574,49,60,2
56.83971171494155,64,66,2
56.84763558356982,77,60,2
56.851723293339695,54,91,2
56.86307434492464,74,68,2
56.88252781459032,56,88,2
56.886184959489185,69,85,2
56.91047043853856,81,82,2
56.937306841605434,48,88,2
56.95291717567619,56,97,2
56.97746962689853,65,80,1
56.979067113194034,67,92,2
56.979937282695424,66,66,2
57.02131338157356,65,80,0
57.06582062091921,83,71,2
57.0813105226907,51,90,2
57.10938239304985,56,91,2
57.14490508470978,69,79,2
57.158470414729614,65,76,2
57.19585740649521,59,95,2
57.240023621522596,56,62,2
57.24160654828067,53,60,2
57.25360321304643,66,86,2
57.258673197797,54,99,2
57.27680078282446,63,92,2
57.29577951308232,67,80,1
57.35613502777361,52,79,2
57.36377338506595,63,73,2
57.389192822745,67,80,0
57.40712732280033,48,95,2
57.411883560476106,84,64,2
57.41974181842761,66,82,2
57.433918520735624,84,74,2
57.43795727014237,64,65,2
57.5004495158881,73,92,2
57.598966007393486,69,78,2
57.603353381756456,55,72,2
57.61408939926611,69,80,1
57.617061036300086,80,88,2
57.70855661519147,49,65,2
57.71081649368584,77,74,2
57.718172982833174,67,75,2
57.71906537187362,65,83,2
57.75216251138071,57,82,2
57.75707226391645,69,80,0
57.76617555070379,71,69,2
57.778602917654325,51,76,2
57.81260673258596,84,89,2
57.84449611222206,51,69,2
57.857098638642576,60,78,2
57.871501795561336,72,88,2
57.920038050794965,60,61,2
57.92913130876089,65,95,2
57.932399285449904,71,80,1
58.003070377668514,71,78,2
58.01375466571628,49,66,2
58.02113360778432,80,85,2
58.03392640286189,66,74,2
58.0358415439398,56,97,2
58.048709062573906,75,62,2
58.055364052402034,82,97,2
58.0573859029942,57,75,2
58.12495170508789,71,80,0
58.14195792644609,48,61,2
58.195368149326036,68,90,2
58.234481572114774,56,87,2
58.250709171633694,72,80,1
58.306430675276594,62,66,2
58.30674841684792,82,89,2
58.32003140786078,52,66,2
58.356922486830335,69,95,2
58.37385846646132,70,88,2
58.42063186817456,54,83,2
58.44117492112154,70,98,2
58.458614823956204,72,63,2
58.492831146259334,72,80,0
58.495703833973344,74,88,2
58.528572204200415,53,64,2
58.53935767144804,81,88,2
58.551919766928705,56,89,2
58.56663052033731,80,88,2
58.569019057817485,60,80,1
58.58572331061495,53,85,2
58.622625962564484,84,78,2
58.628272549482155,78,85,2
58.634989291293124,81,96,2
58.65821084037791,76,86,2
58.69013269295553,61,89,2
58.69347011148326,83,89,2
58.738465645380096,83,62,2
58.76659672285463,62,66,2
58.768752413649764,55,68,2
58.77990056209351,73,72,2
58.856635836220065,83,74,2
58.86071058743077,60,80,0
58.86614228969886,68,64,2
58.887328944001275,62,80,1
58.94169484295881,75,88,2
58.950297727411886,51,94,2
58.97616467499958,63,86,2
59.00580023304581,69,86,2
59.00692358706386,59,67,2
59.016615600738675,63,91,2
59.03162329161972,84,79,2
59.03636801334067,76,69,2
59.11825818398109,65,72,2
59.131330845757276,57,88,2
59.205638830185066,64,80,1
59.22232619612639,65,94,2
59.22859002860221,62,80,0
59.24773617227104,48,67,2
59.26850887218301,68,88,2
59.29361348558406,48,90,2
59.31376223128002,62,89,2
59.31902780455601,51,81,2
59.319712782822535,67,80,2
59.33341935344914,57,71,2
59.33661078055179,70,70,2
59.338287247918984,81,61,2
59.34778587638359,80,61,2
59.36527522705797,81,93,2
59.37287761063183,57,62,2
59.37821576719982,67,75,2
59.40527136917892,48,63,2
59.41542198443277,60,82,2
59.49873102344092,48,79,2
59.52394871636886,65,80,1
59.534511602616824,52,84,2
59.53607743598742,63,89,2
59.54297364330081,62,77,2
59.57639259923984,75,70,2
59.59646946977366,64,80,0
59.61780268097246,78,88,2
59.64363159363937,70,76,2
59.645028020570464,64,85,2
59.64524749083045,81,82,2
59.6541264137587,60,79,2
59.686426052494944,61,61,2
59.72352230395926,58,83,2
59.73665963425414,75,90,2
59.76289625037611,79,86,2
59.76856514025163,82,61,2
59.789471656973625,78,73,2
59.79325014484573,64,63,2
59.81191573775801,56,72,2
59.8262108764522,57,95,2
59.84225860255265,67,80,1
59.845452368612136,55,94,2
59.864171369941154,68,67,2
59.88042390149365,60,61,2
59.88631465891063,52,65,2
59.89456809736565,53,90,2
59.910155813245154,77,69,2
59.916790282534066,78,80,2
59.91996904297749,64,69,2
59.9643489109451,65,80,0
59.964917911094716,58,82,2
59.967413215831705,67,62,2
