onset_time_ms,pitch,velocity,voice_id
0.0,67,64,0
0.0,63,64,1
100.0,85,64,0
100.0,45,64,1
200.0,95,64,0
200.0,86,64,1
300.0,68,64,0
300.0,70,64,1
400.0,96,64,1
400.0,37,64,0
500.0,64,64,1
500.0,68,64,0
600.0,89,64,1
600.0,68,64,0
700.0,50,64,1
700.0,76,64,0
800.0,68,64,1
800.0,48,64,0
900.0,42,64,1
900.0,65,64,0
1000.0,68,64,0
1000.0,47,64,1
1100.0,84,64,1
1100.0,48,64,0
1200.0,87,64,0
1200.0,65,64,1
1300.0,61,64,0
1300.0,56,64,1
1400.0,57,64,0
1400.0,66,64,1
1500.0,93,64,1
1500.0,74,64,0
1600.0,96,64,1
1600.0,37,64,0
1700.0,73,64,0
1700.0,59,64,1
1800.0,55,64,1
1800.0,74,64,0
1900.0,72,64,1
1900.0,61,64,0
2000.0,39,64,1
2000.0,81,64,0
2100.0,93,64,0
2100.0,63,64,1
2200.0,79,64,1
2200.0,85,64,0
2300.0,50,64,0
2300.0,55,64,1
2400.0,69,64,0
2400.0,95,64,1
2500.0,77,64,0
2500.0,59,64,1
2600.0,90,64,0
2600.0,85,64,1
2700.0,84,64,1
2700.0,79,64,0
2800.0,86,64,1
2800.0,84,64,0
2900.0,67,64,1
2900.0,75,64,0
3000.0,76,64,1
3000.0,46,64,0
3100.0,71,64,1
3100.0,96,64,0
3200.0,93,64,1
3200.0,38,64,0
3300.0,88,64,1
3300.0,94,64,0
3400.0,69,64,1
3400.0,41,64,0
3500.0,44,64,0
3500.0,71,64,1
3600.0,37,64,1
3600.0,41,64,0
3700.0,44,64,0
3700.0,50,64,1
3800.0,74,64,0
3800.0,69,64,1
3900.0,71,64,1
3900.0,66,64,0
4000.0,67,64,0
4000.0,41,64,1
4100.0,76,64,0
4100.0,74,64,1
4200.0,77,64,1
4200.0,85,64,0
4300.0,86,64,1
4300.0,47,64,0
4400.0,43,64,0
4400.0,86,64,1
4500.0,43,64,0
4500.0,93,64,1
4600.0,85,64,0
4600.0,89,64,1
4700.0,63,64,0
4700.0,96,64,1
4800.0,47,64,1
4800.0,55,64,0
4900.0,38,64,1
4900.0,82,64,0
5000.0,80,64,1
5000.0,94,64,0
5100.0,53,64,1
5100.0,42,64,0
5200.0,75,64,1
5200.0,46,64,0
5300.0,56,64,1
5300.0,55,64,0
5400.0,51,64,0
5400.0,50,64,1
5500.0,39,64,0
5500.0,68,64,1
5600.0,70,64,1
5600.0,41,64,0
5700.0,93,64,0
5700.0,61,64,1
5800.0,43,64,1
5800.0,57,64,0
5900.0,61,64,0
5900.0,71,64,1
6000.0,83,64,1
6000.0,38,64,0
6100.0,65,64,1
6100.0,76,64,0
6200.0,58,64,1
6200.0,95,64,0
6300.0,77,64,1
6300.0,77,64,0
6400.0,79,64,1
6400.0,49,64,0
6500.0,49,64,1
6500.0,46,64,0
6600.0,53,64,0
6600.0,49,64,1
6700.0,37,64,1
6700.0,89,64,0
6800.0,47,64,0
6800.0,90,64,1
6900.0,58,64,0
6900.0,72,64,1
7000.0,47,64,0
7000.0,40,64,1
7100.0,73,64,1
7100.0,48,64,0
7200.0,80,64,1
7200.0,60,64,0
7300.0,80,64,0
7300.0,76,64,1
7400.0,89,64,1
7400.0,86,64,0
7500.0,93,64,0
7500.0,95,64,1
7600.0,54,64,0
7600.0,96,64,1
7700.0,82,64,1
7700.0,90,64,0
7800.0,49,64,1
7800.0,81,64,0
7900.0,71,64,0
7900.0,91,64,1
8000.0,80,64,0
8000.0,74,64,1
8100.0,60,64,1
8100.0,43,64,0
8200.0,55,64,1
8200.0,64,64,0
8300.0,90,64,0
8300.0,37,64,1
8400.0,74,64,1
8400.0,88,64,0
8500.0,90,64,0
8500.0,41,64,1
8600.0,52,64,1
8600.0,67,64,0
8700.0,86,64,0
8700.0,94,64,1
8800.0,60,64,1
8800.0,79,64,0
8900.0,92,64,1
8900.0,53,64,0
9000.0,63,64,1
9000.0,41,64,0
9100.0,37,64,1
9100.0,53,64,0
9200.0,54,64,0
9200.0,70,64,1
9300.0,57,64,0
9300.0,72,64,1
9400.0,72,64,0
9400.0,40,64,1
9500.0,67,64,0
9500.0,36,64,1
9600.0,91,64,0
9600.0,75,64,1
9700.0,47,64,1
9700.0,76,64,0
9800.0,94,64,0
9800.0,91,64,1
9900.0,71,64,1
9900.0,38,64,0
10000.0,81,64,0
10000.0,76,64,1
10077.628185325531,56,64,1
10132.181289057544,37,64,1
10225.03052272122,44,64,0
10266.754008341719,62,64,1
10305.268068829457,38,64,0
10340.13510636837,92,64,1
10368.730746004343,56,64,0
10422.54763213214,61,64,0
10427.515189591606,44,64,1
10481.84952913737,43,64,0
10483.471505838015,36,64,1
10533.600873796704,46,64,1
10568.524446408848,83,64,0
10634.40438379756,38,64,1
10639.073700399107,37,64,0
10720.602765259073,87,64,1
10777.344194605215,41,64,0
10815.616077033448,58,64,1
10855.528054139495,63,64,0
10919.826515988287,88,64,0
10944.547898927196,61,64,1
11017.83146181696,64,64,0
11046.556471536287,39,64,1
11106.161337315913,53,64,1
11129.172592164929,61,64,0
11178.5360819571,90,64,1
11188.31118954922,60,64,0
11247.484453055758,47,64,0
11299.352489456232,40,64,0
11346.701217332306,41,64,1
11416.018995495724,69,64,0
11470.172995595813,70,64,1
11520.52212175308,83,64,0
11560.841323698596,57,64,1
11602.704830234845,72,64,0
11625.603183922016,78,64,1
11693.584326863165,50,64,1
11745.654454768652,50,64,0
11809.414919187057,57,64,1
11877.56437082712,79,64,0
11954.663878857164,95,64,1
11971.580921508916,71,64,0
12060.313336399618,72,64,1
12122.931452835366,50,64,0
12184.455045353894,78,64,0
12193.226358895212,87,64,1
12240.389696423408,83,64,0
12306.108086709814,58,64,0
12315.988463833712,77,64,1
12359.047142046311,41,64,0
12374.096999690657,47,64,1
12446.922844188008,81,64,0
12451.674590288727,82,64,1
12509.976363246877,84,64,1
12573.385735575512,77,64,1
12634.841904458106,85,64,0
12686.848825278576,79,64,0
12725.112825067734,73,64,1
12743.360519277732,94,64,0
12807.130312700316,53,64,1
12823.452681692828,78,64,0
12895.454726778944,80,64,1
12955.28260517523,70,64,1
13009.263114386627,80,64,0
13024.000683023152,65,64,1
13078.264394939466,56,64,0
13087.084908748457,59,64,1
13148.630224216207,77,64,1
13163.650520128032,58,64,0
13215.773606778084,78,64,0
13249.43036257941,65,64,1
13273.802189344906,90,64,0
13314.275508459772,49,64,1
13414.261229623566,41,64,1
13467.272865928962,38,64,1
13524.91727940151,51,64,1
13539.539743571575,51,64,0
13590.964764036053,42,64,1
13686.411521181488,87,64,1
13757.329958962571,82,64,0
13792.737616126222,49,64,1
13807.577570111263,88,64,0
13871.971717600081,44,64,1
13951.482380246374,50,64,1
14009.209610045204,95,64,0
14065.943821189428,56,64,1
14110.170090723628,50,64,0
14116.741200246692,70,64,1
14187.59961832225,37,64,1
14261.386819072453,60,64,0
14322.981672675813,62,64,1
14341.711432527054,71,64,0
14419.200263757626,37,64,1
14427.953235961942,46,64,0
14489.76641029927,70,64,1
14511.507510937385,86,64,0
14616.467772790664,50,64,0
14657.737301879164,53,64,1
14673.988645501136,39,64,0
14725.510244547135,56,64,0
14781.7945342526,49,64,1
14793.913648947824,48,64,0
14847.181661314009,55,64,1
14904.898566324866,57,64,0
14949.00437464965,53,64,1
14966.171719046697,54,64,0
15044.29055374264,45,64,1
15072.127639513295,69,64,0
15119.930925892875,60,64,1
15192.791699598,37,64,1
15263.837934919466,60,64,1
15297.309159024757,49,64,0
15352.239478710846,96,64,0
15361.84429080462,96,64,1
15441.050852793715,89,64,1
15458.068432906073,39,64,0
15537.395324893932,83,64,0
15580.199694257466,68,64,1
15685.572652029849,71,64,1
15688.696906003608,88,64,0
15739.197509694399,66,64,1
15748.44596095654,87,64,0
15840.30344195224,49,64,1
15857.430454775558,81,64,0
15906.117632566436,36,64,1
15998.47399785544,62,64,0
16001.04164572794,81,64,1
16108.033978372909,51,64,1
16171.15608904319,89,64,1
16193.145617224454,64,64,0
16251.675372564305,81,64,1
16300.627428973685,82,64,0
16312.231481412931,96,64,1
16364.91939664005,87,64,1
16385.003059604263,63,64,0
16438.698468334704,38,64,1
16483.09980238181,70,64,0
16511.243375430127,70,64,1
16634.691447850204,43,64,0
16726.960902453655,51,64,0
16778.50381834035,77,64,0
16831.21096812613,76,64,1
16910.772308504584,41,64,1
16962.149093705306,71,64,0
16981.06328325979,60,64,1
17070.631970505863,65,64,0
17074.494892065046,48,64,1
17129.142746266323,88,64,1
17177.06184769984,53,64,0
17239.20844760074,37,64,0
17342.213304273428,69,64,1
17342.985297284144,84,64,0
17418.017875528938,48,64,0
17442.60072763624,43,64,1
17520.6854323133,39,64,0
17562.89249403678,56,64,1
17576.321085752435,61,64,0
17622.237772695276,69,64,1
17679.94570167573,60,64,0
17698.575179622927,39,64,1
17776.043897587937,60,64,1
17912.288143870956,50,64,1
17962.3500161249,39,64,1
18030.24473679532,80,64,1
18102.03184716095,65,64,0
18154.502497105666,46,64,0
18279.03649123774,95,64,1
18361.2435378443,47,64,1
18393.495652733778,42,64,0
18435.349476368563,67,64,1
18469.61593685651,66,64,0
18491.73143009345,67,64,1
18621.917609907297,79,64,0
18724.531967222647,63,64,1
18748.16911275401,45,64,0
18775.5434472967,48,64,1
18840.02186805034,74,64,0
18892.35778469139,66,64,1
18957.078207342973,48,64,0
19015.538115722007,49,64,1
19079.501112051246,55,64,1
19112.47666239089,66,64,0
19185.170930422617,53,64,1
19188.364166323325,42,64,0
19240.047665975497,64,64,1
19258.167127562876,91,64,0
19304.90380857267,95,64,1
19363.236943421492,84,64,0
19432.439148161207,41,64,1
19495.709835570047,77,64,0
19582.44708288957,67,64,1
19617.544004011073,96,64,0
19679.33383580475,64,64,1
19747.47227783346,77,64,0
19764.679757511116,78,64,1
19823.356016677022,37,64,1
19826.070402670557,91,64,0
19876.615435053343,95,64,1
19932.87370381467,58,64,1
19961.212307989852,71,64,0
19995.770631938423,54,64,1
20000.0,66,64,0
20000.0,95,64,1
20100.0,86,64,0
20100.0,53,64,1
20200.0,40,64,0
20200.0,75,64,1
20300.0,70,64,1
20300.0,54,64,0
20400.0,76,64,1
20400.0,69,64,0
20500.0,64,64,1
20500.0,45,64,0
20600.0,87,64,1
20600.0,60,64,0
20700.0,37,64,0
20700.0,64,64,1
20800.0,46,64,0
20800.0,73,64,1
20900.0,85,64,0
20900.0,77,64,1
21000.0,96,64,0
21000.0,56,64,1
21100.0,66,64,0
21100.0,77,64,1
21200.0,48,64,1
21200.0,91,64,0
21300.0,84,64,1
21300.0,50,64,0
21400.0,44,64,0
21400.0,76,64,1
21500.0,52,64,1
21500.0,58,64,0
21600.0,54,64,0
21600.0,91,64,1
21700.0,44,64,0
21700.0,44,64,1
21800.0,70,64,0
21800.0,76,64,1
21900.0,56,64,0
21900.0,36,64,1
22000.0,44,64,0
22000.0,37,64,1
22100.0,95,64,1
22100.0,63,64,0
22200.0,83,64,1
22200.0,81,64,0
22300.0,64,64,1
22300.0,86,64,0
22400.0,42,64,0
22400.0,68,64,1
22500.0,45,64,1
22500.0,51,64,0
22600.0,51,64,0
22600.0,85,64,1
22700.0,93,64,1
22700.0,95,64,0
22800.0,95,64,1
22800.0,68,64,0
22900.0,39,64,0
22900.0,75,64,1
23000.0,39,64,0
23000.0,56,64,1
23100.0,63,64,1
23100.0,74,64,0
23200.0,46,64,1
23200.0,75,64,0
23300.0,52,64,0
23300.0,90,64,1
23400.0,72,64,0
23400.0,69,64,1
23500.0,43,64,1
23500.0,74,64,0
23600.0,94,64,1
23600.0,95,64,0
23700.0,87,64,0
23700.0,57,64,1
23800.0,43,64,1
23800.0,64,64,0
23900.0,87,64,0
23900.0,84,64,1
24000.0,71,64,0
24000.0,50,64,1
24100.0,95,64,0
24100.0,52,64,1
24200.0,95,64,1
24200.0,73,64,0
24300.0,58,64,1
24300.0,74,64,0
24400.0,59,64,1
24400.0,85,64,0
24500.0,72,64,0
24500.0,80,64,1
24600.0,54,64,1
24600.0,87,64,0
24700.0,96,64,0
24700.0,40,64,1
24800.0,67,64,1
24800.0,70,64,0
24900.0,79,64,1
24900.0,42,64,0
25000.0,36,64,1
25000.0,62,64,0
25100.0,63,64,0
25100.0,58,64,1
25200.0,72,64,1
25200.0,57,64,0
25300.0,43,64,1
25300.0,49,64,0
25400.0,42,64,0
25400.0,48,64,1
25500.0,43,64,1
25500.0,72,64,0
25600.0,92,64,1
25600.0,96,64,0
25700.0,58,64,1
25700.0,57,64,0
25800.0,40,64,0
25800.0,78,64,1
25900.0,36,64,1
25900.0,90,64,0
26000.0,37,64,0
26000.0,80,64,1
26100.0,62,64,0
26100.0,86,64,1
26200.0,56,64,0
26200.0,59,64,1
26300.0,89,64,0
26300.0,70,64,1
26400.0,59,64,1
26400.0,73,64,0
26500.0,52,64,1
26500.0,50,64,0
26600.0,56,64,0
26600.0,40,64,1
26700.0,55,64,1
26700.0,45,64,0
26800.0,58,64,0
26800.0,56,64,1
26900.0,75,64,1
26900.0,93,64,0
27000.0,91,64,0
27000.0,93,64,1
27100.0,74,64,0
27100.0,66,64,1
27200.0,40,64,0
27200.0,81,64,1
27300.0,36,64,0
27300.0,71,64,1
27400.0,48,64,0
27400.0,46,64,1
27500.0,56,64,0
27500.0,87,64,1
27600.0,61,64,0
27600.0,50,64,1
27700.0,54,64,1
27700.0,85,64,0
27800.0,42,64,1
27800.0,80,64,0
27900.0,86,64,1
27900.0,56,64,0
28000.0,88,64,0
28000.0,63,64,1
28100.0,53,64,0
28100.0,86,64,1
28200.0,72,64,0
28200.0,78,64,1
28300.0,93,64,1
28300.0,80,64,0
28400.0,40,64,1
28400.0,67,64,0
28500.0,40,64,1
28500.0,71,64,0
28600.0,65,64,1
28600.0,52,64,0
28700.0,70,64,0
28700.0,89,64,1
28800.0,67,64,1
28800.0,84,64,0
28900.0,43,64,1
28900.0,95,64,0
29000.0,46,64,0
29000.0,45,64,1
29100.0,73,64,1
29100.0,56,64,0
29200.0,82,64,1
29200.0,87,64,0
29300.0,90,64,0
29300.0,67,64,1
29400.0,83,64,1
29400.0,88,64,0
29500.0,63,64,1
29500.0,61,64,0
29600.0,39,64,0
29600.0,52,64,1
29700.0,66,64,1
29700.0,69,64,0
29800.0,43,64,1
29800.0,87,64,0
29900.0,75,64,1
29900.0,83,64,0
30000.0,60,64,0
30000.0,66,64,1
30100.0,44,64,0
30100.0,50,64,1
30200.0,37,64,0
30200.0,86,64,1
30300.0,50,64,0
30300.0,58,64,1
30400.0,85,64,0
30400.0,59,64,1
30500.0,38,64,0
30500.0,79,64,1
30600.0,84,64,0
30600.0,48,64,1
30700.0,71,64,0
30700.0,57,64,1
30800.0,78,64,1
30800.0,39,64,0
30900.0,49,64,0
30900.0,72,64,1
31000.0,96,64,1
31000.0,76,64,0
31100.0,76,64,0
31100.0,68,64,1
31200.0,60,64,0
31200.0,91,64,1
31300.0,93,64,0
31300.0,38,64,1
31400.0,89,64,1
31400.0,90,64,0
31500.0,54,64,1
31500.0,85,64,0
31600.0,58,64,1
31600.0,45,64,0
31700.0,56,64,0
31700.0,64,64,1
31800.0,65,64,1
31800.0,71,64,0
31900.0,47,64,0
31900.0,74,64,1
32000.0,79,64,1
32000.0,62,64,0
32100.0,75,64,0
32100.0,82,64,1
32200.0,37,64,0
32200.0,60,64,1
32300.0,89,64,0
32300.0,72,64,1
32400.0,82,64,1
32400.0,48,64,0
32500.0,43,64,1
32500.0,88,64,0
32600.0,77,64,1
32600.0,67,64,0
32700.0,93,64,1
32700.0,66,64,0
32800.0,51,64,1
32800.0,51,64,0
32900.0,43,64,1
32900.0,67,64,0
33000.0,67,64,0
33000.0,36,64,1
33100.0,95,64,0
33100.0,79,64,1
33200.0,69,64,0
33200.0,40,64,1
33300.0,38,64,1
33300.0,46,64,0
33400.0,45,64,0
33400.0,36,64,1
33500.0,39,64,1
33500.0,50,64,0
33600.0,52,64,0
33600.0,75,64,1
33700.0,75,64,0
33700.0,70,64,1
33800.0,67,64,1
33800.0,53,64,0
33900.0,90,64,0
33900.0,77,64,1
34000.0,44,64,0
34000.0,69,64,1
34100.0,60,64,0
34100.0,78,64,1
34200.0,75,64,0
34200.0,60,64,1
34300.0,94,64,0
34300.0,45,64,1
34400.0,56,64,1
34400.0,49,64,0
34500.0,81,64,1
34500.0,95,64,0
34600.0,93,64,0
34600.0,74,64,1
34700.0,60,64,0
34700.0,62,64,1
34800.0,85,64,0
34800.0,62,64,1
34900.0,57,64,0
34900.0,37,64,1
35000.0,76,64,1
35000.0,87,64,0
35100.0,83,64,1
35100.0,65,64,0
35200.0,48,64,1
35200.0,55,64,0
35300.0,44,64,1
35300.0,56,64,0
35400.0,79,64,0
35400.0,87,64,1
35500.0,67,64,0
35500.0,71,64,1
35600.0,86,64,0
35600.0,57,64,1
35700.0,77,64,1
35700.0,81,64,0
35800.0,61,64,1
35800.0,84,64,0
35900.0,93,64,1
35900.0,91,64,0
36000.0,89,64,1
36000.0,56,64,0
36100.0,47,64,1
36100.0,70,64,0
36200.0,52,64,1
36200.0,93,64,0
36300.0,67,64,0
36300.0,49,64,1
36400.0,65,64,0
36400.0,49,64,1
36500.0,92,64,1
36500.0,90,64,0
36600.0,74,64,0
36600.0,69,64,1
36700.0,88,64,1
36700.0,84,64,0
36800.0,47,64,0
36800.0,92,64,1
36900.0,76,64,0
36900.0,55,64,1
37000.0,46,64,1
37000.0,82,64,0
37100.0,53,64,0
37100.0,51,64,1
37200.0,56,64,0
37200.0,86,64,1
37300.0,66,64,1
37300.0,48,64,0
37400.0,90,64,1
37400.0,56,64,0
37500.0,43,64,0
37500.0,41,64,1
37600.0,91,64,1
37600.0,81,64,0
37700.0,54,64,1
37700.0,75,64,0
37800.0,72,64,1
37800.0,81,64,0
37900.0,42,64,0
37900.0,93,64,1
38000.0,39,64,1
38000.0,58,64,0
38100.0,82,64,1
38100.0,79,64,0
38200.0,96,64,1
38200.0,67,64,0
38300.0,46,64,0
38300.0,39,64,1
38400.0,57,64,0
38400.0,55,64,1
38500.0,57,64,0
38500.0,45,64,1
38600.0,78,64,0
38600.0,59,64,1
38700.0,60,64,0
38700.0,89,64,1
38800.0,57,64,0
38800.0,70,64,1
38900.0,63,64,0
38900.0,61,64,1
39000.0,72,64,1
39000.0,64,64,0
39100.0,73,64,1
39100.0,48,64,0
39200.0,53,64,0
39200.0,56,64,1
39300.0,37,64,0
39300.0,89,64,1
39400.0,75,64,1
39400.0,64,64,0
39500.0,74,64,1
39500.0,56,64,0
39600.0,50,64,0
39600.0,56,64,1
39700.0,45,64,1
39700.0,87,64,0
39800.0,73,64,1
39800.0,62,64,0
39900.0,81,64,1
39900.0,85,64,0
40000.0,54,64,0
40000.0,88,64,1
40071.963480586484,86,64,0
40075.32353853636,43,64,1
40130.22667522538,70,64,1
40201.00535499203,60,64,0
40209.313420159706,54,64,1
40255.88548044152,56,64,0
40270.19692761232,65,64,1
40330.531121499196,49,64,1
40350.246629910405,47,64,0
40385.4689127043,94,64,1
40433.03658800509,92,64,0
40457.523861770846,55,64,1
40534.44318782882,96,64,0
40578.357805245614,84,64,1
40587.795796754355,76,64,0
40644.53651237718,60,64,1
40681.16889510876,68,64,0
40713.26021164512,75,64,1
40772.38691113891,85,64,0
40814.71564110307,59,64,1
40863.51100579394,88,64,0
40875.613542858395,49,64,1
40959.76341242931,39,64,0
41039.24443944102,61,64,1
41066.186265320495,77,64,0
41125.96274830682,73,64,1
41197.921230826294,92,64,0
41205.63715732037,58,64,1
41263.6444901326,42,64,0
41296.43909102224,57,64,1
41355.51724205498,83,64,1
41400.80707457317,57,64,0
41453.044937773804,92,64,1
41485.290305386145,90,64,0
41525.60212668372,54,64,1
41539.299764759315,68,64,0
41592.31651606307,52,64,0
41662.65769148108,59,64,0
41689.3439799234,81,64,1
41748.59148273776,86,64,1
41789.48960095093,96,64,0
41833.95897120119,38,64,1
41900.98507015197,96,64,0
41929.53814131011,77,64,1
41981.2358190539,54,64,1
42028.68876997565,69,64,0
42053.83953524223,44,64,1
42115.10356163641,63,64,0
42169.79660478039,63,64,1
42194.1122572313,93,64,0
42252.08857644265,78,64,0
42305.64149948212,55,64,1
42321.97776720927,76,64,0
42374.424340226185,80,64,1
42400.437538070226,74,64,0
42455.07623165035,57,64,0
42504.545784976144,42,64,1
42517.53854274938,84,64,0
42613.13173177232,52,64,0
42726.26675938171,49,64,1
42729.65827711781,69,64,0
42873.46823293995,44,64,1
42929.72621608365,94,64,1
43047.028066142855,95,64,1
43099.93192114952,41,64,0
43116.28669856816,90,64,1
43285.169701369734,81,64,0
43386.60981685988,41,64,0
43389.19317503448,92,64,1
43463.95388235731,69,64,0
43472.40745883715,95,64,1
43528.93760868584,54,64,1
43564.5083221463,36,64,0
43643.5205651429,82,64,1
43691.515953883456,45,64,0
43713.02559251278,87,64,1
43747.81317710776,56,64,0
43824.18675466625,40,64,0
43965.75408025815,37,64,0
44039.965938772395,57,64,0
44054.80262878116,49,64,1
44132.3826235829,83,64,0
44226.691237709485,92,64,0
44286.887474607,37,64,0
44299.86286020079,91,64,1
44359.376779334445,45,64,0
44403.23802444012,73,64,1
44429.73845953888,69,64,0
44460.19115460333,88,64,1
44481.06575729961,51,64,0
44532.29021686314,83,64,0
44568.246559110274,96,64,1
44623.128881202596,71,64,1
44671.3896974701,86,64,0
44674.61907701034,75,64,1
44737.3360077916,96,64,0
44811.187617352916,52,64,1
44823.834737477526,74,64,0
44872.95810025082,65,64,1
44891.577536981524,57,64,0
44946.78149422657,44,64,1
45082.81733878945,47,64,0
45147.825099699476,59,64,0
45178.2316898211,68,64,1
45225.90095052041,82,64,0
45248.76867719027,91,64,1
45316.35232103998,87,64,1
45378.97327217619,75,64,0
45491.531112792734,60,64,1
45521.2102657253,73,64,0
45547.39986878519,49,64,1
45581.50624135983,95,64,0
45668.66876427307,46,64,1
45712.64337022227,94,64,0
45793.285077546396,45,64,0
45876.267687424086,70,64,0
45933.43119026898,86,64,0
45940.085139200906,88,64,1
45987.632972372645,84,64,0
46102.719477445215,67,64,0
46105.86663498471,70,64,1
46187.02419817506,42,64,0
46208.59658486623,76,64,1
46265.73472338211,56,64,0
46277.44489874732,94,64,1
46342.1179678527,49,64,1
46381.11040344786,55,64,0
46477.65140090575,65,64,1
46503.628138396234,61,64,0
46562.28085993425,39,64,0
46633.59043020135,76,64,1
46659.39016058009,81,64,0
46716.661920556486,87,64,0
46720.85825518783,39,64,1
46784.86643824051,94,64,1
46836.252414947856,57,64,0
46840.85875184692,39,64,1
46895.41955120073,63,64,1
46939.74711997865,50,64,0
47008.90336425051,43,64,1
47086.14995922961,37,64,1
47146.62875927667,91,64,0
47200.201304652095,75,64,0
47253.13865599334,56,64,0
47254.03364577401,76,64,1
47319.71597067308,50,64,0
47371.324156696806,96,64,1
47384.8866072409,57,64,0
47431.938072434394,81,64,1
47449.06970205568,87,64,0
47529.50514446014,57,64,1
47608.09637234973,76,64,1
47617.4283257665,63,64,0
47681.78218519468,49,64,0
47701.145055067056,91,64,1
47747.65144397739,62,64,0
47818.12878704538,90,64,1
47868.88205665725,96,64,0
47948.7502616005,76,64,0
47950.17415334043,51,64,1
48073.71458151342,75,64,0
48092.98499747333,64,64,1
48127.094603451515,93,64,0
48157.63479743069,84,64,1
48209.21529604911,83,64,1
48210.5242780567,63,64,0
48262.233854303595,61,64,0
48315.46895187913,84,64,0
48326.43353421168,65,64,1
48382.05523716223,47,64,1
48450.9661900984,70,64,1
48483.9252077864,37,64,0
48501.15741199706,46,64,1
48541.42249773872,60,64,0
48608.390665619525,81,64,1
48629.43181179183,91,64,0
48667.53467194605,85,64,1
48705.906382887755,38,64,0
48770.78616074534,56,64,1
48777.241585667485,43,64,0
48942.28758251793,79,64,0
48993.39083498568,68,64,0
49060.618540248484,56,64,1
49097.89175402731,77,64,0
49114.39087672967,40,64,1
49168.40140513177,83,64,1
49239.20598052349,55,64,1
49313.26950300073,87,64,0
49389.84618461056,72,64,1
49404.33764601477,70,64,0
49451.98352367057,38,64,1
49524.32740470012,79,64,1
49577.87564935877,68,64,1
49592.427968660726,41,64,0
49645.11161057551,74,64,0
49699.893178858176,88,64,1
49722.24405319038,87,64,0
49776.13149130367,96,64,1
49787.30997051791,58,64,0
49897.33103959616,44,64,1
49902.92889867157,60,64,0
50000.0,77,64,1
50000.0,96,64,0
50100.0,78,64,1
50100.0,44,64,0
50200.0,89,64,1
50200.0,39,64,0
50300.0,70,64,0
50300.0,76,64,1
50400.0,44,64,1
50400.0,52,64,0
50500.0,69,64,0
50500.0,59,64,1
50600.0,72,64,1
50600.0,59,64,0
50700.0,67,64,0
50700.0,84,64,1
50800.0,36,64,0
50800.0,76,64,1
50900.0,43,64,0
50900.0,52,64,1
51000.0,59,64,1
51000.0,80,64,0
51100.0,56,64,1
51100.0,58,64,0
51200.0,86,64,1
51200.0,82,64,0
51300.0,94,64,1
51300.0,75,64,0
51400.0,47,64,0
51400.0,74,64,1
51500.0,89,64,0
51500.0,90,64,1
51600.0,47,64,0
51600.0,76,64,1
51700.0,81,64,0
51700.0,74,64,1
51800.0,82,64,0
51800.0,48,64,1
51900.0,50,64,0
51900.0,46,64,1
52000.0,81,64,1
52000.0,76,64,0
52100.0,54,64,1
52100.0,54,64,0
52200.0,46,64,1
52200.0,61,64,0
52300.0,87,64,0
52300.0,48,64,1
52400.0,81,64,1
52400.0,64,64,0
52500.0,57,64,0
52500.0,80,64,1
52600.0,36,64,1
52600.0,75,64,0
52700.0,56,64,0
52700.0,75,64,1
52800.0,86,64,0
52800.0,79,64,1
52900.0,73,64,0
52900.0,54,64,1
53000.0,55,64,0
53000.0,47,64,1
53100.0,92,64,0
53100.0,43,64,1
53200.0,64,64,0
53200.0,43,64,1
53300.0,86,64,0
53300.0,96,64,1
53400.0,88,64,1
53400.0,39,64,0
53500.0,90,64,0
53500.0,80,64,1
53600.0,42,64,0
53600.0,47,64,1
53700.0,96,64,1
53700.0,63,64,0
53800.0,63,64,0
53800.0,83,64,1
53900.0,68,64,1
53900.0,39,64,0
54000.0,80,64,1
54000.0,57,64,0
54100.0,61,64,1
54100.0,47,64,0
54200.0,74,64,1
54200.0,80,64,0
54300.0,38,64,0
54300.0,63,64,1
54400.0,93,64,1
54400.0,57,64,0
54500.0,79,64,0
54500.0,40,64,1
54600.0,37,64,0
54600.0,43,64,1
54700.0,60,64,1
54700.0,59,64,0
54800.0,69,64,0
54800.0,62,64,1
54900.0,62,64,0
54900.0,81,64,1
55000.0,58,64,1
55000.0,90,64,0
55100.0,65,64,1
55100.0,76,64,0
55200.0,36,64,0
55200.0,80,64,1
55300.0,82,64,1
55300.0,43,64,0
55400.0,58,64,1
55400.0,58,64,0
55500.0,84,64,1
55500.0,73,64,0
55600.0,82,64,1
55600.0,41,64,0
55700.0,55,64,1
55700.0,57,64,0
55800.0,60,64,0
55800.0,53,64,1
55900.0,53,64,1
55900.0,53,64,0
56000.0,52,64,0
56000.0,37,64,1
56100.0,39,64,1
56100.0,96,64,0
56200.0,65,64,1
56200.0,47,64,0
56300.0,68,64,1
56300.0,41,64,0
56400.0,71,64,1
56400.0,61,64,0
56500.0,62,64,0
56500.0,53,64,1
56600.0,43,64,0
56600.0,72,64,1
56700.0,54,64,0
56700.0,54,64,1
56800.0,95,64,0
56800.0,82,64,1
56900.0,77,64,0
56900.0,63,64,1
57000.0,75,64,1
57000.0,36,64,0
57100.0,92,64,0
57100.0,55,64,1
57200.0,64,64,0
57200.0,84,64,1
57300.0,80,64,0
57300.0,68,64,1
57400.0,47,64,1
57400.0,84,64,0
57500.0,70,64,0
57500.0,93,64,1
57600.0,86,64,1
57600.0,75,64,0
57700.0,50,64,1
57700.0,49,64,0
57800.0,76,64,1
57800.0,70,64,0
57900.0,74,64,1
57900.0,83,64,0
58000.0,80,64,0
58000.0,37,64,1
58100.0,55,64,0
58100.0,64,64,1
58200.0,91,64,0
58200.0,76,64,1
58300.0,84,64,0
58300.0,45,64,1
58400.0,37,64,1
58400.0,48,64,0
58500.0,86,64,1
58500.0,96,64,0
58600.0,46,64,1
58600.0,73,64,0
58700.0,48,64,1
58700.0,84,64,0
58800.0,81,64,0
58800.0,45,64,1
58900.0,49,64,1
58900.0,84,64,0
59000.0,53,64,1
59000.0,43,64,0
59100.0,86,64,1
59100.0,78,64,0
59200.0,55,64,0
59200.0,89,64,1
59300.0,44,64,1
59300.0,95,64,0
59400.0,92,64,1
59400.0,68,64,0
59500.0,61,64,0
59500.0,74,64,1
59600.0,63,64,1
59600.0,74,64,0
59700.0,38,64,1
59700.0,56,64,0
59800.0,55,64,1
59800.0,88,64,0
59900.0,41,64,1
59900.0,84,64,0
60000.0,62,64,1
60000.0,93,64,0
60056.4234068513,54,64,0
60057.218647779766,60,64,1
60125.00924134525,91,64,1
60197.22334746572,90,64,1
60222.79461265039,72,64,0
60276.232320739895,74,64,0
60328.81703560505,45,64,1
60364.407313034535,56,64,0
60395.15619306388,82,64,1
60422.07286354491,43,64,0
60456.98694762569,58,64,1
60472.661647175635,63,64,0
60550.07368145782,40,64,0
60617.554442417335,52,64,0
60664.83839107319,56,64,1
60700.83109112849,72,64,0
60715.28353095681,56,64,1
60793.87387898311,71,64,0
60846.110102295905,89,64,0
60902.67270449014,54,64,0
60993.56769647655,62,64,0
61064.58399728611,88,64,0
61071.72468065201,78,64,1
61178.20217337385,48,64,1
61179.89783921418,69,64,0
61282.717400276764,46,64,0
61316.35182419577,72,64,1
61383.80271212102,68,64,1
61426.129245251635,89,64,0
61434.523648607916,59,64,1
61535.09208845677,80,64,0
61551.46929252965,79,64,1
61613.19198888697,82,64,0
61691.30123935432,46,64,1
61719.07664094225,47,64,0
61785.18211694126,89,64,0
61808.74656953172,52,64,1
61853.46887433531,56,64,0
61866.45370361723,39,64,1
61981.260215127826,89,64,0
61986.45874979744,82,64,1
62060.82762157361,46,64,0
62109.708917183845,60,64,1
62190.89623308708,74,64,0
62213.435229550436,65,64,1
62327.313604798175,63,64,0
62336.081715835055,44,64,1
62474.75614641107,40,64,0
62479.596349568994,56,64,1
62577.14099078464,55,64,1
62631.779919404384,54,64,1
62648.98262396073,52,64,0
62715.21511859376,54,64,1
62727.17506749572,91,64,0
62769.256608422475,47,64,1
62796.37493870288,55,64,0
62845.43046016374,72,64,1
62890.012410195384,76,64,0
62921.567483816274,77,64,1
62963.207319344016,81,64,0
62974.98195284495,52,64,1
63046.43045270992,72,64,1
63059.15630739778,93,64,0
63102.313247953825,89,64,1
63170.29470101625,47,64,0
63234.8875334576,83,64,1
63278.59725454996,41,64,0
63352.061679762,52,64,0
63411.18937105224,86,64,0
63432.4140327107,74,64,1
63486.16726439732,63,64,1
63489.341771732135,54,64,0
63547.03396648144,61,64,0
63691.35007610075,76,64,1
63707.44183850829,83,64,0
63778.31765357019,70,64,1
63778.664867316984,79,64,0
63837.053842493246,79,64,0
63846.12038738412,82,64,1
63888.34270021308,87,64,0
63900.1192186211,83,64,1
63984.839043459666,53,64,1
63990.24053811411,67,64,0
64090.89470726395,41,64,0
64113.958287969544,49,64,1
64161.71627061949,90,64,0
64215.4369271083,93,64,0
64225.352180858725,70,64,1
64277.928742333526,79,64,1
64291.78712451389,71,64,0
64331.71353353644,76,64,1
64360.4286107903,73,64,0
64407.49483009724,95,64,1
64466.95243694824,46,64,0
64474.99331056624,42,64,1
64538.21661515287,76,64,1
64563.49464924853,68,64,0
64604.71162407565,48,64,1
64636.16918357648,59,64,0
64698.45734103769,58,64,0
64736.06187563349,53,64,1
64918.47650536066,72,64,1
64969.749856505914,50,64,0
64994.44482956954,48,64,1
65050.00682012918,62,64,0
65158.28839205515,46,64,0
65162.726932981685,71,64,1
65215.86169615988,92,64,0
65232.120156184545,66,64,1
65299.09840027333,86,64,0
65314.47505048402,37,64,1
65350.494548394476,85,64,0
65377.28609403266,51,64,1
65435.700416868014,52,64,0
65478.43481713124,44,64,1
65651.93641629363,86,64,0
65721.55151553005,44,64,1
65726.17861353337,88,64,0
65778.16744957211,49,64,0
65817.80460682056,73,64,1
65829.7397018084,62,64,0
65889.9484782509,46,64,1
65904.2897699399,53,64,0
65963.00892363246,63,64,0
65992.12875917467,89,64,1
66014.19037748652,86,64,0
66048.68665138728,91,64,1
66134.76352269367,82,64,0
66208.4445731706,57,64,1
66215.43625791636,82,64,0
66282.50761655782,39,64,0
66293.41128228075,68,64,1
66373.24405287605,71,64,1
66447.6784800239,42,64,0
66467.32219090304,80,64,1
66503.8512511988,80,64,0
66566.33484356063,58,64,1
66620.05894292341,80,64,1
66709.93737860584,70,64,0
66727.44127939963,80,64,1
66778.77883538036,83,64,0
66791.29036769421,69,64,1
66903.87026075769,44,64,1
66938.42219215877,44,64,0
67034.60594819301,43,64,0
67040.31929645677,59,64,1
67171.79074375654,43,64,1
67172.24462576183,87,64,0
67261.99478891029,42,64,1
67348.71094791262,71,64,1
67406.41957966084,53,64,1
67429.04410556184,80,64,0
67496.05645380677,52,64,0
67531.07930504272,38,64,1
67596.91146849815,63,64,1
67681.23945704314,41,64,1
67708.44013710476,52,64,0
67747.96235687632,79,64,1
67783.11250358933,84,64,0
67805.14596662168,79,64,1
67857.46078974984,68,64,0
67904.79884529547,56,64,1
67928.26589663136,67,64,0
67957.59203328178,63,64,1
68017.24557147606,43,64,0
68075.61594047165,54,64,0
68076.63652967768,75,64,1
68145.74252630537,89,64,1
68165.95542258622,73,64,0
68195.74926140919,89,64,1
68254.9675119907,38,64,0
68281.53210704941,36,64,1
68333.93135666747,71,64,1
68376.72111890603,94,64,0
68400.09126216295,56,64,1
68511.46638344262,95,64,1
68516.40417129146,40,64,0
68564.70342367556,78,64,1
68595.43451786872,48,64,0
68663.43520411017,82,64,0
68706.12620188629,70,64,1
68728.44553956228,81,64,0
68756.31756374611,48,64,1
68789.26783091779,96,64,0
68820.49037240069,92,64,1
68842.23662880821,66,64,0
68913.19819872906,90,64,0
68938.01821471624,84,64,1
68978.95070406432,51,64,0
69007.02783447223,89,64,1
69062.40110360942,89,64,1
69134.73373698766,45,64,1
69198.6380431858,85,64,0
69200.4962189121,88,64,1
69289.4273856685,67,64,0
69342.98002576895,79,64,1
69360.75751044435,57,64,0
69411.77640303364,82,64,1
69454.18823662549,64,64,0
69511.6826995006,57,64,0
69539.55526092021,88,64,1
69591.03598317274,78,64,0
69690.24229346184,38,64,0
69700.77730630542,45,64,1
69773.80158201081,89,64,0
69779.21923993259,81,64,1
69849.4913167536,45,64,0
69949.58494359064,48,64,1
70000.0,72,64,0
70000.0,75,64,1
70100.0,73,64,0
70100.0,44,64,1
70200.0,90,64,1
70200.0,59,64,0
70300.0,40,64,1
70300.0,37,64,0
70400.0,57,64,0
70400.0,91,64,1
70500.0,67,64,1
70500.0,52,64,0
70600.0,55,64,1
70600.0,71,64,0
70700.0,85,64,1
70700.0,49,64,0
70800.0,46,64,1
70800.0,45,64,0
70900.0,70,64,0
70900.0,50,64,1
71000.0,67,64,1
71000.0,60,64,0
71100.0,63,64,1
71100.0,38,64,0
71200.0,57,64,1
71200.0,82,64,0
71300.0,76,64,1
71300.0,73,64,0
71400.0,52,64,1
71400.0,52,64,0
71500.0,47,64,0
71500.0,94,64,1
71600.0,61,64,1
71600.0,89,64,0
71700.0,79,64,1
71700.0,87,64,0
71800.0,42,64,1
71800.0,59,64,0
71900.0,77,64,1
71900.0,64,64,0
72000.0,92,64,1
72000.0,78,64,0
72100.0,61,64,1
72100.0,60,64,0
72200.0,60,64,1
72200.0,71,64,0
72300.0,93,64,0
72300.0,45,64,1
72400.0,94,64,1
72400.0,95,64,0
72500.0,80,64,1
72500.0,61,64,0
72600.0,73,64,0
72600.0,54,64,1
72700.0,46,64,1
72700.0,36,64,0
72800.0,55,64,0
72800.0,48,64,1
72900.0,88,64,1
72900.0,90,64,0
73000.0,43,64,1
73000.0,63,64,0
73100.0,51,64,0
73100.0,75,64,1
73200.0,39,64,1
73200.0,82,64,0
73300.0,82,64,1
73300.0,52,64,0
73400.0,75,64,0
73400.0,66,64,1
73500.0,63,64,1
73500.0,63,64,0
73600.0,93,64,0
73600.0,46,64,1
73700.0,78,64,1
73700.0,47,64,0
73800.0,62,64,0
73800.0,36,64,1
73900.0,89,64,0
73900.0,84,64,1
74000.0,88,64,0
74000.0,82,64,1
74100.0,87,64,1
74100.0,77,64,0
74200.0,73,64,1
74200.0,94,64,0
74300.0,59,64,1
74300.0,82,64,0
74400.0,65,64,0
74400.0,89,64,1
74500.0,95,64,1
74500.0,76,64,0
74600.0,92,64,1
74600.0,69,64,0
74700.0,82,64,1
74700.0,72,64,0
74800.0,41,64,0
74800.0,66,64,1
74900.0,76,64,1
74900.0,42,64,0
75000.0,67,64,0
75000.0,81,64,1
75100.0,67,64,0
75100.0,85,64,1
75200.0,88,64,0
75200.0,61,64,1
75300.0,60,64,0
75300.0,84,64,1
75400.0,85,64,1
75400.0,68,64,0
75500.0,90,64,0
75500.0,40,64,1
75600.0,55,64,1
75600.0,93,64,0
75700.0,87,64,1
75700.0,42,64,0
75800.0,87,64,0
75800.0,76,64,1
75900.0,92,64,0
75900.0,46,64,1
76000.0,47,64,0
76000.0,91,64,1
76100.0,51,64,0
76100.0,89,64,1
76200.0,68,64,1
76200.0,51,64,0
76300.0,85,64,1
76300.0,78,64,0
76400.0,73,64,1
76400.0,88,64,0
76500.0,71,64,0
76500.0,62,64,1
76600.0,69,64,1
76600.0,48,64,0
76700.0,50,64,1
76700.0,42,64,0
76800.0,67,64,1
76800.0,71,64,0
76900.0,96,64,1
76900.0,82,64,0
77000.0,86,64,0
77000.0,93,64,1
77100.0,56,64,1
77100.0,44,64,0
77200.0,81,64,1
77200.0,67,64,0
77300.0,46,64,0
77300.0,40,64,1
77400.0,43,64,0
77400.0,41,64,1
77500.0,68,64,0
77500.0,73,64,1
77600.0,58,64,0
77600.0,57,64,1
77700.0,60,64,0
77700.0,53,64,1
77800.0,49,64,1
77800.0,91,64,0
77900.0,45,64,1
77900.0,43,64,0
78000.0,80,64,0
78000.0,81,64,1
78100.0,57,64,0
78100.0,48,64,1
78200.0,66,64,1
78200.0,94,64,0
78300.0,39,64,0
78300.0,65,64,1
78400.0,38,64,1
78400.0,75,64,0
78500.0,38,64,0
78500.0,65,64,1
78600.0,41,64,1
78600.0,64,64,0
78700.0,76,64,0
78700.0,64,64,1
78800.0,64,64,0
78800.0,43,64,1
78900.0,79,64,1
78900.0,69,64,0
79000.0,80,64,1
79000.0,69,64,0
79100.0,78,64,1
79100.0,63,64,0
79200.0,79,64,1
79200.0,48,64,0
79300.0,68,64,1
79300.0,50,64,0
79400.0,95,64,0
79400.0,52,64,1
79500.0,83,64,1
79500.0,58,64,0
79600.0,79,64,0
79600.0,46,64,1
79700.0,61,64,0
79700.0,48,64,1
79800.0,85,64,1
79800.0,39,64,0
79900.0,61,64,0
79900.0,46,64,1
