time,pitch,velocity,voice_id,distorted_error,theoretical_error,calibrated_only_error,corrected_error
0.0,42,485,0,17.094428516071442,0.8653514579289208,0.45524248979881066,0.45524248979881066
0.15050607154587606,67,750,1,13.758675511615026,0.883369142883561,0.350144852151818,2.634980541012327
0.19592842002748234,54,264,0,21.229864254621088,1.3898744146363384,0.024476126293138112,4.510539476135056
0.22092842002748234,83,422,1,18.157817815070114,1.0032406413352235,0.34138372282407903,0.34138372282407903
0.2668825277088456,59,180,0,23.23687988246581,1.6262321620851283,0.16590686058365334,0.16590686058365334
0.2918825277088456,61,393,1,18.675851002912857,1.0720475627274961,0.28424086724115893,0.28424086724115893
0.38120400487657935,41,435,0,17.93140535842491,0.9731834787423121,0.36634256138101673,0.36634256138101673
0.40620400487657937,80,210,1,22.47374438650318,1.535280511804793,0.09240832290502432,0.09240832290502432
0.4312040048765794,57,302,0,20.427822629890958,1.2944719051349862,0.10153089934394899,0.10153089934394899
0.45948085821559626,86,108,1,25.39780740991565,1.8961717428022662,0.3867473357884732,7.6712711755302365
0.48501055505557533,51,832,0,13.173438166275142,1.210003611493038,0.00016617689480025177,4.1665169092166
0.5154572894485641,62,534,1,16.32915899972098,0.7789913156664996,0.5239748925247589,0.5239748925247589
0.5622239404810445,56,890,0,12.882065420378396,1.5367187254273773,0.34292981250161336,0.34292981250161336
0.5872239404810445,63,650,1,14.769929397996261,0.7121515675319046,0.5520650510527636,0.5520650510527636
0.7557554576041032,53,826,0,13.20909212781185,1.1805042037704716,0.031024924398548315,2.0627419484248177
0.7807554576041033,61,389,1,18.748723881294115,1.081674127649701,0.27625647958573474,3.7221213602446346
0.8057554576041033,42,477,0,17.224663639745398,0.8815397074857234,0.44201544341371246,0.44201544341371246
0.8399328190108107,94,255,1,21.4277154444259,1.4130419222149193,0.0058442438938266505,5.877713933190254
0.8649328190108108,53,921,0,12.762310585634818,1.7390674753877677,0.5536419144964722,3.3471770839911263
0.9353314840951814,65,615,1,15.199481976983954,0.7065515973585512,0.5689636659172992,0.5689636659172992
0.9748926739942713,57,526,0,16.45016099166041,0.7913464105157031,0.5144407915763649,0.5144407915763649
1.1495330306310825,85,605,1,15.328997478132766,0.7094766574349265,0.56932550009825,0.56932550009825
1.2897877515956615,39,319,0,20.084195392630065,1.2525069389515142,0.13566326791503158,0.13566326791503158
1.354751766709365,74,505,1,16.77521201275667,0.8272031714136041,0.48609289900269914,0.48609289900269914
1.3970019218246459,60,751,0,13.750227575572538,0.88633386630943,0.34688380141600916,0.34688380141600916
1.4220019218246458,75,798,1,13.39010350026637,1.0542893125407016,0.16521688114190525,0.16521688114190525
1.4470019218246457,56,841,0,13.121974574751727,1.255831159692633,0.048519869136232074,4.567298801680719
1.4720019218246456,88,64,1,27.082713677849313,2.0851568736950377,0.5368911880405669,9.30477887824055
1.4970019218246455,60,888,0,12.890596162300039,1.5242773940462584,0.32994394563501395,4.680391394903172
1.5245323749134914,60,697,1,14.253819278053692,0.7623555337596954,0.48715685832889655,0.48715685832889655
1.5495323749134913,46,548,0,16.121282120619362,0.7593062275683682,0.5387736202318028,0.5387736202318028
1.6108871702828436,94,468,1,17.372880469894714,0.9003045538080734,0.4266117907063549,0.4266117907063549
1.6846478965850191,40,539,0,16.25434525412239,0.7716689803483057,0.5295448275273174,0.5295448275273174
1.709647896585019,87,184,1,23.131458072200182,1.61351319121672,0.15559489950112138,0.15559489950112138
1.8045167567464697,47,979,0,12.592812530474395,2.1579779763563067,0.9878303202404126,0.9878303202404126
1.8295167567464696,82,623,1,15.098008480858516,0.7056112100447542,0.5672937321417049,0.5672937321417049
1.8545167567464695,38,733,0,13.907355957836431,0.8368572984038813,0.4017248235292925,0.4017248235292925
1.9052612246927705,86,596,1,15.448059793317537,0.713710064477624,0.5680736015769572,0.5680736015769572
1.937214531361586,40,992,0,12.562765199019,2.2574037557121507,1.0906178417691148,5.0237969052930875
1.999670848577416,60,54,1,27.524164224944858,2.1192017113498274,0.5603578218789096,9.901711702388072
2.0408652233217075,49,920,0,12.76582412078131,1.732275955802276,0.5465828263258032,4.7624161928956354
2.0658652233217074,74,64,1,27.082713677849313,2.0851568736950377,0.5368911880405669,8.032667408638616
2.0908652233217073,48,740,0,13.844974789793518,0.8551206897737806,0.3813675130848182,4.286812778291793
2.1158652233217072,91,949,1,12.67253419589931,1.9355945354750936,0.7576027836231347,0.7576027836231347
2.234928499814006,58,280,0,20.88596405476517,1.3493246971938433,0.057149412069801286,0.057149412069801286
2.26134259855814,88,85,1,26.23211061008357,1.9971415399813175,0.46867628493307834,0.46867628493307834
2.4044495169405464,42,748,0,13.775670569466936,0.8775160336140786,0.35659120928954735,0.35659120928954735
2.4637864476051803,87,627,1,15.047993874411691,0.7056210995881607,0.5659849670496264,0.5659849670496264
2.5127418574336544,60,695,0,14.274321626937425,0.7591557365280721,0.4909720768142556,0.4909720768142556
2.5432313165130624,79,847,1,13.088989619164604,1.2874180045754358,0.08178330727792726,0.08178330727792726
2.6506302961660912,58,397,0,18.603325771859858,1.0624475916367615,0.29220699715182263,0.29220699715182263
2.675630296166091,92,434,1,17.948694361467066,0.9754733070455046,0.3644421835047318,0.3644421835047318
2.700630296166091,60,677,0,14.464727099158914,0.7346881456262722,0.521018801742823,0.521018801742823
2.725630296166091,62,408,1,18.40565859614607,1.036208536226102,0.3139949573660594,0.3139949573660594
2.750630296166091,44,367,0,19.155858245487156,1.134986395793014,0.23213112797293434,4.264792441479592
2.775630296166091,83,876,1,12.943950251516512,1.4512999843900865,0.2536863651014798,2.9889998883527724
2.8006302961660907,59,282,0,20.84363856425364,1.344301858482666,0.06120369524920122,5.225578484735038
2.826492284611815,71,559,1,15.961499612495711,0.7457082495663236,0.5485759475627461,0.5485759475627461
2.8860787334271953,38,162,0,23.727295567988804,1.6861339571256906,0.21463045273284465,5.922560338900151
2.9110787334271953,76,748,1,13.775670569466936,0.8775160336140786,0.35659120928954735,2.5958689373886124
2.958103336976325,37,269,0,21.12135346792776,1.3771245586218228,0.03473956982302795,4.721144000700672
2.983103336976325,96,785,1,13.482542227761574,1.0022560226983224,0.22100135661995424,2.7314054526685894
3.102546384530792,54,687,0,14.35764175967602,0.7473245168183595,0.5052738814379509,0.5052738814379509
3.127546384530792,85,721,1,14.018076513681699,0.8084289081025098,0.43376618703883096,0.43376618703883096
3.1677942614622476,58,885,0,12.903583917554862,1.5057627071071167,0.3106113043900294,0.3106113043900294
3.1927942614622475,76,816,1,13.27094726013911,1.133242285630942,0.0811200438723958,0.0811200438723958
3.2740573227248526,40,933,0,12.721847229168137,1.8218311078057603,0.6396051098414013,0.6396051098414013
3.4790447020245012,81,956,1,12.652519183306232,1.9864929482742433,0.8103424486427535,0.8103424486427535
3.5638031728884503,51,658,0,14.677078342931082,0.7171064739472932,0.5445706333566669,0.5445706333566669
3.58880317288845,65,513,1,16.650135459369775,0.8129921720505529,0.49742529750274045,0.49742529750274045
3.61380317288845,55,813,0,13.290103624806093,1.1195333142226538,0.09568235684032089,1.9563245685225716
3.6703957596018175,78,395,1,18.639545063976026,1.0672440800769678,0.28822639521974835,3.585660909026789
3.706277288829292,54,197,0,22.79691840777165,1.5734979235104696,0.12322689599653103,7.158478879136343
3.7580835059066766,92,985,1,12.57863753718702,2.2036659443118722,1.0350726174315206,3.971647712883275
3.7830835059066765,53,921,0,12.762310585634928,1.7390674753876567,0.5536419144966942,0.5536419144966942
3.8080835059066764,87,522,1,16.51125430412792,0.7978064370783855,0.5093993068259195,0.5093993068259195
3.8330835059066763,45,660,0,14.654182025605866,0.7185686036557115,0.5424760416787855,0.5424760416787855
3.8580835059066763,75,395,1,18.639545063976026,1.0672440800769678,0.28822639521974835,0.28822639521974835
4.059422502738743,55,621,0,15.123196931980054,0.7057271907946472,0.5678287528274595,0.5678287528274595
4.084422502738743,60,353,1,19.420712849144373,1.1691346769806543,0.20397308807140746,0.20397308807140746
4.252645554697763,40,86,0,26.193889407611692,1.992733125569579,0.4651458124724783,0.4651458124724783
4.359769454033486,68,282,1,20.843638564254086,1.344301858482666,0.06120369524875713,0.06120369524875713
4.384769454033487,51,257,0,21.383459005563488,1.4078671453630065,0.010004273587327361,0.010004273587327361
4.49847432148885,83,103,1,25.57167354564438,1.9178302400408853,0.4044537936103154,0.4044537936103154
4.574152431085395,59,677,0,14.464727099158914,0.7346881456262722,0.5210188017432671,0.5210188017432671
4.599152431085395,67,469,1,17.356323694071918,0.8981924420945475,0.4283488497458521,0.4283488497458521
4.71356395609427,55,303,0,20.40737001560089,1.291995563307502,0.10354049102634377,0.10354049102634377
4.7385639560942705,84,148,1,24.128886348679046,1.7360548565878986,0.25542031747161076,0.25542031747161076
4.920404568892732,53,945,0,12.684387304981115,1.9068082314843693,0.7277612857929938,0.7277612857929938
4.945404568892732,61,871,1,12.96730321629802,1.421759586556881,0.2227726021990506,3.4949276930476003
4.975153364044306,44,210,0,22.47374438650329,1.5352805118045154,0.09240832290480228,6.141877756451919
5.000153364044307,73,326,1,19.94510921399506,1.2352921484755086,0.14971369335281537,5.145397960704123
5.025153364044307,59,945,0,12.684387304981115,1.9068082314843693,0.7277612857929938,2.2971932588653488
5.093315572151269,62,450,1,17.674626928267045,0.9393575768283924,0.3943795476502032,3.8151871978637786
5.118315572151269,51,509,0,16.712484171739206,0.8200170139289753,0.491836928321554,0.491836928321554
5.15386220018223,81,424,1,18.12275179081535,0.9985780272465661,0.3452569187434307,0.3452569187434307
5.17886220018223,41,279,0,20.907180099809963,1.3518394571514492,0.05512022705733699,0.05512022705733699
5.203862200182231,67,332,1,19.82695255081257,1.2205591681118122,0.16176129947975681,4.446440786450623
5.232355110306259,56,847,0,13.088989619165048,1.2874180045754358,0.08178330727837135,2.5350667519550285
5.284151544933844,92,502,1,16.82250475302549,0.8326951512716008,0.48168626712286056,0.48168626712286056
5.309151544933845,51,708,0,14.143408922590694,0.7817034438080128,0.4644398021254048,2.8314780091864833
5.351583639668089,76,221,1,22.20830334499979,1.504136401750067,0.0673476835446607,4.701628927552548
5.492637797031754,49,422,0,18.15781781507031,1.003240641335168,0.34138372282388474,0.34138372282388474
5.600128431845429,96,329,1,19.88591058649458,1.2279232483587421,0.1557368454658814,0.1557368454658814
5.62512843184543,49,230,0,21.99612089167058,1.479346809181159,0.047423707311367025,0.047423707311367025
5.667594214653788,92,165,1,23.643636447864935,1.6758297368895114,0.2062308770911514,7.646551105159993
5.692594214653789,56,977,0,12.59765944810276,2.142829829542059,0.9721630057706321,4.165358023281662
5.787830547277693,62,177,1,23.31675889313889,1.635906153747868,0.1737579936493816,5.9673434536762215
5.812830547277693,45,784,0,13.489877644858872,0.9984288303188649,0.2251183838133386,3.4606614171410754
5.905793871910715,62,921,1,12.762310585634928,1.7390674753876567,0.5536419144966942,2.8144998483252692
5.930793871910716,53,337,0,19.72921455285004,1.2082957862435961,0.1718053508641404,4.877851384250675
5.986400564147649,82,688,1,14.347112283381591,0.7487191474169208,0.5035696439037451,0.5035696439037451
6.022925330396724,37,834,0,13.161793802288102,1.2200247993945368,0.010749906308227253,0.010749906308227253
6.1173398824532725,68,860,1,13.02107434579014,1.3586282898954138,0.15660595855582216,0.15660595855582216
6.1790461927548455,42,526,0,16.450160991660745,0.7913464105158141,0.5144407915755878,0.5144407915755878
6.204046192754846,85,916,1,12.78010223909476,1.70527774263185,0.5185128818636642,0.5185128818636642
6.229046192754846,59,574,0,15.748802032228504,0.7300545721111718,0.559113421400248,0.559113421400248
6.2540461927548465,66,874,1,12.953210991700104,1.4394215403674693,0.2412590465930009,2.398635707772989
6.303475074464751,55,370,0,19.099697787315684,1.1276873021639489,0.23816154651701282,4.2272716809526045
6.328475074464752,75,703,1,14.193101220540072,0.7725406067704554,0.4751308004022903,0.4751308004022903
6.43884124828209,58,192,0,22.924174052386448,1.5886598295686838,0.1354783116376268,6.246748255991363
6.46384124828209,61,849,1,13.07822688489324,1.2981283496147356,0.09305119631886072,4.288694503906676
6.507011949612562,57,100,0,25.677890899447497,1.930944894255049,0.41515105575218314,7.988869651214259
6.538342297021668,81,363,1,19.231061616379108,1.1447295600044427,0.2240876243009282,0.2240876243009282
6.636792655604816,52,741,0,13.836195821237851,0.857831182777602,0.37835869862057336,3.943263295211885
6.661792655604816,74,103,1,25.57167354564438,1.9178302400408853,0.4044537936103154,7.009401936963755
6.700302969067184,40,313,0,20.2045073306536,1.2672891571190448,0.1236211067947579,0.1236211067947579
6.77378536608947,64,152,1,24.01219256027698,1.7214752816592238,0.24349211668273085,7.558939764878758
6.79878536608947,48,933,0,12.721847229168581,1.8218311078062044,0.6396051098418454,4.127518559388754
6.825281872759439,94,872,1,12.962578877564468,1.4276260414476383,0.22891404482550115,2.7277683574249423
6.85028187275944,51,318,0,20.104176181770406,1.2549687972338575,0.13365628499872884,4.7763992766052255
7.024843776976792,89,708,1,14.143408922590694,0.7817034438080128,0.4644398021254048,0.4644398021254048
7.104126475963426,54,653,0,14.734873602738396,0.7138431637176978,0.5494193165542782,0.5494193165542782
7.17226369709307,85,790,1,13.44634821409052,1.021768711751747,0.20004225471215165,3.4804621725870177
7.197263697093071,58,176,0,23.343543619070317,1.6391571769140967,0.17639796915780437,6.0402930085228235
7.256795833733038,60,107,1,25.432271819499697,1.9004811667855392,0.39027379189349176,0.39027379189349176
7.3801769153168575,50,851,0,13.067579314297362,1.308928580987967,0.10440831537295026,0.10440831537295026
7.405176915316858,84,537,1,16.284195123450473,0.7745600079802628,0.5273537805674522,0.5273537805674522
7.541549268818208,36,321,0,20.04431804162543,1.2475852651157027,0.13967732492314866,4.518556340694424
7.577904766636791,64,839,1,13.133203688392214,1.2454851834986513,0.03761370025845423,4.047508479428252
7.643378714010918,38,125,0,24.833881301590033,1.8250082012727376,0.3283782709777583,7.362404563050262
7.685118538362073,96,135,1,24.519861618951033,1.7852538143978691,0.2957451249967491,0.2957451249967491
7.710118538362074,49,269,0,21.12135346792776,1.3771245586218228,0.03473956982347204,4.826934038030473
7.735118538362074,89,799,1,13.383216235206774,1.058466367897637,0.16075254302627684,2.78519022148771
7.929510744165277,40,253,0,21.47214179487733,1.4182330463583526,0.00167185417332405,0.00167185417332405
7.954510744165277,85,481,1,17.15936674894447,0.8733848071251771,0.44868666397501755,0.44868666397501755
8.036741458944798,39,338,0,19.70974467592157,1.20584457134143,0.17381467977450882,0.17381467977450882
8.067985410066543,96,72,1,26.747302603331136,2.0531948627553476,0.5128081684055985,9.042523915974598
8.092985410066543,57,886,0,12.899228988887401,1.5119145168025483,0.3170359193447325,4.60977744940827
8.201862561154716,90,955,1,12.655322926303114,1.9791821345940264,0.8027690126191089,2.7562173407993384
8.251018810893852,36,374,0,19.02513657269722,1.1179674712007426,0.246197784552038,3.968475356614931
8.308613731802058,75,841,1,13.121974574751505,1.255831159692633,0.048519869135787985,2.229404295018611
8.452637223118394,37,546,0,16.15067211683119,0.7619600843717933,0.5368139616823697,0.5368139616823697
8.55358237369403,91,524,1,16.48065865983739,0.7945535013096361,0.5119422949011465,0.5119422949011465
8.634292158000173,47,739,0,13.85378690554262,0.8524355781869275,0.38435114776902424,0.38435114776902424
8.67688371888898,92,978,1,12.595228224935084,2.1503986942033038,0.9799915206141208,0.9799915206141208
8.760238176291873,46,662,0,14.63141289822012,0.720121044441413,0.5402920964758806,0.5402920964758806
8.809405085526263,60,466,1,17.406059832829612,0.9045482171199382,0.4231194367676494,0.4231194367676494
8.862108753200705,46,605,0,15.328997478132322,0.7094766574340383,0.569325500098472,0.569325500098472
8.887108753200705,71,656,1,14.70010154958068,0.7157341864321154,0.5465763447638494,0.5465763447638494
8.912108753200705,54,803,0,13.355983850239284,1.075422177219565,0.14264939650487918,3.8246428699064694
8.969552496829564,76,139,1,24.397574810892664,1.7698167442627977,0.2830823859003573,5.474947361015836
8.994552496829565,45,651,0,14.7582126731578,0.712693377506568,0.5512049507920835,2.399168606977753
9.019552496829565,66,245,1,21.651597645107046,1.4391753046627542,0.015154631954672482,3.9278567822247368
9.078580019696675,53,542,0,16.209760678714602,0.7674290600139244,0.5327372073526959,0.5327372073526959
9.21653257965128,95,778,1,13.534569276259845,0.9759947787291168,0.2492953396870945,0.2492953396870945
9.29788236995098,60,725,0,13.980638967824532,0.817502122798075,0.42348533019875845,0.42348533019875845
9.32288236995098,68,969,1,12.617683037506211,2.0826677664640414,0.9099189390386897,4.268129767792672
9.405092829113151,52,148,0,24.128886348679046,1.7360548565878986,0.2554203174707226,7.89757216494813
9.431696796820782,77,145,1,24.21748620828801,1.7471603167642513,0.26451365181756614,6.890877855793676
9.456696796820783,40,829,0,13.19112951671464,1.1951477496463525,0.015534766493630059,2.4864519534464335
9.484714577292891,72,328,1,19.905616556123107,1.230378998632986,0.15372899352072977,4.366229312989134
9.554946226635643,44,847,0,13.088989619165048,1.287418004576324,0.08178330727837135,0.08178330727837135
9.671368510679024,79,929,1,12.73499175407089,1.7939884956028607,0.6106982752189793,0.6106982752189793
9.696368510679024,48,748,0,13.77567056946738,0.8775160336149668,0.35659120928954735,0.35659120928954735
9.721368510679024,95,445,1,17.759685872553277,0.9505177252382424,0.385138165979626,0.385138165979626
9.880521624524036,54,125,0,24.83388130159092,1.825008201274514,0.32837827097864647,6.7628717724872445
9.905521624524036,87,767,1,13.619544512442516,0.9372305094039746,0.2912724793251442,3.8318142663573695
9.961991166482601,55,900,0,12.840916318056728,1.600078302478991,0.4090029354983926,0.4090029354983926
9.995955910668426,75,934,1,12.7186135305557,1.8288304578124581,0.6468701588104864,4.719209460210649
10.020955910668427,47,74,0,26.66572778938381,2.044808226955297,0.5063218483041254,5.752035925478793
10.061294447998156,80,533,1,16.34419714784663,0.780493318137232,0.5228243532382493,3.540348514516012
10.207413467174785,51,618,0,15.16120489985795,0.706050628876298,0.568483785659879,0.568483785659879
10.232413467174785,73,272,1,21.05671009839938,1.3695109397122707,0.04087242321659801,0.04087242321659801
10.257413467174786,38,264,0,21.22986425462159,1.3898744146363384,0.024476126291972378,4.159911864842769
10.296887095668689,70,707,1,14.153281382446536,0.7798215436523037,0.46662690177612376,2.474520231848132
10.470017246797196,44,123,0,24.89818250981024,1.8331548704058065,0.33506689927875755,0.33506689927875755
10.560706420411506,76,302,1,20.427822629891068,1.2944719051350972,0.10153089934306081,0.10153089934306081
10.651862972091102,49,702,0,14.203138606108112,0.7707818760209761,0.47719581483818274,0.47719581483818274
10.676862972091103,68,995,1,12.556172063742821,2.2805683385751507,1.1145550775442103,1.1145550775442103
10.788096470030418,37,566,0,15.86148583775504,0.7379730885404001,0.5539151137341491,0.5539151137341491
10.824104526589982,78,697,1,14.25381927805347,0.7623555337588073,0.4871568583286745,0.4871568583286745
10.849104526589983,36,391,0,18.712243848941768,1.076857691044708,0.2802507775676588,0.2802507775676588
10.932883296754117,66,266,1,21.18634252478202,1.3847649585141397,0.028588215782221482,0.028588215782221482
10.977694068893424,39,119,0,25.02836071029968,1.849637296961859,0.34859723890612315,0.34859723890612315
11.039275179000585,78,494,1,16.949642446283164,0.8477495207799279,0.46954211761374154,0.46954211761374154
11.064275179000585,42,140,0,24.36728589566073,1.765999159921705,0.2799521241154679,0.2799521241154679
11.089275179000586,78,88,1,26.11801616615672,1.9839007670103825,0.45805415638078273,7.020416945799468
11.117773170571398,48,702,0,14.203138606108112,0.7707818760209761,0.47719581483818274,3.9592106430301754
11.143749849210261,79,525,1,16.465397551103322,0.7929441790288649,0.5131971514096278,0.5131971514096278
11.216627521946716,44,984,0,12.580962659239248,2.19602659331386,1.0271745409813349,2.772363206835493
11.28515740782654,72,397,1,18.603325771859858,1.0624475916358733,0.29220699715182263,4.5693814439182745
11.44889341828166,52,458,0,17.53965027916138,0.9217702128587746,0.40891892344774305,0.40891892344774305
11.550368545190171,65,107,1,25.43227181949881,1.9004811667837629,0.39027379189349176,8.060340540254174
11.575368545190171,48,878,0,12.934795958065237,1.4632607573989986,0.26619538638250617,4.313056915668412
11.600368545190172,75,935,1,12.715400580701086,1.8358450799649262,0.6541503377253122,0.6541503377253122
11.729644687217952,40,725,0,13.980638967824532,0.817502122798075,0.42348533019875845,0.42348533019875845
11.77000017040462,79,490,1,17.013764044378377,0.8554891133023546,0.4632664720425339,0.4632664720425339
11.807022367063672,44,354,0,19.40164057497462,1.1666914583070565,0.2059845368052038,0.2059845368052038
11.86651742896951,90,562,1,15.91847623173237,0.7423031854010276,0.5509523304461084,0.5509523304461084
11.915901137619912,57,308,0,20.30556499647318,1.2796302198481158,0.1135835520624795,0.1135835520624795
12.031612776094045,70,61,1,27.212446454942807,2.09623774857981,0.5448912911649728,0.5448912911649728
12.190960329667096,51,407,0,18.423521195956027,1.0385830248278438,0.3120226143256133,0.3120226143256133
12.221369092765077,87,422,1,18.15781781506942,1.003240641335168,0.3413837228247729,0.3413837228247729
12.246369092765077,39,139,0,24.397574810892664,1.7698167442627977,0.2830823859003573,6.60837023934846
12.271369092765077,87,781,1,13.51207773951657,0.9870983142121759,0.2373195151985641,3.756724930928712
12.296369092765078,39,753,0,13.73343082760492,0.8923396650768467,0.34028593930379714,2.764598989953626
12.326556436690657,76,250,1,21.539105446322537,1.4260519241258152,0.004611341946514358,4.69617834751368
12.351556436690657,55,510,0,16.696861322470724,0.8182454520824223,0.4932488443927241,3.291765302622096
12.409272915873098,88,958,1,12.646966174715502,2.0011531953496586,0.8255275286632724,2.076906218189123
12.530187970473055,41,643,0,14.852823463604281,0.7089705304199612,0.5574810101567351,0.5574810101567351
12.55713542908613,64,864,1,13.001135566925726,1.3812855125454604,0.18036917745334335,0.18036917745334335
12.682909836861132,45,873,0,12.957881498058654,1.4335133846010706,0.2350762180842736,0.2350762180842736
12.787550964705488,64,168,1,23.560773724932815,1.6656580276297461,0.19794657475813437,0.19794657475813437
12.814039080919494,57,114,0,25.194145937851076,1.8705806195242758,0.36577977177643106,8.100235449930437
12.846771001753456,70,902,1,12.832981982727532,1.6129759135843358,0.42244144372460823,4.317590177141284
12.91600145085714,60,903,0,12.829051108651512,1.6194523519885706,0.42918810581582534,0.42918810581582534
13.004354077803372,72,978,1,12.595228224935084,2.1503986942033038,0.9799915206141208,1.9885638528869265
13.03597485636036,38,560,0,15.947131882420251,0.7445584109433412,0.5493825864046897,2.892713911617051
13.06097485636036,65,525,1,16.465397551103322,0.7929441790288649,0.5131971514096278,0.5131971514096278
13.144780728322857,40,919,0,12.769359946499748,1.7255011246923857,0.5395402811725347,0.5395402811725347
13.266968437117363,82,614,1,15.212300560765613,0.7067576783459373,0.5690850659210156,0.5690850659210156
13.411777021261084,45,132,0,24.612794565129548,1.7970066461998613,0.3053901321514729,0.3053901321514729
13.436777021261085,73,506,1,16.75949468706328,0.8253918275080707,0.48754317700705485,0.48754317700705485
13.461777021261085,54,734,0,13.898344864241352,0.8393903598093999,0.3988920205610924,0.3988920205610924
13.508369406390516,60,930,1,12.73167393983421,1.8009257247459942,0.6179017744116777,2.5063039573893775
13.57910391960753,37,397,0,18.603325771859858,1.0624475916358733,0.29220699715182263,4.275456646199771
13.60410391960753,85,299,1,20.489366987693103,1.3019081295020385,0.09549958131671588,4.623366956513664
13.640834440816832,57,820,0,13.245837633091284,1.1518592724222287,0.0613677047223149,4.1821853513273055
13.677549933838007,71,103,1,25.571673545643492,1.9178302400408853,0.4044537936103154,7.677829062892272
13.849609927940703,60,450,0,17.674626928267045,0.9393575768292806,0.3943795476502032,0.3943795476502032
13.874609927940703,82,256,1,21.405566141920573,1.410452533612272,0.00792576343400242,0.00792576343400242
13.951388702020363,49,627,0,15.047993874411247,0.7056210995877166,0.5659849670500705,0.5659849670500705
14.033137942563336,93,855,1,13.04662729203443,1.3307966863465026,0.12738823636482266,0.12738823636482266
14.079973821077404,53,847,0,13.088989619165048,1.287418004576324,0.08178330727837135,2.3612177727034833
14.120437157068105,93,357,1,19.34456761467729,1.1593652352566153,0.21201909625467863,4.188162626341807
14.160079600272859,36,384,0,18.840307409258017,1.0937407063380533,0.2662545418115059,0.2662545418115059
14.185333606837817,76,182,1,23.18401640023815,1.6198474415052289,0.16072895130214704,0.16072895130214704
14.264931136299788,45,233,0,21.926333240211093,1.471205912510598,0.040883455701745675,0.040883455701745675
14.357218085772923,76,557,1,15.990314584144016,0.7480519222049509,0.5469195966529838,0.5469195966529838
14.382218085772923,40,595,0,15.46143319016302,0.7142713312688898,0.5678449990558221,0.5678449990558221
14.430703410736834,61,254,1,21.44990722401552,1.4156353973806546,0.0037596345929813424,5.018717821558383
14.455703410736835,46,801,0,13.369536795272197,1.0668948166951964,0.15175006753231912,3.0823378526534384
14.480703410736835,82,232,1,21.9495450723155,1.4739131609484701,0.043058306925303214,5.302862049932244
14.524649076606426,46,423,0,18.140274198124473,1.0009077139407907,0.3433217078541162,0.3433217078541162
14.584460482488412,63,409,1,18.387817345551838,1.0338364279149914,0.31596541264278244,0.31596541264278244
14.644079407466185,60,244,0,21.674232026226647,1.4418146135000143,0.017274772933006943,0.017274772933006943
14.747779268852408,86,142,1,24.30704009073459,1.7584139004434007,0.2737341846561492,0.2737341846561492
14.92857995873406,54,452,0,17.64075350729577,0.9349286552371439,0.39804394899078943,0.39804394899078943
15.014819769852327,77,653,1,14.734873602739285,0.7138431637176978,0.5494193165525019,0.5494193165525019
15.039819769852327,57,454,0,17.606966136803237,0.9305207131671267,0.4016890603608658,0.4016890603608658
15.079602614611689,64,282,1,20.843638564253197,1.344301858482666,0.06120369524964531,0.06120369524964531
15.10460261461169,49,595,0,15.46143319016302,0.7142713312688898,0.5678449990558221,0.5678449990558221
15.12960261461169,85,862,1,13.011049374483719,1.369913673187284,0.168444660737066,4.349365805204286
15.15460261461169,60,96,0,25.821820879695423,1.9485375282357609,0.42946336702875954,8.200386993715725
15.204032299130056,89,156,1,23.89708973820781,1.707151674496643,0.23178522070388397,0.23178522070388397
15.330866976449002,52,75,0,26.625267890052484,2.0405715007907332,0.5030256492357665,0.5030256492357665
15.432228830249272,67,674,1,14.497485073484029,0.7313574373313259,0.5252865451144118,0.5252865451144118
15.477704279530597,55,768,0,13.611656164810526,0.9406277191743584,0.2875822424233121,0.2875822424233121
15.51616150360937,81,575,1,15.734839309482496,0.7291360421195492,0.5596932616622752,3.1643972825108335
15.564311595312297,58,127,0,24.77009195419555,1.8169259250448988,0.32174241717086716,4.9894196833690785
15.595356150773343,85,575,1,15.734839309482496,0.7291360421195492,0.5596932616622752,3.8697562405047847
15.620356150773343,54,56,0,27.433773011900087,2.113130145813713,0.5564755983087366,8.806985597631822
15.678460200750717,82,799,1,13.383216235206774,1.058466367897637,0.16075254302627684,2.388821957394427
15.747698224059357,48,323,0,20.00455201585183,1.2426661888866875,0.14369160741445342,5.100249748855035
15.777355386363535,94,932,1,12.725101788934268,1.8148471335326377,0.6323552941776001,2.9552473796545797
15.802355386363535,60,680,0,14.432260398580254,0.7382302557044085,0.5165417304482389,3.8915052802295236
15.827355386363536,69,88,1,26.11801616615672,1.9839007670103825,0.45805415638078273,6.8196546005179215
15.852355386363536,42,135,0,24.519861618950145,1.785253814396981,0.2957451249958609,0.2957451249958609
15.877355386363536,84,194,1,22.87306570925196,1.5825621050389316,0.1305492783831852,4.390317603363059
15.902355386363537,60,629,0,15.023168519464392,0.7057481544556765,0.5652100280943984,3.069308639206625
15.927355386363537,77,160,1,23.783521350081216,1.6930785323232556,0.22029545172763676,4.905538711588164
15.971232869578303,57,83,0,26.309132575464744,2.0059358841137964,0.47569911318667835,6.220655855770474
16.012025992485146,78,603,1,15.355252770806516,0.7102886255232477,0.5691741625959423,3.688350673105134
16.037025992485145,41,741,0,13.836195821237851,0.857831182777602,0.378358698618797,0.378358698618797
16.08893722306624,93,492,1,16.98165748735292,0.851602208545188,0.4664206594462428,0.4664206594462428
16.113937223066237,48,790,0,13.446348214092296,1.021768711751747,0.20004225471126347,0.20004225471126347
16.24960932644232,81,326,1,19.94510921399595,1.2352921484755086,0.14971369335015083,0.14971369335015083
16.27460932644232,58,673,0,14.508468986566214,0.730293948112859,0.5266628426063846,0.5266628426063846
16.29960932644232,70,495,1,16.933669356653525,0.8458362294589961,0.4710903492188834,0.4710903492188834
16.324609326442317,59,872,0,12.962578877562692,1.4276260414440856,0.22891404482194844,0.22891404482194844
16.416966815890433,62,292,1,20.634083145516513,1.3193064957768286,0.08140699479852742,0.08140699479852742
16.44196681589043,40,597,0,15.434715096080964,0.7131667533641917,0.5682845273824455,0.5682845273824455
16.736875267812625,65,371,1,19.081023388043405,1.1252559751326885,0.24017112558283316,0.24017112558283316
16.77977617242096,46,53,0,27.569771774984986,2.122063797564522,0.5621100310904126,6.6002917282936835
16.804776172420958,89,553,1,16.048260906629253,0.7529126865506441,0.543437187694451,3.815671921277186
16.868944309454942,60,243,0,21.696912525555945,1.444459024884992,0.01939895149760673,0.01939895149760673
16.90962683055018,67,75,1,26.625267890050708,2.040571500788957,0.5030256492339902,7.281934831560477
16.93462683055018,47,694,0,14.284622027865623,0.7575922754590181,0.4928435805737763,4.062841800816841
16.959626830550178,63,836,1,13.150268738545634,1.2301393251981096,0.021426299515070468,3.7411651697780712
16.984626830550177,55,162,0,23.727295567987028,1.6861339571221379,0.21463045273151238,6.642657506446881
17.0223609438493,60,139,1,24.397574810890887,1.7698167442610213,0.2830823858985809,0.2830823858985809
17.09536434054271,41,854,0,13.051822595524953,1.32529636482559,0.12161020518419718,0.12161020518419718
17.1306358516384,95,894,1,12.865307165824902,1.5618340438869893,0.369132369502978,0.369132369502978
17.16866321404485,36,951,0,12.666722259226049,1.950070187721309,0.7726051988612426,3.116684441387463
17.19366321404485,69,310,1,20.265053444298076,1.2746910955634405,0.11759904571917446,5.347086496680475
17.21866321404485,47,947,0,12.67842223292348,1.921173594432446,0.7426545242239513,3.099798284637245
17.243663214044847,61,645,1,14.828983262869855,0.7097708217322918,0.556040933634705,0.556040933634705
17.268663214044846,40,378,0,18.95093684540683,1.1082632994536823,0.2542273427224018,0.2542273427224018
17.340066525186256,70,960,1,12.641485007623743,2.015864195481498,0.8407628141853252,2.284145971792384
17.37195935738852,58,468,0,17.372880469896046,0.9003045538094057,0.4266117907043565,3.714624095369601
17.396959357388518,64,367,1,19.155858245486712,1.1349863957939021,0.23213112797293434,0.23213112797293434
17.465475393582384,53,383,0,18.858690179051507,1.0961580839463636,0.264251702262186,0.264251702262186
17.600582329328237,70,186,1,23.07919970718686,1.6072283614114724,0.15050376289593714,4.216452095349155
17.625582329328235,38,596,0,15.44805979331798,0.713710064477624,0.5680736015776233,2.6961104540461633
17.756071429077227,81,621,1,15.123196931980942,0.7057271907946472,0.5678287528283477,0.5678287528283477
17.848275286143302,43,828,0,13.197086831802096,1.1902429109653667,0.02072163871957855,0.02072163871957855
17.927577791694894,73,877,1,12.939359842953024,1.4572701186175152,0.2599307016062369,3.4859766328452224
17.952577791694893,56,214,0,22.37640937648422,1.523838759684537,0.08319677121448876,6.12780683107772
18.036832955823094,73,459,1,17.522875391300374,0.9195966604202965,0.41071335527576025,0.41071335527576025
18.156058588618208,60,798,0,13.390103500267259,1.0542893125418118,0.1652168811396848,2.235534084206847
18.200432416894756,77,345,1,19.57416716040683,1.1886994671250761,0.18788471126640616,3.9711974060594457
18.23050172705388,43,575,0,15.734839309484272,0.7291360421213255,0.5596932616604988,0.5596932616604988
18.34546498021981,92,72,1,26.747302603332912,2.053194862757124,0.5128081684091512,7.558643432009404
18.374343947865412,36,714,0,14.084868165230802,0.7935151969462595,0.45080136080244415,4.140181476881111
18.39934394786541,61,870,1,12.972054599821092,1.4159140950340543,0.21665196503661832,0.21665196503661832
18.51781872830089,54,88,0,26.118016166154945,1.9839007670086062,0.45805415637900637,6.3343710437280265
18.54281872830089,65,628,1,15.035565993336775,0.7056743900655249,0.5656076055693404,3.724417367141797
18.59222257474763,43,603,0,15.355252770806516,0.7102886255268004,0.5691741625959423,0.5691741625959423
18.61722257474763,74,672,1,14.519485142489685,0.7292537478846839,0.5280160835958725,0.5280160835958725
18.665611350125772,55,527,0,16.434949037051894,0.7897602883559784,0.5156731218534105,0.5156731218534105
18.777776516652594,95,206,1,22.57204464257967,1.5468655087396144,0.10174177631938619,0.10174177631938619
18.802776516652592,36,460,0,17.506122185643846,0.9174288932349839,0.41250241460843995,0.41250241460843995
18.870894919746014,63,647,1,14.805267836710101,0.7106577148299209,0.5545152464776493,0.5545152464776493
18.933494297595377,40,684,0,14.389425886449203,0.7432841575685245,0.5102444159525987,2.8429609557250046
19.003744776128297,72,208,1,22.522771875770786,1.541054598380498,0.09705934395043414,4.683081273693546
19.028744776128296,48,265,0,21.20808363490667,1.387318050824149,0.02653333633162447,0.02653333633162447
19.075056510614832,74,206,1,22.57204464257967,1.5468655087396144,0.10174177631938619,0.10174177631938619
19.11386780424407,50,373,0,19.04374284135457,1.1203960324159823,0.24418927411673508,0.24418927411673508
19.177919959126314,61,460,1,17.506122185643846,0.9174288932349839,0.41250241460843995,3.891105815636564
19.229162169563182,54,981,0,12.588027233334742,2.1731673301026433,1.003538311607599,4.522136977808344
19.268285624622965,86,118,1,25.061241081854035,1.8537963763769483,0.35201057599110186,8.602604606327446
19.355950700374503,45,921,0,12.762310585635817,1.7390674753876567,0.5536419144966942,4.709050610625098
19.399731153106334,67,72,1,26.747302603332912,2.053194862757124,0.5128081684091512,9.31677515315954
19.430726528422394,49,412,0,18.334421530415312,1.0267349192076836,0.3218648993907891,0.3218648993907891
19.455726528422392,72,665,1,14.597498328850378,0.7226200444243602,0.5368476257991972,0.5368476257991972
19.49097625046205,60,672,0,14.519485142489685,0.7292537478846839,0.5280160835958725,0.5280160835958725
19.555725054847063,71,405,1,18.45931051406069,1.0433389334885135,0.3080724816300062,0.3080724816300062
19.68123659912794,40,937,0,12.70903647603916,1.8499197245915866,0.6687556701905351,0.6687556701905351
19.706236599127937,87,848,1,13.083593820002903,1.292761910324458,0.0874060672124699,4.2776824396923985
19.752897641979636,57,100,0,25.677890899448386,1.930944894255049,0.4151510557548477,7.988869651210706
19.819572157173805,81,828,1,13.197086831802096,1.1902429109653667,0.02072163871957855,0.02072163871957855
19.849540371988986,49,662,0,14.631412898221896,0.720121044441413,0.5402920964741043,0.5402920964741043
20.058999071445022,95,231,1,21.972807490339363,1.4766267565704538,0.045238356680243896,0.045238356680243896
20.149850101232882,36,880,0,12.925747404239019,1.4753032346455086,0.2787854878292251,0.2787854878292251
20.17485010123288,74,710,1,14.123763097746433,0.7855414620152601,0.4599920308585581,3.124831102322645
20.19985010123288,56,186,0,23.07919970718686,1.6072283614114724,0.15050376289593714,7.345620145052578
20.224850101232878,85,986,1,12.576327075858984,2.211314899209782,1.0429801664812999,4.04972888986066
20.249850101232877,55,586,0,15.583075799238344,0.7201167840271694,0.5650061951811836,0.5650061951811836
20.34942827980549,61,952,1,12.663844535229174,1.9573282583422724,0.7801264432636401,2.613766981518495
20.37442827980549,37,396,0,18.621424602599745,1.0648449393642068,0.29021733513800996,4.4141568642537266
20.404522168480106,83,74,1,26.665727789382032,2.0448082269517442,0.506321848302349,5.9347458463321345
20.439016570620247,41,550,0,16.091995608455534,0.7567071105896161,0.5406798045903827,3.591984681701632
20.56218120738289,88,112,1,25.261447747617183,1.8790580695835502,0.37272985967362615,4.724429076294001
20.587181207382887,53,518,0,16.57273776581647,0.8044468858408038,0.5041828453933306,3.087368200439755
20.623379435394686,76,133,1,24.58169873484195,1.79307239513804,0.30216112579850574,5.838132446619682
20.65409521766848,55,679,0,14.443050219853149,0.7370259820440594,0.5180574282697137,3.4802975143009007
20.75262709219922,66,818,1,13.25833088512951,1.1425025814340017,0.0712917248968381,0.0712917248968381
20.777627092199218,58,484,0,17.11062931065399,0.8673480992307248,0.4536146563580701,0.4536146563580701
20.802627092199216,78,367,1,19.155858245486712,1.1349863957939021,0.23213112797293434,0.23213112797293434
20.827627092199215,52,478,0,17.20830592965683,0.8794898861488321,0.44369376341890643,0.44369376341890643
20.852627092199214,75,473,1,17.290316728967525,0.8898107106993791,0.4352343540325876,0.4352343540325876
20.89689742244662,36,639,0,14.900876787397266,0.7076276374000656,0.560106465592014,0.560106465592014
20.959495946539633,61,551,1,16.077391306488664,0.7554283102386705,0.5416126110837638,0.5416126110837638
20.988555020129013,53,271,0,21.07821992547798,1.3720459561596954,0.03883008374572228,5.827216304194138
21.029563192985908,63,946,1,12.681395081330038,1.913983911705941,0.7352009735051013,3.3436395972046284
21.054563192985906,58,920,0,12.765824120780422,1.73227595580272,0.5465828263240269,1.8753009862280123
21.12453140721921,69,507,1,16.74380090478067,0.8235902927005156,0.4889840025192882,3.1382426266155505
21.238392096327967,37,429,0,18.03545787725369,0.9869803933071353,0.3548891146536448,0.3548891146536448
21.319051787050082,87,849,1,13.07822688489324,1.2981283496138474,0.0930511963197489,0.0930511963197489
21.381985950042733,43,882,0,12.916803874865934,1.4874267828517418,0.29145603828695243,0.29145603828695243
21.422103101602048,62,492,1,16.98165748735292,0.851602208545188,0.4664206594462428,0.4664206594462428
21.45731430467838,43,103,0,25.571673545645268,1.9178302400426617,0.4044537936103154,5.97380615876375
21.48231430467838,96,628,1,15.035565993336775,0.7056743900655249,0.5656076055693404,3.5922399943650873
21.591536847301914,50,313,0,20.2045073306536,1.267289157119933,0.1236211067947579,0.1236211067947579
21.616536847301912,91,137,1,24.458489864169763,1.777501917644031,0.28938545661105763,0.28938545661105763
21.680591587956762,59,863,0,13.00607861555747,1.3755888208102363,0.17439622708792513,0.17439622708792513
21.76925413795554,63,549,1,16.106625899535487,0.757999780446994,0.5397334432721834,2.921277353660656
21.82439797687577,56,959,0,12.644216670732789,2.008502406908974,0.8331389512541421,4.932723185302024
21.849397976875768,77,56,1,27.433773011900087,2.1131301458119367,0.5564755983087366,10.13349650881068
21.899550462308685,36,200,0,22.72137569237742,1.5645294580863833,0.11598701701132086,0.11598701701132086
21.993786354647185,78,597,1,15.434715096080964,0.7131667533641917,0.5682845273824455,0.5682845273824455
22.04527690532991,53,563,0,15.904188430361899,0.7411979806342117,0.5517152518557111,0.5517152518557111
22.166022061771447,64,965,1,12.628090104257694,2.0528578796543684,0.8790648274619173,0.8790648274619173
22.191022061771445,37,756,0,13.70848331226071,0.9015392657722998,0.3301997159042003,0.3301997159042003
22.235637949278612,71,581,1,15.651642048855052,0.7239668715897096,0.5628364491911952,0.5628364491911952
22.284566061555967,41,305,0,20.366556936444624,1.2870462569374297,0.10755860205691192,0.10755860205691192
22.32471942988171,93,102,1,25.606917939924756,1.9221929099657586,0.40801462603567984,5.293286757765969
22.34971942988171,55,555,0,16.0192351741415,0.7504536456046651,0.5452064300648374,3.34117495191677
22.42183215506834,83,642,1,14.864790245649573,0.7086026960010372,0.5581691103060393,0.5581691103060393
22.523257401454305,59,108,0,25.397807409916595,1.896171742803432,0.3867473357885842,0.3867473357885842
22.63573437596879,91,770,1,13.595977665971759,0.9474983145274507,0.28012616456862816,0.28012616456862816
22.668892281761128,52,575,0,15.734839309484272,0.7291360421213255,0.5596932616604988,0.5596932616604988
22.736571433519433,61,286,1,20.759407416164777,1.3342812683312388,0.06929742382411064,4.678032723155923
22.76232567120234,44,807,0,13.329255997966527,1.09277259784335,0.12415449276659274,2.697261626099845
22.814115175523078,63,715,1,14.075227145248448,0.7955708161517805,0.44844204081684325,0.44844204081684325
22.851409902871683,48,659,0,14.665614304153252,0.7178262790326073,0.5435344773232487,0.5435344773232487
22.876409902871682,70,887,1,12.894899768166823,1.518086106806038,0.3234801606986082,0.3234801606986082
22.99925432925636,56,91,0,26.005598907723027,1.9706322419459354,0.447360007388653,0.447360007388653
23.04221636269977,93,66,1,26.997451379806137,2.077456459812055,0.5312046522156777,0.5312046522156777
23.068196908452503,41,427,0,18.07031181595775,0.9916090340631456,0.35104526742202324,0.35104526742202324
23.131881380627462,81,76,1,26.58502304879562,2.036309139167969,0.49969756515366726,0.49969756515366726
23.247019957070123,41,780,0,13.519542494048409,0.9833718920759793,0.2413365138913548,0.2413365138913548
23.292512172579947,71,798,1,13.390103500267259,1.0542893125418118,0.1652168811396848,0.1652168811396848
23.34719888405032,42,955,0,12.655322926303114,1.9791821345940264,0.8027690126191089,0.8027690126191089
23.470109362088888,85,525,1,16.4653975511051,0.7929441790288649,0.5131971514096278,0.5131971514096278
23.54379167961757,49,625,0,15.072940660807888,0.7055756478244746,0.5666793370338041,0.5666793370338041
23.56879167961757,60,868,1,12.981638840869891,1.4042862997420968,0.20447340367013567,0.20447340367013567
23.593791679617567,54,843,0,13.110862896208886,1.266268932109682,0.05951716853047628,2.423489502010767
23.618791679617566,70,345,1,19.57416716040683,1.1886994671250761,0.18788471126640616,4.28721664198406
23.64753264063053,39,162,0,23.727295567987028,1.6861339571221379,0.21463045273151238,0.21463045273151238
23.711455401622178,94,359,1,19.306638015709865,1.1544840857986571,0.216042149652651,0.216042149652651
23.74377339095669,50,713,0,14.094542280684408,0.7914844794179032,0.453135991865139,0.453135991865139
23.881869473332337,64,361,1,19.2688028907142,1.1496054808475265,0.2200650454682318,3.823428910330051
23.906869473332335,39,800,0,13.376360681316868,1.062668212732376,0.156263595151529,2.618047840364568
23.931869473332334,94,293,1,20.613312256969607,1.316816584413516,0.08342224442614565,4.546062384562788
23.956869473332333,48,531,0,16.37434838526275,0.7835341162838461,0.5204874719595409,0.5204874719595409
24.005689102267464,61,550,1,16.091995608455534,0.7567071105896161,0.5406798045903827,3.6728895834272635
24.030689102267463,43,66,0,26.997451379806137,2.077456459812055,0.5312046522156777,6.160681731117279
24.057308043189614,84,88,1,26.118016166154945,1.9839007670086062,0.45805415637900637,0.45805415637900637
24.082308043189613,53,278,0,20.92843199771366,1.3543565249811707,0.05308960516359207,0.05308960516359207
24.10730804318961,89,151,1,24.04121459086639,1.7250959821666356,0.2464532769828054,5.3533561514598205
24.151916087175785,54,662,0,14.631412898221896,0.720121044441413,0.5402920964741043,3.2697001677277626
24.176916087175783,76,379,1,18.932442974524122,1.1058399266019592,0.25623344846081864,4.065479491003998
24.23556567807074,52,864,0,13.001135566927502,1.3812855125472367,0.18036917745334335,3.0691610016759796
24.260565678070737,75,265,1,21.20808363490667,1.387318050824149,0.02653333633162447,5.344689580088158
24.331587698779884,56,130,0,24.67534640896929,1.8049249056666383,0.31188984205599013,6.586694702338747
24.385349584538403,75,759,1,13.683832565124732,0.9109679494052614,0.31988616699152317,3.773043132458298
24.58241393755747,53,138,0,24.427975783240186,1.7736509926074007,0.28622683482737443,0.28622683482737443
24.634430859290546,85,538,1,16.269257545520333,0.7731081145720964,0.5284555210032238,0.5284555210032238
24.778604048656568,50,337,0,19.72921455285004,1.2082957862453725,0.17180535086325222,0.17180535086325222
24.839740626816354,66,450,1,17.67462692826527,0.9393575768257278,0.39437954765375594,0.39437954765375594
24.864740626816353,56,135,0,24.51986161895192,1.7852538144005337,0.2957451249976373,0.2957451249976373
24.98828389002263,73,384,1,18.84030740925624,1.0937407063345006,0.26625454181328223,4.42948360813844
25.048054412867273,44,932,0,12.725101788934268,1.8148471335308614,0.6323552941793764,2.584331848176191
25.177166846435057,82,526,1,16.450160991659857,0.7913464105158141,0.5144407915764759,3.247835627593787
25.20930991669498,55,984,0,12.580962659239248,2.19602659331386,1.0271745409795585,1.9732515444879084
25.23967157476232,76,575,1,15.734839309484272,0.7291360421213255,0.5596932616604988,2.7674929083971733
25.28502200677671,38,669,0,14.55272674998298,0.726272363504421,0.5319379903667709,3.038087050466487
25.31002200677671,93,180,1,23.23687988246448,1.6262321620850173,0.1659068605839309,4.948221231064309
25.36960590426112,43,232,0,21.949545072317278,1.4739131609502465,0.043058306925303214,6.296068427932511
25.395522377096203,74,937,1,12.70903647603916,1.8499197245915866,0.6687556701905351,3.5701375316108397
25.434293552816204,57,970,0,12.61512315717539,2.090149147946363,0.9176610397787499,4.89070706649386
25.501236573751434,92,65,1,27.039961836980098,2.08133513899611,0.5340802653854837,9.714928739636974
25.52906409076996,47,943,0,12.690430342217951,1.8924993086173458,0.7129239285532663,3.6741356351903676
25.556085917683955,94,219,1,22.256050965669516,1.5097258321077334,0.07184248532965398,6.53256643148481
25.788080797519275,58,830,0,13.18520234210041,1.2000761794155324,0.010324473233680465,0.010324473233680465
25.825718983542753,91,657,1,14.688574104145147,0.7164091295379649,0.5455845691990646,0.5455845691990646
25.90588760969391,42,863,0,13.00607861555747,1.3755888208102363,0.17439622708792513,2.367799588515851
25.930887609693908,88,367,1,19.155858245486712,1.1349863957939021,0.23213112797293434,4.18850739647425
25.963571974908167,60,321,0,20.044318041623654,1.2475852651157027,0.13967732492403684,0.13967732492403684
26.067017678109785,69,975,1,12.602568973939299,2.127723814663085,0.956537291575188,2.764746451042299
26.09406188778934,42,389,0,18.748723881294893,1.0816741276507003,0.27625647958373634,4.614202227472219
26.160952776588022,89,738,1,13.862632174014067,0.8497758377785658,0.3873096133197862,0.3873096133197862
26.18595277658802,49,425,0,18.105250591606392,0.9962516432473478,0.34718929184762715,0.34718929184762715
26.21095277658802,63,195,1,22.847615157143508,1.5795298561585014,0.12809911604350077,0.12809911604350077
26.235952776588018,60,481,0,17.15936674894536,0.8733848071251771,0.44868666397590573,0.44868666397590573
26.260952776588017,74,634,1,14.961638960443224,0.7064266128971042,0.5629163515230573,0.5629163515230573
26.285952776588015,60,393,0,18.675851002914357,1.0720475627294945,0.2842408672378838,0.2842408672378838
26.310952776588014,96,110,1,25.329330988128618,1.8875893459693316,0.37972007475417513,7.822758271984753
26.335952776588012,41,856,0,13.041460329759502,1.3363190961577232,0.13318819348384636,4.2185805051140335
26.441599924595057,83,60,1,27.256193023973196,2.099787820938559,0.547397669915739,0.547397669915739
26.558626718168988,37,202,0,22.67134235902546,1.5586019034046217,0.11120465962832782,4.207938871889638
26.626629367620858,63,620,1,15.135836267109681,0.7058151503400723,0.5680666871157314,2.6482958732820805
26.652302508896028,57,934,0,12.7186135305557,1.8288304578142345,0.6468701588104864,0.6468701588104864
26.741089684822576,69,156,1,23.897089738206034,1.7071516744948667,0.2317852207021076,6.473333998552988
26.766089684822575,44,802,0,13.362744533107929,1.0711461487531437,0.14721199086409342,3.6820139949789166
26.923732694016635,65,566,1,15.861485837756817,0.7379730885404001,0.5539151137305964,0.5539151137305964
26.948732694016634,50,776,0,13.549725957151537,0.9687187487266158,0.25715383032576256,0.25715383032576256
27.056348742517933,94,69,1,26.871340284628786,2.0655170375682985,0.5222296735176712,0.5222296735176712
27.32035123097042,45,468,0,17.372880469896046,0.9003045538094057,0.4266117907043565,0.4266117907043565
27.391341404744484,76,265,1,21.20808363490667,1.387318050824149,0.02653333633162447,0.02653333633162447
27.505204891167644,38,830,0,13.18520234210041,1.2000761794155324,0.010324473233680465,2.1465837348344508
27.530204891167642,84,378,1,18.95093684540683,1.1082632994536823,0.2542273427224018,3.8630536379606895
27.642857242657062,40,659,0,14.665614304153252,0.7178262790326073,0.5435344773232487,0.5435344773232487
27.67342934445736,62,684,1,14.389425886449203,0.7432841575685245,0.5102444159525987,2.539656431501669
27.69842934445736,44,244,0,21.674232026228424,1.441814613503567,0.017274772936559657,4.217630519388393
27.854213162095025,71,219,1,22.256050965669516,1.5097258321077334,0.07184248532965398,0.07184248532965398
27.937122535581707,43,586,0,15.583075799238344,0.7201167840271694,0.5650061951811836,2.7843609801045943
27.977143274660204,93,173,1,23.424382682655676,1.6489911093948706,0.18438826830191601,4.307551439829638
28.002143274660202,43,300,0,20.46882092844271,1.2994281499203453,0.097510478926921,5.567866418530798
28.066406053660057,85,963,1,12.633395864423136,2.038023906280273,0.8637079301330175,3.228777054548715
28.091406053660055,51,845,0,13.099868098773726,1.2767980379493338,0.07060513800283275,3.7616898711867464
28.116406053660054,76,163,1,23.699319392651574,1.6826843064592367,0.21181762813782257,5.897396988157055
28.150580405875658,54,747,0,13.784217714068348,0.8746276400160014,0.35977652423824225,4.084210204492678
28.192932510421226,93,89,1,26.08036005766934,1.97947939814469,0.45449572055744625,7.397659894312625
28.234637177472976,48,338,0,19.70974467592157,1.20584457134143,0.17381467977628517,0.17381467977628517
28.340082749244996,78,385,1,18.821946718421856,1.091324632913171,0.2682566165894684,0.2682566165894684
28.39379607771424,36,620,0,15.135836267109681,0.7058151503400723,0.5680666871157314,0.5680666871157314
28.494777109625264,72,412,1,18.334421530415312,1.0267349192076836,0.3218648993907891,0.3218648993907891
28.519777109625263,56,219,0,22.256050965669516,1.5097258321077334,0.07184248532965398,0.07184248532965398
28.54477710962526,86,471,1,17.323276116648856,0.893988068270346,0.43180431583422774,0.43180431583422774
28.56977710962526,40,796,0,13.403973334060737,1.046009688327132,0.17407161138649485,0.17407161138649485
28.732392649651977,90,584,1,15.610418337459464,0.7216061163859422,0.5641881358897649,0.5641881358897649
28.757392649651976,46,486,0,17.07825029885157,0.8633627580678649,0.4568627618191101,0.4568627618191101
28.825425589810013,90,131,1,24.6440100761518,1.800957496890021,0.30863306164974347,0.30863306164974347
28.910603960917943,49,638,0,14.91296755019178,0.7073452078074638,0.5607101625280109,0.5607101625280109
28.946013726183423,61,273,1,21.03523788322903,1.3669786869456857,0.04291290382951729,0.04291290382951729
28.971013726183422,52,282,0,20.843638564254974,1.3443018584844424,0.06120369524609259,5.48344310428206
29.020972013637873,90,915,1,12.78372829718677,1.6985706437964154,0.51153748477617,2.3365804420727443
29.071228890034952,59,414,0,18.2989307937369,1.0220134722622731,0.32578742818145656,4.0159469674350134
29.146900151541427,65,516,1,16.603624715457954,0.807832922596674,0.5015108640726851,0.5015108640726851
29.21847057557825,45,282,0,20.843638564254974,1.3443018584844424,0.06120369524609259,0.06120369524609259
29.383301639466634,87,621,1,15.123196931980942,0.7057271907946472,0.5678287528283477,0.5678287528283477
29.408301639466632,40,327,0,19.92534938773005,1.2328352947150734,0.15172127906026844,0.15172127906026844
29.54671433580857,91,533,1,16.344197147848405,0.7804933181390084,0.5228243532364729,0.5228243532364729
29.57171433580857,52,573,0,15.762792172083095,0.7309891517159883,0.5585178266791502,0.5585178266791502
29.596714335808567,69,935,1,12.715400580702862,1.8358450799667025,0.6541503377270885,3.3734648531051903
29.621714335808566,59,259,0,21.339370003634173,1.4027080302803085,0.014152582323845309,5.918807489877054
29.72431997805241,88,765,1,13.635419519278713,0.9305123089724532,0.29857730764604185,0.29857730764604185
29.79356511090047,38,997,0,12.55184389860986,2.296053735722836,1.1305549296807271,4.86290615452134
29.864560397458487,66,78,1,26.5051689234852,2.027716680121472,0.4929554003254566,9.205496428048576
29.889560397458485,41,928,0,12.73833087566345,1.7870670529305244,0.6035104191468577,4.671896638594575
29.92309478120457,70,619,1,15.14850560693759,0.7059229884198714,0.5682850057979749,0.5682850057979749
29.948094781204567,37,479,0,17.19197051895094,0.8774474055961434,0.4453651310392104,0.4453651310392104
29.97970109347062,63,148,1,24.128886348680822,1.736054856589675,0.25542031747249894,0.25542031747249894
