onset_time,pitch,velocity,duration,section_id,symbol
0.015601864044243652,62,541,0.4010515284806526,0,A
0.01834045098534338,55,408,0.3241962271566034,0,A
0.04319450186421158,66,557,0.14761240023841388,0,A
0.17851759613930138,54,457,0.3067528204687924,0,A
0.2607544851901439,55,629,0.3947439821046639,0,A
0.34951769101112706,54,477,0.3822544912103189,0,A
0.454671027934328,61,499,0.38817610389486107,0,A
0.528093450968738,47,613,0.1869447695318433,0,A
0.580219698075404,54,703,0.36116762888408677,0,A
0.6358465728544272,67,709,0.1491846710452517,0,A
0.8729606178338063,66,496,0.32965613843289704,0,A
0.9107891426993303,60,609,0.27009926495341324,0,A
0.9522732829381994,59,593,0.26013616099847986,0,A
0.9755551138543048,53,691,0.24982429564154635,0,A
0.9907566473926093,44,450,0.24655835463264947,0,A
1.0892558998489976,62,617,0.43718621335497765,0,A
1.122793516254194,70,334,0.270804732917438,0,A
1.1392558998489977,62,519,0.26572854834732307,0,A
1.2284840494377467,59,556,0.31023476825496665,0,A
1.2703018958895178,62,408,0.2925554084233833,0,A
1.3278646464236612,58,596,0.3301547342333612,0,A
1.4367783132719254,71,511,0.43923257534919025,0,A
1.4761619615328718,50,509,0.3791031947043047,0,A
1.5016587828927859,47,493,0.3068562974806027,0,A
1.5040775141554765,60,687,0.4706604953678462,0,A
1.6093102767805902,61,719,0.15599585523162018,0,A
1.6341066351050262,63,655,0.26432549742318057,0,A
1.6659984046034182,61,439,0.4307142754282428,0,A
1.7005061583846222,54,478,0.31748330119914714,0,A
1.7691895197692697,50,502,0.36565536086338296,0,A
1.7779875545857629,54,629,0.32322536971610033,0,A
1.8093674767828096,49,687,0.2228219250506741,0,A
1.8849223410494182,66,789,0.382206015999449,0,A
1.9280772362440861,60,587,0.2862728182902184,0,A
1.949251769381887,58,514,0.3625667347765006,0,A
1.9966654819043677,65,448,0.2153206281931595,0,A
2.0556801262458353,61,511,0.33853173797288366,0,A
2.105680126245835,61,605,0.4057423508862376,0,A
2.1293591844264497,64,651,0.3513785950912209,0,A
2.1795792669436107,57,522,0.37589692204932673,0,A
2.1798295178966782,87,698,0.43308813279720854,0,A
2.2465598018132464,58,635,0.1211503495019503,0,A
2.303734818874922,56,606,0.4088950596967366,0,A
2.462289047581901,51,784,0.5389035957392463,0,A
2.5173294320070854,73,534,0.25250546888390435,0,A
2.554922666470613,67,637,0.4266406855372875,0,A
2.567329432007085,73,551,0.14806300340459863,0,A
2.5795186194768713,56,522,0.1330867640909468,0,A
2.6116072640506927,63,507,0.37746340534293366,0,A
2.649161587511684,59,589,0.170505752552014,0,A
2.7615850098052226,56,744,0.31307405772860913,0,A
2.807056874740044,48,606,0.27975424741684485,0,A
2.8458252890491527,50,607,0.3686848512765971,0,A
2.8585775581273474,60,758,0.3662130674521047,0,A
2.9069361300875176,62,579,0.23773004801794062,0,A
2.969673716536416,67,681,0.33072995208766093,0,A
2.9844875310969465,56,564,0.23777628350937208,0,A
3.075061475164087,65,477,0.12123283880682179,0,A
3.101083765148031,62,609,0.28698569456323153,0,A
3.1320049601030626,60,685,0.27607752021302445,0,A
3.1428994027375032,66,730,0.3813509636000638,0,A
3.232866454536993,64,679,0.41581108735000677,0,A
3.2791579043725863,54,390,0.29911829537541923,0,A
3.3101122676122805,61,552,0.249305682462887,0,A
3.3142991682052854,74,735,0.36138413414754245,0,A
3.508350071669869,62,685,0.4475356216949552,0,A
3.581279956725752,61,736,0.23357725566955773,0,A
3.7468660641994145,58,517,0.33227185603380893,0,A
3.8285712086281882,57,606,0.34576764544288385,0,A
3.896930253561912,78,556,0.34062266850499284,0,A
3.899296479611932,67,522,0.30976760985488316,0,A
3.9077734636965005,45,787,0.3341755975777159,0,A
3.9277381182981155,58,703,0.16449420444820675,0,A
3.9280963189592253,74,519,0.5189802933217672,0,A
4.016261693934491,49,717,0.4831458765854354,0,A
4.098727612931496,56,490,0.3295477524423183,0,A
4.141481950233768,59,625,0.29445150417023264,0,A
4.167170068440587,64,727,0.14658858292643775,0,A
4.176898741518053,57,463,0.14008765274625173,0,A
4.1999717673286145,62,604,0.3005243699718183,0,A
4.313401522845065,67,687,0.4489045173884479,0,A
4.321296416150892,68,481,0.12412605135768856,0,A
4.385218150031855,76,575,0.4755340842443204,0,A
4.478365301274114,43,461,0.4628615545571292,0,A
4.486236370874675,59,571,0.3796405429696327,0,A
4.512887972191065,62,548,0.20601202136726446,0,A
4.563340085431673,46,592,0.28770886934485446,0,A
4.608870253375705,59,544,0.19647576775806258,0,A
4.6192289018808665,51,544,0.21845009267115112,0,A
4.650341727085485,50,604,0.28980504875201435,0,A
4.7209349323336705,64,369,0.27249483028483557,0,A
4.787357862410677,66,526,0.2379636277464448,0,A
4.8107172011339765,68,354,0.45237874101938086,0,A
4.874747093813375,64,907,0.3311250154543536,0,A
4.937728416310461,54,768,0.1918451996385605,0,A
5.043165954622967,56,739,0.23315980316967316,0,A
5.053710654181853,67,653,0.45231240772696574,0,A
5.1986515248792955,49,656,0.16014324261808585,0,A
5.418656702405127,53,349,0.2454830800668156,0,A
5.539785559904571,65,675,0.2423228669431667,0,A
5.7279979093660245,54,523,0.3570598668593159,0,A
5.7507610378684415,45,569,0.25413807230570007,0,A
5.761062004244159,65,593,0.133847993773104,0,A
5.833660427819387,50,676,0.23980313211036153,0,A
5.941184091414722,64,637,0.27969546139570073,0,A
5.984182877675822,62,551,0.25881230338775324,0,A
5.993834045682099,55,758,0.3488044079378749,0,A
6.143913490857016,54,705,0.0769670092374111,0,A
6.150272039009242,53,578,0.33269273737641625,0,A
6.187720054081305,56,559,0.4201213922163945,0,A
6.290647211096449,52,616,0.32869412612242976,0,A
6.379402518927023,64,827,0.3632781866106285,0,A
6.431172206779548,66,607,0.21439161740911328,0,A
6.476245868574062,56,682,0.2652473266227045,0,A
6.584645229173445,57,555,0.20212362842176923,0,A
6.6720036536546,63,700,0.4385903321291099,0,A
6.734569599350384,45,665,0.4496044311489183,0,A
6.901811018382076,59,659,0.4782163618536079,0,A
6.992249938117721,53,788,0.34714683571359956,0,A
7.000463202300452,55,434,0.19878956247398322,0,A
7.011323804584067,70,709,0.3055724912288694,0,A
7.053739560293783,58,727,0.36281400134806696,0,A
7.059127543574484,55,707,0.2866599142108456,0,A
7.14524395161326,53,572,0.27542569359140556,0,A
7.2914845901068,68,498,0.1155094759703906,0,A
7.341462412372692,64,605,0.557335980324986,0,A
7.589805428944061,55,596,0.24531410587596078,0,A
7.67755276166949,55,334,0.43885822690402876,0,A
7.755964033130811,57,459,0.26285591340042086,0,A
7.802709599250337,54,609,0.2271684850052114,0,A
7.8156152597366075,53,727,0.3935678393147461,0,A
8.009944139275921,58,505,0.38138639081236053,0,A
8.12049842954157,64,632,0.26904535606860097,0,A
8.137969240816714,47,471,0.36060099513456395,0,A
8.142142455059236,49,518,0.17584987690508774,0,A
8.286846797589778,67,566,0.29690417493634264,0,A
8.294845330696203,74,639,0.245508091319105,0,A
8.463347821982602,70,558,0.23771454968987166,0,A
8.501099582865834,62,766,0.3982690983945514,0,A
8.527230732651923,61,640,0.2021627222384968,0,A
8.565142038835171,46,652,0.25308522798050653,0,A
8.75189177052827,68,619,0.2651986913703161,0,A
8.760315210946624,55,507,0.15933389031517775,0,A
8.856640464029674,49,569,0.5081314656765141,0,A
8.903118313506113,64,599,0.14808200170138228,0,A
8.959684284891674,54,529,0.41492733262856757,0,A
9.224640203323894,63,491,0.3532595109370551,0,A
9.259023066686892,67,575,0.22728628241751314,0,A
9.291731357546208,49,706,0.2773754780991324,0,A
9.31205668857771,64,552,0.3222133771633713,0,A
9.318057534512716,66,644,0.3133847654246,0,A
9.348942496364296,60,620,0.3429618219132586,0,A
9.386204265098915,56,459,0.38865174125690544,0,A
9.397105824516519,58,668,0.29604448461433447,0,A
9.431529033783043,71,703,0.3196554776511574,0,A
9.488597774823601,48,658,0.16505364285744764,0,A
9.687470167268401,65,722,0.3047017213123745,0,A
9.762750546321818,54,745,0.2554497478599228,0,A
9.804209318963617,53,479,0.10663216988924396,0,A
9.81104741131312,49,499,0.20813480535158016,0,A
9.994996118395003,67,595,0.2786011155774491,0,A
10.022048620907018,75,460,0.1688564751788358,1,B
10.096910263014081,70,454,0.27102521239949273,1,B
10.099116862613679,65,762,0.4167102914383636,0,A
10.122381761482261,86,432,0.24689191507833222,1,B
10.187746086263038,72,468,0.1693605654757807,1,B
10.188874807986897,75,431,0.25418048269527355,1,B
10.22201832019498,68,498,0.21118939758194494,1,B
10.272342011368858,72,499,0.15795456009760725,1,B
10.367801615255905,79,537,0.11803018661679719,1,B
10.369747146166928,75,622,0.2504260412389291,1,B
10.400638587171683,76,501,0.12553034701753468,1,B
10.419747146166928,75,565,0.2554351790291454,1,B
10.425980358106415,72,673,0.2322742090570538,1,B
10.481796702411906,74,602,0.2014372411467409,1,B
10.482581675056474,69,444,0.15832205063603666,1,B
10.510250972799065,73,532,0.20877729149452542,1,B
10.55412665786761,71,548,0.21395107628851698,1,B
10.758217046017625,79,455,0.12384065476081127,1,B
10.7758263195929,74,337,0.1934480796500502,1,B
10.827325952699818,75,647,0.19504120681103088,1,B
10.869368222578146,68,604,0.2560926594713424,1,B
10.899712450015768,63,535,0.0900597021689959,1,B
10.903113408288448,64,493,0.272188230203663,1,B
10.98940992036791,65,446,0.16445640347943796,1,B
10.996819342791468,78,481,0.21348346786985356,1,B
11.003252617949121,73,492,0.23545018787942562,1,B
11.011730818896236,80,439,0.21874889691698546,1,B
11.026899340443507,67,579,0.16826974823533217,1,B
11.043030589489943,71,510,0.1284612448940976,1,B
11.045522014908176,69,373,0.07880603366855217,1,B
11.148050694725779,76,467,0.18683390486930182,1,B
11.155964868348688,77,503,0.15618406660129094,1,B
11.19866625932671,71,620,0.14208176554037288,1,B
11.207857849715499,65,643,0.18594498535570225,1,B
11.303158614482559,82,531,0.21789628643458844,1,B
11.310456784033436,75,573,0.2699677718293001,1,B
11.406035208399052,73,461,0.1674290998192776,1,B
11.445231828451824,74,470,0.30912535120885437,1,B
11.489481665606048,76,515,0.26586970328171633,1,B
11.518211791568865,75,737,0.25646622187697504,1,B
11.51995424509291,68,587,0.21057974851901967,1,B
11.571920177827222,71,509,0.20190017390841003,1,B
11.637103876298454,71,583,0.2112225909279986,1,B
11.65923503285933,68,610,0.2738270174862948,1,B
11.687103876298455,71,369,0.28904146064833214,1,B
11.724723107440312,79,584,0.1921634800888737,1,B
11.790903252066558,68,497,0.16641883160309742,1,B
11.807349674732995,72,579,0.13585038879057154,1,B
11.839108153665169,64,462,0.258041339368926,1,B
11.896982104507847,74,478,0.12220506747550523,1,B
11.903667142693347,77,597,0.26112504574434403,1,B
11.970677721688538,69,472,0.18256739327960705,1,B
12.004157285905032,60,536,0.20696712968106323,1,B
12.026974961151693,71,444,0.2024192559142902,1,B
12.086791829451995,77,667,0.055187231090315536,1,B
12.093660569229488,76,506,0.1959641709945709,1,B
12.130792994159112,71,551,0.15307660448970759,1,B
12.267260211822505,78,543,0.19180195601990394,1,B
12.283811528964803,66,529,0.20752094525717885,1,B
12.339386440565407,65,523,0.16141858387915609,1,B
12.356701626098658,74,528,0.2282201493946633,1,B
12.365784530460296,71,525,0.21643812051517403,1,B
12.393094869550689,78,551,0.25935151527801903,1,B
12.454448909796076,72,368,0.1360988708281812,1,B
12.469546720668978,66,448,0.09233049431981427,1,B
12.476228513477652,70,487,0.268785340665581,1,B
12.560344859338128,64,622,0.25448324325082305,1,B
12.647918187762963,63,581,0.11773006265215541,1,B
12.660790509279336,86,546,0.2339986537758378,1,B
12.67181230762264,76,508,0.2140595711984688,1,B
12.830728996492619,73,573,0.26960011431722997,1,B
12.848587175918622,71,421,0.1564713691869122,1,B
12.912188609333684,62,422,0.2275026049512276,1,B
12.918143834769552,83,512,0.21111413587291422,1,B
13.004341253285471,66,511,0.22359806666233045,1,B
13.060161182014623,72,443,0.20202958456019413,1,B
13.061098098885088,68,475,0.2574709864131858,1,B
13.09000231233979,64,442,0.16535474011020465,1,B
13.102363858604622,71,629,0.26122922188130715,1,B
13.116801420774475,75,485,0.22068995487257492,1,B
13.162385932467647,77,400,0.3111347814567538,1,B
13.240431876810417,67,455,0.28388504070382203,1,B
13.259447633518606,73,533,0.19989581012899083,1,B
13.30676125635921,68,582,0.23506865324196116,1,B
13.335499630583183,67,438,0.20170417341296132,1,B
13.372433881712862,62,411,0.2281672731252512,1,B
13.44652056122836,72,420,0.1659556358980459,1,B
13.453582768447296,75,427,0.194438696932565,1,B
13.49652056122836,72,533,0.2836286193418852,1,B
13.512771348363511,75,414,0.22911979799920315,1,B
13.53601364074714,66,540,0.10818973134483517,1,B
13.539698151707416,84,566,0.14342734896737852,1,B
13.54652056122836,72,506,0.23900390898582916,1,B
13.562358568800263,79,475,0.2096024558245016,1,B
13.608091928305113,77,471,0.14060435956789677,1,B
13.611636639788534,72,593,0.1780706396871352,1,B
13.669495108890233,72,586,0.19954405016778984,1,B
13.687797432044494,73,446,0.2160848903098007,1,B
13.702581190694936,70,504,0.22538788351557504,1,B
13.750256607646332,65,451,0.18473876478226664,1,B
13.760625293775085,74,542,0.16747934826450034,1,B
13.843951168863278,73,543,0.16033590530831635,1,B
13.865020109239802,64,619,0.1893278564534896,1,B
14.06950352288584,68,468,0.1848765156755936,1,B
14.113071037674006,71,459,0.2494684719141066,1,B
14.141412975252878,64,560,0.2270731364102394,1,B
14.16238958362915,73,574,0.07230394325490228,1,B
14.17693048936412,71,468,0.1912843147482626,1,B
14.253531013145244,71,497,0.15029468834789037,1,B
14.254795948897355,79,497,0.19207352134865152,1,B
14.373735707738765,66,464,0.08486515052276418,1,B
14.404167290060222,73,435,0.17725898420557734,1,B
14.42965355812875,79,447,0.2600206953972213,1,B
14.463666968216705,68,404,0.20841975962376233,1,B
14.463720147680812,77,523,0.23710476860046537,1,B
14.468813470608639,62,492,0.1796638458476708,1,B
14.473743376872132,72,510,0.3006693623763312,1,B
14.509839564971324,79,579,0.23594766553325336,1,B
14.56246635688541,67,459,0.13737054938172522,1,B
14.677463378063763,74,448,0.30825011724505424,1,B
14.719747048985978,70,565,0.21537033489045504,1,B
14.728590678923899,73,567,0.21329492399069241,1,B
14.733826750599434,77,342,0.14775954029894833,1,B
14.743940498969428,75,461,0.20738496626133884,1,B
14.746053949727397,67,558,0.22454874758191257,1,B
14.777644744649956,65,526,0.22514502024570682,1,B
14.816481481572927,72,447,0.2199843975876321,1,B
14.956502199285884,72,530,0.23766708105522663,1,B
14.963629135397907,68,479,0.2239044998313728,1,B
14.973280154476608,85,348,0.2537716531552519,1,B
15.04014943158611,71,547,0.17097382750976386,1,B
15.05550849493021,76,458,0.2723251967973289,1,B
15.078379178448522,65,501,0.19329914166635412,1,B
15.174573378273106,63,463,0.1446845909385829,1,B
15.20032182636041,62,455,0.2631292051713591,1,B
15.207705827913415,70,555,0.17733859753363626,1,B
15.226982072012802,75,604,0.19964786005376323,1,B
15.239152569817765,67,439,0.2840546157465244,1,B
15.256148458795934,84,581,0.2604183115296571,1,B
15.264232552590505,87,444,0.20632245114117312,1,B
15.322061195271102,81,418,0.23154058422773888,1,B
15.332819275360912,77,489,0.15783696978531286,1,B
15.363617736470804,83,520,0.18251939066110984,1,B
15.429872557358857,61,484,0.2516481973576403,1,B
15.4587769360862,69,511,0.14401912833554945,1,B
15.484193356679162,75,406,0.17336495801690444,1,B
15.572793930697356,54,487,0.056435866852126954,1,B
15.613535408227749,76,491,0.2613466611942154,1,B
15.62495461998493,77,619,0.15984105246598276,1,B
15.62617056837357,70,482,0.21775112272107583,1,B
15.806265320345515,70,570,0.07878798698635292,1,B
15.966378968617539,72,374,0.22579696088520498,1,B
15.973082096498052,68,545,0.14448002413519898,1,B
16.008172534574655,82,266,0.14639304940071968,1,B
16.011409578488774,69,550,0.17290825061656792,1,B
16.061409578488774,69,504,0.14920890905108017,1,B
16.08601396933492,70,530,0.20761577567883122,1,B
16.14117655415843,75,501,0.30287477348558495,1,B
16.175675150568843,66,507,0.1276935983719919,1,B
16.178627819938384,68,461,0.16004039966748734,1,B
16.180640361723263,67,495,0.16763796810059767,1,B
16.249781250803412,77,439,0.21493764541828433,1,B
16.279285441903365,73,586,0.29366488881087727,1,B
16.282210316060006,79,353,0.17159288350828328,1,B
16.29849896561407,71,506,0.16320707753385827,1,B
16.31521042832221,84,501,0.14662335428728637,1,B
16.318422483923786,69,560,0.21489911181887258,1,B
16.369589911816863,68,473,0.2514980408790581,1,B
16.3967126615259,80,496,0.2132528022420156,1,B
16.452739962212252,70,526,0.2289816586606788,1,B
16.48819277583045,64,502,0.18723740289488733,1,B
16.633520804737074,75,454,0.15800595517446323,1,B
16.634794141158203,69,474,0.2807687844734721,1,B
16.63577982653253,79,498,0.26484972732805545,1,B
16.67102427986232,70,486,0.10223617868449496,1,B
16.730531067669663,83,394,0.2514341305348196,1,B
16.7686327196686,79,541,0.1798966627741665,1,B
16.783704112524283,77,510,0.1327010159876626,1,B
16.797910493801503,66,405,0.21621796408608016,1,B
16.811258039041185,69,647,0.21836436567006703,1,B
16.867073231190574,66,363,0.20750680581856923,1,B
16.87539619035967,77,552,0.17366222836725048,1,B
16.885834167679903,74,479,0.22565528990880415,1,B
16.886456360952256,58,567,0.0913665226992982,1,B
16.897680032851056,70,482,0.15287173042784674,1,B
16.901240403627725,60,371,0.18518662782455592,1,B
17.05932215701073,71,505,0.19155891384049947,1,B
17.09028949951919,76,571,0.2214156481236748,1,B
17.20938572848233,78,551,0.2132577763649444,1,B
17.282928679931672,73,283,0.2500523046283571,1,B
17.31042248028083,62,307,0.18717060349089132,1,B
17.363130755309196,81,506,0.23710637455359462,1,B
17.389252328995482,76,410,0.30526012006040054,1,B
17.419609771273837,59,560,0.1247639812984499,1,B
17.42069925784384,70,586,0.20034341274695186,1,B
17.425439158084185,69,482,0.08961245418087156,1,B
17.43452231428017,73,501,0.2538003569299299,1,B
17.45720486433693,68,509,0.10624137651771277,1,B
17.49317537194328,67,429,0.19028342272898358,1,B
17.527473152551952,63,566,0.10710039791877979,1,B
17.571403264446687,70,571,0.12094046489839333,1,B
17.58237903842213,72,443,0.1692613567421541,1,B
17.612102500048522,74,460,0.2760699248915961,1,B
17.621403264446688,70,513,0.167499870958827,1,B
17.701170661073093,72,448,0.11514513075068741,1,B
17.76360960464096,74,560,0.21033620236224973,1,B
17.787369859346637,68,408,0.2180751762603051,1,B
17.81230032951238,60,568,0.23663246803645416,1,B
17.884560436298994,79,642,0.16768863450780985,1,B
17.978898515992086,80,523,0.18749767427005237,1,B
17.991663523584126,73,444,0.10903460356676382,1,B
18.002544775990582,69,611,0.26551543730598043,1,B
18.034060416658136,71,588,0.16431230718646747,1,B
18.03745528870202,70,422,0.13927703596236693,1,B
18.060577924945274,64,452,0.1382825564060039,1,B
18.1038996012575,74,470,0.19558185203973324,1,B
18.116002493646327,61,492,0.18225063579433562,1,B
18.148558969965947,72,491,0.17621473681344016,1,B
18.21541450431786,82,551,0.31156500730963166,1,B
18.219462383670496,70,341,0.17639547111514364,1,B
18.238551190473704,73,336,0.22644789681962602,1,B
18.244044135031253,75,430,0.14682989967145246,1,B
18.25804676009938,76,411,0.19140685067683544,1,B
18.262623432142117,56,588,0.18569978890599448,1,B
18.3039459532891,83,379,0.3322171673508517,1,B
18.322774973610333,73,471,0.28845583501316435,1,B
18.446267560506552,73,531,0.1993264089167421,1,B
18.449232548000133,78,495,0.211161945706458,1,B
18.476179819137784,68,306,0.21202356246651036,1,B
18.48635475225147,61,427,0.2630960750356996,1,B
18.510926421030977,73,590,0.19025458598236597,1,B
18.56877220424307,77,467,0.25505778811236435,1,B
18.58469688542072,71,686,0.2501783280091643,1,B
18.592638260673024,73,468,0.19906456217770513,1,B
18.60143152776672,76,448,0.22580891435574793,1,B
18.621070496386736,67,568,0.17321933307872941,1,B
18.707290183536806,72,438,0.1196220067815513,1,B
18.707686207527633,80,485,0.20015420634125136,1,B
18.72323843230562,77,487,0.16850473726407939,1,B
18.74071064891258,70,508,0.17257801640865053,1,B
18.74876278096674,74,440,0.19184665180281182,1,B
18.794768802596465,71,517,0.10531926665231073,1,B
18.835781408411375,66,500,0.21675185626312338,1,B
18.844934974203984,78,599,0.2900255590755427,1,B
18.864047604217603,76,522,0.20299663151331643,1,B
19.006268962162206,65,430,0.24125491323338175,1,B
19.049669542281816,77,467,0.1652643434455471,1,B
19.056268962162207,65,440,0.20326340976712767,1,B
19.062955769689196,68,576,0.2007689490686053,1,B
19.136023391880066,76,582,0.17559015013838766,1,B
19.22980522086397,73,464,0.18576584821637082,1,B
19.236005046590122,72,548,0.20002639794282986,1,B
19.263271187874885,75,515,0.15917980069494791,1,B
19.268701926650348,68,489,0.07805914208617855,1,B
19.286005046590123,72,515,0.20443287954807188,1,B
19.336870717086505,68,463,0.19261098405912644,1,B
19.382217988681667,80,538,0.18016689200890412,1,B
19.439513090761178,66,473,0.23191959628041917,1,B
19.46778132003103,62,530,0.24089448290125146,1,B
19.48951309076118,66,390,0.25375879678342295,1,B
19.511151221232154,75,509,0.11280759416835512,1,B
19.637909404867223,70,295,0.1502825312695744,1,B
19.74640951594538,70,543,0.20112329464060233,1,B
19.767754226745925,78,509,0.16382685955648563,1,B
19.826558283295892,72,400,0.2774510075747594,1,B
19.877015821175743,81,515,0.18811524376551797,1,B
20.097419444381636,48,624,0.3173341664370408,2,A
20.105784444944717,73,605,0.35370908330611434,2,A
20.13029157288332,59,582,0.13568111888458326,2,A
20.31958330841343,62,639,0.20058199075982125,2,A
20.567413029553613,71,474,0.21891424887896616,2,A
20.591748584313205,57,633,0.1164288725958979,2,A
20.950060357115483,55,684,0.3224625785389019,2,A
20.99579341210569,64,618,0.1392338972881941,2,A
21.004389994264315,55,476,0.2799250836447136,2,A
21.020918546540805,56,440,0.35885532697707195,2,A
21.16223432646174,63,601,0.34258872061930357,2,A
21.17573102071346,59,503,0.17566760715939012,2,A
21.201210311677627,49,688,0.36045153263553664,2,A
21.25650853124529,66,756,0.2993648443227131,2,A
21.342870202098663,56,551,0.29802509064653726,2,A
21.428888493890938,65,535,0.2818775826781897,2,A
21.522085278296323,61,445,0.281058632901845,2,A
21.53571211593007,70,679,0.23153701742399957,2,A
21.556407402883373,71,528,0.1755168761781843,2,A
21.591823908667564,55,504,0.3014273067836434,2,A
21.618613589775357,49,557,0.38868873900973,2,A
21.635305039160052,75,692,0.28108796092229665,2,A
21.67803655030071,57,640,0.05,2,A
22.065465068686624,65,631,0.1221412415993483,2,A
22.08108785810082,56,703,0.395772765366201,2,A
22.115465068686625,65,526,0.05,2,A
22.200147382208662,51,485,0.36793732829565035,2,A
22.332529513402335,66,553,0.3579643229322647,2,A
22.359063783399495,55,780,0.32285765275178974,2,A
22.390194019674947,50,742,0.24024898053083582,2,A
22.52653261375558,63,679,0.14115354595824417,2,A
22.53692807702159,84,699,0.4081942059740849,2,A
22.57144241640716,56,799,0.32502002062516944,2,A
22.633561045427022,51,693,0.40582070469439074,2,A
22.656207279440295,59,490,0.36687416555925123,2,A
22.686169090378772,66,544,0.23827468134530766,2,A
22.702519341395963,56,564,0.14821262533191903,2,A
22.770487101004377,61,781,0.43196444944772994,2,A
22.88000034817641,60,709,0.08466570801287554,2,A
23.030978785920954,65,705,0.260798736008087,2,A
23.15717459831442,64,536,0.3069746848841049,2,A
23.23529585034528,47,537,0.4112688374989925,2,A
23.43739210470133,61,711,0.35017827361675447,2,A
23.46854438832224,72,583,0.2567762160835373,2,A
23.62778527760902,71,433,0.24929243844764942,2,A
23.69803687409427,60,576,0.22415046652999304,2,A
23.720533293870734,46,694,0.28719582937253885,2,A
23.734652416795324,52,534,0.15034707449099208,2,A
23.80755836138546,49,618,0.2916615724725707,2,A
23.809206698608303,73,470,0.43404610517903475,2,A
24.027109625376465,68,655,0.3271495310825648,2,A
24.070662986987927,66,692,0.14250205305669758,2,A
24.20153948916919,62,651,0.14688924974442777,2,A
24.245025424614347,59,561,0.3497485257305658,2,A
24.267246049802562,63,582,0.2976447849125762,2,A
24.401374555401198,53,508,0.23094589476837404,2,A
24.443440331900725,73,470,0.43814540786904865,2,A
24.471405272337876,65,656,0.335918304919208,2,A
24.66728716685987,53,645,0.34078767823753214,2,A
24.682298380504243,60,648,0.37426824183597224,2,A
24.73711129384308,50,676,0.3153831916078257,2,A
24.753833194325637,53,630,0.1618955396846225,2,A
24.7787387026753,65,524,0.5141383118511077,2,A
24.8427601333704,75,545,0.22333434122166518,2,A
24.930104607783502,66,600,0.23096133738613236,2,A
25.016046261427192,56,634,0.37903718960517113,2,A
25.07644407280762,73,530,0.1981750355671772,2,A
25.12891874462967,51,894,0.21745894700210447,2,A
25.135688597517184,69,553,0.404896994259117,2,A
25.287631943314306,60,514,0.2770200369424806,2,A
25.295281501700323,50,670,0.16366273752788416,2,A
25.343921060125048,64,635,0.1896976544529502,2,A
25.385881677116892,67,642,0.34826878872092126,2,A
25.469394959051094,56,697,0.27049100857620934,2,A
25.50835543375115,67,642,0.2718980352728414,2,A
25.622236130474896,79,462,0.34329598253606963,2,A
25.842894433343098,55,638,0.4870965175371782,2,A
25.86314189212192,58,608,0.1986104047707462,2,A
25.870214609618266,60,701,0.17028313781151236,2,A
25.93372065755666,63,552,0.2193932441250195,2,A
26.050780506395963,49,594,0.2700323351993213,2,A
26.147425502097782,76,490,0.39584765276047545,2,A
26.318344219640434,53,723,0.2936475425384645,2,A
26.333362839583778,66,743,0.2761087158015971,2,A
26.343347223275654,56,531,0.19221281886228098,2,A
26.354176096426844,55,720,0.32112836922794724,2,A
26.393347223275654,56,694,0.27242978070791335,2,A
26.40687136777249,55,689,0.07944339429009306,2,A
26.521766739958146,70,811,0.27910458447759856,2,A
26.751800806640556,64,513,0.3409762795959497,2,A
26.762047378505294,54,615,0.35288313018130196,2,A
26.776651504953353,71,675,0.3414647985104783,2,A
26.815647671600455,74,515,0.2781954104607626,2,A
26.83138268082254,54,531,0.22419146733128004,2,A
26.842485084286906,60,509,0.3902277173786647,2,A
26.8889127923941,59,710,0.48646250568230787,2,A
26.92187156129989,52,661,0.1474070281227404,2,A
26.963637428153437,50,659,0.21049301577233953,2,A
26.969235892246203,72,594,0.30983101922381023,2,A
27.00883849469855,52,553,0.4434734979664344,2,A
27.013637428153437,50,667,0.4164665208501572,2,A
27.025957644927605,59,443,0.3349650047299694,2,A
27.099615767349977,57,631,0.33350580290841175,2,A
27.106725591396838,69,636,0.21887428808628073,2,A
27.241119151799563,62,540,0.4214797056894385,2,A
27.25661806912261,68,662,0.16877808065685937,2,A
27.38371196278317,70,802,0.40714113018874915,2,A
27.422887546248454,72,615,0.3703641615793175,2,A
27.49291395200165,62,662,0.08999734923483757,2,A
27.499067915706682,57,518,0.4563413358832108,2,A
27.545476434255374,67,717,0.4189515042665042,2,A
27.61562065686877,66,768,0.4230874513154735,2,A
27.650035944621663,68,468,0.40776513095291433,2,A
27.880281093482562,63,655,0.3043514668643466,2,A
27.883736707977125,64,684,0.4330867180367167,2,A
27.915369104284533,46,615,0.3538798158769262,2,A
28.005198935197885,66,554,0.2926052434391607,2,A
28.206701653775237,56,525,0.27941405691196597,2,A
28.280264031235408,67,682,0.3253165238037981,2,A
28.286299683136004,58,510,0.3211878678651823,2,A
28.2973382619166,69,581,0.287988635678863,2,A
28.526856216745486,46,538,0.2537184313660489,2,A
28.612967897822546,68,470,0.22300039338025424,2,A
28.721050693966657,56,688,0.33320652491644065,2,A
29.056340836448513,56,630,0.26403703275475376,2,A
29.13064634680441,53,367,0.18141394528697968,2,A
29.162399848553026,59,591,0.1223753666533548,2,A
29.219516651721996,66,592,0.4702696488347936,2,A
29.24925690707546,69,695,0.2937995990633968,2,A
29.28622029736595,63,572,0.10723274206543898,2,A
29.345398991120103,57,634,0.25084388414019154,2,A
29.55677273179324,57,476,0.5684674238064074,2,A
29.666166725963055,65,490,0.3216775563762629,2,A
29.81828377798702,55,489,0.3833333911780307,2,A
29.90870172183042,61,619,0.417972520836071,2,A
29.97959263871449,64,531,0.20221627996287142,2,A
30.0263247346518,54,722,0.353481733634591,3,A
30.14583235945876,54,682,0.2738294932321773,3,A
30.323814665366573,59,688,0.2930421791078774,3,A
30.417070836331252,57,386,0.31412571400874634,3,A
30.44872653541001,75,717,0.15989971618439158,3,A
30.505024300982306,60,719,0.24878542676518667,3,A
30.51606795847119,58,557,0.29544877546987575,3,A
30.523747855675232,61,518,0.21065067661123915,3,A
30.623693332490674,65,582,0.48486088332964117,3,A
30.675076964921114,55,555,0.33250141362565416,3,A
30.92654964074292,72,686,0.39854496856152183,3,A
30.934508374551335,65,619,0.3505404273430997,3,A
30.99471614629004,56,653,0.33313416467793405,3,A
31.09633603204462,67,539,0.44726706757509815,3,A
31.13433867021778,58,484,0.2531566151719633,3,A
31.209236052811153,62,608,0.18523086101843325,3,A
31.36619136326372,36,681,0.3824749006572298,3,A
31.400687796221984,65,429,0.18825818264866037,3,A
31.427163318127455,55,516,0.2507244788805921,3,A
31.483094917105525,44,542,0.33525049683568797,3,A
31.48845868882298,47,489,0.4135620147182944,3,A
31.549281958453303,66,479,0.13752020098970105,3,A
31.773300010722288,58,619,0.3543479378670093,3,A
31.78209810172994,75,578,0.3809889321661117,3,A
31.882655107419172,66,609,0.28772910664042756,3,A
31.953229187595173,58,658,0.12556692807217423,3,A
31.9980568227061,72,607,0.36021183203924834,3,A
32.02265216260364,75,665,0.1583566371803806,3,A
32.057763175434474,68,590,0.25288753481821213,3,A
32.096972363279825,44,558,0.2139614989220498,3,A
32.18057145256685,70,536,0.19219378500362855,3,A
32.32212386964464,69,558,0.2536838637914601,3,A
32.37212386964464,69,581,0.34107621895758844,3,A
32.541766699581736,62,617,0.20929918416173404,3,A
32.54755961918224,50,616,0.2687578208504951,3,A
32.55621888110649,60,617,0.26574507991422347,3,A
32.74032077561336,63,642,0.34033003902452813,3,A
32.80701081396417,70,560,0.1797850473923911,3,A
32.810587431821354,51,715,0.12130542686601514,3,A
33.041918287590256,47,775,0.3321593211339238,3,A
33.18861817721298,60,742,0.43704096939838666,3,A
33.267743807122876,73,570,0.24973803861682403,3,A
33.283292971557465,62,614,0.4200531658473873,3,A
33.39150607325177,65,835,0.25267349531669514,3,A
33.43252111962767,38,641,0.2905541285557997,3,A
33.580543004304644,58,529,0.3579857285295132,3,A
33.59903323037941,66,566,0.3073434519241119,3,A
33.65464585417286,51,571,0.1838216156087636,3,A
33.693852978347365,63,528,0.18481316154132257,3,A
33.80237077536451,55,549,0.26263379217358296,3,A
33.839310390756,68,551,0.4655407113088295,3,A
33.88684095239475,58,409,0.3739653151724671,3,A
34.07873719581499,70,596,0.2910765845778551,3,A
34.12752391810376,51,575,0.39344277832313074,3,A
34.15498685627768,66,539,0.29009056997587307,3,A
34.18323635396616,55,663,0.3655040613781789,3,A
34.24500586394268,55,563,0.3841983695452127,3,A
34.54925353807149,44,667,0.23245188229600722,3,A
34.714924946974214,41,465,0.21936373028636985,3,A
34.74084555814092,56,590,0.3158053489920132,3,A
34.790845558140916,56,486,0.3525190390337728,3,A
34.84084555814091,56,676,0.15718515045549022,3,A
34.882606468454895,50,652,0.3978422112028035,3,A
34.97379509473983,71,562,0.18583281782606093,3,A
35.09884209939642,58,782,0.3892953870108769,3,A
35.161938996936726,47,671,0.1119989966092236,3,A
35.18505745280159,44,654,0.39280450710056924,3,A
35.21028425921582,56,645,0.39003985883950637,3,A
35.28183804247803,65,658,0.22757534679416594,3,A
35.35942418273093,72,427,0.39173151613587753,3,A
35.4226272430004,74,675,0.19498592603978543,3,A
35.50599433008621,62,515,0.20121266590992506,3,A
35.54785283699203,69,653,0.279097890034864,3,A
35.60815987200056,51,471,0.49114190871397234,3,A
35.79653027236312,61,795,0.4622193101549429,3,A
35.8089876851737,46,582,0.4058728529883879,3,A
36.052547030735674,66,629,0.3603247500571394,3,A
36.10011120941971,52,718,0.2287779236350949,3,A
36.110343411486134,65,534,0.45351487200075485,3,A
36.1556578428503,52,623,0.26219921009817826,3,A
36.15934613827056,71,475,0.41650321048394573,3,A
36.2056578428503,52,717,0.4355442801105496,3,A
36.317689695082485,57,627,0.2968487675576977,3,A
36.35488728015435,61,441,0.44182403547575644,3,A
36.36768969508248,57,537,0.2788333018068823,3,A
36.41283258621897,73,703,0.3702881798595122,3,A
36.43152394346504,69,506,0.3338552876285914,3,A
36.43269410243376,53,720,0.13673972543126767,3,A
36.48728594215666,66,599,0.4761188124867374,3,A
36.50256896448703,56,704,0.12618883604546133,3,A
36.847849107010816,62,832,0.4121857856230471,3,A
37.26136379029904,51,657,0.45898389781806836,3,A
37.26377741418466,75,516,0.2980531300922903,3,A
37.30209341178278,58,584,0.26258197240098163,3,A
37.31899361364586,64,670,0.4796360822926964,3,A
37.467566290220816,71,374,0.24209546638318505,3,A
37.493472991548934,50,565,0.24806036281738733,3,A
37.506203676362986,60,645,0.08712659055851876,3,A
37.59977493890113,52,531,0.09350426124152647,3,A
37.68832736014273,45,529,0.16445524968877107,3,A
37.781372334372335,75,651,0.31725267829230896,3,A
37.84774161894815,71,431,0.48071966436378855,3,A
38.07343656764934,51,719,0.5165056067806603,3,A
38.13963126254994,61,555,0.22292629402991374,3,A
38.18030118815275,53,686,0.3078143062969647,3,A
38.382865290611946,56,689,0.22932702364807603,3,A
38.393956858902634,64,827,0.448911310832829,3,A
38.487513361862234,63,668,0.05,3,A
38.5439855639715,49,613,0.45292965508395333,3,A
38.5442577345934,62,714,0.42083478175735634,3,A
38.59024032761119,55,546,0.1707374652847737,3,A
38.59825212722573,61,559,0.23250659812094476,3,A
38.60595870973544,62,655,0.4400399794795282,3,A
38.64141410682169,55,657,0.3051783851198953,3,A
38.652340137092324,65,588,0.18589914902472615,3,A
38.660508951854176,64,471,0.17236955834616638,3,A
39.039779344093034,53,805,0.05,3,A
39.15056967437827,73,615,0.48972886947731115,3,A
39.19597910204062,68,659,0.510367310306172,3,A
39.307675806189,51,335,0.4770167615647273,3,A
39.314255655503445,61,389,0.39778155496862,3,A
39.31698870732204,46,631,0.31196002626671043,3,A
39.509842418910274,57,650,0.3110389639107697,3,A
39.62369239938981,64,459,0.4040188564792752,3,A
39.69224342836575,81,564,0.28168495289467055,3,A
39.733419271417446,55,720,0.4599156684528614,3,A
39.78743073341385,56,447,0.35956440575697196,3,A
39.797822066852795,46,546,0.35002404694365696,3,A
39.85485884150561,64,503,0.05067291796699222,3,A
39.869205055304114,62,493,0.2749812166792837,3,A
40.02101071929123,79,370,0.1687950643837145,4,B
40.035543933736406,81,665,0.19010311355076592,4,B
40.04183895333783,78,405,0.11337279878228232,4,B
40.04717398375185,73,627,0.304792175090458,4,B
40.069495311934304,74,525,0.2688248225009769,4,B
40.10064643577897,72,497,0.10799611277471237,4,B
40.12613330178854,82,352,0.1262881360552295,4,B
40.17346083007106,72,428,0.18199470236809068,4,B
40.28906584554619,79,624,0.2195835307807636,4,B
40.2896574658469,71,585,0.21145373441028514,4,B
40.29130414668899,69,522,0.1364969455643984,4,B
40.32468570275958,75,375,0.10825959851827222,4,B
40.40877882370582,83,396,0.20356268749554463,4,B
40.54003128361731,80,491,0.2591282863530436,4,B
40.62096902774303,72,485,0.20556863009200263,4,B
40.622065105962186,84,562,0.20003414094787414,4,B
40.67600055449622,67,364,0.15966268098952557,4,B
40.6781890912997,74,584,0.23800591881281807,4,B
40.68797524022944,77,536,0.18616820654192767,4,B
40.69656389752669,66,595,0.18579224510356016,4,B
40.73797524022944,77,424,0.29488835083729886,4,B
40.77452147426909,68,433,0.12909700390155318,4,B
40.806243132727786,66,435,0.19824961949968822,4,B
40.850057931743095,72,471,0.3106265519698621,4,B
40.88088263234918,65,557,0.1811328961526095,4,B
40.88586981212447,74,535,0.2275398786136832,4,B
40.894502406458066,67,598,0.14328018086467553,4,B
40.89562918815135,68,407,0.12459060728230358,4,B
40.966231373873086,67,547,0.23656901262874963,4,B
40.98730431470153,70,471,0.29032581053310047,4,B
40.99457497022261,76,532,0.17868657216617875,4,B
41.01623137387308,67,565,0.14284903439631358,4,B
41.018919579239046,78,644,0.20455504333030614,4,B
41.060431298224046,79,542,0.19241427832113855,4,B
41.169702416600444,77,474,0.2436098500036489,4,B
41.1725371600235,70,505,0.1535928680860475,4,B
41.23931217982072,74,385,0.20197235241203698,4,B
41.29420582194888,73,441,0.24982623169482904,4,B
41.344205821948876,73,375,0.17191087525849927,4,B
41.38799146267272,64,684,0.36215464847973666,4,B
41.44580286165841,77,338,0.15859018635173827,4,B
41.48202533189451,82,646,0.15022981984876263,4,B
41.50547327069252,72,392,0.18147086187996087,4,B
41.52196349285948,74,511,0.23397878425803206,4,B
41.55123928207323,64,616,0.12551812892819453,4,B
41.59288079606881,70,485,0.15024257590733103,4,B
41.699433030268594,76,464,0.2626421317213742,4,B
41.75383949792872,73,386,0.17186539877798837,4,B
41.786144568602154,70,499,0.27521071414149617,4,B
41.80383949792872,73,565,0.1593492813869935,4,B
41.83078191500264,68,439,0.16089982537444816,4,B
41.837686688034744,62,493,0.09622059954607334,4,B
41.85383949792872,73,447,0.13371031143228762,4,B
41.912249786196625,68,525,0.15543915259790503,4,B
41.92976502775686,65,537,0.141388312328168,4,B
42.10778565196091,70,625,0.2110175914636773,4,B
42.128418429571205,66,574,0.12686168464444397,4,B
42.193479551749306,72,516,0.19178323970573044,4,B
42.23103084821049,58,501,0.27229323298210156,4,B
42.273946923323905,66,431,0.22100957714474959,4,B
42.31790949393285,75,532,0.19329274118667714,4,B
42.32739880994703,72,490,0.1808591405193516,4,B
42.41920160847404,79,483,0.22404540463744477,4,B
42.47752345388994,68,381,0.2598593242311214,4,B
42.527523453889934,68,530,0.26188268787559993,4,B
42.538212349446034,70,437,0.18314059311044137,4,B
42.60805808122869,69,499,0.1605330747140163,4,B
42.6180158647733,79,470,0.14464215915987744,4,B
42.62040876611561,65,488,0.2705106902407204,4,B
42.66098127615485,71,389,0.1697916198342073,4,B
42.79260595598186,70,435,0.23313629132596336,4,B
42.83388234824232,68,519,0.2475007914334823,4,B
42.84260595598186,70,559,0.11650661666631347,4,B
42.891920803105414,67,428,0.10781032082596272,4,B
42.89260595598186,70,606,0.22978511250877576,4,B
42.94336943313208,78,580,0.18034736214692995,4,B
42.97939351334523,72,562,0.22857041938593903,4,B
42.99095484730125,81,456,0.2199014014980935,4,B
43.040187627123714,75,655,0.17228310163433347,4,B
43.074896315086086,79,546,0.1296592495251231,4,B
43.174860870858225,67,492,0.12504920197707994,4,B
43.19672711903707,66,504,0.07057916838979003,4,B
43.21234498658108,77,405,0.23763411576430288,4,B
43.28390996988001,64,553,0.2086127193205519,4,B
43.306844070924306,81,456,0.250400200214663,4,B
43.353534776806214,66,541,0.1416232892343652,4,B
43.35973123783312,68,467,0.08048478162652811,4,B
43.38475476330552,70,541,0.1360484631890107,4,B
43.386964968481266,77,488,0.2048485088380425,4,B
43.43220675351962,78,441,0.20932080848720233,4,B
43.548978586798874,81,528,0.09710166233016225,4,B
43.55324709078844,84,468,0.2645322230461274,4,B
43.55917169688929,75,609,0.14751722505450296,4,B
43.56171942271175,65,509,0.20384915707035772,4,B
43.572608485148436,83,443,0.18164647970091638,4,B
43.62260848514843,83,364,0.1612692514990709,4,B
43.655817118389095,69,484,0.2275393867558382,4,B
43.69226451396041,59,333,0.20142287905915796,4,B
43.755281487571885,70,636,0.19469402422153342,4,B
43.8106160353548,71,550,0.17558630787742277,4,B
43.861418624431955,71,439,0.12021816195551585,4,B
43.90619465185795,66,493,0.20993400047737035,4,B
43.984399347194255,68,373,0.1739568167424572,4,B
44.1285205802681,67,629,0.3074241424574388,4,B
44.13155331806637,70,517,0.15919810523028644,4,B
44.19662742977488,70,564,0.2799269056048171,4,B
44.2485634298414,71,561,0.21023794412008923,4,B
44.25147421937574,78,531,0.19478286035065542,4,B
44.254640707421274,67,515,0.13849308781209563,4,B
44.36831142857237,72,517,0.23548921452918442,4,B
44.4034431308574,79,568,0.18878405145609478,4,B
44.430096631963224,75,376,0.1647635782194558,4,B
44.43096917111058,65,590,0.23818488579240235,4,B
44.44255056592725,67,503,0.18181484419497423,4,B
44.44685569945918,69,550,0.18471904444658435,4,B
44.46166219781659,71,480,0.19535086042052494,4,B
44.593539448966844,72,613,0.1450689787411094,4,B
44.59381811725254,66,581,0.13906423356625622,4,B
44.618065754131194,78,624,0.16113142575770467,4,B
44.63872231412109,76,412,0.1509796295100981,4,B
44.680184016845345,73,485,0.2527429534605444,4,B
44.69829468795554,80,494,0.2443095594292398,4,B
44.70584579872376,62,348,0.18786506260873592,4,B
44.716802005219336,65,509,0.11592114501162798,4,B
44.84107315434917,70,585,0.20011439680717522,4,B
44.86647392049115,68,445,0.2848716090668385,4,B
45.07978046813418,71,311,0.2552470961115486,4,B
45.090993015816046,79,631,0.2309443149011577,4,B
45.096670614001916,68,519,0.1742608662542629,4,B
45.154971725516404,77,542,0.1891434462526899,4,B
45.15576886911862,69,508,0.10690249325629764,4,B
45.21290712469316,77,376,0.16440133863705386,4,B
45.21661849996105,71,486,0.22298902920251568,4,B
45.26661849996105,71,645,0.2153490536343119,4,B
45.309669455978835,69,578,0.15139238008986694,4,B
45.4021846711987,69,687,0.2179737898773563,4,B
45.57835015025887,67,574,0.192004198858228,4,B
45.615452082999134,72,271,0.224703195948776,4,B
45.62835015025887,67,436,0.12142109606604112,4,B
45.633581636464235,76,500,0.20912646401987195,4,B
45.645282480528515,75,412,0.21218286118513574,4,B
45.70869670202568,71,567,0.22150328435876593,4,B
45.90141966344726,69,587,0.11787233231834394,4,B
45.916144768603374,72,544,0.2022745738165376,4,B
46.016916189384325,77,496,0.32557697984350714,4,B
46.01704625115825,62,614,0.141027016774611,4,B
46.02272610535605,83,522,0.2209852804178633,4,B
46.06113416562486,72,451,0.26433129050517645,4,B
46.15045029240557,72,539,0.30981115710763996,4,B
46.157119918396376,71,515,0.2528508141474068,4,B
46.18099787436844,69,442,0.1620246669296776,4,B
46.2457900295128,77,560,0.18566028821308656,4,B
46.252609401325245,65,489,0.24647049923954079,4,B
46.2966622220897,70,452,0.1056234048495937,4,B
46.33207335823125,68,422,0.17007812097094765,4,B
46.39749042728111,64,523,0.09381584913375854,4,B
46.40885783396376,72,514,0.17711833753311926,4,B
46.421758793993256,79,377,0.26033040774319577,4,B
46.45961426495508,67,488,0.2341630194751663,4,B
46.528972798373914,67,631,0.166013338619981,4,B
46.63909174268421,67,558,0.1684987510233053,4,B
46.831283419752516,65,473,0.20772468327976257,4,B
46.877772791006876,72,611,0.20528269125130308,4,B
47.03040946359723,68,635,0.2450266538665796,4,B
47.069292022922575,69,628,0.25419604832678044,4,B
47.0915098454491,74,367,0.16772139639823025,4,B
47.105116550644645,71,424,0.12089116183269365,4,B
47.15041328419194,68,432,0.14231336046378573,4,B
47.15693049844132,75,682,0.21621293980175987,4,B
47.292774573307646,74,518,0.235793637234548,4,B
47.36439079570688,70,595,0.21383003827555905,4,B
47.36464073752291,82,507,0.07538284360349677,4,B
47.51334163355243,70,551,0.24972236877544537,4,B
47.51633544497442,72,422,0.2526960455703227,4,B
47.61123970271771,71,450,0.1796878775565236,4,B
47.61125031305277,76,575,0.15486501678887335,4,B
47.638505805572,72,541,0.22926497182581693,4,B
47.66391078469958,66,586,0.15178999642883778,4,B
47.71283499266158,71,490,0.2423441051942457,4,B
47.7821839322754,77,605,0.26651908428290305,4,B
47.782639031160166,69,647,0.18135297397849318,4,B
47.93156684811652,74,508,0.15778379814084645,4,B
47.95253182644518,69,609,0.08908261199744594,4,B
47.96622321583307,65,573,0.15043548091798395,4,B
48.00253182644518,69,577,0.19369341198380777,4,B
48.06707650254442,68,593,0.23479319195468928,4,B
48.110187876414074,70,594,0.18937493176544176,4,B
48.118659009687434,80,461,0.17541310756046366,4,B
48.1342395123297,66,538,0.20499434772046066,4,B
48.304900464497244,79,407,0.2144364001504918,4,B
48.35963464974979,64,611,0.23735364219232763,4,B
48.41841013233621,74,599,0.2933612102156158,4,B
48.43524810469445,77,508,0.22088403761197004,4,B
48.48524810469445,77,463,0.2257031276212388,4,B
48.51758902834199,71,533,0.12026220209183339,4,B
48.55006195323352,68,554,0.1381739831826664,4,B
48.557979284383414,76,434,0.22602439223871162,4,B
48.629224895674064,71,391,0.15206107719066125,4,B
48.675482745836355,68,518,0.10702933370268701,4,B
48.72548274583635,68,608,0.18617551222066236,4,B
48.78958157315614,73,496,0.16286125777356456,4,B
48.79457151084423,74,584,0.14065033058471277,4,B
48.86434289495186,69,585,0.17561473135256278,4,B
48.90390064207641,77,597,0.1944732201496159,4,B
48.963063529498434,61,585,0.10333549641672135,4,B
48.96742935737013,65,485,0.23971505659885034,4,B
48.97806993041729,72,561,0.18905668741321874,4,B
48.99916243429625,73,429,0.2250415795502106,4,B
49.006728461292276,67,481,0.22052750426638085,4,B
49.014609656554256,63,552,0.17311771211100918,4,B
49.06331786748971,66,615,0.24364591736666436,4,B
49.065228111281975,81,480,0.11960525967854654,4,B
49.08196770027818,74,401,0.24262343217164756,4,B
49.107006869572245,76,510,0.2362764186518993,4,B
49.137831560716656,68,446,0.1872948272982223,4,B
49.197743818420534,68,564,0.1850409113786283,4,B
49.19813833342426,64,454,0.29102719539709077,4,B
49.21443120436888,69,554,0.2244627267538164,4,B
49.24320672850679,74,482,0.26550959540404484,4,B
49.24774381842053,68,543,0.20981204703333603,4,B
49.26043044198228,77,646,0.14180711411200878,4,B
49.29962244930459,58,491,0.26726906238138604,4,B
49.31438761553911,64,480,0.31369705193386005,4,B
49.39597457214633,66,459,0.2720972502900945,4,B
49.42367204758552,78,376,0.22126606541650554,4,B
49.44879001952806,75,338,0.13898396550280123,4,B
49.4813142004483,72,533,0.13219817774276327,4,B
49.48670116069119,68,655,0.1701237149182772,4,B
49.52204704810007,70,407,0.18382602890616864,4,B
49.53758212190093,73,618,0.15988599864302283,4,B
49.54923670487026,55,390,0.19194548113691634,4,B
49.56315443786775,75,509,0.14625176861370912,4,B
49.57204704810007,70,503,0.23133068186315356,4,B
49.62454544625403,77,582,0.23659549530861834,4,B
49.68924690939534,81,453,0.18843495285351503,4,B
49.6965836668809,73,415,0.22401302507029625,4,B
49.69845758963775,64,426,0.24787773595109425,4,B
49.72343250656519,62,519,0.19586424880517536,4,B
49.733850687942684,70,534,0.21354182579169775,4,B
49.768472516388236,67,447,0.1628056967337208,4,B
49.86225469904637,68,384,0.15035669994572273,4,B
49.90169691293169,77,508,0.23614134474927562,4,B
49.90498601464006,72,649,0.14111944960941136,4,B
49.948387726456566,74,545,0.22738278859595962,4,B
49.966594716608185,59,436,0.3056174854742877,4,B
49.985013273468645,68,496,0.20406392110280994,4,B
50.00728984518717,64,670,0.16349782045733646,5,A
50.01659471660818,59,647,0.19538789149374958,5,A
50.08723945633548,51,602,0.33577227694722417,5,A
50.11289025850735,55,450,0.32949714557088217,5,A
50.14179840855069,60,562,0.3584683281917922,5,A
50.17534756054465,61,513,0.19138737008185902,5,A
50.178891396296585,70,473,0.3661102535734969,5,A
50.28736780345608,52,481,0.3249548189598077,5,A
50.35061398526947,57,601,0.3645587712174193,5,A
50.353568897045605,68,272,0.26722628497320006,5,A
50.423833721062806,59,526,0.4454656478829222,5,A
50.42388451604037,57,626,0.2885359164493607,5,A
50.43332998598706,53,569,0.5755217743719901,5,A
50.603515925027125,63,394,0.10506282446775767,5,A
50.72582268132601,65,440,0.27372532523134957,5,A
50.775952014871706,65,594,0.2069694302145555,5,A
50.8204979232826,57,641,0.2644878344509501,5,A
50.88743980317084,70,662,0.21255643516600817,5,A
51.11959801847019,57,580,0.36802154559028233,5,A
51.27023987210808,66,658,0.18136635728901454,5,A
51.315126428446284,64,455,0.21652796905501936,5,A
51.40180290089591,58,618,0.21181033784568654,5,A
51.48018258998757,64,547,0.08217886802685695,5,A
51.65122605638765,78,611,0.27640300849539,5,A
51.65402172667788,64,694,0.3870746644588403,5,A
51.83011755869976,54,592,0.16494440356570167,5,A
51.9054509277414,60,859,0.425707976848107,5,A
51.91421813763876,46,547,0.3146935298386688,5,A
52.22101177759405,69,696,0.23186197649304258,5,A
52.5090418977792,51,599,0.13127762500642987,5,A
52.51233184910757,54,487,0.13114948119314998,5,A
52.524344261676575,56,620,0.34999666922598494,5,A
52.57434426167657,56,663,0.3227495875732054,5,A
52.62434426167657,56,462,0.33778832675832343,5,A
52.712137192454904,70,611,0.11389600706678851,5,A
52.736672190859416,48,517,0.32678436378663334,5,A
52.965072438433424,66,630,0.46637328321434735,5,A
52.975692684512744,50,665,0.3364479727846491,5,A
53.13374770457134,67,575,0.29489393348850174,5,A
53.221546290727616,60,698,0.4229990368438683,5,A
53.235000686847364,48,719,0.5205529568265415,5,A
53.265272812377766,54,561,0.16653893930897673,5,A
53.33197208493403,58,576,0.23443122805385563,5,A
53.35688127364343,63,706,0.28043014688530987,5,A
53.37245579091593,68,527,0.2311264282049472,5,A
53.39665907702238,50,652,0.28482662415794924,5,A
53.43761904687701,37,375,0.343906855589017,5,A
53.480879944450166,63,480,0.07795789910648737,5,A
53.55771866762238,67,606,0.27789575364629493,5,A
53.56181029655622,84,533,0.36265947999958953,5,A
53.705270978985396,58,911,0.3711410579465495,5,A
53.724312453042316,54,582,0.35215025255698523,5,A
53.864523764455384,49,648,0.4048482651050592,5,A
53.9273666384922,60,544,0.32848252786236365,5,A
54.03567704903498,50,473,0.3013981815969325,5,A
54.04657255776681,58,827,0.14006052378056885,5,A
54.08567704903498,50,673,0.42543383607573393,5,A
54.094501709424904,60,618,0.25258189429218514,5,A
54.124665644684534,64,531,0.5185094895036112,5,A
54.14136655235838,61,707,0.3828058814893309,5,A
54.155725183331896,53,515,0.3962680234886299,5,A
54.199064273717276,59,533,0.11984970034919232,5,A
54.2424794181332,56,579,0.3743651775540173,5,A
54.25120885766992,67,472,0.2610457205416846,5,A
54.28733611178421,44,487,0.17834191958642903,5,A
54.30582378308209,56,522,0.13742184019248158,5,A
54.35908045335185,67,610,0.32008450931157095,5,A
54.3881635349176,72,774,0.3085388610134958,5,A
54.60210369024611,76,832,0.3956295002091346,5,A
54.70410823649562,73,516,0.17236640793734623,5,A
54.755168796780715,45,460,0.22942265169046347,5,A
54.88114659391524,60,670,0.23281325891161714,5,A
54.882389638162536,69,607,0.3248325142515882,5,A
54.90100469810555,57,459,0.2960105616248288,5,A
54.952817772142375,61,833,0.20047033062094904,5,A
54.995050356158984,50,674,0.11014769699354282,5,A
55.021769979885796,72,593,0.27423795144890056,5,A
55.20800634025297,57,614,0.2985729647050611,5,A
55.35084790353088,64,555,0.25493209835022673,5,A
55.37828486179874,60,645,0.33926341156509676,5,A
55.50666598298241,55,705,0.25751009107971934,5,A
55.607541217599355,66,589,0.18233281709299365,5,A
55.65027834418475,53,486,0.2815854184316798,5,A
55.66069731162751,67,547,0.35181017020299754,5,A
55.696732811135426,59,611,0.12452112578776126,5,A
55.75856543354296,52,500,0.44041659401003963,5,A
55.83561939434622,55,780,0.35496831862902595,5,A
55.95621108826241,63,521,0.32265053521152887,5,A
56.004914839034605,64,415,0.24087152111981053,5,A
56.027231539718194,57,614,0.24898391863497826,5,A
56.03840190739658,56,662,0.3435664566457002,5,A
56.066915415553574,48,354,0.21980907955500423,5,A
56.11290651248299,65,676,0.30611564599357116,5,A
56.18071070203204,66,606,0.19741318940305236,5,A
56.20363407483171,56,549,0.3290964730137443,5,A
56.47254681684511,58,893,0.20712079185475413,5,A
56.58078314518276,51,783,0.3531489688146658,5,A
56.658736986857654,57,515,0.2898005283364068,5,A
56.66657652402663,77,667,0.3391640239888932,5,A
56.7239369836343,55,549,0.14729589391795428,5,A
56.73205675860174,56,437,0.2261302501670437,5,A
56.734671876123684,76,628,0.34612304935866567,5,A
56.74105986972392,66,503,0.3423889482443986,5,A
56.80632534088996,65,672,0.16641375958313864,5,A
56.8151980182475,57,539,0.2131223649006344,5,A
56.92331875544226,56,452,0.3783358710524031,5,A
56.9543484428584,49,492,0.3677208521350183,5,A
57.0355529797153,55,757,0.391041849968557,5,A
57.03789559098135,63,413,0.2614963197573779,5,A
57.08179634943502,60,669,0.3758824416163609,5,A
57.282374446191334,62,708,0.27426999993822104,5,A
57.42911964549977,57,519,0.4233724278336193,5,A
57.59615437228822,61,737,0.28198191686271307,5,A
57.646154372288215,61,708,0.18016078750479547,5,A
57.755787918357896,55,625,0.27450530295964104,5,A
57.79928321316831,61,530,0.13904790169190204,5,A
57.79992072989445,69,502,0.19944799854847028,5,A
58.08700249255213,57,642,0.1946164504635654,5,A
58.09750871697088,63,525,0.26945299707521314,5,A
58.173679456871135,62,584,0.2975167332296246,5,A
58.25505453006212,55,436,0.3894910556026825,5,A
58.27292402490988,56,635,0.3407956909750648,5,A
58.396161144225566,52,570,0.23715142936892442,5,A
58.411054316630974,58,736,0.15025533313942513,5,A
58.523556593459574,58,644,0.4853410797899828,5,A
58.53164687840627,57,593,0.19037796751314345,5,A
58.681110456630655,60,538,0.24135848511112265,5,A
58.751152564081075,56,492,0.1969857734777171,5,A
58.75990110442148,68,645,0.1523536358378198,5,A
58.7968022172047,63,382,0.16692948686690737,5,A
58.89090055888369,57,631,0.1107237822409948,5,A
58.957807210201366,60,620,0.3592477984120716,5,A
59.019283960894356,54,532,0.3586797377984726,5,A
59.06928396089435,54,561,0.36445954324151764,5,A
59.135821904124434,44,480,0.30339027236823374,5,A
59.1460582550696,58,454,0.059376184899010254,5,A
59.405234717843264,56,538,0.3687932972051428,5,A
59.53793655982055,55,676,0.3215220732950218,5,A
59.59778536935031,55,514,0.23667686032850227,5,A
59.621027617790325,75,589,0.413997511450051,5,A
59.664915396483224,56,739,0.39760407193559466,5,A
59.742711244642074,44,598,0.27310838053021985,5,A
59.867300816629005,72,541,0.30859573880172153,5,A
59.87632949119987,57,583,0.2499802182904004,5,A
59.98193982309679,73,386,0.3619688921612112,5,A
60.00388129478118,75,389,0.20827018301498523,6,B
60.02981503562766,80,387,0.1395704737878829,6,B
60.04707059473159,61,488,0.1886446996109537,6,B
60.054661493966364,81,540,0.179666577906154,6,B
60.06016866086205,71,447,0.19357268533740216,6,B
60.09348220404438,73,449,0.21445110253027017,6,B
60.10387994547289,74,445,0.17911970161140608,6,B
60.125048294674976,68,501,0.2431201144379448,6,B
60.137681062777425,79,447,0.16270289367621993,6,B
60.143482204044375,73,536,0.2809096244719539,6,B
60.18656450363727,63,491,0.19103744873215442,6,B
60.298432197881404,79,471,0.14721802551007018,6,B
60.34457298209029,68,635,0.2364759675493101,6,B
60.364604694409664,80,584,0.16302927841986548,6,B
60.36636247207674,58,606,0.17540215475652585,6,B
60.413101461865054,76,507,0.17856626015593474,6,B
60.44975660833888,69,421,0.18127329246248747,6,B
60.480265624415225,71,479,0.2199110475710147,6,B
60.491082422033045,72,587,0.23450368381683065,6,B
60.55036917612375,60,398,0.21485197354399377,6,B
60.606699109439596,76,577,0.18930624162226806,6,B
60.60857942848996,77,530,0.16230689431545192,6,B
60.6356723169309,78,384,0.21598949972780165,6,B
60.64327670817083,85,378,0.18831474941457707,6,B
60.71224814168504,72,507,0.2519303034604409,6,B
60.74100237867418,67,425,0.19837248884561431,6,B
60.751711793085704,73,568,0.17928051040173837,6,B
60.821905917306,84,472,0.1496044152285897,6,B
60.8486442387142,64,531,0.2306120007453457,6,B
60.862625927466254,67,440,0.21834070216427212,6,B
60.89335931437014,77,566,0.247669876661899,6,B
60.91262592746625,67,499,0.21246851413638262,6,B
60.92417645074798,78,610,0.19778192722442192,6,B
60.93144341058115,73,545,0.27995272577393443,6,B
60.94109329049629,80,485,0.24693200113394725,6,B
60.98597478056852,72,476,0.1159135732335583,6,B
61.02336247636487,80,441,0.17763133750793925,6,B
61.0922223318155,76,606,0.11348686347578275,6,B
61.11355168735609,65,454,0.20239126598923415,6,B
61.11764119104281,73,528,0.26725738102262075,6,B
61.13831644685593,63,613,0.1894465665057403,6,B
61.19324439783775,69,540,0.19255263525501398,6,B
61.25091133851877,73,636,0.14764212156548678,6,B
61.30093102907625,68,338,0.19625103704612246,6,B
61.330227670049666,75,549,0.1947516146218188,6,B
61.36619015764721,79,355,0.18678392556299103,6,B
61.38022767004966,75,523,0.2486863115426184,6,B
61.52562923753694,82,417,0.22837443605649893,6,B
61.585339573353714,73,530,0.18911571702494356,6,B
61.590395306519014,75,465,0.10475277729946807,6,B
61.71914896149084,70,390,0.07974652250448953,6,B
61.809455634477466,75,449,0.2706013439271625,6,B
61.843017590844454,65,557,0.18104491258256264,6,B
61.95040700797487,72,529,0.11154748481303006,6,B
61.994842515554176,74,400,0.23774495832749415,6,B
62.03641210568418,71,527,0.15486557030889636,6,B
62.043031642804266,75,458,0.18342843143592485,6,B
62.196686555029366,77,520,0.10475321112910571,6,B
62.298934951404235,72,550,0.18405768222526345,6,B
62.31891386963271,63,325,0.21820542721213346,6,B
62.37028664440504,71,433,0.23487934851695996,6,B
62.426850007619784,73,667,0.2228662140543383,6,B
62.526777431460445,62,523,0.07467142147316416,6,B
62.53293212774829,72,452,0.19975974068363564,6,B
62.55444613321495,75,523,0.16753175901930595,6,B
62.5704493636412,70,326,0.2956363425153261,6,B
62.612096066223884,66,434,0.202660609855177,6,B
62.640278553404684,67,400,0.20880752259438462,6,B
62.657912980403545,78,517,0.27209712009763004,6,B
62.72499017216373,75,466,0.2092154532039052,6,B
62.757240772596816,61,552,0.13985984026773335,6,B
62.79758708627839,70,366,0.17015526076340143,6,B
62.80724077259681,61,525,0.2145503431231907,6,B
62.84466887217451,65,456,0.2360498476452818,6,B
62.848525560414764,60,428,0.22077375757531248,6,B
62.869007535418916,75,356,0.13092041407682095,6,B
62.919344722801235,61,517,0.1920674408265494,6,B
62.93096318100032,79,473,0.2614015104804068,6,B
63.012740807169585,68,528,0.21041612543127963,6,B
63.12252071002166,82,364,0.19285667073290103,6,B
63.14371481050455,76,381,0.12497617254184992,6,B
63.165082795048974,66,418,0.2048184620029998,6,B
63.23835345124344,74,374,0.2503365035613533,6,B
63.24971672807182,71,428,0.2530071909335635,6,B
63.28179041768329,78,525,0.07510764402163597,6,B
63.34208965287597,69,537,0.20505167439913982,6,B
63.380747793565234,70,563,0.155324245374036,6,B
63.38611135200619,60,538,0.1800746541058743,6,B
63.41297829657231,75,359,0.20409944069123598,6,B
63.460668932319834,66,428,0.21268533597459066,6,B
63.50846487535851,70,599,0.17981223164104868,6,B
63.51066893231983,66,508,0.1601967931139683,6,B
63.5404653741649,64,510,0.17866468161346058,6,B
63.55476161006543,58,561,0.13395608223113414,6,B
63.570129334208886,72,593,0.16994367236655766,6,B
63.670393666703504,71,464,0.23012901339891706,6,B
63.67795316818245,68,457,0.23515325733705508,6,B
63.75078974160039,84,510,0.2684039675244301,6,B
63.77355207057941,67,500,0.21630221881829298,6,B
63.854229997562165,74,632,0.1680707087427485,6,B
63.882064156035504,82,469,0.1945656141706674,6,B
63.91201592587362,75,531,0.29956852092084524,6,B
63.9417448283897,72,539,0.2873076889775529,6,B
63.95802285321997,70,417,0.23200848180615252,6,B
63.989476198701304,76,541,0.15008466123544725,6,B
64.03131820507042,75,453,0.12823220420044595,6,B
64.04484078410165,78,495,0.15814549331924804,6,B
64.16906227420819,74,515,0.3089281086995831,6,B
64.18896874125721,77,493,0.1932809465909969,6,B
64.20238841913196,60,369,0.17064423646899263,6,B
64.21647177469434,69,657,0.2075615536083421,6,B
64.23266219057484,81,512,0.17235520331531437,6,B
64.23896874125721,77,565,0.11525132807416938,6,B
64.33423340824613,74,620,0.21706079212460166,6,B
64.33575133284276,77,560,0.1328264860235221,6,B
64.36214644226571,76,622,0.20009884223779054,6,B
64.38828364906784,82,623,0.33930249689066627,6,B
64.40534346023914,74,557,0.2024664082897422,6,B
64.50723572577417,69,542,0.18293450768950759,6,B
64.57680893784189,66,569,0.25486100958032193,6,B
64.60053489886944,72,519,0.21992240227560006,6,B
64.61397205669792,71,505,0.15644034849961846,6,B
64.62772584163494,63,623,0.2668328678879492,6,B
64.64472729681573,73,559,0.19798330448929782,6,B
64.69472729681573,73,447,0.13515830764160136,6,B
64.70007895110933,76,518,0.2353115487383535,6,B
64.85994305420277,60,441,0.22671039311873376,6,B
64.86037551438378,75,472,0.16368203460114264,6,B
64.9262035004507,66,401,0.2231131232227102,6,B
64.96881176592063,70,565,0.14844873624263466,6,B
65.07133217295012,79,434,0.2749048816743892,6,B
65.15038887967913,63,566,0.14980751364845574,6,B
65.20308246186993,78,554,0.199171579508874,6,B
65.23410478728304,72,273,0.20108647454948614,6,B
65.3581424894869,63,651,0.21288004286990647,6,B
65.37271311968817,66,450,0.17555038552107624,6,B
65.41230521235902,76,487,0.222424272709822,6,B
65.53544239919871,64,470,0.11137107173192728,6,B
65.59405373011026,66,569,0.20717132834287466,6,B
65.6200469047766,82,468,0.13284373661777293,6,B
65.63830693697261,77,584,0.2097453602631188,6,B
65.64395077804473,71,533,0.16256001019899732,6,B
65.69395077804472,71,627,0.1394919528292921,6,B
65.70136398458355,79,413,0.25414999692584345,6,B
65.77902599039413,71,356,0.10541428055142503,6,B
65.81966885582308,62,412,0.17238693739436958,6,B
65.98392079530389,72,664,0.24869525599966144,6,B
66.00540476273491,75,351,0.30798696303305,6,B
66.08878176403353,69,428,0.1347705278099764,6,B
66.18016425898307,62,269,0.17684680278829912,6,B
66.20441455620868,68,602,0.17717513507658192,6,B
66.24922161832868,70,449,0.24846846512040272,6,B
66.28849267468443,63,566,0.21969366090823716,6,B
66.41137619588038,72,414,0.28835122471979313,6,B
66.47120719922471,68,542,0.2248894154708889,6,B
66.51218892120795,75,524,0.33189408761301,6,B
66.5359338990515,58,560,0.17988086512378323,6,B
66.61408686039499,73,561,0.27082058958501465,6,B
66.70385915619372,73,559,0.1818826221226949,6,B
66.71289789079262,86,493,0.16163095967788457,6,B
66.76030138633637,84,477,0.21791033169351876,6,B
66.84386716968021,76,553,0.2334811316190142,6,B
66.84532617725249,75,404,0.22181178524005277,6,B
66.8516247823199,69,572,0.24052889601650027,6,B
66.87091807037933,68,416,0.16919282709755284,6,B
66.92731596203689,76,384,0.18892001528074803,6,B
66.99084375478712,73,450,0.17246416059407124,6,B
67.02212378198055,78,685,0.23581700402702055,6,B
67.04563259238212,68,578,0.19973622014454773,6,B
67.06935098370452,73,437,0.3036889341401642,6,B
67.08418087090277,69,460,0.26530361019358145,6,B
67.1109279445367,71,555,0.20420471941250984,6,B
67.13464692870775,69,644,0.1783978092877613,6,B
67.13534774751272,63,557,0.135868528403653,6,B
67.20311749091107,71,502,0.1917459717498477,6,B
67.32571185039974,59,671,0.18823630450137807,6,B
67.34355891580114,62,453,0.27867998196162924,6,B
67.3480648028311,72,565,0.30452649509858065,6,B
67.41055136463999,69,601,0.2559447298965335,6,B
67.43697378108713,60,470,0.19259032293087425,6,B
67.49053218283747,74,384,0.30289055885488814,6,B
67.49506063715785,84,502,0.13072953040909352,6,B
67.57704117870672,71,499,0.1029070670310297,6,B
67.58011715032939,64,636,0.22193339812791302,6,B
67.5973742582037,66,577,0.2863776021310341,6,B
67.65298338889606,66,385,0.24400329814786714,6,B
67.72832965279962,76,528,0.16470604929698926,6,B
67.82878795033332,74,397,0.16599132618260246,6,B
67.83962473468148,72,542,0.2022409098550084,6,B
67.93037238516301,80,543,0.18834515394814255,6,B
68.04022946780746,81,418,0.18919478144083404,6,B
68.04809416080826,63,510,0.13302651125211218,6,B
68.0943020709644,68,434,0.2254844615612328,6,B
68.16380927257947,66,464,0.160907656298833,6,B
68.18025607481499,70,489,0.10501648595705594,6,B
68.21912891566947,72,488,0.2328600550648027,6,B
68.2316684356015,64,444,0.2497986839423223,6,B
68.23350085699559,68,400,0.1740112605184985,6,B
68.2816684356015,64,432,0.24045563953656895,6,B
68.35578101257336,69,309,0.20646840033519093,6,B
68.35628302372128,65,549,0.14827306845758564,6,B
68.48977958063901,74,337,0.23466088008293523,6,B
68.55893316449458,63,612,0.20606636413728138,6,B
68.65480214972271,70,553,0.24789969707400097,6,B
68.72161358123088,64,514,0.23991740256745542,6,B
68.76773418460795,71,598,0.18209602769103406,6,B
68.80219865220371,64,624,0.2712313866038622,6,B
68.80855995528206,74,444,0.2284092001670199,6,B
68.86227412763753,78,601,0.18709772421944193,6,B
68.9069645867746,77,703,0.22950023805522357,6,B
69.00264469025954,69,589,0.24035232083033437,6,B
69.04412743367477,73,500,0.22505856322443343,6,B
69.06932095422167,75,623,0.22300211619302332,6,B
69.20291706685717,70,625,0.12230534977762286,6,B
69.20403301610492,79,460,0.17355387488073448,6,B
69.22986721573852,74,498,0.22908908853141813,6,B
69.23377479967324,73,359,0.06627164359229296,6,B
69.34412296690893,78,588,0.19459305048042919,6,B
69.37443682043015,79,613,0.2239998497167519,6,B
69.41973139705736,78,422,0.14244876452711333,6,B
69.4467758230955,84,512,0.17651177678314317,6,B
69.4530859034286,70,478,0.2122519332157703,6,B
69.48215776917583,69,517,0.13525113056825383,6,B
69.51563314383903,62,400,0.09828755702445385,6,B
69.51706774352996,77,495,0.22108584665015485,6,B
69.55755010184664,68,285,0.22608456297904916,6,B
69.57435442696347,60,459,0.26640830269786664,6,B
69.59755273290183,61,363,0.2484520275817675,6,B
69.6089631773302,76,401,0.2481251442900051,6,B
69.7149862798884,74,536,0.12159278432899748,6,B
69.72092877615275,85,515,0.08107841700633359,6,B
69.72280618168973,67,477,0.18242315618756977,6,B
69.7448485228,65,621,0.19288757856801073,6,B
69.75877032283388,69,496,0.18014423342160737,6,B
69.76407102247245,62,547,0.1704349276651731,6,B
69.86891090814841,65,516,0.25531157794299847,6,B
69.91150109368253,68,398,0.2908377814787553,6,B
69.99568146705882,81,493,0.2115628873592042,6,B
70.00852004775568,79,511,0.26422953593425696,6,B
70.01711024784106,61,556,0.21928749840908476,6,B
70.04367771693205,60,464,0.2092208284713489,6,B
70.09321339153955,71,562,0.24680280839680083,6,B
70.11812180436135,57,671,0.3268050427589753,7,A
70.32806355798763,66,512,0.31791140113684674,7,A
70.33161048879407,59,530,0.124456210268929,7,A
70.36516797948782,55,712,0.39970593564536416,7,A
70.49559187999618,59,583,0.3799611626056244,7,A
70.54264060564917,69,603,0.25865762293635586,7,A
70.632389555258,71,591,0.4048399887813541,7,A
70.65858521224328,68,493,0.35920368258199803,7,A
70.69095554284368,60,620,0.2657289378520102,7,A
70.7388121456768,73,529,0.325431562655371,7,A
70.7888121456768,73,614,0.21161311048592707,7,A
70.84852807171097,66,588,0.30827000036385704,7,A
70.88974190500777,54,633,0.38117055716132653,7,A
70.93877643285292,67,507,0.1998685345802033,7,A
71.0677611182099,56,590,0.19745363254888462,7,A
71.14635478392583,58,591,0.4070579467578278,7,A
71.17627990528752,76,681,0.315809487586681,7,A
71.23477700976038,58,628,0.5135586730077366,7,A
71.24183630384282,65,583,0.3426046487244996,7,A
71.36402509149515,50,699,0.27846513151717234,7,A
71.39110156999784,69,605,0.30087884426320716,7,A
71.40347991998675,47,653,0.23021707117461018,7,A
71.46867557202812,57,668,0.1901083745271806,7,A
71.52650349181397,41,513,0.467286820189853,7,A
71.58271581484267,64,545,0.13597641333365298,7,A
71.61969536302078,58,554,0.1575877588342062,7,A
71.74489117225919,48,403,0.31785291697204776,7,A
71.97070311693219,48,527,0.24462910069241503,7,A
72.02070311693218,48,582,0.29877015506919424,7,A
72.10092415884043,56,646,0.2515045573201737,7,A
72.16062166422196,67,542,0.12295188622239217,7,A
72.40120699352993,57,643,0.5441221722471914,7,A
72.49628704940004,53,674,0.5460996225842581,7,A
72.52626336123646,61,603,0.46933256357403824,7,A
72.57626336123646,61,538,0.2707314541024723,7,A
72.64957170100767,68,547,0.21940082689405843,7,A
72.65254319983082,67,635,0.37027256732712893,7,A
72.68657272371053,49,755,0.23329585242113127,7,A
72.81760892879423,53,380,0.38453913832780723,7,A
72.90898257525704,52,754,0.46918348375245833,7,A
72.9418758990481,54,701,0.29032398968131107,7,A
73.42514301521855,87,654,0.2588508758778719,7,A
73.54918759594588,67,642,0.30550029360333747,7,A
73.63985592241421,56,528,0.24717859851502175,7,A
73.74114109317584,54,706,0.416337605516355,7,A
73.87322379140902,49,536,0.32573731064173495,7,A
73.88958121013964,56,496,0.4714164357415557,7,A
73.94766204563084,57,685,0.2217646077498006,7,A
74.03572419681679,45,563,0.38981173241223477,7,A
74.06502969740713,65,439,0.1981063329607352,7,A
74.06546211935132,67,764,0.367785397484103,7,A
74.07678609231236,56,557,0.16988907336086545,7,A
74.14107004005842,60,866,0.48060891178369614,7,A
74.25734995849328,60,658,0.25702240738469795,7,A
74.37324546291313,61,542,0.3537478704606428,7,A
74.42142718093078,60,611,0.23064591105378146,7,A
74.46898210713263,59,594,0.19339678283723194,7,A
74.5004359579954,53,532,0.27231106442311964,7,A
74.56490806020163,65,639,0.2765234648561183,7,A
74.56952296557452,78,404,0.4560255529530931,7,A
74.65851216609245,56,699,0.2938770624798023,7,A
74.7099663922074,55,547,0.37690316554422754,7,A
74.75785853485903,53,576,0.37147456498889453,7,A
74.79804707977804,57,558,0.2996494273241326,7,A
74.86152148965942,60,631,0.26679152533258044,7,A
74.86287213870229,62,687,0.30321850870368394,7,A
74.88291817799472,76,544,0.1374507729800167,7,A
74.8872462815081,65,327,0.524392127550305,7,A
74.9123463573728,59,538,0.3253008486677792,7,A
74.96676017135805,55,722,0.4605355962361807,7,A
75.14623614472448,68,580,0.26965163701432604,7,A
75.1863935807457,63,447,0.34607972436159673,7,A
75.25648191628835,49,696,0.18469156682602175,7,A
75.26091953913904,63,667,0.2550996379628466,7,A
75.30667502548478,72,506,0.3236223646264233,7,A
75.35568121431378,67,648,0.4729289675723977,7,A
75.44296027434454,44,687,0.3611787049002663,7,A
75.56374453787147,70,602,0.27400160747472946,7,A
75.56965071834738,64,634,0.28435226238768413,7,A
75.63403848376744,69,578,0.11252717194385917,7,A
75.79777128128222,60,552,0.38652897561352495,7,A
75.83011590197822,73,872,0.29348994612446955,7,A
75.93669578318136,58,610,0.287259312761004,7,A
76.03055764593245,57,635,0.06325223466267216,7,A
76.05643010646664,45,509,0.20827973198683636,7,A
76.11452860097423,57,591,0.13475876097031955,7,A
76.15713200154296,56,662,0.30230806589504206,7,A
76.18461191855516,71,668,0.21595070144933085,7,A
76.22201098300157,64,652,0.34109902028775,7,A
76.27201098300156,64,560,0.30993138149513494,7,A
76.34643317447916,60,630,0.13191295407618794,7,A
76.43699988859564,63,670,0.38280104061634723,7,A
76.51382320867816,69,594,0.3272236725327388,7,A
76.53379699792367,43,522,0.26373971663203044,7,A
76.64329730498359,59,612,0.22184955367260564,7,A
76.77920031261264,69,558,0.20352102623703144,7,A
76.79365656116542,75,410,0.41864610373303246,7,A
76.97174035554013,54,668,0.3043030973321281,7,A
77.04756550309209,61,591,0.3033443467973151,7,A
77.06574443271735,67,686,0.2766002429453437,7,A
77.13229010685738,78,470,0.2622235112477523,7,A
77.17766068397924,61,664,0.4980075233444019,7,A
77.19505920130719,66,425,0.21561461225751005,7,A
77.21691039004166,51,707,0.46393038833690964,7,A
77.23551317640216,56,433,0.1376231647950422,7,A
77.25441801159378,58,598,0.6117681129208048,7,A
77.31998729746454,65,588,0.2370962138796389,7,A
77.32709092232427,52,564,0.28118971244549484,7,A
77.33685624690236,57,506,0.3277552513493532,7,A
77.41139452694404,60,703,0.41903363406093685,7,A
77.59539208038424,63,624,0.34012071634829955,7,A
77.59599166896378,56,781,0.3719168666355437,7,A
77.64539208038424,63,687,0.09944238270802591,7,A
77.65830186474398,65,534,0.28528604951858927,7,A
77.6932846221356,60,701,0.21874242176891917,7,A
77.74026114383358,79,686,0.27417113366848817,7,A
77.77368168318253,51,591,0.2932769692803869,7,A
77.81005303586873,66,596,0.4966916962508254,7,A
77.83347353265748,68,593,0.4072520714177271,7,A
77.91993808190061,75,593,0.28441789444261834,7,A
77.96335352936117,53,528,0.194119985175218,7,A
78.07748584021775,68,492,0.2865934750363624,7,A
78.12891782538519,56,405,0.32239268739466065,7,A
78.18107206729405,59,527,0.2906337675110722,7,A
78.23361653385749,62,663,0.11907322854117416,7,A
78.27215117798387,59,747,0.37022764275515785,7,A
78.3512023389104,74,661,0.527253644189969,7,A
78.39022456230916,60,630,0.32418020715557483,7,A
78.42651232614409,69,767,0.2982726761951827,7,A
78.61647340088828,60,518,0.17055066451419884,7,A
78.7555263322603,71,512,0.17297681609724533,7,A
78.78846749849484,65,794,0.18081252958087501,7,A
78.93377107747192,64,566,0.39430514466067956,7,A
78.97164762626372,72,549,0.17141359827202848,7,A
79.00582972038572,64,690,0.3374441224451832,7,A
79.04609695922075,63,646,0.49723444790822,7,A
79.13477378355542,58,568,0.33141294964506657,7,A
79.21917734582884,63,581,0.2890135876898064,7,A
79.21939939562182,62,416,0.3044062567406599,7,A
79.25313307926679,64,740,0.3595227771834202,7,A
79.26953189496191,67,667,0.2763239441962459,7,A
79.38765981188297,46,640,0.27730575338620755,7,A
79.41988285302811,47,603,0.1771254744247811,7,A
79.43009190731601,57,620,0.18290751061925462,7,A
79.46869274167689,59,423,0.35136350338651523,7,A
79.51869274167689,59,557,0.2752119880921337,7,A
79.5467802412032,61,620,0.23042808755329142,7,A
79.55174610093789,46,678,0.3091168146666439,7,A
79.67771859094341,66,723,0.2516066555048767,7,A
79.68228880682881,57,508,0.3594526126967961,7,A
79.7296348076875,52,538,0.3759500037516122,7,A
79.89705733326218,49,718,0.20331184740359817,7,A
79.96262448227574,57,557,0.2632762999200714,7,A
80.0341711879336,64,773,0.2904658908803317,7,A
80.08131821472787,60,545,0.3893592040631461,7,A
