onset_time,pitch,velocity,voice_id,duration,trigger_time,compensation_ms
0.0,50,54,0,1.0202485178361518,-0.02155425219941349,21.55425219941349
0.0,62,56,1,0.4403094056456669,-0.021241446725317695,21.241446725317694
0.48923267293962985,43,52,1,0.321731758958003,0.4673656152661206,21.867057673509287
0.8467124051151887,74,61,1,0.4978472120722054,0.8262529720751105,20.459433040078203
1.1336094642623908,52,67,0,0.6928358494517078,1.1140884476446,19.521016617790814
1.3998759740843059,64,68,1,0.41529300639553957,1.380511360203563,19.364613880742915
1.8613126478571276,64,44,1,0.48215613445389754,1.838194368287235,23.118279569892472
1.9034270747642883,28,60,0,0.24840684030925345,1.8828112389871623,20.6158357771261
2.1794346751079035,52,72,0,0.7383692963833608,2.1606956721753523,18.73900293255132
2.397041686139236,47,58,1,0.6916942788343283,2.376113044888014,20.928641251221897
2.999845004422749,40,68,0,0.44988569683460944,2.980480390542006,19.364613880742915
3.165590884844045,59,63,1,0.30169595264420557,3.1454442572780628,20.146627565982406
3.499718000905648,38,53,0,0.8751267588361374,3.478007345969187,21.71065493646139
3.5008086100042735,55,50,1,0.193573338370882,3.4786287468566686,22.179863147605083
3.7158900970830313,38,75,1,0.5369869941996886,3.697620302361624,18.269794721407624
4.312542312860463,50,47,1,0.46251698955268195,4.289893241501715,22.649071358748778
4.472081066279134,35,58,0,0.8898619238710325,4.451152425027913,20.928641251221897
4.82645007903011,69,43,1,0.6009245531511911,4.803175396723169,23.27468230694037
5.460816537246949,28,41,0,0.973570126507542,5.437229049465913,23.587487781036167
5.494144026975878,64,61,1,0.41899701864250094,5.4736845939358,20.459433040078203
5.95969626991199,57,66,1,0.38432097599821424,5.940018850557151,19.67741935483871
6.386719576576672,71,67,1,0.3721903591015202,6.367198559958881,19.521016617790814
6.542561122255329,33,52,0,0.8983523370173978,6.52069406458182,21.867057673509287
6.800264420022805,59,62,1,0.4911077229277367,6.779961389719775,20.303030303030305
7.34593966772029,79,46,1,0.4249918140972138,7.323134193624494,22.805474095796676
7.540730385607993,38,62,0,0.44375309405578583,7.520427355304962,20.303030303030305
7.8181527944949725,67,51,1,0.519025854857254,7.796129334084415,22.023460410557185
8.03378937900331,50,41,0,0.8440630499992788,8.010201891222273,23.587487781036167
8.394848188780811,43,47,1,0.3327241007615172,8.372199117422062,22.649071358748778
8.764541634071385,55,57,1,0.41452948543243756,8.743456590083115,21.085043988269796
8.97163721233584,47,54,0,0.6428017261920254,8.950082960136427,21.55425219941349
9.225129951218538,59,40,1,0.5627930014138759,9.201386060700454,23.743890518084065
9.685861352549201,45,54,0,0.926025703149306,9.664307100349788,21.55425219941349
9.850455508345066,47,39,1,0.6153800447547243,9.826555215089934,23.900293255131963
10.534211113628093,52,50,1,0.5281540085012614,10.512031250480488,22.179863147605083
10.714778800492875,52,56,0,0.7522549042547553,10.693537353767557,21.241446725317694
11.121048900851717,64,56,1,0.41945073934123994,11.099807454126399,21.241446725317694
11.550617582998159,38,56,0,0.8262909794957712,11.529376136272841,21.241446725317694
11.587105277897539,57,43,1,0.4592600620304363,11.563830595590598,23.27468230694037
12.0,53,71,0,0.045,11.9811045943304,18.89540566959922
12.0,65,78,1,0.03375,11.982199413489736,17.80058651026393
12.0375,62,68,1,0.03375,12.018135386119257,19.364613880742915
12.05,48,76,0,0.045,12.031886608015641,18.113391984359726
12.075,58,64,1,0.03375,12.055009775171065,19.990224828934508
12.100000000000001,68,83,0,0.045,12.082981427174976,17.01857282502444
12.112499999999999,48,56,1,0.03375,12.091258553274681,21.241446725317694
12.150000000000002,53,65,0,0.045,12.130166177908116,19.83382209188661
12.149999999999999,60,96,1,0.03375,12.135014662756596,14.985337243401759
12.187499999999998,72,75,1,0.03375,12.169230205278591,18.269794721407624
12.200000000000003,44,60,0,0.045,12.179384164222876,20.6158357771261
12.224999999999998,53,67,1,0.03375,12.205478983382207,19.521016617790814
12.250000000000004,67,83,0,0.045,12.232981427174979,17.01857282502444
12.262499999999998,63,69,1,0.03375,12.243291788856302,19.208211143695017
12.299999999999997,63,67,1,0.03375,12.280478983382206,19.521016617790814
12.300000000000004,50,94,0,0.045,12.284701857282506,15.298142717497555
12.337499999999997,67,85,1,0.03375,12.320794232649067,16.705767350928642
12.350000000000005,36,61,0,0.045,12.329540566959928,20.459433040078203
12.374999999999996,60,104,1,0.03375,12.361265884652978,13.734115347018573
12.400000000000006,51,35,0,0.045,12.375474095796681,24.52590420332356
12.412499999999996,72,84,1,0.03375,12.395637829912019,16.86217008797654
12.449999999999996,70,59,1,0.03375,12.429227761485821,20.772238514174
12.450000000000006,65,97,0,0.045,12.435171065493652,14.82893450635386
12.487499999999995,68,72,1,0.03375,12.468760997067443,18.73900293255132
12.500000000000007,48,75,0,0.045,12.4817302052786,18.269794721407624
12.524999999999995,62,82,1,0.03375,12.507825024437922,17.174975562072337
12.550000000000008,51,94,0,0.045,12.53470185728251,15.298142717497555
12.562499999999995,63,98,1,0.03375,12.547827468230688,14.672531769305962
12.600000000000009,60,75,0,0.045,12.581730205278602,18.269794721407624
12.599999999999994,77,97,1,0.03375,12.58517106549364,14.82893450635386
12.637499999999994,60,94,1,0.03375,12.622201857282496,15.298142717497555
12.65000000000001,72,60,0,0.045,12.629384164222882,20.6158357771261
12.674999999999994,65,87,1,0.03375,12.658607038123161,16.392961876832846
12.70000000000001,48,82,0,0.045,12.682825024437937,17.174975562072337
12.712499999999993,62,101,1,0.03375,12.698296676441831,14.203323558162268
12.749999999999993,72,67,1,0.03375,12.730478983382202,19.521016617790814
12.75000000000001,55,85,0,0.045,12.733294232649081,16.705767350928642
12.787499999999993,75,68,1,0.03375,12.76813538611925,19.364613880742915
12.800000000000011,51,91,0,0.045,12.78423264907137,15.76735092864125
12.824999999999992,60,87,1,0.03375,12.80860703812316,16.392961876832846
12.850000000000012,60,89,0,0.045,12.833919843597275,16.080156402737046
12.862499999999992,56,65,1,0.03375,12.842666177908105,19.83382209188661
12.899999999999991,65,74,1,0.03375,12.881573802541537,18.426197458455523
12.900000000000013,55,91,0,0.045,12.884232649071372,15.76735092864125
12.937499999999991,79,74,1,0.03375,12.919073802541536,18.426197458455523
12.950000000000014,48,99,0,0.045,12.935483870967756,14.516129032258064
12.97499999999999,74,60,1,0.03375,12.954384164222864,20.6158357771261
13.000000000000014,56,84,0,0.045,12.983137829912037,16.86217008797654
13.01249999999999,62,93,1,0.03375,12.997045454545445,15.454545454545453
13.050000000000015,41,53,0,0.045,13.028289345063554,21.71065493646139
13.04999999999999,53,82,1,0.03375,13.032825024437917,17.174975562072337
13.08749999999999,48,55,1,0.03375,13.066102150537624,21.397849462365592
13.100000000000016,41,96,0,0.045,13.085014662756613,14.985337243401759
13.12499999999999,53,78,1,0.03375,13.107199413489726,17.80058651026393
13.150000000000016,50,61,0,0.045,13.129540566959939,20.459433040078203
13.162499999999989,51,68,1,0.03375,13.143135386119246,19.364613880742915
13.200000000000017,53,37,0,0.045,13.17578690127079,24.21309872922776
13.199999999999989,75,89,1,0.03375,13.183919843597252,16.080156402737046
13.237499999999988,67,72,1,0.03375,13.218760997067436,18.73900293255132
13.250000000000018,74,99,0,0.045,13.23548387096776,14.516129032258064
13.274999999999988,63,89,1,0.03375,13.258919843597251,16.080156402737046
13.300000000000018,51,71,0,0.045,13.281104594330419,18.89540566959922
13.312499999999988,56,106,1,0.03375,13.299078690127065,13.421309872922777
13.349999999999987,68,68,1,0.03375,13.330635386119244,19.364613880742915
13.35000000000002,56,81,0,0.045,13.332668621700899,17.331378299120235
13.387499999999987,56,88,1,0.03375,13.371263440860202,16.236559139784944
13.40000000000002,55,73,0,0.045,13.381417399804516,18.58260019550342
13.424999999999986,65,68,1,0.03375,13.405635386119243,19.364613880742915
13.45000000000002,58,78,0,0.045,13.432199413489757,17.80058651026393
13.462499999999986,51,99,1,0.03375,13.447983870967729,14.516129032258064
13.500000000000021,48,66,0,0.045,13.480322580645183,19.67741935483871
13.499999999999986,75,80,1,0.03375,13.482512218963818,17.487781036168133
13.537499999999985,55,83,1,0.03375,13.52048142717496,17.01857282502444
13.550000000000022,60,76,0,0.045,13.531886608015663,18.113391984359726
13.574999999999985,70,68,1,0.03375,13.555635386119242,19.364613880742915
13.600000000000023,51,63,0,0.045,13.579853372434041,20.146627565982406
13.612499999999985,68,81,1,0.03375,13.595168621700864,17.331378299120235
13.650000000000023,48,72,0,0.045,13.631260997067471,18.73900293255132
13.649999999999984,60,86,1,0.03375,13.633450635386104,16.549364613880744
13.687499999999984,51,64,1,0.03375,13.66750977517105,19.990224828934508
13.700000000000024,51,80,0,0.045,13.682512218963856,17.487781036168133
13.724999999999984,55,87,1,0.03375,13.708607038123152,16.392961876832846
13.750000000000025,53,73,0,0.045,13.73141739980452,18.58260019550342
13.762499999999983,56,62,1,0.03375,13.742196969696954,20.303030303030305
13.799999999999983,63,61,1,0.03375,13.779540566959906,20.459433040078203
13.800000000000026,50,72,0,0.045,13.781260997067474,18.73900293255132
13.837499999999983,60,99,1,0.03375,13.822983870967725,14.516129032258064
13.850000000000026,60,73,0,0.045,13.831417399804522,18.58260019550342
13.874999999999982,56,79,1,0.03375,13.857355816226766,17.64418377321603
13.900000000000027,67,91,0,0.045,13.884232649071386,15.76735092864125
13.912499999999982,62,101,1,0.03375,13.89829667644182,14.203323558162268
13.950000000000028,44,59,0,0.045,13.929227761485853,20.772238514174
13.949999999999982,77,91,1,0.03375,13.93423264907134,15.76735092864125
13.987499999999981,56,68,1,0.03375,13.968135386119238,19.364613880742915
14.000000000000028,70,59,0,0.045,13.979227761485854,20.772238514174
14.02499999999998,60,49,1,0.03375,14.002663734115329,22.33626588465298
14.05000000000003,34,91,0,0.045,14.034232649071388,15.76735092864125
14.06249999999998,60,77,1,0.03375,14.044543010752669,17.956989247311828
14.10000000000003,68,70,0,0.045,14.080948191593382,19.05180840664712
14.09999999999998,60,82,1,0.03375,14.082825024437907,17.174975562072337
14.13749999999998,60,54,1,0.03375,14.115945747800566,21.55425219941349
14.15000000000003,55,68,0,0.045,14.130635386119287,19.364613880742915
14.17499999999998,60,74,1,0.03375,14.156573802541525,18.426197458455523
14.200000000000031,60,91,0,0.045,14.18423264907139,15.76735092864125
14.212499999999979,56,58,1,0.03375,14.191571358748757,20.928641251221897
14.250000000000032,26,82,0,0.045,14.23282502443796,17.174975562072337
14.249999999999979,80,97,1,0.03375,14.235171065493624,14.82893450635386
14.287499999999978,65,110,1,0.03375,14.274704301075246,12.795698924731184
14.300000000000033,44,91,0,0.045,14.284232649071392,15.76735092864125
14.324999999999978,72,69,1,0.03375,14.305791788856283,19.208211143695017
14.350000000000033,43,79,0,0.045,14.332355816226817,17.64418377321603
14.362499999999978,63,76,1,0.03375,14.344386608015618,18.113391984359726
14.400000000000034,51,64,0,0.045,14.3800097751711,19.990224828934508
14.399999999999977,63,103,1,0.03375,14.386109481915911,13.890518084066471
14.437499999999977,62,75,1,0.03375,14.41923020527857,18.269794721407624
14.450000000000035,41,54,0,0.045,14.428445747800621,21.55425219941349
14.474999999999977,56,84,1,0.03375,14.458137829912,16.86217008797654
14.500000000000036,48,65,0,0.045,14.48016617790815,19.83382209188661
14.512499999999976,65,89,1,0.03375,14.49641984359724,16.080156402737046
14.549999999999976,51,58,1,0.03375,14.529071358748753,20.928641251221897
14.550000000000036,67,72,0,0.045,14.531260997067484,18.73900293255132
14.587499999999975,60,54,1,0.03375,14.565945747800562,21.55425219941349
14.600000000000037,58,59,0,0.045,14.579227761485862,20.772238514174
14.624999999999975,36,56,1,0.03375,14.603758553274657,21.241446725317694
14.650000000000038,44,63,0,0.045,14.629853372434056,20.146627565982406
14.662499999999975,72,75,1,0.03375,14.644230205278568,18.269794721407624
14.699999999999974,77,55,1,0.03375,14.678602150537609,21.397849462365592
14.700000000000038,55,67,0,0.045,14.680478983382248,19.521016617790814
14.737499999999974,60,76,1,0.03375,14.719386608015615,18.113391984359726
14.750000000000039,46,80,0,0.045,14.73251221896387,17.487781036168133
14.774999999999974,60,52,1,0.03375,14.753132942326465,21.867057673509287
14.80000000000004,36,65,0,0.045,14.780166177908153,19.83382209188661
14.812499999999973,60,79,1,0.03375,14.794855816226757,17.64418377321603
14.85000000000004,41,66,0,0.045,14.830322580645202,19.67741935483871
14.849999999999973,68,95,1,0.03375,14.834858260019523,15.141739980449657
14.887499999999973,58,84,1,0.03375,14.870637829911995,16.86217008797654
14.900000000000041,46,60,0,0.045,14.879384164222914,20.6158357771261
14.924999999999972,70,78,1,0.03375,14.907199413489709,17.80058651026393
14.950000000000042,55,69,0,0.045,14.930791788856347,19.208211143695017
14.962499999999972,58,81,1,0.03375,14.945168621700851,17.331378299120235
14.999999999999972,65,63,1,0.03375,14.97985337243399,20.146627565982406
15.000000000000043,55,93,0,0.045,14.984545454545497,15.454545454545453
15.037499999999971,55,80,1,0.03375,15.020012218963803,17.487781036168133
15.050000000000043,60,47,0,0.045,15.027350928641294,22.649071358748778
15.07499999999997,62,89,1,0.03375,15.058919843597234,16.080156402737046
15.100000000000044,53,63,0,0.045,15.079853372434062,20.146627565982406
15.11249999999997,62,60,1,0.03375,15.091884164222844,20.6158357771261
15.150000000000045,51,89,0,0.045,15.133919843597308,16.080156402737046
15.14999999999997,48,93,1,0.03375,15.134545454545425,15.454545454545453
15.18749999999997,58,46,1,0.03375,15.164694525904173,22.805474095796676
15.200000000000045,55,72,0,0.045,15.181260997067493,18.73900293255132
15.22499999999997,60,74,1,0.03375,15.206573802541515,18.426197458455523
15.250000000000046,51,75,0,0.045,15.23173020527864,18.269794721407624
15.262499999999969,68,83,1,0.03375,15.245481427174944,17.01857282502444
15.300000000000047,41,72,0,0.045,15.281260997067495,18.73900293255132
15.299999999999969,58,76,1,0.03375,15.28188660801561,18.113391984359726
15.337499999999968,74,82,1,0.03375,15.320325024437896,17.174975562072337
15.350000000000048,62,63,0,0.045,15.329853372434066,20.146627565982406
15.374999999999968,53,42,1,0.03375,15.35156891495598,23.43108504398827
15.400000000000048,51,92,0,0.045,15.384389051808455,15.610948191593351
15.412499999999968,48,59,1,0.03375,15.391727761485793,20.772238514174
15.450000000000049,68,43,0,0.045,15.426725317693109,23.27468230694037
15.449999999999967,74,87,1,0.03375,15.433607038123135,16.392961876832846
15.487499999999967,63,46,1,0.03375,15.46469452590417,22.805474095796676
15.50000000000005,48,60,0,0.045,15.479384164222923,20.6158357771261
15.524999999999967,48,71,1,0.03375,15.506104594330367,18.89540566959922
15.55000000000005,36,94,0,0.045,15.534701857282553,15.298142717497555
15.562499999999966,65,94,1,0.03375,15.547201857282468,15.298142717497555
15.599999999999966,60,69,1,0.03375,15.58079178885627,19.208211143695017
15.600000000000051,53,73,0,0.045,15.581417399804547,18.58260019550342
15.637499999999966,60,94,1,0.03375,15.622201857282468,15.298142717497555
15.650000000000052,44,93,0,0.045,15.634545454545506,15.454545454545453
15.674999999999965,65,72,1,0.03375,15.656260997067413,18.73900293255132
15.700000000000053,36,71,0,0.045,15.681104594330453,18.89540566959922
15.712499999999965,58,67,1,0.03375,15.692978983382174,19.521016617790814
15.750000000000053,56,69,0,0.045,15.730791788856358,19.208211143695017
15.749999999999964,72,90,1,0.03375,15.734076246334276,15.923753665689148
15.787499999999964,67,87,1,0.03375,15.771107038123132,16.392961876832846
15.800000000000054,53,72,0,0.045,15.781260997067502,18.73900293255132
15.824999999999964,36,85,1,0.03375,15.808294232649034,16.705767350928642
15.850000000000055,51,55,0,0.045,15.828602150537689,21.397849462365592
15.862499999999963,63,61,1,0.03375,15.842040566959886,20.459433040078203
15.899999999999963,60,90,1,0.03375,15.884076246334274,15.923753665689148
15.900000000000055,50,111,0,0.045,15.887360703812373,12.639296187683286
15.937499999999963,65,79,1,0.03375,15.919855816226747,17.64418377321603
15.950000000000056,48,67,0,0.045,15.930478983382265,19.521016617790814
15.974999999999962,74,67,1,0.03375,15.955478983382172,19.521016617790814
16.000000000000057,53,75,0,0.045,15.98173020527865,18.269794721407624
16.012499999999964,60,56,1,0.03375,15.991258553274646,21.241446725317694
16.050000000000058,44,65,0,0.045,16.03016617790817,19.83382209188661
16.049999999999965,24,98,1,0.03375,16.03532746823066,14.672531769305962
16.087499999999967,65,77,1,0.03375,16.069543010752653,17.956989247311828
16.10000000000006,46,74,0,0.045,16.0815738025416,18.426197458455523
16.124999999999968,67,75,1,0.03375,16.10673020527856,18.269794721407624
16.15000000000006,39,80,0,0.045,16.132512218963893,17.487781036168133
16.16249999999997,70,84,1,0.03375,16.145637829911994,16.86217008797654
16.19999999999997,65,75,1,0.03375,16.181730205278562,18.269794721407624
16.20000000000006,48,76,0,0.045,16.1818866080157,18.113391984359726
16.237499999999972,63,68,1,0.03375,16.21813538611923,19.364613880742915
16.25000000000006,51,75,0,0.045,16.23173020527865,18.269794721407624
16.274999999999974,60,63,1,0.03375,16.254853372433992,20.146627565982406
16.30000000000006,41,87,0,0.045,16.28360703812323,16.392961876832846
16.312499999999975,62,100,1,0.03375,16.298140273704764,14.359726295210166
16.350000000000062,55,59,0,0.045,16.32922776148589,20.772238514174
16.349999999999977,67,69,1,0.03375,16.33079178885628,19.208211143695017
16.387499999999978,60,83,1,0.03375,16.370481427174955,17.01857282502444
16.400000000000063,46,39,0,0.045,16.37609970674493,23.900293255131963
16.42499999999998,65,78,1,0.03375,16.407199413489714,17.80058651026393
16.450000000000063,50,70,0,0.045,16.430948191593416,19.05180840664712
16.46249999999998,80,113,1,0.03375,16.450173509286394,12.32649071358749
16.500000000000064,56,23,0,0.045,16.473597262952165,26.402737047898338
16.499999999999982,65,73,1,0.03375,16.481417399804478,18.58260019550342
16.537499999999984,70,61,1,0.03375,16.517040566959906,20.459433040078203
16.550000000000065,29,88,0,0.045,16.53376344086028,16.236559139784944
16.574999999999985,67,97,1,0.03375,16.56017106549363,14.82893450635386
16.600000000000065,60,77,0,0.045,16.582043010752752,17.956989247311828
16.612499999999986,77,69,1,0.03375,16.59329178885629,19.208211143695017
16.650000000000066,39,72,0,0.045,16.631260997067514,18.73900293255132
16.649999999999988,74,76,1,0.03375,16.631886608015627,18.113391984359726
16.68749999999999,63,46,1,0.03375,16.664694525904192,22.805474095796676
16.700000000000067,67,77,0,0.045,16.682043010752754,17.956989247311828
16.72499999999999,62,78,1,0.03375,16.707199413489725,17.80058651026393
16.750000000000068,50,66,0,0.045,16.73032258064523,19.67741935483871
16.762499999999992,60,74,1,0.03375,16.744073802541536,18.426197458455523
16.800000000000068,39,78,0,0.045,16.782199413489803,17.80058651026393
16.799999999999994,77,101,1,0.03375,16.78579667644183,14.203323558162268
16.837499999999995,56,63,1,0.03375,16.817353372434013,20.146627565982406
16.85000000000007,72,64,0,0.045,16.830009775171135,19.990224828934508
16.874999999999996,56,70,1,0.03375,16.85594819159335,19.05180840664712
16.90000000000007,50,83,0,0.045,16.882981427175046,17.01857282502444
16.912499999999998,56,50,1,0.03375,16.89032013685239,22.179863147605083
16.95,44,59,1,0.03375,16.929227761485826,20.772238514174
16.95000000000007,39,84,0,0.045,16.933137829912095,16.86217008797654
16.9875,70,91,1,0.03375,16.97173264907136,15.76735092864125
17.00000000000007,53,55,0,0.045,16.978602150537707,21.397849462365592
17.025000000000002,72,77,1,0.03375,17.00704301075269,17.956989247311828
17.05000000000007,53,101,0,0.045,17.035796676441908,14.203323558162268
17.062500000000004,63,82,1,0.03375,17.045325024437933,17.174975562072337
17.100000000000072,48,52,0,0.045,17.07813294232656,21.867057673509287
17.100000000000005,53,82,1,0.03375,17.082825024437934,17.174975562072337
17.137500000000006,72,75,1,0.03375,17.119230205278598,18.269794721407624
17.150000000000073,48,60,0,0.045,17.129384164222948,20.6158357771261
17.175000000000008,63,86,1,0.03375,17.158450635386128,16.549364613880744
17.200000000000074,60,70,0,0.045,17.180948191593426,19.05180840664712
17.21250000000001,65,69,1,0.03375,17.193291788856314,19.208211143695017
17.250000000000075,63,72,0,0.045,17.231260997067523,18.73900293255132
17.25000000000001,70,90,1,0.03375,17.234076246334322,15.923753665689148
17.287500000000012,63,72,1,0.03375,17.26876099706746,18.73900293255132
17.300000000000075,46,79,0,0.045,17.282355816226858,17.64418377321603
17.325000000000014,48,69,1,0.03375,17.305791788856318,19.208211143695017
17.350000000000076,51,57,0,0.045,17.328914956011808,21.085043988269796
17.362500000000015,68,53,1,0.03375,17.340789345063552,21.71065493646139
17.400000000000077,51,56,0,0.045,17.37875855327476,21.241446725317694
17.400000000000016,63,63,1,0.03375,17.379853372434034,20.146627565982406
17.437500000000018,65,100,1,0.03375,17.423140273704806,14.359726295210166
17.450000000000077,39,77,0,0.045,17.432043010752764,17.956989247311828
17.47500000000002,67,88,1,0.03375,17.458763440860235,16.236559139784944
17.500000000000078,53,98,0,0.045,17.48532746823077,14.672531769305962
17.51250000000002,63,51,1,0.03375,17.490476539589462,22.023460410557185
17.550000000000022,68,56,1,0.03375,17.528758553274706,21.241446725317694
17.55000000000008,44,74,0,0.045,17.531573802541622,18.426197458455523
17.587500000000023,72,61,1,0.03375,17.567040566959946,20.459433040078203
17.60000000000008,44,87,0,0.045,17.583607038123247,16.392961876832846
17.625000000000025,55,74,1,0.03375,17.60657380254157,18.426197458455523
17.65000000000008,48,79,0,0.045,17.632355816226863,17.64418377321603
17.662500000000026,58,76,1,0.03375,17.644386608015665,18.113391984359726
17.700000000000028,70,94,1,0.03375,17.68470185728253,15.298142717497555
17.70000000000008,68,95,0,0.045,17.68485826001963,15.141739980449657
17.73750000000003,62,67,1,0.03375,17.71797898338224,19.521016617790814
17.75000000000008,48,84,0,0.045,17.733137829912106,16.86217008797654
17.77500000000003,67,62,1,0.03375,17.754696969697,20.303030303030305
17.800000000000082,50,76,0,0.045,17.78188660801572,18.113391984359726
17.812500000000032,65,73,1,0.03375,17.793917399804528,18.58260019550342
17.850000000000083,44,74,0,0.045,17.831573802541627,18.426197458455523
17.850000000000033,70,89,1,0.03375,17.833919843597297,16.080156402737046
17.887500000000035,48,67,1,0.03375,17.867978983382244,19.521016617790814
17.900000000000084,65,63,0,0.045,17.879853372434102,20.146627565982406
17.925000000000036,63,104,1,0.03375,17.911265884653016,13.734115347018573
17.950000000000085,39,68,0,0.045,17.93063538611934,19.364613880742915
17.962500000000038,48,88,1,0.03375,17.946263440860253,16.236559139784944
18.000000000000085,51,76,0,0.045,17.981886608015724,18.113391984359726
18.00000000000004,68,96,1,0.03375,17.985014662756637,14.985337243401759
18.03750000000004,77,79,1,0.03375,18.019855816226823,17.64418377321603
18.050000000000086,36,67,0,0.045,18.030478983382295,19.521016617790814
18.075000000000042,63,101,1,0.03375,18.06079667644188,14.203323558162268
18.100000000000087,65,84,0,0.045,18.08313782991211,16.86217008797654
18.112500000000043,56,90,1,0.03375,18.096576246334354,15.923753665689148
18.150000000000087,53,69,0,0.045,18.130791788856392,19.208211143695017
18.150000000000045,63,88,1,0.03375,18.13376344086026,16.236559139784944
18.187500000000046,63,63,1,0.03375,18.167353372434064,20.146627565982406
18.200000000000088,38,104,0,0.045,18.186265884653068,13.734115347018573
18.225000000000048,82,64,1,0.03375,18.205009775171114,19.990224828934508
18.25000000000009,36,68,0,0.045,18.230635386119346,19.364613880742915
18.26250000000005,79,73,1,0.03375,18.243917399804545,18.58260019550342
18.30000000000009,65,86,0,0.045,18.28345063538621,16.549364613880744
18.30000000000005,60,90,1,0.03375,18.28407624633436,15.923753665689148
18.337500000000052,63,81,1,0.03375,18.320168621700933,17.331378299120235
18.35000000000009,56,51,0,0.045,18.32797653958953,22.023460410557185
18.375000000000053,48,88,1,0.03375,18.35876344086027,16.236559139784944
18.40000000000009,55,64,0,0.045,18.380009775171157,19.990224828934508
18.412500000000055,65,62,1,0.03375,18.392196969697025,20.303030303030305
18.45000000000009,70,76,0,0.045,18.43188660801573,18.113391984359726
18.450000000000056,63,92,1,0.03375,18.434389051808463,15.610948191593351
18.487500000000058,44,88,1,0.03375,18.471263440860273,16.236559139784944
18.500000000000092,48,75,0,0.045,18.481730205278684,18.269794721407624
18.52500000000006,53,81,1,0.03375,18.50766862170094,17.331378299120235
18.550000000000093,63,78,0,0.045,18.532199413489828,17.80058651026393
18.56250000000006,62,85,1,0.03375,18.545794232649133,16.705767350928642
18.600000000000094,41,40,0,0.045,18.57625610948201,23.743890518084065
18.600000000000062,63,81,1,0.03375,18.582668621700943,17.331378299120235
18.637500000000063,65,54,1,0.03375,18.615945747800648,21.55425219941349
18.650000000000095,53,62,0,0.045,18.629696969697065,20.303030303030305
18.675000000000065,48,82,1,0.03375,18.657825024437994,17.174975562072337
18.700000000000095,68,91,0,0.045,18.684232649071454,15.76735092864125
18.712500000000066,56,51,1,0.03375,18.690476539589508,22.023460410557185
18.750000000000068,75,85,1,0.03375,18.73329423264914,16.705767350928642
18.750000000000096,53,91,0,0.045,18.734232649071455,15.76735092864125
18.78750000000007,65,88,1,0.03375,18.771263440860285,16.236559139784944
18.800000000000097,36,33,0,0.045,18.77516129032268,24.838709677419356
18.82500000000007,65,67,1,0.03375,18.80547898338228,19.521016617790814
18.850000000000097,36,79,0,0.045,18.83235581622688,17.64418377321603
18.86250000000007,53,68,1,0.03375,18.84313538611933,19.364613880742915
18.900000000000073,62,69,1,0.03375,18.880791788856378,19.208211143695017
18.900000000000098,36,73,0,0.045,18.881417399804594,18.58260019550342
18.937500000000075,72,77,1,0.03375,18.91954301075276,17.956989247311828
18.9500000000001,58,56,0,0.045,18.928758553274783,21.241446725317694
18.975000000000076,65,82,1,0.03375,18.957825024438005,17.174975562072337
19.0000000000001,53,85,0,0.045,18.983294232649172,16.705767350928642
19.012500000000077,70,87,1,0.03375,18.996107038123245,16.392961876832846
19.05000000000008,65,79,1,0.03375,19.03235581622686,17.64418377321603
19.0500000000001,51,107,0,0.045,19.036735092864227,13.264907135874878
19.08750000000008,75,73,1,0.03375,19.068917399804576,18.58260019550342
19.1000000000001,44,79,0,0.045,19.082355816226883,17.64418377321603
19.12500000000008,70,67,1,0.03375,19.10547898338229,19.521016617790814
19.1500000000001,51,80,0,0.045,19.132512218963935,17.487781036168133
19.162500000000083,74,65,1,0.03375,19.142666177908197,19.83382209188661
19.200000000000085,79,65,1,0.03375,19.180166177908198,19.83382209188661
19.200000000000102,50,87,0,0.045,19.18360703812327,16.392961876832846
19.237500000000086,56,95,1,0.03375,19.222358260019636,15.141739980449657
19.250000000000103,58,53,0,0.045,19.22828934506364,21.71065493646139
19.275000000000087,67,93,1,0.03375,19.259545454545542,15.454545454545453
19.300000000000104,46,58,0,0.045,19.279071358748883,20.928641251221897
19.31250000000009,65,52,1,0.03375,19.290632942326578,21.867057673509287
19.350000000000104,53,80,0,0.045,19.332512218963938,17.487781036168133
19.35000000000009,74,96,1,0.03375,19.335014662756688,14.985337243401759
19.38750000000009,68,80,1,0.03375,19.370012218963925,17.487781036168133
19.400000000000105,60,90,0,0.045,19.384076246334416,15.923753665689148
19.425000000000093,48,58,1,0.03375,19.404071358748872,20.928641251221897
19.450000000000106,56,79,0,0.045,19.432355816226888,17.64418377321603
19.462500000000095,56,55,1,0.03375,19.44110215053773,21.397849462365592
19.500000000000096,60,78,1,0.03375,19.48219941348983,17.80058651026393
19.500000000000107,56,94,0,0.045,19.48470185728261,15.298142717497555
19.537500000000097,68,69,1,0.03375,19.518291788856402,19.208211143695017
19.550000000000107,41,66,0,0.045,19.53032258064527,19.67741935483871
19.5750000000001,65,67,1,0.03375,19.555478983382308,19.521016617790814
19.600000000000108,41,121,0,0.045,19.588924731182903,11.0752688172043
19.6125000000001,80,70,1,0.03375,19.593448191593453,19.05180840664712
19.65000000000011,56,66,0,0.045,19.63032258064527,19.67741935483871
19.6500000000001,58,88,1,0.03375,19.633763440860317,16.236559139784944
19.687500000000103,60,59,1,0.03375,19.66672776148593,20.772238514174
19.70000000000011,38,57,0,0.045,19.67891495601184,21.085043988269796
19.725000000000104,70,62,1,0.03375,19.704696969697075,20.303030303030305
19.75000000000011,48,96,0,0.045,19.735014662756708,14.985337243401759
19.762500000000106,70,81,1,0.03375,19.745168621700987,17.331378299120235
19.80000000000011,65,94,0,0.045,19.784701857282613,15.298142717497555
19.800000000000107,68,100,1,0.03375,19.785640273704896,14.359726295210166
19.83750000000011,67,89,1,0.03375,19.821419843597372,16.080156402737046
19.85000000000011,51,60,0,0.045,19.829384164222986,20.6158357771261
19.87500000000011,65,94,1,0.03375,19.859701857282612,15.298142717497555
19.900000000000112,67,84,0,0.045,19.883137829912137,16.86217008797654
19.91250000000011,65,58,1,0.03375,19.89157135874889,20.928641251221897
19.950000000000113,51,70,0,0.045,19.930948191593465,19.05180840664712
19.950000000000113,51,73,1,0.03375,19.93141739980461,18.58260019550342
19.987500000000114,65,96,1,0.03375,19.972514662756712,14.985337243401759
20.000000000000114,60,63,0,0.045,19.979853372434132,20.146627565982406
20.025000000000116,60,78,1,0.03375,20.00719941348985,17.80058651026393
20.050000000000114,36,69,0,0.045,20.03079178885642,19.208211143695017
20.062500000000117,48,106,1,0.03375,20.049078690127196,13.421309872922777
20.10000000000012,62,73,1,0.03375,20.081417399804614,18.58260019550342
20.100000000000115,65,75,0,0.045,20.081730205278706,18.269794721407624
20.13750000000012,55,95,1,0.03375,20.12235826001967,15.141739980449657
20.150000000000116,48,100,0,0.045,20.135640273704905,14.359726295210166
20.17500000000012,55,75,1,0.03375,20.156730205278713,18.269794721407624
20.200000000000117,48,61,0,0.045,20.17954056696004,20.459433040078203
20.212500000000123,65,72,1,0.03375,20.19376099706757,18.73900293255132
20.250000000000117,39,52,0,0.045,20.228132942326607,21.867057673509287
20.250000000000124,65,90,1,0.03375,20.234076246334435,15.923753665689148
20.287500000000126,75,90,1,0.03375,20.271576246334437,15.923753665689148
20.300000000000118,60,82,0,0.045,20.282825024438047,17.174975562072337
20.325000000000127,70,96,1,0.03375,20.310014662756725,14.985337243401759
20.35000000000012,65,65,0,0.045,20.330166177908232,19.83382209188661
20.36250000000013,65,68,1,0.03375,20.343135386119386,19.364613880742915
20.40000000000013,74,57,1,0.03375,20.37891495601186,21.085043988269796
20.40000000000012,39,59,0,0.045,20.379227761485947,20.772238514174
20.43750000000013,51,83,1,0.03375,20.42048142717511,17.01857282502444
20.45000000000012,48,64,0,0.045,20.430009775171186,19.990224828934508
20.475000000000133,79,64,1,0.03375,20.4550097751712,19.990224828934508
20.50000000000012,46,58,0,0.045,20.4790713587489,20.928641251221897
20.512500000000134,65,56,1,0.03375,20.491258553274818,21.241446725317694
20.550000000000136,65,61,1,0.03375,20.52954056696006,20.459433040078203
20.55000000000012,55,86,0,0.045,20.53345063538624,16.549364613880744
20.587500000000137,70,69,1,0.03375,20.568291788856442,19.208211143695017
20.600000000000122,51,54,0,0.045,20.578445747800707,21.55425219941349
20.62500000000014,60,104,1,0.03375,20.61126588465312,13.734115347018573
20.650000000000123,44,93,0,0.045,20.634545454545577,15.454545454545453
20.66250000000014,60,59,1,0.03375,20.641727761485967,20.772238514174
20.700000000000124,55,68,0,0.045,20.68063538611938,19.364613880742915
20.70000000000014,63,88,1,0.03375,20.683763440860357,16.236559139784944
20.737500000000143,82,80,1,0.03375,20.720012218963976,17.487781036168133
20.750000000000124,41,77,0,0.045,20.73204301075281,17.956989247311828
20.775000000000144,55,68,1,0.03375,20.7556353861194,19.364613880742915
20.800000000000125,65,63,0,0.045,20.779853372434143,20.146627565982406
20.812500000000146,62,102,1,0.03375,20.79845307917903,14.04692082111437
20.850000000000126,50,75,0,0.045,20.831730205278717,18.269794721407624
20.850000000000147,68,82,1,0.03375,20.832825024438076,17.174975562072337
20.88750000000015,55,95,1,0.03375,20.8723582600197,15.141739980449657
20.900000000000126,41,93,0,0.045,20.88454545454558,15.454545454545453
20.92500000000015,62,86,1,0.03375,20.90845063538627,16.549364613880744
20.950000000000127,62,40,0,0.045,20.926256109482043,23.743890518084065
20.96250000000015,65,61,1,0.03375,20.942040566960074,20.459433040078203
21.000000000000128,56,40,0,0.045,20.976256109482044,23.743890518084065
21.000000000000153,56,73,1,0.03375,20.98141739980465,18.58260019550342
21.037500000000154,68,95,1,0.03375,21.022358260019704,15.141739980449657
21.05000000000013,55,92,0,0.045,21.034389051808535,15.610948191593351
21.075000000000156,65,68,1,0.03375,21.055635386119413,19.364613880742915
21.10000000000013,56,70,0,0.045,21.08094819159348,19.05180840664712
21.112500000000157,48,78,1,0.03375,21.09469941348989,17.80058651026393
21.15000000000013,63,71,0,0.045,21.13110459433053,18.89540566959922
21.15000000000016,63,76,1,0.03375,21.131886608015797,18.113391984359726
21.18750000000016,68,87,1,0.03375,21.171107038123328,16.392961876832846
21.20000000000013,41,75,0,0.045,21.181730205278722,18.269794721407624
21.22500000000016,68,91,1,0.03375,21.20923264907152,15.76735092864125
21.25000000000013,36,68,0,0.045,21.23063538611939,19.364613880742915
21.262500000000163,74,62,1,0.03375,21.242196969697133,20.303030303030305
21.300000000000164,60,68,1,0.03375,21.28063538611942,19.364613880742915
21.300000000000132,80,73,0,0.045,21.281417399804628,18.58260019550342
21.337500000000166,58,83,1,0.03375,21.320481427175142,17.01857282502444
21.350000000000133,38,78,0,0.045,21.332199413489867,17.80058651026393
21.375000000000167,60,69,1,0.03375,21.35579178885647,19.208211143695017
21.400000000000134,43,106,0,0.045,21.386578690127212,13.421309872922777
21.41250000000017,68,96,1,0.03375,21.397514662756766,14.985337243401759
21.45000000000017,48,64,1,0.03375,21.430009775171236,19.990224828934508
21.450000000000134,39,81,0,0.045,21.432668621701016,17.331378299120235
21.48750000000017,62,65,1,0.03375,21.467666177908285,19.83382209188661
21.500000000000135,58,83,0,0.045,21.482981427175112,17.01857282502444
21.525000000000173,48,65,1,0.03375,21.505166177908286,19.83382209188661
21.550000000000136,53,50,0,0.045,21.52782013685253,22.179863147605083
21.562500000000174,77,83,1,0.03375,21.54548142717515,17.01857282502444
21.600000000000136,53,76,0,0.045,21.581886608015775,18.113391984359726
21.600000000000176,72,84,1,0.03375,21.5831378299122,16.86217008797654
21.637500000000177,58,56,1,0.03375,21.61625855327486,21.241446725317694
21.650000000000137,65,95,0,0.045,21.634858260019687,15.141739980449657
21.67500000000018,51,43,1,0.03375,21.651725317693238,23.27468230694037
21.700000000000138,56,92,0,0.045,21.684389051808544,15.610948191593351
21.71250000000018,51,79,1,0.03375,21.694855816226962,17.64418377321603
21.75000000000014,39,67,0,0.045,21.730478983382348,19.521016617790814
21.75000000000018,65,72,1,0.03375,21.73126099706763,18.73900293255132
21.787500000000183,63,71,1,0.03375,21.768604594330583,18.89540566959922
21.80000000000014,63,97,0,0.045,21.785171065493785,14.82893450635386
21.825000000000184,56,89,1,0.03375,21.808919843597447,16.080156402737046
21.85000000000014,60,67,0,0.045,21.83047898338235,19.521016617790814
21.862500000000185,65,78,1,0.03375,21.84469941348992,17.80058651026393
21.900000000000187,53,55,1,0.03375,21.878602150537823,21.397849462365592
21.90000000000014,51,67,0,0.045,21.88047898338235,19.521016617790814
21.93750000000019,60,83,1,0.03375,21.920481427175165,17.01857282502444
21.95000000000014,24,77,0,0.045,21.932043010752828,17.956989247311828
21.97500000000019,72,72,1,0.03375,21.956260997067638,18.73900293255132
22.0,63,86,1,0.009000000000000001,21.98345063538612,16.549364613880744
22.0,33,90,0,0.0350377885232092,21.98407624633431,15.923753665689148
22.01,67,101,1,0.009000000000000001,21.995796676441838,14.203323558162268
22.020000000000003,46,75,1,0.009000000000000001,22.001730205278594,18.269794721407624
22.030000000000005,48,90,1,0.011321225651021154,22.014076246334316,15.923753665689148
22.0389308761369,60,78,0,0.013075738496096148,22.021130289626633,17.80058651026393
22.04257913961225,67,92,1,0.009000000000000001,22.026968191420657,15.610948191593351
22.053459474465896,55,109,0,0.009000000000000001,22.040507372804118,12.952101661779082
22.052579139612252,75,115,1,0.009000000000000001,22.04056545437276,12.013685239491693
22.063459474465898,37,70,0,0.009000000000000001,22.04440766605925,19.05180840664712
22.062579139612254,71,90,1,0.014644159018492274,22.046655385946565,15.923753665689148
22.0734594744659,53,75,0,0.009000000000000001,22.05518967974449,18.269794721407624
22.07885042741058,57,69,1,0.009000000000000001,22.059642216266884,19.208211143695017
22.0834594744659,60,71,0,0.009000000000000001,22.0645640687963,18.89540566959922
22.08885042741058,46,97,1,0.00984621468745886,22.074021492904226,14.82893450635386
22.093459474465902,52,68,0,0.04847045020814633,22.07409486058516,19.364613880742915
22.099790665952202,78,118,1,0.014440613287306387,22.088246188923854,11.544477028347998
22.11583579182699,53,72,1,0.009000000000000001,22.097096788894437,18.73900293255132
22.12583579182699,53,106,1,0.009000000000000001,22.11241448195407,13.421309872922777
22.13583579182699,42,115,1,0.012775315960466738,22.1238221065875,12.013685239491693
22.147315530252733,25,78,0,0.019253750862603582,22.129514943742468,17.80058651026393
22.15003058733862,48,86,1,0.009000000000000001,22.13348122272474,16.549364613880744
22.16003058733862,34,81,1,0.009000000000000001,22.142699209039503,17.331378299120235
22.168708586766737,43,87,0,0.009000000000000001,22.152315624889905,16.392961876832846
22.170030587338623,100,110,1,0.023013887289730684,22.157234888413893,12.795698924731184
22.17870858676674,58,90,0,0.05921799543949414,22.16278483310105,15.923753665689148
22.195601573216102,51,69,1,0.037507271450486386,22.176393362072407,19.208211143695017
22.237276319272198,57,96,1,0.009000000000000001,22.222290982028795,14.985337243401759
22.24450635947729,50,80,0,0.014649880653082632,22.227018578441122,17.487781036168133
22.2472763192722,58,116,1,0.019200900291646752,22.235419036769756,11.857282502443795
22.26078400464738,72,79,0,0.009000000000000001,22.243139820874163,17.64418377321603
22.268610652929585,64,100,1,0.02988281448310113,22.254250926634374,14.359726295210166
22.270784004647382,57,117,0,0.010057337751115315,22.259083124881986,11.700879765395896
22.281958824370843,22,78,0,0.01643718829540168,22.264158237860578,17.80058651026393
22.30022236692129,48,79,0,0.010201270034786377,22.282578183148072,17.64418377321603
22.30181378013303,60,113,1,0.009000000000000001,22.289487289419444,12.32649071358749
22.311557111404387,52,110,0,0.01010321806668662,22.298761412479656,12.795698924731184
22.311813780133033,32,117,1,0.009000000000000001,22.300112900367637,11.700879765395896
22.321813780133034,29,65,1,0.011039214480440037,22.301979958041148,19.83382209188661
22.32278290925626,57,66,0,0.04401018611262934,22.303105489901423,19.67741935483871
22.33407957400019,55,82,1,0.009000000000000001,22.316904598438118,17.174975562072337
22.34407957400019,101,82,1,0.009000000000000001,22.32690459843812,17.174975562072337
22.354079574000192,68,92,1,0.009000000000000001,22.3384686258086,15.610948191593351
22.364079574000193,62,104,1,0.009000000000000001,22.350345458653173,13.734115347018573
22.37168311604807,55,80,0,0.009000000000000001,22.354195335011905,17.487781036168133
22.374079574000195,72,106,1,0.009000000000000001,22.360658264127274,13.421309872922777
22.381683116048073,65,79,0,0.05651690424784034,22.364038932274855,17.64418377321603
22.384079574000197,53,80,1,0.009000000000000001,22.36659179296403,17.487781036168133
22.394079574000198,48,70,1,0.009000000000000001,22.37502776559355,19.05180840664712
22.4040795740002,44,74,1,0.009000000000000001,22.385653376541743,18.426197458455523
22.4140795740002,37,116,1,0.009000000000000001,22.402222291497758,11.857282502443795
22.424079574000203,75,74,1,0.009000000000000001,22.405653376541746,18.426197458455523
22.434079574000204,84,77,1,0.009000000000000001,22.41612258475289,17.956989247311828
22.444079574000206,56,117,1,0.009000000000000001,22.43237869423481,11.700879765395896
22.44447967632345,52,116,0,0.009000000000000001,22.432622393821006,11.857282502443795
22.45447967632345,41,65,0,0.009000000000000001,22.434645854231565,19.83382209188661
22.454079574000207,60,77,1,0.016032407257008253,22.436122584752894,17.956989247311828
22.464479676323453,41,95,0,0.009000000000000001,22.449337936343003,15.141739980449657
22.471893359841328,60,104,1,0.009000000000000001,22.458159244494308,13.734115347018573
22.474479676323455,43,110,0,0.009000000000000001,22.461683977398724,12.795698924731184
22.48189335984133,81,95,1,0.009000000000000001,22.46675161986088,15.141739980449657
22.484479676323456,80,115,0,0.01937449473817479,22.472465991083965,12.013685239491693
22.49189335984133,71,96,1,0.009000000000000001,22.47690802259793,14.985337243401759
22.501893359841333,97,82,1,0.011706008231341044,22.48471838427926,17.174975562072337
22.506006892699205,44,89,0,0.009000000000000001,22.489926736296468,16.080156402737046
22.514900035653934,50,86,1,0.016551371978164437,22.498350671040054,16.549364613880744
22.516006892699206,56,85,0,0.009000000000000001,22.49930112534828,16.705767350928642
22.526006892699208,88,77,0,0.027679618830365866,22.508049903451894,17.956989247311828
22.533290448963005,73,105,1,0.009000000000000001,22.519712736353036,13.577712609970675
22.543290448963006,21,109,1,0.009617542686873603,22.530338347301228,12.952101661779082
22.553976607503976,81,66,1,0.009000000000000001,22.534299188149138,19.67741935483871
22.556762024732947,79,94,0,0.009000000000000001,22.54146388201545,15.298142717497555
22.563976607503978,75,112,1,0.03150923708806335,22.551493714053343,12.482893450635387
22.56676202473295,45,112,0,0.023888625773604948,22.554279131282314,12.482893450635387
22.593304942259177,81,111,0,0.009000000000000001,22.580665646071495,12.639296187683286
22.59898687093516,51,97,1,0.009352753928135966,22.584157936428806,14.82893450635386
22.60330494225918,63,88,0,0.024628628889671534,22.587068383119394,16.236559139784944
22.6093788197442,46,103,1,0.010826660935760365,22.595488301660133,13.890518084066471
22.621408443006157,38,97,1,0.009000000000000001,22.606579508499802,14.82893450635386
22.630670085469927,58,71,0,0.012494971029186232,22.611774679800327,18.89540566959922
22.63140844300616,73,73,1,0.009000000000000001,22.612825842810654,18.58260019550342
22.64140844300616,70,67,1,0.01509679080620359,22.62188742638837,19.521016617790814
22.644553386613467,69,91,0,0.043446215925534125,22.628786035684826,15.76735092864125
22.658182655013054,29,98,1,0.02206094834275864,22.643510123243747,14.672531769305962
22.682694819838343,47,83,1,0.009000000000000001,22.66567624701332,17.01857282502444
22.692694819838344,80,63,1,0.009000000000000001,22.672548192272362,20.146627565982406
22.69282695986406,57,116,0,0.0514024490628633,22.680969677361617,11.857282502443795
22.702694819838346,35,90,1,0.02512420285576314,22.686771066172657,15.923753665689148
22.730610600789195,82,116,1,0.01349296512986676,22.71875331828675,11.857282502443795
22.745602784266826,74,104,1,0.030906986831538814,22.731868668919805,13.734115347018573
22.74994079215613,52,92,0,0.04337581867709933,22.734329843964538,15.610948191593351
22.779943880746313,93,98,1,0.009000000000000001,22.765271348977006,14.672531769305962
22.789943880746314,53,74,1,0.009000000000000001,22.771517683287858,18.426197458455523
22.7981361462418,88,83,0,0.009000000000000001,22.781117573416775,17.01857282502444
22.799943880746316,69,90,1,0.013829071524177604,22.784020127080627,15.923753665689148
22.8081361462418,21,113,0,0.02556654068410625,22.795809655528213,12.32649071358749
22.81530951577318,75,89,1,0.011415800095755655,22.799229359370443,16.080156402737046
22.827993738101796,80,111,1,0.009245523199332185,22.815354441914113,12.639296187683286
22.836543413668586,60,77,0,0.02416880107286831,22.818586424421273,17.956989247311828
22.83826654165661,73,72,1,0.016667654878042316,22.819527538724056,18.73900293255132
22.856786158187766,89,87,1,0.009000000000000001,22.840393196310934,16.392961876832846
22.863397637082883,28,70,0,0.030877712167822084,22.844345828676236,19.05180840664712
22.866786158187768,34,102,1,0.00945270692625191,22.852739237366652,14.04692082111437
22.877289165883603,21,103,1,0.018459551312905425,22.863398647799535,13.890518084066471
22.89770620615824,53,67,0,0.013598372191069309,22.87818518954045,19.521016617790814
22.897799778453496,41,89,1,0.009000000000000001,22.88171962205076,16.080156402737046
22.907799778453498,82,63,1,0.01235643634100512,22.887653150887516,20.146627565982406
22.91281550859276,35,71,0,0.009477520112172264,22.89392010292316,18.89540566959922
22.921529152165725,83,80,1,0.009000000000000001,22.90404137112956,17.487781036168133
22.923346086495176,62,70,0,0.009000000000000001,22.90429427808853,19.05180840664712
22.931529152165727,26,76,1,0.009000000000000001,22.913415760181365,18.113391984359726
22.933346086495177,64,118,0,0.009000000000000001,22.92180160946683,11.544477028347998
22.941529152165728,82,78,1,0.012739276757231755,22.923728565655463,17.80058651026393
22.94334608649518,25,86,0,0.009000000000000001,22.9267967218813,16.549364613880744
22.95334608649518,75,70,0,0.009000000000000001,22.934294278088533,19.05180840664712
22.955683904118207,39,107,1,0.009000000000000001,22.942418996982333,13.264907135874878
22.965683904118208,21,87,1,0.009000000000000001,22.949290942241376,16.392961876832846
22.963346086495182,54,107,0,0.009000000000000001,22.95008117935931,13.264907135874878
22.973346086495184,27,85,0,0.009000000000000001,22.956640319144256,16.705767350928642
22.97568390411821,59,106,1,0.01228723956678927,22.96226259424529,13.421309872922777
22.983346086495185,62,105,0,0.05318100360084105,22.969768373885216,13.577712609970675
22.989336392525754,46,118,1,0.01898094982641923,22.977791915497406,11.544477028347998
23.010426336777332,64,72,1,0.009000000000000001,22.99168733384478,18.73900293255132
23.020426336777334,42,89,1,0.009000000000000001,23.004346180374597,16.080156402737046
23.030426336777335,43,70,1,0.01711782986840167,23.011374528370688,19.05180840664712
23.04243609049612,78,66,0,0.009000000000000001,23.022758671141283,19.67741935483871
23.049446147742227,63,96,1,0.009000000000000001,23.034460810498825,14.985337243401759
23.052436090496123,47,116,0,0.05453037086775923,23.04057880799368,11.857282502443795
23.05944614774223,37,97,1,0.009000000000000001,23.044617213235874,14.82893450635386
23.06944614774223,40,72,1,0.009000000000000001,23.050707144809678,18.73900293255132
23.07944614774223,73,109,1,0.009000000000000001,23.066494046080454,12.952101661779082
23.089446147742233,55,86,1,0.009000000000000001,23.072896783128353,16.549364613880744
23.099446147742235,56,109,1,0.022827767336752586,23.086494046080457,12.952101661779082
23.1130253914603,67,63,0,0.009000000000000001,23.09287876389432,20.146627565982406
23.12481033367196,60,78,1,0.009000000000000001,23.107009747161694,17.80058651026393
23.123025391460303,57,97,0,0.009000000000000001,23.108196456953948,14.82893450635386
23.133025391460304,47,86,0,0.009000000000000001,23.116476026846424,16.549364613880744
23.13481033367196,65,111,1,0.009000000000000001,23.12217103748428,12.639296187683286
23.143025391460306,56,84,0,0.02363811468472321,23.12616322137233,16.86217008797654
23.144810333671963,47,113,1,0.009000000000000001,23.132483842958376,12.32649071358749
23.154810333671964,86,77,1,0.009000000000000001,23.13685334442465,17.956989247311828
23.164810333671966,60,70,1,0.009000000000000001,23.145758525265318,19.05180840664712
23.174810333671967,104,66,1,0.011200763197959577,23.15513291431713,19.67741935483871
23.169289963332222,88,111,0,0.01858386839780458,23.15665066714454,12.639296187683286
23.187255626114144,50,89,1,0.06538880028458996,23.171175469711407,16.080156402737046
23.18993870599645,34,102,0,0.022990459440267695,23.175891785175335,14.04692082111437
23.21548366093008,49,77,0,0.018467929851941615,23.197526671682766,17.956989247311828
23.23600358298779,64,100,0,0.03511421170496387,23.22164385669258,14.359726295210166
23.259909848652576,63,62,1,0.009000000000000001,23.239606818349547,20.303030303030305
23.269909848652578,91,113,1,0.01116919103832163,23.25758335793899,12.32649071358749
23.275019373771084,55,95,0,0.02082980504751049,23.259877633790634,15.141739980449657
23.282320060917378,64,82,1,0.010903260049320126,23.265145085355307,17.174975562072337
23.29816360160165,62,72,0,0.009000000000000001,23.2794245986691,18.73900293255132
23.294434794305513,81,118,1,0.009000000000000001,23.282890317277165,11.544477028347998
23.304434794305514,73,69,1,0.009000000000000001,23.28522658316182,19.208211143695017
23.308163601601652,50,91,0,0.09724347785993852,23.29239625067301,15.76735092864125
23.314434794305516,74,81,1,0.013684844796896698,23.297103416006397,17.331378299120235
23.32964017741318,76,103,1,0.012311717039809888,23.31574965932911,13.890518084066471
23.34331986301297,53,81,1,0.009000000000000001,23.32598848471385,17.331378299120235
23.35331986301297,86,77,1,0.009000000000000001,23.335362873765657,17.956989247311828
23.363319863012972,72,64,1,0.009000000000000001,23.343329638184038,19.990224828934508
23.373319863012973,73,87,1,0.009000000000000001,23.35692690113614,16.392961876832846
23.383319863012975,50,63,1,0.009000000000000001,23.363173235446993,20.146627565982406
23.393319863012977,83,107,1,0.009000000000000001,23.380054955877103,13.264907135874878
23.403319863012978,71,117,1,0.042822871882812634,23.391618983247582,11.700879765395896
23.41621191033492,64,113,0,0.04352530040719683,23.403885419621332,12.32649071358749
23.45090083177166,52,115,1,0.009538355876157548,23.438887146532167,12.013685239491693
23.46149900496739,84,72,1,0.011742802281194578,23.442760002034838,18.73900293255132
23.464573355231803,89,83,0,0.009968431498177034,23.44755478240678,17.01857282502444
23.474546563057608,53,74,1,0.018539480321398166,23.45612036559915,18.426197458455523
23.475649390229776,101,83,0,0.02685044607911776,23.458630817404753,17.01857282502444
23.49514598563694,68,94,1,0.009000000000000001,23.47984784291944,15.298142717497555
23.50514598563694,42,73,1,0.010258588117486143,23.486563385441436,18.58260019550342
23.505483219206575,44,76,0,0.047635804858135476,23.487369827222214,18.113391984359726
23.51654441687859,78,71,1,0.009000000000000001,23.497649011208992,18.89540566959922
23.526544416878593,36,66,1,0.010972194077970631,23.506866997523755,19.67741935483871
23.538735743631893,83,112,1,0.009000000000000001,23.52625285018126,12.482893450635387
23.548735743631894,42,98,1,0.009000000000000001,23.534063211862588,14.672531769305962
23.558735743631896,35,93,1,0.009000000000000001,23.54328119817735,15.454545454545453
23.55841189127117,93,98,0,0.019477672431586573,23.543739359501863,14.672531769305962
23.568735743631898,58,108,1,0.009000000000000001,23.555627239233072,13.10850439882698
23.5787357436319,63,100,1,0.010340310092630154,23.564376017336688,14.359726295210166
23.58005374952849,36,109,0,0.009000000000000001,23.56710164786671,12.952101661779082
23.590224977068154,63,79,1,0.009000000000000001,23.572580793294936,17.64418377321603
23.59005374952849,54,91,0,0.009000000000000001,23.57428639859985,15.76735092864125
23.600224977068155,96,68,1,0.009000000000000001,23.580860363187412,19.364613880742915
23.60005374952849,73,94,0,0.03309557739400442,23.584755606810994,15.298142717497555
23.610224977068157,27,112,1,0.009000000000000001,23.597742083617522,12.482893450635387
23.62022497706816,44,70,1,0.01145230419980203,23.60117316866151,19.05180840664712
23.632949759512382,83,98,1,0.02882728158855627,23.618277227743075,14.672531769305962
23.636826613299608,42,104,0,0.030657284116203665,23.623092497952587,13.734115347018573
23.664980072388555,47,92,1,0.023361876783742727,23.649369124196962,15.610948191593351
23.670890262317613,70,104,0,0.04357956313845914,23.657156146970593,13.734115347018573
23.69093771325938,63,98,1,0.009000000000000001,23.676265181490074,14.672531769305962
23.700937713259382,54,103,1,0.009000000000000001,23.687047195175314,13.890518084066471
23.710937713259383,99,80,1,0.04048287815002116,23.693449932223217,17.487781036168133
23.719311999138124,40,68,0,0.009000000000000001,23.69994738525738,19.364613880742915
23.729311999138126,89,109,0,0.009000000000000001,23.716359897476348,12.952101661779082
23.739311999138128,61,69,0,0.020173554038086343,23.720103787994432,19.208211143695017
23.75591868898163,102,69,1,0.009000000000000001,23.736710477837935,19.208211143695017
23.761727059180444,74,100,0,0.009000000000000001,23.747367332885233,14.359726295210166
23.765918688981632,64,100,1,0.009000000000000001,23.75155896268642,14.359726295210166
23.771727059180446,66,94,0,0.029194616257689977,23.756428916462948,15.298142717497555
23.775918688981633,60,89,1,0.05601311710732703,23.759838532578897,16.080156402737046
23.80416552168899,59,62,0,0.009000000000000001,23.78386249138596,20.303030303030305
23.81416552168899,81,113,0,0.02255615244880204,23.801839030975405,12.32649071358749
23.83815548576755,68,76,1,0.03137166324793617,23.82004209378319,18.113391984359726
23.83922791329877,75,96,0,0.019850985313102712,23.82424257605537,14.985337243401759
23.861284563646663,74,104,0,0.009000000000000001,23.847550448299643,13.734115347018573
23.871284563646665,60,111,0,0.009000000000000001,23.858645267458982,12.639296187683286
23.87301288937637,81,110,1,0.009000000000000001,23.86021719045164,12.795698924731184
23.881284563646666,77,116,0,0.009000000000000001,23.869427281144223,11.857282502443795
23.88301288937637,88,115,1,0.009000000000000001,23.87099920413688,12.013685239491693
23.891284563646668,63,65,0,0.023669495590081385,23.87145074155478,19.83382209188661
23.893012889376372,74,108,1,0.01187622078082279,23.879904384977547,13.10850439882698
23.906208690243954,57,65,1,0.009000000000000001,23.886374868152068,19.83382209188661
23.9175840031912,52,81,0,0.009000000000000001,23.900252624892083,17.331378299120235
23.916208690243955,58,109,1,0.013626775843356894,23.903256588582177,12.952101661779082
23.927584003191203,24,107,0,0.009000000000000001,23.91431909605533,13.264907135874878
23.93134955229213,28,108,1,0.009000000000000001,23.918241047893304,13.10850439882698
23.94134955229213,43,74,1,0.009000000000000001,23.922923354833674,18.426197458455523
23.937584003191205,67,99,0,0.009000000000000001,23.923067874158946,14.516129032258064
23.947584003191206,95,89,0,0.009000000000000001,23.93150384678847,16.080156402737046
23.957584003191208,34,64,0,0.045260846864084915,23.937593778362274,19.990224828934508
23.951349552292132,73,112,1,0.009000000000000001,23.938866658841498,12.482893450635387
23.961349552292134,87,105,1,0.009000000000000001,23.947771839682165,13.577712609970675
23.971349552292136,47,89,1,0.009000000000000001,23.9552693958894,16.080156402737046
23.981349552292137,61,68,1,0.009000000000000001,23.961984938411394,19.364613880742915
23.99134955229214,50,71,1,0.009000000000000001,23.97245414662254,18.89540566959922
24.00134955229214,59,73,1,0.009000000000000001,23.982766952096636,18.58260019550342
24.00787383304019,43,87,0,0.023242448462639426,23.991480871163358,16.392961876832846
24.011349552292142,70,88,1,0.012844865757042032,23.995112993152357,16.236559139784944
24.025621625355523,81,101,1,0.02397859146907616,24.01141830179736,14.203323558162268
24.033698775776458,38,93,0,0.009000000000000001,24.018244230321912,15.454545454545453
24.04369877577646,22,75,0,0.009000000000000001,24.02542898105505,18.269794721407624
24.052264504765606,108,82,1,0.009000000000000001,24.035089529203535,17.174975562072337
24.05369877577646,31,109,0,0.023844244970578597,24.040746674114683,12.952101661779082
24.062264504765608,43,112,1,0.009000000000000001,24.049781611314973,12.482893450635387
24.07226450476561,35,100,1,0.009000000000000001,24.057904778470398,14.359726295210166
24.080192381299327,57,85,0,0.048057000430450664,24.0634866139484,16.705767350928642
24.08226450476561,75,88,1,0.01240614187412414,24.066027945625827,16.236559139784944
24.09604910684797,72,114,1,0.009000000000000001,24.083879018871432,12.170087976539591
24.106049106847973,63,111,1,0.013309015510870855,24.09340981066029,12.639296187683286
24.120836901860052,56,89,1,0.009000000000000001,24.104756745457316,16.080156402737046
24.130836901860054,61,84,1,0.009000000000000001,24.11397473177208,16.86217008797654
24.13358904844427,56,99,0,0.03794320580475006,24.119072919412012,14.516129032258064
24.140836901860055,21,115,1,0.009000000000000001,24.128823216620564,12.013685239491693
24.150836901860057,63,95,1,0.013295991911800234,24.135695161879607,15.141739980449657
24.1656102262065,46,82,1,0.030454348986171925,24.14843525064443,17.174975562072337
24.175748166005103,51,99,0,0.009000000000000001,24.161232036972844,14.516129032258064
24.185748166005105,51,73,0,0.009000000000000001,24.1671655658096,18.58260019550342
24.199448391746692,86,91,1,0.01336320771908449,24.18368104081805,15.76735092864125
24.195748166005107,37,115,0,0.0276345332586017,24.183734480765615,12.013685239491693
24.21429640032345,93,86,1,0.03378127428456329,24.197747035709572,16.549364613880744
24.22645320295911,41,118,0,0.044074730161774156,24.214908725930762,11.544477028347998
24.25183114952852,66,109,1,0.02482133377973976,24.238879047866742,12.952101661779082
24.279410409283788,49,79,1,0.01909941169841068,24.26176622551057,17.64418377321603
24.27542512536108,64,108,0,0.014862574292126346,24.262316620962256,13.10850439882698
24.291939096796778,85,69,0,0.012617330655930042,24.272730885653083,19.208211143695017
24.30063197783758,61,80,1,0.009000000000000001,24.283144196801413,17.487781036168133
24.305958353081145,60,83,0,0.009000000000000001,24.288939780256122,17.01857282502444
24.315958353081147,59,78,0,0.009000000000000001,24.29815776657088,17.80058651026393
24.31063197783758,93,115,1,0.020740096869091,24.29861829259809,12.013685239491693
24.32595835308115,47,89,0,0.009000000000000001,24.30987819667841,16.080156402737046
24.33595835308115,71,63,0,0.009349938957440261,24.315811725515168,20.146627565982406
24.33367652991435,55,113,1,0.012916593534997547,24.321350039200762,12.32649071358749
24.346347174144974,29,63,0,0.024294681993168952,24.326200546578992,20.146627565982406
24.34802830050879,57,111,1,0.016179718162553168,24.335389004321108,12.639296187683286
24.36600576513385,80,67,1,0.009000000000000001,24.34648474851606,19.521016617790814
24.37600576513385,61,77,1,0.009748556217233048,24.358048775886537,17.956989247311828
24.373341265248495,76,117,0,0.009000000000000001,24.3616403854831,11.700879765395896
24.383341265248497,62,99,0,0.08634662889755432,24.368825136216238,14.516129032258064
24.38683749426411,64,82,1,0.016515427040493174,24.36966251870204,17.174975562072337
24.40518796875355,57,93,1,0.018355717265947435,24.389733423299003,15.454545454545453
24.425583210160156,34,101,1,0.009000000000000001,24.411379886601992,14.203323558162268
24.435583210160157,58,71,1,0.014671404970160796,24.416687804490557,18.89540566959922
24.451884771238113,59,74,1,0.036890123586851765,24.433458573779657,18.426197458455523
24.479281964023556,66,96,0,0.03237725379389309,24.464296626780154,14.985337243401759
24.492873797445725,76,102,1,0.012134206290078582,24.47882687662461,14.04692082111437
24.506356248879147,95,101,1,0.028732527251226065,24.492152925320983,14.203323558162268
24.515256690461214,70,99,0,0.022692929633768618,24.500740561428955,14.516129032258064
24.538281279158287,73,99,1,0.023784627198822916,24.523765150126028,14.516129032258064
24.540471056720957,72,101,0,0.01334832178616123,24.526267733162793,14.203323558162268
24.555302525372248,63,74,0,0.011880665166027092,24.53687632791379,18.426197458455523
24.564708642712535,35,77,1,0.010777833181875513,24.546751653465222,17.956989247311828
24.56850326444561,64,91,0,0.01635959820297431,24.55273591351697,15.76735092864125
24.57668401291462,70,86,1,0.009000000000000001,24.56013464830074,16.549364613880744
24.58668401291462,55,89,1,0.009000000000000001,24.570603856511884,16.080156402737046
24.586680595782248,81,106,0,0.009777527053505162,24.573259285909327,13.421309872922777
24.596684012914622,59,70,1,0.009000000000000001,24.577632204507974,19.05180840664712
24.597544514730586,72,92,0,0.03232982645585943,24.581933566538993,15.610948191593351
24.606684012914624,71,103,1,0.016016634421150776,24.592793494830556,13.890518084066471
24.62448027338257,77,96,1,0.018187217349408362,24.609494936139168,14.985337243401759
24.633466544125987,64,114,0,0.013165903492091737,24.621296456149448,12.170087976539591
24.64468829265969,98,102,1,0.009000000000000001,24.630641371838575,14.04692082111437
24.648095325783867,65,96,0,0.01888693204481166,24.633109988540465,14.985337243401759
24.654688292659692,23,85,1,0.01455670741321644,24.637982525308765,16.705767350928642
24.66908080583366,71,84,0,0.009000000000000001,24.652218635745683,16.86217008797654
24.67086241200771,65,116,1,0.026124359594106812,24.659005129505267,11.857282502443795
24.67908080583366,66,99,0,0.01924387610682254,24.6645646768014,14.516129032258064
24.699889478223387,49,90,1,0.014507911830737626,24.683965724557698,15.923753665689148
24.700462890396796,44,105,0,0.009000000000000001,24.686885177786827,13.577712609970675
24.710462890396798,104,90,0,0.009000000000000001,24.69453913673111,15.923753665689148
24.71600938025754,85,94,1,0.009000000000000001,24.70071123754004,15.298142717497555
24.7204628903968,72,73,0,0.010418047726070327,24.701880290201295,18.58260019550342
24.72600938025754,62,105,1,0.009000000000000001,24.71243166764757,13.577712609970675
24.73203849898132,35,80,0,0.021662649266644216,24.714550717945155,17.487781036168133
24.736009380257542,34,105,1,0.009187984673126504,24.722431667647573,13.577712609970675
24.74621825211657,78,107,1,0.009000000000000001,24.732953344980697,13.264907135874878
24.756108109277594,41,70,0,0.028994238499030437,24.737056300870947,19.05180840664712
24.75621825211657,36,108,1,0.009000000000000001,24.743109747717746,13.10850439882698
24.766218252116573,55,70,1,0.041335355358642974,24.747166443709926,19.05180840664712
24.78832392983207,53,117,0,0.07526171694172895,24.776623050066675,11.700879765395896
24.81214642473729,74,89,1,0.013363856261056921,24.796066268334553,16.080156402737046
24.82699515391624,71,67,1,0.009000000000000001,24.80747413729845,19.521016617790814
24.83699515391624,60,89,1,0.019304601350855856,24.820914997513505,16.080156402737046
24.858444710972748,67,97,1,0.009000000000000001,24.843615776466393,14.82893450635386
24.86844471097275,49,86,1,0.009000000000000001,24.85189534635887,16.549364613880744
24.871948059767327,61,68,0,0.016363798111726217,24.852583445886584,19.364613880742915
24.87844471097275,70,102,1,0.014111865819725736,24.864397790151635,14.04692082111437
24.890130057669246,59,74,0,0.009000000000000001,24.87170386021079,18.426197458455523
24.894124561883558,79,109,1,0.009000000000000001,24.88117246022178,12.952101661779082
24.900130057669248,66,74,0,0.009000000000000001,24.88170386021079,18.426197458455523
24.90412456188356,56,82,1,0.009000000000000001,24.88694958632149,17.174975562072337
24.91013005766925,36,81,0,0.009000000000000001,24.89279867937013,17.331378299120235
24.91412456188356,57,93,1,0.009000000000000001,24.898670016429016,15.454545454545453
24.92013005766925,45,82,0,0.009000000000000001,24.90295508210718,17.174975562072337
24.924124561883563,45,108,1,0.009000000000000001,24.911016057484737,13.10850439882698
24.930130057669253,55,89,0,0.009000000000000001,24.914049901266516,16.080156402737046
24.934124561883564,79,104,1,0.009000000000000001,24.920390446536544,13.734115347018573
24.944124561883566,30,77,1,0.009000000000000001,24.926167572636253,17.956989247311828
24.940130057669254,68,110,0,0.009000000000000001,24.927334358744524,12.795698924731184
24.950130057669256,78,105,0,0.014385596658210235,24.936552345059287,13.577712609970675
24.954124561883567,66,86,1,0.017612902635409322,24.937575197269688,16.549364613880744
24.966114053956154,47,102,0,0.09724247659170199,24.95206713313504,14.04692082111437
24.973694453700688,50,94,1,0.029749975606835486,24.95839631098319,15.298142717497555
25.006749982152726,70,111,1,0.01383876858193703,24.994110685965044,12.639296187683286
25.02212639168821,27,66,1,0.023351007232822563,25.002448972333372,19.67741935483871
25.048071955280236,45,96,1,0.016176365987691944,25.033086618036833,14.985337243401759
25.06604569526656,89,84,1,0.03632659389609614,25.049183525178584,16.86217008797654
25.074161250169155,60,105,0,0.009000000000000001,25.060583537559186,13.577712609970675
25.084161250169156,40,106,0,0.012460823199597409,25.070739940296235,13.421309872922777
25.09800660927982,42,85,0,0.009000000000000001,25.081300841928893,16.705767350928642
25.108006609279823,80,93,0,0.05048459691570656,25.092552063825277,15.454545454545453
25.106408577373333,60,108,1,0.017350342217120063,25.093300072974507,13.10850439882698
25.125686735392357,35,85,1,0.009000000000000001,25.10898096804143,16.705767350928642
25.13568673539236,35,80,1,0.009000000000000001,25.118198954356192,17.487781036168133
25.14568673539236,59,76,1,0.009000000000000001,25.127573343408,18.113391984359726
25.15568673539236,21,109,1,0.009000000000000001,25.142734633730583,12.952101661779082
25.16410060585283,74,106,0,0.013981053594502392,25.15067929597991,13.421309872922777
25.165686735392363,100,104,1,0.009000000000000001,25.151952620045343,13.734115347018573
25.175686735392365,21,86,1,0.0374853410607638,25.159137370778485,16.549364613880744
25.17963510984672,53,94,0,0.018641320346977207,25.164336967129223,15.298142717497555
25.20034768801003,39,117,0,0.009000000000000001,25.188646808244634,11.700879765395896
25.21034768801003,68,96,0,0.015147936780584802,25.19536235076663,14.985337243401759
25.21733711434877,66,104,1,0.009000000000000001,25.20360299900175,13.734115347018573
25.227178728877348,67,62,0,0.09609223605265811,25.20687569857432,20.303030303030305
25.22733711434877,34,108,1,0.009000000000000001,25.214228609949945,13.10850439882698
25.237337114348772,21,100,1,0.009000000000000001,25.22297738805356,14.359726295210166
25.247337114348774,50,93,1,0.009000000000000001,25.23188256889423,15.454545454545453
25.257337114348775,88,95,1,0.009000000000000001,25.242195374368325,15.141739980449657
25.267337114348777,49,111,1,0.009000000000000001,25.254697818161095,12.639296187683286
25.27733711434878,78,66,1,0.009000000000000001,25.25765969499394,19.67741935483871
25.28733711434878,28,95,1,0.009000000000000001,25.27219537436833,15.141739980449657
25.29733711434878,62,75,1,0.009000000000000001,25.279067319627373,18.269794721407624
25.307337114348783,57,107,1,0.014281312730506621,25.29407220721291,13.264907135874878
25.323205239604903,66,67,1,0.009000000000000001,25.303684222987112,19.521016617790814
25.333947880046967,69,78,0,0.009000000000000001,25.3161472935367,17.80058651026393
25.333205239604904,81,105,1,0.009000000000000001,25.319627526994935,13.577712609970675
25.34394788004697,71,82,0,0.015247352970696378,25.326772904484898,17.174975562072337
25.343205239604906,44,96,1,0.009949815145249334,25.328219902361504,14.985337243401759
25.354260589766294,68,77,1,0.038794346566781476,25.33630360051898,17.956989247311828
25.360889383347743,79,76,0,0.009000000000000001,25.342775991363382,18.113391984359726
25.370889383347745,72,111,0,0.02288052807383274,25.358250087160062,12.639296187683286
25.39631219231867,77,75,0,0.009000000000000001,25.378042397597262,18.269794721407624
25.39736541928494,68,104,1,0.009000000000000001,25.38363130393792,13.734115347018573
25.407365419284943,94,82,1,0.009000000000000001,25.390190443722872,17.174975562072337
25.406312192318673,51,114,0,0.009000000000000001,25.394142104342134,12.170087976539591
25.417365419284945,66,79,1,0.009000000000000001,25.399721235511727,17.64418377321603
25.416312192318674,73,116,0,0.009000000000000001,25.40445490981623,11.857282502443795
25.426312192318676,37,95,0,0.012473400120778624,25.411170452338226,15.141739980449657
25.427365419284946,52,105,1,0.014837957185688642,25.413787706674977,13.577712609970675
25.44017152578621,50,70,0,0.009000000000000001,25.42111971737956,19.05180840664712
25.443852038380157,65,85,1,0.018559081279137774,25.42714627102923,16.705767350928642
25.45017152578621,57,107,0,0.03504923605942934,25.436906618650337,13.264907135874878
25.46447323980142,57,82,1,0.009000000000000001,25.44729826423935,17.174975562072337
25.474473239801423,45,112,1,0.009000000000000001,25.461990346350788,12.482893450635387
25.4891151214078,67,63,0,0.01877248395226281,25.468968493841817,20.146627565982406
25.484473239801424,75,105,1,0.009000000000000001,25.470895527191455,13.577712609970675
25.494473239801426,47,103,1,0.013724057066759087,25.480582721717358,13.890518084066471
25.509722192097826,74,81,1,0.009000000000000001,25.492390813798707,17.331378299120235
25.509973436910315,33,94,0,0.018352250717164398,25.494675294192817,15.298142717497555
25.519722192097827,55,90,1,0.009000000000000001,25.50379843843214,15.923753665689148
25.52972219209783,67,68,1,0.015034524432453143,25.510357578217086,19.364613880742915
25.530364826596053,57,103,0,0.009000000000000001,25.516474308511985,13.890518084066471
25.540364826596054,77,91,0,0.046973370010913874,25.524597475667413,15.76735092864125
25.546427219245,66,100,1,0.009000000000000001,25.53206749294979,14.359726295210166
25.556427219245002,90,100,1,0.009000000000000001,25.54206749294979,14.359726295210166
25.566427219245003,37,87,1,0.009000000000000001,25.55003425736817,16.392961876832846
25.576427219245005,61,90,1,0.009000000000000001,25.560503465579316,15.923753665689148
25.586427219245007,30,80,1,0.009000000000000001,25.56893943820884,17.487781036168133
25.592557459941514,51,83,0,0.009000000000000001,25.57553888711649,17.01857282502444
25.596427219245008,72,90,1,0.009000000000000001,25.58050346557932,15.923753665689148
25.602557459941515,33,71,0,0.009000000000000001,25.583662054271915,18.89540566959922
25.60642721924501,69,104,1,0.02000073611512591,25.59269310389799,13.734115347018573
25.612557459941517,49,101,0,0.022190271138831288,25.598354136383353,14.203323558162268
25.62865025937293,57,66,1,0.01015177859750117,25.60897284001809,19.67741935483871
25.63721331676244,73,92,0,0.04815311518613258,25.621602368570848,15.610948191593351
25.63993001337015,86,86,1,0.00912385291250624,25.62338064875627,16.549364613880744
25.65006762771738,103,118,1,0.009000000000000001,25.638523150689032,11.544477028347998
25.660067627717382,75,113,1,0.009000000000000001,25.647741137003795,12.32649071358749
25.670067627717383,53,62,1,0.016240351390816442,25.649764597414354,20.303030303030305
25.690716778080365,54,80,0,0.009000000000000001,25.6732289970442,17.487781036168133
25.688112462596067,83,106,1,0.009000000000000001,25.674691152723145,13.421309872922777
25.700716778080366,78,67,0,0.009000000000000001,25.681195761462575,19.521016617790814
25.698112462596068,61,91,1,0.018574816344354927,25.682345111667427,15.76735092864125
25.710716778080368,64,79,0,0.009000000000000001,25.69307259430715,17.64418377321603
25.71875114742313,66,73,1,0.009000000000000001,25.700168547227626,18.58260019550342
25.72071677808037,59,79,0,0.02773057325672834,25.70307259430715,17.64418377321603
25.728751147423132,108,115,1,0.009000000000000001,25.71673746218364,12.013685239491693
25.738751147423134,68,98,1,0.02360468275151192,25.724078615653827,14.672531769305962
25.7515285261434,64,112,0,0.009000000000000001,25.739045632692765,12.482893450635387
25.7615285261434,58,101,0,0.009000000000000001,25.747325202585237,14.203323558162268
25.764978572702592,50,93,1,0.011174969674909597,25.749524027248047,15.454545454545453
25.771528526143403,27,97,0,0.043161345103009605,25.756699591637048,14.82893450635386
25.777395205674715,36,100,1,0.009000000000000001,25.763035479379504,14.359726295210166
25.787395205674716,52,97,1,0.009000000000000001,25.772566271168362,14.82893450635386
25.797395205674718,69,89,1,0.009014217399453654,25.78131504927198,16.080156402737046
25.807411002785223,64,65,1,0.009000000000000001,25.787577180693336,19.83382209188661
25.817411002785224,46,75,1,0.018207128453612883,25.799141208063816,18.269794721407624
25.819485576257858,97,97,0,0.019222761769247518,25.804656641751503,14.82893450635386
25.837641145511462,78,85,1,0.01833649250151256,25.820935378160534,16.705767350928642
25.84084420044591,47,67,0,0.020374757362173194,25.82132318382812,19.521016617790814
25.8580150260687,74,117,1,0.009000000000000001,25.846314146303303,11.700879765395896
25.863482819737214,69,99,0,0.009000000000000001,25.848966690704955,14.516129032258064
25.873482819737216,58,65,0,0.009000000000000001,25.85364899764533,19.83382209188661
25.8680150260687,75,108,1,0.009000000000000001,25.854906521669875,13.10850439882698
25.883482819737218,38,65,0,0.01065466937818791,25.86364899764533,19.83382209188661
25.878015026068702,72,108,1,0.009000000000000001,25.864906521669877,13.10850439882698
25.888015026068704,29,103,1,0.02292396446103208,25.874124507984636,13.890518084066471
25.895321341268538,83,115,0,0.05336803556893042,25.883307656029046,12.013685239491693
25.913486097692072,52,89,1,0.01772514659508908,25.897405941289335,16.080156402737046
25.93318070501995,44,76,1,0.009000000000000001,25.91506731303559,18.113391984359726
25.94318070501995,58,100,1,0.0272991604650921,25.92882097872474,14.359726295210166
25.95461915856735,55,84,0,0.009000000000000001,25.937756988479375,16.86217008797654
25.964619158567352,61,85,0,0.020159788409632166,25.947913391216424,16.705767350928642
25.97351310553672,31,79,1,0.009000000000000001,25.955868921763503,17.64418377321603
25.983513105536723,76,99,1,0.009000000000000001,25.968996976504464,14.516129032258064
25.987018923466945,87,90,0,0.07315825086264802,25.971095169801256,15.923753665689148
25.993513105536724,67,81,1,0.009000000000000001,25.976181727237606,17.331378299120235
26.003513105536726,59,91,1,0.009000000000000001,25.987745754608085,15.76735092864125
26.013513105536727,62,80,1,0.009000000000000001,25.99602532450056,17.487781036168133
26.02351310553673,55,116,1,0.011045888860731233,26.011655823034285,11.857282502443795
26.035786315381987,32,97,1,0.009000000000000001,26.020957380875632,14.82893450635386
26.04578631538199,32,64,1,0.009000000000000001,26.025796090553055,19.990224828934508
26.05578631538199,45,75,1,0.009000000000000001,26.03751652066058,18.269794721407624
26.06578631538199,84,82,1,0.009000000000000001,26.04861133981992,17.174975562072337
26.06830586886989,42,91,0,0.009000000000000001,26.052538517941247,15.76735092864125
26.075786315381993,50,67,1,0.009000000000000001,26.056265298764202,19.521016617790814
26.07830586886989,71,89,0,0.025841786655065542,26.062225712467153,16.080156402737046
26.085786315381995,59,107,1,0.009000000000000001,26.07252140824612,13.264907135874878
26.095786315381996,55,108,1,0.009000000000000001,26.08267781098317,13.10850439882698
26.105786315381998,71,102,1,0.009000000000000001,26.091739394560882,14.04692082111437
26.107018965153298,61,96,0,0.009000000000000001,26.092033627909895,14.985337243401759
26.115786315382,81,97,1,0.009000000000000001,26.100957380875645,14.82893450635386
26.1170189651533,46,117,0,0.009000000000000001,26.105318085387903,11.700879765395896
26.1270189651533,32,92,0,0.011098295382675503,26.111408016961708,15.610948191593351
26.125786315382,68,105,1,0.025860011938300197,26.112208602772032,13.577712609970675
26.139350404467386,44,90,0,0.012867428627670333,26.123426650801697,15.923753665689148
26.15364754738702,95,72,0,0.08285574033883981,26.13490854445447,18.73900293255132
26.154519661980114,54,117,1,0.009133600650301986,26.142818782214718,11.700879765395896
26.164668107147115,68,85,1,0.012119130806039513,26.147962339796187,16.705767350928642
26.178133808042716,56,89,1,0.017867687646722648,26.16205365163998,16.080156402737046
26.19798679431685,58,65,1,0.009000000000000001,26.178152972224964,19.83382209188661
26.207986794316852,77,116,1,0.017866386663056715,26.19612951181441,11.857282502443795
26.227838335053583,74,96,1,0.009000000000000001,26.21285299781018,14.985337243401759
26.237838335053585,46,85,1,0.027542829517627907,26.221132567702657,16.705767350928642
26.245709481096842,90,83,0,0.010592768683543514,26.22869090827182,17.01857282502444
26.25747922407856,44,68,0,0.015620204000244312,26.238114610197815,19.364613880742915
26.26844147896206,51,64,1,0.009000000000000001,26.248451254133126,19.990224828934508
26.274835006301053,45,106,0,0.009000000000000001,26.261413696428132,13.421309872922777
26.278441478962062,41,98,1,0.009000000000000001,26.263768947192755,14.672531769305962
26.284835006301055,59,112,0,0.009000000000000001,26.27235211285042,12.482893450635387
26.288441478962064,41,104,1,0.026598574264988763,26.274707363615043,13.734115347018573
26.294835006301057,62,78,0,0.009000000000000001,26.27703441979079,17.80058651026393
26.304835006301058,40,91,0,0.009000000000000001,26.289067655372417,15.76735092864125
26.31483500630106,48,110,0,0.009000000000000001,26.30203930737633,12.795698924731184
26.317995450367608,54,118,1,0.010111191029922736,26.30645097333926,11.544477028347998
26.32483500630106,73,98,0,0.009000000000000001,26.310162474531754,14.672531769305962
26.329230107067524,68,84,1,0.07103453207600102,26.31236793697955,16.86217008797654
26.334835006301063,57,109,0,0.029058104141579135,26.321882904639285,12.952101661779082
26.367121788680596,53,65,0,0.05064244514806135,26.34728796658871,19.83382209188661
26.408157364929746,79,85,1,0.009000000000000001,26.39145159757882,16.705767350928642
26.418157364929748,64,63,1,0.011165810550461666,26.398010737363766,20.146627565982406
26.42339117217844,74,83,0,0.009000000000000001,26.406372599353418,17.01857282502444
26.433391172178442,68,67,0,0.01530607306244386,26.41387015556065,19.521016617790814
26.43056382109693,31,116,1,0.009000000000000001,26.418706538594485,11.857282502443795
26.44056382109693,64,79,1,0.024417832597557254,26.422919637323712,17.64418377321603
26.4503979200256,50,105,0,0.028965297802091745,26.436820207415632,13.577712609970675
26.46769474620533,55,94,1,0.014242330495942009,26.45239660348783,15.298142717497555
26.483519557867485,70,78,1,0.009000000000000001,26.46571897135722,17.80058651026393
26.48258158425015,34,100,0,0.009000000000000001,26.468221857954937,14.359726295210166
26.493519557867486,60,99,1,0.01530621024629327,26.479003428835227,14.516129032258064
26.49258158425015,52,118,0,0.011946817045863822,26.481037107221802,11.544477028347998
26.505855825412223,45,103,0,0.043682227482609526,26.491965307328154,13.890518084066471
26.510526458141147,47,84,1,0.009000000000000001,26.49366428805317,16.86217008797654
26.52052645814115,57,112,1,0.009000000000000001,26.508043564690514,12.482893450635387
26.53052645814115,71,90,1,0.009000000000000001,26.51460270447546,15.923753665689148
26.54052645814115,42,103,1,0.022013684637160094,26.526635940057083,13.890518084066471
26.554391633726233,63,105,0,0.009000000000000001,26.540813921116264,13.577712609970675
26.564391633726235,34,92,0,0.009000000000000001,26.54878068553464,15.610948191593351
26.564986107737997,64,110,1,0.009000000000000001,26.552190408813267,12.795698924731184
26.574986107738,70,70,1,0.009000000000000001,26.55593429933135,19.05180840664712
26.574391633726236,25,74,0,0.010465445440408037,26.55596543626778,18.426197458455523
26.5860199064378,47,72,0,0.009000000000000001,26.56728090350525,18.73900293255132
26.584986107738,61,81,1,0.02392060490259413,26.567654729438882,17.331378299120235
26.596019906437803,29,90,0,0.024833535524820555,26.580096152772114,15.923753665689148
26.611564557629773,74,65,1,0.00962580868475749,26.591730735537887,19.83382209188661
26.622259900612836,37,108,1,0.009000000000000001,26.60915139621401,13.10850439882698
26.623612723687604,63,103,0,0.011134027793056856,26.609722205603536,13.890518084066471
26.632259900612837,52,65,1,0.009000000000000001,26.61242607852095,19.83382209188661
26.63598386567989,41,81,0,0.01318579674480099,26.61865248738077,17.331378299120235
26.64225990061284,54,64,1,0.009000000000000001,26.622269675783905,19.990224828934508
26.65063475095189,65,89,0,0.0207990035467217,26.634554594549154,16.080156402737046
26.65225990061284,36,115,1,0.01085808311270501,26.64024621537335,12.013685239491693
26.664324437404733,68,82,1,0.009000000000000001,26.647149461842663,17.174975562072337
26.674324437404735,64,63,1,0.010254646106033119,26.654177809838753,20.146627565982406
26.67374475489269,77,99,0,0.01445454419004603,26.659228625860433,14.516129032258064
26.68571848863366,77,92,1,0.010947974588987004,26.670107540442068,15.610948191593351
26.6898053595483,108,80,0,0.009000000000000001,26.672317578512132,17.487781036168133
26.6998053595483,60,80,0,0.026724067481679756,26.682317578512134,17.487781036168133
26.697882904843645,51,115,1,0.019877869473358598,26.685869219604154,12.013685239491693
26.71996942648071,38,112,1,0.009000000000000001,26.707486533030075,12.482893450635387
26.72996942648071,72,105,1,0.014636776813898439,26.716391713870742,13.577712609970675
26.729498767861276,23,114,0,0.05231918830097772,26.717328679884737,12.170087976539591
26.746232511829486,37,99,1,0.009000000000000001,26.731716382797227,14.516129032258064
26.756232511829488,74,104,1,0.03229360996932911,26.742498396482468,13.734115347018573
26.78763119930681,56,79,0,0.009000000000000001,26.76998701553359,17.64418377321603
26.792114300684297,48,103,1,0.011116606215829375,26.77822378260023,13.890518084066471
26.79763119930681,47,96,0,0.026613015977792746,26.782645862063408,14.985337243401759
26.804466085368553,66,68,1,0.014563685360544365,26.78510147148781,19.364613880742915
26.827201217059912,44,65,0,0.009000000000000001,26.807367394968026,19.83382209188661
26.82064795799138,21,110,1,0.009000000000000001,26.80785225906665,12.795698924731184
26.83064795799138,39,77,1,0.01327991550812422,26.812690968744068,17.956989247311828
26.837201217059913,32,93,0,0.009000000000000001,26.821746671605368,15.454545454545453
26.845403419667075,42,81,1,0.025380374501392258,26.828072041367957,17.331378299120235
26.847201217059915,27,81,0,0.022567886133899245,26.829869838760796,17.331378299120235
26.873603835779733,99,94,1,0.014892944857586667,26.858305693062235,15.298142717497555
26.872276646097582,66,117,0,0.0127581317975221,26.860575766332186,11.700879765395896
26.886452348094828,69,76,0,0.014608536864484713,26.868338956110467,18.113391984359726
26.890151552288163,52,69,1,0.009000000000000001,26.870943341144468,19.208211143695017
26.900151552288165,65,84,1,0.011698343282567683,26.88328938220019,16.86217008797654
26.902684055722034,50,75,0,0.038242873345480925,26.884414261000625,18.269794721407624
26.913149711491016,48,70,1,0.028568907983335494,26.89409790308437,19.05180840664712
26.94489294258361,75,85,1,0.05201388297999864,26.928187175232683,16.705767350928642
26.94517613721701,71,96,0,0.009000000000000001,26.93019079997361,14.985337243401759
26.955176137217013,54,93,0,0.009000000000000001,26.939721591762467,15.454545454545453
26.965176137217014,58,96,0,0.03622478357329498,26.950190799973612,14.985337243401759
27.00268614589472,57,85,1,0.021980546159922856,26.985980378543793,16.705767350928642
27.0054258967429,104,92,0,0.010882199135708098,26.989814948551306,15.610948191593351
27.01751722911591,41,112,0,0.024373498075468326,27.005034335665275,12.482893450635387
27.0271089749613,54,88,1,0.017969971760910686,27.010872415821517,16.236559139784944
27.047075610251202,73,81,1,0.009000000000000001,27.029744231952083,17.331378299120235
27.04459889364421,90,113,0,0.011594581906165599,27.032272402930623,12.32649071358749
27.057075610251204,81,108,1,0.026885410383438054,27.043967105852378,13.10850439882698
27.05748176242884,79,112,0,0.015209421149036862,27.044998868978205,12.482893450635387
27.0743811192611,59,111,0,0.009000000000000001,27.06174182307342,12.639296187683286
27.084381119261103,36,71,0,0.009000000000000001,27.065485713591503,18.89540566959922
27.086948288455023,72,62,1,0.009000000000000001,27.066645258151993,20.303030303030305
27.094381119261104,57,82,0,0.009000000000000001,27.077206143699033,17.174975562072337
27.096948288455025,77,101,1,0.012498794985326125,27.08274496489686,14.203323558162268
27.104381119261106,35,102,0,0.009000000000000001,27.09033419843999,14.04692082111437
27.11083583843872,62,91,1,0.02764642069829981,27.09506848751008,15.76735092864125
27.114381119261108,70,106,0,0.009083769528607892,27.100959809388186,13.421309872922777
27.124474196515116,49,107,0,0.0212901935585104,27.111209289379243,13.264907135874878
27.141554083659052,40,76,1,0.009000000000000001,27.12344069167469,18.113391984359726
27.148129967135684,67,105,0,0.009000000000000001,27.134552254525715,13.577712609970675
27.151554083659054,78,96,1,0.009000000000000001,27.13656874641565,14.985337243401759
27.161554083659055,72,71,1,0.015662071103872018,27.142658677989456,18.89540566959922
27.158129967135686,46,98,0,0.009757319951235943,27.14345743536638,14.672531769305962
27.16897143374817,62,79,0,0.009000000000000001,27.15132724997495,17.64418377321603
27.17895638488558,41,80,1,0.009000000000000001,27.161468603849414,17.487781036168133
27.17897143374817,74,89,0,0.03276934649795765,27.162891277345434,16.080156402737046
27.188956384885582,72,103,1,0.009000000000000001,27.175065866801514,13.890518084066471
27.198956384885584,57,77,1,0.025083557896409103,27.18099939563827,17.956989247311828
27.2153818187459,73,90,0,0.02329047706113165,27.19945806508021,15.923753665689148
27.22682700477048,65,74,1,0.02367684102565424,27.208400807312024,18.426197458455523
27.2412601265916,54,80,0,0.02193391725187117,27.223772345555435,17.487781036168133
27.2531346059101,90,111,1,0.03402468876287847,27.240495309722416,12.639296187683286
27.26563114576035,64,99,0,0.06585220926373712,27.25111501672809,14.516129032258064
27.29093981564663,98,117,1,0.013232396727941558,27.279238935881235,11.700879765395896
27.305642478677676,43,68,1,0.009000000000000001,27.286277864796933,19.364613880742915
27.315642478677677,68,66,1,0.009270515354006456,27.29596505932284,19.67741935483871
27.32594305129324,73,66,1,0.009594881223401516,27.306265631938402,19.67741935483871
27.336604030430355,87,65,1,0.009000000000000001,27.31677020833847,19.83382209188661
27.3388002671645,43,77,0,0.010826174945102757,27.320843277917188,17.956989247311828
27.346604030430356,52,85,1,0.014115225358978033,27.32989826307943,16.705767350928642
27.350829350436836,33,116,0,0.030592159403026897,27.338972067934392,11.857282502443795
27.362287614162554,46,94,1,0.009000000000000001,27.346989471445056,15.298142717497555
27.372287614162556,66,104,1,0.06611437308741343,27.358553498815535,13.734115347018573
27.384820638662422,65,81,0,0.02284381618649374,27.367489260363303,17.331378299120235
27.410202656647414,65,93,0,0.024817733187621937,27.394748111192868,15.454545454545453
27.43777791574477,53,77,0,0.018111883487707123,27.419820926497458,17.956989247311828
27.445748028704127,76,81,1,0.009000000000000001,27.42841665040501,17.331378299120235
27.45790223073111,28,77,0,0.025957993158193766,27.439945241483798,17.956989247311828
27.45574802870413,76,97,1,0.009000000000000001,27.440919094197774,14.82893450635386
27.46574802870413,64,95,1,0.009000000000000001,27.45060628872368,15.141739980449657
27.475748028704132,65,81,1,0.009000000000000001,27.458416650405013,17.331378299120235
27.486744445351327,52,67,0,0.009000000000000001,27.467223428733536,19.521016617790814
27.485748028704133,66,87,1,0.009000000000000001,27.4693550668273,16.392961876832846
27.495748028704135,58,83,1,0.009000000000000001,27.47872945587911,17.01857282502444
27.49674444535133,61,81,0,0.011144293949327257,27.47941306705221,17.331378299120235
27.505748028704136,48,87,1,0.009000000000000001,27.489355066827304,16.392961876832846
27.509126994183916,65,89,0,0.009000000000000001,27.49304683778118,16.080156402737046
27.515748028704138,54,108,1,0.009000000000000001,27.502639524305312,13.10850439882698
27.519126994183917,33,118,0,0.012131926377934941,27.50758251715557,11.544477028347998
27.52574802870414,61,116,1,0.009000000000000001,27.513890746201696,11.857282502443795
27.53574802870414,86,73,1,0.009000000000000001,27.517165428508637,18.58260019550342
27.532606912381624,77,111,0,0.014916845058089795,27.51996761619394,12.639296187683286
27.54918118466839,84,89,0,0.009941638010642483,27.533101028265655,16.080156402737046
27.545748028704143,28,115,1,0.013903641978515766,27.53373434346465,12.013685239491693
27.56022744912466,81,90,0,0.01636695846629408,27.54430369545897,15.923753665689148
27.561196519791384,59,109,1,0.017141939611623507,27.548244418129606,12.952101661779082
27.578412958531654,77,104,0,0.03165566516452823,27.564678843184634,13.734115347018573
27.580243119359853,54,108,1,0.009000000000000001,27.567134614961027,13.10850439882698
27.590243119359855,74,118,1,0.015790693177064833,27.578698642331506,11.544477028347998
27.607788334001036,24,93,1,0.012243191005995867,27.59233378854649,15.454545454545453
27.613585919825574,61,92,0,0.009000000000000001,27.59797497163398,15.610948191593351
27.621391879563255,41,64,1,0.009000000000000001,27.60140165473432,19.990224828934508
27.623585919825576,52,74,0,0.0315163313173827,27.60515972236712,18.426197458455523
27.631391879563257,44,75,1,0.02200827774883816,27.613122084841848,18.269794721407624
27.65584552150641,67,87,1,0.009000000000000001,27.63945255962958,16.392961876832846
27.65860406573378,66,94,0,0.009000000000000001,27.643305923016282,15.298142717497555
27.665845521506412,58,86,1,0.04113764166174896,27.649296156892532,16.549364613880744
27.66860406573378,77,72,0,0.009000000000000001,27.64986506280123,18.73900293255132
27.678604065733783,66,72,0,0.009000000000000001,27.65986506280123,18.73900293255132
27.688604065733784,97,118,0,0.014221128944579971,27.677059588705436,11.544477028347998
27.704405320116653,94,109,0,0.037418441418029004,27.691453218454875,12.952101661779082
27.711554012241688,83,117,1,0.009000000000000001,27.699853132476292,11.700879765395896
27.72155401224169,47,103,1,0.010492548077849207,27.70766349415762,13.890518084066471
27.733212398994855,61,76,1,0.013553823127374631,27.715099007010494,18.113391984359726
27.745981366136686,77,79,0,0.009363198821357863,27.728337182363468,17.64418377321603
27.748272202469714,49,81,1,0.009000000000000001,27.730940824170595,17.331378299120235
27.75638492038264,78,81,0,0.057651258596184175,27.73905354208352,17.331378299120235
27.758272202469715,49,69,1,0.009000000000000001,27.73906399132602,19.208211143695017
27.768272202469717,82,86,1,0.030958733755534176,27.751722837855837,16.549364613880744
27.802670795531423,80,105,1,0.025157741686791486,27.789093082921454,13.577712609970675
27.8204418743784,44,79,0,0.023043361869963204,27.802797690605182,17.64418377321603
27.83062384185008,79,90,1,0.018985831056279788,27.81470008818439,15.923753665689148
27.84604560978947,50,93,0,0.014819437923033005,27.830591064334925,15.454545454545453
27.85171920969039,33,105,1,0.014570907115767934,27.83814149708042,13.577712609970675
27.862511651926173,31,76,0,0.027595296584735234,27.844398259941812,18.113391984359726
27.867909106485687,76,116,1,0.013014943365895999,27.856051823983243,11.857282502443795
27.882370154670017,59,74,1,0.010403080532708501,27.86394395721156,18.426197458455523
27.893929133039695,51,78,1,0.009000000000000001,27.87612854652943,17.80058651026393
27.89317309257588,72,99,0,0.010536442997794571,27.87865696354362,14.516129032258064
27.904880251462316,87,71,0,0.018551116418672135,27.885984845792716,18.89540566959922
27.903929133039696,42,87,1,0.009000000000000001,27.887536171162864,16.392961876832846
27.913929133039698,68,93,1,0.009000000000000001,27.898474587585152,15.454545454545453
27.9239291330397,92,96,1,0.022592288533374413,27.908943795796297,14.985337243401759
27.92549260303862,65,98,0,0.009000000000000001,27.910820071269313,14.672531769305962
27.93549260303862,71,62,0,0.01705894546667208,27.915189572735592,20.303030303030305
27.94903167585456,77,89,1,0.010986838496732246,27.932951519451823,16.080156402737046
27.95444698689048,72,109,0,0.009000000000000001,27.941494885228703,12.952101661779082
27.961239274184262,35,104,1,0.009000000000000001,27.94750515883724,13.734115347018573
27.964446986890483,70,97,0,0.018112560867375574,27.949618052384128,14.82893450635386
27.971239274184263,50,115,1,0.009000000000000001,27.959225588944772,12.013685239491693
27.981239274184265,24,102,1,0.009000000000000001,27.96719235336315,14.04692082111437
27.9845720545209,62,81,0,0.037984400926973236,27.96724067622178,17.331378299120235
27.991239274184267,63,95,1,0.009000000000000001,27.976097534203817,15.141739980449657
28.001239274184268,63,77,1,0.009000000000000001,27.983282284936955,17.956989247311828
28.01123927418427,69,71,1,0.03820876308955616,27.99234386851467,18.89540566959922
28.02677694443976,71,96,0,0.009000000000000001,28.011791607196358,14.985337243401759
28.03677694443976,51,118,0,0.03019178180385977,28.025232467411413,11.544477028347998
28.05369345539489,45,112,1,0.009000000000000001,28.041210561944254,12.482893450635387
28.06369345539489,78,118,1,0.02546544149449449,28.052148978366542,11.544477028347998
28.070323368666273,85,80,0,0.015510965720354089,28.052835587630106,17.487781036168133
28.087557775022223,76,75,0,0.018542489066254175,28.069287980300814,18.269794721407624
28.091988390388774,38,96,1,0.013550421296210443,28.077003053145372,14.985337243401759
28.108160540651394,55,88,0,0.04910742103247568,28.09192398151161,16.236559139784944
28.10704441405123,52,112,1,0.009000000000000001,28.094561520600596,12.482893450635387
28.117044414051232,59,117,1,0.009000000000000001,28.105343534285836,11.700879765395896
28.127044414051234,71,80,1,0.009000000000000001,28.109556633015067,17.487781036168133
28.137044414051235,67,110,1,0.009000000000000001,28.124248715126505,12.795698924731184
28.147044414051237,73,93,1,0.009000000000000001,28.13158986859669,15.454545454545453
28.15704441405124,67,97,1,0.009000000000000001,28.142215479544884,14.82893450635386
28.16704441405124,81,69,1,0.009000000000000001,28.147836202907545,19.208211143695017
28.16272434179859,59,110,0,0.05488832813986934,28.14992864287386,12.795698924731184
28.17704441405124,35,113,1,0.009000000000000001,28.164717923337655,12.32649071358749
28.187044414051243,70,105,1,0.017448687077101746,28.173466701441274,13.577712609970675
28.20643184413691,72,63,1,0.009000000000000001,28.18628521657093,20.146627565982406
28.216431844136913,73,90,1,0.013587923625655123,28.200508090471224,15.923753665689148
28.22371137306511,31,71,0,0.01576162659528192,28.20481596739551,18.89540566959922
28.231529537054307,88,69,1,0.009000000000000001,28.21232132591061,19.208211143695017
28.241224291504313,65,84,0,0.011580509444418897,28.224362121416338,16.86217008797654
28.24152953705431,53,89,1,0.02031352991730608,28.225449380651572,16.080156402737046
28.254091524220335,42,69,0,0.02953850989767514,28.23488331307664,19.208211143695017
28.264100125851314,60,83,1,0.009000000000000001,28.24708155302629,17.01857282502444
28.274100125851316,84,76,1,0.009000000000000001,28.255986733866955,18.113391984359726
28.284100125851317,57,82,1,0.009000000000000001,28.266925150289246,17.174975562072337
28.286912090773306,89,106,0,0.009000000000000001,28.273490780900385,13.421309872922777
28.29410012585132,60,88,1,0.009000000000000001,28.277863566711535,16.236559139784944
28.30410012585132,70,70,1,0.0214860579012211,28.285048317444673,19.05180840664712
28.296912090773308,81,118,0,0.06788419590706735,28.28536761374496,11.544477028347998
28.327973523519344,42,86,1,0.023113112183122772,28.311424158905464,16.549364613880744
28.35365475927837,48,101,1,0.009000000000000001,28.339451435720207,14.203323558162268
28.363654759278372,29,113,1,0.009000000000000001,28.351328268564785,12.32649071358749
28.372338975114495,81,82,0,0.03668900499693191,28.355163999552424,17.174975562072337
28.373654759278374,51,96,1,0.009000000000000001,28.35866942203497,14.985337243401759
28.383654759278375,54,81,1,0.012229010689179882,28.366323380979257,17.331378299120235
28.39724254893302,83,75,1,0.009000000000000001,28.37897275421161,18.269794721407624
28.40724254893302,55,93,1,0.009000000000000001,28.391788003478474,15.454545454545453
28.413104536222196,40,75,0,0.03027610044204962,28.394834741500787,18.269794721407624
28.41724254893302,52,101,1,0.009000000000000001,28.403039225374858,14.203323558162268
28.427242548933023,70,110,1,0.011821305595535812,28.414446850008293,12.795698924731184
28.440377332928062,75,103,1,0.009000000000000001,28.426486814843994,13.890518084066471
28.450377332928063,47,74,1,0.009000000000000001,28.431951135469607,18.426197458455523
28.446744647824474,78,109,0,0.009895270300195987,28.433792546162696,12.952101661779082
28.460377332928065,53,92,1,0.009000000000000001,28.44476638473647,15.610948191593351
28.45773939260247,42,113,0,0.043636732429184,28.445412901888883,12.32649071358749
28.470377332928066,49,112,1,0.022148540232395004,28.457894439477432,12.482893450635387
28.494986822075173,42,79,1,0.009000000000000001,28.477342638301955,17.64418377321603
28.504986822075175,73,69,1,0.009000000000000001,28.48577861093148,19.208211143695017
28.506224650857117,62,101,0,0.02258630399310862,28.492021327298954,14.203323558162268
28.514986822075176,57,101,1,0.012140809869156608,28.500783498517013,14.203323558162268
28.531320544182794,51,64,0,0.009000000000000001,28.51133031935386,19.990224828934508
28.528476610818682,22,112,1,0.011372324737313495,28.515993717368048,12.482893450635387
28.541320544182796,57,67,0,0.010723525151386519,28.521799527565005,19.521016617790814
28.541112527193476,49,89,1,0.022210123908959052,28.52503237079074,16.080156402737046
28.55323557212878,33,93,0,0.009000000000000001,28.537781026674235,15.454545454545453
28.563235572128782,68,78,0,0.06375881156905223,28.545434985618517,17.80058651026393
28.565790442647874,29,83,1,0.009000000000000001,28.54877186982285,17.01857282502444
28.575790442647875,75,80,1,0.009000000000000001,28.55830266161171,17.487781036168133
28.585790442647877,74,65,1,0.009000000000000001,28.56595662055599,19.83382209188661
28.59579044264788,65,96,1,0.04775002770270819,28.580805105404476,14.985337243401759
28.634078696094395,57,108,0,0.10229709879072872,28.62097019169557,13.10850439882698
28.64884602898422,52,87,1,0.017575291458866788,28.632453067107388,16.392961876832846
28.668374130605184,27,106,1,0.01489691408619621,28.654952820732262,13.421309872922777
28.684926257367625,65,110,1,0.009000000000000001,28.672130558442895,12.795698924731184
28.694926257367626,66,110,1,0.01711280578873074,28.682130558442896,12.795698924731184
28.713940486021773,77,73,1,0.009000000000000001,28.69535788582627,18.58260019550342
28.723940486021775,65,79,1,0.032726052155124266,28.706296302248557,17.64418377321603
28.747742139195203,54,116,0,0.010656265414088345,28.73588485669276,11.857282502443795
28.759582434099745,40,79,0,0.06438082024965747,28.741938250326527,17.64418377321603
28.760302766194133,59,87,1,0.02283782144146557,28.7439098043173,16.392961876832846
28.785678123351317,63,113,1,0.009000000000000001,28.77335163263773,12.32649071358749
28.79567812335132,60,103,1,0.009000000000000001,28.78178760526725,13.890518084066471
28.80567812335132,69,63,1,0.009000000000000001,28.78553149578534,20.146627565982406
28.815678123351322,62,94,1,0.04249465108417886,28.800379980633824,15.298142717497555
28.831116678821587,79,65,0,0.0197987872128919,28.8112828567297,19.83382209188661
28.853115331280357,61,110,0,0.014887378606101873,28.840319632355627,12.795698924731184
28.862894402333744,72,79,1,0.013667757017764489,28.845250218560526,17.64418377321603
28.869656863064915,46,72,0,0.009097345574865117,28.850917860132363,18.73900293255132
28.87808079902015,37,102,1,0.009000000000000001,28.864033878199034,14.04692082111437
28.879765024814766,34,95,0,0.009000000000000001,28.864623284834316,15.141739980449657
28.888080799020152,60,68,1,0.009000000000000001,28.86871618513941,19.364613880742915
28.889765024814768,39,109,0,0.03463165761533843,28.87681292315299,12.952101661779082
28.898080799020153,97,68,1,0.01870271260521239,28.87871618513941,19.364613880742915
28.918861590803722,56,102,1,0.009000000000000001,28.904814669982606,14.04692082111437
28.928861590803724,67,97,1,0.009000000000000001,28.91403265629737,14.82893450635386
28.928244644387366,70,108,0,0.009000000000000001,28.91513613998854,13.10850439882698
28.938861590803725,56,78,1,0.009000000000000001,28.92106100429346,17.80058651026393
28.938244644387368,41,117,0,0.009000000000000001,28.92654376462197,11.700879765395896
28.94824464438737,93,63,0,0.018247362696042317,28.928098016821387,20.146627565982406
28.948861590803727,34,93,1,0.019087974139650573,28.93340704534918,15.454545454545453
28.970070450958893,96,75,1,0.02162427881476493,28.951800656237484,18.269794721407624
28.968519491827415,78,101,0,0.012254579484793578,28.95431616826925,14.203323558162268
28.982135691254964,64,114,0,0.009000000000000001,28.969965603278425,12.170087976539591
28.992135691254965,67,76,0,0.04332193013372727,28.974022299270604,18.113391984359726
28.994097427419742,78,111,1,0.015739266596761923,28.98145813123206,12.639296187683286
29.011585501416146,50,64,1,0.009000000000000001,28.991595276587212,19.990224828934508
29.021585501416148,58,110,1,0.009000000000000001,29.008789802491417,12.795698924731184
29.03158550141615,75,107,1,0.009083708757300368,29.018320594280276,13.264907135874878
29.040271169181327,69,96,0,0.0179531716316839,29.025285831937925,14.985337243401759
29.041678511146483,65,114,1,0.015628330935506977,29.029508423169943,12.170087976539591
29.060219137660976,44,82,0,0.009000000000000001,29.043044162098905,17.174975562072337
29.059043323297047,71,106,1,0.009000000000000001,29.045622013424126,13.421309872922777
29.070219137660978,82,100,0,0.009000000000000001,29.055859411365766,14.359726295210166
29.06904332329705,30,110,1,0.009000000000000001,29.05624762437232,12.795698924731184
29.07904332329705,29,108,1,0.009000000000000001,29.065934818898224,13.10850439882698
29.08021913766098,66,116,0,0.009899418832272664,29.068361855158535,11.857282502443795
29.09121849191906,57,90,0,0.009000000000000001,29.075294738253373,15.923753665689148
29.08904332329705,46,108,1,0.009000000000000001,29.075934818898226,13.10850439882698
29.099043323297053,56,113,1,0.009000000000000001,29.086716832583466,12.32649071358749
29.101218491919063,63,106,0,0.009000000000000001,29.087797182046142,13.421309872922777
29.109043323297055,54,77,1,0.029456877471393354,29.09108633404974,17.956989247311828
29.111218491919065,79,98,0,0.019353803320836967,29.096545960149758,14.672531769305962
29.132722717831104,82,97,0,0.030187162152475123,29.11789378332475,14.82893450635386
29.141773187154158,58,79,1,0.009000000000000001,29.12412900338094,17.64418377321603
29.15177318715416,65,113,1,0.009000000000000001,29.139446696440572,12.32649071358749
29.16177318715416,70,65,1,0.009000000000000001,29.141939365062274,19.83382209188661
29.166264009111632,87,82,0,0.009000000000000001,29.14908903354956,17.174975562072337
29.171773187154162,57,118,1,0.009000000000000001,29.160228710125814,11.544477028347998
29.176264009111634,64,111,0,0.015148799106412633,29.16362471292395,12.639296187683286
29.181773187154164,40,82,1,0.024601258460982628,29.164598211592093,17.174975562072337
29.193096008118758,57,87,0,0.009000000000000001,29.176703046241926,16.392961876832846
29.20309600811876,73,99,0,0.05196879549924708,29.1885798790865,14.516129032258064
29.209107918777477,59,86,1,0.009000000000000001,29.192558554163597,16.549364613880744
29.21910791877748,41,89,1,0.041087267259515003,29.20302776237474,16.080156402737046
29.260839114229032,38,97,0,0.02455974066214989,29.246010179722678,14.82893450635386
29.264760437954717,66,82,1,0.019609730195539982,29.247585462392646,17.174975562072337
29.28654902706087,53,66,1,0.009000000000000001,29.266871607706033,19.67741935483871
29.288127714964755,44,89,0,0.009000000000000001,29.27204755856202,16.080156402737046
29.296549027060873,44,79,1,0.009000000000000001,29.278904843287656,17.64418377321603
29.298127714964757,42,95,0,0.009000000000000001,29.282985974984307,15.141739980449657
29.306549027060875,21,72,1,0.009000000000000001,29.287810024128323,18.73900293255132
29.30812771496476,39,68,0,0.009000000000000001,29.288763101084015,19.364613880742915
29.31812771496476,55,71,0,0.009000000000000001,29.29923230929516,18.89540566959922
29.316549027060876,61,104,1,0.03424453780134615,29.302814911713856,13.734115347018573
29.32812771496476,56,64,0,0.015358753970444216,29.308137490135827,19.990224828934508
29.345192997154143,45,91,0,0.033597697315193444,29.329425646225502,15.76735092864125
29.354598513506815,75,116,1,0.027657019824115798,29.34274123100437,11.857282502443795
29.3825237719488,49,87,0,0.02454944080449928,29.36613081007197,16.392961876832846
29.38532853553361,48,101,1,0.04035764017127025,29.371125211975446,14.203323558162268
29.409800928398244,100,100,0,0.009000000000000001,29.395441202103033,14.359726295210166
29.419800928398246,75,84,0,0.009000000000000001,29.40293875831027,16.86217008797654
29.429800928398247,52,84,0,0.014618951744548898,29.412938758310272,16.86217008797654
29.430170357946132,52,112,1,0.009000000000000001,29.417687464495497,12.482893450635387
29.440170357946133,48,77,1,0.02920881065774846,29.42221336869882,17.956989247311828
29.44604420811441,76,80,0,0.020538625018049626,29.428556427078245,17.487781036168133
29.46886490257891,25,111,0,0.009000000000000001,29.45622560639123,12.639296187683286
29.4726245920103,87,115,1,0.009000000000000001,29.460610906770807,12.013685239491693
29.478864902578913,66,94,0,0.014140406629930536,29.463566759861415,15.298142717497555
29.4826245920103,65,104,1,0.018225893980885238,29.46889047666328,13.734115347018573
29.49457646550106,80,83,0,0.009000000000000001,29.477557892676035,17.01857282502444
29.502875585322396,78,102,1,0.019299089603271733,29.48882866450128,14.04692082111437
29.50457646550106,48,116,0,0.029021658375674105,29.492719182998616,11.857282502443795
29.52431901821492,50,106,1,0.009000000000000001,29.510897708342,13.421309872922777
29.534319018214923,49,87,1,0.009000000000000001,29.51792605633809,16.392961876832846
29.53682275258514,71,85,0,0.009000000000000001,29.520116985234214,16.705767350928642
29.544319018214924,61,74,1,0.013895762157559041,29.525892820756468,18.426197458455523
29.546822752585143,78,75,0,0.009000000000000001,29.528552957863734,18.269794721407624
29.556822752585145,68,100,0,0.012390673073101368,29.542463026289933,14.359726295210166
29.559758753945545,72,106,1,0.009000000000000001,29.546337444072623,13.421309872922777
29.569758753945546,58,69,1,0.018166584758051694,29.55055054280185,19.208211143695017
29.57059016711081,47,81,0,0.017870931364152604,29.553258788811693,17.331378299120235
29.58994384812116,46,95,1,0.009000000000000001,29.57480210814071,15.141739980449657
29.590446757515426,62,109,0,0.010540236018056329,29.57749465585365,12.952101661779082
29.602158130868823,75,102,0,0.009000000000000001,29.588111210047707,14.04692082111437
29.59994384812116,71,118,1,0.02152029980054857,29.588399371092812,11.544477028347998
29.612158130868824,72,112,0,0.009000000000000001,29.59967523741819,12.482893450635387
29.622158130868826,70,77,0,0.025503615262028184,29.604201141621513,17.956989247311828
29.623855292343993,63,87,1,0.02493921291228877,29.60746233046716,16.392961876832846
29.650495481159968,77,63,0,0.022291916053437565,29.630348853593986,20.146627565982406
29.651565528913203,55,67,1,0.009000000000000001,29.632044512295412,19.521016617790814
29.661565528913204,34,99,1,0.010560373290192987,29.647049399880945,14.516129032258064
29.67329927701342,58,77,1,0.009000000000000001,29.655342287766107,17.956989247311828
29.6752642767749,28,85,0,0.009000000000000001,29.658558509423973,16.705767350928642
29.683299277013422,51,66,1,0.047870975877987394,29.663621857658583,19.67741935483871
29.6852642767749,21,108,0,0.009000000000000001,29.672155772376076,13.10850439882698
29.695264276774903,43,97,0,0.009000000000000001,29.68043534226855,14.82893450635386
29.705264276774905,39,83,0,0.030441275717191768,29.68824570394988,17.01857282502444
29.736489250211186,47,67,1,0.009000000000000001,29.716968233593395,19.521016617790814
29.739087916460672,31,79,0,0.009000000000000001,29.721443732687455,17.64418377321603
29.746489250211187,59,78,1,0.009000000000000001,29.728688663700922,17.80058651026393
29.749087916460674,38,64,0,0.009000000000000001,29.72909769163174,19.990224828934508
29.75648925021119,70,91,1,0.009746098585707717,29.740721899282548,15.76735092864125
29.759087916460675,48,83,0,0.028875060826591175,29.742069343635652,17.01857282502444
29.767318248639754,69,86,1,0.01445749419274354,29.750768884025874,16.549364613880744
29.783382131076134,67,70,1,0.017619220007857678,29.764330322669487,19.05180840664712
29.79117131737911,45,91,0,0.05047284018123015,29.77540396645047,15.76735092864125
29.802959042195976,33,91,1,0.009000000000000001,29.787191691267335,15.76735092864125
29.812959042195978,56,73,1,0.02129328721640397,29.794376442000473,18.58260019550342
29.836618250214205,43,67,1,0.014217455857061422,29.817097233596414,19.521016617790814
29.84725225091381,62,83,0,0.010740102129367206,29.83023367808879,17.01857282502444
29.852415423388717,75,95,1,0.038389745666358936,29.837273683408267,15.141739980449657
29.859185697724218,46,85,0,0.011554697308066806,29.84247993037329,16.705767350928642
29.872024250288735,76,84,0,0.07305126029798663,29.85516208020076,16.86217008797654
29.895070696351336,59,96,1,0.009000000000000001,29.880085359107934,14.985337243401759
29.905070696351338,50,96,1,0.009000000000000001,29.890085359107935,14.985337243401759
29.91507069635134,50,117,1,0.01776607370865503,29.903369816585943,11.700879765395896
29.934810778249844,40,103,1,0.009000000000000001,29.920920260165776,13.890518084066471
29.944810778249845,78,79,1,0.010254098551454302,29.927166594476628,17.64418377321603
29.953192317286497,53,74,0,0.046980024502364194,29.93476611982804,18.426197458455523
29.956204221084796,55,99,1,0.009000000000000001,29.941688092052537,14.516129032258064
29.966204221084798,71,76,1,0.009000000000000001,29.948090829100437,18.113391984359726
29.9762042210848,80,82,1,0.009000000000000001,29.95902924552273,17.174975562072337
29.9862042210848,95,65,1,0.012589233343309938,29.966370398992915,19.83382209188661
30.0,53,42,1,0.03375,29.97656891495601,23.43108504398827
30.0,51,59,0,0.045,29.979227761485827,20.772238514174
30.0375,65,92,1,0.03375,30.021889051808408,15.610948191593351
30.05,75,95,0,0.045,30.03485826001955,15.141739980449657
30.075000000000003,70,73,1,0.03375,30.0564173998045,18.58260019550342
30.1,53,77,0,0.045,30.082043010752688,17.956989247311828
30.112500000000004,72,86,1,0.03375,30.095950635386124,16.549364613880744
30.150000000000002,65,55,0,0.045,30.12860215053764,21.397849462365592
30.150000000000006,65,79,1,0.03375,30.132355816226788,17.64418377321603
30.187500000000007,75,66,1,0.03375,30.16782258064517,19.67741935483871
30.200000000000003,43,79,0,0.045,30.182355816226785,17.64418377321603
30.22500000000001,60,96,1,0.03375,30.210014662756606,14.985337243401759
30.250000000000004,51,82,0,0.045,30.232825024437933,17.174975562072337
30.26250000000001,67,90,1,0.03375,30.24657624633432,15.923753665689148
30.30000000000001,63,71,1,0.03375,30.28110459433041,18.89540566959922
30.300000000000004,50,91,0,0.045,30.284232649071363,15.76735092864125
30.337500000000013,72,68,1,0.03375,30.31813538611927,19.364613880742915
30.350000000000005,36,61,0,0.045,30.329540566959928,20.459433040078203
30.375000000000014,68,94,1,0.03375,30.359701857282516,15.298142717497555
30.400000000000006,44,73,0,0.045,30.3814173998045,18.58260019550342
30.412500000000016,72,59,1,0.03375,30.391727761485843,20.772238514174
30.450000000000006,60,62,0,0.045,30.429696969696977,20.303030303030305
30.450000000000017,70,66,1,0.03375,30.43032258064518,19.67741935483871
30.48750000000002,68,79,1,0.03375,30.4698558162268,17.64418377321603
30.500000000000007,62,70,0,0.045,30.48094819159336,19.05180840664712
30.52500000000002,63,70,1,0.03375,30.505948191593372,19.05180840664712
30.550000000000008,60,67,0,0.045,30.530478983382217,19.521016617790814
30.56250000000002,56,85,1,0.03375,30.545794232649094,16.705767350928642
30.600000000000023,70,65,1,0.03375,30.580166177908136,19.83382209188661
30.60000000000001,65,88,0,0.045,30.583763440860224,16.236559139784944
30.637500000000024,48,65,1,0.03375,30.617666177908138,19.83382209188661
30.65000000000001,53,64,0,0.045,30.630009775171075,19.990224828934508
30.675000000000026,67,61,1,0.03375,30.654540566959948,20.459433040078203
30.70000000000001,60,82,0,0.045,30.68282502443794,17.174975562072337
30.712500000000027,60,47,1,0.03375,30.689850928641278,22.649071358748778
30.75000000000001,41,67,0,0.045,30.73047898338222,19.521016617790814
30.75000000000003,58,67,1,0.03375,30.730478983382238,19.521016617790814
30.78750000000003,60,74,1,0.03375,30.769073802541573,18.426197458455523
30.80000000000001,46,72,0,0.045,30.78126099706746,18.73900293255132
30.82500000000003,51,61,1,0.03375,30.804540566959954,20.459433040078203
30.850000000000012,36,66,0,0.045,30.830322580645174,19.67741935483871
30.862500000000033,75,70,1,0.03375,30.843448191593385,19.05180840664712
30.900000000000034,75,63,1,0.03375,30.879853372434052,20.146627565982406
30.900000000000013,36,77,0,0.045,30.8820430107527,17.956989247311828
30.937500000000036,63,79,1,0.03375,30.919855816226818,17.64418377321603
30.950000000000014,63,71,0,0.045,30.931104594330414,18.89540566959922
30.975000000000037,72,56,1,0.03375,30.95375855327472,21.241446725317694
31.000000000000014,41,73,0,0.045,30.98141739980451,18.58260019550342
31.01250000000004,70,73,1,0.03375,30.993917399804534,18.58260019550342
31.050000000000015,46,51,0,0.045,31.027976539589456,22.023460410557185
31.05000000000004,36,73,1,0.03375,31.031417399804536,18.58260019550342
31.08750000000004,60,76,1,0.03375,31.06938660801568,18.113391984359726
31.100000000000016,51,39,0,0.045,31.076099706744884,23.900293255131963
31.125000000000043,67,69,1,0.03375,31.105791788856347,19.208211143695017
31.150000000000016,44,87,0,0.045,31.133607038123184,16.392961876832846
31.162500000000044,55,81,1,0.03375,31.145168621700925,17.331378299120235
31.200000000000017,55,70,0,0.045,31.18094819159337,19.05180840664712
31.200000000000045,67,77,1,0.03375,31.182043010752732,17.956989247311828
31.237500000000047,65,87,1,0.03375,31.221107038123215,16.392961876832846
31.250000000000018,50,76,0,0.045,31.231886608015657,18.113391984359726
31.27500000000005,60,71,1,0.03375,31.25610459433045,18.89540566959922
31.30000000000002,51,77,0,0.045,31.282043010752705,17.956989247311828
31.31250000000005,62,79,1,0.03375,31.294855816226832,17.64418377321603
31.35000000000002,39,63,0,0.045,31.329853372434037,20.146627565982406
31.35000000000005,72,79,1,0.03375,31.332355816226833,17.64418377321603
31.387500000000053,65,74,1,0.03375,31.369073802541596,18.426197458455523
31.40000000000002,43,100,0,0.045,31.38564027370481,14.359726295210166
31.425000000000054,60,68,1,0.03375,31.40563538611931,19.364613880742915
31.45000000000002,63,84,0,0.045,31.433137829912045,16.86217008797654
31.462500000000055,63,75,1,0.03375,31.444230205278647,18.269794721407624
31.500000000000057,56,51,1,0.03375,31.4779765395895,22.023460410557185
31.50000000000002,48,73,0,0.045,31.481417399804517,18.58260019550342
31.53750000000006,80,64,1,0.03375,31.517509775171124,19.990224828934508
31.550000000000022,48,73,0,0.045,31.531417399804518,18.58260019550342
31.57500000000006,53,76,1,0.03375,31.5568866080157,18.113391984359726
31.600000000000023,44,75,0,0.045,31.581730205278614,18.269794721407624
31.61250000000006,53,78,1,0.03375,31.594699413489796,17.80058651026393
31.650000000000023,43,57,0,0.045,31.628914956011755,21.085043988269796
31.650000000000063,63,94,1,0.03375,31.634701857282565,15.298142717497555
31.687500000000064,80,63,1,0.03375,31.667353372434082,20.146627565982406
31.700000000000024,38,50,0,0.045,31.677820136852418,22.179863147605083
31.725000000000065,60,64,1,0.03375,31.70500977517113,19.990224828934508
31.750000000000025,51,84,0,0.045,31.73313782991205,16.86217008797654
31.762500000000067,63,89,1,0.03375,31.74641984359733,16.080156402737046
31.800000000000026,50,66,0,0.045,31.780322580645187,19.67741935483871
31.800000000000068,63,81,1,0.03375,31.78266862170095,17.331378299120235
31.83750000000007,63,77,1,0.03375,31.819543010752756,17.956989247311828
31.850000000000026,53,82,0,0.045,31.832825024437955,17.174975562072337
31.87500000000007,60,109,1,0.03375,31.862047898338293,12.952101661779082
31.900000000000027,56,83,0,0.045,31.882981427175004,17.01857282502444
31.912500000000072,60,89,1,0.03375,31.896419843597336,16.080156402737046
31.950000000000028,48,75,0,0.045,31.93173020527862,18.269794721407624
31.950000000000074,60,92,1,0.03375,31.93438905180848,15.610948191593351
31.987500000000075,46,80,1,0.03375,31.97001221896391,17.487781036168133
32.00000000000003,48,83,0,0.045,31.982981427175005,17.01857282502444
32.02500000000008,80,64,1,0.03375,32.00500977517114,19.990224828934508
32.050000000000026,44,66,0,0.045,32.03032258064518,19.67741935483871
32.06250000000008,70,47,1,0.03375,32.03985092864133,22.649071358748778
32.10000000000002,58,63,0,0.045,32.07985337243404,20.146627565982406
32.10000000000008,56,84,1,0.03375,32.083137829912104,16.86217008797654
32.13750000000008,48,62,1,0.03375,32.11719696969705,20.303030303030305
32.15000000000002,48,80,0,0.045,32.13251221896385,17.487781036168133
32.17500000000008,67,79,1,0.03375,32.15735581622687,17.64418377321603
32.20000000000002,48,63,0,0.045,32.17985337243403,20.146627565982406
32.212500000000084,58,86,1,0.03375,32.195950635386204,16.549364613880744
32.250000000000014,65,52,0,0.045,32.2281329423265,21.867057673509287
32.250000000000085,63,81,1,0.03375,32.23266862170097,17.331378299120235
32.28750000000009,56,84,1,0.03375,32.27063782991211,16.86217008797654
32.30000000000001,44,101,0,0.045,32.28579667644185,14.203323558162268
32.32500000000009,72,58,1,0.03375,32.304071358748864,20.928641251221897
32.35000000000001,51,86,0,0.045,32.33345063538613,16.549364613880744
32.36250000000009,65,62,1,0.03375,32.342196969697056,20.303030303030305
32.40000000000009,72,74,1,0.03375,32.38157380254164,18.426197458455523
32.400000000000006,55,77,0,0.045,32.382043010752696,17.956989247311828
32.43750000000009,60,101,1,0.03375,32.42329667644193,14.203323558162268
32.45,68,101,0,0.045,32.43579667644184,14.203323558162268
32.475000000000094,58,79,1,0.03375,32.45735581622688,17.64418377321603
32.5,48,78,0,0.045,32.48219941348974,17.80058651026393
32.512500000000095,67,54,1,0.03375,32.49094574780068,21.55425219941349
32.5500000000001,60,60,1,0.03375,32.52938416422297,20.6158357771261
32.55,46,102,0,0.045,32.53595307917888,14.04692082111437
32.5875000000001,56,87,1,0.03375,32.571107038123266,16.392961876832846
32.599999999999994,50,60,0,0.045,32.579384164222866,20.6158357771261
32.6250000000001,67,70,1,0.03375,32.605948191593455,19.05180840664712
32.64999999999999,56,96,0,0.045,32.63501466275659,14.985337243401759
32.6625000000001,62,60,1,0.03375,32.64188416422297,20.6158357771261
32.69999999999999,50,48,0,0.045,32.67750733137829,22.49266862170088
32.7000000000001,56,77,1,0.03375,32.68204301075279,17.956989247311828
32.737500000000104,60,76,1,0.03375,32.719386608015746,18.113391984359726
32.749999999999986,60,69,0,0.045,32.730791788856294,19.208211143695017
32.775000000000105,63,79,1,0.03375,32.75735581622689,17.64418377321603
32.79999999999998,44,65,0,0.045,32.78016617790809,19.83382209188661
32.81250000000011,67,71,1,0.03375,32.79360459433051,18.89540566959922
32.84999999999998,48,47,0,0.045,32.82735092864123,22.649071358748778
32.85000000000011,56,100,1,0.03375,32.8356402737049,14.359726295210166
32.88750000000011,51,62,1,0.03375,32.867196969697076,20.303030303030305
32.89999999999998,51,69,0,0.045,32.880791788856286,19.208211143695017
32.92500000000011,68,56,1,0.03375,32.90375855327479,21.241446725317694
32.949999999999974,51,103,0,0.045,32.936109481915906,13.890518084066471
32.96250000000011,72,93,1,0.03375,32.94704545454557,15.454545454545453
32.99999999999997,65,82,0,0.045,32.9828250244379,17.174975562072337
33.000000000000114,77,85,1,0.03375,32.983294232649186,16.705767350928642
33.037500000000115,56,53,1,0.03375,33.01578934506365,21.71065493646139
33.04999999999997,60,58,0,0.045,33.029071358748745,20.928641251221897
33.07500000000012,55,79,1,0.03375,33.0573558162269,17.64418377321603
33.099999999999966,46,81,0,0.045,33.08266862170085,17.331378299120235
33.11250000000012,60,65,1,0.03375,33.09266617790823,19.83382209188661
33.14999999999996,58,73,0,0.045,33.13141739980446,18.58260019550342
33.15000000000012,80,77,1,0.03375,33.13204301075281,17.956989247311828
33.18750000000012,48,53,1,0.03375,33.16578934506366,21.71065493646139
33.19999999999996,41,59,0,0.045,33.179227761485784,20.772238514174
33.22500000000012,65,67,1,0.03375,33.205478983382335,19.521016617790814
33.24999999999996,60,79,0,0.045,33.23235581622674,17.64418377321603
33.262500000000124,70,66,1,0.03375,33.24282258064528,19.67741935483871
33.299999999999955,48,67,0,0.045,33.28047898338217,19.521016617790814
33.300000000000125,82,70,1,0.03375,33.28094819159348,19.05180840664712
33.33750000000013,63,60,1,0.03375,33.316884164223,20.6158357771261
33.34999999999995,36,91,0,0.045,33.33423264907131,15.76735092864125
33.37500000000013,77,51,1,0.03375,33.35297653958957,22.023460410557185
33.39999999999995,60,45,0,0.045,33.377038123167104,22.961876832844574
33.41250000000013,70,116,1,0.03375,33.40064271749768,11.857282502443795
33.45000000000013,62,52,1,0.03375,33.42813294232662,21.867057673509287
33.449999999999946,51,81,0,0.045,33.43266862170083,17.331378299120235
33.48750000000013,68,89,1,0.03375,33.471419843597396,16.080156402737046
33.49999999999994,46,54,0,0.045,33.47844574780053,21.55425219941349
33.525000000000134,48,85,1,0.03375,33.508294232649206,16.705767350928642
33.54999999999994,53,86,0,0.045,33.53345063538606,16.549364613880744
33.562500000000135,63,62,1,0.03375,33.5421969696971,20.303030303030305
33.600000000000136,72,60,1,0.03375,33.57938416422301,20.6158357771261
33.59999999999994,48,80,0,0.045,33.58251221896377,17.487781036168133
33.63750000000014,65,72,1,0.03375,33.61876099706759,18.73900293255132
33.649999999999935,56,68,0,0.045,33.630635386119195,19.364613880742915
33.67500000000014,65,87,1,0.03375,33.65860703812331,16.392961876832846
33.69999999999993,53,59,0,0.045,33.679227761485755,20.772238514174
33.71250000000014,48,100,1,0.03375,33.69814027370493,14.359726295210166
33.75000000000014,72,86,1,0.03375,33.73345063538626,16.549364613880744
33.74999999999993,58,87,0,0.045,33.7336070381231,16.392961876832846
33.78750000000014,50,69,1,0.03375,33.76829178885645,19.208211143695017
33.799999999999926,46,87,0,0.045,33.783607038123094,16.392961876832846
33.825000000000145,56,101,1,0.03375,33.81079667644198,14.203323558162268
33.84999999999992,41,89,0,0.045,33.83391984359719,16.080156402737046
33.862500000000146,84,99,1,0.03375,33.84798387096789,14.516129032258064
33.89999999999992,51,74,0,0.045,33.88157380254147,18.426197458455523
33.90000000000015,68,87,1,0.03375,33.883607038123316,16.392961876832846
33.93750000000015,75,83,1,0.03375,33.920481427175126,17.01857282502444
33.94999999999992,36,78,0,0.045,33.932199413489656,17.80058651026393
33.97500000000015,53,82,1,0.03375,33.95782502443808,17.174975562072337
33.999999999999915,48,66,0,0.045,33.98032258064507,19.67741935483871
34.01250000000015,68,74,1,0.03375,33.9940738025417,18.426197458455523
34.05000000000015,72,83,1,0.03375,34.03298142717513,17.01857282502444
34.04999999999991,60,100,0,0.045,34.0356402737047,14.359726295210166
34.087500000000155,74,59,1,0.03375,34.06672776148598,20.772238514174
34.09999999999991,63,71,0,0.045,34.08110459433031,18.89540566959922
34.125000000000156,72,61,1,0.03375,34.104540566960075,20.459433040078203
34.149999999999906,65,64,0,0.045,34.13000977517097,19.990224828934508
34.16250000000016,67,62,1,0.03375,34.142196969697125,20.303030303030305
34.20000000000016,63,45,1,0.03375,34.177038123167314,22.961876832844574
34.1999999999999,24,56,0,0.045,34.178758553274584,21.241446725317694
34.23750000000016,63,65,1,0.03375,34.21766617790827,19.83382209188661
34.2499999999999,63,75,0,0.045,34.231730205278495,18.269794721407624
34.27500000000016,67,76,1,0.03375,34.256886608015805,18.113391984359726
34.2999999999999,38,85,0,0.045,34.28329423264897,16.705767350928642
34.31250000000016,63,59,1,0.03375,34.29172776148599,20.772238514174
34.350000000000165,68,61,1,0.03375,34.329540566960084,20.459433040078203
34.349999999999895,68,97,0,0.045,34.33517106549354,14.82893450635386
34.387500000000166,65,62,1,0.03375,34.36719696969713,20.303030303030305
34.39999999999989,41,71,0,0.045,34.381104594330296,18.89540566959922
34.42500000000017,72,54,1,0.03375,34.40344574780075,21.55425219941349
34.44999999999989,62,62,0,0.045,34.429696969696856,20.303030303030305
34.46250000000017,77,83,1,0.03375,34.445481427175146,17.01857282502444
34.50000000000017,63,83,1,0.03375,34.48298142717515,17.01857282502444
34.499999999999886,56,85,0,0.045,34.48329423264896,16.705767350928642
34.53750000000017,63,76,1,0.03375,34.519386608015814,18.113391984359726
34.54999999999988,41,96,0,0.045,34.53501466275648,14.985337243401759
34.57500000000017,48,70,1,0.03375,34.55594819159353,19.05180840664712
34.59999999999988,36,88,0,0.045,34.583763440860096,16.236559139784944
34.612500000000175,53,96,1,0.03375,34.59751466275677,14.985337243401759
34.650000000000176,65,83,1,0.03375,34.63298142717515,17.01857282502444
34.64999999999988,48,93,0,0.045,34.63454545454533,15.454545454545453
34.68750000000018,72,59,1,0.03375,34.666727761486,20.772238514174
34.699999999999875,48,98,0,0.045,34.68532746823057,14.672531769305962
34.72500000000018,65,51,1,0.03375,34.70297653958962,22.023460410557185
34.74999999999987,53,93,0,0.045,34.73454545454533,15.454545454545453
34.76250000000018,68,71,1,0.03375,34.743604594330584,18.89540566959922
34.79999999999987,39,68,0,0.045,34.78063538611913,19.364613880742915
34.80000000000018,74,73,1,0.03375,34.78141739980468,18.58260019550342
34.83750000000018,60,81,1,0.03375,34.820168621701065,17.331378299120235
34.849999999999866,36,69,0,0.045,34.830791788856175,19.208211143695017
34.875000000000185,62,75,1,0.03375,34.85673020527878,18.269794721407624
34.899999999999864,74,68,0,0.045,34.880635386119124,19.364613880742915
34.912500000000186,63,76,1,0.03375,34.89438660801583,18.113391984359726
34.94999999999986,48,83,0,0.045,34.93298142717484,17.01857282502444
34.95000000000019,65,95,1,0.03375,34.93485826001974,15.141739980449657
34.98750000000019,70,82,1,0.03375,34.97032502443812,17.174975562072337
34.99999999999986,65,63,0,0.045,34.97985337243387,20.146627565982406
35.02500000000019,56,74,1,0.03375,35.00657380254174,18.426197458455523
35.049999999999855,36,83,0,0.045,35.03298142717483,17.01857282502444
35.06250000000019,51,51,1,0.03375,35.04047653958963,22.023460410557185
35.09999999999985,53,70,0,0.045,35.08094819159321,19.05180840664712
35.10000000000019,80,81,1,0.03375,35.082668621701075,17.331378299120235
35.137500000000195,77,96,1,0.03375,35.12251466275679,14.985337243401759
35.14999999999985,48,74,0,0.045,35.131573802541396,18.426197458455523
35.175000000000196,60,92,1,0.03375,35.1593890518086,15.610948191593351
35.19999999999985,48,56,0,0.045,35.17875855327453,21.241446725317694
35.2125000000002,68,89,1,0.03375,35.19641984359746,16.080156402737046
35.2500000000002,63,53,1,0.03375,35.228289345063736,21.71065493646139
35.249999999999844,56,75,0,0.045,35.23173020527844,18.269794721407624
35.2875000000002,60,94,1,0.03375,35.2722018572827,15.298142717497555
35.29999999999984,62,107,0,0.045,35.286735092863964,13.264907135874878
35.3250000000002,80,81,1,0.03375,35.30766862170108,17.331378299120235
35.34999999999984,48,102,0,0.045,35.33595307917872,14.04692082111437
35.3625000000002,75,90,1,0.03375,35.346576246334514,15.923753665689148
35.400000000000205,56,65,1,0.03375,35.380166177908315,19.83382209188661
35.399999999999835,58,87,0,0.045,35.383607038123,16.392961876832846
35.437500000000206,53,73,1,0.03375,35.418917399804705,18.58260019550342
35.44999999999983,62,71,0,0.045,35.431104594330236,18.89540566959922
35.47500000000021,68,96,1,0.03375,35.460014662756805,14.985337243401759
35.49999999999983,43,54,0,0.045,35.478445747800414,21.55425219941349
35.51250000000021,68,64,1,0.03375,35.49250977517127,19.990224828934508
35.54999999999983,56,65,0,0.045,35.53016617790794,19.83382209188661
35.55000000000021,77,65,1,0.03375,35.53016617790832,19.83382209188661
35.58750000000021,80,58,1,0.03375,35.56657135874899,20.928641251221897
35.599999999999824,24,78,0,0.045,35.58219941348956,17.80058651026393
35.62500000000021,63,77,1,0.03375,35.6070430107529,17.956989247311828
35.64999999999982,51,76,0,0.045,35.63188660801546,18.113391984359726
35.662500000000215,65,94,1,0.03375,35.64720185728272,15.298142717497555
35.700000000000216,53,64,1,0.03375,35.68000977517128,19.990224828934508
35.69999999999982,60,73,0,0.045,35.68141739980432,18.58260019550342
35.73750000000022,67,94,1,0.03375,35.72220185728272,15.298142717497555
35.749999999999815,50,68,0,0.045,35.730635386119076,19.364613880742915
35.77500000000022,72,66,1,0.03375,35.75532258064538,19.67741935483871
35.79999999999981,56,65,0,0.045,35.78016617790792,19.83382209188661
35.81250000000022,68,69,1,0.03375,35.79329178885653,19.208211143695017
35.85000000000022,82,33,1,0.03375,35.825161290322804,24.838709677419356
35.84999999999981,56,89,0,0.045,35.83391984359707,16.080156402737046
35.88750000000022,53,85,1,0.03375,35.870794232649295,16.705767350928642
35.89999999999981,53,37,0,0.045,35.87578690127058,24.21309872922776
35.925000000000225,55,43,1,0.03375,35.901725317693284,23.27468230694037
35.949999999999804,58,72,0,0.045,35.931260997067255,18.73900293255132
35.962500000000226,74,79,1,0.03375,35.94485581622701,17.64418377321603
35.9999999999998,56,85,0,0.045,35.98329423264887,16.705767350928642
36.00000000000023,72,110,1,0.03375,35.987204301075494,12.795698924731184
36.03750000000023,63,85,1,0.03375,36.0207942326493,16.705767350928642
36.0499999999998,60,74,0,0.045,36.031573802541345,18.426197458455523
36.07500000000023,56,79,1,0.03375,36.057355816227016,17.64418377321603
36.099999999999795,51,52,0,0.045,36.078132942326285,21.867057673509287
36.11250000000023,58,83,1,0.03375,36.09548142717521,17.01857282502444
36.15000000000023,65,50,1,0.03375,36.12782013685263,22.179863147605083
36.14999999999979,36,88,0,0.045,36.13376344086001,16.236559139784944
36.187500000000234,56,109,1,0.03375,36.17454789833845,12.952101661779082
36.19999999999979,63,75,0,0.045,36.181730205278384,18.269794721407624
36.225000000000236,56,51,1,0.03375,36.20297653958968,22.023460410557185
36.24999999999979,63,88,0,0.045,36.23376344086,16.236559139784944
36.26250000000024,62,74,1,0.03375,36.244073802541784,18.426197458455523
36.30000000000024,65,78,1,0.03375,36.28219941348998,17.80058651026393
36.299999999999784,38,84,0,0.045,36.28313782991181,16.86217008797654
36.33750000000024,65,65,1,0.03375,36.31766617790835,19.83382209188661
36.34999999999978,53,67,0,0.045,36.330478983381994,19.521016617790814
36.37500000000024,58,65,1,0.03375,36.35516617790835,19.83382209188661
36.39999999999978,56,69,0,0.045,36.38079178885609,19.208211143695017
36.41250000000024,68,51,1,0.03375,36.390476539589685,22.023460410557185
36.449999999999775,41,49,0,0.045,36.42766373411512,22.33626588465298
36.450000000000244,77,80,1,0.03375,36.43251221896408,17.487781036168133
36.487500000000246,72,39,1,0.03375,36.463599706745114,23.900293255131963
36.49999999999977,53,70,0,0.045,36.48094819159313,19.05180840664712
36.52500000000025,60,87,1,0.03375,36.508607038123415,16.392961876832846
36.54999999999977,51,112,0,0.045,36.53751710654913,12.482893450635387
36.56250000000025,68,80,1,0.03375,36.54501221896408,17.487781036168133
36.60000000000025,48,67,1,0.03375,36.58047898338246,19.521016617790814
36.59999999999977,38,76,0,0.045,36.58188660801541,18.113391984359726
36.63750000000025,68,88,1,0.03375,36.62126344086047,16.236559139784944
36.649999999999764,48,66,0,0.045,36.63032258064492,19.67741935483871
36.67500000000025,68,80,1,0.03375,36.65751221896409,17.487781036168133
36.69999999999976,48,78,0,0.045,36.6821994134895,17.80058651026393
36.712500000000254,56,93,1,0.03375,36.69704545454571,15.454545454545453
36.750000000000256,56,75,1,0.03375,36.73173020527885,18.269794721407624
36.74999999999976,39,86,0,0.045,36.73345063538588,16.549364613880744
36.78750000000026,60,68,1,0.03375,36.76813538611952,19.364613880742915
36.799999999999756,58,81,0,0.045,36.78266862170064,17.331378299120235
36.82500000000026,75,83,1,0.03375,36.807981427175235,17.01857282502444
36.84999999999975,51,80,0,0.045,36.832512218963586,17.487781036168133
36.86250000000026,56,69,1,0.03375,36.84329178885657,19.208211143695017
36.90000000000026,56,75,1,0.03375,36.881730205278856,18.269794721407624
36.89999999999975,53,85,0,0.045,36.88329423264882,16.705767350928642
36.93750000000026,56,52,1,0.03375,36.91563294232675,21.867057673509287
36.94999999999975,51,78,0,0.045,36.932199413489485,17.80058651026393
36.975000000000264,56,33,1,0.03375,36.950161290322846,24.838709677419356
36.999999999999744,51,69,0,0.045,36.98079178885605,19.208211143695017
37.012500000000266,60,82,1,0.03375,36.995325024438195,17.174975562072337
37.05000000000027,48,63,1,0.03375,37.02985337243428,20.146627565982406
37.04999999999974,41,65,0,0.045,37.03016617790785,19.83382209188661
37.08750000000027,56,74,1,0.03375,37.069073802541816,18.426197458455523
37.09999999999974,63,68,0,0.045,37.080635386119,19.364613880742915
37.12500000000027,68,55,1,0.03375,37.1036021505379,21.397849462365592
37.149999999999736,60,72,0,0.045,37.13126099706719,18.73900293255132
37.16250000000027,53,85,1,0.03375,37.145794232649344,16.705767350928642
37.19999999999973,48,58,0,0.045,37.17907135874851,20.928641251221897
37.20000000000027,62,95,1,0.03375,37.18485826001982,15.141739980449657
37.237500000000274,70,48,1,0.03375,37.21500733137857,22.49266862170088
37.24999999999973,48,87,0,0.045,37.2336070381229,16.392961876832846
37.275000000000276,56,86,1,0.03375,37.258450635386396,16.549364613880744
37.29999999999973,48,70,0,0.045,37.28094819159308,19.05180840664712
37.31250000000028,53,60,1,0.03375,37.29188416422315,20.6158357771261
37.349999999999724,51,80,0,0.045,37.33251221896356,17.487781036168133
37.35000000000028,68,94,1,0.03375,37.33470185728278,15.298142717497555
37.38750000000028,53,82,1,0.03375,37.37032502443821,17.174975562072337
37.39999999999972,43,43,0,0.045,37.37672531769278,23.27468230694037
37.42500000000028,62,35,1,0.03375,37.40047409579696,24.52590420332356
37.44999999999972,56,102,0,0.045,37.4359530791786,14.04692082111437
37.46250000000028,60,69,1,0.03375,37.44329178885659,19.208211143695017
37.499999999999716,50,76,0,0.045,37.48188660801536,18.113391984359726
37.500000000000284,63,87,1,0.03375,37.48360703812345,16.392961876832846
37.537500000000286,70,62,1,0.03375,37.51719696969725,20.303030303030305
37.54999999999971,53,54,0,0.045,37.5284457478003,21.55425219941349
37.57500000000029,56,87,1,0.03375,37.558607038123455,16.392961876832846
37.59999999999971,36,62,0,0.045,37.57969696969668,20.303030303030305
37.61250000000029,82,70,1,0.03375,37.593448191593644,19.05180840664712
37.65000000000029,70,71,1,0.03375,37.631104594330694,18.89540566959922
37.64999999999971,55,92,0,0.045,37.634389051808114,15.610948191593351
37.68750000000029,65,80,1,0.03375,37.670012218964125,17.487781036168133
37.699999999999704,44,64,0,0.045,37.68000977517077,19.990224828934508
37.72500000000029,56,49,1,0.03375,37.70266373411564,22.33626588465298
37.7499999999997,58,100,0,0.045,37.73564027370449,14.359726295210166
37.762500000000294,60,80,1,0.03375,37.74501221896413,17.487781036168133
37.7999999999997,36,51,0,0.045,37.77797653958914,22.023460410557185
37.800000000000296,70,96,1,0.03375,37.78501466275689,14.985337243401759
37.8375000000003,50,79,1,0.03375,37.81985581622708,17.64418377321603
37.849999999999696,58,86,0,0.045,37.833450635385816,16.549364613880744
37.8750000000003,67,79,1,0.03375,37.857355816227084,17.64418377321603
37.89999999999969,48,55,0,0.045,37.878602150537326,21.397849462365592
37.9125000000003,51,92,1,0.03375,37.89688905180871,15.610948191593351
37.94999999999969,51,76,0,0.045,37.93188660801533,18.113391984359726
37.9500000000003,65,85,1,0.03375,37.933294232649374,16.705767350928642
37.9875000000003,63,89,1,0.03375,37.971419843597566,16.080156402737046
37.99999999999969,65,114,0,0.045,37.987829912023145,12.170087976539591
38.025000000000304,60,67,1,0.03375,38.00547898338252,19.521016617790814
38.049999999999685,56,75,0,0.045,38.03173020527828,18.269794721407624
38.062500000000306,55,90,1,0.03375,38.04657624633462,15.923753665689148
38.10000000000031,51,62,1,0.03375,38.079696969697274,20.303030303030305
38.09999999999968,39,68,0,0.045,38.08063538611894,19.364613880742915
38.13750000000031,63,85,1,0.03375,38.12079423264938,16.705767350928642
38.14999999999968,50,68,0,0.045,38.13063538611894,19.364613880742915
38.17500000000031,60,68,1,0.03375,38.15563538611957,19.364613880742915
38.199999999999676,48,48,0,0.045,38.177507331377974,22.49266862170088
38.21250000000031,48,59,1,0.03375,38.191727761486135,20.772238514174
38.25000000000031,75,77,1,0.03375,38.232043010753,17.956989247311828
38.24999999999967,60,79,0,0.045,38.23235581622646,17.64418377321603
38.287500000000314,63,68,1,0.03375,38.268135386119575,19.364613880742915
38.29999999999967,48,70,0,0.045,38.280948191593026,19.05180840664712
38.325000000000315,56,65,1,0.03375,38.305166177908426,19.83382209188661
38.34999999999967,53,82,0,0.045,38.3328250244376,17.174975562072337
38.36250000000032,67,75,1,0.03375,38.34423020527891,18.269794721407624
38.399999999999665,56,77,0,0.045,38.382043010752355,17.956989247311828
38.40000000000032,63,82,1,0.03375,38.38282502443825,17.174975562072337
38.43750000000032,68,59,1,0.03375,38.41672776148614,20.772238514174
38.44999999999966,44,70,0,0.045,38.43094819159302,19.05180840664712
38.47500000000032,48,90,1,0.03375,38.45907624633463,15.923753665689148
38.49999999999966,51,68,0,0.045,38.48063538611892,19.364613880742915
38.51250000000032,62,66,1,0.03375,38.49282258064548,19.67741935483871
38.550000000000324,58,44,1,0.03375,38.52688172043043,23.118279569892472
38.549999999999656,46,68,0,0.045,38.53063538611892,19.364613880742915
38.587500000000325,70,57,1,0.03375,38.56641495601205,21.085043988269796
38.59999999999965,50,90,0,0.045,38.584076246333964,15.923753665689148
38.62500000000033,65,59,1,0.03375,38.60422776148615,20.772238514174
38.64999999999965,48,51,0,0.045,38.62797653958909,22.023460410557185
38.66250000000033,68,61,1,0.03375,38.64204056696025,20.459433040078203
38.69999999999965,46,70,0,0.045,38.680948191593004,19.05180840664712
38.70000000000033,60,81,1,0.03375,38.68266862170121,17.331378299120235
38.73750000000033,68,78,1,0.03375,38.71969941349007,17.80058651026393
38.749999999999645,74,80,0,0.045,38.73251221896348,17.487781036168133
38.77500000000033,53,69,1,0.03375,38.75579178885664,19.208211143695017
38.79999999999964,55,23,0,0.045,38.773597262951746,26.402737047898338
38.812500000000334,55,65,1,0.03375,38.792666177908444,19.83382209188661
38.850000000000335,67,51,1,0.03375,38.82797653958978,22.023460410557185
38.84999999999964,41,107,0,0.045,38.83673509286376,13.264907135874878
38.88750000000034,58,66,1,0.03375,38.867822580645495,19.67741935483871
38.899999999999636,56,90,0,0.045,38.88407624633395,15.923753665689148
38.92500000000034,58,95,1,0.03375,38.90985826001989,15.141739980449657
38.94999999999963,51,68,0,0.045,38.930635386118894,19.364613880742915
38.96250000000034,55,60,1,0.03375,38.94188416422321,20.6158357771261
39.00000000000034,60,60,1,0.03375,38.97938416422321,20.6158357771261
38.99999999999963,63,72,0,0.045,38.98126099706708,18.73900293255132
39.03750000000034,70,77,1,0.03375,39.01954301075303,17.956989247311828
39.04999999999963,51,71,0,0.045,39.03110459433003,18.89540566959922
39.075000000000344,68,97,1,0.03375,39.06017106549399,14.82893450635386
39.099999999999625,60,45,0,0.045,39.07703812316678,22.961876832844574
39.112500000000345,63,75,1,0.03375,39.09423020527894,18.269794721407624
39.14999999999962,74,67,0,0.045,39.130478983381835,19.521016617790814
39.15000000000035,63,93,1,0.03375,39.1345454545458,15.454545454545453
39.18750000000035,51,75,1,0.03375,39.16923020527894,18.269794721407624
39.19999999999962,70,94,0,0.045,39.18470185728212,15.298142717497555
39.22500000000035,74,46,1,0.03375,39.20219452590455,22.805474095796676
39.249999999999616,48,64,0,0.045,39.23000977517068,19.990224828934508
39.26250000000035,63,87,1,0.03375,39.24610703812352,16.392961876832846
39.30000000000035,48,39,1,0.03375,39.27609970674522,23.900293255131963
39.29999999999961,56,68,0,0.045,39.280635386118874,19.364613880742915
39.337500000000354,74,67,1,0.03375,39.31797898338257,19.521016617790814
39.34999999999961,65,98,0,0.045,39.335327468230304,14.672531769305962
39.375000000000355,65,58,1,0.03375,39.35407135874913,20.928641251221897
39.39999999999961,43,48,0,0.045,39.377507331377906,22.49266862170088
39.41250000000036,72,104,1,0.03375,39.398765884653336,13.734115347018573
39.449999999999605,51,58,0,0.045,39.42907135874838,20.928641251221897
39.45000000000036,48,80,1,0.03375,39.43251221896419,17.487781036168133
39.48750000000036,68,66,1,0.03375,39.46782258064552,19.67741935483871
39.4999999999996,58,54,0,0.045,39.47844574780019,21.55425219941349
39.52500000000036,63,66,1,0.03375,39.50532258064552,19.67741935483871
39.5499999999996,62,78,0,0.045,39.53219941348934,17.80058651026393
39.56250000000036,68,57,1,0.03375,39.54141495601209,21.085043988269796
39.599999999999596,29,58,0,0.045,39.57907135874837,20.928641251221897
39.600000000000364,58,83,1,0.03375,39.58298142717534,17.01857282502444
39.637500000000365,36,75,1,0.03375,39.61923020527896,18.269794721407624
39.649999999999594,50,97,0,0.045,39.63517106549324,14.82893450635386
39.67500000000037,60,57,1,0.03375,39.653914956012095,21.085043988269796
39.69999999999959,68,97,0,0.045,39.685171065493236,14.82893450635386
39.71250000000037,68,89,1,0.03375,39.69641984359763,16.080156402737046
39.75000000000037,63,64,1,0.03375,39.73000977517143,19.990224828934508
39.74999999999959,56,73,0,0.045,39.73141739980409,18.58260019550342
39.78750000000037,48,101,1,0.03375,39.77329667644221,14.203323558162268
39.799999999999585,58,76,0,0.045,39.78188660801523,18.113391984359726
39.82500000000037,56,88,1,0.03375,39.80876344086059,16.236559139784944
39.84999999999958,48,55,0,0.045,39.828602150537215,21.397849462365592
39.862500000000374,60,71,1,0.03375,39.84360459433078,18.89540566959922
39.89999999999958,39,66,0,0.045,39.88032258064474,19.67741935483871
39.900000000000375,58,83,1,0.03375,39.88298142717535,17.01857282502444
39.93750000000038,67,83,1,0.03375,39.92048142717535,17.01857282502444
39.94999999999958,63,87,0,0.045,39.933607038122744,16.392961876832846
39.97500000000038,62,60,1,0.03375,39.95438416422325,20.6158357771261
40.0,55,37,1,0.4970522804635045,39.97578690127077,24.21309872922776
40.0,52,47,0,1.008224924220755,39.97735092864125,22.649071358748778
39.999999999999574,39,56,0,0.045,39.978758553274254,21.241446725317694
40.55228031162611,59,60,1,0.5802463544468379,40.531664475848984,20.6158357771261
41.12024991580084,47,53,0,0.5161360467167694,41.09853926086438,21.71065493646139
41.19699848323371,45,48,1,0.3235232278274423,41.17450581461201,22.49266862170088
41.556468736375315,43,55,1,0.30266648011296654,41.53507088691295,21.397849462365592
41.69373441215281,43,63,0,0.7927471833216687,41.67358778458682,20.146627565982406
41.89276482538972,64,43,1,0.5137444384669088,41.86949014308278,23.27468230694037
42.46359197924184,52,71,1,0.3852405285844186,42.444696573572244,18.89540566959922
42.57456461584355,50,55,0,0.9471025098792025,42.55316676638118,21.397849462365592
42.8916370110023,50,62,1,0.6167824277844078,42.87133398069927,20.303030303030305
43.57695081965164,38,43,1,0.4668970956515602,43.5536761373447,23.27468230694037
43.62690073793155,45,69,0,0.6716472151084886,43.60769252678786,19.208211143695017
44.0957253703756,38,31,1,0.643743381056645,44.07057385522408,25.151515151515152
44.373175421385426,26,53,0,0.2975067160911417,44.35146476644896,21.71065493646139
44.70373843926447,43,62,0,0.7242861488839278,44.68343540896144,20.303030303030305
44.810995793771866,55,68,1,0.6083995512344723,44.79163117989113,19.364613880742915
45.4869952951435,55,54,1,0.4841174023238966,45.465441042944086,21.55425219941349
45.50850082691328,38,45,0,0.9630016655946937,45.48553895008043,22.961876832844574
46.02490351994783,71,64,1,0.300059456906031,46.00491329511889,19.990224828934508
46.358302916510084,55,72,1,0.41370786775040896,46.339563913577535,18.73900293255132
46.57850267757405,43,57,0,0.6293769662802453,46.55741763358578,21.085043988269796
46.81797832512165,55,44,1,0.3802736539841667,46.79486004555176,23.118279569892472
47.24050460732628,40,55,1,0.23822558645039346,47.21910675786391,21.397849462365592
47.27781041788543,59,44,0,0.6245582660021904,47.25469213831554,23.118279569892472
47.505199703382274,55,62,1,0.6880620291029474,47.48489667307924,20.303030303030305
47.971764046776755,62,40,0,0.425807171929002,47.94802015625867,23.743890518084065
48.269713069052216,62,48,1,0.619128730688951,48.247220400430514,22.49266862170088
48.44488312669787,52,43,0,0.9442754813596762,48.42160844439093,23.27468230694037
48.957633880928825,62,63,1,0.3766780728883914,48.93748725336284,20.146627565982406
49.37616507302704,62,46,1,0.5793035632608405,49.35335959893124,22.805474095796676
49.4940781059864,38,70,0,0.6791277471848206,49.47502629757975,19.05180840664712
50.01983569887242,40,59,1,0.32976162503206596,49.999063460358244,20.772238514174
50.248664491747306,33,50,0,0.8185792397093492,50.2264846285997,22.179863147605083
50.3862375044636,45,61,1,0.5865526386289591,50.36577807142352,20.459433040078203
51.03796265849578,50,52,1,0.49380553730431964,51.01609560082227,21.867057673509287
51.15819698031325,31,63,0,0.8647108989902176,51.138050352747264,20.146627565982406
51.5866354777228,50,64,1,0.5895775762366148,51.56664525289386,19.990224828934508
52.0,47,68,1,0.02335873500544654,51.98063538611926,19.364613880742915
52.0,28,97,0,0.023480661490313765,51.985171065493645,14.82893450635386
52.02608962387813,84,109,0,0.009000000000000001,52.01313752221635,12.952101661779082
52.02595415000605,39,115,1,0.021708734085573108,52.013940464766556,12.013685239491693
52.03608962387813,52,70,0,0.009000000000000001,52.01703781547148,19.05180840664712
52.05007496565669,67,79,1,0.011824745247271732,52.03243078188348,17.64418377321603
52.046089623878125,56,117,0,0.0126059072969296,52.03438874411273,11.700879765395896
52.06009618754138,88,76,0,0.009000000000000001,52.041982795557026,18.113391984359726
52.06321357148699,74,67,1,0.009000000000000001,52.0436925548692,19.521016617790814
52.07009618754138,50,107,0,0.041776317456297785,52.056831280405504,13.264907135874878
52.07321357148699,80,99,1,0.009000000000000001,52.05869744245473,14.516129032258064
52.083213571486986,25,100,1,0.009000000000000001,52.068853845191775,14.359726295210166
52.093213571486984,54,71,1,0.010569336888738208,52.07431816581739,18.89540566959922
52.10495727914114,58,101,1,0.009000000000000001,52.090753955582976,14.203323558162268
52.11495727914114,79,74,1,0.009000000000000001,52.096531081682684,18.426197458455523
52.11651431804838,66,109,0,0.009000000000000001,52.1035622163866,12.952101661779082
52.124957279141135,34,75,1,0.009749178061744513,52.10668748441973,18.269794721407624
52.12651431804838,78,90,0,0.07380283666805496,52.11059056438269,15.923753665689148
52.13578969920974,51,114,1,0.009000000000000001,52.123619611233195,12.170087976539591
52.145789699209736,36,110,1,0.034308832746093004,52.132994000285,12.795698924731184
52.183910624483175,77,101,1,0.009000000000000001,52.16970730092501,14.203323558162268
52.19391062448317,47,90,1,0.009000000000000001,52.177986870817485,15.923753665689148
52.20851746990177,54,71,0,0.009000000000000001,52.189622064232175,18.89540566959922
52.20391062448317,68,114,1,0.009000000000000001,52.19174053650663,12.170087976539591
52.21851746990177,58,75,0,0.009191858975172208,52.200247675180364,18.269794721407624
52.21391062448317,44,112,1,0.014701183988472526,52.20142773103253,12.482893450635387
52.23024527335925,67,75,1,0.012891830995463273,52.21197547863785,18.269794721407624
52.228730646540846,70,98,0,0.03664317567272662,52.21405811477154,14.672531769305962
52.244569530020875,79,91,1,0.00972756047308969,52.228802179092234,15.76735092864125
52.25537793054653,82,117,1,0.009173934822907615,52.24367705078114,11.700879765395896
52.26557119146087,52,77,1,0.038193078864150555,52.24761420221356,17.956989247311828
52.26944528617721,41,103,0,0.009000000000000001,52.25555476809314,13.890518084066471
52.27944528617721,78,62,0,0.009000000000000001,52.259142255874174,20.303030303030305
52.289445286177205,63,64,0,0.009000000000000001,52.26945506134827,19.990224828934508
52.2994452861772,36,102,0,0.04076191300528399,52.28539836535609,14.04692082111437
52.30800794575437,56,93,1,0.009820160652631737,52.29255340029982,15.454545454545453
52.318919235368405,31,118,1,0.026104558874097364,52.30737475834006,11.544477028347998
52.34473630062752,75,64,0,0.009000000000000001,52.32474607579858,19.990224828934508
52.34792430078407,82,82,1,0.019351493041917394,52.330749325222,17.174975562072337
52.354736300627515,35,69,0,0.009000000000000001,52.33552808948382,19.208211143695017
52.36473630062751,51,73,0,0.009000000000000001,52.34615370043201,18.58260019550342
52.369425959719536,38,107,1,0.028031549010884213,52.35616105258366,13.264907135874878
52.37473630062751,33,77,0,0.009000000000000001,52.3567793113802,17.956989247311828
52.38473630062751,65,109,0,0.009000000000000001,52.37178419896573,12.952101661779082
52.39473630062751,77,96,0,0.013337092349876381,52.379750963384105,14.985337243401759
52.400572125287184,28,101,1,0.028621763518332267,52.38636880172902,14.203323558162268
52.40955529212737,63,89,0,0.02842292024705759,52.393475135724636,16.080156402737046
52.432374084752,69,105,1,0.011405663693467292,52.418796372142026,13.577712609970675
52.4411363146241,63,118,0,0.013746257002311779,52.42959183759576,11.544477028347998
52.4450470444114,85,98,1,0.013817606651097802,52.430374512642096,14.672531769305962
52.45640993351556,78,81,0,0.009000000000000001,52.43907855521644,17.331378299120235
52.4603999406904,62,67,1,0.016668526045052173,52.440878924072614,19.521016617790814
52.46640993351556,36,104,0,0.016371494704338723,52.45267581816854,13.734115347018573
52.478920525184904,42,108,1,0.020068427651455657,52.465812020786075,13.10850439882698
52.484600483187045,75,78,0,0.021687688416493458,52.46679989667678,17.80058651026393
52.50121877813097,53,118,1,0.009000000000000001,52.489674301102625,11.544477028347998
52.50869791476092,47,80,0,0.020241293283702843,52.491210133724756,17.487781036168133
52.51121877813097,57,117,1,0.009000000000000001,52.499517898365575,11.700879765395896
52.521218778130965,74,80,1,0.009000000000000001,52.5037309970948,17.487781036168133
52.53121877813096,63,93,1,0.020824548598914666,52.51576423267642,15.454545454545453
52.53118824063171,53,101,0,0.016637558060902318,52.51698491707354,14.203323558162268
52.54967441625493,42,77,0,0.014124705624692256,52.53171742700762,17.956989247311828
52.55435716546309,52,63,1,0.020368911659308913,52.5342105378971,20.146627565982406
52.5653685336157,38,67,0,0.009000000000000001,52.54584751699791,19.521016617790814
52.575368533615695,71,68,0,0.02170966559501472,52.556003919734955,19.364613880742915
52.57698928952899,96,115,1,0.02007992553336885,52.564975604289494,12.013685239491693
52.5993003178994,79,70,1,0.009000000000000001,52.580248509492755,19.05180840664712
52.59949038427682,71,97,0,0.009000000000000001,52.584661449770465,14.82893450635386
52.60949038427682,65,83,0,0.009237370373010286,52.592471811451794,17.01857282502444
52.6093003178994,52,116,1,0.025385844846400732,52.59744303539695,11.857282502443795
52.61975412913572,38,97,0,0.009000000000000001,52.60492519462937,14.82893450635386
52.62975412913572,42,101,0,0.022834608185057576,52.615550805577556,14.203323558162268
52.63750681217318,87,71,1,0.02569585834306081,52.61861140650358,18.89540566959922
52.655125916008004,77,107,0,0.013631977035163978,52.64186100887213,13.264907135874878
52.66605776588769,50,73,1,0.010869193609985364,52.64747516569219,18.58260019550342
52.670272557158185,74,72,0,0.045932573024321445,52.65153355422564,18.73900293255132
52.678134647676565,53,102,1,0.012453596926773638,52.66408772685545,14.04692082111437
52.6919719775952,79,81,1,0.009000000000000001,52.67464059929608,17.331378299120235
52.7019719775952,50,83,1,0.009000000000000001,52.68495340477018,17.01857282502444
52.7119719775952,38,85,1,0.010744588231057568,52.69526621024427,16.705767350928642
52.721308749407434,55,111,0,0.04191710768970299,52.70866945321975,12.639296187683286
52.72391040896304,63,102,1,0.012692884147445776,52.70986348814193,14.04692082111437
52.73801361357132,80,98,1,0.01145360978945426,52.72334108180201,14.672531769305962
52.75073984667071,55,65,1,0.009000000000000001,52.73090602457882,19.83382209188661
52.76073984667071,51,116,1,0.009000000000000001,52.74888256416826,11.857282502443795
52.767883313507106,42,75,0,0.01744001692864513,52.7496135187857,18.269794721407624
52.77073984667071,71,101,1,0.024620836504618892,52.756536523112544,14.203323558162268
52.78726111009449,67,116,0,0.009000000000000001,52.775403827592044,11.857282502443795
52.79726111009449,55,63,0,0.009000000000000001,52.7771144825285,20.146627565982406
52.798096331675836,69,79,1,0.09256541821819189,52.78045214790262,17.64418377321603
52.80726111009449,43,117,0,0.009000000000000001,52.795560230329095,11.700879765395896
52.817261110094485,65,97,0,0.06314592306501535,52.80243217558813,14.82893450635386
52.88742324683339,91,75,0,0.022808859310729325,52.86915345211199,18.269794721407624
52.90094679636272,31,69,1,0.02039607375675673,52.881738585219026,19.208211143695017
52.91276642384531,72,69,0,0.01768543169427667,52.89355821270162,19.208211143695017
52.92360910053689,88,62,1,0.009000000000000001,52.90330607023386,20.303030303030305
52.93241690350562,44,63,0,0.009000000000000001,52.91227027593963,20.146627565982406
52.93360910053689,85,62,1,0.017150079280982004,52.91330607023386,20.303030303030305
52.94241690350562,78,78,0,0.009000000000000001,52.924616316995355,17.80058651026393
52.95266474418243,55,62,1,0.009000000000000001,52.932361713879395,20.303030303030305
52.952416903505615,94,67,0,0.009000000000000001,52.93289588688783,19.521016617790814
52.962664744182426,84,100,1,0.009000000000000001,52.948305017887215,14.359726295210166
52.96241690350561,53,114,0,0.011694817402331078,52.95024681552907,12.170087976539591
52.972664744182424,84,99,1,0.023383243937529528,52.958148615150165,14.516129032258064
52.97541114506376,69,102,0,0.02882742066627205,52.961364224242644,14.04692082111437
52.99864612633524,66,91,1,0.016584945710441206,52.9828787754066,15.76735092864125
53.00744161247073,49,74,0,0.024081311020006487,52.989015415012275,18.426197458455523
53.01707384379129,21,85,1,0.009000000000000001,53.00036807644036,16.705767350928642
53.027073843791285,34,99,1,0.023948289553239098,53.012557714759026,14.516129032258064
53.03419862471518,45,77,0,0.009000000000000001,53.01624163546787,17.956989247311828
53.04419862471518,61,113,0,0.009000000000000001,53.03187213400159,12.32649071358749
53.053683054405994,56,68,1,0.009000000000000001,53.034318440525254,19.364613880742915
53.05419862471518,48,75,0,0.009000000000000001,53.03592882999377,18.269794721407624
53.06368305440599,98,74,1,0.009098846446957512,53.04525685694754,18.426197458455523
53.064198624715175,46,99,0,0.018648769986252818,53.049682495682916,14.516129032258064
53.0737928837915,85,99,1,0.019504742140349952,53.05927675475924,14.516129032258064
53.08491948025546,53,106,0,0.105905910783177,53.07149817038253,13.421309872922777
53.095464819503,53,94,1,0.009000000000000001,53.0801666767855,15.298142717497555
53.105464819503,46,90,1,0.01601833668899138,53.08954106583731,15.923753665689148
53.12326297137965,35,118,1,0.01120016045193698,53.11171849435131,11.544477028347998
53.135707594104026,38,87,1,0.009000000000000001,53.119314632227194,16.392961876832846
53.145707594104024,69,88,1,0.06396155205640384,53.12947103496424,16.236559139784944
53.20259271445899,64,112,0,0.009493616555251817,53.19010982100835,12.482893450635387
53.216775985277806,83,75,1,0.009000000000000001,53.1985061905564,18.269794721407624
53.213141177298155,52,102,0,0.026313381006861095,53.19909425647704,14.04692082111437
53.226775985277804,66,69,1,0.009000000000000001,53.20756777413411,19.208211143695017
53.2367759852778,87,79,1,0.00975866775713456,53.21913180150459,17.64418377321603
53.24237826730578,62,116,0,0.023793535656921504,53.230520984803334,11.857282502443795
53.247618949452395,57,91,1,0.02960272394267712,53.231851598523754,15.76735092864125
53.268815529146806,71,64,0,0.009000000000000001,53.24882530431787,19.990224828934508
53.278815529146804,59,79,0,0.054693875050735294,53.26117134537359,17.64418377321603
53.28051086494426,54,77,1,0.02068565707134452,53.26255387569695,17.956989247311828
53.30349492835687,75,103,1,0.009000000000000001,53.2896044102728,13.890518084066471
53.31349492835687,59,117,1,0.009000000000000001,53.301794048591475,11.700879765395896
53.323494928356865,64,96,1,0.009000000000000001,53.30850959111346,14.985337243401759
53.33349492835686,43,76,1,0.009000000000000001,53.315381536372506,18.113391984359726
53.3395865014254,88,89,0,0.0215035987855895,53.323506345022665,16.080156402737046
53.34349492835686,98,91,1,0.010247912484504865,53.32772757742822,15.76735092864125
53.35488149778409,50,118,1,0.009000000000000001,53.34333702075575,11.544477028347998
53.36347938896495,34,111,0,0.009000000000000001,53.35084009277726,12.639296187683286
53.36488149778409,57,113,1,0.009000000000000001,53.3525550070705,12.32649071358749
53.37488149778409,45,62,1,0.03057788160623555,53.354578467481055,20.303030303030305
53.373479388964945,62,91,0,0.01042318410692327,53.357712038036304,15.76735092864125
53.38506070463931,65,99,0,0.009766095216920236,53.37054457560705,14.516129032258064
53.395911921547,48,69,0,0.033236531058845414,53.376703710403305,19.208211143695017
53.40885692179101,63,65,1,0.009527289274961128,53.38902309969912,19.83382209188661
53.41944279876319,99,88,1,0.009000000000000001,53.40320623962341,16.236559139784944
53.43284140050127,58,69,0,0.023195153998634442,53.413633189357576,19.208211143695017
53.42944279876319,41,95,1,0.009000000000000001,53.41430105878274,15.141739980449657
53.43944279876319,65,81,1,0.009000000000000001,53.42211142046407,17.331378299120235
53.44944279876319,38,92,1,0.009213884066130147,53.43383185057159,15.610948191593351
53.45861379383308,50,97,0,0.011302053470685603,53.443784859326726,14.82893450635386
53.45968044772555,58,111,1,0.03646705292952395,53.44704115153787,12.639296187683286
53.471171631022735,60,63,0,0.02561121387187304,53.45102500345675,20.146627565982406
53.49962853532482,54,82,0,0.013065312541311783,53.482453559762746,17.174975562072337
53.50019939542502,66,104,1,0.009000000000000001,53.486465280078,13.734115347018573
53.51019939542502,65,63,1,0.009000000000000001,53.490052767859034,20.146627565982406
53.51414554925961,73,89,0,0.009000000000000001,53.49806539285687,16.080156402737046
53.52019939542502,69,95,1,0.02151528994988233,53.50505765544457,15.141739980449657
53.52414554925961,69,75,0,0.009000000000000001,53.5058757545382,18.269794721407624
53.534145549259605,73,117,0,0.034512163399871586,53.52244466949421,11.700879765395896
53.54410527314711,83,68,1,0.010324503837992171,53.52474065926637,19.364613880742915
53.55557694407821,62,107,1,0.009000000000000001,53.542312036942334,13.264907135874878
53.56557694407821,48,103,1,0.009000000000000001,53.55168642599414,13.890518084066471
53.57249239748168,108,103,0,0.009000000000000001,53.558601879397614,13.890518084066471
53.57557694407821,78,104,1,0.009000000000000001,53.56184282873119,13.734115347018573
53.58249239748168,86,107,0,0.009000000000000001,53.5692274903458,13.264907135874878
53.585576944078205,51,103,1,0.060520161378842446,53.57168642599414,13.890518084066471
53.59249239748168,68,89,0,0.015099420852765489,53.57641224107894,16.080156402737046
53.60926953176253,44,79,0,0.012203987448963817,53.591625347989314,17.64418377321603
53.62282951781693,76,79,0,0.016075010707143806,53.60518533404372,17.64418377321603
53.64069064082487,57,71,0,0.009105066629387858,53.621795235155275,18.89540566959922
53.65080738152419,78,65,0,0.011838735464600084,53.6309735594323,19.83382209188661
53.652821567832476,92,99,1,0.009000000000000001,53.63830543880022,14.516129032258064
53.662821567832474,35,77,1,0.009000000000000001,53.644864578585164,17.956989247311828
53.66396153204041,72,104,0,0.017049019423737145,53.65022741669339,13.734115347018573
53.67282156783247,63,89,1,0.05064699930767426,53.656741411429735,16.080156402737046
53.682904886955676,60,85,0,0.01961301315104195,53.66619911960475,16.705767350928642
53.70469712379017,43,105,0,0.009000000000000001,53.691119411180196,13.577712609970675
53.71469712379017,70,108,0,0.009000000000000001,53.70158861939134,13.10850439882698
53.724697123790165,65,112,0,0.01709626321800015,53.71221423033953,12.482893450635387
53.729096011507664,44,115,1,0.018900282715157667,53.71708232626817,12.013685239491693
53.74369297181016,68,112,0,0.009000000000000001,53.731210078359524,12.482893450635387
53.75009632563562,68,75,1,0.009000000000000001,53.73182653091421,18.269794721407624
53.75369297181016,62,115,0,0.02002535089090026,53.741679286570665,12.013685239491693
53.760096325635615,44,92,1,0.009000000000000001,53.74448537744402,15.610948191593351
53.77009632563561,50,67,1,0.02444131427022454,53.750575309017826,19.521016617790814
53.77594336168894,35,97,0,0.028395730109447365,53.761114427182584,14.82893450635386
53.79725334149142,49,95,1,0.009000000000000001,53.78211160151097,15.141739980449657
53.80725334149142,55,106,1,0.011945851683019468,53.79383203161849,13.421309872922777
53.80749417292166,79,112,0,0.009000000000000001,53.79501127947102,12.482893450635387
53.817494172921656,76,74,0,0.02752964432007335,53.7990679754632,18.426197458455523
53.8205265100281,75,99,1,0.030268281476015454,53.80601038099584,14.516129032258064
53.84808266661062,36,86,0,0.018040866985852298,53.83153330199674,16.549364613880744
53.85415793389034,53,106,1,0.010499692818831995,53.84073662401742,13.421309872922777
53.8658242592446,21,109,1,0.013703829929855015,53.852872157582816,12.952101661779082
53.86812807437268,43,104,0,0.009000000000000001,53.85439395902566,13.734115347018573
53.878128074372675,66,84,0,0.032820867415105606,53.8612659042847,16.86217008797654
53.88105073694444,71,105,1,0.009000000000000001,53.867473024334465,13.577712609970675
53.891050736944436,59,91,1,0.009000000000000001,53.875283386015795,15.76735092864125
53.901050736944434,45,67,1,0.02783472928468749,53.88152972032665,19.521016617790814
53.91459570483391,72,109,0,0.009000000000000001,53.901643603172126,12.952101661779082
53.924595704833905,35,74,0,0.009728091401915717,53.90616950737545,18.426197458455523
53.93197821392742,80,91,1,0.02410069603904215,53.91621086299878,15.76735092864125
53.935404695280475,75,108,0,0.018858455987463833,53.922296190881646,13.10850439882698
53.956358535266546,78,77,0,0.017890356352733564,53.938401546019236,17.956989247311828
53.958756765081915,68,65,1,0.013054070068390926,53.938922942990025,19.83382209188661
53.976236708991806,54,66,0,0.009000000000000001,53.956559289636964,19.67741935483871
53.973261287380126,80,114,1,0.029434844371407434,53.96109119940358,12.170087976539591
53.986236708991804,55,65,0,0.015192946729783812,53.966402886899914,19.83382209188661
54.00311776091379,53,89,0,0.009000000000000001,53.98703760451105,16.080156402737046
54.00596667001502,65,93,1,0.009000000000000001,53.990512124560475,15.454545454545453
54.01596667001502,77,82,1,0.011836464781017074,53.99879169445295,17.174975562072337
54.01311776091379,74,112,0,0.03549414399018823,54.00063486746315,12.482893450635387
54.02911829754948,52,77,1,0.017423355729847458,54.01116130830217,17.956989247311828
54.04847758169375,86,82,1,0.009000000000000001,54.03130260613168,17.174975562072337
54.05255569868066,34,81,0,0.009000000000000001,54.035224320381545,17.331378299120235
54.06255569868066,93,79,0,0.059392792340468216,54.04491151490745,17.64418377321603
54.05847758169375,45,108,1,0.009000000000000001,54.04536907729492,13.10850439882698
54.06847758169375,58,70,1,0.01859024952746017,54.049425773287105,19.05180840664712
54.08913341450204,40,88,1,0.014857308969428842,54.07289685536225,16.236559139784944
54.10564153557918,28,77,1,0.010145661326050824,54.08768454633187,17.956989247311828
54.116914492608124,61,107,1,0.03248412956870095,54.10364958547225,13.264907135874878
54.12854769017007,101,103,0,0.01957100923842104,54.114657172086005,13.890518084066471
54.15029325599054,43,63,0,0.009000000000000001,54.130146628424555,20.146627565982406
54.15300796990668,39,84,1,0.009000000000000001,54.136145799818706,16.86217008797654
54.16029325599054,92,66,0,0.012589411924289539,54.140615836635696,19.67741935483871
54.16300796990668,28,76,1,0.009000000000000001,54.14489457792232,18.113391984359726
54.17300796990668,60,70,1,0.020206660773543373,54.153956161500034,19.05180840664712
54.17428149146197,82,76,0,0.009000000000000001,54.15616809947761,18.113391984359726
54.18428149146197,94,108,0,0.023143172068422473,54.17117298706314,13.10850439882698
54.19545981521061,55,110,1,0.030922754581039342,54.18266411628588,12.795698924731184
54.20999612709355,42,91,0,0.009000000000000001,54.194228776164906,15.76735092864125
54.219996127093545,65,85,0,0.03968495715656728,54.20329035974262,16.705767350928642
54.229818431411765,68,70,1,0.009386614932456107,54.21076662300512,19.05180840664712
54.24024800355894,56,92,1,0.022901923008857048,54.224637055367346,15.610948191593351
54.26569458467989,63,75,1,0.009000000000000001,54.24742478995849,18.269794721407624
54.26409052393417,50,98,0,0.009063706154589185,54.249417992164865,14.672531769305962
54.27569458467989,73,95,1,0.009000000000000001,54.26055284469944,15.141739980449657
54.27416130855038,82,106,0,0.02232997961717265,54.26073999867746,13.421309872922777
54.28569458467989,55,84,1,0.009000000000000001,54.26883241459191,16.86217008797654
54.295694584679886,65,64,1,0.04084061120718975,54.27570435985095,19.990224828934508
54.298972397013905,49,73,0,0.04539609643459218,54.280389796818405,18.58260019550342
54.34107304157676,73,91,1,0.023342715968762532,54.32530569064812,15.76735092864125
54.34941250416345,60,104,0,0.021322324166771062,54.33567838881643,13.734115347018573
54.367009392653166,66,100,1,0.057772727723771934,54.352649666357955,14.359726295210166
54.37310397545986,37,116,0,0.009000000000000001,54.361246692957415,11.857282502443795
54.38310397545986,43,76,0,0.009000000000000001,54.3649905834755,18.113391984359726
54.39310397545986,57,63,0,0.011060679130236594,54.37295734789387,20.146627565982406
54.4053936189379,57,83,0,0.013749073332471516,54.38837504611288,17.01857282502444
54.420670367085094,34,114,0,0.026324566699179975,54.40850027910855,12.170087976539591
54.431201312346246,81,102,1,0.01243651541535166,54.41715439152513,14.04692082111437
54.445019662807745,71,83,1,0.03524630598525279,54.42800108998272,17.01857282502444
54.44991988563974,60,74,0,0.028802851419585725,54.431493688181284,18.426197458455523
54.48418222501358,32,80,1,0.009000000000000001,54.46669444397742,17.487781036168133
54.48192305388372,64,111,0,0.009892543499277024,54.46928375769603,12.639296187683286
54.49291476888292,71,72,0,0.025929637455771485,54.47417576595037,18.73900293255132
54.49418222501358,56,72,1,0.009000000000000001,54.47544322208103,18.73900293255132
54.50418222501358,53,91,1,0.016131253582948687,54.48841487408494,15.76735092864125
54.52172547716711,53,114,0,0.009000000000000001,54.50955538919057,12.170087976539591
54.522105840105745,47,114,1,0.009000000000000001,54.5099357521292,12.170087976539591
54.53210584010574,64,76,1,0.0218157934264573,54.513992448121385,18.113391984359726
54.53172547716711,38,113,0,0.018463734464813468,54.51939898645352,12.32649071358749
54.55224073768357,42,102,0,0.019173567752521048,54.53819381686245,14.04692082111437
54.556345610579584,72,108,1,0.009000000000000001,54.543237106180754,13.10850439882698
54.56634561057958,75,98,1,0.02894537350873762,54.551673078810275,14.672531769305962
54.57354470185304,71,117,0,0.009000000000000001,54.561843822087646,11.700879765395896
54.583544701853036,43,97,0,0.009000000000000001,54.56871576734668,14.82893450635386
54.593544701853034,31,64,0,0.009000000000000001,54.573554477024096,19.990224828934508
54.5985071367004,52,64,1,0.013130754696669118,54.57851691187146,19.990224828934508
54.60354470185303,70,78,0,0.030040807461684565,54.58574411534277,17.80058651026393
54.61309686414114,74,93,1,0.009000000000000001,54.597642318686596,15.454545454545453
54.62309686414114,80,113,1,0.01539948515043713,54.61077037342755,12.32649071358749
54.63692337681046,29,108,0,0.02965481053397169,54.62381487241163,13.10850439882698
54.64020740319718,57,94,1,0.02521555276247479,54.62490926047968,15.298142717497555
54.668224684044375,51,81,1,0.009000000000000001,54.65089330574526,17.331378299120235
54.669873166292646,56,112,0,0.017876769447181307,54.65739027284201,12.482893450635387
54.67822468404437,55,63,1,0.009000000000000001,54.65807805647839,20.146627565982406
54.68822468404437,63,105,1,0.010964752850239705,54.6746469714344,13.577712609970675
54.68973624345618,62,111,0,0.010606310564628622,54.677096947268495,12.639296187683286
54.70040774276686,101,70,1,0.009000000000000001,54.68135593436022,19.05180840664712
54.70152103297244,60,98,0,0.03437000313884883,54.68684850120313,14.672531769305962
54.71040774276686,44,90,1,0.014619138855168056,54.69448398910117,15.923753665689148
54.726651230383716,68,98,1,0.02706410909299888,54.71197869861441,14.672531769305962
54.73970992534893,54,117,0,0.020958579979024332,54.72800904558354,11.700879765395896
54.75672246270927,48,65,1,0.04349461677265783,54.73688864061738,19.83382209188661
54.76299723643674,73,85,0,0.009000000000000001,54.74629146908581,16.705767350928642
54.77299723643674,57,96,0,0.04396799196294928,54.758011899193335,14.985337243401759
54.80504981467889,44,94,1,0.009000000000000001,54.78975167196139,15.298142717497555
54.815049814678886,39,83,1,0.009000000000000001,54.79803124185386,17.01857282502444
54.82185056084001,64,95,0,0.04603860825807164,54.80670882085956,15.141739980449657
54.825049814678884,83,104,1,0.009000000000000001,54.811315699331864,13.734115347018573
54.83504981467888,78,89,1,0.01538514117782513,54.818969658276146,16.080156402737046
54.852144415987574,54,90,1,0.009000000000000001,54.836220662321885,15.923753665689148
54.86214441598757,49,90,1,0.009000000000000001,54.84622066232188,15.923753665689148
54.87214441598757,92,88,1,0.04422089560369274,54.855907856847786,16.236559139784944
54.873004570015645,90,93,0,0.009000000000000001,54.8575500245611,15.454545454545453
54.88300457001564,61,105,0,0.009000000000000001,54.86942685740567,13.577712609970675
54.89300457001564,61,115,0,0.0139549333208618,54.880990884776146,12.013685239491693
54.90851005148327,58,90,0,0.021553063858858905,54.89258629781758,15.923753665689148
54.921278744436115,55,80,1,0.010407846588559403,54.90379096339995,17.487781036168133
54.932843018423405,45,89,1,0.01707719035482973,54.91676286202067,16.080156402737046
54.93245790021533,57,93,0,0.03503447816144121,54.91700335476079,15.454545454545453
54.95181767437322,38,63,1,0.024414325311189023,54.93167104680723,20.146627565982406
54.97138509817249,54,101,0,0.009000000000000001,54.95718177461433,14.203323558162268
54.97894470249676,68,101,1,0.011634793940713813,54.9647413789386,14.203323558162268
54.98138509817249,61,107,0,0.010151181996319269,54.96812019103661,13.264907135874878
54.991872251319776,37,102,1,0.01488049380143191,54.97782533049866,14.04692082111437
54.99266418927951,59,99,0,0.030179115563119953,54.97814806024725,14.516129032258064
55.008406133321365,49,95,1,0.025243129371572907,54.993264393340915,15.141739980449657
55.0261965399052,78,63,0,0.01183732045057652,55.006049912339215,20.146627565982406
55.036454054845336,77,76,1,0.009000000000000001,55.01834066286098,18.113391984359726
55.039349118183615,54,84,0,0.009000000000000001,55.02248694809564,16.86217008797654
55.046454054845334,47,81,1,0.009000000000000001,55.029122676546216,17.331378299120235
55.04934911818361,77,97,0,0.009000000000000001,55.03452018367726,14.82893450635386
55.05934911818361,27,83,0,0.04023903066917876,55.04233054535859,17.01857282502444
55.05645405484533,56,103,1,0.009000000000000001,55.042563536761264,13.890518084066471
55.06645405484533,101,107,1,0.009000000000000001,55.05318914770945,13.264907135874878
55.07645405484533,57,84,1,0.01302486331109117,55.05959188475735,16.86217008797654
55.09092612519098,84,118,1,0.009000000000000001,55.07938164816264,11.544477028347998
55.104059152260476,64,67,0,0.009000000000000001,55.08453813564269,19.521016617790814
55.10092612519098,59,110,1,0.01586122211625873,55.08813042626625,12.795698924731184
55.114059152260474,61,105,0,0.017749415573119397,55.1004814396505,13.577712609970675
55.118549705320156,38,91,1,0.009000000000000001,55.102782354391515,15.76735092864125
55.128549705320154,54,80,1,0.009000000000000001,55.11106192428399,17.487781036168133
55.13854970532015,43,64,1,0.009000000000000001,55.118559480491214,19.990224828934508
55.13378072511949,69,104,0,0.009000000000000001,55.12004660977247,13.734115347018573
55.14854970532015,26,74,1,0.04677509943583922,55.1301235078617,18.426197458455523
55.14378072511949,65,113,0,0.009000000000000001,55.1314542344059,12.32649071358749
55.15378072511949,65,64,0,0.009000000000000001,55.13379050029055,19.990224828934508
55.16378072511949,28,114,0,0.009000000000000001,55.151610637142944,12.170087976539591
55.173780725119485,72,101,0,0.03283613523517893,55.15957740156132,14.203323558162268
55.20052203802664,50,108,1,0.012401013136421977,55.18741353362781,13.10850439882698
55.21026531982524,89,73,0,0.009000000000000001,55.19168271962974,18.58260019550342
55.21430094151155,70,94,1,0.030838233972296545,55.199002798794055,15.298142717497555
55.22026531982524,56,84,0,0.034299741069448775,55.20340314973726,16.86217008797654
55.24856564592522,49,101,1,0.02019163918644263,55.234362322367055,14.203323558162268
55.258376143235736,63,118,0,0.014088183708530324,55.24683166620739,11.544477028347998
55.27100080057682,44,118,1,0.009000000000000001,55.25945632354848,11.544477028347998
55.27402968068966,64,100,0,0.022471012050684733,55.25966995439445,14.359726295210166
55.28100080057682,66,107,1,0.041635218826012906,55.26773589344094,13.264907135874878
55.298997471857085,62,98,0,0.009000000000000001,55.28432494008778,14.672531769305962
55.30899747185708,70,74,0,0.05360186308151703,55.29057127439863,18.426197458455523
55.32726215482794,64,115,1,0.019936794494114448,55.31524846958845,12.013685239491693
55.34941414871029,79,73,1,0.009000000000000001,55.33083154851479,18.58260019550342
55.359414148710286,41,115,1,0.009588039413464606,55.34740046347079,12.013685239491693
55.370067525836355,36,79,1,0.009000000000000001,55.35242334206314,17.64418377321603
55.36855509750321,66,93,0,0.011550421987981946,55.353100552048666,15.454545454545453
55.38006752583635,50,68,1,0.009000000000000001,55.36070291195561,19.364613880742915
55.38138889971208,41,70,0,0.009000000000000001,55.362337091305434,19.05180840664712
55.39006752583635,53,100,1,0.025960291332296544,55.37570779954114,14.359726295210166
55.39138889971208,47,96,0,0.022934482692316925,55.376403562468674,14.985337243401759
55.41891229398335,24,87,1,0.009000000000000001,55.402519332106515,16.392961876832846
55.4168716582591,33,102,0,0.012079227302303316,55.40282473743798,14.04692082111437
55.428912293983345,47,100,1,0.01410825321842751,55.41455256768813,14.359726295210166
55.43029302192832,21,102,0,0.009000000000000001,55.416246101107205,14.04692082111437
55.44458813089271,82,75,1,0.009000000000000001,55.426318336171306,18.269794721407624
55.44029302192832,76,104,0,0.009000000000000001,55.4265589065813,13.734115347018573
55.45458813089271,21,64,1,0.009000000000000001,55.43459790606377,19.990224828934508
55.45029302192832,68,113,0,0.009000000000000001,55.43796653121473,12.32649071358749
55.460293021928315,32,78,0,0.010854643829378537,55.44249243541805,17.80058651026393
55.46458813089271,66,65,1,0.009261016202699182,55.44475430880082,19.83382209188661
55.47235373729429,58,74,0,0.011239160323713407,55.45392753983584,18.426197458455523
55.474878148895705,33,97,1,0.009000000000000001,55.46004921438935,14.82893450635386
55.4848781488957,27,99,1,0.009000000000000001,55.470362019863444,14.516129032258064
55.48484169320953,52,105,0,0.02065088090278047,55.47126398059956,13.577712609970675
55.4948781488957,91,75,1,0.020576478892643343,55.476608354174296,18.269794721407624
55.50778711643484,62,93,0,0.04519966934735326,55.492332570980295,15.454545454545453
55.51774090322086,29,78,1,0.0497734165408479,55.4999403167106,17.80058651026393
55.55800897126523,75,94,0,0.009000000000000001,55.54271082854773,15.298142717497555
55.56800897126523,55,73,0,0.009000000000000001,55.54942637106973,18.58260019550342
55.57304469937736,43,70,1,0.029946539801958952,55.55399289097072,19.05180840664712
55.57800897126523,88,107,0,0.023064366243981425,55.56474406412935,13.264907135874878
55.60363604486965,44,89,0,0.01269482440553034,55.587555888466916,16.080156402737046
55.60631863249065,76,90,1,0.009580305980652909,55.59039487882496,15.923753665689148
55.6169634169136,77,108,1,0.020614551656695755,55.60385491251477,13.10850439882698
55.617741405320245,22,107,0,0.03311954406789119,55.60447649818437,13.264907135874878
55.63986847430993,55,105,1,0.009896217648563967,55.626290761699956,13.577712609970675
55.65454089872901,48,69,0,0.020589899931616328,55.63533268758532,19.208211143695017
55.65086427169722,76,108,1,0.009000000000000001,55.637755767298394,13.10850439882698
55.66086427169722,31,91,1,0.009000000000000001,55.64509692076858,15.76735092864125
55.67086427169722,73,94,1,0.009167450676561155,55.65556612897972,15.298142717497555
55.6774185653197,21,102,0,0.009000000000000001,55.66337164449858,14.04692082111437
55.68105032800451,74,117,1,0.044968457246396434,55.66934944823912,11.700879765395896
55.687418565319696,78,116,0,0.009000000000000001,55.67556128281725,11.857282502443795
55.697418565319694,50,87,0,0.017879533320087668,55.68102560344286,16.392961876832846
55.717284713453125,52,68,0,0.009000000000000001,55.697920099572386,19.364613880742915
55.72728471345312,61,78,0,0.009000000000000001,55.70948412694286,17.80058651026393
55.73101528050051,53,66,1,0.02169911606791198,55.711337861145665,19.67741935483871
55.73728471345312,64,63,0,0.01463962492439513,55.717138085887136,20.146627565982406
55.753550963369115,74,74,0,0.02422497110354268,55.73512476591066,18.426197458455523
55.75512540946485,59,73,1,0.009000000000000001,55.73654280926935,18.58260019550342
55.76512540946485,35,94,1,0.009000000000000001,55.74982726674735,15.298142717497555
55.77512540946485,56,80,1,0.04213405900233195,55.75763762842868,17.487781036168133
55.780467597928606,64,98,0,0.025154554538540392,55.7657950661593,14.672531769305962
55.808417102971426,59,92,0,0.01077256930119475,55.79280615477983,15.610948191593351
55.820386624417196,91,113,0,0.009615883409966731,55.808060133703606,12.32649071358749
55.82194103057855,36,105,1,0.010758317912478287,55.80836331796858,13.577712609970675
55.83107093931716,51,83,0,0.0644865045894298,55.814052366492135,17.01857282502444
55.83389471714797,47,117,1,0.01347308262446252,55.82219383738258,11.700879765395896
55.84886480895293,59,103,1,0.009000000000000001,55.834974290868864,13.890518084066471
55.85886480895293,74,97,1,0.010957581740102721,55.844035874446575,14.82893450635386
55.87103989977527,38,101,1,0.026798761524216348,55.856836576217106,14.203323558162268
55.90272261108319,64,79,0,0.06140656734571528,55.88507842730998,17.64418377321603
55.90081630146884,58,105,1,0.009000000000000001,55.88723858885887,13.577712609970675
55.91081630146884,21,111,1,0.009000000000000001,55.898177005281156,12.639296187683286
55.92081630146884,77,63,1,0.009000000000000001,55.900669673902854,20.146627565982406
55.93081630146884,25,93,1,0.009000000000000001,55.91536175601429,15.454545454545453
55.940816301468836,29,83,1,0.036345603260614916,55.92379772864381,17.01857282502444
55.97095213035621,73,118,0,0.009000000000000001,55.959407653327865,11.544477028347998
55.98095213035621,40,70,0,0.009970896286178872,55.961900321949564,19.05180840664712
55.98120030509174,66,92,1,0.009000000000000001,55.965589356900146,15.610948191593351
55.99120030509174,64,73,1,0.009000000000000001,55.97261770489624,18.58260019550342
55.99203090400752,40,116,0,0.02665665442884925,55.980173621505074,11.857282502443795
56.001200305091736,44,106,1,0.010230329884883597,55.98777899521881,13.421309872922777
56.01256733829716,21,96,1,0.023831546748273078,55.99758200105376,14.985337243401759
56.02164940892847,46,113,0,0.020479217380693887,56.00932291821488,12.32649071358749
56.03904683468413,81,118,1,0.009387720055988407,56.027502357655784,11.544477028347998
56.044404094907016,35,97,0,0.020846137584781224,56.02957516040066,14.82893450635386
56.04947763474634,66,89,1,0.009000000000000001,56.0333974783436,16.080156402737046
56.05947763474634,53,95,1,0.009000000000000001,56.04433589476589,15.141739980449657
56.06756647000122,54,69,0,0.009000000000000001,56.048358258857526,19.208211143695017
56.069477634746335,73,94,1,0.009000000000000001,56.05417949202884,15.298142717497555
56.077566470001216,33,63,0,0.009000000000000001,56.05741984243523,20.146627565982406
56.07947763474633,73,83,1,0.009000000000000001,56.06245906192131,17.01857282502444
56.087566470001214,52,66,0,0.024273179261800476,56.06788905064637,19.67741935483871
56.08947763474633,72,65,1,0.009000000000000001,56.06964381265444,19.83382209188661
56.09947763474633,76,70,1,0.009000000000000001,56.080425826339685,19.05180840664712
56.10947763474633,66,101,1,0.01723411559296532,56.09527431118816,14.203323558162268
56.11453666918099,64,111,0,0.04098847404194443,56.10189737299331,12.639296187683286
56.128626652071844,63,97,1,0.009000000000000001,56.11379771756549,14.82893450635386
56.13862665207184,79,63,1,0.009000000000000001,56.11848002450586,20.146627565982406
56.14862665207184,76,67,1,0.009000000000000001,56.12910563545405,19.521016617790814
56.15862665207184,70,93,1,0.009000000000000001,56.14317210661729,15.454545454545453
56.16007941811649,98,88,0,0.01943971968431092,56.143842858976704,16.236559139784944
56.168626652071836,98,118,1,0.02021932803828865,56.15708217504349,11.544477028347998
56.18167910665461,78,93,0,0.019198287410572036,56.16622456120007,15.454545454545453
56.19109257211438,43,109,1,0.016458110569044646,56.1781404704526,12.952101661779082
56.203010537110806,72,108,0,0.04886807155215657,56.18990203271198,13.10850439882698
56.20937936163554,45,80,1,0.009000000000000001,56.191891580599375,17.487781036168133
56.21937936163554,32,103,1,0.017199335850374663,56.20548884355147,13.890518084066471
56.23848973480262,45,106,1,0.020123429984476183,56.225068424929695,13.421309872922777
56.25730839439098,61,79,0,0.009000000000000001,56.23966421061777,17.64418377321603
56.26084910145204,35,67,1,0.022501192456618673,56.24132808483425,19.521016617790814
56.26730839439098,90,100,0,0.021033328879799168,56.25294866809577,14.359726295210166
56.28585042640384,85,74,1,0.010931408901403936,56.26742422894539,18.426197458455523
56.29067875981298,35,75,0,0.03544345933012641,56.27240896509157,18.269794721407624
56.29799643629429,53,78,1,0.009000000000000001,56.28019584978403,17.80058651026393
56.30799643629429,50,97,1,0.015269073128150358,56.293167501787934,14.82893450635386
56.32496207310334,65,96,1,0.009000000000000001,56.30997673585994,14.985337243401759
56.33006038129089,64,77,0,0.009000000000000001,56.31210339204358,17.956989247311828
56.33496207310334,55,107,1,0.011132278163655859,56.321697165967464,13.264907135874878
56.34006038129089,68,81,0,0.019654173015388972,56.32272900299177,17.331378299120235
56.347331271062956,84,76,1,0.027577023222329907,56.3292178790786,18.113391984359726
56.361898351307985,63,95,0,0.009000000000000001,56.346756611327535,15.141739980449657
56.37189835130798,48,89,0,0.03027654663713468,56.35581819490525,16.080156402737046
56.37797240797666,82,92,1,0.009000000000000001,56.36236145978506,15.610948191593351
56.387972407976655,86,117,1,0.009000000000000001,56.37627152821126,11.700879765395896
56.39797240797665,43,88,1,0.009618069207107482,56.38173584883687,16.236559139784944
56.40553895868258,71,79,0,0.018471964768674753,56.38789477490936,17.64418377321603
56.40865915154011,42,96,1,0.009000000000000001,56.393673814296704,14.985337243401759
56.418659151540105,83,71,1,0.009000000000000001,56.39976374587051,18.89540566959922
56.42606336398111,52,88,0,0.014501718431426225,56.40982680484132,16.236559139784944
56.4286591515401,80,76,1,0.009000000000000001,56.410545759555745,18.113391984359726
56.4386591515401,88,77,1,0.009000000000000001,56.42070216229279,17.956989247311828
56.44217638446047,33,106,0,0.009000000000000001,56.42875507458754,13.421309872922777
56.452176384460465,60,94,0,0.011039285798342402,56.43687824174297,15.298142717497555
56.4486591515401,62,117,1,0.01157662109106184,56.43695827177471,11.700879765395896
56.4615220638635,59,69,1,0.009000000000000001,56.442313852719806,19.208211143695017
56.464442257569736,78,90,0,0.013692907075595841,56.44851850390405,15.923753665689148
56.471522063863496,63,100,1,0.009000000000000001,56.457162337568285,14.359726295210166
56.47965659876484,78,70,0,0.036027792176489735,56.4606047903582,19.05180840664712
56.481522063863494,70,74,1,0.010292880265855594,56.46309586640504,18.426197458455523
56.49295859749222,53,64,1,0.009000000000000001,56.47296837266328,19.990224828934508
56.50295859749222,64,68,1,0.009000000000000001,56.48359398361148,19.364613880742915
56.512958597492215,53,86,1,0.009674289288522483,56.496409232878335,16.549364613880744
56.51968747896094,59,99,0,0.009000000000000001,56.50517134992868,14.516129032258064
56.5237078078128,68,98,1,0.03428319544945458,56.50903527604349,14.672531769305962
56.52968747896094,82,79,0,0.009000000000000001,56.51204329518772,17.64418377321603
56.539687478960936,55,74,0,0.014347246876331637,56.52126128150248,18.426197458455523
56.55562886437908,55,73,0,0.009459253975118227,56.53704626418358,18.58260019550342
56.56180024720108,49,98,1,0.010853531875333292,56.54712771543177,14.672531769305962
56.566139146573654,83,111,0,0.009000000000000001,56.55349985038597,12.639296187683286
56.57385972706256,76,70,1,0.025438400002452784,56.55480791865592,19.05180840664712
56.57613914657365,75,79,0,0.015263187172445411,56.55849496280044,17.64418377321603
56.593098243431925,54,69,0,0.009000000000000001,56.57389003228823,19.208211143695017
56.60309824343192,42,63,0,0.03380849630237034,56.58295161586594,20.146627565982406
56.602124615954175,77,79,1,0.03653895443364033,56.58448043218096,17.64418377321603
56.640663239323445,42,85,0,0.0106669520378152,56.62395747197252,16.705767350928642
56.64272345421377,45,96,1,0.012644296162048378,56.62773811697037,14.985337243401759
56.656772672171606,21,73,1,0.022782425779494166,56.638190071976105,18.58260019550342
56.65251540825435,65,107,0,0.009000000000000001,56.639250501118475,13.264907135874878
56.66251540825435,54,73,0,0.009000000000000001,56.64393280805885,18.58260019550342
56.67251540825435,62,105,0,0.022487586797834802,56.658937695644376,13.577712609970675
56.68208647859326,31,85,1,0.009000000000000001,56.665380711242335,16.705767350928642
56.69208647859326,67,64,1,0.017881429968214905,56.67209625376432,19.990224828934508
56.6975016158075,55,66,0,0.052107443926167174,56.677824196452654,19.67741935483871
56.7119547341135,64,68,1,0.025329329429225094,56.69259012023276,19.364613880742915
56.740098433479304,52,117,1,0.029985860337759306,56.72839755371391,11.700879765395896
56.75539877572546,70,116,0,0.009000000000000001,56.74354149322301,11.857282502443795
56.76539877572546,56,82,0,0.009000000000000001,56.74822380016339,17.174975562072337
56.77341605607681,63,86,1,0.009000000000000001,56.75686669146293,16.549364613880744
56.775398775725456,97,94,0,0.014045961857210026,56.76010063300796,15.298142717497555
56.78341605607681,89,99,1,0.009000000000000001,56.76889992704455,14.516129032258064
56.791005400011244,78,81,0,0.02542878039292165,56.773674021712125,17.331378299120235
56.79341605607681,76,77,1,0.009000000000000001,56.7754590668295,17.956989247311828
56.803416056076806,61,102,1,0.009000000000000001,56.78936913525569,14.04692082111437
56.813416056076804,76,97,1,0.009375051921566369,56.79858712157045,14.82893450635386
56.81925960044782,82,103,0,0.009000000000000001,56.805369082363754,13.890518084066471
56.8238327804341,77,97,1,0.009000000000000001,56.80900384592775,14.82893450635386
56.82925960044782,64,74,0,0.009000000000000001,56.81083340298937,18.426197458455523
56.8338327804341,34,114,1,0.03421119401780652,56.82166269245756,12.170087976539591
56.83925960044782,43,109,0,0.04320466924991081,56.826307498786036,12.952101661779082
56.87184521823166,79,105,1,0.02076300814142227,56.85826750562169,13.577712609970675
56.88726478850327,108,88,0,0.009698851441376171,56.87102822936349,16.236559139784944
56.894915227277686,21,63,1,0.009000000000000001,56.8747685997117,20.146627565982406
56.8980412901048,47,107,0,0.009000000000000001,56.88477638296892,13.264907135874878
56.9080412901048,58,93,0,0.04677528171389455,56.89258674465025,15.454545454545453
56.904915227277684,37,113,1,0.01395501965075876,56.89258873656409,12.32649071358749
56.920420804667415,57,114,1,0.014593784193168008,56.90825071669087,12.170087976539591
56.936636120437605,21,112,1,0.009000000000000001,56.92415322698697,12.482893450635387
56.9466361204376,63,117,1,0.04224098156869402,56.93493524067221,11.700879765395896
56.96001382534246,27,112,0,0.009000000000000001,56.94753093189182,12.482893450635387
56.970013825342456,62,100,0,0.027053195589185914,56.955654099047244,14.359726295210166
56.99357054440282,66,83,1,0.028855666036892456,56.9765519715778,17.01857282502444
57.000072931552666,45,63,0,0.033121492236353224,56.97992630398668,20.146627565982406
57.02563239555492,70,115,1,0.009000000000000001,57.01361871031543,12.013685239491693
57.03563239555492,66,68,1,0.009000000000000001,57.01626778167418,19.364613880742915
57.036874589593054,67,106,0,0.009000000000000001,57.02345327972013,13.421309872922777
57.04563239555492,44,102,1,0.009000000000000001,57.0315854747338,14.04692082111437
57.04687458959305,68,100,0,0.009000000000000001,57.03251486329784,14.359726295210166
57.055632395554916,29,88,1,0.009000000000000001,57.03939583641513,16.236559139784944
57.05687458959305,48,116,0,0.00947976715312524,57.0450173070906,11.857282502443795
57.067407664207636,66,74,0,0.013839022339707551,57.04898146674918,18.426197458455523
57.065632395554914,83,108,1,0.009000000000000001,57.052523891156085,13.10850439882698
57.07563239555491,73,110,1,0.009000000000000001,57.06283669663018,12.795698924731184
57.0827843556962,36,106,0,0.026447279936338032,57.06936304582327,13.421309872922777
57.08563239555491,46,88,1,0.009000000000000001,57.069395836415126,16.236559139784944
57.09563239555491,60,72,1,0.03454277059793361,57.07689339262236,18.73900293255132
57.11217022229213,43,68,0,0.023477777417966295,57.09280560841139,19.364613880742915
57.13401325177483,48,113,1,0.009000000000000001,57.12168676106124,12.32649071358749
57.13825664164543,27,106,0,0.009000000000000001,57.1248353317725,13.421309872922777
57.14401325177483,53,76,1,0.009000000000000001,57.12589985979047,18.113391984359726
57.148256641645425,67,66,0,0.010398210334971498,57.12857922229058,19.67741935483871
57.15401325177483,22,93,1,0.031014146481363088,57.13855870632028,15.454545454545453
57.159810208684284,23,99,0,0.03887341358339239,57.145294079652025,14.516129032258064
57.1884734145319,32,103,1,0.07020826736274331,57.17458289644783,13.890518084066471
57.20300289044361,102,80,0,0.009000000000000001,57.18551510940744,17.487781036168133
57.213002890443605,60,89,0,0.009072718193238391,57.19692273404087,16.080156402737046
57.22308368843609,59,91,0,0.009000000000000001,57.20731633750745,15.76735092864125
57.23308368843609,23,98,0,0.03908168881305769,57.21841115666678,14.672531769305962
57.266482600490505,49,110,1,0.030914885536260626,57.25368690156577,12.795698924731184
57.27650778711727,57,77,0,0.03983879738734488,57.25855079786996,17.956989247311828
57.300832473308574,57,90,1,0.012911281618137323,57.284908719642885,15.923753665689148
57.31517834177317,39,111,1,0.009000000000000001,57.30253904558548,12.639296187683286
57.32077311754765,46,81,0,0.028012941759189232,57.303441739248534,17.331378299120235
57.32517834177317,88,109,1,0.02989684898659276,57.312226240111386,12.952101661779082
57.351898608391195,97,72,0,0.009000000000000001,57.33315960545865,18.73900293255132
57.35839706286938,59,77,1,0.009000000000000001,57.34044007362207,17.956989247311828
57.36189860839119,57,110,0,0.009000000000000001,57.34910290946646,12.795698924731184
57.37189860839119,38,66,0,0.009000000000000001,57.35222118903635,19.67741935483871
57.36839706286938,77,93,1,0.03400123909454864,57.35294251741483,15.454545454545453
57.38189860839119,47,89,0,0.0230745385064672,57.36581845198845,16.080156402737046
57.406176217418874,30,77,1,0.009000000000000001,57.388219228171565,17.956989247311828
57.407536984509484,27,116,0,0.009000000000000001,57.39567970200704,11.857282502443795
57.41617621741887,36,69,1,0.009000000000000001,57.39696800627518,19.208211143695017
57.41753698450948,61,99,0,0.01944145508246631,57.40302085547722,14.516129032258064
57.42617621741887,60,71,1,0.009000000000000001,57.407280811749274,18.89540566959922
57.43617621741887,61,72,1,0.009000000000000001,57.41743721448632,18.73900293255132
57.43913860126778,77,109,0,0.04790589895977281,57.426186499606,12.952101661779082
57.446176217418866,72,66,1,0.009000000000000001,57.426498798064024,19.67741935483871
57.456176217418864,44,94,1,0.009000000000000001,57.44087807470137,15.298142717497555
57.46617621741886,73,86,1,0.035707073053841173,57.44962685280498,16.549364613880744
57.49236737788975,26,113,0,0.009000000000000001,57.48004088717616,12.32649071358749
57.50236737788975,50,89,0,0.02649623521744622,57.48628722148701,16.080156402737046
57.505850743034244,39,117,1,0.009000000000000001,57.49414986326885,11.700879765395896
57.51585074303424,94,118,1,0.037556947023161584,57.5043062660059,11.544477028347998
57.531807639242466,56,81,0,0.03064547032565642,57.51447626094335,17.331378299120235
57.557580684171086,60,113,1,0.009000000000000001,57.545254193457495,12.32649071358749
57.567580684171084,52,63,1,0.009000000000000001,57.5474340566051,20.146627565982406
57.565858161826526,55,98,0,0.009000000000000001,57.55118563005722,14.672531769305962
57.57758068417108,43,71,1,0.01615036421732295,57.558685278501486,18.89540566959922
57.575858161826524,70,108,0,0.012612640543576555,57.562749657427695,13.10850439882698
57.589872206874944,52,63,0,0.010476319394873996,57.56972557930896,20.146627565982406
57.59552553330144,38,66,1,0.009000000000000001,57.5758481139466,19.67741935483871
57.601512561758135,78,82,0,0.012015461089476064,57.584337586196064,17.174975562072337
57.60552553330144,66,110,1,0.010017343525627932,57.592729834376705,12.795698924731184
57.61665591499658,31,102,1,0.022711597396605752,57.60260899417546,14.04692082111437
57.61486307407977,79,114,0,0.01771392284325625,57.60269298610323,12.170087976539591
57.63454521057228,40,67,0,0.009000000000000001,57.61502419395449,19.521016617790814
57.64189102321503,30,68,1,0.016819399677503274,57.62252640933429,19.364613880742915
57.644545210572275,75,86,0,0.009000000000000001,57.627995845958395,16.549364613880744
57.65454521057227,71,62,0,0.009000000000000001,57.63424218026924,20.303030303030305
57.66454521057227,65,68,0,0.03828649078986262,57.64518059669153,19.364613880742915
57.66057924507892,39,101,1,0.009000000000000001,57.64637592152076,14.203323558162268
57.67057924507892,62,93,1,0.016950581879872344,57.65512469962437,15.454545454545453
57.68941322494545,57,118,1,0.009000000000000001,57.6778687479171,11.544477028347998
57.699413224945445,32,64,1,0.015082294973205262,57.67942300011651,19.990224828934508
57.70708575589434,50,89,0,0.039894574844209926,57.691005599491604,16.080156402737046
57.71617133047123,56,91,1,0.012435472958454975,57.700403979542585,15.76735092864125
57.72998852264729,63,104,1,0.028808814952159336,57.71625440730027,13.734115347018573
57.75141306127679,67,83,0,0.00952213773644941,57.73439448845177,17.01857282502444
57.761998317038575,56,73,1,0.009000000000000001,57.743415716843074,18.58260019550342
57.76199321431729,70,118,0,0.012525281574302459,57.75044873728895,11.544477028347998
57.77199831703857,69,110,1,0.009000000000000001,57.75920261811384,12.795698924731184
57.7759101938443,64,90,0,0.009000000000000001,57.75998644017861,15.923753665689148
57.78199831703857,94,62,1,0.010294867550245099,57.76169528673554,20.303030303030305
57.785910193844295,54,67,0,0.009000000000000001,57.76638917722651,19.521016617790814
57.793437058761064,46,90,1,0.010749521738700038,57.777513305095376,15.923753665689148
57.79591019384429,82,76,0,0.01708387094912178,57.777796801859935,18.113391984359726
57.80538097180406,56,70,1,0.033499867624625965,57.78632916339742,19.05180840664712
57.81489227267665,79,95,0,0.02467387290734917,57.7997505326962,15.141739980449657
57.84230768701815,86,72,0,0.014282723634433532,57.8235686840856,18.73900293255132
57.842603046942536,82,81,1,0.009000000000000001,57.82527166864342,17.331378299120235
57.852603046942534,48,108,1,0.009000000000000001,57.839494542543704,13.10850439882698
57.858177379945296,66,73,0,0.01639352318115723,57.839594779749795,18.58260019550342
57.86260304694253,58,105,1,0.009000000000000001,57.84902533433256,13.577712609970675
57.87260304694253,68,108,1,0.009000000000000001,57.8594945425437,13.10850439882698
57.876392405702134,51,96,0,0.01969490261020842,57.86140706845873,14.985337243401759
57.88260304694253,81,113,1,0.009000000000000001,57.87027655622894,12.32649071358749
57.892603046942526,80,84,1,0.009482035439999117,57.87574087685455,16.86217008797654
57.898275630824585,80,100,0,0.01697557051456115,57.883915904529374,14.359726295210166
57.903138641875856,24,97,1,0.009000000000000001,57.8883097073695,14.82893450635386
57.913138641875854,55,114,1,0.009000000000000001,57.90096855389931,12.170087976539591
57.91713737584077,76,115,0,0.028085218315601287,57.90512369060127,12.013685239491693
57.92313864187585,53,109,1,0.009000000000000001,57.91018654021407,12.952101661779082
57.93313864187585,44,92,1,0.009000000000000001,57.91752769368426,15.610948191593351
57.94313864187585,68,73,1,0.016409362565620405,57.92455604168035,18.58260019550342
57.948343173969214,59,67,0,0.009000000000000001,57.928822157351426,19.521016617790814
57.95834317396921,51,80,0,0.009000000000000001,57.940855392933045,17.487781036168133
57.96137126694876,75,62,1,0.009000000000000001,57.94106823664573,20.303030303030305
57.97137126694876,35,92,1,0.016089689159420814,57.955760318757164,15.610948191593351
57.96834317396921,92,113,0,0.02667675196693705,57.95601668325562,12.32649071358749
57.98924869934812,49,109,1,0.022050390838967256,57.976296597686336,12.952101661779082
57.99798400948803,69,95,0,0.009000000000000001,57.98284226950758,15.141739980449657
58.00798400948803,89,83,0,0.009000000000000001,57.990965436663004,17.01857282502444
58.013749133613636,53,86,1,0.015587567093028566,57.99719976899976,16.549364613880744
58.017984009488025,79,110,0,0.021445696828171712,58.00518831056329,12.795698924731184
58.03106865260589,54,83,1,0.06014823786738264,58.014050079780866,17.01857282502444
58.04181256151933,76,79,0,0.014414656113101176,58.024168377746115,17.64418377321603
58.05782884608944,69,83,0,0.009000000000000001,58.04081027326442,17.01857282502444
58.06782884608944,21,64,0,0.01854588961873017,58.0478386212605,19.990224828934508
58.08843539011025,30,73,0,0.050252287957604586,58.06985278991475,18.58260019550342
58.097900028014095,66,68,1,0.009000000000000001,58.078535414133356,19.364613880742915
58.10790002801409,58,85,1,0.03208198344941402,58.091194260663165,16.705767350928642
58.14354667629122,69,68,1,0.011327118820928848,58.12418206241048,19.364613880742915
58.1442712656187,55,66,0,0.009000000000000001,58.124593846263856,19.67741935483871
58.154271265618696,61,79,0,0.0093651194787503,58.13662708184548,17.64418377321603
58.156132363870036,46,110,1,0.009000000000000001,58.1433366649453,12.795698924731184
58.166132363870034,47,79,1,0.009000000000000001,58.14848818009682,17.64418377321603
58.16467695392842,42,96,0,0.009000000000000001,58.14969161668502,14.985337243401759
58.17467695392842,72,85,0,0.010811613028243069,58.15797118657749,16.705767350928642
58.17613236387003,78,103,1,0.009000000000000001,58.162241845785964,13.890518084066471
58.18668985729313,24,103,0,0.01453404850126034,58.172799339209064,13.890518084066471
58.18613236387003,47,108,1,0.01059958367916285,58.1730238594712,13.10850439882698
58.1979096790691,80,104,1,0.010311417725343873,58.18417556372208,13.734115347018573
58.20283880007231,35,105,0,0.01928809207422025,58.189261087462334,13.577712609970675
58.209366809875036,71,112,1,0.009000000000000001,58.1968839164244,12.482893450635387
58.219366809875034,39,100,1,0.009000000000000001,58.20500708357982,14.359726295210166
58.22427001348811,56,102,0,0.00914230945785982,58.21022309266699,14.04692082111437
58.22936680987503,57,99,1,0.019699856238490767,58.21485068084277,14.516129032258064
58.234428135107954,77,79,0,0.021369166756874673,58.21678395133474,17.64418377321603
58.25125553902891,86,90,1,0.07544537260258055,58.23533178536322,15.923753665689148
58.258171653726706,49,111,0,0.009000000000000001,58.24553235753902,12.639296187683286
58.268171653726704,58,97,0,0.009180790587386117,58.25334271922035,14.82893450635386
58.278372532157135,68,92,0,0.009000000000000001,58.26276158396554,15.610948191593351
58.28837253215713,51,68,0,0.013211263695862785,58.269007918276394,19.364613880742915
58.30305171404142,27,97,0,0.018141477046506028,58.28822277953507,14.82893450635386
58.32320891075976,74,88,0,0.009000000000000001,58.306972351619976,16.236559139784944
58.33320891075976,47,102,0,0.013853993786977707,58.31916198993864,14.04692082111437
58.33508373080956,70,105,1,0.009390012433495624,58.321506018199585,13.577712609970675
58.34860223718973,46,81,0,0.010695332296121806,58.33127085889061,17.331378299120235
58.345517077957886,77,103,1,0.010659621303175118,58.33162655987382,13.890518084066471
58.35736110162808,63,81,1,0.014936945268300252,58.34002972332896,17.331378299120235
58.360485939740975,73,63,0,0.022235398634337038,58.34033931217499,20.146627565982406
58.37395770748174,66,73,1,0.024540055577975315,58.35537510728624,18.58260019550342
58.38519193822357,61,110,0,0.05124666282597384,58.37239623929884,12.795698924731184
58.40122443590172,47,64,1,0.009000000000000001,58.38123421107278,19.990224828934508
58.411224435901715,86,92,1,0.02651815391960594,58.39561348771012,15.610948191593351
58.44213267469687,68,81,0,0.04682129471200821,58.42480129639775,17.331378299120235
58.44068905136795,74,99,1,0.009000000000000001,58.42617292233569,14.516129032258064
58.450689051367945,74,82,1,0.009000000000000001,58.433514075805874,17.174975562072337
58.46068905136794,35,93,1,0.01203611025986143,58.4452345059134,15.454545454545453
58.47406250721223,56,66,1,0.009000000000000001,58.45438508785739,19.67741935483871
58.48406250721223,94,75,1,0.009000000000000001,58.465792712490824,18.269794721407624
58.49415633548799,59,86,0,0.06329347765045777,58.47760697087411,16.549364613880744
58.49406250721223,50,96,1,0.009000000000000001,58.479077169968825,14.985337243401759
58.504062507212225,87,75,1,0.009000000000000001,58.48579271249082,18.269794721407624
58.51406250721222,47,88,1,0.009000000000000001,58.49782594807244,16.236559139784944
58.52406250721222,77,76,1,0.009000000000000001,58.505949115227864,18.113391984359726
58.53406250721222,77,96,1,0.009000000000000001,58.51907716996882,14.985337243401759
58.54406250721222,61,83,1,0.037578596525835235,58.527043934387194,17.01857282502444
58.56448242176628,43,107,0,0.026238041018848406,58.5512175146304,13.264907135874878
58.585816503352035,21,103,1,0.009000000000000001,58.57192598526797,13.890518084066471
58.59363580067611,72,82,0,0.022077996510844772,58.57646082511404,17.174975562072337
58.59581650335203,53,76,1,0.011952241913869753,58.577703111367676,18.113391984359726
58.60909677214522,59,108,1,0.03754639098005272,58.59598826774639,13.10850439882698
58.618166907910386,60,109,0,0.009000000000000001,58.605214806248604,12.952101661779082
58.62816690791038,47,93,0,0.02483762776777989,58.61271236245584,15.454545454545453
58.65081498434528,52,99,1,0.009000000000000001,58.63629885531302,14.516129032258064
58.6557642720968,40,71,0,0.009000000000000001,58.63686886642721,18.89540566959922
58.66081498434528,26,77,1,0.009000000000000001,58.64285799509797,17.956989247311828
58.6657642720968,91,63,0,0.009000000000000001,58.645617644530816,20.146627565982406
58.67081498434528,86,72,1,0.02054910340254346,58.65207598141273,18.73900293255132
58.6757642720968,50,105,0,0.009000000000000001,58.66218655948683,13.577712609970675
58.6857642720968,49,99,0,0.009000000000000001,58.67124814306454,14.516129032258064
58.695764272096795,58,81,0,0.014939138010771126,58.67843289379768,17.331378299120235
58.69364732145922,66,106,1,0.009000000000000001,58.68022601158629,13.421309872922777
58.703647321459215,61,100,1,0.009000000000000001,58.689287595164004,14.359726295210166
58.71364732145921,75,77,1,0.009000000000000001,58.6956903322119,17.956989247311828
58.712363314330986,45,92,0,0.020404234141064917,58.69675236613939,15.610948191593351
58.72364732145921,41,112,1,0.009000000000000001,58.71116442800857,12.482893450635387
58.73364732145921,94,86,1,0.009378839268795717,58.71709795684533,16.549364613880744
58.73503468559883,54,86,0,0.009000000000000001,58.71848532098495,16.549364613880744
58.74503468559883,61,99,0,0.05691497031267184,58.73051855656657,14.516129032258064
58.744068253980096,47,111,1,0.033985206028708685,58.73142895779241,12.639296187683286
58.781829594011995,89,101,1,0.012917366266126032,58.76762627045383,14.203323558162268
58.79618222319658,38,81,1,0.036255442001776425,58.77885084489746,17.331378299120235
58.8082735415018,59,67,0,0.009000000000000001,58.78875252488401,19.521016617790814
58.818273541501796,57,74,0,0.045988028100255485,58.79984734404334,18.426197458455523
58.836466047643,68,111,1,0.009000000000000001,58.823826751455314,12.639296187683286
58.846466047643,67,104,1,0.009000000000000001,58.83273193229598,13.734115347018573
58.856466047642996,41,80,1,0.012171349460571848,58.83897826660683,17.487781036168133
58.86998976926586,53,76,1,0.016328867181618946,58.8518763772815,18.113391984359726
58.86937135050208,70,112,0,0.052791040397757914,58.85688845705144,12.482893450635387
58.88813295502321,64,73,1,0.009000000000000001,58.86955035482771,18.58260019550342
58.89813295502321,66,69,1,0.009407030912576952,58.878924743879516,19.208211143695017
58.90858521159274,90,63,1,0.020386029082346508,58.88843858402675,20.146627565982406
58.93123635501757,49,89,1,0.03218268367840031,58.91515619861483,16.080156402737046
58.92802806205514,84,118,0,0.01611267531300078,58.916483585026796,11.544477028347998
58.94593103462514,60,65,0,0.009000000000000001,58.92609721253325,19.83382209188661
58.95593103462514,62,111,0,0.010140938463214273,58.94329173843745,12.639296187683286
58.96719874402871,77,79,0,0.07796346940043286,58.94955456025549,17.64418377321603
58.96699489243801,104,115,1,0.03171866232152955,58.954981207198514,12.013685239491693
59.00223785057304,61,118,1,0.009000000000000001,58.990693373544694,11.544477028347998
59.01223785057304,73,91,1,0.0093651299873067,58.996470499644396,15.76735092864125
59.02264355055893,43,117,1,0.009000000000000001,59.01094267079354,11.700879765395896
59.03264355055893,68,95,1,0.009781473122010644,59.01750181057848,15.141739980449657
59.043511854027834,84,84,1,0.023227795237511,59.02664968393986,16.86217008797654
59.053824821140296,55,86,0,0.03749350249866967,59.037275456526416,16.549364613880744
59.06932051540284,31,84,1,0.009000000000000001,59.05245834531487,16.86217008797654
59.07932051540284,21,65,1,0.009000000000000001,59.05948669331095,19.83382209188661
59.08932051540284,30,114,1,0.009000000000000001,59.0771504274263,12.170087976539591
59.09548426836104,52,100,0,0.015300905221998262,59.08112454206583,14.359726295210166
59.09932051540284,89,112,1,0.009000000000000001,59.0868376219522,12.482893450635387
59.109320515402835,88,84,1,0.009000000000000001,59.09245834531486,16.86217008797654
59.11248527416326,103,76,0,0.07457751610246494,59.094371882178905,18.113391984359726
59.11932051540283,80,99,1,0.021506710143849143,59.104804386370574,14.516129032258064
59.14321686000711,62,83,1,0.009000000000000001,59.126198287182085,17.01857282502444
59.153216860007106,27,83,1,0.00906090585662598,59.13619828718208,17.01857282502444
59.163284533181134,37,84,1,0.027426665760742486,59.14642236309316,16.86217008797654
59.19375860624863,65,101,1,0.009834597590168333,59.179555282690465,14.203323558162268
59.19534918094378,60,105,0,0.009000000000000001,59.18177146833381,13.577712609970675
59.20534918094378,67,62,0,0.024372158380696517,59.185046150640744,20.303030303030305
59.20468593690437,32,76,1,0.009000000000000001,59.18657254492001,18.113391984359726
59.21468593690437,30,75,1,0.023050662102278893,59.19641614218296,18.269794721407624
59.23242935692233,37,114,0,0.009000000000000001,59.22025926894579,12.170087976539591
59.240297783684674,45,107,1,0.01955643582059096,59.2270328765488,13.264907135874878
59.24242935692233,76,109,0,0.027980139717440195,59.22947725526055,12.952101661779082
59.26202715681866,77,66,1,0.009000000000000001,59.24234973746382,19.67741935483871
59.27351840105282,33,77,0,0.012002841609468433,59.25556141180551,17.956989247311828
59.27202715681866,49,105,1,0.02135199930231208,59.258449444208686,13.577712609970675
59.28685489173001,91,72,0,0.029071137253921894,59.26811588879746,18.73900293255132
59.2957516004879,46,77,1,0.04001508348104177,59.27779461124059,17.956989247311828
59.319156155345475,82,81,0,0.009000000000000001,59.301824777046356,17.331378299120235
59.32915615534547,77,110,0,0.08942893424645268,59.31636045642074,12.795698924731184
59.34021280435572,62,82,1,0.009000000000000001,59.32303782879365,17.174975562072337
59.35021280435572,64,96,1,0.009000000000000001,59.33522746711232,14.985337243401759
59.36021280435572,66,70,1,0.009000000000000001,59.341160995949075,19.05180840664712
59.37021280435572,42,114,1,0.02449742770018012,59.358042716379174,12.170087976539591
59.39743216846703,41,87,1,0.015459050911073854,59.381039206590195,16.392961876832846
59.414608891701555,51,63,1,0.015571811530266237,59.39446226413557,20.146627565982406
59.428521637841534,82,80,0,0.009000000000000001,59.41103385680537,17.487781036168133
59.43191090451296,56,79,1,0.009000000000000001,59.41426672073975,17.64418377321603
59.43852163784153,75,107,0,0.012058431140745033,59.425256730705655,13.264907135874878
59.44191090451296,68,97,1,0.028120507825711315,59.427081970006604,14.82893450635386
59.451919894664584,63,76,0,0.05135398274510362,59.43380650268023,18.113391984359726
59.473155913208195,70,117,1,0.009000000000000001,59.4614550334428,11.700879765395896
59.48315591320819,70,108,1,0.01869457549273268,59.470047408809364,13.10850439882698
59.503927663755675,48,71,1,0.03834095359688362,59.48503225808608,18.89540566959922
59.50897987549248,58,67,0,0.02524932265206516,59.48945885887469,19.521016617790814
59.53703467843922,85,101,0,0.01282695507153083,59.522831354881056,14.203323558162268
59.546528723307766,68,92,1,0.020073106902336,59.53091777511617,15.610948191593351
59.55128685074092,78,102,0,0.014202870832115327,59.53723992991981,14.04692082111437
59.56706781833216,58,80,0,0.009000000000000001,59.549580037295996,17.487781036168133
59.56883217542147,69,97,1,0.027941948505068905,59.554003240915115,14.82893450635386
59.57706781833216,50,66,0,0.009000000000000001,59.55739039897732,19.67741935483871
59.58706781833216,38,94,0,0.009000000000000001,59.57176967561466,15.298142717497555
59.59987878487155,62,71,1,0.009000000000000001,59.58098337920195,18.89540566959922
59.59706781833216,64,102,0,0.009000000000000001,59.58302089751104,14.04692082111437
59.607067818332155,76,70,0,0.009000000000000001,59.58801600992551,19.05180840664712
59.60987878487155,65,100,1,0.009000000000000001,59.595519058576336,14.359726295210166
59.61706781833215,47,67,0,0.08218375586454235,59.597546801714365,19.521016617790814
59.619878784871545,57,94,1,0.009183578364793686,59.60458064215405,15.298142717497555
59.63008276083243,89,102,1,0.01477304100073273,59.616035840011314,14.04692082111437
59.64649725083324,62,63,1,0.03660741366696633,59.62635062326726,20.146627565982406
59.68717215490765,34,103,1,0.009318041795146231,59.67328163682358,13.890518084066471
59.69752553468003,61,72,1,0.009000000000000001,59.678786531747484,18.73900293255132
59.70838310262609,81,95,0,0.028588698860026653,59.69324136264564,15.141739980449657
59.70752553468003,47,109,1,0.012420469545840722,59.69457343301825,12.952101661779082
59.72132605639763,70,118,1,0.026249932456012526,59.709781579369285,11.544477028347998
59.74014832358167,60,84,0,0.016797928911705673,59.723286153493696,16.86217008797654
59.750492648015424,69,68,1,0.009000000000000001,59.731128034134684,19.364613880742915
59.758812689039125,51,65,0,0.02076923277639886,59.738978866947235,19.83382209188661
59.76049264801542,38,88,1,0.009000000000000001,59.74425608887564,16.236559139784944
59.77049264801542,67,80,1,0.009000000000000001,59.75300486697925,17.487781036168133
59.78049264801542,67,103,1,0.013772148461720589,59.76660212993135,13.890518084066471
59.781889614346234,48,104,0,0.009221372035630164,59.768155498999214,13.734115347018573
59.792135583274714,71,82,0,0.009231925674318698,59.77496060771264,17.174975562072337
59.795795035195106,48,107,1,0.009000000000000001,59.78253012805923,13.264907135874878
59.8023932784684,64,80,0,0.009000000000000001,59.784905497432234,17.487781036168133
59.8057950351951,32,90,1,0.015741032138171653,59.789871281529415,15.923753665689148
59.8123932784684,43,80,0,0.009000000000000001,59.79490549743223,17.487781036168133
59.823285070904184,71,85,1,0.034158255840675535,59.80657930355326,16.705767350928642
59.8223932784684,65,106,0,0.01890235093240399,59.80897196859547,13.421309872922777
59.84339589061551,78,98,0,0.009332484482953091,59.828723358846204,14.672531769305962
59.85376531781879,75,78,0,0.009000000000000001,59.83596473130853,17.80058651026393
59.86123868850493,58,63,1,0.010169400382266824,59.84109206093895,20.146627565982406
59.86376531781879,63,113,0,0.04012510080243427,59.8514388271052,12.32649071358749
59.87253802226301,26,97,1,0.010015479252938723,59.85770908775665,14.82893450635386
59.88366633254405,47,116,1,0.021556282562050003,59.871809050041605,11.857282502443795
59.907617757613,58,88,1,0.011710949987100523,59.89138119847321,16.236559139784944
59.90834876315483,59,108,0,0.03519669056260633,59.895240258756,13.10850439882698
59.92062992426533,42,107,1,0.02026661005679916,59.90736501712945,13.264907135874878
59.94314837988399,67,106,1,0.017104587766229536,59.92972707001107,13.421309872922777
59.947456197113276,49,86,0,0.009000000000000001,59.930906832499396,16.549364613880744
59.957456197113274,59,100,0,0.012254185665310597,59.94309647081806,14.359726295210166
59.962153477402026,39,84,1,0.011508997440180916,59.94529130731405,16.86217008797654
59.97494125233556,73,83,1,0.009000000000000001,59.95792267951054,17.01857282502444
59.97107195896362,30,112,0,0.011789791100887294,59.95858906551298,12.482893450635387
59.984171726853496,44,106,0,0.009000000000000001,59.97075041698057,13.421309872922777
59.98494125233556,66,107,1,0.009000000000000001,59.97167634519968,13.264907135874878
59.994171726853494,51,74,0,0.023352171034591095,59.97574552939504,18.426197458455523
60.0,26,58,0,0.8457557599553215,59.979071358748776,20.928641251221897
60.0,67,64,1,0.37308573785435956,59.98000977517106,19.990224828934508
59.99494125233556,58,117,1,0.009000000000000001,59.983240372570165,11.700879765395896
60.41453970872707,69,40,1,0.6090377251403866,60.390795818208986,23.743890518084065
60.93972862217258,57,65,0,0.8946947237889221,60.91989480008069,19.83382209188661
61.091248292216385,35,72,1,0.6990671886522172,61.072509289283836,18.73900293255132
61.867989612941074,45,57,1,0.3898013284635289,61.8469045689528,21.085043988269796
61.93383387082694,45,62,0,0.6900497191112083,61.913530840523904,20.303030303030305
62.30110220012277,50,63,1,0.4358261352612833,62.280955572556785,20.146627565982406
62.7005557809505,33,53,0,0.5984285636569416,62.67884512601404,21.71065493646139
62.785353461524195,59,54,1,0.5085057149038957,62.76379920932478,21.55425219941349
63.35035981141741,57,54,1,0.18763149679934335,63.328805559218,21.55425219941349
63.365476407235995,33,61,0,0.7423982430846953,63.345016974195914,20.459433040078203
63.558839252305575,45,52,1,0.4202026338391073,63.536972194632064,21.867057673509287
64.02573106768236,67,64,1,0.6458989077185356,64.00574084285343,19.990224828934508
64.19036334399676,31,58,0,1.147283271175945,64.16943470274555,20.928641251221897
64.74339652070296,55,63,1,0.23860424446842515,64.72324989313698,20.146627565982406
65.0085123478901,52,65,1,0.5932891632737659,64.98867852579822,19.83382209188661
65.46512253419226,33,50,0,0.882173550756028,65.44294267104466,22.179863147605083
65.6677225293054,62,46,1,0.6363920988081145,65.6449170552096,22.805474095796676
66.37482486131441,45,49,1,0.5026071921428824,66.35248859542976,22.33626588465298
66.44531536836563,47,68,0,0.748744378156818,66.42595075448489,19.364613880742915
66.93327729702872,43,58,1,0.3426428607445512,66.9123486557775,20.928641251221897
67.27725356631764,38,53,0,0.4499932592143866,67.25554291138118,21.71065493646139
67.31399158674489,43,60,1,0.49096370019437724,67.29337575096777,20.6158357771261
67.77724607655584,45,34,0,0.5431364588365019,67.75256376961546,24.682306940371458
67.85950680918309,55,71,1,0.5523193821516238,67.84061140351349,18.89540566959922
68.38073103081862,40,64,0,0.7897081335006693,68.36074080598969,19.990224828934508
68.47319501157378,62,57,1,0.6026876608032404,68.45210996758551,21.085043988269796
69.14284796802183,52,58,1,0.42773705139449353,69.12191932677061,20.928641251221897
69.25818451248604,62,68,0,0.9120005568755811,69.2388198986053,19.364613880742915
69.61811135846015,74,63,1,0.2707248479485424,69.59796473089418,20.146627565982406
69.91891674506965,52,52,1,0.43717804779789843,69.89704968739615,21.867057673509287
70.27151846457002,55,72,0,0.7167204052829677,70.25277946163747,18.73900293255132
70.40467013151176,59,55,1,0.6779660735895583,70.3832722820494,21.397849462365592
71.06787447043999,59,62,0,0.8746640316454724,71.04757144013696,20.303030303030305
71.15796576883349,59,74,1,0.4013948805468238,71.13953957137504,18.426197458455523
71.60396008055218,64,49,1,0.39842757966430076,71.58162381466754,22.33626588465298
72.0,65,60,1,0.03375,71.97938416422288,20.6158357771261
72.0,38,80,0,0.045,71.98251221896383,17.487781036168133
72.0375,65,84,1,0.03375,72.02063782991202,16.86217008797654
72.05,62,73,0,0.045,72.0314173998045,18.58260019550342
72.07499999999999,74,89,1,0.03375,72.05891984359725,16.080156402737046
72.1,55,69,0,0.045,72.0807917888563,19.208211143695017
72.11249999999998,63,77,1,0.03375,72.09454301075267,17.956989247311828
72.14999999999999,56,65,0,0.045,72.13016617790811,19.83382209188661
72.14999999999998,65,74,1,0.03375,72.13157380254152,18.426197458455523
72.18749999999997,65,72,1,0.03375,72.16876099706742,18.73900293255132
72.19999999999999,60,113,0,0.045,72.1876735092864,12.32649071358749
72.22499999999997,50,95,1,0.03375,72.20985826001952,15.141739980449657
72.24999999999999,27,69,0,0.045,72.2307917888563,19.208211143695017
72.26249999999996,60,52,1,0.03375,72.24063294232646,21.867057673509287
72.29999999999995,65,62,1,0.03375,72.27969696969693,20.303030303030305
72.29999999999998,65,65,0,0.045,72.2801661779081,19.83382209188661
72.33749999999995,46,68,1,0.03375,72.31813538611921,19.364613880742915
72.34999999999998,50,69,0,0.045,72.33079178885629,19.208211143695017
72.37499999999994,55,66,1,0.03375,72.35532258064511,19.67741935483871
72.39999999999998,62,82,0,0.045,72.3828250244379,17.174975562072337
72.41249999999994,68,72,1,0.03375,72.39376099706739,18.73900293255132
72.44999999999997,44,98,0,0.045,72.43532746823067,14.672531769305962
72.44999999999993,56,99,1,0.03375,72.43548387096767,14.516129032258064
72.48749999999993,60,80,1,0.03375,72.47001221896376,17.487781036168133
72.49999999999997,58,74,0,0.045,72.48157380254152,18.426197458455523
72.52499999999992,77,90,1,0.03375,72.50907624633423,15.923753665689148
72.54999999999997,65,70,0,0.045,72.53094819159332,19.05180840664712
72.56249999999991,65,50,1,0.03375,72.54032013685232,22.179863147605083
72.59999999999997,60,56,0,0.045,72.57875855327465,21.241446725317694
72.59999999999991,48,82,1,0.03375,72.58282502443784,17.174975562072337
72.6374999999999,48,69,1,0.03375,72.61829178885621,19.208211143695017
72.64999999999996,53,101,0,0.045,72.6357966764418,14.203323558162268
72.6749999999999,63,67,1,0.03375,72.65547898338211,19.521016617790814
72.69999999999996,72,83,0,0.045,72.68298142717494,17.01857282502444
72.71249999999989,72,75,1,0.03375,72.69423020527849,18.269794721407624
72.74999999999989,60,86,1,0.03375,72.733450635386,16.549364613880744
72.74999999999996,31,104,0,0.045,72.73626588465294,13.734115347018573
72.78749999999988,65,79,1,0.03375,72.76985581622667,17.64418377321603
72.79999999999995,56,53,0,0.045,72.7782893450635,21.71065493646139
72.82499999999987,65,76,1,0.03375,72.80688660801552,18.113391984359726
72.84999999999995,55,91,0,0.045,72.83423264907131,15.76735092864125
72.86249999999987,75,59,1,0.03375,72.8417277614857,20.772238514174
72.89999999999986,62,62,1,0.03375,72.87969696969684,20.303030303030305
72.89999999999995,53,83,0,0.045,72.88298142717493,17.01857282502444
72.93749999999986,60,84,1,0.03375,72.92063782991188,16.86217008797654
72.94999999999995,39,90,0,0.045,72.93407624633426,15.923753665689148
72.97499999999985,63,81,1,0.03375,72.95766862170073,17.331378299120235
72.99999999999994,44,85,0,0.045,72.98329423264902,16.705767350928642
73.01249999999985,67,70,1,0.03375,72.9934481915932,19.05180840664712
73.04999999999984,65,53,1,0.03375,73.02828934506338,21.71065493646139
73.04999999999994,48,99,0,0.045,73.03548387096768,14.516129032258064
73.08749999999984,51,90,1,0.03375,73.07157624633415,15.923753665689148
73.09999999999994,38,73,0,0.045,73.08141739980444,18.58260019550342
73.12499999999983,82,99,1,0.03375,73.11048387096757,14.516129032258064
73.14999999999993,41,72,0,0.045,73.13126099706739,18.73900293255132
73.16249999999982,65,74,1,0.03375,73.14407380254137,18.426197458455523
73.19999999999982,65,75,1,0.03375,73.18173020527841,18.269794721407624
73.19999999999993,36,92,0,0.045,73.18438905180834,15.610948191593351
73.23749999999981,56,88,1,0.03375,73.22126344086003,16.236559139784944
73.24999999999993,44,63,0,0.045,73.22985337243395,20.146627565982406
73.2749999999998,62,85,1,0.03375,73.25829423264888,16.705767350928642
73.29999999999993,48,102,0,0.045,73.28595307917881,14.04692082111437
73.3124999999998,72,94,1,0.03375,73.2972018572823,15.298142717497555
73.34999999999992,34,71,0,0.045,73.33110459433033,18.89540566959922
73.3499999999998,75,108,1,0.03375,73.33689149560097,13.10850439882698
73.38749999999979,70,94,1,0.03375,73.37220185728229,15.298142717497555
73.39999999999992,48,49,0,0.045,73.37766373411527,22.33626588465298
73.42499999999978,75,75,1,0.03375,73.40673020527838,18.269794721407624
73.44999999999992,51,91,0,0.045,73.43423264907128,15.76735092864125
73.46249999999978,58,75,1,0.03375,73.44423020527837,18.269794721407624
73.49999999999991,55,92,0,0.045,73.48438905180832,15.610948191593351
73.49999999999977,63,98,1,0.03375,73.48532746823047,14.672531769305962
73.53749999999977,68,89,1,0.03375,73.52141984359703,16.080156402737046
73.54999999999991,65,82,0,0.045,73.53282502443784,17.174975562072337
73.57499999999976,58,75,1,0.03375,73.55673020527836,18.269794721407624
73.59999999999991,62,86,0,0.045,73.58345063538603,16.549364613880744
73.61249999999976,75,67,1,0.03375,73.59297898338197,19.521016617790814
73.6499999999999,60,69,0,0.045,73.63079178885621,19.208211143695017
73.64999999999975,60,77,1,0.03375,73.63204301075244,17.956989247311828
73.68749999999974,48,80,1,0.03375,73.67001221896358,17.487781036168133
73.6999999999999,39,82,0,0.045,73.68282502443783,17.174975562072337
73.72499999999974,62,72,1,0.03375,73.70626099706719,18.73900293255132
73.7499999999999,56,70,0,0.045,73.73094819159326,19.05180840664712
73.76249999999973,63,71,1,0.03375,73.74360459433014,18.89540566959922
73.79999999999973,60,51,1,0.03375,73.77797653958918,22.023460410557185
73.7999999999999,44,66,0,0.045,73.78032258064506,19.67741935483871
73.83749999999972,72,73,1,0.03375,73.81891739980422,18.58260019550342
73.8499999999999,38,76,0,0.045,73.83188660801554,18.113391984359726
73.87499999999972,60,78,1,0.03375,73.85719941348945,17.80058651026393
73.89999999999989,56,101,0,0.045,73.88579667644173,14.203323558162268
73.91249999999971,50,93,1,0.03375,73.89704545454516,15.454545454545453
73.94999999999989,48,75,0,0.045,73.93173020527848,18.269794721407624
73.9499999999997,68,91,1,0.03375,73.93423264907106,15.76735092864125
73.9874999999997,63,80,1,0.03375,73.97001221896353,17.487781036168133
73.99999999999989,48,69,0,0.045,73.9807917888562,19.208211143695017
74.0249999999997,74,68,1,0.03375,74.00563538611895,19.364613880742915
74.04999999999988,53,70,0,0.045,74.03094819159324,19.05180840664712
74.06249999999969,63,71,1,0.03375,74.04360459433009,18.89540566959922
74.09999999999968,70,61,1,0.03375,74.07954056695961,20.459433040078203
74.09999999999988,56,81,0,0.045,74.08266862170076,17.331378299120235
74.13749999999968,68,88,1,0.03375,74.12126344085989,16.236559139784944
74.14999999999988,55,85,0,0.045,74.13329423264895,16.705767350928642
74.17499999999967,68,99,1,0.03375,74.16048387096741,14.516129032258064
74.19999999999987,51,49,0,0.045,74.17766373411523,22.33626588465298
74.21249999999966,77,69,1,0.03375,74.19329178885597,19.208211143695017
74.24999999999987,58,66,0,0.045,74.23032258064504,19.67741935483871
74.24999999999966,67,69,1,0.03375,74.23079178885597,19.208211143695017
74.28749999999965,58,74,1,0.03375,74.2690738025412,18.426197458455523
74.29999999999987,51,75,0,0.045,74.28173020527846,18.269794721407624
74.32499999999965,65,67,1,0.03375,74.30547898338186,19.521016617790814
74.34999999999987,55,79,0,0.045,74.33235581622665,17.64418377321603
74.36249999999964,62,47,1,0.03375,74.3398509286409,22.649071358748778
74.39999999999986,60,37,0,0.045,74.37578690127063,24.21309872922776
74.39999999999964,60,70,1,0.03375,74.38094819159299,19.05180840664712
74.43749999999963,82,87,1,0.03375,74.4211070381228,16.392961876832846
74.44999999999986,62,105,0,0.045,74.43642228738989,13.577712609970675
74.47499999999962,50,68,1,0.03375,74.45563538611889,19.364613880742915
74.49999999999986,53,72,0,0.045,74.48126099706731,18.73900293255132
74.51249999999962,53,86,1,0.03375,74.49595063538574,16.549364613880744
74.54999999999961,56,73,1,0.03375,74.53141739980411,18.58260019550342
74.54999999999986,65,81,0,0.045,74.53266862170074,17.331378299120235
74.58749999999961,56,47,1,0.03375,74.56485092864087,22.649071358748778
74.59999999999985,65,80,0,0.045,74.58251221896369,17.487781036168133
74.6249999999996,74,54,1,0.03375,74.6034457478002,21.55425219941349
74.64999999999985,48,72,0,0.045,74.6312609970673,18.73900293255132
74.6624999999996,74,77,1,0.03375,74.64454301075229,17.956989247311828
74.69999999999959,48,88,1,0.03375,74.6837634408598,16.236559139784944
74.69999999999985,63,100,0,0.045,74.68564027370464,14.359726295210166
74.73749999999959,63,80,1,0.03375,74.72001221896342,17.487781036168133
74.74999999999984,65,80,0,0.045,74.73251221896368,17.487781036168133
74.77499999999958,82,59,1,0.03375,74.75422776148541,20.772238514174
74.79999999999984,58,56,0,0.045,74.77875855327453,21.241446725317694
74.81249999999957,72,71,1,0.03375,74.79360459432998,18.89540566959922
74.84999999999957,63,76,1,0.03375,74.83188660801521,18.113391984359726
74.84999999999984,48,77,0,0.045,74.83204301075253,17.956989247311828
74.88749999999956,48,70,1,0.03375,74.86844819159292,19.05180840664712
74.89999999999984,56,67,0,0.045,74.88047898338205,19.521016617790814
74.92499999999956,65,72,1,0.03375,74.90626099706701,18.73900293255132
74.94999999999983,39,76,0,0.045,74.93188660801547,18.113391984359726
74.96249999999955,58,77,1,0.03375,74.94454301075224,17.956989247311828
74.99999999999955,70,62,1,0.03375,74.97969696969652,20.303030303030305
74.99999999999983,44,87,0,0.045,74.983607038123,16.392961876832846
75.03749999999954,67,57,1,0.03375,75.01641495601127,21.085043988269796
75.04999999999983,60,79,0,0.045,75.03235581622661,17.64418377321603
75.07499999999953,60,73,1,0.03375,75.05641739980403,18.58260019550342
75.09999999999982,50,95,0,0.045,75.08485826001937,15.141739980449657
75.11249999999953,55,74,1,0.03375,75.09407380254108,18.426197458455523
75.14999999999982,51,70,0,0.045,75.13094819159318,19.05180840664712
75.14999999999952,60,90,1,0.03375,75.13407624633383,15.923753665689148
75.18749999999952,65,85,1,0.03375,75.17079423264859,16.705767350928642
75.19999999999982,51,84,0,0.045,75.18313782991184,16.86217008797654
75.22499999999951,60,80,1,0.03375,75.20751221896334,17.487781036168133
75.24999999999982,53,76,0,0.045,75.23188660801546,18.113391984359726
75.2624999999995,87,75,1,0.03375,75.2442302052781,18.269794721407624
75.2999999999995,72,74,1,0.03375,75.28157380254105,18.426197458455523
75.29999999999981,50,96,0,0.045,75.28501466275641,14.985337243401759
75.3374999999995,56,79,1,0.03375,75.31985581622628,17.64418377321603
75.34999999999981,48,99,0,0.045,75.33548387096755,14.516129032258064
75.37499999999949,56,74,1,0.03375,75.35657380254104,18.426197458455523
75.3999999999998,41,63,0,0.045,75.37985337243383,20.146627565982406
75.41249999999948,65,82,1,0.03375,75.39532502443741,17.174975562072337
75.4499999999998,48,87,0,0.045,75.43360703812297,16.392961876832846
75.44999999999948,48,93,1,0.03375,75.43454545454493,15.454545454545453
75.48749999999947,48,51,1,0.03375,75.46547653958892,22.023460410557185
75.4999999999998,65,107,0,0.045,75.48673509286392,13.264907135874878
75.52499999999947,62,71,1,0.03375,75.50610459432987,18.89540566959922
75.5499999999998,53,96,0,0.045,75.5350146627564,14.985337243401759
75.56249999999946,72,97,1,0.03375,75.5476710654931,14.82893450635386
75.5999999999998,58,65,0,0.045,75.58016617790791,19.83382209188661
75.59999999999945,60,84,1,0.03375,75.58313782991148,16.86217008797654
75.63749999999945,74,76,1,0.03375,75.61938660801509,18.113391984359726
75.64999999999979,46,65,0,0.045,75.63016617790791,19.83382209188661
75.67499999999944,72,37,1,0.03375,75.65078690127021,24.21309872922776
75.69999999999979,56,62,0,0.045,75.67969696969676,20.303030303030305
75.71249999999944,60,74,1,0.03375,75.69407380254098,18.426197458455523
75.74999999999943,46,57,1,0.03375,75.72891495601117,21.085043988269796
75.74999999999979,65,101,0,0.045,75.73579667644162,14.203323558162268
75.78749999999943,77,108,1,0.03375,75.7743914956006,13.10850439882698
75.79999999999978,51,42,0,0.045,75.7765689149558,23.43108504398827
75.82499999999942,63,45,1,0.03375,75.80203812316658,22.961876832844574
75.84999999999978,39,71,0,0.045,75.83110459433018,18.89540566959922
75.86249999999941,77,74,1,0.03375,75.84407380254096,18.426197458455523
75.89999999999941,60,94,1,0.03375,75.88470185728191,15.298142717497555
75.89999999999978,36,104,0,0.045,75.88626588465276,13.734115347018573
75.9374999999994,65,79,1,0.03375,75.91985581622619,17.64418377321603
75.94999999999978,48,78,0,0.045,75.93219941348951,17.80058651026393
75.9749999999994,60,78,1,0.03375,75.95719941348914,17.80058651026393
75.99999999999977,60,84,0,0.045,75.9831378299118,16.86217008797654
76.01249999999939,80,89,1,0.03375,75.99641984359666,16.080156402737046
76.04999999999977,48,67,0,0.045,76.03047898338198,19.521016617790814
76.04999999999939,51,91,1,0.03375,76.03423264907074,15.76735092864125
76.08749999999938,58,56,1,0.03375,76.06625855327407,21.241446725317694
76.09999999999977,48,84,0,0.045,76.08313782991179,16.86217008797654
76.12499999999937,74,60,1,0.03375,76.10438416422225,20.6158357771261
76.14999999999976,65,82,0,0.045,76.1328250244377,17.174975562072337
76.16249999999937,65,85,1,0.03375,76.14579423264844,16.705767350928642
76.19999999999936,68,60,1,0.03375,76.17938416422224,20.6158357771261
76.19999999999976,51,83,0,0.045,76.18298142717474,17.01857282502444
76.23749999999936,60,62,1,0.03375,76.21719696969633,20.303030303030305
76.24999999999976,56,69,0,0.045,76.23079178885607,19.208211143695017
76.27499999999935,56,68,1,0.03375,76.25563538611861,19.364613880742915
76.29999999999976,63,73,0,0.045,76.28141739980425,18.58260019550342
76.31249999999935,48,92,1,0.03375,76.29688905180775,15.610948191593351
76.34999999999934,55,77,1,0.03375,76.33204301075203,17.956989247311828
76.34999999999975,39,87,0,0.045,76.33360703812292,16.392961876832846
76.38749999999933,65,83,1,0.03375,76.37048142717431,17.01857282502444
76.39999999999975,50,90,0,0.045,76.38407624633406,15.923753665689148
76.42499999999933,74,59,1,0.03375,76.40422776148516,20.772238514174
76.44999999999975,53,96,0,0.045,76.43501466275634,14.985337243401759
76.46249999999932,75,87,1,0.03375,76.44610703812249,16.392961876832846
76.49999999999974,60,83,0,0.045,76.48298142717472,17.01857282502444
76.49999999999932,60,84,1,0.03375,76.48313782991134,16.86217008797654
76.53749999999931,48,56,1,0.03375,76.516258553274,21.241446725317694
76.54999999999974,58,70,0,0.045,76.5309481915931,19.05180840664712
76.5749999999993,48,80,1,0.03375,76.55751221896314,17.487781036168133
76.59999999999974,46,79,0,0.045,76.58235581622652,17.64418377321603
76.6124999999993,53,65,1,0.03375,76.59266617790742,19.83382209188661
76.6499999999993,65,54,1,0.03375,76.62844574779989,21.55425219941349
76.64999999999974,46,64,0,0.045,76.6300097751708,19.990224828934508
76.68749999999929,63,84,1,0.03375,76.67063782991131,16.86217008797654
76.69999999999973,58,61,0,0.045,76.67954056695966,20.459433040078203
76.72499999999928,60,66,1,0.03375,76.70532258064445,19.67741935483871
76.74999999999973,53,76,0,0.045,76.73188660801537,18.113391984359726
76.76249999999928,79,87,1,0.03375,76.74610703812245,16.392961876832846
76.79999999999973,60,46,0,0.045,76.77719452590394,22.805474095796676
76.79999999999927,80,101,1,0.03375,76.78579667644111,14.203323558162268
76.83749999999927,67,74,1,0.03375,76.81907380254081,18.426197458455523
76.84999999999972,48,84,0,0.045,76.83313782991175,16.86217008797654
76.87499999999926,48,94,1,0.03375,76.85970185728176,15.298142717497555
76.89999999999972,36,87,0,0.045,76.88360703812289,16.392961876832846
76.91249999999926,68,61,1,0.03375,76.89204056695918,20.459433040078203
76.94999999999972,63,87,0,0.045,76.93360703812289,16.392961876832846
76.94999999999925,65,95,1,0.03375,76.9348582600188,15.141739980449657
76.98749999999924,53,83,1,0.03375,76.97048142717422,17.01857282502444
76.99999999999972,63,75,0,0.045,76.98173020527831,18.269794721407624
77.02499999999924,65,50,1,0.03375,77.00282013685164,22.179863147605083
77.04999999999971,51,77,0,0.045,77.0320430107524,17.956989247311828
77.06249999999923,51,78,1,0.03375,77.04469941348897,17.80058651026393
77.09999999999971,44,65,0,0.045,77.08016617790783,19.83382209188661
77.09999999999923,56,77,1,0.03375,77.08204301075192,17.956989247311828
77.13749999999922,68,73,1,0.03375,77.11891739980372,18.58260019550342
77.14999999999971,50,80,0,0.045,77.13251221896354,17.487781036168133
77.17499999999922,67,106,1,0.03375,77.16157869012629,13.421309872922777
77.1999999999997,39,58,0,0.045,77.17907135874849,20.928641251221897
77.21249999999921,48,80,1,0.03375,77.19501221896304,17.487781036168133
77.2499999999992,55,44,1,0.03375,77.22688172042932,23.118279569892472
77.2499999999997,36,75,0,0.045,77.2317302052783,18.269794721407624
77.2874999999992,80,78,1,0.03375,77.26969941348894,17.80058651026393
77.2999999999997,51,68,0,0.045,77.28063538611896,19.364613880742915
77.32499999999919,60,78,1,0.03375,77.30719941348893,17.80058651026393
77.3499999999997,48,62,0,0.045,77.32969696969667,20.303030303030305
77.36249999999919,65,56,1,0.03375,77.34125855327387,21.241446725317694
77.3999999999997,56,67,0,0.045,77.3804789833819,19.521016617790814
77.39999999999918,65,70,1,0.03375,77.38094819159254,19.05180840664712
77.43749999999918,80,60,1,0.03375,77.41688416422205,20.6158357771261
77.44999999999969,56,98,0,0.045,77.43532746823038,14.672531769305962
77.47499999999917,72,64,1,0.03375,77.45500977517024,19.990224828934508
77.49999999999969,48,70,0,0.045,77.48094819159304,19.05180840664712
77.51249999999916,56,82,1,0.03375,77.4953250244371,17.174975562072337
77.54999999999968,44,73,0,0.045,77.53141739980418,18.58260019550342
77.54999999999916,75,75,1,0.03375,77.53173020527775,18.269794721407624
77.58749999999915,58,70,1,0.03375,77.56844819159251,19.05180840664712
77.59999999999968,56,75,0,0.045,77.58173020527828,18.269794721407624
77.62499999999915,72,82,1,0.03375,77.60782502443708,17.174975562072337
77.64999999999968,58,68,0,0.045,77.63063538611894,19.364613880742915
77.66249999999914,58,68,1,0.03375,77.6431353861184,19.364613880742915
77.69999999999914,60,66,1,0.03375,77.6803225806443,19.67741935483871
77.69999999999968,56,70,0,0.045,77.68094819159303,19.05180840664712
77.73749999999913,63,81,1,0.03375,77.72016862170001,17.331378299120235
77.74999999999967,48,73,0,0.045,77.73141739980417,18.58260019550342
77.77499999999912,79,72,1,0.03375,77.75626099706658,18.73900293255132
77.79999999999967,58,34,0,0.045,77.77531769305929,24.682306940371458
77.81249999999912,48,73,1,0.03375,77.79391739980362,18.58260019550342
77.84999999999911,63,68,1,0.03375,77.83063538611837,19.364613880742915
77.84999999999967,46,78,0,0.045,77.8321994134894,17.80058651026393
77.88749999999911,72,88,1,0.03375,77.87126344085932,16.236559139784944
77.89999999999966,50,72,0,0.045,77.88126099706712,18.73900293255132
77.9249999999991,60,98,1,0.03375,77.9103274682298,14.672531769305962
77.94999999999966,63,75,0,0.045,77.93173020527826,18.269794721407624
77.9624999999991,60,110,1,0.03375,77.94970430107436,12.795698924731184
77.99999999999909,68,50,1,0.03375,77.97782013685149,22.179863147605083
77.99999999999966,65,86,0,0.045,77.98345063538578,16.549364613880744
78.03749999999908,60,66,1,0.03375,78.01782258064425,19.67741935483871
78.04999999999966,60,86,0,0.045,78.03345063538578,16.549364613880744
78.07499999999908,60,71,1,0.03375,78.05610459432948,18.89540566959922
78.09999999999965,36,76,0,0.045,78.0818866080153,18.113391984359726
78.11249999999907,55,78,1,0.03375,78.09469941348881,17.80058651026393
78.14999999999907,80,64,1,0.03375,78.13000977517014,19.990224828934508
78.14999999999965,65,80,0,0.045,78.13251221896348,17.487781036168133
78.18749999999906,77,75,1,0.03375,78.16923020527766,18.269794721407624
78.19999999999965,53,81,0,0.045,78.18266862170053,17.331378299120235
78.22499999999906,70,45,1,0.03375,78.20203812316622,22.961876832844574
78.24999999999964,56,47,0,0.045,78.2273509286409,22.649071358748778
78.26249999999905,56,60,1,0.03375,78.24188416422193,20.6158357771261
78.29999999999905,68,70,1,0.03375,78.2809481915924,19.05180840664712
78.29999999999964,63,71,0,0.045,78.28110459433005,18.89540566959922
78.33749999999904,68,67,1,0.03375,78.31797898338125,19.521016617790814
78.34999999999964,50,78,0,0.045,78.33219941348938,17.80058651026393
78.37499999999903,63,78,1,0.03375,78.35719941348877,17.80058651026393
78.39999999999964,36,68,0,0.045,78.3806353861189,19.364613880742915
78.41249999999903,65,72,1,0.03375,78.39376099706648,18.73900293255132
78.44999999999902,56,67,1,0.03375,78.43047898338124,19.521016617790814
78.44999999999963,56,77,0,0.045,78.43204301075232,17.956989247311828
78.48749999999902,48,81,1,0.03375,78.4701686216999,17.331378299120235
78.49999999999963,48,63,0,0.045,78.47985337243365,20.146627565982406
78.52499999999901,60,58,1,0.03375,78.5040713587478,20.928641251221897
78.54999999999963,53,60,0,0.045,78.5293841642225,20.6158357771261
78.562499999999,53,95,1,0.03375,78.54735826001856,15.141739980449657
78.59999999999962,36,46,0,0.045,78.57719452590383,22.805474095796676
78.599999999999,58,52,1,0.03375,78.5781329423255,21.867057673509287
78.637499999999,67,85,1,0.03375,78.62079423264807,16.705767350928642
78.64999999999962,60,79,0,0.045,78.63235581622641,17.64418377321603
78.67499999999899,60,53,1,0.03375,78.65328934506253,21.71065493646139
78.69999999999962,60,79,0,0.045,78.6823558162264,17.64418377321603
78.71249999999898,67,70,1,0.03375,78.69344819159234,19.05180840664712
78.74999999999962,48,74,0,0.045,78.73157380254116,18.426197458455523
78.74999999999898,50,87,1,0.03375,78.73360703812214,16.392961876832846
78.78749999999897,72,75,1,0.03375,78.76923020527757,18.269794721407624
78.79999999999961,43,65,0,0.045,78.78016617790773,19.83382209188661
78.82499999999897,60,66,1,0.03375,78.80532258064413,19.67741935483871
78.84999999999961,48,72,0,0.045,78.83126099706706,18.73900293255132
78.86249999999896,55,75,1,0.03375,78.84423020527755,18.269794721407624
78.89999999999961,41,65,0,0.045,78.88016617790773,19.83382209188661
78.89999999999895,68,69,1,0.03375,78.88079178885526,19.208211143695017
78.93749999999895,56,86,1,0.03375,78.92095063538507,16.549364613880744
78.9499999999996,44,79,0,0.045,78.93235581622639,17.64418377321603
78.97499999999894,68,66,1,0.03375,78.95532258064411,19.67741935483871
78.9999999999996,60,72,0,0.045,78.98126099706705,18.73900293255132
79.01249999999894,67,68,1,0.03375,78.9931353861182,19.364613880742915
79.04999999999893,75,47,1,0.03375,79.02735092864019,22.649071358748778
79.0499999999996,36,71,0,0.045,79.03110459433,18.89540566959922
79.08749999999893,77,67,1,0.03375,79.06797898338114,19.521016617790814
79.0999999999996,53,79,0,0.045,79.08235581622638,17.64418377321603
79.12499999999892,63,97,1,0.03375,79.11017106549257,14.82893450635386
79.1499999999996,44,73,0,0.045,79.13141739980409,18.58260019550342
79.16249999999891,60,81,1,0.03375,79.1451686216998,17.331378299120235
79.19999999999959,48,71,0,0.045,79.18110459433,18.89540566959922
79.19999999999891,68,103,1,0.03375,79.18610948191484,13.890518084066471
79.2374999999989,60,72,1,0.03375,79.21876099706635,18.73900293255132
79.24999999999959,46,64,0,0.045,79.23000977517066,19.990224828934508
79.2749999999989,60,59,1,0.03375,79.25422776148473,20.772238514174
79.29999999999959,48,76,0,0.045,79.28188660801523,18.113391984359726
79.31249999999889,79,80,1,0.03375,79.29501221896273,17.487781036168133
79.34999999999889,62,45,1,0.03375,79.32703812316605,22.961876832844574
79.34999999999958,48,70,0,0.045,79.33094819159294,19.05180840664712
79.38749999999888,74,71,1,0.03375,79.36860459432928,18.89540566959922
79.39999999999958,29,44,0,0.045,79.3768817204297,23.118279569892472
79.42499999999887,65,86,1,0.03375,79.408450635385,16.549364613880744
79.44999999999958,51,83,0,0.045,79.43298142717455,17.01857282502444
79.46249999999887,55,55,1,0.03375,79.44110215053651,21.397849462365592
79.49999999999957,53,59,0,0.045,79.4792277614854,20.772238514174
79.49999999999886,53,89,1,0.03375,79.48391984359613,16.080156402737046
79.53749999999886,74,61,1,0.03375,79.51704056695878,20.459433040078203
79.54999999999957,72,49,0,0.045,79.52766373411492,22.33626588465298
79.57499999999885,48,56,1,0.03375,79.55375855327354,21.241446725317694
79.59999999999957,46,65,0,0.045,79.58016617790769,19.83382209188661
79.61249999999885,63,75,1,0.03375,79.59423020527744,18.269794721407624
79.64999999999957,48,57,0,0.045,79.6289149560113,21.085043988269796
79.64999999999884,67,60,1,0.03375,79.62938416422172,20.6158357771261
79.68749999999883,60,73,1,0.03375,79.66891739980333,18.58260019550342
79.69999999999956,62,57,0,0.045,79.6789149560113,21.085043988269796
79.72499999999883,60,50,1,0.03375,79.70282013685123,22.179863147605083
79.74999999999956,60,92,0,0.045,79.73438905180797,15.610948191593351
79.76249999999882,63,91,1,0.03375,79.74673264907018,15.76735092864125
79.79999999999956,56,46,0,0.045,79.77719452590377,22.805474095796676
79.79999999999882,74,59,1,0.03375,79.77922776148465,20.772238514174
79.83749999999881,55,70,1,0.03375,79.81844819159217,19.05180840664712
79.84999999999955,53,88,0,0.045,79.83376344085977,16.236559139784944
79.8749999999988,60,54,1,0.03375,79.8534457477994,21.55425219941349
79.89999999999955,51,78,0,0.045,79.88219941348929,17.80058651026393
79.9124999999988,53,87,1,0.03375,79.89610703812197,16.392961876832846
79.94999999999955,41,93,0,0.045,79.934545454545,15.454545454545453
79.9499999999988,72,98,1,0.03375,79.93532746822949,14.672531769305962
79.98749999999879,44,67,1,0.03375,79.967978983381,19.521016617790814
79.99999999999955,39,94,0,0.045,79.98470185728205,15.298142717497555
80.02499999999878,72,76,1,0.03375,80.00688660801443,18.113391984359726
80.04999999999954,24,97,0,0.045,80.03517106549319,14.82893450635386
80.06249999999878,68,62,1,0.03375,80.04219696969575,20.303030303030305
80.09999999999877,68,76,1,0.03375,80.08188660801441,18.113391984359726
80.09999999999954,63,92,0,0.045,80.08438905180795,15.610948191593351
80.13749999999877,60,64,1,0.03375,80.11750977516984,19.990224828934508
80.14999999999954,56,76,0,0.045,80.13188660801518,18.113391984359726
80.17499999999876,65,98,1,0.03375,80.16032746822945,14.672531769305962
80.19999999999953,46,62,0,0.045,80.17969696969651,20.303030303030305
80.21249999999876,65,64,1,0.03375,80.19250977516982,19.990224828934508
80.24999999999875,75,58,1,0.03375,80.22907135874753,20.928641251221897
80.24999999999953,55,86,0,0.045,80.23345063538565,16.549364613880744
80.28749999999874,65,73,1,0.03375,80.26891739980324,18.58260019550342
80.29999999999953,48,81,0,0.045,80.28266862170041,17.331378299120235
80.32499999999874,77,45,1,0.03375,80.3020381231659,22.961876832844574
80.34999999999953,62,88,0,0.045,80.33376344085974,16.236559139784944
80.36249999999873,68,60,1,0.03375,80.34188416422161,20.6158357771261
80.39999999999873,58,65,1,0.03375,80.38016617790684,19.83382209188661
80.39999999999952,62,87,0,0.045,80.38360703812269,16.392961876832846
80.43749999999872,80,73,1,0.03375,80.41891739980322,18.58260019550342
80.44999999999952,51,72,0,0.045,80.43126099706697,18.73900293255132
80.47499999999872,53,56,1,0.03375,80.4537585532734,21.241446725317694
80.49999999999952,55,101,0,0.045,80.48579667644135,14.203323558162268
80.51249999999871,67,49,1,0.03375,80.49016373411406,22.33626588465298
80.54999999999951,46,60,0,0.045,80.52938416422239,20.6158357771261
80.5499999999987,60,92,1,0.03375,80.53438905180711,15.610948191593351
80.5874999999987,65,81,1,0.03375,80.57016862169958,17.331378299120235
80.59999999999951,48,83,0,0.045,80.58298142717449,17.01857282502444
80.62499999999869,80,73,1,0.03375,80.60641739980319,18.58260019550342
80.64999999999951,56,92,0,0.045,80.63438905180791,15.610948191593351
80.66249999999869,48,80,1,0.03375,80.64501221896252,17.487781036168133
80.69999999999868,60,58,1,0.03375,80.67907135874746,20.928641251221897
80.6999999999995,60,67,0,0.045,80.68047898338172,19.521016617790814
80.73749999999868,65,59,1,0.03375,80.7167277614845,20.772238514174
80.7499999999995,62,97,0,0.045,80.73517106549315,14.82893450635386
80.77499999999867,65,39,1,0.03375,80.75109970674353,23.900293255131963
80.7999999999995,60,84,0,0.045,80.78313782991152,16.86217008797654
80.81249999999866,56,84,1,0.03375,80.79563782991069,16.86217008797654
80.84999999999866,65,56,1,0.03375,80.82875855327335,21.241446725317694
80.8499999999995,50,71,0,0.045,80.8311045943299,18.89540566959922
80.88749999999865,77,89,1,0.03375,80.87141984359592,16.080156402737046
80.8999999999995,51,72,0,0.045,80.88126099706695,18.73900293255132
80.92499999999865,70,79,1,0.03375,80.90735581622543,17.64418377321603
80.94999999999949,53,79,0,0.045,80.93235581622628,17.64418377321603
80.96249999999864,60,83,1,0.03375,80.94548142717362,17.01857282502444
80.99999999999949,68,60,0,0.045,80.97938416422237,20.6158357771261
80.99999999999864,48,94,1,0.03375,80.98470185728114,15.298142717497555
81.03749999999863,63,66,1,0.03375,81.0178225806438,19.67741935483871
81.04999999999949,56,66,0,0.045,81.03032258064465,19.67741935483871
81.07499999999862,60,66,1,0.03375,81.05532258064379,19.67741935483871
81.09999999999948,63,46,0,0.045,81.07719452590369,22.805474095796676
81.11249999999862,68,96,1,0.03375,81.09751466275522,14.985337243401759
81.14999999999861,86,65,1,0.03375,81.13016617790673,19.83382209188661
81.14999999999948,53,69,0,0.045,81.13079178885579,19.208211143695017
81.18749999999861,56,59,1,0.03375,81.16672776148444,20.772238514174
81.19999999999948,46,106,0,0.045,81.18657869012655,13.421309872922777
81.2249999999986,75,77,1,0.03375,81.20704301075129,17.956989247311828
81.24999999999947,63,86,0,0.045,81.2334506353856,16.549364613880744
81.2624999999986,67,59,1,0.03375,81.24172776148443,20.772238514174
81.29999999999947,50,55,0,0.045,81.27860215053711,21.397849462365592
81.29999999999859,82,66,1,0.03375,81.28032258064376,19.67741935483871
81.33749999999858,72,57,1,0.03375,81.31641495601032,21.085043988269796
81.34999999999947,46,70,0,0.045,81.33094819159282,19.05180840664712
81.37499999999858,68,77,1,0.03375,81.35704301075127,17.956989247311828
81.39999999999947,41,68,0,0.045,81.38063538611873,19.364613880742915
81.41249999999857,56,78,1,0.03375,81.39469941348831,17.80058651026393
81.44999999999857,51,40,1,0.03375,81.42625610948048,23.743890518084065
81.44999999999946,41,70,0,0.045,81.43094819159282,19.05180840664712
81.48749999999856,63,76,1,0.03375,81.4693866080142,18.113391984359726
81.49999999999946,53,91,0,0.045,81.48423264907082,15.76735092864125
81.52499999999856,79,53,1,0.03375,81.5032893450621,21.71065493646139
81.54999999999946,41,71,0,0.045,81.53110459432986,18.89540566959922
81.56249999999855,62,52,1,0.03375,81.54063294232505,21.867057673509287
81.59999999999945,53,55,0,0.045,81.5786021505371,21.397849462365592
81.59999999999854,65,73,1,0.03375,81.58141739980304,18.58260019550342
81.63749999999854,60,80,1,0.03375,81.62001221896237,17.487781036168133
81.64999999999945,63,69,0,0.045,81.63079178885576,19.208211143695017
81.67499999999853,67,81,1,0.03375,81.65766862169941,17.331378299120235
81.69999999999945,36,77,0,0.045,81.68204301075214,17.956989247311828
81.71249999999853,48,90,1,0.03375,81.69657624633284,15.923753665689148
81.74999999999945,36,69,0,0.045,81.73079178885575,19.208211143695017
81.74999999999852,46,89,1,0.03375,81.73391984359579,16.080156402737046
81.78749999999852,63,78,1,0.03375,81.76969941348825,17.80058651026393
81.79999999999944,34,69,0,0.045,81.78079178885575,19.208211143695017
81.82499999999851,58,71,1,0.03375,81.80610459432891,18.89540566959922
81.84999999999944,60,81,0,0.045,81.83266862170032,17.331378299120235
81.8624999999985,70,94,1,0.03375,81.84720185728101,15.298142717497555
81.89999999999944,56,65,0,0.045,81.88016617790755,19.83382209188661
81.8999999999985,63,69,1,0.03375,81.88079178885481,19.208211143695017
81.9374999999985,65,98,1,0.03375,81.92282746822919,14.672531769305962
81.94999999999943,44,65,0,0.045,81.93016617790755,19.83382209188661
81.97499999999849,70,99,1,0.03375,81.96048387096623,14.516129032258064
81.99999999999943,44,55,0,0.045,81.97860215053707,21.397849462365592
