onset_time,pitch,velocity,voice_id,duration,trigger_time,compensation_ms
0.0,48,68,0,0.1125,-0.019364613880742915,19.364613880742915
0.0,64,68,1,0.1125,-0.019364613880742915,19.364613880742915
0.125,43,68,0,0.1125,0.10563538611925709,19.364613880742915
0.125,50,68,1,0.1125,0.10563538611925709,19.364613880742915
0.25,52,68,0,0.1125,0.23063538611925707,19.364613880742915
0.25,67,68,1,0.1125,0.23063538611925707,19.364613880742915
0.375,45,68,0,0.1125,0.3556353861192571,19.364613880742915
0.375,55,68,1,0.1125,0.3556353861192571,19.364613880742915
0.5,45,68,0,0.1125,0.4806353861192571,19.364613880742915
0.5,60,68,1,0.1125,0.4806353861192571,19.364613880742915
0.625,50,68,0,0.1125,0.605635386119257,19.364613880742915
0.625,62,68,1,0.1125,0.605635386119257,19.364613880742915
0.75,50,68,0,0.1125,0.730635386119257,19.364613880742915
0.75,55,68,1,0.1125,0.730635386119257,19.364613880742915
0.875,45,68,0,0.1125,0.855635386119257,19.364613880742915
0.875,60,68,1,0.1125,0.855635386119257,19.364613880742915
1.0,48,68,0,0.1125,0.980635386119257,19.364613880742915
1.0,62,68,1,0.1125,0.980635386119257,19.364613880742915
1.125,38,68,0,0.1125,1.1056353861192572,19.364613880742915
1.125,62,68,1,0.1125,1.1056353861192572,19.364613880742915
1.25,52,68,0,0.1125,1.2306353861192572,19.364613880742915
1.25,55,68,1,0.1125,1.2306353861192572,19.364613880742915
1.375,50,68,0,0.1125,1.3556353861192572,19.364613880742915
1.375,67,68,1,0.1125,1.3556353861192572,19.364613880742915
1.5,50,68,0,0.1125,1.4806353861192572,19.364613880742915
1.5,60,68,1,0.1125,1.4806353861192572,19.364613880742915
1.625,38,68,0,0.1125,1.6056353861192572,19.364613880742915
1.625,55,68,1,0.1125,1.6056353861192572,19.364613880742915
1.75,45,68,0,0.1125,1.7306353861192572,19.364613880742915
1.75,62,68,1,0.1125,1.7306353861192572,19.364613880742915
1.875,48,68,0,0.1125,1.8556353861192572,19.364613880742915
1.875,60,68,1,0.1125,1.8556353861192572,19.364613880742915
2.0,48,68,0,0.1125,1.9806353861192572,19.364613880742915
2.0,60,68,1,0.1125,1.9806353861192572,19.364613880742915
2.125,48,68,0,0.1125,2.105635386119257,19.364613880742915
2.125,45,68,1,0.1125,2.105635386119257,19.364613880742915
2.25,52,68,0,0.1125,2.230635386119257,19.364613880742915
2.25,64,68,1,0.1125,2.230635386119257,19.364613880742915
2.375,40,68,0,0.1125,2.355635386119257,19.364613880742915
2.375,60,68,1,0.1125,2.355635386119257,19.364613880742915
2.5,36,68,0,0.1125,2.480635386119257,19.364613880742915
2.5,60,68,1,0.1125,2.480635386119257,19.364613880742915
2.625,45,68,0,0.1125,2.605635386119257,19.364613880742915
2.625,57,68,1,0.1125,2.605635386119257,19.364613880742915
2.75,48,68,0,0.1125,2.730635386119257,19.364613880742915
2.75,62,68,1,0.1125,2.730635386119257,19.364613880742915
2.875,50,68,0,0.1125,2.855635386119257,19.364613880742915
2.875,62,68,1,0.1125,2.855635386119257,19.364613880742915
3.0,52,68,0,0.1125,2.980635386119257,19.364613880742915
3.0,60,68,1,0.1125,2.980635386119257,19.364613880742915
3.125,45,68,0,0.1125,3.105635386119257,19.364613880742915
3.125,64,68,1,0.1125,3.105635386119257,19.364613880742915
3.25,50,68,0,0.1125,3.230635386119257,19.364613880742915
3.25,60,68,1,0.1125,3.230635386119257,19.364613880742915
3.375,40,68,0,0.1125,3.355635386119257,19.364613880742915
3.375,57,68,1,0.1125,3.355635386119257,19.364613880742915
3.5,36,68,0,0.1125,3.480635386119257,19.364613880742915
3.5,55,68,1,0.1125,3.480635386119257,19.364613880742915
3.625,52,68,0,0.1125,3.605635386119257,19.364613880742915
3.625,57,68,1,0.1125,3.605635386119257,19.364613880742915
3.75,45,68,0,0.1125,3.730635386119257,19.364613880742915
3.75,62,68,1,0.1125,3.730635386119257,19.364613880742915
3.875,48,68,0,0.1125,3.855635386119257,19.364613880742915
3.875,48,68,1,0.1125,3.855635386119257,19.364613880742915
4.0,52,68,0,0.1125,3.980635386119257,19.364613880742915
4.0,57,68,1,0.1125,3.980635386119257,19.364613880742915
4.125,52,68,0,0.1125,4.105635386119257,19.364613880742915
4.125,62,68,1,0.1125,4.105635386119257,19.364613880742915
4.25,50,68,0,0.1125,4.230635386119257,19.364613880742915
4.25,55,68,1,0.1125,4.230635386119257,19.364613880742915
4.375,36,68,0,0.1125,4.355635386119257,19.364613880742915
4.375,57,68,1,0.1125,4.355635386119257,19.364613880742915
4.5,48,68,0,0.1125,4.480635386119257,19.364613880742915
4.5,60,68,1,0.1125,4.480635386119257,19.364613880742915
4.625,45,68,0,0.1125,4.605635386119257,19.364613880742915
4.625,62,68,1,0.1125,4.605635386119257,19.364613880742915
4.75,50,68,0,0.1125,4.730635386119257,19.364613880742915
4.75,62,68,1,0.1125,4.730635386119257,19.364613880742915
4.875,57,68,0,0.1125,4.855635386119257,19.364613880742915
4.875,60,68,1,0.1125,4.855635386119257,19.364613880742915
5.0,48,68,0,0.1125,4.980635386119257,19.364613880742915
5.0,60,68,1,0.1125,4.980635386119257,19.364613880742915
5.125,45,68,0,0.1125,5.105635386119257,19.364613880742915
5.125,64,68,1,0.1125,5.105635386119257,19.364613880742915
5.25,48,68,0,0.1125,5.230635386119257,19.364613880742915
5.25,55,68,1,0.1125,5.230635386119257,19.364613880742915
5.375,38,68,0,0.1125,5.355635386119257,19.364613880742915
5.375,57,68,1,0.1125,5.355635386119257,19.364613880742915
5.5,48,68,0,0.1125,5.480635386119257,19.364613880742915
5.5,64,68,1,0.1125,5.480635386119257,19.364613880742915
5.625,43,68,0,0.1125,5.605635386119257,19.364613880742915
5.625,55,68,1,0.1125,5.605635386119257,19.364613880742915
5.75,36,68,0,0.1125,5.730635386119257,19.364613880742915
5.75,62,68,1,0.1125,5.730635386119257,19.364613880742915
5.875,48,68,0,0.1125,5.855635386119257,19.364613880742915
5.875,52,68,1,0.1125,5.855635386119257,19.364613880742915
6.0,50,68,0,0.1125,5.980635386119257,19.364613880742915
6.0,57,68,1,0.1125,5.980635386119257,19.364613880742915
6.125,48,68,0,0.1125,6.105635386119257,19.364613880742915
6.125,62,68,1,0.1125,6.105635386119257,19.364613880742915
6.25,50,68,0,0.1125,6.230635386119257,19.364613880742915
6.25,48,68,1,0.1125,6.230635386119257,19.364613880742915
6.375,43,68,0,0.1125,6.355635386119257,19.364613880742915
6.375,48,68,1,0.1125,6.355635386119257,19.364613880742915
6.5,43,68,0,0.1125,6.480635386119257,19.364613880742915
6.5,62,68,1,0.1125,6.480635386119257,19.364613880742915
6.625,36,68,0,0.1125,6.605635386119257,19.364613880742915
6.625,52,68,1,0.1125,6.605635386119257,19.364613880742915
6.75,45,68,0,0.1125,6.730635386119257,19.364613880742915
6.75,60,68,1,0.1125,6.730635386119257,19.364613880742915
6.875,36,68,0,0.1125,6.855635386119257,19.364613880742915
6.875,60,68,1,0.1125,6.855635386119257,19.364613880742915
7.0,48,68,0,0.1125,6.980635386119257,19.364613880742915
7.0,48,68,1,0.1125,6.980635386119257,19.364613880742915
7.125,36,68,0,0.1125,7.105635386119257,19.364613880742915
7.125,57,68,1,0.1125,7.105635386119257,19.364613880742915
7.25,50,68,0,0.1125,7.230635386119257,19.364613880742915
7.25,57,68,1,0.1125,7.230635386119257,19.364613880742915
7.375,55,68,0,0.1125,7.355635386119257,19.364613880742915
7.375,60,68,1,0.1125,7.355635386119257,19.364613880742915
7.5,43,68,0,0.1125,7.480635386119257,19.364613880742915
7.5,52,68,1,0.1125,7.480635386119257,19.364613880742915
7.625,36,68,0,0.1125,7.605635386119257,19.364613880742915
7.625,60,68,1,0.1125,7.605635386119257,19.364613880742915
7.75,48,68,0,0.1125,7.730635386119257,19.364613880742915
7.75,57,68,1,0.1125,7.730635386119257,19.364613880742915
7.875,36,68,0,0.1125,7.855635386119257,19.364613880742915
7.875,57,68,1,0.1125,7.855635386119257,19.364613880742915
8.0,60,63,1,0.11138613861386139,7.979853372434017,20.146627565982406
8.0,50,67,0,0.1125,7.980478983382209,19.521016617790814
8.123762376237623,64,58,1,0.11138613861386139,8.102833734986401,20.928641251221897
8.125,48,65,0,0.1125,8.105166177908114,19.83382209188661
8.247524752475247,55,61,1,0.11138613861386139,8.22706531943517,20.459433040078203
8.25,50,72,0,0.1125,8.231260997067448,18.73900293255132
8.37128712871287,60,61,1,0.11138613861386139,8.350827695672793,20.459433040078203
8.375,50,61,0,0.1125,8.354540566959923,20.459433040078203
8.495049504950494,60,66,1,0.11138613861386139,8.475372085595655,19.67741935483871
8.5,38,72,0,0.1125,8.481260997067448,18.73900293255132
8.618811881188117,55,65,1,0.11138613861386139,8.59897805909623,19.83382209188661
8.625,40,69,0,0.1125,8.605791788856305,19.208211143695017
8.74257425742574,60,61,1,0.11138613861386139,8.722114824385663,20.459433040078203
8.75,50,63,0,0.1125,8.729853372434018,20.146627565982406
8.866336633663364,48,72,1,0.11138613861386139,8.847597630730812,18.73900293255132
8.875,50,61,0,0.1125,8.854540566959923,20.459433040078203
8.990099009900987,48,61,1,0.11138613861386139,8.96963957686091,20.459433040078203
9.0,52,63,0,0.1125,8.979853372434018,20.146627565982406
9.11386138613861,60,60,1,0.11138613861386139,9.093245550361484,20.6158357771261
9.125,50,68,0,0.1125,9.105635386119257,19.364613880742915
9.237623762376234,48,63,1,0.11138613861386139,9.217477134810252,20.146627565982406
9.25,36,73,0,0.1125,9.231417399804496,18.58260019550342
9.361386138613858,62,70,1,0.11138613861386139,9.34233433020721,19.05180840664712
9.375,48,67,0,0.1125,9.35547898338221,19.521016617790814
9.485148514851481,64,66,1,0.11138613861386139,9.465471095496643,19.67741935483871
9.5,45,64,0,0.1125,9.480009775171066,19.990224828934508
9.608910891089105,55,69,1,0.11138613861386139,9.58970267994541,19.208211143695017
9.625,52,61,0,0.1125,9.604540566959923,20.459433040078203
9.732673267326728,62,62,1,0.11138613861386139,9.712370237023698,20.303030303030305
9.75,38,63,0,0.1125,9.729853372434018,20.146627565982406
9.856435643564351,57,64,1,0.11138613861386139,9.836445418735417,19.990224828934508
9.875,43,66,0,0.1125,9.855322580645161,19.67741935483871
9.980198019801975,62,66,1,0.11138613861386139,9.960520600447136,19.67741935483871
10.0,50,62,0,0.1125,9.97969696969697,20.303030303030305
10.103960396039598,52,61,1,0.11138613861386139,10.083500962999521,20.459433040078203
10.125,45,61,0,0.1125,10.104540566959923,20.459433040078203
10.227722772277222,57,64,1,0.11138613861386139,10.207732547448288,19.990224828934508
10.25,43,65,0,0.1125,10.230166177908114,19.83382209188661
10.351485148514845,60,65,1,0.11138613861386139,10.331651326422959,19.83382209188661
10.375,50,65,0,0.1125,10.355166177908114,19.83382209188661
10.475247524752469,57,63,1,0.11138613861386139,10.455100897186487,20.146627565982406
10.5,50,68,0,0.1125,10.480635386119257,19.364613880742915
10.599009900990092,60,64,1,0.11138613861386139,10.579019676161158,19.990224828934508
10.625,36,62,0,0.1125,10.60469696969697,20.303030303030305
10.722772277227715,57,66,1,0.11138613861386139,10.703094857872877,19.67741935483871
10.75,43,60,0,0.1125,10.729384164222873,20.6158357771261
10.846534653465339,55,63,1,0.11138613861386139,10.826388025899357,20.146627565982406
10.875,48,64,0,0.1125,10.855009775171066,19.990224828934508
10.970297029702962,64,60,1,0.11138613861386139,10.949681193925835,20.6158357771261
11.0,55,65,0,0.1125,10.980166177908114,19.83382209188661
11.094059405940586,52,70,1,0.11138613861386139,11.075007597533938,19.05180840664712
11.125,43,70,0,0.1125,11.105948191593352,19.05180840664712
11.21782178217821,57,64,1,0.11138613861386139,11.197831557349275,19.990224828934508
11.25,38,59,0,0.1125,11.229227761485825,20.772238514174
11.341584158415833,67,62,1,0.11138613861386139,11.321281128112803,20.303030303030305
11.375,48,64,0,0.1125,11.355009775171066,19.990224828934508
11.465346534653456,57,67,1,0.11138613861386139,11.445825518035665,19.521016617790814
11.5,52,59,0,0.1125,11.479227761485825,20.772238514174
11.58910891089108,48,66,1,0.11138613861386139,11.56943149153624,19.67741935483871
11.625,43,62,0,0.1125,11.60469696969697,20.303030303030305
11.712871287128703,57,62,1,0.11138613861386139,11.692568256825673,20.303030303030305
11.75,45,59,0,0.1125,11.729227761485825,20.772238514174
11.836633663366326,60,66,1,0.11138613861386139,11.816956244011488,19.67741935483871
11.875,48,62,0,0.1125,11.85469696969697,20.303030303030305
11.96039603960395,55,62,1,0.11138613861386139,11.94009300930092,20.303030303030305
12.0,43,61,0,0.1125,11.979540566959923,20.459433040078203
12.084158415841573,52,66,1,0.11138613861386139,12.064480996486735,19.67741935483871
12.125,52,63,0,0.1125,12.104853372434018,20.146627565982406
12.207920792079197,60,63,1,0.11138613861386139,12.187774164513215,20.146627565982406
12.25,36,68,0,0.1125,12.230635386119257,19.364613880742915
12.33168316831682,57,65,1,0.11138613861386139,12.311849346224934,19.83382209188661
12.375,48,61,0,0.1125,12.354540566959923,20.459433040078203
12.455445544554443,57,69,1,0.11138613861386139,12.436237333410748,19.208211143695017
12.5,45,62,0,0.1125,12.47969696969697,20.303030303030305
12.579207920792067,55,59,1,0.11138613861386139,12.558435682277892,20.772238514174
12.625,48,62,0,0.1125,12.60469696969697,20.303030303030305
12.70297029702969,67,59,1,0.11138613861386139,12.682198058515516,20.772238514174
12.75,52,62,0,0.1125,12.72969696969697,20.303030303030305
12.826732673267314,55,66,1,0.11138613861386139,12.807055253912475,19.67741935483871
12.875,45,65,0,0.1125,12.855166177908114,19.83382209188661
12.950495049504937,60,67,1,0.11138613861386139,12.930974032887146,19.521016617790814
13.0,55,67,0,0.1125,12.98047898338221,19.521016617790814
13.07425742574256,60,64,1,0.11138613861386139,13.054267200913626,19.990224828934508
13.125,50,62,0,0.1125,13.10469696969697,20.303030303030305
13.198019801980184,57,62,1,0.11138613861386139,13.177716771677154,20.303030303030305
13.25,52,72,0,0.1125,13.231260997067448,18.73900293255132
13.321782178217807,64,63,1,0.11138613861386139,13.301635550651826,20.146627565982406
13.375,52,68,0,0.1125,13.355635386119257,19.364613880742915
13.44554455445543,62,72,1,0.11138613861386139,13.426805551522879,18.73900293255132
13.5,50,62,0,0.1125,13.47969696969697,20.303030303030305
13.569306930693054,57,65,1,0.11138613861386139,13.549473108601168,19.83382209188661
13.625,48,67,0,0.1125,13.60547898338221,19.521016617790814
13.693069306930678,60,59,1,0.11138613861386139,13.672297068416503,20.772238514174
13.75,45,72,0,0.1125,13.731260997067448,18.73900293255132
13.816831683168301,60,66,1,0.11138613861386139,13.797154263813463,19.67741935483871
13.875,48,68,0,0.1125,13.855635386119257,19.364613880742915
13.940594059405925,55,59,1,0.11138613861386139,13.91982182089175,20.772238514174
14.0,48,57,0,0.1125,13.97891495601173,21.085043988269796
14.064356435643548,57,63,1,0.11138613861386139,14.044209808077566,20.146627565982406
14.125,45,64,0,0.1125,14.105009775171066,19.990224828934508
14.188118811881171,52,64,1,0.11138613861386139,14.168128587052237,19.990224828934508
14.25,52,65,0,0.1125,14.230166177908114,19.83382209188661
14.311881188118795,55,65,1,0.11138613861386139,14.292047366026909,19.83382209188661
14.375,48,66,0,0.1125,14.355322580645161,19.67741935483871
14.435643564356418,57,56,1,0.11138613861386139,14.4144021176311,21.241446725317694
14.5,36,62,0,0.1125,14.47969696969697,20.303030303030305
14.559405940594042,62,68,1,0.11138613861386139,14.540041326713299,19.364613880742915
14.625,43,65,0,0.1125,14.605166177908114,19.83382209188661
14.683168316831665,57,59,1,0.11138613861386139,14.66239607831749,20.772238514174
14.75,50,75,0,0.1125,14.731730205278593,18.269794721407624
14.806930693069289,48,64,1,0.11138613861386139,14.786940468240354,19.990224828934508
14.875,48,67,0,0.1125,14.85547898338221,19.521016617790814
14.930693069306912,48,65,1,0.11138613861386139,14.910859247215026,19.83382209188661
15.0,45,66,0,0.1125,14.980322580645161,19.67741935483871
15.054455445544535,50,61,1,0.11138613861386139,15.033996012504458,20.459433040078203
15.125,50,61,0,0.1125,15.104540566959923,20.459433040078203
15.178217821782159,62,68,1,0.11138613861386139,15.158853207901416,19.364613880742915
15.25,43,69,0,0.1125,15.230791788856305,19.208211143695017
15.301980198019782,48,64,1,0.11138613861386139,15.281989973190848,19.990224828934508
15.375,52,66,0,0.1125,15.355322580645161,19.67741935483871
15.425742574257406,57,71,1,0.11138613861386139,15.406847168587806,18.89540566959922
15.5,43,66,0,0.1125,15.480322580645161,19.67741935483871
15.54950495049503,60,69,1,0.11138613861386139,15.530296739351334,19.208211143695017
15.625,55,58,0,0.1125,15.604071358748778,20.928641251221897
15.673267326732653,57,64,1,0.11138613861386139,15.653277101903718,19.990224828934508
15.75,43,65,0,0.1125,15.730166177908114,19.83382209188661
15.797029702970276,48,63,1,0.11138613861386139,15.776883075404294,20.146627565982406
15.875,48,60,0,0.1125,15.854384164222873,20.6158357771261
15.9207920792079,67,70,1,0.11138613861386139,15.901740270801252,19.05180840664712
16.0,43,67,0,0.1125,15.98047898338221,19.521016617790814
16.044554455445525,55,65,1,0.11138613861386139,16.02472063335364,19.83382209188661
16.125,45,62,0,0.1125,16.10469696969697,20.303030303030305
16.16831683168315,60,67,1,0.11138613861386139,16.14879581506536,19.521016617790814
16.25,55,65,0,0.1125,16.230166177908114,19.83382209188661
16.292079207920775,64,63,1,0.11138613861386139,16.271932580354793,20.146627565982406
16.375,48,68,0,0.1125,16.355635386119257,19.364613880742915
16.4158415841584,62,65,1,0.11138613861386139,16.396007762066514,19.83382209188661
16.5,48,69,0,0.1125,16.480791788856305,19.208211143695017
16.539603960396025,60,60,1,0.11138613861386139,16.5189881246189,20.6158357771261
16.625,48,72,0,0.1125,16.606260997067448,18.73900293255132
16.66336633663365,55,64,1,0.11138613861386139,16.643376111804717,19.990224828934508
16.75,45,66,0,0.1125,16.73032258064516,19.67741935483871
16.787128712871276,60,72,1,0.11138613861386139,16.768389709938724,18.73900293255132
16.875,48,62,0,0.1125,16.85469696969697,20.303030303030305
16.9108910891089,67,62,1,0.11138613861386139,16.89058805880587,20.303030303030305
17.0,45,62,0,0.1125,16.97969696969697,20.303030303030305
17.034653465346526,57,60,1,0.11138613861386139,17.0140376295694,20.6158357771261
17.125,48,68,0,0.1125,17.105635386119257,19.364613880742915
17.15841584158415,55,60,1,0.11138613861386139,17.137800005807026,20.6158357771261
17.25,48,67,0,0.1125,17.23047898338221,19.521016617790814
17.282178217821777,48,60,1,0.11138613861386139,17.26156238204465,20.6158357771261
17.375,48,63,0,0.1125,17.354853372434018,20.146627565982406
17.405940594059402,57,65,1,0.11138613861386139,17.386106771967516,19.83382209188661
17.5,45,63,0,0.1125,17.479853372434018,20.146627565982406
17.529702970297027,57,61,1,0.11138613861386139,17.50924353725695,20.459433040078203
17.625,38,70,0,0.1125,17.605948191593352,19.05180840664712
17.653465346534652,55,69,1,0.11138613861386139,17.634257135390957,19.208211143695017
17.75,48,63,0,0.1125,17.729853372434018,20.146627565982406
17.777227722772277,67,62,1,0.11138613861386139,17.756924692469248,20.303030303030305
17.875,43,71,0,0.1125,17.8561045943304,18.89540566959922
17.900990099009903,48,60,1,0.11138613861386139,17.880374263232778,20.6158357771261
18.0,45,64,0,0.1125,17.980009775171066,19.990224828934508
18.024752475247528,62,65,1,0.11138613861386139,18.00491865315564,19.83382209188661
18.125,48,68,0,0.1125,18.105635386119257,19.364613880742915
18.148514851485153,64,63,1,0.11138613861386139,18.12836822391917,20.146627565982406
18.25,45,68,0,0.1125,18.230635386119257,19.364613880742915
18.27227722772278,64,68,1,0.11138613861386139,18.252912613842035,19.364613880742915
18.375,48,70,0,0.1125,18.355948191593352,19.05180840664712
18.396039603960403,62,66,1,0.11138613861386139,18.376362184605565,19.67741935483871
18.5,36,63,0,0.1125,18.479853372434018,20.146627565982406
18.51980198019803,48,67,1,0.11138613861386139,18.500280963580238,19.521016617790814
18.625,40,63,0,0.1125,18.604853372434018,20.146627565982406
18.643564356435654,52,65,1,0.11138613861386139,18.623730534343768,19.83382209188661
18.75,50,67,0,0.1125,18.73047898338221,19.521016617790814
18.76732673267328,60,63,1,0.11138613861386139,18.747180105107297,20.146627565982406
18.875,36,74,0,0.1125,18.856573802541543,18.426197458455523
18.891089108910904,48,68,1,0.11138613861386139,18.87172449503016,19.364613880742915
19.0,40,64,0,0.1125,18.980009775171066,19.990224828934508
19.01485148514853,48,67,1,0.11138613861386139,18.99533046853074,19.521016617790814
19.125,52,67,0,0.1125,19.10547898338221,19.521016617790814
19.138613861386155,62,60,1,0.11138613861386139,19.11799802560903,20.6158357771261
19.25,48,58,0,0.1125,19.22907135874878,20.928641251221897
19.26237623762378,67,59,1,0.11138613861386139,19.241603999109607,20.772238514174
19.375,48,62,0,0.1125,19.35469696969697,20.303030303030305
19.386138613861405,67,59,1,0.11138613861386139,19.365366375347232,20.772238514174
19.5,48,68,0,0.1125,19.480635386119257,19.364613880742915
19.50990099009903,60,67,1,0.11138613861386139,19.49037997348124,19.521016617790814
19.625,36,63,0,0.1125,19.604853372434018,20.146627565982406
19.633663366336656,64,65,1,0.11138613861386139,19.61382954424477,19.83382209188661
19.75,50,64,0,0.1125,19.730009775171066,19.990224828934508
19.75742574257428,52,68,1,0.11138613861386139,19.738061128693538,19.364613880742915
19.875,45,61,0,0.1125,19.854540566959923,20.459433040078203
19.881188118811906,57,69,1,0.11138613861386139,19.86197990766821,19.208211143695017
20.0,50,68,0,0.1125,19.980635386119257,19.364613880742915
20.00495049504953,67,70,1,0.11138613861386139,19.985898686642884,19.05180840664712
20.125,50,65,0,0.1125,20.105166177908114,19.83382209188661
20.128712871287156,55,64,1,0.11138613861386139,20.108722646458222,19.990224828934508
20.25,43,63,0,0.1125,20.229853372434018,20.146627565982406
20.25247524752478,62,64,1,0.11138613861386139,20.232485022695847,19.990224828934508
20.375,55,65,0,0.1125,20.355166177908114,19.83382209188661
20.376237623762407,57,65,1,0.11138613861386139,20.35640380167052,19.83382209188661
20.5,50,63,0,0.1125,20.479853372434018,20.146627565982406
20.500000000000032,55,65,1,0.11138613861386139,20.480166177908146,19.83382209188661
20.623762376237657,55,70,1,0.11138613861386139,20.60471056783101,19.05180840664712
20.625,48,66,0,0.1125,20.60532258064516,19.67741935483871
20.747524752475282,62,64,1,0.11138613861386139,20.72753452764635,19.990224828934508
20.75,48,64,0,0.1125,20.730009775171066,19.990224828934508
20.871287128712908,62,60,1,0.11138613861386139,20.850671292935782,20.6158357771261
20.875,36,66,0,0.1125,20.85532258064516,19.67741935483871
20.995049504950533,57,64,1,0.11138613861386139,20.9750592801216,19.990224828934508
21.0,52,64,0,0.1125,20.980009775171066,19.990224828934508
21.118811881188158,55,61,1,0.11138613861386139,21.09835244814808,20.459433040078203
21.125,48,66,0,0.1125,21.10532258064516,19.67741935483871
21.242574257425783,64,71,1,0.11138613861386139,21.223678851756183,18.89540566959922
21.25,48,67,0,0.1125,21.23047898338221,19.521016617790814
21.36633663366341,60,65,1,0.11138613861386139,21.346502811571522,19.83382209188661
21.375,50,64,0,0.1125,21.355009775171066,19.990224828934508
21.490099009901034,60,63,1,0.11138613861386139,21.46995238233505,20.146627565982406
21.5,43,64,0,0.1125,21.480009775171066,19.990224828934508
21.61386138613866,60,68,1,0.11138613861386139,21.594496772257916,19.364613880742915
21.625,43,66,0,0.1125,21.60532258064516,19.67741935483871
21.737623762376284,62,57,1,0.11138613861386139,21.716538718388016,21.085043988269796
21.75,48,61,0,0.1125,21.729540566959923,20.459433040078203
21.86138613861391,62,63,1,0.11138613861386139,21.841239511047927,20.146627565982406
21.875,45,70,0,0.1125,21.855948191593352,19.05180840664712
21.985148514851534,57,60,1,0.11138613861386139,21.96453267907441,20.6158357771261
22.0,45,63,0,0.1125,21.979853372434018,20.146627565982406
22.10891089108916,55,68,1,0.11138613861386139,22.089546277208417,19.364613880742915
22.125,43,64,0,0.1125,22.105009775171066,19.990224828934508
22.232673267326785,55,67,1,0.11138613861386139,22.213152250708994,19.521016617790814
22.25,50,72,0,0.1125,22.231260997067448,18.73900293255132
22.35643564356441,60,68,1,0.11138613861386139,22.337071029683667,19.364613880742915
22.375,52,66,0,0.1125,22.35532258064516,19.67741935483871
22.480198019802035,52,64,1,0.11138613861386139,22.4602077949731,19.990224828934508
22.5,52,69,0,0.1125,22.480791788856305,19.208211143695017
22.60396039603966,57,62,1,0.11138613861386139,22.58365736573663,20.303030303030305
22.625,48,64,0,0.1125,22.605009775171066,19.990224828934508
22.727722772277286,67,69,1,0.11138613861386139,22.70851456113359,19.208211143695017
22.75,57,70,0,0.1125,22.730948191593352,19.05180840664712
22.85148514851491,57,66,1,0.11138613861386139,22.831807729160072,19.67741935483871
22.875,43,60,0,0.1125,22.854384164222875,20.6158357771261
22.975247524752536,60,64,1,0.11138613861386139,22.955257299923602,19.990224828934508
23.0,50,60,0,0.1125,22.979384164222875,20.6158357771261
23.09900990099016,57,62,1,0.11138613861386139,23.07870687068713,20.303030303030305
23.125,45,65,0,0.1125,23.105166177908114,19.83382209188661
23.222772277227786,60,61,1,0.11138613861386139,23.20231284418771,20.459433040078203
23.25,43,65,0,0.1125,23.230166177908114,19.83382209188661
23.34653465346541,62,64,1,0.11138613861386139,23.326544428636478,19.990224828934508
23.375,43,58,0,0.1125,23.35407135874878,20.928641251221897
23.470297029703037,48,64,1,0.11138613861386139,23.450306804874103,19.990224828934508
23.5,55,60,0,0.1125,23.479384164222875,20.6158357771261
23.594059405940662,55,67,1,0.11138613861386139,23.57453838932287,19.521016617790814
23.625,50,62,0,0.1125,23.60469696969697,20.303030303030305
23.717821782178287,57,67,1,0.11138613861386139,23.698300765560496,19.521016617790814
23.75,55,64,0,0.1125,23.730009775171066,19.990224828934508
23.841584158415912,57,66,1,0.11138613861386139,23.821906739061074,19.67741935483871
23.875,55,63,0,0.1125,23.854853372434018,20.146627565982406
23.965346534653538,62,56,1,0.11138613861386139,23.94410508792822,21.241446725317694
24.0,36,66,0,0.1125,23.98032258064516,19.67741935483871
24.0,57,68,1,0.11138613861386139,23.980635386119257,19.364613880742915
24.123762376237625,57,59,1,0.11138613861386139,24.102990137723452,20.772238514174
24.125,40,60,0,0.1125,24.104384164222875,20.6158357771261
24.24752475247525,62,64,1,0.11138613861386139,24.227534527646316,19.990224828934508
24.25,43,56,0,0.1125,24.228758553274684,21.241446725317694
24.371287128712876,48,69,1,0.11138613861386139,24.35207891756918,19.208211143695017
24.375,55,60,0,0.1125,24.354384164222875,20.6158357771261
24.4950495049505,57,62,1,0.11138613861386139,24.47474647464747,20.303030303030305
24.5,48,68,0,0.1125,24.480635386119257,19.364613880742915
24.618811881188126,60,63,1,0.11138613861386139,24.598665253622144,20.146627565982406
24.625,40,63,0,0.1125,24.604853372434018,20.146627565982406
24.74257425742575,57,69,1,0.11138613861386139,24.723366046282056,19.208211143695017
24.75,36,65,0,0.1125,24.730166177908114,19.83382209188661
24.866336633663376,52,65,1,0.11138613861386139,24.84650281157149,19.83382209188661
24.875,55,67,0,0.1125,24.85547898338221,19.521016617790814
24.990099009901,57,65,1,0.11138613861386139,24.970265187809115,19.83382209188661
25.0,45,70,0,0.1125,24.980948191593352,19.05180840664712
25.113861386138627,60,66,1,0.11138613861386139,25.09418396678379,19.67741935483871
25.125,48,63,0,0.1125,25.104853372434018,20.146627565982406
25.237623762376252,62,60,1,0.11138613861386139,25.217007926599127,20.6158357771261
25.25,55,66,0,0.1125,25.23032258064516,19.67741935483871
25.361386138613877,48,69,1,0.11138613861386139,25.342177927470182,19.208211143695017
25.375,43,71,0,0.1125,25.3561045943304,18.89540566959922
25.485148514851502,55,65,1,0.11138613861386139,25.465314692759616,19.83382209188661
25.5,55,66,0,0.1125,25.48032258064516,19.67741935483871
25.608910891089128,64,64,1,0.11138613861386139,25.588920666260194,19.990224828934508
25.625,48,68,0,0.1125,25.605635386119257,19.364613880742915
25.732673267326753,50,56,1,0.11138613861386139,25.711431820601437,21.241446725317694
25.75,52,55,0,0.1125,25.728602150537636,21.397849462365592
25.856435643564378,64,72,1,0.11138613861386139,25.837696640631826,18.73900293255132
25.875,45,68,0,0.1125,25.855635386119257,19.364613880742915
25.980198019802003,60,63,1,0.11138613861386139,25.96005139223602,20.146627565982406
26.0,52,64,0,0.1125,25.980009775171066,19.990224828934508
26.10396039603963,57,60,1,0.11138613861386139,26.083344560262503,20.6158357771261
26.125,43,70,0,0.1125,26.105948191593352,19.05180840664712
26.227722772277254,67,63,1,0.11138613861386139,26.207576144711272,20.146627565982406
26.25,45,61,0,0.1125,26.229540566959923,20.459433040078203
26.35148514851488,64,67,1,0.11138613861386139,26.331964131897088,19.521016617790814
26.375,48,66,0,0.1125,26.35532258064516,19.67741935483871
26.475247524752504,48,58,1,0.11138613861386139,26.454318883501283,20.928641251221897
26.5,55,57,0,0.1125,26.47891495601173,21.085043988269796
26.59900990099013,60,72,1,0.11138613861386139,26.580270898057577,18.73900293255132
26.625,52,67,0,0.1125,26.60547898338221,19.521016617790814
26.722772277227755,55,68,1,0.11138613861386139,26.70340766334701,19.364613880742915
26.75,36,67,0,0.1125,26.73047898338221,19.521016617790814
26.84653465346538,52,66,1,0.11138613861386139,26.82685723411054,19.67741935483871
26.875,48,65,0,0.1125,26.855166177908114,19.83382209188661
26.970297029703005,64,64,1,0.11138613861386139,26.95030680487407,19.990224828934508
27.0,50,71,0,0.1125,26.9811045943304,18.89540566959922
27.09405940594063,48,63,1,0.11138613861386139,27.07391277837465,20.146627565982406
27.125,36,68,0,0.1125,27.105635386119257,19.364613880742915
27.217821782178255,60,70,1,0.11138613861386139,27.198769973771608,19.05180840664712
27.25,50,62,0,0.1125,27.22969696969697,20.303030303030305
27.34158415841588,55,65,1,0.11138613861386139,27.321750336323994,19.83382209188661
27.375,43,71,0,0.1125,27.3561045943304,18.89540566959922
27.465346534653506,60,71,1,0.11138613861386139,27.446451128983906,18.89540566959922
27.5,57,64,0,0.1125,27.480009775171066,19.990224828934508
27.58910891089113,57,71,1,0.11138613861386139,27.57021350522153,18.89540566959922
27.625,45,58,0,0.1125,27.60407135874878,20.928641251221897
27.712871287128756,60,65,1,0.11138613861386139,27.69303746503687,19.83382209188661
27.75,57,64,0,0.1125,27.730009775171066,19.990224828934508
27.83663366336638,55,63,1,0.11138613861386139,27.8164870358004,20.146627565982406
27.875,48,65,0,0.1125,27.855166177908114,19.83382209188661
27.960396039604007,62,59,1,0.11138613861386139,27.939623801089834,20.772238514174
28.0,48,70,0,0.1125,27.980948191593352,19.05180840664712
28.08415841584163,62,62,1,0.11138613861386139,28.063855385538602,20.303030303030305
28.125,52,67,0,0.1125,28.10547898338221,19.521016617790814
28.207920792079257,48,63,1,0.11138613861386139,28.187774164513275,20.146627565982406
28.25,52,66,0,0.1125,28.23032258064516,19.67741935483871
28.331683168316882,62,69,1,0.11138613861386139,28.312474957173187,19.208211143695017
28.375,43,66,0,0.1125,28.35532258064516,19.67741935483871
28.455445544554507,67,62,1,0.11138613861386139,28.435142514251478,20.303030303030305
28.5,40,64,0,0.1125,28.480009775171066,19.990224828934508
28.579207920792133,55,62,1,0.11138613861386139,28.558904890489103,20.303030303030305
28.625,48,62,0,0.1125,28.60469696969697,20.303030303030305
28.702970297029758,62,68,1,0.11138613861386139,28.683605683149015,19.364613880742915
28.75,48,72,0,0.1125,28.731260997067448,18.73900293255132
28.826732673267383,57,60,1,0.11138613861386139,28.806116837490258,20.6158357771261
28.875,40,63,0,0.1125,28.854853372434018,20.146627565982406
28.950495049505008,55,65,1,0.11138613861386139,28.930661227413122,19.83382209188661
29.0,45,68,0,0.1125,28.980635386119257,19.364613880742915
29.074257425742633,62,62,1,0.11138613861386139,29.053954395439604,20.303030303030305
29.125,48,65,0,0.1125,29.105166177908114,19.83382209188661
29.19801980198026,62,67,1,0.11138613861386139,29.178498785362468,19.521016617790814
29.25,40,68,0,0.1125,29.230635386119257,19.364613880742915
29.321782178217884,62,62,1,0.11138613861386139,29.301479147914854,20.303030303030305
29.375,45,60,0,0.1125,29.354384164222875,20.6158357771261
29.44554455445551,57,61,1,0.11138613861386139,29.42508512141543,20.459433040078203
29.5,50,64,0,0.1125,29.480009775171066,19.990224828934508
29.569306930693134,60,67,1,0.11138613861386139,29.549785914075343,19.521016617790814
29.625,43,66,0,0.1125,29.60532258064516,19.67741935483871
29.69306930693076,62,57,1,0.11138613861386139,29.67198426294249,21.085043988269796
29.75,50,65,0,0.1125,29.730166177908114,19.83382209188661
29.816831683168385,57,66,1,0.11138613861386139,29.797154263813546,19.67741935483871
29.875,48,63,0,0.1125,29.854853372434018,20.146627565982406
29.94059405940601,62,66,1,0.11138613861386139,29.92091664005117,19.67741935483871
30.0,43,71,0,0.1125,29.9811045943304,18.89540566959922
30.064356435643635,62,61,1,0.11138613861386139,30.043897002603558,20.459433040078203
30.125,50,62,0,0.1125,30.10469696969697,20.303030303030305
30.18811881188126,52,58,1,0.11138613861386139,30.16719017063004,20.928641251221897
30.25,48,69,0,0.1125,30.230791788856305,19.208211143695017
30.311881188118885,60,58,1,0.11138613861386139,30.290952546867665,20.928641251221897
30.375,45,64,0,0.1125,30.355009775171066,19.990224828934508
30.43564356435651,64,61,1,0.11138613861386139,30.415184131316433,20.459433040078203
30.5,48,63,0,0.1125,30.479853372434018,20.146627565982406
30.559405940594136,62,64,1,0.11138613861386139,30.5394157157652,19.990224828934508
30.625,40,61,0,0.1125,30.604540566959923,20.459433040078203
30.68316831683176,62,61,1,0.11138613861386139,30.662708883791684,20.459433040078203
30.75,52,61,0,0.1125,30.729540566959923,20.459433040078203
30.806930693069386,62,62,1,0.11138613861386139,30.786627662766357,20.303030303030305
30.875,48,67,0,0.1125,30.85547898338221,19.521016617790814
30.93069306930701,57,69,1,0.11138613861386139,30.911484858163316,19.208211143695017
31.0,52,64,0,0.1125,30.980009775171066,19.990224828934508
31.054455445544637,55,63,1,0.11138613861386139,31.034308817978655,20.146627565982406
31.125,48,59,0,0.1125,31.104227761485827,20.772238514174
31.178217821782262,67,60,1,0.11138613861386139,31.157601986005137,20.6158357771261
31.25,36,63,0,0.1125,31.229853372434018,20.146627565982406
31.301980198019887,55,63,1,0.11138613861386139,31.281833570453905,20.146627565982406
31.375,45,64,0,0.1125,31.355009775171066,19.990224828934508
31.425742574257512,67,63,1,0.11138613861386139,31.40559594669153,20.146627565982406
31.5,36,63,0,0.1125,31.479853372434018,20.146627565982406
31.549504950495137,60,61,1,0.11138613861386139,31.52904551745506,20.459433040078203
31.625,36,72,0,0.1125,31.606260997067448,18.73900293255132
31.673267326732763,55,68,1,0.11138613861386139,31.65390271285202,19.364613880742915
31.75,50,64,0,0.1125,31.730009775171066,19.990224828934508
31.797029702970388,48,57,1,0.11138613861386139,31.77594465898212,21.085043988269796
31.875,52,65,0,0.1125,31.855166177908114,19.83382209188661
31.920792079208013,57,65,1,0.11138613861386139,31.900958257116127,19.83382209188661
32.0,48,66,0,0.1125,31.98032258064516,19.67741935483871
32.044554455445635,52,65,1,0.11138613861386139,32.024720633353745,19.83382209188661
32.125,43,64,0,0.1125,32.10500977517106,19.990224828934508
32.168316831683256,60,64,1,0.11138613861386139,32.14832660685432,19.990224828934508
32.25,43,64,0,0.1125,32.23000977517106,19.990224828934508
32.29207920792088,57,68,1,0.11138613861386139,32.27271459404014,19.364613880742915
32.375,45,63,0,0.1125,32.354853372434015,20.146627565982406
32.4158415841585,55,65,1,0.11138613861386139,32.39600776206661,19.83382209188661
32.5,50,64,0,0.1125,32.48000977517106,19.990224828934508
32.53960396039612,57,67,1,0.11138613861386139,32.520082943778334,19.521016617790814
32.625,43,64,0,0.1125,32.60500977517106,19.990224828934508
32.66336633663374,52,58,1,0.11138613861386139,32.64243769538252,20.928641251221897
32.75,57,62,0,0.1125,32.72969696969697,20.303030303030305
32.787128712871365,57,68,1,0.11138613861386139,32.767764098990625,19.364613880742915
32.875,48,59,0,0.1125,32.854227761485824,20.772238514174
32.910891089108986,57,67,1,0.11138613861386139,32.8913700724912,19.521016617790814
33.0,48,65,0,0.1125,32.98016617790811,19.83382209188661
33.03465346534661,60,69,1,0.11138613861386139,33.015445254202916,19.208211143695017
33.125,48,65,0,0.1125,33.10516617790811,19.83382209188661
33.15841584158423,60,65,1,0.11138613861386139,33.13858201949234,19.83382209188661
33.25,36,65,0,0.1125,33.23016617790811,19.83382209188661
33.28217821782185,64,69,1,0.11138613861386139,33.26297000667816,19.208211143695017
33.375,55,55,0,0.1125,33.35360215053763,21.397849462365592
33.40594059405947,55,65,1,0.11138613861386139,33.38610677196758,19.83382209188661
33.5,48,61,0,0.1125,33.47954056695992,20.459433040078203
33.529702970297095,60,71,1,0.11138613861386139,33.5108075646275,18.89540566959922
33.625,36,60,0,0.1125,33.60438416422287,20.6158357771261
33.653465346534716,55,62,1,0.11138613861386139,33.63316231623168,20.303030303030305
33.75,52,67,0,0.1125,33.73047898338221,19.521016617790814
33.77722772277234,62,65,1,0.11138613861386139,33.75739390068045,19.83382209188661
33.875,48,68,0,0.1125,33.85563538611926,19.364613880742915
33.90099009900996,60,65,1,0.11138613861386139,33.88115627691807,19.83382209188661
34.0,36,67,0,0.1125,33.98047898338221,19.521016617790814
34.02475247524758,52,59,1,0.11138613861386139,34.003980236733405,20.772238514174
34.125,55,64,0,0.1125,34.10500977517106,19.990224828934508
34.1485148514852,62,65,1,0.11138613861386139,34.12868102939331,19.83382209188661
34.25,50,60,0,0.1125,34.22938416422287,20.6158357771261
34.272277227722824,60,62,1,0.11138613861386139,34.25197419741979,20.303030303030305
34.375,52,64,0,0.1125,34.35500977517106,19.990224828934508
34.396039603960446,60,62,1,0.11138613861386139,34.37573657365741,20.303030303030305
34.5,50,61,0,0.1125,34.47954056695992,20.459433040078203
34.51980198019807,57,65,1,0.11138613861386139,34.49996815810618,19.83382209188661
34.625,38,60,0,0.1125,34.60438416422287,20.6158357771261
34.64356435643569,57,65,1,0.11138613861386139,34.6237305343438,19.83382209188661
34.75,45,61,0,0.1125,34.72954056695992,20.459433040078203
34.76732673267331,60,64,1,0.11138613861386139,34.74733650784437,19.990224828934508
34.875,50,65,0,0.1125,34.85516617790811,19.83382209188661
34.89108910891093,57,68,1,0.11138613861386139,34.87172449503019,19.364613880742915
35.0,45,63,0,0.1125,34.979853372434015,20.146627565982406
35.014851485148554,55,56,1,0.11138613861386139,34.993610038423235,21.241446725317694
35.125,36,65,0,0.1125,35.10516617790811,19.83382209188661
35.138613861386176,60,64,1,0.11138613861386139,35.11862363655724,19.990224828934508
35.25,43,74,0,0.1125,35.23157380254155,18.426197458455523
35.2623762376238,57,67,1,0.11138613861386139,35.24285522100601,19.521016617790814
35.375,45,64,0,0.1125,35.35500977517106,19.990224828934508
35.38613861386142,48,55,1,0.11138613861386139,35.36474076439905,21.397849462365592
35.5,50,69,0,0.1125,35.48079178885631,19.208211143695017
35.50990099009904,50,65,1,0.11138613861386139,35.49006716800715,19.83382209188661
35.625,48,64,0,0.1125,35.60500977517106,19.990224828934508
35.63366336633666,60,62,1,0.11138613861386139,35.61336033603363,20.303030303030305
35.75,36,71,0,0.1125,35.731104594330404,18.89540566959922
35.757425742574284,57,63,1,0.11138613861386139,35.7372791150083,20.146627565982406
35.875,43,63,0,0.1125,35.854853372434015,20.146627565982406
35.881188118811906,57,66,1,0.11138613861386139,35.861510699457064,19.67741935483871
36.0,45,62,0,0.1125,35.97969696969697,20.303030303030305
36.00495049504953,60,69,1,0.11138613861386139,35.985742283905836,19.208211143695017
36.125,55,65,0,0.1125,36.10516617790811,19.83382209188661
36.12871287128715,60,64,1,0.11138613861386139,36.10872264645821,19.990224828934508
36.25,43,63,0,0.1125,36.229853372434015,20.146627565982406
36.25247524752477,67,63,1,0.11138613861386139,36.232328619958786,20.146627565982406
36.37623762376239,67,59,1,0.11138613861386139,36.355465385248216,20.772238514174
36.375,43,70,0,0.1125,36.355948191593356,19.05180840664712
36.5,48,63,0,0.1125,36.479853372434015,20.146627565982406
36.500000000000014,60,71,1,0.11138613861386139,36.48110459433042,18.89540566959922
36.623762376237636,62,66,1,0.11138613861386139,36.604084956882794,19.67741935483871
36.625,40,65,0,0.1125,36.60516617790811,19.83382209188661
36.74752475247526,67,73,1,0.11138613861386139,36.72894215227976,18.58260019550342
36.75,43,65,0,0.1125,36.73016617790811,19.83382209188661
36.87128712871288,57,65,1,0.11138613861386139,36.85145330662099,19.83382209188661
36.875,45,67,0,0.1125,36.85547898338221,19.521016617790814
36.9950495049505,57,65,1,0.11138613861386139,36.97521568285861,19.83382209188661
37.0,43,68,0,0.1125,36.98063538611926,19.364613880742915
37.11881188118812,57,61,1,0.11138613861386139,37.09835244814804,20.459433040078203
37.125,36,62,0,0.1125,37.10469696969697,20.303030303030305
37.242574257425744,55,62,1,0.11138613861386139,37.22227122712271,20.303030303030305
37.25,52,68,0,0.1125,37.23063538611926,19.364613880742915
37.366336633663366,55,75,1,0.11138613861386139,37.34806683894196,18.269794721407624
37.375,50,62,0,0.1125,37.35469696969697,20.303030303030305
37.49009900990099,60,61,1,0.11138613861386139,37.46963957686091,20.459433040078203
37.5,48,67,0,0.1125,37.48047898338221,19.521016617790814
37.61386138613861,48,59,1,0.11138613861386139,37.59308914762443,20.772238514174
37.625,45,64,0,0.1125,37.60500977517106,19.990224828934508
37.73762376237623,57,68,1,0.11138613861386139,37.71825914849549,19.364613880742915
37.75,55,65,0,0.1125,37.73016617790811,19.83382209188661
37.86138613861385,62,64,1,0.11138613861386139,37.841395913784915,19.990224828934508
37.875,48,61,0,0.1125,37.85454056695992,20.459433040078203
37.985148514851474,60,70,1,0.11138613861386139,37.96609670644483,19.05180840664712
38.0,36,63,0,0.1125,37.979853372434015,20.146627565982406
38.108910891089096,69,60,1,0.11138613861386139,38.08829505531197,20.6158357771261
38.125,36,69,0,0.1125,38.10579178885631,19.208211143695017
38.23267326732672,64,63,1,0.11138613861386139,38.21252663976073,20.146627565982406
38.25,36,61,0,0.1125,38.22954056695992,20.459433040078203
38.35643564356434,67,63,1,0.11138613861386139,38.336289015998354,20.146627565982406
38.375,45,66,0,0.1125,38.35532258064516,19.67741935483871
38.48019801980196,64,69,1,0.11138613861386139,38.46098980865827,19.208211143695017
38.5,48,67,0,0.1125,38.48047898338221,19.521016617790814
38.60396039603958,64,60,1,0.11138613861386139,38.583344560262454,20.6158357771261
38.625,36,63,0,0.1125,38.604853372434015,20.146627565982406
38.727722772277204,60,61,1,0.11138613861386139,38.70726333923712,20.459433040078203
38.75,48,56,0,0.1125,38.72875855327468,21.241446725317694
38.851485148514826,62,67,1,0.11138613861386139,38.83196413189704,19.521016617790814
38.875,40,55,0,0.1125,38.85360215053763,21.397849462365592
38.97524752475245,55,62,1,0.11138613861386139,38.954944494449414,20.303030303030305
39.0,45,61,0,0.1125,38.97954056695992,20.459433040078203
39.09900990099007,55,66,1,0.11138613861386139,39.07933248163523,19.67741935483871
39.125,36,63,0,0.1125,39.104853372434015,20.146627565982406
39.22277227722769,57,64,1,0.11138613861386139,39.20278205239875,19.990224828934508
39.25,48,66,0,0.1125,39.23032258064516,19.67741935483871
39.34653465346531,57,67,1,0.11138613861386139,39.327013636847525,19.521016617790814
39.375,50,61,0,0.1125,39.35454056695992,20.459433040078203
39.470297029702934,60,67,1,0.11138613861386139,39.45077601308515,19.521016617790814
39.5,36,57,0,0.1125,39.47891495601173,21.085043988269796
39.594059405940556,55,63,1,0.11138613861386139,39.57391277837457,20.146627565982406
39.625,48,62,0,0.1125,39.60469696969697,20.303030303030305
39.71782178217818,62,57,1,0.11138613861386139,39.696736738189905,21.085043988269796
39.75,43,61,0,0.1125,39.72954056695992,20.459433040078203
39.8415841584158,60,62,1,0.11138613861386139,39.821281128112766,20.303030303030305
39.875,55,62,0,0.1125,39.85469696969697,20.303030303030305
39.96534653465342,60,57,1,0.11138613861386139,39.94426149066515,21.085043988269796
40.0,52,76,0,0.05625,39.98188660801564,18.113391984359726
40.0,57,78,1,0.05625,39.98219941348974,17.80058651026393
40.0625,36,75,0,0.05625,40.044230205278595,18.269794721407624
40.0625,62,75,1,0.05625,40.044230205278595,18.269794721407624
40.125,55,69,1,0.05625,40.10579178885631,19.208211143695017
40.125,52,77,0,0.05625,40.10704301075269,17.956989247311828
40.1875,72,74,1,0.05625,40.16907380254155,18.426197458455523
40.1875,43,80,0,0.05625,40.170012218963834,17.487781036168133
40.25,40,75,0,0.05625,40.231730205278595,18.269794721407624
40.25,69,79,1,0.05625,40.232355816226786,17.64418377321603
40.3125,55,63,1,0.05625,40.292353372434015,20.146627565982406
40.3125,57,80,0,0.05625,40.295012218963834,17.487781036168133
40.375,55,63,1,0.05625,40.354853372434015,20.146627565982406
40.375,45,70,0,0.05625,40.355948191593356,19.05180840664712
40.4375,60,72,1,0.05625,40.41876099706745,18.73900293255132
40.4375,55,75,0,0.05625,40.419230205278595,18.269794721407624
40.5,60,68,1,0.05625,40.48063538611926,19.364613880742915
40.5,36,69,0,0.05625,40.48079178885631,19.208211143695017
40.5625,48,69,1,0.05625,40.54329178885631,19.208211143695017
40.5625,55,90,0,0.05625,40.54657624633431,15.923753665689148
40.625,50,67,0,0.05625,40.60547898338221,19.521016617790814
40.625,57,80,1,0.05625,40.607512218963834,17.487781036168133
40.6875,62,73,1,0.05625,40.6689173998045,18.58260019550342
40.6875,62,79,0,0.05625,40.669855816226786,17.64418377321603
40.75,48,72,0,0.05625,40.73126099706745,18.73900293255132
40.75,52,77,1,0.05625,40.73204301075269,17.956989247311828
40.8125,45,73,0,0.05625,40.7939173998045,18.58260019550342
40.8125,69,82,1,0.05625,40.79532502443793,17.174975562072337
40.875,55,72,1,0.05625,40.85626099706745,18.73900293255132
40.875,45,84,0,0.05625,40.858137829912025,16.86217008797654
40.9375,43,66,0,0.05625,40.91782258064516,19.67741935483871
40.9375,52,84,1,0.05625,40.920637829912025,16.86217008797654
41.0,43,78,0,0.05625,40.98219941348974,17.80058651026393
41.0,55,79,1,0.05625,40.982355816226786,17.64418377321603
41.0625,48,67,0,0.05625,41.04297898338221,19.521016617790814
41.0625,64,86,1,0.05625,41.04595063538612,16.549364613880744
41.125,48,61,0,0.05625,41.10454056695992,20.459433040078203
41.125,60,63,1,0.05625,41.104853372434015,20.146627565982406
41.1875,55,73,1,0.05625,41.1689173998045,18.58260019550342
41.1875,33,74,0,0.05625,41.16907380254155,18.426197458455523
41.25,45,72,0,0.05625,41.23126099706745,18.73900293255132
41.25,62,74,1,0.05625,41.23157380254155,18.426197458455523
41.3125,48,73,1,0.05625,41.2939173998045,18.58260019550342
41.3125,36,87,0,0.05625,41.29610703812317,16.392961876832846
41.375,50,69,0,0.05625,41.35579178885631,19.208211143695017
41.375,62,78,1,0.05625,41.35719941348974,17.80058651026393
41.4375,60,82,1,0.05625,41.42032502443793,17.174975562072337
41.4375,48,84,0,0.05625,41.420637829912025,16.86217008797654
41.5,60,67,0,0.05625,41.48047898338221,19.521016617790814
41.5,52,76,1,0.05625,41.48188660801564,18.113391984359726
41.5625,55,73,0,0.05625,41.5439173998045,18.58260019550342
41.5625,55,83,1,0.05625,41.54548142717498,17.01857282502444
41.625,55,69,1,0.05625,41.60579178885631,19.208211143695017
41.625,48,77,0,0.05625,41.60704301075269,17.956989247311828
41.6875,50,70,0,0.05625,41.668448191593356,19.05180840664712
41.6875,57,80,1,0.05625,41.670012218963834,17.487781036168133
41.75,57,80,1,0.05625,41.732512218963834,17.487781036168133
41.75,38,84,0,0.05625,41.733137829912025,16.86217008797654
41.8125,45,76,0,0.05625,41.79438660801564,18.113391984359726
41.8125,55,87,1,0.05625,41.79610703812317,16.392961876832846
41.875,55,71,0,0.05625,41.856104594330404,18.89540566959922
41.875,64,81,1,0.05625,41.85766862170088,17.331378299120235
41.9375,48,66,1,0.05625,41.91782258064516,19.67741935483871
41.9375,43,74,0,0.05625,41.91907380254155,18.426197458455523
42.0,36,76,0,0.05625,41.98188660801564,18.113391984359726
42.0,69,82,1,0.05625,41.98282502443793,17.174975562072337
42.0625,62,70,1,0.05625,42.043448191593356,19.05180840664712
42.0625,36,79,0,0.05625,42.044855816226786,17.64418377321603
42.125,52,63,1,0.05625,42.104853372434015,20.146627565982406
42.125,40,72,0,0.05625,42.10626099706745,18.73900293255132
42.1875,62,63,1,0.05625,42.167353372434015,20.146627565982406
42.1875,52,78,0,0.05625,42.16969941348974,17.80058651026393
42.25,62,68,0,0.05625,42.23063538611926,19.364613880742915
42.25,67,79,1,0.05625,42.232355816226786,17.64418377321603
42.3125,48,73,0,0.05625,42.2939173998045,18.58260019550342
42.3125,60,77,1,0.05625,42.29454301075269,17.956989247311828
42.375,67,73,1,0.05625,42.3564173998045,18.58260019550342
42.375,43,82,0,0.05625,42.35782502443793,17.174975562072337
42.4375,64,78,1,0.05625,42.41969941348974,17.80058651026393
42.4375,48,82,0,0.05625,42.42032502443793,17.174975562072337
42.5,45,77,0,0.05625,42.48204301075269,17.956989247311828
42.5,48,77,1,0.05625,42.48204301075269,17.956989247311828
42.5625,50,64,0,0.05625,42.54250977517106,19.990224828934508
42.5625,55,77,1,0.05625,42.54454301075269,17.956989247311828
42.625,60,73,1,0.05625,42.6064173998045,18.58260019550342
42.625,45,77,0,0.05625,42.60704301075269,17.956989247311828
42.6875,24,69,0,0.05625,42.66829178885631,19.208211143695017
42.6875,67,81,1,0.05625,42.67016862170088,17.331378299120235
42.75,67,63,1,0.05625,42.729853372434015,20.146627565982406
42.75,40,75,0,0.05625,42.731730205278595,18.269794721407624
42.8125,60,70,1,0.05625,42.793448191593356,19.05180840664712
42.8125,62,78,0,0.05625,42.79469941348974,17.80058651026393
42.875,57,67,1,0.05625,42.85547898338221,19.521016617790814
42.875,40,73,0,0.05625,42.8564173998045,18.58260019550342
42.9375,55,72,1,0.05625,42.91876099706745,18.73900293255132
42.9375,36,78,0,0.05625,42.91969941348974,17.80058651026393
43.0,50,69,0,0.05625,42.98079178885631,19.208211143695017
43.0,52,77,1,0.05625,42.98204301075269,17.956989247311828
43.0625,38,78,0,0.05625,43.04469941348974,17.80058651026393
43.0625,57,83,1,0.05625,43.04548142717498,17.01857282502444
43.125,52,71,0,0.05625,43.106104594330404,18.89540566959922
43.125,69,73,1,0.05625,43.1064173998045,18.58260019550342
43.1875,36,74,0,0.05625,43.16907380254155,18.426197458455523
43.1875,57,76,1,0.05625,43.16938660801564,18.113391984359726
43.25,57,70,1,0.05625,43.230948191593356,19.05180840664712
43.25,48,80,0,0.05625,43.232512218963834,17.487781036168133
43.3125,43,82,0,0.05625,43.29532502443793,17.174975562072337
43.3125,64,82,1,0.05625,43.29532502443793,17.174975562072337
43.375,38,66,0,0.05625,43.35532258064516,19.67741935483871
43.375,48,72,1,0.05625,43.35626099706745,18.73900293255132
43.4375,57,71,0,0.05625,43.418604594330404,18.89540566959922
43.4375,62,77,1,0.05625,43.41954301075269,17.956989247311828
43.5,43,71,0,0.05625,43.481104594330404,18.89540566959922
43.5,62,79,1,0.05625,43.482355816226786,17.64418377321603
43.5625,52,69,0,0.05625,43.54329178885631,19.208211143695017
43.5625,52,84,1,0.05625,43.545637829912025,16.86217008797654
43.625,62,70,1,0.05625,43.605948191593356,19.05180840664712
43.625,55,78,0,0.05625,43.60719941348974,17.80058651026393
43.6875,45,77,0,0.05625,43.66954301075269,17.956989247311828
43.6875,55,77,1,0.05625,43.66954301075269,17.956989247311828
43.75,45,72,0,0.05625,43.73126099706745,18.73900293255132
43.75,60,74,1,0.05625,43.73157380254155,18.426197458455523
43.8125,57,84,1,0.05625,43.795637829912025,16.86217008797654
43.8125,52,87,0,0.05625,43.79610703812317,16.392961876832846
43.875,36,68,0,0.05625,43.85563538611926,19.364613880742915
43.875,60,81,1,0.05625,43.85766862170088,17.331378299120235
43.9375,60,79,0,0.05625,43.919855816226786,17.64418377321603
43.9375,48,81,1,0.05625,43.92016862170088,17.331378299120235
44.0,57,76,1,0.05625,43.98188660801564,18.113391984359726
44.0,45,81,0,0.05625,43.98266862170088,17.331378299120235
44.0625,52,69,0,0.05625,44.04329178885631,19.208211143695017
44.0625,64,82,1,0.05625,44.04532502443793,17.174975562072337
44.125,62,77,1,0.05625,44.10704301075269,17.956989247311828
44.125,50,78,0,0.05625,44.10719941348974,17.80058651026393
44.1875,60,75,1,0.05625,44.169230205278595,18.269794721407624
44.1875,36,78,0,0.05625,44.16969941348974,17.80058651026393
44.25,57,68,1,0.05625,44.23063538611926,19.364613880742915
44.25,50,88,0,0.05625,44.233763440860216,16.236559139784944
44.3125,36,65,0,0.05625,44.29266617790811,19.83382209188661
44.3125,60,74,1,0.05625,44.29407380254155,18.426197458455523
44.375,55,72,0,0.05625,44.35626099706745,18.73900293255132
44.375,67,88,1,0.05625,44.358763440860216,16.236559139784944
44.4375,57,65,1,0.05625,44.41766617790811,19.83382209188661
44.4375,62,69,0,0.05625,44.41829178885631,19.208211143695017
44.5,48,67,0,0.05625,44.48047898338221,19.521016617790814
44.5,74,67,1,0.05625,44.48047898338221,19.521016617790814
44.5625,52,72,1,0.05625,44.54376099706745,18.73900293255132
44.5625,50,94,0,0.05625,44.5472018572825,15.298142717497555
44.625,62,70,1,0.05625,44.605948191593356,19.05180840664712
44.625,50,88,0,0.05625,44.608763440860216,16.236559139784944
44.6875,55,70,0,0.05625,44.668448191593356,19.05180840664712
44.6875,69,74,1,0.05625,44.66907380254155,18.426197458455523
44.75,69,71,1,0.05625,44.731104594330404,18.89540566959922
44.75,36,84,0,0.05625,44.733137829912025,16.86217008797654
44.8125,50,73,0,0.05625,44.7939173998045,18.58260019550342
44.8125,52,76,1,0.05625,44.79438660801564,18.113391984359726
44.875,48,78,1,0.05625,44.85719941348974,17.80058651026393
44.875,38,79,0,0.05625,44.857355816226786,17.64418377321603
44.9375,67,83,1,0.05625,44.92048142717498,17.01857282502444
44.9375,55,88,0,0.05625,44.921263440860216,16.236559139784944
45.0,50,68,0,0.05625,44.98063538611926,19.364613880742915
45.0,36,81,1,0.05625,44.98266862170088,17.331378299120235
45.0625,64,71,1,0.05625,45.043604594330404,18.89540566959922
45.0625,36,78,0,0.05625,45.04469941348974,17.80058651026393
45.125,45,68,1,0.05625,45.10563538611926,19.364613880742915
45.125,36,71,0,0.05625,45.106104594330404,18.89540566959922
45.1875,36,70,0,0.05625,45.168448191593356,19.05180840664712
45.1875,62,87,1,0.05625,45.17110703812317,16.392961876832846
45.25,45,76,0,0.05625,45.23188660801564,18.113391984359726
45.25,55,76,1,0.05625,45.23188660801564,18.113391984359726
45.3125,36,65,0,0.05625,45.29266617790811,19.83382209188661
45.3125,55,79,1,0.05625,45.294855816226786,17.64418377321603
45.375,57,66,1,0.05625,45.35532258064516,19.67741935483871
45.375,45,94,0,0.05625,45.3597018572825,15.298142717497555
45.4375,48,70,1,0.05625,45.418448191593356,19.05180840664712
45.4375,43,81,0,0.05625,45.42016862170088,17.331378299120235
45.5,48,68,0,0.05625,45.48063538611926,19.364613880742915
45.5,55,73,1,0.05625,45.4814173998045,18.58260019550342
45.5625,60,77,1,0.05625,45.54454301075269,17.956989247311828
45.5625,45,84,0,0.05625,45.545637829912025,16.86217008797654
45.625,48,70,0,0.05625,45.605948191593356,19.05180840664712
45.625,64,82,1,0.05625,45.60782502443793,17.174975562072337
45.6875,45,77,0,0.05625,45.66954301075269,17.956989247311828
45.6875,52,84,1,0.05625,45.670637829912025,16.86217008797654
45.75,55,79,1,0.05625,45.732355816226786,17.64418377321603
45.75,48,83,0,0.05625,45.73298142717498,17.01857282502444
45.8125,52,81,1,0.05625,45.79516862170088,17.331378299120235
45.8125,48,88,0,0.05625,45.796263440860216,16.236559139784944
45.875,43,79,0,0.05625,45.857355816226786,17.64418377321603
45.875,62,83,1,0.05625,45.85798142717498,17.01857282502444
45.9375,43,75,0,0.05625,45.919230205278595,18.269794721407624
45.9375,64,75,1,0.05625,45.919230205278595,18.269794721407624
46.0,43,76,0,0.05625,45.98188660801564,18.113391984359726
46.0,67,87,1,0.05625,45.98360703812317,16.392961876832846
46.0625,64,71,1,0.05625,46.043604594330404,18.89540566959922
46.0625,45,84,0,0.05625,46.045637829912025,16.86217008797654
46.125,55,68,1,0.05625,46.10563538611926,19.364613880742915
46.125,40,83,0,0.05625,46.10798142717498,17.01857282502444
46.1875,50,78,0,0.05625,46.16969941348974,17.80058651026393
46.1875,50,84,1,0.05625,46.170637829912025,16.86217008797654
46.25,64,59,1,0.05625,46.229227761485824,20.772238514174
46.25,45,75,0,0.05625,46.231730205278595,18.269794721407624
46.3125,45,71,0,0.05625,46.293604594330404,18.89540566959922
46.3125,62,77,1,0.05625,46.29454301075269,17.956989247311828
46.375,48,70,0,0.05625,46.355948191593356,19.05180840664712
46.375,60,76,1,0.05625,46.35688660801564,18.113391984359726
46.4375,52,80,0,0.05625,46.420012218963834,17.487781036168133
46.4375,60,87,1,0.05625,46.42110703812317,16.392961876832846
46.5,52,69,1,0.05625,46.48079178885631,19.208211143695017
46.5,43,77,0,0.05625,46.48204301075269,17.956989247311828
46.5625,43,69,0,0.05625,46.54329178885631,19.208211143695017
46.5625,55,70,1,0.05625,46.543448191593356,19.05180840664712
46.625,62,63,0,0.05625,46.604853372434015,20.146627565982406
46.625,57,75,1,0.05625,46.606730205278595,18.269794721407624
46.6875,43,70,0,0.05625,46.668448191593356,19.05180840664712
46.6875,55,73,1,0.05625,46.6689173998045,18.58260019550342
46.75,45,63,0,0.05625,46.729853372434015,20.146627565982406
46.75,64,83,1,0.05625,46.73298142717498,17.01857282502444
46.8125,55,72,1,0.05625,46.79376099706745,18.73900293255132
46.8125,50,75,0,0.05625,46.794230205278595,18.269794721407624
46.875,48,67,1,0.05625,46.85547898338221,19.521016617790814
46.875,52,78,0,0.05625,46.85719941348974,17.80058651026393
46.9375,40,65,0,0.05625,46.91766617790811,19.83382209188661
46.9375,55,75,1,0.05625,46.919230205278595,18.269794721407624
47.0,48,72,1,0.05625,46.98126099706745,18.73900293255132
47.0,55,81,0,0.05625,46.98266862170088,17.331378299120235
47.0625,45,71,0,0.05625,47.043604594330404,18.89540566959922
47.0625,67,76,1,0.05625,47.04438660801564,18.113391984359726
47.125,36,72,0,0.05625,47.10626099706745,18.73900293255132
47.125,48,80,1,0.05625,47.107512218963834,17.487781036168133
47.1875,45,80,0,0.05625,47.170012218963834,17.487781036168133
47.1875,57,85,1,0.05625,47.17079423264907,16.705767350928642
47.25,43,73,0,0.05625,47.2314173998045,18.58260019550342
47.25,60,77,1,0.05625,47.23204301075269,17.956989247311828
47.3125,60,76,1,0.05625,47.29438660801564,18.113391984359726
47.3125,36,83,0,0.05625,47.29548142717498,17.01857282502444
47.375,52,69,0,0.05625,47.35579178885631,19.208211143695017
47.375,57,77,1,0.05625,47.35704301075269,17.956989247311828
47.4375,36,70,0,0.05625,47.418448191593356,19.05180840664712
47.4375,60,77,1,0.05625,47.41954301075269,17.956989247311828
47.5,43,70,0,0.05625,47.480948191593356,19.05180840664712
47.5,67,73,1,0.05625,47.4814173998045,18.58260019550342
47.5625,38,72,0,0.05625,47.54376099706745,18.73900293255132
47.5625,48,86,1,0.05625,47.54595063538612,16.549364613880744
47.625,36,74,1,0.05625,47.60657380254155,18.426197458455523
47.625,45,75,0,0.05625,47.606730205278595,18.269794721407624
47.6875,55,73,1,0.05625,47.6689173998045,18.58260019550342
47.6875,50,79,0,0.05625,47.669855816226786,17.64418377321603
47.75,64,58,1,0.05625,47.729071358748776,20.928641251221897
47.75,43,71,0,0.05625,47.731104594330404,18.89540566959922
47.8125,45,70,0,0.05625,47.793448191593356,19.05180840664712
47.8125,48,73,1,0.05625,47.7939173998045,18.58260019550342
47.875,48,67,1,0.05625,47.85547898338221,19.521016617790814
47.875,48,78,0,0.05625,47.85719941348974,17.80058651026393
47.9375,48,70,0,0.05625,47.918448191593356,19.05180840664712
47.9375,36,81,1,0.05625,47.92016862170088,17.331378299120235
48.0,64,65,1,0.11138613861386139,47.98016617790811,19.83382209188661
48.0,48,71,0,0.1125,47.981104594330404,18.89540566959922
48.125,48,64,0,0.1125,48.10500977517106,19.990224828934508
48.12376237623762,55,74,1,0.11138613861386139,48.10533617877917,18.426197458455523
48.24752475247524,55,66,1,0.11138613861386139,48.2278473331204,19.67741935483871
48.25,50,67,0,0.1125,48.23047898338221,19.521016617790814
48.371287128712865,48,66,1,0.11138613861386139,48.35160970935802,19.67741935483871
48.375,50,73,0,0.1125,48.3564173998045,18.58260019550342
48.49504950495049,57,68,1,0.11138613861386139,48.47568489106975,19.364613880742915
48.5,48,71,0,0.1125,48.481104594330404,18.89540566959922
48.61881188118811,57,60,1,0.11138613861386139,48.59819604541098,20.6158357771261
48.625,40,65,0,0.1125,48.60516617790811,19.83382209188661
48.74257425742573,57,62,1,0.11138613861386139,48.7222712271227,20.303030303030305
48.75,50,71,0,0.1125,48.731104594330404,18.89540566959922
48.86633663366335,57,62,1,0.11138613861386139,48.84603360336032,20.303030303030305
48.875,45,64,0,0.1125,48.85500977517106,19.990224828934508
48.99009900990097,55,66,1,0.11138613861386139,48.97042159054613,19.67741935483871
49.0,43,67,0,0.1125,48.98047898338221,19.521016617790814
49.113861386138595,55,63,1,0.11138613861386139,49.09371475857261,20.146627565982406
49.125,45,69,0,0.1125,49.10579178885631,19.208211143695017
49.23762376237622,62,67,1,0.11138613861386139,49.21810274575843,19.521016617790814
49.25,40,60,0,0.1125,49.22938416422287,20.6158357771261
49.36138613861384,57,64,1,0.11138613861386139,49.3413959137849,19.990224828934508
49.375,52,65,0,0.1125,49.35516617790811,19.83382209188661
49.48514851485146,62,70,1,0.11138613861386139,49.466096706444816,19.05180840664712
49.5,48,58,0,0.1125,49.479071358748776,20.928641251221897
49.60891089108908,60,60,1,0.11138613861386139,49.58829505531195,20.6158357771261
49.625,43,63,0,0.1125,49.604853372434015,20.146627565982406
49.7326732673267,60,66,1,0.11138613861386139,49.71299584797186,19.67741935483871
49.75,52,64,0,0.1125,49.73000977517106,19.990224828934508
49.856435643564325,57,65,1,0.11138613861386139,49.836601821472435,19.83382209188661
49.875,50,65,0,0.1125,49.85516617790811,19.83382209188661
49.980198019801946,57,64,1,0.11138613861386139,49.96020779497301,19.990224828934508
50.0,43,66,0,0.1125,49.98032258064516,19.67741935483871
50.10396039603957,64,65,1,0.11138613861386139,50.08412657394768,19.83382209188661
50.125,36,62,0,0.1125,50.10469696969697,20.303030303030305
50.22772277227719,55,61,1,0.11138613861386139,50.20726333923711,20.459433040078203
50.25,52,63,0,0.1125,50.229853372434015,20.146627565982406
50.35148514851481,60,64,1,0.11138613861386139,50.331494923685874,19.990224828934508
50.375,48,68,0,0.1125,50.35563538611926,19.364613880742915
50.47524752475243,60,69,1,0.11138613861386139,50.45603931360874,19.208211143695017
50.5,48,62,0,0.1125,50.47969696969697,20.303030303030305
50.599009900990055,62,67,1,0.11138613861386139,50.57948888437227,19.521016617790814
50.625,40,63,0,0.1125,50.604853372434015,20.146627565982406
50.722772277227676,55,64,1,0.11138613861386139,50.70278205239874,19.990224828934508
50.75,43,68,0,0.1125,50.73063538611926,19.364613880742915
50.8465346534653,60,61,1,0.11138613861386139,50.82607522042522,20.459433040078203
50.875,45,57,0,0.1125,50.85391495601173,21.085043988269796
50.97029702970292,48,65,1,0.11138613861386139,50.95046320761103,19.83382209188661
51.0,52,59,0,0.1125,50.979227761485824,20.772238514174
51.09405940594054,57,63,1,0.11138613861386139,51.073912778374556,20.146627565982406
51.125,45,63,0,0.1125,51.104853372434015,20.146627565982406
51.21782178217816,64,66,1,0.11138613861386139,51.19814436282332,19.67741935483871
51.25,45,68,0,0.1125,51.23063538611926,19.364613880742915
51.341584158415785,52,66,1,0.11138613861386139,51.32190673906094,19.67741935483871
51.375,45,66,0,0.1125,51.35532258064516,19.67741935483871
51.465346534653406,57,67,1,0.11138613861386139,51.44582551803562,19.521016617790814
51.5,43,69,0,0.1125,51.48079178885631,19.208211143695017
51.58910891089103,67,68,1,0.11138613861386139,51.56974429701029,19.364613880742915
51.625,52,65,0,0.1125,51.60516617790811,19.83382209188661
51.71287128712865,62,66,1,0.11138613861386139,51.69319386777381,19.67741935483871
51.75,36,66,0,0.1125,51.73032258064516,19.67741935483871
51.83663366336627,57,69,1,0.11138613861386139,51.81742545222258,19.208211143695017
51.875,36,62,0,0.1125,51.85469696969697,20.303030303030305
51.96039603960389,60,60,1,0.11138613861386139,51.939780203826764,20.6158357771261
52.0,48,67,0,0.1125,51.98047898338221,19.521016617790814
52.084158415841515,60,67,1,0.11138613861386139,52.06463739922373,19.521016617790814
52.125,48,66,0,0.1125,52.10532258064516,19.67741935483871
52.207920792079136,67,67,1,0.11138613861386139,52.18839977546135,19.521016617790814
52.25,55,62,0,0.1125,52.22969696969697,20.303030303030305
52.33168316831676,67,61,1,0.11138613861386139,52.31122373527668,20.459433040078203
52.375,43,62,0,0.1125,52.35469696969697,20.303030303030305
52.45544554455438,55,71,1,0.11138613861386139,52.43655013888478,18.89540566959922
52.5,48,69,0,0.1125,52.48079178885631,19.208211143695017
52.579207920792,48,66,1,0.11138613861386139,52.55953050143716,19.67741935483871
52.625,45,64,0,0.1125,52.60500977517106,19.990224828934508
52.70297029702962,67,68,1,0.11138613861386139,52.68360568314888,19.364613880742915
52.75,48,62,0,0.1125,52.72969696969697,20.303030303030305
52.826732673267244,67,69,1,0.11138613861386139,52.80752446212355,19.208211143695017
52.875,43,60,0,0.1125,52.85438416422287,20.6158357771261
52.950495049504866,55,61,1,0.11138613861386139,52.930035616464785,20.459433040078203
53.0,43,68,0,0.1125,52.98063538611926,19.364613880742915
53.07425742574249,57,68,1,0.11138613861386139,53.05489281186175,19.364613880742915
53.125,43,61,0,0.1125,53.10454056695992,20.459433040078203
53.19801980198011,62,59,1,0.11138613861386139,53.17724756346593,20.772238514174
53.25,43,66,0,0.1125,53.23032258064516,19.67741935483871
53.32178217821773,52,68,1,0.11138613861386139,53.30241756433699,19.364613880742915
53.375,43,57,0,0.1125,53.35391495601173,21.085043988269796
53.44554455445535,57,63,1,0.11138613861386139,53.42539792688937,20.146627565982406
53.5,52,63,0,0.1125,53.479853372434015,20.146627565982406
53.569306930692974,57,62,1,0.11138613861386139,53.54900390038994,20.303030303030305
53.625,48,66,0,0.1125,53.60532258064516,19.67741935483871
53.693069306930596,60,67,1,0.11138613861386139,53.67354829031281,19.521016617790814
53.75,52,67,0,0.1125,53.73047898338221,19.521016617790814
53.81683168316822,48,55,1,0.11138613861386139,53.79543383370585,21.397849462365592
53.875,43,67,0,0.1125,53.85547898338221,19.521016617790814
53.94059405940584,55,63,1,0.11138613861386139,53.920447431839854,20.146627565982406
54.0,48,64,0,0.1125,53.98000977517106,19.990224828934508
54.06435643564346,57,66,1,0.11138613861386139,54.04467901628862,19.67741935483871
54.125,48,64,0,0.1125,54.10500977517106,19.990224828934508
54.18811881188108,60,66,1,0.11138613861386139,54.16844139252624,19.67741935483871
54.25,43,68,0,0.1125,54.23063538611926,19.364613880742915
54.311881188118704,55,56,1,0.11138613861386139,54.290639741393385,21.241446725317694
54.375,50,60,0,0.1125,54.35438416422287,20.6158357771261
54.435643564356326,57,72,1,0.11138613861386139,54.41690456142378,18.73900293255132
54.5,52,71,0,0.1125,54.481104594330404,18.89540566959922
54.55940594059395,62,66,1,0.11138613861386139,54.539728521239105,19.67741935483871
54.625,43,66,0,0.1125,54.60532258064516,19.67741935483871
54.68316831683157,57,66,1,0.11138613861386139,54.66349089747673,19.67741935483871
54.75,36,68,0,0.1125,54.73063538611926,19.364613880742915
54.80693069306919,60,62,1,0.11138613861386139,54.78662766276616,20.303030303030305
54.875,36,67,0,0.1125,54.85547898338221,19.521016617790814
54.93069306930681,60,64,1,0.11138613861386139,54.910702844477875,19.990224828934508
55.0,43,66,0,0.1125,54.98032258064516,19.67741935483871
55.054455445544434,57,68,1,0.11138613861386139,55.035090831663695,19.364613880742915
55.125,43,59,0,0.1125,55.104227761485824,20.772238514174
55.178217821782056,60,67,1,0.11138613861386139,55.15869680516427,19.521016617790814
55.25,36,71,0,0.1125,55.231104594330404,18.89540566959922
55.30198019801968,60,61,1,0.11138613861386139,55.2815207649796,20.459433040078203
55.375,48,69,0,0.1125,55.35579178885631,19.208211143695017
55.4257425742573,60,65,1,0.11138613861386139,55.40590875216541,19.83382209188661
55.5,36,66,0,0.1125,55.48032258064516,19.67741935483871
55.54950495049492,57,60,1,0.11138613861386139,55.52888911471779,20.6158357771261
55.625,50,65,0,0.1125,55.60516617790811,19.83382209188661
55.67326732673254,64,52,1,0.11138613861386139,55.65140026905903,21.867057673509287
55.75,38,66,0,0.1125,55.73032258064516,19.67741935483871
55.797029702970164,55,70,1,0.11138613861386139,55.77797789456352,19.05180840664712
55.875,40,73,0,0.1125,55.8564173998045,18.58260019550342
55.920792079207786,55,66,1,0.11138613861386139,55.901114659852944,19.67741935483871
56.0,50,65,0,0.1125,55.98016617790811,19.83382209188661
56.04455445544541,67,67,1,0.11138613861386139,56.02503343882762,19.521016617790814
56.125,48,68,0,0.1125,56.10563538611926,19.364613880742915
56.16831683168303,64,63,1,0.11138613861386139,56.148170204117044,20.146627565982406
56.25,50,67,0,0.1125,56.23047898338221,19.521016617790814
56.29207920792065,62,65,1,0.11138613861386139,56.27224538582876,19.83382209188661
56.375,36,64,0,0.1125,56.35500977517106,19.990224828934508
56.41584158415827,50,61,1,0.11138613861386139,56.39538215111819,20.459433040078203
56.5,36,64,0,0.1125,56.48000977517106,19.990224828934508
56.539603960395894,57,61,1,0.11138613861386139,56.51914452735581,20.459433040078203
56.625,43,66,0,0.1125,56.60532258064516,19.67741935483871
56.663366336633516,52,63,1,0.11138613861386139,56.64321970906753,20.146627565982406
56.75,50,68,0,0.1125,56.73063538611926,19.364613880742915
56.78712871287114,48,68,1,0.11138613861386139,56.7677640989904,19.364613880742915
56.875,52,61,0,0.1125,56.85454056695992,20.459433040078203
56.91089108910876,55,70,1,0.11138613861386139,56.891839280702115,19.05180840664712
57.0,43,66,0,0.1125,56.98032258064516,19.67741935483871
57.03465346534638,57,67,1,0.11138613861386139,57.01513244872859,19.521016617790814
57.125,36,63,0,0.1125,57.104853372434015,20.146627565982406
57.158415841584,64,69,1,0.11138613861386139,57.13920763044031,19.208211143695017
57.25,50,71,0,0.1125,57.231104594330404,18.89540566959922
57.282178217821624,60,68,1,0.11138613861386139,57.262813603940884,19.364613880742915
57.375,50,66,0,0.1125,57.35532258064516,19.67741935483871
57.405940594059246,57,61,1,0.11138613861386139,57.385481161019165,20.459433040078203
57.5,43,60,0,0.1125,57.47938416422287,20.6158357771261
57.52970297029687,57,64,1,0.11138613861386139,57.50971274546793,19.990224828934508
57.625,43,69,0,0.1125,57.60579178885631,19.208211143695017
57.65346534653449,57,64,1,0.11138613861386139,57.63347512170555,19.990224828934508
57.75,45,67,0,0.1125,57.73047898338221,19.521016617790814
57.77722772277211,57,66,1,0.11138613861386139,57.75755030341727,19.67741935483871
57.875,52,67,0,0.1125,57.85547898338221,19.521016617790814
57.90099009900973,60,64,1,0.11138613861386139,57.880999874180795,19.990224828934508
58.0,40,69,0,0.1125,57.98079178885631,19.208211143695017
58.024752475247354,55,62,1,0.11138613861386139,58.00444944494432,20.303030303030305
58.125,45,60,0,0.1125,58.10438416422287,20.6158357771261
58.148514851484975,62,72,1,0.11138613861386139,58.12977584855243,18.73900293255132
58.25,48,66,0,0.1125,58.23032258064516,19.67741935483871
58.2722772277226,64,64,1,0.11138613861386139,58.25228700289366,19.990224828934508
58.375,52,62,0,0.1125,58.35469696969697,20.303030303030305
58.39603960396022,55,69,1,0.11138613861386139,58.37683139281653,19.208211143695017
58.5,48,61,0,0.1125,58.47954056695992,20.459433040078203
58.51980198019784,55,63,1,0.11138613861386139,58.499655352631855,20.146627565982406
58.625,52,63,0,0.1125,58.604853372434015,20.146627565982406
58.64356435643546,64,59,1,0.11138613861386139,58.622792117921286,20.772238514174
58.75,45,60,0,0.1125,58.72938416422287,20.6158357771261
58.767326732673084,62,65,1,0.11138613861386139,58.747492910581194,19.83382209188661
58.875,40,65,0,0.1125,58.85516617790811,19.83382209188661
58.891089108910705,60,71,1,0.11138613861386139,58.87219370324111,18.89540566959922
59.0,45,63,0,0.1125,58.979853372434015,20.146627565982406
59.01485148514833,55,70,1,0.11138613861386139,58.99579967674168,19.05180840664712
59.125,48,63,0,0.1125,59.104853372434015,20.146627565982406
59.13861386138595,62,61,1,0.11138613861386139,59.11815442834587,20.459433040078203
59.25,48,61,0,0.1125,59.22954056695992,20.459433040078203
59.26237623762357,48,63,1,0.11138613861386139,59.242229610057585,20.146627565982406
59.375,36,66,0,0.1125,59.35532258064516,19.67741935483871
59.38613861386119,60,67,1,0.11138613861386139,59.366617597243405,19.521016617790814
59.5,43,72,0,0.1125,59.48126099706745,18.73900293255132
59.509900990098814,55,65,1,0.11138613861386139,59.490067168006924,19.83382209188661
59.625,52,66,0,0.1125,59.60532258064516,19.67741935483871
59.633663366336435,60,69,1,0.11138613861386139,59.61445515519274,19.208211143695017
59.75,48,60,0,0.1125,59.72938416422287,20.6158357771261
59.75742574257406,69,66,1,0.11138613861386139,59.737748323219215,19.67741935483871
59.875,43,65,0,0.1125,59.85516617790811,19.83382209188661
59.88118811881168,57,64,1,0.11138613861386139,59.86119789398274,19.990224828934508
60.0,43,62,0,0.1125,59.97969696969697,20.303030303030305
60.0049504950493,60,61,1,0.11138613861386139,59.98449106200922,20.459433040078203
60.125,50,58,0,0.1125,60.104071358748776,20.928641251221897
60.12871287128692,48,62,1,0.11138613861386139,60.10840984098389,20.303030303030305
60.25,52,66,0,0.1125,60.23032258064516,19.67741935483871
60.25247524752454,60,66,1,0.11138613861386139,60.2327978281697,19.67741935483871
60.375,55,61,0,0.1125,60.35454056695992,20.459433040078203
60.376237623762165,55,63,1,0.11138613861386139,60.35609099619618,20.146627565982406
60.49999999999979,57,64,1,0.11138613861386139,60.48000977517085,19.990224828934508
60.5,45,68,0,0.1125,60.48063538611926,19.364613880742915
60.62376237623741,64,57,1,0.11138613861386139,60.60267733224914,21.085043988269796
60.625,43,72,0,0.1125,60.60626099706745,18.73900293255132
60.74752475247503,60,69,1,0.11138613861386139,60.72831654133134,19.208211143695017
60.75,48,62,0,0.1125,60.72969696969697,20.303030303030305
60.87128712871265,60,61,1,0.11138613861386139,60.85082769567257,20.459433040078203
60.875,45,61,0,0.1125,60.85454056695992,20.459433040078203
60.99504950495027,52,61,1,0.11138613861386139,60.97459007191019,20.459433040078203
61.0,45,60,0,0.1125,60.97938416422287,20.6158357771261
61.118811881187895,64,68,1,0.11138613861386139,61.099447267307156,19.364613880742915
61.125,36,67,0,0.1125,61.10547898338221,19.521016617790814
61.24257425742552,64,65,1,0.11138613861386139,61.22274043533363,19.83382209188661
61.25,55,68,0,0.1125,61.23063538611926,19.364613880742915
61.36633663366314,60,65,1,0.11138613861386139,61.34650281157125,19.83382209188661
61.375,57,65,0,0.1125,61.35516617790811,19.83382209188661
61.49009900990076,62,63,1,0.11138613861386139,61.469952382334775,20.146627565982406
61.5,48,61,0,0.1125,61.47954056695992,20.459433040078203
61.61386138613838,57,65,1,0.11138613861386139,61.59402756404649,19.83382209188661
61.625,45,65,0,0.1125,61.60516617790811,19.83382209188661
61.737623762376,57,63,1,0.11138613861386139,61.71747713481002,20.146627565982406
61.75,36,62,0,0.1125,61.72969696969697,20.303030303030305
61.861386138613625,57,64,1,0.11138613861386139,61.84139591378469,19.990224828934508
61.875,50,65,0,0.1125,61.85516617790811,19.83382209188661
61.98514851485125,48,62,1,0.11138613861386139,61.96484548454821,20.303030303030305
62.0,36,61,0,0.1125,61.97954056695992,20.459433040078203
62.10891089108887,60,65,1,0.11138613861386139,62.08907706899698,19.83382209188661
62.125,50,67,0,0.1125,62.10547898338221,19.521016617790814
62.23267326732649,57,67,1,0.11138613861386139,62.2131522507087,19.521016617790814
62.25,48,64,0,0.1125,62.23000977517106,19.990224828934508
62.35643564356411,62,62,1,0.11138613861386139,62.33613261326108,20.303030303030305
62.375,40,64,0,0.1125,62.35500977517106,19.990224828934508
62.48019801980173,62,72,1,0.11138613861386139,62.461459016869185,18.73900293255132
62.5,36,69,0,0.1125,62.48079178885631,19.208211143695017
62.603960396039355,67,66,1,0.11138613861386139,62.58428297668451,19.67741935483871
62.625,52,66,0,0.1125,62.60532258064516,19.67741935483871
62.72772277227698,55,68,1,0.11138613861386139,62.70835815839624,19.364613880742915
62.75,43,66,0,0.1125,62.73032258064516,19.67741935483871
62.8514851485146,57,59,1,0.11138613861386139,62.83071291000042,20.772238514174
62.875,50,65,0,0.1125,62.85516617790811,19.83382209188661
62.97524752475222,60,63,1,0.11138613861386139,62.955100897186234,20.146627565982406
63.0,55,66,0,0.1125,62.98032258064516,19.67741935483871
63.09900990098984,55,59,1,0.11138613861386139,63.078237662475665,20.772238514174
63.125,36,63,0,0.1125,63.104853372434015,20.146627565982406
63.22277227722746,52,66,1,0.11138613861386139,63.20309485787262,19.67741935483871
63.25,48,67,0,0.1125,63.23047898338221,19.521016617790814
63.346534653465085,57,60,1,0.11138613861386139,63.325918817687956,20.6158357771261
63.375,50,70,0,0.1125,63.355948191593356,19.05180840664712
63.47029702970271,48,69,1,0.11138613861386139,63.451088818559015,19.208211143695017
63.5,48,65,0,0.1125,63.48016617790811,19.83382209188661
63.59405940594033,62,58,1,0.11138613861386139,63.573130764689104,20.928641251221897
63.625,43,67,0,0.1125,63.60547898338221,19.521016617790814
63.71782178217795,62,57,1,0.11138613861386139,63.69673673818968,21.085043988269796
63.75,48,68,0,0.1125,63.73063538611926,19.364613880742915
63.84158415841557,64,67,1,0.11138613861386139,63.822063141797784,19.521016617790814
63.875,45,73,0,0.1125,63.8564173998045,18.58260019550342
63.96534653465319,48,71,1,0.11138613861386139,63.9464511289836,18.89540566959922
64.0,67,68,1,0.05625,63.98063538611926,19.364613880742915
64.0,48,73,0,0.05625,63.9814173998045,18.58260019550342
64.0625,50,70,0,0.05625,64.04344819159336,19.05180840664712
64.0625,55,76,1,0.05625,64.04438660801564,18.113391984359726
64.125,45,73,0,0.05625,64.1064173998045,18.58260019550342
64.125,64,75,1,0.05625,64.1067302052786,18.269794721407624
64.1875,52,78,0,0.05625,64.16969941348974,17.80058651026393
64.1875,67,79,1,0.05625,64.16985581622679,17.64418377321603
64.25,52,68,1,0.05625,64.23063538611926,19.364613880742915
64.25,43,74,0,0.05625,64.23157380254155,18.426197458455523
64.3125,57,70,1,0.05625,64.29344819159336,19.05180840664712
64.3125,43,80,0,0.05625,64.29501221896383,17.487781036168133
64.375,50,66,0,0.05625,64.35532258064516,19.67741935483871
64.375,50,68,1,0.05625,64.35563538611926,19.364613880742915
64.4375,55,74,0,0.05625,64.41907380254155,18.426197458455523
64.4375,57,76,1,0.05625,64.41938660801564,18.113391984359726
64.5,50,78,0,0.05625,64.48219941348974,17.80058651026393
64.5,52,80,1,0.05625,64.48251221896383,17.487781036168133
64.5625,52,80,0,0.05625,64.54501221896383,17.487781036168133
64.5625,69,82,1,0.05625,64.54532502443793,17.174975562072337
64.625,48,75,0,0.05625,64.6067302052786,18.269794721407624
64.625,69,75,1,0.05625,64.6067302052786,18.269794721407624
64.6875,43,75,0,0.05625,64.6692302052786,18.269794721407624
64.6875,62,80,1,0.05625,64.67001221896383,17.487781036168133
64.75,52,64,0,0.05625,64.73000977517107,19.990224828934508
64.75,52,79,1,0.05625,64.73235581622679,17.64418377321603
64.8125,57,77,1,0.05625,64.79454301075269,17.956989247311828
64.8125,45,86,0,0.05625,64.79595063538612,16.549364613880744
64.875,40,74,0,0.05625,64.85657380254155,18.426197458455523
64.875,60,84,1,0.05625,64.85813782991202,16.86217008797654
64.9375,48,77,0,0.05625,64.91954301075269,17.956989247311828
64.9375,62,87,1,0.05625,64.92110703812317,16.392961876832846
65.0,60,69,1,0.05625,64.98079178885631,19.208211143695017
65.0,40,76,0,0.05625,64.98188660801564,18.113391984359726
65.0625,55,82,1,0.05625,65.04532502443793,17.174975562072337
65.0625,52,85,0,0.05625,65.04579423264907,16.705767350928642
65.125,64,71,1,0.05625,65.1061045943304,18.89540566959922
65.125,24,72,0,0.05625,65.10626099706745,18.73900293255132
65.1875,43,75,0,0.05625,65.1692302052786,18.269794721407624
65.1875,57,86,1,0.05625,65.17095063538612,16.549364613880744
65.25,48,84,0,0.05625,65.23313782991202,16.86217008797654
65.25,64,84,1,0.05625,65.23313782991202,16.86217008797654
65.3125,50,68,0,0.05625,65.29313538611926,19.364613880742915
65.3125,50,80,1,0.05625,65.29501221896383,17.487781036168133
65.375,72,77,1,0.05625,65.35704301075269,17.956989247311828
65.375,45,80,0,0.05625,65.35751221896383,17.487781036168133
65.4375,62,76,0,0.05625,65.41938660801564,18.113391984359726
65.4375,62,80,1,0.05625,65.42001221896383,17.487781036168133
65.5,48,62,1,0.05625,65.47969696969697,20.303030303030305
65.5,43,78,0,0.05625,65.48219941348974,17.80058651026393
65.5625,52,70,1,0.05625,65.54344819159336,19.05180840664712
65.5625,52,71,0,0.05625,65.5436045943304,18.89540566959922
65.625,60,71,1,0.05625,65.6061045943304,18.89540566959922
65.625,48,77,0,0.05625,65.60704301075269,17.956989247311828
65.6875,45,64,0,0.05625,65.66750977517107,19.990224828934508
65.6875,57,73,1,0.05625,65.6689173998045,18.58260019550342
65.75,50,75,0,0.05625,65.7317302052786,18.269794721407624
65.75,62,86,1,0.05625,65.73345063538612,16.549364613880744
65.8125,38,78,0,0.05625,65.79469941348974,17.80058651026393
65.8125,67,79,1,0.05625,65.79485581622679,17.64418377321603
65.875,36,73,0,0.05625,65.8564173998045,18.58260019550342
65.875,64,84,1,0.05625,65.85813782991202,16.86217008797654
65.9375,62,69,1,0.05625,65.91829178885631,19.208211143695017
65.9375,45,81,0,0.05625,65.92016862170088,17.331378299120235
66.0,36,68,0,0.05625,65.98063538611926,19.364613880742915
66.0,52,84,1,0.05625,65.98313782991202,16.86217008797654
66.0625,36,77,0,0.05625,66.04454301075269,17.956989247311828
66.0625,64,83,1,0.05625,66.04548142717498,17.01857282502444
66.125,50,71,0,0.05625,66.1061045943304,18.89540566959922
66.125,60,78,1,0.05625,66.10719941348974,17.80058651026393
66.1875,67,67,1,0.05625,66.16797898338221,19.521016617790814
66.1875,45,71,0,0.05625,66.1686045943304,18.89540566959922
66.25,45,78,0,0.05625,66.23219941348974,17.80058651026393
66.25,67,82,1,0.05625,66.23282502443793,17.174975562072337
66.3125,40,72,0,0.05625,66.29376099706745,18.73900293255132
66.3125,48,77,1,0.05625,66.29454301075269,17.956989247311828
66.375,50,74,0,0.05625,66.35657380254155,18.426197458455523
66.375,62,76,1,0.05625,66.35688660801564,18.113391984359726
66.4375,69,83,1,0.05625,66.42048142717498,17.01857282502444
66.4375,55,86,0,0.05625,66.42095063538612,16.549364613880744
66.5,48,69,0,0.05625,66.48079178885631,19.208211143695017
66.5,62,70,1,0.05625,66.48094819159336,19.05180840664712
66.5625,52,73,0,0.05625,66.5439173998045,18.58260019550342
66.5625,55,80,1,0.05625,66.54501221896383,17.487781036168133
66.625,55,69,0,0.05625,66.60579178885631,19.208211143695017
66.625,60,82,1,0.05625,66.60782502443793,17.174975562072337
66.6875,48,69,1,0.05625,66.66829178885631,19.208211143695017
66.6875,36,83,0,0.05625,66.67048142717498,17.01857282502444
66.75,50,73,0,0.05625,66.7314173998045,18.58260019550342
66.75,57,73,1,0.05625,66.7314173998045,18.58260019550342
66.8125,48,77,0,0.05625,66.79454301075269,17.956989247311828
66.8125,64,77,1,0.05625,66.79454301075269,17.956989247311828
66.875,67,83,1,0.05625,66.85798142717498,17.01857282502444
66.875,45,84,0,0.05625,66.85813782991202,16.86217008797654
66.9375,50,62,0,0.05625,66.91719696969697,20.303030303030305
66.9375,69,77,1,0.05625,66.91954301075269,17.956989247311828
67.0,55,64,1,0.05625,66.98000977517107,19.990224828934508
67.0,50,77,0,0.05625,66.98204301075269,17.956989247311828
67.0625,45,72,1,0.05625,67.04376099706745,18.73900293255132
67.0625,36,74,0,0.05625,67.04407380254155,18.426197458455523
67.125,45,75,1,0.05625,67.1067302052786,18.269794721407624
67.125,43,95,0,0.05625,67.10985826001955,15.141739980449657
67.1875,67,73,1,0.05625,67.1689173998045,18.58260019550342
67.1875,36,77,0,0.05625,67.16954301075269,17.956989247311828
67.25,50,77,1,0.05625,67.23204301075269,17.956989247311828
67.25,57,78,0,0.05625,67.23219941348974,17.80058651026393
67.3125,45,74,0,0.05625,67.29407380254155,18.426197458455523
67.3125,55,77,1,0.05625,67.29454301075269,17.956989247311828
67.375,57,68,1,0.05625,67.35563538611926,19.364613880742915
67.375,50,78,0,0.05625,67.35719941348974,17.80058651026393
67.4375,45,61,0,0.05625,67.41704056695993,20.459433040078203
67.4375,55,73,1,0.05625,67.4189173998045,18.58260019550342
67.5,45,60,0,0.05625,67.47938416422288,20.6158357771261
67.5,57,76,1,0.05625,67.48188660801564,18.113391984359726
67.5625,48,80,1,0.05625,67.54501221896383,17.487781036168133
67.5625,52,83,0,0.05625,67.54548142717498,17.01857282502444
67.625,40,73,0,0.05625,67.6064173998045,18.58260019550342
67.625,55,74,1,0.05625,67.60657380254155,18.426197458455523
67.6875,48,67,1,0.05625,67.66797898338221,19.521016617790814
67.6875,36,78,0,0.05625,67.66969941348974,17.80058651026393
67.75,45,76,0,0.05625,67.73188660801564,18.113391984359726
67.75,50,76,1,0.05625,67.73188660801564,18.113391984359726
67.8125,48,66,1,0.05625,67.79282258064516,19.67741935483871
67.8125,48,78,0,0.05625,67.79469941348974,17.80058651026393
67.875,43,72,0,0.05625,67.85626099706745,18.73900293255132
67.875,60,79,1,0.05625,67.85735581622679,17.64418377321603
67.9375,60,65,1,0.05625,67.91766617790812,19.83382209188661
67.9375,50,74,0,0.05625,67.91907380254155,18.426197458455523
68.0,50,74,0,0.05625,67.98157380254155,18.426197458455523
68.0,48,87,1,0.05625,67.98360703812317,16.392961876832846
68.0625,48,83,0,0.05625,68.04548142717498,17.01857282502444
68.0625,64,89,1,0.05625,68.04641984359726,16.080156402737046
68.125,55,77,1,0.05625,68.10704301075269,17.956989247311828
68.125,36,78,0,0.05625,68.10719941348974,17.80058651026393
68.1875,55,78,1,0.05625,68.16969941348974,17.80058651026393
68.1875,36,79,0,0.05625,68.16985581622679,17.64418377321603
68.25,36,71,0,0.05625,68.2311045943304,18.89540566959922
68.25,60,74,1,0.05625,68.23157380254155,18.426197458455523
68.3125,50,72,0,0.05625,68.29376099706745,18.73900293255132
68.3125,55,85,1,0.05625,68.29579423264907,16.705767350928642
68.375,62,79,1,0.05625,68.35735581622679,17.64418377321603
68.375,55,84,0,0.05625,68.35813782991202,16.86217008797654
68.4375,57,76,1,0.05625,68.41938660801564,18.113391984359726
68.4375,38,79,0,0.05625,68.41985581622679,17.64418377321603
68.5,62,71,1,0.05625,68.4811045943304,18.89540566959922
68.5,55,78,0,0.05625,68.48219941348974,17.80058651026393
68.5625,64,71,1,0.05625,68.5436045943304,18.89540566959922
68.5625,52,83,0,0.05625,68.54548142717498,17.01857282502444
68.625,64,67,1,0.05625,68.60547898338221,19.521016617790814
68.625,52,77,0,0.05625,68.60704301075269,17.956989247311828
68.6875,52,72,1,0.05625,68.66876099706745,18.73900293255132
68.6875,55,79,0,0.05625,68.66985581622679,17.64418377321603
68.75,43,67,1,0.05625,68.73047898338221,19.521016617790814
68.75,60,78,0,0.05625,68.73219941348974,17.80058651026393
68.8125,52,71,1,0.05625,68.7936045943304,18.89540566959922
68.8125,57,77,0,0.05625,68.79454301075269,17.956989247311828
68.875,36,70,0,0.05625,68.85594819159336,19.05180840664712
68.875,52,71,1,0.05625,68.8561045943304,18.89540566959922
68.9375,64,74,1,0.05625,68.91907380254155,18.426197458455523
68.9375,50,78,0,0.05625,68.91969941348974,17.80058651026393
69.0,50,69,0,0.05625,68.98079178885631,19.208211143695017
69.0,60,70,1,0.05625,68.98094819159336,19.05180840664712
69.0625,48,71,0,0.05625,69.0436045943304,18.89540566959922
69.0625,62,73,1,0.05625,69.0439173998045,18.58260019550342
69.125,43,75,0,0.05625,69.1067302052786,18.269794721407624
69.125,60,75,1,0.05625,69.1067302052786,18.269794721407624
69.1875,57,74,1,0.05625,69.16907380254155,18.426197458455523
69.1875,50,81,0,0.05625,69.17016862170088,17.331378299120235
69.25,43,74,0,0.05625,69.23157380254155,18.426197458455523
69.25,55,75,1,0.05625,69.2317302052786,18.269794721407624
69.3125,52,73,0,0.05625,69.2939173998045,18.58260019550342
69.3125,52,83,1,0.05625,69.29548142717498,17.01857282502444
69.375,48,71,0,0.05625,69.3561045943304,18.89540566959922
69.375,52,83,1,0.05625,69.35798142717498,17.01857282502444
69.4375,69,58,1,0.05625,69.41657135874878,20.928641251221897
69.4375,40,69,0,0.05625,69.41829178885631,19.208211143695017
69.5,45,71,1,0.05625,69.4811045943304,18.89540566959922
69.5,40,78,0,0.05625,69.48219941348974,17.80058651026393
69.5625,45,73,0,0.05625,69.5439173998045,18.58260019550342
69.5625,64,82,1,0.05625,69.54532502443793,17.174975562072337
69.625,38,71,0,0.05625,69.6061045943304,18.89540566959922
69.625,52,81,1,0.05625,69.60766862170088,17.331378299120235
69.6875,55,68,1,0.05625,69.66813538611926,19.364613880742915
69.6875,50,92,0,0.05625,69.6718890518084,15.610948191593351
69.75,62,64,1,0.05625,69.73000977517107,19.990224828934508
69.75,36,68,0,0.05625,69.73063538611926,19.364613880742915
69.8125,72,68,1,0.05625,69.79313538611926,19.364613880742915
69.8125,45,69,0,0.05625,69.79329178885631,19.208211143695017
69.875,57,73,1,0.05625,69.8564173998045,18.58260019550342
69.875,52,76,0,0.05625,69.85688660801564,18.113391984359726
69.9375,62,72,1,0.05625,69.91876099706745,18.73900293255132
69.9375,57,78,0,0.05625,69.91969941348974,17.80058651026393
70.0,62,74,0,0.05625,69.98157380254155,18.426197458455523
70.0,62,78,1,0.05625,69.98219941348974,17.80058651026393
70.0625,60,69,0,0.05625,70.04329178885631,19.208211143695017
70.0625,64,75,1,0.05625,70.0442302052786,18.269794721407624
70.125,36,70,0,0.05625,70.10594819159336,19.05180840664712
70.125,62,70,1,0.05625,70.10594819159336,19.05180840664712
70.1875,50,72,0,0.05625,70.16876099706745,18.73900293255132
70.1875,48,80,1,0.05625,70.17001221896383,17.487781036168133
70.25,43,68,0,0.05625,70.23063538611926,19.364613880742915
70.25,62,78,1,0.05625,70.23219941348974,17.80058651026393
70.3125,67,74,1,0.05625,70.29407380254155,18.426197458455523
70.3125,48,76,0,0.05625,70.29438660801564,18.113391984359726
70.375,43,73,0,0.05625,70.3564173998045,18.58260019550342
70.375,62,75,1,0.05625,70.3567302052786,18.269794721407624
70.4375,36,69,0,0.05625,70.41829178885631,19.208211143695017
70.4375,48,80,1,0.05625,70.42001221896383,17.487781036168133
70.5,43,83,0,0.05625,70.48298142717498,17.01857282502444
70.5,64,91,1,0.05625,70.48423264907136,15.76735092864125
70.5625,43,73,0,0.05625,70.5439173998045,18.58260019550342
70.5625,52,79,1,0.05625,70.54485581622679,17.64418377321603
70.625,55,61,0,0.05625,70.60454056695993,20.459433040078203
70.625,55,69,1,0.05625,70.60579178885631,19.208211143695017
70.6875,48,67,1,0.05625,70.66797898338221,19.521016617790814
70.6875,40,72,0,0.05625,70.66876099706745,18.73900293255132
70.75,31,74,0,0.05625,70.73157380254155,18.426197458455523
70.75,52,86,1,0.05625,70.73345063538612,16.549364613880744
70.8125,45,79,0,0.05625,70.79485581622679,17.64418377321603
70.8125,67,86,1,0.05625,70.79595063538612,16.549364613880744
70.875,57,75,0,0.05625,70.8567302052786,18.269794721407624
70.875,60,82,1,0.05625,70.85782502443793,17.174975562072337
70.9375,36,76,0,0.05625,70.91938660801564,18.113391984359726
70.9375,60,83,1,0.05625,70.92048142717498,17.01857282502444
71.0,55,69,1,0.05625,70.98079178885631,19.208211143695017
71.0,55,86,0,0.05625,70.98345063538612,16.549364613880744
71.0625,62,78,1,0.05625,71.04469941348974,17.80058651026393
71.0625,55,81,0,0.05625,71.04516862170088,17.331378299120235
71.125,57,71,0,0.05625,71.1061045943304,18.89540566959922
71.125,48,79,1,0.05625,71.10735581622679,17.64418377321603
71.1875,69,67,1,0.05625,71.16797898338221,19.521016617790814
71.1875,43,74,0,0.05625,71.16907380254155,18.426197458455523
71.25,52,78,1,0.05625,71.23219941348974,17.80058651026393
71.25,48,81,0,0.05625,71.23266862170088,17.331378299120235
71.3125,43,67,0,0.05625,71.29297898338221,19.521016617790814
71.3125,60,81,1,0.05625,71.29516862170088,17.331378299120235
71.375,55,66,1,0.05625,71.35532258064516,19.67741935483871
71.375,45,82,0,0.05625,71.35782502443793,17.174975562072337
71.4375,55,69,1,0.05625,71.41829178885631,19.208211143695017
71.4375,52,71,0,0.05625,71.4186045943304,18.89540566959922
71.5,57,77,1,0.05625,71.48204301075269,17.956989247311828
71.5,55,86,0,0.05625,71.48345063538612,16.549364613880744
71.5625,48,71,1,0.05625,71.5436045943304,18.89540566959922
71.5625,55,87,0,0.05625,71.54610703812317,16.392961876832846
71.625,52,69,0,0.05625,71.60579178885631,19.208211143695017
71.625,64,72,1,0.05625,71.60626099706745,18.73900293255132
71.6875,45,68,0,0.05625,71.66813538611926,19.364613880742915
71.6875,50,68,1,0.05625,71.66813538611926,19.364613880742915
71.75,64,67,1,0.05625,71.73047898338221,19.521016617790814
71.75,31,74,0,0.05625,71.73157380254155,18.426197458455523
71.8125,62,68,1,0.05625,71.79313538611926,19.364613880742915
71.8125,55,75,0,0.05625,71.7942302052786,18.269794721407624
71.875,52,78,1,0.05625,71.85719941348974,17.80058651026393
71.875,45,84,0,0.05625,71.85813782991202,16.86217008797654
71.9375,52,74,0,0.05625,71.91907380254155,18.426197458455523
71.9375,67,86,1,0.05625,71.92095063538612,16.549364613880744
72.0,52,68,0,0.1125,71.98063538611926,19.364613880742915
72.0,55,68,1,0.1125,71.98063538611926,19.364613880742915
72.125,40,68,0,0.1125,72.10563538611926,19.364613880742915
72.125,48,68,1,0.1125,72.10563538611926,19.364613880742915
72.25,45,68,0,0.1125,72.23063538611926,19.364613880742915
72.25,60,68,1,0.1125,72.23063538611926,19.364613880742915
72.375,36,68,0,0.1125,72.35563538611926,19.364613880742915
72.375,48,68,1,0.1125,72.35563538611926,19.364613880742915
72.5,48,68,0,0.1125,72.48063538611926,19.364613880742915
72.5,64,68,1,0.1125,72.48063538611926,19.364613880742915
72.625,43,68,0,0.1125,72.60563538611926,19.364613880742915
72.625,60,68,1,0.1125,72.60563538611926,19.364613880742915
72.75,50,68,0,0.1125,72.73063538611926,19.364613880742915
72.75,62,68,1,0.1125,72.73063538611926,19.364613880742915
72.875,45,68,0,0.1125,72.85563538611926,19.364613880742915
72.875,55,68,1,0.1125,72.85563538611926,19.364613880742915
73.0,36,68,0,0.1125,72.98063538611926,19.364613880742915
73.0,55,68,1,0.1125,72.98063538611926,19.364613880742915
73.125,43,68,0,0.1125,73.10563538611926,19.364613880742915
73.125,60,68,1,0.1125,73.10563538611926,19.364613880742915
73.25,55,68,0,0.1125,73.23063538611926,19.364613880742915
73.25,48,68,1,0.1125,73.23063538611926,19.364613880742915
73.375,50,68,0,0.1125,73.35563538611926,19.364613880742915
73.375,60,68,1,0.1125,73.35563538611926,19.364613880742915
73.5,43,68,0,0.1125,73.48063538611926,19.364613880742915
73.5,57,68,1,0.1125,73.48063538611926,19.364613880742915
73.625,55,68,0,0.1125,73.60563538611926,19.364613880742915
73.625,62,68,1,0.1125,73.60563538611926,19.364613880742915
73.75,52,68,0,0.1125,73.73063538611926,19.364613880742915
73.75,55,68,1,0.1125,73.73063538611926,19.364613880742915
73.875,52,68,0,0.1125,73.85563538611926,19.364613880742915
73.875,64,68,1,0.1125,73.85563538611926,19.364613880742915
74.0,36,68,0,0.1125,73.98063538611926,19.364613880742915
74.0,50,68,1,0.1125,73.98063538611926,19.364613880742915
74.125,48,68,0,0.1125,74.10563538611926,19.364613880742915
74.125,60,68,1,0.1125,74.10563538611926,19.364613880742915
74.25,43,68,0,0.1125,74.23063538611926,19.364613880742915
74.25,62,68,1,0.1125,74.23063538611926,19.364613880742915
74.375,48,68,0,0.1125,74.35563538611926,19.364613880742915
74.375,57,68,1,0.1125,74.35563538611926,19.364613880742915
74.5,50,68,0,0.1125,74.48063538611926,19.364613880742915
74.5,60,68,1,0.1125,74.48063538611926,19.364613880742915
74.625,48,68,0,0.1125,74.60563538611926,19.364613880742915
74.625,57,68,1,0.1125,74.60563538611926,19.364613880742915
74.75,48,68,0,0.1125,74.73063538611926,19.364613880742915
74.75,48,68,1,0.1125,74.73063538611926,19.364613880742915
74.875,50,68,0,0.1125,74.85563538611926,19.364613880742915
74.875,57,68,1,0.1125,74.85563538611926,19.364613880742915
75.0,52,68,0,0.1125,74.98063538611926,19.364613880742915
75.0,60,68,1,0.1125,74.98063538611926,19.364613880742915
75.125,48,68,0,0.1125,75.10563538611926,19.364613880742915
75.125,62,68,1,0.1125,75.10563538611926,19.364613880742915
75.25,36,68,0,0.1125,75.23063538611926,19.364613880742915
75.25,60,68,1,0.1125,75.23063538611926,19.364613880742915
75.375,43,68,0,0.1125,75.35563538611926,19.364613880742915
75.375,50,68,1,0.1125,75.35563538611926,19.364613880742915
75.5,45,68,0,0.1125,75.48063538611926,19.364613880742915
75.5,55,68,1,0.1125,75.48063538611926,19.364613880742915
75.625,52,68,0,0.1125,75.60563538611926,19.364613880742915
75.625,62,68,1,0.1125,75.60563538611926,19.364613880742915
75.75,50,68,0,0.1125,75.73063538611926,19.364613880742915
75.75,60,68,1,0.1125,75.73063538611926,19.364613880742915
75.875,43,68,0,0.1125,75.85563538611926,19.364613880742915
75.875,62,68,1,0.1125,75.85563538611926,19.364613880742915
76.0,50,68,0,0.1125,75.98063538611926,19.364613880742915
76.0,57,68,1,0.1125,75.98063538611926,19.364613880742915
76.125,40,68,0,0.1125,76.10563538611926,19.364613880742915
76.125,67,68,1,0.1125,76.10563538611926,19.364613880742915
76.25,48,68,0,0.1125,76.23063538611926,19.364613880742915
76.25,60,68,1,0.1125,76.23063538611926,19.364613880742915
76.375,36,68,0,0.1125,76.35563538611926,19.364613880742915
76.375,57,68,1,0.1125,76.35563538611926,19.364613880742915
76.5,43,68,0,0.1125,76.48063538611926,19.364613880742915
76.5,57,68,1,0.1125,76.48063538611926,19.364613880742915
76.625,36,68,0,0.1125,76.60563538611926,19.364613880742915
76.625,60,68,1,0.1125,76.60563538611926,19.364613880742915
76.75,45,68,0,0.1125,76.73063538611926,19.364613880742915
76.75,64,68,1,0.1125,76.73063538611926,19.364613880742915
76.875,43,68,0,0.1125,76.85563538611926,19.364613880742915
76.875,60,68,1,0.1125,76.85563538611926,19.364613880742915
77.0,52,68,0,0.1125,76.98063538611926,19.364613880742915
77.0,60,68,1,0.1125,76.98063538611926,19.364613880742915
77.125,48,68,0,0.1125,77.10563538611926,19.364613880742915
77.125,64,68,1,0.1125,77.10563538611926,19.364613880742915
77.25,36,68,0,0.1125,77.23063538611926,19.364613880742915
77.25,57,68,1,0.1125,77.23063538611926,19.364613880742915
77.375,48,68,0,0.1125,77.35563538611926,19.364613880742915
77.375,57,68,1,0.1125,77.35563538611926,19.364613880742915
77.5,48,68,0,0.1125,77.48063538611926,19.364613880742915
77.5,48,68,1,0.1125,77.48063538611926,19.364613880742915
77.625,36,68,0,0.1125,77.60563538611926,19.364613880742915
77.625,55,68,1,0.1125,77.60563538611926,19.364613880742915
77.75,48,68,0,0.1125,77.73063538611926,19.364613880742915
77.75,64,68,1,0.1125,77.73063538611926,19.364613880742915
77.875,43,68,0,0.1125,77.85563538611926,19.364613880742915
77.875,57,68,1,0.1125,77.85563538611926,19.364613880742915
78.0,48,68,0,0.1125,77.98063538611926,19.364613880742915
78.0,55,68,1,0.1125,77.98063538611926,19.364613880742915
78.125,45,68,0,0.1125,78.10563538611926,19.364613880742915
78.125,62,68,1,0.1125,78.10563538611926,19.364613880742915
78.25,43,68,0,0.1125,78.23063538611926,19.364613880742915
78.25,50,68,1,0.1125,78.23063538611926,19.364613880742915
78.375,50,68,0,0.1125,78.35563538611926,19.364613880742915
78.375,57,68,1,0.1125,78.35563538611926,19.364613880742915
78.5,48,68,0,0.1125,78.48063538611926,19.364613880742915
78.5,60,68,1,0.1125,78.48063538611926,19.364613880742915
78.625,45,68,0,0.1125,78.60563538611926,19.364613880742915
78.625,48,68,1,0.1125,78.60563538611926,19.364613880742915
78.75,48,68,0,0.1125,78.73063538611926,19.364613880742915
78.75,57,68,1,0.1125,78.73063538611926,19.364613880742915
78.875,48,68,0,0.1125,78.85563538611926,19.364613880742915
78.875,57,68,1,0.1125,78.85563538611926,19.364613880742915
79.0,40,68,0,0.1125,78.98063538611926,19.364613880742915
79.0,67,68,1,0.1125,78.98063538611926,19.364613880742915
79.125,36,68,0,0.1125,79.10563538611926,19.364613880742915
79.125,52,68,1,0.1125,79.10563538611926,19.364613880742915
79.25,55,68,0,0.1125,79.23063538611926,19.364613880742915
79.25,64,68,1,0.1125,79.23063538611926,19.364613880742915
79.375,52,68,0,0.1125,79.35563538611926,19.364613880742915
79.375,60,68,1,0.1125,79.35563538611926,19.364613880742915
79.5,48,68,0,0.1125,79.48063538611926,19.364613880742915
79.5,57,68,1,0.1125,79.48063538611926,19.364613880742915
79.625,45,68,0,0.1125,79.60563538611926,19.364613880742915
79.625,57,68,1,0.1125,79.60563538611926,19.364613880742915
79.75,52,68,0,0.1125,79.73063538611926,19.364613880742915
79.75,55,68,1,0.1125,79.73063538611926,19.364613880742915
79.875,36,68,0,0.1125,79.85563538611926,19.364613880742915
79.875,60,68,1,0.1125,79.85563538611926,19.364613880742915
