onset_time,pitch,velocity,voice_id,duration,trigger_time,compensation_ms
0.0,72,33,0,0.10844891551456956,-0.024838709677419357,24.838709677419356
0.0,95,61,1,1.0641480097267115,-0.020459433040078204,20.459433040078203
0.0,96,86,2,0.6152395708919732,-0.016549364613880745,16.549364613880744
0.1204987950161884,95,38,0,0.4100041753477573,0.09644209902400855,24.05669599217986
0.5760589898470299,86,59,0,0.009000000000000001,0.5552867513328559,20.772238514174
0.5860589898470299,60,31,0,0.4872221702867066,0.5609074746955147,25.151515151515152
0.6835995232133035,47,112,2,0.1987734427443535,0.6711166297626682,12.482893450635387
0.904458904040363,68,76,2,0.39541169519999597,0.8863455120560033,18.113391984359726
1.1274169568322594,72,52,0,0.552904581679962,1.10554989915875,21.867057673509287
1.1823866774741238,31,77,1,0.032985197926748054,1.164429688226812,17.956989247311828
1.2190368973927328,80,115,1,0.03502829359916618,1.2070232121532412,12.013685239491693
1.2579572236140286,88,114,1,0.1065731721257151,1.245787135637489,12.170087976539591
1.3438052320403586,44,66,2,0.1133097445988587,1.3241278126855198,19.67741935483871
1.3763718593092675,86,26,1,0.16790691041786437,1.350438330472513,25.933528836754643
1.4697049482613127,40,71,2,1.239682738018899,1.4508095425917136,18.89540566959922
1.5629350931068946,48,93,1,0.9440961392774779,1.5474805476523492,15.454545454545453
1.7417553809211062,52,57,0,0.10120306479969046,1.7206703369328364,21.085043988269796
1.85420323069854,86,40,0,0.47194811029248795,1.830459340180456,23.743890518084065
2.3785900199124157,47,115,0,0.10875216496599713,2.366576334672924,12.013685239491693
2.4994257587635236,43,113,0,0.5639554006169524,2.487099268049936,12.32649071358749
2.6119308034152033,75,43,1,1.2924741043792065,2.588656121108263,23.27468230694037
2.847130212726756,86,66,2,0.5022213949521728,2.8274527933719176,19.67741935483871
3.1260428705601373,87,101,0,0.4186214970800328,3.111839547001975,14.203323558162268
3.405153984895837,85,80,2,0.16438046296706785,3.387666203859669,17.487781036168133
3.5911778673157295,60,53,0,0.2362608987120074,3.5694672123792683,21.71065493646139
3.587798943748135,49,75,2,0.18990761816583535,3.5695291490267276,18.269794721407624
3.798807408376841,64,117,2,1.0839626700974032,3.787106528611445,11.700879765395896
3.853689976995738,36,123,0,0.486601064888621,3.8429275136526293,10.762463343108504
4.048013141614321,77,102,1,0.2843785249061663,4.033966220793207,14.04692082111437
4.36398928039895,36,84,1,0.20838596944459192,4.347127110310974,16.86217008797654
4.394357826871984,79,94,0,0.356527126391652,4.379059684154486,15.298142717497555
4.595529246448497,79,31,1,0.07306705529972629,4.570377731296982,25.151515151515152
4.676714863448193,46,43,1,0.9871400973680098,4.653440181141253,23.27468230694037
4.7904990784182635,51,38,0,0.5207845470747668,4.766442382426083,24.05669599217986
5.003210375151733,80,100,2,0.3857447702400029,4.9888506488565225,14.359726295210166
5.369148575168005,91,78,0,0.32926308712244795,5.351347988657741,17.80058651026393
5.431815675418403,69,106,2,0.11644220464749333,5.41839436554548,13.421309872922777
5.561195902804507,99,82,2,0.8427972304166704,5.544020927242435,17.174975562072337
5.734996449748502,77,66,0,0.02358776552978995,5.715319030393664,19.67741935483871
5.761205078114935,32,57,0,0.07673937637667733,5.740120034126665,21.085043988269796
5.773537193857093,47,73,1,0.26044661327984564,5.75495459366159,18.58260019550342
5.846471051866799,96,92,0,0.26964643735548616,5.830860103675206,15.610948191593351
6.062922319723588,63,39,1,0.11561564420266249,6.039022026468457,23.900293255131963
6.146078204484006,95,45,0,0.029416763266444337,6.123116327651161,22.961876832844574
6.178763497002278,97,93,0,0.09924027902582004,6.163308951547732,15.454545454545453
6.191384146615436,79,26,1,0.5925065115732329,6.1654506177786805,25.933528836754643
6.2890304736976335,35,67,0,0.06168447002259926,6.269509457079843,19.521016617790814
6.357568773722743,73,65,0,0.09377775827895586,6.337734951630857,19.83382209188661
6.461766282921583,93,51,0,0.7099492737917302,6.439742822511025,22.023460410557185
6.497637269934141,80,108,2,0.9541278300550624,6.484528765535314,13.10850439882698
6.849724715030138,91,111,1,0.012319489593542333,6.837085418842455,12.639296187683286
6.863413036800741,41,35,1,0.6587232783042881,6.838887132597417,24.52590420332356
7.2505988093568385,83,117,0,0.7916977643576503,7.238897929591443,11.700879765395896
7.557779303328655,50,67,2,0.040119838751568104,7.538258286710864,19.521016617790814
7.595327790472172,38,58,1,0.8308999610709958,7.574399149220951,20.928641251221897
7.6023569019415085,58,95,2,0.26649343693932004,7.587215161961058,15.141739980449657
7.898460720762976,98,113,2,0.20058471701530126,7.886134230049388,12.32649071358749
8.121332628557754,83,111,2,0.3458255413555898,8.108693332370072,12.639296187683286
8.13026299197645,51,70,0,0.5900776276067632,8.111211183569802,19.05180840664712
8.505583230063966,97,77,2,0.28608469462595537,8.487626240816654,17.956989247311828
8.518549969439945,56,57,1,0.28832986223648915,8.497464925451675,21.085043988269796
8.785904800428408,75,55,0,0.9095670182552361,8.764506950966043,21.397849462365592
8.823455112981694,78,50,2,0.13246368019500812,8.80127524983409,22.179863147605083
8.838916483036044,33,76,1,0.2677546521437668,8.820803091051685,18.113391984359726
8.970636979865036,76,113,2,0.20463121672724902,8.95831048915145,12.32649071358749
9.136421652084675,55,75,1,0.41197575819731846,9.118151857363268,18.269794721407624
9.198004998450868,41,86,2,0.17640741339403568,9.181455633836988,16.549364613880744
9.394013235555352,39,71,2,0.5284186860097811,9.375117829885752,18.89540566959922
9.59417249452614,88,91,1,0.28837402418005054,9.578405143597498,15.76735092864125
9.796534820712004,93,66,0,0.956681709956294,9.776857401357166,19.67741935483871
9.914588076948418,83,106,1,0.13817667412024856,9.901166767075495,13.421309872922777
9.981145108899554,66,28,2,0.5314360512006047,9.955524385536895,25.620723362658847
10.068117714859804,53,83,1,0.3172752535548708,10.05109914203478,17.01857282502444
10.420645774365216,59,88,1,0.07466239427355417,10.404409215225431,16.236559139784944
10.50360399022472,83,29,1,0.2264628112935075,10.47813966959911,25.46432062561095
10.57162961023356,50,121,2,0.48684628477979686,10.560554341416355,11.0752688172043
10.755229336106394,25,45,1,0.04250075419150982,10.73226745927355,22.961876832844574
10.802452396319183,39,33,1,0.022158832354275206,10.777613686641763,24.838709677419356
10.827073321157267,64,103,1,0.49944661670230694,10.8131828030732,13.890518084066471
10.85951449844122,44,54,0,0.16903291989248698,10.837960246241806,21.55425219941349
11.047328853877316,70,44,0,0.8569830147822453,11.024210574307423,23.118279569892472
11.112569926655556,32,49,2,0.6538969257065174,11.090233660770904,22.33626588465298
11.382014006382052,59,107,1,0.08133565907359801,11.368749099246177,13.264907135874878
11.472386960908272,51,39,1,0.08952753715964093,11.44848666765314,23.900293255131963
11.571862002196761,40,32,1,0.7016432510658777,11.546866889782294,24.995112414467254
11.839122066329464,56,117,2,0.3210896784891714,11.827421186564068,11.700879765395896
11.999532203635367,26,100,0,0.013580280577092802,11.985172477340157,14.359726295210166
12.01462140427658,77,28,0,1.5671088456487692,11.989000680913922,25.620723362658847
12.195888375761877,33,56,2,0.8446267956652644,12.174646929036559,21.241446725317694
12.35146561449218,56,58,1,0.26997843301608127,12.330536973240958,20.928641251221897
12.651441651176716,97,42,1,0.5187905050716684,12.628010566132728,23.43108504398827
13.134362593167726,45,59,2,0.06711520481160699,13.113590354653551,20.772238514174
13.2089350429584,64,85,2,0.1944313996226434,13.19222927560747,16.705767350928642
13.227875545700792,51,47,1,0.14934745080533737,13.205226474342043,22.649071358748778
13.393817157706723,57,74,1,0.0556374283112071,13.375390960248268,18.426197458455523
13.424969931428004,52,32,2,0.477810386464519,13.399974819013536,24.995112414467254
13.455636522496953,78,100,1,0.07647657982076868,13.441276796201743,14.359726295210166
13.540610500075584,69,26,1,0.2709179562966185,13.51467697123883,25.933528836754643
13.755853454997435,56,65,0,0.4873692371403607,13.736019632905549,19.83382209188661
13.84163045151627,56,104,1,0.1326059616362607,13.827896336169252,13.734115347018573
13.955870360833025,27,116,2,1.391518104753703,13.944013078330581,11.857282502443795
13.988970408889893,97,81,1,0.011236311575542644,13.971639030590772,17.331378299120235
14.001455199529385,88,84,1,0.026603686816266986,13.984593029441408,16.86217008797654
14.031014851547459,35,25,1,0.41084431918744596,14.004924919973657,26.08993157380254
14.297374829597835,54,37,0,0.35779659784273504,14.273161730868608,24.21309872922776
14.48750853953351,92,124,1,0.28697042423740005,14.47690247892745,10.606060606060606
14.694926604978653,96,64,0,0.9003760802789472,14.674936380149719,19.990224828934508
14.806364566463953,74,95,1,0.09682909178473137,14.791222826483503,15.141739980449657
14.913952446224766,41,90,1,0.42538809163569463,14.898028692559077,15.923753665689148
15.0,49,111,0,0.011678136030802694,14.987360703812318,12.639296187683286
15.0,57,119,1,0.020861357454342953,14.9886119257087,11.3880742913001
15.0,62,127,2,0.01668978338589391,14.989863147605083,10.136852394916911
15.012975706700892,55,104,0,0.009000000000000001,14.999241591353874,13.734115347018573
15.018544203762104,54,97,2,0.012356219231263866,15.00371526925575,14.82893450635386
15.023179286060381,53,68,1,0.009000000000000001,15.003814672179638,19.364613880742915
15.022975706700892,67,81,0,0.021277276061555956,15.005644328401772,17.331378299120235
15.032273336241287,56,68,2,0.01246060548200251,15.012908722360544,19.364613880742915
15.033179286060381,47,100,1,0.010209491686702455,15.018819559765172,14.359726295210166
15.046118453443512,41,85,2,0.029317616403768763,15.029412686092583,16.705767350928642
15.044523165712272,48,99,1,0.009000000000000001,15.030007036680015,14.516129032258064
15.046617124547065,73,94,0,0.021622968234634415,15.031318981829568,15.298142717497555
15.054523165712272,60,124,1,0.038747115685588904,15.043917105106212,10.606060606060606
15.070642644807771,53,48,0,0.0640194512532012,15.04814997618607,22.49266862170088
15.078693582781034,54,69,2,0.0378088389564613,15.059485371637338,19.208211143695017
15.097575516474038,59,93,1,0.009000000000000001,15.082120971019492,15.454545454545453
15.107575516474038,43,91,1,0.06264379270125027,15.091808165545396,15.76735092864125
15.120703403843768,56,78,2,0.00908510534166196,15.102902817333504,17.80058651026393
15.130797965334503,65,94,2,0.01306076014802684,15.115499822617005,15.298142717497555
15.145309921054533,55,52,2,0.03664908565983855,15.123442863381024,21.867057673509287
15.141775368422438,40,104,0,0.009000000000000001,15.12804125307542,13.734115347018573
15.151775368422438,54,100,0,0.009000000000000001,15.137415642127229,14.359726295210166
15.161775368422438,48,53,0,0.009000000000000001,15.140064713485977,21.71065493646139
15.171775368422438,49,55,0,0.011749868303078817,15.150377518960072,21.397849462365592
15.177179730586538,74,69,1,0.009000000000000001,15.157971519442842,19.208211143695017
15.186031127343243,53,87,2,0.012633846071175191,15.169638165466411,16.392961876832846
15.187179730586537,52,90,1,0.009702729000782602,15.171255976920849,15.923753665689148
15.18483077764808,58,107,0,0.012786095516254621,15.171565870512206,13.264907135874878
15.197960540587408,61,52,1,0.06752906509894019,15.176093482913899,21.867057673509287
15.199037550443919,62,103,0,0.011628529215004391,15.185147032359852,13.890518084066471
15.200068734088994,58,117,2,0.009000000000000001,15.188367854323598,11.700879765395896
15.21195813846059,55,65,0,0.014283427250574871,15.192124316368703,19.83382209188661
15.210068734088994,54,117,2,0.009000000000000001,15.198367854323598,11.700879765395896
15.220068734088994,54,113,2,0.009000000000000001,15.207742243375407,12.32649071358749
15.230068734088993,58,70,2,0.009000000000000001,15.211016925682346,19.05180840664712
15.227828613183451,40,87,0,0.009000000000000001,15.21143565130662,16.392961876832846
15.240068734088993,62,59,2,0.009000000000000001,15.219296495574818,20.772238514174
15.237828613183451,48,83,0,0.009000000000000001,15.220810040358426,17.01857282502444
15.24782861318345,60,83,0,0.009377896745797287,15.230810040358426,17.01857282502444
15.250068734088993,39,84,2,0.009000000000000001,15.233206564001016,16.86217008797654
15.25824849845656,44,88,0,0.009000000000000001,15.242011939316775,16.236559139784944
15.260068734088993,51,91,2,0.009000000000000001,15.244301383160352,15.76735092864125
15.26824849845656,55,74,0,0.03543407652323814,15.249822300998105,18.426197458455523
15.270068734088992,57,74,2,0.012634933941180138,15.251642536630538,18.426197458455523
15.272992835141785,63,57,1,0.009000000000000001,15.251907791153515,21.085043988269796
15.282992835141785,73,86,1,0.034098451496535634,15.266443470527905,16.549364613880744
15.284107549579193,36,80,2,0.06373205376933459,15.266619768543025,17.487781036168133
15.307619694593491,55,80,0,0.009000000000000001,15.290131913557323,17.487781036168133
15.320880003471268,59,45,1,0.010446042851546815,15.297918126638423,22.961876832844574
15.31761969459349,52,87,0,0.009525047232035528,15.301226732716659,16.392961876832846
15.328203080406864,38,104,0,0.022628284356062883,15.314468965059845,13.734115347018573
15.332486717750765,57,85,1,0.010271308628365705,15.315780950399835,16.705767350928642
15.343899282893393,40,82,1,0.009000000000000001,15.32672430733132,17.174975562072337
15.354920942656232,62,52,2,0.031072282878576937,15.333053884982723,21.867057673509287
15.353899282893392,48,76,1,0.020228165542782055,15.335785890909033,18.113391984359726
15.353345618580267,55,88,0,0.030287680531341805,15.337109059440483,16.236559139784944
15.376375022385373,51,104,1,0.056248678264835754,15.362640907038354,13.734115347018573
15.386998596948425,54,57,0,0.02708548255923648,15.365913552960155,21.085043988269796
15.389445701410207,37,97,2,0.017687827186623362,15.374616766903852,14.82893450635386
15.409098842728676,60,127,2,0.00939277608031182,15.39896199033376,10.136852394916911
15.419535260595689,60,92,2,0.01189481261702684,15.403924312404095,15.610948191593351
15.4170935775698,66,127,0,0.009000000000000001,15.406956725174883,10.136852394916911
15.4270935775698,49,92,0,0.009000000000000001,15.411482629378206,15.610948191593351
15.432751719059052,44,90,2,0.009000000000000001,15.416827965393363,15.923753665689148
15.442751719059052,52,36,2,0.011286347651390824,15.418382217592777,24.369501466275658
15.437093577569799,51,74,0,0.011867813251430296,15.418667380111344,18.426197458455523
15.438873553790746,54,92,1,0.009000000000000001,15.423262605599152,15.610948191593351
15.448873553790746,61,66,1,0.009000000000000001,15.429196134435907,19.67741935483871
15.450280036738056,48,104,0,0.03868148285229925,15.436545921391037,13.734115347018573
15.455292105338374,61,114,2,0.039314896781380074,15.443122017361835,12.170087976539591
15.458873553790745,48,99,1,0.010417269240646176,15.444357424758488,14.516129032258064
15.470448297391464,44,86,1,0.016344466344159238,15.453898932777584,16.549364613880744
15.48860881555164,45,65,1,0.009000000000000001,15.468774993459753,19.83382209188661
15.4932594621295,58,83,0,0.023317924964970076,15.476240889304474,17.01857282502444
15.498975323984352,45,90,2,0.009000000000000001,15.483051570318663,15.923753665689148
15.49860881555164,52,126,1,0.009000000000000001,15.488315560419675,10.29325513196481
15.508975323984352,44,69,2,0.057364658190981584,15.489767112840656,19.208211143695017
15.50860881555164,51,86,1,0.009000000000000001,15.49205945093776,16.549364613880744
15.518608815551639,51,51,1,0.020525771927348294,15.496585355141082,22.023460410557185
15.519168267646133,37,106,0,0.028614358761720526,15.50574695777321,13.421309872922777
15.541415228804249,42,61,1,0.03397987119452123,15.520955795764172,20.459433040078203
15.5509619996036,60,127,0,0.017864253292697876,15.540825147208684,10.136852394916911
15.572713833085443,45,54,2,0.009000000000000001,15.55115958088603,21.55425219941349
15.57081116992882,49,102,0,0.009000000000000001,15.556764249107706,14.04692082111437
15.579170641242605,48,75,1,0.06572933813779692,15.560900846521198,18.269794721407624
15.58081116992882,50,90,0,0.009000000000000001,15.564887416263131,15.923753665689148
15.582713833085442,64,89,2,0.009000000000000001,15.566633676682706,16.080156402737046
15.59081116992882,44,111,0,0.01289960499314443,15.578171873741137,12.639296187683286
15.592713833085442,62,105,2,0.011201280349848674,15.579136120475471,13.577712609970675
15.605144064365646,57,81,0,0.009000000000000001,15.587812686066526,17.331378299120235
15.60515970014083,47,93,2,0.027320783760562094,15.589705154686284,15.454545454545453
15.615144064365646,59,92,0,0.024232829971293616,15.599533116174053,15.610948191593351
15.635516126541454,64,59,2,0.009000000000000001,15.614743888027279,20.772238514174
15.65220323917349,60,33,1,0.009000000000000001,15.62736452949607,24.838709677419356
15.645516126541454,54,87,2,0.016410480957021203,15.629123164664621,16.392961876832846
15.642069431000417,44,127,0,0.03773458515996935,15.6319325786055,10.136852394916911
15.663749994271477,52,49,2,0.009000000000000001,15.641413728386825,22.33626588465298
15.66220323917349,63,114,1,0.009000000000000001,15.65003315119695,12.170087976539591
15.67220323917349,53,64,1,0.024405809754069335,15.652213014344555,19.990224828934508
15.673749994271477,71,97,2,0.009000000000000001,15.658921059765122,14.82893450635386
15.683996747844827,55,94,0,0.009000000000000001,15.668698605127329,15.298142717497555
15.683749994271476,56,102,2,0.009000000000000001,15.669703073450362,14.04692082111437
15.693996747844826,49,55,0,0.01738434623559518,15.67259889838246,21.397849462365592
15.693749994271476,50,97,2,0.04839612660042729,15.678921059765122,14.82893450635386
15.6993208055669,44,82,1,0.009000000000000001,15.682145830004828,17.174975562072337
15.7093208055669,63,89,1,0.009000000000000001,15.693240649164164,16.080156402737046
15.7133126881066,53,78,0,0.009000000000000001,15.695512101596336,17.80058651026393
15.7193208055669,51,86,1,0.009000000000000001,15.70277144095302,16.549364613880744
15.7233126881066,56,63,0,0.009000000000000001,15.703166060540617,20.146627565982406
15.733312688106599,63,51,0,0.009000000000000001,15.711289227696042,22.023460410557185
15.7293208055669,62,91,1,0.009000000000000001,15.713553454638259,15.76735092864125
15.7393208055669,45,75,1,0.0267743487454641,15.721051010845493,18.269794721407624
15.743312688106599,62,80,0,0.014672229303081097,15.72582490707043,17.487781036168133
15.74752346827195,58,97,2,0.009000000000000001,15.732694533765596,14.82893450635386
15.759615165110022,56,43,0,0.04076712338760434,15.736340482803081,23.27468230694037
15.75752346827195,49,122,2,0.009563534590117015,15.746604602191793,10.918866080156402
15.76907008195075,52,73,1,0.013319208570973292,15.750487481755245,18.58260019550342
15.768149617816524,59,100,2,0.01705878447563871,15.753789891521315,14.359726295210166
15.783869202585164,55,87,1,0.020652064775073427,15.767476240708332,16.392961876832846
15.787103822789456,64,104,2,0.009000000000000001,15.773369707442438,13.734115347018573
15.797103822789456,44,56,2,0.01910323876533649,15.775862376064138,21.241446725317694
15.806815941224134,57,69,1,0.03214460448684472,15.787607730080438,19.208211143695017
15.804911968874027,50,88,0,0.022518002752630953,15.788675409734243,16.236559139784944
15.81832964363983,59,99,2,0.04673802880975727,15.803813514607572,14.516129032258064
15.829931971932506,53,54,0,0.009000000000000001,15.808377719733093,21.55425219941349
15.839931971932506,60,43,0,0.009000000000000001,15.816657289625565,23.27468230694037
15.842532168431738,65,80,1,0.04335666691585823,15.82504438739557,17.487781036168133
15.849931971932506,62,95,0,0.011180144137025907,15.834790231952056,15.141739980449657
15.862354354306978,56,100,0,0.018192799522827624,15.847994628011769,14.359726295210166
15.870260786761783,61,55,2,0.009000000000000001,15.848862937299417,21.397849462365592
15.880260786761783,51,63,2,0.019545793249853817,15.8601141591958,20.146627565982406
15.88256857599901,59,92,0,0.009000000000000001,15.866957627807416,15.610948191593351
15.890706242782692,55,63,1,0.009000000000000001,15.87055961521671,20.146627565982406
15.89256857599901,58,111,0,0.009404567454828483,15.879929279811327,12.639296187683286
15.901978334817176,60,60,2,0.01022963033971911,15.88136249904005,20.6158357771261
15.903018095393262,46,88,0,0.014091380973949031,15.886781536253478,16.236559139784944
15.900706242782691,45,127,1,0.018559195935196077,15.890569390387775,10.136852394916911
15.913344590750198,53,83,2,0.023739691327028613,15.896326017925173,17.01857282502444
15.918675185364316,63,84,0,0.009000000000000001,15.901813015276339,16.86217008797654
15.921327571599576,57,93,1,0.05034777145406087,15.90587302614503,15.454545454545453
15.928675185364316,45,126,0,0.009000000000000001,15.918381930232352,10.29325513196481
15.938675185364316,57,76,0,0.009000000000000001,15.920561793379957,18.113391984359726
15.939722025558007,36,105,2,0.009000000000000001,15.926144312948036,13.577712609970675
15.948675185364316,58,106,0,0.009000000000000001,15.935253875491393,13.421309872922777
15.949722025558007,63,103,2,0.009000000000000001,15.93583150747394,13.890518084066471
15.958675185364315,45,72,0,0.01611409053567113,15.939936182431763,18.73900293255132
15.969722025558006,72,55,2,0.009000000000000001,15.94832417609564,21.397849462365592
15.959722025558007,37,120,2,0.009000000000000001,15.948490354003754,11.231671554252198
15.977269539881867,55,42,1,0.04871797816580831,15.953838454837879,23.43108504398827
15.97657973040395,56,54,0,0.009000000000000001,15.955025478204536,21.55425219941349
15.979722025558006,61,124,2,0.009000000000000001,15.969115964951946,10.606060606060606
15.989722025558006,64,66,2,0.009000000000000001,15.970044606203167,19.67741935483871
15.98657973040395,43,109,0,0.01206871850003278,15.97362762874217,12.952101661779082
15.999989417626209,59,74,0,0.02618713329840027,15.981563220167754,18.426197458455523
15.999722025558006,50,110,2,0.030556967945972784,15.986926326633274,12.795698924731184
16.029086232402207,57,104,0,0.009000000000000001,16.015352117055187,13.734115347018573
16.03367421216464,45,97,2,0.010215987351974818,16.018845277658286,14.82893450635386
16.03908623240221,47,77,0,0.009000000000000001,16.021129243154896,17.956989247311828
16.031400626732765,63,127,1,0.02946741814236655,16.021263774337847,10.136852394916911
16.045025309222392,53,72,2,0.034734052807685774,16.02628630628984,18.73900293255132
16.04908623240221,55,74,0,0.02961685923498053,16.030660034943754,18.426197458455523
16.064142202446504,69,66,1,0.012810587087856073,16.044464783091666,19.67741935483871
16.08199385377441,61,10,0,0.03566776308119067,16.05355788114489,28.435972629521018
16.083618701230932,55,93,2,0.02131252567767408,16.068164155776387,15.454545454545453
16.07837618809968,53,127,1,0.01071000402511746,16.06823933570476,10.136852394916911
16.09027619257203,54,79,1,0.013906469703015418,16.072632008798813,17.64418377321603
16.107299285317236,47,29,2,0.009000000000000001,16.081834964691623,25.46432062561095
16.105727825575382,54,88,1,0.031090083727069794,16.089491266435598,16.236559139784944
16.117299285317237,58,58,2,0.014987888796348544,16.096370644066017,20.928641251221897
16.1216247016424,57,43,0,0.03583720162857205,16.09835001933546,23.27468230694037
16.13395249509096,76,80,2,0.022906914476917867,16.116464714054793,17.487781036168133
16.140272363049903,43,98,1,0.01807691644519138,16.125599831280596,14.672531769305962
16.16035782576678,49,58,1,0.014936933700352753,16.13942918451556,20.928641251221897
16.159404622287536,43,81,2,0.03230007973686982,16.142073243988417,17.331378299120235
16.161443814563036,61,101,0,0.02489453331521271,16.147240491004872,14.203323558162268
16.176954418767174,67,87,1,0.1309559486218047,16.160561456890342,16.392961876832846
16.189104407135495,65,76,0,0.009000000000000001,16.170991015151134,18.113391984359726
16.199104407135497,53,70,0,0.021825560453814154,16.18005259872885,19.05180840664712
16.195293599772945,64,108,2,0.04950696700656687,16.18218509537412,13.10850439882698
16.223355029861956,59,64,0,0.03479623575975805,16.203364805033022,19.990224828934508
16.250301340891355,59,118,2,0.009539772433210247,16.238756863863006,11.544477028347998
16.260901088039365,51,63,2,0.018272807914576774,16.240754460473383,20.146627565982406
16.262017514039464,63,69,0,0.029012210568103887,16.24280930289577,19.208211143695017
16.28120420794445,57,82,2,0.04121437712196139,16.26402923238238,17.174975562072337
16.29425330355958,65,115,0,0.020012086147681747,16.282239618320087,12.013685239491693
16.31648895483478,50,41,0,0.009000000000000001,16.292901467053746,23.587487781036167
16.326488954834783,62,36,0,0.009000000000000001,16.30211945336851,24.369501466275658
16.322461028346957,51,115,1,0.009000000000000001,16.310447343107466,12.013685239491693
16.33246102834696,59,62,1,0.009000000000000001,16.31215799804393,20.303030303030305
16.326997960302187,64,114,2,0.009000000000000001,16.314827872325647,12.170087976539591
16.336997960302188,34,99,2,0.013985568396882685,16.32248183126993,14.516129032258064
16.34246102834696,54,69,1,0.009000000000000001,16.323252817203265,19.208211143695017
16.336488954834785,53,113,0,0.02180323187560193,16.324162464121198,12.32649071358749
16.35253748074317,50,81,2,0.009000000000000001,16.33520610244405,17.331378299120235
16.352461028346962,61,107,1,0.011841923861240887,16.33919612121109,13.264907135874878
16.36253748074317,56,70,2,0.009000000000000001,16.343485672336524,19.05180840664712
16.360714768029897,56,118,0,0.009000000000000001,16.34917029100155,11.544477028347998
16.3707147680299,59,76,0,0.04800398807037724,16.352601376045538,18.113391984359726
16.36561872152612,61,113,1,0.020719188567004748,16.35329223081253,12.32649071358749
16.372537480743173,62,91,2,0.010533894967527735,16.35677012981453,15.76735092864125
16.388640042156123,38,95,1,0.029409889215384795,16.373498302175673,15.141739980449657
16.38424180848487,77,127,2,0.009000000000000001,16.37410495608995,10.136852394916911
16.39424180848487,64,80,2,0.061743563628580064,16.376754027448705,17.487781036168133
16.421317696839882,63,75,1,0.010501175107409222,16.403047902118473,18.269794721407624
16.42405253255254,56,61,0,0.009000000000000001,16.403593099512463,20.459433040078203
16.434052532552542,56,92,0,0.009000000000000001,16.41844158436095,15.610948191593351
16.43298566918145,48,104,1,0.009000000000000001,16.419251553834428,13.734115347018573
16.444052532552544,36,55,0,0.03867359300422855,16.42265468309018,21.397849462365592
16.44298566918145,37,68,1,0.017601751488973544,16.423621055300707,19.364613880742915
16.46284576807218,53,75,2,0.009000000000000001,16.444575973350773,18.269794721407624
16.462543170835865,54,91,1,0.009000000000000001,16.446775819907224,15.76735092864125
16.472845768072183,59,96,2,0.05290034885368592,16.45786043082878,14.985337243401759
16.472543170835866,61,117,1,0.012831882231129474,16.46084229107047,11.700879765395896
16.48680081775934,59,62,1,0.009923454429107576,16.466497787456312,20.303030303030305
16.48702319144613,43,61,0,0.014252777657988597,16.466563758406053,20.459433040078203
16.49782687823613,41,104,1,0.009000000000000001,16.48409276288911,13.734115347018573
16.502859611066118,48,73,0,0.009000000000000001,16.484277010870613,18.58260019550342
16.51285961106612,46,56,0,0.015343338109586976,16.491618164340803,21.241446725317694
16.50782687823613,58,101,1,0.038799953816377124,16.493623554677967,14.203323558162268
16.531623933465166,34,75,2,0.009000000000000001,16.513354138743757,18.269794721407624
16.541623933465168,60,50,2,0.009000000000000001,16.51944407031756,22.179863147605083
16.529907764521216,69,126,0,0.011883981434100762,16.51961450938925,10.29325513196481
16.543112188336885,52,76,0,0.009000000000000001,16.524998796352524,18.113391984359726
16.55162393346517,52,61,2,0.059417902775806726,16.531164500425092,20.459433040078203
16.550937938032106,37,95,1,0.009000000000000001,16.535796198051656,15.141739980449657
16.560937938032108,53,67,1,0.009000000000000001,16.541416921414317,19.521016617790814
16.553112188336886,54,120,0,0.038810997775271736,16.541880516782633,11.231671554252198
16.57093793803211,60,79,1,0.010003684469132199,16.553293754258892,17.64418377321603
16.58205314299781,45,101,1,0.010416694876951531,16.567849819439648,14.203323558162268
16.593627248416645,62,79,1,0.009000000000000001,16.575983064643427,17.64418377321603
16.5962355191983,44,77,0,0.024696127658831467,16.578278529950985,17.956989247311828
16.603627248416647,43,71,1,0.009000000000000001,16.584731842747047,18.89540566959922
16.61362724841665,58,89,1,0.009000000000000001,16.59754709201391,16.080156402737046
16.61764382543829,61,64,2,0.015878510696873405,16.597653600609355,19.990224828934508
16.623675661041446,45,66,0,0.034057931414974485,16.603998241686607,19.67741935483871
16.62362724841665,68,83,1,0.009653987338401704,16.606608675591627,17.01857282502444
16.63528661510148,68,87,2,0.009000000000000001,16.61889365322465,16.392961876832846
16.634353901014872,61,96,1,0.01529490574939852,16.61936856377147,14.985337243401759
16.645286615101483,61,120,2,0.009000000000000001,16.63405494354723,11.231671554252198
16.651348240736425,56,89,1,0.009000000000000001,16.63526808433369,16.080156402737046
16.661517807058086,62,40,0,0.009000000000000001,16.637773916540002,23.743890518084065
16.661348240736427,40,81,1,0.010197595315078693,16.644016862437308,17.331378299120235
16.655286615101485,45,120,2,0.009000000000000001,16.644054943547232,11.231671554252198
16.665286615101486,50,70,2,0.009000000000000001,16.64623480669484,19.05180840664712
16.675286615101488,51,70,2,0.01418961347290161,16.65623480669484,19.05180840664712
16.671517807058088,55,96,0,0.009000000000000001,16.656532469814685,14.985337243401759
16.672678902197624,41,105,1,0.012483217277746924,16.659101189587656,13.577712609970675
16.68151780705809,49,90,0,0.009000000000000001,16.6655940533924,15.923753665689148
16.686549143617345,41,78,1,0.0187247954731661,16.66874855710708,17.80058651026393
16.691052852293602,48,120,2,0.04451614163609565,16.67982118073935,11.231671554252198
16.69151780705809,59,126,0,0.012283193378586871,16.681224551926125,10.29325513196481
16.705165799700964,62,125,0,0.009000000000000001,16.69471614183195,10.449657869012707
16.715165799700966,52,64,0,0.04623588246680565,16.69517557487203,19.990224828934508
16.707354471920862,65,122,1,0.009000000000000001,16.696435605840705,10.918866080156402
16.717354471920864,37,61,1,0.027849063372669736,16.696895038880786,20.459433040078203
16.740515231889265,68,89,2,0.0676955441973685,16.72443507548653,16.080156402737046
16.748297875668275,57,85,1,0.009000000000000001,16.731592108317347,16.705767350928642
16.758297875668276,68,39,1,0.009000000000000001,16.734397582413145,23.900293255131963
16.76653900244186,46,73,0,0.016491646362224843,16.747956402246356,18.58260019550342
16.768297875668278,42,80,1,0.01754607418998163,16.75081009463211,17.487781036168133
16.784863053955444,45,82,0,0.009006253483440262,16.767688078393373,17.174975562072337
16.787793513657146,65,98,1,0.009000000000000001,16.77312098188784,14.672531769305962
16.79487000227038,51,94,0,0.018537305487405495,16.77957185955288,15.298142717497555
16.797793513657147,54,87,1,0.009000000000000001,16.781400551780315,16.392961876832846
16.80779351365715,64,92,1,0.013943097000815051,16.792182565465556,15.610948191593351
16.815467008367495,63,78,0,0.02850169956963972,16.79766642185723,17.80058651026393
16.815732503219674,43,103,2,0.009000000000000001,16.801841985135606,13.890518084066471
16.823285843658056,56,74,1,0.053042351378710564,16.8048596461996,18.426197458455523
16.825732503219676,52,83,2,0.009000000000000001,16.808713930394653,17.01857282502444
16.835732503219678,52,96,2,0.024603765289931422,16.820747165976275,14.985337243401759
16.847135563444873,65,106,0,0.009000000000000001,16.83371425357195,13.421309872922777
16.857135563444874,53,70,0,0.01478783160526828,16.838083755038227,19.05180840664712
16.86307002020849,60,77,2,0.009000000000000001,16.845113030961176,17.956989247311828
16.87307002020849,52,97,2,0.03560090229583698,16.858241085702137,14.82893450635386
16.873566487450727,56,102,0,0.01991289534531572,16.85951956662961,14.04692082111437
16.8822217896344,46,121,1,0.011036425926852356,16.871146520817195,11.0752688172043
16.895691926723302,44,76,0,0.02958439396840042,16.87757853473894,18.113391984359726
16.89448448510868,49,90,1,0.013649310631472443,16.87856073144299,15.923753665689148
16.909650385810316,58,124,1,0.030479343070935146,16.899044325204255,10.606060606060606
16.912626578314978,48,106,2,0.009000000000000001,16.899205268442056,13.421309872922777
16.92262657831498,59,98,2,0.009000000000000001,16.907954046545672,14.672531769305962
16.93262657831498,49,67,2,0.009000000000000001,16.91310556169719,19.521016617790814
16.92856347557708,76,110,0,0.06076958053132208,16.91576777665235,12.795698924731184
16.9435163225558,57,73,1,0.009000000000000001,16.924933722360297,18.58260019550342
16.942626578314982,53,79,2,0.009000000000000001,16.924982394541765,17.64418377321603
16.953516322555803,47,50,1,0.009000000000000001,16.931336459408197,22.179863147605083
16.952626578314984,56,73,2,0.047695969842127504,16.93404397811948,18.58260019550342
16.963516322555805,54,80,1,0.042780850270079135,16.946028541519638,17.487781036168133
16.996085231722994,51,86,0,0.021688378870015505,16.979535867109114,16.549364613880744
17.00562210036179,56,126,2,0.0782477460023418,16.995328845229825,10.29325513196481
17.01105060063367,57,93,1,0.0335869389962727,16.995596055179124,15.454545454545453
17.020183430467455,54,82,0,0.009000000000000001,17.003008454905384,17.174975562072337
17.030183430467456,47,96,0,0.056958529466239805,17.015198093224054,14.985337243401759
17.048369421740638,50,30,1,0.009000000000000001,17.023061503852077,25.30791788856305
17.05836942174064,59,99,1,0.009000000000000001,17.04385329270838,14.516129032258064
17.06836942174064,48,120,1,0.014715355056345766,17.05713775018639,11.231671554252198
17.08471981624769,50,88,1,0.02939123363951518,17.068483257107907,16.236559139784944
17.092564040364394,57,60,2,0.009051037010931498,17.07194820458727,20.6158357771261
17.093470685429946,56,71,0,0.013277246891663689,17.074575279760346,18.89540566959922
17.10262074815432,48,85,2,0.009000000000000001,17.08591498080339,16.705767350928642
17.11262074815432,56,46,2,0.03837412704284604,17.089815274058523,22.805474095796676
17.10822318197624,56,90,0,0.009000000000000001,17.09229942831055,15.923753665689148
17.11737674251382,50,36,1,0.010393642688393987,17.093007241047545,24.369501466275658
17.11822318197624,46,71,0,0.014397145879772786,17.09932777630664,18.89540566959922
17.12892523438981,56,79,1,0.029993195033865244,17.111281050616594,17.64418377321603
17.134220010731543,62,58,0,0.009000000000000001,17.113291369480322,20.928641251221897
17.144220010731544,35,87,0,0.045264881254040566,17.127827048854712,16.392961876832846
17.155258667090816,61,127,2,0.028679653901736983,17.145121814695898,10.136852394916911
17.16225100664966,58,93,1,0.009000000000000001,17.146796461195116,15.454545454545453
17.172251006649663,63,95,1,0.009000000000000001,17.157109266669213,15.141739980449657
17.182251006649665,56,62,1,0.013581741819971573,17.161947976346635,20.303030303030305
17.187124949203856,60,58,2,0.009000000000000001,17.166196307952635,20.928641251221897
17.194514323236035,65,85,0,0.03212968731176347,17.177808555885107,16.705767350928642
17.19734183089408,45,71,1,0.009000000000000001,17.17844642522448,18.89540566959922
17.197124949203857,67,86,2,0.009000000000000001,17.180575584589977,16.549364613880744
17.20712494920386,55,71,2,0.009000000000000001,17.18822954353426,18.89540566959922
17.20734183089408,62,111,1,0.009000000000000001,17.194702534706398,12.639296187683286
17.21712494920386,56,59,2,0.022709019108142256,17.196352710689688,20.772238514174
17.21734183089408,54,93,1,0.02122008531035504,17.201887285439536,15.454545454545453
17.230213975804663,64,51,0,0.014016466740676543,17.208190515394104,22.023460410557185
17.24235719265735,43,71,2,0.022593683589988367,17.22346178698775,18.89540566959922
17.24091970346114,61,81,1,0.016856492437779133,17.223588325162023,17.331378299120235
17.24578782773875,60,91,0,0.009000000000000001,17.230020476810108,15.76735092864125
17.267461285535116,59,14,2,0.009000000000000001,17.239650923853787,27.810361681329425
17.25578782773875,48,104,0,0.009000000000000001,17.24205371239173,13.734115347018573
17.259649139503118,72,80,1,0.009000000000000001,17.24216135846695,17.487781036168133
17.26578782773875,48,125,0,0.009000000000000001,17.255338169869738,10.449657869012707
17.26964913950312,47,103,1,0.009000000000000001,17.25575862141905,13.890518084066471
17.275787827738753,49,70,0,0.029942387993690422,17.256736019332106,19.05180840664712
17.27964913950312,58,71,1,0.009000000000000001,17.26075373383352,18.89540566959922
17.277461285535118,58,87,2,0.03441832104764449,17.261068323658286,16.392961876832846
17.289649139503123,63,103,1,0.009000000000000001,17.275758621419055,13.890518084066471
17.309057147731743,43,51,0,0.023487037958294862,17.287033687321184,22.023460410557185
17.299649139503124,55,118,1,0.009000000000000001,17.288104662474776,11.544477028347998
17.309649139503126,36,98,1,0.009000000000000001,17.29497660773382,14.672531769305962
17.315703864476944,61,94,2,0.011094855848464504,17.300405721759446,15.298142717497555
17.319649139503127,61,86,1,0.013719243402530635,17.303099774889247,16.549364613880744
17.32803148208635,47,72,2,0.026838252832385473,17.309292479153797,18.73900293255132
17.33515385657429,30,93,0,0.009000000000000001,17.319699311119745,15.454545454545453
17.334892743283717,59,111,1,0.009000000000000001,17.322253447096035,12.639296187683286
17.345153856574292,54,82,0,0.03316394431968251,17.32797888101222,17.174975562072337
17.34489274328372,56,117,1,0.02074221784925833,17.333191863518323,11.700879765395896
17.357851763011222,61,60,2,0.021764444010354565,17.337235927234097,20.6158357771261
17.367939652005116,45,66,1,0.009000000000000001,17.348262232650278,19.67741935483871
17.377939652005118,50,105,1,0.010295790728325366,17.36436193939515,13.577712609970675
17.382034478578284,61,90,2,0.009000000000000001,17.366110724912595,15.923753665689148
17.389379419481035,53,49,1,0.01077385334883964,17.36704315359638,22.33626588465298
17.382002683596163,49,106,0,0.009000000000000001,17.36858137372324,13.421309872922777
17.392034478578285,57,105,2,0.009000000000000001,17.378456765968316,13.577712609970675
17.392002683596164,57,107,0,0.009000000000000001,17.37873777646029,13.264907135874878
17.402034478578287,60,73,2,0.009000000000000001,17.383451878382782,18.58260019550342
17.402002683596166,47,85,0,0.03205094894481493,17.385296916245238,16.705767350928642
17.401350367646412,49,97,1,0.009000000000000001,17.386521433140057,14.82893450635386
17.41203447857829,50,50,2,0.04130596266895809,17.389854615430682,22.179863147605083
17.411350367646413,60,81,1,0.009000000000000001,17.394018989347295,17.331378299120235
17.421350367646415,45,85,1,0.009000000000000001,17.404644600295487,16.705767350928642
17.431350367646417,62,117,1,0.0610136599815843,17.41964948788102,11.700879765395896
17.437614849090405,51,80,0,0.050225924304578305,17.42012706805424,17.487781036168133
17.457929992654908,46,105,2,0.009000000000000001,17.44435228004494,13.577712609970675
17.46792999265491,54,86,2,0.009000000000000001,17.45138062804103,16.549364613880744
17.47792999265491,55,126,2,0.01587523715107463,17.467636737522945,10.29325513196481
17.495569145044993,51,78,2,0.009000000000000001,17.477768558534727,17.80058651026393
17.493421431651047,48,93,0,0.027438540362526503,17.4779668861965,15.454545454545453
17.49914332318151,65,73,1,0.009000000000000001,17.480560722986006,18.58260019550342
17.505569145044994,66,50,2,0.009000000000000001,17.483389281897388,22.179863147605083
17.50914332318151,51,73,1,0.02576515332875038,17.490560722986007,18.58260019550342
17.515569145044996,52,92,2,0.05982294825979855,17.499958196853402,15.610948191593351
17.523908698720522,46,102,0,0.027364532530240012,17.509861777899406,14.04692082111437
17.53777127132457,66,67,1,0.009000000000000001,17.51825025470678,19.521016617790814
17.54777127132457,48,64,1,0.009000000000000001,17.527781046495637,19.990224828934508
17.557771271324572,41,42,1,0.009000000000000001,17.534340186280584,23.43108504398827
17.554313734865232,58,127,0,0.024020102383176412,17.544176882470314,10.136852394916911
17.567771271324574,60,69,1,0.02828868421147677,17.54856306018088,19.208211143695017
17.581002737513206,42,37,0,0.04902111542716223,17.55678963878398,24.21309872922776
17.582039087555884,54,83,2,0.009000000000000001,17.56502051473086,17.01857282502444
17.592039087555886,47,66,2,0.009819339515767335,17.572361668201047,19.67741935483871
17.59920314267066,50,72,1,0.0161184776291525,17.58046413973811,18.73900293255132
17.60294946479563,55,90,2,0.026135649676944914,17.58702571112994,15.923753665689148
17.617112562258608,48,66,1,0.009000000000000001,17.59743514290377,19.67741935483871
17.62711256225861,52,75,1,0.009000000000000001,17.6088427675372,18.269794721407624
17.63198907554779,69,67,2,0.017547104628758404,17.61246805893,19.521016617790814
17.63711256225861,51,65,1,0.009000000000000001,17.617278740166725,19.83382209188661
17.635470643543385,54,90,0,0.018543460369860043,17.619546889877697,15.923753665689148
17.647112562258613,45,113,1,0.011175456968459863,17.634786071545026,12.32649071358749
17.651485858468632,41,93,2,0.010526242886969095,17.636031313014087,15.454545454545453
17.656074488398787,54,93,0,0.009000000000000001,17.64061994294424,15.454545454545453
17.659529736668013,42,82,1,0.009000000000000001,17.642354761105942,17.174975562072337
17.666074488398788,59,58,0,0.01961946393501804,17.645145847147568,20.928641251221897
17.663181683898596,62,79,2,0.013386438890346339,17.64553750012538,17.64418377321603
17.669529736668014,61,51,1,0.009000000000000001,17.647506276257456,22.023460410557185
17.67805550488787,70,67,2,0.02337861145596915,17.658534488270078,19.521016617790814
17.68787389277103,50,42,0,0.009000000000000001,17.664442807727042,23.43108504398827
17.679529736668016,33,100,1,0.038854393256404295,17.665170010372805,14.359726295210166
17.704031739838946,69,63,2,0.013935691282258984,17.683885112272964,20.146627565982406
17.69787389277103,49,121,0,0.03294083999419394,17.686798623953827,11.0752688172043
17.71951584126368,43,85,2,0.018986290955131265,17.70281007391275,16.705767350928642
17.722701284730686,52,104,1,0.009000000000000001,17.708967169383666,13.734115347018573
17.732701284730688,53,96,1,0.012711759204389307,17.717715947487285,14.985337243401759
17.734474826097912,51,91,0,0.009000000000000001,17.71870747516927,15.76735092864125
17.740611720102713,46,84,2,0.023838212835527204,17.723749550014738,16.86217008797654
17.744474826097914,55,81,0,0.009000000000000001,17.727143447798795,17.331378299120235
17.746825461624454,60,86,1,0.038308541997219864,17.730276097010574,16.549364613880744
17.754474826097915,60,78,0,0.015479608974017426,17.73667423958765,17.80058651026393
17.7670986232533,58,81,2,0.012298416301563489,17.74976724495418,17.331378299120235
17.7716743916246,57,75,0,0.054410613552864834,17.75340459690319,18.269794721407624
17.780763530255037,45,89,2,0.02096137741337262,17.7646833738523,16.080156402737046
17.78939050828803,62,104,1,0.009000000000000001,17.77565639294101,13.734115347018573
17.79939050828803,44,88,1,0.009000000000000001,17.783153949148247,16.236559139784944
17.80405394960323,66,81,2,0.009000000000000001,17.78672257130411,17.331378299120235
17.809390508288033,44,76,1,0.02707078665267595,17.79127711630367,18.113391984359726
17.81405394960323,45,106,2,0.009000000000000001,17.80063263973031,13.421309872922777
17.824053949603233,69,94,2,0.009000000000000001,17.808755806885735,15.298142717497555
17.839469160124338,63,1,1,0.009000000000000001,17.809625562861385,29.843597262952102
17.83213062890556,67,80,0,0.009000000000000001,17.814642847869393,17.487781036168133
17.834053949603234,46,92,2,0.009000000000000001,17.81844300141164,15.610948191593351
17.84213062890556,45,66,0,0.018949012907668435,17.822453209550723,19.67741935483871
17.844053949603236,67,108,2,0.009000000000000001,17.83094544520441,13.10850439882698
17.84946916012434,37,83,1,0.009000000000000001,17.832450587299316,17.01857282502444
17.85946916012434,68,50,1,0.02979779865320137,17.837289296976735,22.179863147605083
17.854053949603237,50,101,2,0.04093780135616601,17.839850626045074,14.203323558162268
17.86318508769186,41,88,0,0.018324655006299432,17.846948528552076,16.236559139784944
17.883545815476637,63,86,0,0.009000000000000001,17.866996450862757,16.549364613880744
17.892577825294566,41,105,1,0.018335857934161665,17.879000112684597,13.577712609970675
17.89954039555453,60,71,2,0.009000000000000001,17.88064498988493,18.89540566959922
17.89354581547664,56,113,0,0.012298622448950844,17.88121932476305,12.32649071358749
17.909540395554533,47,74,2,0.009000000000000001,17.891114198096076,18.426197458455523
17.907210951531027,53,101,0,0.011339751882815028,17.893007627972864,14.203323558162268
17.912951000776967,56,94,1,0.013783392122608039,17.89765285805947,15.298142717497555
17.919810675845266,65,85,0,0.011226888866170126,17.90310490849434,16.705767350928642
17.919540395554534,60,119,2,0.009000000000000001,17.908152321263234,11.3880742913001
17.929540395554536,54,60,2,0.009000000000000001,17.90892455977741,20.6158357771261
17.932284996807677,57,65,0,0.009893178875311937,17.91245117471579,19.83382209188661
17.928265880913198,65,96,1,0.009000000000000001,17.913280543669796,14.985337243401759
17.9382658809132,45,63,1,0.01604727881329115,17.918119253347218,20.146627565982406
17.939540395554538,46,100,2,0.009000645457456125,17.925180669259326,14.359726295210166
17.949541112729488,49,71,2,0.009000000000000001,17.930645707059888,18.89540566959922
17.943277417780248,63,115,0,0.010039237345121878,17.931263732540756,12.013685239491693
17.956096190705747,45,51,1,0.009000000000000001,17.93407273029519,22.023460410557185
17.954432125941494,45,71,0,0.009000000000000001,17.935536720271894,18.89540566959922
17.96609619070575,50,62,1,0.048012458111437555,17.94579316040272,20.303030303030305
17.95954111272949,55,127,2,0.01912595608683296,17.94940426033457,10.136852394916911
17.964432125941496,34,97,0,0.022460630126263394,17.94960319143514,14.82893450635386
17.980792175048194,60,90,2,0.009000000000000001,17.964868421382505,15.923753665689148
17.989388381637344,48,55,0,0.009000000000000001,17.96799053217498,21.397849462365592
17.990792175048195,60,94,2,0.009000000000000001,17.975494032330698,15.298142717497555
17.999388381637345,49,88,0,0.009000000000000001,17.98315182249756,16.236559139784944
18.000792175048197,54,109,2,0.009000000000000001,17.98784007338642,12.952101661779082
18.009388381637347,59,99,0,0.009000000000000001,17.994872252605088,14.516129032258064
18.0107921750482,64,111,2,0.015992595069358323,17.998152878860516,12.639296187683286
18.019443366385122,58,98,1,0.011368029245807735,18.004770834615815,14.672531769305962
18.01938838163735,47,112,0,0.009000000000000001,18.006905488186714,12.482893450635387
18.028561725125265,63,68,2,0.019990666731775117,18.00919711124452,19.364613880742915
18.02938838163735,45,90,0,0.043020523634368465,18.01346462797166,15.923753665689148
18.032074509991574,46,80,1,0.010809246122635268,18.014586728955408,17.487781036168133
18.04408478346117,60,91,1,0.009000000000000001,18.02831743253253,15.76735092864125
18.05408478346117,53,42,1,0.024574769126101303,18.030653698417183,23.43108504398827
18.05077357704946,59,113,2,0.01578113971915747,18.03844708633587,12.32649071358749
18.06830817673741,54,54,2,0.010930583146025144,18.046753924537995,21.55425219941349
18.077188963453317,61,84,0,0.010413372449003259,18.06032679336534,16.86217008797654
18.081390082490174,56,65,1,0.009000000000000001,18.061556260398287,19.83382209188661
18.080453269121882,53,78,2,0.03906568798448437,18.062652682611617,17.80058651026393
18.091390082490175,42,69,1,0.009000000000000001,18.07218187134648,19.208211143695017
18.08875937728554,57,106,0,0.009000000000000001,18.07533806741262,13.421309872922777
18.098759377285543,35,72,0,0.0929094898504058,18.08002037435299,18.73900293255132
18.101390082490177,62,108,1,0.009000000000000001,18.08828157809135,13.10850439882698
18.11139008249018,56,123,1,0.009000000000000001,18.10062761914707,10.762463343108504
18.12139008249018,60,79,1,0.01408621651536143,18.103745898716962,17.64418377321603
18.123859589104644,56,99,2,0.027153784543685222,18.109343460072385,14.516129032258064
18.137041434173916,42,90,1,0.018536258973527904,18.121117680508227,15.923753665689148
18.15403046081985,47,121,2,0.04506989035205639,18.142955192002646,11.0752688172043
18.157637277477836,56,98,1,0.016926267629744293,18.14296474570853,14.672531769305962
18.176444241510886,49,59,1,0.0111874474485213,18.155672002996713,20.772238514174
18.18887473867591,61,55,1,0.009000000000000001,18.167476889213546,21.397849462365592
18.19887473867591,55,53,1,0.03882783675113086,18.17716408373945,21.71065493646139
18.20410811676658,47,82,2,0.04212465720006824,18.18693314120451,17.174975562072337
18.201992143785994,57,116,0,0.009000000000000001,18.19013486128355,11.857282502443795
18.211992143785995,48,71,0,0.02118765111384075,18.193096738116395,18.89540566959922
18.23553397835693,52,94,0,0.009000000000000001,18.220235835639432,15.298142717497555
18.2420167795105,53,96,1,0.009000000000000001,18.227031442267098,14.985337243401759
18.24553397835693,54,77,0,0.024535636357156197,18.227576989109618,17.956989247311828
18.250913291433324,56,86,2,0.009000000000000001,18.234363926819444,16.549364613880744
18.2520167795105,58,127,1,0.012550433753692245,18.241879927115583,10.136852394916911
18.260913291433326,68,98,2,0.009000000000000001,18.24624075966402,14.672531769305962
18.265961705903493,54,80,1,0.009000000000000001,18.248473924867326,17.487781036168133
18.270913291433327,48,76,2,0.03148174141528593,18.252799899448966,18.113391984359726
18.27279579653155,51,72,0,0.01693471295723676,18.254056793599,18.73900293255132
18.275961705903494,54,59,1,0.009000000000000001,18.25518946738932,20.772238514174
18.285961705903496,58,91,1,0.009792341720406782,18.270194354974855,15.76735092864125
18.291612144261812,47,75,0,0.009000000000000001,18.273342349540403,18.269794721407624
18.296842085592836,75,43,1,0.009000000000000001,18.273567403285895,23.27468230694037
18.301612144261814,61,56,0,0.009000000000000001,18.280370697536497,21.241446725317694
18.311612144261815,45,49,0,0.009000000000000001,18.28927587837716,22.33626588465298
18.306842085592837,55,99,1,0.016732708739013932,18.29232595656058,14.516129032258064
18.305893004116978,68,108,2,0.06467216011920923,18.292784499718152,13.10850439882698
18.321612144261817,54,66,0,0.009757206302158063,18.301934724906978,19.67741935483871
18.332453484597547,67,70,0,0.01864594500486397,18.3134016761909,19.05180840664712
18.32543398419174,55,122,1,0.045332494582897544,18.314515118111583,10.918866080156402
18.353171201269618,57,64,0,0.009000000000000001,18.333180976440683,19.990224828934508
18.37317120126962,55,63,0,0.036623913944389255,18.35302457370364,20.146627565982406
18.36317120126962,54,127,0,0.009000000000000001,18.3530343488747,10.136852394916911
18.377750959804988,54,60,2,0.009000000000000001,18.357135124027863,20.6158357771261
18.37580342261718,59,74,1,0.009000000000000001,18.357377225158725,18.426197458455523
18.385803422617183,40,75,1,0.0119252834784727,18.367533627895774,18.269794721407624
18.38775095980499,68,100,2,0.05169153114491605,18.37339123350978,14.359726295210166
18.399053737593263,64,111,1,0.009000000000000001,18.38641444140558,12.639296187683286
18.409053737593265,64,70,1,0.009000000000000001,18.390001929186617,19.05180840664712
18.41386443898561,53,102,0,0.009000000000000001,18.399817518164493,14.04692082111437
18.419053737593266,51,107,1,0.013993383051673717,18.405788830457393,13.264907135874878
18.433864438985612,52,53,0,0.009000000000000001,18.41215378404915,21.71065493646139
18.42386443898561,40,127,0,0.009000000000000001,18.413727586590692,10.136852394916911
18.434601940984013,46,94,1,0.04612005381150592,18.419303798266515,15.298142717497555
18.44518599441045,64,98,2,0.02539823766911096,18.430513462641144,14.672531769305962
18.443864438985614,53,110,0,0.029860792142842603,18.431068740060883,12.795698924731184
18.47340625848724,59,25,2,0.009000000000000001,18.447316326913437,26.08993157380254
18.477043096922106,52,89,0,0.033398144596081786,18.46096294051937,16.080156402737046
18.483406258487243,36,100,2,0.019916260156800945,18.46904653219203,14.359726295210166
18.48584644521902,61,122,1,0.009000000000000001,18.474927579138864,10.918866080156402
18.495846445219023,43,109,1,0.009000000000000001,18.482894343557245,12.952101661779082
18.505535436439242,61,72,2,0.009000000000000001,18.48679643350669,18.73900293255132
18.505846445219024,56,99,1,0.009000000000000001,18.491330316186765,14.516129032258064
18.515535436439244,46,52,2,0.010099818331953656,18.493668378765733,21.867057673509287
18.514152146473307,55,91,0,0.1016193507396353,18.498384795544666,15.76735092864125
18.515846445219026,57,91,1,0.01819990633269478,18.500079094290385,15.76735092864125
18.52675745680808,67,81,2,0.01670792679397612,18.509426078508962,17.331378299120235
18.536068563366463,52,57,1,0.009000000000000001,18.514983519378195,21.085043988269796
18.546068563366465,54,84,1,0.009000000000000001,18.52920639327849,16.86217008797654
18.5453218199125,56,104,2,0.009000000000000001,18.531587704565478,13.734115347018573
18.556068563366466,55,72,1,0.009000000000000001,18.537329560433914,18.73900293255132
18.5553218199125,51,92,2,0.009000000000000001,18.539710871720906,15.610948191593351
18.5653218199125,42,66,2,0.013104030810011621,18.545644400557663,19.67741935483871
18.566068563366468,57,64,1,0.009000000000000001,18.546078338537534,19.990224828934508
18.57606856336647,61,86,1,0.009000000000000001,18.55951919875259,16.549364613880744
18.579881854145846,60,71,2,0.05291515860300179,18.560986448476246,18.89540566959922
18.58606856336647,61,110,1,0.009000000000000001,18.57327286444174,12.795698924731184
18.596068563366472,65,58,1,0.009000000000000001,18.575139922115252,20.928641251221897
18.606068563366474,67,109,1,0.010299862180384915,18.593116461704696,12.952101661779082
18.627062536184013,59,31,0,0.009000000000000001,18.6019110210325,25.151515151515152
18.61751285467801,55,99,1,0.04230871441215667,18.602996725645752,14.516129032258064
18.637062536184015,59,84,0,0.020255525494057736,18.62020036609604,16.86217008797654
18.63867647481585,45,106,2,0.009000000000000001,18.625255164942928,13.421309872922777
18.64867647481585,57,127,2,0.03116455430168304,18.638539622420932,10.136852394916911
18.659568675621856,52,70,0,0.009000000000000001,18.640516867215208,19.05180840664712
18.669568675621857,62,54,0,0.025483077169852816,18.648014423422442,21.55425219941349
18.675352698341662,63,52,1,0.03910613690570189,18.65348564066815,21.867057673509287
18.664522537358184,53,127,1,0.00974714488512871,18.654385684963266,10.136852394916911
18.683303757373277,52,113,2,0.009000000000000001,18.67097726665969,12.32649071358749
18.697883205810584,65,59,0,0.019890218780078826,18.67711096729641,20.772238514174
18.69330375737328,66,112,2,0.012476677711460011,18.680820863922644,12.482893450635387
18.707166732608236,49,102,2,0.009000000000000001,18.69311981178712,14.04692082111437
18.71880396157022,65,65,1,0.018348236972508116,18.698970139478334,19.83382209188661
18.71998344889956,56,67,0,0.025755910171672777,18.700462432281768,19.521016617790814
18.717166732608238,69,111,2,0.009000000000000001,18.704527436420555,12.639296187683286
18.72716673260824,50,78,2,0.009000000000000001,18.709366146097974,17.80058651026393
18.748601126868085,42,39,0,0.032129294781176286,18.724700833612953,23.900293255131963
18.73716673260824,59,117,2,0.009000000000000001,18.725465852842845,11.700879765395896
18.739190891539675,56,107,1,0.009000000000000001,18.7259259844038,13.264907135874878
18.749190891539676,33,87,1,0.012328749618505429,18.732797929662844,16.392961876832846
18.747166732608243,62,104,2,0.014550693643318796,18.733432617261222,13.734115347018573
18.763334169989708,62,52,2,0.05091756646601426,18.741467112316197,21.867057673509287
18.762889502226905,56,110,1,0.050843319549032345,18.750093803302175,12.795698924731184
18.784300343291616,46,95,0,0.009000000000000001,18.769158603311165,15.141739980449657
18.794300343291617,52,127,0,0.009000000000000001,18.7841634908967,10.136852394916911
18.80430034329162,62,80,0,0.014496182126611325,18.786812562255452,17.487781036168133
18.819382079503608,54,45,1,0.009000000000000001,18.796420202670763,22.961876832844574
18.819909243840836,55,81,2,0.009000000000000001,18.802577865541718,17.331378299120235
18.820407212321186,45,81,0,0.009000000000000001,18.803075834022067,17.331378299120235
18.829909243840838,61,67,2,0.043633765930005716,18.810388227223047,19.521016617790814
18.830407212321187,57,69,0,0.03144872444060253,18.811199001177492,19.208211143695017
18.82938207950361,46,98,1,0.009000000000000001,18.814709547734303,14.672531769305962
18.83938207950361,63,94,1,0.009395706088709781,18.824083936786113,15.298142717497555
18.84982175293551,45,68,1,0.009000000000000001,18.83045713905477,19.364613880742915
18.859821752935513,54,70,1,0.012667925282622394,18.840769944528866,19.05180840664712
18.86535023947741,37,106,0,0.018884786503764534,18.85192892960449,13.421309872922777
18.87389722547176,62,83,1,0.012881512332362578,18.85687865264674,17.01857282502444
18.878391205985288,46,116,2,0.03969707377799925,18.866533923482844,11.857282502443795
18.886333335592706,56,91,0,0.009000000000000001,18.870565984664065,15.76735092864125
18.888210016952165,53,123,1,0.009000000000000001,18.877447553609056,10.762463343108504
18.896333335592708,48,93,0,0.009000000000000001,18.880878790138162,15.454545454545453
18.898210016952167,44,97,1,0.009000000000000001,18.883381082445812,14.82893450635386
18.90633333559271,46,72,0,0.0130207581398457,18.887594332660157,18.73900293255132
18.908210016952168,47,113,1,0.009000000000000001,18.89588352623858,12.32649071358749
18.91821001695217,46,55,1,0.012634025421909533,18.896812167489806,21.397849462365592
18.920800844636982,47,62,0,0.025462544374235934,18.900497814333953,20.303030303030305
18.92249906573862,61,58,2,0.009000000000000001,18.9015704244874,20.928641251221897
18.93249906573862,54,51,2,0.009097432802685563,18.910475605328063,22.023460410557185
18.932247822976514,60,87,1,0.01410785737400333,18.91585486109968,16.392961876832846
18.949092560608356,48,54,0,0.01404103225063653,18.92753830840894,21.55425219941349
18.94260732440827,45,102,2,0.0237244397718438,18.928560403587156,14.04692082111437
18.94792322005874,51,98,1,0.02337099701972241,18.933250688289434,14.672531769305962
18.968967813043655,55,68,2,0.009000000000000001,18.94960319916291,19.364613880742915
18.964693707553508,54,96,0,0.01741746853108982,18.949708370310105,14.985337243401759
18.9738909945251,41,105,1,0.009317177154755161,18.96031328191513,13.577712609970675
18.978967813043656,51,127,2,0.02273763936553916,18.968830960648738,10.136852394916911
18.98424341358594,57,95,1,0.009000000000000001,18.96910167360549,15.141739980449657
18.98404645036583,61,98,0,0.0112412164598657,18.969373918596524,14.672531769305962
18.99424341358594,70,98,1,0.009000000000000001,18.979570881816635,14.672531769305962
19.004243413585943,59,68,1,0.027555847592107708,18.9848787997052,19.364613880742915
18.99653669087679,48,120,0,0.009000000000000001,18.98530501932254,11.231671554252198
19.004231856783143,57,94,2,0.012319575512596792,18.988933714065645,15.298142717497555
19.006536690876793,64,92,0,0.009865070204682178,18.9909257426852,15.610948191593351
19.01792027401936,69,74,2,0.009000000000000001,18.999494076560904,18.426197458455523
19.017497879993105,42,113,0,0.013205588592764099,19.005171389279518,12.32649071358749
19.027920274019362,49,49,2,0.009000000000000001,19.005584008134708,22.33626588465298
19.032170756207286,57,58,0,0.011214705492520183,19.011242114956065,20.928641251221897
19.037920274019363,67,59,2,0.02479071673879486,19.01714803550519,20.772238514174
19.03486102202162,55,83,1,0.009000000000000001,19.017842449196596,17.01857282502444
19.044631540087863,55,55,0,0.011784454745105314,19.0232336906255,21.397849462365592
19.057725378693537,59,38,0,0.04365441733995613,19.033668682701357,24.05669599217986
19.04486102202162,56,127,1,0.013026484209621512,19.034724169626703,10.136852394916911
19.06546551484025,45,53,2,0.009000000000000001,19.043754859903785,21.71065493646139
19.059334893365644,48,108,1,0.012885982735851639,19.04622638896682,13.10850439882698
19.073652651961034,53,88,1,0.009000000000000001,19.05741609282125,16.236559139784944
19.07546551484025,47,94,2,0.009000000000000001,19.060167372122752,15.298142717497555
19.083652651961035,54,109,1,0.009000000000000001,19.070700550299257,12.952101661779082
19.08546551484025,51,102,2,0.014056192861154082,19.071418594019136,14.04692082111437
19.093652651961037,50,55,1,0.023751757415979128,19.072254802498673,21.397849462365592
19.1010835069082,67,92,2,0.011271047133762436,19.085472558716607,15.610948191593351
19.106230286849044,46,87,0,0.013164895142560267,19.089837324972212,16.392961876832846
19.11360689261238,61,114,2,0.009000000000000001,19.101436804635842,12.170087976539591
19.120857948118555,51,87,0,0.038530546176330616,19.104464986241723,16.392961876832846
19.120043493534347,57,95,1,0.009000000000000001,19.104901753553897,15.141739980449657
19.123606892612383,58,82,2,0.010047817159394087,19.106431917050312,17.174975562072337
19.1347711339006,56,75,2,0.021468033075191417,19.11650133917919,18.269794721407624
19.130043493534348,49,120,1,0.00916288482452153,19.118811821980096,11.231671554252198
19.140224476672707,54,107,1,0.009000000000000001,19.126959569536833,13.264907135874878
19.150224476672708,41,88,1,0.011386204383889076,19.133987917532924,16.236559139784944
19.158624503984147,45,45,2,0.0230092990981122,19.1356626271513,22.961876832844574
19.16287581487703,56,55,1,0.009000000000000001,19.141477965414666,21.397849462365592
19.163669666092257,59,109,0,0.009000000000000001,19.15071756443048,12.952101661779082
19.17366966609226,53,87,0,0.01631284095472225,19.157276704215427,16.392961876832846
19.17287581487703,42,101,1,0.009000000000000001,19.158672491318868,14.203323558162268
19.182875814877033,65,66,1,0.026924466064121858,19.163198395522194,19.67741935483871
19.18419039187094,60,82,2,0.009000000000000001,19.167015416308868,17.174975562072337
19.19419039187094,56,92,2,0.012377455546405701,19.178579443679347,15.610948191593351
19.19179504493084,51,109,0,0.05668339800640792,19.17884294326906,12.952101661779082
19.207943120255834,52,75,2,0.036266531105551246,19.189673325534425,18.269794721407624
19.21279188828161,45,70,1,0.009000000000000001,19.193740079874964,19.05180840664712
19.222791888281613,40,107,1,0.012733250597399045,19.20952698114574,13.264907135874878
19.236939944500946,61,91,1,0.009000000000000001,19.221172593572305,15.76735092864125
19.246939944500948,54,67,1,0.009000000000000001,19.227418927883157,19.521016617790814
19.248239265928667,55,79,2,0.010002421330368565,19.23059508215545,17.64418377321603
19.25477659827129,39,68,0,0.009000000000000001,19.23541198439055,19.364613880742915
19.259353067406856,61,50,2,0.009000000000000001,19.23717320425925,22.179863147605083
19.269353067406858,46,19,2,0.0444167321337137,19.242324719410767,27.02834799608993
19.25693994450095,41,127,1,0.05092010151472499,19.24680309210603,10.136852394916911
19.264776598271293,48,93,0,0.016012891020886533,19.249322052816748,15.454545454545453
19.282568699405612,51,65,0,0.009000000000000001,19.262734877313726,19.83382209188661
19.292568699405614,46,103,0,0.011507342593577111,19.278678181321546,13.890518084066471
19.3053546356207,55,118,0,0.009000000000000001,19.29381015859235,11.544477028347998
19.3153546356207,58,69,0,0.016789878826966458,19.296146424477005,19.208211143695017
19.313517835072865,48,82,1,0.03139294312377178,19.296342859510794,17.174975562072337
19.318704991999873,54,105,2,0.009000000000000001,19.305127279389904,13.577712609970675
19.328704991999874,56,62,2,0.009000000000000001,19.308401961696845,20.303030303030305
19.33401005653955,49,101,0,0.009000000000000001,19.319806732981387,14.203323558162268
19.344010056539553,52,93,0,0.029268911392536134,19.328555511085007,15.454545454545453
19.338704991999876,54,127,2,0.02830465265878553,19.328568139604958,10.136852394916911
19.348398882988167,61,110,1,0.04949900327794825,19.335603184063437,12.795698924731184
19.370154606065192,57,97,2,0.009000000000000001,19.355325671558838,14.82893450635386
19.376531069197927,50,82,0,0.08934149863144082,19.359356093635856,17.174975562072337
19.380154606065194,52,78,2,0.011900280478888203,19.362354019554928,17.80058651026393
19.393377139930625,55,71,2,0.009000000000000001,19.374481734261025,18.89540566959922
19.403377139930626,51,94,2,0.010488951992589887,19.388078997213128,15.298142717497555
19.40339777551922,49,95,1,0.009000000000000001,19.38825603553877,15.141739980449657
19.413397775519222,58,68,1,0.011839514714556527,19.39403316163848,19.364613880742915
19.415031531033502,61,106,2,0.04535931113138636,19.40161022116058,13.421309872922777
19.42655279186873,54,98,1,0.009000000000000001,19.411880260099423,14.672531769305962
19.43655279186873,63,124,1,0.024462471484488598,19.42594673126267,10.606060606060606
19.465430765623932,52,85,2,0.009000000000000001,19.448724998273004,16.705767350928642
19.463733315740384,71,113,1,0.009000000000000001,19.451406825026798,12.32649071358749
19.475430765623933,65,73,2,0.010917688910627586,19.45684816542843,18.58260019550342
19.473733315740386,61,91,1,0.024114672273468835,19.457965964811745,15.76735092864125
19.47579940101064,50,105,0,0.013985602113054336,19.46222168840067,13.577712609970675
19.487561531080186,53,54,2,0.01932338809450214,19.46600727888077,21.55425219941349
19.491338958914035,65,86,0,0.009000000000000001,19.474789594300155,16.549364613880744
19.50052739604424,57,33,1,0.009000000000000001,19.475688686366823,24.838709677419356
19.501338958914037,58,102,0,0.020752725590894944,19.48729203809292,14.04692082111437
19.509031962296298,45,61,2,0.009000000000000001,19.48857252925622,20.459433040078203
19.510527396044242,58,53,1,0.009000000000000001,19.48881674110778,21.71065493646139
19.520527396044244,61,57,1,0.009000000000000001,19.499442352055976,21.085043988269796
19.5190319622963,52,95,2,0.0178694669643051,19.50389022231585,15.141739980449657
19.52439754290392,53,73,0,0.0440052102549871,19.505814942708415,18.58260019550342
19.530527396044246,55,105,1,0.018989121987059755,19.516949683434277,13.577712609970675
19.53888692558997,53,82,2,0.00977568548440478,19.5217119500279,17.174975562072337
19.54974879835042,48,58,2,0.019783685921368904,19.5288201570992,20.928641251221897
19.551626420474314,59,86,1,0.009000000000000001,19.535077055860434,16.549364613880744
19.561626420474315,52,54,1,0.014479259795918431,19.5400721682749,21.55425219941349
19.571730671596388,55,55,2,0.015349891838412174,19.550332822134024,21.397849462365592
19.573292220965016,63,101,0,0.04616145654309872,19.559088897406852,14.203323558162268
19.577714486914225,56,99,1,0.009000000000000001,19.563198357881966,14.516129032258064
19.587714486914226,53,77,1,0.015753984946711583,19.569757497666913,17.956989247311828
19.588786106972403,54,95,2,0.023139712471992636,19.573644366991953,15.141739980449657
19.605218914632793,61,70,1,0.02449323414485914,19.586167106226146,19.05180840664712
19.61449689860795,57,106,2,0.009000000000000001,19.60107558873503,13.421309872922777
19.62449689860795,48,58,2,0.009000000000000001,19.60356825735673,20.928641251221897
19.624582728235126,49,76,0,0.009000000000000001,19.606469336250765,18.113391984359726
19.634496898607953,50,70,2,0.037723405300448105,19.615445090201305,19.05180840664712
19.632433619238192,39,113,1,0.009000000000000001,19.620107128524605,12.32649071358749
19.642433619238194,47,56,1,0.009000000000000001,19.621192172512878,21.241446725317694
19.634582728235127,54,122,0,0.010527967682415767,19.62366386215497,10.918866080156402
19.64628047010448,40,79,0,0.034421579994205684,19.62863628633126,17.64418377321603
19.652433619238195,53,82,1,0.010019659714380602,19.635258643676124,17.174975562072337
19.663566574476395,57,60,1,0.009000000000000001,19.64295073869927,20.6158357771261
19.67641179338623,50,72,2,0.025193039626548352,19.657672790453677,18.73900293255132
19.673566574476396,53,112,1,0.009000000000000001,19.66108368102576,12.482893450635387
19.683566574476398,58,91,1,0.011878538131086011,19.667799223547757,15.76735092864125
19.68452667009804,28,100,0,0.009000000000000001,19.67016694380283,14.359726295210166
19.694526670098043,50,95,0,0.009000000000000001,19.679384930117592,15.141739980449657
19.696764950177606,50,106,1,0.009000000000000001,19.683343640304685,13.421309872922777
19.704404059637948,54,62,2,0.0339848135511276,19.68410102933492,20.303030303030305
19.706764950177607,57,93,1,0.010660049853419977,19.691310404723062,15.454545454545453
19.704526670098044,55,110,0,0.009000000000000001,19.691730971173314,12.795698924731184
19.714526670098046,54,92,0,0.03126824238883745,19.698915721906452,15.610948191593351
19.71860945001474,53,109,1,0.009000000000000001,19.70565734835296,12.952101661779082
19.72860945001474,50,59,1,0.009000000000000001,19.707837211500568,20.772238514174
19.738609450014742,49,81,1,0.0331933711873969,19.721278071715624,17.331378299120235
19.749269161641198,52,44,0,0.009000000000000001,19.726150882071305,23.118279569892472
19.742164963583644,66,100,2,0.009000000000000001,19.727805237288432,14.359726295210166
19.752164963583645,54,52,2,0.009000000000000001,19.730297905910135,21.867057673509287
19.7592691616412,66,91,0,0.0208741143505643,19.74350181071256,15.76735092864125
19.762164963583647,49,110,2,0.012326109996070997,19.749369264658917,12.795698924731184
19.775490973556295,57,81,1,0.013283362985767799,19.758159595257176,17.331378299120235
19.77586064135706,62,79,2,0.010766116400681551,19.758216457583842,17.64418377321603
19.782462622030717,55,104,0,0.009000000000000001,19.768728506683697,13.734115347018573
19.787822992913373,59,70,2,0.019074064621316736,19.768771184506726,19.05180840664712
19.79246262203072,60,79,0,0.026586001676494324,19.7748184382575,17.64418377321603
19.790250265762705,68,103,1,0.009013639557532689,19.776359747678637,13.890518084066471
19.80026542082663,49,89,1,0.016850259036340732,19.784185264423893,16.080156402737046
19.80901639804817,66,115,2,0.06027096337641826,19.797002712808677,12.013685239491693
19.81898793086701,62,77,1,0.009000000000000001,19.801030941619697,17.956989247311828
19.82200262389349,50,74,0,0.009000000000000001,19.803576426435033,18.426197458455523
19.82898793086701,43,91,1,0.025973329593166464,19.81322057993837,15.76735092864125
19.83200262389349,63,89,0,0.009000000000000001,19.815922467490754,16.080156402737046
19.842002623893492,46,58,0,0.0819672247504977,19.82107398264227,20.928641251221897
19.85784718597053,55,90,1,0.009000000000000001,19.841923432304842,15.923753665689148
19.867847185970533,52,107,1,0.022664782685805095,19.85458227883466,13.264907135874878
19.875984135133077,69,78,2,0.04694581544940357,19.85818354862281,17.80058651026393
19.89303027784365,47,54,1,0.009000000000000001,19.871476025644235,21.55425219941349
19.90303027784365,50,55,1,0.009000000000000001,19.881632428381288,21.397849462365592
19.913030277843653,60,122,1,0.019280348571453408,19.902111411763496,10.918866080156402
19.93307731806071,61,78,0,0.009000000000000001,19.915276731550446,17.80058651026393
19.92814615229908,43,113,2,0.00973114174731978,19.915819661585495,12.32649071358749
19.938958532018326,55,74,2,0.04636166950663518,19.92053233455987,18.426197458455523
19.93445288736749,49,127,1,0.011651953202811151,19.924316034972573,10.136852394916911
19.943077318060713,47,127,0,0.009000000000000001,19.932940465665794,10.136852394916911
19.947399502037282,45,112,1,0.017533113997684882,19.934916608586647,12.482893450635387
19.953077318060714,59,104,0,0.022174826548720907,19.939343202713694,13.734115347018573
19.96688073981249,48,61,1,0.05650945594863264,19.94642130677241,20.459433040078203
19.977716014225958,45,82,0,0.009000000000000001,19.960541038663887,17.174975562072337
19.98771601422596,42,81,0,0.009000000000000001,19.97038463592684,17.331378299120235
19.99047149813681,52,127,2,0.05170691915214275,19.98033464574189,10.136852394916911
19.99771601422596,63,127,0,0.03405789119406227,19.987579161831043,10.136852394916911
20.02966902419986,65,64,1,0.009000000000000001,20.009678799370924,19.990224828934508
20.03966902419986,53,34,1,0.0133395536634217,20.01498671725949,24.682306940371458
20.035558115552696,55,125,0,0.04477315379101524,20.025108457683682,10.449657869012707
20.04792363052808,74,127,2,0.009000000000000001,20.03778677813316,10.136852394916911
20.05792363052808,43,95,2,0.017478764517423296,20.04278189054763,15.141739980449657
20.05449075049255,61,121,1,0.009000000000000001,20.043415481675346,11.0752688172043
20.064490750492553,39,105,1,0.009000000000000001,20.050913037882584,13.577712609970675
20.074490750492554,62,104,1,0.017527584932654258,20.060756635145534,13.734115347018573
20.077344479991883,46,101,2,0.014683785461878035,20.06314115643372,14.203323558162268
20.08530606420938,58,79,0,0.018739415095264347,20.067661880436162,17.64418377321603
20.093659797171746,67,80,2,0.009000000000000001,20.07617201613558,17.487781036168133
20.09396584486217,56,90,1,0.013301065542110845,20.07804209119648,15.923753665689148
20.10612763653745,51,35,0,0.009000000000000001,20.08160173233413,24.52590420332356
20.103659797171748,44,68,2,0.009000000000000001,20.084295183291005,19.364613880742915
20.108744806575626,62,84,1,0.02301536516500148,20.09188263648765,16.86217008797654
20.11365979717175,61,92,2,0.013370864177904906,20.098048848980156,15.610948191593351
20.116127636537453,61,78,0,0.009000000000000001,20.098327050027187,17.80058651026393
20.128516312924976,43,66,2,0.018944447144324923,20.108838893570137,19.67741935483871
20.126127636537454,45,95,0,0.009000000000000001,20.110985896557004,15.141739980449657
20.134317434536737,45,66,1,0.009000000000000001,20.114640015181898,19.67741935483871
20.136127636537456,42,109,0,0.009000000000000001,20.123175534875678,12.952101661779082
20.144317434536738,65,90,1,0.0491916923371466,20.12839368087105,15.923753665689148
20.14956569864089,42,63,2,0.009000000000000001,20.12941907107491,20.146627565982406
20.146127636537457,57,100,0,0.009000000000000001,20.131767910242246,14.359726295210166
20.15612763653746,51,103,0,0.009000000000000001,20.14223711845339,13.890518084066471
20.159565698640893,50,104,2,0.017012578815689128,20.145831583293873,13.734115347018573
20.16612763653746,39,75,0,0.04005791867207767,20.14785784181605,18.269794721407624
20.178468563991657,74,76,2,0.017537092125916077,20.160355172007296,18.113391984359726
20.19795422190934,45,78,2,0.025414865366244307,20.180153635399076,17.80058651026393
20.208974870466903,53,8,1,0.009000000000000001,20.180226092363288,28.748778103616814
20.198974870466902,54,121,1,0.009000000000000001,20.187899601649697,11.0752688172043
20.210636435061993,41,55,0,0.019445563313850747,20.18923858559963,21.397849462365592
20.218974870466905,64,76,1,0.009000000000000001,20.200861478482544,18.113391984359726
20.228974870466907,71,63,1,0.009000000000000001,20.208828242900925,20.146627565982406
20.232242616521827,54,81,0,0.012497505151156088,20.214911238222708,17.331378299120235
20.226192961205168,48,127,2,0.016445273215280606,20.21605610881025,10.136852394916911
20.244465486999925,52,56,2,0.009000000000000001,20.22322404027461,21.241446725317694
20.238974870466908,60,101,1,0.04219943659833281,20.224771546908745,14.203323558162268
20.246128733356446,56,83,0,0.009000000000000001,20.229110160531423,17.01857282502444
20.254465486999926,57,64,2,0.009000000000000001,20.234475262170992,19.990224828934508
20.256128733356448,54,111,0,0.009000000000000001,20.243489437168765,12.639296187683286
20.264465486999928,66,65,2,0.02998340727647065,20.24463166490804,19.83382209188661
20.26612873335645,57,83,0,0.009000000000000001,20.249110160531426,17.01857282502444
20.27612873335645,47,109,0,0.009000000000000001,20.263176631694673,12.952101661779082
20.285863133353946,50,63,1,0.009000000000000001,20.265716505787964,20.146627565982406
20.286128733356453,58,105,0,0.009000000000000001,20.272551020746484,13.577712609970675
20.295863133353947,62,90,1,0.012015089702227038,20.27993937968826,15.923753665689148
20.297780383973784,69,115,2,0.011321408116917795,20.285766698734292,12.013685239491693
20.296128733356454,50,127,0,0.022797777443414543,20.285991880961536,10.136852394916911
20.309213233023087,47,45,1,0.009000000000000001,20.286251356190242,22.961876832844574
20.310359726325913,51,79,2,0.009000000000000001,20.292715542552695,17.64418377321603
20.31921323302309,57,49,1,0.009000000000000001,20.296876967138434,22.33626588465298
20.320359726325915,64,84,2,0.038781953761316545,20.30349755623794,16.86217008797654
20.32145959718247,70,122,0,0.009000000000000001,20.310540731102314,10.918866080156402
20.331459597182473,57,88,0,0.009000000000000001,20.31522303804269,16.236559139784944
20.32921323302309,48,104,1,0.02002295645247249,20.31547911767607,13.734115347018573
20.341459597182475,62,87,0,0.018084392621673023,20.325066635305642,16.392961876832846
20.351460962414727,52,79,1,0.009000000000000001,20.33381677864151,17.64418377321603
20.361553366762113,80,69,0,0.031033930004075762,20.342345155618418,19.208211143695017
20.36146096241473,59,75,1,0.009000000000000001,20.34319116769332,18.269794721407624
20.36345078606071,56,125,2,0.011717422546525795,20.353001128191696,10.449657869012707
20.37146096241473,75,127,1,0.009510983020309612,20.36132411001981,10.136852394916911
20.37647014444574,61,95,2,0.009700686762484943,20.36132840446529,15.141739980449657
20.387248685292946,56,33,2,0.01281233425770647,20.362409975615527,24.838709677419356
20.382028721326186,48,77,1,0.017233646176666974,20.364071732078873,17.956989247311828
20.40117721707804,38,58,1,0.009000000000000001,20.38024857582682,20.928641251221897
20.396035511211085,57,99,0,0.013813064491939003,20.381519382178826,14.516129032258064
20.40148461224595,53,101,2,0.011648694432606032,20.387281288687788,14.203323558162268
20.41117721707804,44,69,1,0.009000000000000001,20.391969005934346,19.208211143695017
20.411383360646575,50,82,0,0.04110061479522386,20.394208385084504,17.174975562072337
20.41442760605996,46,87,2,0.018888711860349815,20.398034644183127,16.392961876832846
20.421177217078043,46,86,1,0.009000000000000001,20.404627852464163,16.549364613880744
20.43541506368257,45,55,2,0.009000000000000001,20.414017214220205,21.397849462365592
20.431177217078044,50,86,1,0.009000000000000001,20.414627852464164,16.549364613880744
20.441177217078046,62,100,1,0.009000000000000001,20.426817490782835,14.359726295210166
20.44541506368257,47,80,2,0.009000000000000001,20.427927282646404,17.487781036168133
20.457050710419047,50,72,0,0.009000000000000001,20.438311707486495,18.73900293255132
20.455415063682572,63,98,2,0.009000000000000001,20.440742531913266,14.672531769305962
20.451177217078047,59,127,1,0.015953126033208885,20.44104036468313,10.136852394916911
20.4689029126705,63,66,1,0.009000000000000001,20.449225493315662,19.67741935483871
20.465415063682574,51,89,2,0.012831555151152496,20.449334907279837,16.080156402737046
20.46705071041905,53,79,0,0.019506456127317384,20.44940652664583,17.64418377321603
20.479672347183854,54,54,2,0.009000000000000001,20.45811809498444,21.55425219941349
20.478902912670502,40,89,1,0.009000000000000001,20.462822756267766,16.080156402737046
20.488902912670504,70,67,1,0.011143505587922107,20.469381896052713,19.521016617790814
20.489672347183856,51,67,2,0.06474352850237883,20.470151330566065,19.521016617790814
20.488724550560512,62,86,0,0.009000000000000001,20.472175185946632,16.549364613880744
20.501284585545974,57,67,1,0.017941643010903473,20.481763568928184,19.521016617790814
20.498724550560514,46,90,0,0.009000000000000001,20.482800796894825,15.923753665689148
20.508724550560515,62,71,0,0.00909464674514783,20.489829144890916,18.89540566959922
20.521219744446977,48,63,1,0.03547218071228396,20.501073116880995,20.146627565982406
20.51882971361068,51,80,0,0.014379259624825298,20.501341932574512,17.487781036168133
20.534806668749372,50,56,0,0.009000000000000001,20.513565222024056,21.241446725317694
20.544806668749374,76,80,0,0.016267071038678756,20.527318887713207,17.487781036168133
20.56160960107539,60,74,2,0.029180778424053477,20.543183403616933,18.426197458455523
20.560633278571736,54,118,1,0.009000000000000001,20.549088801543387,11.544477028347998
20.562881192125683,43,110,0,0.04692202661143969,20.550085493200953,12.795698924731184
20.570633278571737,56,70,1,0.019900196177591985,20.55158147016509,19.05180840664712
20.592744607657952,51,52,1,0.009000000000000001,20.57087754998444,21.867057673509287
20.594032688213225,66,54,2,0.009000000000000001,20.57247843601381,21.55425219941349
20.604032688213227,50,89,2,0.009000000000000001,20.58795253181049,16.080156402737046
20.602744607657954,50,117,1,0.032949461920635026,20.591043727892558,11.700879765395896
20.61403268821323,49,94,2,0.015771141311852963,20.59873454549573,15.298142717497555
20.615016777249505,53,108,0,0.009000000000000001,20.60190827285068,13.10850439882698
20.625016777249506,44,95,0,0.014802707468973626,20.609875037269056,15.141739980449657
20.64146422999281,41,27,0,0.0321740807765683,20.6156871038931,25.777126099706745
20.63155617855973,55,127,2,0.011036842967708974,20.621419326164812,10.136852394916911
20.639355120903105,57,126,1,0.01878664736839121,20.62906186577114,10.29325513196481
20.64381933741274,44,100,2,0.009000000000000001,20.62945961111753,14.359726295210166
20.66022917353465,57,34,1,0.009000000000000001,20.63554686659428,24.682306940371458
20.65381933741274,51,105,2,0.009000000000000001,20.640241624802773,13.577712609970675
20.663819337412743,65,97,2,0.05613995002929967,20.64899040290639,14.82893450635386
20.67022917353465,60,76,1,0.02718468209215933,20.65211578155029,18.113391984359726
20.67721320863344,61,92,0,0.009000000000000001,20.661602260441846,15.610948191593351
20.68721320863344,45,86,0,0.009000000000000001,20.67066384401956,16.549364613880744
20.697213208633443,60,68,0,0.009000000000000001,20.6778485947527,19.364613880742915
20.70043437585927,51,94,1,0.009000000000000001,20.685136233141773,15.298142717497555
20.710434375859272,55,57,1,0.009000000000000001,20.689349331871004,21.085043988269796
20.707213208633444,48,94,0,0.019810735606445726,20.691915065915946,15.298142717497555
20.720434375859274,51,53,1,0.009000000000000001,20.69872372092281,21.71065493646139
20.72619705966752,52,60,2,0.009000000000000001,20.705581223890395,20.6158357771261
20.730434375859275,56,71,1,0.009000000000000001,20.711538970189675,18.89540566959922
20.729225137085052,49,83,0,0.009000000000000001,20.71220656426003,17.01857282502444
20.740434375859277,54,88,1,0.009000000000000001,20.724197816719492,16.236559139784944
20.746197059667523,49,62,2,0.01112649773994697,20.725894029364493,20.303030303030305
20.73619705966752,59,127,2,0.009000000000000001,20.726060207272603,10.136852394916911
20.739225137085054,53,113,0,0.013940213830928465,20.726898646371467,12.32649071358749
20.750434375859278,52,108,1,0.009000000000000001,20.737325871460452,13.10850439882698
20.754714263563862,54,101,0,0.009719379127202695,20.7405109400057,14.203323558162268
20.7655135737052,47,57,0,0.009000000000000001,20.74442852971693,21.085043988269796
20.75855983493413,45,110,2,0.02164241874112665,20.7457641360094,12.795698924731184
20.76043437585928,37,110,1,0.025566047736295856,20.74763867693455,12.795698924731184
20.7755135737052,48,87,0,0.03355287301783359,20.75912061182837,16.392961876832846
20.782606966868713,54,98,2,0.009000000000000001,20.767934435099406,14.672531769305962
20.788841095566276,50,68,1,0.0207699126935623,20.769476481685533,19.364613880742915
20.792606966868714,59,121,2,0.04054550017111971,20.78153169805151,11.0752688172043
20.811918776336903,54,44,1,0.014321402565694525,20.78880049676701,23.118279569892472
20.812794543725015,62,104,0,0.012223237878691139,20.799060428377995,13.734115347018573
20.82783144585434,65,59,1,0.009000000000000001,20.807059207340167,20.772238514174
20.826375919145782,44,93,0,0.013492742204999035,20.810921373691237,15.454545454545453
20.83783144585434,65,84,1,0.019141325029443608,20.820969275766366,16.86217008797654
20.837657522614403,53,112,2,0.009000000000000001,20.82517462916377,12.482893450635387
20.841367854929114,72,110,0,0.012481729683222609,20.828572156004384,12.795698924731184
20.85523644346603,44,34,0,0.031658351934576924,20.83055413652566,24.682306940371458
20.847657522614405,44,112,2,0.01588717546437816,20.83517462916377,12.482893450635387
20.859099584775944,41,109,1,0.009000000000000001,20.846147483114166,12.952101661779082
20.869099584775945,59,70,1,0.009000000000000001,20.850047776369298,19.05180840664712
20.865309939797047,45,127,2,0.009000000000000001,20.85517308740213,10.136852394916911
20.87530993979705,44,76,2,0.009000000000000001,20.857196547812688,18.113391984359726
20.879099584775947,49,102,1,0.009000000000000001,20.86505266395483,14.04692082111437
20.890412390060003,48,84,0,0.009553617742352746,20.873550219972028,16.86217008797654
20.88530993979705,67,124,2,0.04461160035095164,20.87470387919099,10.606060606060606
20.88909958477595,42,124,1,0.009000000000000001,20.878493524169887,10.606060606060606
20.90102752088484,43,83,0,0.009000000000000001,20.884008948059815,17.01857282502444
20.89909958477595,63,119,1,0.009000000000000001,20.88771151048465,11.3880742913001
20.90909958477595,60,89,1,0.009000000000000001,20.893019428373215,16.080156402737046
20.91102752088484,58,101,0,0.027125974837600982,20.896824197326676,14.203323558162268
20.919099584775953,49,82,1,0.022171944803119327,20.901924609213882,17.174975562072337
20.94116749292662,71,48,0,0.012816187696783228,20.91867482430492,22.49266862170088
20.934878384631443,50,113,2,0.009000000000000001,20.922551893917856,12.32649071358749
20.94373507900164,46,74,1,0.033663673313298406,20.925308881543184,18.426197458455523
20.944878384631444,51,79,2,0.014936657550742267,20.927234200858226,17.64418377321603
20.955407701478602,57,80,0,0.01683961620599167,20.937919920442436,17.487781036168133
20.961474670798935,59,72,2,0.03505080024043105,20.942735667866383,18.73900293255132
20.974118386151925,58,61,0,0.009000000000000001,20.953658953111848,20.459433040078203
20.981139160460863,49,52,1,0.009000000000000001,20.959272102787352,21.867057673509287
20.984118386151927,57,50,0,0.009000000000000001,20.96193852300432,22.179863147605083
20.991139160460865,45,108,1,0.016451292841791504,20.97803065606204,13.10850439882698
20.99411838615193,70,114,0,0.01555993488077124,20.98194829817539,12.170087976539591
21.000420004399416,60,104,2,0.04523233206574345,20.986685889052396,13.734115347018573
21.00941837472952,45,57,1,0.009000000000000001,20.988333330741252,21.085043988269796
21.01140720268612,61,76,0,0.009000000000000001,20.993293810701758,18.113391984359726
21.02140720268612,62,80,0,0.009000000000000001,21.003919421649954,17.487781036168133
21.019418374729522,50,97,1,0.009000000000000001,21.004589440223167,14.82893450635386
21.031407202686122,66,66,0,0.011232068141232475,21.011729783331283,19.67741935483871
21.029418374729524,66,90,1,0.009000000000000001,21.013494621063835,15.923753665689148
21.043887278398604,67,49,0,0.009000000000000001,21.02155101251395,22.33626588465298
21.039418374729525,42,102,1,0.009000000000000001,21.02537145390841,14.04692082111437
21.049418374729527,55,57,1,0.02016344825619744,21.02833333074126,21.085043988269796
21.05067815113913,54,80,2,0.009000000000000001,21.033190370102965,17.487781036168133
21.053887278398605,60,102,0,0.029773602843092384,21.03984035757749,14.04692082111437
21.060678151139133,60,111,2,0.016805147343646024,21.04803885495145,12.639296187683286
21.0718222061253,65,40,1,0.009000000000000001,21.048078315607217,23.743890518084065
21.079350537076518,70,103,2,0.009000000000000001,21.06546001899245,13.890518084066471
21.086969059335374,52,81,0,0.009000000000000001,21.069637681036255,17.331378299120235
21.081822206125302,38,123,1,0.009000000000000001,21.071059742782193,10.762463343108504
21.08935053707652,56,90,2,0.009729714096035576,21.07342678341083,15.923753665689148
21.091822206125304,51,87,1,0.009000000000000001,21.075429244248472,16.392961876832846
21.096969059335375,50,91,0,0.028423496393082944,21.081201708406734,15.76735092864125
21.10016133051656,44,88,2,0.011261927536512737,21.083924771376775,16.236559139784944
21.101822206125306,45,85,1,0.01047946847689306,21.085116438774378,16.705767350928642
21.11346605998852,44,86,1,0.024987028663805526,21.09691669537464,16.549364613880744
21.112674583334908,42,127,2,0.08382348990915764,21.10253773093999,10.136852394916911
21.128550721994355,64,127,0,0.009000000000000001,21.118413869599436,10.136852394916911
21.138550721994356,39,70,0,0.016969966598621034,21.11949891358771,19.05180840664712
21.14122942517053,60,61,1,0.020387345880186848,21.12076999213045,20.459433040078203
21.15740624043727,37,86,0,0.009000000000000001,21.14085687582339,16.549364613880744
21.16740624043727,59,45,0,0.009000000000000001,21.144444363604425,22.961876832844574
21.16388203170407,61,124,1,0.06330243409079503,21.153275971098008,10.606060606060606
21.17740624043727,62,89,0,0.023882111581544442,21.161326084034535,16.080156402737046
21.205811794345085,66,72,2,0.009000000000000001,21.187072791412533,18.73900293255132
21.20394191997232,48,98,0,0.04667298729897532,21.189269388203012,14.672531769305962
21.215811794345086,53,115,2,0.020633173841263865,21.203798109105595,12.013685239491693
21.238737543057603,71,43,2,0.053847042495612556,21.215462860750662,23.27468230694037
21.23421806958273,50,83,1,0.009000000000000001,21.217199496757708,17.01857282502444
21.244218069582733,50,75,1,0.009000000000000001,21.225948274861324,18.269794721407624
21.254218069582734,54,80,1,0.048309031542028806,21.236730288546568,17.487781036168133
21.255800794748957,62,111,0,0.009000000000000001,21.243161498561275,12.639296187683286
21.26580079474896,57,106,0,0.027427092889022873,21.252379484876037,13.421309872922777
21.29627534240343,52,71,0,0.020467388137334407,21.27737993673383,18.89540566959922
21.29856759027495,44,109,2,0.009000000000000001,21.28561548861317,12.952101661779082
21.30856759027495,50,61,2,0.009000000000000001,21.288108157234873,20.459433040078203
21.319016884778247,53,28,0,0.05320459496255898,21.293396161415586,25.620723362658847
21.307894771296098,47,102,1,0.011029297371865445,21.293847850474982,14.04692082111437
21.320149546153726,46,113,1,0.01892476481477754,21.30782305544014,12.32649071358749
21.318567590274952,54,127,2,0.009000000000000001,21.308430737880034,10.136852394916911
21.328567590274954,52,82,2,0.015294860222594981,21.311392614712883,17.174975562072337
21.34556187941117,46,42,2,0.017843821603249155,21.322130794367183,23.43108504398827
21.34117706261459,49,104,1,0.01729574287388373,21.32744294726757,13.734115347018573
21.360394554696683,71,76,1,0.04708538618801252,21.34228116271232,18.113391984359726
21.365388347859227,58,86,2,0.009000000000000001,21.348838983245347,16.549364613880744
21.37538834785923,44,94,2,0.028670487078729736,21.36009020514173,15.298142717497555
21.37813310140331,59,99,0,0.009000000000000001,21.36361697237105,14.516129032258064
21.388133101403312,59,108,0,0.009000000000000001,21.375024597004487,13.10850439882698
21.398133101403314,44,127,0,0.009000000000000001,21.387996249008395,10.136852394916911
21.407244444613372,47,104,2,0.009000000000000001,21.393510329266352,13.734115347018573
21.408133101403315,56,114,0,0.022718409625159808,21.395963013426776,12.170087976539591
21.417244444613374,45,69,2,0.035325326784228214,21.39803623346968,19.208211143695017
21.41271165046114,41,98,1,0.009000000000000001,21.398039118691834,14.672531769305962
21.422711650461142,50,91,1,0.009000000000000001,21.4069442995325,15.76735092864125
21.432711650461144,54,57,1,0.009000000000000001,21.411626606472876,21.085043988269796
21.433375778764603,50,71,0,0.013290573202720752,21.414480373095003,18.89540566959922
21.442711650461145,66,34,1,0.009000000000000001,21.418029343520775,24.682306940371458
21.44814308232318,59,32,0,0.04058040618760249,21.423147969908715,24.995112414467254
21.45649480770696,59,73,2,0.009000000000000001,21.437912207511456,18.58260019550342
21.452711650461147,49,106,1,0.014805285831511616,21.439290340588226,13.421309872922777
21.46649480770696,59,75,2,0.07857643127127877,21.448225012985553,18.269794721407624
21.469161968051715,65,83,1,0.009000000000000001,21.452143395226692,17.01857282502444
21.479161968051717,61,119,1,0.02403247669526134,21.467773893760416,11.3880742913001
21.49323242253163,55,73,0,0.009000000000000001,21.474649822336126,18.58260019550342
21.50586471993534,60,32,1,0.04168879973998488,21.480869607520873,24.995112414467254
21.50323242253163,60,55,0,0.009000000000000001,21.481834573069268,21.397849462365592
21.513232422531633,55,46,0,0.009000000000000001,21.490426948435836,22.805474095796676
21.523232422531635,63,15,0,0.010818965526772799,21.495578463587353,27.653958944281523
21.53525349533916,53,104,0,0.0441895628205682,21.52151937999214,13.734115347018573
21.55218560853532,57,101,1,0.009000000000000001,21.537982284977158,14.203323558162268
21.553801953563937,33,91,2,0.07943546775851275,21.538034602635296,15.76735092864125
21.562185608535323,66,73,1,0.009000000000000001,21.54360300833982,18.58260019550342
21.572185608535325,43,127,1,0.009000000000000001,21.562048756140406,10.136852394916911
21.584353009584234,61,51,0,0.010233149762368297,21.562329549173676,22.023460410557185
21.582185608535326,48,118,1,0.01045473529823972,21.570641131506978,11.544477028347998
21.593801981088927,49,91,1,0.009000000000000001,21.578034630160285,15.76735092864125
21.595723175986866,68,121,0,0.009000000000000001,21.58464790716966,11.0752688172043
21.605723175986867,51,75,0,0.009000000000000001,21.58745338126546,18.269794721407624
21.603801981088928,65,91,1,0.009000000000000001,21.588034630160287,15.76735092864125
21.61572317598687,52,48,0,0.011050922072914486,21.593230507365167,22.49266862170088
21.61380198108893,57,115,1,0.009000000000000001,21.60178829584944,12.013685239491693
21.628001978290108,58,86,0,0.014298960716940224,21.611452613676228,16.549364613880744
21.62380198108893,42,127,1,0.009000000000000001,21.613665128694013,10.136852394916911
21.633801981088933,72,106,1,0.023010958864031407,21.62038067121601,13.421309872922777
21.64388971242004,63,83,0,0.0276953175908539,21.626871139595018,17.01857282502444
21.642063584406728,61,97,2,0.01274452643239537,21.627234649900373,14.82893450635386
21.65622416933161,56,87,2,0.035231766917436014,21.63983120745478,16.392961876832846
21.65936971316008,70,72,1,0.01279830342549099,21.640630710227526,18.73900293255132
21.673590050299513,52,83,1,0.009000000000000001,21.65657147747449,17.01857282502444
21.674662287520988,49,88,0,0.009000000000000001,21.658425728381204,16.236559139784944
21.683590050299514,57,104,1,0.009000000000000001,21.669855934952494,13.734115347018573
21.693590050299516,61,54,1,0.011805156498309833,21.6720357981001,21.55425219941349
21.68466228752099,67,118,0,0.011963456062340456,21.67311781049264,11.544477028347998
21.695370577017652,61,78,2,0.009000000000000001,21.677569990507386,17.80058651026393
21.697955016479145,63,99,0,0.02776113867878343,21.683438887446886,14.516129032258064
21.705370577017653,59,81,2,0.013450327776741657,21.688039198718535,17.331378299120235
21.706706890853194,39,122,1,0.009000000000000001,21.695788024773037,10.918866080156402
21.716706890853196,52,98,1,0.015375564549934228,21.70203435908389,14.672531769305962
21.720315385658477,36,83,2,0.01304288610027187,21.703296812833454,17.01857282502444
21.728800726122238,45,95,0,0.009000000000000001,21.713658986141787,15.141739980449657
21.73880072612224,57,54,0,0.02384023634291262,21.717246473922824,21.55425219941349
21.733790851464235,40,104,1,0.06483012780523785,21.720056736117215,13.734115347018573
21.734807481325447,45,106,2,0.009000000000000001,21.721386171452526,13.421309872922777
21.74480748132545,53,53,2,0.009000000000000001,21.723096826388986,21.71065493646139
21.75480748132545,53,71,2,0.024341674835624473,21.73591207565585,18.89540566959922
21.765289877614364,41,63,0,0.009000000000000001,21.745143250048383,20.146627565982406
21.775289877614366,45,72,0,0.009000000000000001,21.756550874681814,18.73900293255132
21.785289877614368,59,62,0,0.04495859181154254,21.764986847311338,20.303030303030305
21.781853786698367,67,113,2,0.013755863317801612,21.76952729598478,12.32649071358749
21.7971380792737,51,100,2,0.009000000000000001,21.78277835297849,14.359726295210166
21.807138079273702,74,88,2,0.042093933511048454,21.790901520133918,16.236559139784944
21.80582432680339,51,97,1,0.009000000000000001,21.790995392297035,14.82893450635386
21.81582432680339,54,59,1,0.010561415892489719,21.795052088289218,20.772238514174
21.827559233350602,66,78,1,0.00977585024912568,21.809758646840336,17.80058651026393
21.83524386851608,54,59,0,0.020035100147021728,21.814471630001908,20.772238514174
21.838421289182964,53,69,1,0.009000000000000001,21.81921307803927,19.208211143695017
21.853909116508202,46,31,2,0.03747204007813022,21.82875760135669,25.151515151515152
21.848421289182966,52,72,1,0.009000000000000001,21.829682286250414,18.73900293255132
21.85750509090166,51,122,0,0.02160293233174122,21.846586224821504,10.918866080156402
21.86842128918297,46,61,1,0.009000000000000001,21.84796185614289,20.459433040078203
21.858421289182967,44,127,1,0.009000000000000001,21.84828443678805,10.136852394916911
21.88150834904804,56,81,0,0.009000000000000001,21.86417697074892,17.331378299120235
21.87842128918297,64,104,1,0.009000000000000001,21.86468717383595,13.734115347018573
21.891508349048042,51,56,0,0.009000000000000001,21.870266902322726,21.241446725317694
21.888421289182972,55,93,1,0.014050235046718741,21.872966743728426,15.454545454545453
21.895544716595012,56,64,2,0.009000000000000001,21.875554491766078,19.990224828934508
21.904032661457105,57,66,1,0.009000000000000001,21.884355242102266,19.67741935483871
21.901508349048044,49,102,0,0.02318638608846545,21.887461428226928,14.04692082111437
21.905544716595013,53,127,2,0.009000000000000001,21.895407864200095,10.136852394916911
21.914032661457107,52,74,1,0.009000000000000001,21.89560646399865,18.426197458455523
21.915544716595015,62,85,2,0.016783554386965775,21.898838949244087,16.705767350928642
21.924032661457108,56,48,1,0.009000000000000001,21.901539992835406,22.49266862170088
21.93403266145711,61,62,1,0.009000000000000001,21.91372963115408,20.303030303030305
21.92727100025745,63,108,0,0.009000000000000001,21.914162495858623,13.10850439882698
21.93419311035831,75,69,2,0.009000000000000001,21.914984899214616,19.208211143695017
21.93727100025745,54,59,0,0.014249950335088605,21.916498761743277,20.772238514174
21.944193110358313,60,42,2,0.02517078855938387,21.920762025314325,23.43108504398827
21.953104278407547,54,50,0,0.025651315166241497,21.93092441525994,22.179863147605083
21.954032661457113,49,62,1,0.011262882937864763,21.933729631154083,20.303030303030305
21.94403266145711,46,127,1,0.009000000000000001,21.933895809062193,10.136852394916911
21.966546975832518,58,45,1,0.015997305090280654,21.943585098999673,22.961876832844574
21.972160653202074,64,119,2,0.011240908959130253,21.960772578910774,11.3880742913001
21.98465055204555,47,49,2,0.043772804948592724,21.962314286160897,22.33626588465298
21.981605739703372,52,83,0,0.009000000000000001,21.96458716687835,17.01857282502444
21.984321759266162,44,106,1,0.009000000000000001,21.97090044939324,13.421309872922777
21.994321759266164,52,67,1,0.009000000000000001,21.974800742648373,19.521016617790814
21.991605739703374,61,96,0,0.03251435825363413,21.97662040245997,14.985337243401759
22.004321759266166,55,118,1,0.009000000000000001,21.992777282237817,11.544477028347998
22.014321759266167,54,97,1,0.014425797575666099,21.999492824759812,14.82893450635386
22.027732804429633,50,58,0,0.009000000000000001,22.006804163178412,20.928641251221897
22.03035042323913,59,93,1,0.009000000000000001,22.014895877784586,15.454545454545453
22.03328700198843,59,81,2,0.009000000000000001,22.01595562368931,17.331378299120235
22.037732804429634,49,90,0,0.01052098763516699,22.021809050763945,15.923753665689148
22.040350423239133,54,101,1,0.025877020424012184,22.02614709968097,14.203323558162268
22.043287001988432,57,123,2,0.010843836209470076,22.032524538645323,10.762463343108504
22.04942279069093,63,100,0,0.009000000000000001,22.035063064395718,14.359726295210166
22.055335708887842,59,68,2,0.009000000000000001,22.0359710950071,19.364613880742915
22.05942279069093,60,64,0,0.04980914592857692,22.039432565861997,19.990224828934508
22.065335708887844,44,127,2,0.009000000000000001,22.055198856492925,10.136852394916911
22.069102668154702,59,105,1,0.03390158983258243,22.055524955544733,13.577712609970675
22.075335708887845,59,80,2,0.009000000000000001,22.05784792785168,17.487781036168133
22.085335708887847,64,70,2,0.009000000000000001,22.0662839004812,19.05180840664712
22.09533570888785,61,80,2,0.014155201935077192,22.077847927851682,17.487781036168133
22.106771101302016,52,72,1,0.009000000000000001,22.088032098369464,18.73900293255132
22.111063711037936,44,90,2,0.009000000000000001,22.095139957372247,15.923753665689148
22.11476628616713,51,92,0,0.0258688323017008,22.099155337975535,15.610948191593351
22.116771101302017,51,85,1,0.009000000000000001,22.10006533395109,16.705767350928642
22.121063711037937,72,87,2,0.027744997904436956,22.104670749161105,16.392961876832846
22.12677110130202,54,76,1,0.010434988407891846,22.108657709317658,18.113391984359726
22.13836553286634,56,65,1,0.010955454989623954,22.118531710774455,19.83382209188661
22.14350943316902,51,66,0,0.009000000000000001,22.12383201381418,19.67741935483871
22.15189148648731,44,76,2,0.009000000000000001,22.13377809450295,18.113391984359726
22.15350943316902,63,68,0,0.009000000000000001,22.134144819288277,19.364613880742915
22.15053826063259,48,106,1,0.04296833592784401,22.13711695075967,13.421309872922777
22.163509433169022,52,82,0,0.009000000000000001,22.14633445760695,17.174975562072337
22.161891486487313,49,118,2,0.02628090211950696,22.150347009458965,11.544477028347998
22.173509433169023,48,101,0,0.009000000000000001,22.15930610961086,14.203323558162268
22.193509433169027,55,56,0,0.08327525978807837,22.17226798644371,21.241446725317694
22.183509433169025,55,127,0,0.009000000000000001,22.173372580774107,10.136852394916911
22.191092488842322,59,79,2,0.010746926143696878,22.173448305069105,17.64418377321603
22.19828085610797,58,92,1,0.009000000000000001,22.182669907916377,15.610948191593351
22.203033517890873,64,88,2,0.040095918012091045,22.18679695875109,16.236559139784944
22.208280856107972,44,57,1,0.009000000000000001,22.187195812119704,21.085043988269796
22.218280856107974,66,94,1,0.009000000000000001,22.202982713390476,15.298142717497555
22.228280856107975,48,86,1,0.009000000000000001,22.211731491494096,16.549364613880744
22.238280856107977,56,87,1,0.009000000000000001,22.221887894231145,16.392961876832846
22.247584537904306,53,82,2,0.009000000000000001,22.230409562342235,17.174975562072337
22.24828085610798,54,127,1,0.06017675658624031,22.23814400371306,10.136852394916911
22.257584537904307,46,100,2,0.0114826248684814,22.243224811609096,14.359726295210166
22.270343009980397,62,113,2,0.05923712740176723,22.25801651926681,12.32649071358749
22.286037499600226,50,88,0,0.009000000000000001,22.269800940460442,16.236559139784944
22.296037499600228,62,69,0,0.0207363108189094,22.276829288456533,19.208211143695017
22.31907784495457,55,72,0,0.013393959672149142,22.30033884202202,18.73900293255132
22.31514391898158,57,104,1,0.009000000000000001,22.30140980363456,13.734115347018573
22.333960022368068,49,61,0,0.02090576292786184,22.31350058932799,20.459433040078203
22.32514391898158,53,127,1,0.009884804333109834,22.315007066586663,10.136852394916911
22.336162040426807,42,72,2,0.009000000000000001,22.317423037494255,18.73900293255132
22.346127034907262,51,29,1,0.009000000000000001,22.32066271428165,25.46432062561095
22.33612703490726,52,127,1,0.009000000000000001,22.325990182512342,10.136852394916911
22.346162040426808,64,90,2,0.012244334030229436,22.33023828676112,15.923753665689148
22.35718864784347,52,74,0,0.028597367763518445,22.338762450385012,18.426197458455523
22.359766856015952,64,89,2,0.009831255296523863,22.343686699613215,16.080156402737046
22.356127034907264,55,124,1,0.009000000000000001,22.345520974301202,10.606060606060606
22.366127034907265,47,86,1,0.009000000000000001,22.349577670293385,16.549364613880744
22.37069047301209,49,89,2,0.01748542516218535,22.354610316609353,16.080156402737046
22.376127034907267,56,97,1,0.03458332653711622,22.361298100400912,14.82893450635386
22.390118723192295,56,27,2,0.04695007141175279,22.364341597092587,25.777126099706745
22.388963500914045,56,63,0,0.009000000000000001,22.368816873348063,20.146627565982406
22.398963500914046,60,102,0,0.009000000000000001,22.38491658009293,14.04692082111437
22.408963500914048,54,63,0,0.016689483112362652,22.388816873348066,20.146627565982406
22.41455295328184,46,65,1,0.009000000000000001,22.394719131189955,19.83382209188661
22.427507371038896,67,62,0,0.013794961514509043,22.407204340735866,20.303030303030305
22.424552953281843,37,92,1,0.015257746703443844,22.40894200509025,15.610948191593351
22.442285469205352,51,62,2,0.009000000000000001,22.421982438902322,20.303030303030305
22.44150600517456,36,92,1,0.05566250362678959,22.425895056982966,15.610948191593351
22.442835106055018,57,113,0,0.009000000000000001,22.43050861534143,12.32649071358749
22.45283510605502,51,74,0,0.04040607485808494,22.434408908596563,18.426197458455523
22.452285469205354,58,106,2,0.04931567354593035,22.438864159332432,13.421309872922777
22.497730744786224,42,74,0,0.012379847479824341,22.479304547327768,18.426197458455523
22.503353231426548,52,59,1,0.01377016527958006,22.482580992912375,20.772238514174
22.507080662034166,55,87,2,0.05941155491665812,22.490687700157334,16.392961876832846
22.511486130874918,60,75,0,0.028252110566846768,22.49321633615351,18.269794721407624
22.518653415070524,60,65,1,0.009000000000000001,22.498819592978638,19.83382209188661
22.528653415070526,52,87,1,0.021469272801841452,22.512260453193694,16.392961876832846
22.54287736483808,48,63,0,0.011495718103399862,22.5227307372721,20.146627565982406
22.55565038495297,65,68,0,0.009000000000000001,22.536285771072226,19.364613880742915
22.552508162628126,59,101,1,0.015037252222431227,22.538304839069962,14.203323558162268
22.56565038495297,56,30,0,0.009000000000000001,22.54034246706441,25.30791788856305
22.56921622065305,65,57,1,0.016541907113016542,22.548131176664782,21.085043988269796
22.573093500830453,40,73,2,0.009000000000000001,22.55451090063495,18.58260019550342
22.575650384952972,43,66,0,0.021911800676878933,22.555972965598134,19.67741935483871
22.583093500830454,44,122,2,0.009000000000000001,22.572174634750297,10.918866080156402
22.593093500830456,51,63,2,0.05211422145206178,22.572946873264474,20.146627565982406
22.58759611744529,48,119,1,0.009000000000000001,22.57620804315399,11.3880742913001
22.599996830149504,50,58,0,0.009000000000000001,22.579068188898283,20.928641251221897
22.597596117445292,53,82,1,0.011939482760873175,22.58042114188322,17.174975562072337
22.609996830149505,62,86,0,0.02503122582509519,22.593447465535625,16.549364613880744
22.61086220940182,58,115,1,0.024441996973734066,22.598848524162328,12.013685239491693
22.6378093032885,67,85,0,0.009000000000000001,22.62110353593757,16.705767350928642
22.63801998381708,45,98,1,0.028424006389976653,22.623347452047774,14.672531769305962
22.6478093032885,50,77,0,0.009000000000000001,22.629852314041187,17.956989247311828
22.650998191332747,64,122,2,0.02342240695644731,22.64007932525259,10.918866080156402
22.667809303288504,63,58,0,0.018192578134702445,22.646880662037283,20.928641251221897
22.657809303288502,54,127,0,0.009000000000000001,22.647672450893584,10.136852394916911
22.669602213139278,40,73,1,0.009000000000000001,22.651019612943774,18.58260019550342
22.67960221313928,49,46,1,0.02040563983191633,22.656796739043482,22.805474095796676
22.67702308795102,60,117,2,0.06226560894921163,22.665322208185625,11.700879765395896
22.68802327899373,55,70,0,0.014987563013714901,22.66897147058708,19.05180840664712
22.702275146285853,54,101,1,0.01607049524178876,22.68807182272769,14.203323558162268
22.704676126786744,61,113,0,0.05806254103395509,22.692349636073157,12.32649071358749
22.72013125211006,60,71,1,0.015837427449172693,22.70123584644046,18.89540566959922
22.737728393720253,60,107,1,0.009000000000000001,22.72446348658438,13.264907135874878
22.74620709789459,57,100,2,0.02877239337048808,22.73184737159938,14.359726295210166
22.747728393720255,49,127,1,0.009000000000000001,22.737591541325337,10.136852394916911
22.757728393720257,49,108,1,0.013322647045783034,22.74461988932143,13.10850439882698
22.769190061268915,46,87,0,0.016474295094397306,22.752797099392083,16.392961876832846
22.77253133488224,64,93,1,0.009000000000000001,22.757076789427693,15.454545454545453
22.78253133488224,62,64,1,0.009000000000000001,22.762541110053306,19.990224828934508
22.7781764238618,50,96,2,0.018439400525321087,22.7631910866184,14.985337243401759
22.787494833596025,60,93,0,0.02142769220330218,22.77204028814148,15.454545454545453
22.79253133488224,70,94,1,0.009000000000000001,22.777233192164744,15.298142717497555
22.802531334882243,46,82,1,0.009000000000000001,22.785356359320172,17.174975562072337
22.798664646667714,53,127,2,0.012976440034244774,22.788527794272795,10.136852394916911
22.81130338048858,64,76,0,0.044624145619398294,22.79318998850422,18.113391984359726
22.812531334882244,54,88,1,0.026567210567273604,22.79629477574246,16.236559139784944
22.81308291337243,65,104,2,0.009000000000000001,22.79934879802541,13.734115347018573
22.82308291337243,45,105,2,0.00953744515364219,22.809505200762462,13.577712609970675
22.833680074654257,63,99,2,0.048462073670566576,22.819163945621998,14.516129032258064
22.84205045773477,50,116,1,0.009000000000000001,22.830193175232328,11.857282502443795
22.852050457734773,69,120,1,0.009000000000000001,22.84081878618052,11.231671554252198
22.862050457734775,58,96,1,0.009000000000000001,22.847065120491372,14.985337243401759
22.860885764510137,56,107,0,0.017214792739035437,22.847620857374263,13.264907135874878
22.872050457734776,63,80,1,0.009000000000000001,22.85456267669861,17.487781036168133
22.880013311997953,40,51,0,0.010979487738117034,22.857989851587394,22.023460410557185
22.882050457734778,46,41,1,0.009294156221709628,22.85846296995374,23.587487781036167
22.887526823177108,53,95,2,0.009000000000000001,22.872385083196658,15.141739980449657
22.89221274281808,70,111,0,0.011413952204579839,22.8795734466304,12.639296187683286
22.89237729798112,44,115,1,0.02204984156997848,22.88036361274163,12.013685239491693
22.89752682317711,46,91,2,0.04790472214243297,22.88175947224847,15.76735092864125
22.90489491193428,49,125,0,0.012102396649169962,22.894445254065268,10.449657869012707
22.91834201932225,61,48,0,0.012412840301930158,22.895849350700548,22.49266862170088
22.916877121947763,55,91,1,0.025934047359030366,22.901109771019122,15.76735092864125
22.932134064102172,52,71,0,0.010402017213907653,22.913238658432572,18.89540566959922
22.943691861006513,56,60,0,0.029443756093675454,22.92307602522939,20.6158357771261
22.945692730124463,56,87,1,0.009000000000000001,22.92929976824763,16.392961876832846
22.950754292224257,56,91,2,0.015890632333718853,22.934986941295616,15.76735092864125
22.955692730124465,57,92,1,0.009000000000000001,22.94008178193287,15.610948191593351
22.965692730124466,45,92,1,0.009000000000000001,22.950081781932873,15.610948191593351
22.968410550372834,59,106,2,0.02731723390771709,22.954989240499913,13.421309872922777
22.97640714555504,54,102,0,0.031196320290841847,22.962360224733924,14.04692082111437
22.975692730124468,53,120,1,0.009000000000000001,22.964461058570215,11.231671554252198
22.98569273012447,60,122,1,0.02735946879142939,22.974773864044312,10.918866080156402
22.99876303249252,61,117,2,0.040255548210069436,22.987062152727123,11.700879765395896
23.016092139892724,66,34,1,0.051940517524646485,22.991409832952353,24.682306940371458
23.011069723655975,51,87,0,0.014214506988557942,22.994676761779143,16.392961876832846
23.02686362030993,63,111,0,0.01059596648970007,23.014224324122246,12.639296187683286
23.043491419392595,56,55,2,0.019999969305964982,23.02209356993023,21.397849462365592
23.038636916409594,54,89,0,0.009000000000000001,23.022556760006857,16.080156402737046
23.048636916409595,58,102,0,0.03906862945486348,23.03458999558848,14.04692082111437
23.065713607510332,44,109,2,0.009497011553896238,23.052761505848554,12.952101661779082
23.07380382603122,66,68,1,0.013353346162601169,23.054439212150477,19.364613880742915
23.076265842570216,47,117,2,0.011010281681941014,23.06456496280482,11.700879765395896
23.088499488883482,37,74,2,0.009000000000000001,23.070073291425025,18.426197458455523
23.088640877322998,55,123,1,0.009000000000000001,23.07787841397989,10.762463343108504
23.098499488883483,65,78,2,0.009000000000000001,23.080698902373218,17.80058651026393
23.092046504692778,54,121,0,0.009000000000000001,23.080971235875573,11.0752688172043
23.098640877323,43,95,1,0.026823897121108033,23.08349913734255,15.141739980449657
23.108499488883485,62,55,2,0.011314225207756008,23.08710163942112,21.397849462365592
23.10204650469278,59,119,0,0.009000000000000001,23.09065843040148,11.3880742913001
23.11204650469278,48,60,0,0.02398141662835,23.091430668915656,20.6158357771261
23.121070850225436,74,51,2,0.009000000000000001,23.099047389814878,22.023460410557185
23.131070850225438,43,65,2,0.13190185847837588,23.11123702813355,19.83382209188661
23.128445207457563,42,89,1,0.034062217302396704,23.112365051054827,16.080156402737046
23.138692523168725,57,89,0,0.009000000000000001,23.12261236676599,16.080156402737046
23.148692523168727,51,108,0,0.009000000000000001,23.1355840187699,13.10850439882698
23.158692523168728,61,125,0,0.009000000000000001,23.148242865299714,10.449657869012707
23.16869252316873,55,70,0,0.009069013206610587,23.149640714762082,19.05180840664712
23.166292115571338,51,111,1,0.009000000000000001,23.153652819383655,12.639296187683286
23.17629211557134,54,88,1,0.009000000000000001,23.160055556431555,16.236559139784944
23.18629211557134,62,71,1,0.012853849974503104,23.16739670990174,18.89540566959922
23.178769204509408,51,127,0,0.05114326168364062,23.16863235211449,10.136852394916911
23.200574171098566,62,52,1,0.009000000000000001,23.178707113425055,21.867057673509287
23.210574171098568,52,24,1,0.009000000000000001,23.184327836787716,26.24633431085044
23.22057417109857,61,36,1,0.009000000000000001,23.196204669632294,24.369501466275658
23.23057417109857,41,95,1,0.009000000000000001,23.21543243111812,15.141739980449657
23.235595050824564,47,98,0,0.009000000000000001,23.220922519055257,14.672531769305962
23.245595050824566,52,62,0,0.009000000000000001,23.225292020521536,20.303030303030305
23.240574171098572,54,98,1,0.009358901326526852,23.225901639329265,14.672531769305962
23.255595050824567,45,79,0,0.009000000000000001,23.23795086705135,17.64418377321603
23.25097295035027,50,127,1,0.027575058812417647,23.240836097955352,10.136852394916911
23.26559505082457,46,79,0,0.014113319235305016,23.24795086705135,17.64418377321603
23.277628470756966,59,84,2,0.017830713609240247,23.26076630066899,16.86217008797654
23.281276516641576,38,94,0,0.02074698168753002,23.265978373924078,15.298142717497555
23.28161190458629,67,117,1,0.011141282604705517,23.269911024820892,11.700879765395896
23.293991107480405,54,64,1,0.009000000000000001,23.27400088265147,19.990224828934508
23.297440374767234,58,62,2,0.009000000000000001,23.277137344464204,20.303030303030305
23.303991107480407,46,62,1,0.009000000000000001,23.283688077177377,20.303030303030305
23.307440374767236,60,68,2,0.013455958563166328,23.288075760886493,19.364613880742915
23.304328718516608,51,101,0,0.0662553673360427,23.290125394958444,14.203323558162268
23.31399110748041,44,75,1,0.0184155168744239,23.295721312759,18.269794721407624
23.32239143983742,50,122,2,0.01616825476938429,23.311472573757264,10.918866080156402
23.334452792896435,64,74,1,0.019202671423163127,23.31602659543798,18.426197458455523
23.34035616735896,55,99,2,0.009000000000000001,23.3258400383267,14.516129032258064
23.35035616735896,58,92,2,0.009000000000000001,23.334745219167367,15.610948191593351
23.36035616735896,62,64,2,0.009000000000000001,23.340365942530028,19.990224828934508
23.35578909447773,65,105,1,0.016317657635835835,23.34221138186776,13.577712609970675
23.370356167358963,62,63,2,0.02113559409570505,23.35020953979298,20.146627565982406
23.377945793334433,45,56,0,0.009000000000000001,23.356704346609117,21.241446725317694
23.383919825184215,39,48,1,0.009973310477582951,23.361427156562513,22.49266862170088
23.373919825184213,60,119,1,0.009000000000000001,23.362531750892913,11.3880742913001
23.387945793334435,57,64,0,0.01088787317455074,23.3679555685055,19.990224828934508
23.395001281270417,58,36,1,0.009000000000000001,23.370631779804143,24.369501466275658
23.393840160798636,60,74,2,0.02862787866843926,23.37541396334018,18.426197458455523
23.400043430195048,56,84,0,0.015270776298167041,23.383181260107072,16.86217008797654
23.40500128127042,44,120,1,0.009000000000000001,23.393769609716166,11.231671554252198
23.425648914874678,53,36,2,0.010355927312728651,23.401279413408403,24.369501466275658
23.41500128127042,60,127,1,0.0408941674719255,23.404864428875502,10.136852394916911
23.417010959415233,49,127,0,0.009000000000000001,23.406874107020315,10.136852394916911
23.427010959415234,65,90,0,0.016476716332758618,23.411087205749546,15.923753665689148
23.43715550077771,53,82,2,0.012742004083248649,23.41998052521564,17.174975562072337
23.445318422007187,47,92,0,0.03474414921233971,23.429707473815593,15.610948191593351
23.451313283092432,48,123,2,0.017336237136615185,23.440550819749323,10.762463343108504
23.460439245128114,56,68,1,0.009000000000000001,23.44107463124737,19.364613880742915
23.470439245128116,52,95,1,0.019022997869710418,23.455297505147666,15.141739980449657
23.470575768799783,55,100,2,0.009000000000000001,23.456216042504572,14.359726295210166
23.480575768799785,53,92,2,0.025034930262834588,23.46496482060819,15.610948191593351
23.48392303224312,50,85,0,0.009000000000000001,23.46721726489219,16.705767350928642
23.491575909427794,50,63,1,0.009000000000000001,23.471429281861813,20.146627565982406
23.49392303224312,67,89,0,0.009000000000000001,23.477842875840384,16.080156402737046
23.501575909427796,59,91,1,0.05628617612942352,23.485808558499155,15.76735092864125
23.503923032243122,54,88,0,0.009000000000000001,23.487686473103338,16.236559139784944
23.50839235798071,58,106,2,0.021576080959046413,23.49497104810779,13.421309872922777
23.513923032243124,53,76,0,0.021565356427910604,23.495809640258763,18.113391984359726
23.53236578126854,53,77,2,0.010104180337327967,23.514408792021225,17.956989247311828
23.537884539385246,53,76,0,0.02506183505722934,23.519771147400885,18.113391984359726
23.543592648310014,50,89,2,0.009000000000000001,23.527512491907277,16.080156402737046
23.553592648310016,55,97,2,0.019545171545742927,23.53876371380366,14.82893450635386
23.564116105127155,54,72,1,0.009000000000000001,23.545377102194603,18.73900293255132
23.565731022782167,51,71,0,0.009000000000000001,23.546835617112567,18.89540566959922
23.575309505583064,65,41,2,0.009000000000000001,23.551722017802028,23.587487781036167
23.57573102278217,48,92,0,0.009000000000000001,23.560120074590575,15.610948191593351
23.574116105127157,60,127,1,0.009000000000000001,23.56397925273224,10.136852394916911
23.58411610512716,54,95,1,0.012951705970138,23.56897436514671,15.141739980449657
23.58573102278217,58,89,0,0.009000000000000001,23.569650866379433,16.080156402737046
23.585309505583066,62,101,2,0.011317598524611174,23.571106182024902,14.203323558162268
23.605731022782173,59,48,0,0.01370032527015578,23.58323835416047,22.49266862170088
23.597884615054856,60,103,2,0.009000000000000001,23.583994096970788,13.890518084066471
23.59573102278217,56,127,0,0.009000000000000001,23.585594170387253,10.136852394916911
23.598506889538424,54,110,1,0.009000000000000001,23.585711190613694,12.795698924731184
23.608506889538425,40,65,1,0.009000000000000001,23.58867306744654,19.83382209188661
23.607884615054857,54,117,2,0.017722668698970573,23.59618373528946,11.700879765395896
23.62095360641568,45,55,0,0.01211653824374666,23.599555756953315,21.397849462365592
23.618506889538427,53,85,1,0.009000000000000001,23.6018011221875,16.705767350928642
23.62850688953843,48,55,1,0.03206013510055855,23.607109040076065,21.397849462365592
23.627576469164826,52,78,2,0.01706609739554325,23.60977588265456,17.80058651026393
23.63441642668651,57,43,0,0.03712751993080081,23.61114174437957,23.27468230694037
23.64653879960432,73,72,2,0.009000000000000001,23.627799796671766,18.73900293255132
23.65653879960432,48,51,2,0.016411949369622644,23.63451533919376,22.023460410557185
23.664129261872382,53,77,1,0.07481335399726631,23.64617227262507,17.956989247311828
23.67566922660962,54,63,0,0.009000000000000001,23.65552259904364,20.146627565982406
23.674774298903902,61,85,2,0.009785566118223352,23.658068531552974,16.705767350928642
23.685647150146373,52,50,2,0.009000000000000001,23.663467286998767,22.179863147605083
23.685669226609622,57,75,0,0.009000000000000001,23.667399431888214,18.269794721407624
23.695647150146375,48,88,2,0.03063395123330016,23.67941059100659,16.236559139784944
23.695669226609624,49,112,0,0.011633036896951889,23.68318633315899,12.482893450635387
23.708594823161793,45,67,0,0.01692127682038052,23.689073806544002,19.521016617790814
23.72968487373893,63,66,2,0.009000000000000001,23.71000745438409,19.67741935483871
23.727396241851103,55,114,0,0.028323796701580955,23.715226153874564,12.170087976539591
23.73968487373893,70,99,2,0.011514668398452573,23.72516874470667,14.516129032258064
23.747255210758233,60,55,1,0.009000000000000001,23.72585736129587,21.397849462365592
23.75247894973721,54,74,2,0.009000000000000001,23.734052752278753,18.426197458455523
23.757255210758235,63,69,1,0.009000000000000001,23.73804699961454,19.208211143695017
23.75886712707508,37,86,0,0.009000000000000001,23.7423177624612,16.549364613880744
23.76247894973721,59,70,2,0.016226235176628342,23.743427141330564,19.05180840664712
23.768867127075083,55,83,0,0.013035135512206926,23.75184855425006,17.01857282502444
23.767255210758236,36,117,1,0.018649526033831437,23.75555433099284,11.700879765395896
23.780508099933463,55,41,2,0.026948766561680153,23.756920612152427,23.587487781036167
23.783350610977536,57,90,0,0.012279144441313774,23.767426857311847,15.923753665689148
23.787976906351382,54,78,1,0.009000000000000001,23.770176319841116,17.80058651026393
23.797976906351384,51,68,1,0.009000000000000001,23.77861229247064,19.364613880742915
23.807976906351385,54,35,1,0.009492920332013563,23.783451002148063,24.52590420332356
23.796994104801218,58,114,0,0.036615079805750884,23.78482401682468,12.170087976539591
23.810451173890886,52,76,2,0.010951916155734886,23.792337781906525,18.113391984359726
23.818524595609176,61,59,1,0.02077571688989983,23.797752357095003,20.772238514174
23.82261996961948,61,121,2,0.009000000000000001,23.811544700802276,11.0752688172043
23.832619969619483,46,65,2,0.009000000000000001,23.812786147527596,19.83382209188661
23.837677526807607,40,49,0,0.046528157920742635,23.815341260922953,22.33626588465298
23.842619969619484,55,43,2,0.013247514284158716,23.819345287312544,23.27468230694037
23.841608725486843,51,111,1,0.010568159131165801,23.82896942929916,12.639296187683286
23.85335112452147,48,84,1,0.011975806154094262,23.836488954433495,16.86217008797654
23.857339429935216,52,83,2,0.013895297836025349,23.840320857110193,17.01857282502444
23.866657575803796,37,81,1,0.009000000000000001,23.849326197504677,17.331378299120235
23.872778649753023,52,83,2,0.029712244823344242,23.855760076928,17.01857282502444
23.876657575803797,59,97,1,0.009000000000000001,23.861828641297443,14.82893450635386
23.889375480052877,60,75,0,0.009000000000000001,23.871105685331468,18.269794721407624
23.8866575758038,54,99,1,0.01889493988202908,23.87214144677154,14.516129032258064
23.89937548005288,65,100,0,0.01729369827807678,23.885015753757667,14.359726295210166
23.907651953450497,57,69,1,0.009000000000000001,23.8884437423068,19.208211143695017
23.905792255112296,62,98,2,0.023664473345534953,23.89111972334299,14.672531769305962
23.9176519534505,57,54,1,0.024261184839327737,23.896097701251083,21.55425219941349
23.918590700361854,55,111,0,0.009000000000000001,23.90595140417417,12.639296187683286
23.928590700361855,56,109,0,0.025261177888488192,23.915638598700077,12.952101661779082
23.93208611438511,54,114,2,0.009000000000000001,23.919916026408572,12.170087976539591
23.942086114385113,62,59,2,0.02530258327863245,23.92131387587094,20.772238514174
23.944608825494196,47,87,1,0.009000000000000001,23.928215863617364,16.392961876832846
23.95665867579351,67,100,0,0.010306587392788589,23.942298949498298,14.359726295210166
23.954608825494198,45,117,1,0.009000000000000001,23.942907945728802,11.700879765395896
23.9646088254942,63,81,1,0.009000000000000001,23.94727744719508,17.331378299120235
23.970200095805815,47,49,2,0.009000000000000001,23.94786382992116,22.33626588465298
23.968110439563276,48,83,0,0.011647379443669226,23.951091866738253,17.01857282502444
23.9746088254942,59,106,1,0.01528557464350738,23.96118751562128,13.421309872922777
23.981051972278465,56,88,0,0.023347235289484968,23.96481541313868,16.236559139784944
23.990200095805818,46,58,2,0.02264318027082086,23.969271454554598,20.928641251221897
23.980200095805817,54,127,2,0.009000000000000001,23.9700632434109,10.136852394916911
23.99159279732032,59,97,1,0.02654712443878425,23.976763862813964,14.82893450635386
24.006993344822337,73,116,0,0.009000000000000001,23.995136062319894,11.857282502443795
24.01699334482234,58,85,0,0.009359892646039859,24.00028757747141,16.705767350928642
24.01535918499562,47,123,2,0.01255506439240231,24.00459672165251,10.762463343108504
24.021089602252303,54,100,1,0.009000000000000001,24.00672987595709,14.359726295210166
24.031089602252305,55,67,1,0.009000000000000001,24.011568585634514,19.521016617790814
24.029309256542735,52,90,2,0.010263025339883469,24.013385502877046,15.923753665689148
24.027393225540163,64,127,0,0.054144262701443686,24.017256373145244,10.136852394916911
24.040712618031495,73,92,2,0.009000000000000001,24.025101669839902,15.610948191593351
24.041089602252306,51,99,1,0.018443922265894527,24.026573473220047,14.516129032258064
24.050712618031497,53,106,2,0.009000000000000001,24.037291308158576,13.421309872922777
24.0607126180315,62,98,2,0.039695633277154516,24.04604008626219,14.672531769305962
24.06158284921441,67,97,1,0.009000000000000001,24.046753914708056,14.82893450635386
24.071582849214412,60,50,1,0.009000000000000001,24.049402986066806,22.179863147605083
24.081582849214413,53,105,1,0.021274287081467013,24.068005136604445,13.577712609970675
24.087553517430656,52,90,0,0.03802765365131589,24.071629763764967,15.923753665689148
24.104818877228336,45,99,2,0.009000000000000001,24.090302748196077,14.516129032258064
24.1052209459716,55,108,1,0.04545168844870663,24.092112441572773,13.10850439882698
24.114818877228338,70,78,2,0.009000000000000001,24.097018290718072,17.80058651026393
24.12481887722834,47,42,2,0.04511234225741012,24.10138779218435,23.43108504398827
24.12980646593212,48,100,0,0.01893748131780818,24.11544673963691,14.359726295210166
24.150848111840794,53,79,0,0.009000000000000001,24.133203928067577,17.64418377321603
24.155722822025716,60,85,1,0.026870042406332232,24.139017054674788,16.705767350928642
24.160848111840796,43,64,0,0.02642620279804395,24.14085788701186,19.990224828934508
24.174943701958796,47,117,2,0.009000000000000001,24.1632428221934,11.700879765395896
24.190210559394178,72,52,0,0.01966731214072403,24.168343501720667,21.867057673509287
24.18557842469942,64,88,1,0.009000000000000001,24.169341865559634,16.236559139784944
24.184943701958797,57,99,2,0.04033210184988228,24.17042757292654,14.516129032258064
24.19557842469942,53,99,1,0.017426924804635667,24.18106229566716,14.516129032258064
24.214941674482347,51,61,1,0.011317689814458262,24.19448224144227,20.459433040078203
24.212063128439425,51,111,0,0.011634269299854647,24.199423832251743,12.639296187683286
24.224990094328152,57,86,0,0.01703722467433791,24.208440729714273,16.549364613880744
24.2275168853873,54,73,1,0.051184726525637436,24.208934285191795,18.58260019550342
24.229757148458667,43,95,2,0.03622974423248972,24.214615408478217,15.141739980449657
24.243920343966305,58,85,0,0.009000000000000001,24.227214576615378,16.705767350928642
24.253920343966307,55,66,0,0.017158253862590584,24.23424292461147,19.67741935483871
24.2700124198281,47,74,2,0.009000000000000001,24.251586222369642,18.426197458455523
24.272985070480296,58,108,0,0.05237205816125624,24.25987656608147,13.10850439882698
24.2800124198281,60,112,2,0.009000000000000001,24.267529526377466,12.482893450635387
24.284388803749117,55,124,1,0.009000000000000001,24.273782743143055,10.606060606060606
24.29438880374912,49,63,1,0.009000000000000001,24.274242176183137,20.146627565982406
24.290012419828102,52,120,2,0.009000000000000001,24.27878074827385,11.231671554252198
24.300012419828104,75,94,2,0.02422970195326113,24.284714277110606,15.298142717497555
24.30438880374912,57,74,1,0.013648753301897906,24.285962606290664,18.426197458455523
24.319554085195673,55,84,1,0.016605736155944083,24.302691915107697,16.86217008797654
24.32693431088728,56,71,2,0.08401768631070615,24.308038905217682,18.89540566959922
24.331176246215026,47,68,0,0.03007102788380003,24.311811632334283,19.364613880742915
24.33800490314672,51,85,1,0.009000000000000001,24.321299135795794,16.705767350928642
24.348004903146723,31,88,1,0.009000000000000001,24.33176834400694,16.236559139784944
24.358004903146725,57,58,1,0.009000000000000001,24.337076261895504,20.928641251221897
24.36458849941925,51,93,0,0.009000000000000001,24.349133953964703,15.454545454545453
24.368004903146726,57,72,1,0.009000000000000001,24.349265900214174,18.73900293255132
24.378004903146728,64,75,1,0.009000000000000001,24.35973510842532,18.269794721407624
24.37458849941925,41,115,0,0.009000000000000001,24.36257481417976,12.013685239491693
24.38458849941925,59,88,0,0.05281057938105409,24.368351940279467,16.236559139784944
24.38800490314673,57,106,1,0.009000000000000001,24.374583593273808,13.421309872922777
24.39800490314673,61,61,1,0.01820248742156651,24.377545470106654,20.459433040078203
24.420287295676957,59,24,2,0.012505849356636409,24.394040961366105,26.24633431085044
24.418229889170693,62,99,1,0.009000000000000001,24.403713760138434,14.516129032258064
24.428229889170694,64,100,1,0.03071465446551743,24.413870162875483,14.359726295210166
24.434182683851,42,63,2,0.060810808890081225,24.414036056285017,20.146627565982406
24.443266920953757,51,64,0,0.009431918960609017,24.423276696124823,19.990224828934508
24.45374683090999,51,65,0,0.009000000000000001,24.433913008818102,19.83382209188661
24.46374683090999,50,61,0,0.009000000000000001,24.443287397869913,20.459433040078203
24.46235728302127,76,112,1,0.009000000000000001,24.449874389570635,12.482893450635387
24.47235728302127,54,54,1,0.009000000000000001,24.450803030821856,21.55425219941349
24.47374683090999,38,104,0,0.032153095099748195,24.46001271556297,13.734115347018573
24.482357283021273,45,91,1,0.009000000000000001,24.46658993209263,15.76735092864125
24.492357283021274,54,127,1,0.009000000000000001,24.482220430626356,10.136852394916911
24.502357283021276,56,67,1,0.009000000000000001,24.482836266403485,19.521016617790814
24.509472492131934,53,42,0,0.009000000000000001,24.486041407087946,23.43108504398827
24.501750249284424,58,122,2,0.009000000000000001,24.490831383204267,10.918866080156402
24.512357283021277,49,68,1,0.026249659703008837,24.492992669140534,19.364613880742915
24.511750249284425,57,95,2,0.01860550736576835,24.496608509303975,15.141739980449657
24.53547980300235,57,11,0,0.009000000000000001,24.507200233109877,28.27956989247312
24.519472492131936,53,114,0,0.01440657978337368,24.507302404155396,12.170087976539591
24.53242303524639,51,105,2,0.009000000000000001,24.51884532263642,13.577712609970675
24.541523571580175,53,101,1,0.009000000000000001,24.52732024802201,14.203323558162268
24.54547980300235,54,100,0,0.020999959626350147,24.53112007670714,14.359726295210166
24.551523571580177,70,65,1,0.015808028936720387,24.53168974948829,19.83382209188661
24.54242303524639,79,126,2,0.05197345744033981,24.532129780114424,10.29325513196481
24.568813091476073,43,81,0,0.03401672577154304,24.551481713176955,17.331378299120235
24.569088048176532,54,101,1,0.009000000000000001,24.55488472461837,14.203323558162268
24.579088048176533,55,120,1,0.02518231070294041,24.56785637662228,11.231671554252198
24.600171321291214,68,114,2,0.02387159380769647,24.588001233314674,12.170087976539591
24.607068393402024,62,95,1,0.03411369327188144,24.591926653421574,15.141739980449657
24.606609453444456,62,127,0,0.02637803997460236,24.596472601049538,10.136852394916911
24.626695314410878,40,62,2,0.028019992142919392,24.606392284107848,20.303030303030305
24.63591838674957,51,87,0,0.009000000000000001,24.619525424872737,16.392961876832846
24.644972497037447,50,93,1,0.01969641212631944,24.6295179515829,15.454545454545453
24.64591838674957,53,94,0,0.023594863030010908,24.630620244032073,15.298142717497555
24.65782863901412,58,127,2,0.03049064844132937,24.647691786619202,10.136852394916911
24.666857399400023,39,92,1,0.009000000000000001,24.65124645120843,15.610948191593351
24.67213490122736,52,101,0,0.017272367634830692,24.657931577669196,14.203323558162268
24.676857399400024,50,102,1,0.009000000000000001,24.66281047857891,14.04692082111437
24.686857399400026,71,78,1,0.015544990752060034,24.66905681288976,17.80058651026393
24.691707137282265,49,74,2,0.009000000000000001,24.673280939823808,18.426197458455523
24.691326420821614,51,79,0,0.009000000000000001,24.673682237048396,17.64418377321603
24.701326420821616,45,72,0,0.01649464253056652,24.682587417889064,18.73900293255132
24.701707137282266,53,76,2,0.045378047732770925,24.683593745297905,18.113391984359726
24.704129611346758,42,71,1,0.009000000000000001,24.68523420567716,18.89540566959922
24.71412961134676,56,99,1,0.03513292862648942,24.6996134823145,14.516129032258064
24.719653801411134,46,67,0,0.009000000000000001,24.700132784793343,19.521016617790814
24.729653801411136,46,127,0,0.07878546472869884,24.719516949016217,10.136852394916911
24.752127190318678,60,58,2,0.009000000000000001,24.731198549067457,20.928641251221897
24.753166198709526,59,79,1,0.0188077071290548,24.735522014936308,17.64418377321603
24.76212719031868,54,68,2,0.009000000000000001,24.742762576437936,19.364613880742915
24.774063651075142,58,30,1,0.014357161656686202,24.74875573318658,25.30791788856305
24.77212719031868,56,101,2,0.02989778577466566,24.757923866760517,14.203323558162268
24.790016052915906,49,71,1,0.02826212045125617,24.771120647246306,18.89540566959922
24.80534695229053,54,127,2,0.009000000000000001,24.795210099895613,10.136852394916911
24.821418408972857,59,50,1,0.023639018110973894,24.79923854582525,22.179863147605083
24.817193206665245,57,82,0,0.009000000000000001,24.800018231103174,17.174975562072337
24.815346952290533,43,96,2,0.02000944935241876,24.80036161504713,14.985337243401759
24.827193206665246,51,101,0,0.08068812524767228,24.812989883107083,14.203323558162268
24.83757967379322,45,70,2,0.0471768542941916,24.81852786538657,19.05180840664712
24.847683984651717,56,88,1,0.009000000000000001,24.831447425511932,16.236559139784944
24.857683984651718,61,101,1,0.04143835107497934,24.843480661093555,14.203323558162268
24.889998400786766,51,122,2,0.009000000000000001,24.87907953470661,10.918866080156402
24.899998400786767,60,104,2,0.009000000000000001,24.886264285439747,13.734115347018573
24.90999840078677,54,62,2,0.011738236350179326,24.88969537048374,20.303030303030305
24.903726596957252,60,127,1,0.03387570118008129,24.893589744562334,10.136852394916911
24.91684667916266,53,47,0,0.009000000000000001,24.89419760780391,22.649071358748778
24.923040885620303,57,47,2,0.009000000000000001,24.900391814261553,22.649071358748778
24.936846679162663,50,30,0,0.01083152253697316,24.9115387612741,25.30791788856305
24.92684667916266,51,127,0,0.009000000000000001,24.916709826767743,10.136852394916911
24.933040885620304,54,105,2,0.012076163383447594,24.919463173010335,13.577712609970675
24.94136626493512,59,89,1,0.009000000000000001,24.925286108532383,16.080156402737046
24.948881704203746,55,52,0,0.009000000000000001,24.927014646530235,21.867057673509287
24.95136626493512,45,64,1,0.012509558185601377,24.931376040106187,19.990224828934508
24.946458844935247,55,100,2,0.046928647611022056,24.932099118640036,14.359726295210166
24.958881704203748,52,80,0,0.025684780013740256,24.94139392316758,17.487781036168133
24.965265774030232,51,103,1,0.03851183109701586,24.951375255946164,13.890518084066471
24.98742034866346,57,112,0,0.040664939589621314,24.974937455212824,12.482893450635387
25.0,67,45,2,0.6123261206488966,24.977038123167155,22.961876832844574
25.0,61,57,0,0.43727185228265053,24.97891495601173,21.085043988269796
24.99860178672527,42,87,2,0.009000000000000001,24.98220882484844,16.392961876832846
25.0,83,97,1,0.13010412024776383,24.985171065493645,14.82893450635386
25.144560133608625,39,59,1,0.6487447102181757,25.123787895094452,20.772238514174
25.48585761364739,64,26,0,0.8678664573776574,25.459924084810634,25.933528836754643
25.68036235627655,37,91,2,0.42110846151599446,25.66459500534791,15.76735092864125
25.8653875894066,71,50,1,0.7244310438886157,25.843207726258992,22.179863147605083
26.148260646849877,57,98,2,0.016359397315676132,26.13358811508057,14.672531769305962
26.166437754978407,26,85,2,0.23699064625236474,26.14973198762748,16.705767350928642
26.429760695258814,44,120,2,0.43524513316397134,26.41852902370456,11.231671554252198
26.450153677400344,98,67,0,0.5551324161886811,26.430632660782553,19.521016617790814
26.67031097150506,68,77,1,0.44525452326096104,26.652353982257747,17.956989247311828
26.913366398774336,72,74,2,0.10644840695544416,26.89494020131588,18.426197458455523
27.03164240650261,97,104,2,0.37755179394622457,27.01790829115559,13.734115347018573
27.066967473165544,65,87,0,1.2905935360791672,27.050574511288712,16.392961876832846
27.165038219572793,72,64,1,0.30782986900412557,27.14504799474386,19.990224828934508
27.45114439977619,98,45,2,0.5445350503842359,27.428182522943345,22.961876832844574
27.507071407355156,60,83,1,0.5741160631393635,27.490052834530132,17.01857282502444
28.056183344647565,36,98,2,0.6285199270534126,28.041510812878258,14.672531769305962
28.14497814417667,72,97,1,0.40535078493473986,28.130149209670314,14.82893450635386
28.500960291031284,50,87,0,0.07344643706680633,28.48456732915445,16.392961876832846
28.582567443327736,91,44,0,0.6799838981436495,28.559449163757844,23.118279569892472
28.59536790521527,96,112,1,0.07634019663341811,28.582885011764635,12.482893450635387
28.68019034591907,58,32,1,0.7589821348591782,28.655195233504603,24.995112414467254
28.754538819151357,99,117,2,0.4294109899577899,28.74283793938596,11.700879765395896
29.23166214132668,85,89,2,0.0453487962638287,29.215581984923944,16.080156402737046
29.282049692730933,38,75,2,0.2950820143924153,29.263779898009524,18.269794721407624
29.338105107931792,61,70,0,0.617415147694826,29.319053299525144,19.05180840664712
29.523503829095933,37,117,1,0.38060380788753306,29.511802949330537,11.700879765395896
29.609918597611394,96,108,2,0.12308086524152727,29.596810093212568,13.10850439882698
29.746675114546424,92,49,2,0.323382533283826,29.72433884866177,22.33626588465298
29.94639694897097,51,30,1,0.251091999120862,29.92108903108241,25.30791788856305
30.02412193870382,87,79,0,0.6565311310265427,30.006477754930604,17.64418377321603
30.10598904041734,76,100,2,0.3727279115878777,30.09162931412213,14.359726295210166
30.225388059105263,33,37,1,1.2728256511919276,30.201174960376036,24.21309872922776
30.52013116440387,47,119,2,0.19605135473984905,30.50874309011257,11.3880742913001
30.737966003003702,48,62,2,0.5507815298700041,30.717662972700673,20.303030303030305
30.753600973177758,38,49,0,0.4115458136944653,30.731264707293104,22.33626588465298
31.21087409950494,68,69,0,0.7859692633286485,31.191665888361246,19.208211143695017
31.34994548063704,65,110,2,0.05330423634377117,31.33714978171231,12.795698924731184
31.409172409907896,50,45,2,1.2228338646017278,31.38621053307505,22.961876832844574
31.63963878265185,86,42,1,0.05393931176463381,31.616207697607862,23.43108504398827
31.69957135127922,25,124,1,0.49480566394657277,31.68896529067316,10.606060606060606
32.08417328098122,63,36,0,0.9324309983325878,32.059803779514944,24.369501466275658
32.24935542233097,29,88,1,0.35878989977612924,32.23311886319119,16.236559139784944
32.64801086652667,51,82,1,0.14713667547668374,32.6308358909646,17.174975562072337
32.76787670390981,34,92,2,0.5619379664900236,32.75226575571822,15.610948191593351
32.81149606150076,91,25,1,0.24814567781624594,32.78540612992696,26.08993157380254
33.087213481296594,26,111,1,0.07987492799154945,33.07457418510891,12.639296187683286
33.12020772357298,69,45,0,0.1750714936339659,33.09724584674014,22.961876832844574
33.175963401287206,47,38,1,1.5134533557925427,33.151906705295026,24.05669599217986
33.3147316053885,62,123,0,0.019896548232598822,33.303969142045396,10.762463343108504
33.3368388812025,65,46,0,0.3250536506000272,33.314033407106706,22.805474095796676
33.39225222223206,48,118,2,0.6171927042422298,33.380707745203715,11.544477028347998
33.698009604091425,50,81,0,3.0688925697864797,33.680678225792306,17.331378299120235
34.078021893612316,88,69,2,0.25597456014182185,34.058813682468625,19.208211143695017
34.36243807154767,53,117,2,1.0953860523741024,34.35073719178228,11.700879765395896
34.8575782410567,93,31,1,0.28031736362639004,34.83242672590519,25.151515151515152
35.16904197841936,83,45,1,0.43965515969475844,35.14608010158651,22.961876832844574
35.579533685296674,68,32,2,0.4286859754110869,35.55453857288221,24.995112414467254
35.657547711413535,98,122,1,0.25709951109271334,35.64662884533338,10.918866080156402
35.943213834849885,48,56,1,0.3948644638927895,35.921972388124566,21.241446725317694
36.05585143575344,69,104,2,1.075309099372288,36.04211732040642,13.734115347018573
36.38195212806409,68,73,1,0.10881827963111951,36.36336952786859,18.58260019550342
36.50286132765422,68,110,1,0.3096351594128455,36.49006562872949,12.795698924731184
36.8469003936685,93,28,1,0.1179430356481311,36.82127967030584,25.620723362658847
36.97794821105531,83,35,1,0.31054330041170725,36.95342230685199,24.52590420332356
37.10789023718751,85,85,0,0.14101534923268927,37.091184469836584,16.705767350928642
37.25063932394487,29,35,2,2.08139339848703,37.226113419741544,24.52590420332356
37.264573958557165,30,124,0,0.30545922528658276,37.25396789795111,10.606060606060606
37.32299632262388,56,65,1,0.02122552090719499,37.30316250053199,19.83382209188661
37.34658023474299,67,46,1,0.17144315943025057,37.32377476064719,22.805474095796676
37.53707263410993,90,38,1,0.7849402896272905,37.51301593811775,24.05669599217986
37.60397309776448,34,95,0,1.3670730179782846,37.58883135778403,15.141739980449657
38.409228511473586,42,69,1,0.11356917410914476,38.390020300329894,19.208211143695017
38.53541648270597,49,50,1,0.031139531810252235,38.51323661955836,22.179863147605083
38.57001596249514,69,100,1,0.5916455222661735,38.55565623619993,14.359726295210166
39.122943117740355,35,80,0,0.23773842224175248,39.10545533670419,17.487781036168133
39.227399876124224,56,79,1,0.09190450183832177,39.20975569235101,17.64418377321603
39.329515989277915,89,87,1,0.4006086366208062,39.31312302740108,16.392961876832846
39.387096920231194,46,103,0,0.024540518195230957,39.373206402147126,13.890518084066471
39.41436416267034,40,38,0,0.3282426594521113,39.39030746667816,24.05669599217986
39.56329865559712,58,99,2,0.6376802570846012,39.548782526564864,14.516129032258064
39.77907822872824,60,48,0,1.1972223187161122,39.75658556010654,22.49266862170088
39.77463669663437,96,106,1,0.2522810854430405,39.76121538676144,13.421309872922777
40.0,52,72,1,0.009000000000000001,39.98126099706745,18.73900293255132
40.0,79,92,2,0.035585586983804686,39.98438905180841,15.610948191593351
40.0,54,111,0,0.009000000000000001,39.987360703812314,12.639296187683286
40.01,48,68,0,0.019430816886696782,39.99063538611926,19.364613880742915
40.01,37,127,1,0.02558504007271354,39.99986314760508,10.136852394916911
40.03158979654077,62,87,0,0.0179900259974093,40.01519683466394,16.392961876832846
40.038427822303014,50,105,1,0.03632759498234659,40.02485010969304,13.577712609970675
40.04953954109311,45,60,2,0.013234882173925325,40.02892370531598,20.6158357771261
40.03953954109311,53,127,2,0.009000000000000001,40.0294026886982,10.136852394916911
40.05157871431567,59,98,0,0.009000000000000001,40.03690618254636,14.672531769305962
40.06424496573081,44,39,2,0.009000000000000001,40.040344672475676,23.900293255131963
40.061578714315665,51,64,0,0.013906337529735024,40.04158848948673,19.990224828934508
40.074244965730806,47,98,2,0.009000000000000001,40.0595724339615,14.672531769305962
40.07879181672784,61,106,1,0.022608267247762413,40.06537050685492,13.421309872922777
40.07703020045982,47,119,0,0.009000000000000001,40.06564212616852,11.3880742913001
40.087030200459814,64,100,0,0.009000000000000001,40.0726704741646,14.359726295210166
40.084244965730804,60,127,2,0.009000000000000001,40.07410811333589,10.136852394916911
40.09703020045981,55,70,0,0.009000000000000001,40.07797839205317,19.05180840664712
40.1039121136698,56,62,1,0.01515585897476331,40.08360908336677,20.303030303030305
40.0942449657308,59,125,2,0.01515847830315786,40.08379530786179,10.449657869012707
40.10703020045981,59,111,0,0.031067974517388887,40.094390904272124,12.639296187683286
40.11108771940098,64,97,2,0.009000000000000001,40.09625878489462,14.82893450635386
40.12075195697509,51,80,1,0.009000000000000001,40.103264175938925,17.487781036168133
40.121087719400975,51,109,2,0.021447809013163205,40.108135617739194,12.952101661779082
40.13075195697509,61,126,1,0.009000000000000001,40.12045870184313,10.29325513196481
40.14075195697509,65,89,1,0.031964592864547864,40.12467180057235,16.080156402737046
40.14491861830449,64,88,2,0.030191911412114858,40.1286820591647,16.236559139784944
40.1415501721458,59,118,0,0.03004188371601665,40.130005695117454,11.544477028347998
40.17493004294137,58,70,0,0.021041769578744502,40.155878234534725,19.05180840664712
40.17846518654017,50,55,2,0.0426252440159448,40.157067337077805,21.397849462365592
40.17626817126903,55,70,1,0.011199875425324489,40.157216362862385,19.05180840664712
40.188712477297166,59,88,1,0.012367446528618853,40.17247591815738,16.236559139784944
40.198309786917754,72,94,0,0.010425992918365153,40.183011644200256,15.298142717497555
40.202454084551185,52,127,1,0.009000000000000001,40.19231723215627,10.136852394916911
40.20989422349371,69,83,0,0.043393257131661866,40.19287565066869,17.01857282502444
40.21245408455118,53,96,1,0.009000000000000001,40.19746874730778,14.985337243401759
40.22245408455118,44,115,1,0.010871428946080973,40.210440399311686,12.013685239491693
40.225826568780114,60,96,2,0.009000000000000001,40.21084123153671,14.985337243401759
40.234533450046825,58,83,1,0.009000000000000001,40.2175148772218,17.01857282502444
40.23582656878011,57,88,2,0.05047645970728631,40.21959000964033,16.236559139784944
40.24453345004682,63,79,1,0.009000000000000001,40.22688926627361,17.64418377321603
40.25453345004682,46,96,1,0.010556692982946796,40.23954811280342,14.985337243401759
40.258108953640004,58,106,0,0.009000000000000001,40.24468764376708,13.421309872922777
40.26626310891676,38,78,1,0.024962434883705205,40.2484625224065,17.80058651026393
40.26810895364,46,119,0,0.009000000000000001,40.256720879348705,11.3880742913001
40.27810895364,54,81,0,0.06992498784470551,40.26077757534088,17.331378299120235
40.29399914767643,64,80,1,0.016831214465247234,40.276511366640264,17.487781036168133
40.29191152401043,81,110,2,0.012607600922284265,40.2791158250857,12.795698924731184
40.30591996947963,56,127,2,0.009000000000000001,40.29578311708472,10.136852394916911
40.31591996947963,67,90,2,0.024817079589303015,40.29999621581394,15.923753665689148
40.31270049708226,59,117,1,0.009000000000000001,40.30099961731687,11.700879765395896
40.32270049708226,51,96,1,0.028519973696442647,40.30771515983886,14.985337243401759
40.343494502356634,69,88,2,0.009000000000000001,40.32725794321685,16.236559139784944
40.35349450235663,58,87,2,0.009000000000000001,40.3371015404798,16.392961876832846
40.355803384578564,60,76,0,0.061074362794135965,40.33768999259421,18.113391984359726
40.354389356744974,54,100,1,0.015514456326508075,40.34002963044976,14.359726295210166
40.36349450235663,58,69,2,0.017679730983981484,40.34428629121294,19.208211143695017
40.37162764155221,60,62,1,0.009102549271074968,40.351324611249176,20.303030303030305
40.38174158518674,54,43,1,0.06370256091035424,40.3584669028798,23.27468230694037
40.383138647894384,47,113,2,0.009000000000000001,40.370812157180794,12.32649071358749
40.39313864789438,51,84,2,0.01115571939272284,40.37627647780641,16.86217008797654
40.40553389166407,47,75,2,0.033072595389987615,40.387264096942666,18.269794721407624
40.42366378768316,55,103,0,0.019837181116930277,40.40977326959909,13.890518084066471
40.44228121987517,52,95,2,0.009000000000000001,40.42713947989472,15.141739980449657
40.45228121987517,58,65,2,0.04021385720595842,40.43244739778328,19.83382209188661
40.445705100035305,45,118,0,0.009000000000000001,40.43416062300696,11.544477028347998
40.45252220842047,57,93,1,0.009000000000000001,40.43706766296592,15.454545454545453
40.4557051000353,43,81,0,0.013977734503940369,40.438373721736184,17.331378299120235
40.472522208420465,62,27,1,0.009000000000000001,40.44674508232076,25.777126099706745
40.46252220842047,37,94,1,0.009000000000000001,40.44722406570297,15.298142717497555
40.47123591615079,54,63,0,0.01589917894895248,40.451089288584804,20.146627565982406
40.48252220842046,50,71,1,0.009000000000000001,40.463626802750866,18.89540566959922
40.496963283437346,66,54,2,0.009000000000000001,40.47540903123793,21.55425219941349
40.48890167053852,63,106,0,0.009000000000000001,40.47548036066559,13.421309872922777
40.498901670538515,49,60,0,0.0318421300796009,40.47828583476139,20.6158357771261
40.49252220842046,65,127,1,0.01957188112992529,40.482385356025546,10.136852394916911
40.506963283437344,38,62,2,0.03363219849003524,40.48666025313431,20.303030303030305
40.51426874300927,61,67,1,0.014874740632940635,40.49474772639148,19.521016617790814
40.530796232601425,45,62,1,0.010944826186464533,40.51049320229839,20.303030303030305
40.5342818150714,60,89,0,0.015881560104770962,40.518201658668666,16.080156402737046
40.54295715058638,61,54,1,0.020148630331879677,40.52140289838697,21.55425219941349
40.544332392870714,45,127,2,0.009000000000000001,40.5341955404758,10.136852394916911
40.55433239287071,43,90,2,0.009000000000000001,40.538408639205024,15.923753665689148
40.551927992965595,65,119,0,0.015348396578747791,40.5405399186743,11.3880742913001
40.5653445176218,47,40,1,0.01624799251108468,40.54160062710372,23.743890518084065
40.56433239287071,65,106,2,0.036214228942108136,40.550911082997786,13.421309872922777
40.56898176694198,52,124,0,0.014414910089081722,40.55837570633592,10.606060606060606
40.584998333707624,58,65,0,0.014315547129326528,40.565164511615734,19.83382209188661
40.58339784263412,57,93,1,0.009000000000000001,40.567943297179575,15.454545454545453
40.59339784263412,58,92,1,0.03189855669419657,40.577786894442525,15.610948191593351
40.60090449718465,57,104,0,0.009000000000000001,40.58717038183763,13.734115347018573
40.604570425028605,46,99,2,0.024360529697181024,40.590054295996346,14.516129032258064
40.61090449718465,54,108,0,0.009000000000000001,40.59779599278582,13.10850439882698
40.62090449718465,45,80,0,0.07965155259630288,40.60341671614848,17.487781036168133
40.63163768024769,49,69,2,0.01516550248540966,40.612429469104,19.208211143695017
40.62884068340545,56,118,1,0.016925409595246705,40.617296206377105,11.544477028347998
40.648488238564816,57,64,2,0.011473176920297092,40.62849801373588,19.990224828934508
40.647646694066836,59,123,1,0.009000000000000001,40.63688423072373,10.762463343108504
40.657646694066834,67,82,1,0.009000000000000001,40.64047171850476,17.174975562072337
40.6612362129207,57,77,2,0.009000000000000001,40.64327922367339,17.956989247311828
40.66764669406683,48,95,1,0.009000000000000001,40.65250495408638,15.141739980449657
40.67764669406683,55,63,1,0.027678138581552998,40.657500066500845,20.146627565982406
40.6712362129207,37,113,2,0.009000000000000001,40.658909722207106,12.32649071358749
40.681236212920695,58,115,2,0.009000000000000001,40.6692225276812,12.013685239491693
40.69123621292069,56,61,2,0.062034976435148576,40.67077677988061,20.459433040078203
40.70940622229165,68,86,0,0.009000000000000001,40.69285685767777,16.549364613880744
40.719406222291646,56,53,0,0.009000000000000001,40.69769556735518,21.71065493646139
40.708400181379666,35,127,1,0.024830872824303928,40.69826332898475,10.136852394916911
40.729406222291644,59,100,0,0.015162411092113628,40.71504649599643,14.359726295210166
40.73599004007334,64,118,1,0.014724674060226166,40.724445563044995,11.544477028347998
40.746253345727325,62,87,0,0.045787834359113565,40.72986038385049,16.392961876832846
40.752350789029144,52,65,1,0.023412075903106285,40.732516966937254,19.83382209188661
40.7601639645153,36,57,2,0.009000000000000001,40.73907892052703,21.085043988269796
40.7701639645153,65,84,2,0.009000000000000001,40.75330179442732,16.86217008797654
40.778364206699266,59,106,1,0.02182607141323546,40.76494289682634,13.421309872922777
40.780163964515296,52,111,2,0.017241693531747915,40.76752466832761,12.639296187683286
40.799321401772794,50,45,2,0.028056595617076945,40.77635952493995,22.961876832844574
40.79712871723745,61,85,0,0.009000000000000001,40.78042294988652,16.705767350928642
40.80261539715842,56,120,1,0.031038995047309906,40.79138372560417,11.231671554252198
40.80712871723745,62,102,0,0.009000000000000001,40.79308179641633,14.04692082111437
40.817128717237445,43,106,0,0.05781490070732136,40.80370740736452,13.421309872922777
40.830495396902876,58,76,2,0.029588779857930413,40.81238200491852,18.113391984359726
40.837103169433206,66,125,1,0.01564543914232774,40.826653511564196,10.449657869012707
40.85448699070246,55,48,1,0.01793662092335381,40.83199432208076,22.49266862170088
40.863371818967245,53,94,2,0.03360782642545847,40.84807367624975,15.298142717497555
40.87441656950619,62,54,1,0.022865268043958616,40.85286231730677,21.55425219941349
40.881367495801136,35,91,0,0.009000000000000001,40.865600144872495,15.76735092864125
40.891367495801134,46,57,0,0.009000000000000001,40.87028245181286,21.085043988269796
40.90071384832886,60,72,2,0.030554055959542612,40.881974845396314,18.73900293255132
40.89982242288836,58,86,1,0.009089089187262107,40.88327305827448,16.549364613880744
40.90136749580113,54,127,0,0.009000000000000001,40.89123064340622,10.136852394916911
40.90992141087421,59,84,1,0.011882558677128683,40.893059240786236,16.86217008797654
40.91136749580113,40,107,0,0.029165054832607694,40.89810258866525,13.264907135874878
40.9231242538488,70,70,1,0.009000000000000001,40.904072445442154,19.05180840664712
40.933124253848796,57,79,1,0.04283898583962956,40.91548007007558,17.64418377321603
40.93466279939502,57,95,2,0.012387076175687529,40.91952105941457,15.141739980449657
40.943773112281804,57,89,0,0.017448756043339373,40.92769295587907,16.080156402737046
40.94842621736801,46,111,2,0.009000000000000001,40.93578692118032,12.639296187683286
40.95842621736801,53,83,2,0.013416188794088879,40.941407644542984,17.01857282502444
40.963160618996625,62,66,0,0.02574780271457289,40.94348319964178,19.67741935483871
40.973333093805884,51,78,2,0.009000000000000001,40.95553250729562,17.80058651026393
40.98072312700394,57,70,1,0.0604824188331754,40.9616713185973,19.05180840664712
40.98333309380588,54,102,2,0.012308394936746521,40.969286172984766,14.04692082111437
40.991769288679485,36,61,0,0.009000000000000001,40.971309855639404,20.459433040078203
40.99700908818004,46,63,2,0.017055304145452994,40.97686246061406,20.146627565982406
41.00176928867948,62,89,0,0.02450954874420887,40.98568913227675,16.080156402737046
41.01595942611944,40,84,2,0.017773653715966037,40.99909725603146,16.86217008797654
41.035707930248286,63,48,2,0.020883871616402434,41.013215261626584,22.49266862170088
41.02900212061749,53,117,0,0.009000000000000001,41.0173012408521,11.700879765395896
41.03900212061749,51,81,0,0.0444811013003148,41.02167074231837,17.331378299120235
41.04792581459636,62,60,1,0.009000000000000001,41.02730997881923,20.6158357771261
41.05792581459636,73,93,1,0.009000000000000001,41.042471269141814,15.454545454545453
41.058912232044285,56,105,2,0.009000000000000001,41.04533451943431,13.577712609970675
41.06792581459636,55,103,1,0.009000000000000001,41.05403529651229,13.890518084066471
41.06891223204428,59,102,2,0.016276359011214964,41.05486531122317,14.04692082111437
41.077925814596355,43,83,1,0.023100078389548064,41.06090724177133,17.01857282502444
41.08699707539008,53,68,2,0.009000000000000001,41.06763246150934,19.364613880742915
41.08842556650673,58,66,0,0.017351276345514303,41.06874814715189,19.67741935483871
41.09699707539008,71,78,2,0.009000000000000001,41.079196488879816,17.80058651026393
41.10359256836252,63,78,1,0.009267097051995804,41.08579198185226,17.80058651026393
41.106997075390076,51,86,2,0.009000000000000001,41.090447710776196,16.549364613880744
41.11770476244619,57,52,0,0.009000000000000001,41.09583770477268,21.867057673509287
41.10770476244619,63,127,0,0.009000000000000001,41.097567910051275,10.136852394916911
41.116997075390074,57,70,2,0.02265685590605838,41.09794526698343,19.05180840664712
41.11388934286474,48,98,1,0.009000000000000001,41.09921681109543,14.672531769305962
41.123889342864736,49,82,1,0.030444833804541924,41.106714367302665,17.174975562072337
41.127704762446186,60,114,0,0.009000000000000001,41.11553467446964,12.170087976539591
41.137704762446184,64,60,0,0.009000000000000001,41.117088926669055,20.6158357771261
41.14217135973014,52,113,2,0.009000000000000001,41.12984486901655,12.32649071358749
41.15217135973014,66,85,2,0.05696132151366525,41.13546559237921,16.705767350928642
41.14770476244618,65,118,0,0.009000000000000001,41.13616028541784,11.544477028347998
41.15771693598089,43,80,1,0.011844650300368369,41.14022915494473,17.487781036168133
41.15770476244618,50,116,0,0.009642613436827357,41.14584747994373,11.857282502443795
41.16841877737599,47,74,0,0.009000000000000001,41.14999257991754,18.426197458455523
41.17087765853686,49,83,1,0.009000000000000001,41.15385908571184,17.01857282502444
41.17841877737599,47,88,0,0.019363051681326314,41.162182218236204,16.236559139784944
41.18087765853686,55,86,1,0.009570624902873496,41.16432829392298,16.549364613880744
41.19151168620672,50,62,1,0.026004601805040876,41.17120865590368,20.303030303030305
41.19993327924413,55,81,0,0.030367726544194514,41.18260190094501,17.331378299120235
41.215461716967546,43,89,2,0.015912450706163032,41.19938156056481,16.080156402737046
41.230405688212315,57,20,1,0.009000000000000001,41.203533742953276,26.871945259042032
41.22040568821232,48,88,1,0.009000000000000001,41.20416912907253,16.236559139784944
41.233142217752174,71,107,2,0.01622751635411817,41.2198773106163,13.264907135874878
41.23367519762657,47,124,0,0.017338776225983763,41.22306913702051,10.606060606060606
41.24040568821231,58,109,1,0.009000000000000001,41.22745358655053,12.952101661779082
41.25117279147897,40,77,2,0.021539831752123515,41.23321580223166,17.956989247311828
41.25294050454433,59,98,0,0.009000000000000001,41.23826797277502,14.672531769305962
41.25040568821231,59,127,1,0.014306775176390502,41.240268835817396,10.136852394916911
41.26630210507497,58,52,1,0.022772651140322963,41.24443504740146,21.867057673509287
41.262940504544325,49,107,0,0.009000000000000001,41.24967559740845,13.264907135874878
41.27510593787022,54,70,2,0.009000000000000001,41.25605412946358,19.05180840664712
41.27294050454432,61,107,0,0.014723694703335835,41.259675597408446,13.264907135874878
41.289300165325805,52,38,0,0.02182068591177346,41.265243469333626,24.05669599217986
41.28510593787022,56,81,2,0.023617766406565294,41.2677745595711,17.331378299120235
41.291605050786444,57,73,1,0.013186318211166947,41.27302245059094,18.58260019550342
41.31354537189444,43,52,0,0.02881059083071077,41.29167831422093,21.867057673509287
41.30625651546552,51,127,1,0.041071533667881445,41.296119663070606,10.136852394916911
41.311347900544185,53,101,2,0.029418852905739857,41.29714457698602,14.203323558162268
41.3440355148839,71,71,2,0.010912322913799736,41.3251401092143,18.89540566959922
41.34555713948412,68,78,0,0.010848031328946593,41.32775655297386,17.80058651026393
41.35189155287428,43,82,1,0.009000000000000001,41.33471657731221,17.174975562072337
41.3576105076274,41,88,0,0.009000000000000001,41.341373948487615,16.236559139784944
41.361891552874276,47,83,1,0.009000000000000001,41.34487298004925,17.01857282502444
41.356160318121454,53,123,2,0.009000000000000001,41.34539785477835,10.762463343108504
41.36616031812145,51,71,2,0.01724187413991641,41.347264912451855,18.89540566959922
41.3676105076274,47,77,0,0.013555796988185561,41.34965351838009,17.956989247311828
41.371891552874274,59,122,1,0.030137671431460678,41.36097268679412,10.918866080156402
41.38267250428094,52,57,0,0.045879080112325187,41.36158746029267,21.085043988269796
41.38531795605469,39,103,2,0.05566208009230432,41.371427437970624,13.890518084066471
41.40537785446479,50,67,1,0.009000000000000001,41.385856837847,19.521016617790814
41.415377854464786,54,42,1,0.016002824067581585,41.3919467694208,23.43108504398827
41.4336492599613,50,80,0,0.03109887299980223,41.41616147892513,17.487781036168133
41.43315877009543,56,126,1,0.009000000000000001,41.42286551496347,10.29325513196481
41.44315877009543,47,78,1,0.0385684065211177,41.42535818358517,17.80058651026393
41.44716471171281,42,57,2,0.02109818090699398,41.42607966772454,21.085043988269796
41.4706071349428,55,71,2,0.01587334272966412,41.45171172927321,18.89540566959922
41.468203563294416,57,127,0,0.009000000000000001,41.4580667108995,10.136852394916911
41.478203563294414,50,103,0,0.07194528813877536,41.464313045210346,13.890518084066471
41.4860125551189,52,57,1,0.009000000000000001,41.464927511130625,21.085043988269796
41.48824418242021,62,72,2,0.051684110509726884,41.46950517948766,18.73900293255132
41.496012555118895,56,50,1,0.009000000000000001,41.47383269197129,22.179863147605083
41.50601255511889,53,93,1,0.016536677822893822,41.49055800966435,15.454545454545453
41.52438664158878,55,38,1,0.009000000000000001,41.5003299455966,24.05669599217986
41.534386641588775,40,61,1,0.009000000000000001,41.513927208548694,20.459433040078203
41.54567097187546,59,58,2,0.009000000000000001,41.524742330624235,20.928641251221897
41.54438664158877,42,108,1,0.02787111993268878,41.53127813718994,13.10850439882698
41.55567097187546,55,64,2,0.009000000000000001,41.53568074704652,19.990224828934508
41.5581427723375,54,105,0,0.009000000000000001,41.544565059727525,13.577712609970675
41.565670971875456,53,94,2,0.009000000000000001,41.55037282915796,15.298142717497555
41.57814277233749,84,30,0,0.009000000000000001,41.55283485444893,25.30791788856305
41.575670971875454,50,48,2,0.009000000000000001,41.55317830325375,22.49266862170088
41.568142772337495,55,104,0,0.009000000000000001,41.554408656990475,13.734115347018573
41.57535455262509,57,127,1,0.023472638766543576,41.56521770023018,10.136852394916911
41.58814277233749,55,64,0,0.05153689337583259,41.568152547508554,19.990224828934508
41.58567097187545,67,127,2,0.012841756996371658,41.57553411948054,10.136852394916911
41.6014352623657,46,80,1,0.009000000000000001,41.58394748132953,17.487781036168133
41.59993959076031,42,96,2,0.07996283637593482,41.584954253516905,14.985337243401759
41.611435262365696,54,86,1,0.009000000000000001,41.594885897751816,16.549364613880744
41.621435262365694,47,98,1,0.04514035003854157,41.60676273059639,14.672531769305962
41.645405987199524,48,127,0,0.04664382219004726,41.63526913480461,10.136852394916911
41.67159120685296,61,121,1,0.024210311765768537,41.66051593803576,11.0752688172043
41.68878718673357,70,50,2,0.03477585103264126,41.666607323585964,22.179863147605083
41.698491553259366,57,112,1,0.009000000000000001,41.68600865980873,12.482893450635387
41.697232456299574,66,126,0,0.06344307542849413,41.68693920116761,10.29325513196481
41.708491553259364,53,67,1,0.02359529121306327,41.68897053664158,19.521016617790814
41.72742702121428,51,94,2,0.009000000000000001,41.712128878496785,15.298142717497555
41.73742702121428,56,81,2,0.018671244358842244,41.72009564291516,17.331378299120235
41.734708543496104,53,115,1,0.020613178850366298,41.72269485825661,12.013685239491693
41.75817284827966,58,55,2,0.03699032279566586,41.736774998817296,21.397849462365592
41.75761207555207,55,83,1,0.009000000000000001,41.740593502727044,17.01857282502444
41.767724762331234,57,78,0,0.009000000000000001,41.74992417582097,17.80058651026393
41.767612075552066,60,125,1,0.009000000000000001,41.757162417683055,10.449657869012707
41.77772476233123,47,80,0,0.02585985673024866,41.760236981295066,17.487781036168133
41.777612075552064,65,97,1,0.015913563019521553,41.76278314104571,14.82893450635386
41.799273206941514,63,51,2,0.021669988216372775,41.777249746530956,22.023460410557185
41.79529381224042,54,81,1,0.03961244417300996,41.777962433941305,17.331378299120235
41.80645793647595,52,111,0,0.009000000000000001,41.793818640288265,12.639296187683286
41.81645793647595,64,82,0,0.009000000000000001,41.79928296091388,17.174975562072337
41.82645793647595,57,26,0,0.009000000000000001,41.800524407639195,25.933528836754643
41.823350971626375,34,109,2,0.009000000000000001,41.810398869964594,12.952101661779082
41.839307639099324,51,50,1,0.015498776032327676,41.81712777595172,22.179863147605083
41.83335097162637,57,112,2,0.009000000000000001,41.820868078175735,12.482893450635387
41.836457936475945,42,120,0,0.046106635494526635,41.825226264921696,11.231671554252198
41.84335097162637,49,97,2,0.009000000000000001,41.82852203712002,14.82893450635386
41.85652850135747,55,46,1,0.009000000000000001,41.83372302726167,22.805474095796676
41.85335097162637,51,104,2,0.009000000000000001,41.83961685627935,13.734115347018573
41.86335097162637,49,46,2,0.04016694193166475,41.84054549753057,22.805474095796676
41.866528501357465,63,80,1,0.00937154135310929,41.8490407203213,17.487781036168133
41.876941325083145,48,96,1,0.009000000000000001,41.86195598783974,14.985337243401759
41.88694132508314,44,99,1,0.009378664463373234,41.872425196050884,14.516129032258064
41.887687531469865,63,120,0,0.009000000000000001,41.876455859915616,11.231671554252198
41.89768753146986,47,96,0,0.021820896656356684,41.88270219422646,14.985337243401759
41.89736206337578,49,102,1,0.009000000000000001,41.883315142554665,14.04692082111437
41.90736206337578,67,46,1,0.014630180323956308,41.88455658927998,22.805474095796676
41.907980907105994,59,86,2,0.010247078411488404,41.891431542492114,16.549364613880744
41.91936654978542,60,88,2,0.009000000000000001,41.90312999064564,16.236559139784944
41.92193297219915,51,77,0,0.009000000000000001,41.90397598295184,17.956989247311828
41.93193297219915,48,61,0,0.015963078244815784,41.91147353915907,20.459433040078203
41.92361781929129,58,125,1,0.009000000000000001,41.91316816142228,10.449657869012707
41.92936654978542,43,92,2,0.029626932227346758,41.91375560159383,15.610948191593351
41.933617819291285,64,102,1,0.009000000000000001,41.91957089847017,14.04692082111437
41.94361781929128,45,71,1,0.009000000000000001,41.92472241362169,18.89540566959922
41.9496697258045,61,91,0,0.034652091167969815,41.933902374875856,15.76735092864125
41.95361781929128,56,127,1,0.025665359347449162,41.94348096689637,10.136852394916911
41.962285363371365,54,98,2,0.02921723722513396,41.94761283160206,14.672531769305962
41.98213488523289,56,95,1,0.028062638916145317,41.96699314525244,15.141739980449657
41.98817204932446,55,93,0,0.009000000000000001,41.972717503869916,15.454545454545453
41.99817204932446,58,54,0,0.02145905564493277,41.976617797125044,21.55425219941349
41.99474896028818,38,107,2,0.05894486573535066,41.9814840531523,13.264907135874878
42.013315595139716,54,94,1,0.009000000000000001,41.99801745242222,15.298142717497555
42.0220154444855,52,76,0,0.014219974702735684,42.00390205250114,18.113391984359726
42.023315595139714,51,92,1,0.009000000000000001,42.00770464694812,15.610948191593351
42.03331559513971,56,117,1,0.009000000000000001,42.02161471537432,11.700879765395896
42.03781541637743,47,94,0,0.012745122083505828,42.02251727365993,15.298142717497555
42.04331559513971,63,105,1,0.009000000000000001,42.02973788252974,13.577712609970675
42.05197666313688,57,97,0,0.009000000000000001,42.03714772863052,14.82893450635386
42.05331559513971,74,92,1,0.009000000000000001,42.037704646948114,15.610948191593351
42.061976663136875,53,54,0,0.009000000000000001,42.04042241093746,21.55425219941349
42.06024325554968,61,80,2,0.009000000000000001,42.04275547451351,17.487781036168133
42.063315595139706,49,85,1,0.009000000000000001,42.04660982778878,16.705767350928642
42.073315595139704,42,88,1,0.018461481950466884,42.05707903599992,16.236559139784944
42.07024325554968,52,127,2,0.014454737391667815,42.06010640315476,10.136852394916911
42.07197666313687,62,126,0,0.014018798814308925,42.06168340800491,10.29325513196481
42.08755310626388,72,72,0,0.021982902584911226,42.068814103331334,18.73900293255132
42.093828352862445,56,64,1,0.012203583290371921,42.07383812803351,19.990224828934508
42.08630407487375,51,120,2,0.016485453445787928,42.0750724033195,11.231671554252198
42.11462124536907,45,34,2,0.009000000000000001,42.0899389384287,24.682306940371458
42.104621245369074,58,106,2,0.009000000000000001,42.09119993549615,13.421309872922777
42.10738788985175,44,98,1,0.009000000000000001,42.092715358082444,14.672531769305962
42.11738788985175,50,40,1,0.009000000000000001,42.093643999333665,23.743890518084065
42.11197855358045,53,85,0,0.045486442119668236,42.09527278622952,16.705767350928642
42.12738788985175,46,62,1,0.0313595620958526,42.10708485954871,20.303030303030305
42.12462124536907,51,85,2,0.009000000000000001,42.10791547801814,16.705767350928642
42.13462124536907,59,93,2,0.045451309436065124,42.11916669991452,15.454545454545453
42.162231847736024,53,81,1,0.009000000000000001,42.144900469436905,17.331378299120235
42.16251904482453,67,104,0,0.01373181238634312,42.14878492947751,13.734115347018573
42.17223184773602,54,55,1,0.020277404957822653,42.150833998273654,21.397849462365592
42.17777661414269,46,103,0,0.009000000000000001,42.16388609605862,13.890518084066471
42.18512270029803,58,89,2,0.013627304544609298,42.169042543895294,16.080156402737046
42.187776614142685,66,95,0,0.009000000000000001,42.172634874162235,15.141739980449657
42.19476229768916,43,90,1,0.009000000000000001,42.17883854402347,15.923753665689148
42.20476229768916,49,55,1,0.02137054150271447,42.18336444822679,21.397849462365592
42.20026414979204,38,84,2,0.049854886883029026,42.183401979704065,16.86217008797654
42.19777661414268,54,105,0,0.018712732645185026,42.18419890153271,13.577712609970675
42.218568539304,59,89,0,0.0522547790393853,42.202488382901265,16.080156402737046
42.22850734380329,51,92,1,0.009000000000000001,42.21289639561169,15.610948191593351
42.238507343803285,68,108,1,0.010151891098028299,42.225398839404455,13.10850439882698
42.249787222801096,56,72,1,0.012451450859375449,42.23104821986855,18.73900293255132
42.25565846855096,63,82,2,0.016029618350839218,42.23848349298889,17.174975562072337
42.2636221682004,56,78,1,0.009000000000000001,42.24582158169014,17.80058651026393
42.2736221682004,52,59,1,0.009000000000000001,42.25284992968622,20.772238514174
42.27346915560745,68,100,2,0.01527037677677102,42.25910942931224,14.359726295210166
42.27662940490332,35,82,0,0.019662042315616083,42.25945442934125,17.174975562072337
42.283622168200395,57,119,1,0.009000000000000001,42.2722340939091,11.3880742913001
42.29043624091497,47,79,2,0.009000000000000001,42.27279205714176,17.64418377321603
42.29362216820039,52,107,1,0.012909101241763475,42.280357261064516,13.264907135874878
42.30043624091497,58,74,2,0.03894635481228578,42.282010043456516,18.426197458455523
42.29847611858734,57,98,0,0.018135650745600213,42.28380358681803,14.672531769305962
42.307965614024575,58,115,1,0.009000000000000001,42.29595192878508,12.013685239491693
42.31796561402457,60,81,1,0.009000000000000001,42.300634235725454,17.331378299120235
42.31862684163801,51,77,0,0.009000000000000001,42.3006698523907,17.956989247311828
42.32796561402457,58,97,1,0.009000000000000001,42.313136679518216,14.82893450635386
42.328626841638005,62,100,0,0.0408465797223255,42.314267115342794,14.359726295210166
42.33796561402457,58,78,1,0.019108902137391442,42.32016502751431,17.80058651026393
42.34370996848418,71,74,2,0.013648468648227576,42.325283771025724,18.426197458455523
42.35919772751056,58,119,1,0.022121278137005467,42.347809653219265,11.3880742913001
42.35887493364888,57,127,2,0.011747382073104917,42.34873808125396,10.136852394916911
42.37192758039677,61,83,2,0.01915032707701964,42.35490900757175,17.01857282502444
42.374011930218366,56,96,0,0.015807722103879263,42.35902659297496,14.985337243401759
42.38377692544057,56,85,1,0.012526623494034335,42.367071158089644,16.705767350928642
42.391576065889346,45,92,0,0.020882786877788325,42.37596511769775,15.610948191593351
42.39320572159346,50,123,2,0.045788295685766915,42.382443258250355,10.762463343108504
42.3976953959895,37,109,1,0.009000000000000001,42.38474329432772,12.952101661779082
42.4076953959895,55,107,1,0.009000000000000001,42.39443048885362,13.264907135874878
42.414779162420224,38,81,0,0.027581334771848747,42.397447784121105,17.331378299120235
42.4176953959895,37,94,1,0.009000000000000001,42.402397253272,15.298142717497555
42.427695395989495,57,127,1,0.009000000000000001,42.41755854359458,10.136852394916911
42.44408160568876,65,69,2,0.03254270937914345,42.42487339454507,19.208211143695017
42.43769539598949,57,127,1,0.009000000000000001,42.42755854359458,10.136852394916911
42.44769539598949,51,64,1,0.044075621976731476,42.427705171160554,19.990224828934508
42.4454250899445,58,111,0,0.013976429061369712,42.432785793756814,12.639296187683286
42.46095445556824,63,107,0,0.009000000000000001,42.447689548432365,13.264907135874878
42.47095445556824,47,76,0,0.009000000000000001,42.45284106358388,18.113391984359726
42.480240171665585,62,108,2,0.07524702681266773,42.467131667266756,13.10850439882698
42.48095445556824,52,107,0,0.019164552768921844,42.46768954843236,13.264907135874878
42.49666830929697,59,109,1,0.009000000000000001,42.48371620763519,12.952101661779082
42.50224840308926,55,92,0,0.03276557322218567,42.48663745489767,15.610948191593351
42.50666830929697,57,80,1,0.01916625479168289,42.4891805282608,17.487781036168133
42.52796414795439,53,85,1,0.009000000000000001,42.511258380603465,16.705767350928642
42.538654595558356,65,72,0,0.029937574656926057,42.51991559262581,18.73900293255132
42.53796414795439,53,97,1,0.02740328155163039,42.523135213448036,14.82893450635386
42.56384797923521,66,71,2,0.02431949677206941,42.54495257356562,18.89540566959922
42.571918567399386,50,69,0,0.009000000000000001,42.552710356255695,19.208211143695017
42.56841223856731,42,109,1,0.009000000000000001,42.55546013690553,12.952101661779082
42.57841223856731,57,80,1,0.009000000000000001,42.560924457531144,17.487781036168133
42.581918567399384,46,90,0,0.02696349834701733,42.565994813733695,15.923753665689148
42.58841223856731,52,109,1,0.009000000000000001,42.57546013690553,12.952101661779082
42.59086964231529,54,96,2,0.009000000000000001,42.57588430507189,14.985337243401759
42.598412238567306,61,119,1,0.009000000000000001,42.58702416427601,11.3880742913001
42.60086964231529,39,111,2,0.014014559103347719,42.5882303461276,12.639296187683286
42.608412238567304,51,71,1,0.009000000000000001,42.58951683289771,18.89540566959922
42.61187801000718,59,98,0,0.009000000000000001,42.597205478237875,14.672531769305962
42.61644137465234,54,102,2,0.009000000000000001,42.602394453831224,14.04692082111437
42.62187801000718,61,84,0,0.009000000000000001,42.605015839919204,16.86217008797654
42.6184122385673,48,108,1,0.009000000000000001,42.60530373416847,13.10850439882698
42.62644137465234,40,69,2,0.027206965387711723,42.607233163508646,19.208211143695017
42.63187801000718,67,63,0,0.009000000000000001,42.61173138244119,20.146627565982406
42.6284122385673,64,87,1,0.009000000000000001,42.61201927669047,16.392961876832846
42.6384122385673,41,111,1,0.009000000000000001,42.62577294237961,12.639296187683286
42.641878010007176,49,104,0,0.02546429660800486,42.628143894660155,13.734115347018573
42.648412238567296,56,82,1,0.03131421757755658,42.631237263005225,17.174975562072337
42.656671336194236,57,83,2,0.01812288500369839,42.63965276336921,17.01857282502444
42.680171672904955,43,44,0,0.01976308005089521,42.65705339333506,23.118279569892472
42.67017167290496,57,122,0,0.009000000000000001,42.6592528068248,10.918866080156402
42.676807875087235,55,82,2,0.009000000000000001,42.659632899525164,17.174975562072337
42.68320581365347,43,105,1,0.011872162000824811,42.6696281010435,13.577712609970675
42.68680787508723,55,107,2,0.014087096394873082,42.673542967951356,13.264907135874878
42.6963971047655,50,86,1,0.009000000000000001,42.67984774015162,16.549364613880744
42.70246020441487,50,99,2,0.018038811405213483,42.68794407538261,14.516129032258064
42.702130650739285,53,110,0,0.009000000000000001,42.68933495181455,12.795698924731184
42.7063971047655,58,83,1,0.02702167034009389,42.68937853194048,17.01857282502444
42.71213065073928,50,127,0,0.009000000000000001,42.70199379834437,10.136852394916911
42.72213065073928,31,76,0,0.011018107584821744,42.704017258754924,18.113391984359726
42.72250332819844,41,90,2,0.0225613702815018,42.70657957453275,15.923753665689148
42.73437299250019,59,85,0,0.02365518987528354,42.71766722514926,16.705767350928642
42.73642118292116,43,108,1,0.009000000000000001,42.72331267852233,13.10850439882698
42.74757151740011,48,42,2,0.009000000000000001,42.72414043235612,23.43108504398827
42.74642118292116,56,70,1,0.011094578114208444,42.72736937451452,19.05180840664712
42.75757151740011,47,26,2,0.01137271348039747,42.73163798856336,25.933528836754643
42.75874849193695,53,97,1,0.009000000000000001,42.743919557430594,14.82893450635386
42.76065653680606,55,127,0,0.009000000000000001,42.750519684411145,10.136852394916911
42.77065653680606,47,68,0,0.009000000000000001,42.75129192292532,19.364613880742915
42.77020786571166,65,86,2,0.021061016732317438,42.75365850109778,16.549364613880744
42.76874849193695,65,127,1,0.015210788490835998,42.75861163954203,10.136852394916911
42.78564936803787,51,82,1,0.03371497821373313,42.7684743924758,17.174975562072337
42.780656536806056,58,127,0,0.06416309016233386,42.77051968441114,10.136852394916911
42.79360899541424,55,77,2,0.04657954905584856,42.77565200616693,17.956989247311828
42.82311045494202,43,91,1,0.014327586865116298,42.80734310401338,15.76735092864125
42.83902999590326,77,67,1,0.05685965902201724,42.81950897928547,19.521016617790814
42.84536404992074,47,81,2,0.009000000000000001,42.82803267162162,17.331378299120235
42.85194885920865,57,76,0,0.01936523011663262,42.83383546722429,18.113391984359726
42.85536404992074,51,61,2,0.03283946021661178,42.83490461688066,20.459433040078203
42.87346578156046,60,90,0,0.009000000000000001,42.85754202789477,15.923753665689148
42.88346578156046,73,68,0,0.009325153086797086,42.86410116767972,19.364613880742915
42.89185233905031,50,86,2,0.013890466866302962,42.87530297443643,16.549364613880744
42.89382706276801,57,99,0,0.032073772625694476,42.87931093373575,14.516129032258064
42.902207394816614,73,88,1,0.009000000000000001,42.88597083567683,16.236559139784944
42.90728619112398,59,99,2,0.02385584878121026,42.89277006209172,14.516129032258064
42.91220739481661,42,97,1,0.012054893584222397,42.89737846031026,14.82893450635386
42.9256017210213,49,77,1,0.009000000000000001,42.90764473177399,17.956989247311828
42.929464587907674,46,105,0,0.012931016303684,42.9158868752977,13.577712609970675
42.9356017210213,45,70,1,0.015683663551446392,42.916549912614656,19.05180840664712
42.93379268976977,69,102,2,0.009000000000000001,42.91974576894865,14.04692082111437
42.943792689769765,54,63,2,0.015545346949281409,42.92364606220378,20.146627565982406
42.943832383800654,44,123,0,0.009000000000000001,42.93306992045755,10.762463343108504
42.95302801385624,43,84,1,0.009491620619623034,42.936165843768265,16.86217008797654
42.95383238380065,56,91,0,0.022195517900061766,42.93806503287201,15.76735092864125
42.96106529749119,51,100,2,0.009000000000000001,42.94670557119598,14.359726295210166
42.963574258989155,43,87,1,0.009000000000000001,42.94718129711232,16.392961876832846
42.98357425898915,39,23,1,0.009000000000000001,42.957171521941255,26.402737047898338
42.97849407035628,61,59,0,0.009000000000000001,42.9577218318421,20.772238514174
42.97357425898915,65,102,1,0.009000000000000001,42.95952733816804,14.04692082111437
42.97106529749119,59,127,2,0.016622639919674036,42.96092844509627,10.136852394916911
42.988494070356275,57,63,0,0.012748937952736735,42.96834744279029,20.146627565982406
42.98953489740194,58,82,2,0.017166961824877498,42.97235992183987,17.174975562072337
42.99357425898915,43,78,1,0.009000000000000001,42.97577367247889,17.80058651026393
43.00357425898915,47,60,1,0.011221245536787043,42.98295842321202,20.6158357771261
43.00860929942958,57,77,2,0.009000000000000001,42.99065231018227,17.956989247311828
43.00265955697043,48,122,0,0.009000000000000001,42.991740690890275,10.918866080156402
43.01604230958558,73,71,1,0.009000000000000001,42.99714690391598,18.89540566959922
43.012659556970426,57,112,0,0.009000000000000001,43.00017666351979,12.482893450635387
43.01860929942958,51,87,2,0.009000000000000001,43.002216337552746,16.392961876832846
43.022659556970424,66,62,0,0.01698001653671796,43.00235652666739,20.303030303030305
43.02604230958558,50,67,1,0.009000000000000001,43.00652129296779,19.521016617790814
43.028609299429576,45,96,2,0.019810786543259896,43.01362396218617,14.985337243401759
43.036042309585575,48,98,1,0.0201479456516637,43.02136977781627,14.672531769305962
43.04152624201122,65,80,0,0.03130255720680809,43.024038460975056,17.487781036168133
43.05062128447764,67,64,2,0.0352023875401133,43.030631059648705,19.990224828934508
43.0584289158652,55,101,1,0.009000000000000001,43.044225592307036,14.203323558162268
43.0684289158652,52,106,1,0.009000000000000001,43.05500760599227,13.421309872922777
43.0763068611299,56,127,0,0.011525539233968244,43.066170008734986,10.136852394916911
43.078428915865196,51,119,1,0.01403743924507617,43.0670408415739,11.3880742913001
43.08911301583431,51,67,0,0.009000000000000001,43.06959199921652,19.521016617790814
43.09402607058195,39,59,1,0.009000000000000001,43.07325383206777,20.772238514174
43.0897350484111,59,101,2,0.009000000000000001,43.07553172485294,14.203323558162268
43.099113015834305,58,67,0,0.009000000000000001,43.07959199921652,19.521016617790814
43.0997350484111,61,108,2,0.009000000000000001,43.08662654401227,13.10850439882698
43.104026070581945,53,105,1,0.009000000000000001,43.09044835797197,13.577712609970675
43.109735048411096,43,97,2,0.04874145958514164,43.09490611390474,14.82893450635386
43.1091130158343,62,101,0,0.010644227529970324,43.09490969227614,14.203323558162268
43.11402607058194,61,85,1,0.009000000000000001,43.097320303231015,16.705767350928642
43.12093993531205,51,116,0,0.014342869672617779,43.109082652809604,11.857282502443795
43.12402607058194,52,111,1,0.009000000000000001,43.111386774394255,12.639296187683286
43.13402607058194,59,87,1,0.009000000000000001,43.11763310870511,16.392961876832846
43.136876457170516,60,101,0,0.010496032764495563,43.12267313361235,14.203323558162268
43.14402607058194,43,94,1,0.041432853387726114,43.12872792786444,15.298142717497555
43.148538715797734,48,109,0,0.04145539779153508,43.13558661413595,12.952101661779082
43.16389222572792,52,93,2,0.028048204210495774,43.148437680273375,15.454545454545453
43.19505689707292,49,27,2,0.009000000000000001,43.16927977097321,25.777126099706745
43.19460026889944,65,54,0,0.012526462411929604,43.17304601670003,21.55425219941349
43.19006257434608,59,127,1,0.009000000000000001,43.179925721951165,10.136852394916911
43.20006257434608,51,113,1,0.011472037077721344,43.18773608363249,12.32649071358749
43.205056897072915,40,88,2,0.023360182512493985,43.18882033793313,16.236559139784944
43.20851856046826,68,67,0,0.023224528057944407,43.18899754385047,19.521016617790814
43.21280928221021,58,59,1,0.009000000000000001,43.19203704369603,20.772238514174
43.22280928221021,53,81,1,0.009000000000000001,43.20547790391109,17.331378299120235
43.232809282210205,47,50,1,0.03121178387106019,43.2106294190626,22.179863147605083
43.23432359164375,49,74,0,0.009000000000000001,43.2158973941853,18.426197458455523
43.23101265542013,48,103,2,0.009000000000000001,43.21712213733606,13.890518084066471
43.24432359164375,55,60,0,0.0401285561865985,43.22370775586662,20.6158357771261
43.24101265542013,44,125,2,0.057396937800620884,43.23056299755112,10.449657869012707
43.26748904206694,44,107,1,0.014621175958192298,43.254224134931064,13.264907135874878
43.2837347931316,64,86,1,0.03506650551982975,43.26718542851772,16.549364613880744
43.288910876295525,48,68,0,0.009000000000000001,43.269546262414785,19.364613880742915
43.29891087629552,51,127,0,0.009000000000000001,43.28877402390061,10.136852394916911
43.30478703075415,69,97,2,0.013866713463206863,43.289958096247794,14.82893450635386
43.30891087629552,56,127,0,0.02923270166597126,43.298774023900606,10.136852394916911
43.32019449015771,57,84,2,0.009335266151523351,43.303332320069735,16.86217008797654
43.322697577042526,71,77,1,0.06656609465131383,43.304740587795216,17.956989247311828
43.33056700810385,59,45,2,0.010103845022698387,43.307605131271,22.961876832844574
43.341793502573516,53,94,2,0.009000000000000001,43.32649535985602,15.298142717497555
43.341391655924376,51,97,0,0.020636577975442664,43.32656272141802,14.82893450635386
43.351793502573514,60,68,2,0.009000000000000001,43.332428888692775,19.364613880742915
43.36179350257351,51,89,2,0.009000000000000001,43.345713346170776,16.080156402737046
43.3643211870082,48,89,0,0.009000000000000001,43.348241030605465,16.080156402737046
43.3743211870082,57,80,0,0.009000000000000001,43.35683340597203,17.487781036168133
43.37179350257351,64,127,2,0.02141476473816941,43.361656650178595,10.136852394916911
43.3843211870082,50,77,0,0.009000000000000001,43.36636419776089,17.956989247311828
43.394321187008195,55,91,0,0.025496788606676726,43.378553836079554,15.76735092864125
43.39665990443287,58,80,1,0.02604499875290321,43.37917212339671,17.487781036168133
43.39558768561592,46,115,2,0.04896797605380701,43.38357400037643,12.013685239491693
43.425598791936096,68,64,1,0.009000000000000001,43.40560856710716,19.990224828934508
43.42265095212672,56,120,0,0.03460269635207838,43.411419280572474,11.231671554252198
43.44559879193609,53,52,1,0.012653074963934693,43.42373173426258,21.867057673509287
43.435598791936094,64,127,1,0.009000000000000001,43.42546193954118,10.136852394916911
43.44999654789793,51,66,2,0.009000000000000001,43.43031912854309,19.67741935483871
43.46109839251792,47,70,0,0.025278146854729334,43.442046584111274,19.05180840664712
43.45999654789793,61,89,2,0.009000000000000001,43.44391639149519,16.080156402737046
43.45965776411824,49,118,1,0.013914104672499096,43.448113287089896,11.544477028347998
43.46999654789793,58,82,2,0.010503526417378386,43.45282157233586,17.174975562072337
43.47511788042102,57,59,1,0.009000000000000001,43.45434564190684,20.772238514174
43.48166713280612,60,81,2,0.009000000000000001,43.464335754507005,17.331378299120235
43.485117880421015,68,72,1,0.009000000000000001,43.46637887748847,18.73900293255132
43.489185222356504,51,63,0,0.009000000000000001,43.46903859479052,20.146627565982406
43.49166713280612,60,80,2,0.04311874734509383,43.474179351769955,17.487781036168133
43.49511788042101,66,85,1,0.011625575693855689,43.478412113070085,16.705767350928642
43.4991852223565,47,93,0,0.02420529442029018,43.483730676901956,15.454545454545453
43.50803518674752,57,72,1,0.05811022991403031,43.48929618381497,18.73900293255132
43.5260799939346,63,63,0,0.01695406695043528,43.505933366368616,20.146627565982406
43.53957685207845,63,105,2,0.009000000000000001,43.525999139468475,13.577712609970675
43.544917846101754,55,108,0,0.009000000000000001,43.531809341702925,13.10850439882698
43.549576852078445,63,87,2,0.009000000000000001,43.53318389020161,16.392961876832846
43.55957685207844,45,54,2,0.04255450331440493,43.53802259987903,21.55425219941349
43.55491784610175,45,112,0,0.04508524039203661,43.542434952651114,12.482893450635387
43.57260210887422,67,52,1,0.009000000000000001,43.55073505120071,21.867057673509287
43.58260210887422,45,65,1,0.016858380852625122,43.56276828678233,19.83382209188661
43.601333643154916,51,62,1,0.009000000000000001,43.58103061285188,20.303030303030305
43.60501255764846,47,49,0,0.0161442288047759,43.5826762917638,22.33626588465298
43.606859633538896,53,57,2,0.009000000000000001,43.585774589550624,21.085043988269796
43.611333643154914,55,80,1,0.009000000000000001,43.59384586211875,17.487781036168133
43.616859633538894,54,54,2,0.023866154054916912,43.59530538133948,21.55425219941349
43.62295058965376,53,92,0,0.02543062720261478,43.60733964146217,15.610948191593351
43.62133364315491,47,127,1,0.009000000000000001,43.61119679076,10.136852394916911
43.63133364315491,68,114,1,0.017784333372556117,43.61916355517837,12.170087976539591
43.6433775824888,67,99,2,0.011091699916064025,43.628861453456544,14.516129032258064
43.65120684210111,66,83,0,0.011019589845145273,43.63418826927609,17.01857282502444
43.65109401356886,47,102,1,0.009000000000000001,43.63704709274774,14.04692082111437
43.65570169350665,56,104,2,0.011702453145491334,43.64196757815963,13.734115347018573
43.663450830817936,54,68,0,0.009000000000000001,43.6440862169372,19.364613880742915
43.66109401356886,52,99,1,0.012630611315560909,43.6465778845366,14.516129032258064
43.668704419223864,55,121,2,0.012472310267224887,43.65762915040666,11.0752688172043
43.673450830817934,46,113,0,0.02091151286135559,43.661124340104344,12.32649071358749
43.682562541743,45,60,2,0.009000000000000001,43.661946705965875,20.6158357771261
43.6751280261417,54,115,1,0.009000000000000001,43.663114340902204,12.013685239491693
43.6851280261417,62,77,1,0.032645666810012866,43.66717103689439,17.956989247311828
43.692562541743,47,102,2,0.011208587423793732,43.678515620921885,14.04692082111437
43.69668584510833,60,94,0,0.02004914176739768,43.68138770239083,15.298142717497555
43.70501652776944,48,101,2,0.032775609608345115,43.690813204211274,14.203323558162268
43.71896266929433,57,75,0,0.016546917809344634,43.70069287457292,18.269794721407624
43.721400989263934,40,109,1,0.009000000000000001,43.70844888760215,12.952101661779082
43.73140098926393,63,47,1,0.016538515332206644,43.70875191790518,22.649071358748778
43.737348133526936,47,66,0,0.012311876539029465,43.717670714172094,19.67741935483871
43.74143387177871,37,58,2,0.009377272884206516,43.720505230527486,20.928641251221897
43.74977711741083,55,50,1,0.04908837608718023,43.72759725426322,22.179863147605083
43.75102799634808,50,69,0,0.058062099645484894,43.73181978520439,19.208211143695017
43.751853063872275,49,75,2,0.009000000000000001,43.73358326915087,18.269794721407624
43.76185306387227,45,93,2,0.03782529280702187,43.74639851841773,15.454545454545453
43.80388116699119,40,72,2,0.01097873028890829,43.78514216405864,18.73900293255132
43.8043197575077,64,77,1,0.009911159150501675,43.78636276826039,17.956989247311828
43.816079756201084,46,71,2,0.009911507696643783,43.79718435053149,18.89540566959922
43.81533215656381,56,81,1,0.015949990069679936,43.798000778264694,17.331378299120235
43.81554144039862,55,119,0,0.015189557045187685,43.80415336610732,11.3880742913001
43.827092542530686,58,95,2,0.01347967748218795,43.811950802550236,15.141739980449657
43.83305436775235,42,80,1,0.009000000000000001,43.81556658671618,17.487781036168133
43.832418726004384,56,110,0,0.012817141554923838,43.81962302707965,12.795698924731184
43.84206996195534,56,76,2,0.011776310006970546,43.82395656997098,18.113391984359726
43.843054367752345,55,99,1,0.036410097204263824,43.828538238720085,14.516129032258064
43.84665999439874,58,91,0,0.011068483514417476,43.8308926434701,15.76735092864125
43.85515475085197,52,112,2,0.009000000000000001,43.842671857401335,12.482893450635387
43.85895830941476,47,105,0,0.009000000000000001,43.84538059680479,13.577712609970675
43.86515475085197,71,84,2,0.024502825750457008,43.848292580763996,16.86217008797654
43.86895830941476,50,90,0,0.009000000000000001,43.85303455574907,15.923753665689148
43.88351003131264,62,80,1,0.009000000000000001,43.86602225027647,17.487781036168133
43.878958309414756,62,123,0,0.009000000000000001,43.86819584607165,10.762463343108504
43.89238011279692,58,76,2,0.009120029139045308,43.874266720812564,18.113391984359726
43.888958309414754,45,109,0,0.01625659814844566,43.87600620775297,12.952101661779082
43.89351003131264,46,90,1,0.009000000000000001,43.87758627764695,15.923753665689148
43.90251347850697,40,127,2,0.016637049739239757,43.89237662611205,10.136852394916911
43.903510031312635,45,127,1,0.009000000000000001,43.89337317891772,10.136852394916911
43.90702119624636,45,122,0,0.009034872262608474,43.89610233016621,10.918866080156402
43.91705994320481,59,85,0,0.023384185603152467,43.900354175853884,16.705767350928642
43.91351003131263,41,124,1,0.012364921292169765,43.902903970706575,10.606060606060606
43.92099908932835,59,127,2,0.010268856226156866,43.91086223693343,10.136852394916911
43.93240892957963,57,71,2,0.028874551602958952,43.913513523910034,18.89540566959922
43.927248832748376,43,127,1,0.009000000000000001,43.91711198035346,10.136852394916911
43.937248832748374,40,94,1,0.015090601377895613,43.921950690030876,15.298142717497555
43.94304237165276,67,70,0,0.009000000000000001,43.923990563246115,19.05180840664712
43.95304237165276,50,97,0,0.05455820107095112,43.9382134371464,14.82893450635386
43.9540161676127,64,96,1,0.009000000000000001,43.9390308303693,14.985337243401759
43.96449176469403,63,58,2,0.010924615322270188,43.94356312344281,20.928641251221897
43.974016167612696,57,49,1,0.009000000000000001,43.95167990172804,22.33626588465298
43.9640161676127,60,118,1,0.009000000000000001,43.95247169058435,11.544477028347998
43.97663022616322,40,78,2,0.021566396346950147,43.95882963965296,17.80058651026393
43.984016167612694,54,55,1,0.04018170950343242,43.96261831815033,21.397849462365592
44.000592888770946,40,94,2,0.009000000000000001,43.98529474605345,15.298142717497555
44.010592888770944,62,99,2,0.033287926803490527,43.996076759738685,14.516129032258064
44.01366259506492,62,83,0,0.009000000000000001,43.9966440222399,17.01857282502444
44.028662511505395,59,53,1,0.010667469520567883,44.00695185656893,21.71065493646139
44.02366259506492,54,127,0,0.009000000000000001,44.013525742670005,10.136852394916911
44.04704801678427,48,1,0,0.020158915362330634,44.01720441952131,29.843597262952102
44.03366259506492,57,106,0,0.012046879547412,44.02024128519199,13.421309872922777
44.040515255417134,55,94,1,0.016746676223913137,44.025217112699636,15.298142717497555
44.047579474108154,54,89,2,0.010097055229434897,44.03149931770542,16.080156402737046
44.0591226734437,52,102,1,0.009000000000000001,44.04507575262259,14.04692082111437
44.05879842436308,59,109,2,0.009000000000000001,44.0458463227013,12.952101661779082
44.0694468116313,49,83,0,0.009000000000000001,44.05242823880628,17.01857282502444
44.06879842436308,60,100,2,0.009000000000000001,44.05443869806787,14.359726295210166
44.0691226734437,54,120,1,0.009000000000000001,44.05789100188945,11.231671554252198
44.07879842436308,54,65,2,0.009000000000000001,44.05896460227119,19.83382209188661
44.0794468116313,52,85,0,0.02680428736729398,44.06274104428037,16.705767350928642
44.0791226734437,50,123,1,0.009000000000000001,44.06836021010059,10.762463343108504
44.08879842436308,59,74,2,0.009718240621800708,44.070372226904624,18.426197458455523
44.0891226734437,60,79,1,0.01790069526659,44.07147848967048,17.64418377321603
44.09959646949841,60,112,2,0.009000000000000001,44.08711357604777,12.482893450635387
44.109596469498406,50,65,2,0.03806797234107463,44.089762647406516,19.83382209188661
44.10922935315052,58,107,0,0.009000000000000001,44.09596444601464,13.264907135874878
44.119012334851014,53,54,1,0.009000000000000001,44.0974580826516,21.55425219941349
44.109012334851016,70,127,1,0.009000000000000001,44.0988754824561,10.136852394916911
44.119229353150516,44,100,0,0.009000000000000001,44.104869626855304,14.359726295210166
44.12901233485101,47,78,1,0.009000000000000001,44.11121174834075,17.80058651026393
44.129229353150514,50,78,0,0.01779894830594669,44.11142876664025,17.80058651026393
44.13901233485101,56,80,1,0.009000000000000001,44.121524553814844,17.487781036168133
44.14900596237934,42,36,0,0.009000000000000001,44.12463646091307,24.369501466275658
44.14901233485101,58,52,1,0.01642870169284777,44.1271452771775,21.867057673509287
44.151894216544044,65,59,2,0.009000000000000001,44.13112197802987,20.772238514174
44.15900596237934,63,32,0,0.009000000000000001,44.134010849964874,24.995112414467254
44.16189421654404,56,72,2,0.010604088056312425,44.14315521361149,18.73900293255132
44.16900596237934,48,53,0,0.03481047014048569,44.147295307442874,21.71065493646139
44.16726644784306,79,84,1,0.014340464781158153,44.15040427775509,16.86217008797654
44.173676536606614,60,127,2,0.05039590508455433,44.1635396842117,10.136852394916911
44.1832002975999,42,109,1,0.02797318978238023,44.17024819593812,12.952101661779082
44.20768426253543,58,92,0,0.009000000000000001,44.19207331434384,15.610948191593351
44.214281619580326,46,58,1,0.011901360379893602,44.1933529783291,20.928641251221897
44.21768426253543,51,121,0,0.019260567422250928,44.20660899371823,11.0752688172043
44.227505353335765,62,63,1,0.009000000000000001,44.20735872576978,20.146627565982406
44.229671986700566,52,89,2,0.047549869182232044,44.21359183029783,16.080156402737046
44.23750535333576,45,79,1,0.031443459270945266,44.21986116956255,17.64418377321603
44.239084893004595,57,97,0,0.010293409741533073,44.22425595849824,14.82893450635386
44.250522014939634,54,105,0,0.011900006560324188,44.23694430232966,13.577712609970675
44.263744244451104,53,87,0,0.009000000000000001,44.24735128257427,16.392961876832846
44.2737442444511,50,66,0,0.012857455120136656,44.25406682509626,19.67741935483871
44.27244253030348,54,127,1,0.009000000000000001,44.262305677908564,10.136852394916911
44.28244253030348,61,90,1,0.013723808916269571,44.26651877663779,15.923753665689148
44.2880303056957,57,72,0,0.009000000000000001,44.26929130276315,18.73900293255132
44.28250517468082,57,118,2,0.009000000000000001,44.27096069765248,11.544477028347998
44.2980303056957,51,41,0,0.009000000000000001,44.27444281791466,23.587487781036167
44.29250517468082,56,86,2,0.02740573191844011,44.27595581006694,16.549364613880744
44.29769120687711,60,123,1,0.009000000000000001,44.286928743534006,10.762463343108504
44.30769120687711,53,104,1,0.026409328130232262,44.29395709153009,13.734115347018573
44.308030305695695,50,114,0,0.009000000000000001,44.29586021771915,12.170087976539591
44.31803030569569,56,127,0,0.009000000000000001,44.30789345330078,10.136852394916911
44.32295598792353,57,102,2,0.03176380386329325,44.30890906710241,14.04692082111437
44.32803030569569,42,84,0,0.014818124312004927,44.311168135607716,16.86217008797654
44.33703490479959,71,77,1,0.03081929719064893,44.31907791555228,17.956989247311828
44.344494888264585,47,82,0,0.027149223944615306,44.327319912702514,17.174975562072337
44.35824910332719,37,127,2,0.04048686671765162,44.348112250932274,10.136852394916911
44.37466069264749,74,76,0,0.009000000000000001,44.35654730066313,18.113391984359726
44.37127856834475,49,127,1,0.018839587370265008,44.361141715949834,10.136852394916911
44.384660692647486,58,85,0,0.009000000000000001,44.36795492529656,16.705767350928642
44.3922114432006,40,89,1,0.01284704854855725,44.376131286797865,16.080156402737046
44.394660692647484,70,95,0,0.017337769053674755,44.379518952667034,15.141739980449657
44.40648594158789,46,58,1,0.009000000000000001,44.385557300336664,20.928641251221897
44.40323451079124,54,87,2,0.04762945509182508,44.38684154891441,16.392961876832846
44.4139248804849,70,61,0,0.009000000000000001,44.39346544744482,20.459433040078203
44.41648594158789,58,127,1,0.03876765306328864,44.40634908919297,10.136852394916911
44.4239248804849,42,80,0,0.04799142944602688,44.40643709944873,17.487781036168133
44.456156127559936,46,118,2,0.044774579403273715,44.44461165053159,11.544477028347998
44.45956111165821,42,127,1,0.013325150683273048,44.449424259263296,10.136852394916911
44.474366834639625,53,110,1,0.009000000000000001,44.46157113571489,12.795698924731184
44.47724869098048,50,98,0,0.013104112040692489,44.462576159211174,14.672531769305962
44.48436683463962,62,95,1,0.009000000000000001,44.46922509465917,15.141739980449657
44.49180881547014,37,89,0,0.009000000000000001,44.4757286590674,16.080156402737046
44.49436683463962,42,109,1,0.05047623558533683,44.48141473297784,12.952101661779082
44.501808815470135,40,98,0,0.009698280031723952,44.48713628370083,14.672531769305962
44.51590566023024,56,61,2,0.009000000000000001,44.49544622719016,20.459433040078203
44.50590566023024,52,125,2,0.009000000000000001,44.49545600236123,10.449657869012707
44.51258468217205,56,98,0,0.019673341282886107,44.49791215040274,14.672531769305962
44.53444395026414,57,45,0,0.01433306511488871,44.511482073431296,22.961876832844574
44.52590566023024,62,127,2,0.010988805220172563,44.51576880783532,10.136852394916911
44.53811544380821,50,55,2,0.009000000000000001,44.51671759434584,21.397849462365592
44.55036957816957,58,73,0,0.05147025121894093,44.53178697797407,18.58260019550342
44.55045154084555,57,81,1,0.016289738515259316,44.53312016254643,17.331378299120235
44.54811544380821,57,120,2,0.00941612236091543,44.53688377225396,11.231671554252198
44.558577801987,48,83,2,0.034374392574288516,44.541559229161976,17.01857282502444
44.568551250306946,50,104,1,0.02193855963388663,44.554817134959926,13.734115347018573
44.59292742767793,42,67,1,0.009000000000000001,44.57340641106014,19.521016617790814
44.59677157151398,51,90,2,0.009590869775472747,44.580847817848294,15.923753665689148
44.60755874619062,46,33,0,0.011033551131998737,44.5827200365132,24.838709677419356
44.60742809348673,48,75,2,0.009000000000000001,44.58915829876533,18.269794721407624
44.602927427677926,43,106,1,0.047587145084673356,44.589506117805,13.421309872922777
44.61981824744839,55,63,0,0.014270324969296306,44.59967161988241,20.146627565982406
44.61742809348673,58,86,2,0.009000000000000001,44.60087872887285,16.549364613880744
44.62742809348673,55,89,2,0.009000000000000001,44.61134793708399,16.080156402737046
44.635674164080946,52,92,0,0.009000000000000001,44.62006321588935,15.610948191593351
44.637428093486726,60,84,2,0.00981768329422124,44.62056592339875,16.86217008797654
44.645674164080944,52,116,0,0.05152708725132518,44.6338168815785,11.857282502443795
44.64833663048031,65,106,2,0.01990966192277073,44.634915320607384,13.421309872922777
44.65580203332756,45,121,1,0.009000000000000001,44.64472676451036,11.0752688172043
44.66580203332756,53,98,1,0.009000000000000001,44.65112950155825,14.672531769305962
44.67045847706117,52,97,2,0.02777873111536972,44.65562954255481,14.82893450635386
44.67580203332756,65,91,1,0.009000000000000001,44.660034682398916,15.76735092864125
44.685802033327555,54,35,1,0.009000000000000001,44.66127612912423,24.52590420332356
44.69580203332755,54,74,1,0.03726145529218617,44.6773758358691,18.426197458455523
44.70132373385602,48,66,2,0.009000000000000001,44.68164631450118,19.67741935483871
44.70292648324908,39,76,0,0.009000000000000001,44.68481309126472,18.113391984359726
44.71132373385602,49,103,2,0.009000000000000001,44.69743321577195,13.890518084066471
44.71292648324908,60,97,0,0.009000000000000001,44.69809754874272,14.82893450635386
44.722926483249076,52,85,0,0.027162771612511995,44.70622071589815,16.705767350928642
44.72132373385602,56,114,2,0.024014617767790535,44.709153645879475,12.170087976539591
44.73720365031887,43,102,1,0.014639407525201556,44.72315672949775,14.04692082111437
44.7480066424869,44,88,2,0.01060179228347881,44.731770083347115,16.236559139784944
44.7534696586802,59,93,1,0.027698655831561662,44.73801511322566,15.454545454545453
44.75310734059631,66,98,0,0.011074239112426476,44.738434808827,14.672531769305962
44.765412050721224,36,66,0,0.01965375384278597,44.74573463136638,19.67741935483871
44.75978641169076,63,127,2,0.02353173823890596,44.74964955929585,10.136852394916911
44.787249554990986,76,40,0,0.023705554576135414,44.7635056644729,23.743890518084065
44.784245942937495,62,80,1,0.010710133354583602,44.76675816190133,17.487781036168133
44.78593278751177,63,89,2,0.009000000000000001,44.76985263110903,16.080156402737046
44.79593278751177,50,44,2,0.009000000000000001,44.772814507941874,23.118279569892472
44.79614609110926,51,106,1,0.009000000000000001,44.78272478123633,13.421309872922777
44.805932787511765,57,87,2,0.030060554980197135,44.78953982563493,16.392961876832846
44.806146091109255,63,103,1,0.028568141948922977,44.79225557302519,13.890518084066471
44.81358906007558,52,62,0,0.015974151456316144,44.793286029772545,20.303030303030305
44.83133811724926,46,77,0,0.009000000000000001,44.81338112800195,17.956989247311828
44.84133811724926,60,58,0,0.009000000000000001,44.820409475998034,20.928641251221897
44.8378884710525,54,125,1,0.009000000000000001,44.82743881318349,10.449657869012707
44.83933340415643,53,127,2,0.0276628208989935,44.82919655176151,10.136852394916911
44.851338117249256,60,86,0,0.009000000000000001,44.834788752635376,16.549364613880744
44.8478884710525,44,119,1,0.009000000000000001,44.8365003967612,11.3880742913001
44.8578884710525,47,112,1,0.018037884503637726,44.84540557760186,12.482893450635387
44.861338117249254,61,96,0,0.009200510626019441,44.84635278000585,14.985337243401759
44.87156090683372,46,94,0,0.014820823325948487,44.856262764116224,15.298142717497555
44.870069871821975,53,121,2,0.02284379238020373,44.858994603004774,11.0752688172043
44.87793056494543,66,79,1,0.015445829443279246,44.860286381172216,17.64418377321603
44.888028488307,58,102,0,0.009000000000000001,44.873981567485885,14.04692082111437
44.89545186335553,52,70,2,0.009000000000000001,44.87640005494889,19.05180840664712
44.905092597660186,53,47,1,0.009000000000000001,44.88244352630144,22.649071358748778
44.89509259766019,44,111,1,0.009000000000000001,44.8824533014725,12.639296187683286
44.898028488307,48,104,0,0.009000000000000001,44.88429437295998,13.734115347018573
44.90545186335553,61,65,2,0.009208254979474646,44.88561804126364,19.83382209188661
44.908028488307,48,103,0,0.009000000000000001,44.89413797022293,13.890518084066471
44.918028488306994,54,79,0,0.009000000000000001,44.90038430453378,17.64418377321603
44.91568325777717,54,94,2,0.020449551430429355,44.90038511505967,15.298142717497555
44.92509259766018,54,58,1,0.009000000000000001,44.90416395640896,20.928641251221897
44.915092597660184,52,127,1,0.009000000000000001,44.90495574526527,10.136852394916911
44.92802848830699,46,81,0,0.020723806134971177,44.910697110007874,17.331378299120235
44.93509259766018,63,85,1,0.019478744612267004,44.91838683030925,16.705767350928642
44.938404981588754,48,88,2,0.009000000000000001,44.92216842244897,16.236559139784944
44.951054939568074,61,61,0,0.009000000000000001,44.93059550652799,20.459433040078203
44.94840498158875,44,87,2,0.009000000000000001,44.93201201971192,16.392961876832846
44.956735647229365,56,86,1,0.04202287116515888,44.940186282615485,16.549364613880744
44.96105493956807,58,61,0,0.009000000000000001,44.94059550652799,20.459433040078203
44.97105493956807,60,35,0,0.013922753262505624,44.94652903536475,24.52590420332356
44.95840498158875,58,127,2,0.020484873063379087,44.948268129193835,10.136852394916911
44.98116595165917,64,69,2,0.009000000000000001,44.96195774051548,19.208211143695017
44.986524665415295,53,63,0,0.00906907713965774,44.96637803784931,20.146627565982406
44.99116595165917,60,106,2,0.009429270622782055,44.977744641786245,13.421309872922777
44.9966014177927,56,95,0,0.009000000000000001,44.981459677812246,15.141739980449657
45.00164291901782,52,86,2,0.009000000000000001,44.98509355440394,16.549364613880744
45.003427726301766,56,92,1,0.009000000000000001,44.98781677811017,15.610948191593351
45.006601417792695,52,84,0,0.009000000000000001,44.98973924770472,16.86217008797654
45.01164291901782,46,77,2,0.017327592283883725,44.99368592977051,17.956989247311828
45.01660141779269,45,92,0,0.049681484407238956,45.0009904696011,15.610948191593351
45.013427726301764,70,116,1,0.016918180108173985,45.00157044379932,11.857282502443795
45.030895799333244,63,55,2,0.015318962279694915,45.00949794987088,21.397849462365592
45.03222570419973,57,74,1,0.01197682169714629,45.01379950674128,18.426197458455523
45.04791686853291,61,51,2,0.009000000000000001,45.02589340812235,22.023460410557185
45.04553328386323,56,111,1,0.0257972961951626,45.03289398767554,12.639296187683286
45.05791686853291,60,56,2,0.021126044553302283,45.03667542180759,21.241446725317694
45.07180306713407,56,24,0,0.04226416681835385,45.04555673282322,26.24633431085044
45.0741969463023,64,83,1,0.009000000000000001,45.05717837347728,17.01857282502444
45.0841969463023,46,53,1,0.011131510400644567,45.062486291365836,21.71065493646139
45.08139025136991,55,82,2,0.056600729319319074,45.06421527580784,17.174975562072337
45.0965652911919,52,75,1,0.009000000000000001,45.078295496470496,18.269794721407624
45.1065652911919,52,91,1,0.033396115050505465,45.09079794026326,15.76735092864125
45.118763252487796,57,48,0,0.013297428542858892,45.096270583866094,22.49266862170088
45.13353817309097,46,99,0,0.009000000000000001,45.11902204405871,14.516129032258064
45.14367208569246,54,53,1,0.009000000000000001,45.121961430755995,21.71065493646139
45.14353817309097,56,116,0,0.022707354497916925,45.13168089058852,11.857282502443795
45.1442799506136,45,118,2,0.009000000000000001,45.13273547358526,11.544477028347998
45.153672085692456,45,98,1,0.009000000000000001,45.13899955392315,14.672531769305962
45.1542799506136,65,95,2,0.009000000000000001,45.13913821063315,15.141739980449657
45.163672085692454,72,66,1,0.018172189373579558,45.14399466633761,19.67741935483871
45.16876856697754,54,75,0,0.07077609082555512,45.150498772256135,18.269794721407624
45.1642799506136,64,120,2,0.02650195286502898,45.15304827905935,11.231671554252198
45.18386340721865,57,127,1,0.009000000000000001,45.17372655482374,10.136852394916911
45.193726564908076,53,83,2,0.009000000000000001,45.17670799208305,17.01857282502444
45.19386340721865,44,94,1,0.014628288513047432,45.17856526450115,15.298142717497555
45.203726564908074,51,53,2,0.009000000000000001,45.18201590997161,21.71065493646139
45.210117061122034,52,33,1,0.009000000000000001,45.185278351444616,24.838709677419356
45.21372656490807,63,45,2,0.009000000000000001,45.19076468807523,22.961876832844574
45.22011706112203,53,5,1,0.05902225415489819,45.19089907480727,29.21798631476051
45.22372656490807,34,113,2,0.027763651413084307,45.21140007419448,12.32649071358749
45.25457506647816,64,75,2,0.017588271257227044,45.236305271756756,18.269794721407624
45.247408667894824,52,126,0,0.009000000000000001,45.23711541276286,10.29325513196481
45.25740866789482,78,87,0,0.038636222307240405,45.24101570601799,16.392961876832846
45.274117590097305,62,105,2,0.011492914517306574,45.26053987748733,13.577712609970675
45.28688749511653,50,58,2,0.05624559629044904,45.26595885386531,20.928641251221897
45.28569734351636,47,81,1,0.016741143657580972,45.26836596521724,17.331378299120235
45.300337803791756,45,68,0,0.01368299456425136,45.280973189911016,19.364613880742915
45.30429861424701,64,71,1,0.01477771966941074,45.285403208577414,18.89540566959922
45.31554113108537,53,64,0,0.04664230963436141,45.29555090625643,19.990224828934508
45.320718302768576,62,94,1,0.009000000000000001,45.30542016005108,15.298142717497555
45.330718302768574,58,43,1,0.02923384362241807,45.30744362046163,23.27468230694037
45.34938260210592,51,53,2,0.027588655285440036,45.327671947169456,21.71065493646139
45.36320035123793,56,86,1,0.014285664111877344,45.34665098662405,16.549364613880744
45.37736591956799,55,22,0,0.01068008976928125,45.35080677978305,26.559139784946236
45.367365919567995,57,94,0,0.009000000000000001,45.3520677768505,15.298142717497555
45.380036663534185,55,105,2,0.019208362653689155,45.36645895092421,13.577712609970675
45.379073311362234,38,114,1,0.016880739978945264,45.36690322338569,12.170087976539591
45.38923268597831,50,83,0,0.0206244941134715,45.372214113153284,17.01857282502444
45.39782968911662,42,114,1,0.009000000000000001,45.38565960114008,12.170087976539591
45.40137928870495,49,127,2,0.015909499925478635,45.39124243631004,10.136852394916911
45.412148790548834,64,72,0,0.010920365088150374,45.393409787616285,18.73900293255132
45.40782968911662,52,105,1,0.021136450360462626,45.394251976506645,13.577712609970675
45.42428252953567,68,71,0,0.012842531140199455,45.40538712386607,18.89540566959922
45.41905651084437,55,111,2,0.009000000000000001,45.406417214656685,12.639296187683286
45.42905651084437,72,64,2,0.009000000000000001,45.40906628601543,19.990224828934508
45.43131463396158,67,108,1,0.009000000000000001,45.41820612956275,13.10850439882698
45.43905651084437,41,82,2,0.009000000000000001,45.421881535282296,17.174975562072337
45.441314633961575,45,69,1,0.02649191861366096,45.42210642281788,19.208211143695017
45.43855200858033,54,91,0,0.023796329832232094,45.42278465765169,15.76735092864125
45.449056510844365,45,112,2,0.015482545515273139,45.43657361739373,12.482893450635387
45.46625933919467,40,86,2,0.009000000000000001,45.44970997458079,16.549364613880744
45.46499237506059,42,109,0,0.03470871659261265,45.45204027339881,12.952101661779082
45.470750099087866,48,88,1,0.04138901857715779,45.45451353994808,16.236559139784944
45.47625933919467,59,55,2,0.020220155098998237,45.4548614897323,21.397849462365592
45.508726178193555,47,35,2,0.009000000000000001,45.48420027399023,24.52590420332356
45.503557615719046,69,82,0,0.018083008839680937,45.486382640156975,17.174975562072337
45.49872617819356,60,116,2,0.009000000000000001,45.48686889569111,11.857282502443795
45.51872617819355,57,105,2,0.011222146922927565,45.50514846558358,13.577712609970675
45.51673789750693,58,127,1,0.023058400714001018,45.50660104511201,10.136852394916911
45.52364984776314,51,107,0,0.009000000000000001,45.51038494062726,13.264907135874878
45.53119523033014,60,100,2,0.009000000000000001,45.51683550403493,14.359726295210166
45.53364984776314,68,85,0,0.010038843224381023,45.51694408041221,16.705767350928642
45.542358342744706,60,86,1,0.009000000000000001,45.525808978130826,16.549364613880744
45.54119523033014,56,99,2,0.04450618323079334,45.52667910129788,14.516129032258064
45.54480411801245,47,83,0,0.009000000000000001,45.52778554518743,17.01857282502444
45.552358342744704,46,68,1,0.009000000000000001,45.532993728863964,19.364613880742915
45.5623583427447,60,61,1,0.009000000000000001,45.54189890970462,20.459433040078203
45.55480411801245,62,127,0,0.009000000000000001,45.544667265617534,10.136852394916911
45.56480411801245,68,109,0,0.009000000000000001,45.551852016350665,12.952101661779082
45.574804118012445,47,82,0,0.016691301942159797,45.557629142450374,17.174975562072337
45.5723583427447,56,109,1,0.01557068267973462,45.55940624108292,12.952101661779082
45.593350009059286,59,37,0,0.009000000000000001,45.56913691033006,24.21309872922776
45.58965910127774,50,111,1,0.009000000000000001,45.57701980509005,12.639296187683286
45.59064654503102,63,107,2,0.009000000000000001,45.577381637895144,13.264907135874878
45.60064654503102,53,69,2,0.009000000000000001,45.58143833388733,19.208211143695017
45.603350009059284,58,75,0,0.0698652547653154,45.58508021433788,18.269794721407624
45.59965910127774,75,114,1,0.009000000000000001,45.587489013301195,12.170087976539591
45.609659101277735,56,98,1,0.02281246919330261,45.59498656950843,14.672531769305962
45.61064654503102,61,111,2,0.009304273391247493,45.59800724884333,12.639296187683286
45.62098462657685,47,79,2,0.012202231138752214,45.603340442803635,17.64418377321603
45.635006289270294,54,71,1,0.046075629459271426,45.6161108836007,18.89540566959922
45.634542661175466,63,82,2,0.009808715645441378,45.617367685613395,17.174975562072337
45.64544123411485,60,68,2,0.009000000000000001,45.62607662023411,19.364613880742915
45.655441234114846,58,103,2,0.009000000000000001,45.64155071603078,13.890518084066471
45.665441234114844,45,72,2,0.027546030242320624,45.646702231182296,18.73900293255132
45.68620143311393,42,40,1,0.009000000000000001,45.662457542595845,23.743890518084065
45.69105185123004,64,43,0,0.01568036599994183,45.6677771689231,23.27468230694037
45.680978069909635,48,123,0,0.009066403188366145,45.67021560656653,10.762463343108504
45.69620143311393,60,100,1,0.029291472736684112,45.681841706818716,14.359726295210166
45.70604793438409,53,50,2,0.009000000000000001,45.68386807123648,22.179863147605083
45.69604793438409,50,126,2,0.009000000000000001,45.68575467925213,10.29325513196481
45.708474480118866,53,127,0,0.03579709184150099,45.69833762772395,10.136852394916911
45.716047934384086,54,97,2,0.01992119911146642,45.70121899987773,14.82893450635386
45.72874751393247,61,100,1,0.015205991401971817,45.71438778763726,14.359726295210166
45.738182600063496,51,58,2,0.0154769926254212,45.71725395881227,20.928641251221897
45.74564305993466,53,83,1,0.03822901145690354,45.728624487109634,17.01857282502444
45.74824902660942,56,94,0,0.020187723320769686,45.732950883891924,15.298142717497555
45.75537925853619,48,56,2,0.012909069751339831,45.73413781181087,21.241446725317694
45.770679830299166,65,74,0,0.04962144817571926,45.75225363284071,18.426197458455523
45.769722669371006,54,101,2,0.009000000000000001,45.75551934581284,14.203323558162268
45.779722669371004,67,102,2,0.02454960630836956,45.76567574854989,14.04692082111437
45.788119739331215,51,85,1,0.009000000000000001,45.77141397198029,16.705767350928642
45.79811973933121,69,62,1,0.009000000000000001,45.77781670902818,20.303030303030305
45.80700000971364,56,79,2,0.017678864797800353,45.789355825940426,17.64418377321603
45.80811973933121,67,76,1,0.022447502567598174,45.79000634734685,18.113391984359726
45.82664319282231,47,87,2,0.009000000000000001,45.81025023094548,16.392961876832846
45.82581477271663,42,97,0,0.02799497253256809,45.81098583821028,14.82893450635386
45.83306140885077,49,55,1,0.009000000000000001,45.8116635593884,21.397849462365592
45.83664319282231,39,127,2,0.009000000000000001,45.82650634042739,10.136852394916911
45.843061408850765,61,95,1,0.02285794080088549,45.827919668870315,15.141739980449657
45.846643192822306,47,123,2,0.015648602264996612,45.8358807294792,10.762463343108504
45.85692029775282,54,85,0,0.01524146424865891,45.840214530401894,16.705767350928642
45.8640305286723,52,55,2,0.019534903424512057,45.842632679209935,21.397849462365592
45.868459120851746,52,127,1,0.02331455218245437,45.85832226845683,10.136852394916911
45.87385525802911,44,113,0,0.04366580276953709,45.86152876731552,12.32649071358749
45.88573597692176,53,75,2,0.010046167771312862,45.86746618220035,18.269794721407624
45.89436417883225,52,99,1,0.009000000000000001,45.87984804979999,14.516129032258064
45.89689838555655,67,94,2,0.012714561988583395,45.88160024283905,15.298142717497555
45.904364178832246,54,102,1,0.009000000000000001,45.89031725801113,14.04692082111437
45.91102567665497,50,75,2,0.009000000000000001,45.89275588193357,18.269794721407624
45.914364178832244,63,62,1,0.009000000000000001,45.89406114852921,20.303030303030305
45.92237281666193,53,41,0,0.03598030787992793,45.89878532888089,23.587487781036167
45.92102567665497,54,66,2,0.009000000000000001,45.90134825730013,19.67741935483871
45.92436417883224,70,46,1,0.009000000000000001,45.901558704736445,22.805474095796676
45.93102567665497,61,127,2,0.02154127218034381,45.920888824260054,10.136852394916911
45.93436417883224,52,110,1,0.009000000000000001,45.921568479907506,12.795698924731184
45.94436417883224,63,112,1,0.009000000000000001,45.9318812853816,12.482893450635387
45.954364178832236,60,87,1,0.021340774624140378,45.937971216955404,16.392961876832846
45.95496042352202,46,116,2,0.023292767832348914,45.94310314101957,11.857282502443795
45.962350936528516,40,127,0,0.009000000000000001,45.9522140841336,10.136852394916911
45.972350936528514,51,102,0,0.02538083437011051,45.9583040157074,14.04692082111437
45.980841276669075,54,80,2,0.009000000000000001,45.96335349563291,17.487781036168133
45.97807615063684,53,101,1,0.009000000000000001,45.963872827078674,14.203323558162268
45.99084127666907,48,79,2,0.012099827088105551,45.97319709289586,17.64418377321603
45.988076150636836,47,118,1,0.013264986681847496,45.97653167360849,11.544477028347998
46.00428552898919,65,63,2,0.021788231318425014,45.98413890142321,20.146627565982406
46.00281502472778,63,98,1,0.009000000000000001,45.988142492958474,14.672531769305962
46.00055186360641,56,114,0,0.009000000000000001,45.98838177562987,12.170087976539591
46.01055186360641,58,90,0,0.009000000000000001,45.99462810994072,15.923753665689148
46.01281502472778,47,127,1,0.01825668551300159,46.002678172332864,10.136852394916911
46.02055186360641,62,82,0,0.04360893032954658,46.003376888044336,17.174975562072337
46.02849467489855,46,67,2,0.009000000000000001,46.008973658280766,19.521016617790814
46.033100230853336,45,85,1,0.010341252904781384,46.01639446350241,16.705767350928642
46.03849467489855,49,98,2,0.00928679311878412,46.023822143129244,14.672531769305962
46.04881333391942,61,77,2,0.018938132141791315,46.03085634467211,17.956989247311828
46.05459051185865,55,41,1,0.022992654268389832,46.03100302407761,23.587487781036167
46.04459051185865,62,127,1,0.009000000000000001,46.034453659463736,10.136852394916911
46.06900623063924,67,71,0,0.009000000000000001,46.05011082496964,18.89540566959922
46.06985570296585,49,81,2,0.0550759712124271,46.052524324666734,17.331378299120235
46.07900623063924,44,82,0,0.018112711881898384,46.061831255077166,17.174975562072337
46.08013790549019,52,96,1,0.009000000000000001,46.06515256824679,14.985337243401759
46.09013790549019,59,78,1,0.014004128182528571,46.072337318979926,17.80058651026393
46.09913146606357,48,67,0,0.009000000000000001,46.07961044944578,19.521016617790814
46.10569804791522,53,85,1,0.009000000000000001,46.08899228056429,16.705767350928642
46.109131466063566,56,80,0,0.009000000000000001,46.0916436850274,17.487781036168133
46.11569804791522,54,73,1,0.013994414905949468,46.097115447719716,18.58260019550342
46.119131466063564,59,81,0,0.010820024516067664,46.101800087764445,17.331378299120235
46.13124739781072,50,48,1,0.012266796038369252,46.108754729189016,22.49266862170088
46.13105122653521,44,100,2,0.03669955632969773,46.11669150024,14.359726295210166
46.13115371552586,42,127,0,0.009000000000000001,46.12101686313095,10.136852394916911
46.14115371552586,67,96,0,0.009000000000000001,46.12616837828246,14.985337243401759
46.144877171186685,50,92,1,0.009000000000000001,46.12926622299509,15.610948191593351
46.161153715525856,58,52,0,0.04407023797998267,46.139286657852345,21.867057673509287
46.15487717118668,59,94,1,0.009000000000000001,46.139579028469186,15.298142717497555
46.15115371552586,66,120,0,0.009000000000000001,46.13992204397161,11.231671554252198
46.16487717118668,61,47,1,0.009000000000000001,46.14222809982793,22.649071358748778
46.17487717118668,53,87,1,0.009000000000000001,46.15848420930985,16.392961876832846
46.171828511345986,55,127,2,0.013611180637177547,46.16169165895107,10.136852394916911
46.186952045387294,68,72,2,0.01849574245415264,46.168213042454745,18.73900293255132
46.18487717118668,55,123,1,0.020914045584377403,46.17411470784357,10.762463343108504
46.20811499961376,39,53,1,0.029524588095391213,46.1864043446773,21.71065493646139
46.207502870336356,56,79,2,0.009000000000000001,46.18985868656314,17.64418377321603
46.210120646614726,42,74,0,0.06832679525534285,46.19169444915627,18.426197458455523
46.217502870336354,48,99,2,0.009000000000000001,46.202986741304095,14.516129032258064
46.22750287033635,60,95,2,0.032298963217133755,46.2123611303559,15.141739980449657
46.24092009749753,64,85,1,0.009000000000000001,46.2242143301466,16.705767350928642
46.25092009749753,56,106,1,0.014922255129247674,46.2374987876246,13.421309872922777
46.263390607244276,56,105,2,0.009000000000000001,46.2498128946343,13.577712609970675
46.277500380974466,45,44,1,0.009000000000000001,46.25438210140457,23.118279569892472
46.26750038097447,56,113,1,0.009000000000000001,46.25517389026088,12.32649071358749
46.273390607244274,48,93,2,0.04494196655455545,46.25793606178973,15.454545454545453
46.28603930800955,50,80,0,0.009435770495085613,46.26855152697338,17.487781036168133
46.287500380974464,71,107,1,0.009000000000000001,46.27423547383859,13.264907135874878
46.29750038097446,65,88,1,0.009000000000000001,46.28126382183468,16.236559139784944
46.30652349744853,50,61,0,0.009000000000000001,46.28606406440845,20.459433040078203
46.29652349744853,53,126,0,0.009000000000000001,46.28623024231657,10.29325513196481
46.30750038097446,56,72,1,0.009000000000000001,46.28876137804191,18.73900293255132
46.31652349744853,53,67,0,0.009000000000000001,46.29700248083074,19.521016617790814
46.31750038097446,65,77,1,0.009000000000000001,46.29954339172715,17.956989247311828
46.323326125638225,60,87,2,0.009000000000000001,46.30693316376139,16.392961876832846
46.327500380974456,32,73,1,0.04408368633609482,46.308917780778955,18.58260019550342
46.32652349744853,46,127,0,0.009000000000000001,46.31638664505361,10.136852394916911
46.336523497448525,36,84,0,0.020395827887694264,46.31966132736055,16.86217008797654
46.33332612563822,65,127,2,0.09324491921979688,46.32318927324331,10.136852394916911
46.35918552843485,33,79,0,0.009000000000000001,46.341541344661636,17.64418377321603
46.36918552843485,57,54,0,0.034672343045653864,46.34763127623543,21.55425219941349
46.37648225468123,55,74,1,0.009000000000000001,46.358056057222775,18.426197458455523
46.386482254681226,61,80,1,0.009000000000000001,46.36899447364506,17.487781036168133
46.396482254681224,54,56,1,0.009000000000000001,46.375240807955905,21.241446725317694
46.40771035404113,44,84,0,0.012185487028931853,46.39084818395315,16.86217008797654
46.40648225468122,42,113,1,0.009000000000000001,46.39415576396763,12.32649071358749
46.41648225468122,55,104,1,0.009000000000000001,46.4027481393342,13.734115347018573
46.42648225468122,54,41,1,0.009114675900722792,46.40289476690018,23.587487781036167
46.421249784073275,41,94,0,0.009000000000000001,46.40595164135578,15.298142717497555
46.43660967234869,60,80,1,0.009000000000000001,46.41912189131252,17.487781036168133
46.43124978407327,57,120,0,0.07390958994010104,46.420018112519024,11.231671554252198
46.436931591438,48,89,2,0.010975625412345983,46.42085143503526,16.080156402737046
46.446609672348686,57,56,1,0.01494568182927065,46.425368225623366,21.241446725317694
46.449126730785046,57,111,2,0.0486141467026585,46.43648743459736,12.639296187683286
46.46321598549232,63,118,1,0.06545837085878739,46.451671508463974,11.544477028347998
46.50314244934356,59,98,2,0.009000000000000001,46.48846991757425,14.672531769305962
46.513371550673384,51,65,0,0.030470240775292774,46.493537728581494,19.83382209188661
46.513142449343555,50,127,2,0.08576403847332396,46.50300559694864,10.136852394916911
46.53594750866875,59,97,1,0.011506951906853033,46.521118574162394,14.82893450635386
46.54873301078747,42,37,1,0.009000000000000001,46.524519912058246,24.21309872922776
46.54722737375704,62,77,0,0.01875497324941199,46.52927038450973,17.956989247311828
46.55873301078747,65,64,1,0.026188240447517403,46.53874278595853,19.990224828934508
46.56806623292305,53,120,0,0.01697423192690115,46.5568345613688,11.231671554252198
46.587831055729154,50,61,1,0.009000000000000001,46.56737162268907,20.459433040078203
46.58692649061961,44,67,0,0.05407612974177439,46.56740547400182,19.521016617790814
46.59783105572915,55,75,1,0.009000000000000001,46.57956126100775,18.269794721407624
46.60783105572915,59,59,1,0.009000000000000001,46.587058817214974,20.772238514174
46.61783105572915,48,38,1,0.010351273687496061,46.59377435973697,24.05669599217986
46.608435825425026,43,127,2,0.06420505082311286,46.59829897303011,10.136852394916911
46.62933247093748,39,82,1,0.02313131461460697,46.612157495375406,17.174975562072337
46.647011079221585,53,39,0,0.009000000000000001,46.62311078596645,23.900293255131963
46.65503393162037,58,81,1,0.009000000000000001,46.637702553321255,17.331378299120235
46.65701107922158,58,103,0,0.01164903293484976,46.643120561137515,13.890518084066471
46.669954449149195,63,76,0,0.06189710743614503,46.65184105716484,18.113391984359726
46.66503393162037,49,127,1,0.017786497211147095,46.65489707922546,10.136852394916911
46.67977477078404,56,71,2,0.02510076116759413,46.66087936511445,18.89540566959922
46.68479670629942,61,85,1,0.009000000000000001,46.668090938948495,16.705767350928642
46.69479670629942,48,66,1,0.009000000000000001,46.67511928694458,19.67741935483871
46.70479670629942,55,61,1,0.019706351818746814,46.68433727325934,20.459433040078203
46.707664505414705,68,88,2,0.010221904936733429,46.69142794627492,16.236559139784944
46.71902217756663,41,113,2,0.021399213977144924,46.70669568685304,12.32649071358749
46.72669265276469,55,78,1,0.009000000000000001,46.70889206625443,17.80058651026393
46.738729012967134,53,68,0,0.019943782756324503,46.719364399086395,19.364613880742915
46.73669265276469,61,116,1,0.021342513354520944,46.72483537026224,11.857282502443795
46.75279908198568,55,18,2,0.009000000000000001,46.725614331252544,27.18475073313783
46.74279908198568,58,119,2,0.009000000000000001,46.73141100769438,11.3880742913001
46.76088877158527,46,63,0,0.02541292797808592,46.740742144019286,20.146627565982406
46.762799081985676,45,95,2,0.013774198580518426,46.747657342005226,15.141739980449657
46.76040655649194,39,126,1,0.024412979338192888,46.750113301359974,10.29325513196481
46.77810374707514,44,115,2,0.009000000000000001,46.76609006183565,12.013685239491693
46.78810374707514,69,75,2,0.009215310481860322,46.769833952353736,18.269794721407624
46.78912535822759,59,82,0,0.009000000000000001,46.771950382665516,17.174975562072337
46.78753208908993,57,96,1,0.015426265580544366,46.77254675184653,14.985337243401759
46.79834298094387,58,96,2,0.03300904945663422,46.78335764370047,14.985337243401759
46.799125358227585,56,127,0,0.037062869824969744,46.78898850583267,10.136852394916911
46.804672384179426,58,95,1,0.05577816385496325,46.789530644198976,15.141739980449657
46.835019702562356,47,62,2,0.009000000000000001,46.81471667225932,20.303030303030305
46.845019702562354,47,67,2,0.022977629789161586,46.82549868594457,19.521016617790814
46.840306324699775,41,109,0,0.009000000000000001,46.82735422303799,12.952101661779082
46.85030632469977,53,55,0,0.013675816059725777,46.828908475237405,21.397849462365592
46.866648121796054,49,51,1,0.011416244366042497,46.844624661385495,22.023460410557185
46.87055040232809,49,67,2,0.009000000000000001,46.851029385710305,19.521016617790814
46.86550167587725,58,111,0,0.015732233317112328,46.85286237968956,12.639296187683286
46.88055040232809,51,81,2,0.009000000000000001,46.86321902402897,17.331378299120235
46.87933283775833,64,90,1,0.009000000000000001,46.86340908409264,15.923753665689148
46.88298193511849,52,89,0,0.012937128838008849,46.86690177871575,16.080156402737046
46.89055040232809,53,75,2,0.022279610014537495,46.87228060760668,18.269794721407624
46.889332837758325,57,127,1,0.029414342238839975,46.87919598536341,10.136852394916911
46.89735652271627,54,82,0,0.009000000000000001,46.8801815471542,17.174975562072337
46.91735652271627,61,56,0,0.013710982510645847,46.89611507599095,21.241446725317694
46.90735652271627,39,127,0,0.009000000000000001,46.897219670321356,10.136852394916911
46.91530552456646,51,113,2,0.020576951924401093,46.90297903385287,12.32649071358749
46.92201544024592,52,96,1,0.012959163479724355,46.90703010300252,14.985337243401759
46.932590947728094,70,96,0,0.009000000000000001,46.91760561048469,14.985337243401759
46.938168804482466,43,64,2,0.009000000000000001,46.91817857965353,19.990224828934508
46.936414510778945,56,106,1,0.01963205552696828,46.92299320090602,13.421309872922777
46.94259094772809,47,96,0,0.02031256205011325,46.92760561048469,14.985337243401759
46.948168804482464,51,75,2,0.02381059946085912,46.92989900976106,18.269794721407624
46.95822790580891,65,90,1,0.009000000000000001,46.94230415214322,15.923753665689148
46.96516046111711,60,68,0,0.009000000000000001,46.94579584723637,19.364613880742915
46.96822790580891,60,94,1,0.04271634345459548,46.95292976309141,15.298142717497555
46.97462502610564,64,87,2,0.01610873665934748,46.95823206422881,16.392961876832846
46.975160461117106,38,92,0,0.03499405773948397,46.95954951292551,15.610948191593351
46.992523622393804,44,85,2,0.009000000000000001,46.97581785504288,16.705767350928642
47.0025236223938,44,61,2,0.013156624153049874,46.98206418935372,20.459433040078203
47.01404274749431,43,75,0,0.0550442111859175,46.9957729527729,18.269794721407624
47.01569050964735,63,103,1,0.009000000000000001,47.00179999156328,13.890518084066471
47.01714209367497,50,115,2,0.009000000000000001,47.005128408435475,12.013685239491693
47.02569050964735,38,68,1,0.009000000000000001,47.00632589576661,19.364613880742915
47.035690509647345,46,71,1,0.012529441905098682,47.01679510397775,18.89540566959922
47.02714209367497,58,127,2,0.022137537409687116,47.01700524128005,10.136852394916911
47.04961211176412,43,107,1,0.025262938698677014,47.03634720462824,13.264907135874878
47.05173935746351,57,105,2,0.009000000000000001,47.03816164485354,13.577712609970675
47.06173935746351,53,59,2,0.029480478085597294,47.04096711894933,20.772238514174
47.077682043651535,57,85,1,0.009000000000000001,47.06097627630061,16.705767350928642
47.07520298214533,55,112,0,0.009000000000000001,47.06272008869469,12.482893450635387
47.085202982145326,56,63,0,0.009356915380281381,47.06505635457934,20.146627565982406
47.08768204365153,50,81,1,0.009000000000000001,47.070350665352414,17.331378299120235
47.09449544422528,59,91,2,0.009000000000000001,47.07872809329664,15.76735092864125
47.095599554790084,58,103,0,0.009000000000000001,47.081709036706016,13.890518084066471
47.09768204365153,36,127,1,0.015509628302560613,47.087545191256616,10.136852394916911
47.10449544422528,58,103,2,0.025560485829318545,47.09060492614121,13.890518084066471
47.10559955479008,60,106,0,0.009000000000000001,47.09217824491716,13.421309872922777
47.11491496398771,58,51,1,0.020906930231928134,47.09289150357715,22.023460410557185
47.11559955479008,54,68,0,0.024020214967760075,47.09623494090934,19.364613880742915
47.132895984035635,49,108,2,0.045421506763162686,47.119787479636805,13.10850439882698
47.13814488646763,51,79,1,0.009000000000000001,47.120500702694414,17.64418377321603
47.14228868253203,49,60,0,0.05572815573525132,47.121672846754905,20.6158357771261
47.14814488646763,51,127,1,0.009000000000000001,47.13800803407271,10.136852394916911
47.158144886467625,58,73,1,0.009000000000000001,47.139562286272124,18.58260019550342
47.16814488646762,62,89,1,0.011239808859188339,47.152064730064886,16.080156402737046
47.18336432488359,49,54,2,0.009000000000000001,47.161810072684176,21.55425219941349
47.18063356297783,68,106,1,0.012794069002802434,47.16721225310491,13.421309872922777
47.19336432488359,52,77,2,0.024680490453727215,47.17540733563628,17.956989247311828
47.2042088555712,58,64,0,0.009000000000000001,47.184218630742265,19.990224828934508
47.19484919520317,63,125,1,0.009000000000000001,47.18439953733416,10.449657869012707
47.20484919520317,50,98,1,0.05736809033244181,47.19017666343386,14.672531769305962
47.2142088555712,60,83,0,0.009000000000000001,47.19719028274618,17.01857282502444
47.2242088555712,63,68,0,0.026860784924075242,47.20484424169046,19.364613880742915
47.220787092054394,50,127,2,0.014999323544252723,47.21065023965948,10.136852394916911
47.23745300710356,46,70,2,0.009000000000000001,47.21840119869692,19.05180840664712
47.25745300710356,66,54,2,0.013984621397070691,47.23589875490414,21.55425219941349
47.24745300710356,45,125,2,0.009000000000000001,47.23700334923455,10.449657869012707
47.2540541721535,49,98,0,0.01081632810028941,47.239381640384195,14.672531769305962
47.26859151779477,55,67,1,0.009000000000000001,47.24907050117698,19.521016617790814
47.266072314487154,54,127,0,0.060695843830623486,47.25593546209224,10.136852394916911
47.278591517794766,44,48,1,0.028998919822812816,47.256098849173064,22.49266862170088
47.27299147532253,54,114,2,0.010997857605144799,47.260821387345985,12.170087976539591
47.28521131710602,48,65,2,0.02325776116079442,47.26537749501413,19.83382209188661
47.31081253982011,61,53,1,0.009000000000000001,47.28910188488365,21.71065493646139
47.311053273951345,55,60,2,0.009000000000000001,47.290437438174216,20.6158357771261
47.32105327395134,60,62,2,0.009000000000000001,47.30075024364831,20.303030303030305
47.32081253982011,55,78,1,0.009000000000000001,47.30301195330985,17.80058651026393
47.33105327395134,44,89,2,0.027247747994492054,47.314973117548604,16.080156402737046
47.33081253982011,43,94,1,0.009557560077383585,47.31551439710261,15.298142717497555
47.333512140965624,65,83,0,0.03392347647515773,47.3164935681406,17.01857282502444
47.3414320510172,57,120,1,0.0427324261166444,47.33020037946295,11.231671554252198
47.361328549500776,48,51,2,0.01530341134733924,47.33930508909022,22.023460410557185
47.37120489260469,38,15,0,0.018178978269209292,47.3435509336604,27.653958944281523
47.37833233988671,59,83,2,0.013514627756668519,47.36131376706169,17.01857282502444
47.39140375734825,54,59,0,0.009000000000000001,47.370631518834074,20.772238514174
47.38891252448014,47,82,1,0.009000000000000001,47.37173754891807,17.174975562072337
47.39891252448014,46,60,1,0.019736075330988576,47.37829668870301,20.6158357771261
47.39334859294968,51,101,2,0.02520454082795956,47.379145269391515,14.203323558162268
47.40140375734825,60,94,0,0.009000000000000001,47.38610561463075,15.298142717497555
47.411403757348246,44,95,0,0.01824246007327973,47.396262017367796,15.141739980449657
47.42135363831408,53,105,2,0.009535441874218661,47.40777592570411,13.577712609970675
47.42084149707013,66,114,1,0.009000000000000001,47.408671409093586,12.170087976539591
47.430841497070126,55,80,1,0.0378048286899176,47.41335371603396,17.487781036168133
47.43167315742967,55,97,0,0.02000103968806711,47.41684422292332,14.82893450635386
47.431948573729876,56,102,2,0.026299237421177464,47.41790165290876,14.04692082111437
47.45389653486086,37,67,0,0.05840975638431399,47.43437551824307,19.521016617790814
47.46116994864229,65,50,2,0.016415253057455104,47.43899008549469,22.179863147605083
47.472846862281145,66,74,1,0.010155694824340816,47.45442066482269,18.426197458455523
47.47940911870613,50,101,2,0.009000000000000001,47.465205795147966,14.203323558162268
47.484130967641526,37,107,1,0.010139565332074775,47.47086606050565,13.264907135874878
47.48940911870613,43,97,2,0.009000000000000001,47.47458018419977,14.82893450635386
47.49539715134383,50,88,1,0.016092154747182195,47.479160592204046,16.236559139784944
47.499409118706126,52,98,2,0.009000000000000001,47.48473658693682,14.672531769305962
47.509409118706124,52,93,2,0.023477817905100083,47.49395457325158,15.454545454545453
47.513277323285145,50,92,1,0.009000000000000001,47.49766637509355,15.610948191593351
47.518796264176764,55,63,0,0.009000000000000001,47.49864963661078,20.146627565982406
47.52327732328514,54,73,1,0.021446523264878233,47.50469472308964,18.58260019550342
47.52879626417676,61,102,0,0.009000000000000001,47.514749343355646,14.04692082111437
47.535495583045126,60,82,2,0.034079659986866837,47.518320607483055,17.174975562072337
47.53879626417676,67,94,0,0.009000000000000001,47.52349812145926,15.298142717497555
47.54710679357945,40,58,1,0.08196356607630605,47.52617815232823,20.928641251221897
47.54879626417676,51,105,0,0.037725606993326055,47.535218551566786,13.577712609970675
47.573361871919424,54,61,2,0.009000000000000001,47.55290243887934,20.459433040078203
47.58336187191942,50,127,2,0.022046360499825123,47.57322501952451,10.136852394916911
47.590713605280456,41,90,0,0.009000000000000001,47.57478985161477,15.923753665689148
47.600713605280454,52,54,0,0.009000000000000001,47.57915935308104,21.55425219941349
47.60785782803034,69,89,2,0.009000000000000001,47.591777671627604,16.080156402737046
47.61071360528045,61,99,0,0.009000000000000001,47.59619747624819,14.516129032258064
47.62071360528045,52,90,0,0.009000000000000001,47.60478985161476,15.923753665689148
47.61785782803034,45,111,2,0.018366575218309745,47.60521853184265,12.639296187683286
47.63817742255313,57,42,1,0.009000000000000001,47.61474633750914,23.43108504398827
47.63071360528045,62,104,0,0.0155077501905634,47.61697948993343,13.734115347018573
47.63826513382846,51,74,2,0.06762570473072192,47.61983893637001,18.426197458455523
47.64794443882552,47,73,0,0.009000000000000001,47.62936183863002,18.58260019550342
47.648177422553125,66,111,1,0.018514620469545613,47.63553812636544,12.639296187683286
47.65794443882552,58,85,0,0.011898162937199794,47.64123867147459,16.705767350928642
47.66874922307484,65,69,1,0.009000000000000001,47.64954101193115,19.208211143695017
47.67116461986685,48,80,0,0.009000000000000001,47.653676838830684,17.487781036168133
47.67874922307484,71,88,1,0.016410620321144462,47.662512663935054,16.236559139784944
47.68116461986685,58,83,0,0.009000000000000001,47.664146047041825,17.01857282502444
47.691164619866846,36,74,0,0.009000000000000001,47.67273842240839,18.426197458455523
47.69698324565389,59,63,1,0.009000000000000001,47.676836618087904,20.146627565982406
47.701164619866844,52,106,0,0.015413669375932275,47.68774330999392,13.421309872922777
47.70698324565389,60,114,1,0.024047079012119953,47.694813157677345,12.170087976539591
47.718290919173434,52,75,0,0.009000000000000001,47.70002112445203,18.269794721407624
47.71340480575149,46,127,2,0.011615293864418005,47.70326795335657,10.136852394916911
47.726310687823066,50,111,2,0.009000000000000001,47.71367139163538,12.639296187683286
47.733702222334024,51,66,1,0.009000000000000001,47.71402480297918,19.67741935483871
47.72829091917343,41,127,0,0.009000000000000001,47.71815406677852,10.136852394916911
47.73829091917343,45,100,0,0.03484722527234143,47.72393119287822,14.359726295210166
47.736310687823064,70,127,2,0.045970507274191406,47.72617383542815,10.136852394916911
47.74370222233402,60,90,1,0.02058965310765725,47.72777846866833,15.923753665689148
47.76657961467586,62,80,1,0.009000000000000001,47.749091833639696,17.487781036168133
47.77701005836492,54,76,0,0.021904311555422804,47.758896666380565,18.113391984359726
47.77657961467586,58,108,1,0.009000000000000001,47.76347111027703,13.10850439882698
47.78738902923883,50,82,2,0.009000000000000001,47.77021405367676,17.174975562072337
47.78657961467586,65,97,1,0.009000000000000001,47.771750680169504,14.82893450635386
47.801348182315394,56,33,0,0.02365776136191313,47.776509472637976,24.838709677419356
47.79738902923883,49,92,2,0.009000000000000001,47.781778081047236,15.610948191593351
47.796579614675856,57,124,1,0.009000000000000001,47.7859735540698,10.606060606060606
47.806579614675854,65,127,1,0.018611643684820506,47.79644276228094,10.136852394916911
47.80738902923883,52,127,2,0.03916603729296932,47.79725217684391,10.136852394916911
47.82763458382863,62,79,0,0.009000000000000001,47.80999040005542,17.64418377321603
47.8272592187701,51,106,1,0.02154162194283925,47.81383790889718,13.421309872922777
47.83763458382863,57,82,0,0.009892205236858373,47.82045960826656,17.174975562072337
47.85119435426215,60,88,1,0.009000000000000001,47.834957795122364,16.236559139784944
47.848625922980695,36,107,0,0.010000556073173272,47.83536101584482,13.264907135874878
47.850906848453235,60,97,2,0.011439874212231254,47.83607791394688,14.82893450635386
47.861194354262146,59,63,1,0.009000000000000001,47.84104772669616,20.146627565982406
47.85973765195089,53,88,0,0.021203975746305878,47.8435010928111,16.236559139784944
47.86361781980016,46,76,2,0.06011482171834587,47.845504427815804,18.113391984359726
47.871194354262144,64,99,1,0.024256805669901387,47.856678225229885,14.516129032258064
47.883297625002335,64,75,0,0.03132438499688249,47.86502783028093,18.269794721407624
47.89814636056204,55,69,1,0.015867845309070924,47.878938149418346,19.208211143695017
47.915777299794335,58,76,1,0.009000000000000001,47.89766390780998,18.113391984359726
47.91810249722109,61,109,0,0.009162504211990625,47.90515039555931,12.952101661779082
47.92828305745664,54,63,0,0.021727375161616463,47.908136429890654,20.146627565982406
47.92577729979433,58,104,1,0.009000000000000001,47.91204318444731,13.734115347018573
47.93577729979433,43,53,1,0.009000000000000001,47.91406664485787,21.71065493646139
47.93041206615388,61,91,2,0.022799742151397406,47.914644715225236,15.76735092864125
47.94577729979433,61,92,1,0.009000000000000001,47.930166351602736,15.610948191593351
47.95577729979433,56,57,1,0.024402609717414182,47.934692255806056,21.085043988269796
47.95242458541399,61,87,0,0.016567881146506088,47.93603162353716,16.392961876832846
47.955745112988765,49,98,2,0.016363059953261733,47.94107258121946,14.672531769305962
47.970833342243445,50,88,0,0.009000000000000001,47.95459678310366,16.236559139784944
47.97392629071461,58,106,2,0.015647928562730843,47.960504980841684,13.421309872922777
47.98083334224344,51,64,0,0.02907462243556079,47.960843117414505,19.990224828934508
47.982891310591455,66,57,1,0.009000000000000001,47.96180626660318,21.085043988269796
47.99131287800653,40,69,2,0.0252527667904137,47.97210466686284,19.208211143695017
47.99289131059145,65,100,1,0.02406016183122797,47.97853158429624,14.359726295210166
48.013138478282954,59,75,0,0.014258361790476248,47.99486868356155,18.269794721407624
48.019371507773656,52,92,2,0.009000000000000001,48.00376055958206,15.610948191593351
48.01962482373726,46,106,1,0.011804568101442762,48.006203513864335,13.421309872922777
48.029371507773654,50,93,2,0.009000000000000001,48.01391696231911,15.454545454545453
48.0289811024946,55,125,0,0.009000000000000001,48.01853144462559,10.449657869012707
48.03274101051664,57,102,1,0.011350376574984954,48.01869408969552,14.04692082111437
48.03937150777365,53,81,2,0.009000000000000001,48.02204012947453,17.331378299120235
48.0453525400444,53,80,1,0.04415115900904545,48.02786475900823,17.487781036168133
48.038981102494596,56,127,0,0.014348705041585617,48.02884425009968,10.136852394916911
48.04937150777365,48,107,2,0.009000000000000001,48.03610660063777,13.264907135874878
48.05492410809636,49,75,0,0.01512969891154304,48.03665431337495,18.269794721407624
48.05937150777365,64,74,2,0.019908546247044998,48.040945310315195,18.426197458455523
48.07173488466474,71,74,0,0.009000000000000001,48.05330868720629,18.426197458455523
48.081492114714806,44,55,2,0.009000000000000001,48.06009426525244,21.397849462365592
48.08173488466474,47,82,0,0.009000000000000001,48.06455990910267,17.174975562072337
48.09173488466474,50,81,0,0.009000000000000001,48.07440350636562,17.331378299120235
48.094409383387784,68,92,1,0.016403390122059155,48.07879843519619,15.610948191593351
48.091492114714804,56,127,2,0.009000000000000001,48.08135526231989,10.136852394916911
48.10173488466474,67,76,0,0.017534848399715183,48.08362149268038,18.113391984359726
48.1014921147148,67,84,2,0.0621353440164656,48.084629944626826,16.86217008797654
48.11263537241229,61,112,1,0.009000000000000001,48.100152478961654,12.482893450635387
48.12263537241229,70,67,1,0.011429823217758178,48.1031143557945,19.521016617790814
48.131218049553304,58,37,0,0.02146925270766729,48.10700495082408,24.21309872922776
48.121218049553306,45,127,0,0.009000000000000001,48.11108119715839,10.136852394916911
48.13533517598758,67,90,1,0.023684396491094613,48.11941142232189,15.923753665689148
48.155072774784045,65,96,0,0.009000000000000001,48.14008743754064,14.985337243401759
48.161651172088796,53,125,1,0.009000000000000001,48.151201514219785,10.449657869012707
48.17053138584421,58,76,2,0.009000000000000001,48.15241799385985,18.113391984359726
48.16507277478404,63,113,0,0.009000000000000001,48.15274628407045,12.32649071358749
48.171651172088794,50,74,1,0.033333389476919245,48.15322497463034,18.426197458455523
48.17507277478404,44,83,0,0.023810010650729668,48.15805420195902,17.01857282502444
48.180531385844205,59,79,2,0.03296371527742489,48.16288720207099,17.64418377321603
48.20152834217374,57,97,0,0.009582373272632937,48.18669940766738,14.82893450635386
48.21217542358777,60,49,0,0.009000000000000001,48.18983915770312,22.33626588465298
48.20868827150759,70,96,1,0.009000000000000001,48.19370293426419,14.985337243401759
48.21868827150759,48,78,1,0.009000000000000001,48.200887684997326,17.80058651026393
48.22217542358777,65,67,0,0.08689463166412527,48.202654406969984,19.521016617790814
48.21715773615245,59,127,2,0.03392078340793424,48.20702088375754,10.136852394916911
48.228688271507586,40,84,1,0.009000000000000001,48.21182610141961,16.86217008797654
48.238688271507584,48,62,1,0.009000000000000001,48.21838524120455,20.303030303030305
48.24868827150758,54,97,1,0.009000000000000001,48.23385933700123,14.82893450635386
48.2548474954946,57,85,2,0.009051911593397369,48.238141728143674,16.705767350928642
48.25868827150758,56,96,1,0.016747721765858044,48.24370293426418,14.985337243401759
48.26490517504282,48,90,2,0.009000000000000001,48.24898142137713,15.923753665689148
48.27729685124742,50,24,1,0.009000000000000001,48.25105051693657,26.24633431085044
48.27490517504282,53,118,2,0.014464256247700476,48.26336069801447,11.544477028347998
48.28729685124742,63,104,1,0.009000000000000001,48.2735627359004,13.734115347018573
48.290976570873596,57,109,2,0.009000000000000001,48.278024469211815,12.952101661779082
48.29729685124742,49,90,1,0.019578176872989066,48.28137309758173,15.923753665689148
48.300976570873594,51,113,2,0.03320581556747299,48.288650080160004,12.32649071358749
48.318725014325686,67,102,0,0.009556091145106596,48.30467809350457,14.04692082111437
48.319050381106294,41,107,1,0.028529961712764756,48.30578547397042,13.264907135874878
48.3293428933758,59,94,0,0.009000000000000001,48.314044750658304,15.298142717497555
48.3393428933758,50,87,0,0.021671492954742962,48.32294993149897,16.392961876832846
48.33787192150412,54,116,2,0.009000000000000001,48.32601463900167,11.857282502443795
48.35075033856492,60,36,1,0.0161322014817895,48.32638083709865,24.369501466275658
48.347871921504115,49,69,2,0.04281244804142336,48.32866371036042,19.208211143695017
48.36342232999218,52,83,0,0.01235890431577651,48.34640375716716,17.01857282502444
48.36867500687802,56,65,1,0.01191427696466882,48.34884118478613,19.83382209188661
48.377154445898604,70,83,0,0.009000000000000001,48.36013587307358,17.01857282502444
48.38191309239432,57,95,1,0.009000000000000001,48.36677135241387,15.141739980449657
48.3871544458986,55,106,0,0.027355644760076094,48.37373313602568,13.421309872922777
48.39191309239432,55,94,1,0.009029506750557064,48.37661494967682,15.298142717497555
48.39544130821681,36,77,2,0.009000000000000001,48.3774843189695,17.956989247311828
48.401945877672716,48,96,1,0.009429067344088306,48.386960540429314,14.985337243401759
48.40544130821681,50,90,2,0.012756111162085934,48.38951755455112,15.923753665689148
48.41242261916615,52,80,1,0.009000000000000001,48.394934838129984,17.487781036168133
48.42242261916615,51,34,1,0.009000000000000001,48.39774031222578,24.682306940371458
48.41961476506357,34,72,2,0.02983054656091317,48.40087576213102,18.73900293255132
48.41754960674313,45,100,0,0.049670486804991566,48.40318988044792,14.359726295210166
48.43242261916615,68,100,1,0.019521761336932033,48.418062892870935,14.359726295210166
48.45275981679792,51,72,2,0.020690734678480836,48.434020813865374,18.73900293255132
48.45411346509607,42,76,1,0.009000000000000001,48.436000073111714,18.113391984359726
48.46411346509607,49,108,1,0.022288472249096254,48.45100496069724,13.10850439882698
48.472739036526455,46,72,0,0.037846071553705285,48.45400003359391,18.73900293255132
48.475749521996235,55,125,2,0.009000000000000001,48.465299864127225,10.449657869012707
48.48574952199623,54,73,2,0.014206138610797128,48.46716692180073,18.58260019550342
48.48887843426173,46,89,1,0.03754746094116818,48.47279827785899,16.080156402737046
48.501534120452675,39,127,2,0.050179243411942465,48.49139726805776,10.136852394916911
48.51479022714168,52,79,0,0.10535635250716016,48.49714604336847,17.64418377321603
48.53059783530747,55,85,1,0.009000000000000001,48.51389206795654,16.705767350928642
48.540597835307466,46,91,1,0.009000000000000001,48.524830484378825,15.76735092864125
48.550597835307464,71,89,1,0.009000000000000001,48.53451767890473,16.080156402737046
48.55728883535483,49,123,2,0.009000000000000001,48.546526372011726,10.762463343108504
48.56059783530746,55,105,1,0.009000000000000001,48.54702012269749,13.577712609970675
48.57059783530746,52,80,1,0.009000000000000001,48.55311005427129,17.487781036168133
48.56728883535483,74,124,2,0.018481805392420583,48.55668277474877,10.606060606060606
48.58059783530746,50,79,1,0.014347559536544695,48.562953651534244,17.64418377321603
48.58782417467974,57,54,2,0.009000000000000001,48.56626992248032,21.55425219941349
48.59782417467974,44,63,2,0.02378669669087381,48.57767754711375,20.146627565982406
48.59653956812584,49,83,1,0.009000000000000001,48.57952099530082,17.01857282502444
48.60653956812584,52,86,1,0.009000000000000001,48.58999020351196,16.549364613880744
48.6242538376696,63,42,2,0.01731243608492456,48.60082275262561,23.43108504398827
48.61653956812584,71,127,1,0.009000000000000001,48.60640271573092,10.136852394916911
48.63185284103852,53,44,0,0.01853343454385602,48.60873456146863,23.118279569892472
48.626539568125835,57,89,1,0.009000000000000001,48.6104594117231,16.080156402737046
48.63653956812583,52,73,1,0.009000000000000001,48.61795696793033,18.58260019550342
48.64348987776396,50,116,2,0.034223428813133824,48.631632595261514,11.857282502443795
48.65244554608725,41,64,0,0.02170016875081462,48.63245532125831,19.990224828934508
48.64653956812583,57,105,1,0.009000000000000001,48.63296185551586,13.577712609970675
48.65653956812583,65,96,1,0.009000000000000001,48.64155423088243,14.985337243401759
48.66653956812583,43,84,1,0.009000000000000001,48.64967739803785,16.86217008797654
48.676539568125825,51,89,1,0.015043991065665875,48.66045941172309,16.080156402737046
48.67655684469926,54,94,0,0.019670519538981503,48.661258701981765,15.298142717497555
48.681515909778554,54,103,2,0.009000000000000001,48.667625391694486,13.890518084066471
48.69151590977855,59,85,2,0.009000000000000001,48.674810142427624,16.705767350928642
48.69325511375434,53,88,1,0.009000000000000001,48.677018554614556,16.236559139784944
48.70325511375434,56,83,1,0.009000000000000001,48.686236540929315,17.01857282502444
48.698412977520356,58,115,0,0.009000000000000001,48.68639929228086,12.013685239491693
48.70151590977855,56,114,2,0.009000000000000001,48.68934582180201,12.170087976539591
48.708412977520354,42,97,0,0.009000000000000001,48.693584043014,14.82893450635386
48.713255113754336,47,81,1,0.009000000000000001,48.69592373545522,17.331378299120235
48.71841297752035,62,54,0,0.011448603096093421,48.696858725320936,21.55425219941349
48.71151590977855,53,103,2,0.009000000000000001,48.69762539169448,13.890518084066471
48.721515909778546,55,73,2,0.009000000000000001,48.702933309583045,18.58260019550342
48.723255113754334,56,89,1,0.009000000000000001,48.7071749573516,16.080156402737046
48.731133647627125,66,77,0,0.009000000000000001,48.713176658379815,17.956989247311828
48.731515909778544,43,98,2,0.009000000000000001,48.71684337800924,14.672531769305962
48.73325511375433,54,104,1,0.01627293726614746,48.71952099840731,13.734115347018573
48.74151590977854,51,81,2,0.0109417684356615,48.72418453147942,17.331378299120235
48.74113364762712,57,99,0,0.036905284561568594,48.726617518594864,14.516129032258064
48.75367343026261,47,76,2,0.009000000000000001,48.73556003827825,18.113391984359726
48.75133615516116,51,116,1,0.009000000000000001,48.739478872658715,11.857282502443795
48.76367343026261,59,81,2,0.02520119392057502,48.74634205196349,17.331378299120235
48.76133615516116,61,102,1,0.033139367068176676,48.747289234340045,14.04692082111437
48.7821395193622,44,102,0,0.03071556914514078,48.76809259854108,14.04692082111437
48.791674756841026,64,51,2,0.009000000000000001,48.76965129643047,22.023460410557185
48.798157674125804,55,78,1,0.009000000000000001,48.78035708761554,17.80058651026393
48.801674756841024,72,127,2,0.013990189586730054,48.79153790444611,10.136852394916911
48.8081576741258,75,126,1,0.05209598661450832,48.79786441899384,10.29325513196481
48.81626792952346,62,78,0,0.010367386671132699,48.7984673430132,17.80058651026393
48.817219411937394,62,98,2,0.027682237467268188,48.80254688016809,14.672531769305962
48.827787248046945,62,67,0,0.009000000000000001,48.80826623142916,19.521016617790814
48.83778724804694,55,84,0,0.017445384794063216,48.82092507795897,16.86217008797654
48.847977453567694,56,62,2,0.01175789599700333,48.82767442326466,20.303030303030305
48.857171008929235,59,63,0,0.0288731690421334,48.83702438136325,20.146627565982406
48.861041782453256,59,92,2,0.01139952112229281,48.84543083426166,15.610948191593351
48.86604210369748,53,84,1,0.009000000000000001,48.849179933609506,16.86217008797654
48.873707917033585,54,72,2,0.014051983479747954,48.854968914101036,18.73900293255132
48.87604210369748,48,108,1,0.013026096809880223,48.86293359929865,13.10850439882698
48.889321232011085,63,95,2,0.012351102070763805,48.874179492030635,15.141739980449657
48.889252307864936,55,104,0,0.020643880458472107,48.875518192517916,13.734115347018573
48.89051554459735,48,107,1,0.009000000000000001,48.87725063746147,13.264907135874878
48.90051554459735,51,52,1,0.009000000000000001,48.87864848692384,21.867057673509287
48.90304467875638,54,90,2,0.05170129822993776,48.88712092509069,15.923753665689148
48.910515544597345,43,107,1,0.009000000000000001,48.89725063746147,13.264907135874878
48.91218995281879,53,108,0,0.009000000000000001,48.89908144841996,13.10850439882698
48.92218995281879,58,87,0,0.009000000000000001,48.90579699094196,16.392961876832846
48.92051554459734,42,127,1,0.009000000000000001,48.91037869220243,10.136852394916911
48.93218995281879,44,107,0,0.012929542754953458,48.91892504568291,13.264907135874878
48.93051554459734,59,127,1,0.012349411949101467,48.920378692202426,10.136852394916911
48.94423711342968,66,83,1,0.009329062174618213,48.927218540604656,17.01857282502444
48.946556111435406,46,124,0,0.04108428969341088,48.93595005082935,10.606060606060606
48.95460273806815,58,90,1,0.009000000000000001,48.93867898440246,15.923753665689148
48.96049056567853,51,90,2,0.021491531170217477,48.944566812012845,15.923753665689148
48.964602738068145,60,94,1,0.009000000000000001,48.94930459535065,15.298142717497555
48.97460273806814,53,84,1,0.05439152629307491,48.95774056798017,16.86217008797654
48.99220532220586,38,56,0,0.04007893281939652,48.97096387548054,21.241446725317694
48.98437004475655,60,115,2,0.03138906010594212,48.97235635951706,12.013685239491693
49.0192467782076,59,88,2,0.009000000000000001,49.00301021906782,16.236559139784944
49.0292467782076,55,90,2,0.009000000000000001,49.01332302454191,15.923753665689148
49.03503776728267,56,81,1,0.009000000000000001,49.01770638898355,17.331378299120235
49.0392467782076,57,60,2,0.009000000000000001,49.01863094243047,20.6158357771261
49.03673746978297,56,85,0,0.01655635733071954,49.02003170243204,16.705767350928642
49.045037767282665,55,77,1,0.009000000000000001,49.027080778035355,17.956989247311828
49.049246778207596,58,90,2,0.009780758913690398,49.03332302454191,15.923753665689148
49.05503776728266,47,92,1,0.009000000000000001,49.03942681909107,15.610948191593351
49.055133422372656,70,98,0,0.025170920739173628,49.04046089060335,14.672531769305962
49.0601142881117,54,107,2,0.009000000000000001,49.04684938097582,13.264907135874878
49.07632136750801,52,27,1,0.010846919229075373,49.0505442414083,25.777126099706745
49.06503776728266,62,106,1,0.010155240202815264,49.051616457409736,13.421309872922777
49.0701142881117,57,97,2,0.023396503182708698,49.05528535360534,14.82893450635386
49.08837349998476,67,48,1,0.009000000000000001,49.06588083136306,22.49266862170088
49.08310111208285,43,102,0,0.03962073948173397,49.069054191261735,14.04692082111437
49.09611040275915,54,72,2,0.009000000000000001,49.0773713998266,18.73900293255132
49.09837349998476,51,104,1,0.014480326687788956,49.08463938463774,13.734115347018573
49.10611040275915,45,124,2,0.06178723219955246,49.09550434215309,10.606060606060606
49.11446275186008,49,127,1,0.03702684266085002,49.10432589946517,10.136852394916911
49.12712415595144,63,91,0,0.009000000000000001,49.1113568050228,15.76735092864125
49.13712415595144,57,85,0,0.009000000000000001,49.12041838860051,16.705767350928642
49.14712415595144,46,71,0,0.009000000000000001,49.12822875028184,18.89540566959922
49.157124155951436,69,82,0,0.014554317694644152,49.139949180389365,17.174975562072337
49.15560368814992,59,116,1,0.009000000000000001,49.14374640564747,11.857282502443795
49.165603688149915,51,117,1,0.01488735785265457,49.15390280838452,11.700879765395896
49.182145196875084,41,52,1,0.016194873817527863,49.16027813920157,21.867057673509287
49.17476288298087,50,111,2,0.025666745437865027,49.162123586793186,12.639296187683286
49.1732956200566,52,127,0,0.08708257260686877,49.163158767661685,10.136852394916911
49.20013950111678,64,93,1,0.05424840496035696,49.184684955662235,15.454545454545453
49.20328148902294,58,87,2,0.017130322713929346,49.18688852714611,16.392961876832846
49.22231518092731,55,83,2,0.045128257612955976,49.20529660810229,17.01857282502444
49.26041550662829,63,42,1,0.009000000000000001,49.2369844215843,23.43108504398827
49.27005403406423,54,70,0,0.018440656237611843,49.25100222565759,19.05180840664712
49.27041550662829,48,103,1,0.022517574499597296,49.25652498854422,13.890518084066471
49.27245768938615,62,98,2,0.024316517820944607,49.257785157616844,14.672531769305962
49.290543652106024,61,71,0,0.05176015651129771,49.27164824643643,18.89540566959922
49.29543503385006,59,107,1,0.014102111271646463,49.282170126714185,13.264907135874878
49.29947604252053,65,84,2,0.009000000000000001,49.282613872432556,16.86217008797654
49.30947604252053,65,101,2,0.009000000000000001,49.295272718962366,14.203323558162268
49.31110404637411,56,124,1,0.024031636295308273,49.300497985768054,10.606060606060606
49.31947604252053,48,100,2,0.009000000000000001,49.305116316225316,14.359726295210166
49.329476042520525,74,48,2,0.09353248921020864,49.306983373898824,22.49266862170088
49.33780586448001,50,100,1,0.016148003183949596,49.3234461381848,14.359726295210166
49.348054937118576,61,60,0,0.009000000000000001,49.32743910134145,20.6158357771261
49.355748090239956,40,54,1,0.06017577256971353,49.33419383804054,21.55425219941349
49.358054937118574,46,75,0,0.013831037830113036,49.33978514239717,18.269794721407624
49.37342275692981,51,75,0,0.009000000000000001,49.35515296220841,18.269794721407624
49.38342275692981,46,43,0,0.019077362981732713,49.36014807462287,23.27468230694037
49.40461982690952,56,44,0,0.009000000000000001,49.381501547339624,23.118279569892472
49.414619826909515,63,106,0,0.02152174085628855,49.40119851703659,13.421309872922777
49.42261005976186,70,82,1,0.022274878260707405,49.40543508419979,17.174975562072337
49.43340103053187,64,69,2,0.021123887143652428,49.41419281938818,19.208211143695017
49.44735992449598,48,60,1,0.009000000000000001,49.42674408871885,20.6158357771261
49.438532872305395,48,117,0,0.02638825028609546,49.42683199254,11.700879765395896
49.45687201624704,52,57,2,0.042826772444477086,49.43578697225877,21.085043988269796
49.457359924495975,66,127,1,0.009000000000000001,49.44722307210106,10.136852394916911
49.46735992449597,47,72,1,0.009000000000000001,49.448620921563425,18.73900293255132
49.467853150401055,58,108,0,0.009000000000000001,49.454744646002226,13.10850439882698
49.47735992449597,60,56,1,0.010251236218736024,49.45611847777065,21.241446725317694
49.47785315040105,48,89,0,0.028145965211841747,49.461772993998316,16.080156402737046
49.488750186961234,62,86,1,0.012696072409528435,49.472200822347354,16.549364613880744
49.50445731896313,62,73,2,0.009000000000000001,49.485874718767626,18.58260019550342
49.509126445080874,56,49,0,0.04692563727866472,49.48679017919622,22.33626588465298
49.502856934082935,60,99,1,0.009000000000000001,49.488340805050676,14.516129032258064
49.51285693408293,61,72,1,0.017815834130222294,49.494117931150384,18.73900293255132
49.514457318963125,45,103,2,0.009000000000000001,49.50056680087906,13.890518084066471
49.52445731896312,57,115,2,0.009000000000000001,49.51244363372363,12.013685239491693
49.53445731896312,46,61,2,0.014019448369205944,49.51399788592304,20.459433040078203
49.532652305338736,60,99,1,0.009000000000000001,49.51813617630648,14.516129032258064
49.5500344838178,51,55,2,0.012573352497479923,49.52863663435543,21.397849462365592
49.542652305338734,57,111,1,0.009000000000000001,49.53001300915105,12.639296187683286
49.56126604205717,48,41,0,0.009000000000000001,49.537678554276134,23.587487781036167
49.55265230533873,57,110,1,0.009000000000000001,49.539856606414,12.795698924731184
49.56265230533873,53,100,1,0.0105372469505999,49.54829257904352,14.359726295210166
49.564004875481665,42,116,2,0.06031799009249487,49.55214759297922,11.857282502443795
49.57126604205717,57,119,0,0.009000000000000001,49.55987796776587,11.3880742913001
49.574360357506066,44,103,1,0.009000000000000001,49.560469839422,13.890518084066471
49.581266042057166,30,60,0,0.009000000000000001,49.56065020628004,20.6158357771261
49.584360357506064,57,75,1,0.022070561123827062,49.56609056278466,18.269794721407624
49.591266042057164,74,98,0,0.009000000000000001,49.57659351028786,14.672531769305962
49.60126604205716,60,57,0,0.009000000000000001,49.58018099806889,21.085043988269796
49.608883203199206,54,79,1,0.024722998452218294,49.59123901942599,17.64418377321603
49.61126604205716,57,80,0,0.009000000000000001,49.593778261020994,17.487781036168133
49.62126604205716,62,103,0,0.009000000000000001,49.60737552397309,13.890518084066471
49.631266042057156,63,76,0,0.036643483955893175,49.6131526500728,18.113391984359726
49.631024864473325,62,111,2,0.009000000000000001,49.61838556828564,12.639296187683286
49.63635320147945,57,108,1,0.009000000000000001,49.62324469708062,13.10850439882698
49.64102486447332,52,95,2,0.009000000000000001,49.62588312449287,15.141739980449657
49.65102486447332,35,69,2,0.01043022785069795,49.63181665332963,19.208211143695017
49.64635320147945,56,118,1,0.009000000000000001,49.634808724451105,11.544477028347998
49.65635320147945,53,55,1,0.02272300602270433,49.63495535201708,21.397849462365592
49.66261400652965,53,63,2,0.01843889755742142,49.642467378963666,20.146627565982406
49.67198102423037,71,28,0,0.009000000000000001,49.64636030086771,25.620723362658847
49.683101670482344,58,78,2,0.01778174252656829,49.66530108397208,17.80058651026393
49.68160098594912,49,92,1,0.009000000000000001,49.665990037757524,15.610948191593351
49.68198102423037,63,95,0,0.020081578170847693,49.66683928424992,15.141739980449657
49.691600985949115,56,57,1,0.009000000000000001,49.67051594196084,21.085043988269796
49.70160098594911,64,25,1,0.013339907173974904,49.67551105437531,26.08993157380254
49.702859162178534,60,54,2,0.032066914185919164,49.68130490997912,21.55425219941349
49.70429388886464,59,127,0,0.0164134327712915,49.694157036469726,10.136852394916911
49.71642310503131,49,101,1,0.009000000000000001,49.70221978147315,14.203323558162268
49.72642310503131,42,50,1,0.022773289055160163,49.7042432418837,22.179863147605083
49.7225310363883,57,106,0,0.009000000000000001,49.70910972651537,13.421309872922777
49.732531036388295,74,56,0,0.02700600276204216,49.711289589662975,21.241446725317694
49.73848906682956,61,113,2,0.009000000000000001,49.72616257611597,12.32649071358749
49.748489066829556,62,64,2,0.026295401338764547,49.72849884200062,19.990224828934508
49.75172675953704,42,110,1,0.012562289237357183,49.73893106061231,12.795698924731184
49.7625377061239,56,90,0,0.01804733704615315,49.74661395245821,15.923753665689148
49.76568485868966,50,70,1,0.009000000000000001,49.746633050283016,19.05180840664712
49.77568485868966,54,64,1,0.014439506823730597,49.75569463386072,19.990224828934508
49.777706179428186,67,91,2,0.011524490178117394,49.761938828499545,15.76735092864125
49.78259030284185,62,90,0,0.009000000000000001,49.76666654917616,15.923753665689148
49.79172875516047,37,82,1,0.009000000000000001,49.7745537795984,17.174975562072337
49.79051116851498,49,127,2,0.017881582263013188,49.78037431612007,10.136852394916911
49.80172875516047,46,56,1,0.009000000000000001,49.78048730843515,21.241446725317694
49.792590302841845,60,118,0,0.016039398300471866,49.7810458258135,11.544477028347998
49.810411856509035,63,59,0,0.009000000000000001,49.78963961799486,20.772238514174
49.81037959325166,49,87,2,0.009000000000000001,49.79398663137483,16.392961876832846
49.82041185650903,36,45,0,0.03635486926774925,49.79744997967619,22.961876832844574
49.811728755160466,60,116,1,0.009000000000000001,49.79987147265802,11.857282502443795
49.821728755160464,54,78,1,0.009000000000000001,49.8039281686502,17.80058651026393
49.82037959325166,52,113,2,0.026972953128243365,49.80805310253807,12.32649071358749
49.83172875516046,43,95,1,0.013393410501256921,49.81658701518001,15.141739980449657
49.84661032238408,39,89,1,0.034481962782754595,49.830530165981344,16.080156402737046
49.85034954117193,59,69,2,0.01408187932908724,49.83114133002824,19.208211143695017
49.86080615569542,49,73,0,0.009000000000000001,49.84222355549992,18.58260019550342
49.8659960737598,70,81,2,0.030067357131577845,49.848664695460684,17.331378299120235
49.87080615569542,52,127,0,0.01668438780066058,49.860669303300504,10.136852394916911
49.88492361436492,50,103,1,0.009000000000000001,49.871033096280854,13.890518084066471
49.88934436436282,53,75,0,0.04513450774277105,49.871074569641415,18.269794721407624
49.89940424835044,46,72,2,0.013860893963267694,49.880665245417894,18.73900293255132
49.89492361436492,54,125,1,0.009000000000000001,49.88447395649591,10.449657869012707
49.90492361436492,71,67,1,0.029349127780390137,49.88540259774713,19.521016617790814
49.91480524164296,52,70,2,0.02540006376101377,49.895753433236315,19.05180840664712
49.93753375634313,56,85,1,0.009000000000000001,49.9208279889922,16.705767350928642
49.939493817410344,55,98,0,0.009000000000000001,49.92482128564104,14.672531769305962
49.94302753471075,49,94,2,0.009000000000000001,49.92772939199325,15.298142717497555
49.94949381741034,59,84,0,0.03115828094222997,49.93263164732237,16.86217008797654
49.94753375634313,62,101,1,0.017551465011029346,49.93333043278496,14.203323558162268
49.95302753471075,57,114,2,0.011216239029090346,49.940857446734206,12.170087976539591
49.96549002252085,46,75,2,0.009000000000000001,49.94722022779944,18.269794721407624
49.96703538413316,54,89,1,0.06165651147904214,49.950955227730425,16.080156402737046
49.975490022520844,64,85,2,0.009000000000000001,49.95878425516992,16.705767350928642
49.984114129568376,49,44,0,0.009000000000000001,49.96099584999848,23.118279569892472
49.98549002252084,50,107,2,0.009000000000000001,49.972225115384965,13.264907135874878
49.99411412956837,64,63,0,0.009000000000000001,49.97396750200239,20.146627565982406
50.0,63,56,2,1.480684525990404,49.97875855327468,21.241446725317694
49.99549002252084,57,124,2,0.03483448337262959,49.98488396191478,10.606060606060606
50.0,40,104,1,0.22349884003788056,49.98626588465298,13.734115347018573
50.0,90,111,0,0.8003912288046309,49.987360703812314,12.639296187683286
50.24833204448653,47,84,1,0.04253184433486751,50.231469874398556,16.86217008797654
50.295589649303054,30,103,1,0.4971063221628372,50.281699131218986,13.890518084066471
50.84793000726176,86,77,1,0.8520259311866403,50.82997301801445,17.956989247311828
50.8893235875607,54,99,0,0.08982813861206755,50.874807458528444,14.516129032258064
50.989132630463,84,81,0,0.5372196671391034,50.97180125216388,17.331378299120235
51.586043371728664,63,99,0,0.9854800380110917,51.571527242696405,14.516129032258064
51.64520502887822,49,66,2,0.6848685738797865,51.62552760952338,19.67741935483871
51.79462548635803,38,89,1,0.5407197456271783,51.77854532995529,16.080156402737046
52.39542520372156,85,77,1,0.016220765014983617,52.37746821447425,17.956989247311828
52.406170110966876,37,52,2,0.10174464961144225,52.384303053293365,21.867057673509287
52.41344827596043,30,64,1,0.5438844848120491,52.39345805113149,19.990224828934508
52.51921972164626,51,30,2,0.06146438786374317,52.4939118037577,25.30791788856305
52.587513485939304,95,88,2,0.16131154967343692,52.57127692679952,16.236559139784944
52.68102119174099,92,69,0,0.2494536530997079,52.6618129805973,19.208211143695017
52.76674854113201,87,77,2,0.8613090682613059,52.7487915518847,17.956989247311828
52.95819191740733,32,99,0,0.06120565502689431,52.943675788375074,14.516129032258064
53.01776437019603,66,60,1,0.47020958317270023,52.997148534418905,20.6158357771261
53.02619820077055,75,89,0,0.13061150651867834,53.010118044367815,16.080156402737046
53.171322096902415,42,47,0,0.2374464166608762,53.148673025543665,22.649071358748778
53.43515144874783,87,60,0,0.10898239606004935,53.4145356129707,20.6158357771261
53.540219462610146,98,112,1,0.11108638523820855,53.52773656915951,12.482893450635387
53.556242999925665,33,81,0,0.1665529831004934,53.538911621626546,17.331378299120235
53.66364877954149,31,93,1,0.009000000000000001,53.648194234086944,15.454545454545453
53.67364877954149,32,103,1,0.2540815593387012,53.65975826145742,13.890518084066471
53.723758616977904,48,32,2,0.360908311729349,53.69876350456344,24.995112414467254
53.741301870037326,68,85,0,0.7915840444421377,53.7245961026864,16.705767350928642
53.955961623251156,64,41,1,0.4886010411740078,53.93237413547012,23.587487781036167
54.124767852232736,40,49,2,0.04480796485163394,54.10243158634808,22.33626588465298
54.17455447984566,47,38,2,0.10346182292121338,54.15049778385348,24.05669599217986
54.28951206086923,52,85,2,0.029481155454068972,54.2728062935183,16.705767350928642
54.322268900262635,86,72,2,1.0812687074708078,54.30352989733009,18.73900293255132
54.498851669000054,91,96,1,0.19811100075086374,54.48386633175665,14.985337243401759
54.62083969719526,77,96,0,0.41356122260065387,54.605854359951856,14.985337243401759
54.71897500316768,83,122,1,0.3025298038046139,54.708056137087524,10.918866080156402
55.05511922961725,27,80,1,0.3291162457352814,55.03763144858108,17.487781036168133
55.08035216675154,85,102,0,0.2644392706767016,55.06630524593042,14.04692082111437
55.37417357861454,32,89,0,0.4820912503646698,55.3580934222118,16.080156402737046
55.42080394710089,74,110,1,0.22636145901397225,55.40800824817616,12.795698924731184
55.5236785752302,84,65,2,0.4089204615780233,55.50384475313831,19.83382209188661
55.67231667933864,47,116,1,0.35592487014403446,55.660459396836195,11.857282502443795
55.90983052346417,98,58,0,0.7271824230985292,55.88890188221295,20.928641251221897
55.978034643650226,56,115,2,0.32717232283409753,55.96602095841073,12.013685239491693
56.06778875727646,79,64,1,0.4523003657597318,56.04779853244752,19.990224828934508
56.341559446799224,78,75,2,0.00960286060930069,56.32328965207782,18.269794721407624
56.35222929192067,57,100,2,0.2020083100964762,56.33786956562546,14.359726295210166
56.57034471923172,91,57,1,0.6169485210087007,56.54925967524345,21.085043988269796
56.576682969805645,76,75,2,1.162576339257576,56.55841317508424,18.269794721407624
56.71781099357365,85,60,0,0.16616600011620428,56.69719515779652,20.6158357771261
56.90243988259166,92,34,0,0.5727806481407167,56.87775757565129,24.682306940371458
57.255843075908054,84,58,1,0.046498462756623456,57.23491443465683,20.928641251221897
57.30750803452652,27,36,1,0.38745420792330726,57.283138533060246,24.369501466275658
57.53886282497023,88,116,0,0.1460003483795004,57.52700554246778,11.857282502443795
57.701085434280785,52,79,0,0.27941022338476273,57.68344125050757,17.64418377321603
57.73801270999686,89,60,1,0.299357397281857,57.71739687421973,20.6158357771261
57.86843445786962,51,47,2,0.23802401924294794,57.84578538651087,22.649071358748778
58.01154123804163,68,71,0,0.18448823400070358,57.992645832372034,18.89540566959922
58.07063204031003,34,109,1,0.6558468550042167,58.05767993864825,12.952101661779082
58.13290559036178,98,62,2,2.8590976353606514,58.11260256005875,20.303030303030305
58.216528164709075,27,91,0,0.3443630037867602,58.200760813780434,15.76735092864125
58.59915372447214,29,30,0,1.1417576573174153,58.57384580658358,25.30791788856305
58.799350768092495,83,77,1,0.3587979872972144,58.781393778845185,17.956989247311828
59.19801519842273,74,59,1,0.012913844115464028,59.177242959908554,20.772238514174
59.21236391410658,62,83,1,0.011367366023645862,59.19534534128156,17.01857282502444
59.224994320799524,34,33,1,0.17682428722777252,59.200155611122106,24.838709677419356
59.42146575105261,63,38,1,0.3512482937959203,59.39740905506043,24.05669599217986
59.81174163304807,83,52,1,0.09514160262131574,59.78987457537456,21.867057673509287
59.86777334371371,99,98,0,0.1691363831525485,59.8531008119444,14.672531769305962
59.91745452484953,85,43,1,0.2545430181966607,59.89417984254259,23.27468230694037
60.055702658327654,72,91,0,1.521659865609472,60.03993530739901,15.76735092864125
60.2002801006236,70,47,1,0.009000000000000001,60.17763102926485,22.649071358748778
60.2102801006236,95,71,1,0.06480644189028589,60.191384694954,18.89540566959922
60.282287258279474,69,44,1,0.10408609187208581,60.25916897870958,23.118279569892472
60.39793847147068,64,81,1,0.009000000000000001,60.38060709317156,17.331378299120235
60.40793847147068,72,122,1,0.35834265691211853,60.397019605390525,10.918866080156402
60.80609697915081,30,31,1,0.10790049870883063,60.780945463999295,25.151515151515152
60.92598642216062,86,54,1,0.4702302749287485,60.904432169961204,21.55425219941349
61.3096807407625,33,54,2,0.533849673455251,61.28812648856309,21.55425219941349
61.44846450541478,89,98,1,0.20054697227361476,61.43379197364548,14.672531769305962
61.67129447460769,51,59,1,0.02117194030097108,61.650522236093515,20.772238514174
61.694818852719884,75,96,1,0.12455055839268403,61.67983351547648,14.985337243401759
61.74643584233818,93,67,0,0.31466508530278037,61.72691482572039,19.521016617790814
61.83320836204509,55,34,1,0.3314078937196865,61.80852605510472,24.682306940371458
61.90284704460167,57,62,2,0.009000000000000001,61.88254401429864,20.303030303030305
61.91284704460167,67,104,2,0.47493979889111326,61.89911292925465,13.734115347018573
62.09606371489682,34,26,0,1.4166481936026998,62.07013018606007,25.933528836754643
62.20143935506697,89,102,1,0.053499316141123715,62.18739243424585,14.04692082111437
62.260883039668215,80,88,1,0.009075768246962124,62.24464648052843,16.236559139784944
62.27096722660929,82,56,1,0.7102197551056116,62.24972577988397,21.241446725317694
62.440557932258464,56,117,2,0.34678885996253267,62.42885705249307,11.700879765395896
62.82587888777239,92,82,2,0.3422679474574855,62.80870391221032,17.174975562072337
63.06010028783774,46,85,1,0.4117549383006042,63.043394520486814,16.705767350928642
63.206176607169596,72,118,2,0.28468046883180304,63.19463213014125,11.544477028347998
63.517605774838415,51,39,1,0.584532920309237,63.493705481583284,23.900293255131963
63.52248823920493,28,25,2,0.6045801238120089,63.49639830763113,26.08993157380254
63.67011726334427,52,95,0,0.3680597627305086,63.65497552336382,15.141739980449657
64.07907255526706,84,66,0,0.02293762929203515,64.05939513591223,19.67741935483871
64.10455881003598,48,77,0,0.5807778833120926,64.08660182078867,17.956989247311828
64.16708679740424,45,36,1,0.7527240277987733,64.14271729593796,24.369501466275658
64.19424393232939,42,98,2,0.17374378792435347,64.17957140056008,14.672531769305962
64.38729258557866,81,91,2,0.2832199433262857,64.37152523465002,15.76735092864125
64.70198141149676,61,121,2,0.03843038001180042,64.69090614267955,11.0752688172043
64.74468183373209,37,38,2,0.1304426029552028,64.7206251377399,24.05669599217986
64.74986756927164,52,43,0,0.3498492622082953,64.72659288696471,23.27468230694037
64.88961805923788,60,29,2,0.5075725643062223,64.86415373861226,25.46432062561095
65.0,65,65,2,0.019814644416459287,64.98016617790812,19.83382209188661
65.0,54,71,0,0.009000000000000001,64.9811045943304,18.89540566959922
65.0,58,111,1,0.009000000000000001,64.98736070381231,12.639296187683286
65.01,61,95,1,0.014587399938649515,64.99485826001956,15.141739980449657
65.01,45,105,0,0.009000000000000001,64.99642228739003,13.577712609970675
65.02201627157385,60,79,2,0.009000000000000001,65.00437208780063,17.64418377321603
65.02000000000001,62,92,0,0.009000000000000001,65.00438905180842,15.610948191593351
65.02620822215405,62,104,1,0.031227382303037086,65.01247410680703,13.734115347018573
65.03000000000002,57,114,0,0.0092272522615219,65.01782991202347,12.170087976539591
65.03201627157385,53,102,2,0.03583970372709957,65.01796935075274,14.04692082111437
65.04025250251281,58,55,0,0.04058958846812624,65.01885465305045,21.397849462365592
65.06090531360188,61,78,1,0.011579130488487055,65.04310472709162,17.80058651026393
65.07183816460396,47,94,2,0.019874204435420362,65.05654002188646,15.298142717497555
65.08535204525518,46,29,0,0.009000000000000001,65.05988772462956,25.46432062561095
65.07377101414464,58,109,1,0.009000000000000001,65.06081891248286,12.952101661779082
65.08377101414465,60,78,1,0.010884903038637213,65.06597042763438,17.80058651026393
65.09392061397665,46,43,2,0.009693313433368283,65.07064593166972,23.27468230694037
65.09535204525518,56,87,0,0.009000000000000001,65.07895908337835,16.392961876832846
65.09586535085424,61,103,1,0.020230490355643033,65.08197483277017,13.890518084066471
65.10469096223595,54,63,2,0.012712939709588499,65.08454433466997,20.146627565982406
65.10535204525519,50,98,0,0.009000000000000001,65.09067951348588,14.672531769305962
65.11834367347161,57,52,1,0.009000000000000001,65.09647661579811,21.867057673509287
65.11881645080216,56,88,2,0.012183970099892494,65.10257989166237,16.236559139784944
65.1153520452552,68,111,0,0.00962397321955373,65.1027127490675,12.639296187683286
65.12834367347162,57,61,1,0.009000000000000001,65.10788424043155,20.459433040078203
65.12604534883248,50,112,0,0.01970902024016524,65.11356245538184,12.482893450635387
65.13235419535759,53,100,2,0.03892766670402144,65.11799446906238,14.359726295210166
65.13834367347162,47,63,1,0.009000000000000001,65.11819704590565,20.146627565982406
65.14834367347163,66,62,1,0.009000000000000001,65.1280406431686,20.303030303030305
65.14794426021044,48,77,0,0.01530983621075357,65.12998727096313,17.956989247311828
65.15834367347163,55,67,1,0.052083986754659646,65.13882265685385,19.521016617790814
65.1649551893335,57,78,0,0.009000000000000001,65.14715460282324,17.80058651026393
65.17560715836206,64,24,2,0.009000000000000001,65.1493608240512,26.24633431085044
65.1749551893335,45,95,0,0.03579092565242147,65.15981344935305,15.141739980449657
65.18560715836206,35,102,2,0.009984362859538666,65.17156023754094,14.04692082111437
65.19670089487266,51,93,2,0.018980142931485616,65.18124634941812,15.454545454545453
65.2162147698657,50,23,1,0.04993275127647424,65.1898120328178,26.402737047898338
65.21472288450286,62,47,0,0.009000000000000001,65.19207381314412,22.649071358748778
65.21778994257431,46,107,2,0.017271275545839664,65.20452503543844,13.264907135874878
65.22472288450287,61,101,0,0.014096418962423723,65.2105195609447,14.203323558162268
65.23698024873636,55,80,2,0.027493756169076976,65.21949246770019,17.487781036168133
65.24038557223889,60,68,0,0.009000000000000001,65.22102095835815,19.364613880742915
65.2503855722389,65,125,0,0.03465545972340301,65.23993591436988,10.449657869012707
65.27169560461734,47,87,1,0.009000000000000001,65.2553026427405,16.392961876832846
65.267528866702,29,116,2,0.014647482872725444,65.25567158419955,11.857282502443795
65.28169560461734,54,74,1,0.009000000000000001,65.26326940715889,18.426197458455523
65.28380384767169,43,93,2,0.01778159125338563,65.26834930221715,15.454545454545453
65.28889163859823,55,93,0,0.03646075492137039,65.27343709314368,15.454545454545453
65.29169560461735,39,92,1,0.012980440522773565,65.27608465642575,15.610948191593351
65.30356117128656,52,69,2,0.01087391470421552,65.28435296014287,19.208211143695017
65.30611831630931,59,127,1,0.013445870486999998,65.29598146391439,10.136852394916911
65.3156432987357,56,102,2,0.017292500735181644,65.30159637791458,14.04692082111437
65.32105817240597,40,111,1,0.020884697159736343,65.30841887621828,12.639296187683286
65.32940358851086,64,83,0,0.009000000000000001,65.31238501568583,17.01857282502444
65.33485718844145,54,63,2,0.0494683812688266,65.31471056087547,20.146627565982406
65.34426339147234,59,51,1,0.024544862692187825,65.32223993106179,22.023460410557185
65.33940358851086,65,96,0,0.034373712518192504,65.32441825126746,14.985337243401759
65.37759660241997,44,41,0,0.009000000000000001,65.35400911463893,23.587487781036167
65.37153546113032,40,104,1,0.009000000000000001,65.3578013457833,13.734115347018573
65.38153546113033,49,89,1,0.030549485693003947,65.36545530472759,16.080156402737046
65.38759660241998,41,67,0,0.009000000000000001,65.36807558580219,19.521016617790814
65.38982205651791,55,99,2,0.02929649380417595,65.37530592748566,14.516129032258064
65.39759660241998,47,59,0,0.016768102559745163,65.37682436390581,20.772238514174
65.41547933412255,55,55,1,0.009000000000000001,65.39408148466019,21.397849462365592
65.41622782748637,44,100,0,0.009000000000000001,65.40186810119116,14.359726295210166
65.42237371630033,54,107,2,0.03542955231148592,65.40910880916445,13.264907135874878
65.42622782748637,56,99,0,0.015796005003922142,65.41171169845411,14.516129032258064
65.42547933412256,53,113,1,0.009000000000000001,65.41315284340897,12.32649071358749
65.43547933412256,66,107,1,0.014175611594210486,65.42221442698668,13.264907135874878
65.4437789441574,60,76,0,0.009619377722034568,65.42566555217304,18.113391984359726
65.45123001367169,55,127,1,0.025251762379105546,65.44109316127677,10.136852394916911
65.45446714162632,42,116,0,0.009000000000000001,65.44260985912388,11.857282502443795
65.46173988553531,52,87,2,0.009000000000000001,65.44534692365848,16.392961876832846
65.46446714162633,48,110,0,0.009000000000000001,65.4516714427016,12.795698924731184
65.47446714162633,61,64,0,0.009000000000000001,65.4544769167974,19.990224828934508
65.47173988553531,66,108,2,0.009000000000000001,65.45863138113648,13.10850439882698
65.47928752742625,51,71,1,0.02526322905483706,65.46039212175666,18.89540566959922
65.48446714162634,55,48,0,0.009000000000000001,65.46197447300464,22.49266862170088
65.48173988553532,52,75,2,0.020859385210412862,65.46347009081391,18.269794721407624
65.49446714162634,53,77,0,0.009000000000000001,65.47651015237903,17.956989247311828
65.50446714162635,59,98,0,0.009000000000000001,65.48979460985704,14.672531769305962
65.50735778193163,73,81,1,0.009000000000000001,65.49002640363251,17.331378299120235
65.50491698021355,41,126,2,0.02087423871369332,65.49462372508158,10.29325513196481
65.51446714162635,51,75,0,0.009000000000000001,65.49619734690495,18.269794721407624
65.51735778193164,57,108,1,0.009000000000000001,65.50424927753281,13.10850439882698
65.52446714162636,60,76,0,0.009000000000000001,65.506353749642,18.113391984359726
65.52735778193164,62,86,1,0.009000000000000001,65.51080841731776,16.549364613880744
65.52811057878432,58,115,2,0.009000000000000001,65.51609689354483,12.013685239491693
65.53811057878433,52,62,2,0.009000000000000001,65.5178075484813,20.303030303030305
65.54446714162637,62,48,0,0.016284671315933766,65.52197447300468,22.49266862170088
65.53446714162637,52,123,0,0.009000000000000001,65.52370467828325,10.762463343108504
65.53735778193165,51,118,1,0.017354071605941598,65.5258133049033,11.544477028347998
65.54811057878433,63,70,2,0.01252405566678288,65.52905877037769,19.05180840664712
65.5625612208663,66,37,0,0.009000000000000001,65.53834812213707,24.21309872922776
65.55664008371603,57,81,1,0.009000000000000001,65.53930870541691,17.331378299120235
65.56202619619187,55,101,2,0.009000000000000001,65.5478228726337,14.203323558162268
65.57202619619187,54,61,2,0.029473332473718195,65.5515667631518,20.459433040078203
65.56664008371604,54,111,1,0.009273757429227382,65.55400078752835,12.639296187683286
65.5725612208663,56,113,0,0.009000000000000001,65.56023473015271,12.32649071358749
65.5769442586374,50,120,1,0.009000000000000001,65.56571258708314,11.231671554252198
65.58256122086631,57,93,0,0.009000000000000001,65.56710667541176,15.454545454545453
65.5869442586374,53,94,1,0.009000000000000001,65.5716461159199,15.298142717497555
65.59256122086632,62,76,0,0.01179178898412285,65.57444782888196,18.113391984359726
65.59694425863741,67,85,1,0.013813939292789625,65.58023849128648,16.705767350928642
65.60566320862645,60,78,0,0.009000000000000001,65.58786262211619,17.80058651026393
65.61229308007384,52,70,1,0.015628424830457347,65.5932412716672,19.05180840664712
65.60477434338489,48,127,2,0.02576952599132539,65.59463749098997,10.136852394916911
65.61566320862646,56,79,0,0.009000000000000001,65.59801902485324,17.64418377321603
65.62566320862646,53,82,0,0.009000000000000001,65.60848823306439,17.174975562072337
65.62965799655213,61,84,1,0.011293960385638065,65.61279582646415,16.86217008797654
65.63340715004192,46,65,2,0.009000000000000001,65.61357332795004,19.83382209188661
65.63566320862647,46,90,0,0.03746570017215166,65.61973945496078,15.923753665689148
65.64220684142505,50,102,1,0.009000000000000001,65.62815992060393,14.04692082111437
65.64340715004192,55,116,2,0.009000000000000001,65.63154986753948,11.857282502443795
65.65340715004193,60,60,2,0.009000000000000001,65.63279131426481,20.6158357771261
65.65220684142506,54,76,1,0.009000000000000001,65.6340934494407,18.113391984359726
65.66220684142506,57,55,1,0.009000000000000001,65.6408089919627,21.397849462365592
65.66340715004193,41,87,2,0.009000000000000001,65.6470141881651,16.392961876832846
65.67220684142507,42,68,1,0.009000000000000001,65.65284222754433,19.364613880742915
65.67340715004194,54,93,2,0.04969235231205464,65.6579526045874,15.454545454545453
65.67729176437331,52,90,0,0.024657751723651204,65.66136801070762,15.923753665689148
65.68220684142507,49,119,1,0.016995725420355608,65.67081876713377,11.3880742913001
65.70468926628848,62,71,0,0.017055126567709442,65.68579386061889,18.89540566959922
65.70109098078102,52,98,1,0.018138348656323668,65.68641844901171,14.672531769305962
65.72124470151027,43,63,1,0.009734709357788687,65.7010980739443,20.146627565982406
65.72363940691928,52,114,0,0.018447465421938338,65.71146931894273,12.170087976539591
65.72862087483311,53,94,2,0.014938678304606549,65.71332273211561,15.298142717497555
65.73206104524115,58,77,1,0.01622402588384219,65.71410405599384,17.956989247311828
65.74413659072142,45,29,0,0.009000000000000001,65.71867227009581,25.46432062561095
65.74521940628267,58,26,2,0.048126238757761945,65.71928587744591,25.933528836754643
65.75008774066764,51,58,1,0.025170231522874863,65.72915909941642,20.928641251221897
65.75413659072143,58,96,0,0.009000000000000001,65.73915125347803,14.985337243401759
65.76413659072144,41,76,0,0.009000000000000001,65.74602319873708,18.113391984359726
65.77413659072144,58,66,0,0.030654466528082278,65.7544591713666,19.67741935483871
65.77805466458194,50,108,1,0.01688679016252342,65.76494616018311,13.10850439882698
65.79681776476252,77,59,1,0.019309458228400068,65.77604552624835,20.772238514174
65.7986930049024,56,88,2,0.011906175939336506,65.78245644576262,16.236559139784944
65.81192208927945,57,102,2,0.009000000000000001,65.79787516845833,14.04692082111437
65.80819710908598,65,127,0,0.009000000000000001,65.79806025669106,10.136852394916911
65.82192208927945,48,44,2,0.03508634932588081,65.79880380970957,23.118279569892472
65.81827271834963,66,87,1,0.009000000000000001,65.8018797564728,16.392961876832846
65.81819710908599,49,88,0,0.009984626594635813,65.8019605499462,16.236559139784944
65.82929113863558,47,74,0,0.009000000000000001,65.81086494117713,18.426197458455523
65.82827271834964,42,87,1,0.009000000000000001,65.8118797564728,16.392961876832846
65.83827271834964,63,90,1,0.009436262888394885,65.82234896468395,15.923753665689148
65.83929113863559,54,90,0,0.048846072387826706,65.8233673849699,15.923753665689148
65.84875745489231,50,85,1,0.009000000000000001,65.83205168754138,16.705767350928642
65.86090692186377,66,86,2,0.023101193507179076,65.8443575572499,16.549364613880744
65.85875745489231,52,105,1,0.010197762466092298,65.84517974228234,13.577712609970675
65.87008830207687,47,61,1,0.031508455365369316,65.84962886903679,20.459433040078203
65.89356455239984,61,65,0,0.025847633704698055,65.87373073030795,19.83382209188661
65.88657491464953,53,113,2,0.032296570020811995,65.87424842393594,12.32649071358749
65.90509769692727,48,85,1,0.009000000000000001,65.88839192957634,16.705767350928642
65.91509769692728,52,127,1,0.012245435861850012,65.90496084453235,10.136852394916911
65.92245999245043,50,89,2,0.009000000000000001,65.90637983604769,16.080156402737046
65.92228414540506,63,102,0,0.009000000000000001,65.90823722458394,14.04692082111437
65.93228414540506,62,52,0,0.009000000000000001,65.91041708773156,21.867057673509287
65.92870373677377,58,97,1,0.016994543965154853,65.91387480226742,14.82893450635386
65.93245999245043,46,85,2,0.01701027789043572,65.9157542250995,16.705767350928642
65.94228414540507,63,73,0,0.0215243054030081,65.92370154520957,18.58260019550342
65.94758656340171,57,54,1,0.009000000000000001,65.9260323112023,21.55425219941349
65.95136030121758,57,81,2,0.009000000000000001,65.93402892291846,17.331378299120235
65.95758656340172,56,80,1,0.009000000000000001,65.94009878236555,17.487781036168133
65.96136030121758,55,77,2,0.05523419619768732,65.94340331197027,17.956989247311828
65.9662000402973,54,87,0,0.009000000000000001,65.94980707842046,16.392961876832846
65.96758656340172,54,111,1,0.04431064281705614,65.95494726721404,12.639296187683286
65.9762000402973,33,104,0,0.009000000000000001,65.96246592495028,13.734115347018573
65.9862000402973,65,118,0,0.009280984464977217,65.97465556326895,11.544477028347998
65.99651224525839,42,108,0,0.018009217976491465,65.98340374085956,13.10850439882698
66.0165224874545,53,73,0,0.028866434741696912,65.997939887259,18.58260019550342
66.01682061097623,44,74,1,0.009000000000000001,65.99839441351777,18.426197458455523
66.02273163032612,48,82,2,0.009000000000000001,66.00555665476405,17.174975562072337
66.02682061097623,42,91,1,0.013692353844030744,66.01105326004759,15.76735092864125
66.03273163032613,52,63,2,0.03041481005764795,66.01258500276015,20.146627565982406
66.0420343374696,56,79,1,0.046104501145360646,66.02439015369639,17.64418377321603
66.04859630383416,51,127,0,0.01230729053508186,66.03845945143924,10.136852394916911
66.06652586372351,59,82,2,0.01698099385800674,66.04935088816144,17.174975562072337
66.06227107109537,42,111,0,0.009000000000000001,66.04963177490768,12.639296187683286
66.07227107109537,48,100,0,0.0187867855972701,66.05791134480016,14.359726295210166
66.08539363467685,47,94,2,0.009550175254642749,66.07009549195935,15.298142717497555
66.09326156096445,58,87,1,0.016295147746808084,66.07686859908762,16.392961876832846
66.09314527731456,49,104,0,0.014370878832583195,66.07941116196754,13.734115347018573
66.09600494051534,66,96,2,0.04184508046649492,66.08101960327194,14.985337243401759
66.11136728068313,59,67,1,0.009000000000000001,66.09184626406534,19.521016617790814
66.10911292046188,51,127,0,0.009000000000000001,66.09897606806696,10.136852394916911
66.11911292046189,44,91,0,0.06467688911414765,66.10334556953325,15.76735092864125
66.12136728068313,59,121,1,0.009000000000000001,66.11029201186592,11.0752688172043
66.13136728068314,58,93,1,0.012730282864149225,66.11591273522859,15.454545454545453
66.142499474367,58,95,2,0.03833739932684147,66.12735773438655,15.141739980449657
66.14551203942108,56,92,1,0.009000000000000001,66.12990109122948,15.610948191593351
66.15551203942108,51,47,1,0.009000000000000001,66.13286296806234,22.649071358748778
66.16551203942109,50,99,1,0.009000000000000001,66.15099591038883,14.516129032258064
66.1755120394211,65,127,1,0.015318114447990052,66.16537518702617,10.136852394916911
66.18509658473016,53,80,2,0.009918284043028473,66.167608803694,17.487781036168133
66.19097613058872,53,87,0,0.009000000000000001,66.17458316871189,16.392961876832846
66.19611690033352,72,60,2,0.009000000000000001,66.1755010645564,20.6158357771261
66.19253216658552,51,102,1,0.04622500704103426,66.1784852457644,14.04692082111437
66.20097613058873,64,67,0,0.009000000000000001,66.18145511397094,19.521016617790814
66.20611690033353,45,94,2,0.011150846473047591,66.19081875761603,15.298142717497555
66.21097613058873,56,106,0,0.009000000000000001,66.19755482071581,13.421309872922777
66.22097613058874,46,60,0,0.009000000000000001,66.20036029481162,20.6158357771261
66.21850672974803,59,91,2,0.04736499523791783,66.20273937881939,15.76735092864125
66.23097613058874,54,66,0,0.020047361021408056,66.21129871123391,19.67741935483871
66.24389328552,53,95,1,0.009000000000000001,66.22875154553955,15.141739980449657
66.25325097616809,48,106,0,0.009000000000000001,66.23982966629517,13.421309872922777
66.25389328552001,52,127,1,0.01734068665749287,66.24375643312509,10.136852394916911
66.2732509761681,51,34,0,0.009000000000000001,66.24856866922772,24.682306940371458
66.2711345022346,52,58,2,0.009000000000000001,66.25020586098339,20.928641251221897
66.2632509761681,54,127,0,0.009000000000000001,66.25311412377317,10.136852394916911
66.27316071513944,65,94,1,0.03982961008408032,66.25786257242194,15.298142717497555
66.2832509761681,51,57,0,0.07012984844446168,66.26216593217984,21.085043988269796
66.28113450223461,61,84,2,0.009000000000000001,66.26427233214663,16.86217008797654
66.29113450223461,57,95,2,0.0528739694184748,66.27599276225416,15.141739980449657
66.31741583745509,47,52,1,0.009000000000000001,66.29554877978158,21.867057673509287
66.32741583745509,55,95,1,0.009000000000000001,66.31227409747464,15.141739980449657
66.3374158374551,57,70,1,0.042583391566486856,66.31836402904845,19.05180840664712
66.34988335714402,51,83,2,0.009000000000000001,66.332864784319,17.01857282502444
66.36117302999529,57,96,0,0.026492449052052572,66.34618769275188,14.985337243401759
66.35988335714403,58,127,2,0.009000000000000001,66.3497465047491,10.136852394916911
66.36988335714403,68,68,2,0.009000000000000001,66.3505187432633,19.364613880742915
66.37988335714404,52,93,2,0.014190890131607412,66.36442881168949,15.454545454545453
66.38473071697342,35,74,1,0.009000000000000001,66.36630451951497,18.426197458455523
66.39060908449757,60,96,0,0.009000000000000001,66.37562374725417,14.985337243401759
66.39473071697343,57,90,1,0.010612444181237931,66.37880696330774,15.923753665689148
66.39565101284582,43,108,2,0.024889731555676517,66.38254250844699,13.10850439882698
66.40060908449757,51,98,0,0.023935782171717174,66.38593655272827,14.672531769305962
66.40652232161925,47,118,1,0.010429651008821839,66.3949778445909,11.544477028347998
66.41811082274016,72,93,1,0.009000000000000001,66.40265627728562,15.454545454545453
66.4233062701299,55,95,2,0.009000000000000001,66.40816453014945,15.141739980449657
66.4272043980217,61,81,0,0.010845363974684337,66.40987301972258,17.331378299120235
66.42811082274017,64,76,1,0.010133892654270341,66.40999743075581,18.113391984359726
66.4333062701299,68,60,2,0.009000000000000001,66.41269043435278,20.6158357771261
66.43925480243801,55,83,0,0.009000000000000001,66.42223622961299,17.01857282502444
66.43937070346713,58,110,1,0.013706798616145361,66.4265750045424,12.795698924731184
66.44330627012991,56,94,2,0.009000000000000001,66.42800812741241,15.298142717497555
66.44925480243802,53,87,0,0.023753391222738906,66.43286184056119,16.392961876832846
66.4546004797073,59,85,1,0.009000000000000001,66.43789471235637,16.705767350928642
66.45330627012991,55,127,2,0.011066150116099857,66.44316941773499,10.136852394916911
66.4646004797073,65,88,1,0.012219103365510372,66.44836392056752,16.236559139784944
66.46560199248114,49,94,2,0.017396917477511223,66.45030384976364,15.298142717497555
66.47817726122453,53,61,1,0.01160621512035406,66.45771782818446,20.459433040078203
66.47564745935217,60,90,0,0.0291404737597736,66.45972370568649,15.923753665689148
66.48493190078949,49,55,2,0.02038657279354755,66.46353405132713,21.397849462365592
66.4910730558027,71,86,1,0.014188515236014663,66.47452369118882,16.549364613880744
66.50683807273161,41,84,1,0.01142780386956557,66.48997590264364,16.86217008797654
66.5080257635297,64,93,0,0.04030856776134625,66.49257121807516,15.454545454545453
66.50758364833787,53,127,2,0.017788344636216466,66.49744679594295,10.136852394916911
66.51953563258668,60,83,1,0.03404393063669797,66.50251705976166,17.01857282502444
66.52734847571145,65,124,2,0.03099697102508061,66.51674241510538,10.606060606060606
66.55281306104231,46,103,0,0.016173449990749687,66.53892254295825,13.890518084066471
66.5617895546282,47,57,2,0.00990653960974239,66.54070451063994,21.085043988269796
66.55736222218302,52,96,1,0.030650208974338563,66.54237688493961,14.985337243401759
66.57078356103203,50,105,0,0.015732836042942445,66.55720584842206,13.577712609970675
66.57279682086126,39,95,2,0.009000000000000001,66.5576550808808,15.141739980449657
66.58279682086126,54,81,2,0.009000000000000001,66.56546544256214,17.331378299120235
66.58826448996864,48,64,0,0.012223385595508536,66.5682742651397,19.990224828934508
66.59279682086127,46,88,2,0.009000000000000001,66.57656026172148,16.236559139784944
66.59141800993228,54,107,1,0.009000000000000001,66.5781531027964,13.264907135874878
66.60184602951921,63,46,0,0.127349794985396,66.57904055542342,22.805474095796676
66.60141800993229,47,81,1,0.04915970028775346,66.58408663163317,17.331378299120235
66.60279682086127,55,127,2,0.012215871456233016,66.59265996846635,10.136852394916911
66.6163700113682,44,86,2,0.009000000000000001,66.59982064675432,16.549364613880744
66.62637001136821,59,46,2,0.013695343758305374,66.60356453727242,22.805474095796676
66.64158705998855,60,118,2,0.019107668260187113,66.6300425829602,11.544477028347998
66.65603989914091,52,102,1,0.02240821707855005,66.64199297831979,14.04692082111437
66.66281780249987,53,93,2,0.009000000000000001,66.64736325704533,15.454545454545453
66.67281780249988,68,104,2,0.014378351061703805,66.65908368715286,13.734115347018573
66.68093791811707,51,127,1,0.009000000000000001,66.67080106572215,10.136852394916911
66.688793748124,61,96,2,0.009000000000000001,66.6738084108806,14.985337243401759
66.69093791811707,45,96,1,0.009000000000000001,66.67595258087367,14.985337243401759
66.698793748124,66,64,2,0.013381364855503546,66.67880352329507,19.990224828934508
66.70093791811708,64,118,1,0.030615312168232264,66.68939344108873,11.544477028347998
66.71366193129678,68,53,2,0.02923442177393099,66.69195127636033,21.71065493646139
66.73495493163733,66,64,1,0.009000000000000001,66.7149647068084,19.990224828934508
66.74495493163734,44,63,1,0.009000000000000001,66.72480830407136,20.146627565982406
66.7461446221567,49,73,2,0.009000000000000001,66.7275620219612,18.58260019550342
66.7433458017252,48,117,0,0.011221621627142025,66.7316449219598,11.700879765395896
66.7558142701998,60,52,0,0.017999641180918013,66.7339472125263,21.867057673509287
66.75614462215671,56,103,2,0.009000000000000001,66.74225410407264,13.890518084066471
66.75495493163734,57,117,1,0.00952439504677909,66.74325405187194,11.700879765395896
66.76553759280043,32,83,1,0.00970245590130433,66.7485190199754,17.01857282502444
66.76614462215672,66,115,2,0.009000000000000001,66.75413093691722,12.013685239491693
66.77614462215672,50,65,2,0.009000000000000001,66.75631080006484,19.83382209188661
66.77581387151194,45,80,0,0.011618111153165397,66.75832609047578,17.487781036168133
66.78614462215673,66,63,2,0.009000000000000001,66.76599799459075,20.146627565982406
66.77631809935744,60,127,1,0.009000000000000001,66.76618124696252,10.136852394916911
66.78631809935744,52,106,1,0.009000000000000001,66.77289678948452,13.421309872922777
66.78872288390436,51,91,0,0.009000000000000001,66.77295553297571,15.76735092864125
66.79614462215673,48,73,2,0.023794725100359106,66.77756202196123,18.58260019550342
66.79872288390436,57,63,0,0.009000000000000001,66.77857625633838,20.146627565982406
66.79631809935745,48,106,1,0.009000000000000001,66.78289678948452,13.421309872922777
66.80631809935745,58,102,1,0.01060049585521485,66.79227117853634,14.04692082111437
66.80872288390437,62,127,0,0.04028554246691514,66.79858603150944,10.136852394916911
66.82258320560157,61,52,2,0.009000000000000001,66.80071614792807,21.867057673509287
66.81809642808547,46,109,1,0.009000000000000001,66.80514432642369,12.952101661779082
66.82809642808547,62,76,1,0.0159765572141751,66.80998303610112,18.113391984359726
66.83258320560158,52,53,2,0.009000000000000001,66.81087255066512,21.71065493646139
66.84584815832345,58,76,1,0.02252291390785652,66.82773476633909,18.113391984359726
66.84258320560158,55,98,2,0.011671661464249888,66.82791067383228,14.672531769305962
66.85555171833964,54,68,2,0.009000000000000001,66.8361871044589,19.364613880742915
66.85348459775649,58,118,0,0.04499720127914157,66.84194012072814,11.544477028347998
66.86555171833965,62,54,2,0.029180896877271986,66.84399746614024,21.55425219941349
66.87087361822107,57,109,1,0.009000000000000001,66.85792151655929,12.952101661779082
66.88087361822107,56,82,1,0.009971041705147283,66.863698642659,17.174975562072337
66.89797493709217,64,71,2,0.009000000000000001,66.87907953142258,18.89540566959922
66.89195255344902,60,127,1,0.03716698268402604,66.8818157010541,10.136852394916911
66.90797493709218,51,75,2,0.009000000000000001,66.88970514237077,18.269794721407624
66.90348148806665,67,127,0,0.009000000000000001,66.89334463567172,10.136852394916911
66.91348148806665,62,77,0,0.009764601216158703,66.89552449881934,17.956989247311828
66.91797493709218,65,82,2,0.0351578028943399,66.90079996153011,17.174975562072337
66.9243310449735,56,98,0,0.01084905696368287,66.90965851320419,14.672531769305962
66.93324920087571,56,70,1,0.017944492750302177,66.91419739246906,19.05180840664712
66.93638555271093,45,94,0,0.010320624561230242,66.92108740999343,15.298142717497555
66.94785291333451,57,98,0,0.009000000000000001,66.93318038156521,14.672531769305962
66.95318752615383,46,87,1,0.009000000000000001,66.936794564277,16.392961876832846
66.95703916253034,64,89,2,0.030421438427458192,66.9409590061276,16.080156402737046
66.95785291333452,48,101,0,0.009000000000000001,66.94364958977636,14.203323558162268
66.97318752615384,56,46,1,0.0172222367369125,66.95038205205805,22.805474095796676
66.96785291333453,60,88,0,0.018413070579331982,66.95161635419474,16.236559139784944
66.96318752615383,63,127,1,0.009000000000000001,66.95305067375891,10.136852394916911
66.9883118806449,46,62,0,0.024971493600585735,66.96800885034187,20.303030303030305
66.99084076078307,67,82,2,0.009000000000000001,66.973665785221,17.174975562072337
66.9923233447504,65,96,1,0.009000000000000001,66.977338007507,14.985337243401759
67.00232334475041,52,81,1,0.01901259322263406,66.98499196645129,17.331378299120235
67.00084076078308,63,101,2,0.020488693587724757,66.98663743722491,14.203323558162268
67.01605798464556,50,77,0,0.039133201903146814,66.99810099539825,17.956989247311828
67.02360597588054,61,64,2,0.020013963594582854,67.00361575105161,19.990224828934508
67.02344844833111,50,90,1,0.009000000000000001,67.00752469466542,15.923753665689148
67.03344844833111,63,117,1,0.04916450704190476,67.02174756856571,11.700879765395896
67.04584371320786,61,61,2,0.009000000000000001,67.02538428016778,20.459433040078203
67.05584371320786,61,81,2,0.009000000000000001,67.03851233490875,17.331378299120235
67.06584371320787,52,53,2,0.08297147579980917,67.04413305827141,21.71065493646139
67.05953932009349,51,96,0,0.009000000000000001,67.04455398285009,14.985337243401759
67.0695393200935,58,68,0,0.02704977663538253,67.05017470621276,19.364613880742915
67.08807567837768,63,101,1,0.009000000000000001,67.07387235481951,14.203323558162268
67.09807567837768,39,62,1,0.009000000000000001,67.07777264807466,20.303030303030305
67.09959462746615,47,106,0,0.10774460023424888,67.08617331759322,13.421309872922777
67.10807567837769,39,73,1,0.009000000000000001,67.08949307818219,18.58260019550342
67.11807567837769,45,100,1,0.009000000000000001,67.10371595208248,14.359726295210166
67.1280756783777,57,115,1,0.033281613185061024,67.1160619931382,12.013685239491693
67.15803424187432,58,47,2,0.013600475190952978,67.13538517051558,22.649071358748778
67.16505524858331,50,105,1,0.009000000000000001,67.15147753597334,13.577712609970675
67.17505524858332,41,72,1,0.009000000000000001,67.15631624565077,18.73900293255132
67.17314588097538,60,99,2,0.009000000000000001,67.15862975194312,14.516129032258064
67.18505524858332,61,57,1,0.01926498876419248,67.16397020459506,21.085043988269796
67.18314588097539,46,121,2,0.028531228527234637,67.17207061215818,11.0752688172043
67.20646079165465,60,94,1,0.009000000000000001,67.19116264893715,15.298142717497555
67.21484724600565,57,48,2,0.009000000000000001,67.19235457738395,22.49266862170088
67.21931084994864,42,102,0,0.009549452629764808,67.20526392912753,14.04692082111437
67.21646079165465,41,126,1,0.009000000000000001,67.20616753652268,10.29325513196481
67.22484724600565,47,93,2,0.03510998409757443,67.2093927005511,15.454545454545453
67.2299213528706,53,84,0,0.009000000000000001,67.21305918278263,16.86217008797654
67.22646079165466,65,127,1,0.009000000000000001,67.21632393925974,10.136852394916911
67.23646079165466,55,79,1,0.009000000000000001,67.21881660788145,17.64418377321603
67.23992135287061,60,79,0,0.024252010415892748,67.2222771690974,17.64418377321603
67.24646079165467,70,94,1,0.009000000000000001,67.23116264893717,15.298142717497555
67.25646079165467,74,81,1,0.07564841692795087,67.23912941335556,17.331378299120235
67.2638583394474,56,78,2,0.01575548292835811,67.24605775293713,17.80058651026393
67.2768680311105,58,55,0,0.0319058915043328,67.25547018164814,21.397849462365592
67.26686803111049,51,121,0,0.009000000000000001,67.25579276229328,11.0752688172043
67.28136443159002,47,101,2,0.02677541384375818,67.26716110803186,14.203323558162268
67.31231902167086,52,78,0,0.011351604304223472,67.2945184351606,17.80058651026393
67.31111489141642,41,109,2,0.012053791596735522,67.29816278975464,12.952101661779082
67.32450799319058,49,79,2,0.014220304220226613,67.30686380941737,17.64418377321603
67.32493191534222,47,79,0,0.024680174527779705,67.307287731569,17.64418377321603
67.34030833121305,49,63,2,0.009000000000000001,67.32016170364707,20.146627565982406
67.34051458824129,50,82,1,0.014434541607111788,67.32333961267922,17.174975562072337
67.35030833121306,57,59,2,0.009000000000000001,67.32953609269889,20.772238514174
67.3523543314842,44,83,0,0.0271164658476524,67.33533575865917,17.01857282502444
67.35655296780475,52,81,1,0.010962381447276265,67.33922158950563,17.331378299120235
67.36030833121306,45,71,2,0.010405680666054878,67.34141292554347,18.89540566959922
67.36873339163505,62,63,1,0.009000000000000001,67.34858676406907,20.146627565982406
67.37187019861979,56,57,2,0.009000000000000001,67.35078515463152,21.085043988269796
67.3818701986198,51,48,2,0.011572544328272429,67.3593775299981,22.49266862170088
67.38248373798159,58,78,0,0.0234218324284681,67.36468315147133,17.80058651026393
67.37873339163505,58,112,1,0.009000000000000001,67.36625049818441,12.482893450635387
67.39472858120676,70,70,2,0.009000000000000001,67.37567677280012,19.05180840664712
67.38873339163506,45,127,1,0.009000000000000001,67.37859653924014,10.136852394916911
67.40472858120677,65,79,2,0.019832168407645942,67.38708439743355,17.64418377321603
67.39873339163506,54,118,1,0.009000000000000001,67.38718891460671,11.544477028347998
67.40873339163507,46,100,1,0.009000000000000001,67.39437366533986,14.359726295210166
67.40850799623544,54,119,0,0.022689089433790294,67.39711992194414,11.3880742913001
67.41873339163507,64,66,1,0.009000000000000001,67.39905597228024,19.67741935483871
67.43371809560632,56,63,0,0.009000000000000001,67.41357146804035,20.146627565982406
67.42873339163508,45,100,1,0.03415864416108027,67.41437366533987,14.359726295210166
67.42676432388193,43,126,2,0.011321872787573545,67.41647106874996,10.29325513196481
67.43934418253478,46,127,2,0.009000000000000001,67.42920733013986,10.136852394916911
67.44371809560633,39,100,0,0.009000000000000001,67.42935836931112,14.359726295210166
67.44934418253479,60,88,2,0.04960089154865447,67.433107623395,16.236559139784944
67.45371809560633,53,110,0,0.01317975469298798,67.4409223966816,12.795698924731184
67.46668744070294,42,92,1,0.0535543311157182,67.45107649251135,15.610948191593351
67.46836226748744,46,104,0,0.022693657756831846,67.45462815214042,13.734115347018573
67.4935774427728,59,123,0,0.019028525769343763,67.48281497942969,10.762463343108504
67.50445628425551,53,60,2,0.018748730161117486,67.48384044847839,20.6158357771261
67.51472024918318,60,55,0,0.03399885374834743,67.49332239972082,21.397849462365592
67.52619225305374,48,62,1,0.009000000000000001,67.50588922275071,20.303030303030305
67.52528820665675,46,115,2,0.0474968633992322,67.51327452141726,12.013685239491693
67.53619225305374,67,110,1,0.023920770774082663,67.52339655412901,12.795698924731184
67.55249675334801,53,91,0,0.05041422069269674,67.53672940241937,15.76735092864125
67.56277088724717,64,66,1,0.015687610963388242,67.54309346789233,19.67741935483871
67.57806249932257,39,72,2,0.009000000000000001,67.55932349639002,18.73900293255132
67.58020156609538,51,114,1,0.009000000000000001,67.56803147811884,12.170087976539591
67.59020156609539,47,81,1,0.022571418152033413,67.57287018779627,17.331378299120235
67.58806249932258,56,99,2,0.009000000000000001,67.57354637029032,14.516129032258064
67.59806249932258,58,64,2,0.025222342100668795,67.57807227449365,19.990224828934508
67.60851255411767,58,79,0,0.009000000000000001,67.59086837034445,17.64418377321603
67.61528091959765,59,91,1,0.009000000000000001,67.59951356866901,15.76735092864125
67.61851255411767,67,109,0,0.014715983391409247,67.60556045245589,12.952101661779082
67.62608732387888,55,87,2,0.030230602500904726,67.60969436200205,16.392961876832846
67.62528091959766,81,107,1,0.013885111243415158,67.61201601246178,13.264907135874878
67.64070882097923,56,59,1,0.07398279326608176,67.61993658246506,20.772238514174
67.63486364677479,35,126,0,0.009000000000000001,67.62457039164282,10.29325513196481
67.6448636467748,52,70,0,0.009000000000000001,67.62581183836815,19.05180840664712
67.6548636467748,49,87,0,0.011267107510057155,67.63847068489797,16.392961876832846
67.65967688221322,46,75,2,0.009000000000000001,67.64140708749181,18.269794721407624
67.66738265511931,59,94,0,0.009276775974012047,67.65208451240181,15.298142717497555
67.66967688221322,50,91,2,0.026854111929061057,67.65390953128458,15.76735092864125
67.67769018397932,49,93,0,0.012030409039365716,67.66223563852478,15.454545454545453
67.69105730513418,46,97,0,0.04338756795869181,67.67622837062783,14.82893450635386
67.69951478435662,53,123,2,0.011094317930115784,67.68875232101351,10.762463343108504
67.71184180427898,62,62,2,0.009000000000000001,67.69153877397595,20.303030303030305
67.72184180427898,55,87,2,0.009000000000000001,67.70544884240215,16.392961876832846
67.73184180427899,68,53,2,0.012313099344148728,67.71013114934253,21.71065493646139
67.72291192460821,47,111,1,0.011612743574462287,67.71027262842053,12.639296187683286
67.73581497302428,62,111,1,0.009000000000000001,67.72317567683659,12.639296187683286
67.73926571397718,56,91,0,0.01138095004429293,67.72349836304853,15.76735092864125
67.74581497302428,49,58,1,0.009000000000000001,67.72488633177306,20.928641251221897
67.74552302577248,65,102,2,0.01961975007898621,67.73147610495137,14.04692082111437
67.75581497302429,42,62,1,0.011548787633065966,67.73551194272126,20.303030303030305
67.75191121402639,62,105,0,0.011779567649360254,67.73833350141642,13.577712609970675
67.76864695928325,52,47,1,0.009000000000000001,67.7459978879245,22.649071358748778
67.76732274808246,60,77,2,0.009443420662612651,67.74936575883515,17.956989247311828
67.77812089800506,44,28,0,0.020166666398357146,67.75250017464239,25.620723362658847
67.76499962252568,64,116,0,0.011809147931441956,67.75314234002323,11.857282502443795
67.77781543770759,69,80,2,0.05320147706030338,67.76032765667142,17.487781036168133
67.77864695928325,55,80,1,0.010965013474452001,67.76115917824708,17.487781036168133
67.7908303075882,62,91,1,0.041259752836644306,67.77506295665955,15.76735092864125
67.80052830511434,45,78,0,0.01468170721429461,67.78272771860408,17.80058651026393
67.81684131313023,59,71,0,0.03506973849067185,67.79794590746063,18.89540566959922
67.83667447740669,51,104,1,0.009489258230227908,67.82294036205967,13.734115347018573
67.83692818999681,60,121,2,0.03287602241348365,67.8258529211796,11.0752688172043
67.84721809766249,64,78,1,0.009000000000000001,67.82941751115223,17.80058651026393
67.8572180976625,56,63,1,0.009000000000000001,67.83707147009652,20.146627565982406
67.8672180976625,45,31,1,0.037874582290052285,67.84206658251098,25.151515151515152
67.85580768923097,64,111,0,0.030060966236229565,67.84316839304329,12.639296187683286
67.87345710378958,51,69,2,0.018137431578933598,67.85424889264588,19.208211143695017
67.88920876282678,61,53,0,0.009000000000000001,67.86749810789033,21.71065493646139
67.89360980554395,58,95,2,0.009000000000000001,67.8784680655635,15.141739980449657
67.90930096687367,62,53,1,0.009000000000000001,67.88759031193722,21.71065493646139
67.89920876282679,69,118,0,0.07915549761901793,67.88766428579844,11.544477028347998
67.90360980554395,66,102,2,0.048205158936770465,67.88956288472284,14.04692082111437
67.91930096687368,56,104,1,0.014401284509265767,67.90556685152666,13.734115347018573
67.9353023941062,46,56,1,0.009000000000000001,67.91406094738089,21.241446725317694
67.9453023941062,49,73,1,0.028923606956005477,67.9267197939107,18.58260019550342
67.95717109325147,63,101,2,0.009000000000000001,67.94296776969331,14.203323558162268
67.96717109325148,45,54,2,0.01436527106271566,67.94561684105207,21.55425219941349
67.98313250554338,57,77,2,0.018625110062348366,67.96517551629607,17.956989247311828
67.97743973516843,61,127,1,0.009000000000000001,67.96730288277351,10.136852394916911
67.98743973516844,60,78,1,0.009000000000000001,67.96963914865817,17.80058651026393
67.9871593157368,33,120,0,0.009000000000000001,67.97592764418255,11.231671554252198
67.99743973516844,52,113,1,0.023958013473748447,67.98511324445485,12.32649071358749
67.99715931573681,53,116,0,0.019794424270611486,67.98530203323436,11.857282502443795
68.00382707227932,48,91,2,0.009000000000000001,67.98805972135068,15.76735092864125
68.01382707227933,52,104,2,0.009000000000000001,68.0000929569323,13.734115347018573
68.02405975013927,61,55,1,0.009000000000000001,68.00266190067691,21.397849462365592
68.02382707227933,60,91,2,0.009000000000000001,68.00805972135069,15.76735092864125
68.01915312048193,58,127,0,0.015049506234997016,68.00901626808701,10.136852394916911
68.03405975013928,58,60,1,0.01863304499171044,68.01344391436216,20.6158357771261
68.03382707227934,55,103,2,0.019305587271399884,68.01993655419527,13.890518084066471
68.03587479407638,70,127,0,0.06325862853671926,68.02573794168146,10.136852394916911
68.05527772480312,58,105,2,0.009000000000000001,68.04170001219315,13.577712609970675
68.06527772480312,54,46,2,0.030490649495476065,68.04247225070733,22.805474095796676
68.0547631334634,52,122,1,0.009000000000000001,68.04384426738324,10.918866080156402
68.0647631334634,49,64,1,0.009000000000000001,68.04477290863447,19.990224828934508
68.0747631334634,61,104,1,0.010766891816405064,68.06102901811639,13.734115347018573
68.08672634659274,53,127,1,0.009000000000000001,68.07658949419782,10.136852394916911
68.09672634659275,62,74,1,0.010839584052243376,68.0783001491343,18.426197458455523
68.09915622424255,51,108,2,0.015634204151912398,68.08604771984372,13.10850439882698
68.10616215911718,44,95,0,0.028372574306521067,68.09102041913673,15.141739980449657
68.10877032887302,52,100,1,0.009000000000000001,68.09441060257781,14.359726295210166
68.11877032887303,62,62,1,0.015937519671612027,68.09846729857,20.303030303030305
68.11652756218912,55,85,2,0.021856663058766615,68.09982179483819,16.705767350928642
68.13768724167997,70,69,0,0.020451874768485492,68.11847903053628,19.208211143695017
68.1364786840637,58,125,1,0.009000000000000001,68.12602902619469,10.449657869012707
68.14081274336553,46,127,2,0.025853469013561094,68.13067589097061,10.136852394916911
68.14647868406371,51,101,1,0.009000000000000001,68.13227536050555,14.203323558162268
68.16647868406372,53,37,1,0.031237973185876195,68.14226558533448,24.21309872922776
68.15647868406371,63,112,1,0.009000000000000001,68.14399579061308,12.482893450635387
68.16041154697828,61,118,0,0.009000000000000001,68.14886706994993,11.544477028347998
68.17041154697829,54,61,0,0.009000000000000001,68.14995211393821,20.459433040078203
68.16953882004726,50,85,2,0.061803437692190724,68.15283305269634,16.705767350928642
68.18041154697829,67,72,0,0.016414119665375752,68.16167254404574,18.73900293255132
68.20118754315914,57,76,1,0.014387313509272892,68.18307415117478,18.113391984359726
68.1986494577176,46,106,0,0.015521887069800329,68.18522814784467,13.421309872922777
68.21589599890626,56,60,0,0.010516848512229324,68.19528016312914,20.6158357771261
68.21717344705833,58,62,1,0.009000000000000001,68.1968704167553,20.303030303030305
68.22717344705833,49,41,1,0.010684513712813218,68.20358595927729,23.587487781036167
68.22758138614208,47,80,0,0.013277491380338737,68.21009360510591,17.487781036168133
68.23820930637193,54,29,2,0.009000000000000001,68.21274498574631,25.46432062561095
68.23904512896146,54,109,1,0.012399115444627403,68.22609302729968,12.952101661779082
68.24233415434246,64,97,0,0.009000000000000001,68.2275052198361,14.82893450635386
68.24820930637193,54,87,2,0.014351040849481012,68.2318163444951,16.392961876832846
68.25233415434246,65,76,0,0.009000000000000001,68.2342207623581,18.113391984359726
68.25282192389994,45,127,1,0.009740801376704529,68.24268507150502,10.136852394916911
68.2641549073158,59,74,2,0.013291009870493996,68.24572870985735,18.426197458455523
68.26364503654072,50,96,1,0.015704698351210602,68.24865969929732,14.985337243401759
68.26233415434247,41,114,0,0.009000000000000001,68.25016406636593,12.170087976539591
68.27233415434247,65,95,0,0.009000000000000001,68.25719241436202,15.141739980449657
68.27892269606079,43,87,2,0.027088779419120256,68.26252973418396,16.392961876832846
68.28233415434248,45,86,0,0.009000000000000001,68.2657847897286,16.549364613880744
68.2810947013754,51,100,1,0.009375534925244209,68.26673497508018,14.359726295210166
68.29233415434248,47,52,0,0.009000000000000001,68.27046709666898,21.867057673509287
68.29151196240345,46,117,1,0.009000000000000001,68.27981108263805,11.700879765395896
68.30151196240345,49,92,1,0.016677199366155065,68.28590101421186,15.610948191593351
68.30233415434249,51,92,0,0.009000000000000001,68.2867232061509,15.610948191593351
68.3123341543425,42,104,0,0.013580858314847163,68.29860003899547,13.734115347018573
68.30902133985981,62,127,2,0.0986497336582413,68.29888448746489,10.136852394916911
68.3200421839214,42,74,1,0.012343381762626726,68.30161598646295,18.426197458455523
68.32742399691455,42,69,0,0.018977134182459145,68.30821578577086,19.208211143695017
68.34375705254655,55,60,1,0.036722615126348224,68.32314121676943,20.6158357771261
68.33375705254655,49,126,1,0.009000000000000001,68.32346379741458,10.29325513196481
68.34850970156172,50,122,0,0.009000000000000001,68.33759083548156,10.918866080156402
68.35850970156173,48,74,0,0.020496894807483054,68.34008350410328,18.426197458455523
68.38455995824249,61,34,1,0.011418749062957471,68.35987765130211,24.682306940371458
68.3812840291256,67,92,0,0.022295133556551973,68.365673080934,15.610948191593351
68.39724745720133,45,93,1,0.04441660434982742,68.38179291174679,15.454545454545453
68.40605639974399,50,88,0,0.08104968125785973,68.3898198406042,16.236559139784944
68.41863215503564,70,99,2,0.014150900458490758,68.40411602600338,14.516129032258064
68.43435537776729,57,87,2,0.02993717424299344,68.41796241589046,16.392961876832846
68.44659923981224,54,66,1,0.009000000000000001,68.42692182045741,19.67741935483871
68.46761890470395,50,45,2,0.009000000000000001,68.44465702787112,22.961876832844574
68.45659923981225,54,127,1,0.02418295885526118,68.44646238741733,10.136852394916911
68.47761890470396,57,78,2,0.009000000000000001,68.4598183181937,17.80058651026393
68.48761890470396,54,50,2,0.009000000000000001,68.46543904155637,22.179863147605083
68.48346919409587,46,85,1,0.009000000000000001,68.46676342674495,16.705767350928642
68.49346919409588,54,89,1,0.015588256934421809,68.47738903769314,16.080156402737046
68.49761890470397,55,78,2,0.010142680341957417,68.47981831819371,17.80058651026393
68.4961116011416,60,127,0,0.009000000000000001,68.48597474874668,10.136852394916911
68.50611160114161,52,104,0,0.009000000000000001,68.49237748579459,13.734115347018573
68.50888854952836,42,108,2,0.021238932818755732,68.49578004512954,13.10850439882698
68.51078947957858,37,118,1,0.009000000000000001,68.49924500255023,11.544477028347998
68.51611160114162,57,101,0,0.009053711245750351,68.50190827758345,14.203323558162268
68.52078947957858,39,99,1,0.023431058051541855,68.50627335054632,14.516129032258064
68.52617128030356,55,91,0,0.016788084176461274,68.51040392937492,15.76735092864125
68.53248736377142,51,74,2,0.009000000000000001,68.51406116631297,18.426197458455523
68.5448247071663,57,33,0,0.009000000000000001,68.51998599748887,24.838709677419356
68.54682398852474,60,47,1,0.018468414496672626,68.524174917166,22.649071358748778
68.54248736377143,56,116,2,0.03750731559039788,68.53063008126898,11.857282502443795
68.5548247071663,54,93,0,0.01000967350975265,68.53937016171176,15.454545454545453
68.5673444490766,59,66,1,0.022561806444165868,68.54766702972177,19.67741935483871
68.56594656662159,39,112,0,0.017316915583175253,68.55346367317095,12.482893450635387
68.58416215887188,55,89,2,0.02563107999131512,68.56808200246914,16.080156402737046
68.58518758393623,39,95,0,0.012819419490400332,68.57004584395578,15.141739980449657
68.59241312290345,47,96,1,0.019962455485931004,68.57742778566005,14.985337243401759
68.59943138337,56,104,0,0.009894463903168596,68.58569726802298,13.734115347018573
68.61459362899893,55,56,1,0.009000000000000001,68.59335218227362,21.241446725317694
68.6104252321513,44,101,0,0.02950447170200612,68.59622190859314,14.203323558162268
68.61264113664001,50,95,2,0.015334981400774387,68.59749939665956,15.141739980449657
68.62459362899894,55,100,1,0.009000000000000001,68.61023390270373,14.359726295210166
68.62968000486309,61,78,2,0.009000000000000001,68.61187941835283,17.80058651026393
68.63459362899894,56,70,1,0.009000000000000001,68.6155418205923,19.05180840664712
68.6396800048631,42,62,2,0.01648816697891798,68.61937697456007,20.303030303030305
68.64459362899895,53,69,1,0.027789950261654237,68.62538541785526,19.208211143695017
68.64320797848686,66,101,0,0.014029650233327478,68.62900465492869,14.203323558162268
68.65879647874611,67,80,0,0.012485827534769367,68.64130869770995,17.487781036168133
68.65800019039523,64,86,2,0.009000000000000001,68.64145082578135,16.549364613880744
68.67266962045142,47,34,0,0.04074631846763532,68.64798731351104,24.682306940371458
68.66800019039523,60,92,2,0.06431928703137424,68.65238924220364,15.610948191593351
68.6754713515119,53,105,1,0.020697232867415934,68.66189363890193,13.577712609970675
68.69846827692014,48,81,1,0.025247711975838538,68.68113689862102,17.331378299120235
68.71794330763768,32,82,0,0.02251450529722964,68.70076833207561,17.174975562072337
68.72652129022663,55,83,1,0.0634655171398107,68.7095027174016,17.01857282502444
68.73946606487453,60,75,2,0.012349168472338391,68.72119627015313,18.269794721407624
68.7429594246346,69,100,0,0.015652027094013077,68.7285996983394,14.359726295210166
68.75318736317713,59,86,2,0.009000000000000001,68.73663799856325,16.549364613880744
68.76035056585017,60,54,0,0.009000000000000001,68.73879631365077,21.55425219941349
68.76318736317714,43,119,2,0.024242991986996313,68.75179928888583,11.3880742913001
68.77035056585018,64,127,0,0.04945490914697284,68.76021371345526,10.136852394916911
68.79012402094047,73,60,2,0.02042182048484819,68.76950818516335,20.6158357771261
68.79703853149309,42,89,1,0.010648878121513466,68.78095837509035,16.080156402737046
68.8128149325903,48,67,2,0.012998964693319822,68.79329391597251,19.521016617790814
68.80887061829476,44,93,1,0.016425325189087278,68.79341607284022,15.454545454545453
68.82530046490237,58,58,0,0.009000000000000001,68.80437182365115,20.928641251221897
68.82725822669398,62,59,2,0.009653495128756557,68.80648598817982,20.772238514174
68.82712097961597,58,127,1,0.05198923419173759,68.81698412722105,10.136852394916911
68.83530046490237,52,99,0,0.024966137350023555,68.82078433587012,14.516129032258064
68.83798433239261,45,95,2,0.07095498020317624,68.82284259241216,15.141739980449657
68.8630406175135,53,74,0,0.009000000000000001,68.84461442005505,18.426197458455523
68.87304061751351,50,85,0,0.02239748472345685,68.85633485016258,16.705767350928642
68.88488679538456,49,77,1,0.009000000000000001,68.86692980613725,17.956989247311828
68.89488679538456,65,60,1,0.009000000000000001,68.87427095960744,20.6158357771261
68.89792671165068,60,127,0,0.025496713587248244,68.88778985925576,10.136852394916911
68.90488679538457,62,86,1,0.009000000000000001,68.88833743077069,16.549364613880744
68.91682319928502,63,46,2,0.009000000000000001,68.89401772518923,22.805474095796676
68.91488679538458,69,78,1,0.012707754966387805,68.89708620887431,17.80058651026393
68.92625639341429,49,62,0,0.015128305941089966,68.90595336311127,20.303030303030305
68.92900652312501,62,73,1,0.03408509323653948,68.91042392292951,18.58260019550342
68.92682319928502,52,127,2,0.010154708045044937,68.9166863468901,10.136852394916911
68.93810620822396,58,80,2,0.0117125371151581,68.92061842718779,17.487781036168133
68.94306562223773,50,70,0,0.009022629982386616,68.92401381383108,19.05180840664712
68.95112013835191,53,90,2,0.009000000000000001,68.93519638468622,15.923753665689148
68.9530907666626,49,91,0,0.02525574675735042,68.93732341573396,15.76735092864125
68.96112013835192,56,90,2,0.009000000000000001,68.94519638468623,15.923753665689148
68.97112013835192,60,47,2,0.009000000000000001,68.94847106699318,22.649071358748778
68.9668788489434,42,94,1,0.01575317589583361,68.9515807062259,15.298142717497555
68.98112013835193,58,71,2,0.009000000000000001,68.96222473268233,18.89540566959922
68.9811527075041,49,104,0,0.009000000000000001,68.96741859215707,13.734115347018573
68.98438237771654,54,104,1,0.009000000000000001,68.97064826236952,13.734115347018573
68.99112013835193,59,64,2,0.009000000000000001,68.971129913523,19.990224828934508
68.9911527075041,52,96,0,0.02481455173961975,68.9761673702607,14.985337243401759
68.99438237771655,51,93,1,0.009000000000000001,68.978927832262,15.454545454545453
69.00112013835194,53,79,2,0.010623289422838494,68.98347595457872,17.64418377321603
69.00438237771655,43,97,1,0.012241553356379963,68.9895534432102,14.82893450635386
69.0129237932662,61,70,2,0.03802705312256401,68.99387198485955,19.05180840664712
69.01798410366808,67,73,1,0.015545481406854432,68.99940150347258,18.58260019550342
69.01872443165924,65,83,0,0.010066927102639288,69.00170585883421,17.01857282502444
69.02990990621772,59,39,0,0.028385754170065353,69.00600961296259,23.900293255131963
69.03525686078682,49,70,1,0.013083532651699505,69.01620505238017,19.05180840664712
69.0497941192887,53,69,1,0.009000000000000001,69.03058590814501,19.208211143695017
69.05517607451348,42,82,2,0.02447081170315003,69.03800109895141,17.174975562072337
69.05979411928871,58,60,1,0.009000000000000001,69.03917828351159,20.6158357771261
69.06144963307335,60,75,0,0.009000000000000001,69.04317983835195,18.269794721407624
69.07144963307336,59,73,0,0.009195970285254642,69.05286703287786,18.58260019550342
69.06979411928872,45,127,1,0.009000000000000001,69.0596572668938,10.136852394916911
69.07979411928872,50,92,1,0.016743007077284353,69.06418317109713,15.610948191593351
69.08166737783475,61,102,0,0.00998030122859935,69.06762045701363,14.04692082111437
69.08236586529476,48,122,2,0.009000000000000001,69.0714469992146,10.918866080156402
69.09236586529477,35,59,2,0.034738682462043244,69.0715936267806,20.772238514174
69.09275660142208,56,66,0,0.009000000000000001,69.07307918206725,19.67741935483871
69.0983974604857,44,74,1,0.009789377755421632,69.07997126302725,18.426197458455523
69.10275660142209,47,84,0,0.009000000000000001,69.08589443133411,16.86217008797654
69.10927454688061,62,56,1,0.02013580100252181,69.0880331001553,21.241446725317694
69.11275660142209,64,96,0,0.009000000000000001,69.09777126417869,14.985337243401759
69.1227566014221,52,121,0,0.014932583608246269,69.11168133260489,11.0752688172043
69.13164765910564,39,79,1,0.04381023995340764,69.11400347533242,17.64418377321603
69.1309644013637,54,86,2,0.07671491649917041,69.11441503674982,16.549364613880744
69.13934836098682,61,127,0,0.02184675786810366,69.1292115085919,10.136852394916911
69.16362253639582,72,88,0,0.009000000000000001,69.14738597725604,16.236559139784944
69.17362253639583,47,72,0,0.009000000000000001,69.15488353346328,18.73900293255132
69.18362253639583,52,86,0,0.028018947341086547,69.16707317178195,16.549364613880744
69.18032570349831,40,127,1,0.009000000000000001,69.17018885110339,10.136852394916911
69.19032570349832,61,103,1,0.03331409038696978,69.17643518541425,13.890518084066471
69.21475470010814,56,76,0,0.009000000000000001,69.19664130812379,18.113391984359726
69.21620319747389,53,84,2,0.009000000000000001,69.19934102738591,16.86217008797654
69.22475470010815,62,81,0,0.009000000000000001,69.20742332180903,17.331378299120235
69.22734135948384,50,72,1,0.013041964055584445,69.2086023565513,18.73900293255132
69.2262031974739,70,127,2,0.016653356053693277,69.21606634507897,10.136852394916911
69.23475470010816,48,110,0,0.010564995424068272,69.22195900118342,12.795698924731184
69.24470692642244,43,75,2,0.009000000000000001,69.22643713170103,18.269794721407624
69.24183243065671,71,102,1,0.009000000000000001,69.2277855098356,14.04692082111437
69.24649358391268,56,98,0,0.015094083977443013,69.23182105214337,14.672531769305962
69.25183243065672,61,98,1,0.009000000000000001,69.23715989888741,14.672531769305962
69.25470692642244,61,103,2,0.02350496820502294,69.24081640833838,13.890518084066471
69.26326478833207,33,51,0,0.009000000000000001,69.24124132792151,22.023460410557185
69.26183243065672,65,79,1,0.010236267279663997,69.24418824688351,17.64418377321603
69.27326478833207,56,102,0,0.009000000000000001,69.25921786751096,14.04692082111437
69.28082355776135,62,55,2,0.009000000000000001,69.25942570829899,21.397849462365592
69.27320606096747,55,127,1,0.023115976968556766,69.26306920857255,10.136852394916911
69.28326478833208,44,110,0,0.017052173198586575,69.27046908940734,12.795698924731184
69.29082355776136,51,107,2,0.02689899468576928,69.27755865062548,13.264907135874878
69.29889047982142,56,86,1,0.009000000000000001,69.28234111520754,16.549364613880744
69.30221164744162,42,74,0,0.01369684741593628,69.28378544998317,18.426197458455523
69.30889047982143,57,39,1,0.009000000000000001,69.28499018656629,23.900293255131963
69.31743036679266,39,90,0,0.021496177282444223,69.30150661312697,15.923753665689148
69.32071132963443,56,74,2,0.04971194011981627,69.30228513217598,18.426197458455523
69.31889047982143,54,101,1,0.038147543913047685,69.30468715626327,14.203323558162268
69.3523717952775,72,55,0,0.04743950914649086,69.33097394581515,21.397849462365592
69.3413150082176,58,127,0,0.00995110835391082,69.33117815582268,10.136852394916911
69.36127663972482,61,77,1,0.009000000000000001,69.34331965047751,17.956989247311828
69.37127663972483,47,106,1,0.010696550164446525,69.3578553298519,13.421309872922777
69.37594681865646,63,97,2,0.009000000000000001,69.3611178841501,14.82893450635386
69.3831616954631,53,73,1,0.022226946332392424,69.3645790952676,18.58260019550342
69.38594681865646,42,109,2,0.009623258523139906,69.37299471699468,12.952101661779082
69.39663932812662,53,89,2,0.07329993953056516,69.38055917172389,16.080156402737046
69.40508236099583,36,93,0,0.009000000000000001,69.38962781554129,15.454545454545453
69.4078583024991,47,114,1,0.03338382367890821,69.39568821452255,12.170087976539591
69.41508236099584,57,127,0,0.009000000000000001,69.40494550860092,10.136852394916911
69.42508236099584,50,74,0,0.009000000000000001,69.40665616353739,18.426197458455523
69.43508236099585,52,56,0,0.009000000000000001,69.41384091427054,21.241446725317694
69.44508236099585,66,80,0,0.029744654787665404,69.42759457995969,17.487781036168133
69.4449514399201,48,127,1,0.042102624768774514,69.43481458752518,10.136852394916911
69.47808370538282,62,45,2,0.012587378890595519,69.45512182854998,22.961876832844574
69.4781319774266,53,107,0,0.039436244989830394,69.46486707029072,13.264907135874878
69.49206968192792,62,58,2,0.046223400927265935,69.4711410406767,20.928641251221897
69.49173213410764,46,69,1,0.009000000000000001,69.47252392296394,19.208211143695017
69.50173213410764,57,87,1,0.009000000000000001,69.48533917223081,16.392961876832846
69.51173213410765,42,76,1,0.009000000000000001,69.49361874212329,18.113391984359726
69.52173213410765,57,52,1,0.009000000000000001,69.49986507643415,21.867057673509287
69.5219500274153,59,88,0,0.028290834487112962,69.50571346827552,16.236559139784944
69.53173213410766,52,84,1,0.02285027787775807,69.51486996401968,16.86217008797654
69.54342901629154,58,83,2,0.027988761024591358,69.52641044346652,17.01857282502444
69.55338428795653,49,112,0,0.009000000000000001,69.5409013945059,12.482893450635387
69.56338428795654,47,70,0,0.017649422406450975,69.5443324795499,19.05180840664712
69.55712133174961,51,126,1,0.011809850058704394,69.54682807661764,10.29325513196481
69.5702433873704,68,118,1,0.009000000000000001,69.55869891034204,11.544477028347998
69.5745276396522,38,114,2,0.010518026652015101,69.56235755167566,12.170087976539591
69.58299475729704,42,86,0,0.009000000000000001,69.56644539268316,16.549364613880744
69.5802433873704,58,127,1,0.013091174157636396,69.57010653497548,10.136852394916911
69.58621433593223,52,127,2,0.009000000000000001,69.5760774835373,10.136852394916911
69.59299475729705,40,85,0,0.009000000000000001,69.57628898994612,16.705767350928642
69.59478913643444,49,84,1,0.009000000000000001,69.57792696634647,16.86217008797654
69.59621433593223,48,89,2,0.09400671181025179,69.5801341795295,16.080156402737046
69.60299475729705,55,98,0,0.009000000000000001,69.58832222552775,14.672531769305962
69.61478913643445,48,50,1,0.009000000000000001,69.59260927328685,22.179863147605083
69.60478913643445,53,116,1,0.009000000000000001,69.592931853932,11.857282502443795
69.61299475729706,58,82,0,0.014706772998382205,69.59581978173499,17.174975562072337
69.62478913643446,58,75,1,0.02506893109428354,69.60651934171305,18.269794721407624
69.62933561618415,62,109,0,0.009000000000000001,69.61638351452237,12.952101661779082
69.63933561618416,72,77,0,0.009000000000000001,69.62137862693685,17.956989247311828
69.64933561618416,45,42,0,0.013198505660933295,69.62590453114018,23.43108504398827
69.652643504317,64,92,1,0.01859235653440256,69.6370325561254,15.610948191593351
69.66400062247409,53,98,0,0.009000000000000001,69.64932809070478,14.672531769305962
69.67330167824412,48,76,1,0.009000000000000001,69.65518828625976,18.113391984359726
69.6740006224741,36,73,0,0.018620338846898888,69.6554180222786,18.58260019550342
69.68330167824412,50,81,1,0.009000000000000001,69.665970299945,17.331378299120235
69.69330167824413,47,55,1,0.016827721218642785,69.67190382878177,21.397849462365592
69.69468988785954,54,96,0,0.01926532086350722,69.67970455061614,14.985337243401759
69.70066623794362,65,63,2,0.009000000000000001,69.68051961037764,20.146627565982406
69.71199914626484,59,67,1,0.009000000000000001,69.69247812964706,19.521016617790814
69.71066623794363,66,104,2,0.010879111998896617,69.6969321225966,13.734115347018573
69.7160957999301,54,96,0,0.009000000000000001,69.7011104626867,14.985337243401759
69.72199914626485,53,65,1,0.017588599890288718,69.70216532417297,19.83382209188661
69.7260957999301,66,72,0,0.009000000000000001,69.70735679699756,18.73900293255132
69.72275414016462,65,127,2,0.009000000000000001,69.7126172877697,10.136852394916911
69.73275414016463,44,90,2,0.009000000000000001,69.71683038649894,15.923753665689148
69.74154203503184,42,78,1,0.07424389647275642,69.72374144852158,17.80058651026393
69.73609579993011,45,120,0,0.01920950747348925,69.72486412837586,11.231671554252198
69.74275414016464,51,97,2,0.024993497364424713,69.72792520565828,14.82893450635386
69.75743969712288,61,93,0,0.009000000000000001,69.74198515166833,15.454545454545453
69.76743969712288,46,113,0,0.05763256028902325,69.75511320640929,12.32649071358749
69.77052469279177,58,99,2,0.02170873692835585,69.75600856375951,14.516129032258064
69.79464551160105,52,127,2,0.009000000000000001,69.78450865920613,10.136852394916911
69.80464551160105,31,80,2,0.024388914456667094,69.78715773056489,17.487781036168133
69.8240352533349,46,90,1,0.009244373778215164,69.80811149966921,15.923753665689148
69.83430677975514,57,82,1,0.009000000000000001,69.81713180419307,17.174975562072337
69.8314758752218,67,101,0,0.009000000000000001,69.81727255166363,14.203323558162268
69.83174430544179,48,121,2,0.03932908891084939,69.82066903662458,11.0752688172043
69.8414758752218,60,60,0,0.01989143607726143,69.82086003944468,20.6158357771261
69.84430677975514,51,69,1,0.009000000000000001,69.82509856861145,19.208211143695017
69.85430677975515,60,21,1,0.044217582530639066,69.82759123723315,26.715542521994134
69.8635774708632,59,76,0,0.019513869705978584,69.84546407887885,18.113391984359726
69.87544329312051,54,92,2,0.01422504762643518,69.85983234492892,15.610948191593351
69.8852595483143,45,111,0,0.05052100561640829,69.87262025212661,12.639296187683286
69.89124890159432,64,127,2,0.009000000000000001,69.8811120491994,10.136852394916911
69.90124890159433,56,116,2,0.009000000000000001,69.88939161909188,11.857282502443795
69.90343742701141,43,111,1,0.009000000000000001,69.89079813082373,12.639296187683286
69.91343742701142,36,68,1,0.009000000000000001,69.89407281313068,19.364613880742915
69.91124890159433,59,127,2,0.0522651856799051,69.90111204919941,10.136852394916911
69.92343742701142,48,58,1,0.020887819276827525,69.9025087857602,20.928641251221897
69.94139399899919,63,77,0,0.023999806127735845,69.92343700975188,17.956989247311828
69.94664611509678,47,102,1,0.009000000000000001,69.93259919427567,14.04692082111437
69.95664611509679,49,85,1,0.010047091102490259,69.93994034774586,16.705767350928642
69.96780954965512,61,81,1,0.009000000000000001,69.950478171356,17.331378299120235
69.96932133012756,65,74,2,0.009000000000000001,69.9508951326691,18.426197458455523
69.96806045025222,54,114,0,0.009000000000000001,69.95589036227568,12.170087976539591
69.97806045025223,63,81,0,0.013189841327777445,69.96072907195311,17.331378299120235
69.97932133012756,64,79,2,0.009288202032163614,69.96167714635435,17.64418377321603
69.97780954965512,63,97,1,0.026951724879146172,69.96298061514877,14.82893450635386
69.98964155460774,36,67,2,0.009000000000000001,69.97012053798996,19.521016617790814
69.99271582950531,49,71,0,0.13161696881724372,69.97382042383572,18.89540566959922
69.99964155460775,62,73,2,0.009000000000000001,69.98105895441225,18.58260019550342
70.00964155460775,57,78,2,0.012904452142691513,69.99184096809749,17.80058651026393
70.00775591063194,66,104,1,0.018779059927627035,69.99402179528492,13.734115347018573
70.0239798347663,48,100,2,0.02394652778115791,70.00962010847108,14.359726295210166
70.02862153277376,37,89,1,0.0233792424961255,70.01254137637102,16.080156402737046
70.05058708785647,56,75,2,0.039385568997153585,70.03231729313507,18.269794721407624
70.05459846888056,47,72,1,0.009000000000000001,70.03585946594801,18.73900293255132
70.07459846888057,64,11,1,0.012169006086653219,70.04631889898809,28.27956989247312
70.06459846888056,59,103,1,0.009000000000000001,70.0507079507965,13.890518084066471
70.08811958675463,48,117,1,0.009000000000000001,70.07641870698923,11.700879765395896
70.09811958675463,52,55,1,0.009000000000000001,70.07672173729227,21.397849462365592
70.09434883118664,57,92,2,0.01781739203821033,70.07873788299504,15.610948191593351
70.10811958675464,52,67,1,0.02044890240072781,70.08859857013685,19.521016617790814
70.11414593345131,55,52,2,0.009000000000000001,70.09227887577781,21.867057673509287
70.12414593345132,41,94,2,0.017219515208183656,70.10884779073382,15.298142717497555
70.13084058942212,51,84,1,0.009000000000000001,70.11397841933415,16.86217008797654
70.13895690596893,56,70,0,0.024563415173187494,70.11990509756228,19.05180840664712
70.14084058942213,50,115,1,0.009000000000000001,70.12882690418263,12.013685239491693
70.14327872812707,50,120,2,0.02320654898380062,70.13204705657282,11.231671554252198
70.15084058942213,48,85,1,0.009000000000000001,70.1341348220712,16.705767350928642
70.16084058942214,41,80,1,0.024590950666264266,70.14335280838597,17.487781036168133
70.16624958949468,55,63,0,0.03209793414102514,70.1461029619287,20.146627565982406
70.16906378255352,52,104,2,0.03812599697672139,70.1553296672065,13.734115347018573
70.1881638679402,65,99,1,0.010088030476403437,70.17364773890795,14.516129032258064
70.19937279069177,47,96,1,0.018453925400557947,70.18438745344837,14.985337243401759
70.20191396076248,47,103,0,0.012731820037966654,70.18802344267841,13.890518084066471
70.21606042747133,59,86,0,0.009000000000000001,70.19951106285745,16.549364613880744
70.21142600141654,52,127,2,0.024291066330300932,70.20128914902162,10.136852394916911
70.21987715224795,72,121,1,0.009000000000000001,70.20880188343074,11.0752688172043
70.22987715224795,53,71,1,0.009000000000000001,70.21098174657836,18.89540566959922
70.22606042747134,52,111,0,0.012767025107850037,70.21342113128365,12.639296187683286
70.23841607511687,54,83,2,0.010263598266958898,70.22139750229185,17.01857282502444
70.24024601092451,57,84,0,0.0133949970188645,70.22338384083653,16.86217008797654
70.23987715224796,63,127,1,0.009000000000000001,70.22974029985303,10.136852394916911
70.24982007319127,61,69,2,0.009000000000000001,70.23061186204758,19.208211143695017
70.24987715224796,48,105,1,0.009000000000000001,70.23629943963799,13.577712609970675
70.25987715224797,48,86,1,0.009000000000000001,70.24332778763409,16.549364613880744
70.25982007319128,57,95,2,0.029542480176085965,70.24467833321083,15.141739980449657
70.25512934094547,51,127,0,0.009000000000000001,70.24499248855055,10.136852394916911
70.26512934094548,59,80,0,0.02457835103659932,70.24764155990931,17.487781036168133
70.26987715224797,72,122,1,0.009000000000000001,70.25895828616781,10.918866080156402
70.27987715224798,47,65,1,0.009000000000000001,70.2600433301561,19.83382209188661
70.28987715224798,50,101,1,0.009230163002492154,70.27567382868982,14.203323558162268
70.29243861987503,55,90,0,0.009000000000000001,70.27651486620934,15.923753665689148
70.29264505116471,57,92,2,0.016404826199645967,70.27703410297312,15.610948191593351
70.30013288891742,52,79,1,0.01202631302971448,70.2824887051442,17.64418377321603
70.30243861987503,43,66,0,0.009000000000000001,70.2827612005202,19.67741935483871
70.31087263583099,49,79,2,0.061536202442001406,70.29322845205778,17.64418377321603
70.31243861987504,47,98,0,0.02763758681792763,70.29776608810573,14.672531769305962
70.31349545895043,64,123,1,0.009000000000000001,70.30273299560731,10.762463343108504
70.32349545895043,45,87,1,0.013624917845230983,70.3071024970736,16.392961876832846
70.33863425655625,56,109,1,0.03060808697537054,70.32568215489447,12.952101661779082
70.34314704967274,53,86,0,0.09479667808993385,70.32659768505886,16.549364613880744
70.37264324208444,57,77,1,0.009000000000000001,70.35468625283713,17.956989247311828
70.37924619409988,66,94,2,0.009000000000000001,70.36394805138238,15.298142717497555
70.38264324208444,62,78,1,0.009614107505608656,70.36484265557418,17.80058651026393
70.38924619409988,58,104,2,0.03819220412227717,70.37551207875286,13.734115347018573
70.39332558375735,55,87,1,0.009496868976285136,70.37693262188051,16.392961876832846
70.40387766039767,55,79,1,0.020430641173257488,70.38623347662445,17.64418377321603
70.4265783728124,58,64,1,0.009000000000000001,70.40658814798347,19.990224828934508
70.43168197645797,61,81,2,0.009000000000000001,70.41435059815885,17.331378299120235
70.4365783728124,49,65,1,0.026515184274031944,70.41674455072052,19.83382209188661
70.44168197645797,45,85,2,0.015729359217486746,70.42497620910704,16.705767350928642
70.44847669199488,55,56,0,0.009000000000000001,70.42723524526957,21.241446725317694
70.45847669199489,65,25,0,0.03891790844170385,70.43238676042108,26.08993157380254
70.46915904225519,52,26,2,0.009000000000000001,70.44322551341843,25.933528836754643
70.45915904225518,67,93,2,0.009000000000000001,70.44370449680063,15.454545454545453
70.46603968867244,59,118,1,0.009000000000000001,70.45449521164409,11.544477028347998
70.47603968867244,43,94,1,0.009000000000000001,70.46074154595495,15.298142717497555
70.47915904225519,64,81,2,0.009000000000000001,70.46182766395607,17.331378299120235
70.4891590422552,49,42,2,0.009000000000000001,70.46572795721121,23.43108504398827
70.48603968867245,59,109,1,0.018577665546147478,70.47308758701067,12.952101661779082
70.50171881248568,50,61,0,0.035792951864289914,70.4812593794456,20.459433040078203
70.4991590422552,48,124,2,0.06430548017504605,70.48855298164914,10.606060606060606
70.50668153927928,53,127,1,0.03264282367218184,70.49654468688436,10.136852394916911
70.54295134335949,61,98,1,0.02489644344274843,70.52827881159018,14.672531769305962
70.54148875900155,52,127,0,0.010591582019755704,70.53135190660663,10.136852394916911
70.55325718346795,64,87,0,0.015914655229134305,70.53686422159112,16.392961876832846
70.57060957578302,56,73,2,0.05622558927785396,70.55202697558752,18.58260019550342
70.57094013372254,56,84,0,0.009000000000000001,70.55407796363457,16.86217008797654
70.57061405829587,49,127,1,0.04207878433691419,70.56047720590095,10.136852394916911
70.58094013372255,51,111,0,0.009000000000000001,70.56830083753486,12.639296187683286
70.59094013372255,61,69,0,0.014984251552748023,70.57173192257886,19.208211143695017
70.60758930211449,57,68,0,0.009000000000000001,70.58822468823375,19.364613880742915
70.6175893021145,48,102,0,0.009000000000000001,70.60354238129338,14.04692082111437
70.61736826311467,49,111,1,0.026512642128729905,70.60472896692698,12.639296187683286
70.6275893021145,46,108,0,0.1369985912093046,70.61448079771567,13.10850439882698
70.63308245275842,76,121,2,0.009000000000000001,70.62200718394121,11.0752688172043
70.64308245275842,48,65,2,0.009000000000000001,70.62324863066654,19.83382209188661
70.64682675436882,48,87,1,0.009000000000000001,70.63043379249198,16.392961876832846
70.65682675436882,50,80,1,0.01859385199824565,70.63933897333266,17.487781036168133
70.65308245275843,52,120,2,0.015024901064783316,70.64185078120417,11.231671554252198
70.66977678727486,53,112,2,0.021664971907176686,70.65729389382422,12.482893450635387
70.67748658992242,45,115,1,0.009000000000000001,70.66547290468293,12.013685239491693
70.68748658992243,44,106,1,0.009000000000000001,70.6740652800495,13.421309872922777
70.69384897828283,62,90,2,0.03740517825474069,70.67792522461714,15.923753665689148
70.69748658992243,51,83,1,0.009000000000000001,70.68046801709741,17.01857282502444
70.70748658992244,57,33,1,0.011974056146719978,70.68264788024501,24.838709677419356
70.72079109675212,58,60,1,0.009000000000000001,70.700175260975,20.6158357771261
70.73079109675213,51,73,1,0.009000000000000001,70.71220849655663,18.58260019550342
70.73541028745477,49,91,2,0.021997247512371525,70.71964293652613,15.76735092864125
70.74079109675213,48,99,1,0.014900119622871856,70.72627496771987,14.516129032258064
70.75985167357963,47,73,2,0.009000000000000001,70.74126907338413,18.58260019550342
70.757346785222,55,108,1,0.01632424556049219,70.74423828082317,13.10850439882698
70.76985167357964,55,80,2,0.017729319318272527,70.75236389254347,17.487781036168133
70.77548483584476,49,67,1,0.03183090571597227,70.75596381922698,19.521016617790814
70.77980995901373,37,66,0,0.027304322348371046,70.7601325396589,19.67741935483871
70.78955091726661,58,103,2,0.021642738862871748,70.77566039918254,13.890518084066471
70.81085250886251,60,58,1,0.009000000000000001,70.7899238676113,20.928641251221897
70.81014809495636,45,78,0,0.011158646243838602,70.7923475084461,17.80058651026393
70.81359840489202,67,58,2,0.01215742210130066,70.7926697636408,20.928641251221897
70.82254659078285,51,36,0,0.009000000000000001,70.79817708931657,24.369501466275658
70.82085250886252,59,121,1,0.012555706864884162,70.8097772400453,11.0752688172043
70.82710665167124,59,93,2,0.039797813621830165,70.8116521062167,15.454545454545453
70.83480329426794,59,62,1,0.009000000000000001,70.81450026396492,20.303030303030305
70.83254659078285,46,89,0,0.0156823756242212,70.81646643438012,16.080156402737046
70.84480329426795,56,77,1,0.0311170176330899,70.82684630502064,17.956989247311828
70.84997145258754,60,110,0,0.009000000000000001,70.8371757536628,12.795698924731184
70.85997145258754,59,91,0,0.009000000000000001,70.8442041016589,15.76735092864125
70.87132644458438,47,80,2,0.009000000000000001,70.85383866354822,17.487781036168133
70.86997145258755,53,106,0,0.011912292208150828,70.85655014271462,13.421309872922777
70.87937775830471,36,62,1,0.009000000000000001,70.85907472800169,20.303030303030305
70.88320733281883,69,76,0,0.009000000000000001,70.86509394083447,18.113391984359726
70.88132644458439,50,91,2,0.06752087375024222,70.86555909365575,15.76735092864125
70.88937775830472,49,65,1,0.009000000000000001,70.86954393621284,19.83382209188661
70.89320733281883,33,107,0,0.009188782471852848,70.87994242568296,13.264907135874878
70.90341709112089,60,73,0,0.010975755446912514,70.88483449092539,18.58260019550342
70.89937775830472,35,114,1,0.009000000000000001,70.88720767032818,12.170087976539591
70.90937775830473,61,89,1,0.009000000000000001,70.89329760190199,16.080156402737046
70.91561237495078,54,72,0,0.009000000000000001,70.89687337201823,18.73900293255132
70.91937775830473,56,79,1,0.009000000000000001,70.90173357453152,17.64418377321603
70.92561237495079,61,71,0,0.01945246333503058,70.90671696928119,18.89540566959922
70.92937775830474,50,85,1,0.013529244381935566,70.91267199095381,16.705767350928642
70.94722622310083,61,69,0,0.033883669271640805,70.92801801195714,19.208211143695017
70.94441025206244,52,117,1,0.009000000000000001,70.93270937229704,11.700879765395896
70.95441025206244,65,94,1,0.017957748739621363,70.93911210934495,15.298142717497555
70.95634963764022,58,127,2,0.01366142140990805,70.9462127852453,10.136852394916911
70.97152899476234,58,109,2,0.012314352219197527,70.95857689310056,12.952101661779082
70.97436330621758,57,117,1,0.01665507637573695,70.96266242645218,11.700879765395896
70.98521160833923,63,70,2,0.009000000000000001,70.96615979993258,19.05180840664712
70.98487474451376,51,89,0,0.03211129772483614,70.96879458811102,16.080156402737046
70.99521160833923,54,52,2,0.009000000000000001,70.97334455066573,21.867057673509287
70.99286894663507,50,124,1,0.009000000000000001,70.982262886029,10.606060606060606
71.00286894663508,52,61,1,0.010588273493458183,70.982409513595,20.459433040078203
71.00521160833924,47,51,2,0.012447676279422795,70.98318814792869,22.023460410557185
71.01904235976082,57,63,2,0.009000000000000001,70.99889573219484,20.146627565982406
71.01463369496113,52,97,1,0.009000000000000001,70.99980476045478,14.82893450635386
71.02055396420802,53,66,0,0.03514601175324996,71.00087654485318,19.67741935483871
71.02463369496114,58,75,1,0.009000000000000001,71.00636390023973,18.269794721407624
71.02904235976082,47,113,2,0.02551466671627419,71.01671586904723,12.32649071358749
71.03463369496114,51,112,1,0.009000000000000001,71.0221508015105,12.482893450635387
71.04463369496115,53,106,1,0.009000000000000001,71.03121238508822,13.421309872922777
71.05463369496115,56,58,1,0.009000000000000001,71.03370505370994,20.928641251221897
71.05739198944558,52,77,2,0.019144744528000593,71.03943500019827,17.956989247311828
71.05960508837829,43,74,0,0.013470836618239343,71.04117889091984,18.426197458455523
71.06463369496116,31,92,1,0.017307317690684384,71.04902274676957,15.610948191593351
71.07866392781003,45,85,2,0.015909159450533804,71.0619581604591,16.705767350928642
71.07457268462078,46,120,0,0.021933778560019882,71.06334101306652,11.231671554252198
71.08386404795081,66,127,1,0.022771251285489253,71.07372719555589,10.136852394916911
71.09634077164395,49,68,2,0.02150190645619112,71.07697615776321,19.364613880742915
71.09894354968746,58,96,0,0.009000000000000001,71.08395821244406,14.985337243401759
71.10916543826802,58,106,1,0.011601281193872347,71.0957441283951,13.421309872922777
71.10894354968747,54,127,0,0.01848910824745794,71.09880669729255,10.136852394916911
71.1202317788175,54,89,2,0.03210496157206264,71.10415162241476,16.080156402737046
71.13205575070566,64,47,1,0.009000000000000001,71.10940667934692,22.649071358748778
71.12948700329575,51,67,0,0.013808570651920224,71.10996598667796,19.521016617790814
71.12205575070566,55,127,1,0.009000000000000001,71.11191889831073,10.136852394916911
71.14482985957567,70,71,0,0.009000000000000001,71.12593445390607,18.89540566959922
71.14205575070567,39,96,1,0.010319872831269528,71.12707041346226,14.985337243401759
71.15590395834201,72,79,2,0.009000000000000001,71.1382597745688,17.64418377321603
71.15352227607374,50,96,1,0.009000000000000001,71.13853693883034,14.985337243401759
71.15482985957567,52,100,0,0.05006645517800098,71.14047013328046,14.359726295210166
71.16352227607375,57,95,1,0.009000000000000001,71.1483805360933,15.141739980449657
71.16590395834201,46,114,2,0.009000000000000001,71.15373387036547,12.170087976539591
71.17352227607375,38,71,1,0.009000000000000001,71.15462687040416,18.89540566959922
71.17590395834202,51,102,2,0.009000000000000001,71.1618570375209,14.04692082111437
71.18352227607376,58,127,1,0.009000000000000001,71.17338542367884,10.136852394916911
71.18590395834202,55,116,2,0.009000000000000001,71.17404667583958,11.857282502443795
71.19352227607376,57,108,1,0.01631878242019626,71.18041377167494,13.10850439882698
71.19590395834203,58,98,2,0.009000000000000001,71.18123142657272,14.672531769305962
71.20590395834203,58,87,2,0.009000000000000001,71.1895109964652,16.392961876832846
71.21165425654065,61,60,1,0.026830290679943646,71.19103842076353,20.6158357771261
71.2104592542179,50,79,0,0.02000519745721777,71.19281507044468,17.64418377321603
71.21590395834204,57,104,2,0.02728382677072807,71.20216984299502,13.734115347018573
71.23268725139258,46,121,0,0.009000000000000001,71.22161198257537,11.0752688172043
71.24621932142063,54,50,2,0.03685999944958658,71.22403945827303,22.179863147605083
71.25268725139259,55,25,0,0.009000000000000001,71.22659731981878,26.08993157380254
71.25146569062949,62,39,1,0.0239040585114965,71.22756539737435,23.900293255131963
71.24268725139258,51,105,0,0.009000000000000001,71.22910953878261,13.577712609970675
71.24146569062948,51,127,1,0.009000000000000001,71.23132883823456,10.136852394916911
71.26268725139259,55,103,0,0.009000000000000001,71.24879673330852,13.890518084066471
71.2726872513926,45,69,0,0.038726802638370854,71.2534790402489,19.208211143695017
71.27802575564226,62,116,1,0.009000000000000001,71.26616847313981,11.857282502443795
71.28717487636462,40,87,2,0.028966524929578182,71.27078191448778,16.392961876832846
71.28802575564227,68,112,1,0.011526916402449018,71.27554286219163,12.482893450635387
71.30083344053388,46,79,1,0.015430955390572581,71.28318925676066,17.64418377321603
71.3157170321019,59,61,0,0.03758483035403973,71.29525759906183,20.459433040078203
71.31935990406414,52,73,2,0.011402555477123025,71.30077730386864,18.58260019550342
71.3179789465234,56,91,1,0.009000000000000001,71.30221159559476,15.76735092864125
71.3279789465234,49,37,1,0.031239305093755845,71.30376584779417,24.21309872922776
71.33202941014983,46,83,2,0.009000000000000001,71.3150108373248,17.01857282502444
71.34202941014983,41,77,2,0.022830421131813567,71.32407242090252,17.956989247311828
71.3574779547175,46,90,0,0.009000000000000001,71.3415542010518,15.923753665689148
71.36268928551647,47,78,1,0.034713047759220746,71.3448886990062,17.80058651026393
71.3674779547175,50,70,0,0.00910279234794329,71.34842614631086,19.05180840664712
71.36739654474074,57,88,2,0.021081623224707535,71.35115998560096,16.236559139784944
71.37759216843743,51,65,0,0.009000000000000001,71.35775834634555,19.83382209188661
71.38759216843744,63,69,0,0.08628997233438729,71.36838395729374,19.208211143695017
71.39082057054597,60,91,2,0.045770023868664876,71.37505321961733,15.76735092864125
71.40125933858226,49,72,1,0.009000000000000001,71.38252033564972,18.73900293255132
71.41125933858227,56,97,1,0.01310907815735234,71.39643040407591,14.82893450635386
71.42582498097933,46,48,1,0.009000000000000001,71.40333231235763,22.49266862170088
71.44167615262226,58,57,2,0.00906707058360201,71.420591108634,21.085043988269796
71.44582498097934,50,55,1,0.05057232625273735,71.42442713151698,21.397849462365592
71.43582498097933,55,127,1,0.009000000000000001,71.42568812858441,10.136852394916911
71.45175067549293,54,69,2,0.020547902307622705,71.43254246434924,19.208211143695017
71.47458167805695,59,64,2,0.010387573408669444,71.45459145322802,19.990224828934508
71.4861234262888,47,48,2,0.04489943101379476,71.4636307576671,22.49266862170088
71.48346991547564,59,83,0,0.01981810525539346,71.46645134265061,17.01857282502444
71.50201645459349,48,41,1,0.0205756381260053,71.47842896681244,23.587487781036167
71.50549003242608,47,79,0,0.009000000000000001,71.48784584865287,17.64418377321603
71.51549003242609,42,119,0,0.009000000000000001,71.50410195813478,11.3880742913001
71.52549003242609,44,70,0,0.010930441390874054,71.50643822401945,19.05180840664712
71.5348782747335,64,17,1,0.010214310721775222,71.50753712126331,27.341153470185727
71.5248782747335,43,103,1,0.009000000000000001,71.51098775664943,13.890518084066471
71.5360116829708,57,71,2,0.0271775811890006,71.5171162773012,18.89540566959922
71.53763496730484,61,68,0,0.014632521024182027,71.5182703534241,19.364613880742915
71.55389332399838,58,40,0,0.03838929857465901,71.53014943348029,23.743890518084065
71.54622750886881,56,101,1,0.011315828573360638,71.53202418531065,14.203323558162268
71.5588006517281,56,68,1,0.009912926990960419,71.53943603784737,19.364613880742915
71.56620899540302,67,61,2,0.009000000000000001,71.54574956236294,20.459433040078203
71.56981501505139,51,106,1,0.011161830835970886,71.55639370517846,13.421309872922777
71.57620899540302,52,104,2,0.017795839951662545,71.562474880056,13.734115347018573
71.58221704931358,64,127,1,0.04743432703090969,71.57208019691866,10.136852394916911
71.59598215090487,49,67,2,0.029362268374433544,71.57646113428709,19.521016617790814
71.59654810019245,56,90,0,0.009000000000000001,71.58062434652676,15.923753665689148
71.60654810019246,47,86,0,0.009000000000000001,71.58999873557858,16.549364613880744
71.61654810019246,73,61,0,0.009000000000000001,71.59608866715239,20.459433040078203
71.62654810019247,60,95,0,0.009000000000000001,71.61140636021202,15.141739980449657
71.62860689354314,54,92,2,0.02172226067990833,71.61299594535154,15.610948191593351
71.63654810019247,44,83,0,0.009000000000000001,71.61952952736745,17.01857282502444
71.6349218571257,49,108,1,0.009000000000000001,71.62181335272687,13.10850439882698
71.64654810019248,48,71,0,0.03993609884165365,71.62765269452288,18.89540566959922
71.64492185712571,57,106,1,0.009000000000000001,71.63150054725278,13.421309872922777
71.65274273874303,51,80,2,0.028212764752989443,71.63525495770686,17.487781036168133
71.65492185712571,61,75,1,0.025110415500450883,71.63665206240431,18.269794721407624
71.68282231879289,56,79,1,0.009000000000000001,71.66517813501967,17.64418377321603
71.68409025513525,40,95,2,0.009000000000000001,71.6689485151548,15.141739980449657
71.69092154334987,58,104,0,0.01608759023600462,71.67718742800285,13.734115347018573
71.69282231879289,64,106,1,0.009000000000000001,71.67940100891997,13.421309872922777
71.69409025513525,62,100,2,0.037599734913850394,71.67973052884004,14.359726295210166
71.7028223187929,69,90,1,0.014902613575082777,71.68689856512721,15.923753665689148
71.7087966436121,54,60,0,0.02187755647122415,71.68818080783498,20.6158357771261
71.71938077832077,53,68,1,0.009000000000000001,71.70001616444003,19.364613880742915
71.72938077832077,51,65,1,0.009000000000000001,71.70954695622889,19.83382209188661
71.73938077832078,41,52,1,0.013681146241641871,71.71751372064728,21.867057673509287
71.73586773837286,52,77,2,0.016775077954006512,71.71791074912555,17.956989247311828
71.73310503969124,38,109,0,0.017370960435681617,71.72015293802946,12.952101661779082
71.752406106842,52,81,0,0.009000000000000001,71.73507472854288,17.331378299120235
71.7645820519226,54,9,1,0.009000000000000001,71.73598967655603,28.592375366568916
71.75450671387732,57,120,2,0.011337368746178435,71.74327504232306,11.231671554252198
71.7545820519226,53,121,1,0.009000000000000001,71.74350678310539,11.0752688172043
71.76240610684201,60,75,0,0.009000000000000001,71.7441363121206,18.269794721407624
71.76710379026196,49,46,2,0.020782564352493683,71.74429831616617,22.805474095796676
71.77240610684201,50,99,0,0.024351078011177547,71.75788997780975,14.516129032258064
71.77458205192261,50,108,1,0.009000000000000001,71.76147354752378,13.10850439882698
71.7901955284314,58,67,2,0.009000000000000001,71.77067451181361,19.521016617790814
71.78458205192261,69,108,1,0.009000000000000001,71.77147354752378,13.10850439882698
71.79946286018776,56,56,0,0.04708674538967181,71.77822141346245,21.241446725317694
71.8001955284314,49,64,2,0.009000000000000001,71.78020530360247,19.990224828934508
71.79458205192262,57,102,1,0.009000000000000001,71.7805351311015,14.04692082111437
71.81019552843141,46,55,2,0.020694249334779972,71.78879767896905,21.397849462365592
71.80458205192262,50,101,1,0.009000000000000001,71.79037872836446,14.203323558162268
71.81458205192263,51,95,1,0.009000000000000001,71.79944031194218,15.141739980449657
71.82458205192263,35,50,1,0.009000000000000001,71.80240218877503,22.179863147605083
71.83458205192264,52,77,1,0.0393021266440108,71.81662506267533,17.956989247311828
71.83318913880339,57,121,2,0.04419787238397093,71.82211386998618,11.0752688172043
71.85178146617628,46,127,0,0.010169641152313558,71.84164461378136,10.136852394916911
71.86308106745662,44,110,0,0.01792025497904258,71.85028536853189,12.795698924731184
71.8782510815271,51,63,1,0.009000000000000001,71.85810445396112,20.146627565982406
71.88229788589669,52,54,2,0.013148393643621475,71.86074363369728,21.55425219941349
71.88299246187778,46,56,0,0.009000000000000001,71.86175101515246,21.241446725317694
71.8882510815271,63,127,1,0.014412984652438562,71.87811422913218,10.136852394916911
71.89299246187778,53,97,0,0.014094047960663558,71.87816352737143,14.82893450635386
71.89690721216738,64,94,2,0.009000000000000001,71.88160906944988,15.298142717497555
71.9042655089187,54,117,1,0.010918626884374666,71.8925646291533,11.700879765395896
71.9086525151674,56,93,0,0.02595571051525842,71.89319796971286,15.454545454545453
71.90690721216738,57,117,2,0.009000000000000001,71.89520633240198,11.700879765395896
71.91690721216739,58,85,2,0.012177777351321596,71.90020144481646,16.705767350928642
71.91639731656801,63,91,1,0.019541578436241953,71.90062996563937,15.76735092864125
71.93043807589108,67,113,2,0.026573590831545525,71.91811158517748,12.32649071358749
71.93811018149717,69,74,1,0.009000000000000001,71.91968398403871,18.426197458455523
71.93749219351768,58,86,0,0.011116589358688665,71.9209428289038,16.549364613880744
71.94811018149717,56,106,1,0.009000000000000001,71.93468887162425,13.421309872922777
71.95811018149718,58,57,1,0.009000000000000001,71.93702513750891,21.085043988269796
71.94984395947178,51,124,0,0.009000000000000001,71.93923789886571,10.606060606060606
71.95996428792613,56,61,2,0.03494492759456892,71.93950485488605,20.459433040078203
71.95984395947178,67,108,0,0.012094414566048988,71.94673545507295,13.10850439882698
71.96811018149718,58,97,1,0.009000000000000001,71.95328124699083,14.82893450635386
71.9732821978785,57,89,0,0.030443187127012734,71.95720204147577,16.080156402737046
71.97811018149719,70,81,1,0.01974803938404198,71.96077880319807,17.331378299120235
71.99879198525342,53,99,2,0.04502797036517568,71.98427585622116,14.516129032258064
72.00005244747946,53,122,1,0.018888079117495696,71.9891335813993,10.918866080156402
72.01794910541311,60,12,0,0.01224687092244777,71.98982593825768,28.12316715542522
72.00710796135296,65,108,0,0.009757029654139037,71.99399945695413,13.10850439882698
72.02103920205445,50,94,1,0.009179072394126292,72.00574105933696,15.298142717497555
72.03123817138126,65,85,1,0.009000000000000001,72.01453240403033,16.705767350928642
72.03155673977139,62,96,0,0.033764250388597,72.01657140252799,14.985337243401759
72.04123817138127,58,78,1,0.011373939554729267,72.023437584871,17.80058651026393
72.04882306343694,47,68,2,0.01257904662037796,72.0294584495562,19.364613880742915
72.05387588199763,52,47,1,0.025528968008028945,72.03122681063888,22.649071358748778
72.06279978190403,58,77,2,0.01618303149726,72.04484279265672,17.956989247311828
72.0690725735365,54,48,0,0.020351466940598327,72.04657990491481,22.49266862170088
72.08224140200655,51,72,1,0.009214745434857407,72.063502399074,18.73900293255132
72.0807809280121,52,127,2,0.0200314625420804,72.07064407561718,10.136852394916911
72.09248000804527,60,79,1,0.009000000000000001,72.07483582427206,17.64418377321603
72.09168531458161,49,88,0,0.02566290311493705,72.07544875544183,16.236559139784944
72.10248000804528,62,97,1,0.011808588302882483,72.08765107353892,14.82893450635386
72.10303810861441,57,111,2,0.023648600102740353,72.09039881242673,12.639296187683286
72.11560066171515,58,96,1,0.009000000000000001,72.10061532447175,14.985337243401759
72.12019965137598,58,87,0,0.027933542432266395,72.10380668949915,16.392961876832846
72.12931433095079,55,34,2,0.027891746649863814,72.10463202401041,24.682306940371458
72.12560066171515,60,125,1,0.01706581806630805,72.11515100384614,10.449657869012707
72.14456268178883,68,79,1,0.03213506619432704,72.12691849801561,17.64418377321603
72.15123692074516,58,99,0,0.009000000000000001,72.1367207917129,14.516129032258064
72.16030516056175,59,62,2,0.027938725977113967,72.14000213025872,20.303030303030305
72.16123692074517,54,66,0,0.014434398190975126,72.14155950139033,19.67741935483871
72.17727514095736,49,63,0,0.01726275541984337,72.15712851339138,20.146627565982406
72.18026831089364,46,94,1,0.0386447970915874,72.16497016817614,15.298142717497555
72.19645598031275,54,93,0,0.011868222240025001,72.1810014348582,15.454545454545453
72.19134818942521,34,127,2,0.05752000560787312,72.18121133703029,10.136852394916911
72.20964289391277,57,56,0,0.030316001542076306,72.18840144718746,21.241446725317694
72.22320697432873,52,68,1,0.035601037588026754,72.203842360448,19.364613880742915
72.24332734007064,52,107,0,0.009000000000000001,72.23006243293476,13.264907135874878
72.2552593067673,48,68,2,0.009000000000000001,72.23589469288656,19.364613880742915
72.25332734007064,55,121,0,0.009000000000000001,72.24225207125343,11.0752688172043
72.26276368275987,56,106,1,0.009000000000000001,72.24934237288694,13.421309872922777
72.2652593067673,53,93,2,0.016212088867678817,72.24980476131276,15.454545454545453
72.26332734007065,64,113,0,0.01312068010499048,72.25100084935706,12.32649071358749
72.27276368275987,75,89,1,0.009000000000000001,72.25668352635714,16.080156402737046
72.27790587352064,44,58,0,0.009000000000000001,72.25697723226942,20.928641251221897
72.2832727388425,34,91,2,0.03251069508497926,72.26750538791386,15.76735092864125
72.28790587352064,59,76,0,0.019764232798669755,72.26979248153629,18.113391984359726
72.28276368275988,55,111,1,0.009000000000000001,72.27012438657219,12.639296187683286
72.29276368275988,46,103,1,0.009000000000000001,72.27887316467582,13.890518084066471
72.30276368275989,54,101,1,0.01700188229275116,72.28856035920172,14.203323558162268
72.30986613218583,59,89,0,0.009000000000000001,72.2937859757831,16.080156402737046
72.32165466308517,53,59,1,0.009000000000000001,72.300882424571,20.772238514174
72.31939573338137,57,90,2,0.021923972043297425,72.30347197971568,15.923753665689148
72.31986613218584,52,123,0,0.021277403803545217,72.30910366884272,10.762463343108504
72.33165466308517,64,67,1,0.009000000000000001,72.31213364646739,19.521016617790814
72.34375570231836,58,51,2,0.009000000000000001,72.32173224190781,22.023460410557185
72.34350769196756,44,78,0,0.026413474474528444,72.3257071054573,17.80058651026393
72.34165466308518,54,91,1,0.04964164511275882,72.32588731215654,15.76735092864125
72.35375570231837,62,86,2,0.009000000000000001,72.33720633770449,16.549364613880744
72.36375570231837,63,127,2,0.014737171339843636,72.35361884992345,10.136852394916911
72.37285599693925,55,69,0,0.020090878125944917,72.35364778579556,19.208211143695017
72.38013033714041,42,122,2,0.018125220008075583,72.36921147106025,10.918866080156402
72.40026947048273,64,91,2,0.014603390177316303,72.38450211955409,15.76735092864125
72.39517919485696,64,127,0,0.009064627865526398,72.38504234246204,10.136852394916911
72.3968120465438,52,127,1,0.009000000000000001,72.38667519414888,10.136852394916911
72.40525100359643,56,102,0,0.04287169634121861,72.39120408277532,14.04692082111437
72.4068120465438,53,97,1,0.009000000000000001,72.39198311203745,14.82893450635386
72.41649545956864,63,78,2,0.009000000000000001,72.39869487305837,17.80058651026393
72.41681204654381,56,115,1,0.009000000000000001,72.40479836130432,12.013685239491693
72.42681204654382,62,69,1,0.009000000000000001,72.40760383540012,19.208211143695017
72.42649545956864,61,127,2,0.01664032896535601,72.41635860717372,10.136852394916911
72.43681204654382,58,77,1,0.009000000000000001,72.41885505729651,17.956989247311828
72.44498471397459,39,89,2,0.009000000000000001,72.42890455757185,16.080156402737046
72.44681204654383,52,87,1,0.009000000000000001,72.430419084667,16.392961876832846
72.4549847139746,60,57,2,0.015287329223658054,72.43389966998633,21.085043988269796
72.45681204654383,41,94,1,0.025016504315966036,72.44151390382633,15.298142717497555
72.45288622175335,54,122,0,0.04051884076788316,72.44196735567319,10.918866080156402
72.47197063533422,49,88,2,0.009000000000000001,72.45573407619443,16.236559139784944
72.48197063533422,60,81,2,0.009000000000000001,72.4646392570351,17.331378299120235
72.49197063533423,53,45,2,0.025827327236447765,72.46900875850139,22.961876832844574
72.48460816245046,53,104,1,0.009000000000000001,72.47087404710344,13.734115347018573
72.49460816245046,56,91,1,0.020942482597147344,72.47884081152182,15.76735092864125
72.49790715593988,66,93,0,0.011201224956171037,72.48245261048534,15.454545454545453
72.51035296144674,49,71,0,0.01616785776455753,72.49145755577715,18.89540566959922
72.5178775875584,60,76,1,0.009196766744721488,72.49976419557404,18.113391984359726
72.52066766559695,51,109,2,0.01790870933118822,72.50771556393516,12.952101661779082
72.52809621727476,72,84,1,0.009000000000000001,72.51123404718679,16.86217008797654
72.5283172478518,74,101,0,0.009000000000000001,72.51411392429364,14.203323558162268
72.53809621727477,63,89,1,0.009000000000000001,72.52201606087203,16.080156402737046
72.54056623152049,67,79,2,0.009000000000000001,72.52292204774727,17.64418377321603
72.54831724785181,63,50,0,0.01926796791052723,72.52613738470421,22.179863147605083
72.53831724785181,76,127,0,0.009000000000000001,72.52818039545689,10.136852394916911
72.54809621727478,75,68,1,0.009000000000000001,72.52873160339404,19.364613880742915
72.55056623152049,51,74,2,0.010668012399015825,72.53214003406204,18.426197458455523
72.55809621727478,60,63,1,0.009359257428267804,72.5379495897088,20.146627565982406
72.56241957863051,54,83,2,0.009000000000000001,72.54540100580549,17.01857282502444
72.56849539219508,60,97,1,0.009000000000000001,72.55366645768872,14.82893450635386
72.56972610108573,46,97,0,0.009000000000000001,72.55489716657938,14.82893450635386
72.57849539219508,59,66,1,0.018712018834096317,72.55881797284025,19.67741935483871
72.57241957863052,57,119,2,0.01587216413310913,72.56103150433921,11.3880742913001
72.57972610108574,64,84,0,0.009000000000000001,72.56286393099776,16.86217008797654
72.58972610108574,49,92,0,0.04650701655534726,72.57411515289415,15.610948191593351
72.59005531655619,64,90,2,0.009000000000000001,72.5741315628905,15.923753665689148
72.59928652423297,60,99,1,0.009000000000000001,72.5847703952007,14.516129032258064
72.60928652423297,52,49,1,0.009000000000000001,72.58695025834832,22.33626588465298
72.6000553165562,55,110,2,0.011878191059175175,72.58725961763146,12.795698924731184
72.61325330662194,43,71,2,0.07632214795885273,72.59435790095235,18.89540566959922
72.61928652423298,55,106,1,0.04283634598238126,72.60586521436005,13.421309872922777
72.64140056392502,56,93,0,0.030812433958285305,72.62594601847047,15.454545454545453
72.6668824642134,49,86,1,0.009000000000000001,72.65033309959952,16.549364613880744
72.6768824642134,47,55,1,0.01182780453522286,72.65548461475105,21.397849462365592
72.67563660165645,59,73,0,0.03599637245437439,72.65705400146095,18.58260019550342
72.69002446925255,52,59,1,0.009000000000000001,72.66925223073838,20.772238514174
72.69805569324289,77,66,2,0.03354369358556934,72.67837827388806,19.67741935483871
72.70002446925255,40,64,1,0.011494834503813512,72.68003424442362,19.990224828934508
72.71279650759013,51,95,1,0.019995824259514954,72.69765476760968,15.141739980449657
72.7156325710502,47,85,0,0.009000000000000001,72.69892680369927,16.705767350928642
72.7256325710502,62,88,0,0.009000000000000001,72.70939601191041,16.236559139784944
72.7356325710502,54,99,0,0.012146557182662299,72.72111644201794,14.516129032258064
72.73532646389353,54,111,2,0.012144849375799205,72.72268716770584,12.639296187683286
72.7350140901007,72,124,1,0.009000000000000001,72.72440802949464,10.606060606060606
72.74501409010071,37,97,1,0.009000000000000001,72.73018515559436,14.82893450635386
72.74882074097775,50,75,2,0.009000000000000001,72.73055094625634,18.269794721407624
72.7491287456976,70,86,0,0.012024076440694694,72.73257938108372,16.549364613880744
72.76501409010072,50,43,1,0.07657436626354999,72.74173940779379,23.27468230694037
72.75501409010072,60,116,1,0.009000000000000001,72.74315680759827,11.857282502443795
72.75882074097775,59,104,2,0.01783376588559964,72.74508662563073,13.734115347018573
72.76248883063171,50,101,0,0.016034041133976603,72.74828550707355,14.203323558162268
72.7786360364062,48,84,2,0.05782110783519239,72.76177386631822,16.86217008797654
72.78030443189168,55,127,0,0.009000000000000001,72.77016757949676,10.136852394916911
72.79030443189168,53,79,0,0.054297824370260823,72.77266024811847,17.64418377321603
72.84288171177863,48,77,2,0.022934886084556835,72.82492472253132,17.956989247311828
72.85063534785864,58,99,0,0.009000000000000001,72.83611921882638,14.516129032258064
72.85009671928245,51,113,1,0.009000000000000001,72.83777022856886,12.32649071358749
72.86009671928245,44,91,1,0.009000000000000001,72.84432936835381,15.76735092864125
72.86063534785865,53,103,0,0.06790880261397068,72.84674482977458,13.890518084066471
72.87009671928246,61,59,1,0.009054358598655486,72.84932448076829,20.772238514174
72.86836491853924,50,92,2,0.009000000000000001,72.85275397034765,15.610948191593351
72.87836491853925,62,92,2,0.009607668890330788,72.86275397034765,15.610948191593351
72.8801571177254,57,105,1,0.009000000000000001,72.86657940511543,13.577712609970675
72.88904010619517,47,78,2,0.016304031900746366,72.8712395196849,17.80058651026393
72.89015711772541,38,127,1,0.015278176377815917,72.88002026533049,10.136852394916911
72.90713286925632,33,64,1,0.009000000000000001,72.88714264442739,19.990224828934508
72.907155697196,58,69,2,0.01202410965564045,72.88794748605231,19.208211143695017
72.91713286925632,46,61,1,0.009000000000000001,72.89667343621625,20.459433040078203
72.9205158190356,39,117,2,0.009000000000000001,72.9088149392702,11.700879765395896
72.93713286925633,51,39,1,0.02871144457752756,72.91323257600119,23.900293255131963
72.92713286925633,67,106,1,0.009000000000000001,72.9137115593834,13.421309872922777
72.9305158190356,58,127,2,0.02046476300962889,72.92037896664068,10.136852394916911
72.93608957298528,53,108,0,0.020554105611899944,72.92298106858645,13.10850439882698
72.95325444460185,55,69,2,0.009000000000000001,72.93404623345816,19.208211143695017
72.95892746810962,58,82,0,0.009000000000000001,72.94175249254755,17.174975562072337
72.96903447434248,48,44,1,0.009000000000000001,72.9459161947726,23.118279569892472
72.96892746810963,44,84,0,0.03070970375509474,72.95206529802165,16.86217008797654
72.96325444460186,62,125,2,0.009000000000000001,72.95280478673284,10.449657869012707
72.97903447434248,58,66,1,0.009000000000000001,72.95935705498765,19.67741935483871
72.97325444460186,52,126,2,0.0421057832119007,72.9629611894699,10.29325513196481
72.98903447434249,59,60,1,0.009879970560362687,72.96841863856537,20.6158357771261
73.00001221940956,65,57,1,0.009000000000000001,72.97892717542129,21.085043988269796
73.00304936117084,56,68,0,0.009000000000000001,72.9836847472901,19.364613880742915
73.01001221940956,55,94,1,0.009000000000000001,72.99471407669206,15.298142717497555
73.02304936117085,67,39,0,0.009000000000000001,72.99914906791571,23.900293255131963
73.02001221940957,42,62,1,0.009688312445657465,72.99970918910654,20.303030303030305
73.02003864817064,51,66,2,0.009000000000000001,73.0003612288158,19.67741935483871
73.01304936117084,61,125,0,0.009000000000000001,73.00259970330183,10.449657869012707
73.03304936117085,50,39,0,0.034375743617065316,73.00914906791571,23.900293255131963
73.03003864817065,51,98,2,0.03615518278881111,73.01536611640134,14.672531769305962
73.03077701101586,59,98,1,0.009000000000000001,73.01610447924655,14.672531769305962
73.05077701101587,67,62,1,0.009000000000000001,73.03047398071284,20.303030303030305
73.04077701101586,59,127,1,0.009000000000000001,73.03064015862094,10.136852394916911
73.06077701101587,62,75,1,0.03945054211259195,73.04250721629447,18.269794721407624
73.07021107349155,51,43,2,0.009644828843810658,73.04693639118462,23.27468230694037
73.07124463185649,60,51,0,0.017270108410361334,73.04922117144594,22.023460410557185
73.09043364120133,61,55,0,0.009000000000000001,73.06903579173897,21.397849462365592
73.08092754998468,52,117,2,0.009000000000000001,73.06922667021928,11.700879765395896
73.09092754998468,66,127,2,0.0269627455067595,73.08079069758976,10.136852394916911
73.10043364120133,52,91,0,0.014411664748584154,73.0846662902727,15.76735092864125
73.10461094669652,69,79,1,0.009000000000000001,73.08696676292331,17.64418377321603
73.11461094669653,66,106,1,0.024753739043486586,73.1011896368236,13.421309872922777
73.12088615610331,61,66,2,0.009000000000000001,73.10120873674848,19.67741935483871
73.1164466020331,47,101,0,0.023540668590733914,73.10224327847493,14.203323558162268
73.13088615610332,52,113,2,0.009000000000000001,73.11855966538972,12.32649071358749
73.14211510118929,59,101,1,0.009000000000000001,73.12791177763113,14.203323558162268
73.14260290046724,53,103,0,0.023969903878915406,73.12871238238317,13.890518084066471
73.14088615610332,51,127,2,0.04030970740896747,73.1307493037084,10.136852394916911
73.1521151011893,64,126,1,0.011477892215674829,73.14182184605733,10.29325513196481
73.16923612699937,50,81,0,0.009000000000000001,73.15190474870025,17.331378299120235
73.16486831476227,60,127,1,0.009000000000000001,73.15473146236735,10.136852394916911
73.17486831476228,58,87,1,0.03331536219426826,73.15847535288545,16.392961876832846
73.17923612699937,40,88,0,0.01073783192677998,73.16299956785959,16.236559139784944
73.18567471989107,49,127,2,0.045166493265213915,73.17553786749615,10.136852394916911
73.19116705136246,60,110,0,0.009000000000000001,73.17837135243772,12.795698924731184
73.20116705136246,65,102,0,0.055512544312743155,73.18712013054135,14.04692082111437
73.21188538386703,67,81,1,0.01880580874316804,73.19455400556791,17.331378299120235
73.232780726915,62,88,1,0.009000000000000001,73.21654416777521,16.236559139784944
73.23585971240797,53,70,2,0.011711214561033297,73.21680790400133,19.05180840664712
73.24887217303134,51,59,2,0.01505120372291436,73.22809993451718,20.772238514174
73.242780726915,60,106,1,0.018380557449311826,73.22935941704208,13.421309872922777
73.26284765615439,62,73,0,0.027506880556637758,73.24426505595889,18.58260019550342
73.26320356852534,71,82,1,0.009000000000000001,73.24602859296327,17.174975562072337
73.27320356852535,68,65,1,0.013358059785091594,73.25336974643346,19.83382209188661
73.26559573272347,57,121,2,0.009000000000000001,73.25452046390626,11.0752688172043
73.27559573272347,60,85,2,0.016154453039333227,73.25888996537255,16.705767350928642
73.28804585717545,52,93,1,0.012550642481952014,73.2725913117209,15.454545454545453
73.2935451249894,69,72,2,0.009000000000000001,73.27480612205684,18.73900293255132
73.30199101548872,43,50,1,0.01429445148952753,73.27981115234113,22.179863147605083
73.29341085677288,68,127,0,0.009000000000000001,73.28327400437796,10.136852394916911
73.3035451249894,43,64,2,0.01612733565802602,73.28355490016047,19.990224828934508
73.30341085677289,50,76,0,0.04822402819382891,73.28529746478853,18.113391984359726
73.31787373936598,52,86,1,0.009000000000000001,73.3013243747521,16.549364613880744
73.32146438683165,49,81,2,0.025659466083825362,73.30413300853253,17.331378299120235
73.32787373936598,55,70,1,0.009000000000000001,73.30882193095934,19.05180840664712
73.33787373936599,48,108,1,0.009000000000000001,73.32476523496716,13.10850439882698
73.34997490470256,69,56,2,0.015375540084791143,73.32873345797725,21.241446725317694
73.35699311032158,52,45,0,0.009000000000000001,73.33403123348874,22.961876832844574
73.347873739366,46,120,1,0.023686354765517864,73.33664206781174,11.231671554252198
73.36699311032159,72,41,0,0.011967649960804894,73.34340562254054,23.587487781036167
73.37419191132769,57,36,1,0.009000000000000001,73.3498224098614,24.369501466275658
73.3670588381301,47,86,2,0.014169875501264032,73.35050947351623,16.549364613880744
73.38029049916693,55,25,0,0.04276335814514904,73.35420056759313,26.08993157380254
73.38280314424262,41,71,2,0.009000000000000001,73.36390773857302,18.89540566959922
73.38419191132769,62,81,1,0.01631949377580078,73.36686053302857,17.331378299120235
73.39280314424262,62,68,2,0.009000000000000001,73.37343853036188,19.364613880742915
73.40280314424263,54,76,2,0.009000000000000001,73.38468975225827,18.113391984359726
73.40232468218969,70,116,1,0.012759548598180761,73.39046739968724,11.857282502443795
73.41280314424263,49,81,2,0.009000000000000001,73.39547176594351,17.331378299120235
73.41650195840988,55,74,1,0.009000000000000001,73.39807576095143,18.426197458455523
73.42280314424264,50,47,2,0.009358030394420147,73.4001540728839,22.649071358748778
73.42780534155042,60,73,0,0.023179809513385052,73.40922274135492,18.58260019550342
73.42650195840989,53,87,1,0.009000000000000001,73.41010899653305,16.392961876832846
73.43320095579199,48,103,2,0.009000000000000001,73.41931043770792,13.890518084066471
73.43650195840989,63,84,1,0.009000000000000001,73.41963978832192,16.86217008797654
73.4465019584099,49,72,1,0.009000000000000001,73.42776295547735,18.73900293255132
73.443200955792,51,99,2,0.024757472937341325,73.42868482675973,14.516129032258064
73.4565019584099,50,62,1,0.009000000000000001,73.43619892810688,20.303030303030305
73.45356068545419,58,108,0,0.009000000000000001,73.44045218105536,13.10850439882698
73.4635606854542,48,67,0,0.009000000000000001,73.44403966883641,19.521016617790814
73.4665019584099,56,55,1,0.015548197624465923,73.44510410894755,21.397849462365592
73.47070925905571,34,82,2,0.009000000000000001,73.45353428349364,17.174975562072337
73.4735606854542,69,69,0,0.011646847135428878,73.45435247431051,19.208211143695017
73.48377773354821,51,75,1,0.009000000000000001,73.4655079388268,18.269794721407624
73.48070925905571,72,106,2,0.009405356140821237,73.46728794918279,13.421309872922777
73.48650162671579,54,122,0,0.024944632581558164,73.47558276063563,10.918866080156402
73.49115965476774,46,102,2,0.025209303071906823,73.47711273394663,14.04692082111437
73.49377773354821,62,117,1,0.009000000000000001,73.48207685378281,11.700879765395896
73.50377773354822,65,125,1,0.02003363587654687,73.4933280756792,10.449657869012707
73.5191699915143,57,72,2,0.009000000000000001,73.50043098858175,18.73900293255132
73.51421788513974,53,127,0,0.02552569495150733,73.50408103274482,10.136852394916911
73.52603732896661,57,84,1,0.04123687406302962,73.50917515887863,16.86217008797654
73.52916999151431,56,88,2,0.024085011824446074,73.51293343237452,16.236559139784944
73.5425797684192,41,65,0,0.012851588902659257,73.52274594632732,19.83382209188661
73.5559311157637,60,85,2,0.009000000000000001,73.53922534841277,16.705767350928642
73.55685931164437,50,88,0,0.009000000000000001,73.54062275250459,16.236559139784944
73.5659311157637,55,93,2,0.02959127607619784,73.55047657030916,15.454545454545453
73.56685931164438,58,95,0,0.009000000000000001,73.55171757166393,15.141739980449657
73.57185607792553,55,90,1,0.009000000000000001,73.55593232425984,15.923753665689148
73.57685931164438,54,127,0,0.04677509644611058,73.56672245924946,10.136852394916911
73.59185607792554,53,42,1,0.009000000000000001,73.56842499288156,23.43108504398827
73.58185607792554,61,127,1,0.009000000000000001,73.57171922553061,10.136852394916911
73.59881031140392,54,79,2,0.020601388925702784,73.58116612763071,17.64418377321603
73.60185607792555,58,67,1,0.009000000000000001,73.58233506130776,19.521016617790814
73.61185607792555,53,125,1,0.009000000000000001,73.60140642005653,10.449657869012707
73.62883164102895,46,46,0,0.019534412242196937,73.60602616693316,22.805474095796676
73.62185607792556,63,118,1,0.012811630797618545,73.6103116008972,11.544477028347998
73.6217007435436,62,127,2,0.015231954940203518,73.61156389114868,10.136852394916911
73.63862513792161,52,73,2,0.03285947626048428,73.6200425377261,18.58260019550342
73.63609122325624,49,127,1,0.03677505013588945,73.62595437086132,10.136852394916911
73.65053654352029,63,89,0,0.009000000000000001,73.63445638711755,16.080156402737046
73.6605365435203,43,111,0,0.038529990136289036,73.64789724733261,12.639296187683286
73.67513566709992,51,58,2,0.009000000000000001,73.6542070258487,20.928641251221897
73.6769523900739,49,126,1,0.009000000000000001,73.66665913494192,10.29325513196481
73.68513566709993,53,74,2,0.013571575840931478,73.66670946964148,18.426197458455523
73.6869523900739,58,127,1,0.01492414788750691,73.67681553767898,10.136852394916911
73.70021519581208,50,79,2,0.011458838399855786,73.68257101203886,17.64418377321603
73.70334764367172,49,90,0,0.009000000000000001,73.68742389000603,15.923753665689148
73.71294723847858,44,35,2,0.02027690860414215,73.68842133427525,24.52590420332356
73.70353477661557,48,104,1,0.009000000000000001,73.68980066126855,13.734115347018573
73.71353477661557,48,90,1,0.009000000000000001,73.69761102294989,15.923753665689148
73.71334764367172,70,94,0,0.029310399508389446,73.69804950095423,15.298142717497555
73.72353477661558,61,98,1,0.01007573194914298,73.70886224484627,14.672531769305962
73.73473003433685,57,57,1,0.03262774275765792,73.71364499034858,21.085043988269796
73.73547713692763,49,104,2,0.009000000000000001,73.72174302158061,13.734115347018573
73.74591475423661,46,59,0,0.009000000000000001,73.72514251572244,20.772238514174
73.74547713692763,44,116,2,0.01679663407539216,73.73361985442519,11.857282502443795
73.75591475423661,40,57,0,0.009000000000000001,73.73482971024835,21.085043988269796
73.76591475423662,61,76,0,0.00946983685836938,73.74780136225226,18.113391984359726
73.76414006367807,51,115,2,0.009000000000000001,73.75212637843858,12.013685239491693
73.77098308184536,51,115,1,0.011800894514927222,73.75896939660586,12.013685239491693
73.78409518686195,47,45,1,0.010016319892728052,73.76113331002911,22.961876832844574
73.78414006367808,63,53,2,0.011744621245412928,73.76242940874162,21.71065493646139
73.77414006367808,52,127,2,0.009000000000000001,73.76400321128315,10.136852394916911
73.77643679519036,52,118,0,0.01080366509878624,73.76489231816201,11.544477028347998
73.78844086752235,49,70,0,0.009000000000000001,73.76938905911571,19.05180840664712
73.79844086752236,44,78,0,0.011825361543164542,73.7806402810121,17.80058651026393
73.7952244311872,47,108,1,0.009000000000000001,73.78211592678836,13.10850439882698
73.79718964283965,42,127,2,0.03611060643678397,73.78705279044473,10.136852394916911
73.8052244311872,62,85,1,0.009895244073880705,73.78851866383627,16.705767350928642
73.81621914682485,53,79,1,0.009000000000000001,73.79857496305164,17.64418377321603
73.81158015812588,50,127,0,0.009000000000000001,73.80144330573096,10.136852394916911
73.82158015812588,59,83,0,0.013897387304541675,73.80456158530086,17.01857282502444
73.82621914682485,50,103,1,0.009000000000000001,73.81232862874079,13.890518084066471
73.83702169957537,67,79,0,0.01133010567685718,73.81937751580216,17.64418377321603
73.83731253888052,56,78,2,0.009000000000000001,73.81951195237026,17.80058651026393
73.83621914682486,44,105,1,0.028348244487765732,73.82264143421489,13.577712609970675
73.84731253888053,47,47,2,0.030094719951619057,73.82466346752179,22.649071358748778
73.849610705883,49,104,0,0.009000000000000001,73.83587659053597,13.734115347018573
73.859610705883,68,97,0,0.0189552530528055,73.84478177137665,14.82893450635386
73.86771719625571,56,52,1,0.013674446163053381,73.84585013858221,21.867057673509287
73.8806720981639,65,85,0,0.009000000000000001,73.86396633081297,16.705767350928642
73.8906720981639,55,63,0,0.03448019353550758,73.87052547059793,20.146627565982406
73.88075111660456,49,127,2,0.023309420659393842,73.87061426420964,10.136852394916911
73.88291102532577,48,115,1,0.02591616326284107,73.87089734008627,12.013685239491693
73.90665047289278,57,51,2,0.11354287104758796,73.88462701248223,22.023460410557185
73.91170676228448,42,74,1,0.009000000000000001,73.89328056482603,18.426197458455523
73.92170676228449,50,81,1,0.02304355835826971,73.90437538398537,17.331378299120235
73.92898342431447,47,73,0,0.009000000000000001,73.91040082411897,18.58260019550342
73.94731071601589,55,50,1,0.009000000000000001,73.92513085286829,22.179863147605083
73.93898342431447,48,109,0,0.017053196320117904,73.92603132265269,12.952101661779082
73.9573107160159,63,35,1,0.009000000000000001,73.93278481181257,24.52590420332356
73.95793142022572,56,58,0,0.009000000000000001,73.9370027789745,20.928641251221897
73.9673107160159,59,81,1,0.030620284135254167,73.94997933771678,17.331378299120235
73.96793142022572,64,89,0,0.07263865726294855,73.95185126382299,16.080156402737046
74.00133325394397,48,109,1,0.009000000000000001,73.98838115228219,12.952101661779082
74.01133325394397,55,95,1,0.07444237572382519,73.99619151396352,15.141739980449657
74.03280921850121,56,106,2,0.0268761939290503,74.01938790862829,13.421309872922777
74.04864103940677,45,90,0,0.011486596851763193,74.03271728574109,15.923753665689148
74.06140392479762,51,61,0,0.012197979715936638,74.04094449175754,20.459433040078203
74.06267165620015,48,113,2,0.009000000000000001,74.05034516548656,12.32649071358749
74.0749572355931,42,72,0,0.009000000000000001,74.05621823266056,18.73900293255132
74.07267165620016,61,104,2,0.009000000000000001,74.05893754085314,13.734115347018573
74.08267165620016,61,61,2,0.05855338429419458,74.06221222316009,20.459433040078203
74.08495723559311,68,71,0,0.02715099902508093,74.06606182992351,18.89540566959922
74.09404700474822,55,75,1,0.011029224751056917,74.07577721002681,18.269794721407624
74.10630169891606,46,87,1,0.009000000000000001,74.08990873703922,16.392961876832846
74.11630169891606,44,71,1,0.009000000000000001,74.09740629324646,18.89540566959922
74.12630169891607,55,12,1,0.009000000000000001,74.09817853176064,28.12316715542522
74.11512501228765,59,118,0,0.04889861820729472,74.1035805352593,11.544477028347998
74.13630169891607,47,99,1,0.044931758950895635,74.12178556988381,14.516129032258064
74.1477309720826,51,61,2,0.009000000000000001,74.12727153904252,20.459433040078203
74.1577309720826,50,72,2,0.03015184213659275,74.13899196915006,18.73900293255132
74.16945681029576,60,90,0,0.009000000000000001,74.15353305663007,15.923753665689148
74.17945681029576,53,82,0,0.013369389289916968,74.16228183473369,17.174975562072337
74.19123301890104,43,85,2,0.015608082335937882,74.17452725155012,16.705767350928642
74.18622587552818,53,127,1,0.009000000000000001,74.17608902313326,10.136852394916911
74.20431168728456,56,29,0,0.07072838229436268,74.17884736665894,25.46432062561095
74.19431168728455,60,99,0,0.009000000000000001,74.1797955582523,14.516129032258064
74.19622587552819,51,90,1,0.009000000000000001,74.1803021218625,15.923753665689148
74.20857533260764,71,51,2,0.06507364078573073,74.18655187219709,22.023460410557185
74.2173327072715,65,38,1,0.009000000000000001,74.19327601127931,24.05669599217986
74.20622587552819,56,112,1,0.009996148568974482,74.19374298207755,12.482893450635387
74.2273327072715,56,101,1,0.009000000000000001,74.21312938371334,14.203323558162268
74.2373327072715,62,127,1,0.009000000000000001,74.22719585487658,10.136852394916911
74.24733270727151,49,72,1,0.010116592189385359,74.22859370433896,18.73900293255132
74.25857336525972,49,51,1,0.009000000000000001,74.23654990484917,22.023460410557185
74.26857336525973,43,87,1,0.014987356051043713,74.2521804033829,16.392961876832846
74.28087937792512,55,56,2,0.040962050649034985,74.2596379311998,21.241446725317694
74.28522598309422,54,76,1,0.018654810660395107,74.26711259110986,18.113391984359726
74.28289877872274,62,110,0,0.009000000000000001,74.270103079798,12.795698924731184
74.29289877872274,56,102,0,0.0483151969812294,74.27885185790163,14.04692082111437
74.30595355049466,59,87,1,0.01108599634015499,74.28956058861783,16.392961876832846
74.31827132420595,41,91,1,0.012229592800300998,74.30250397327731,15.76735092864125
74.32639276753515,32,93,2,0.0717583618127895,74.31093822208061,15.454545454545453
74.33185976065073,62,97,1,0.009000000000000001,74.31703082614438,14.82893450635386
74.34185976065073,59,59,1,0.021162946994896386,74.32108752213657,20.772238514174
74.34658233092411,56,75,0,0.0091164385094693,74.3283125362027,18.269794721407624
74.35671170704573,60,81,0,0.056608491887321574,74.33938032874661,17.331378299120235
74.36537414620062,53,73,1,0.009000000000000001,74.34679154600512,18.58260019550342
74.37537414620063,59,39,1,0.009000000000000001,74.35147385294549,23.900293255131963
74.38537414620063,56,97,1,0.009000000000000001,74.37054521169428,14.82893450635386
74.39537414620064,57,70,1,0.04670867837817998,74.376322337794,19.05180840664712
74.40612428066048,48,83,2,0.009000000000000001,74.38910570783545,17.01857282502444
74.41612428066048,47,66,2,0.029992608156559842,74.39644686130565,19.67741935483871
74.41961003136498,53,59,0,0.014963435066452278,74.39883779285081,20.772238514174
74.43623607032771,50,71,0,0.009000000000000001,74.41734066465811,18.89540566959922
74.44623607032771,48,89,0,0.02853059370830936,74.43015591392498,16.080156402737046
74.44727267773195,54,92,1,0.04167504825168352,74.43166172954035,15.610948191593351
74.44944940083444,62,92,2,0.009000000000000001,74.43383845264285,15.610948191593351
74.45944940083444,56,91,2,0.02620521118352832,74.4436820499058,15.76735092864125
74.47793673000362,56,92,0,0.011706932706149158,74.46232578181203,15.610948191593351
74.48856630214948,56,70,2,0.054497907351195134,74.46951449374284,19.05180840664712
74.49094443301045,55,62,0,0.009000000000000001,74.47064140270743,20.303030303030305
74.49357828690049,60,62,1,0.024541757181477802,74.47327525659746,20.303030303030305
74.50094443301046,58,76,0,0.009000000000000001,74.4828310410261,18.113391984359726
74.51094443301047,62,59,0,0.04985238851521885,74.4901721944963,20.772238514174
74.52084690599102,71,88,1,0.009000000000000001,74.50461034685124,16.236559139784944
74.53084690599103,59,83,1,0.009703601821582626,74.513828333166,17.01857282502444
74.54162868579279,31,73,1,0.009000000000000001,74.52304608559729,18.58260019550342
74.55162868579279,56,71,1,0.009000000000000001,74.5327332801232,18.89540566959922
74.54911953253969,53,127,2,0.012451457822157095,74.53898268014477,10.136852394916911
74.56295448567542,53,80,2,0.009000000000000001,74.54546670463925,17.487781036168133
74.5616286857928,47,106,1,0.01076057875711747,74.54820737591987,13.421309872922777
74.56633597580515,41,78,0,0.017322400026407378,74.54853538929488,17.80058651026393
74.57295448567542,65,93,2,0.013290185807485028,74.55749994022088,15.454545454545453
74.57358488441182,58,98,1,0.01226393546780969,74.55891235264251,14.672531769305962
74.5855830869456,65,70,0,0.026069413554154625,74.56653127853896,19.05180840664712
74.58772135879485,61,70,2,0.009000000000000001,74.56866955038821,19.05180840664712
74.58721147937605,77,106,1,0.015051337170542151,74.57379016950313,13.421309872922777
74.59772135879486,51,101,2,0.014790828718714769,74.5835180352367,14.203323558162268
74.60393518734332,57,75,1,0.055118310369020186,74.58566539262192,18.269794721407624
74.61415561292677,56,90,2,0.021127994411443262,74.59823185926108,15.923753665689148
74.61454910200578,51,118,0,0.054811336411881656,74.60300462497743,11.544477028347998
74.63763116227281,56,87,2,0.09296745447848763,74.62123820039598,16.392961876832846
74.66517775442001,54,97,1,0.009000000000000001,74.65034881991366,14.82893450635386
74.67517775442002,38,42,1,0.009000000000000001,74.65174666937604,23.43108504398827
74.67545058690787,54,57,0,0.011141833662038267,74.6543655429196,21.085043988269796
74.68517775442002,61,72,1,0.009000000000000001,74.66643875148748,18.73900293255132
74.68783040208791,35,100,0,0.009000000000000001,74.6734706757927,14.359726295210166
74.69517775442003,58,80,1,0.009000000000000001,74.67768997338386,17.487781036168133
74.69783040208792,54,70,0,0.01627116224036895,74.67877859368127,19.05180840664712
74.70517775442003,65,44,1,0.009000000000000001,74.68205947485015,23.118279569892472
74.71517775442004,56,81,1,0.009000000000000001,74.69784637612092,17.331378299120235
74.72780344565187,69,35,0,0.009000000000000001,74.70327754144854,24.52590420332356
74.71590947124388,65,127,0,0.010704576967201094,74.70577261884895,10.136852394916911
74.72517775442005,46,127,1,0.009000000000000001,74.71504090202512,10.136852394916911
74.73517775442005,56,74,1,0.009000000000000001,74.7167515569616,18.426197458455523
74.73780344565188,51,127,0,0.009000000000000001,74.72766659325696,10.136852394916911
74.74517775442006,52,94,1,0.03422207030007725,74.72987961170256,15.298142717497555
74.74092833391558,58,127,2,0.009000000000000001,74.73079148152065,10.136852394916911
74.74780344565188,53,108,0,0.010179060905281954,74.73469494125305,13.10850439882698
74.75092833391558,65,107,2,0.010386828217178738,74.7376634267797,13.264907135874878
74.7624692541569,45,67,2,0.009000000000000001,74.74294823753911,19.521016617790814
74.75911351332442,59,101,0,0.009000000000000001,74.74491018976626,14.203323558162268
74.7724692541569,46,64,2,0.009000000000000001,74.75247902932797,19.990224828934508
74.76911351332443,58,90,0,0.009000000000000001,74.75318975965874,15.923753665689148
74.77911351332443,38,96,0,0.014563848701078812,74.76412817608103,14.985337243401759
74.7832022769757,59,95,1,0.009000000000000001,74.76806053699525,15.141739980449657
74.78246925415691,52,126,2,0.009000000000000001,74.77217599902494,10.29325513196481
74.79529556743674,51,72,0,0.009000000000000001,74.77655656450419,18.73900293255132
74.7932022769757,47,94,1,0.009000000000000001,74.77790413425821,15.298142717497555
74.79246925415691,56,103,2,0.009000000000000001,74.77857873607284,13.890518084066471
74.80320227697571,49,74,1,0.009000000000000001,74.78477607951726,18.426197458455523
74.80246925415692,44,88,2,0.01376063372088402,74.78623269501713,16.236559139784944
74.80529556743674,62,99,0,0.009000000000000001,74.79077943840448,14.516129032258064
74.81320227697572,49,75,1,0.02382558987954771,74.79493248225431,18.269794721407624
74.81529556743675,56,100,0,0.009000000000000001,74.80093584114154,14.359726295210166
74.81775884718012,51,90,2,0.047871254414017475,74.80183509351443,15.923753665689148
74.82529556743675,55,64,0,0.009000000000000001,74.80530534260782,19.990224828934508
74.83967515461966,54,63,1,0.01300763833638906,74.81952852705368,20.146627565982406
74.83529556743676,53,103,0,0.009000000000000001,74.82140504935269,13.890518084066471
74.84529556743676,58,69,0,0.018037004209747885,74.82608735629307,19.208211143695017
74.85412808610454,40,110,1,0.012419443639867522,74.8413323871798,12.795698924731184
74.86533668322538,74,71,0,0.009000000000000001,74.84644127755578,18.89540566959922
74.86792746792662,41,106,1,0.011732873405856744,74.8545061580537,13.421309872922777
74.87533668322538,68,76,0,0.016927086858677373,74.85722329124103,18.113391984359726
74.87094912986235,60,107,2,0.009000000000000001,74.85768422272648,13.264907135874878
74.88094912986236,54,55,2,0.009000000000000001,74.8595512804,21.397849462365592
74.88096399393312,46,89,1,0.018820390915203912,74.86488383753039,16.080156402737046
74.8941445575128,40,67,0,0.03447411101045347,74.87462354089502,19.521016617790814
74.89094912986236,48,107,2,0.009000000000000001,74.87768422272649,13.264907135874878
74.90187553939445,54,38,1,0.009000000000000001,74.87781884340227,24.05669599217986
74.90094912986237,65,67,2,0.009000000000000001,74.88142811324458,19.521016617790814
74.91187553939446,60,102,1,0.03704705203795005,74.89782861857334,14.04692082111437
74.91094912986237,53,127,2,0.02246666723967222,74.90081227746745,10.136852394916911
74.9324491253022,53,110,0,0.018736341624044826,74.91965342637747,12.795698924731184
74.93591209346201,62,117,2,0.01992798765781969,74.92421121369661,11.700879765395896
74.95303893054773,66,79,1,0.03571457310536336,74.93539474677452,17.64418377321603
74.95326728266225,58,98,0,0.009000000000000001,74.93859475089295,14.672531769305962
74.95805430197069,50,70,2,0.034163806009902056,74.93900249356405,19.05180840664712
74.96326728266226,61,98,0,0.013450346280301093,74.94859475089295,14.672531769305962
74.97821211186259,62,65,0,0.009000000000000001,74.9583782897707,19.83382209188661
74.9882121118626,49,74,0,0.009000000000000001,74.96978591440414,18.426197458455523
74.9927217895537,44,75,1,0.0207711465120473,74.9744519948323,18.269794721407624
74.99601408642614,56,61,2,0.027029105439580713,74.97555465338607,20.459433040078203
75.0,36,36,2,0.4241785720056848,74.97563049853372,24.369501466275658
74.9982121118626,76,105,0,0.016357918520731724,74.98463439925263,13.577712609970675
75.0,57,110,1,0.41151103129182476,74.98720430107527,12.795698924731184
75.0,33,113,0,0.33343984371355756,74.98767350928641,12.32649071358749
75.37048871523729,99,114,0,0.5292089316576818,75.35831862726074,12.170087976539591
75.45723447921314,94,123,1,0.32504491780279354,75.44647201587003,10.762463343108504
75.47130952445076,74,34,2,0.9685362756472572,75.44662721751038,24.682306940371458
75.81839549899402,37,112,1,0.08788589234269772,75.80591260554338,12.482893450635387
75.91604649048591,84,71,1,0.5922797745431997,75.89715108481631,18.89540566959922
75.95849863930138,54,107,0,0.32174753078352375,75.9452337321655,13.264907135874878
76.31599589572753,89,89,0,0.7655575040571906,76.29991573932479,16.080156402737046
76.5474609418366,30,100,2,0.1112928816177322,76.5331012155414,14.359726295210166
76.57413512886724,78,64,1,1.0118586083721308,76.55414490403831,19.990224828934508
76.67111969918965,46,85,2,0.4824909923781167,76.65441393183872,16.705767350928642
77.16661534467995,63,55,0,0.35070940224883257,77.1452174952176,21.397849462365592
77.207220801832,64,113,2,0.5533116976742111,77.1948943111184,12.32649071358749
77.55629245828978,67,104,0,0.18683538625320867,77.54255834294275,13.734115347018573
77.69842247150294,34,83,1,1.6458835522735955,77.68140389867791,17.01857282502444
77.76388733190446,50,59,0,0.8704376309059864,77.74311509339029,20.772238514174
77.82201157702556,95,54,2,0.06672958654954358,77.80045732482616,21.55425219941349
77.89615556208061,27,79,2,0.38901629153270223,77.8785113783074,17.64418377321603
78.32839588600584,25,89,2,0.12345861599556737,78.3123157296031,16.080156402737046
78.46557212600091,98,61,2,1.0770787530762895,78.44511269296083,20.459433040078203
78.73104025513334,35,72,0,1.1690278933276141,78.71230125220079,18.73900293255132
79.52718197402915,73,27,1,0.7703038664427955,79.50140484792944,25.777126099706745
79.66232629608567,99,75,2,0.587143896054364,79.64405650136426,18.269794721407624
80.02996013660847,68,28,0,0.2905838205670539,80.0043394132458,25.620723362658847
80.31470840281274,72,40,2,0.36704302161029695,80.29096451229465,23.743890518084065
80.35283104834964,45,118,0,0.18949222580020494,80.34128657132129,11.544477028347998
80.38307515896558,50,103,1,0.021505174632289452,80.36918464088151,13.890518084066471
80.40696979744591,32,114,1,0.1408921954913273,80.39479970946937,12.170087976539591
80.56351668132517,37,35,1,0.20631464392713864,80.53899077712184,24.52590420332356
80.56337796590543,61,116,0,0.5030962664578366,80.55152068340298,11.857282502443795
80.72253398237974,41,83,2,0.8514739015784086,80.70551540955472,17.01857282502444
80.79275517457755,60,94,1,1.337779980401544,80.77745703186005,15.298142717497555
81.12237381752524,99,115,0,0.8761259085979518,81.11036013228575,12.013685239491693
81.66861609524464,62,75,2,0.2559252015147492,81.65034630052324,18.269794721407624
81.95297743026103,70,77,2,0.1553644557217752,81.93502044101372,17.956989247311828
82.09584704930074,68,29,0,0.06907324913525667,82.07038272867513,25.46432062561095
82.12560460328523,77,39,2,0.3419586103231408,82.10170431003009,23.900293255131963
82.17259510389547,90,81,0,0.6645423283418566,82.15526372559636,17.331378299120235
82.2791773750237,28,61,1,0.11213532882865092,82.25871794198363,20.459433040078203
82.40377218483331,69,115,1,0.08847560206810604,82.39175849959382,12.013685239491693
82.50207840935343,68,65,1,0.08806704069850728,82.48224458726155,19.83382209188661
82.50555861475539,94,50,2,0.386544180633592,82.48337875160779,22.179863147605083
82.59993067679622,58,64,1,0.20433541797213606,82.57994045196729,19.990224828934508
82.8269700300986,25,96,1,0.06900798024691031,82.81198469285519,14.985337243401759
82.91097546871976,44,42,0,0.4865570274542363,82.88754438367577,23.43108504398827
82.90364556370628,93,95,1,0.6690227667148844,82.88850382372583,15.141739980449657
82.9350521487927,82,88,2,0.2161069881215811,82.91881558965292,16.236559139784944
83.17517102448335,55,86,2,0.019641145911724795,83.15862165986947,16.549364613880744
83.19699451994082,74,61,2,0.31210116499042373,83.17653508690074,20.459433040078203
83.45159438811335,57,65,0,0.8378224862218907,83.43176056602147,19.83382209188661
83.54377359215239,59,29,2,0.28143362603372707,83.51830927152677,25.46432062561095
83.64700419338948,43,119,1,0.8188365472541662,83.63561611909817,11.3880742913001
83.85647762107875,72,48,2,0.6332545643637824,83.83398495245706,22.49266862170088
84.38250826169323,79,50,0,0.22421773853804766,84.36032839854563,22.179863147605083
84.56009380370517,77,72,2,0.2591285798580852,84.54135480077262,18.73900293255132
84.55682257922744,68,106,1,0.50610014996036,84.54340126935452,13.421309872922777
84.63163908229106,46,61,0,0.37481502633297464,84.61117964925099,20.459433040078203
84.84801444799193,85,35,2,1.0274409874785302,84.8234885437886,24.52590420332356
85.04810022266103,74,80,0,0.05676618032266352,85.03061244162487,17.487781036168133
85.11117375635288,95,27,0,1.1801602725373597,85.08539663025317,25.777126099706745
85.1191560791834,67,64,1,0.2553411893968967,85.09916585435447,19.990224828934508
85.40286851184662,92,26,1,0.0676115730383957,85.37693498300986,25.933528836754643
85.47799248188929,45,122,1,0.3991699353502648,85.46707361580913,10.918866080156402
85.92151463227847,95,97,1,0.4393363018719223,85.90668569777212,14.82893450635386
85.98961554519029,40,123,2,0.21146519715329265,85.97885308184718,10.762463343108504
86.22457687536061,46,33,2,0.38285883707681373,86.19973816568319,24.838709677419356
86.40966607880283,56,87,1,0.0818200953061653,86.393273116926,16.392961876832846
86.42246294806107,45,99,0,0.4559684203121344,86.40794681902881,14.516129032258064
86.50057729580968,61,90,1,0.16847435542810216,86.48465354214399,15.923753665689148
86.64997558322374,97,94,2,0.12062378184340852,86.63467744050624,15.298142717497555
86.68777102406312,57,107,1,0.29986022243658245,86.67450611692725,13.264907135874878
86.7840020074942,75,104,2,0.06799840405652056,86.77026789214717,13.734115347018573
86.85955578977922,93,98,2,0.3149589602415336,86.84488325800992,14.672531769305962
86.92909452618566,63,106,0,0.5541492394932657,86.91567321631274,13.421309872922777
87.02094904899266,68,122,1,0.12632200428468676,87.0100301829125,10.918866080156402
87.1613068315312,57,104,1,0.030539801106911454,87.14757271618419,13.734115347018573
87.19523994387222,76,28,1,0.2889566601763091,87.16961922050956,25.620723362658847
87.2095101900476,73,99,2,0.12526795137359223,87.19499406101534,14.516129032258064
87.34869680268493,92,114,2,0.09694130277414126,87.33652671470838,12.170087976539591
87.45640936132286,98,110,2,0.31413901319410514,87.44361366239812,12.795698924731184
87.51630289962368,91,53,1,0.26788431013310887,87.49459224468723,21.71065493646139
87.5448159034004,90,61,0,0.04093176884466048,87.52435647036033,20.459433040078203
87.59029564656115,36,124,0,0.8036644346309982,87.57968958595508,10.606060606060606
87.8054527093163,48,118,2,0.6648812370048609,87.79390823228795,11.544477028347998
87.81395213310492,36,75,1,1.4651609545286717,87.79568233838351,18.269794721407624
88.48325612948447,84,85,0,0.2080674080639009,88.46655036213355,16.705767350928642
88.54420963932169,58,45,2,0.13723713716732483,88.52124776248885,22.961876832844574
88.69669534728538,49,64,2,0.44862807089565704,88.67670512245645,19.990224828934508
88.71444213844437,46,101,0,1.6363205213119287,88.7002388148862,14.203323558162268
89.1951709816139,95,57,2,0.21647075843325062,89.17408593762563,21.085043988269796
89.43569404653974,92,42,2,0.241202674500677,89.41226296149576,23.43108504398827
89.44190874924789,75,25,1,0.025962420700786148,89.41581881767408,26.08993157380254
89.47075588335987,80,47,1,0.009000000000000001,89.44810681200113,22.649071358748778
89.48075588335988,94,76,1,0.08681794461498137,89.46264249137552,18.113391984359726
89.57722026626541,82,76,1,0.15770165114964696,89.55910687428106,18.113391984359726
89.70369701820715,94,77,2,0.4192775538269069,89.68574002895984,17.956989247311828
89.75244432309836,62,115,1,0.07546047236223921,89.74043063785886,12.013685239491693
89.83628929238974,80,119,1,0.10982101850190873,89.82490121809843,11.3880742913001
89.95831264628075,71,98,1,0.26878512400121285,89.94364011451144,14.672531769305962
